<?xml version="1.0" standalone="no"?><!DOCTYPE svg PUBLIC "-//W3C//DTD SVG 1.1//EN" "http://www.w3.org/Graphics/SVG/1.1/DTD/svg11.dtd">
<svg width="351.2" height="442.3" version="1.1" xmlns="http://www.w3.org/2000/svg">
<text xml:space="preserve" x="107.2" y="217.633" font-family="Calibri" font-size="6" text-anchor="end">Ankrd1</text>
<text xml:space="preserve" x="107.2" y="223.633" font-family="Calibri" font-size="6" text-anchor="end">Pcdhb17</text>
<text xml:space="preserve" x="107.2" y="229.633" font-family="Calibri" font-size="6" text-anchor="end">Klhl5</text>
<text xml:space="preserve" x="107.2" y="235.633" font-family="Calibri" font-size="6" text-anchor="end">Intu</text>
<text xml:space="preserve" x="107.2" y="241.633" font-family="Calibri" font-size="6" text-anchor="end">Col4a5</text>
<text xml:space="preserve" x="107.2" y="247.633" font-family="Calibri" font-size="6" text-anchor="end">Nap1l5</text>
<text xml:space="preserve" x="107.2" y="253.633" font-family="Calibri" font-size="6" text-anchor="end">Pcdhb18</text>
<text xml:space="preserve" x="107.2" y="259.633" font-family="Calibri" font-size="6" text-anchor="end">Cox8c</text>
<text xml:space="preserve" x="107.2" y="265.633" font-family="Calibri" font-size="6" text-anchor="end">BC031748</text>
<text xml:space="preserve" x="107.2" y="271.633" font-family="Calibri" font-size="6" text-anchor="end">Pcdhga7</text>
<text xml:space="preserve" x="107.2" y="277.633" font-family="Calibri" font-size="6" text-anchor="end">Pcdhga6</text>
<text xml:space="preserve" x="107.2" y="283.633" font-family="Calibri" font-size="6" text-anchor="end">Pcdhb22</text>
<text xml:space="preserve" x="107.2" y="289.633" font-family="Calibri" font-size="6" text-anchor="end">Pcdhb21</text>
<text xml:space="preserve" x="107.2" y="295.633" font-family="Calibri" font-size="6" text-anchor="end">Pcdhb20</text>
<text xml:space="preserve" x="107.2" y="301.633" font-family="Calibri" font-size="6" text-anchor="end">Pcdhb19</text>
<text xml:space="preserve" x="117.533" y="208.3" font-family="Calibri" font-size="6" transform="rotate(270 117.533 208.3)">ips</text>
<text xml:space="preserve" x="125.533" y="208.3" font-family="Calibri" font-size="6" transform="rotate(270 125.533 208.3)">pips</text>
<text xml:space="preserve" x="133.533" y="208.3" font-family="Calibri" font-size="6" transform="rotate(270 133.533 208.3)">mef</text>
<text xml:space="preserve" x="150.533" y="208.3" font-family="Calibri" font-size="6" transform="rotate(270 150.533 208.3)">ips_H3K4me3iPS</text>
<text xml:space="preserve" x="156.533" y="208.3" font-family="Calibri" font-size="6" transform="rotate(270 156.533 208.3)">ips_H3K9aciPS</text>
<text xml:space="preserve" x="162.533" y="208.3" font-family="Calibri" font-size="6" transform="rotate(270 162.533 208.3)">ips_H3K14aciPS</text>
<text xml:space="preserve" x="168.533" y="208.3" font-family="Calibri" font-size="6" transform="rotate(270 168.533 208.3)">ips_H3K18aciPS</text>
<text xml:space="preserve" x="174.533" y="208.3" font-family="Calibri" font-size="6" transform="rotate(270 174.533 208.3)">ips_H3K79me2iPS</text>
<text xml:space="preserve" x="180.533" y="208.3" font-family="Calibri" font-size="6" transform="rotate(270 180.533 208.3)">ips_H3K9me2iPS</text>
<text xml:space="preserve" x="186.533" y="208.3" font-family="Calibri" font-size="6" transform="rotate(270 186.533 208.3)">ips_H3K9me3iPS</text>
<text xml:space="preserve" x="192.533" y="208.3" font-family="Calibri" font-size="6" transform="rotate(270 192.533 208.3)">ips_H3K27me3iPS</text>
<text xml:space="preserve" x="208.533" y="208.3" font-family="Calibri" font-size="6" transform="rotate(270 208.533 208.3)">pips_H3K4me3pips</text>
<text xml:space="preserve" x="214.533" y="208.3" font-family="Calibri" font-size="6" transform="rotate(270 214.533 208.3)">pips_H3K9acpips</text>
<text xml:space="preserve" x="220.533" y="208.3" font-family="Calibri" font-size="6" transform="rotate(270 220.533 208.3)">pips_H3K14acpips</text>
<text xml:space="preserve" x="226.533" y="208.3" font-family="Calibri" font-size="6" transform="rotate(270 226.533 208.3)">pips_H3K18acpips</text>
<text xml:space="preserve" x="232.533" y="208.3" font-family="Calibri" font-size="6" transform="rotate(270 232.533 208.3)">pips_H3K79me2pips</text>
<text xml:space="preserve" x="238.533" y="208.3" font-family="Calibri" font-size="6" transform="rotate(270 238.533 208.3)">pips_H3K9me2pips</text>
<text xml:space="preserve" x="244.533" y="208.3" font-family="Calibri" font-size="6" transform="rotate(270 244.533 208.3)">pips_H3K9me3pips</text>
<text xml:space="preserve" x="250.533" y="208.3" font-family="Calibri" font-size="6" transform="rotate(270 250.533 208.3)">pips_H3K27me3pips</text>
<text xml:space="preserve" x="266.533" y="208.3" font-family="Calibri" font-size="6" transform="rotate(270 266.533 208.3)">mef_H3K4me3mef</text>
<text xml:space="preserve" x="272.533" y="208.3" font-family="Calibri" font-size="6" transform="rotate(270 272.533 208.3)">mef_H3K9acmef</text>
<text xml:space="preserve" x="278.533" y="208.3" font-family="Calibri" font-size="6" transform="rotate(270 278.533 208.3)">mef_H3K14acmef</text>
<text xml:space="preserve" x="284.533" y="208.3" font-family="Calibri" font-size="6" transform="rotate(270 284.533 208.3)">mef_H3K18acmef</text>
<text xml:space="preserve" x="290.533" y="208.3" font-family="Calibri" font-size="6" transform="rotate(270 290.533 208.3)">mef_H3K79me2mef</text>
<text xml:space="preserve" x="296.533" y="208.3" font-family="Calibri" font-size="6" transform="rotate(270 296.533 208.3)">mef_H3K9me2mef</text>
<text xml:space="preserve" x="302.533" y="208.3" font-family="Calibri" font-size="6" transform="rotate(270 302.533 208.3)">mef_H3K9me3mef</text>
<text xml:space="preserve" x="308.533" y="208.3" font-family="Calibri" font-size="6" transform="rotate(270 308.533 208.3)">mef_H3K27me3mef</text>
<polygon points="111.2,212.3 119.2,212.3 119.2,218.3 111.2,218.3" fill="rgb(156,207,203)"/><text xml:space="preserve" x="115.2" y="218.133" font-family="Calibri" font-size="7.5" fill="rgb(0,0,0)" text-anchor="middle">3</text>
<polygon points="119.2,212.3 127.2,212.3 127.2,218.3 119.2,218.3" fill="rgb(134,198,192)"/><text xml:space="preserve" x="123.2" y="218.133" font-family="Calibri" font-size="7.5" fill="rgb(0,0,0)" text-anchor="middle">2</text>
<polygon points="127.2,212.3 135.2,212.3 135.2,218.3 127.2,218.3" fill="rgb(134,198,192)"/><text xml:space="preserve" x="131.2" y="218.133" font-family="Calibri" font-size="7.5" fill="rgb(0,0,0)" text-anchor="middle">2</text>
<polygon points="145.2,212.3 151.2,212.3 151.2,218.3 145.2,218.3" fill="rgb(191,191,255)"/>
<polygon points="151.2,212.3 157.2,212.3 157.2,218.3 151.2,218.3" fill="rgb(146,146,255)"/>
<polygon points="157.2,212.3 163.2,212.3 163.2,218.3 157.2,218.3" fill="rgb(200,200,255)"/>
<polygon points="163.2,212.3 169.2,212.3 169.2,218.3 163.2,218.3" fill="rgb(182,182,255)"/>
<polygon points="169.2,212.3 175.2,212.3 175.2,218.3 169.2,218.3" fill="rgb(175,175,255)"/>
<polygon points="175.2,212.3 181.2,212.3 181.2,218.3 175.2,218.3" fill="rgb(255,168,168)"/>
<polygon points="181.2,212.3 187.2,212.3 187.2,218.3 181.2,218.3" fill="rgb(255,23,23)"/>
<polygon points="187.2,212.3 193.2,212.3 193.2,218.3 187.2,218.3" fill="rgb(255,176,176)"/>
<polygon points="203.2,212.3 209.2,212.3 209.2,218.3 203.2,218.3" fill="rgb(239,239,255)"/>
<polygon points="209.2,212.3 215.2,212.3 215.2,218.3 209.2,218.3" fill="rgb(194,194,255)"/>
<polygon points="215.2,212.3 221.2,212.3 221.2,218.3 215.2,218.3" fill="rgb(255,243,243)"/>
<polygon points="221.2,212.3 227.2,212.3 227.2,218.3 221.2,218.3" fill="rgb(200,200,255)"/>
<polygon points="227.2,212.3 233.2,212.3 233.2,218.3 227.2,218.3" fill="rgb(195,195,255)"/>
<polygon points="233.2,212.3 239.2,212.3 239.2,218.3 233.2,218.3" fill="rgb(237,237,255)"/>
<polygon points="239.2,212.3 245.2,212.3 245.2,218.3 239.2,218.3" fill="rgb(255,62,62)"/>
<polygon points="245.2,212.3 251.2,212.3 251.2,218.3 245.2,218.3" fill="rgb(255,179,179)"/>
<polygon points="261.2,212.3 267.2,212.3 267.2,218.3 261.2,218.3" fill="rgb(255,150,150)"/>
<polygon points="267.2,212.3 273.2,212.3 273.2,218.3 267.2,218.3" fill="rgb(249,249,255)"/>
<polygon points="273.2,212.3 279.2,212.3 279.2,218.3 273.2,218.3" fill="rgb(255,189,189)"/>
<polygon points="279.2,212.3 285.2,212.3 285.2,218.3 279.2,218.3" fill="rgb(255,84,84)"/>
<polygon points="285.2,212.3 291.2,212.3 291.2,218.3 285.2,218.3" fill="rgb(250,250,255)"/>
<polygon points="291.2,212.3 297.2,212.3 297.2,218.3 291.2,218.3" fill="rgb(231,231,255)"/>
<polygon points="297.2,212.3 303.2,212.3 303.2,218.3 297.2,218.3" fill="rgb(255,0,0)"/>
<polygon points="303.2,212.3 309.2,212.3 309.2,218.3 303.2,218.3" fill="rgb(212,212,255)"/>
<polygon points="111.2,218.3 119.2,218.3 119.2,224.3 111.2,224.3" fill="rgb(156,207,203)"/><text xml:space="preserve" x="115.2" y="224.133" font-family="Calibri" font-size="7.5" fill="rgb(0,0,0)" text-anchor="middle">3</text>
<polygon points="119.2,218.3 127.2,218.3 127.2,224.3 119.2,224.3" fill="rgb(134,198,192)"/><text xml:space="preserve" x="123.2" y="224.133" font-family="Calibri" font-size="7.5" fill="rgb(0,0,0)" text-anchor="middle">2</text>
<polygon points="127.2,218.3 135.2,218.3 135.2,224.3 127.2,224.3" fill="rgb(134,198,192)"/><text xml:space="preserve" x="131.2" y="224.133" font-family="Calibri" font-size="7.5" fill="rgb(0,0,0)" text-anchor="middle">2</text>
<polygon points="145.2,218.3 151.2,218.3 151.2,224.3 145.2,224.3" fill="rgb(255,252,252)"/>
<polygon points="151.2,218.3 157.2,218.3 157.2,224.3 151.2,224.3" fill="rgb(136,136,255)"/>
<polygon points="157.2,218.3 163.2,218.3 163.2,224.3 157.2,224.3" fill="rgb(63,63,255)"/>
<polygon points="163.2,218.3 169.2,218.3 169.2,224.3 163.2,224.3" fill="rgb(98,98,255)"/>
<polygon points="169.2,218.3 175.2,218.3 175.2,224.3 169.2,224.3" fill="rgb(142,142,255)"/>
<polygon points="175.2,218.3 181.2,218.3 181.2,224.3 175.2,224.3" fill="rgb(58,58,255)"/>
<polygon points="181.2,218.3 187.2,218.3 187.2,224.3 181.2,224.3" fill="rgb(255,171,171)"/>
<polygon points="187.2,218.3 193.2,218.3 193.2,224.3 187.2,224.3" fill="rgb(255,0,0)"/>
<polygon points="203.2,218.3 209.2,218.3 209.2,224.3 203.2,224.3" fill="rgb(216,216,255)"/>
<polygon points="209.2,218.3 215.2,218.3 215.2,224.3 209.2,224.3" fill="rgb(238,238,255)"/>
<polygon points="215.2,218.3 221.2,218.3 221.2,224.3 215.2,224.3" fill="rgb(254,230,230)"/>
<polygon points="221.2,218.3 227.2,218.3 227.2,224.3 221.2,224.3" fill="rgb(221,221,255)"/>
<polygon points="227.2,218.3 233.2,218.3 233.2,224.3 227.2,224.3" fill="rgb(231,231,255)"/>
<polygon points="233.2,218.3 239.2,218.3 239.2,224.3 233.2,224.3" fill="rgb(181,181,255)"/>
<polygon points="239.2,218.3 245.2,218.3 245.2,224.3 239.2,224.3" fill="rgb(255,162,162)"/>
<polygon points="245.2,218.3 251.2,218.3 251.2,224.3 245.2,224.3" fill="rgb(255,199,199)"/>
<polygon points="261.2,218.3 267.2,218.3 267.2,224.3 261.2,224.3" fill="rgb(235,235,255)"/>
<polygon points="267.2,218.3 273.2,218.3 273.2,224.3 267.2,224.3" fill="rgb(160,160,255)"/>
<polygon points="273.2,218.3 279.2,218.3 279.2,224.3 273.2,224.3" fill="rgb(178,178,255)"/>
<polygon points="279.2,218.3 285.2,218.3 285.2,224.3 279.2,224.3" fill="rgb(125,125,255)"/>
<polygon points="285.2,218.3 291.2,218.3 291.2,224.3 285.2,224.3" fill="rgb(240,240,255)"/>
<polygon points="291.2,218.3 297.2,218.3 297.2,224.3 291.2,224.3" fill="rgb(251,251,255)"/>
<polygon points="297.2,218.3 303.2,218.3 303.2,224.3 297.2,224.3" fill="rgb(255,49,49)"/>
<polygon points="303.2,218.3 309.2,218.3 309.2,224.3 303.2,224.3" fill="rgb(174,174,255)"/>
<polygon points="111.2,224.3 119.2,224.3 119.2,230.3 111.2,230.3" fill="rgb(156,207,203)"/><text xml:space="preserve" x="115.2" y="230.133" font-family="Calibri" font-size="7.5" fill="rgb(0,0,0)" text-anchor="middle">3</text>
<polygon points="119.2,224.3 127.2,224.3 127.2,230.3 119.2,230.3" fill="rgb(134,198,192)"/><text xml:space="preserve" x="123.2" y="230.133" font-family="Calibri" font-size="7.5" fill="rgb(0,0,0)" text-anchor="middle">2</text>
<polygon points="127.2,224.3 135.2,224.3 135.2,230.3 127.2,230.3" fill="rgb(134,198,192)"/><text xml:space="preserve" x="131.2" y="230.133" font-family="Calibri" font-size="7.5" fill="rgb(0,0,0)" text-anchor="middle">2</text>
<polygon points="145.2,224.3 151.2,224.3 151.2,230.3 145.2,230.3" fill="rgb(236,236,255)"/>
<polygon points="151.2,224.3 157.2,224.3 157.2,230.3 151.2,230.3" fill="rgb(186,186,255)"/>
<polygon points="157.2,224.3 163.2,224.3 163.2,230.3 157.2,230.3" fill="rgb(181,181,255)"/>
<polygon points="163.2,224.3 169.2,224.3 169.2,230.3 163.2,230.3" fill="rgb(183,183,255)"/>
<polygon points="169.2,224.3 175.2,224.3 175.2,230.3 169.2,230.3" fill="rgb(205,205,255)"/>
<polygon points="175.2,224.3 181.2,224.3 181.2,230.3 175.2,230.3" fill="rgb(113,113,255)"/>
<polygon points="181.2,224.3 187.2,224.3 187.2,230.3 181.2,230.3" fill="rgb(255,227,227)"/>
<polygon points="187.2,224.3 193.2,224.3 193.2,230.3 187.2,230.3" fill="rgb(255,114,114)"/>
<polygon points="203.2,224.3 209.2,224.3 209.2,230.3 203.2,230.3" fill="rgb(165,165,255)"/>
<polygon points="209.2,224.3 215.2,224.3 215.2,230.3 209.2,230.3" fill="rgb(204,204,255)"/>
<polygon points="215.2,224.3 221.2,224.3 221.2,230.3 215.2,230.3" fill="rgb(255,251,251)"/>
<polygon points="221.2,224.3 227.2,224.3 227.2,230.3 221.2,230.3" fill="rgb(212,212,255)"/>
<polygon points="227.2,224.3 233.2,224.3 233.2,230.3 227.2,230.3" fill="rgb(255,224,224)"/>
<polygon points="233.2,224.3 239.2,224.3 239.2,230.3 233.2,230.3" fill="rgb(255,200,200)"/>
<polygon points="239.2,224.3 245.2,224.3 245.2,230.3 239.2,230.3" fill="rgb(255,74,74)"/>
<polygon points="245.2,224.3 251.2,224.3 251.2,230.3 245.2,230.3" fill="rgb(156,156,255)"/>
<polygon points="261.2,224.3 267.2,224.3 267.2,230.3 261.2,230.3" fill="rgb(224,224,255)"/>
<polygon points="267.2,224.3 273.2,224.3 273.2,230.3 267.2,230.3" fill="rgb(221,221,255)"/>
<polygon points="273.2,224.3 279.2,224.3 279.2,230.3 273.2,230.3" fill="rgb(255,235,235)"/>
<polygon points="279.2,224.3 285.2,224.3 285.2,230.3 279.2,230.3" fill="rgb(255,252,252)"/>
<polygon points="285.2,224.3 291.2,224.3 291.2,230.3 285.2,230.3" fill="rgb(255,172,172)"/>
<polygon points="291.2,224.3 297.2,224.3 297.2,230.3 291.2,230.3" fill="rgb(254,189,189)"/>
<polygon points="297.2,224.3 303.2,224.3 303.2,230.3 297.2,230.3" fill="rgb(255,217,217)"/>
<polygon points="303.2,224.3 309.2,224.3 309.2,230.3 303.2,230.3" fill="rgb(162,162,255)"/>
<polygon points="111.2,230.3 119.2,230.3 119.2,236.3 111.2,236.3" fill="rgb(156,207,203)"/><text xml:space="preserve" x="115.2" y="236.133" font-family="Calibri" font-size="7.5" fill="rgb(0,0,0)" text-anchor="middle">3</text>
<polygon points="119.2,230.3 127.2,230.3 127.2,236.3 119.2,236.3" fill="rgb(134,198,192)"/><text xml:space="preserve" x="123.2" y="236.133" font-family="Calibri" font-size="7.5" fill="rgb(0,0,0)" text-anchor="middle">2</text>
<polygon points="127.2,230.3 135.2,230.3 135.2,236.3 127.2,236.3" fill="rgb(134,198,192)"/><text xml:space="preserve" x="131.2" y="236.133" font-family="Calibri" font-size="7.5" fill="rgb(0,0,0)" text-anchor="middle">2</text>
<polygon points="145.2,230.3 151.2,230.3 151.2,236.3 145.2,236.3" fill="rgb(255,249,249)"/>
<polygon points="151.2,230.3 157.2,230.3 157.2,236.3 151.2,236.3" fill="rgb(177,177,255)"/>
<polygon points="157.2,230.3 163.2,230.3 163.2,236.3 157.2,236.3" fill="rgb(184,184,255)"/>
<polygon points="163.2,230.3 169.2,230.3 169.2,236.3 163.2,236.3" fill="rgb(169,169,255)"/>
<polygon points="169.2,230.3 175.2,230.3 175.2,236.3 169.2,236.3" fill="rgb(220,220,255)"/>
<polygon points="175.2,230.3 181.2,230.3 181.2,236.3 175.2,236.3" fill="rgb(255,241,241)"/>
<polygon points="181.2,230.3 187.2,230.3 187.2,236.3 181.2,236.3" fill="rgb(255,151,151)"/>
<polygon points="187.2,230.3 193.2,230.3 193.2,236.3 187.2,236.3" fill="rgb(255,187,187)"/>
<polygon points="203.2,230.3 209.2,230.3 209.2,236.3 203.2,236.3" fill="rgb(255,221,221)"/>
<polygon points="209.2,230.3 215.2,230.3 215.2,236.3 209.2,236.3" fill="rgb(205,205,255)"/>
<polygon points="215.2,230.3 221.2,230.3 221.2,236.3 215.2,236.3" fill="rgb(255,195,195)"/>
<polygon points="221.2,230.3 227.2,230.3 227.2,236.3 221.2,236.3" fill="rgb(199,199,255)"/>
<polygon points="227.2,230.3 233.2,230.3 233.2,236.3 227.2,236.3" fill="rgb(237,237,255)"/>
<polygon points="233.2,230.3 239.2,230.3 239.2,236.3 233.2,236.3" fill="rgb(255,181,181)"/>
<polygon points="239.2,230.3 245.2,230.3 245.2,236.3 239.2,236.3" fill="rgb(255,67,67)"/>
<polygon points="245.2,230.3 251.2,230.3 251.2,236.3 245.2,236.3" fill="rgb(255,239,239)"/>
<polygon points="261.2,230.3 267.2,230.3 267.2,236.3 261.2,236.3" fill="rgb(255,223,223)"/>
<polygon points="267.2,230.3 273.2,230.3 273.2,236.3 267.2,236.3" fill="rgb(242,242,255)"/>
<polygon points="273.2,230.3 279.2,230.3 279.2,236.3 273.2,236.3" fill="rgb(225,225,255)"/>
<polygon points="279.2,230.3 285.2,230.3 285.2,236.3 279.2,236.3" fill="rgb(209,209,255)"/>
<polygon points="285.2,230.3 291.2,230.3 291.2,236.3 285.2,236.3" fill="rgb(234,234,255)"/>
<polygon points="291.2,230.3 297.2,230.3 297.2,236.3 291.2,236.3" fill="rgb(255,146,146)"/>
<polygon points="297.2,230.3 303.2,230.3 303.2,236.3 297.2,236.3" fill="rgb(255,152,152)"/>
<polygon points="303.2,230.3 309.2,230.3 309.2,236.3 303.2,236.3" fill="rgb(255,188,188)"/>
<polygon points="111.2,236.3 119.2,236.3 119.2,242.3 111.2,242.3" fill="rgb(156,207,203)"/><text xml:space="preserve" x="115.2" y="242.133" font-family="Calibri" font-size="7.5" fill="rgb(0,0,0)" text-anchor="middle">3</text>
<polygon points="119.2,236.3 127.2,236.3 127.2,242.3 119.2,242.3" fill="rgb(134,198,192)"/><text xml:space="preserve" x="123.2" y="242.133" font-family="Calibri" font-size="7.5" fill="rgb(0,0,0)" text-anchor="middle">2</text>
<polygon points="127.2,236.3 135.2,236.3 135.2,242.3 127.2,242.3" fill="rgb(134,198,192)"/><text xml:space="preserve" x="131.2" y="242.133" font-family="Calibri" font-size="7.5" fill="rgb(0,0,0)" text-anchor="middle">2</text>
<polygon points="145.2,236.3 151.2,236.3 151.2,242.3 145.2,242.3" fill="rgb(255,225,225)"/>
<polygon points="151.2,236.3 157.2,236.3 157.2,242.3 151.2,242.3" fill="rgb(187,187,255)"/>
<polygon points="157.2,236.3 163.2,236.3 163.2,242.3 157.2,242.3" fill="rgb(95,95,255)"/>
<polygon points="163.2,236.3 169.2,236.3 169.2,242.3 163.2,242.3" fill="rgb(111,111,255)"/>
<polygon points="169.2,236.3 175.2,236.3 175.2,242.3 169.2,242.3" fill="rgb(217,217,255)"/>
<polygon points="175.2,236.3 181.2,236.3 181.2,242.3 175.2,242.3" fill="rgb(255,216,216)"/>
<polygon points="181.2,236.3 187.2,236.3 187.2,242.3 181.2,242.3" fill="rgb(255,207,207)"/>
<polygon points="187.2,236.3 193.2,236.3 193.2,242.3 187.2,242.3" fill="rgb(255,86,86)"/>
<polygon points="203.2,236.3 209.2,236.3 209.2,242.3 203.2,242.3" fill="rgb(205,205,255)"/>
<polygon points="209.2,236.3 215.2,236.3 215.2,242.3 209.2,242.3" fill="rgb(207,207,255)"/>
<polygon points="215.2,236.3 221.2,236.3 221.2,242.3 215.2,242.3" fill="rgb(101,101,255)"/>
<polygon points="221.2,236.3 227.2,236.3 227.2,242.3 221.2,242.3" fill="rgb(213,213,255)"/>
<polygon points="227.2,236.3 233.2,236.3 233.2,242.3 227.2,242.3" fill="rgb(229,229,255)"/>
<polygon points="233.2,236.3 239.2,236.3 239.2,242.3 233.2,242.3" fill="rgb(255,172,172)"/>
<polygon points="239.2,236.3 245.2,236.3 245.2,242.3 239.2,242.3" fill="rgb(255,187,187)"/>
<polygon points="245.2,236.3 251.2,236.3 251.2,242.3 245.2,242.3" fill="rgb(254,164,164)"/>
<polygon points="261.2,236.3 267.2,236.3 267.2,242.3 261.2,242.3" fill="rgb(255,161,161)"/>
<polygon points="267.2,236.3 273.2,236.3 273.2,242.3 267.2,242.3" fill="rgb(221,221,255)"/>
<polygon points="273.2,236.3 279.2,236.3 279.2,242.3 273.2,242.3" fill="rgb(255,237,237)"/>
<polygon points="279.2,236.3 285.2,236.3 285.2,242.3 279.2,242.3" fill="rgb(255,120,120)"/>
<polygon points="285.2,236.3 291.2,236.3 291.2,242.3 285.2,242.3" fill="rgb(255,227,227)"/>
<polygon points="291.2,236.3 297.2,236.3 297.2,242.3 291.2,242.3" fill="rgb(255,165,165)"/>
<polygon points="297.2,236.3 303.2,236.3 303.2,242.3 297.2,242.3" fill="rgb(255,215,215)"/>
<polygon points="303.2,236.3 309.2,236.3 309.2,242.3 303.2,242.3" fill="rgb(255,156,156)"/>
<polygon points="111.2,242.3 119.2,242.3 119.2,248.3 111.2,248.3" fill="rgb(156,207,203)"/><text xml:space="preserve" x="115.2" y="248.133" font-family="Calibri" font-size="7.5" fill="rgb(0,0,0)" text-anchor="middle">3</text>
<polygon points="119.2,242.3 127.2,242.3 127.2,248.3 119.2,248.3" fill="rgb(134,198,192)"/><text xml:space="preserve" x="123.2" y="248.133" font-family="Calibri" font-size="7.5" fill="rgb(0,0,0)" text-anchor="middle">2</text>
<polygon points="127.2,242.3 135.2,242.3 135.2,248.3 127.2,248.3" fill="rgb(134,198,192)"/><text xml:space="preserve" x="131.2" y="248.133" font-family="Calibri" font-size="7.5" fill="rgb(0,0,0)" text-anchor="middle">2</text>
<polygon points="145.2,242.3 151.2,242.3 151.2,248.3 145.2,248.3" fill="rgb(255,240,240)"/>
<polygon points="151.2,242.3 157.2,242.3 157.2,248.3 151.2,248.3" fill="rgb(180,180,255)"/>
<polygon points="157.2,242.3 163.2,242.3 163.2,248.3 157.2,248.3" fill="rgb(170,170,255)"/>
<polygon points="163.2,242.3 169.2,242.3 169.2,248.3 163.2,248.3" fill="rgb(158,158,255)"/>
<polygon points="169.2,242.3 175.2,242.3 175.2,248.3 169.2,248.3" fill="rgb(207,207,255)"/>
<polygon points="175.2,242.3 181.2,242.3 181.2,248.3 175.2,248.3" fill="rgb(198,198,255)"/>
<polygon points="181.2,242.3 187.2,242.3 187.2,248.3 181.2,248.3" fill="rgb(255,117,117)"/>
<polygon points="187.2,242.3 193.2,242.3 193.2,248.3 187.2,248.3" fill="rgb(255,160,160)"/>
<polygon points="203.2,242.3 209.2,242.3 209.2,248.3 203.2,248.3" fill="rgb(245,245,255)"/>
<polygon points="209.2,242.3 215.2,242.3 215.2,248.3 209.2,248.3" fill="rgb(166,166,255)"/>
<polygon points="215.2,242.3 221.2,242.3 221.2,248.3 215.2,248.3" fill="rgb(156,156,255)"/>
<polygon points="221.2,242.3 227.2,242.3 227.2,248.3 221.2,248.3" fill="rgb(125,125,255)"/>
<polygon points="227.2,242.3 233.2,242.3 233.2,248.3 227.2,248.3" fill="rgb(210,210,255)"/>
<polygon points="233.2,242.3 239.2,242.3 239.2,248.3 233.2,248.3" fill="rgb(215,215,255)"/>
<polygon points="239.2,242.3 245.2,242.3 245.2,248.3 239.2,248.3" fill="rgb(255,0,0)"/>
<polygon points="245.2,242.3 251.2,242.3 251.2,248.3 245.2,248.3" fill="rgb(213,213,255)"/>
<polygon points="261.2,242.3 267.2,242.3 267.2,248.3 261.2,248.3" fill="rgb(255,254,254)"/>
<polygon points="267.2,242.3 273.2,242.3 273.2,248.3 267.2,248.3" fill="rgb(190,190,255)"/>
<polygon points="273.2,242.3 279.2,242.3 279.2,248.3 273.2,248.3" fill="rgb(186,186,255)"/>
<polygon points="279.2,242.3 285.2,242.3 285.2,248.3 279.2,248.3" fill="rgb(235,235,255)"/>
<polygon points="285.2,242.3 291.2,242.3 291.2,248.3 285.2,248.3" fill="rgb(233,233,255)"/>
<polygon points="291.2,242.3 297.2,242.3 297.2,248.3 291.2,248.3" fill="rgb(210,210,255)"/>
<polygon points="297.2,242.3 303.2,242.3 303.2,248.3 297.2,248.3" fill="rgb(255,0,0)"/>
<polygon points="303.2,242.3 309.2,242.3 309.2,248.3 303.2,248.3" fill="rgb(245,245,255)"/>
<polygon points="111.2,248.3 119.2,248.3 119.2,254.3 111.2,254.3" fill="rgb(156,207,203)"/><text xml:space="preserve" x="115.2" y="254.133" font-family="Calibri" font-size="7.5" fill="rgb(0,0,0)" text-anchor="middle">3</text>
<polygon points="119.2,248.3 127.2,248.3 127.2,254.3 119.2,254.3" fill="rgb(134,198,192)"/><text xml:space="preserve" x="123.2" y="254.133" font-family="Calibri" font-size="7.5" fill="rgb(0,0,0)" text-anchor="middle">2</text>
<polygon points="127.2,248.3 135.2,248.3 135.2,254.3 127.2,254.3" fill="rgb(134,198,192)"/><text xml:space="preserve" x="131.2" y="254.133" font-family="Calibri" font-size="7.5" fill="rgb(0,0,0)" text-anchor="middle">2</text>
<polygon points="145.2,248.3 151.2,248.3 151.2,254.3 145.2,254.3" fill="rgb(255,240,240)"/>
<polygon points="151.2,248.3 157.2,248.3 157.2,254.3 151.2,254.3" fill="rgb(150,150,255)"/>
<polygon points="157.2,248.3 163.2,248.3 163.2,254.3 157.2,254.3" fill="rgb(99,99,255)"/>
<polygon points="163.2,248.3 169.2,248.3 169.2,254.3 163.2,254.3" fill="rgb(116,116,255)"/>
<polygon points="169.2,248.3 175.2,248.3 175.2,254.3 169.2,254.3" fill="rgb(168,168,255)"/>
<polygon points="175.2,248.3 181.2,248.3 181.2,254.3 175.2,254.3" fill="rgb(109,109,255)"/>
<polygon points="181.2,248.3 187.2,248.3 187.2,254.3 181.2,254.3" fill="rgb(255,142,142)"/>
<polygon points="187.2,248.3 193.2,248.3 193.2,254.3 187.2,254.3" fill="rgb(255,0,0)"/>
<polygon points="203.2,248.3 209.2,248.3 209.2,254.3 203.2,254.3" fill="rgb(245,245,255)"/>
<polygon points="209.2,248.3 215.2,248.3 215.2,254.3 209.2,254.3" fill="rgb(246,246,255)"/>
<polygon points="215.2,248.3 221.2,248.3 221.2,254.3 215.2,254.3" fill="rgb(235,235,255)"/>
<polygon points="221.2,248.3 227.2,248.3 227.2,254.3 221.2,254.3" fill="rgb(218,218,255)"/>
<polygon points="227.2,248.3 233.2,248.3 233.2,254.3 227.2,254.3" fill="rgb(238,238,255)"/>
<polygon points="233.2,248.3 239.2,248.3 239.2,254.3 233.2,254.3" fill="rgb(201,201,255)"/>
<polygon points="239.2,248.3 245.2,248.3 245.2,254.3 239.2,254.3" fill="rgb(255,32,32)"/>
<polygon points="245.2,248.3 251.2,248.3 251.2,254.3 245.2,254.3" fill="rgb(255,234,234)"/>
<polygon points="261.2,248.3 267.2,248.3 267.2,254.3 261.2,254.3" fill="rgb(235,235,255)"/>
<polygon points="267.2,248.3 273.2,248.3 273.2,254.3 267.2,254.3" fill="rgb(207,207,255)"/>
<polygon points="273.2,248.3 279.2,248.3 279.2,254.3 273.2,254.3" fill="rgb(177,177,255)"/>
<polygon points="279.2,248.3 285.2,248.3 285.2,254.3 279.2,254.3" fill="rgb(131,131,255)"/>
<polygon points="285.2,248.3 291.2,248.3 291.2,254.3 285.2,254.3" fill="rgb(230,230,255)"/>
<polygon points="291.2,248.3 297.2,248.3 297.2,254.3 291.2,254.3" fill="rgb(228,228,255)"/>
<polygon points="297.2,248.3 303.2,248.3 303.2,254.3 297.2,254.3" fill="rgb(255,0,0)"/>
<polygon points="303.2,248.3 309.2,248.3 309.2,254.3 303.2,254.3" fill="rgb(171,171,255)"/>
<polygon points="111.2,254.3 119.2,254.3 119.2,260.3 111.2,260.3" fill="rgb(156,207,203)"/><text xml:space="preserve" x="115.2" y="260.133" font-family="Calibri" font-size="7.5" fill="rgb(0,0,0)" text-anchor="middle">3</text>
<polygon points="119.2,254.3 127.2,254.3 127.2,260.3 119.2,260.3" fill="rgb(134,198,192)"/><text xml:space="preserve" x="123.2" y="260.133" font-family="Calibri" font-size="7.5" fill="rgb(0,0,0)" text-anchor="middle">2</text>
<polygon points="127.2,254.3 135.2,254.3 135.2,260.3 127.2,260.3" fill="rgb(134,198,192)"/><text xml:space="preserve" x="131.2" y="260.133" font-family="Calibri" font-size="7.5" fill="rgb(0,0,0)" text-anchor="middle">2</text>
<polygon points="145.2,254.3 151.2,254.3 151.2,260.3 145.2,260.3" fill="rgb(187,187,255)"/>
<polygon points="151.2,254.3 157.2,254.3 157.2,260.3 151.2,260.3" fill="rgb(152,152,255)"/>
<polygon points="157.2,254.3 163.2,254.3 163.2,260.3 157.2,260.3" fill="rgb(149,149,255)"/>
<polygon points="163.2,254.3 169.2,254.3 169.2,260.3 163.2,260.3" fill="rgb(130,130,255)"/>
<polygon points="169.2,254.3 175.2,254.3 175.2,260.3 169.2,260.3" fill="rgb(177,177,255)"/>
<polygon points="175.2,254.3 181.2,254.3 181.2,260.3 175.2,260.3" fill="rgb(255,157,157)"/>
<polygon points="181.2,254.3 187.2,254.3 187.2,260.3 181.2,260.3" fill="rgb(255,169,169)"/>
<polygon points="187.2,254.3 193.2,254.3 193.2,260.3 187.2,260.3" fill="rgb(255,178,178)"/>
<polygon points="203.2,254.3 209.2,254.3 209.2,260.3 203.2,260.3" fill="rgb(206,206,255)"/>
<polygon points="209.2,254.3 215.2,254.3 215.2,260.3 209.2,260.3" fill="rgb(202,202,255)"/>
<polygon points="215.2,254.3 221.2,254.3 221.2,260.3 215.2,260.3" fill="rgb(255,175,175)"/>
<polygon points="221.2,254.3 227.2,254.3 227.2,260.3 221.2,260.3" fill="rgb(255,232,232)"/>
<polygon points="227.2,254.3 233.2,254.3 233.2,260.3 227.2,260.3" fill="rgb(218,218,255)"/>
<polygon points="233.2,254.3 239.2,254.3 239.2,260.3 233.2,260.3" fill="rgb(255,199,199)"/>
<polygon points="239.2,254.3 245.2,254.3 245.2,260.3 239.2,260.3" fill="rgb(255,97,97)"/>
<polygon points="245.2,254.3 251.2,254.3 251.2,260.3 245.2,260.3" fill="rgb(255,252,252)"/>
<polygon points="261.2,254.3 267.2,254.3 267.2,260.3 261.2,260.3" fill="rgb(171,171,255)"/>
<polygon points="267.2,254.3 273.2,254.3 273.2,260.3 267.2,260.3" fill="rgb(199,199,255)"/>
<polygon points="273.2,254.3 279.2,254.3 279.2,260.3 273.2,260.3" fill="rgb(206,206,255)"/>
<polygon points="279.2,254.3 285.2,254.3 285.2,260.3 279.2,260.3" fill="rgb(116,116,255)"/>
<polygon points="285.2,254.3 291.2,254.3 291.2,260.3 285.2,260.3" fill="rgb(195,195,255)"/>
<polygon points="291.2,254.3 297.2,254.3 297.2,260.3 291.2,260.3" fill="rgb(255,200,200)"/>
<polygon points="297.2,254.3 303.2,254.3 303.2,260.3 297.2,260.3" fill="rgb(255,138,138)"/>
<polygon points="303.2,254.3 309.2,254.3 309.2,260.3 303.2,260.3" fill="rgb(221,221,255)"/>
<polygon points="111.2,260.3 119.2,260.3 119.2,266.3 111.2,266.3" fill="rgb(156,207,203)"/><text xml:space="preserve" x="115.2" y="266.133" font-family="Calibri" font-size="7.5" fill="rgb(0,0,0)" text-anchor="middle">3</text>
<polygon points="119.2,260.3 127.2,260.3 127.2,266.3 119.2,266.3" fill="rgb(134,198,192)"/><text xml:space="preserve" x="123.2" y="266.133" font-family="Calibri" font-size="7.5" fill="rgb(0,0,0)" text-anchor="middle">2</text>
<polygon points="127.2,260.3 135.2,260.3 135.2,266.3 127.2,266.3" fill="rgb(134,198,192)"/><text xml:space="preserve" x="131.2" y="266.133" font-family="Calibri" font-size="7.5" fill="rgb(0,0,0)" text-anchor="middle">2</text>
<polygon points="145.2,260.3 151.2,260.3 151.2,266.3 145.2,266.3" fill="rgb(255,236,236)"/>
<polygon points="151.2,260.3 157.2,260.3 157.2,266.3 151.2,266.3" fill="rgb(204,204,255)"/>
<polygon points="157.2,260.3 163.2,260.3 163.2,266.3 157.2,266.3" fill="rgb(134,134,255)"/>
<polygon points="163.2,260.3 169.2,260.3 169.2,266.3 163.2,266.3" fill="rgb(184,184,255)"/>
<polygon points="169.2,260.3 175.2,260.3 175.2,266.3 169.2,266.3" fill="rgb(219,219,255)"/>
<polygon points="175.2,260.3 181.2,260.3 181.2,266.3 175.2,266.3" fill="rgb(177,177,255)"/>
<polygon points="181.2,260.3 187.2,260.3 187.2,266.3 181.2,266.3" fill="rgb(255,198,198)"/>
<polygon points="187.2,260.3 193.2,260.3 193.2,266.3 187.2,266.3" fill="rgb(255,123,123)"/>
<polygon points="203.2,260.3 209.2,260.3 209.2,266.3 203.2,266.3" fill="rgb(194,194,255)"/>
<polygon points="209.2,260.3 215.2,260.3 215.2,266.3 209.2,266.3" fill="rgb(222,222,255)"/>
<polygon points="215.2,260.3 221.2,260.3 221.2,266.3 215.2,266.3" fill="rgb(176,176,255)"/>
<polygon points="221.2,260.3 227.2,260.3 227.2,266.3 221.2,266.3" fill="rgb(152,152,255)"/>
<polygon points="227.2,260.3 233.2,260.3 233.2,266.3 227.2,266.3" fill="rgb(255,231,231)"/>
<polygon points="233.2,260.3 239.2,260.3 239.2,266.3 233.2,266.3" fill="rgb(255,199,199)"/>
<polygon points="239.2,260.3 245.2,260.3 245.2,266.3 239.2,266.3" fill="rgb(255,236,236)"/>
<polygon points="245.2,260.3 251.2,260.3 251.2,266.3 245.2,266.3" fill="rgb(254,202,202)"/>
<polygon points="261.2,260.3 267.2,260.3 267.2,266.3 261.2,266.3" fill="rgb(255,204,204)"/>
<polygon points="267.2,260.3 273.2,260.3 273.2,266.3 267.2,266.3" fill="rgb(216,216,255)"/>
<polygon points="273.2,260.3 279.2,260.3 279.2,266.3 273.2,266.3" fill="rgb(213,213,255)"/>
<polygon points="279.2,260.3 285.2,260.3 285.2,266.3 279.2,266.3" fill="rgb(175,175,255)"/>
<polygon points="285.2,260.3 291.2,260.3 291.2,266.3 285.2,266.3" fill="rgb(255,254,254)"/>
<polygon points="291.2,260.3 297.2,260.3 297.2,266.3 291.2,266.3" fill="rgb(255,211,211)"/>
<polygon points="297.2,260.3 303.2,260.3 303.2,266.3 297.2,266.3" fill="rgb(207,207,255)"/>
<polygon points="303.2,260.3 309.2,260.3 309.2,266.3 303.2,266.3" fill="rgb(255,166,166)"/>
<polygon points="111.2,266.3 119.2,266.3 119.2,272.3 111.2,272.3" fill="rgb(156,207,203)"/><text xml:space="preserve" x="115.2" y="272.133" font-family="Calibri" font-size="7.5" fill="rgb(0,0,0)" text-anchor="middle">3</text>
<polygon points="119.2,266.3 127.2,266.3 127.2,272.3 119.2,272.3" fill="rgb(134,198,192)"/><text xml:space="preserve" x="123.2" y="272.133" font-family="Calibri" font-size="7.5" fill="rgb(0,0,0)" text-anchor="middle">2</text>
<polygon points="127.2,266.3 135.2,266.3 135.2,272.3 127.2,272.3" fill="rgb(134,198,192)"/><text xml:space="preserve" x="131.2" y="272.133" font-family="Calibri" font-size="7.5" fill="rgb(0,0,0)" text-anchor="middle">2</text>
<polygon points="145.2,266.3 151.2,266.3 151.2,272.3 145.2,272.3" fill="rgb(255,229,229)"/>
<polygon points="151.2,266.3 157.2,266.3 157.2,272.3 151.2,272.3" fill="rgb(239,239,255)"/>
<polygon points="157.2,266.3 163.2,266.3 163.2,272.3 157.2,272.3" fill="rgb(169,169,255)"/>
<polygon points="163.2,266.3 169.2,266.3 169.2,272.3 163.2,272.3" fill="rgb(154,154,255)"/>
<polygon points="169.2,266.3 175.2,266.3 175.2,272.3 169.2,272.3" fill="rgb(208,208,255)"/>
<polygon points="175.2,266.3 181.2,266.3 181.2,272.3 175.2,272.3" fill="rgb(134,134,255)"/>
<polygon points="181.2,266.3 187.2,266.3 187.2,272.3 181.2,272.3" fill="rgb(255,157,157)"/>
<polygon points="187.2,266.3 193.2,266.3 193.2,272.3 187.2,272.3" fill="rgb(255,2,2)"/>
<polygon points="203.2,266.3 209.2,266.3 209.2,272.3 203.2,272.3" fill="rgb(224,224,255)"/>
<polygon points="209.2,266.3 215.2,266.3 215.2,272.3 209.2,272.3" fill="rgb(159,159,255)"/>
<polygon points="215.2,266.3 221.2,266.3 221.2,272.3 215.2,272.3" fill="rgb(129,129,255)"/>
<polygon points="221.2,266.3 227.2,266.3 227.2,272.3 221.2,272.3" fill="rgb(123,123,255)"/>
<polygon points="227.2,266.3 233.2,266.3 233.2,272.3 227.2,272.3" fill="rgb(180,180,255)"/>
<polygon points="233.2,266.3 239.2,266.3 239.2,272.3 233.2,272.3" fill="rgb(255,218,218)"/>
<polygon points="239.2,266.3 245.2,266.3 245.2,272.3 239.2,272.3" fill="rgb(255,0,0)"/>
<polygon points="245.2,266.3 251.2,266.3 251.2,272.3 245.2,272.3" fill="rgb(249,249,255)"/>
<polygon points="261.2,266.3 267.2,266.3 267.2,272.3 261.2,272.3" fill="rgb(255,217,217)"/>
<polygon points="267.2,266.3 273.2,266.3 273.2,272.3 267.2,272.3" fill="rgb(203,203,255)"/>
<polygon points="273.2,266.3 279.2,266.3 279.2,272.3 273.2,272.3" fill="rgb(141,141,255)"/>
<polygon points="279.2,266.3 285.2,266.3 285.2,272.3 279.2,272.3" fill="rgb(172,172,255)"/>
<polygon points="285.2,266.3 291.2,266.3 291.2,272.3 285.2,272.3" fill="rgb(250,250,255)"/>
<polygon points="291.2,266.3 297.2,266.3 297.2,272.3 291.2,272.3" fill="rgb(219,219,255)"/>
<polygon points="297.2,266.3 303.2,266.3 303.2,272.3 297.2,272.3" fill="rgb(255,0,0)"/>
<polygon points="303.2,266.3 309.2,266.3 309.2,272.3 303.2,272.3" fill="rgb(176,176,255)"/>
<polygon points="111.2,272.3 119.2,272.3 119.2,278.3 111.2,278.3" fill="rgb(156,207,203)"/><text xml:space="preserve" x="115.2" y="278.133" font-family="Calibri" font-size="7.5" fill="rgb(0,0,0)" text-anchor="middle">3</text>
<polygon points="119.2,272.3 127.2,272.3 127.2,278.3 119.2,278.3" fill="rgb(134,198,192)"/><text xml:space="preserve" x="123.2" y="278.133" font-family="Calibri" font-size="7.5" fill="rgb(0,0,0)" text-anchor="middle">2</text>
<polygon points="127.2,272.3 135.2,272.3 135.2,278.3 127.2,278.3" fill="rgb(134,198,192)"/><text xml:space="preserve" x="131.2" y="278.133" font-family="Calibri" font-size="7.5" fill="rgb(0,0,0)" text-anchor="middle">2</text>
<polygon points="145.2,272.3 151.2,272.3 151.2,278.3 145.2,278.3" fill="rgb(253,253,255)"/>
<polygon points="151.2,272.3 157.2,272.3 157.2,278.3 151.2,278.3" fill="rgb(181,181,255)"/>
<polygon points="157.2,272.3 163.2,272.3 163.2,278.3 157.2,278.3" fill="rgb(115,115,255)"/>
<polygon points="163.2,272.3 169.2,272.3 169.2,278.3 163.2,278.3" fill="rgb(141,141,255)"/>
<polygon points="169.2,272.3 175.2,272.3 175.2,278.3 169.2,278.3" fill="rgb(185,185,255)"/>
<polygon points="175.2,272.3 181.2,272.3 181.2,278.3 175.2,278.3" fill="rgb(133,133,255)"/>
<polygon points="181.2,272.3 187.2,272.3 187.2,278.3 181.2,278.3" fill="rgb(255,159,159)"/>
<polygon points="187.2,272.3 193.2,272.3 193.2,278.3 187.2,278.3" fill="rgb(255,61,61)"/>
<polygon points="203.2,272.3 209.2,272.3 209.2,278.3 203.2,278.3" fill="rgb(197,197,255)"/>
<polygon points="209.2,272.3 215.2,272.3 215.2,278.3 209.2,278.3" fill="rgb(156,156,255)"/>
<polygon points="215.2,272.3 221.2,272.3 221.2,278.3 215.2,278.3" fill="rgb(146,146,255)"/>
<polygon points="221.2,272.3 227.2,272.3 227.2,278.3 221.2,278.3" fill="rgb(86,86,255)"/>
<polygon points="227.2,272.3 233.2,272.3 233.2,278.3 227.2,278.3" fill="rgb(167,167,255)"/>
<polygon points="233.2,272.3 239.2,272.3 239.2,278.3 233.2,278.3" fill="rgb(255,194,194)"/>
<polygon points="239.2,272.3 245.2,272.3 245.2,278.3 239.2,278.3" fill="rgb(255,0,0)"/>
<polygon points="245.2,272.3 251.2,272.3 251.2,278.3 245.2,278.3" fill="rgb(238,238,255)"/>
<polygon points="261.2,272.3 267.2,272.3 267.2,278.3 261.2,278.3" fill="rgb(254,217,217)"/>
<polygon points="267.2,272.3 273.2,272.3 273.2,278.3 267.2,278.3" fill="rgb(228,228,255)"/>
<polygon points="273.2,272.3 279.2,272.3 279.2,278.3 273.2,278.3" fill="rgb(186,186,255)"/>
<polygon points="279.2,272.3 285.2,272.3 285.2,278.3 279.2,278.3" fill="rgb(164,164,255)"/>
<polygon points="285.2,272.3 291.2,272.3 291.2,278.3 285.2,278.3" fill="rgb(254,241,241)"/>
<polygon points="291.2,272.3 297.2,272.3 297.2,278.3 291.2,278.3" fill="rgb(212,212,255)"/>
<polygon points="297.2,272.3 303.2,272.3 303.2,278.3 297.2,278.3" fill="rgb(255,0,0)"/>
<polygon points="303.2,272.3 309.2,272.3 309.2,278.3 303.2,278.3" fill="rgb(164,164,255)"/>
<polygon points="111.2,278.3 119.2,278.3 119.2,284.3 111.2,284.3" fill="rgb(156,207,203)"/><text xml:space="preserve" x="115.2" y="284.133" font-family="Calibri" font-size="7.5" fill="rgb(0,0,0)" text-anchor="middle">3</text>
<polygon points="119.2,278.3 127.2,278.3 127.2,284.3 119.2,284.3" fill="rgb(134,198,192)"/><text xml:space="preserve" x="123.2" y="284.133" font-family="Calibri" font-size="7.5" fill="rgb(0,0,0)" text-anchor="middle">2</text>
<polygon points="127.2,278.3 135.2,278.3 135.2,284.3 127.2,284.3" fill="rgb(134,198,192)"/><text xml:space="preserve" x="131.2" y="284.133" font-family="Calibri" font-size="7.5" fill="rgb(0,0,0)" text-anchor="middle">2</text>
<polygon points="145.2,278.3 151.2,278.3 151.2,284.3 145.2,284.3" fill="rgb(255,198,198)"/>
<polygon points="151.2,278.3 157.2,278.3 157.2,284.3 151.2,284.3" fill="rgb(168,168,255)"/>
<polygon points="157.2,278.3 163.2,278.3 163.2,284.3 157.2,284.3" fill="rgb(94,94,255)"/>
<polygon points="163.2,278.3 169.2,278.3 169.2,284.3 163.2,284.3" fill="rgb(159,159,255)"/>
<polygon points="169.2,278.3 175.2,278.3 175.2,284.3 169.2,284.3" fill="rgb(187,187,255)"/>
<polygon points="175.2,278.3 181.2,278.3 181.2,284.3 175.2,284.3" fill="rgb(73,73,255)"/>
<polygon points="181.2,278.3 187.2,278.3 187.2,284.3 181.2,284.3" fill="rgb(255,120,120)"/>
<polygon points="187.2,278.3 193.2,278.3 193.2,284.3 187.2,284.3" fill="rgb(255,0,0)"/>
<polygon points="203.2,278.3 209.2,278.3 209.2,284.3 203.2,284.3" fill="rgb(212,212,255)"/>
<polygon points="209.2,278.3 215.2,278.3 215.2,284.3 209.2,284.3" fill="rgb(149,149,255)"/>
<polygon points="215.2,278.3 221.2,278.3 221.2,284.3 215.2,284.3" fill="rgb(110,110,255)"/>
<polygon points="221.2,278.3 227.2,278.3 227.2,284.3 221.2,284.3" fill="rgb(84,84,255)"/>
<polygon points="227.2,278.3 233.2,278.3 233.2,284.3 227.2,284.3" fill="rgb(174,174,255)"/>
<polygon points="233.2,278.3 239.2,278.3 239.2,284.3 233.2,284.3" fill="rgb(227,227,255)"/>
<polygon points="239.2,278.3 245.2,278.3 245.2,284.3 239.2,284.3" fill="rgb(255,0,0)"/>
<polygon points="245.2,278.3 251.2,278.3 251.2,284.3 245.2,284.3" fill="rgb(131,131,255)"/>
<polygon points="261.2,278.3 267.2,278.3 267.2,284.3 261.2,284.3" fill="rgb(255,219,219)"/>
<polygon points="267.2,278.3 273.2,278.3 273.2,284.3 267.2,284.3" fill="rgb(161,161,255)"/>
<polygon points="273.2,278.3 279.2,278.3 279.2,284.3 273.2,284.3" fill="rgb(175,175,255)"/>
<polygon points="279.2,278.3 285.2,278.3 285.2,284.3 279.2,284.3" fill="rgb(99,99,255)"/>
<polygon points="285.2,278.3 291.2,278.3 291.2,284.3 285.2,284.3" fill="rgb(179,179,255)"/>
<polygon points="291.2,278.3 297.2,278.3 297.2,284.3 291.2,284.3" fill="rgb(231,231,255)"/>
<polygon points="297.2,278.3 303.2,278.3 303.2,284.3 297.2,284.3" fill="rgb(255,0,0)"/>
<polygon points="303.2,278.3 309.2,278.3 309.2,284.3 303.2,284.3" fill="rgb(211,211,255)"/>
<polygon points="111.2,284.3 119.2,284.3 119.2,290.3 111.2,290.3" fill="rgb(156,207,203)"/><text xml:space="preserve" x="115.2" y="290.133" font-family="Calibri" font-size="7.5" fill="rgb(0,0,0)" text-anchor="middle">3</text>
<polygon points="119.2,284.3 127.2,284.3 127.2,290.3 119.2,290.3" fill="rgb(134,198,192)"/><text xml:space="preserve" x="123.2" y="290.133" font-family="Calibri" font-size="7.5" fill="rgb(0,0,0)" text-anchor="middle">2</text>
<polygon points="127.2,284.3 135.2,284.3 135.2,290.3 127.2,290.3" fill="rgb(134,198,192)"/><text xml:space="preserve" x="131.2" y="290.133" font-family="Calibri" font-size="7.5" fill="rgb(0,0,0)" text-anchor="middle">2</text>
<polygon points="145.2,284.3 151.2,284.3 151.2,290.3 145.2,290.3" fill="rgb(218,218,255)"/>
<polygon points="151.2,284.3 157.2,284.3 157.2,290.3 151.2,290.3" fill="rgb(153,153,255)"/>
<polygon points="157.2,284.3 163.2,284.3 163.2,290.3 157.2,290.3" fill="rgb(30,30,255)"/>
<polygon points="163.2,284.3 169.2,284.3 169.2,290.3 163.2,290.3" fill="rgb(83,83,255)"/>
<polygon points="169.2,284.3 175.2,284.3 175.2,290.3 169.2,290.3" fill="rgb(166,166,255)"/>
<polygon points="175.2,284.3 181.2,284.3 181.2,290.3 175.2,290.3" fill="rgb(0,0,255)"/>
<polygon points="181.2,284.3 187.2,284.3 187.2,290.3 181.2,290.3" fill="rgb(255,157,157)"/>
<polygon points="187.2,284.3 193.2,284.3 193.2,290.3 187.2,290.3" fill="rgb(255,2,2)"/>
<polygon points="203.2,284.3 209.2,284.3 209.2,290.3 203.2,290.3" fill="rgb(224,224,255)"/>
<polygon points="209.2,284.3 215.2,284.3 215.2,290.3 209.2,290.3" fill="rgb(155,155,255)"/>
<polygon points="215.2,284.3 221.2,284.3 221.2,290.3 215.2,290.3" fill="rgb(143,143,255)"/>
<polygon points="221.2,284.3 227.2,284.3 227.2,290.3 221.2,290.3" fill="rgb(105,105,255)"/>
<polygon points="227.2,284.3 233.2,284.3 233.2,290.3 227.2,290.3" fill="rgb(192,192,255)"/>
<polygon points="233.2,284.3 239.2,284.3 239.2,290.3 233.2,290.3" fill="rgb(255,248,248)"/>
<polygon points="239.2,284.3 245.2,284.3 245.2,290.3 239.2,290.3" fill="rgb(255,0,0)"/>
<polygon points="245.2,284.3 251.2,284.3 251.2,290.3 245.2,290.3" fill="rgb(182,182,255)"/>
<polygon points="261.2,284.3 267.2,284.3 267.2,290.3 261.2,290.3" fill="rgb(253,253,255)"/>
<polygon points="267.2,284.3 273.2,284.3 273.2,290.3 267.2,290.3" fill="rgb(180,180,255)"/>
<polygon points="273.2,284.3 279.2,284.3 279.2,290.3 273.2,290.3" fill="rgb(122,122,255)"/>
<polygon points="279.2,284.3 285.2,284.3 285.2,290.3 279.2,290.3" fill="rgb(98,98,255)"/>
<polygon points="285.2,284.3 291.2,284.3 291.2,290.3 285.2,290.3" fill="rgb(194,194,255)"/>
<polygon points="291.2,284.3 297.2,284.3 297.2,290.3 291.2,290.3" fill="rgb(254,254,255)"/>
<polygon points="297.2,284.3 303.2,284.3 303.2,290.3 297.2,290.3" fill="rgb(255,63,63)"/>
<polygon points="303.2,284.3 309.2,284.3 309.2,290.3 303.2,290.3" fill="rgb(240,240,255)"/>
<polygon points="111.2,290.3 119.2,290.3 119.2,296.3 111.2,296.3" fill="rgb(156,207,203)"/><text xml:space="preserve" x="115.2" y="296.133" font-family="Calibri" font-size="7.5" fill="rgb(0,0,0)" text-anchor="middle">3</text>
<polygon points="119.2,290.3 127.2,290.3 127.2,296.3 119.2,296.3" fill="rgb(134,198,192)"/><text xml:space="preserve" x="123.2" y="296.133" font-family="Calibri" font-size="7.5" fill="rgb(0,0,0)" text-anchor="middle">2</text>
<polygon points="127.2,290.3 135.2,290.3 135.2,296.3 127.2,296.3" fill="rgb(134,198,192)"/><text xml:space="preserve" x="131.2" y="296.133" font-family="Calibri" font-size="7.5" fill="rgb(0,0,0)" text-anchor="middle">2</text>
<polygon points="145.2,290.3 151.2,290.3 151.2,296.3 145.2,296.3" fill="rgb(251,251,255)"/>
<polygon points="151.2,290.3 157.2,290.3 157.2,296.3 151.2,296.3" fill="rgb(137,137,255)"/>
<polygon points="157.2,290.3 163.2,290.3 163.2,296.3 157.2,296.3" fill="rgb(64,64,255)"/>
<polygon points="163.2,290.3 169.2,290.3 169.2,296.3 163.2,296.3" fill="rgb(76,76,255)"/>
<polygon points="169.2,290.3 175.2,290.3 175.2,296.3 169.2,296.3" fill="rgb(142,142,255)"/>
<polygon points="175.2,290.3 181.2,290.3 181.2,296.3 175.2,296.3" fill="rgb(6,6,255)"/>
<polygon points="181.2,290.3 187.2,290.3 187.2,296.3 181.2,296.3" fill="rgb(255,120,120)"/>
<polygon points="187.2,290.3 193.2,290.3 193.2,296.3 187.2,296.3" fill="rgb(255,0,0)"/>
<polygon points="203.2,290.3 209.2,290.3 209.2,296.3 203.2,296.3" fill="rgb(241,241,255)"/>
<polygon points="209.2,290.3 215.2,290.3 215.2,296.3 209.2,296.3" fill="rgb(162,162,255)"/>
<polygon points="215.2,290.3 221.2,290.3 221.2,296.3 215.2,296.3" fill="rgb(208,208,255)"/>
<polygon points="221.2,290.3 227.2,290.3 227.2,296.3 221.2,296.3" fill="rgb(131,131,255)"/>
<polygon points="227.2,290.3 233.2,290.3 233.2,296.3 227.2,296.3" fill="rgb(209,209,255)"/>
<polygon points="233.2,290.3 239.2,290.3 239.2,296.3 233.2,296.3" fill="rgb(186,186,255)"/>
<polygon points="239.2,290.3 245.2,290.3 245.2,296.3 239.2,296.3" fill="rgb(255,0,0)"/>
<polygon points="245.2,290.3 251.2,290.3 251.2,296.3 245.2,296.3" fill="rgb(191,191,255)"/>
<polygon points="261.2,290.3 267.2,290.3 267.2,296.3 261.2,296.3" fill="rgb(233,233,255)"/>
<polygon points="267.2,290.3 273.2,290.3 273.2,296.3 267.2,296.3" fill="rgb(151,151,255)"/>
<polygon points="273.2,290.3 279.2,290.3 279.2,296.3 273.2,296.3" fill="rgb(74,74,255)"/>
<polygon points="279.2,290.3 285.2,290.3 285.2,296.3 279.2,296.3" fill="rgb(86,86,255)"/>
<polygon points="285.2,290.3 291.2,290.3 291.2,296.3 285.2,296.3" fill="rgb(202,202,255)"/>
<polygon points="291.2,290.3 297.2,290.3 297.2,296.3 291.2,296.3" fill="rgb(255,251,251)"/>
<polygon points="297.2,290.3 303.2,290.3 303.2,296.3 297.2,296.3" fill="rgb(255,6,6)"/>
<polygon points="303.2,290.3 309.2,290.3 309.2,296.3 303.2,296.3" fill="rgb(194,194,255)"/>
<polygon points="111.2,296.3 119.2,296.3 119.2,302.3 111.2,302.3" fill="rgb(156,207,203)"/><text xml:space="preserve" x="115.2" y="302.133" font-family="Calibri" font-size="7.5" fill="rgb(0,0,0)" text-anchor="middle">3</text>
<polygon points="119.2,296.3 127.2,296.3 127.2,302.3 119.2,302.3" fill="rgb(134,198,192)"/><text xml:space="preserve" x="123.2" y="302.133" font-family="Calibri" font-size="7.5" fill="rgb(0,0,0)" text-anchor="middle">2</text>
<polygon points="127.2,296.3 135.2,296.3 135.2,302.3 127.2,302.3" fill="rgb(134,198,192)"/><text xml:space="preserve" x="131.2" y="302.133" font-family="Calibri" font-size="7.5" fill="rgb(0,0,0)" text-anchor="middle">2</text>
<polygon points="145.2,296.3 151.2,296.3 151.2,302.3 145.2,302.3" fill="rgb(243,243,255)"/>
<polygon points="151.2,296.3 157.2,296.3 157.2,302.3 151.2,302.3" fill="rgb(128,128,255)"/>
<polygon points="157.2,296.3 163.2,296.3 163.2,302.3 157.2,302.3" fill="rgb(48,48,255)"/>
<polygon points="163.2,296.3 169.2,296.3 169.2,302.3 163.2,302.3" fill="rgb(61,61,255)"/>
<polygon points="169.2,296.3 175.2,296.3 175.2,302.3 169.2,302.3" fill="rgb(156,156,255)"/>
<polygon points="175.2,296.3 181.2,296.3 181.2,302.3 175.2,302.3" fill="rgb(17,17,255)"/>
<polygon points="181.2,296.3 187.2,296.3 187.2,302.3 181.2,302.3" fill="rgb(255,135,135)"/>
<polygon points="187.2,296.3 193.2,296.3 193.2,302.3 187.2,302.3" fill="rgb(255,0,0)"/>
<polygon points="203.2,296.3 209.2,296.3 209.2,302.3 203.2,302.3" fill="rgb(217,217,255)"/>
<polygon points="209.2,296.3 215.2,296.3 215.2,302.3 209.2,302.3" fill="rgb(210,210,255)"/>
<polygon points="215.2,296.3 221.2,296.3 221.2,302.3 215.2,302.3" fill="rgb(206,206,255)"/>
<polygon points="221.2,296.3 227.2,296.3 227.2,302.3 221.2,302.3" fill="rgb(181,181,255)"/>
<polygon points="227.2,296.3 233.2,296.3 233.2,302.3 227.2,302.3" fill="rgb(243,243,255)"/>
<polygon points="233.2,296.3 239.2,296.3 239.2,302.3 233.2,302.3" fill="rgb(223,223,255)"/>
<polygon points="239.2,296.3 245.2,296.3 245.2,302.3 239.2,302.3" fill="rgb(255,0,0)"/>
<polygon points="245.2,296.3 251.2,296.3 251.2,302.3 245.2,302.3" fill="rgb(218,218,255)"/>
<polygon points="261.2,296.3 267.2,296.3 267.2,302.3 261.2,302.3" fill="rgb(255,236,236)"/>
<polygon points="267.2,296.3 273.2,296.3 273.2,302.3 267.2,302.3" fill="rgb(158,158,255)"/>
<polygon points="273.2,296.3 279.2,296.3 279.2,302.3 273.2,302.3" fill="rgb(151,151,255)"/>
<polygon points="279.2,296.3 285.2,296.3 285.2,302.3 279.2,302.3" fill="rgb(116,116,255)"/>
<polygon points="285.2,296.3 291.2,296.3 291.2,302.3 285.2,302.3" fill="rgb(238,238,255)"/>
<polygon points="291.2,296.3 297.2,296.3 297.2,302.3 291.2,302.3" fill="rgb(220,220,255)"/>
<polygon points="297.2,296.3 303.2,296.3 303.2,302.3 297.2,302.3" fill="rgb(255,0,0)"/>
<polygon points="303.2,296.3 309.2,296.3 309.2,302.3 303.2,302.3" fill="rgb(183,183,255)"/>
<polygon points="111.2,212.3 135.2,212.3 135.2,302.3 111.2,302.3" fill="none" stroke="black" stroke-width="1"/>
<polygon points="145.2,212.3 193.2,212.3 193.2,302.3 145.2,302.3" fill="none" stroke="black" stroke-width="1"/>
<polygon points="203.2,212.3 251.2,212.3 251.2,302.3 203.2,302.3" fill="none" stroke="black" stroke-width="1"/>
<polygon points="261.2,212.3 309.2,212.3 309.2,302.3 261.2,302.3" fill="none" stroke="black" stroke-width="1"/>
<text xml:space="preserve" x="175.6" y="334.633" font-family="Calibri" font-size="6" text-anchor="middle">moduleID</text>
<polygon points="65.6,342.3 85.6,342.3 85.6,362.3 65.6,362.3" fill="rgb(250,250,250)"/><polygon points="65.6,342.3 85.6,342.3 85.6,362.3 65.6,362.3" fill="none" stroke="black" stroke-width="1"/><text xml:space="preserve" x="75.6" y="355.133" font-family="Calibri" font-size="7.5" fill="rgb(0,0,0)" text-anchor="middle">-2.0</text>
<polygon points="85.6,342.3 105.6,342.3 105.6,362.3 85.6,362.3" fill="rgb(156,210,205)"/><polygon points="85.6,342.3 105.6,342.3 105.6,362.3 85.6,362.3" fill="none" stroke="black" stroke-width="1"/><text xml:space="preserve" x="95.6" y="355.133" font-family="Calibri" font-size="7.5" fill="rgb(0,0,0)" text-anchor="middle">-0.4</text>
<polygon points="105.6,342.3 125.6,342.3 125.6,362.3 105.6,362.3" fill="rgb(116,191,184)"/><polygon points="105.6,342.3 125.6,342.3 125.6,362.3 105.6,362.3" fill="none" stroke="black" stroke-width="1"/><text xml:space="preserve" x="115.6" y="355.133" font-family="Calibri" font-size="7.5" fill="rgb(0,0,0)" text-anchor="middle">1.2</text>
<polygon points="125.6,342.3 145.6,342.3 145.6,362.3 125.6,362.3" fill="rgb(152,206,201)"/><polygon points="125.6,342.3 145.6,342.3 145.6,362.3 125.6,362.3" fill="none" stroke="black" stroke-width="1"/><text xml:space="preserve" x="135.6" y="355.133" font-family="Calibri" font-size="7.5" fill="rgb(0,0,0)" text-anchor="middle">2.8</text>
<polygon points="145.6,342.3 165.6,342.3 165.6,362.3 145.6,362.3" fill="rgb(187,220,217)"/><polygon points="145.6,342.3 165.6,342.3 165.6,362.3 145.6,362.3" fill="none" stroke="black" stroke-width="1"/><text xml:space="preserve" x="155.6" y="355.133" font-family="Calibri" font-size="7.5" fill="rgb(0,0,0)" text-anchor="middle">4.4</text>
<polygon points="165.6,342.3 185.6,342.3 185.6,362.3 165.6,362.3" fill="rgb(222,235,234)"/><polygon points="165.6,342.3 185.6,342.3 185.6,362.3 165.6,362.3" fill="none" stroke="black" stroke-width="1"/><text xml:space="preserve" x="175.6" y="355.133" font-family="Calibri" font-size="7.5" fill="rgb(0,0,0)" text-anchor="middle">6.0</text>
<polygon points="185.6,342.3 205.6,342.3 205.6,362.3 185.6,362.3" fill="rgb(242,239,232)"/><polygon points="185.6,342.3 205.6,342.3 205.6,362.3 185.6,362.3" fill="none" stroke="black" stroke-width="1"/><text xml:space="preserve" x="195.6" y="355.133" font-family="Calibri" font-size="7.5" fill="rgb(0,0,0)" text-anchor="middle">7.6</text>
<polygon points="205.6,342.3 225.6,342.3 225.6,362.3 205.6,362.3" fill="rgb(235,224,199)"/><polygon points="205.6,342.3 225.6,342.3 225.6,362.3 205.6,362.3" fill="none" stroke="black" stroke-width="1"/><text xml:space="preserve" x="215.6" y="355.133" font-family="Calibri" font-size="7.5" fill="rgb(0,0,0)" text-anchor="middle">9.2</text>
<polygon points="225.6,342.3 245.6,342.3 245.6,362.3 225.6,362.3" fill="rgb(229,209,166)"/><polygon points="225.6,342.3 245.6,342.3 245.6,362.3 225.6,362.3" fill="none" stroke="black" stroke-width="1"/><text xml:space="preserve" x="235.6" y="355.133" font-family="Calibri" font-size="7.5" fill="rgb(0,0,0)" text-anchor="middle">10.8</text>
<polygon points="245.6,342.3 265.6,342.3 265.6,362.3 245.6,362.3" fill="rgb(222,194,133)"/><polygon points="245.6,342.3 265.6,342.3 265.6,362.3 245.6,362.3" fill="none" stroke="black" stroke-width="1"/><text xml:space="preserve" x="255.6" y="355.133" font-family="Calibri" font-size="7.5" fill="rgb(0,0,0)" text-anchor="middle">12.4</text>
<polygon points="265.6,342.3 285.6,342.3 285.6,362.3 265.6,362.3" fill="rgb(216,179,101)"/><polygon points="265.6,342.3 285.6,342.3 285.6,362.3 265.6,362.3" fill="none" stroke="black" stroke-width="1"/><text xml:space="preserve" x="275.6" y="355.133" font-family="Calibri" font-size="7.5" fill="rgb(0,0,0)" text-anchor="middle">14.0</text>
<text xml:space="preserve" x="175.6" y="394.633" font-family="Calibri" font-size="6" text-anchor="middle">marklevel</text>
<polygon points="65.6,402.3 85.6,402.3 85.6,422.3 65.6,422.3" fill="rgb(0,0,255)"/><polygon points="65.6,402.3 85.6,402.3 85.6,422.3 65.6,422.3" fill="none" stroke="black" stroke-width="1"/><text xml:space="preserve" x="75.6" y="415.133" font-family="Calibri" font-size="7.5" fill="rgb(255,255,255)" text-anchor="middle">-2.0</text>
<polygon points="85.6,402.3 105.6,402.3 105.6,422.3 85.6,422.3" fill="rgb(50,50,255)"/><polygon points="85.6,402.3 105.6,402.3 105.6,422.3 85.6,422.3" fill="none" stroke="black" stroke-width="1"/><text xml:space="preserve" x="95.6" y="415.133" font-family="Calibri" font-size="7.5" fill="rgb(255,255,255)" text-anchor="middle">-1.6</text>
<polygon points="105.6,402.3 125.6,402.3 125.6,422.3 105.6,422.3" fill="rgb(102,102,255)"/><polygon points="105.6,402.3 125.6,402.3 125.6,422.3 105.6,422.3" fill="none" stroke="black" stroke-width="1"/><text xml:space="preserve" x="115.6" y="415.133" font-family="Calibri" font-size="7.5" fill="rgb(255,255,255)" text-anchor="middle">-1.2</text>
<polygon points="125.6,402.3 145.6,402.3 145.6,422.3 125.6,422.3" fill="rgb(153,153,255)"/><polygon points="125.6,402.3 145.6,402.3 145.6,422.3 125.6,422.3" fill="none" stroke="black" stroke-width="1"/><text xml:space="preserve" x="135.6" y="415.133" font-family="Calibri" font-size="7.5" fill="rgb(0,0,0)" text-anchor="middle">-0.8</text>
<polygon points="145.6,402.3 165.6,402.3 165.6,422.3 145.6,422.3" fill="rgb(204,204,255)"/><polygon points="145.6,402.3 165.6,402.3 165.6,422.3 145.6,422.3" fill="none" stroke="black" stroke-width="1"/><text xml:space="preserve" x="155.6" y="415.133" font-family="Calibri" font-size="7.5" fill="rgb(0,0,0)" text-anchor="middle">-0.4</text>
<polygon points="165.6,402.3 185.6,402.3 185.6,422.3 165.6,422.3" fill="rgb(255,255,255)"/><polygon points="165.6,402.3 185.6,402.3 185.6,422.3 165.6,422.3" fill="none" stroke="black" stroke-width="1"/><text xml:space="preserve" x="175.6" y="415.133" font-family="Calibri" font-size="7.5" fill="rgb(0,0,0)" text-anchor="middle">0.0</text>
<polygon points="185.6,402.3 205.6,402.3 205.6,422.3 185.6,422.3" fill="rgb(255,204,204)"/><polygon points="185.6,402.3 205.6,402.3 205.6,422.3 185.6,422.3" fill="none" stroke="black" stroke-width="1"/><text xml:space="preserve" x="195.6" y="415.133" font-family="Calibri" font-size="7.5" fill="rgb(0,0,0)" text-anchor="middle">0.4</text>
<polygon points="205.6,402.3 225.6,402.3 225.6,422.3 205.6,422.3" fill="rgb(255,153,153)"/><polygon points="205.6,402.3 225.6,402.3 225.6,422.3 205.6,422.3" fill="none" stroke="black" stroke-width="1"/><text xml:space="preserve" x="215.6" y="415.133" font-family="Calibri" font-size="7.5" fill="rgb(0,0,0)" text-anchor="middle">0.8</text>
<polygon points="225.6,402.3 245.6,402.3 245.6,422.3 225.6,422.3" fill="rgb(255,102,102)"/><polygon points="225.6,402.3 245.6,402.3 245.6,422.3 225.6,422.3" fill="none" stroke="black" stroke-width="1"/><text xml:space="preserve" x="235.6" y="415.133" font-family="Calibri" font-size="7.5" fill="rgb(0,0,0)" text-anchor="middle">1.2</text>
<polygon points="245.6,402.3 265.6,402.3 265.6,422.3 245.6,422.3" fill="rgb(255,50,50)"/><polygon points="245.6,402.3 265.6,402.3 265.6,422.3 245.6,422.3" fill="none" stroke="black" stroke-width="1"/><text xml:space="preserve" x="255.6" y="415.133" font-family="Calibri" font-size="7.5" fill="rgb(255,255,255)" text-anchor="middle">1.6</text>
<polygon points="265.6,402.3 285.6,402.3 285.6,422.3 265.6,422.3" fill="rgb(255,0,0)"/><polygon points="265.6,402.3 285.6,402.3 285.6,422.3 265.6,422.3" fill="none" stroke="black" stroke-width="1"/><text xml:space="preserve" x="275.6" y="415.133" font-family="Calibri" font-size="7.5" fill="rgb(255,255,255)" text-anchor="middle">2.0</text>
</svg>
