<?xml version="1.0" standalone="no"?><!DOCTYPE svg PUBLIC "-//W3C//DTD SVG 1.1//EN" "http://www.w3.org/Graphics/SVG/1.1/DTD/svg11.dtd">
<svg width="335.6" height="412.3" version="1.1" xmlns="http://www.w3.org/2000/svg">
<text xml:space="preserve" x="91.6" y="217.633" font-family="Calibri" font-size="6" text-anchor="end">Cacng3</text>
<text xml:space="preserve" x="91.6" y="223.633" font-family="Calibri" font-size="6" text-anchor="end">Pcdhb4</text>
<text xml:space="preserve" x="91.6" y="229.633" font-family="Calibri" font-size="6" text-anchor="end">Pcdhb7</text>
<text xml:space="preserve" x="91.6" y="235.633" font-family="Calibri" font-size="6" text-anchor="end">Pcdha10</text>
<text xml:space="preserve" x="91.6" y="241.633" font-family="Calibri" font-size="6" text-anchor="end">Pcdha1</text>
<text xml:space="preserve" x="91.6" y="247.633" font-family="Calibri" font-size="6" text-anchor="end">Olfr38</text>
<text xml:space="preserve" x="91.6" y="253.633" font-family="Calibri" font-size="6" text-anchor="end">Pcdhb3</text>
<text xml:space="preserve" x="91.6" y="259.633" font-family="Calibri" font-size="6" text-anchor="end">Pcdhb2</text>
<text xml:space="preserve" x="91.6" y="265.633" font-family="Calibri" font-size="6" text-anchor="end">Pcdhb13</text>
<text xml:space="preserve" x="91.6" y="271.633" font-family="Calibri" font-size="6" text-anchor="end">Pcdha11</text>
<text xml:space="preserve" x="101.933" y="208.3" font-family="Calibri" font-size="6" transform="rotate(270 101.933 208.3)">ips</text>
<text xml:space="preserve" x="109.933" y="208.3" font-family="Calibri" font-size="6" transform="rotate(270 109.933 208.3)">pips</text>
<text xml:space="preserve" x="117.933" y="208.3" font-family="Calibri" font-size="6" transform="rotate(270 117.933 208.3)">mef</text>
<text xml:space="preserve" x="134.933" y="208.3" font-family="Calibri" font-size="6" transform="rotate(270 134.933 208.3)">ips_H3K4me3iPS</text>
<text xml:space="preserve" x="140.933" y="208.3" font-family="Calibri" font-size="6" transform="rotate(270 140.933 208.3)">ips_H3K9aciPS</text>
<text xml:space="preserve" x="146.933" y="208.3" font-family="Calibri" font-size="6" transform="rotate(270 146.933 208.3)">ips_H3K14aciPS</text>
<text xml:space="preserve" x="152.933" y="208.3" font-family="Calibri" font-size="6" transform="rotate(270 152.933 208.3)">ips_H3K18aciPS</text>
<text xml:space="preserve" x="158.933" y="208.3" font-family="Calibri" font-size="6" transform="rotate(270 158.933 208.3)">ips_H3K79me2iPS</text>
<text xml:space="preserve" x="164.933" y="208.3" font-family="Calibri" font-size="6" transform="rotate(270 164.933 208.3)">ips_H3K9me2iPS</text>
<text xml:space="preserve" x="170.933" y="208.3" font-family="Calibri" font-size="6" transform="rotate(270 170.933 208.3)">ips_H3K9me3iPS</text>
<text xml:space="preserve" x="176.933" y="208.3" font-family="Calibri" font-size="6" transform="rotate(270 176.933 208.3)">ips_H3K27me3iPS</text>
<text xml:space="preserve" x="192.933" y="208.3" font-family="Calibri" font-size="6" transform="rotate(270 192.933 208.3)">pips_H3K4me3pips</text>
<text xml:space="preserve" x="198.933" y="208.3" font-family="Calibri" font-size="6" transform="rotate(270 198.933 208.3)">pips_H3K9acpips</text>
<text xml:space="preserve" x="204.933" y="208.3" font-family="Calibri" font-size="6" transform="rotate(270 204.933 208.3)">pips_H3K14acpips</text>
<text xml:space="preserve" x="210.933" y="208.3" font-family="Calibri" font-size="6" transform="rotate(270 210.933 208.3)">pips_H3K18acpips</text>
<text xml:space="preserve" x="216.933" y="208.3" font-family="Calibri" font-size="6" transform="rotate(270 216.933 208.3)">pips_H3K79me2pips</text>
<text xml:space="preserve" x="222.933" y="208.3" font-family="Calibri" font-size="6" transform="rotate(270 222.933 208.3)">pips_H3K9me2pips</text>
<text xml:space="preserve" x="228.933" y="208.3" font-family="Calibri" font-size="6" transform="rotate(270 228.933 208.3)">pips_H3K9me3pips</text>
<text xml:space="preserve" x="234.933" y="208.3" font-family="Calibri" font-size="6" transform="rotate(270 234.933 208.3)">pips_H3K27me3pips</text>
<text xml:space="preserve" x="250.933" y="208.3" font-family="Calibri" font-size="6" transform="rotate(270 250.933 208.3)">mef_H3K4me3mef</text>
<text xml:space="preserve" x="256.933" y="208.3" font-family="Calibri" font-size="6" transform="rotate(270 256.933 208.3)">mef_H3K9acmef</text>
<text xml:space="preserve" x="262.933" y="208.3" font-family="Calibri" font-size="6" transform="rotate(270 262.933 208.3)">mef_H3K14acmef</text>
<text xml:space="preserve" x="268.933" y="208.3" font-family="Calibri" font-size="6" transform="rotate(270 268.933 208.3)">mef_H3K18acmef</text>
<text xml:space="preserve" x="274.933" y="208.3" font-family="Calibri" font-size="6" transform="rotate(270 274.933 208.3)">mef_H3K79me2mef</text>
<text xml:space="preserve" x="280.933" y="208.3" font-family="Calibri" font-size="6" transform="rotate(270 280.933 208.3)">mef_H3K9me2mef</text>
<text xml:space="preserve" x="286.933" y="208.3" font-family="Calibri" font-size="6" transform="rotate(270 286.933 208.3)">mef_H3K9me3mef</text>
<text xml:space="preserve" x="292.933" y="208.3" font-family="Calibri" font-size="6" transform="rotate(270 292.933 208.3)">mef_H3K27me3mef</text>
<polygon points="95.6,212.3 103.6,212.3 103.6,218.3 95.6,218.3" fill="rgb(156,207,203)"/><text xml:space="preserve" x="99.6" y="218.133" font-family="Calibri" font-size="7.5" fill="rgb(0,0,0)" text-anchor="middle">3</text>
<polygon points="103.6,212.3 111.6,212.3 111.6,218.3 103.6,218.3" fill="rgb(224,197,142)"/><text xml:space="preserve" x="107.6" y="218.133" font-family="Calibri" font-size="7.5" fill="rgb(0,0,0)" text-anchor="middle">12</text>
<polygon points="111.6,212.3 119.6,212.3 119.6,218.3 111.6,218.3" fill="rgb(236,226,203)"/><text xml:space="preserve" x="115.6" y="218.133" font-family="Calibri" font-size="7.5" fill="rgb(0,0,0)" text-anchor="middle">9</text>
<polygon points="129.6,212.3 135.6,212.3 135.6,218.3 129.6,218.3" fill="rgb(207,207,255)"/>
<polygon points="135.6,212.3 141.6,212.3 141.6,218.3 135.6,218.3" fill="rgb(135,135,255)"/>
<polygon points="141.6,212.3 147.6,212.3 147.6,218.3 141.6,218.3" fill="rgb(113,113,255)"/>
<polygon points="147.6,212.3 153.6,212.3 153.6,218.3 147.6,218.3" fill="rgb(98,98,255)"/>
<polygon points="153.6,212.3 159.6,212.3 159.6,218.3 153.6,218.3" fill="rgb(157,157,255)"/>
<polygon points="159.6,212.3 165.6,212.3 165.6,218.3 159.6,218.3" fill="rgb(153,153,255)"/>
<polygon points="165.6,212.3 171.6,212.3 171.6,218.3 165.6,218.3" fill="rgb(229,229,255)"/>
<polygon points="171.6,212.3 177.6,212.3 177.6,218.3 171.6,218.3" fill="rgb(255,113,113)"/>
<polygon points="187.6,212.3 193.6,212.3 193.6,218.3 187.6,218.3" fill="rgb(165,165,255)"/>
<polygon points="193.6,212.3 199.6,212.3 199.6,218.3 193.6,218.3" fill="rgb(190,190,255)"/>
<polygon points="199.6,212.3 205.6,212.3 205.6,218.3 199.6,218.3" fill="rgb(173,173,255)"/>
<polygon points="205.6,212.3 211.6,212.3 211.6,218.3 205.6,218.3" fill="rgb(226,226,255)"/>
<polygon points="211.6,212.3 217.6,212.3 217.6,218.3 211.6,218.3" fill="rgb(194,194,255)"/>
<polygon points="217.6,212.3 223.6,212.3 223.6,218.3 217.6,218.3" fill="rgb(255,198,198)"/>
<polygon points="223.6,212.3 229.6,212.3 229.6,218.3 223.6,218.3" fill="rgb(255,84,84)"/>
<polygon points="229.6,212.3 235.6,212.3 235.6,218.3 229.6,218.3" fill="rgb(255,126,126)"/>
<polygon points="245.6,212.3 251.6,212.3 251.6,218.3 245.6,218.3" fill="rgb(142,142,255)"/>
<polygon points="251.6,212.3 257.6,212.3 257.6,218.3 251.6,218.3" fill="rgb(104,104,255)"/>
<polygon points="257.6,212.3 263.6,212.3 263.6,218.3 257.6,218.3" fill="rgb(83,83,255)"/>
<polygon points="263.6,212.3 269.6,212.3 269.6,218.3 263.6,218.3" fill="rgb(65,65,255)"/>
<polygon points="269.6,212.3 275.6,212.3 275.6,218.3 269.6,218.3" fill="rgb(164,164,255)"/>
<polygon points="275.6,212.3 281.6,212.3 281.6,218.3 275.6,218.3" fill="rgb(255,215,215)"/>
<polygon points="281.6,212.3 287.6,212.3 287.6,218.3 281.6,218.3" fill="rgb(255,229,229)"/>
<polygon points="287.6,212.3 293.6,212.3 293.6,218.3 287.6,218.3" fill="rgb(224,224,255)"/>
<polygon points="95.6,218.3 103.6,218.3 103.6,224.3 95.6,224.3" fill="rgb(156,207,203)"/><text xml:space="preserve" x="99.6" y="224.133" font-family="Calibri" font-size="7.5" fill="rgb(0,0,0)" text-anchor="middle">3</text>
<polygon points="103.6,218.3 111.6,218.3 111.6,224.3 103.6,224.3" fill="rgb(224,197,142)"/><text xml:space="preserve" x="107.6" y="224.133" font-family="Calibri" font-size="7.5" fill="rgb(0,0,0)" text-anchor="middle">12</text>
<polygon points="111.6,218.3 119.6,218.3 119.6,224.3 111.6,224.3" fill="rgb(236,226,203)"/><text xml:space="preserve" x="115.6" y="224.133" font-family="Calibri" font-size="7.5" fill="rgb(0,0,0)" text-anchor="middle">9</text>
<polygon points="129.6,218.3 135.6,218.3 135.6,224.3 129.6,224.3" fill="rgb(246,246,255)"/>
<polygon points="135.6,218.3 141.6,218.3 141.6,224.3 135.6,224.3" fill="rgb(128,128,255)"/>
<polygon points="141.6,218.3 147.6,218.3 147.6,224.3 141.6,224.3" fill="rgb(78,78,255)"/>
<polygon points="147.6,218.3 153.6,218.3 153.6,224.3 147.6,224.3" fill="rgb(69,69,255)"/>
<polygon points="153.6,218.3 159.6,218.3 159.6,224.3 153.6,224.3" fill="rgb(145,145,255)"/>
<polygon points="159.6,218.3 165.6,218.3 165.6,224.3 159.6,224.3" fill="rgb(33,33,255)"/>
<polygon points="165.6,218.3 171.6,218.3 171.6,224.3 165.6,224.3" fill="rgb(255,177,177)"/>
<polygon points="171.6,218.3 177.6,218.3 177.6,224.3 171.6,224.3" fill="rgb(255,0,0)"/>
<polygon points="187.6,218.3 193.6,218.3 193.6,224.3 187.6,224.3" fill="rgb(192,192,255)"/>
<polygon points="193.6,218.3 199.6,218.3 199.6,224.3 193.6,224.3" fill="rgb(146,146,255)"/>
<polygon points="199.6,218.3 205.6,218.3 205.6,224.3 199.6,224.3" fill="rgb(95,95,255)"/>
<polygon points="205.6,218.3 211.6,218.3 211.6,224.3 205.6,224.3" fill="rgb(33,33,255)"/>
<polygon points="211.6,218.3 217.6,218.3 217.6,224.3 211.6,224.3" fill="rgb(146,146,255)"/>
<polygon points="217.6,218.3 223.6,218.3 223.6,224.3 217.6,224.3" fill="rgb(241,241,255)"/>
<polygon points="223.6,218.3 229.6,218.3 229.6,224.3 223.6,224.3" fill="rgb(234,234,255)"/>
<polygon points="229.6,218.3 235.6,218.3 235.6,224.3 229.6,224.3" fill="rgb(255,242,242)"/>
<polygon points="245.6,218.3 251.6,218.3 251.6,224.3 245.6,224.3" fill="rgb(168,168,255)"/>
<polygon points="251.6,218.3 257.6,218.3 257.6,224.3 251.6,224.3" fill="rgb(100,100,255)"/>
<polygon points="257.6,218.3 263.6,218.3 263.6,224.3 257.6,224.3" fill="rgb(141,141,255)"/>
<polygon points="263.6,218.3 269.6,218.3 269.6,224.3 263.6,224.3" fill="rgb(50,50,255)"/>
<polygon points="269.6,218.3 275.6,218.3 275.6,224.3 269.6,224.3" fill="rgb(161,161,255)"/>
<polygon points="275.6,218.3 281.6,218.3 281.6,224.3 275.6,224.3" fill="rgb(235,235,255)"/>
<polygon points="281.6,218.3 287.6,218.3 287.6,224.3 281.6,224.3" fill="rgb(255,69,69)"/>
<polygon points="287.6,218.3 293.6,218.3 293.6,224.3 287.6,224.3" fill="rgb(110,110,255)"/>
<polygon points="95.6,224.3 103.6,224.3 103.6,230.3 95.6,230.3" fill="rgb(156,207,203)"/><text xml:space="preserve" x="99.6" y="230.133" font-family="Calibri" font-size="7.5" fill="rgb(0,0,0)" text-anchor="middle">3</text>
<polygon points="103.6,224.3 111.6,224.3 111.6,230.3 103.6,230.3" fill="rgb(224,197,142)"/><text xml:space="preserve" x="107.6" y="230.133" font-family="Calibri" font-size="7.5" fill="rgb(0,0,0)" text-anchor="middle">12</text>
<polygon points="111.6,224.3 119.6,224.3 119.6,230.3 111.6,230.3" fill="rgb(236,226,203)"/><text xml:space="preserve" x="115.6" y="230.133" font-family="Calibri" font-size="7.5" fill="rgb(0,0,0)" text-anchor="middle">9</text>
<polygon points="129.6,224.3 135.6,224.3 135.6,230.3 129.6,230.3" fill="rgb(198,198,255)"/>
<polygon points="135.6,224.3 141.6,224.3 141.6,230.3 135.6,230.3" fill="rgb(155,155,255)"/>
<polygon points="141.6,224.3 147.6,224.3 147.6,230.3 141.6,230.3" fill="rgb(45,45,255)"/>
<polygon points="147.6,224.3 153.6,224.3 153.6,230.3 147.6,230.3" fill="rgb(70,70,255)"/>
<polygon points="153.6,224.3 159.6,224.3 159.6,230.3 153.6,230.3" fill="rgb(154,154,255)"/>
<polygon points="159.6,224.3 165.6,224.3 165.6,230.3 159.6,230.3" fill="rgb(116,116,255)"/>
<polygon points="165.6,224.3 171.6,224.3 171.6,230.3 165.6,230.3" fill="rgb(255,227,227)"/>
<polygon points="171.6,224.3 177.6,224.3 177.6,230.3 171.6,230.3" fill="rgb(255,59,59)"/>
<polygon points="187.6,224.3 193.6,224.3 193.6,230.3 187.6,230.3" fill="rgb(214,214,255)"/>
<polygon points="193.6,224.3 199.6,224.3 199.6,230.3 193.6,230.3" fill="rgb(198,198,255)"/>
<polygon points="199.6,224.3 205.6,224.3 205.6,230.3 199.6,230.3" fill="rgb(171,171,255)"/>
<polygon points="205.6,224.3 211.6,224.3 211.6,230.3 205.6,230.3" fill="rgb(92,92,255)"/>
<polygon points="211.6,224.3 217.6,224.3 217.6,230.3 211.6,230.3" fill="rgb(159,159,255)"/>
<polygon points="217.6,224.3 223.6,224.3 223.6,230.3 217.6,230.3" fill="rgb(255,212,212)"/>
<polygon points="223.6,224.3 229.6,224.3 229.6,230.3 223.6,230.3" fill="rgb(255,252,252)"/>
<polygon points="229.6,224.3 235.6,224.3 235.6,230.3 229.6,230.3" fill="rgb(246,246,255)"/>
<polygon points="245.6,224.3 251.6,224.3 251.6,230.3 245.6,230.3" fill="rgb(187,187,255)"/>
<polygon points="251.6,224.3 257.6,224.3 257.6,230.3 251.6,230.3" fill="rgb(173,173,255)"/>
<polygon points="257.6,224.3 263.6,224.3 263.6,230.3 257.6,230.3" fill="rgb(128,128,255)"/>
<polygon points="263.6,224.3 269.6,224.3 269.6,230.3 263.6,230.3" fill="rgb(84,84,255)"/>
<polygon points="269.6,224.3 275.6,224.3 275.6,230.3 269.6,230.3" fill="rgb(200,200,255)"/>
<polygon points="275.6,224.3 281.6,224.3 281.6,230.3 275.6,230.3" fill="rgb(255,238,238)"/>
<polygon points="281.6,224.3 287.6,224.3 287.6,230.3 281.6,230.3" fill="rgb(255,114,114)"/>
<polygon points="287.6,224.3 293.6,224.3 293.6,230.3 287.6,230.3" fill="rgb(132,132,255)"/>
<polygon points="95.6,230.3 103.6,230.3 103.6,236.3 95.6,236.3" fill="rgb(156,207,203)"/><text xml:space="preserve" x="99.6" y="236.133" font-family="Calibri" font-size="7.5" fill="rgb(0,0,0)" text-anchor="middle">3</text>
<polygon points="103.6,230.3 111.6,230.3 111.6,236.3 103.6,236.3" fill="rgb(224,197,142)"/><text xml:space="preserve" x="107.6" y="236.133" font-family="Calibri" font-size="7.5" fill="rgb(0,0,0)" text-anchor="middle">12</text>
<polygon points="111.6,230.3 119.6,230.3 119.6,236.3 111.6,236.3" fill="rgb(236,226,203)"/><text xml:space="preserve" x="115.6" y="236.133" font-family="Calibri" font-size="7.5" fill="rgb(0,0,0)" text-anchor="middle">9</text>
<polygon points="129.6,230.3 135.6,230.3 135.6,236.3 129.6,236.3" fill="rgb(254,254,255)"/>
<polygon points="135.6,230.3 141.6,230.3 141.6,236.3 135.6,236.3" fill="rgb(158,158,255)"/>
<polygon points="141.6,230.3 147.6,230.3 147.6,236.3 141.6,236.3" fill="rgb(122,122,255)"/>
<polygon points="147.6,230.3 153.6,230.3 153.6,236.3 147.6,236.3" fill="rgb(67,67,255)"/>
<polygon points="153.6,230.3 159.6,230.3 159.6,236.3 153.6,236.3" fill="rgb(183,183,255)"/>
<polygon points="159.6,230.3 165.6,230.3 165.6,236.3 159.6,236.3" fill="rgb(180,180,255)"/>
<polygon points="165.6,230.3 171.6,230.3 171.6,236.3 165.6,236.3" fill="rgb(255,104,104)"/>
<polygon points="171.6,230.3 177.6,230.3 177.6,236.3 171.6,236.3" fill="rgb(255,12,12)"/>
<polygon points="187.6,230.3 193.6,230.3 193.6,236.3 187.6,236.3" fill="rgb(176,176,255)"/>
<polygon points="193.6,230.3 199.6,230.3 199.6,236.3 193.6,236.3" fill="rgb(136,136,255)"/>
<polygon points="199.6,230.3 205.6,230.3 205.6,236.3 199.6,236.3" fill="rgb(91,91,255)"/>
<polygon points="205.6,230.3 211.6,230.3 211.6,236.3 205.6,236.3" fill="rgb(53,53,255)"/>
<polygon points="211.6,230.3 217.6,230.3 217.6,236.3 211.6,236.3" fill="rgb(178,178,255)"/>
<polygon points="217.6,230.3 223.6,230.3 223.6,236.3 217.6,236.3" fill="rgb(255,243,243)"/>
<polygon points="223.6,230.3 229.6,230.3 229.6,236.3 223.6,236.3" fill="rgb(255,250,250)"/>
<polygon points="229.6,230.3 235.6,230.3 235.6,236.3 229.6,236.3" fill="rgb(222,222,255)"/>
<polygon points="245.6,230.3 251.6,230.3 251.6,236.3 245.6,236.3" fill="rgb(190,190,255)"/>
<polygon points="251.6,230.3 257.6,230.3 257.6,236.3 251.6,236.3" fill="rgb(165,165,255)"/>
<polygon points="257.6,230.3 263.6,230.3 263.6,236.3 257.6,236.3" fill="rgb(105,105,255)"/>
<polygon points="263.6,230.3 269.6,230.3 269.6,236.3 263.6,236.3" fill="rgb(82,82,255)"/>
<polygon points="269.6,230.3 275.6,230.3 275.6,236.3 269.6,236.3" fill="rgb(200,200,255)"/>
<polygon points="275.6,230.3 281.6,230.3 281.6,236.3 275.6,236.3" fill="rgb(247,247,255)"/>
<polygon points="281.6,230.3 287.6,230.3 287.6,236.3 281.6,236.3" fill="rgb(255,92,92)"/>
<polygon points="287.6,230.3 293.6,230.3 293.6,236.3 287.6,236.3" fill="rgb(192,192,255)"/>
<polygon points="95.6,236.3 103.6,236.3 103.6,242.3 95.6,242.3" fill="rgb(156,207,203)"/><text xml:space="preserve" x="99.6" y="242.133" font-family="Calibri" font-size="7.5" fill="rgb(0,0,0)" text-anchor="middle">3</text>
<polygon points="103.6,236.3 111.6,236.3 111.6,242.3 103.6,242.3" fill="rgb(224,197,142)"/><text xml:space="preserve" x="107.6" y="242.133" font-family="Calibri" font-size="7.5" fill="rgb(0,0,0)" text-anchor="middle">12</text>
<polygon points="111.6,236.3 119.6,236.3 119.6,242.3 111.6,242.3" fill="rgb(236,226,203)"/><text xml:space="preserve" x="115.6" y="242.133" font-family="Calibri" font-size="7.5" fill="rgb(0,0,0)" text-anchor="middle">9</text>
<polygon points="129.6,236.3 135.6,236.3 135.6,242.3 129.6,242.3" fill="rgb(255,245,245)"/>
<polygon points="135.6,236.3 141.6,236.3 141.6,242.3 135.6,242.3" fill="rgb(180,180,255)"/>
<polygon points="141.6,236.3 147.6,236.3 147.6,242.3 141.6,242.3" fill="rgb(164,164,255)"/>
<polygon points="147.6,236.3 153.6,236.3 153.6,242.3 147.6,242.3" fill="rgb(99,99,255)"/>
<polygon points="153.6,236.3 159.6,236.3 159.6,242.3 153.6,242.3" fill="rgb(222,222,255)"/>
<polygon points="159.6,236.3 165.6,236.3 165.6,242.3 159.6,242.3" fill="rgb(221,221,255)"/>
<polygon points="165.6,236.3 171.6,236.3 171.6,242.3 165.6,242.3" fill="rgb(255,147,147)"/>
<polygon points="171.6,236.3 177.6,236.3 177.6,242.3 171.6,242.3" fill="rgb(255,65,65)"/>
<polygon points="187.6,236.3 193.6,236.3 193.6,242.3 187.6,242.3" fill="rgb(223,223,255)"/>
<polygon points="193.6,236.3 199.6,236.3 199.6,242.3 193.6,242.3" fill="rgb(189,189,255)"/>
<polygon points="199.6,236.3 205.6,236.3 205.6,242.3 199.6,242.3" fill="rgb(110,110,255)"/>
<polygon points="205.6,236.3 211.6,236.3 211.6,242.3 205.6,242.3" fill="rgb(51,51,255)"/>
<polygon points="211.6,236.3 217.6,236.3 217.6,242.3 211.6,242.3" fill="rgb(207,207,255)"/>
<polygon points="217.6,236.3 223.6,236.3 223.6,242.3 217.6,242.3" fill="rgb(255,190,190)"/>
<polygon points="223.6,236.3 229.6,236.3 229.6,242.3 223.6,242.3" fill="rgb(255,125,125)"/>
<polygon points="229.6,236.3 235.6,236.3 235.6,242.3 229.6,242.3" fill="rgb(184,184,255)"/>
<polygon points="245.6,236.3 251.6,236.3 251.6,242.3 245.6,242.3" fill="rgb(205,205,255)"/>
<polygon points="251.6,236.3 257.6,236.3 257.6,242.3 251.6,242.3" fill="rgb(121,121,255)"/>
<polygon points="257.6,236.3 263.6,236.3 263.6,242.3 257.6,242.3" fill="rgb(86,86,255)"/>
<polygon points="263.6,236.3 269.6,236.3 269.6,242.3 263.6,242.3" fill="rgb(61,61,255)"/>
<polygon points="269.6,236.3 275.6,236.3 275.6,242.3 269.6,242.3" fill="rgb(209,209,255)"/>
<polygon points="275.6,236.3 281.6,236.3 281.6,242.3 275.6,242.3" fill="rgb(242,242,255)"/>
<polygon points="281.6,236.3 287.6,236.3 287.6,242.3 281.6,242.3" fill="rgb(255,64,64)"/>
<polygon points="287.6,236.3 293.6,236.3 293.6,242.3 287.6,242.3" fill="rgb(197,197,255)"/>
<polygon points="95.6,242.3 103.6,242.3 103.6,248.3 95.6,248.3" fill="rgb(156,207,203)"/><text xml:space="preserve" x="99.6" y="248.133" font-family="Calibri" font-size="7.5" fill="rgb(0,0,0)" text-anchor="middle">3</text>
<polygon points="103.6,242.3 111.6,242.3 111.6,248.3 103.6,248.3" fill="rgb(224,197,142)"/><text xml:space="preserve" x="107.6" y="248.133" font-family="Calibri" font-size="7.5" fill="rgb(0,0,0)" text-anchor="middle">12</text>
<polygon points="111.6,242.3 119.6,242.3 119.6,248.3 111.6,248.3" fill="rgb(236,226,203)"/><text xml:space="preserve" x="115.6" y="248.133" font-family="Calibri" font-size="7.5" fill="rgb(0,0,0)" text-anchor="middle">9</text>
<polygon points="129.6,242.3 135.6,242.3 135.6,248.3 129.6,248.3" fill="rgb(221,221,255)"/>
<polygon points="135.6,242.3 141.6,242.3 141.6,248.3 135.6,248.3" fill="rgb(155,155,255)"/>
<polygon points="141.6,242.3 147.6,242.3 147.6,248.3 141.6,248.3" fill="rgb(171,171,255)"/>
<polygon points="147.6,242.3 153.6,242.3 153.6,248.3 147.6,248.3" fill="rgb(137,137,255)"/>
<polygon points="153.6,242.3 159.6,242.3 159.6,248.3 153.6,248.3" fill="rgb(210,210,255)"/>
<polygon points="159.6,242.3 165.6,242.3 165.6,248.3 159.6,248.3" fill="rgb(255,144,144)"/>
<polygon points="165.6,242.3 171.6,242.3 171.6,248.3 165.6,248.3" fill="rgb(255,130,130)"/>
<polygon points="171.6,242.3 177.6,242.3 177.6,248.3 171.6,248.3" fill="rgb(255,248,248)"/>
<polygon points="187.6,242.3 193.6,242.3 193.6,248.3 187.6,248.3" fill="rgb(187,187,255)"/>
<polygon points="193.6,242.3 199.6,242.3 199.6,248.3 193.6,248.3" fill="rgb(153,153,255)"/>
<polygon points="199.6,242.3 205.6,242.3 205.6,248.3 199.6,248.3" fill="rgb(131,131,255)"/>
<polygon points="205.6,242.3 211.6,242.3 211.6,248.3 205.6,248.3" fill="rgb(115,115,255)"/>
<polygon points="211.6,242.3 217.6,242.3 217.6,248.3 211.6,248.3" fill="rgb(175,175,255)"/>
<polygon points="217.6,242.3 223.6,242.3 223.6,248.3 217.6,248.3" fill="rgb(255,106,106)"/>
<polygon points="223.6,242.3 229.6,242.3 229.6,248.3 223.6,248.3" fill="rgb(255,222,222)"/>
<polygon points="229.6,242.3 235.6,242.3 235.6,248.3 229.6,248.3" fill="rgb(237,237,255)"/>
<polygon points="245.6,242.3 251.6,242.3 251.6,248.3 245.6,248.3" fill="rgb(139,139,255)"/>
<polygon points="251.6,242.3 257.6,242.3 257.6,248.3 251.6,248.3" fill="rgb(99,99,255)"/>
<polygon points="257.6,242.3 263.6,242.3 263.6,248.3 257.6,248.3" fill="rgb(162,162,255)"/>
<polygon points="263.6,242.3 269.6,242.3 269.6,248.3 263.6,248.3" fill="rgb(71,71,255)"/>
<polygon points="269.6,242.3 275.6,242.3 275.6,248.3 269.6,248.3" fill="rgb(172,172,255)"/>
<polygon points="275.6,242.3 281.6,242.3 281.6,248.3 275.6,248.3" fill="rgb(255,153,153)"/>
<polygon points="281.6,242.3 287.6,242.3 287.6,248.3 281.6,248.3" fill="rgb(255,160,160)"/>
<polygon points="287.6,242.3 293.6,242.3 293.6,248.3 287.6,248.3" fill="rgb(177,177,255)"/>
<polygon points="95.6,248.3 103.6,248.3 103.6,254.3 95.6,254.3" fill="rgb(156,207,203)"/><text xml:space="preserve" x="99.6" y="254.133" font-family="Calibri" font-size="7.5" fill="rgb(0,0,0)" text-anchor="middle">3</text>
<polygon points="103.6,248.3 111.6,248.3 111.6,254.3 103.6,254.3" fill="rgb(224,197,142)"/><text xml:space="preserve" x="107.6" y="254.133" font-family="Calibri" font-size="7.5" fill="rgb(0,0,0)" text-anchor="middle">12</text>
<polygon points="111.6,248.3 119.6,248.3 119.6,254.3 111.6,254.3" fill="rgb(236,226,203)"/><text xml:space="preserve" x="115.6" y="254.133" font-family="Calibri" font-size="7.5" fill="rgb(0,0,0)" text-anchor="middle">9</text>
<polygon points="129.6,248.3 135.6,248.3 135.6,254.3 129.6,254.3" fill="rgb(255,212,212)"/>
<polygon points="135.6,248.3 141.6,248.3 141.6,254.3 135.6,254.3" fill="rgb(197,197,255)"/>
<polygon points="141.6,248.3 147.6,248.3 147.6,254.3 141.6,254.3" fill="rgb(104,104,255)"/>
<polygon points="147.6,248.3 153.6,248.3 153.6,254.3 147.6,254.3" fill="rgb(164,164,255)"/>
<polygon points="153.6,248.3 159.6,248.3 159.6,254.3 153.6,254.3" fill="rgb(202,202,255)"/>
<polygon points="159.6,248.3 165.6,248.3 165.6,254.3 159.6,254.3" fill="rgb(100,100,255)"/>
<polygon points="165.6,248.3 171.6,248.3 171.6,254.3 165.6,254.3" fill="rgb(255,112,112)"/>
<polygon points="171.6,248.3 177.6,248.3 177.6,254.3 171.6,254.3" fill="rgb(255,0,0)"/>
<polygon points="187.6,248.3 193.6,248.3 193.6,254.3 187.6,254.3" fill="rgb(180,180,255)"/>
<polygon points="193.6,248.3 199.6,248.3 199.6,254.3 193.6,254.3" fill="rgb(165,165,255)"/>
<polygon points="199.6,248.3 205.6,248.3 205.6,254.3 199.6,254.3" fill="rgb(108,108,255)"/>
<polygon points="205.6,248.3 211.6,248.3 211.6,254.3 205.6,254.3" fill="rgb(117,117,255)"/>
<polygon points="211.6,248.3 217.6,248.3 217.6,254.3 211.6,254.3" fill="rgb(185,185,255)"/>
<polygon points="217.6,248.3 223.6,248.3 223.6,254.3 217.6,254.3" fill="rgb(255,221,221)"/>
<polygon points="223.6,248.3 229.6,248.3 229.6,254.3 223.6,254.3" fill="rgb(251,251,255)"/>
<polygon points="229.6,248.3 235.6,248.3 235.6,254.3 229.6,254.3" fill="rgb(250,250,255)"/>
<polygon points="245.6,248.3 251.6,248.3 251.6,254.3 245.6,254.3" fill="rgb(219,219,255)"/>
<polygon points="251.6,248.3 257.6,248.3 257.6,254.3 251.6,254.3" fill="rgb(145,145,255)"/>
<polygon points="257.6,248.3 263.6,248.3 263.6,254.3 257.6,254.3" fill="rgb(149,149,255)"/>
<polygon points="263.6,248.3 269.6,248.3 269.6,254.3 263.6,254.3" fill="rgb(96,96,255)"/>
<polygon points="269.6,248.3 275.6,248.3 275.6,254.3 269.6,254.3" fill="rgb(200,200,255)"/>
<polygon points="275.6,248.3 281.6,248.3 281.6,254.3 275.6,254.3" fill="rgb(254,231,231)"/>
<polygon points="281.6,248.3 287.6,248.3 287.6,254.3 281.6,254.3" fill="rgb(255,32,32)"/>
<polygon points="287.6,248.3 293.6,248.3 293.6,254.3 287.6,254.3" fill="rgb(151,151,255)"/>
<polygon points="95.6,254.3 103.6,254.3 103.6,260.3 95.6,260.3" fill="rgb(156,207,203)"/><text xml:space="preserve" x="99.6" y="260.133" font-family="Calibri" font-size="7.5" fill="rgb(0,0,0)" text-anchor="middle">3</text>
<polygon points="103.6,254.3 111.6,254.3 111.6,260.3 103.6,260.3" fill="rgb(224,197,142)"/><text xml:space="preserve" x="107.6" y="260.133" font-family="Calibri" font-size="7.5" fill="rgb(0,0,0)" text-anchor="middle">12</text>
<polygon points="111.6,254.3 119.6,254.3 119.6,260.3 111.6,260.3" fill="rgb(236,226,203)"/><text xml:space="preserve" x="115.6" y="260.133" font-family="Calibri" font-size="7.5" fill="rgb(0,0,0)" text-anchor="middle">9</text>
<polygon points="129.6,254.3 135.6,254.3 135.6,260.3 129.6,260.3" fill="rgb(238,238,255)"/>
<polygon points="135.6,254.3 141.6,254.3 141.6,260.3 135.6,260.3" fill="rgb(172,172,255)"/>
<polygon points="141.6,254.3 147.6,254.3 147.6,260.3 141.6,260.3" fill="rgb(128,128,255)"/>
<polygon points="147.6,254.3 153.6,254.3 153.6,260.3 147.6,260.3" fill="rgb(81,81,255)"/>
<polygon points="153.6,254.3 159.6,254.3 159.6,260.3 153.6,260.3" fill="rgb(148,148,255)"/>
<polygon points="159.6,254.3 165.6,254.3 165.6,260.3 159.6,260.3" fill="rgb(85,85,255)"/>
<polygon points="165.6,254.3 171.6,254.3 171.6,260.3 165.6,260.3" fill="rgb(255,226,226)"/>
<polygon points="171.6,254.3 177.6,254.3 177.6,260.3 171.6,260.3" fill="rgb(255,85,85)"/>
<polygon points="187.6,254.3 193.6,254.3 193.6,260.3 187.6,260.3" fill="rgb(219,219,255)"/>
<polygon points="193.6,254.3 199.6,254.3 199.6,260.3 193.6,260.3" fill="rgb(159,159,255)"/>
<polygon points="199.6,254.3 205.6,254.3 205.6,260.3 199.6,260.3" fill="rgb(117,117,255)"/>
<polygon points="205.6,254.3 211.6,254.3 211.6,260.3 205.6,260.3" fill="rgb(72,72,255)"/>
<polygon points="211.6,254.3 217.6,254.3 217.6,260.3 211.6,260.3" fill="rgb(155,155,255)"/>
<polygon points="217.6,254.3 223.6,254.3 223.6,260.3 217.6,260.3" fill="rgb(255,207,207)"/>
<polygon points="223.6,254.3 229.6,254.3 229.6,260.3 223.6,260.3" fill="rgb(255,227,227)"/>
<polygon points="229.6,254.3 235.6,254.3 235.6,260.3 229.6,260.3" fill="rgb(254,208,208)"/>
<polygon points="245.6,254.3 251.6,254.3 251.6,260.3 245.6,260.3" fill="rgb(194,194,255)"/>
<polygon points="251.6,254.3 257.6,254.3 257.6,260.3 251.6,260.3" fill="rgb(160,160,255)"/>
<polygon points="257.6,254.3 263.6,254.3 263.6,260.3 257.6,260.3" fill="rgb(123,123,255)"/>
<polygon points="263.6,254.3 269.6,254.3 269.6,260.3 263.6,260.3" fill="rgb(74,74,255)"/>
<polygon points="269.6,254.3 275.6,254.3 275.6,260.3 269.6,260.3" fill="rgb(177,177,255)"/>
<polygon points="275.6,254.3 281.6,254.3 281.6,260.3 275.6,260.3" fill="rgb(187,187,255)"/>
<polygon points="281.6,254.3 287.6,254.3 287.6,260.3 281.6,260.3" fill="rgb(255,60,60)"/>
<polygon points="287.6,254.3 293.6,254.3 293.6,260.3 287.6,260.3" fill="rgb(137,137,255)"/>
<polygon points="95.6,260.3 103.6,260.3 103.6,266.3 95.6,266.3" fill="rgb(156,207,203)"/><text xml:space="preserve" x="99.6" y="266.133" font-family="Calibri" font-size="7.5" fill="rgb(0,0,0)" text-anchor="middle">3</text>
<polygon points="103.6,260.3 111.6,260.3 111.6,266.3 103.6,266.3" fill="rgb(224,197,142)"/><text xml:space="preserve" x="107.6" y="266.133" font-family="Calibri" font-size="7.5" fill="rgb(0,0,0)" text-anchor="middle">12</text>
<polygon points="111.6,260.3 119.6,260.3 119.6,266.3 111.6,266.3" fill="rgb(236,226,203)"/><text xml:space="preserve" x="115.6" y="266.133" font-family="Calibri" font-size="7.5" fill="rgb(0,0,0)" text-anchor="middle">9</text>
<polygon points="129.6,260.3 135.6,260.3 135.6,266.3 129.6,266.3" fill="rgb(218,218,255)"/>
<polygon points="135.6,260.3 141.6,260.3 141.6,266.3 135.6,266.3" fill="rgb(120,120,255)"/>
<polygon points="141.6,260.3 147.6,260.3 147.6,266.3 141.6,266.3" fill="rgb(47,47,255)"/>
<polygon points="147.6,260.3 153.6,260.3 153.6,266.3 147.6,266.3" fill="rgb(72,72,255)"/>
<polygon points="153.6,260.3 159.6,260.3 159.6,266.3 153.6,266.3" fill="rgb(134,134,255)"/>
<polygon points="159.6,260.3 165.6,260.3 165.6,266.3 159.6,266.3" fill="rgb(9,9,255)"/>
<polygon points="165.6,260.3 171.6,260.3 171.6,266.3 165.6,266.3" fill="rgb(255,209,209)"/>
<polygon points="171.6,260.3 177.6,260.3 177.6,266.3 171.6,266.3" fill="rgb(255,10,10)"/>
<polygon points="187.6,260.3 193.6,260.3 193.6,266.3 187.6,266.3" fill="rgb(179,179,255)"/>
<polygon points="193.6,260.3 199.6,260.3 199.6,266.3 193.6,266.3" fill="rgb(162,162,255)"/>
<polygon points="199.6,260.3 205.6,260.3 205.6,266.3 199.6,266.3" fill="rgb(181,181,255)"/>
<polygon points="205.6,260.3 211.6,260.3 211.6,266.3 205.6,266.3" fill="rgb(84,84,255)"/>
<polygon points="211.6,260.3 217.6,260.3 217.6,266.3 211.6,266.3" fill="rgb(159,159,255)"/>
<polygon points="217.6,260.3 223.6,260.3 223.6,266.3 217.6,266.3" fill="rgb(254,244,244)"/>
<polygon points="223.6,260.3 229.6,260.3 229.6,266.3 223.6,266.3" fill="rgb(255,206,206)"/>
<polygon points="229.6,260.3 235.6,260.3 235.6,266.3 229.6,266.3" fill="rgb(200,200,255)"/>
<polygon points="245.6,260.3 251.6,260.3 251.6,266.3 245.6,266.3" fill="rgb(180,180,255)"/>
<polygon points="251.6,260.3 257.6,260.3 257.6,266.3 251.6,266.3" fill="rgb(147,147,255)"/>
<polygon points="257.6,260.3 263.6,260.3 263.6,266.3 257.6,266.3" fill="rgb(113,113,255)"/>
<polygon points="263.6,260.3 269.6,260.3 269.6,266.3 263.6,266.3" fill="rgb(67,67,255)"/>
<polygon points="269.6,260.3 275.6,260.3 275.6,266.3 269.6,266.3" fill="rgb(162,162,255)"/>
<polygon points="275.6,260.3 281.6,260.3 281.6,266.3 275.6,266.3" fill="rgb(255,254,254)"/>
<polygon points="281.6,260.3 287.6,260.3 287.6,266.3 281.6,266.3" fill="rgb(255,122,122)"/>
<polygon points="287.6,260.3 293.6,260.3 293.6,266.3 287.6,266.3" fill="rgb(170,170,255)"/>
<polygon points="95.6,266.3 103.6,266.3 103.6,272.3 95.6,272.3" fill="rgb(156,207,203)"/><text xml:space="preserve" x="99.6" y="272.133" font-family="Calibri" font-size="7.5" fill="rgb(0,0,0)" text-anchor="middle">3</text>
<polygon points="103.6,266.3 111.6,266.3 111.6,272.3 103.6,272.3" fill="rgb(224,197,142)"/><text xml:space="preserve" x="107.6" y="272.133" font-family="Calibri" font-size="7.5" fill="rgb(0,0,0)" text-anchor="middle">12</text>
<polygon points="111.6,266.3 119.6,266.3 119.6,272.3 111.6,272.3" fill="rgb(236,226,203)"/><text xml:space="preserve" x="115.6" y="272.133" font-family="Calibri" font-size="7.5" fill="rgb(0,0,0)" text-anchor="middle">9</text>
<polygon points="129.6,266.3 135.6,266.3 135.6,272.3 129.6,272.3" fill="rgb(255,225,225)"/>
<polygon points="135.6,266.3 141.6,266.3 141.6,272.3 135.6,272.3" fill="rgb(172,172,255)"/>
<polygon points="141.6,266.3 147.6,266.3 147.6,272.3 141.6,272.3" fill="rgb(158,158,255)"/>
<polygon points="147.6,266.3 153.6,266.3 153.6,272.3 147.6,272.3" fill="rgb(79,79,255)"/>
<polygon points="153.6,266.3 159.6,266.3 159.6,272.3 153.6,272.3" fill="rgb(187,187,255)"/>
<polygon points="159.6,266.3 165.6,266.3 165.6,272.3 159.6,272.3" fill="rgb(199,199,255)"/>
<polygon points="165.6,266.3 171.6,266.3 171.6,272.3 165.6,272.3" fill="rgb(255,56,56)"/>
<polygon points="171.6,266.3 177.6,266.3 177.6,272.3 171.6,272.3" fill="rgb(255,0,0)"/>
<polygon points="187.6,266.3 193.6,266.3 193.6,272.3 187.6,272.3" fill="rgb(207,207,255)"/>
<polygon points="193.6,266.3 199.6,266.3 199.6,272.3 193.6,272.3" fill="rgb(165,165,255)"/>
<polygon points="199.6,266.3 205.6,266.3 205.6,272.3 199.6,272.3" fill="rgb(96,96,255)"/>
<polygon points="205.6,266.3 211.6,266.3 211.6,272.3 205.6,272.3" fill="rgb(61,61,255)"/>
<polygon points="211.6,266.3 217.6,266.3 217.6,272.3 211.6,272.3" fill="rgb(187,187,255)"/>
<polygon points="217.6,266.3 223.6,266.3 223.6,272.3 217.6,272.3" fill="rgb(255,166,166)"/>
<polygon points="223.6,266.3 229.6,266.3 229.6,272.3 223.6,272.3" fill="rgb(255,171,171)"/>
<polygon points="229.6,266.3 235.6,266.3 235.6,272.3 229.6,272.3" fill="rgb(215,215,255)"/>
<polygon points="245.6,266.3 251.6,266.3 251.6,272.3 245.6,272.3" fill="rgb(197,197,255)"/>
<polygon points="251.6,266.3 257.6,266.3 257.6,272.3 251.6,272.3" fill="rgb(169,169,255)"/>
<polygon points="257.6,266.3 263.6,266.3 263.6,272.3 257.6,272.3" fill="rgb(95,95,255)"/>
<polygon points="263.6,266.3 269.6,266.3 269.6,272.3 263.6,272.3" fill="rgb(75,75,255)"/>
<polygon points="269.6,266.3 275.6,266.3 275.6,272.3 269.6,272.3" fill="rgb(215,215,255)"/>
<polygon points="275.6,266.3 281.6,266.3 281.6,272.3 275.6,272.3" fill="rgb(232,232,255)"/>
<polygon points="281.6,266.3 287.6,266.3 287.6,272.3 281.6,272.3" fill="rgb(255,59,59)"/>
<polygon points="287.6,266.3 293.6,266.3 293.6,272.3 287.6,272.3" fill="rgb(223,223,255)"/>
<polygon points="95.6,212.3 119.6,212.3 119.6,272.3 95.6,272.3" fill="none" stroke="black" stroke-width="1"/>
<polygon points="129.6,212.3 177.6,212.3 177.6,272.3 129.6,272.3" fill="none" stroke="black" stroke-width="1"/>
<polygon points="187.6,212.3 235.6,212.3 235.6,272.3 187.6,272.3" fill="none" stroke="black" stroke-width="1"/>
<polygon points="245.6,212.3 293.6,212.3 293.6,272.3 245.6,272.3" fill="none" stroke="black" stroke-width="1"/>
<text xml:space="preserve" x="167.8" y="304.633" font-family="Calibri" font-size="6" text-anchor="middle">moduleID</text>
<polygon points="57.8,312.3 77.8,312.3 77.8,332.3 57.8,332.3" fill="rgb(250,250,250)"/><polygon points="57.8,312.3 77.8,312.3 77.8,332.3 57.8,332.3" fill="none" stroke="black" stroke-width="1"/><text xml:space="preserve" x="67.8" y="325.133" font-family="Calibri" font-size="7.5" fill="rgb(0,0,0)" text-anchor="middle">-2.0</text>
<polygon points="77.8,312.3 97.8,312.3 97.8,332.3 77.8,332.3" fill="rgb(156,210,205)"/><polygon points="77.8,312.3 97.8,312.3 97.8,332.3 77.8,332.3" fill="none" stroke="black" stroke-width="1"/><text xml:space="preserve" x="87.8" y="325.133" font-family="Calibri" font-size="7.5" fill="rgb(0,0,0)" text-anchor="middle">-0.4</text>
<polygon points="97.8,312.3 117.8,312.3 117.8,332.3 97.8,332.3" fill="rgb(116,191,184)"/><polygon points="97.8,312.3 117.8,312.3 117.8,332.3 97.8,332.3" fill="none" stroke="black" stroke-width="1"/><text xml:space="preserve" x="107.8" y="325.133" font-family="Calibri" font-size="7.5" fill="rgb(0,0,0)" text-anchor="middle">1.2</text>
<polygon points="117.8,312.3 137.8,312.3 137.8,332.3 117.8,332.3" fill="rgb(152,206,201)"/><polygon points="117.8,312.3 137.8,312.3 137.8,332.3 117.8,332.3" fill="none" stroke="black" stroke-width="1"/><text xml:space="preserve" x="127.8" y="325.133" font-family="Calibri" font-size="7.5" fill="rgb(0,0,0)" text-anchor="middle">2.8</text>
<polygon points="137.8,312.3 157.8,312.3 157.8,332.3 137.8,332.3" fill="rgb(187,220,217)"/><polygon points="137.8,312.3 157.8,312.3 157.8,332.3 137.8,332.3" fill="none" stroke="black" stroke-width="1"/><text xml:space="preserve" x="147.8" y="325.133" font-family="Calibri" font-size="7.5" fill="rgb(0,0,0)" text-anchor="middle">4.4</text>
<polygon points="157.8,312.3 177.8,312.3 177.8,332.3 157.8,332.3" fill="rgb(222,235,234)"/><polygon points="157.8,312.3 177.8,312.3 177.8,332.3 157.8,332.3" fill="none" stroke="black" stroke-width="1"/><text xml:space="preserve" x="167.8" y="325.133" font-family="Calibri" font-size="7.5" fill="rgb(0,0,0)" text-anchor="middle">6.0</text>
<polygon points="177.8,312.3 197.8,312.3 197.8,332.3 177.8,332.3" fill="rgb(242,239,232)"/><polygon points="177.8,312.3 197.8,312.3 197.8,332.3 177.8,332.3" fill="none" stroke="black" stroke-width="1"/><text xml:space="preserve" x="187.8" y="325.133" font-family="Calibri" font-size="7.5" fill="rgb(0,0,0)" text-anchor="middle">7.6</text>
<polygon points="197.8,312.3 217.8,312.3 217.8,332.3 197.8,332.3" fill="rgb(235,224,199)"/><polygon points="197.8,312.3 217.8,312.3 217.8,332.3 197.8,332.3" fill="none" stroke="black" stroke-width="1"/><text xml:space="preserve" x="207.8" y="325.133" font-family="Calibri" font-size="7.5" fill="rgb(0,0,0)" text-anchor="middle">9.2</text>
<polygon points="217.8,312.3 237.8,312.3 237.8,332.3 217.8,332.3" fill="rgb(229,209,166)"/><polygon points="217.8,312.3 237.8,312.3 237.8,332.3 217.8,332.3" fill="none" stroke="black" stroke-width="1"/><text xml:space="preserve" x="227.8" y="325.133" font-family="Calibri" font-size="7.5" fill="rgb(0,0,0)" text-anchor="middle">10.8</text>
<polygon points="237.8,312.3 257.8,312.3 257.8,332.3 237.8,332.3" fill="rgb(222,194,133)"/><polygon points="237.8,312.3 257.8,312.3 257.8,332.3 237.8,332.3" fill="none" stroke="black" stroke-width="1"/><text xml:space="preserve" x="247.8" y="325.133" font-family="Calibri" font-size="7.5" fill="rgb(0,0,0)" text-anchor="middle">12.4</text>
<polygon points="257.8,312.3 277.8,312.3 277.8,332.3 257.8,332.3" fill="rgb(216,179,101)"/><polygon points="257.8,312.3 277.8,312.3 277.8,332.3 257.8,332.3" fill="none" stroke="black" stroke-width="1"/><text xml:space="preserve" x="267.8" y="325.133" font-family="Calibri" font-size="7.5" fill="rgb(0,0,0)" text-anchor="middle">14.0</text>
<text xml:space="preserve" x="167.8" y="364.633" font-family="Calibri" font-size="6" text-anchor="middle">marklevel</text>
<polygon points="57.8,372.3 77.8,372.3 77.8,392.3 57.8,392.3" fill="rgb(0,0,255)"/><polygon points="57.8,372.3 77.8,372.3 77.8,392.3 57.8,392.3" fill="none" stroke="black" stroke-width="1"/><text xml:space="preserve" x="67.8" y="385.133" font-family="Calibri" font-size="7.5" fill="rgb(255,255,255)" text-anchor="middle">-2.0</text>
<polygon points="77.8,372.3 97.8,372.3 97.8,392.3 77.8,392.3" fill="rgb(50,50,255)"/><polygon points="77.8,372.3 97.8,372.3 97.8,392.3 77.8,392.3" fill="none" stroke="black" stroke-width="1"/><text xml:space="preserve" x="87.8" y="385.133" font-family="Calibri" font-size="7.5" fill="rgb(255,255,255)" text-anchor="middle">-1.6</text>
<polygon points="97.8,372.3 117.8,372.3 117.8,392.3 97.8,392.3" fill="rgb(102,102,255)"/><polygon points="97.8,372.3 117.8,372.3 117.8,392.3 97.8,392.3" fill="none" stroke="black" stroke-width="1"/><text xml:space="preserve" x="107.8" y="385.133" font-family="Calibri" font-size="7.5" fill="rgb(255,255,255)" text-anchor="middle">-1.2</text>
<polygon points="117.8,372.3 137.8,372.3 137.8,392.3 117.8,392.3" fill="rgb(153,153,255)"/><polygon points="117.8,372.3 137.8,372.3 137.8,392.3 117.8,392.3" fill="none" stroke="black" stroke-width="1"/><text xml:space="preserve" x="127.8" y="385.133" font-family="Calibri" font-size="7.5" fill="rgb(0,0,0)" text-anchor="middle">-0.8</text>
<polygon points="137.8,372.3 157.8,372.3 157.8,392.3 137.8,392.3" fill="rgb(204,204,255)"/><polygon points="137.8,372.3 157.8,372.3 157.8,392.3 137.8,392.3" fill="none" stroke="black" stroke-width="1"/><text xml:space="preserve" x="147.8" y="385.133" font-family="Calibri" font-size="7.5" fill="rgb(0,0,0)" text-anchor="middle">-0.4</text>
<polygon points="157.8,372.3 177.8,372.3 177.8,392.3 157.8,392.3" fill="rgb(255,255,255)"/><polygon points="157.8,372.3 177.8,372.3 177.8,392.3 157.8,392.3" fill="none" stroke="black" stroke-width="1"/><text xml:space="preserve" x="167.8" y="385.133" font-family="Calibri" font-size="7.5" fill="rgb(0,0,0)" text-anchor="middle">0.0</text>
<polygon points="177.8,372.3 197.8,372.3 197.8,392.3 177.8,392.3" fill="rgb(255,204,204)"/><polygon points="177.8,372.3 197.8,372.3 197.8,392.3 177.8,392.3" fill="none" stroke="black" stroke-width="1"/><text xml:space="preserve" x="187.8" y="385.133" font-family="Calibri" font-size="7.5" fill="rgb(0,0,0)" text-anchor="middle">0.4</text>
<polygon points="197.8,372.3 217.8,372.3 217.8,392.3 197.8,392.3" fill="rgb(255,153,153)"/><polygon points="197.8,372.3 217.8,372.3 217.8,392.3 197.8,392.3" fill="none" stroke="black" stroke-width="1"/><text xml:space="preserve" x="207.8" y="385.133" font-family="Calibri" font-size="7.5" fill="rgb(0,0,0)" text-anchor="middle">0.8</text>
<polygon points="217.8,372.3 237.8,372.3 237.8,392.3 217.8,392.3" fill="rgb(255,102,102)"/><polygon points="217.8,372.3 237.8,372.3 237.8,392.3 217.8,392.3" fill="none" stroke="black" stroke-width="1"/><text xml:space="preserve" x="227.8" y="385.133" font-family="Calibri" font-size="7.5" fill="rgb(0,0,0)" text-anchor="middle">1.2</text>
<polygon points="237.8,372.3 257.8,372.3 257.8,392.3 237.8,392.3" fill="rgb(255,50,50)"/><polygon points="237.8,372.3 257.8,372.3 257.8,392.3 237.8,392.3" fill="none" stroke="black" stroke-width="1"/><text xml:space="preserve" x="247.8" y="385.133" font-family="Calibri" font-size="7.5" fill="rgb(255,255,255)" text-anchor="middle">1.6</text>
<polygon points="257.8,372.3 277.8,372.3 277.8,392.3 257.8,392.3" fill="rgb(255,0,0)"/><polygon points="257.8,372.3 277.8,372.3 277.8,392.3 257.8,392.3" fill="none" stroke="black" stroke-width="1"/><text xml:space="preserve" x="267.8" y="385.133" font-family="Calibri" font-size="7.5" fill="rgb(255,255,255)" text-anchor="middle">2.0</text>
</svg>
