<?xml version="1.0" standalone="no"?><!DOCTYPE svg PUBLIC "-//W3C//DTD SVG 1.1//EN" "http://www.w3.org/Graphics/SVG/1.1/DTD/svg11.dtd">
<svg width="401.6" height="430.3" version="1.1" xmlns="http://www.w3.org/2000/svg">
<text xml:space="preserve" x="157.6" y="217.633" font-family="Calibri" font-size="6" text-anchor="end">0610040J01Rik</text>
<text xml:space="preserve" x="157.6" y="223.633" font-family="Calibri" font-size="6" text-anchor="end">Prok2</text>
<text xml:space="preserve" x="157.6" y="229.633" font-family="Calibri" font-size="6" text-anchor="end">Rbm35a</text>
<text xml:space="preserve" x="157.6" y="235.633" font-family="Calibri" font-size="6" text-anchor="end">Olig3</text>
<text xml:space="preserve" x="157.6" y="241.633" font-family="Calibri" font-size="6" text-anchor="end">Ocln</text>
<text xml:space="preserve" x="157.6" y="247.633" font-family="Calibri" font-size="6" text-anchor="end">Cadps2</text>
<text xml:space="preserve" x="157.6" y="253.633" font-family="Calibri" font-size="6" text-anchor="end">Gfi1b</text>
<text xml:space="preserve" x="157.6" y="259.633" font-family="Calibri" font-size="6" text-anchor="end">Hoxb13</text>
<text xml:space="preserve" x="157.6" y="265.633" font-family="Calibri" font-size="6" text-anchor="end">Npy</text>
<text xml:space="preserve" x="157.6" y="271.633" font-family="Calibri" font-size="6" text-anchor="end">mmu-mir-9-2</text>
<text xml:space="preserve" x="157.6" y="277.633" font-family="Calibri" font-size="6" text-anchor="end">Tmem45b</text>
<text xml:space="preserve" x="157.6" y="283.633" font-family="Calibri" font-size="6" text-anchor="end">Mal</text>
<text xml:space="preserve" x="157.6" y="289.633" font-family="Calibri" font-size="6" text-anchor="end">D830007B15Rik</text>
<text xml:space="preserve" x="167.933" y="208.3" font-family="Calibri" font-size="6" transform="rotate(270 167.933 208.3)">ips</text>
<text xml:space="preserve" x="175.933" y="208.3" font-family="Calibri" font-size="6" transform="rotate(270 175.933 208.3)">pips</text>
<text xml:space="preserve" x="183.933" y="208.3" font-family="Calibri" font-size="6" transform="rotate(270 183.933 208.3)">mef</text>
<text xml:space="preserve" x="200.933" y="208.3" font-family="Calibri" font-size="6" transform="rotate(270 200.933 208.3)">ips_H3K4me3iPS</text>
<text xml:space="preserve" x="206.933" y="208.3" font-family="Calibri" font-size="6" transform="rotate(270 206.933 208.3)">ips_H3K9aciPS</text>
<text xml:space="preserve" x="212.933" y="208.3" font-family="Calibri" font-size="6" transform="rotate(270 212.933 208.3)">ips_H3K14aciPS</text>
<text xml:space="preserve" x="218.933" y="208.3" font-family="Calibri" font-size="6" transform="rotate(270 218.933 208.3)">ips_H3K18aciPS</text>
<text xml:space="preserve" x="224.933" y="208.3" font-family="Calibri" font-size="6" transform="rotate(270 224.933 208.3)">ips_H3K79me2iPS</text>
<text xml:space="preserve" x="230.933" y="208.3" font-family="Calibri" font-size="6" transform="rotate(270 230.933 208.3)">ips_H3K9me2iPS</text>
<text xml:space="preserve" x="236.933" y="208.3" font-family="Calibri" font-size="6" transform="rotate(270 236.933 208.3)">ips_H3K9me3iPS</text>
<text xml:space="preserve" x="242.933" y="208.3" font-family="Calibri" font-size="6" transform="rotate(270 242.933 208.3)">ips_H3K27me3iPS</text>
<text xml:space="preserve" x="258.933" y="208.3" font-family="Calibri" font-size="6" transform="rotate(270 258.933 208.3)">pips_H3K4me3pips</text>
<text xml:space="preserve" x="264.933" y="208.3" font-family="Calibri" font-size="6" transform="rotate(270 264.933 208.3)">pips_H3K9acpips</text>
<text xml:space="preserve" x="270.933" y="208.3" font-family="Calibri" font-size="6" transform="rotate(270 270.933 208.3)">pips_H3K14acpips</text>
<text xml:space="preserve" x="276.933" y="208.3" font-family="Calibri" font-size="6" transform="rotate(270 276.933 208.3)">pips_H3K18acpips</text>
<text xml:space="preserve" x="282.933" y="208.3" font-family="Calibri" font-size="6" transform="rotate(270 282.933 208.3)">pips_H3K79me2pips</text>
<text xml:space="preserve" x="288.933" y="208.3" font-family="Calibri" font-size="6" transform="rotate(270 288.933 208.3)">pips_H3K9me2pips</text>
<text xml:space="preserve" x="294.933" y="208.3" font-family="Calibri" font-size="6" transform="rotate(270 294.933 208.3)">pips_H3K9me3pips</text>
<text xml:space="preserve" x="300.933" y="208.3" font-family="Calibri" font-size="6" transform="rotate(270 300.933 208.3)">pips_H3K27me3pips</text>
<text xml:space="preserve" x="316.933" y="208.3" font-family="Calibri" font-size="6" transform="rotate(270 316.933 208.3)">mef_H3K4me3mef</text>
<text xml:space="preserve" x="322.933" y="208.3" font-family="Calibri" font-size="6" transform="rotate(270 322.933 208.3)">mef_H3K9acmef</text>
<text xml:space="preserve" x="328.933" y="208.3" font-family="Calibri" font-size="6" transform="rotate(270 328.933 208.3)">mef_H3K14acmef</text>
<text xml:space="preserve" x="334.933" y="208.3" font-family="Calibri" font-size="6" transform="rotate(270 334.933 208.3)">mef_H3K18acmef</text>
<text xml:space="preserve" x="340.933" y="208.3" font-family="Calibri" font-size="6" transform="rotate(270 340.933 208.3)">mef_H3K79me2mef</text>
<text xml:space="preserve" x="346.933" y="208.3" font-family="Calibri" font-size="6" transform="rotate(270 346.933 208.3)">mef_H3K9me2mef</text>
<text xml:space="preserve" x="352.933" y="208.3" font-family="Calibri" font-size="6" transform="rotate(270 352.933 208.3)">mef_H3K9me3mef</text>
<text xml:space="preserve" x="358.933" y="208.3" font-family="Calibri" font-size="6" transform="rotate(270 358.933 208.3)">mef_H3K27me3mef</text>
<polygon points="161.6,212.3 169.6,212.3 169.6,218.3 161.6,218.3" fill="rgb(228,207,162)"/><text xml:space="preserve" x="165.6" y="218.133" font-family="Calibri" font-size="7.5" fill="rgb(0,0,0)" text-anchor="middle">11</text>
<polygon points="169.6,212.3 177.6,212.3 177.6,218.3 169.6,218.3" fill="rgb(216,179,101)"/><text xml:space="preserve" x="173.6" y="218.133" font-family="Calibri" font-size="7.5" fill="rgb(0,0,0)" text-anchor="middle">14</text>
<polygon points="177.6,212.3 185.6,212.3 185.6,218.3 177.6,218.3" fill="rgb(156,207,203)"/><text xml:space="preserve" x="181.6" y="218.133" font-family="Calibri" font-size="7.5" fill="rgb(0,0,0)" text-anchor="middle">3</text>
<polygon points="195.6,212.3 201.6,212.3 201.6,218.3 195.6,218.3" fill="rgb(255,238,238)"/>
<polygon points="201.6,212.3 207.6,212.3 207.6,218.3 201.6,218.3" fill="rgb(182,182,255)"/>
<polygon points="207.6,212.3 213.6,212.3 213.6,218.3 207.6,218.3" fill="rgb(218,218,255)"/>
<polygon points="213.6,212.3 219.6,212.3 219.6,218.3 213.6,218.3" fill="rgb(175,175,255)"/>
<polygon points="219.6,212.3 225.6,212.3 225.6,218.3 219.6,218.3" fill="rgb(176,176,255)"/>
<polygon points="225.6,212.3 231.6,212.3 231.6,218.3 225.6,218.3" fill="rgb(254,254,254)"/>
<polygon points="231.6,212.3 237.6,212.3 237.6,218.3 231.6,218.3" fill="rgb(255,57,57)"/>
<polygon points="237.6,212.3 243.6,212.3 243.6,218.3 237.6,218.3" fill="rgb(255,0,0)"/>
<polygon points="253.6,212.3 259.6,212.3 259.6,218.3 253.6,218.3" fill="rgb(255,226,226)"/>
<polygon points="259.6,212.3 265.6,212.3 265.6,218.3 259.6,218.3" fill="rgb(255,178,178)"/>
<polygon points="265.6,212.3 271.6,212.3 271.6,218.3 265.6,218.3" fill="rgb(255,186,186)"/>
<polygon points="271.6,212.3 277.6,212.3 277.6,218.3 271.6,218.3" fill="rgb(255,201,201)"/>
<polygon points="277.6,212.3 283.6,212.3 283.6,218.3 277.6,218.3" fill="rgb(255,174,174)"/>
<polygon points="283.6,212.3 289.6,212.3 289.6,218.3 283.6,218.3" fill="rgb(208,208,255)"/>
<polygon points="289.6,212.3 295.6,212.3 295.6,218.3 289.6,218.3" fill="rgb(255,135,135)"/>
<polygon points="295.6,212.3 301.6,212.3 301.6,218.3 295.6,218.3" fill="rgb(255,108,108)"/>
<polygon points="311.6,212.3 317.6,212.3 317.6,218.3 311.6,218.3" fill="rgb(241,241,255)"/>
<polygon points="317.6,212.3 323.6,212.3 323.6,218.3 317.6,218.3" fill="rgb(194,194,255)"/>
<polygon points="323.6,212.3 329.6,212.3 329.6,218.3 323.6,218.3" fill="rgb(174,174,255)"/>
<polygon points="329.6,212.3 335.6,212.3 335.6,218.3 329.6,218.3" fill="rgb(141,141,255)"/>
<polygon points="335.6,212.3 341.6,212.3 341.6,218.3 335.6,218.3" fill="rgb(159,159,255)"/>
<polygon points="341.6,212.3 347.6,212.3 347.6,218.3 341.6,218.3" fill="rgb(231,231,255)"/>
<polygon points="347.6,212.3 353.6,212.3 353.6,218.3 347.6,218.3" fill="rgb(255,155,155)"/>
<polygon points="353.6,212.3 359.6,212.3 359.6,218.3 353.6,218.3" fill="rgb(255,21,21)"/>
<polygon points="161.6,218.3 169.6,218.3 169.6,224.3 161.6,224.3" fill="rgb(228,207,162)"/><text xml:space="preserve" x="165.6" y="224.133" font-family="Calibri" font-size="7.5" fill="rgb(0,0,0)" text-anchor="middle">11</text>
<polygon points="169.6,218.3 177.6,218.3 177.6,224.3 169.6,224.3" fill="rgb(216,179,101)"/><text xml:space="preserve" x="173.6" y="224.133" font-family="Calibri" font-size="7.5" fill="rgb(0,0,0)" text-anchor="middle">14</text>
<polygon points="177.6,218.3 185.6,218.3 185.6,224.3 177.6,224.3" fill="rgb(156,207,203)"/><text xml:space="preserve" x="181.6" y="224.133" font-family="Calibri" font-size="7.5" fill="rgb(0,0,0)" text-anchor="middle">3</text>
<polygon points="195.6,218.3 201.6,218.3 201.6,224.3 195.6,224.3" fill="rgb(255,238,238)"/>
<polygon points="201.6,218.3 207.6,218.3 207.6,224.3 201.6,224.3" fill="rgb(193,193,255)"/>
<polygon points="207.6,218.3 213.6,218.3 213.6,224.3 207.6,224.3" fill="rgb(247,247,255)"/>
<polygon points="213.6,218.3 219.6,218.3 219.6,224.3 213.6,224.3" fill="rgb(247,247,255)"/>
<polygon points="219.6,218.3 225.6,218.3 225.6,224.3 219.6,224.3" fill="rgb(213,213,255)"/>
<polygon points="225.6,218.3 231.6,218.3 231.6,224.3 225.6,224.3" fill="rgb(255,254,254)"/>
<polygon points="231.6,218.3 237.6,218.3 237.6,224.3 231.6,224.3" fill="rgb(255,127,127)"/>
<polygon points="237.6,218.3 243.6,218.3 243.6,224.3 237.6,224.3" fill="rgb(255,18,18)"/>
<polygon points="253.6,218.3 259.6,218.3 259.6,224.3 253.6,224.3" fill="rgb(255,244,244)"/>
<polygon points="259.6,218.3 265.6,218.3 265.6,224.3 259.6,224.3" fill="rgb(255,233,233)"/>
<polygon points="265.6,218.3 271.6,218.3 271.6,224.3 265.6,224.3" fill="rgb(255,148,148)"/>
<polygon points="271.6,218.3 277.6,218.3 277.6,224.3 271.6,224.3" fill="rgb(255,117,117)"/>
<polygon points="277.6,218.3 283.6,218.3 283.6,224.3 277.6,224.3" fill="rgb(254,254,255)"/>
<polygon points="283.6,218.3 289.6,218.3 289.6,224.3 283.6,224.3" fill="rgb(255,223,223)"/>
<polygon points="289.6,218.3 295.6,218.3 295.6,224.3 289.6,224.3" fill="rgb(255,134,134)"/>
<polygon points="295.6,218.3 301.6,218.3 301.6,224.3 295.6,224.3" fill="rgb(255,165,165)"/>
<polygon points="311.6,218.3 317.6,218.3 317.6,224.3 311.6,224.3" fill="rgb(220,220,255)"/>
<polygon points="317.6,218.3 323.6,218.3 323.6,224.3 317.6,224.3" fill="rgb(185,185,255)"/>
<polygon points="323.6,218.3 329.6,218.3 329.6,224.3 323.6,224.3" fill="rgb(205,205,255)"/>
<polygon points="329.6,218.3 335.6,218.3 335.6,224.3 329.6,224.3" fill="rgb(193,193,255)"/>
<polygon points="335.6,218.3 341.6,218.3 341.6,224.3 335.6,224.3" fill="rgb(188,188,255)"/>
<polygon points="341.6,218.3 347.6,218.3 347.6,224.3 341.6,224.3" fill="rgb(255,208,208)"/>
<polygon points="347.6,218.3 353.6,218.3 353.6,224.3 347.6,224.3" fill="rgb(255,89,89)"/>
<polygon points="353.6,218.3 359.6,218.3 359.6,224.3 353.6,224.3" fill="rgb(255,0,0)"/>
<polygon points="161.6,224.3 169.6,224.3 169.6,230.3 161.6,230.3" fill="rgb(228,207,162)"/><text xml:space="preserve" x="165.6" y="230.133" font-family="Calibri" font-size="7.5" fill="rgb(0,0,0)" text-anchor="middle">11</text>
<polygon points="169.6,224.3 177.6,224.3 177.6,230.3 169.6,230.3" fill="rgb(216,179,101)"/><text xml:space="preserve" x="173.6" y="230.133" font-family="Calibri" font-size="7.5" fill="rgb(0,0,0)" text-anchor="middle">14</text>
<polygon points="177.6,224.3 185.6,224.3 185.6,230.3 177.6,230.3" fill="rgb(156,207,203)"/><text xml:space="preserve" x="181.6" y="230.133" font-family="Calibri" font-size="7.5" fill="rgb(0,0,0)" text-anchor="middle">3</text>
<polygon points="195.6,224.3 201.6,224.3 201.6,230.3 195.6,230.3" fill="rgb(255,208,208)"/>
<polygon points="201.6,224.3 207.6,224.3 207.6,230.3 201.6,230.3" fill="rgb(210,210,255)"/>
<polygon points="207.6,224.3 213.6,224.3 213.6,230.3 207.6,230.3" fill="rgb(251,251,255)"/>
<polygon points="213.6,224.3 219.6,224.3 219.6,230.3 213.6,230.3" fill="rgb(255,250,250)"/>
<polygon points="219.6,224.3 225.6,224.3 225.6,230.3 219.6,230.3" fill="rgb(238,238,255)"/>
<polygon points="225.6,224.3 231.6,224.3 231.6,230.3 225.6,230.3" fill="rgb(220,220,255)"/>
<polygon points="231.6,224.3 237.6,224.3 237.6,230.3 231.6,230.3" fill="rgb(255,18,18)"/>
<polygon points="237.6,224.3 243.6,224.3 243.6,230.3 237.6,230.3" fill="rgb(255,0,0)"/>
<polygon points="253.6,224.3 259.6,224.3 259.6,230.3 253.6,230.3" fill="rgb(255,223,223)"/>
<polygon points="259.6,224.3 265.6,224.3 265.6,230.3 259.6,230.3" fill="rgb(255,247,247)"/>
<polygon points="265.6,224.3 271.6,224.3 271.6,230.3 265.6,230.3" fill="rgb(255,198,198)"/>
<polygon points="271.6,224.3 277.6,224.3 277.6,230.3 271.6,230.3" fill="rgb(255,198,198)"/>
<polygon points="277.6,224.3 283.6,224.3 283.6,230.3 277.6,230.3" fill="rgb(238,238,255)"/>
<polygon points="283.6,224.3 289.6,224.3 289.6,230.3 283.6,230.3" fill="rgb(235,235,255)"/>
<polygon points="289.6,224.3 295.6,224.3 295.6,230.3 289.6,230.3" fill="rgb(255,27,27)"/>
<polygon points="295.6,224.3 301.6,224.3 301.6,230.3 295.6,230.3" fill="rgb(255,77,77)"/>
<polygon points="311.6,224.3 317.6,224.3 317.6,230.3 311.6,230.3" fill="rgb(225,225,255)"/>
<polygon points="317.6,224.3 323.6,224.3 323.6,230.3 317.6,230.3" fill="rgb(170,170,255)"/>
<polygon points="323.6,224.3 329.6,224.3 329.6,230.3 323.6,230.3" fill="rgb(197,197,255)"/>
<polygon points="329.6,224.3 335.6,224.3 335.6,230.3 329.6,230.3" fill="rgb(171,171,255)"/>
<polygon points="335.6,224.3 341.6,224.3 341.6,230.3 335.6,230.3" fill="rgb(225,225,255)"/>
<polygon points="341.6,224.3 347.6,224.3 347.6,230.3 341.6,230.3" fill="rgb(243,243,255)"/>
<polygon points="347.6,224.3 353.6,224.3 353.6,230.3 347.6,230.3" fill="rgb(255,65,65)"/>
<polygon points="353.6,224.3 359.6,224.3 359.6,230.3 353.6,230.3" fill="rgb(255,0,0)"/>
<polygon points="161.6,230.3 169.6,230.3 169.6,236.3 161.6,236.3" fill="rgb(228,207,162)"/><text xml:space="preserve" x="165.6" y="236.133" font-family="Calibri" font-size="7.5" fill="rgb(0,0,0)" text-anchor="middle">11</text>
<polygon points="169.6,230.3 177.6,230.3 177.6,236.3 169.6,236.3" fill="rgb(216,179,101)"/><text xml:space="preserve" x="173.6" y="236.133" font-family="Calibri" font-size="7.5" fill="rgb(0,0,0)" text-anchor="middle">14</text>
<polygon points="177.6,230.3 185.6,230.3 185.6,236.3 177.6,236.3" fill="rgb(156,207,203)"/><text xml:space="preserve" x="181.6" y="236.133" font-family="Calibri" font-size="7.5" fill="rgb(0,0,0)" text-anchor="middle">3</text>
<polygon points="195.6,230.3 201.6,230.3 201.6,236.3 195.6,236.3" fill="rgb(255,215,215)"/>
<polygon points="201.6,230.3 207.6,230.3 207.6,236.3 201.6,236.3" fill="rgb(203,203,255)"/>
<polygon points="207.6,230.3 213.6,230.3 213.6,236.3 207.6,236.3" fill="rgb(255,249,249)"/>
<polygon points="213.6,230.3 219.6,230.3 219.6,236.3 213.6,236.3" fill="rgb(254,244,244)"/>
<polygon points="219.6,230.3 225.6,230.3 225.6,236.3 219.6,236.3" fill="rgb(213,213,255)"/>
<polygon points="225.6,230.3 231.6,230.3 231.6,236.3 225.6,236.3" fill="rgb(240,240,255)"/>
<polygon points="231.6,230.3 237.6,230.3 237.6,236.3 231.6,236.3" fill="rgb(255,63,63)"/>
<polygon points="237.6,230.3 243.6,230.3 243.6,236.3 237.6,236.3" fill="rgb(255,7,7)"/>
<polygon points="253.6,230.3 259.6,230.3 259.6,236.3 253.6,236.3" fill="rgb(255,203,203)"/>
<polygon points="259.6,230.3 265.6,230.3 265.6,236.3 259.6,236.3" fill="rgb(255,252,252)"/>
<polygon points="265.6,230.3 271.6,230.3 271.6,236.3 265.6,236.3" fill="rgb(255,225,225)"/>
<polygon points="271.6,230.3 277.6,230.3 277.6,236.3 271.6,236.3" fill="rgb(255,166,166)"/>
<polygon points="277.6,230.3 283.6,230.3 283.6,236.3 277.6,236.3" fill="rgb(255,253,253)"/>
<polygon points="283.6,230.3 289.6,230.3 289.6,236.3 283.6,236.3" fill="rgb(227,227,255)"/>
<polygon points="289.6,230.3 295.6,230.3 295.6,236.3 289.6,236.3" fill="rgb(255,198,198)"/>
<polygon points="295.6,230.3 301.6,230.3 301.6,236.3 295.6,236.3" fill="rgb(255,138,138)"/>
<polygon points="311.6,230.3 317.6,230.3 317.6,236.3 311.6,236.3" fill="rgb(199,199,255)"/>
<polygon points="317.6,230.3 323.6,230.3 323.6,236.3 317.6,236.3" fill="rgb(166,166,255)"/>
<polygon points="323.6,230.3 329.6,230.3 329.6,236.3 323.6,236.3" fill="rgb(201,201,255)"/>
<polygon points="329.6,230.3 335.6,230.3 335.6,236.3 329.6,236.3" fill="rgb(137,137,255)"/>
<polygon points="335.6,230.3 341.6,230.3 341.6,236.3 335.6,236.3" fill="rgb(208,208,255)"/>
<polygon points="341.6,230.3 347.6,230.3 347.6,236.3 341.6,236.3" fill="rgb(255,250,250)"/>
<polygon points="347.6,230.3 353.6,230.3 353.6,236.3 347.6,236.3" fill="rgb(255,112,112)"/>
<polygon points="353.6,230.3 359.6,230.3 359.6,236.3 353.6,236.3" fill="rgb(255,0,0)"/>
<polygon points="161.6,236.3 169.6,236.3 169.6,242.3 161.6,242.3" fill="rgb(228,207,162)"/><text xml:space="preserve" x="165.6" y="242.133" font-family="Calibri" font-size="7.5" fill="rgb(0,0,0)" text-anchor="middle">11</text>
<polygon points="169.6,236.3 177.6,236.3 177.6,242.3 169.6,242.3" fill="rgb(216,179,101)"/><text xml:space="preserve" x="173.6" y="242.133" font-family="Calibri" font-size="7.5" fill="rgb(0,0,0)" text-anchor="middle">14</text>
<polygon points="177.6,236.3 185.6,236.3 185.6,242.3 177.6,242.3" fill="rgb(156,207,203)"/><text xml:space="preserve" x="181.6" y="242.133" font-family="Calibri" font-size="7.5" fill="rgb(0,0,0)" text-anchor="middle">3</text>
<polygon points="195.6,236.3 201.6,236.3 201.6,242.3 195.6,242.3" fill="rgb(255,234,234)"/>
<polygon points="201.6,236.3 207.6,236.3 207.6,242.3 201.6,242.3" fill="rgb(215,215,255)"/>
<polygon points="207.6,236.3 213.6,236.3 213.6,242.3 207.6,242.3" fill="rgb(193,193,255)"/>
<polygon points="213.6,236.3 219.6,236.3 219.6,242.3 213.6,242.3" fill="rgb(232,232,255)"/>
<polygon points="219.6,236.3 225.6,236.3 225.6,242.3 219.6,242.3" fill="rgb(193,193,255)"/>
<polygon points="225.6,236.3 231.6,236.3 231.6,242.3 225.6,242.3" fill="rgb(205,205,255)"/>
<polygon points="231.6,236.3 237.6,236.3 237.6,242.3 231.6,242.3" fill="rgb(254,152,152)"/>
<polygon points="237.6,236.3 243.6,236.3 243.6,242.3 237.6,242.3" fill="rgb(255,57,57)"/>
<polygon points="253.6,236.3 259.6,236.3 259.6,242.3 253.6,242.3" fill="rgb(254,245,245)"/>
<polygon points="259.6,236.3 265.6,236.3 265.6,242.3 259.6,242.3" fill="rgb(255,224,224)"/>
<polygon points="265.6,236.3 271.6,236.3 271.6,242.3 265.6,242.3" fill="rgb(255,199,199)"/>
<polygon points="271.6,236.3 277.6,236.3 277.6,242.3 271.6,242.3" fill="rgb(255,197,197)"/>
<polygon points="277.6,236.3 283.6,236.3 283.6,242.3 277.6,242.3" fill="rgb(255,194,194)"/>
<polygon points="283.6,236.3 289.6,236.3 289.6,242.3 283.6,242.3" fill="rgb(226,226,255)"/>
<polygon points="289.6,236.3 295.6,236.3 295.6,242.3 289.6,242.3" fill="rgb(255,240,240)"/>
<polygon points="295.6,236.3 301.6,236.3 301.6,242.3 295.6,242.3" fill="rgb(255,169,169)"/>
<polygon points="311.6,236.3 317.6,236.3 317.6,242.3 311.6,242.3" fill="rgb(221,221,255)"/>
<polygon points="317.6,236.3 323.6,236.3 323.6,242.3 317.6,242.3" fill="rgb(181,181,255)"/>
<polygon points="323.6,236.3 329.6,236.3 329.6,242.3 323.6,242.3" fill="rgb(198,198,255)"/>
<polygon points="329.6,236.3 335.6,236.3 335.6,242.3 329.6,242.3" fill="rgb(140,140,255)"/>
<polygon points="335.6,236.3 341.6,236.3 341.6,242.3 335.6,242.3" fill="rgb(189,189,255)"/>
<polygon points="341.6,236.3 347.6,236.3 347.6,242.3 341.6,242.3" fill="rgb(253,253,255)"/>
<polygon points="347.6,236.3 353.6,236.3 353.6,242.3 347.6,242.3" fill="rgb(255,163,163)"/>
<polygon points="353.6,236.3 359.6,236.3 359.6,242.3 353.6,242.3" fill="rgb(255,50,50)"/>
<polygon points="161.6,242.3 169.6,242.3 169.6,248.3 161.6,248.3" fill="rgb(228,207,162)"/><text xml:space="preserve" x="165.6" y="248.133" font-family="Calibri" font-size="7.5" fill="rgb(0,0,0)" text-anchor="middle">11</text>
<polygon points="169.6,242.3 177.6,242.3 177.6,248.3 169.6,248.3" fill="rgb(216,179,101)"/><text xml:space="preserve" x="173.6" y="248.133" font-family="Calibri" font-size="7.5" fill="rgb(0,0,0)" text-anchor="middle">14</text>
<polygon points="177.6,242.3 185.6,242.3 185.6,248.3 177.6,248.3" fill="rgb(156,207,203)"/><text xml:space="preserve" x="181.6" y="248.133" font-family="Calibri" font-size="7.5" fill="rgb(0,0,0)" text-anchor="middle">3</text>
<polygon points="195.6,242.3 201.6,242.3 201.6,248.3 195.6,248.3" fill="rgb(255,228,228)"/>
<polygon points="201.6,242.3 207.6,242.3 207.6,248.3 201.6,248.3" fill="rgb(196,196,255)"/>
<polygon points="207.6,242.3 213.6,242.3 213.6,248.3 207.6,248.3" fill="rgb(209,209,255)"/>
<polygon points="213.6,242.3 219.6,242.3 219.6,248.3 213.6,248.3" fill="rgb(208,208,255)"/>
<polygon points="219.6,242.3 225.6,242.3 225.6,248.3 219.6,248.3" fill="rgb(229,229,255)"/>
<polygon points="225.6,242.3 231.6,242.3 231.6,248.3 225.6,248.3" fill="rgb(255,241,241)"/>
<polygon points="231.6,242.3 237.6,242.3 237.6,248.3 231.6,248.3" fill="rgb(255,95,95)"/>
<polygon points="237.6,242.3 243.6,242.3 243.6,248.3 237.6,248.3" fill="rgb(255,87,87)"/>
<polygon points="253.6,242.3 259.6,242.3 259.6,248.3 253.6,248.3" fill="rgb(217,217,255)"/>
<polygon points="259.6,242.3 265.6,242.3 265.6,248.3 259.6,248.3" fill="rgb(255,242,242)"/>
<polygon points="265.6,242.3 271.6,242.3 271.6,248.3 265.6,248.3" fill="rgb(254,223,223)"/>
<polygon points="271.6,242.3 277.6,242.3 277.6,248.3 271.6,248.3" fill="rgb(242,242,255)"/>
<polygon points="277.6,242.3 283.6,242.3 283.6,248.3 277.6,248.3" fill="rgb(238,238,255)"/>
<polygon points="283.6,242.3 289.6,242.3 289.6,248.3 283.6,248.3" fill="rgb(255,250,250)"/>
<polygon points="289.6,242.3 295.6,242.3 295.6,248.3 289.6,248.3" fill="rgb(255,234,234)"/>
<polygon points="295.6,242.3 301.6,242.3 301.6,248.3 295.6,248.3" fill="rgb(255,206,206)"/>
<polygon points="311.6,242.3 317.6,242.3 317.6,248.3 311.6,248.3" fill="rgb(251,251,255)"/>
<polygon points="317.6,242.3 323.6,242.3 323.6,248.3 317.6,248.3" fill="rgb(151,151,255)"/>
<polygon points="323.6,242.3 329.6,242.3 329.6,248.3 323.6,248.3" fill="rgb(174,174,255)"/>
<polygon points="329.6,242.3 335.6,242.3 335.6,248.3 329.6,248.3" fill="rgb(102,102,255)"/>
<polygon points="335.6,242.3 341.6,242.3 341.6,248.3 335.6,248.3" fill="rgb(167,167,255)"/>
<polygon points="341.6,242.3 347.6,242.3 347.6,248.3 341.6,248.3" fill="rgb(255,229,229)"/>
<polygon points="347.6,242.3 353.6,242.3 353.6,248.3 347.6,248.3" fill="rgb(255,192,192)"/>
<polygon points="353.6,242.3 359.6,242.3 359.6,248.3 353.6,248.3" fill="rgb(255,90,90)"/>
<polygon points="161.6,248.3 169.6,248.3 169.6,254.3 161.6,254.3" fill="rgb(228,207,162)"/><text xml:space="preserve" x="165.6" y="254.133" font-family="Calibri" font-size="7.5" fill="rgb(0,0,0)" text-anchor="middle">11</text>
<polygon points="169.6,248.3 177.6,248.3 177.6,254.3 169.6,254.3" fill="rgb(216,179,101)"/><text xml:space="preserve" x="173.6" y="254.133" font-family="Calibri" font-size="7.5" fill="rgb(0,0,0)" text-anchor="middle">14</text>
<polygon points="177.6,248.3 185.6,248.3 185.6,254.3 177.6,254.3" fill="rgb(156,207,203)"/><text xml:space="preserve" x="181.6" y="254.133" font-family="Calibri" font-size="7.5" fill="rgb(0,0,0)" text-anchor="middle">3</text>
<polygon points="195.6,248.3 201.6,248.3 201.6,254.3 195.6,254.3" fill="rgb(196,196,255)"/>
<polygon points="201.6,248.3 207.6,248.3 207.6,254.3 201.6,254.3" fill="rgb(167,167,255)"/>
<polygon points="207.6,248.3 213.6,248.3 213.6,254.3 207.6,254.3" fill="rgb(219,219,255)"/>
<polygon points="213.6,248.3 219.6,248.3 219.6,254.3 213.6,254.3" fill="rgb(253,253,255)"/>
<polygon points="219.6,248.3 225.6,248.3 225.6,254.3 219.6,254.3" fill="rgb(212,212,255)"/>
<polygon points="225.6,248.3 231.6,248.3 231.6,254.3 225.6,254.3" fill="rgb(190,190,255)"/>
<polygon points="231.6,248.3 237.6,248.3 237.6,254.3 231.6,254.3" fill="rgb(255,234,234)"/>
<polygon points="237.6,248.3 243.6,248.3 243.6,254.3 237.6,254.3" fill="rgb(255,86,86)"/>
<polygon points="253.6,248.3 259.6,248.3 259.6,254.3 253.6,254.3" fill="rgb(255,244,244)"/>
<polygon points="259.6,248.3 265.6,248.3 265.6,254.3 259.6,254.3" fill="rgb(246,246,255)"/>
<polygon points="265.6,248.3 271.6,248.3 271.6,254.3 265.6,254.3" fill="rgb(255,225,225)"/>
<polygon points="271.6,248.3 277.6,248.3 277.6,254.3 271.6,254.3" fill="rgb(254,192,192)"/>
<polygon points="277.6,248.3 283.6,248.3 283.6,254.3 277.6,254.3" fill="rgb(205,205,255)"/>
<polygon points="283.6,248.3 289.6,248.3 289.6,254.3 283.6,254.3" fill="rgb(187,187,255)"/>
<polygon points="289.6,248.3 295.6,248.3 295.6,254.3 289.6,254.3" fill="rgb(255,221,221)"/>
<polygon points="295.6,248.3 301.6,248.3 301.6,254.3 295.6,254.3" fill="rgb(255,188,188)"/>
<polygon points="311.6,248.3 317.6,248.3 317.6,254.3 311.6,254.3" fill="rgb(178,178,255)"/>
<polygon points="317.6,248.3 323.6,248.3 323.6,254.3 317.6,254.3" fill="rgb(178,178,255)"/>
<polygon points="323.6,248.3 329.6,248.3 329.6,254.3 323.6,254.3" fill="rgb(139,139,255)"/>
<polygon points="329.6,248.3 335.6,248.3 335.6,254.3 329.6,254.3" fill="rgb(183,183,255)"/>
<polygon points="335.6,248.3 341.6,248.3 341.6,254.3 335.6,254.3" fill="rgb(188,188,255)"/>
<polygon points="341.6,248.3 347.6,248.3 347.6,254.3 341.6,254.3" fill="rgb(149,149,255)"/>
<polygon points="347.6,248.3 353.6,248.3 353.6,254.3 347.6,254.3" fill="rgb(255,165,165)"/>
<polygon points="353.6,248.3 359.6,248.3 359.6,254.3 353.6,254.3" fill="rgb(255,40,40)"/>
<polygon points="161.6,254.3 169.6,254.3 169.6,260.3 161.6,260.3" fill="rgb(228,207,162)"/><text xml:space="preserve" x="165.6" y="260.133" font-family="Calibri" font-size="7.5" fill="rgb(0,0,0)" text-anchor="middle">11</text>
<polygon points="169.6,254.3 177.6,254.3 177.6,260.3 169.6,260.3" fill="rgb(216,179,101)"/><text xml:space="preserve" x="173.6" y="260.133" font-family="Calibri" font-size="7.5" fill="rgb(0,0,0)" text-anchor="middle">14</text>
<polygon points="177.6,254.3 185.6,254.3 185.6,260.3 177.6,260.3" fill="rgb(156,207,203)"/><text xml:space="preserve" x="181.6" y="260.133" font-family="Calibri" font-size="7.5" fill="rgb(0,0,0)" text-anchor="middle">3</text>
<polygon points="195.6,254.3 201.6,254.3 201.6,260.3 195.6,260.3" fill="rgb(255,235,235)"/>
<polygon points="201.6,254.3 207.6,254.3 207.6,260.3 201.6,260.3" fill="rgb(197,197,255)"/>
<polygon points="207.6,254.3 213.6,254.3 213.6,260.3 207.6,260.3" fill="rgb(253,253,255)"/>
<polygon points="213.6,254.3 219.6,254.3 219.6,260.3 213.6,260.3" fill="rgb(255,220,220)"/>
<polygon points="219.6,254.3 225.6,254.3 225.6,260.3 219.6,260.3" fill="rgb(192,192,255)"/>
<polygon points="225.6,254.3 231.6,254.3 231.6,260.3 225.6,260.3" fill="rgb(253,253,255)"/>
<polygon points="231.6,254.3 237.6,254.3 237.6,260.3 231.6,260.3" fill="rgb(255,0,0)"/>
<polygon points="237.6,254.3 243.6,254.3 243.6,260.3 237.6,260.3" fill="rgb(255,0,0)"/>
<polygon points="253.6,254.3 259.6,254.3 259.6,260.3 253.6,260.3" fill="rgb(232,232,255)"/>
<polygon points="259.6,254.3 265.6,254.3 265.6,260.3 259.6,260.3" fill="rgb(255,209,209)"/>
<polygon points="265.6,254.3 271.6,254.3 271.6,260.3 265.6,260.3" fill="rgb(254,183,183)"/>
<polygon points="271.6,254.3 277.6,254.3 277.6,260.3 271.6,260.3" fill="rgb(255,228,228)"/>
<polygon points="277.6,254.3 283.6,254.3 283.6,260.3 277.6,260.3" fill="rgb(225,225,255)"/>
<polygon points="283.6,254.3 289.6,254.3 289.6,260.3 283.6,260.3" fill="rgb(206,206,255)"/>
<polygon points="289.6,254.3 295.6,254.3 295.6,260.3 289.6,260.3" fill="rgb(255,209,209)"/>
<polygon points="295.6,254.3 301.6,254.3 301.6,260.3 295.6,260.3" fill="rgb(255,114,114)"/>
<polygon points="311.6,254.3 317.6,254.3 317.6,260.3 311.6,260.3" fill="rgb(203,203,255)"/>
<polygon points="317.6,254.3 323.6,254.3 323.6,260.3 317.6,260.3" fill="rgb(184,184,255)"/>
<polygon points="323.6,254.3 329.6,254.3 329.6,260.3 323.6,260.3" fill="rgb(161,161,255)"/>
<polygon points="329.6,254.3 335.6,254.3 335.6,260.3 329.6,260.3" fill="rgb(158,158,255)"/>
<polygon points="335.6,254.3 341.6,254.3 341.6,260.3 335.6,260.3" fill="rgb(180,180,255)"/>
<polygon points="341.6,254.3 347.6,254.3 347.6,260.3 341.6,260.3" fill="rgb(216,216,255)"/>
<polygon points="347.6,254.3 353.6,254.3 353.6,260.3 347.6,260.3" fill="rgb(255,97,97)"/>
<polygon points="353.6,254.3 359.6,254.3 359.6,260.3 353.6,260.3" fill="rgb(255,0,0)"/>
<polygon points="161.6,260.3 169.6,260.3 169.6,266.3 161.6,266.3" fill="rgb(228,207,162)"/><text xml:space="preserve" x="165.6" y="266.133" font-family="Calibri" font-size="7.5" fill="rgb(0,0,0)" text-anchor="middle">11</text>
<polygon points="169.6,260.3 177.6,260.3 177.6,266.3 169.6,266.3" fill="rgb(216,179,101)"/><text xml:space="preserve" x="173.6" y="266.133" font-family="Calibri" font-size="7.5" fill="rgb(0,0,0)" text-anchor="middle">14</text>
<polygon points="177.6,260.3 185.6,260.3 185.6,266.3 177.6,266.3" fill="rgb(156,207,203)"/><text xml:space="preserve" x="181.6" y="266.133" font-family="Calibri" font-size="7.5" fill="rgb(0,0,0)" text-anchor="middle">3</text>
<polygon points="195.6,260.3 201.6,260.3 201.6,266.3 195.6,266.3" fill="rgb(255,249,249)"/>
<polygon points="201.6,260.3 207.6,260.3 207.6,266.3 201.6,266.3" fill="rgb(186,186,255)"/>
<polygon points="207.6,260.3 213.6,260.3 213.6,266.3 207.6,266.3" fill="rgb(202,202,255)"/>
<polygon points="213.6,260.3 219.6,260.3 219.6,266.3 213.6,266.3" fill="rgb(239,239,255)"/>
<polygon points="219.6,260.3 225.6,260.3 225.6,266.3 219.6,266.3" fill="rgb(188,188,255)"/>
<polygon points="225.6,260.3 231.6,260.3 231.6,266.3 225.6,266.3" fill="rgb(255,241,241)"/>
<polygon points="231.6,260.3 237.6,260.3 237.6,266.3 231.6,266.3" fill="rgb(255,116,116)"/>
<polygon points="237.6,260.3 243.6,260.3 243.6,266.3 237.6,266.3" fill="rgb(255,15,15)"/>
<polygon points="253.6,260.3 259.6,260.3 259.6,266.3 253.6,266.3" fill="rgb(252,252,255)"/>
<polygon points="259.6,260.3 265.6,260.3 265.6,266.3 259.6,266.3" fill="rgb(248,248,255)"/>
<polygon points="265.6,260.3 271.6,260.3 271.6,266.3 265.6,266.3" fill="rgb(255,250,250)"/>
<polygon points="271.6,260.3 277.6,260.3 277.6,266.3 271.6,266.3" fill="rgb(255,159,159)"/>
<polygon points="277.6,260.3 283.6,260.3 283.6,266.3 277.6,266.3" fill="rgb(221,221,255)"/>
<polygon points="283.6,260.3 289.6,260.3 289.6,266.3 283.6,266.3" fill="rgb(255,207,207)"/>
<polygon points="289.6,260.3 295.6,260.3 295.6,266.3 289.6,266.3" fill="rgb(255,205,205)"/>
<polygon points="295.6,260.3 301.6,260.3 301.6,266.3 295.6,266.3" fill="rgb(255,99,99)"/>
<polygon points="311.6,260.3 317.6,260.3 317.6,266.3 311.6,266.3" fill="rgb(205,205,255)"/>
<polygon points="317.6,260.3 323.6,260.3 323.6,266.3 317.6,266.3" fill="rgb(169,169,255)"/>
<polygon points="323.6,260.3 329.6,260.3 329.6,266.3 323.6,266.3" fill="rgb(184,184,255)"/>
<polygon points="329.6,260.3 335.6,260.3 335.6,266.3 329.6,266.3" fill="rgb(145,145,255)"/>
<polygon points="335.6,260.3 341.6,260.3 341.6,266.3 335.6,266.3" fill="rgb(185,185,255)"/>
<polygon points="341.6,260.3 347.6,260.3 347.6,266.3 341.6,266.3" fill="rgb(255,189,189)"/>
<polygon points="347.6,260.3 353.6,260.3 353.6,266.3 347.6,266.3" fill="rgb(255,177,177)"/>
<polygon points="353.6,260.3 359.6,260.3 359.6,266.3 353.6,266.3" fill="rgb(255,0,0)"/>
<polygon points="161.6,266.3 169.6,266.3 169.6,272.3 161.6,272.3" fill="rgb(228,207,162)"/><text xml:space="preserve" x="165.6" y="272.133" font-family="Calibri" font-size="7.5" fill="rgb(0,0,0)" text-anchor="middle">11</text>
<polygon points="169.6,266.3 177.6,266.3 177.6,272.3 169.6,272.3" fill="rgb(216,179,101)"/><text xml:space="preserve" x="173.6" y="272.133" font-family="Calibri" font-size="7.5" fill="rgb(0,0,0)" text-anchor="middle">14</text>
<polygon points="177.6,266.3 185.6,266.3 185.6,272.3 177.6,272.3" fill="rgb(156,207,203)"/><text xml:space="preserve" x="181.6" y="272.133" font-family="Calibri" font-size="7.5" fill="rgb(0,0,0)" text-anchor="middle">3</text>
<polygon points="195.6,266.3 201.6,266.3 201.6,272.3 195.6,272.3" fill="rgb(254,242,242)"/>
<polygon points="201.6,266.3 207.6,266.3 207.6,272.3 201.6,272.3" fill="rgb(181,181,255)"/>
<polygon points="207.6,266.3 213.6,266.3 213.6,272.3 207.6,272.3" fill="rgb(181,181,255)"/>
<polygon points="213.6,266.3 219.6,266.3 219.6,272.3 213.6,272.3" fill="rgb(255,246,246)"/>
<polygon points="219.6,266.3 225.6,266.3 225.6,272.3 219.6,272.3" fill="rgb(192,192,255)"/>
<polygon points="225.6,266.3 231.6,266.3 231.6,272.3 225.6,272.3" fill="rgb(149,149,255)"/>
<polygon points="231.6,266.3 237.6,266.3 237.6,272.3 231.6,272.3" fill="rgb(255,114,114)"/>
<polygon points="237.6,266.3 243.6,266.3 243.6,272.3 237.6,272.3" fill="rgb(255,0,0)"/>
<polygon points="253.6,266.3 259.6,266.3 259.6,272.3 253.6,272.3" fill="rgb(255,254,254)"/>
<polygon points="259.6,266.3 265.6,266.3 265.6,272.3 259.6,272.3" fill="rgb(247,247,255)"/>
<polygon points="265.6,266.3 271.6,266.3 271.6,272.3 265.6,272.3" fill="rgb(255,210,210)"/>
<polygon points="271.6,266.3 277.6,266.3 277.6,272.3 271.6,272.3" fill="rgb(255,160,160)"/>
<polygon points="277.6,266.3 283.6,266.3 283.6,272.3 277.6,272.3" fill="rgb(229,229,255)"/>
<polygon points="283.6,266.3 289.6,266.3 289.6,272.3 283.6,272.3" fill="rgb(255,254,254)"/>
<polygon points="289.6,266.3 295.6,266.3 295.6,272.3 289.6,272.3" fill="rgb(255,199,199)"/>
<polygon points="295.6,266.3 301.6,266.3 301.6,272.3 295.6,272.3" fill="rgb(255,239,239)"/>
<polygon points="311.6,266.3 317.6,266.3 317.6,272.3 311.6,272.3" fill="rgb(255,227,227)"/>
<polygon points="317.6,266.3 323.6,266.3 323.6,272.3 317.6,272.3" fill="rgb(145,145,255)"/>
<polygon points="323.6,266.3 329.6,266.3 329.6,272.3 323.6,272.3" fill="rgb(105,105,255)"/>
<polygon points="329.6,266.3 335.6,266.3 335.6,272.3 329.6,272.3" fill="rgb(107,107,255)"/>
<polygon points="335.6,266.3 341.6,266.3 341.6,272.3 335.6,272.3" fill="rgb(194,194,255)"/>
<polygon points="341.6,266.3 347.6,266.3 347.6,272.3 341.6,272.3" fill="rgb(255,171,171)"/>
<polygon points="347.6,266.3 353.6,266.3 353.6,272.3 347.6,272.3" fill="rgb(255,92,92)"/>
<polygon points="353.6,266.3 359.6,266.3 359.6,272.3 353.6,272.3" fill="rgb(255,0,0)"/>
<polygon points="161.6,272.3 169.6,272.3 169.6,278.3 161.6,278.3" fill="rgb(228,207,162)"/><text xml:space="preserve" x="165.6" y="278.133" font-family="Calibri" font-size="7.5" fill="rgb(0,0,0)" text-anchor="middle">11</text>
<polygon points="169.6,272.3 177.6,272.3 177.6,278.3 169.6,278.3" fill="rgb(216,179,101)"/><text xml:space="preserve" x="173.6" y="278.133" font-family="Calibri" font-size="7.5" fill="rgb(0,0,0)" text-anchor="middle">14</text>
<polygon points="177.6,272.3 185.6,272.3 185.6,278.3 177.6,278.3" fill="rgb(156,207,203)"/><text xml:space="preserve" x="181.6" y="278.133" font-family="Calibri" font-size="7.5" fill="rgb(0,0,0)" text-anchor="middle">3</text>
<polygon points="195.6,272.3 201.6,272.3 201.6,278.3 195.6,278.3" fill="rgb(244,244,255)"/>
<polygon points="201.6,272.3 207.6,272.3 207.6,278.3 201.6,278.3" fill="rgb(180,180,255)"/>
<polygon points="207.6,272.3 213.6,272.3 213.6,278.3 207.6,278.3" fill="rgb(255,247,247)"/>
<polygon points="213.6,272.3 219.6,272.3 219.6,278.3 213.6,278.3" fill="rgb(255,253,253)"/>
<polygon points="219.6,272.3 225.6,272.3 225.6,278.3 219.6,278.3" fill="rgb(205,205,255)"/>
<polygon points="225.6,272.3 231.6,272.3 231.6,278.3 225.6,278.3" fill="rgb(229,229,255)"/>
<polygon points="231.6,272.3 237.6,272.3 237.6,278.3 231.6,278.3" fill="rgb(255,152,152)"/>
<polygon points="237.6,272.3 243.6,272.3 243.6,278.3 237.6,278.3" fill="rgb(255,67,67)"/>
<polygon points="253.6,272.3 259.6,272.3 259.6,278.3 253.6,278.3" fill="rgb(200,200,255)"/>
<polygon points="259.6,272.3 265.6,272.3 265.6,278.3 259.6,278.3" fill="rgb(196,196,255)"/>
<polygon points="265.6,272.3 271.6,272.3 271.6,278.3 265.6,278.3" fill="rgb(255,244,244)"/>
<polygon points="271.6,272.3 277.6,272.3 277.6,278.3 271.6,278.3" fill="rgb(255,193,193)"/>
<polygon points="277.6,272.3 283.6,272.3 283.6,278.3 277.6,278.3" fill="rgb(233,233,255)"/>
<polygon points="283.6,272.3 289.6,272.3 289.6,278.3 283.6,278.3" fill="rgb(255,211,211)"/>
<polygon points="289.6,272.3 295.6,272.3 295.6,278.3 289.6,278.3" fill="rgb(235,235,255)"/>
<polygon points="295.6,272.3 301.6,272.3 301.6,278.3 295.6,278.3" fill="rgb(255,226,226)"/>
<polygon points="311.6,272.3 317.6,272.3 317.6,278.3 311.6,278.3" fill="rgb(190,190,255)"/>
<polygon points="317.6,272.3 323.6,272.3 323.6,278.3 317.6,278.3" fill="rgb(151,151,255)"/>
<polygon points="323.6,272.3 329.6,272.3 329.6,278.3 323.6,278.3" fill="rgb(234,234,255)"/>
<polygon points="329.6,272.3 335.6,272.3 335.6,278.3 329.6,278.3" fill="rgb(137,137,255)"/>
<polygon points="335.6,272.3 341.6,272.3 341.6,278.3 335.6,278.3" fill="rgb(182,182,255)"/>
<polygon points="341.6,272.3 347.6,272.3 347.6,278.3 341.6,278.3" fill="rgb(255,177,177)"/>
<polygon points="347.6,272.3 353.6,272.3 353.6,278.3 347.6,278.3" fill="rgb(255,183,183)"/>
<polygon points="353.6,272.3 359.6,272.3 359.6,278.3 353.6,278.3" fill="rgb(255,18,18)"/>
<polygon points="161.6,278.3 169.6,278.3 169.6,284.3 161.6,284.3" fill="rgb(228,207,162)"/><text xml:space="preserve" x="165.6" y="284.133" font-family="Calibri" font-size="7.5" fill="rgb(0,0,0)" text-anchor="middle">11</text>
<polygon points="169.6,278.3 177.6,278.3 177.6,284.3 169.6,284.3" fill="rgb(220,188,121)"/><text xml:space="preserve" x="173.6" y="284.133" font-family="Calibri" font-size="7.5" fill="rgb(0,0,0)" text-anchor="middle">13</text>
<polygon points="177.6,278.3 185.6,278.3 185.6,284.3 177.6,284.3" fill="rgb(156,207,203)"/><text xml:space="preserve" x="181.6" y="284.133" font-family="Calibri" font-size="7.5" fill="rgb(0,0,0)" text-anchor="middle">3</text>
<polygon points="195.6,278.3 201.6,278.3 201.6,284.3 195.6,284.3" fill="rgb(227,227,255)"/>
<polygon points="201.6,278.3 207.6,278.3 207.6,284.3 201.6,284.3" fill="rgb(171,171,255)"/>
<polygon points="207.6,278.3 213.6,278.3 213.6,284.3 207.6,284.3" fill="rgb(255,226,226)"/>
<polygon points="213.6,278.3 219.6,278.3 219.6,284.3 213.6,284.3" fill="rgb(255,220,220)"/>
<polygon points="219.6,278.3 225.6,278.3 225.6,284.3 219.6,284.3" fill="rgb(183,183,255)"/>
<polygon points="225.6,278.3 231.6,278.3 231.6,284.3 225.6,284.3" fill="rgb(255,207,207)"/>
<polygon points="231.6,278.3 237.6,278.3 237.6,284.3 231.6,284.3" fill="rgb(255,159,159)"/>
<polygon points="237.6,278.3 243.6,278.3 243.6,284.3 237.6,284.3" fill="rgb(255,58,58)"/>
<polygon points="253.6,278.3 259.6,278.3 259.6,284.3 253.6,284.3" fill="rgb(255,137,137)"/>
<polygon points="259.6,278.3 265.6,278.3 265.6,284.3 259.6,284.3" fill="rgb(255,146,146)"/>
<polygon points="265.6,278.3 271.6,278.3 271.6,284.3 265.6,284.3" fill="rgb(255,172,172)"/>
<polygon points="271.6,278.3 277.6,278.3 277.6,284.3 271.6,284.3" fill="rgb(255,0,0)"/>
<polygon points="277.6,278.3 283.6,278.3 283.6,284.3 277.6,284.3" fill="rgb(255,137,137)"/>
<polygon points="283.6,278.3 289.6,278.3 289.6,284.3 283.6,284.3" fill="rgb(217,217,255)"/>
<polygon points="289.6,278.3 295.6,278.3 295.6,284.3 289.6,284.3" fill="rgb(216,216,255)"/>
<polygon points="295.6,278.3 301.6,278.3 301.6,284.3 295.6,284.3" fill="rgb(251,251,255)"/>
<polygon points="311.6,278.3 317.6,278.3 317.6,284.3 311.6,284.3" fill="rgb(162,162,255)"/>
<polygon points="317.6,278.3 323.6,278.3 323.6,284.3 317.6,284.3" fill="rgb(155,155,255)"/>
<polygon points="323.6,278.3 329.6,278.3 329.6,284.3 323.6,284.3" fill="rgb(201,201,255)"/>
<polygon points="329.6,278.3 335.6,278.3 335.6,284.3 329.6,284.3" fill="rgb(118,118,255)"/>
<polygon points="335.6,278.3 341.6,278.3 341.6,284.3 335.6,284.3" fill="rgb(153,153,255)"/>
<polygon points="341.6,278.3 347.6,278.3 347.6,284.3 341.6,284.3" fill="rgb(255,222,222)"/>
<polygon points="347.6,278.3 353.6,278.3 353.6,284.3 347.6,284.3" fill="rgb(254,171,171)"/>
<polygon points="353.6,278.3 359.6,278.3 359.6,284.3 353.6,284.3" fill="rgb(255,47,47)"/>
<polygon points="161.6,284.3 169.6,284.3 169.6,290.3 161.6,290.3" fill="rgb(228,207,162)"/><text xml:space="preserve" x="165.6" y="290.133" font-family="Calibri" font-size="7.5" fill="rgb(0,0,0)" text-anchor="middle">11</text>
<polygon points="169.6,284.3 177.6,284.3 177.6,290.3 169.6,290.3" fill="rgb(220,188,121)"/><text xml:space="preserve" x="173.6" y="290.133" font-family="Calibri" font-size="7.5" fill="rgb(0,0,0)" text-anchor="middle">13</text>
<polygon points="177.6,284.3 185.6,284.3 185.6,290.3 177.6,290.3" fill="rgb(156,207,203)"/><text xml:space="preserve" x="181.6" y="290.133" font-family="Calibri" font-size="7.5" fill="rgb(0,0,0)" text-anchor="middle">3</text>
<polygon points="195.6,284.3 201.6,284.3 201.6,290.3 195.6,290.3" fill="rgb(255,241,241)"/>
<polygon points="201.6,284.3 207.6,284.3 207.6,290.3 201.6,290.3" fill="rgb(191,191,255)"/>
<polygon points="207.6,284.3 213.6,284.3 213.6,290.3 207.6,290.3" fill="rgb(246,246,255)"/>
<polygon points="213.6,284.3 219.6,284.3 219.6,290.3 213.6,290.3" fill="rgb(238,238,255)"/>
<polygon points="219.6,284.3 225.6,284.3 225.6,290.3 219.6,290.3" fill="rgb(206,206,255)"/>
<polygon points="225.6,284.3 231.6,284.3 231.6,290.3 225.6,290.3" fill="rgb(178,178,255)"/>
<polygon points="231.6,284.3 237.6,284.3 237.6,290.3 231.6,290.3" fill="rgb(255,88,88)"/>
<polygon points="237.6,284.3 243.6,284.3 243.6,290.3 237.6,290.3" fill="rgb(255,0,0)"/>
<polygon points="253.6,284.3 259.6,284.3 259.6,290.3 253.6,290.3" fill="rgb(255,140,140)"/>
<polygon points="259.6,284.3 265.6,284.3 265.6,290.3 259.6,290.3" fill="rgb(255,132,132)"/>
<polygon points="265.6,284.3 271.6,284.3 271.6,290.3 265.6,290.3" fill="rgb(255,164,164)"/>
<polygon points="271.6,284.3 277.6,284.3 277.6,290.3 271.6,290.3" fill="rgb(255,75,75)"/>
<polygon points="277.6,284.3 283.6,284.3 283.6,290.3 277.6,290.3" fill="rgb(255,143,143)"/>
<polygon points="283.6,284.3 289.6,284.3 289.6,290.3 283.6,290.3" fill="rgb(186,186,255)"/>
<polygon points="289.6,284.3 295.6,284.3 295.6,290.3 289.6,290.3" fill="rgb(226,226,255)"/>
<polygon points="295.6,284.3 301.6,284.3 301.6,290.3 295.6,290.3" fill="rgb(255,249,249)"/>
<polygon points="311.6,284.3 317.6,284.3 317.6,290.3 311.6,290.3" fill="rgb(197,197,255)"/>
<polygon points="317.6,284.3 323.6,284.3 323.6,290.3 317.6,290.3" fill="rgb(167,167,255)"/>
<polygon points="323.6,284.3 329.6,284.3 329.6,290.3 323.6,290.3" fill="rgb(154,154,255)"/>
<polygon points="329.6,284.3 335.6,284.3 335.6,290.3 329.6,290.3" fill="rgb(182,182,255)"/>
<polygon points="335.6,284.3 341.6,284.3 341.6,290.3 335.6,290.3" fill="rgb(188,188,255)"/>
<polygon points="341.6,284.3 347.6,284.3 347.6,290.3 341.6,290.3" fill="rgb(196,196,255)"/>
<polygon points="347.6,284.3 353.6,284.3 353.6,290.3 347.6,290.3" fill="rgb(255,155,155)"/>
<polygon points="353.6,284.3 359.6,284.3 359.6,290.3 353.6,290.3" fill="rgb(255,0,0)"/>
<polygon points="161.6,212.3 185.6,212.3 185.6,290.3 161.6,290.3" fill="none" stroke="black" stroke-width="1"/>
<polygon points="195.6,212.3 243.6,212.3 243.6,290.3 195.6,290.3" fill="none" stroke="black" stroke-width="1"/>
<polygon points="253.6,212.3 301.6,212.3 301.6,290.3 253.6,290.3" fill="none" stroke="black" stroke-width="1"/>
<polygon points="311.6,212.3 359.6,212.3 359.6,290.3 311.6,290.3" fill="none" stroke="black" stroke-width="1"/>
<text xml:space="preserve" x="200.8" y="322.633" font-family="Calibri" font-size="6" text-anchor="middle">moduleID</text>
<polygon points="90.8,330.3 110.8,330.3 110.8,350.3 90.8,350.3" fill="rgb(250,250,250)"/><polygon points="90.8,330.3 110.8,330.3 110.8,350.3 90.8,350.3" fill="none" stroke="black" stroke-width="1"/><text xml:space="preserve" x="100.8" y="343.133" font-family="Calibri" font-size="7.5" fill="rgb(0,0,0)" text-anchor="middle">-2.0</text>
<polygon points="110.8,330.3 130.8,330.3 130.8,350.3 110.8,350.3" fill="rgb(156,210,205)"/><polygon points="110.8,330.3 130.8,330.3 130.8,350.3 110.8,350.3" fill="none" stroke="black" stroke-width="1"/><text xml:space="preserve" x="120.8" y="343.133" font-family="Calibri" font-size="7.5" fill="rgb(0,0,0)" text-anchor="middle">-0.4</text>
<polygon points="130.8,330.3 150.8,330.3 150.8,350.3 130.8,350.3" fill="rgb(116,191,184)"/><polygon points="130.8,330.3 150.8,330.3 150.8,350.3 130.8,350.3" fill="none" stroke="black" stroke-width="1"/><text xml:space="preserve" x="140.8" y="343.133" font-family="Calibri" font-size="7.5" fill="rgb(0,0,0)" text-anchor="middle">1.2</text>
<polygon points="150.8,330.3 170.8,330.3 170.8,350.3 150.8,350.3" fill="rgb(152,206,201)"/><polygon points="150.8,330.3 170.8,330.3 170.8,350.3 150.8,350.3" fill="none" stroke="black" stroke-width="1"/><text xml:space="preserve" x="160.8" y="343.133" font-family="Calibri" font-size="7.5" fill="rgb(0,0,0)" text-anchor="middle">2.8</text>
<polygon points="170.8,330.3 190.8,330.3 190.8,350.3 170.8,350.3" fill="rgb(187,220,217)"/><polygon points="170.8,330.3 190.8,330.3 190.8,350.3 170.8,350.3" fill="none" stroke="black" stroke-width="1"/><text xml:space="preserve" x="180.8" y="343.133" font-family="Calibri" font-size="7.5" fill="rgb(0,0,0)" text-anchor="middle">4.4</text>
<polygon points="190.8,330.3 210.8,330.3 210.8,350.3 190.8,350.3" fill="rgb(222,235,234)"/><polygon points="190.8,330.3 210.8,330.3 210.8,350.3 190.8,350.3" fill="none" stroke="black" stroke-width="1"/><text xml:space="preserve" x="200.8" y="343.133" font-family="Calibri" font-size="7.5" fill="rgb(0,0,0)" text-anchor="middle">6.0</text>
<polygon points="210.8,330.3 230.8,330.3 230.8,350.3 210.8,350.3" fill="rgb(242,239,232)"/><polygon points="210.8,330.3 230.8,330.3 230.8,350.3 210.8,350.3" fill="none" stroke="black" stroke-width="1"/><text xml:space="preserve" x="220.8" y="343.133" font-family="Calibri" font-size="7.5" fill="rgb(0,0,0)" text-anchor="middle">7.6</text>
<polygon points="230.8,330.3 250.8,330.3 250.8,350.3 230.8,350.3" fill="rgb(235,224,199)"/><polygon points="230.8,330.3 250.8,330.3 250.8,350.3 230.8,350.3" fill="none" stroke="black" stroke-width="1"/><text xml:space="preserve" x="240.8" y="343.133" font-family="Calibri" font-size="7.5" fill="rgb(0,0,0)" text-anchor="middle">9.2</text>
<polygon points="250.8,330.3 270.8,330.3 270.8,350.3 250.8,350.3" fill="rgb(229,209,166)"/><polygon points="250.8,330.3 270.8,330.3 270.8,350.3 250.8,350.3" fill="none" stroke="black" stroke-width="1"/><text xml:space="preserve" x="260.8" y="343.133" font-family="Calibri" font-size="7.5" fill="rgb(0,0,0)" text-anchor="middle">10.8</text>
<polygon points="270.8,330.3 290.8,330.3 290.8,350.3 270.8,350.3" fill="rgb(222,194,133)"/><polygon points="270.8,330.3 290.8,330.3 290.8,350.3 270.8,350.3" fill="none" stroke="black" stroke-width="1"/><text xml:space="preserve" x="280.8" y="343.133" font-family="Calibri" font-size="7.5" fill="rgb(0,0,0)" text-anchor="middle">12.4</text>
<polygon points="290.8,330.3 310.8,330.3 310.8,350.3 290.8,350.3" fill="rgb(216,179,101)"/><polygon points="290.8,330.3 310.8,330.3 310.8,350.3 290.8,350.3" fill="none" stroke="black" stroke-width="1"/><text xml:space="preserve" x="300.8" y="343.133" font-family="Calibri" font-size="7.5" fill="rgb(0,0,0)" text-anchor="middle">14.0</text>
<text xml:space="preserve" x="200.8" y="382.633" font-family="Calibri" font-size="6" text-anchor="middle">marklevel</text>
<polygon points="90.8,390.3 110.8,390.3 110.8,410.3 90.8,410.3" fill="rgb(0,0,255)"/><polygon points="90.8,390.3 110.8,390.3 110.8,410.3 90.8,410.3" fill="none" stroke="black" stroke-width="1"/><text xml:space="preserve" x="100.8" y="403.133" font-family="Calibri" font-size="7.5" fill="rgb(255,255,255)" text-anchor="middle">-2.0</text>
<polygon points="110.8,390.3 130.8,390.3 130.8,410.3 110.8,410.3" fill="rgb(50,50,255)"/><polygon points="110.8,390.3 130.8,390.3 130.8,410.3 110.8,410.3" fill="none" stroke="black" stroke-width="1"/><text xml:space="preserve" x="120.8" y="403.133" font-family="Calibri" font-size="7.5" fill="rgb(255,255,255)" text-anchor="middle">-1.6</text>
<polygon points="130.8,390.3 150.8,390.3 150.8,410.3 130.8,410.3" fill="rgb(102,102,255)"/><polygon points="130.8,390.3 150.8,390.3 150.8,410.3 130.8,410.3" fill="none" stroke="black" stroke-width="1"/><text xml:space="preserve" x="140.8" y="403.133" font-family="Calibri" font-size="7.5" fill="rgb(255,255,255)" text-anchor="middle">-1.2</text>
<polygon points="150.8,390.3 170.8,390.3 170.8,410.3 150.8,410.3" fill="rgb(153,153,255)"/><polygon points="150.8,390.3 170.8,390.3 170.8,410.3 150.8,410.3" fill="none" stroke="black" stroke-width="1"/><text xml:space="preserve" x="160.8" y="403.133" font-family="Calibri" font-size="7.5" fill="rgb(0,0,0)" text-anchor="middle">-0.8</text>
<polygon points="170.8,390.3 190.8,390.3 190.8,410.3 170.8,410.3" fill="rgb(204,204,255)"/><polygon points="170.8,390.3 190.8,390.3 190.8,410.3 170.8,410.3" fill="none" stroke="black" stroke-width="1"/><text xml:space="preserve" x="180.8" y="403.133" font-family="Calibri" font-size="7.5" fill="rgb(0,0,0)" text-anchor="middle">-0.4</text>
<polygon points="190.8,390.3 210.8,390.3 210.8,410.3 190.8,410.3" fill="rgb(255,255,255)"/><polygon points="190.8,390.3 210.8,390.3 210.8,410.3 190.8,410.3" fill="none" stroke="black" stroke-width="1"/><text xml:space="preserve" x="200.8" y="403.133" font-family="Calibri" font-size="7.5" fill="rgb(0,0,0)" text-anchor="middle">0.0</text>
<polygon points="210.8,390.3 230.8,390.3 230.8,410.3 210.8,410.3" fill="rgb(255,204,204)"/><polygon points="210.8,390.3 230.8,390.3 230.8,410.3 210.8,410.3" fill="none" stroke="black" stroke-width="1"/><text xml:space="preserve" x="220.8" y="403.133" font-family="Calibri" font-size="7.5" fill="rgb(0,0,0)" text-anchor="middle">0.4</text>
<polygon points="230.8,390.3 250.8,390.3 250.8,410.3 230.8,410.3" fill="rgb(255,153,153)"/><polygon points="230.8,390.3 250.8,390.3 250.8,410.3 230.8,410.3" fill="none" stroke="black" stroke-width="1"/><text xml:space="preserve" x="240.8" y="403.133" font-family="Calibri" font-size="7.5" fill="rgb(0,0,0)" text-anchor="middle">0.8</text>
<polygon points="250.8,390.3 270.8,390.3 270.8,410.3 250.8,410.3" fill="rgb(255,102,102)"/><polygon points="250.8,390.3 270.8,390.3 270.8,410.3 250.8,410.3" fill="none" stroke="black" stroke-width="1"/><text xml:space="preserve" x="260.8" y="403.133" font-family="Calibri" font-size="7.5" fill="rgb(0,0,0)" text-anchor="middle">1.2</text>
<polygon points="270.8,390.3 290.8,390.3 290.8,410.3 270.8,410.3" fill="rgb(255,50,50)"/><polygon points="270.8,390.3 290.8,390.3 290.8,410.3 270.8,410.3" fill="none" stroke="black" stroke-width="1"/><text xml:space="preserve" x="280.8" y="403.133" font-family="Calibri" font-size="7.5" fill="rgb(255,255,255)" text-anchor="middle">1.6</text>
<polygon points="290.8,390.3 310.8,390.3 310.8,410.3 290.8,410.3" fill="rgb(255,0,0)"/><polygon points="290.8,390.3 310.8,390.3 310.8,410.3 290.8,410.3" fill="none" stroke="black" stroke-width="1"/><text xml:space="preserve" x="300.8" y="403.133" font-family="Calibri" font-size="7.5" fill="rgb(255,255,255)" text-anchor="middle">2.0</text>
</svg>
