<?xml version="1.0" standalone="no"?><!DOCTYPE svg PUBLIC "-//W3C//DTD SVG 1.1//EN" "http://www.w3.org/Graphics/SVG/1.1/DTD/svg11.dtd">
<svg width="400.7" height="424.3" version="1.1" xmlns="http://www.w3.org/2000/svg">
<text xml:space="preserve" x="156.7" y="217.633" font-family="Calibri" font-size="6" text-anchor="end">3300001G02Rik</text>
<text xml:space="preserve" x="156.7" y="223.633" font-family="Calibri" font-size="6" text-anchor="end">mmu-mir-699</text>
<text xml:space="preserve" x="156.7" y="229.633" font-family="Calibri" font-size="6" text-anchor="end">Fbxo34</text>
<text xml:space="preserve" x="156.7" y="235.633" font-family="Calibri" font-size="6" text-anchor="end">Edg4</text>
<text xml:space="preserve" x="156.7" y="241.633" font-family="Calibri" font-size="6" text-anchor="end">4930427A07Rik</text>
<text xml:space="preserve" x="156.7" y="247.633" font-family="Calibri" font-size="6" text-anchor="end">Hist1h4j</text>
<text xml:space="preserve" x="156.7" y="253.633" font-family="Calibri" font-size="6" text-anchor="end">Vav2</text>
<text xml:space="preserve" x="156.7" y="259.633" font-family="Calibri" font-size="6" text-anchor="end">Stk10</text>
<text xml:space="preserve" x="156.7" y="265.633" font-family="Calibri" font-size="6" text-anchor="end">4833427B12Rik</text>
<text xml:space="preserve" x="156.7" y="271.633" font-family="Calibri" font-size="6" text-anchor="end">Mcm10</text>
<text xml:space="preserve" x="156.7" y="277.633" font-family="Calibri" font-size="6" text-anchor="end">Pif1</text>
<text xml:space="preserve" x="156.7" y="283.633" font-family="Calibri" font-size="6" text-anchor="end">BC025462</text>
<text xml:space="preserve" x="167.033" y="208.3" font-family="Calibri" font-size="6" transform="rotate(270 167.033 208.3)">ips</text>
<text xml:space="preserve" x="175.033" y="208.3" font-family="Calibri" font-size="6" transform="rotate(270 175.033 208.3)">pips</text>
<text xml:space="preserve" x="183.033" y="208.3" font-family="Calibri" font-size="6" transform="rotate(270 183.033 208.3)">mef</text>
<text xml:space="preserve" x="200.033" y="208.3" font-family="Calibri" font-size="6" transform="rotate(270 200.033 208.3)">ips_H3K4me3iPS</text>
<text xml:space="preserve" x="206.033" y="208.3" font-family="Calibri" font-size="6" transform="rotate(270 206.033 208.3)">ips_H3K9aciPS</text>
<text xml:space="preserve" x="212.033" y="208.3" font-family="Calibri" font-size="6" transform="rotate(270 212.033 208.3)">ips_H3K14aciPS</text>
<text xml:space="preserve" x="218.033" y="208.3" font-family="Calibri" font-size="6" transform="rotate(270 218.033 208.3)">ips_H3K18aciPS</text>
<text xml:space="preserve" x="224.033" y="208.3" font-family="Calibri" font-size="6" transform="rotate(270 224.033 208.3)">ips_H3K79me2iPS</text>
<text xml:space="preserve" x="230.033" y="208.3" font-family="Calibri" font-size="6" transform="rotate(270 230.033 208.3)">ips_H3K9me2iPS</text>
<text xml:space="preserve" x="236.033" y="208.3" font-family="Calibri" font-size="6" transform="rotate(270 236.033 208.3)">ips_H3K9me3iPS</text>
<text xml:space="preserve" x="242.033" y="208.3" font-family="Calibri" font-size="6" transform="rotate(270 242.033 208.3)">ips_H3K27me3iPS</text>
<text xml:space="preserve" x="258.033" y="208.3" font-family="Calibri" font-size="6" transform="rotate(270 258.033 208.3)">pips_H3K4me3pips</text>
<text xml:space="preserve" x="264.033" y="208.3" font-family="Calibri" font-size="6" transform="rotate(270 264.033 208.3)">pips_H3K9acpips</text>
<text xml:space="preserve" x="270.033" y="208.3" font-family="Calibri" font-size="6" transform="rotate(270 270.033 208.3)">pips_H3K14acpips</text>
<text xml:space="preserve" x="276.033" y="208.3" font-family="Calibri" font-size="6" transform="rotate(270 276.033 208.3)">pips_H3K18acpips</text>
<text xml:space="preserve" x="282.033" y="208.3" font-family="Calibri" font-size="6" transform="rotate(270 282.033 208.3)">pips_H3K79me2pips</text>
<text xml:space="preserve" x="288.033" y="208.3" font-family="Calibri" font-size="6" transform="rotate(270 288.033 208.3)">pips_H3K9me2pips</text>
<text xml:space="preserve" x="294.033" y="208.3" font-family="Calibri" font-size="6" transform="rotate(270 294.033 208.3)">pips_H3K9me3pips</text>
<text xml:space="preserve" x="300.033" y="208.3" font-family="Calibri" font-size="6" transform="rotate(270 300.033 208.3)">pips_H3K27me3pips</text>
<text xml:space="preserve" x="316.033" y="208.3" font-family="Calibri" font-size="6" transform="rotate(270 316.033 208.3)">mef_H3K4me3mef</text>
<text xml:space="preserve" x="322.033" y="208.3" font-family="Calibri" font-size="6" transform="rotate(270 322.033 208.3)">mef_H3K9acmef</text>
<text xml:space="preserve" x="328.033" y="208.3" font-family="Calibri" font-size="6" transform="rotate(270 328.033 208.3)">mef_H3K14acmef</text>
<text xml:space="preserve" x="334.033" y="208.3" font-family="Calibri" font-size="6" transform="rotate(270 334.033 208.3)">mef_H3K18acmef</text>
<text xml:space="preserve" x="340.033" y="208.3" font-family="Calibri" font-size="6" transform="rotate(270 340.033 208.3)">mef_H3K79me2mef</text>
<text xml:space="preserve" x="346.033" y="208.3" font-family="Calibri" font-size="6" transform="rotate(270 346.033 208.3)">mef_H3K9me2mef</text>
<text xml:space="preserve" x="352.033" y="208.3" font-family="Calibri" font-size="6" transform="rotate(270 352.033 208.3)">mef_H3K9me3mef</text>
<text xml:space="preserve" x="358.033" y="208.3" font-family="Calibri" font-size="6" transform="rotate(270 358.033 208.3)">mef_H3K27me3mef</text>
<polygon points="160.7,212.3 168.7,212.3 168.7,218.3 160.7,218.3" fill="rgb(216,179,101)"/><text xml:space="preserve" x="164.7" y="218.133" font-family="Calibri" font-size="7.5" fill="rgb(0,0,0)" text-anchor="middle">15</text>
<polygon points="168.7,212.3 176.7,212.3 176.7,218.3 168.7,218.3" fill="rgb(240,235,224)"/><text xml:space="preserve" x="172.7" y="218.133" font-family="Calibri" font-size="7.5" fill="rgb(0,0,0)" text-anchor="middle">8</text>
<polygon points="176.7,212.3 184.7,212.3 184.7,218.3 176.7,218.3" fill="rgb(240,235,224)"/><text xml:space="preserve" x="180.7" y="218.133" font-family="Calibri" font-size="7.5" fill="rgb(0,0,0)" text-anchor="middle">8</text>
<polygon points="194.7,212.3 200.7,212.3 200.7,218.3 194.7,218.3" fill="rgb(255,182,182)"/>
<polygon points="200.7,212.3 206.7,212.3 206.7,218.3 200.7,218.3" fill="rgb(255,188,188)"/>
<polygon points="206.7,212.3 212.7,212.3 212.7,218.3 206.7,218.3" fill="rgb(255,232,232)"/>
<polygon points="212.7,212.3 218.7,212.3 218.7,218.3 212.7,218.3" fill="rgb(246,246,255)"/>
<polygon points="218.7,212.3 224.7,212.3 224.7,218.3 218.7,218.3" fill="rgb(255,226,226)"/>
<polygon points="224.7,212.3 230.7,212.3 230.7,218.3 224.7,218.3" fill="rgb(254,211,211)"/>
<polygon points="230.7,212.3 236.7,212.3 236.7,218.3 230.7,218.3" fill="rgb(251,251,255)"/>
<polygon points="236.7,212.3 242.7,212.3 242.7,218.3 236.7,218.3" fill="rgb(255,246,246)"/>
<polygon points="252.7,212.3 258.7,212.3 258.7,218.3 252.7,218.3" fill="rgb(255,214,214)"/>
<polygon points="258.7,212.3 264.7,212.3 264.7,218.3 258.7,218.3" fill="rgb(255,198,198)"/>
<polygon points="264.7,212.3 270.7,212.3 270.7,218.3 264.7,218.3" fill="rgb(236,236,255)"/>
<polygon points="270.7,212.3 276.7,212.3 276.7,218.3 270.7,218.3" fill="rgb(247,247,255)"/>
<polygon points="276.7,212.3 282.7,212.3 282.7,218.3 276.7,218.3" fill="rgb(238,238,255)"/>
<polygon points="282.7,212.3 288.7,212.3 288.7,218.3 282.7,218.3" fill="rgb(188,188,255)"/>
<polygon points="288.7,212.3 294.7,212.3 294.7,218.3 288.7,218.3" fill="rgb(204,204,255)"/>
<polygon points="294.7,212.3 300.7,212.3 300.7,218.3 294.7,218.3" fill="rgb(255,182,182)"/>
<polygon points="310.7,212.3 316.7,212.3 316.7,218.3 310.7,218.3" fill="rgb(255,165,165)"/>
<polygon points="316.7,212.3 322.7,212.3 322.7,218.3 316.7,218.3" fill="rgb(255,171,171)"/>
<polygon points="322.7,212.3 328.7,212.3 328.7,218.3 322.7,218.3" fill="rgb(181,181,255)"/>
<polygon points="328.7,212.3 334.7,212.3 334.7,218.3 328.7,218.3" fill="rgb(200,200,255)"/>
<polygon points="334.7,212.3 340.7,212.3 340.7,218.3 334.7,218.3" fill="rgb(229,229,255)"/>
<polygon points="340.7,212.3 346.7,212.3 346.7,218.3 340.7,218.3" fill="rgb(173,173,255)"/>
<polygon points="346.7,212.3 352.7,212.3 352.7,218.3 346.7,218.3" fill="rgb(225,225,255)"/>
<polygon points="352.7,212.3 358.7,212.3 358.7,218.3 352.7,218.3" fill="rgb(255,206,206)"/>
<polygon points="160.7,218.3 168.7,218.3 168.7,224.3 160.7,224.3" fill="rgb(216,179,101)"/><text xml:space="preserve" x="164.7" y="224.133" font-family="Calibri" font-size="7.5" fill="rgb(0,0,0)" text-anchor="middle">15</text>
<polygon points="168.7,218.3 176.7,218.3 176.7,224.3 168.7,224.3" fill="rgb(240,235,224)"/><text xml:space="preserve" x="172.7" y="224.133" font-family="Calibri" font-size="7.5" fill="rgb(0,0,0)" text-anchor="middle">8</text>
<polygon points="176.7,218.3 184.7,218.3 184.7,224.3 176.7,224.3" fill="rgb(240,235,224)"/><text xml:space="preserve" x="180.7" y="224.133" font-family="Calibri" font-size="7.5" fill="rgb(0,0,0)" text-anchor="middle">8</text>
<polygon points="194.7,218.3 200.7,218.3 200.7,224.3 194.7,224.3" fill="rgb(255,236,236)"/>
<polygon points="200.7,218.3 206.7,218.3 206.7,224.3 200.7,224.3" fill="rgb(255,192,192)"/>
<polygon points="206.7,218.3 212.7,218.3 212.7,224.3 206.7,224.3" fill="rgb(255,218,218)"/>
<polygon points="212.7,218.3 218.7,218.3 218.7,224.3 212.7,224.3" fill="rgb(255,222,222)"/>
<polygon points="218.7,218.3 224.7,218.3 224.7,224.3 218.7,224.3" fill="rgb(255,254,254)"/>
<polygon points="224.7,218.3 230.7,218.3 230.7,224.3 224.7,224.3" fill="rgb(198,198,255)"/>
<polygon points="230.7,218.3 236.7,218.3 236.7,224.3 230.7,224.3" fill="rgb(254,239,239)"/>
<polygon points="236.7,218.3 242.7,218.3 242.7,224.3 236.7,224.3" fill="rgb(193,193,255)"/>
<polygon points="252.7,218.3 258.7,218.3 258.7,224.3 252.7,224.3" fill="rgb(255,212,212)"/>
<polygon points="258.7,218.3 264.7,218.3 264.7,224.3 258.7,224.3" fill="rgb(255,211,211)"/>
<polygon points="264.7,218.3 270.7,218.3 270.7,224.3 264.7,224.3" fill="rgb(237,237,255)"/>
<polygon points="270.7,218.3 276.7,218.3 276.7,224.3 270.7,224.3" fill="rgb(255,230,230)"/>
<polygon points="276.7,218.3 282.7,218.3 282.7,224.3 276.7,224.3" fill="rgb(239,239,255)"/>
<polygon points="282.7,218.3 288.7,218.3 288.7,224.3 282.7,224.3" fill="rgb(255,168,168)"/>
<polygon points="288.7,218.3 294.7,218.3 294.7,224.3 288.7,224.3" fill="rgb(255,216,216)"/>
<polygon points="294.7,218.3 300.7,218.3 300.7,224.3 294.7,224.3" fill="rgb(226,226,255)"/>
<polygon points="310.7,218.3 316.7,218.3 316.7,224.3 310.7,224.3" fill="rgb(255,224,224)"/>
<polygon points="316.7,218.3 322.7,218.3 322.7,224.3 316.7,224.3" fill="rgb(255,208,208)"/>
<polygon points="322.7,218.3 328.7,218.3 328.7,224.3 322.7,224.3" fill="rgb(255,253,253)"/>
<polygon points="328.7,218.3 334.7,218.3 334.7,224.3 328.7,224.3" fill="rgb(255,249,249)"/>
<polygon points="334.7,218.3 340.7,218.3 340.7,224.3 334.7,224.3" fill="rgb(254,251,251)"/>
<polygon points="340.7,218.3 346.7,218.3 346.7,224.3 340.7,224.3" fill="rgb(255,241,241)"/>
<polygon points="346.7,218.3 352.7,218.3 352.7,224.3 346.7,224.3" fill="rgb(208,208,255)"/>
<polygon points="352.7,218.3 358.7,218.3 358.7,224.3 352.7,224.3" fill="rgb(195,195,255)"/>
<polygon points="160.7,224.3 168.7,224.3 168.7,230.3 160.7,230.3" fill="rgb(216,179,101)"/><text xml:space="preserve" x="164.7" y="230.133" font-family="Calibri" font-size="7.5" fill="rgb(0,0,0)" text-anchor="middle">14</text>
<polygon points="168.7,224.3 176.7,224.3 176.7,230.3 168.7,230.3" fill="rgb(240,235,224)"/><text xml:space="preserve" x="172.7" y="230.133" font-family="Calibri" font-size="7.5" fill="rgb(0,0,0)" text-anchor="middle">8</text>
<polygon points="176.7,224.3 184.7,224.3 184.7,230.3 176.7,230.3" fill="rgb(240,235,224)"/><text xml:space="preserve" x="180.7" y="230.133" font-family="Calibri" font-size="7.5" fill="rgb(0,0,0)" text-anchor="middle">8</text>
<polygon points="194.7,224.3 200.7,224.3 200.7,230.3 194.7,230.3" fill="rgb(239,239,255)"/>
<polygon points="200.7,224.3 206.7,224.3 206.7,230.3 200.7,230.3" fill="rgb(255,230,230)"/>
<polygon points="206.7,224.3 212.7,224.3 212.7,230.3 206.7,230.3" fill="rgb(254,211,211)"/>
<polygon points="212.7,224.3 218.7,224.3 218.7,230.3 212.7,230.3" fill="rgb(255,197,197)"/>
<polygon points="218.7,224.3 224.7,224.3 224.7,230.3 218.7,230.3" fill="rgb(254,249,249)"/>
<polygon points="224.7,224.3 230.7,224.3 230.7,230.3 224.7,230.3" fill="rgb(244,244,255)"/>
<polygon points="230.7,224.3 236.7,224.3 236.7,230.3 230.7,230.3" fill="rgb(255,246,246)"/>
<polygon points="236.7,224.3 242.7,224.3 242.7,230.3 236.7,230.3" fill="rgb(254,254,255)"/>
<polygon points="252.7,224.3 258.7,224.3 258.7,230.3 252.7,230.3" fill="rgb(227,227,255)"/>
<polygon points="258.7,224.3 264.7,224.3 264.7,230.3 258.7,230.3" fill="rgb(255,241,241)"/>
<polygon points="264.7,224.3 270.7,224.3 270.7,230.3 264.7,230.3" fill="rgb(255,248,248)"/>
<polygon points="270.7,224.3 276.7,224.3 276.7,230.3 270.7,230.3" fill="rgb(220,220,255)"/>
<polygon points="276.7,224.3 282.7,224.3 282.7,230.3 276.7,230.3" fill="rgb(254,254,255)"/>
<polygon points="282.7,224.3 288.7,224.3 288.7,230.3 282.7,230.3" fill="rgb(253,253,255)"/>
<polygon points="288.7,224.3 294.7,224.3 294.7,230.3 288.7,230.3" fill="rgb(240,240,255)"/>
<polygon points="294.7,224.3 300.7,224.3 300.7,230.3 294.7,230.3" fill="rgb(255,251,251)"/>
<polygon points="310.7,224.3 316.7,224.3 316.7,230.3 310.7,230.3" fill="rgb(240,240,255)"/>
<polygon points="316.7,224.3 322.7,224.3 322.7,230.3 316.7,230.3" fill="rgb(255,243,243)"/>
<polygon points="322.7,224.3 328.7,224.3 328.7,230.3 322.7,230.3" fill="rgb(255,246,246)"/>
<polygon points="328.7,224.3 334.7,224.3 334.7,230.3 328.7,230.3" fill="rgb(255,244,244)"/>
<polygon points="334.7,224.3 340.7,224.3 340.7,230.3 334.7,230.3" fill="rgb(254,254,255)"/>
<polygon points="340.7,224.3 346.7,224.3 346.7,230.3 340.7,230.3" fill="rgb(248,248,255)"/>
<polygon points="346.7,224.3 352.7,224.3 352.7,230.3 346.7,230.3" fill="rgb(255,253,253)"/>
<polygon points="352.7,224.3 358.7,224.3 358.7,230.3 352.7,230.3" fill="rgb(249,249,255)"/>
<polygon points="160.7,230.3 168.7,230.3 168.7,236.3 160.7,236.3" fill="rgb(216,179,101)"/><text xml:space="preserve" x="164.7" y="236.133" font-family="Calibri" font-size="7.5" fill="rgb(0,0,0)" text-anchor="middle">14</text>
<polygon points="168.7,230.3 176.7,230.3 176.7,236.3 168.7,236.3" fill="rgb(240,235,224)"/><text xml:space="preserve" x="172.7" y="236.133" font-family="Calibri" font-size="7.5" fill="rgb(0,0,0)" text-anchor="middle">8</text>
<polygon points="176.7,230.3 184.7,230.3 184.7,236.3 176.7,236.3" fill="rgb(240,235,224)"/><text xml:space="preserve" x="180.7" y="236.133" font-family="Calibri" font-size="7.5" fill="rgb(0,0,0)" text-anchor="middle">8</text>
<polygon points="194.7,230.3 200.7,230.3 200.7,236.3 194.7,236.3" fill="rgb(255,239,239)"/>
<polygon points="200.7,230.3 206.7,230.3 206.7,236.3 200.7,236.3" fill="rgb(255,221,221)"/>
<polygon points="206.7,230.3 212.7,230.3 212.7,236.3 206.7,236.3" fill="rgb(255,178,178)"/>
<polygon points="212.7,230.3 218.7,230.3 218.7,236.3 212.7,236.3" fill="rgb(255,189,189)"/>
<polygon points="218.7,230.3 224.7,230.3 224.7,236.3 218.7,236.3" fill="rgb(230,230,255)"/>
<polygon points="224.7,230.3 230.7,230.3 230.7,236.3 224.7,236.3" fill="rgb(255,229,229)"/>
<polygon points="230.7,230.3 236.7,230.3 236.7,236.3 230.7,236.3" fill="rgb(255,212,212)"/>
<polygon points="236.7,230.3 242.7,230.3 242.7,236.3 236.7,236.3" fill="rgb(255,223,223)"/>
<polygon points="252.7,230.3 258.7,230.3 258.7,236.3 252.7,236.3" fill="rgb(234,234,255)"/>
<polygon points="258.7,230.3 264.7,230.3 264.7,236.3 258.7,236.3" fill="rgb(253,253,255)"/>
<polygon points="264.7,230.3 270.7,230.3 270.7,236.3 264.7,236.3" fill="rgb(225,225,255)"/>
<polygon points="270.7,230.3 276.7,230.3 276.7,236.3 270.7,236.3" fill="rgb(255,248,248)"/>
<polygon points="276.7,230.3 282.7,230.3 282.7,236.3 276.7,236.3" fill="rgb(231,231,255)"/>
<polygon points="282.7,230.3 288.7,230.3 288.7,236.3 282.7,236.3" fill="rgb(255,251,251)"/>
<polygon points="288.7,230.3 294.7,230.3 294.7,236.3 288.7,236.3" fill="rgb(228,228,255)"/>
<polygon points="294.7,230.3 300.7,230.3 300.7,236.3 294.7,236.3" fill="rgb(255,247,247)"/>
<polygon points="310.7,230.3 316.7,230.3 316.7,236.3 310.7,236.3" fill="rgb(239,239,255)"/>
<polygon points="316.7,230.3 322.7,230.3 322.7,236.3 316.7,236.3" fill="rgb(255,250,250)"/>
<polygon points="322.7,230.3 328.7,230.3 328.7,236.3 322.7,236.3" fill="rgb(228,228,255)"/>
<polygon points="328.7,230.3 334.7,230.3 334.7,236.3 328.7,236.3" fill="rgb(253,253,255)"/>
<polygon points="334.7,230.3 340.7,230.3 340.7,236.3 334.7,236.3" fill="rgb(245,245,255)"/>
<polygon points="340.7,230.3 346.7,230.3 346.7,236.3 340.7,236.3" fill="rgb(217,217,255)"/>
<polygon points="346.7,230.3 352.7,230.3 352.7,236.3 346.7,236.3" fill="rgb(229,229,255)"/>
<polygon points="352.7,230.3 358.7,230.3 358.7,236.3 352.7,236.3" fill="rgb(200,200,255)"/>
<polygon points="160.7,236.3 168.7,236.3 168.7,242.3 160.7,242.3" fill="rgb(216,179,101)"/><text xml:space="preserve" x="164.7" y="242.133" font-family="Calibri" font-size="7.5" fill="rgb(0,0,0)" text-anchor="middle">14</text>
<polygon points="168.7,236.3 176.7,236.3 176.7,242.3 168.7,242.3" fill="rgb(240,235,224)"/><text xml:space="preserve" x="172.7" y="242.133" font-family="Calibri" font-size="7.5" fill="rgb(0,0,0)" text-anchor="middle">8</text>
<polygon points="176.7,236.3 184.7,236.3 184.7,242.3 176.7,242.3" fill="rgb(240,235,224)"/><text xml:space="preserve" x="180.7" y="242.133" font-family="Calibri" font-size="7.5" fill="rgb(0,0,0)" text-anchor="middle">8</text>
<polygon points="194.7,236.3 200.7,236.3 200.7,242.3 194.7,242.3" fill="rgb(255,203,203)"/>
<polygon points="200.7,236.3 206.7,236.3 206.7,242.3 200.7,242.3" fill="rgb(244,244,255)"/>
<polygon points="206.7,236.3 212.7,236.3 212.7,242.3 206.7,242.3" fill="rgb(255,215,215)"/>
<polygon points="212.7,236.3 218.7,236.3 218.7,242.3 212.7,242.3" fill="rgb(255,190,190)"/>
<polygon points="218.7,236.3 224.7,236.3 224.7,242.3 218.7,242.3" fill="rgb(255,253,253)"/>
<polygon points="224.7,236.3 230.7,236.3 230.7,242.3 224.7,242.3" fill="rgb(255,253,253)"/>
<polygon points="230.7,236.3 236.7,236.3 236.7,242.3 230.7,242.3" fill="rgb(255,245,245)"/>
<polygon points="236.7,236.3 242.7,236.3 242.7,242.3 236.7,242.3" fill="rgb(255,249,249)"/>
<polygon points="252.7,236.3 258.7,236.3 258.7,242.3 252.7,242.3" fill="rgb(255,234,234)"/>
<polygon points="258.7,236.3 264.7,236.3 264.7,242.3 258.7,242.3" fill="rgb(255,240,240)"/>
<polygon points="264.7,236.3 270.7,236.3 270.7,242.3 264.7,242.3" fill="rgb(239,239,255)"/>
<polygon points="270.7,236.3 276.7,236.3 276.7,242.3 270.7,242.3" fill="rgb(255,182,182)"/>
<polygon points="276.7,236.3 282.7,236.3 282.7,242.3 276.7,242.3" fill="rgb(254,234,234)"/>
<polygon points="282.7,236.3 288.7,236.3 288.7,242.3 282.7,242.3" fill="rgb(232,232,255)"/>
<polygon points="288.7,236.3 294.7,236.3 294.7,242.3 288.7,242.3" fill="rgb(197,197,255)"/>
<polygon points="294.7,236.3 300.7,236.3 300.7,242.3 294.7,242.3" fill="rgb(236,236,255)"/>
<polygon points="310.7,236.3 316.7,236.3 316.7,242.3 310.7,242.3" fill="rgb(255,193,193)"/>
<polygon points="316.7,236.3 322.7,236.3 322.7,242.3 316.7,242.3" fill="rgb(255,232,232)"/>
<polygon points="322.7,236.3 328.7,236.3 328.7,242.3 322.7,242.3" fill="rgb(255,233,233)"/>
<polygon points="328.7,236.3 334.7,236.3 334.7,242.3 328.7,242.3" fill="rgb(254,237,237)"/>
<polygon points="334.7,236.3 340.7,236.3 340.7,242.3 334.7,242.3" fill="rgb(224,224,255)"/>
<polygon points="340.7,236.3 346.7,236.3 346.7,242.3 340.7,242.3" fill="rgb(217,217,255)"/>
<polygon points="346.7,236.3 352.7,236.3 352.7,242.3 346.7,242.3" fill="rgb(191,191,255)"/>
<polygon points="352.7,236.3 358.7,236.3 358.7,242.3 352.7,242.3" fill="rgb(209,209,255)"/>
<polygon points="160.7,242.3 168.7,242.3 168.7,248.3 160.7,248.3" fill="rgb(216,179,101)"/><text xml:space="preserve" x="164.7" y="248.133" font-family="Calibri" font-size="7.5" fill="rgb(0,0,0)" text-anchor="middle">14</text>
<polygon points="168.7,242.3 176.7,242.3 176.7,248.3 168.7,248.3" fill="rgb(240,235,224)"/><text xml:space="preserve" x="172.7" y="248.133" font-family="Calibri" font-size="7.5" fill="rgb(0,0,0)" text-anchor="middle">8</text>
<polygon points="176.7,242.3 184.7,242.3 184.7,248.3 176.7,248.3" fill="rgb(240,235,224)"/><text xml:space="preserve" x="180.7" y="248.133" font-family="Calibri" font-size="7.5" fill="rgb(0,0,0)" text-anchor="middle">8</text>
<polygon points="194.7,242.3 200.7,242.3 200.7,248.3 194.7,248.3" fill="rgb(255,229,229)"/>
<polygon points="200.7,242.3 206.7,242.3 206.7,248.3 200.7,248.3" fill="rgb(255,231,231)"/>
<polygon points="206.7,242.3 212.7,242.3 212.7,248.3 206.7,248.3" fill="rgb(254,217,217)"/>
<polygon points="212.7,242.3 218.7,242.3 218.7,248.3 212.7,248.3" fill="rgb(255,178,178)"/>
<polygon points="218.7,242.3 224.7,242.3 224.7,248.3 218.7,248.3" fill="rgb(248,248,255)"/>
<polygon points="224.7,242.3 230.7,242.3 230.7,248.3 224.7,248.3" fill="rgb(217,217,255)"/>
<polygon points="230.7,242.3 236.7,242.3 236.7,248.3 230.7,248.3" fill="rgb(255,189,189)"/>
<polygon points="236.7,242.3 242.7,242.3 242.7,248.3 236.7,248.3" fill="rgb(168,168,255)"/>
<polygon points="252.7,242.3 258.7,242.3 258.7,248.3 252.7,248.3" fill="rgb(255,194,194)"/>
<polygon points="258.7,242.3 264.7,242.3 264.7,248.3 258.7,248.3" fill="rgb(255,233,233)"/>
<polygon points="264.7,242.3 270.7,242.3 270.7,248.3 264.7,248.3" fill="rgb(255,254,254)"/>
<polygon points="270.7,242.3 276.7,242.3 276.7,248.3 270.7,248.3" fill="rgb(255,227,227)"/>
<polygon points="276.7,242.3 282.7,242.3 282.7,248.3 276.7,248.3" fill="rgb(240,240,255)"/>
<polygon points="282.7,242.3 288.7,242.3 288.7,248.3 282.7,248.3" fill="rgb(199,199,255)"/>
<polygon points="288.7,242.3 294.7,242.3 294.7,248.3 288.7,248.3" fill="rgb(255,247,247)"/>
<polygon points="294.7,242.3 300.7,242.3 300.7,248.3 294.7,248.3" fill="rgb(224,224,255)"/>
<polygon points="310.7,242.3 316.7,242.3 316.7,248.3 310.7,248.3" fill="rgb(254,214,214)"/>
<polygon points="316.7,242.3 322.7,242.3 322.7,248.3 316.7,248.3" fill="rgb(255,243,243)"/>
<polygon points="322.7,242.3 328.7,242.3 328.7,248.3 322.7,248.3" fill="rgb(214,214,255)"/>
<polygon points="328.7,242.3 334.7,242.3 334.7,248.3 328.7,248.3" fill="rgb(255,233,233)"/>
<polygon points="334.7,242.3 340.7,242.3 340.7,248.3 334.7,248.3" fill="rgb(255,250,250)"/>
<polygon points="340.7,242.3 346.7,242.3 346.7,248.3 340.7,248.3" fill="rgb(255,235,235)"/>
<polygon points="346.7,242.3 352.7,242.3 352.7,248.3 346.7,248.3" fill="rgb(219,219,255)"/>
<polygon points="352.7,242.3 358.7,242.3 358.7,248.3 352.7,248.3" fill="rgb(188,188,255)"/>
<polygon points="160.7,248.3 168.7,248.3 168.7,254.3 160.7,254.3" fill="rgb(216,179,101)"/><text xml:space="preserve" x="164.7" y="254.133" font-family="Calibri" font-size="7.5" fill="rgb(0,0,0)" text-anchor="middle">14</text>
<polygon points="168.7,248.3 176.7,248.3 176.7,254.3 168.7,254.3" fill="rgb(240,235,224)"/><text xml:space="preserve" x="172.7" y="254.133" font-family="Calibri" font-size="7.5" fill="rgb(0,0,0)" text-anchor="middle">8</text>
<polygon points="176.7,248.3 184.7,248.3 184.7,254.3 176.7,254.3" fill="rgb(240,235,224)"/><text xml:space="preserve" x="180.7" y="254.133" font-family="Calibri" font-size="7.5" fill="rgb(0,0,0)" text-anchor="middle">8</text>
<polygon points="194.7,248.3 200.7,248.3 200.7,254.3 194.7,254.3" fill="rgb(254,248,248)"/>
<polygon points="200.7,248.3 206.7,248.3 206.7,254.3 200.7,254.3" fill="rgb(253,253,255)"/>
<polygon points="206.7,248.3 212.7,248.3 212.7,254.3 206.7,254.3" fill="rgb(254,229,229)"/>
<polygon points="212.7,248.3 218.7,248.3 218.7,254.3 212.7,254.3" fill="rgb(255,191,191)"/>
<polygon points="218.7,248.3 224.7,248.3 224.7,254.3 218.7,254.3" fill="rgb(254,248,248)"/>
<polygon points="224.7,248.3 230.7,248.3 230.7,254.3 224.7,254.3" fill="rgb(255,228,228)"/>
<polygon points="230.7,248.3 236.7,248.3 236.7,254.3 230.7,254.3" fill="rgb(220,220,255)"/>
<polygon points="236.7,248.3 242.7,248.3 242.7,254.3 236.7,254.3" fill="rgb(255,233,233)"/>
<polygon points="252.7,248.3 258.7,248.3 258.7,254.3 252.7,254.3" fill="rgb(255,248,248)"/>
<polygon points="258.7,248.3 264.7,248.3 264.7,254.3 258.7,254.3" fill="rgb(254,242,242)"/>
<polygon points="264.7,248.3 270.7,248.3 270.7,254.3 264.7,254.3" fill="rgb(255,233,233)"/>
<polygon points="270.7,248.3 276.7,248.3 276.7,254.3 270.7,254.3" fill="rgb(255,207,207)"/>
<polygon points="276.7,248.3 282.7,248.3 282.7,254.3 276.7,254.3" fill="rgb(255,239,239)"/>
<polygon points="282.7,248.3 288.7,248.3 288.7,254.3 282.7,254.3" fill="rgb(222,222,255)"/>
<polygon points="288.7,248.3 294.7,248.3 294.7,254.3 288.7,254.3" fill="rgb(196,196,255)"/>
<polygon points="294.7,248.3 300.7,248.3 300.7,254.3 294.7,254.3" fill="rgb(254,225,225)"/>
<polygon points="310.7,248.3 316.7,248.3 316.7,254.3 310.7,254.3" fill="rgb(255,250,250)"/>
<polygon points="316.7,248.3 322.7,248.3 322.7,254.3 316.7,254.3" fill="rgb(254,253,253)"/>
<polygon points="322.7,248.3 328.7,248.3 328.7,254.3 322.7,254.3" fill="rgb(220,220,255)"/>
<polygon points="328.7,248.3 334.7,248.3 334.7,254.3 328.7,254.3" fill="rgb(254,250,250)"/>
<polygon points="334.7,248.3 340.7,248.3 340.7,254.3 334.7,254.3" fill="rgb(239,239,255)"/>
<polygon points="340.7,248.3 346.7,248.3 346.7,254.3 340.7,254.3" fill="rgb(196,196,255)"/>
<polygon points="346.7,248.3 352.7,248.3 352.7,254.3 346.7,254.3" fill="rgb(220,220,255)"/>
<polygon points="352.7,248.3 358.7,248.3 358.7,254.3 352.7,254.3" fill="rgb(255,238,238)"/>
<polygon points="160.7,254.3 168.7,254.3 168.7,260.3 160.7,260.3" fill="rgb(216,179,101)"/><text xml:space="preserve" x="164.7" y="260.133" font-family="Calibri" font-size="7.5" fill="rgb(0,0,0)" text-anchor="middle">14</text>
<polygon points="168.7,254.3 176.7,254.3 176.7,260.3 168.7,260.3" fill="rgb(240,235,224)"/><text xml:space="preserve" x="172.7" y="260.133" font-family="Calibri" font-size="7.5" fill="rgb(0,0,0)" text-anchor="middle">8</text>
<polygon points="176.7,254.3 184.7,254.3 184.7,260.3 176.7,260.3" fill="rgb(240,235,224)"/><text xml:space="preserve" x="180.7" y="260.133" font-family="Calibri" font-size="7.5" fill="rgb(0,0,0)" text-anchor="middle">8</text>
<polygon points="194.7,254.3 200.7,254.3 200.7,260.3 194.7,260.3" fill="rgb(255,208,208)"/>
<polygon points="200.7,254.3 206.7,254.3 206.7,260.3 200.7,260.3" fill="rgb(255,241,241)"/>
<polygon points="206.7,254.3 212.7,254.3 212.7,260.3 206.7,260.3" fill="rgb(253,253,255)"/>
<polygon points="212.7,254.3 218.7,254.3 218.7,260.3 212.7,260.3" fill="rgb(255,229,229)"/>
<polygon points="218.7,254.3 224.7,254.3 224.7,260.3 218.7,260.3" fill="rgb(209,209,255)"/>
<polygon points="224.7,254.3 230.7,254.3 230.7,260.3 224.7,260.3" fill="rgb(249,249,255)"/>
<polygon points="230.7,254.3 236.7,254.3 236.7,260.3 230.7,260.3" fill="rgb(234,234,255)"/>
<polygon points="236.7,254.3 242.7,254.3 242.7,260.3 236.7,260.3" fill="rgb(255,168,168)"/>
<polygon points="252.7,254.3 258.7,254.3 258.7,260.3 252.7,260.3" fill="rgb(255,243,243)"/>
<polygon points="258.7,254.3 264.7,254.3 264.7,260.3 258.7,260.3" fill="rgb(255,250,250)"/>
<polygon points="264.7,254.3 270.7,254.3 270.7,260.3 264.7,260.3" fill="rgb(255,221,221)"/>
<polygon points="270.7,254.3 276.7,254.3 276.7,260.3 270.7,260.3" fill="rgb(255,181,181)"/>
<polygon points="276.7,254.3 282.7,254.3 282.7,260.3 276.7,260.3" fill="rgb(236,236,255)"/>
<polygon points="282.7,254.3 288.7,254.3 288.7,260.3 282.7,260.3" fill="rgb(190,190,255)"/>
<polygon points="288.7,254.3 294.7,254.3 294.7,260.3 288.7,260.3" fill="rgb(174,174,255)"/>
<polygon points="294.7,254.3 300.7,254.3 300.7,260.3 294.7,260.3" fill="rgb(224,224,255)"/>
<polygon points="310.7,254.3 316.7,254.3 316.7,260.3 310.7,260.3" fill="rgb(255,193,193)"/>
<polygon points="316.7,254.3 322.7,254.3 322.7,260.3 316.7,260.3" fill="rgb(255,243,243)"/>
<polygon points="322.7,254.3 328.7,254.3 328.7,260.3 322.7,260.3" fill="rgb(244,244,255)"/>
<polygon points="328.7,254.3 334.7,254.3 334.7,260.3 328.7,260.3" fill="rgb(255,199,199)"/>
<polygon points="334.7,254.3 340.7,254.3 340.7,260.3 334.7,260.3" fill="rgb(223,223,255)"/>
<polygon points="340.7,254.3 346.7,254.3 346.7,260.3 340.7,260.3" fill="rgb(194,194,255)"/>
<polygon points="346.7,254.3 352.7,254.3 352.7,260.3 346.7,260.3" fill="rgb(228,228,255)"/>
<polygon points="352.7,254.3 358.7,254.3 358.7,260.3 352.7,260.3" fill="rgb(194,194,255)"/>
<polygon points="160.7,260.3 168.7,260.3 168.7,266.3 160.7,266.3" fill="rgb(216,179,101)"/><text xml:space="preserve" x="164.7" y="266.133" font-family="Calibri" font-size="7.5" fill="rgb(0,0,0)" text-anchor="middle">14</text>
<polygon points="168.7,260.3 176.7,260.3 176.7,266.3 168.7,266.3" fill="rgb(240,235,224)"/><text xml:space="preserve" x="172.7" y="266.133" font-family="Calibri" font-size="7.5" fill="rgb(0,0,0)" text-anchor="middle">8</text>
<polygon points="176.7,260.3 184.7,260.3 184.7,266.3 176.7,266.3" fill="rgb(240,235,224)"/><text xml:space="preserve" x="180.7" y="266.133" font-family="Calibri" font-size="7.5" fill="rgb(0,0,0)" text-anchor="middle">8</text>
<polygon points="194.7,260.3 200.7,260.3 200.7,266.3 194.7,266.3" fill="rgb(255,242,242)"/>
<polygon points="200.7,260.3 206.7,260.3 206.7,266.3 200.7,266.3" fill="rgb(255,232,232)"/>
<polygon points="206.7,260.3 212.7,260.3 212.7,266.3 206.7,266.3" fill="rgb(255,221,221)"/>
<polygon points="212.7,260.3 218.7,260.3 218.7,266.3 212.7,266.3" fill="rgb(255,215,215)"/>
<polygon points="218.7,260.3 224.7,260.3 224.7,266.3 218.7,266.3" fill="rgb(255,249,249)"/>
<polygon points="224.7,260.3 230.7,260.3 230.7,266.3 224.7,266.3" fill="rgb(255,234,234)"/>
<polygon points="230.7,260.3 236.7,260.3 236.7,266.3 230.7,266.3" fill="rgb(255,182,182)"/>
<polygon points="236.7,260.3 242.7,260.3 242.7,266.3 236.7,266.3" fill="rgb(209,209,255)"/>
<polygon points="252.7,260.3 258.7,260.3 258.7,266.3 252.7,266.3" fill="rgb(255,249,249)"/>
<polygon points="258.7,260.3 264.7,260.3 264.7,266.3 258.7,266.3" fill="rgb(253,253,255)"/>
<polygon points="264.7,260.3 270.7,260.3 270.7,266.3 264.7,266.3" fill="rgb(230,230,255)"/>
<polygon points="270.7,260.3 276.7,260.3 276.7,266.3 270.7,266.3" fill="rgb(243,243,255)"/>
<polygon points="276.7,260.3 282.7,260.3 282.7,266.3 276.7,266.3" fill="rgb(212,212,255)"/>
<polygon points="282.7,260.3 288.7,260.3 288.7,266.3 282.7,266.3" fill="rgb(215,215,255)"/>
<polygon points="288.7,260.3 294.7,260.3 294.7,266.3 288.7,266.3" fill="rgb(243,243,255)"/>
<polygon points="294.7,260.3 300.7,260.3 300.7,266.3 294.7,266.3" fill="rgb(231,231,255)"/>
<polygon points="310.7,260.3 316.7,260.3 316.7,266.3 310.7,266.3" fill="rgb(255,235,235)"/>
<polygon points="316.7,260.3 322.7,260.3 322.7,266.3 316.7,266.3" fill="rgb(255,222,222)"/>
<polygon points="322.7,260.3 328.7,260.3 328.7,266.3 322.7,266.3" fill="rgb(254,249,249)"/>
<polygon points="328.7,260.3 334.7,260.3 334.7,266.3 328.7,266.3" fill="rgb(239,239,255)"/>
<polygon points="334.7,260.3 340.7,260.3 340.7,266.3 334.7,266.3" fill="rgb(224,224,255)"/>
<polygon points="340.7,260.3 346.7,260.3 346.7,266.3 340.7,266.3" fill="rgb(202,202,255)"/>
<polygon points="346.7,260.3 352.7,260.3 352.7,266.3 346.7,266.3" fill="rgb(255,250,250)"/>
<polygon points="352.7,260.3 358.7,260.3 358.7,266.3 352.7,266.3" fill="rgb(230,230,255)"/>
<polygon points="160.7,266.3 168.7,266.3 168.7,272.3 160.7,272.3" fill="rgb(220,188,121)"/><text xml:space="preserve" x="164.7" y="272.133" font-family="Calibri" font-size="7.5" fill="rgb(0,0,0)" text-anchor="middle">13</text>
<polygon points="168.7,266.3 176.7,266.3 176.7,272.3 168.7,272.3" fill="rgb(240,235,224)"/><text xml:space="preserve" x="172.7" y="272.133" font-family="Calibri" font-size="7.5" fill="rgb(0,0,0)" text-anchor="middle">8</text>
<polygon points="176.7,266.3 184.7,266.3 184.7,272.3 176.7,272.3" fill="rgb(240,235,224)"/><text xml:space="preserve" x="180.7" y="272.133" font-family="Calibri" font-size="7.5" fill="rgb(0,0,0)" text-anchor="middle">8</text>
<polygon points="194.7,266.3 200.7,266.3 200.7,272.3 194.7,272.3" fill="rgb(255,169,169)"/>
<polygon points="200.7,266.3 206.7,266.3 206.7,272.3 200.7,272.3" fill="rgb(255,163,163)"/>
<polygon points="206.7,266.3 212.7,266.3 212.7,272.3 206.7,272.3" fill="rgb(255,133,133)"/>
<polygon points="212.7,266.3 218.7,266.3 218.7,272.3 212.7,272.3" fill="rgb(255,176,176)"/>
<polygon points="218.7,266.3 224.7,266.3 224.7,272.3 218.7,272.3" fill="rgb(255,163,163)"/>
<polygon points="224.7,266.3 230.7,266.3 230.7,272.3 224.7,272.3" fill="rgb(255,214,214)"/>
<polygon points="230.7,266.3 236.7,266.3 236.7,272.3 230.7,272.3" fill="rgb(255,72,72)"/>
<polygon points="236.7,266.3 242.7,266.3 242.7,272.3 236.7,272.3" fill="rgb(159,159,255)"/>
<polygon points="252.7,266.3 258.7,266.3 258.7,272.3 252.7,272.3" fill="rgb(255,203,203)"/>
<polygon points="258.7,266.3 264.7,266.3 264.7,272.3 258.7,272.3" fill="rgb(255,232,232)"/>
<polygon points="264.7,266.3 270.7,266.3 270.7,272.3 264.7,272.3" fill="rgb(222,222,255)"/>
<polygon points="270.7,266.3 276.7,266.3 276.7,272.3 270.7,272.3" fill="rgb(240,240,255)"/>
<polygon points="276.7,266.3 282.7,266.3 282.7,272.3 276.7,272.3" fill="rgb(255,206,206)"/>
<polygon points="282.7,266.3 288.7,266.3 288.7,272.3 282.7,272.3" fill="rgb(245,245,255)"/>
<polygon points="288.7,266.3 294.7,266.3 294.7,272.3 288.7,272.3" fill="rgb(199,199,255)"/>
<polygon points="294.7,266.3 300.7,266.3 300.7,272.3 294.7,272.3" fill="rgb(202,202,255)"/>
<polygon points="310.7,266.3 316.7,266.3 316.7,272.3 310.7,272.3" fill="rgb(255,188,188)"/>
<polygon points="316.7,266.3 322.7,266.3 322.7,272.3 316.7,272.3" fill="rgb(228,228,255)"/>
<polygon points="322.7,266.3 328.7,266.3 328.7,272.3 322.7,272.3" fill="rgb(196,196,255)"/>
<polygon points="328.7,266.3 334.7,266.3 334.7,272.3 328.7,272.3" fill="rgb(202,202,255)"/>
<polygon points="334.7,266.3 340.7,266.3 340.7,272.3 334.7,272.3" fill="rgb(243,243,255)"/>
<polygon points="340.7,266.3 346.7,266.3 346.7,272.3 340.7,272.3" fill="rgb(255,222,222)"/>
<polygon points="346.7,266.3 352.7,266.3 352.7,272.3 346.7,272.3" fill="rgb(255,245,245)"/>
<polygon points="352.7,266.3 358.7,266.3 358.7,272.3 352.7,272.3" fill="rgb(168,168,255)"/>
<polygon points="160.7,272.3 168.7,272.3 168.7,278.3 160.7,278.3" fill="rgb(220,188,121)"/><text xml:space="preserve" x="164.7" y="278.133" font-family="Calibri" font-size="7.5" fill="rgb(0,0,0)" text-anchor="middle">13</text>
<polygon points="168.7,272.3 176.7,272.3 176.7,278.3 168.7,278.3" fill="rgb(240,235,224)"/><text xml:space="preserve" x="172.7" y="278.133" font-family="Calibri" font-size="7.5" fill="rgb(0,0,0)" text-anchor="middle">8</text>
<polygon points="176.7,272.3 184.7,272.3 184.7,278.3 176.7,278.3" fill="rgb(240,235,224)"/><text xml:space="preserve" x="180.7" y="278.133" font-family="Calibri" font-size="7.5" fill="rgb(0,0,0)" text-anchor="middle">8</text>
<polygon points="194.7,272.3 200.7,272.3 200.7,278.3 194.7,278.3" fill="rgb(255,136,136)"/>
<polygon points="200.7,272.3 206.7,272.3 206.7,278.3 200.7,278.3" fill="rgb(255,160,160)"/>
<polygon points="206.7,272.3 212.7,272.3 212.7,278.3 206.7,278.3" fill="rgb(255,106,106)"/>
<polygon points="212.7,272.3 218.7,272.3 218.7,278.3 212.7,278.3" fill="rgb(255,141,141)"/>
<polygon points="218.7,272.3 224.7,272.3 224.7,278.3 218.7,278.3" fill="rgb(255,218,218)"/>
<polygon points="224.7,272.3 230.7,272.3 230.7,278.3 224.7,278.3" fill="rgb(238,238,255)"/>
<polygon points="230.7,272.3 236.7,272.3 236.7,278.3 230.7,278.3" fill="rgb(210,210,255)"/>
<polygon points="236.7,272.3 242.7,272.3 242.7,278.3 236.7,278.3" fill="rgb(201,201,255)"/>
<polygon points="252.7,272.3 258.7,272.3 258.7,278.3 252.7,278.3" fill="rgb(255,230,230)"/>
<polygon points="258.7,272.3 264.7,272.3 264.7,278.3 258.7,278.3" fill="rgb(255,223,223)"/>
<polygon points="264.7,272.3 270.7,272.3 270.7,278.3 264.7,278.3" fill="rgb(255,206,206)"/>
<polygon points="270.7,272.3 276.7,272.3 276.7,278.3 270.7,278.3" fill="rgb(255,236,236)"/>
<polygon points="276.7,272.3 282.7,272.3 282.7,278.3 276.7,278.3" fill="rgb(213,213,255)"/>
<polygon points="282.7,272.3 288.7,272.3 288.7,278.3 282.7,278.3" fill="rgb(194,194,255)"/>
<polygon points="288.7,272.3 294.7,272.3 294.7,278.3 288.7,278.3" fill="rgb(254,236,236)"/>
<polygon points="294.7,272.3 300.7,272.3 300.7,278.3 294.7,278.3" fill="rgb(206,206,255)"/>
<polygon points="310.7,272.3 316.7,272.3 316.7,278.3 310.7,278.3" fill="rgb(255,190,190)"/>
<polygon points="316.7,272.3 322.7,272.3 322.7,278.3 316.7,278.3" fill="rgb(255,218,218)"/>
<polygon points="322.7,272.3 328.7,272.3 328.7,278.3 322.7,278.3" fill="rgb(223,223,255)"/>
<polygon points="328.7,272.3 334.7,272.3 334.7,278.3 328.7,278.3" fill="rgb(255,230,230)"/>
<polygon points="334.7,272.3 340.7,272.3 340.7,278.3 334.7,278.3" fill="rgb(241,241,255)"/>
<polygon points="340.7,272.3 346.7,272.3 346.7,278.3 340.7,278.3" fill="rgb(202,202,255)"/>
<polygon points="346.7,272.3 352.7,272.3 352.7,278.3 346.7,278.3" fill="rgb(255,254,254)"/>
<polygon points="352.7,272.3 358.7,272.3 358.7,278.3 352.7,278.3" fill="rgb(172,172,255)"/>
<polygon points="160.7,278.3 168.7,278.3 168.7,284.3 160.7,284.3" fill="rgb(220,188,121)"/><text xml:space="preserve" x="164.7" y="284.133" font-family="Calibri" font-size="7.5" fill="rgb(0,0,0)" text-anchor="middle">13</text>
<polygon points="168.7,278.3 176.7,278.3 176.7,284.3 168.7,284.3" fill="rgb(240,235,224)"/><text xml:space="preserve" x="172.7" y="284.133" font-family="Calibri" font-size="7.5" fill="rgb(0,0,0)" text-anchor="middle">8</text>
<polygon points="176.7,278.3 184.7,278.3 184.7,284.3 176.7,284.3" fill="rgb(240,235,224)"/><text xml:space="preserve" x="180.7" y="284.133" font-family="Calibri" font-size="7.5" fill="rgb(0,0,0)" text-anchor="middle">8</text>
<polygon points="194.7,278.3 200.7,278.3 200.7,284.3 194.7,284.3" fill="rgb(255,127,127)"/>
<polygon points="200.7,278.3 206.7,278.3 206.7,284.3 200.7,284.3" fill="rgb(255,86,86)"/>
<polygon points="206.7,278.3 212.7,278.3 212.7,284.3 206.7,284.3" fill="rgb(255,111,111)"/>
<polygon points="212.7,278.3 218.7,278.3 218.7,284.3 212.7,284.3" fill="rgb(255,18,18)"/>
<polygon points="218.7,278.3 224.7,278.3 224.7,284.3 218.7,284.3" fill="rgb(255,175,175)"/>
<polygon points="224.7,278.3 230.7,278.3 230.7,284.3 224.7,284.3" fill="rgb(233,233,255)"/>
<polygon points="230.7,278.3 236.7,278.3 236.7,284.3 230.7,284.3" fill="rgb(210,210,255)"/>
<polygon points="236.7,278.3 242.7,278.3 242.7,284.3 236.7,284.3" fill="rgb(192,192,255)"/>
<polygon points="252.7,278.3 258.7,278.3 258.7,284.3 252.7,284.3" fill="rgb(255,178,178)"/>
<polygon points="258.7,278.3 264.7,278.3 264.7,284.3 258.7,284.3" fill="rgb(249,249,255)"/>
<polygon points="264.7,278.3 270.7,278.3 270.7,284.3 264.7,284.3" fill="rgb(240,240,255)"/>
<polygon points="270.7,278.3 276.7,278.3 276.7,284.3 270.7,284.3" fill="rgb(199,199,255)"/>
<polygon points="276.7,278.3 282.7,278.3 282.7,284.3 276.7,284.3" fill="rgb(254,242,242)"/>
<polygon points="282.7,278.3 288.7,278.3 288.7,284.3 282.7,284.3" fill="rgb(146,146,255)"/>
<polygon points="288.7,278.3 294.7,278.3 294.7,284.3 288.7,284.3" fill="rgb(165,165,255)"/>
<polygon points="294.7,278.3 300.7,278.3 300.7,284.3 294.7,284.3" fill="rgb(237,237,255)"/>
<polygon points="310.7,278.3 316.7,278.3 316.7,284.3 310.7,284.3" fill="rgb(255,200,200)"/>
<polygon points="316.7,278.3 322.7,278.3 322.7,284.3 316.7,284.3" fill="rgb(255,211,211)"/>
<polygon points="322.7,278.3 328.7,278.3 328.7,284.3 322.7,284.3" fill="rgb(144,144,255)"/>
<polygon points="328.7,278.3 334.7,278.3 334.7,284.3 328.7,284.3" fill="rgb(200,200,255)"/>
<polygon points="334.7,278.3 340.7,278.3 340.7,284.3 334.7,284.3" fill="rgb(226,226,255)"/>
<polygon points="340.7,278.3 346.7,278.3 346.7,284.3 340.7,284.3" fill="rgb(214,214,255)"/>
<polygon points="346.7,278.3 352.7,278.3 352.7,284.3 346.7,284.3" fill="rgb(159,159,255)"/>
<polygon points="352.7,278.3 358.7,278.3 358.7,284.3 352.7,284.3" fill="rgb(255,252,252)"/>
<polygon points="160.7,212.3 184.7,212.3 184.7,284.3 160.7,284.3" fill="none" stroke="black" stroke-width="1"/>
<polygon points="194.7,212.3 242.7,212.3 242.7,284.3 194.7,284.3" fill="none" stroke="black" stroke-width="1"/>
<polygon points="252.7,212.3 300.7,212.3 300.7,284.3 252.7,284.3" fill="none" stroke="black" stroke-width="1"/>
<polygon points="310.7,212.3 358.7,212.3 358.7,284.3 310.7,284.3" fill="none" stroke="black" stroke-width="1"/>
<text xml:space="preserve" x="200.35" y="316.633" font-family="Calibri" font-size="6" text-anchor="middle">moduleID</text>
<polygon points="90.35,324.3 110.35,324.3 110.35,344.3 90.35,344.3" fill="rgb(250,250,250)"/><polygon points="90.35,324.3 110.35,324.3 110.35,344.3 90.35,344.3" fill="none" stroke="black" stroke-width="1"/><text xml:space="preserve" x="100.35" y="337.133" font-family="Calibri" font-size="7.5" fill="rgb(0,0,0)" text-anchor="middle">-2.0</text>
<polygon points="110.35,324.3 130.35,324.3 130.35,344.3 110.35,344.3" fill="rgb(156,210,205)"/><polygon points="110.35,324.3 130.35,324.3 130.35,344.3 110.35,344.3" fill="none" stroke="black" stroke-width="1"/><text xml:space="preserve" x="120.35" y="337.133" font-family="Calibri" font-size="7.5" fill="rgb(0,0,0)" text-anchor="middle">-0.4</text>
<polygon points="130.35,324.3 150.35,324.3 150.35,344.3 130.35,344.3" fill="rgb(116,191,184)"/><polygon points="130.35,324.3 150.35,324.3 150.35,344.3 130.35,344.3" fill="none" stroke="black" stroke-width="1"/><text xml:space="preserve" x="140.35" y="337.133" font-family="Calibri" font-size="7.5" fill="rgb(0,0,0)" text-anchor="middle">1.2</text>
<polygon points="150.35,324.3 170.35,324.3 170.35,344.3 150.35,344.3" fill="rgb(152,206,201)"/><polygon points="150.35,324.3 170.35,324.3 170.35,344.3 150.35,344.3" fill="none" stroke="black" stroke-width="1"/><text xml:space="preserve" x="160.35" y="337.133" font-family="Calibri" font-size="7.5" fill="rgb(0,0,0)" text-anchor="middle">2.8</text>
<polygon points="170.35,324.3 190.35,324.3 190.35,344.3 170.35,344.3" fill="rgb(187,220,217)"/><polygon points="170.35,324.3 190.35,324.3 190.35,344.3 170.35,344.3" fill="none" stroke="black" stroke-width="1"/><text xml:space="preserve" x="180.35" y="337.133" font-family="Calibri" font-size="7.5" fill="rgb(0,0,0)" text-anchor="middle">4.4</text>
<polygon points="190.35,324.3 210.35,324.3 210.35,344.3 190.35,344.3" fill="rgb(222,235,234)"/><polygon points="190.35,324.3 210.35,324.3 210.35,344.3 190.35,344.3" fill="none" stroke="black" stroke-width="1"/><text xml:space="preserve" x="200.35" y="337.133" font-family="Calibri" font-size="7.5" fill="rgb(0,0,0)" text-anchor="middle">6.0</text>
<polygon points="210.35,324.3 230.35,324.3 230.35,344.3 210.35,344.3" fill="rgb(242,239,232)"/><polygon points="210.35,324.3 230.35,324.3 230.35,344.3 210.35,344.3" fill="none" stroke="black" stroke-width="1"/><text xml:space="preserve" x="220.35" y="337.133" font-family="Calibri" font-size="7.5" fill="rgb(0,0,0)" text-anchor="middle">7.6</text>
<polygon points="230.35,324.3 250.35,324.3 250.35,344.3 230.35,344.3" fill="rgb(235,224,199)"/><polygon points="230.35,324.3 250.35,324.3 250.35,344.3 230.35,344.3" fill="none" stroke="black" stroke-width="1"/><text xml:space="preserve" x="240.35" y="337.133" font-family="Calibri" font-size="7.5" fill="rgb(0,0,0)" text-anchor="middle">9.2</text>
<polygon points="250.35,324.3 270.35,324.3 270.35,344.3 250.35,344.3" fill="rgb(229,209,166)"/><polygon points="250.35,324.3 270.35,324.3 270.35,344.3 250.35,344.3" fill="none" stroke="black" stroke-width="1"/><text xml:space="preserve" x="260.35" y="337.133" font-family="Calibri" font-size="7.5" fill="rgb(0,0,0)" text-anchor="middle">10.8</text>
<polygon points="270.35,324.3 290.35,324.3 290.35,344.3 270.35,344.3" fill="rgb(222,194,133)"/><polygon points="270.35,324.3 290.35,324.3 290.35,344.3 270.35,344.3" fill="none" stroke="black" stroke-width="1"/><text xml:space="preserve" x="280.35" y="337.133" font-family="Calibri" font-size="7.5" fill="rgb(0,0,0)" text-anchor="middle">12.4</text>
<polygon points="290.35,324.3 310.35,324.3 310.35,344.3 290.35,344.3" fill="rgb(216,179,101)"/><polygon points="290.35,324.3 310.35,324.3 310.35,344.3 290.35,344.3" fill="none" stroke="black" stroke-width="1"/><text xml:space="preserve" x="300.35" y="337.133" font-family="Calibri" font-size="7.5" fill="rgb(0,0,0)" text-anchor="middle">14.0</text>
<text xml:space="preserve" x="200.35" y="376.633" font-family="Calibri" font-size="6" text-anchor="middle">marklevel</text>
<polygon points="90.35,384.3 110.35,384.3 110.35,404.3 90.35,404.3" fill="rgb(0,0,255)"/><polygon points="90.35,384.3 110.35,384.3 110.35,404.3 90.35,404.3" fill="none" stroke="black" stroke-width="1"/><text xml:space="preserve" x="100.35" y="397.133" font-family="Calibri" font-size="7.5" fill="rgb(255,255,255)" text-anchor="middle">-2.0</text>
<polygon points="110.35,384.3 130.35,384.3 130.35,404.3 110.35,404.3" fill="rgb(50,50,255)"/><polygon points="110.35,384.3 130.35,384.3 130.35,404.3 110.35,404.3" fill="none" stroke="black" stroke-width="1"/><text xml:space="preserve" x="120.35" y="397.133" font-family="Calibri" font-size="7.5" fill="rgb(255,255,255)" text-anchor="middle">-1.6</text>
<polygon points="130.35,384.3 150.35,384.3 150.35,404.3 130.35,404.3" fill="rgb(102,102,255)"/><polygon points="130.35,384.3 150.35,384.3 150.35,404.3 130.35,404.3" fill="none" stroke="black" stroke-width="1"/><text xml:space="preserve" x="140.35" y="397.133" font-family="Calibri" font-size="7.5" fill="rgb(255,255,255)" text-anchor="middle">-1.2</text>
<polygon points="150.35,384.3 170.35,384.3 170.35,404.3 150.35,404.3" fill="rgb(153,153,255)"/><polygon points="150.35,384.3 170.35,384.3 170.35,404.3 150.35,404.3" fill="none" stroke="black" stroke-width="1"/><text xml:space="preserve" x="160.35" y="397.133" font-family="Calibri" font-size="7.5" fill="rgb(0,0,0)" text-anchor="middle">-0.8</text>
<polygon points="170.35,384.3 190.35,384.3 190.35,404.3 170.35,404.3" fill="rgb(204,204,255)"/><polygon points="170.35,384.3 190.35,384.3 190.35,404.3 170.35,404.3" fill="none" stroke="black" stroke-width="1"/><text xml:space="preserve" x="180.35" y="397.133" font-family="Calibri" font-size="7.5" fill="rgb(0,0,0)" text-anchor="middle">-0.4</text>
<polygon points="190.35,384.3 210.35,384.3 210.35,404.3 190.35,404.3" fill="rgb(255,255,255)"/><polygon points="190.35,384.3 210.35,384.3 210.35,404.3 190.35,404.3" fill="none" stroke="black" stroke-width="1"/><text xml:space="preserve" x="200.35" y="397.133" font-family="Calibri" font-size="7.5" fill="rgb(0,0,0)" text-anchor="middle">0.0</text>
<polygon points="210.35,384.3 230.35,384.3 230.35,404.3 210.35,404.3" fill="rgb(255,204,204)"/><polygon points="210.35,384.3 230.35,384.3 230.35,404.3 210.35,404.3" fill="none" stroke="black" stroke-width="1"/><text xml:space="preserve" x="220.35" y="397.133" font-family="Calibri" font-size="7.5" fill="rgb(0,0,0)" text-anchor="middle">0.4</text>
<polygon points="230.35,384.3 250.35,384.3 250.35,404.3 230.35,404.3" fill="rgb(255,153,153)"/><polygon points="230.35,384.3 250.35,384.3 250.35,404.3 230.35,404.3" fill="none" stroke="black" stroke-width="1"/><text xml:space="preserve" x="240.35" y="397.133" font-family="Calibri" font-size="7.5" fill="rgb(0,0,0)" text-anchor="middle">0.8</text>
<polygon points="250.35,384.3 270.35,384.3 270.35,404.3 250.35,404.3" fill="rgb(255,102,102)"/><polygon points="250.35,384.3 270.35,384.3 270.35,404.3 250.35,404.3" fill="none" stroke="black" stroke-width="1"/><text xml:space="preserve" x="260.35" y="397.133" font-family="Calibri" font-size="7.5" fill="rgb(0,0,0)" text-anchor="middle">1.2</text>
<polygon points="270.35,384.3 290.35,384.3 290.35,404.3 270.35,404.3" fill="rgb(255,50,50)"/><polygon points="270.35,384.3 290.35,384.3 290.35,404.3 270.35,404.3" fill="none" stroke="black" stroke-width="1"/><text xml:space="preserve" x="280.35" y="397.133" font-family="Calibri" font-size="7.5" fill="rgb(255,255,255)" text-anchor="middle">1.6</text>
<polygon points="290.35,384.3 310.35,384.3 310.35,404.3 290.35,404.3" fill="rgb(255,0,0)"/><polygon points="290.35,384.3 310.35,384.3 310.35,404.3 290.35,404.3" fill="none" stroke="black" stroke-width="1"/><text xml:space="preserve" x="300.35" y="397.133" font-family="Calibri" font-size="7.5" fill="rgb(255,255,255)" text-anchor="middle">2.0</text>
</svg>
