<?xml version="1.0" standalone="no"?><!DOCTYPE svg PUBLIC "-//W3C//DTD SVG 1.1//EN" "http://www.w3.org/Graphics/SVG/1.1/DTD/svg11.dtd">
<svg width="398.9" height="412.3" version="1.1" xmlns="http://www.w3.org/2000/svg">
<text xml:space="preserve" x="154.9" y="217.633" font-family="Calibri" font-size="6" text-anchor="end">4930432H15Rik</text>
<text xml:space="preserve" x="154.9" y="223.633" font-family="Calibri" font-size="6" text-anchor="end">Phyhipl</text>
<text xml:space="preserve" x="154.9" y="229.633" font-family="Calibri" font-size="6" text-anchor="end">Syt14</text>
<text xml:space="preserve" x="154.9" y="235.633" font-family="Calibri" font-size="6" text-anchor="end">Rab39</text>
<text xml:space="preserve" x="154.9" y="241.633" font-family="Calibri" font-size="6" text-anchor="end">Bex2</text>
<text xml:space="preserve" x="154.9" y="247.633" font-family="Calibri" font-size="6" text-anchor="end">Bex4</text>
<text xml:space="preserve" x="154.9" y="253.633" font-family="Calibri" font-size="6" text-anchor="end">Gm50</text>
<text xml:space="preserve" x="154.9" y="259.633" font-family="Calibri" font-size="6" text-anchor="end">mmu-mir-363</text>
<text xml:space="preserve" x="154.9" y="265.633" font-family="Calibri" font-size="6" text-anchor="end">mmu-mir-92-2</text>
<text xml:space="preserve" x="154.9" y="271.633" font-family="Calibri" font-size="6" text-anchor="end">mmu-mir-19b-2</text>
<text xml:space="preserve" x="165.233" y="208.3" font-family="Calibri" font-size="6" transform="rotate(270 165.233 208.3)">ips</text>
<text xml:space="preserve" x="173.233" y="208.3" font-family="Calibri" font-size="6" transform="rotate(270 173.233 208.3)">pips</text>
<text xml:space="preserve" x="181.233" y="208.3" font-family="Calibri" font-size="6" transform="rotate(270 181.233 208.3)">mef</text>
<text xml:space="preserve" x="198.233" y="208.3" font-family="Calibri" font-size="6" transform="rotate(270 198.233 208.3)">ips_H3K4me3iPS</text>
<text xml:space="preserve" x="204.233" y="208.3" font-family="Calibri" font-size="6" transform="rotate(270 204.233 208.3)">ips_H3K9aciPS</text>
<text xml:space="preserve" x="210.233" y="208.3" font-family="Calibri" font-size="6" transform="rotate(270 210.233 208.3)">ips_H3K14aciPS</text>
<text xml:space="preserve" x="216.233" y="208.3" font-family="Calibri" font-size="6" transform="rotate(270 216.233 208.3)">ips_H3K18aciPS</text>
<text xml:space="preserve" x="222.233" y="208.3" font-family="Calibri" font-size="6" transform="rotate(270 222.233 208.3)">ips_H3K79me2iPS</text>
<text xml:space="preserve" x="228.233" y="208.3" font-family="Calibri" font-size="6" transform="rotate(270 228.233 208.3)">ips_H3K9me2iPS</text>
<text xml:space="preserve" x="234.233" y="208.3" font-family="Calibri" font-size="6" transform="rotate(270 234.233 208.3)">ips_H3K9me3iPS</text>
<text xml:space="preserve" x="240.233" y="208.3" font-family="Calibri" font-size="6" transform="rotate(270 240.233 208.3)">ips_H3K27me3iPS</text>
<text xml:space="preserve" x="256.233" y="208.3" font-family="Calibri" font-size="6" transform="rotate(270 256.233 208.3)">pips_H3K4me3pips</text>
<text xml:space="preserve" x="262.233" y="208.3" font-family="Calibri" font-size="6" transform="rotate(270 262.233 208.3)">pips_H3K9acpips</text>
<text xml:space="preserve" x="268.233" y="208.3" font-family="Calibri" font-size="6" transform="rotate(270 268.233 208.3)">pips_H3K14acpips</text>
<text xml:space="preserve" x="274.233" y="208.3" font-family="Calibri" font-size="6" transform="rotate(270 274.233 208.3)">pips_H3K18acpips</text>
<text xml:space="preserve" x="280.233" y="208.3" font-family="Calibri" font-size="6" transform="rotate(270 280.233 208.3)">pips_H3K79me2pips</text>
<text xml:space="preserve" x="286.233" y="208.3" font-family="Calibri" font-size="6" transform="rotate(270 286.233 208.3)">pips_H3K9me2pips</text>
<text xml:space="preserve" x="292.233" y="208.3" font-family="Calibri" font-size="6" transform="rotate(270 292.233 208.3)">pips_H3K9me3pips</text>
<text xml:space="preserve" x="298.233" y="208.3" font-family="Calibri" font-size="6" transform="rotate(270 298.233 208.3)">pips_H3K27me3pips</text>
<text xml:space="preserve" x="314.233" y="208.3" font-family="Calibri" font-size="6" transform="rotate(270 314.233 208.3)">mef_H3K4me3mef</text>
<text xml:space="preserve" x="320.233" y="208.3" font-family="Calibri" font-size="6" transform="rotate(270 320.233 208.3)">mef_H3K9acmef</text>
<text xml:space="preserve" x="326.233" y="208.3" font-family="Calibri" font-size="6" transform="rotate(270 326.233 208.3)">mef_H3K14acmef</text>
<text xml:space="preserve" x="332.233" y="208.3" font-family="Calibri" font-size="6" transform="rotate(270 332.233 208.3)">mef_H3K18acmef</text>
<text xml:space="preserve" x="338.233" y="208.3" font-family="Calibri" font-size="6" transform="rotate(270 338.233 208.3)">mef_H3K79me2mef</text>
<text xml:space="preserve" x="344.233" y="208.3" font-family="Calibri" font-size="6" transform="rotate(270 344.233 208.3)">mef_H3K9me2mef</text>
<text xml:space="preserve" x="350.233" y="208.3" font-family="Calibri" font-size="6" transform="rotate(270 350.233 208.3)">mef_H3K9me3mef</text>
<text xml:space="preserve" x="356.233" y="208.3" font-family="Calibri" font-size="6" transform="rotate(270 356.233 208.3)">mef_H3K27me3mef</text>
<polygon points="158.9,212.3 166.9,212.3 166.9,218.3 158.9,218.3" fill="rgb(240,235,224)"/><text xml:space="preserve" x="162.9" y="218.133" font-family="Calibri" font-size="7.5" fill="rgb(0,0,0)" text-anchor="middle">8</text>
<polygon points="166.9,212.3 174.9,212.3 174.9,218.3 166.9,218.3" fill="rgb(156,207,203)"/><text xml:space="preserve" x="170.9" y="218.133" font-family="Calibri" font-size="7.5" fill="rgb(0,0,0)" text-anchor="middle">3</text>
<polygon points="174.9,212.3 182.9,212.3 182.9,218.3 174.9,218.3" fill="rgb(156,207,203)"/><text xml:space="preserve" x="178.9" y="218.133" font-family="Calibri" font-size="7.5" fill="rgb(0,0,0)" text-anchor="middle">3</text>
<polygon points="192.9,212.3 198.9,212.3 198.9,218.3 192.9,218.3" fill="rgb(229,229,255)"/>
<polygon points="198.9,212.3 204.9,212.3 204.9,218.3 198.9,218.3" fill="rgb(255,240,240)"/>
<polygon points="204.9,212.3 210.9,212.3 210.9,218.3 204.9,218.3" fill="rgb(223,223,255)"/>
<polygon points="210.9,212.3 216.9,212.3 216.9,218.3 210.9,218.3" fill="rgb(255,185,185)"/>
<polygon points="216.9,212.3 222.9,212.3 222.9,218.3 216.9,218.3" fill="rgb(228,228,255)"/>
<polygon points="222.9,212.3 228.9,212.3 228.9,218.3 222.9,218.3" fill="rgb(156,156,255)"/>
<polygon points="228.9,212.3 234.9,212.3 234.9,218.3 228.9,218.3" fill="rgb(166,166,255)"/>
<polygon points="234.9,212.3 240.9,212.3 240.9,218.3 234.9,218.3" fill="rgb(205,205,255)"/>
<polygon points="250.9,212.3 256.9,212.3 256.9,218.3 250.9,218.3" fill="rgb(215,215,255)"/>
<polygon points="256.9,212.3 262.9,212.3 262.9,218.3 256.9,218.3" fill="rgb(193,193,255)"/>
<polygon points="262.9,212.3 268.9,212.3 268.9,218.3 262.9,218.3" fill="rgb(110,110,255)"/>
<polygon points="268.9,212.3 274.9,212.3 274.9,218.3 268.9,218.3" fill="rgb(128,128,255)"/>
<polygon points="274.9,212.3 280.9,212.3 280.9,218.3 274.9,218.3" fill="rgb(195,195,255)"/>
<polygon points="280.9,212.3 286.9,212.3 286.9,218.3 280.9,218.3" fill="rgb(255,163,163)"/>
<polygon points="286.9,212.3 292.9,212.3 292.9,218.3 286.9,218.3" fill="rgb(255,201,201)"/>
<polygon points="292.9,212.3 298.9,212.3 298.9,218.3 292.9,218.3" fill="rgb(255,188,188)"/>
<polygon points="308.9,212.3 314.9,212.3 314.9,218.3 308.9,218.3" fill="rgb(220,220,255)"/>
<polygon points="314.9,212.3 320.9,212.3 320.9,218.3 314.9,218.3" fill="rgb(120,120,255)"/>
<polygon points="320.9,212.3 326.9,212.3 326.9,218.3 320.9,218.3" fill="rgb(213,213,255)"/>
<polygon points="326.9,212.3 332.9,212.3 332.9,218.3 326.9,218.3" fill="rgb(177,177,255)"/>
<polygon points="332.9,212.3 338.9,212.3 338.9,218.3 332.9,218.3" fill="rgb(207,207,255)"/>
<polygon points="338.9,212.3 344.9,212.3 344.9,218.3 338.9,218.3" fill="rgb(255,106,106)"/>
<polygon points="344.9,212.3 350.9,212.3 350.9,218.3 344.9,218.3" fill="rgb(213,213,255)"/>
<polygon points="350.9,212.3 356.9,212.3 356.9,218.3 350.9,218.3" fill="rgb(255,147,147)"/>
<polygon points="158.9,218.3 166.9,218.3 166.9,224.3 158.9,224.3" fill="rgb(240,235,224)"/><text xml:space="preserve" x="162.9" y="224.133" font-family="Calibri" font-size="7.5" fill="rgb(0,0,0)" text-anchor="middle">8</text>
<polygon points="166.9,218.3 174.9,218.3 174.9,224.3 166.9,224.3" fill="rgb(156,207,203)"/><text xml:space="preserve" x="170.9" y="224.133" font-family="Calibri" font-size="7.5" fill="rgb(0,0,0)" text-anchor="middle">3</text>
<polygon points="174.9,218.3 182.9,218.3 182.9,224.3 174.9,224.3" fill="rgb(156,207,203)"/><text xml:space="preserve" x="178.9" y="224.133" font-family="Calibri" font-size="7.5" fill="rgb(0,0,0)" text-anchor="middle">3</text>
<polygon points="192.9,218.3 198.9,218.3 198.9,224.3 192.9,224.3" fill="rgb(255,208,208)"/>
<polygon points="198.9,218.3 204.9,218.3 204.9,224.3 198.9,224.3" fill="rgb(255,241,241)"/>
<polygon points="204.9,218.3 210.9,218.3 210.9,224.3 204.9,224.3" fill="rgb(200,200,255)"/>
<polygon points="210.9,218.3 216.9,218.3 216.9,224.3 210.9,224.3" fill="rgb(216,216,255)"/>
<polygon points="216.9,218.3 222.9,218.3 222.9,224.3 216.9,224.3" fill="rgb(247,247,255)"/>
<polygon points="222.9,218.3 228.9,218.3 228.9,224.3 222.9,224.3" fill="rgb(232,232,255)"/>
<polygon points="228.9,218.3 234.9,218.3 234.9,224.3 228.9,224.3" fill="rgb(197,197,255)"/>
<polygon points="234.9,218.3 240.9,218.3 240.9,224.3 234.9,224.3" fill="rgb(255,167,167)"/>
<polygon points="250.9,218.3 256.9,218.3 256.9,224.3 250.9,224.3" fill="rgb(240,240,255)"/>
<polygon points="256.9,218.3 262.9,218.3 262.9,224.3 256.9,224.3" fill="rgb(133,133,255)"/>
<polygon points="262.9,218.3 268.9,218.3 268.9,224.3 262.9,224.3" fill="rgb(43,43,255)"/>
<polygon points="268.9,218.3 274.9,218.3 274.9,224.3 268.9,224.3" fill="rgb(57,57,255)"/>
<polygon points="274.9,218.3 280.9,218.3 280.9,224.3 274.9,224.3" fill="rgb(183,183,255)"/>
<polygon points="280.9,218.3 286.9,218.3 286.9,224.3 280.9,224.3" fill="rgb(255,176,176)"/>
<polygon points="286.9,218.3 292.9,218.3 292.9,224.3 286.9,224.3" fill="rgb(255,187,187)"/>
<polygon points="292.9,218.3 298.9,218.3 298.9,224.3 292.9,224.3" fill="rgb(255,101,101)"/>
<polygon points="308.9,218.3 314.9,218.3 314.9,224.3 308.9,224.3" fill="rgb(255,236,236)"/>
<polygon points="314.9,218.3 320.9,218.3 320.9,224.3 314.9,224.3" fill="rgb(153,153,255)"/>
<polygon points="320.9,218.3 326.9,218.3 326.9,224.3 320.9,224.3" fill="rgb(93,93,255)"/>
<polygon points="326.9,218.3 332.9,218.3 332.9,224.3 326.9,224.3" fill="rgb(112,112,255)"/>
<polygon points="332.9,218.3 338.9,218.3 338.9,224.3 332.9,224.3" fill="rgb(180,180,255)"/>
<polygon points="338.9,218.3 344.9,218.3 344.9,224.3 338.9,224.3" fill="rgb(255,172,172)"/>
<polygon points="344.9,218.3 350.9,218.3 350.9,224.3 344.9,224.3" fill="rgb(254,142,142)"/>
<polygon points="350.9,218.3 356.9,218.3 356.9,224.3 350.9,224.3" fill="rgb(255,50,50)"/>
<polygon points="158.9,224.3 166.9,224.3 166.9,230.3 158.9,230.3" fill="rgb(240,235,224)"/><text xml:space="preserve" x="162.9" y="230.133" font-family="Calibri" font-size="7.5" fill="rgb(0,0,0)" text-anchor="middle">8</text>
<polygon points="166.9,224.3 174.9,224.3 174.9,230.3 166.9,230.3" fill="rgb(156,207,203)"/><text xml:space="preserve" x="170.9" y="230.133" font-family="Calibri" font-size="7.5" fill="rgb(0,0,0)" text-anchor="middle">3</text>
<polygon points="174.9,224.3 182.9,224.3 182.9,230.3 174.9,230.3" fill="rgb(156,207,203)"/><text xml:space="preserve" x="178.9" y="230.133" font-family="Calibri" font-size="7.5" fill="rgb(0,0,0)" text-anchor="middle">3</text>
<polygon points="192.9,224.3 198.9,224.3 198.9,230.3 192.9,230.3" fill="rgb(255,230,230)"/>
<polygon points="198.9,224.3 204.9,224.3 204.9,230.3 198.9,230.3" fill="rgb(255,233,233)"/>
<polygon points="204.9,224.3 210.9,224.3 210.9,230.3 204.9,230.3" fill="rgb(233,233,255)"/>
<polygon points="210.9,224.3 216.9,224.3 216.9,230.3 210.9,230.3" fill="rgb(187,187,255)"/>
<polygon points="216.9,224.3 222.9,224.3 222.9,230.3 216.9,230.3" fill="rgb(255,240,240)"/>
<polygon points="222.9,224.3 228.9,224.3 228.9,230.3 222.9,230.3" fill="rgb(150,150,255)"/>
<polygon points="228.9,224.3 234.9,224.3 234.9,230.3 228.9,230.3" fill="rgb(211,211,255)"/>
<polygon points="234.9,224.3 240.9,224.3 240.9,230.3 234.9,230.3" fill="rgb(255,171,171)"/>
<polygon points="250.9,224.3 256.9,224.3 256.9,230.3 250.9,230.3" fill="rgb(203,203,255)"/>
<polygon points="256.9,224.3 262.9,224.3 262.9,230.3 256.9,230.3" fill="rgb(130,130,255)"/>
<polygon points="262.9,224.3 268.9,224.3 268.9,230.3 262.9,230.3" fill="rgb(69,69,255)"/>
<polygon points="268.9,224.3 274.9,224.3 274.9,230.3 268.9,230.3" fill="rgb(58,58,255)"/>
<polygon points="274.9,224.3 280.9,224.3 280.9,230.3 274.9,230.3" fill="rgb(161,161,255)"/>
<polygon points="280.9,224.3 286.9,224.3 286.9,230.3 280.9,230.3" fill="rgb(255,154,154)"/>
<polygon points="286.9,224.3 292.9,224.3 292.9,230.3 286.9,230.3" fill="rgb(255,214,214)"/>
<polygon points="292.9,224.3 298.9,224.3 298.9,230.3 292.9,230.3" fill="rgb(255,152,152)"/>
<polygon points="308.9,224.3 314.9,224.3 314.9,230.3 308.9,230.3" fill="rgb(184,184,255)"/>
<polygon points="314.9,224.3 320.9,224.3 320.9,230.3 314.9,230.3" fill="rgb(164,164,255)"/>
<polygon points="320.9,224.3 326.9,224.3 326.9,230.3 320.9,230.3" fill="rgb(130,130,255)"/>
<polygon points="326.9,224.3 332.9,224.3 332.9,230.3 326.9,230.3" fill="rgb(132,132,255)"/>
<polygon points="332.9,224.3 338.9,224.3 338.9,230.3 332.9,230.3" fill="rgb(210,210,255)"/>
<polygon points="338.9,224.3 344.9,224.3 344.9,230.3 338.9,230.3" fill="rgb(255,147,147)"/>
<polygon points="344.9,224.3 350.9,224.3 350.9,230.3 344.9,230.3" fill="rgb(255,213,213)"/>
<polygon points="350.9,224.3 356.9,224.3 356.9,230.3 350.9,230.3" fill="rgb(255,100,100)"/>
<polygon points="158.9,230.3 166.9,230.3 166.9,236.3 158.9,236.3" fill="rgb(240,235,224)"/><text xml:space="preserve" x="162.9" y="236.133" font-family="Calibri" font-size="7.5" fill="rgb(0,0,0)" text-anchor="middle">8</text>
<polygon points="166.9,230.3 174.9,230.3 174.9,236.3 166.9,236.3" fill="rgb(156,207,203)"/><text xml:space="preserve" x="170.9" y="236.133" font-family="Calibri" font-size="7.5" fill="rgb(0,0,0)" text-anchor="middle">3</text>
<polygon points="174.9,230.3 182.9,230.3 182.9,236.3 174.9,236.3" fill="rgb(156,207,203)"/><text xml:space="preserve" x="178.9" y="236.133" font-family="Calibri" font-size="7.5" fill="rgb(0,0,0)" text-anchor="middle">3</text>
<polygon points="192.9,230.3 198.9,230.3 198.9,236.3 192.9,236.3" fill="rgb(255,229,229)"/>
<polygon points="198.9,230.3 204.9,230.3 204.9,236.3 198.9,236.3" fill="rgb(255,237,237)"/>
<polygon points="204.9,230.3 210.9,230.3 210.9,236.3 204.9,236.3" fill="rgb(224,224,255)"/>
<polygon points="210.9,230.3 216.9,230.3 216.9,236.3 210.9,236.3" fill="rgb(216,216,255)"/>
<polygon points="216.9,230.3 222.9,230.3 222.9,236.3 216.9,236.3" fill="rgb(241,241,255)"/>
<polygon points="222.9,230.3 228.9,230.3 228.9,236.3 222.9,236.3" fill="rgb(255,252,252)"/>
<polygon points="228.9,230.3 234.9,230.3 234.9,236.3 228.9,236.3" fill="rgb(253,253,255)"/>
<polygon points="234.9,230.3 240.9,230.3 240.9,236.3 234.9,236.3" fill="rgb(255,207,207)"/>
<polygon points="250.9,230.3 256.9,230.3 256.9,236.3 250.9,236.3" fill="rgb(226,226,255)"/>
<polygon points="256.9,230.3 262.9,230.3 262.9,236.3 256.9,236.3" fill="rgb(180,180,255)"/>
<polygon points="262.9,230.3 268.9,230.3 268.9,236.3 262.9,236.3" fill="rgb(78,78,255)"/>
<polygon points="268.9,230.3 274.9,230.3 274.9,236.3 268.9,236.3" fill="rgb(106,106,255)"/>
<polygon points="274.9,230.3 280.9,230.3 280.9,236.3 274.9,236.3" fill="rgb(191,191,255)"/>
<polygon points="280.9,230.3 286.9,230.3 286.9,236.3 280.9,236.3" fill="rgb(255,167,167)"/>
<polygon points="286.9,230.3 292.9,230.3 292.9,236.3 286.9,236.3" fill="rgb(255,159,159)"/>
<polygon points="292.9,230.3 298.9,230.3 298.9,236.3 292.9,236.3" fill="rgb(255,196,196)"/>
<polygon points="308.9,230.3 314.9,230.3 314.9,236.3 308.9,236.3" fill="rgb(232,232,255)"/>
<polygon points="314.9,230.3 320.9,230.3 320.9,236.3 314.9,236.3" fill="rgb(150,150,255)"/>
<polygon points="320.9,230.3 326.9,230.3 326.9,236.3 320.9,236.3" fill="rgb(110,110,255)"/>
<polygon points="326.9,230.3 332.9,230.3 332.9,236.3 326.9,236.3" fill="rgb(96,96,255)"/>
<polygon points="332.9,230.3 338.9,230.3 338.9,236.3 332.9,236.3" fill="rgb(204,204,255)"/>
<polygon points="338.9,230.3 344.9,230.3 344.9,236.3 338.9,236.3" fill="rgb(255,194,194)"/>
<polygon points="344.9,230.3 350.9,230.3 350.9,236.3 344.9,236.3" fill="rgb(255,143,143)"/>
<polygon points="350.9,230.3 356.9,230.3 356.9,236.3 350.9,236.3" fill="rgb(255,139,139)"/>
<polygon points="158.9,236.3 166.9,236.3 166.9,242.3 158.9,242.3" fill="rgb(240,235,224)"/><text xml:space="preserve" x="162.9" y="242.133" font-family="Calibri" font-size="7.5" fill="rgb(0,0,0)" text-anchor="middle">8</text>
<polygon points="166.9,236.3 174.9,236.3 174.9,242.3 166.9,242.3" fill="rgb(156,207,203)"/><text xml:space="preserve" x="170.9" y="242.133" font-family="Calibri" font-size="7.5" fill="rgb(0,0,0)" text-anchor="middle">3</text>
<polygon points="174.9,236.3 182.9,236.3 182.9,242.3 174.9,242.3" fill="rgb(156,207,203)"/><text xml:space="preserve" x="178.9" y="242.133" font-family="Calibri" font-size="7.5" fill="rgb(0,0,0)" text-anchor="middle">3</text>
<polygon points="192.9,236.3 198.9,236.3 198.9,242.3 192.9,242.3" fill="rgb(246,246,255)"/>
<polygon points="198.9,236.3 204.9,236.3 204.9,242.3 198.9,242.3" fill="rgb(197,197,255)"/>
<polygon points="204.9,236.3 210.9,236.3 210.9,242.3 204.9,242.3" fill="rgb(177,177,255)"/>
<polygon points="210.9,236.3 216.9,236.3 216.9,242.3 210.9,242.3" fill="rgb(202,202,255)"/>
<polygon points="216.9,236.3 222.9,236.3 222.9,242.3 216.9,242.3" fill="rgb(231,231,255)"/>
<polygon points="222.9,236.3 228.9,236.3 228.9,242.3 222.9,242.3" fill="rgb(195,195,255)"/>
<polygon points="228.9,236.3 234.9,236.3 234.9,242.3 228.9,242.3" fill="rgb(188,188,255)"/>
<polygon points="234.9,236.3 240.9,236.3 240.9,242.3 234.9,242.3" fill="rgb(231,231,255)"/>
<polygon points="250.9,236.3 256.9,236.3 256.9,242.3 250.9,242.3" fill="rgb(216,216,255)"/>
<polygon points="256.9,236.3 262.9,236.3 262.9,242.3 256.9,242.3" fill="rgb(150,150,255)"/>
<polygon points="262.9,236.3 268.9,236.3 268.9,242.3 262.9,242.3" fill="rgb(144,144,255)"/>
<polygon points="268.9,236.3 274.9,236.3 274.9,242.3 268.9,242.3" fill="rgb(58,58,255)"/>
<polygon points="274.9,236.3 280.9,236.3 280.9,242.3 274.9,242.3" fill="rgb(166,166,255)"/>
<polygon points="280.9,236.3 286.9,236.3 286.9,242.3 280.9,242.3" fill="rgb(255,124,124)"/>
<polygon points="286.9,236.3 292.9,236.3 292.9,242.3 286.9,242.3" fill="rgb(255,218,218)"/>
<polygon points="292.9,236.3 298.9,236.3 298.9,242.3 292.9,242.3" fill="rgb(255,104,104)"/>
<polygon points="308.9,236.3 314.9,236.3 314.9,242.3 308.9,242.3" fill="rgb(189,189,255)"/>
<polygon points="314.9,236.3 320.9,236.3 320.9,242.3 314.9,242.3" fill="rgb(142,142,255)"/>
<polygon points="320.9,236.3 326.9,236.3 326.9,242.3 320.9,242.3" fill="rgb(95,95,255)"/>
<polygon points="326.9,236.3 332.9,236.3 332.9,242.3 326.9,242.3" fill="rgb(124,124,255)"/>
<polygon points="332.9,236.3 338.9,236.3 338.9,242.3 332.9,242.3" fill="rgb(214,214,255)"/>
<polygon points="338.9,236.3 344.9,236.3 344.9,242.3 338.9,242.3" fill="rgb(255,158,158)"/>
<polygon points="344.9,236.3 350.9,236.3 350.9,242.3 344.9,242.3" fill="rgb(255,236,236)"/>
<polygon points="350.9,236.3 356.9,236.3 356.9,242.3 350.9,242.3" fill="rgb(255,112,112)"/>
<polygon points="158.9,242.3 166.9,242.3 166.9,248.3 158.9,248.3" fill="rgb(240,235,224)"/><text xml:space="preserve" x="162.9" y="248.133" font-family="Calibri" font-size="7.5" fill="rgb(0,0,0)" text-anchor="middle">8</text>
<polygon points="166.9,242.3 174.9,242.3 174.9,248.3 166.9,248.3" fill="rgb(156,207,203)"/><text xml:space="preserve" x="170.9" y="248.133" font-family="Calibri" font-size="7.5" fill="rgb(0,0,0)" text-anchor="middle">3</text>
<polygon points="174.9,242.3 182.9,242.3 182.9,248.3 174.9,248.3" fill="rgb(156,207,203)"/><text xml:space="preserve" x="178.9" y="248.133" font-family="Calibri" font-size="7.5" fill="rgb(0,0,0)" text-anchor="middle">3</text>
<polygon points="192.9,242.3 198.9,242.3 198.9,248.3 192.9,248.3" fill="rgb(255,226,226)"/>
<polygon points="198.9,242.3 204.9,242.3 204.9,248.3 198.9,248.3" fill="rgb(255,242,242)"/>
<polygon points="204.9,242.3 210.9,242.3 210.9,248.3 204.9,248.3" fill="rgb(224,224,255)"/>
<polygon points="210.9,242.3 216.9,242.3 216.9,248.3 210.9,248.3" fill="rgb(248,248,255)"/>
<polygon points="216.9,242.3 222.9,242.3 222.9,248.3 216.9,248.3" fill="rgb(255,218,218)"/>
<polygon points="222.9,242.3 228.9,242.3 228.9,248.3 222.9,248.3" fill="rgb(172,172,255)"/>
<polygon points="228.9,242.3 234.9,242.3 234.9,248.3 228.9,248.3" fill="rgb(228,228,255)"/>
<polygon points="234.9,242.3 240.9,242.3 240.9,248.3 234.9,248.3" fill="rgb(254,254,255)"/>
<polygon points="250.9,242.3 256.9,242.3 256.9,248.3 250.9,248.3" fill="rgb(175,175,255)"/>
<polygon points="256.9,242.3 262.9,242.3 262.9,248.3 256.9,248.3" fill="rgb(155,155,255)"/>
<polygon points="262.9,242.3 268.9,242.3 268.9,248.3 262.9,248.3" fill="rgb(142,142,255)"/>
<polygon points="268.9,242.3 274.9,242.3 274.9,248.3 268.9,248.3" fill="rgb(58,58,255)"/>
<polygon points="274.9,242.3 280.9,242.3 280.9,248.3 274.9,248.3" fill="rgb(187,187,255)"/>
<polygon points="280.9,242.3 286.9,242.3 286.9,248.3 280.9,248.3" fill="rgb(255,196,196)"/>
<polygon points="286.9,242.3 292.9,242.3 292.9,248.3 286.9,248.3" fill="rgb(255,179,179)"/>
<polygon points="292.9,242.3 298.9,242.3 298.9,248.3 292.9,248.3" fill="rgb(255,119,119)"/>
<polygon points="308.9,242.3 314.9,242.3 314.9,248.3 308.9,248.3" fill="rgb(198,198,255)"/>
<polygon points="314.9,242.3 320.9,242.3 320.9,248.3 314.9,248.3" fill="rgb(137,137,255)"/>
<polygon points="320.9,242.3 326.9,242.3 326.9,248.3 320.9,248.3" fill="rgb(236,236,255)"/>
<polygon points="326.9,242.3 332.9,242.3 332.9,248.3 326.9,248.3" fill="rgb(228,228,255)"/>
<polygon points="332.9,242.3 338.9,242.3 338.9,248.3 332.9,248.3" fill="rgb(189,189,255)"/>
<polygon points="338.9,242.3 344.9,242.3 344.9,248.3 338.9,248.3" fill="rgb(255,228,228)"/>
<polygon points="344.9,242.3 350.9,242.3 350.9,248.3 344.9,248.3" fill="rgb(255,145,145)"/>
<polygon points="350.9,242.3 356.9,242.3 356.9,248.3 350.9,248.3" fill="rgb(255,84,84)"/>
<polygon points="158.9,248.3 166.9,248.3 166.9,254.3 158.9,254.3" fill="rgb(240,235,224)"/><text xml:space="preserve" x="162.9" y="254.133" font-family="Calibri" font-size="7.5" fill="rgb(0,0,0)" text-anchor="middle">8</text>
<polygon points="166.9,248.3 174.9,248.3 174.9,254.3 166.9,254.3" fill="rgb(156,207,203)"/><text xml:space="preserve" x="170.9" y="254.133" font-family="Calibri" font-size="7.5" fill="rgb(0,0,0)" text-anchor="middle">3</text>
<polygon points="174.9,248.3 182.9,248.3 182.9,254.3 174.9,254.3" fill="rgb(156,207,203)"/><text xml:space="preserve" x="178.9" y="254.133" font-family="Calibri" font-size="7.5" fill="rgb(0,0,0)" text-anchor="middle">3</text>
<polygon points="192.9,248.3 198.9,248.3 198.9,254.3 192.9,254.3" fill="rgb(233,233,255)"/>
<polygon points="198.9,248.3 204.9,248.3 204.9,254.3 198.9,254.3" fill="rgb(255,232,232)"/>
<polygon points="204.9,248.3 210.9,248.3 210.9,254.3 204.9,254.3" fill="rgb(230,230,255)"/>
<polygon points="210.9,248.3 216.9,248.3 216.9,254.3 210.9,254.3" fill="rgb(202,202,255)"/>
<polygon points="216.9,248.3 222.9,248.3 222.9,254.3 216.9,254.3" fill="rgb(226,226,255)"/>
<polygon points="222.9,248.3 228.9,248.3 228.9,254.3 222.9,254.3" fill="rgb(255,243,243)"/>
<polygon points="228.9,248.3 234.9,248.3 234.9,254.3 228.9,254.3" fill="rgb(222,222,255)"/>
<polygon points="234.9,248.3 240.9,248.3 240.9,254.3 234.9,254.3" fill="rgb(255,252,252)"/>
<polygon points="250.9,248.3 256.9,248.3 256.9,254.3 250.9,254.3" fill="rgb(223,223,255)"/>
<polygon points="256.9,248.3 262.9,248.3 262.9,254.3 256.9,254.3" fill="rgb(223,223,255)"/>
<polygon points="262.9,248.3 268.9,248.3 268.9,254.3 262.9,254.3" fill="rgb(245,245,255)"/>
<polygon points="268.9,248.3 274.9,248.3 274.9,254.3 268.9,254.3" fill="rgb(131,131,255)"/>
<polygon points="274.9,248.3 280.9,248.3 280.9,254.3 274.9,254.3" fill="rgb(188,188,255)"/>
<polygon points="280.9,248.3 286.9,248.3 286.9,254.3 280.9,254.3" fill="rgb(255,205,205)"/>
<polygon points="286.9,248.3 292.9,248.3 292.9,254.3 286.9,254.3" fill="rgb(255,205,205)"/>
<polygon points="292.9,248.3 298.9,248.3 298.9,254.3 292.9,254.3" fill="rgb(255,123,123)"/>
<polygon points="308.9,248.3 314.9,248.3 314.9,254.3 308.9,254.3" fill="rgb(172,172,255)"/>
<polygon points="314.9,248.3 320.9,248.3 320.9,254.3 314.9,254.3" fill="rgb(172,172,255)"/>
<polygon points="320.9,248.3 326.9,248.3 326.9,254.3 320.9,254.3" fill="rgb(176,176,255)"/>
<polygon points="326.9,248.3 332.9,248.3 332.9,254.3 326.9,254.3" fill="rgb(124,124,255)"/>
<polygon points="332.9,248.3 338.9,248.3 338.9,254.3 332.9,254.3" fill="rgb(178,178,255)"/>
<polygon points="338.9,248.3 344.9,248.3 344.9,254.3 338.9,254.3" fill="rgb(255,178,178)"/>
<polygon points="344.9,248.3 350.9,248.3 350.9,254.3 344.9,254.3" fill="rgb(255,181,181)"/>
<polygon points="350.9,248.3 356.9,248.3 356.9,254.3 350.9,254.3" fill="rgb(255,137,137)"/>
<polygon points="158.9,254.3 166.9,254.3 166.9,260.3 158.9,260.3" fill="rgb(245,245,245)"/><text xml:space="preserve" x="162.9" y="260.133" font-family="Calibri" font-size="7.5" fill="rgb(0,0,0)" text-anchor="middle">7</text>
<polygon points="166.9,254.3 174.9,254.3 174.9,260.3 166.9,260.3" fill="rgb(156,207,203)"/><text xml:space="preserve" x="170.9" y="260.133" font-family="Calibri" font-size="7.5" fill="rgb(0,0,0)" text-anchor="middle">3</text>
<polygon points="174.9,254.3 182.9,254.3 182.9,260.3 174.9,260.3" fill="rgb(156,207,203)"/><text xml:space="preserve" x="178.9" y="260.133" font-family="Calibri" font-size="7.5" fill="rgb(0,0,0)" text-anchor="middle">3</text>
<polygon points="192.9,254.3 198.9,254.3 198.9,260.3 192.9,260.3" fill="rgb(255,154,154)"/>
<polygon points="198.9,254.3 204.9,254.3 204.9,260.3 198.9,260.3" fill="rgb(254,189,189)"/>
<polygon points="204.9,254.3 210.9,254.3 210.9,260.3 204.9,260.3" fill="rgb(255,202,202)"/>
<polygon points="210.9,254.3 216.9,254.3 216.9,260.3 210.9,260.3" fill="rgb(255,142,142)"/>
<polygon points="216.9,254.3 222.9,254.3 222.9,260.3 216.9,260.3" fill="rgb(255,176,176)"/>
<polygon points="222.9,254.3 228.9,254.3 228.9,260.3 222.9,260.3" fill="rgb(184,184,255)"/>
<polygon points="228.9,254.3 234.9,254.3 234.9,260.3 228.9,260.3" fill="rgb(233,233,255)"/>
<polygon points="234.9,254.3 240.9,254.3 240.9,260.3 234.9,260.3" fill="rgb(255,221,221)"/>
<polygon points="250.9,254.3 256.9,254.3 256.9,260.3 250.9,260.3" fill="rgb(255,250,250)"/>
<polygon points="256.9,254.3 262.9,254.3 262.9,260.3 256.9,260.3" fill="rgb(162,162,255)"/>
<polygon points="262.9,254.3 268.9,254.3 268.9,260.3 262.9,260.3" fill="rgb(140,140,255)"/>
<polygon points="268.9,254.3 274.9,254.3 274.9,260.3 268.9,260.3" fill="rgb(91,91,255)"/>
<polygon points="274.9,254.3 280.9,254.3 280.9,260.3 274.9,260.3" fill="rgb(178,178,255)"/>
<polygon points="280.9,254.3 286.9,254.3 286.9,260.3 280.9,260.3" fill="rgb(255,205,205)"/>
<polygon points="286.9,254.3 292.9,254.3 292.9,260.3 286.9,260.3" fill="rgb(255,207,207)"/>
<polygon points="292.9,254.3 298.9,254.3 298.9,260.3 292.9,260.3" fill="rgb(255,59,59)"/>
<polygon points="308.9,254.3 314.9,254.3 314.9,260.3 308.9,260.3" fill="rgb(216,216,255)"/>
<polygon points="314.9,254.3 320.9,254.3 320.9,260.3 314.9,260.3" fill="rgb(138,138,255)"/>
<polygon points="320.9,254.3 326.9,254.3 326.9,260.3 320.9,260.3" fill="rgb(163,163,255)"/>
<polygon points="326.9,254.3 332.9,254.3 332.9,260.3 326.9,260.3" fill="rgb(77,77,255)"/>
<polygon points="332.9,254.3 338.9,254.3 338.9,260.3 332.9,260.3" fill="rgb(217,217,255)"/>
<polygon points="338.9,254.3 344.9,254.3 344.9,260.3 338.9,260.3" fill="rgb(255,162,162)"/>
<polygon points="344.9,254.3 350.9,254.3 350.9,260.3 344.9,260.3" fill="rgb(255,191,191)"/>
<polygon points="350.9,254.3 356.9,254.3 356.9,260.3 350.9,260.3" fill="rgb(255,0,0)"/>
<polygon points="158.9,260.3 166.9,260.3 166.9,266.3 158.9,266.3" fill="rgb(245,245,245)"/><text xml:space="preserve" x="162.9" y="266.133" font-family="Calibri" font-size="7.5" fill="rgb(0,0,0)" text-anchor="middle">7</text>
<polygon points="166.9,260.3 174.9,260.3 174.9,266.3 166.9,266.3" fill="rgb(156,207,203)"/><text xml:space="preserve" x="170.9" y="266.133" font-family="Calibri" font-size="7.5" fill="rgb(0,0,0)" text-anchor="middle">3</text>
<polygon points="174.9,260.3 182.9,260.3 182.9,266.3 174.9,266.3" fill="rgb(156,207,203)"/><text xml:space="preserve" x="178.9" y="266.133" font-family="Calibri" font-size="7.5" fill="rgb(0,0,0)" text-anchor="middle">3</text>
<polygon points="192.9,260.3 198.9,260.3 198.9,266.3 192.9,266.3" fill="rgb(255,146,146)"/>
<polygon points="198.9,260.3 204.9,260.3 204.9,266.3 198.9,266.3" fill="rgb(255,199,199)"/>
<polygon points="204.9,260.3 210.9,260.3 210.9,266.3 204.9,266.3" fill="rgb(255,200,200)"/>
<polygon points="210.9,260.3 216.9,260.3 216.9,266.3 210.9,266.3" fill="rgb(255,134,134)"/>
<polygon points="216.9,260.3 222.9,260.3 222.9,266.3 216.9,266.3" fill="rgb(255,172,172)"/>
<polygon points="222.9,260.3 228.9,260.3 228.9,266.3 222.9,266.3" fill="rgb(193,193,255)"/>
<polygon points="228.9,260.3 234.9,260.3 234.9,266.3 228.9,266.3" fill="rgb(248,248,255)"/>
<polygon points="234.9,260.3 240.9,260.3 240.9,266.3 234.9,266.3" fill="rgb(255,212,212)"/>
<polygon points="250.9,260.3 256.9,260.3 256.9,266.3 250.9,266.3" fill="rgb(252,252,255)"/>
<polygon points="256.9,260.3 262.9,260.3 262.9,266.3 256.9,266.3" fill="rgb(161,161,255)"/>
<polygon points="262.9,260.3 268.9,260.3 268.9,266.3 262.9,266.3" fill="rgb(137,137,255)"/>
<polygon points="268.9,260.3 274.9,260.3 274.9,266.3 268.9,266.3" fill="rgb(99,99,255)"/>
<polygon points="274.9,260.3 280.9,260.3 280.9,266.3 274.9,266.3" fill="rgb(187,187,255)"/>
<polygon points="280.9,260.3 286.9,260.3 286.9,266.3 280.9,266.3" fill="rgb(255,203,203)"/>
<polygon points="286.9,260.3 292.9,260.3 292.9,266.3 286.9,266.3" fill="rgb(255,212,212)"/>
<polygon points="292.9,260.3 298.9,260.3 298.9,266.3 292.9,266.3" fill="rgb(255,76,76)"/>
<polygon points="308.9,260.3 314.9,260.3 314.9,266.3 308.9,266.3" fill="rgb(224,224,255)"/>
<polygon points="314.9,260.3 320.9,260.3 320.9,266.3 314.9,266.3" fill="rgb(132,132,255)"/>
<polygon points="320.9,260.3 326.9,260.3 326.9,266.3 320.9,266.3" fill="rgb(171,171,255)"/>
<polygon points="326.9,260.3 332.9,260.3 332.9,266.3 326.9,266.3" fill="rgb(83,83,255)"/>
<polygon points="332.9,260.3 338.9,260.3 338.9,266.3 332.9,266.3" fill="rgb(215,215,255)"/>
<polygon points="338.9,260.3 344.9,260.3 344.9,266.3 338.9,266.3" fill="rgb(255,171,171)"/>
<polygon points="344.9,260.3 350.9,260.3 350.9,266.3 344.9,266.3" fill="rgb(255,182,182)"/>
<polygon points="350.9,260.3 356.9,260.3 356.9,266.3 350.9,266.3" fill="rgb(255,0,0)"/>
<polygon points="158.9,266.3 166.9,266.3 166.9,272.3 158.9,272.3" fill="rgb(245,245,245)"/><text xml:space="preserve" x="162.9" y="272.133" font-family="Calibri" font-size="7.5" fill="rgb(0,0,0)" text-anchor="middle">7</text>
<polygon points="166.9,266.3 174.9,266.3 174.9,272.3 166.9,272.3" fill="rgb(156,207,203)"/><text xml:space="preserve" x="170.9" y="272.133" font-family="Calibri" font-size="7.5" fill="rgb(0,0,0)" text-anchor="middle">3</text>
<polygon points="174.9,266.3 182.9,266.3 182.9,272.3 174.9,272.3" fill="rgb(156,207,203)"/><text xml:space="preserve" x="178.9" y="272.133" font-family="Calibri" font-size="7.5" fill="rgb(0,0,0)" text-anchor="middle">3</text>
<polygon points="192.9,266.3 198.9,266.3 198.9,272.3 192.9,272.3" fill="rgb(255,146,146)"/>
<polygon points="198.9,266.3 204.9,266.3 204.9,272.3 198.9,272.3" fill="rgb(255,213,213)"/>
<polygon points="204.9,266.3 210.9,266.3 210.9,272.3 204.9,272.3" fill="rgb(255,192,192)"/>
<polygon points="210.9,266.3 216.9,266.3 216.9,272.3 210.9,272.3" fill="rgb(255,123,123)"/>
<polygon points="216.9,266.3 222.9,266.3 222.9,272.3 216.9,272.3" fill="rgb(255,164,164)"/>
<polygon points="222.9,266.3 228.9,266.3 228.9,272.3 222.9,272.3" fill="rgb(191,191,255)"/>
<polygon points="228.9,266.3 234.9,266.3 234.9,272.3 228.9,272.3" fill="rgb(241,241,255)"/>
<polygon points="234.9,266.3 240.9,266.3 240.9,272.3 234.9,272.3" fill="rgb(255,218,218)"/>
<polygon points="250.9,266.3 256.9,266.3 256.9,272.3 250.9,272.3" fill="rgb(255,246,246)"/>
<polygon points="256.9,266.3 262.9,266.3 262.9,272.3 256.9,272.3" fill="rgb(140,140,255)"/>
<polygon points="262.9,266.3 268.9,266.3 268.9,272.3 262.9,272.3" fill="rgb(132,132,255)"/>
<polygon points="268.9,266.3 274.9,266.3 274.9,272.3 268.9,272.3" fill="rgb(100,100,255)"/>
<polygon points="274.9,266.3 280.9,266.3 280.9,272.3 274.9,272.3" fill="rgb(198,198,255)"/>
<polygon points="280.9,266.3 286.9,266.3 286.9,272.3 280.9,272.3" fill="rgb(255,204,204)"/>
<polygon points="286.9,266.3 292.9,266.3 292.9,272.3 286.9,272.3" fill="rgb(255,216,216)"/>
<polygon points="292.9,266.3 298.9,266.3 298.9,272.3 292.9,272.3" fill="rgb(255,50,50)"/>
<polygon points="308.9,266.3 314.9,266.3 314.9,272.3 308.9,272.3" fill="rgb(226,226,255)"/>
<polygon points="314.9,266.3 320.9,266.3 320.9,272.3 314.9,272.3" fill="rgb(137,137,255)"/>
<polygon points="320.9,266.3 326.9,266.3 326.9,272.3 320.9,272.3" fill="rgb(158,158,255)"/>
<polygon points="326.9,266.3 332.9,266.3 332.9,272.3 326.9,272.3" fill="rgb(86,86,255)"/>
<polygon points="332.9,266.3 338.9,266.3 338.9,272.3 332.9,272.3" fill="rgb(216,216,255)"/>
<polygon points="338.9,266.3 344.9,266.3 344.9,272.3 338.9,272.3" fill="rgb(255,177,177)"/>
<polygon points="344.9,266.3 350.9,266.3 350.9,272.3 344.9,272.3" fill="rgb(255,185,185)"/>
<polygon points="350.9,266.3 356.9,266.3 356.9,272.3 350.9,272.3" fill="rgb(255,0,0)"/>
<polygon points="158.9,212.3 182.9,212.3 182.9,272.3 158.9,272.3" fill="none" stroke="black" stroke-width="1"/>
<polygon points="192.9,212.3 240.9,212.3 240.9,272.3 192.9,272.3" fill="none" stroke="black" stroke-width="1"/>
<polygon points="250.9,212.3 298.9,212.3 298.9,272.3 250.9,272.3" fill="none" stroke="black" stroke-width="1"/>
<polygon points="308.9,212.3 356.9,212.3 356.9,272.3 308.9,272.3" fill="none" stroke="black" stroke-width="1"/>
<text xml:space="preserve" x="199.45" y="304.633" font-family="Calibri" font-size="6" text-anchor="middle">moduleID</text>
<polygon points="89.45,312.3 109.45,312.3 109.45,332.3 89.45,332.3" fill="rgb(250,250,250)"/><polygon points="89.45,312.3 109.45,312.3 109.45,332.3 89.45,332.3" fill="none" stroke="black" stroke-width="1"/><text xml:space="preserve" x="99.45" y="325.133" font-family="Calibri" font-size="7.5" fill="rgb(0,0,0)" text-anchor="middle">-2.0</text>
<polygon points="109.45,312.3 129.45,312.3 129.45,332.3 109.45,332.3" fill="rgb(156,210,205)"/><polygon points="109.45,312.3 129.45,312.3 129.45,332.3 109.45,332.3" fill="none" stroke="black" stroke-width="1"/><text xml:space="preserve" x="119.45" y="325.133" font-family="Calibri" font-size="7.5" fill="rgb(0,0,0)" text-anchor="middle">-0.4</text>
<polygon points="129.45,312.3 149.45,312.3 149.45,332.3 129.45,332.3" fill="rgb(116,191,184)"/><polygon points="129.45,312.3 149.45,312.3 149.45,332.3 129.45,332.3" fill="none" stroke="black" stroke-width="1"/><text xml:space="preserve" x="139.45" y="325.133" font-family="Calibri" font-size="7.5" fill="rgb(0,0,0)" text-anchor="middle">1.2</text>
<polygon points="149.45,312.3 169.45,312.3 169.45,332.3 149.45,332.3" fill="rgb(152,206,201)"/><polygon points="149.45,312.3 169.45,312.3 169.45,332.3 149.45,332.3" fill="none" stroke="black" stroke-width="1"/><text xml:space="preserve" x="159.45" y="325.133" font-family="Calibri" font-size="7.5" fill="rgb(0,0,0)" text-anchor="middle">2.8</text>
<polygon points="169.45,312.3 189.45,312.3 189.45,332.3 169.45,332.3" fill="rgb(187,220,217)"/><polygon points="169.45,312.3 189.45,312.3 189.45,332.3 169.45,332.3" fill="none" stroke="black" stroke-width="1"/><text xml:space="preserve" x="179.45" y="325.133" font-family="Calibri" font-size="7.5" fill="rgb(0,0,0)" text-anchor="middle">4.4</text>
<polygon points="189.45,312.3 209.45,312.3 209.45,332.3 189.45,332.3" fill="rgb(222,235,234)"/><polygon points="189.45,312.3 209.45,312.3 209.45,332.3 189.45,332.3" fill="none" stroke="black" stroke-width="1"/><text xml:space="preserve" x="199.45" y="325.133" font-family="Calibri" font-size="7.5" fill="rgb(0,0,0)" text-anchor="middle">6.0</text>
<polygon points="209.45,312.3 229.45,312.3 229.45,332.3 209.45,332.3" fill="rgb(242,239,232)"/><polygon points="209.45,312.3 229.45,312.3 229.45,332.3 209.45,332.3" fill="none" stroke="black" stroke-width="1"/><text xml:space="preserve" x="219.45" y="325.133" font-family="Calibri" font-size="7.5" fill="rgb(0,0,0)" text-anchor="middle">7.6</text>
<polygon points="229.45,312.3 249.45,312.3 249.45,332.3 229.45,332.3" fill="rgb(235,224,199)"/><polygon points="229.45,312.3 249.45,312.3 249.45,332.3 229.45,332.3" fill="none" stroke="black" stroke-width="1"/><text xml:space="preserve" x="239.45" y="325.133" font-family="Calibri" font-size="7.5" fill="rgb(0,0,0)" text-anchor="middle">9.2</text>
<polygon points="249.45,312.3 269.45,312.3 269.45,332.3 249.45,332.3" fill="rgb(229,209,166)"/><polygon points="249.45,312.3 269.45,312.3 269.45,332.3 249.45,332.3" fill="none" stroke="black" stroke-width="1"/><text xml:space="preserve" x="259.45" y="325.133" font-family="Calibri" font-size="7.5" fill="rgb(0,0,0)" text-anchor="middle">10.8</text>
<polygon points="269.45,312.3 289.45,312.3 289.45,332.3 269.45,332.3" fill="rgb(222,194,133)"/><polygon points="269.45,312.3 289.45,312.3 289.45,332.3 269.45,332.3" fill="none" stroke="black" stroke-width="1"/><text xml:space="preserve" x="279.45" y="325.133" font-family="Calibri" font-size="7.5" fill="rgb(0,0,0)" text-anchor="middle">12.4</text>
<polygon points="289.45,312.3 309.45,312.3 309.45,332.3 289.45,332.3" fill="rgb(216,179,101)"/><polygon points="289.45,312.3 309.45,312.3 309.45,332.3 289.45,332.3" fill="none" stroke="black" stroke-width="1"/><text xml:space="preserve" x="299.45" y="325.133" font-family="Calibri" font-size="7.5" fill="rgb(0,0,0)" text-anchor="middle">14.0</text>
<text xml:space="preserve" x="199.45" y="364.633" font-family="Calibri" font-size="6" text-anchor="middle">marklevel</text>
<polygon points="89.45,372.3 109.45,372.3 109.45,392.3 89.45,392.3" fill="rgb(0,0,255)"/><polygon points="89.45,372.3 109.45,372.3 109.45,392.3 89.45,392.3" fill="none" stroke="black" stroke-width="1"/><text xml:space="preserve" x="99.45" y="385.133" font-family="Calibri" font-size="7.5" fill="rgb(255,255,255)" text-anchor="middle">-2.0</text>
<polygon points="109.45,372.3 129.45,372.3 129.45,392.3 109.45,392.3" fill="rgb(50,50,255)"/><polygon points="109.45,372.3 129.45,372.3 129.45,392.3 109.45,392.3" fill="none" stroke="black" stroke-width="1"/><text xml:space="preserve" x="119.45" y="385.133" font-family="Calibri" font-size="7.5" fill="rgb(255,255,255)" text-anchor="middle">-1.6</text>
<polygon points="129.45,372.3 149.45,372.3 149.45,392.3 129.45,392.3" fill="rgb(102,102,255)"/><polygon points="129.45,372.3 149.45,372.3 149.45,392.3 129.45,392.3" fill="none" stroke="black" stroke-width="1"/><text xml:space="preserve" x="139.45" y="385.133" font-family="Calibri" font-size="7.5" fill="rgb(255,255,255)" text-anchor="middle">-1.2</text>
<polygon points="149.45,372.3 169.45,372.3 169.45,392.3 149.45,392.3" fill="rgb(153,153,255)"/><polygon points="149.45,372.3 169.45,372.3 169.45,392.3 149.45,392.3" fill="none" stroke="black" stroke-width="1"/><text xml:space="preserve" x="159.45" y="385.133" font-family="Calibri" font-size="7.5" fill="rgb(0,0,0)" text-anchor="middle">-0.8</text>
<polygon points="169.45,372.3 189.45,372.3 189.45,392.3 169.45,392.3" fill="rgb(204,204,255)"/><polygon points="169.45,372.3 189.45,372.3 189.45,392.3 169.45,392.3" fill="none" stroke="black" stroke-width="1"/><text xml:space="preserve" x="179.45" y="385.133" font-family="Calibri" font-size="7.5" fill="rgb(0,0,0)" text-anchor="middle">-0.4</text>
<polygon points="189.45,372.3 209.45,372.3 209.45,392.3 189.45,392.3" fill="rgb(255,255,255)"/><polygon points="189.45,372.3 209.45,372.3 209.45,392.3 189.45,392.3" fill="none" stroke="black" stroke-width="1"/><text xml:space="preserve" x="199.45" y="385.133" font-family="Calibri" font-size="7.5" fill="rgb(0,0,0)" text-anchor="middle">0.0</text>
<polygon points="209.45,372.3 229.45,372.3 229.45,392.3 209.45,392.3" fill="rgb(255,204,204)"/><polygon points="209.45,372.3 229.45,372.3 229.45,392.3 209.45,392.3" fill="none" stroke="black" stroke-width="1"/><text xml:space="preserve" x="219.45" y="385.133" font-family="Calibri" font-size="7.5" fill="rgb(0,0,0)" text-anchor="middle">0.4</text>
<polygon points="229.45,372.3 249.45,372.3 249.45,392.3 229.45,392.3" fill="rgb(255,153,153)"/><polygon points="229.45,372.3 249.45,372.3 249.45,392.3 229.45,392.3" fill="none" stroke="black" stroke-width="1"/><text xml:space="preserve" x="239.45" y="385.133" font-family="Calibri" font-size="7.5" fill="rgb(0,0,0)" text-anchor="middle">0.8</text>
<polygon points="249.45,372.3 269.45,372.3 269.45,392.3 249.45,392.3" fill="rgb(255,102,102)"/><polygon points="249.45,372.3 269.45,372.3 269.45,392.3 249.45,392.3" fill="none" stroke="black" stroke-width="1"/><text xml:space="preserve" x="259.45" y="385.133" font-family="Calibri" font-size="7.5" fill="rgb(0,0,0)" text-anchor="middle">1.2</text>
<polygon points="269.45,372.3 289.45,372.3 289.45,392.3 269.45,392.3" fill="rgb(255,50,50)"/><polygon points="269.45,372.3 289.45,372.3 289.45,392.3 269.45,392.3" fill="none" stroke="black" stroke-width="1"/><text xml:space="preserve" x="279.45" y="385.133" font-family="Calibri" font-size="7.5" fill="rgb(255,255,255)" text-anchor="middle">1.6</text>
<polygon points="289.45,372.3 309.45,372.3 309.45,392.3 289.45,392.3" fill="rgb(255,0,0)"/><polygon points="289.45,372.3 309.45,372.3 309.45,392.3 289.45,392.3" fill="none" stroke="black" stroke-width="1"/><text xml:space="preserve" x="299.45" y="385.133" font-family="Calibri" font-size="7.5" fill="rgb(255,255,255)" text-anchor="middle">2.0</text>
</svg>
