<?xml version="1.0" standalone="no"?><!DOCTYPE svg PUBLIC "-//W3C//DTD SVG 1.1//EN" "http://www.w3.org/Graphics/SVG/1.1/DTD/svg11.dtd">
<svg width="399.2" height="418.3" version="1.1" xmlns="http://www.w3.org/2000/svg">
<text xml:space="preserve" x="155.2" y="217.633" font-family="Calibri" font-size="6" text-anchor="end">1700001C19Rik</text>
<text xml:space="preserve" x="155.2" y="223.633" font-family="Calibri" font-size="6" text-anchor="end">Klk10</text>
<text xml:space="preserve" x="155.2" y="229.633" font-family="Calibri" font-size="6" text-anchor="end">Gngt2</text>
<text xml:space="preserve" x="155.2" y="235.633" font-family="Calibri" font-size="6" text-anchor="end">Hmha1</text>
<text xml:space="preserve" x="155.2" y="241.633" font-family="Calibri" font-size="6" text-anchor="end">Hspa12b</text>
<text xml:space="preserve" x="155.2" y="247.633" font-family="Calibri" font-size="6" text-anchor="end">Tha1</text>
<text xml:space="preserve" x="155.2" y="253.633" font-family="Calibri" font-size="6" text-anchor="end">Def6</text>
<text xml:space="preserve" x="155.2" y="259.633" font-family="Calibri" font-size="6" text-anchor="end">Slc2a6</text>
<text xml:space="preserve" x="155.2" y="265.633" font-family="Calibri" font-size="6" text-anchor="end">Sh3bp2</text>
<text xml:space="preserve" x="155.2" y="271.633" font-family="Calibri" font-size="6" text-anchor="end">Rab17</text>
<text xml:space="preserve" x="155.2" y="277.633" font-family="Calibri" font-size="6" text-anchor="end">Pglyrp1</text>
<text xml:space="preserve" x="165.533" y="208.3" font-family="Calibri" font-size="6" transform="rotate(270 165.533 208.3)">ips</text>
<text xml:space="preserve" x="173.533" y="208.3" font-family="Calibri" font-size="6" transform="rotate(270 173.533 208.3)">pips</text>
<text xml:space="preserve" x="181.533" y="208.3" font-family="Calibri" font-size="6" transform="rotate(270 181.533 208.3)">mef</text>
<text xml:space="preserve" x="198.533" y="208.3" font-family="Calibri" font-size="6" transform="rotate(270 198.533 208.3)">ips_H3K4me3iPS</text>
<text xml:space="preserve" x="204.533" y="208.3" font-family="Calibri" font-size="6" transform="rotate(270 204.533 208.3)">ips_H3K9aciPS</text>
<text xml:space="preserve" x="210.533" y="208.3" font-family="Calibri" font-size="6" transform="rotate(270 210.533 208.3)">ips_H3K14aciPS</text>
<text xml:space="preserve" x="216.533" y="208.3" font-family="Calibri" font-size="6" transform="rotate(270 216.533 208.3)">ips_H3K18aciPS</text>
<text xml:space="preserve" x="222.533" y="208.3" font-family="Calibri" font-size="6" transform="rotate(270 222.533 208.3)">ips_H3K79me2iPS</text>
<text xml:space="preserve" x="228.533" y="208.3" font-family="Calibri" font-size="6" transform="rotate(270 228.533 208.3)">ips_H3K9me2iPS</text>
<text xml:space="preserve" x="234.533" y="208.3" font-family="Calibri" font-size="6" transform="rotate(270 234.533 208.3)">ips_H3K9me3iPS</text>
<text xml:space="preserve" x="240.533" y="208.3" font-family="Calibri" font-size="6" transform="rotate(270 240.533 208.3)">ips_H3K27me3iPS</text>
<text xml:space="preserve" x="256.533" y="208.3" font-family="Calibri" font-size="6" transform="rotate(270 256.533 208.3)">pips_H3K4me3pips</text>
<text xml:space="preserve" x="262.533" y="208.3" font-family="Calibri" font-size="6" transform="rotate(270 262.533 208.3)">pips_H3K9acpips</text>
<text xml:space="preserve" x="268.533" y="208.3" font-family="Calibri" font-size="6" transform="rotate(270 268.533 208.3)">pips_H3K14acpips</text>
<text xml:space="preserve" x="274.533" y="208.3" font-family="Calibri" font-size="6" transform="rotate(270 274.533 208.3)">pips_H3K18acpips</text>
<text xml:space="preserve" x="280.533" y="208.3" font-family="Calibri" font-size="6" transform="rotate(270 280.533 208.3)">pips_H3K79me2pips</text>
<text xml:space="preserve" x="286.533" y="208.3" font-family="Calibri" font-size="6" transform="rotate(270 286.533 208.3)">pips_H3K9me2pips</text>
<text xml:space="preserve" x="292.533" y="208.3" font-family="Calibri" font-size="6" transform="rotate(270 292.533 208.3)">pips_H3K9me3pips</text>
<text xml:space="preserve" x="298.533" y="208.3" font-family="Calibri" font-size="6" transform="rotate(270 298.533 208.3)">pips_H3K27me3pips</text>
<text xml:space="preserve" x="314.533" y="208.3" font-family="Calibri" font-size="6" transform="rotate(270 314.533 208.3)">mef_H3K4me3mef</text>
<text xml:space="preserve" x="320.533" y="208.3" font-family="Calibri" font-size="6" transform="rotate(270 320.533 208.3)">mef_H3K9acmef</text>
<text xml:space="preserve" x="326.533" y="208.3" font-family="Calibri" font-size="6" transform="rotate(270 326.533 208.3)">mef_H3K14acmef</text>
<text xml:space="preserve" x="332.533" y="208.3" font-family="Calibri" font-size="6" transform="rotate(270 332.533 208.3)">mef_H3K18acmef</text>
<text xml:space="preserve" x="338.533" y="208.3" font-family="Calibri" font-size="6" transform="rotate(270 338.533 208.3)">mef_H3K79me2mef</text>
<text xml:space="preserve" x="344.533" y="208.3" font-family="Calibri" font-size="6" transform="rotate(270 344.533 208.3)">mef_H3K9me2mef</text>
<text xml:space="preserve" x="350.533" y="208.3" font-family="Calibri" font-size="6" transform="rotate(270 350.533 208.3)">mef_H3K9me3mef</text>
<text xml:space="preserve" x="356.533" y="208.3" font-family="Calibri" font-size="6" transform="rotate(270 356.533 208.3)">mef_H3K27me3mef</text>
<polygon points="159.2,212.3 167.2,212.3 167.2,218.3 159.2,218.3" fill="rgb(200,226,224)"/><text xml:space="preserve" x="163.2" y="218.133" font-family="Calibri" font-size="7.5" fill="rgb(0,0,0)" text-anchor="middle">5</text>
<polygon points="167.2,212.3 175.2,212.3 175.2,218.3 167.2,218.3" fill="rgb(245,245,245)"/><text xml:space="preserve" x="171.2" y="218.133" font-family="Calibri" font-size="7.5" fill="rgb(0,0,0)" text-anchor="middle">7</text>
<polygon points="175.2,212.3 183.2,212.3 183.2,218.3 175.2,218.3" fill="rgb(200,226,224)"/><text xml:space="preserve" x="179.2" y="218.133" font-family="Calibri" font-size="7.5" fill="rgb(0,0,0)" text-anchor="middle">5</text>
<polygon points="193.2,212.3 199.2,212.3 199.2,218.3 193.2,218.3" fill="rgb(254,251,251)"/>
<polygon points="199.2,212.3 205.2,212.3 205.2,218.3 199.2,218.3" fill="rgb(232,232,255)"/>
<polygon points="205.2,212.3 211.2,212.3 211.2,218.3 205.2,218.3" fill="rgb(255,231,231)"/>
<polygon points="211.2,212.3 217.2,212.3 217.2,218.3 211.2,218.3" fill="rgb(255,181,181)"/>
<polygon points="217.2,212.3 223.2,212.3 223.2,218.3 217.2,218.3" fill="rgb(192,192,255)"/>
<polygon points="223.2,212.3 229.2,212.3 229.2,218.3 223.2,218.3" fill="rgb(254,244,244)"/>
<polygon points="229.2,212.3 235.2,212.3 235.2,218.3 229.2,218.3" fill="rgb(222,222,255)"/>
<polygon points="235.2,212.3 241.2,212.3 241.2,218.3 235.2,218.3" fill="rgb(255,251,251)"/>
<polygon points="251.2,212.3 257.2,212.3 257.2,218.3 251.2,218.3" fill="rgb(225,225,255)"/>
<polygon points="257.2,212.3 263.2,212.3 263.2,218.3 257.2,218.3" fill="rgb(255,244,244)"/>
<polygon points="263.2,212.3 269.2,212.3 269.2,218.3 263.2,218.3" fill="rgb(255,235,235)"/>
<polygon points="269.2,212.3 275.2,212.3 275.2,218.3 269.2,218.3" fill="rgb(255,129,129)"/>
<polygon points="275.2,212.3 281.2,212.3 281.2,218.3 275.2,218.3" fill="rgb(255,226,226)"/>
<polygon points="281.2,212.3 287.2,212.3 287.2,218.3 281.2,218.3" fill="rgb(215,215,255)"/>
<polygon points="287.2,212.3 293.2,212.3 293.2,218.3 287.2,218.3" fill="rgb(232,232,255)"/>
<polygon points="293.2,212.3 299.2,212.3 299.2,218.3 293.2,218.3" fill="rgb(214,214,255)"/>
<polygon points="309.2,212.3 315.2,212.3 315.2,218.3 309.2,218.3" fill="rgb(183,183,255)"/>
<polygon points="315.2,212.3 321.2,212.3 321.2,218.3 315.2,218.3" fill="rgb(217,217,255)"/>
<polygon points="321.2,212.3 327.2,212.3 327.2,218.3 321.2,218.3" fill="rgb(254,254,255)"/>
<polygon points="327.2,212.3 333.2,212.3 333.2,218.3 327.2,218.3" fill="rgb(243,243,255)"/>
<polygon points="333.2,212.3 339.2,212.3 339.2,218.3 333.2,218.3" fill="rgb(170,170,255)"/>
<polygon points="339.2,212.3 345.2,212.3 345.2,218.3 339.2,218.3" fill="rgb(231,231,255)"/>
<polygon points="345.2,212.3 351.2,212.3 351.2,218.3 345.2,218.3" fill="rgb(253,253,255)"/>
<polygon points="351.2,212.3 357.2,212.3 357.2,218.3 351.2,218.3" fill="rgb(255,213,213)"/>
<polygon points="159.2,218.3 167.2,218.3 167.2,224.3 159.2,224.3" fill="rgb(200,226,224)"/><text xml:space="preserve" x="163.2" y="224.133" font-family="Calibri" font-size="7.5" fill="rgb(0,0,0)" text-anchor="middle">5</text>
<polygon points="167.2,218.3 175.2,218.3 175.2,224.3 167.2,224.3" fill="rgb(245,245,245)"/><text xml:space="preserve" x="171.2" y="224.133" font-family="Calibri" font-size="7.5" fill="rgb(0,0,0)" text-anchor="middle">7</text>
<polygon points="175.2,218.3 183.2,218.3 183.2,224.3 175.2,224.3" fill="rgb(200,226,224)"/><text xml:space="preserve" x="179.2" y="224.133" font-family="Calibri" font-size="7.5" fill="rgb(0,0,0)" text-anchor="middle">5</text>
<polygon points="193.2,218.3 199.2,218.3 199.2,224.3 193.2,224.3" fill="rgb(231,231,255)"/>
<polygon points="199.2,218.3 205.2,218.3 205.2,224.3 199.2,224.3" fill="rgb(231,231,255)"/>
<polygon points="205.2,218.3 211.2,218.3 211.2,224.3 205.2,224.3" fill="rgb(255,202,202)"/>
<polygon points="211.2,218.3 217.2,218.3 217.2,224.3 211.2,224.3" fill="rgb(255,95,95)"/>
<polygon points="217.2,218.3 223.2,218.3 223.2,224.3 217.2,224.3" fill="rgb(201,201,255)"/>
<polygon points="223.2,218.3 229.2,218.3 229.2,224.3 223.2,224.3" fill="rgb(255,229,229)"/>
<polygon points="229.2,218.3 235.2,218.3 235.2,224.3 229.2,224.3" fill="rgb(220,220,255)"/>
<polygon points="235.2,218.3 241.2,218.3 241.2,224.3 235.2,224.3" fill="rgb(244,244,255)"/>
<polygon points="251.2,218.3 257.2,218.3 257.2,224.3 251.2,224.3" fill="rgb(255,214,214)"/>
<polygon points="257.2,218.3 263.2,218.3 263.2,224.3 257.2,224.3" fill="rgb(255,189,189)"/>
<polygon points="263.2,218.3 269.2,218.3 269.2,224.3 263.2,224.3" fill="rgb(255,163,163)"/>
<polygon points="269.2,218.3 275.2,218.3 275.2,224.3 269.2,224.3" fill="rgb(255,65,65)"/>
<polygon points="275.2,218.3 281.2,218.3 281.2,224.3 275.2,224.3" fill="rgb(254,240,240)"/>
<polygon points="281.2,218.3 287.2,218.3 287.2,224.3 281.2,224.3" fill="rgb(241,241,255)"/>
<polygon points="287.2,218.3 293.2,218.3 293.2,224.3 287.2,224.3" fill="rgb(181,181,255)"/>
<polygon points="293.2,218.3 299.2,218.3 299.2,224.3 293.2,224.3" fill="rgb(244,244,255)"/>
<polygon points="309.2,218.3 315.2,218.3 315.2,224.3 309.2,224.3" fill="rgb(176,176,255)"/>
<polygon points="315.2,218.3 321.2,218.3 321.2,224.3 315.2,224.3" fill="rgb(210,210,255)"/>
<polygon points="321.2,218.3 327.2,218.3 327.2,224.3 321.2,224.3" fill="rgb(254,203,203)"/>
<polygon points="327.2,218.3 333.2,218.3 333.2,224.3 327.2,224.3" fill="rgb(255,192,192)"/>
<polygon points="333.2,218.3 339.2,218.3 339.2,224.3 333.2,224.3" fill="rgb(175,175,255)"/>
<polygon points="339.2,218.3 345.2,218.3 345.2,224.3 339.2,224.3" fill="rgb(233,233,255)"/>
<polygon points="345.2,218.3 351.2,218.3 351.2,224.3 345.2,224.3" fill="rgb(188,188,255)"/>
<polygon points="351.2,218.3 357.2,218.3 357.2,224.3 351.2,224.3" fill="rgb(213,213,255)"/>
<polygon points="159.2,224.3 167.2,224.3 167.2,230.3 159.2,230.3" fill="rgb(200,226,224)"/><text xml:space="preserve" x="163.2" y="230.133" font-family="Calibri" font-size="7.5" fill="rgb(0,0,0)" text-anchor="middle">5</text>
<polygon points="167.2,224.3 175.2,224.3 175.2,230.3 167.2,230.3" fill="rgb(245,245,245)"/><text xml:space="preserve" x="171.2" y="230.133" font-family="Calibri" font-size="7.5" fill="rgb(0,0,0)" text-anchor="middle">7</text>
<polygon points="175.2,224.3 183.2,224.3 183.2,230.3 175.2,230.3" fill="rgb(200,226,224)"/><text xml:space="preserve" x="179.2" y="230.133" font-family="Calibri" font-size="7.5" fill="rgb(0,0,0)" text-anchor="middle">5</text>
<polygon points="193.2,224.3 199.2,224.3 199.2,230.3 193.2,230.3" fill="rgb(173,173,255)"/>
<polygon points="199.2,224.3 205.2,224.3 205.2,230.3 199.2,230.3" fill="rgb(254,254,255)"/>
<polygon points="205.2,224.3 211.2,224.3 211.2,230.3 205.2,230.3" fill="rgb(255,195,195)"/>
<polygon points="211.2,224.3 217.2,224.3 217.2,230.3 211.2,230.3" fill="rgb(255,196,196)"/>
<polygon points="217.2,224.3 223.2,224.3 223.2,230.3 217.2,230.3" fill="rgb(206,206,255)"/>
<polygon points="223.2,224.3 229.2,224.3 229.2,230.3 223.2,230.3" fill="rgb(255,252,252)"/>
<polygon points="229.2,224.3 235.2,224.3 235.2,230.3 229.2,230.3" fill="rgb(201,201,255)"/>
<polygon points="235.2,224.3 241.2,224.3 241.2,230.3 235.2,230.3" fill="rgb(255,249,249)"/>
<polygon points="251.2,224.3 257.2,224.3 257.2,230.3 251.2,230.3" fill="rgb(255,209,209)"/>
<polygon points="257.2,224.3 263.2,224.3 263.2,230.3 257.2,230.3" fill="rgb(255,226,226)"/>
<polygon points="263.2,224.3 269.2,224.3 269.2,230.3 263.2,230.3" fill="rgb(255,197,197)"/>
<polygon points="269.2,224.3 275.2,224.3 275.2,230.3 269.2,230.3" fill="rgb(254,135,135)"/>
<polygon points="275.2,224.3 281.2,224.3 281.2,230.3 275.2,230.3" fill="rgb(255,228,228)"/>
<polygon points="281.2,224.3 287.2,224.3 287.2,230.3 281.2,230.3" fill="rgb(242,242,255)"/>
<polygon points="287.2,224.3 293.2,224.3 293.2,230.3 287.2,230.3" fill="rgb(192,192,255)"/>
<polygon points="293.2,224.3 299.2,224.3 299.2,230.3 293.2,230.3" fill="rgb(255,246,246)"/>
<polygon points="309.2,224.3 315.2,224.3 315.2,230.3 309.2,230.3" fill="rgb(142,142,255)"/>
<polygon points="315.2,224.3 321.2,224.3 321.2,230.3 315.2,230.3" fill="rgb(219,219,255)"/>
<polygon points="321.2,224.3 327.2,224.3 327.2,230.3 321.2,230.3" fill="rgb(255,241,241)"/>
<polygon points="327.2,224.3 333.2,224.3 333.2,230.3 327.2,230.3" fill="rgb(255,245,245)"/>
<polygon points="333.2,224.3 339.2,224.3 339.2,230.3 333.2,230.3" fill="rgb(184,184,255)"/>
<polygon points="339.2,224.3 345.2,224.3 345.2,230.3 339.2,230.3" fill="rgb(254,254,255)"/>
<polygon points="345.2,224.3 351.2,224.3 351.2,230.3 345.2,230.3" fill="rgb(224,224,255)"/>
<polygon points="351.2,224.3 357.2,224.3 357.2,230.3 351.2,230.3" fill="rgb(255,211,211)"/>
<polygon points="159.2,230.3 167.2,230.3 167.2,236.3 159.2,236.3" fill="rgb(200,226,224)"/><text xml:space="preserve" x="163.2" y="236.133" font-family="Calibri" font-size="7.5" fill="rgb(0,0,0)" text-anchor="middle">5</text>
<polygon points="167.2,230.3 175.2,230.3 175.2,236.3 167.2,236.3" fill="rgb(245,245,245)"/><text xml:space="preserve" x="171.2" y="236.133" font-family="Calibri" font-size="7.5" fill="rgb(0,0,0)" text-anchor="middle">7</text>
<polygon points="175.2,230.3 183.2,230.3 183.2,236.3 175.2,236.3" fill="rgb(200,226,224)"/><text xml:space="preserve" x="179.2" y="236.133" font-family="Calibri" font-size="7.5" fill="rgb(0,0,0)" text-anchor="middle">5</text>
<polygon points="193.2,230.3 199.2,230.3 199.2,236.3 193.2,236.3" fill="rgb(216,216,255)"/>
<polygon points="199.2,230.3 205.2,230.3 205.2,236.3 199.2,236.3" fill="rgb(249,249,255)"/>
<polygon points="205.2,230.3 211.2,230.3 211.2,236.3 205.2,236.3" fill="rgb(255,171,171)"/>
<polygon points="211.2,230.3 217.2,230.3 217.2,236.3 211.2,236.3" fill="rgb(255,139,139)"/>
<polygon points="217.2,230.3 223.2,230.3 223.2,236.3 217.2,236.3" fill="rgb(206,206,255)"/>
<polygon points="223.2,230.3 229.2,230.3 229.2,236.3 223.2,236.3" fill="rgb(255,246,246)"/>
<polygon points="229.2,230.3 235.2,230.3 235.2,236.3 229.2,236.3" fill="rgb(255,208,208)"/>
<polygon points="235.2,230.3 241.2,230.3 241.2,236.3 235.2,236.3" fill="rgb(255,188,188)"/>
<polygon points="251.2,230.3 257.2,230.3 257.2,236.3 251.2,236.3" fill="rgb(255,236,236)"/>
<polygon points="257.2,230.3 263.2,230.3 263.2,236.3 257.2,236.3" fill="rgb(255,199,199)"/>
<polygon points="263.2,230.3 269.2,230.3 269.2,236.3 263.2,236.3" fill="rgb(254,180,180)"/>
<polygon points="269.2,230.3 275.2,230.3 275.2,236.3 269.2,236.3" fill="rgb(255,88,88)"/>
<polygon points="275.2,230.3 281.2,230.3 281.2,236.3 275.2,236.3" fill="rgb(255,226,226)"/>
<polygon points="281.2,230.3 287.2,230.3 287.2,236.3 281.2,236.3" fill="rgb(227,227,255)"/>
<polygon points="287.2,230.3 293.2,230.3 293.2,236.3 287.2,236.3" fill="rgb(142,142,255)"/>
<polygon points="293.2,230.3 299.2,230.3 299.2,236.3 293.2,236.3" fill="rgb(222,222,255)"/>
<polygon points="309.2,230.3 315.2,230.3 315.2,236.3 309.2,236.3" fill="rgb(167,167,255)"/>
<polygon points="315.2,230.3 321.2,230.3 321.2,236.3 315.2,236.3" fill="rgb(232,232,255)"/>
<polygon points="321.2,230.3 327.2,230.3 327.2,236.3 321.2,236.3" fill="rgb(224,224,255)"/>
<polygon points="327.2,230.3 333.2,230.3 333.2,236.3 327.2,236.3" fill="rgb(255,241,241)"/>
<polygon points="333.2,230.3 339.2,230.3 339.2,236.3 333.2,236.3" fill="rgb(201,201,255)"/>
<polygon points="339.2,230.3 345.2,230.3 345.2,236.3 339.2,236.3" fill="rgb(173,173,255)"/>
<polygon points="345.2,230.3 351.2,230.3 351.2,236.3 345.2,236.3" fill="rgb(241,241,255)"/>
<polygon points="351.2,230.3 357.2,230.3 357.2,236.3 351.2,236.3" fill="rgb(222,222,255)"/>
<polygon points="159.2,236.3 167.2,236.3 167.2,242.3 159.2,242.3" fill="rgb(200,226,224)"/><text xml:space="preserve" x="163.2" y="242.133" font-family="Calibri" font-size="7.5" fill="rgb(0,0,0)" text-anchor="middle">5</text>
<polygon points="167.2,236.3 175.2,236.3 175.2,242.3 167.2,242.3" fill="rgb(245,245,245)"/><text xml:space="preserve" x="171.2" y="242.133" font-family="Calibri" font-size="7.5" fill="rgb(0,0,0)" text-anchor="middle">7</text>
<polygon points="175.2,236.3 183.2,236.3 183.2,242.3 175.2,242.3" fill="rgb(200,226,224)"/><text xml:space="preserve" x="179.2" y="242.133" font-family="Calibri" font-size="7.5" fill="rgb(0,0,0)" text-anchor="middle">5</text>
<polygon points="193.2,236.3 199.2,236.3 199.2,242.3 193.2,242.3" fill="rgb(199,199,255)"/>
<polygon points="199.2,236.3 205.2,236.3 205.2,242.3 199.2,242.3" fill="rgb(225,225,255)"/>
<polygon points="205.2,236.3 211.2,236.3 211.2,242.3 205.2,242.3" fill="rgb(255,239,239)"/>
<polygon points="211.2,236.3 217.2,236.3 217.2,242.3 211.2,242.3" fill="rgb(255,217,217)"/>
<polygon points="217.2,236.3 223.2,236.3 223.2,242.3 217.2,242.3" fill="rgb(204,204,255)"/>
<polygon points="223.2,236.3 229.2,236.3 229.2,242.3 223.2,242.3" fill="rgb(255,252,252)"/>
<polygon points="229.2,236.3 235.2,236.3 235.2,242.3 229.2,242.3" fill="rgb(223,223,255)"/>
<polygon points="235.2,236.3 241.2,236.3 241.2,242.3 235.2,242.3" fill="rgb(255,177,177)"/>
<polygon points="251.2,236.3 257.2,236.3 257.2,242.3 251.2,242.3" fill="rgb(252,252,255)"/>
<polygon points="257.2,236.3 263.2,236.3 263.2,242.3 257.2,242.3" fill="rgb(255,182,182)"/>
<polygon points="263.2,236.3 269.2,236.3 269.2,242.3 263.2,242.3" fill="rgb(255,205,205)"/>
<polygon points="269.2,236.3 275.2,236.3 275.2,242.3 269.2,242.3" fill="rgb(255,90,90)"/>
<polygon points="275.2,236.3 281.2,236.3 281.2,242.3 275.2,242.3" fill="rgb(255,222,222)"/>
<polygon points="281.2,236.3 287.2,236.3 287.2,242.3 281.2,242.3" fill="rgb(205,205,255)"/>
<polygon points="287.2,236.3 293.2,236.3 293.2,242.3 287.2,242.3" fill="rgb(191,191,255)"/>
<polygon points="293.2,236.3 299.2,236.3 299.2,242.3 293.2,242.3" fill="rgb(255,226,226)"/>
<polygon points="309.2,236.3 315.2,236.3 315.2,242.3 309.2,242.3" fill="rgb(197,197,255)"/>
<polygon points="315.2,236.3 321.2,236.3 321.2,242.3 315.2,242.3" fill="rgb(252,252,255)"/>
<polygon points="321.2,236.3 327.2,236.3 327.2,242.3 321.2,242.3" fill="rgb(255,195,195)"/>
<polygon points="327.2,236.3 333.2,236.3 333.2,242.3 327.2,242.3" fill="rgb(255,207,207)"/>
<polygon points="333.2,236.3 339.2,236.3 339.2,242.3 333.2,242.3" fill="rgb(234,234,255)"/>
<polygon points="339.2,236.3 345.2,236.3 345.2,242.3 339.2,242.3" fill="rgb(255,227,227)"/>
<polygon points="345.2,236.3 351.2,236.3 351.2,242.3 345.2,242.3" fill="rgb(209,209,255)"/>
<polygon points="351.2,236.3 357.2,236.3 357.2,242.3 351.2,242.3" fill="rgb(255,173,173)"/>
<polygon points="159.2,242.3 167.2,242.3 167.2,248.3 159.2,248.3" fill="rgb(200,226,224)"/><text xml:space="preserve" x="163.2" y="248.133" font-family="Calibri" font-size="7.5" fill="rgb(0,0,0)" text-anchor="middle">5</text>
<polygon points="167.2,242.3 175.2,242.3 175.2,248.3 167.2,248.3" fill="rgb(245,245,245)"/><text xml:space="preserve" x="171.2" y="248.133" font-family="Calibri" font-size="7.5" fill="rgb(0,0,0)" text-anchor="middle">7</text>
<polygon points="175.2,242.3 183.2,242.3 183.2,248.3 175.2,248.3" fill="rgb(200,226,224)"/><text xml:space="preserve" x="179.2" y="248.133" font-family="Calibri" font-size="7.5" fill="rgb(0,0,0)" text-anchor="middle">5</text>
<polygon points="193.2,242.3 199.2,242.3 199.2,248.3 193.2,248.3" fill="rgb(237,237,255)"/>
<polygon points="199.2,242.3 205.2,242.3 205.2,248.3 199.2,248.3" fill="rgb(254,252,252)"/>
<polygon points="205.2,242.3 211.2,242.3 211.2,248.3 205.2,248.3" fill="rgb(255,185,185)"/>
<polygon points="211.2,242.3 217.2,242.3 217.2,248.3 211.2,248.3" fill="rgb(255,148,148)"/>
<polygon points="217.2,242.3 223.2,242.3 223.2,248.3 217.2,248.3" fill="rgb(219,219,255)"/>
<polygon points="223.2,242.3 229.2,242.3 229.2,248.3 223.2,248.3" fill="rgb(255,244,244)"/>
<polygon points="229.2,242.3 235.2,242.3 235.2,248.3 229.2,248.3" fill="rgb(239,239,255)"/>
<polygon points="235.2,242.3 241.2,242.3 241.2,248.3 235.2,248.3" fill="rgb(221,221,255)"/>
<polygon points="251.2,242.3 257.2,242.3 257.2,248.3 251.2,248.3" fill="rgb(241,241,255)"/>
<polygon points="257.2,242.3 263.2,242.3 263.2,248.3 257.2,248.3" fill="rgb(255,229,229)"/>
<polygon points="263.2,242.3 269.2,242.3 269.2,248.3 263.2,248.3" fill="rgb(255,184,184)"/>
<polygon points="269.2,242.3 275.2,242.3 275.2,248.3 269.2,248.3" fill="rgb(255,110,110)"/>
<polygon points="275.2,242.3 281.2,242.3 281.2,248.3 275.2,248.3" fill="rgb(255,242,242)"/>
<polygon points="281.2,242.3 287.2,242.3 287.2,248.3 281.2,248.3" fill="rgb(255,253,253)"/>
<polygon points="287.2,242.3 293.2,242.3 293.2,248.3 287.2,248.3" fill="rgb(249,249,255)"/>
<polygon points="293.2,242.3 299.2,242.3 299.2,248.3 293.2,248.3" fill="rgb(193,193,255)"/>
<polygon points="309.2,242.3 315.2,242.3 315.2,248.3 309.2,248.3" fill="rgb(208,208,255)"/>
<polygon points="315.2,242.3 321.2,242.3 321.2,248.3 315.2,248.3" fill="rgb(255,243,243)"/>
<polygon points="321.2,242.3 327.2,242.3 327.2,248.3 321.2,248.3" fill="rgb(255,204,204)"/>
<polygon points="327.2,242.3 333.2,242.3 333.2,248.3 327.2,248.3" fill="rgb(254,186,186)"/>
<polygon points="333.2,242.3 339.2,242.3 339.2,248.3 333.2,248.3" fill="rgb(213,213,255)"/>
<polygon points="339.2,242.3 345.2,242.3 345.2,248.3 339.2,248.3" fill="rgb(176,176,255)"/>
<polygon points="345.2,242.3 351.2,242.3 351.2,248.3 345.2,248.3" fill="rgb(162,162,255)"/>
<polygon points="351.2,242.3 357.2,242.3 357.2,248.3 351.2,248.3" fill="rgb(240,240,255)"/>
<polygon points="159.2,248.3 167.2,248.3 167.2,254.3 159.2,254.3" fill="rgb(200,226,224)"/><text xml:space="preserve" x="163.2" y="254.133" font-family="Calibri" font-size="7.5" fill="rgb(0,0,0)" text-anchor="middle">5</text>
<polygon points="167.2,248.3 175.2,248.3 175.2,254.3 167.2,254.3" fill="rgb(245,245,245)"/><text xml:space="preserve" x="171.2" y="254.133" font-family="Calibri" font-size="7.5" fill="rgb(0,0,0)" text-anchor="middle">7</text>
<polygon points="175.2,248.3 183.2,248.3 183.2,254.3 175.2,254.3" fill="rgb(200,226,224)"/><text xml:space="preserve" x="179.2" y="254.133" font-family="Calibri" font-size="7.5" fill="rgb(0,0,0)" text-anchor="middle">5</text>
<polygon points="193.2,248.3 199.2,248.3 199.2,254.3 193.2,254.3" fill="rgb(234,234,255)"/>
<polygon points="199.2,248.3 205.2,248.3 205.2,254.3 199.2,254.3" fill="rgb(254,254,255)"/>
<polygon points="205.2,248.3 211.2,248.3 211.2,254.3 205.2,254.3" fill="rgb(255,231,231)"/>
<polygon points="211.2,248.3 217.2,248.3 217.2,254.3 211.2,254.3" fill="rgb(255,221,221)"/>
<polygon points="217.2,248.3 223.2,248.3 223.2,254.3 217.2,254.3" fill="rgb(224,224,255)"/>
<polygon points="223.2,248.3 229.2,248.3 229.2,254.3 223.2,254.3" fill="rgb(255,248,248)"/>
<polygon points="229.2,248.3 235.2,248.3 235.2,254.3 229.2,254.3" fill="rgb(197,197,255)"/>
<polygon points="235.2,248.3 241.2,248.3 241.2,254.3 235.2,254.3" fill="rgb(216,216,255)"/>
<polygon points="251.2,248.3 257.2,248.3 257.2,254.3 251.2,254.3" fill="rgb(253,253,255)"/>
<polygon points="257.2,248.3 263.2,248.3 263.2,254.3 257.2,254.3" fill="rgb(255,204,204)"/>
<polygon points="263.2,248.3 269.2,248.3 269.2,254.3 263.2,254.3" fill="rgb(255,254,254)"/>
<polygon points="269.2,248.3 275.2,248.3 275.2,254.3 269.2,254.3" fill="rgb(254,154,154)"/>
<polygon points="275.2,248.3 281.2,248.3 281.2,254.3 275.2,254.3" fill="rgb(255,208,208)"/>
<polygon points="281.2,248.3 287.2,248.3 287.2,254.3 281.2,254.3" fill="rgb(255,252,252)"/>
<polygon points="287.2,248.3 293.2,248.3 293.2,254.3 287.2,254.3" fill="rgb(193,193,255)"/>
<polygon points="293.2,248.3 299.2,248.3 299.2,254.3 293.2,254.3" fill="rgb(220,220,255)"/>
<polygon points="309.2,248.3 315.2,248.3 315.2,254.3 309.2,254.3" fill="rgb(204,204,255)"/>
<polygon points="315.2,248.3 321.2,248.3 321.2,254.3 315.2,254.3" fill="rgb(249,249,255)"/>
<polygon points="321.2,248.3 327.2,248.3 327.2,254.3 321.2,254.3" fill="rgb(255,240,240)"/>
<polygon points="327.2,248.3 333.2,248.3 333.2,254.3 327.2,254.3" fill="rgb(255,224,224)"/>
<polygon points="333.2,248.3 339.2,248.3 339.2,254.3 333.2,254.3" fill="rgb(230,230,255)"/>
<polygon points="339.2,248.3 345.2,248.3 345.2,254.3 339.2,254.3" fill="rgb(224,224,255)"/>
<polygon points="345.2,248.3 351.2,248.3 351.2,254.3 345.2,254.3" fill="rgb(204,204,255)"/>
<polygon points="351.2,248.3 357.2,248.3 357.2,254.3 351.2,254.3" fill="rgb(218,218,255)"/>
<polygon points="159.2,254.3 167.2,254.3 167.2,260.3 159.2,260.3" fill="rgb(200,226,224)"/><text xml:space="preserve" x="163.2" y="260.133" font-family="Calibri" font-size="7.5" fill="rgb(0,0,0)" text-anchor="middle">5</text>
<polygon points="167.2,254.3 175.2,254.3 175.2,260.3 167.2,260.3" fill="rgb(245,245,245)"/><text xml:space="preserve" x="171.2" y="260.133" font-family="Calibri" font-size="7.5" fill="rgb(0,0,0)" text-anchor="middle">7</text>
<polygon points="175.2,254.3 183.2,254.3 183.2,260.3 175.2,260.3" fill="rgb(200,226,224)"/><text xml:space="preserve" x="179.2" y="260.133" font-family="Calibri" font-size="7.5" fill="rgb(0,0,0)" text-anchor="middle">5</text>
<polygon points="193.2,254.3 199.2,254.3 199.2,260.3 193.2,260.3" fill="rgb(181,181,255)"/>
<polygon points="199.2,254.3 205.2,254.3 205.2,260.3 199.2,260.3" fill="rgb(216,216,255)"/>
<polygon points="205.2,254.3 211.2,254.3 211.2,260.3 205.2,260.3" fill="rgb(254,242,242)"/>
<polygon points="211.2,254.3 217.2,254.3 217.2,260.3 211.2,260.3" fill="rgb(254,254,255)"/>
<polygon points="217.2,254.3 223.2,254.3 223.2,260.3 217.2,260.3" fill="rgb(191,191,255)"/>
<polygon points="223.2,254.3 229.2,254.3 229.2,260.3 223.2,260.3" fill="rgb(255,245,245)"/>
<polygon points="229.2,254.3 235.2,254.3 235.2,260.3 229.2,260.3" fill="rgb(254,231,231)"/>
<polygon points="235.2,254.3 241.2,254.3 241.2,260.3 235.2,260.3" fill="rgb(255,175,175)"/>
<polygon points="251.2,254.3 257.2,254.3 257.2,260.3 251.2,260.3" fill="rgb(254,245,245)"/>
<polygon points="257.2,254.3 263.2,254.3 263.2,260.3 257.2,260.3" fill="rgb(255,187,187)"/>
<polygon points="263.2,254.3 269.2,254.3 269.2,260.3 263.2,260.3" fill="rgb(255,207,207)"/>
<polygon points="269.2,254.3 275.2,254.3 275.2,260.3 269.2,260.3" fill="rgb(255,98,98)"/>
<polygon points="275.2,254.3 281.2,254.3 281.2,260.3 275.2,260.3" fill="rgb(255,219,219)"/>
<polygon points="281.2,254.3 287.2,254.3 287.2,260.3 281.2,260.3" fill="rgb(229,229,255)"/>
<polygon points="287.2,254.3 293.2,254.3 293.2,260.3 287.2,260.3" fill="rgb(205,205,255)"/>
<polygon points="293.2,254.3 299.2,254.3 299.2,260.3 293.2,260.3" fill="rgb(211,211,255)"/>
<polygon points="309.2,254.3 315.2,254.3 315.2,260.3 309.2,260.3" fill="rgb(197,197,255)"/>
<polygon points="315.2,254.3 321.2,254.3 321.2,260.3 315.2,260.3" fill="rgb(226,226,255)"/>
<polygon points="321.2,254.3 327.2,254.3 327.2,260.3 321.2,260.3" fill="rgb(199,199,255)"/>
<polygon points="327.2,254.3 333.2,254.3 333.2,260.3 327.2,260.3" fill="rgb(231,231,255)"/>
<polygon points="333.2,254.3 339.2,254.3 339.2,260.3 333.2,260.3" fill="rgb(198,198,255)"/>
<polygon points="339.2,254.3 345.2,254.3 345.2,260.3 339.2,260.3" fill="rgb(232,232,255)"/>
<polygon points="345.2,254.3 351.2,254.3 351.2,260.3 345.2,260.3" fill="rgb(170,170,255)"/>
<polygon points="351.2,254.3 357.2,254.3 357.2,260.3 351.2,260.3" fill="rgb(255,219,219)"/>
<polygon points="159.2,260.3 167.2,260.3 167.2,266.3 159.2,266.3" fill="rgb(200,226,224)"/><text xml:space="preserve" x="163.2" y="266.133" font-family="Calibri" font-size="7.5" fill="rgb(0,0,0)" text-anchor="middle">5</text>
<polygon points="167.2,260.3 175.2,260.3 175.2,266.3 167.2,266.3" fill="rgb(245,245,245)"/><text xml:space="preserve" x="171.2" y="266.133" font-family="Calibri" font-size="7.5" fill="rgb(0,0,0)" text-anchor="middle">7</text>
<polygon points="175.2,260.3 183.2,260.3 183.2,266.3 175.2,266.3" fill="rgb(200,226,224)"/><text xml:space="preserve" x="179.2" y="266.133" font-family="Calibri" font-size="7.5" fill="rgb(0,0,0)" text-anchor="middle">5</text>
<polygon points="193.2,260.3 199.2,260.3 199.2,266.3 193.2,266.3" fill="rgb(204,204,255)"/>
<polygon points="199.2,260.3 205.2,260.3 205.2,266.3 199.2,266.3" fill="rgb(218,218,255)"/>
<polygon points="205.2,260.3 211.2,260.3 211.2,266.3 205.2,266.3" fill="rgb(255,237,237)"/>
<polygon points="211.2,260.3 217.2,260.3 217.2,266.3 211.2,266.3" fill="rgb(243,243,255)"/>
<polygon points="217.2,260.3 223.2,260.3 223.2,266.3 217.2,266.3" fill="rgb(211,211,255)"/>
<polygon points="223.2,260.3 229.2,260.3 229.2,266.3 223.2,266.3" fill="rgb(254,226,226)"/>
<polygon points="229.2,260.3 235.2,260.3 235.2,266.3 229.2,266.3" fill="rgb(201,201,255)"/>
<polygon points="235.2,260.3 241.2,260.3 241.2,266.3 235.2,266.3" fill="rgb(239,239,255)"/>
<polygon points="251.2,260.3 257.2,260.3 257.2,266.3 251.2,266.3" fill="rgb(255,197,197)"/>
<polygon points="257.2,260.3 263.2,260.3 263.2,266.3 257.2,266.3" fill="rgb(255,208,208)"/>
<polygon points="263.2,260.3 269.2,260.3 269.2,266.3 263.2,266.3" fill="rgb(255,220,220)"/>
<polygon points="269.2,260.3 275.2,260.3 275.2,266.3 269.2,266.3" fill="rgb(255,132,132)"/>
<polygon points="275.2,260.3 281.2,260.3 281.2,266.3 275.2,266.3" fill="rgb(255,232,232)"/>
<polygon points="281.2,260.3 287.2,260.3 287.2,266.3 281.2,266.3" fill="rgb(232,232,255)"/>
<polygon points="287.2,260.3 293.2,260.3 293.2,266.3 287.2,266.3" fill="rgb(168,168,255)"/>
<polygon points="293.2,260.3 299.2,260.3 299.2,266.3 293.2,266.3" fill="rgb(255,229,229)"/>
<polygon points="309.2,260.3 315.2,260.3 315.2,266.3 309.2,266.3" fill="rgb(186,186,255)"/>
<polygon points="315.2,260.3 321.2,260.3 321.2,266.3 315.2,266.3" fill="rgb(245,245,255)"/>
<polygon points="321.2,260.3 327.2,260.3 327.2,266.3 321.2,266.3" fill="rgb(255,240,240)"/>
<polygon points="327.2,260.3 333.2,260.3 333.2,266.3 327.2,266.3" fill="rgb(255,243,243)"/>
<polygon points="333.2,260.3 339.2,260.3 339.2,266.3 333.2,266.3" fill="rgb(210,210,255)"/>
<polygon points="339.2,260.3 345.2,260.3 345.2,266.3 339.2,266.3" fill="rgb(255,248,248)"/>
<polygon points="345.2,260.3 351.2,260.3 351.2,266.3 345.2,266.3" fill="rgb(197,197,255)"/>
<polygon points="351.2,260.3 357.2,260.3 357.2,266.3 351.2,266.3" fill="rgb(210,210,255)"/>
<polygon points="159.2,266.3 167.2,266.3 167.2,272.3 159.2,272.3" fill="rgb(200,226,224)"/><text xml:space="preserve" x="163.2" y="272.133" font-family="Calibri" font-size="7.5" fill="rgb(0,0,0)" text-anchor="middle">5</text>
<polygon points="167.2,266.3 175.2,266.3 175.2,272.3 167.2,272.3" fill="rgb(245,245,245)"/><text xml:space="preserve" x="171.2" y="272.133" font-family="Calibri" font-size="7.5" fill="rgb(0,0,0)" text-anchor="middle">7</text>
<polygon points="175.2,266.3 183.2,266.3 183.2,272.3 175.2,272.3" fill="rgb(200,226,224)"/><text xml:space="preserve" x="179.2" y="272.133" font-family="Calibri" font-size="7.5" fill="rgb(0,0,0)" text-anchor="middle">5</text>
<polygon points="193.2,266.3 199.2,266.3 199.2,272.3 193.2,272.3" fill="rgb(186,186,255)"/>
<polygon points="199.2,266.3 205.2,266.3 205.2,272.3 199.2,272.3" fill="rgb(212,212,255)"/>
<polygon points="205.2,266.3 211.2,266.3 211.2,272.3 205.2,272.3" fill="rgb(255,231,231)"/>
<polygon points="211.2,266.3 217.2,266.3 217.2,272.3 211.2,272.3" fill="rgb(255,187,187)"/>
<polygon points="217.2,266.3 223.2,266.3 223.2,272.3 217.2,272.3" fill="rgb(189,189,255)"/>
<polygon points="223.2,266.3 229.2,266.3 229.2,272.3 223.2,272.3" fill="rgb(242,242,255)"/>
<polygon points="229.2,266.3 235.2,266.3 235.2,272.3 229.2,272.3" fill="rgb(255,238,238)"/>
<polygon points="235.2,266.3 241.2,266.3 241.2,272.3 235.2,272.3" fill="rgb(255,198,198)"/>
<polygon points="251.2,266.3 257.2,266.3 257.2,272.3 251.2,272.3" fill="rgb(244,244,255)"/>
<polygon points="257.2,266.3 263.2,266.3 263.2,272.3 257.2,272.3" fill="rgb(255,214,214)"/>
<polygon points="263.2,266.3 269.2,266.3 269.2,272.3 263.2,272.3" fill="rgb(255,237,237)"/>
<polygon points="269.2,266.3 275.2,266.3 275.2,272.3 269.2,272.3" fill="rgb(255,53,53)"/>
<polygon points="275.2,266.3 281.2,266.3 281.2,272.3 275.2,272.3" fill="rgb(255,242,242)"/>
<polygon points="281.2,266.3 287.2,266.3 287.2,272.3 281.2,272.3" fill="rgb(198,198,255)"/>
<polygon points="287.2,266.3 293.2,266.3 293.2,272.3 287.2,272.3" fill="rgb(208,208,255)"/>
<polygon points="293.2,266.3 299.2,266.3 299.2,272.3 293.2,272.3" fill="rgb(255,246,246)"/>
<polygon points="309.2,266.3 315.2,266.3 315.2,272.3 309.2,272.3" fill="rgb(165,165,255)"/>
<polygon points="315.2,266.3 321.2,266.3 321.2,272.3 315.2,272.3" fill="rgb(244,244,255)"/>
<polygon points="321.2,266.3 327.2,266.3 327.2,272.3 321.2,272.3" fill="rgb(255,197,197)"/>
<polygon points="327.2,266.3 333.2,266.3 333.2,272.3 327.2,272.3" fill="rgb(254,200,200)"/>
<polygon points="333.2,266.3 339.2,266.3 339.2,272.3 333.2,272.3" fill="rgb(194,194,255)"/>
<polygon points="339.2,266.3 345.2,266.3 345.2,272.3 339.2,272.3" fill="rgb(167,167,255)"/>
<polygon points="345.2,266.3 351.2,266.3 351.2,272.3 345.2,272.3" fill="rgb(207,207,255)"/>
<polygon points="351.2,266.3 357.2,266.3 357.2,272.3 351.2,272.3" fill="rgb(255,201,201)"/>
<polygon points="159.2,272.3 167.2,272.3 167.2,278.3 159.2,278.3" fill="rgb(200,226,224)"/><text xml:space="preserve" x="163.2" y="278.133" font-family="Calibri" font-size="7.5" fill="rgb(0,0,0)" text-anchor="middle">5</text>
<polygon points="167.2,272.3 175.2,272.3 175.2,278.3 167.2,278.3" fill="rgb(245,245,245)"/><text xml:space="preserve" x="171.2" y="278.133" font-family="Calibri" font-size="7.5" fill="rgb(0,0,0)" text-anchor="middle">7</text>
<polygon points="175.2,272.3 183.2,272.3 183.2,278.3 175.2,278.3" fill="rgb(200,226,224)"/><text xml:space="preserve" x="179.2" y="278.133" font-family="Calibri" font-size="7.5" fill="rgb(0,0,0)" text-anchor="middle">5</text>
<polygon points="193.2,272.3 199.2,272.3 199.2,278.3 193.2,278.3" fill="rgb(206,206,255)"/>
<polygon points="199.2,272.3 205.2,272.3 205.2,278.3 199.2,278.3" fill="rgb(233,233,255)"/>
<polygon points="205.2,272.3 211.2,272.3 211.2,278.3 205.2,278.3" fill="rgb(255,210,210)"/>
<polygon points="211.2,272.3 217.2,272.3 217.2,278.3 211.2,278.3" fill="rgb(255,169,169)"/>
<polygon points="217.2,272.3 223.2,272.3 223.2,278.3 217.2,278.3" fill="rgb(204,204,255)"/>
<polygon points="223.2,272.3 229.2,272.3 229.2,278.3 223.2,278.3" fill="rgb(240,240,255)"/>
<polygon points="229.2,272.3 235.2,272.3 235.2,278.3 229.2,278.3" fill="rgb(214,214,255)"/>
<polygon points="235.2,272.3 241.2,272.3 241.2,278.3 235.2,278.3" fill="rgb(215,215,255)"/>
<polygon points="251.2,272.3 257.2,272.3 257.2,278.3 251.2,278.3" fill="rgb(255,246,246)"/>
<polygon points="257.2,272.3 263.2,272.3 263.2,278.3 257.2,278.3" fill="rgb(255,206,206)"/>
<polygon points="263.2,272.3 269.2,272.3 269.2,278.3 263.2,278.3" fill="rgb(255,194,194)"/>
<polygon points="269.2,272.3 275.2,272.3 275.2,278.3 269.2,278.3" fill="rgb(255,113,113)"/>
<polygon points="275.2,272.3 281.2,272.3 281.2,278.3 275.2,278.3" fill="rgb(255,247,247)"/>
<polygon points="281.2,272.3 287.2,272.3 287.2,278.3 281.2,278.3" fill="rgb(255,241,241)"/>
<polygon points="287.2,272.3 293.2,272.3 293.2,278.3 287.2,278.3" fill="rgb(212,212,255)"/>
<polygon points="293.2,272.3 299.2,272.3 299.2,278.3 293.2,278.3" fill="rgb(216,216,255)"/>
<polygon points="309.2,272.3 315.2,272.3 315.2,278.3 309.2,278.3" fill="rgb(143,143,255)"/>
<polygon points="315.2,272.3 321.2,272.3 321.2,278.3 315.2,278.3" fill="rgb(218,218,255)"/>
<polygon points="321.2,272.3 327.2,272.3 327.2,278.3 321.2,278.3" fill="rgb(255,212,212)"/>
<polygon points="327.2,272.3 333.2,272.3 333.2,278.3 327.2,278.3" fill="rgb(197,197,255)"/>
<polygon points="333.2,272.3 339.2,272.3 339.2,278.3 333.2,278.3" fill="rgb(197,197,255)"/>
<polygon points="339.2,272.3 345.2,272.3 345.2,278.3 339.2,278.3" fill="rgb(233,233,255)"/>
<polygon points="345.2,272.3 351.2,272.3 351.2,278.3 345.2,278.3" fill="rgb(211,211,255)"/>
<polygon points="351.2,272.3 357.2,272.3 357.2,278.3 351.2,278.3" fill="rgb(226,226,255)"/>
<polygon points="159.2,212.3 183.2,212.3 183.2,278.3 159.2,278.3" fill="none" stroke="black" stroke-width="1"/>
<polygon points="193.2,212.3 241.2,212.3 241.2,278.3 193.2,278.3" fill="none" stroke="black" stroke-width="1"/>
<polygon points="251.2,212.3 299.2,212.3 299.2,278.3 251.2,278.3" fill="none" stroke="black" stroke-width="1"/>
<polygon points="309.2,212.3 357.2,212.3 357.2,278.3 309.2,278.3" fill="none" stroke="black" stroke-width="1"/>
<text xml:space="preserve" x="199.6" y="310.633" font-family="Calibri" font-size="6" text-anchor="middle">moduleID</text>
<polygon points="89.6,318.3 109.6,318.3 109.6,338.3 89.6,338.3" fill="rgb(250,250,250)"/><polygon points="89.6,318.3 109.6,318.3 109.6,338.3 89.6,338.3" fill="none" stroke="black" stroke-width="1"/><text xml:space="preserve" x="99.6" y="331.133" font-family="Calibri" font-size="7.5" fill="rgb(0,0,0)" text-anchor="middle">-2.0</text>
<polygon points="109.6,318.3 129.6,318.3 129.6,338.3 109.6,338.3" fill="rgb(156,210,205)"/><polygon points="109.6,318.3 129.6,318.3 129.6,338.3 109.6,338.3" fill="none" stroke="black" stroke-width="1"/><text xml:space="preserve" x="119.6" y="331.133" font-family="Calibri" font-size="7.5" fill="rgb(0,0,0)" text-anchor="middle">-0.4</text>
<polygon points="129.6,318.3 149.6,318.3 149.6,338.3 129.6,338.3" fill="rgb(116,191,184)"/><polygon points="129.6,318.3 149.6,318.3 149.6,338.3 129.6,338.3" fill="none" stroke="black" stroke-width="1"/><text xml:space="preserve" x="139.6" y="331.133" font-family="Calibri" font-size="7.5" fill="rgb(0,0,0)" text-anchor="middle">1.2</text>
<polygon points="149.6,318.3 169.6,318.3 169.6,338.3 149.6,338.3" fill="rgb(152,206,201)"/><polygon points="149.6,318.3 169.6,318.3 169.6,338.3 149.6,338.3" fill="none" stroke="black" stroke-width="1"/><text xml:space="preserve" x="159.6" y="331.133" font-family="Calibri" font-size="7.5" fill="rgb(0,0,0)" text-anchor="middle">2.8</text>
<polygon points="169.6,318.3 189.6,318.3 189.6,338.3 169.6,338.3" fill="rgb(187,220,217)"/><polygon points="169.6,318.3 189.6,318.3 189.6,338.3 169.6,338.3" fill="none" stroke="black" stroke-width="1"/><text xml:space="preserve" x="179.6" y="331.133" font-family="Calibri" font-size="7.5" fill="rgb(0,0,0)" text-anchor="middle">4.4</text>
<polygon points="189.6,318.3 209.6,318.3 209.6,338.3 189.6,338.3" fill="rgb(222,235,234)"/><polygon points="189.6,318.3 209.6,318.3 209.6,338.3 189.6,338.3" fill="none" stroke="black" stroke-width="1"/><text xml:space="preserve" x="199.6" y="331.133" font-family="Calibri" font-size="7.5" fill="rgb(0,0,0)" text-anchor="middle">6.0</text>
<polygon points="209.6,318.3 229.6,318.3 229.6,338.3 209.6,338.3" fill="rgb(242,239,232)"/><polygon points="209.6,318.3 229.6,318.3 229.6,338.3 209.6,338.3" fill="none" stroke="black" stroke-width="1"/><text xml:space="preserve" x="219.6" y="331.133" font-family="Calibri" font-size="7.5" fill="rgb(0,0,0)" text-anchor="middle">7.6</text>
<polygon points="229.6,318.3 249.6,318.3 249.6,338.3 229.6,338.3" fill="rgb(235,224,199)"/><polygon points="229.6,318.3 249.6,318.3 249.6,338.3 229.6,338.3" fill="none" stroke="black" stroke-width="1"/><text xml:space="preserve" x="239.6" y="331.133" font-family="Calibri" font-size="7.5" fill="rgb(0,0,0)" text-anchor="middle">9.2</text>
<polygon points="249.6,318.3 269.6,318.3 269.6,338.3 249.6,338.3" fill="rgb(229,209,166)"/><polygon points="249.6,318.3 269.6,318.3 269.6,338.3 249.6,338.3" fill="none" stroke="black" stroke-width="1"/><text xml:space="preserve" x="259.6" y="331.133" font-family="Calibri" font-size="7.5" fill="rgb(0,0,0)" text-anchor="middle">10.8</text>
<polygon points="269.6,318.3 289.6,318.3 289.6,338.3 269.6,338.3" fill="rgb(222,194,133)"/><polygon points="269.6,318.3 289.6,318.3 289.6,338.3 269.6,338.3" fill="none" stroke="black" stroke-width="1"/><text xml:space="preserve" x="279.6" y="331.133" font-family="Calibri" font-size="7.5" fill="rgb(0,0,0)" text-anchor="middle">12.4</text>
<polygon points="289.6,318.3 309.6,318.3 309.6,338.3 289.6,338.3" fill="rgb(216,179,101)"/><polygon points="289.6,318.3 309.6,318.3 309.6,338.3 289.6,338.3" fill="none" stroke="black" stroke-width="1"/><text xml:space="preserve" x="299.6" y="331.133" font-family="Calibri" font-size="7.5" fill="rgb(0,0,0)" text-anchor="middle">14.0</text>
<text xml:space="preserve" x="199.6" y="370.633" font-family="Calibri" font-size="6" text-anchor="middle">marklevel</text>
<polygon points="89.6,378.3 109.6,378.3 109.6,398.3 89.6,398.3" fill="rgb(0,0,255)"/><polygon points="89.6,378.3 109.6,378.3 109.6,398.3 89.6,398.3" fill="none" stroke="black" stroke-width="1"/><text xml:space="preserve" x="99.6" y="391.133" font-family="Calibri" font-size="7.5" fill="rgb(255,255,255)" text-anchor="middle">-2.0</text>
<polygon points="109.6,378.3 129.6,378.3 129.6,398.3 109.6,398.3" fill="rgb(50,50,255)"/><polygon points="109.6,378.3 129.6,378.3 129.6,398.3 109.6,398.3" fill="none" stroke="black" stroke-width="1"/><text xml:space="preserve" x="119.6" y="391.133" font-family="Calibri" font-size="7.5" fill="rgb(255,255,255)" text-anchor="middle">-1.6</text>
<polygon points="129.6,378.3 149.6,378.3 149.6,398.3 129.6,398.3" fill="rgb(102,102,255)"/><polygon points="129.6,378.3 149.6,378.3 149.6,398.3 129.6,398.3" fill="none" stroke="black" stroke-width="1"/><text xml:space="preserve" x="139.6" y="391.133" font-family="Calibri" font-size="7.5" fill="rgb(255,255,255)" text-anchor="middle">-1.2</text>
<polygon points="149.6,378.3 169.6,378.3 169.6,398.3 149.6,398.3" fill="rgb(153,153,255)"/><polygon points="149.6,378.3 169.6,378.3 169.6,398.3 149.6,398.3" fill="none" stroke="black" stroke-width="1"/><text xml:space="preserve" x="159.6" y="391.133" font-family="Calibri" font-size="7.5" fill="rgb(0,0,0)" text-anchor="middle">-0.8</text>
<polygon points="169.6,378.3 189.6,378.3 189.6,398.3 169.6,398.3" fill="rgb(204,204,255)"/><polygon points="169.6,378.3 189.6,378.3 189.6,398.3 169.6,398.3" fill="none" stroke="black" stroke-width="1"/><text xml:space="preserve" x="179.6" y="391.133" font-family="Calibri" font-size="7.5" fill="rgb(0,0,0)" text-anchor="middle">-0.4</text>
<polygon points="189.6,378.3 209.6,378.3 209.6,398.3 189.6,398.3" fill="rgb(255,255,255)"/><polygon points="189.6,378.3 209.6,378.3 209.6,398.3 189.6,398.3" fill="none" stroke="black" stroke-width="1"/><text xml:space="preserve" x="199.6" y="391.133" font-family="Calibri" font-size="7.5" fill="rgb(0,0,0)" text-anchor="middle">0.0</text>
<polygon points="209.6,378.3 229.6,378.3 229.6,398.3 209.6,398.3" fill="rgb(255,204,204)"/><polygon points="209.6,378.3 229.6,378.3 229.6,398.3 209.6,398.3" fill="none" stroke="black" stroke-width="1"/><text xml:space="preserve" x="219.6" y="391.133" font-family="Calibri" font-size="7.5" fill="rgb(0,0,0)" text-anchor="middle">0.4</text>
<polygon points="229.6,378.3 249.6,378.3 249.6,398.3 229.6,398.3" fill="rgb(255,153,153)"/><polygon points="229.6,378.3 249.6,378.3 249.6,398.3 229.6,398.3" fill="none" stroke="black" stroke-width="1"/><text xml:space="preserve" x="239.6" y="391.133" font-family="Calibri" font-size="7.5" fill="rgb(0,0,0)" text-anchor="middle">0.8</text>
<polygon points="249.6,378.3 269.6,378.3 269.6,398.3 249.6,398.3" fill="rgb(255,102,102)"/><polygon points="249.6,378.3 269.6,378.3 269.6,398.3 249.6,398.3" fill="none" stroke="black" stroke-width="1"/><text xml:space="preserve" x="259.6" y="391.133" font-family="Calibri" font-size="7.5" fill="rgb(0,0,0)" text-anchor="middle">1.2</text>
<polygon points="269.6,378.3 289.6,378.3 289.6,398.3 269.6,398.3" fill="rgb(255,50,50)"/><polygon points="269.6,378.3 289.6,378.3 289.6,398.3 269.6,398.3" fill="none" stroke="black" stroke-width="1"/><text xml:space="preserve" x="279.6" y="391.133" font-family="Calibri" font-size="7.5" fill="rgb(255,255,255)" text-anchor="middle">1.6</text>
<polygon points="289.6,378.3 309.6,378.3 309.6,398.3 289.6,398.3" fill="rgb(255,0,0)"/><polygon points="289.6,378.3 309.6,378.3 309.6,398.3 289.6,398.3" fill="none" stroke="black" stroke-width="1"/><text xml:space="preserve" x="299.6" y="391.133" font-family="Calibri" font-size="7.5" fill="rgb(255,255,255)" text-anchor="middle">2.0</text>
</svg>
