<?xml version="1.0" standalone="no"?><!DOCTYPE svg PUBLIC "-//W3C//DTD SVG 1.1//EN" "http://www.w3.org/Graphics/SVG/1.1/DTD/svg11.dtd">
<svg width="391.7" height="424.3" version="1.1" xmlns="http://www.w3.org/2000/svg">
<text xml:space="preserve" x="147.7" y="217.633" font-family="Calibri" font-size="6" text-anchor="end">Aard</text>
<text xml:space="preserve" x="147.7" y="223.633" font-family="Calibri" font-size="6" text-anchor="end">Cldn14</text>
<text xml:space="preserve" x="147.7" y="229.633" font-family="Calibri" font-size="6" text-anchor="end">mmu-mir-20b</text>
<text xml:space="preserve" x="147.7" y="235.633" font-family="Calibri" font-size="6" text-anchor="end">mmu-mir-106a</text>
<text xml:space="preserve" x="147.7" y="241.633" font-family="Calibri" font-size="6" text-anchor="end">Nr0b1</text>
<text xml:space="preserve" x="147.7" y="247.633" font-family="Calibri" font-size="6" text-anchor="end">Prmt8</text>
<text xml:space="preserve" x="147.7" y="253.633" font-family="Calibri" font-size="6" text-anchor="end">Bex1</text>
<text xml:space="preserve" x="147.7" y="259.633" font-family="Calibri" font-size="6" text-anchor="end">Neurod1</text>
<text xml:space="preserve" x="147.7" y="265.633" font-family="Calibri" font-size="6" text-anchor="end">Lin28</text>
<text xml:space="preserve" x="147.7" y="271.633" font-family="Calibri" font-size="6" text-anchor="end">Igsf4a</text>
<text xml:space="preserve" x="147.7" y="277.633" font-family="Calibri" font-size="6" text-anchor="end">Six6os1</text>
<text xml:space="preserve" x="147.7" y="283.633" font-family="Calibri" font-size="6" text-anchor="end">Ap3b2</text>
<text xml:space="preserve" x="158.033" y="208.3" font-family="Calibri" font-size="6" transform="rotate(270 158.033 208.3)">ips</text>
<text xml:space="preserve" x="166.033" y="208.3" font-family="Calibri" font-size="6" transform="rotate(270 166.033 208.3)">pips</text>
<text xml:space="preserve" x="174.033" y="208.3" font-family="Calibri" font-size="6" transform="rotate(270 174.033 208.3)">mef</text>
<text xml:space="preserve" x="191.033" y="208.3" font-family="Calibri" font-size="6" transform="rotate(270 191.033 208.3)">ips_H3K4me3iPS</text>
<text xml:space="preserve" x="197.033" y="208.3" font-family="Calibri" font-size="6" transform="rotate(270 197.033 208.3)">ips_H3K9aciPS</text>
<text xml:space="preserve" x="203.033" y="208.3" font-family="Calibri" font-size="6" transform="rotate(270 203.033 208.3)">ips_H3K14aciPS</text>
<text xml:space="preserve" x="209.033" y="208.3" font-family="Calibri" font-size="6" transform="rotate(270 209.033 208.3)">ips_H3K18aciPS</text>
<text xml:space="preserve" x="215.033" y="208.3" font-family="Calibri" font-size="6" transform="rotate(270 215.033 208.3)">ips_H3K79me2iPS</text>
<text xml:space="preserve" x="221.033" y="208.3" font-family="Calibri" font-size="6" transform="rotate(270 221.033 208.3)">ips_H3K9me2iPS</text>
<text xml:space="preserve" x="227.033" y="208.3" font-family="Calibri" font-size="6" transform="rotate(270 227.033 208.3)">ips_H3K9me3iPS</text>
<text xml:space="preserve" x="233.033" y="208.3" font-family="Calibri" font-size="6" transform="rotate(270 233.033 208.3)">ips_H3K27me3iPS</text>
<text xml:space="preserve" x="249.033" y="208.3" font-family="Calibri" font-size="6" transform="rotate(270 249.033 208.3)">pips_H3K4me3pips</text>
<text xml:space="preserve" x="255.033" y="208.3" font-family="Calibri" font-size="6" transform="rotate(270 255.033 208.3)">pips_H3K9acpips</text>
<text xml:space="preserve" x="261.033" y="208.3" font-family="Calibri" font-size="6" transform="rotate(270 261.033 208.3)">pips_H3K14acpips</text>
<text xml:space="preserve" x="267.033" y="208.3" font-family="Calibri" font-size="6" transform="rotate(270 267.033 208.3)">pips_H3K18acpips</text>
<text xml:space="preserve" x="273.033" y="208.3" font-family="Calibri" font-size="6" transform="rotate(270 273.033 208.3)">pips_H3K79me2pips</text>
<text xml:space="preserve" x="279.033" y="208.3" font-family="Calibri" font-size="6" transform="rotate(270 279.033 208.3)">pips_H3K9me2pips</text>
<text xml:space="preserve" x="285.033" y="208.3" font-family="Calibri" font-size="6" transform="rotate(270 285.033 208.3)">pips_H3K9me3pips</text>
<text xml:space="preserve" x="291.033" y="208.3" font-family="Calibri" font-size="6" transform="rotate(270 291.033 208.3)">pips_H3K27me3pips</text>
<text xml:space="preserve" x="307.033" y="208.3" font-family="Calibri" font-size="6" transform="rotate(270 307.033 208.3)">mef_H3K4me3mef</text>
<text xml:space="preserve" x="313.033" y="208.3" font-family="Calibri" font-size="6" transform="rotate(270 313.033 208.3)">mef_H3K9acmef</text>
<text xml:space="preserve" x="319.033" y="208.3" font-family="Calibri" font-size="6" transform="rotate(270 319.033 208.3)">mef_H3K14acmef</text>
<text xml:space="preserve" x="325.033" y="208.3" font-family="Calibri" font-size="6" transform="rotate(270 325.033 208.3)">mef_H3K18acmef</text>
<text xml:space="preserve" x="331.033" y="208.3" font-family="Calibri" font-size="6" transform="rotate(270 331.033 208.3)">mef_H3K79me2mef</text>
<text xml:space="preserve" x="337.033" y="208.3" font-family="Calibri" font-size="6" transform="rotate(270 337.033 208.3)">mef_H3K9me2mef</text>
<text xml:space="preserve" x="343.033" y="208.3" font-family="Calibri" font-size="6" transform="rotate(270 343.033 208.3)">mef_H3K9me3mef</text>
<text xml:space="preserve" x="349.033" y="208.3" font-family="Calibri" font-size="6" transform="rotate(270 349.033 208.3)">mef_H3K27me3mef</text>
<polygon points="151.7,212.3 159.7,212.3 159.7,218.3 151.7,218.3" fill="rgb(220,188,121)"/><text xml:space="preserve" x="155.7" y="218.133" font-family="Calibri" font-size="7.5" fill="rgb(0,0,0)" text-anchor="middle">13</text>
<polygon points="159.7,212.3 167.7,212.3 167.7,218.3 159.7,218.3" fill="rgb(156,207,203)"/><text xml:space="preserve" x="163.7" y="218.133" font-family="Calibri" font-size="7.5" fill="rgb(0,0,0)" text-anchor="middle">3</text>
<polygon points="167.7,212.3 175.7,212.3 175.7,218.3 167.7,218.3" fill="rgb(156,207,203)"/><text xml:space="preserve" x="171.7" y="218.133" font-family="Calibri" font-size="7.5" fill="rgb(0,0,0)" text-anchor="middle">3</text>
<polygon points="185.7,212.3 191.7,212.3 191.7,218.3 185.7,218.3" fill="rgb(255,216,216)"/>
<polygon points="191.7,212.3 197.7,212.3 197.7,218.3 191.7,218.3" fill="rgb(255,203,203)"/>
<polygon points="197.7,212.3 203.7,212.3 203.7,218.3 197.7,218.3" fill="rgb(255,133,133)"/>
<polygon points="203.7,212.3 209.7,212.3 209.7,218.3 203.7,218.3" fill="rgb(255,72,72)"/>
<polygon points="209.7,212.3 215.7,212.3 215.7,218.3 209.7,218.3" fill="rgb(255,217,217)"/>
<polygon points="215.7,212.3 221.7,212.3 221.7,218.3 215.7,218.3" fill="rgb(255,252,252)"/>
<polygon points="221.7,212.3 227.7,212.3 227.7,218.3 221.7,218.3" fill="rgb(255,173,173)"/>
<polygon points="227.7,212.3 233.7,212.3 233.7,218.3 227.7,218.3" fill="rgb(255,175,175)"/>
<polygon points="243.7,212.3 249.7,212.3 249.7,218.3 243.7,218.3" fill="rgb(216,216,255)"/>
<polygon points="249.7,212.3 255.7,212.3 255.7,218.3 249.7,218.3" fill="rgb(190,190,255)"/>
<polygon points="255.7,212.3 261.7,212.3 261.7,218.3 255.7,218.3" fill="rgb(208,208,255)"/>
<polygon points="261.7,212.3 267.7,212.3 267.7,218.3 261.7,218.3" fill="rgb(118,118,255)"/>
<polygon points="267.7,212.3 273.7,212.3 273.7,218.3 267.7,218.3" fill="rgb(183,183,255)"/>
<polygon points="273.7,212.3 279.7,212.3 279.7,218.3 273.7,218.3" fill="rgb(255,178,178)"/>
<polygon points="279.7,212.3 285.7,212.3 285.7,218.3 279.7,218.3" fill="rgb(255,184,184)"/>
<polygon points="285.7,212.3 291.7,212.3 291.7,218.3 285.7,218.3" fill="rgb(255,132,132)"/>
<polygon points="301.7,212.3 307.7,212.3 307.7,218.3 301.7,218.3" fill="rgb(237,237,255)"/>
<polygon points="307.7,212.3 313.7,212.3 313.7,218.3 307.7,218.3" fill="rgb(164,164,255)"/>
<polygon points="313.7,212.3 319.7,212.3 319.7,218.3 313.7,218.3" fill="rgb(157,157,255)"/>
<polygon points="319.7,212.3 325.7,212.3 325.7,218.3 319.7,218.3" fill="rgb(95,95,255)"/>
<polygon points="325.7,212.3 331.7,212.3 331.7,218.3 325.7,218.3" fill="rgb(162,162,255)"/>
<polygon points="331.7,212.3 337.7,212.3 337.7,218.3 331.7,218.3" fill="rgb(255,215,215)"/>
<polygon points="337.7,212.3 343.7,212.3 343.7,218.3 337.7,218.3" fill="rgb(255,231,231)"/>
<polygon points="343.7,212.3 349.7,212.3 349.7,218.3 343.7,218.3" fill="rgb(255,65,65)"/>
<polygon points="151.7,218.3 159.7,218.3 159.7,224.3 151.7,224.3" fill="rgb(220,188,121)"/><text xml:space="preserve" x="155.7" y="224.133" font-family="Calibri" font-size="7.5" fill="rgb(0,0,0)" text-anchor="middle">13</text>
<polygon points="159.7,218.3 167.7,218.3 167.7,224.3 159.7,224.3" fill="rgb(156,207,203)"/><text xml:space="preserve" x="163.7" y="224.133" font-family="Calibri" font-size="7.5" fill="rgb(0,0,0)" text-anchor="middle">3</text>
<polygon points="167.7,218.3 175.7,218.3 175.7,224.3 167.7,224.3" fill="rgb(156,207,203)"/><text xml:space="preserve" x="171.7" y="224.133" font-family="Calibri" font-size="7.5" fill="rgb(0,0,0)" text-anchor="middle">3</text>
<polygon points="185.7,218.3 191.7,218.3 191.7,224.3 185.7,224.3" fill="rgb(255,190,190)"/>
<polygon points="191.7,218.3 197.7,218.3 197.7,224.3 191.7,224.3" fill="rgb(255,180,180)"/>
<polygon points="197.7,218.3 203.7,218.3 203.7,224.3 197.7,224.3" fill="rgb(255,83,83)"/>
<polygon points="203.7,218.3 209.7,218.3 209.7,224.3 203.7,224.3" fill="rgb(255,7,7)"/>
<polygon points="209.7,218.3 215.7,218.3 215.7,224.3 209.7,224.3" fill="rgb(255,241,241)"/>
<polygon points="215.7,218.3 221.7,218.3 221.7,224.3 215.7,224.3" fill="rgb(255,220,220)"/>
<polygon points="221.7,218.3 227.7,218.3 227.7,224.3 221.7,224.3" fill="rgb(255,204,204)"/>
<polygon points="227.7,218.3 233.7,218.3 233.7,224.3 227.7,224.3" fill="rgb(255,187,187)"/>
<polygon points="243.7,218.3 249.7,218.3 249.7,224.3 243.7,224.3" fill="rgb(218,218,255)"/>
<polygon points="249.7,218.3 255.7,218.3 255.7,224.3 249.7,224.3" fill="rgb(167,167,255)"/>
<polygon points="255.7,218.3 261.7,218.3 261.7,224.3 255.7,224.3" fill="rgb(255,252,252)"/>
<polygon points="261.7,218.3 267.7,218.3 267.7,224.3 261.7,224.3" fill="rgb(215,215,255)"/>
<polygon points="267.7,218.3 273.7,218.3 273.7,224.3 267.7,224.3" fill="rgb(163,163,255)"/>
<polygon points="273.7,218.3 279.7,218.3 279.7,224.3 273.7,224.3" fill="rgb(225,225,255)"/>
<polygon points="279.7,218.3 285.7,218.3 285.7,224.3 279.7,224.3" fill="rgb(255,161,161)"/>
<polygon points="285.7,218.3 291.7,218.3 291.7,224.3 285.7,224.3" fill="rgb(255,180,180)"/>
<polygon points="301.7,218.3 307.7,218.3 307.7,224.3 301.7,224.3" fill="rgb(167,167,255)"/>
<polygon points="307.7,218.3 313.7,218.3 313.7,224.3 307.7,224.3" fill="rgb(145,145,255)"/>
<polygon points="313.7,218.3 319.7,218.3 319.7,224.3 313.7,224.3" fill="rgb(255,247,247)"/>
<polygon points="319.7,218.3 325.7,218.3 325.7,224.3 319.7,224.3" fill="rgb(200,200,255)"/>
<polygon points="325.7,218.3 331.7,218.3 331.7,224.3 325.7,224.3" fill="rgb(159,159,255)"/>
<polygon points="331.7,218.3 337.7,218.3 337.7,224.3 331.7,224.3" fill="rgb(236,236,255)"/>
<polygon points="337.7,218.3 343.7,218.3 343.7,224.3 337.7,224.3" fill="rgb(255,163,163)"/>
<polygon points="343.7,218.3 349.7,218.3 349.7,224.3 343.7,224.3" fill="rgb(255,42,42)"/>
<polygon points="151.7,224.3 159.7,224.3 159.7,230.3 151.7,230.3" fill="rgb(220,188,121)"/><text xml:space="preserve" x="155.7" y="230.133" font-family="Calibri" font-size="7.5" fill="rgb(0,0,0)" text-anchor="middle">13</text>
<polygon points="159.7,224.3 167.7,224.3 167.7,230.3 159.7,230.3" fill="rgb(156,207,203)"/><text xml:space="preserve" x="163.7" y="230.133" font-family="Calibri" font-size="7.5" fill="rgb(0,0,0)" text-anchor="middle">3</text>
<polygon points="167.7,224.3 175.7,224.3 175.7,230.3 167.7,230.3" fill="rgb(156,207,203)"/><text xml:space="preserve" x="171.7" y="230.133" font-family="Calibri" font-size="7.5" fill="rgb(0,0,0)" text-anchor="middle">3</text>
<polygon points="185.7,224.3 191.7,224.3 191.7,230.3 185.7,230.3" fill="rgb(255,127,127)"/>
<polygon points="191.7,224.3 197.7,224.3 197.7,230.3 191.7,230.3" fill="rgb(255,175,175)"/>
<polygon points="197.7,224.3 203.7,224.3 203.7,230.3 197.7,230.3" fill="rgb(254,186,186)"/>
<polygon points="203.7,224.3 209.7,224.3 209.7,230.3 203.7,230.3" fill="rgb(255,119,119)"/>
<polygon points="209.7,224.3 215.7,224.3 215.7,230.3 209.7,230.3" fill="rgb(255,155,155)"/>
<polygon points="215.7,224.3 221.7,224.3 221.7,230.3 215.7,230.3" fill="rgb(199,199,255)"/>
<polygon points="221.7,224.3 227.7,224.3 227.7,230.3 221.7,230.3" fill="rgb(250,250,255)"/>
<polygon points="227.7,224.3 233.7,224.3 233.7,230.3 227.7,230.3" fill="rgb(255,206,206)"/>
<polygon points="243.7,224.3 249.7,224.3 249.7,230.3 243.7,230.3" fill="rgb(255,243,243)"/>
<polygon points="249.7,224.3 255.7,224.3 255.7,230.3 249.7,230.3" fill="rgb(172,172,255)"/>
<polygon points="255.7,224.3 261.7,224.3 261.7,230.3 255.7,230.3" fill="rgb(139,139,255)"/>
<polygon points="261.7,224.3 267.7,224.3 267.7,230.3 261.7,230.3" fill="rgb(107,107,255)"/>
<polygon points="267.7,224.3 273.7,224.3 273.7,230.3 267.7,230.3" fill="rgb(197,197,255)"/>
<polygon points="273.7,224.3 279.7,224.3 279.7,230.3 273.7,230.3" fill="rgb(255,226,226)"/>
<polygon points="279.7,224.3 285.7,224.3 285.7,230.3 279.7,230.3" fill="rgb(255,202,202)"/>
<polygon points="285.7,224.3 291.7,224.3 291.7,230.3 285.7,230.3" fill="rgb(255,44,44)"/>
<polygon points="301.7,224.3 307.7,224.3 307.7,230.3 301.7,230.3" fill="rgb(221,221,255)"/>
<polygon points="307.7,224.3 313.7,224.3 313.7,230.3 307.7,230.3" fill="rgb(156,156,255)"/>
<polygon points="313.7,224.3 319.7,224.3 319.7,230.3 313.7,230.3" fill="rgb(161,161,255)"/>
<polygon points="319.7,224.3 325.7,224.3 325.7,230.3 319.7,230.3" fill="rgb(95,95,255)"/>
<polygon points="325.7,224.3 331.7,224.3 331.7,230.3 325.7,230.3" fill="rgb(224,224,255)"/>
<polygon points="331.7,224.3 337.7,224.3 337.7,230.3 331.7,230.3" fill="rgb(255,181,181)"/>
<polygon points="337.7,224.3 343.7,224.3 343.7,230.3 337.7,230.3" fill="rgb(255,187,187)"/>
<polygon points="343.7,224.3 349.7,224.3 349.7,230.3 343.7,230.3" fill="rgb(255,0,0)"/>
<polygon points="151.7,230.3 159.7,230.3 159.7,236.3 151.7,236.3" fill="rgb(220,188,121)"/><text xml:space="preserve" x="155.7" y="236.133" font-family="Calibri" font-size="7.5" fill="rgb(0,0,0)" text-anchor="middle">13</text>
<polygon points="159.7,230.3 167.7,230.3 167.7,236.3 159.7,236.3" fill="rgb(156,207,203)"/><text xml:space="preserve" x="163.7" y="236.133" font-family="Calibri" font-size="7.5" fill="rgb(0,0,0)" text-anchor="middle">3</text>
<polygon points="167.7,230.3 175.7,230.3 175.7,236.3 167.7,236.3" fill="rgb(156,207,203)"/><text xml:space="preserve" x="171.7" y="236.133" font-family="Calibri" font-size="7.5" fill="rgb(0,0,0)" text-anchor="middle">3</text>
<polygon points="185.7,230.3 191.7,230.3 191.7,236.3 185.7,236.3" fill="rgb(255,119,119)"/>
<polygon points="191.7,230.3 197.7,230.3 197.7,236.3 191.7,236.3" fill="rgb(255,198,198)"/>
<polygon points="197.7,230.3 203.7,230.3 203.7,236.3 197.7,236.3" fill="rgb(255,173,173)"/>
<polygon points="203.7,230.3 209.7,230.3 209.7,236.3 203.7,236.3" fill="rgb(255,98,98)"/>
<polygon points="209.7,230.3 215.7,230.3 215.7,236.3 209.7,236.3" fill="rgb(255,153,153)"/>
<polygon points="215.7,230.3 221.7,230.3 221.7,236.3 215.7,236.3" fill="rgb(181,181,255)"/>
<polygon points="221.7,230.3 227.7,230.3 227.7,236.3 221.7,236.3" fill="rgb(233,233,255)"/>
<polygon points="227.7,230.3 233.7,230.3 233.7,236.3 227.7,236.3" fill="rgb(255,211,211)"/>
<polygon points="243.7,230.3 249.7,230.3 249.7,236.3 243.7,236.3" fill="rgb(255,245,245)"/>
<polygon points="249.7,230.3 255.7,230.3 255.7,236.3 249.7,236.3" fill="rgb(150,150,255)"/>
<polygon points="255.7,230.3 261.7,230.3 261.7,236.3 255.7,236.3" fill="rgb(138,138,255)"/>
<polygon points="261.7,230.3 267.7,230.3 267.7,236.3 261.7,236.3" fill="rgb(100,100,255)"/>
<polygon points="267.7,230.3 273.7,230.3 273.7,236.3 267.7,236.3" fill="rgb(196,196,255)"/>
<polygon points="273.7,230.3 279.7,230.3 279.7,236.3 273.7,236.3" fill="rgb(255,221,221)"/>
<polygon points="279.7,230.3 285.7,230.3 285.7,236.3 279.7,236.3" fill="rgb(255,188,188)"/>
<polygon points="285.7,230.3 291.7,230.3 291.7,236.3 285.7,236.3" fill="rgb(255,44,44)"/>
<polygon points="301.7,230.3 307.7,230.3 307.7,236.3 301.7,236.3" fill="rgb(223,223,255)"/>
<polygon points="307.7,230.3 313.7,230.3 313.7,236.3 307.7,236.3" fill="rgb(172,172,255)"/>
<polygon points="313.7,230.3 319.7,230.3 319.7,236.3 313.7,236.3" fill="rgb(173,173,255)"/>
<polygon points="319.7,230.3 325.7,230.3 325.7,236.3 319.7,236.3" fill="rgb(126,126,255)"/>
<polygon points="325.7,230.3 331.7,230.3 331.7,236.3 325.7,236.3" fill="rgb(219,219,255)"/>
<polygon points="331.7,230.3 337.7,230.3 337.7,236.3 331.7,236.3" fill="rgb(255,224,224)"/>
<polygon points="337.7,230.3 343.7,230.3 343.7,236.3 337.7,236.3" fill="rgb(255,172,172)"/>
<polygon points="343.7,230.3 349.7,230.3 349.7,236.3 343.7,236.3" fill="rgb(255,0,0)"/>
<polygon points="151.7,236.3 159.7,236.3 159.7,242.3 151.7,242.3" fill="rgb(216,179,101)"/><text xml:space="preserve" x="155.7" y="242.133" font-family="Calibri" font-size="7.5" fill="rgb(0,0,0)" text-anchor="middle">14</text>
<polygon points="159.7,236.3 167.7,236.3 167.7,242.3 159.7,242.3" fill="rgb(156,207,203)"/><text xml:space="preserve" x="163.7" y="242.133" font-family="Calibri" font-size="7.5" fill="rgb(0,0,0)" text-anchor="middle">3</text>
<polygon points="167.7,236.3 175.7,236.3 175.7,242.3 167.7,242.3" fill="rgb(156,207,203)"/><text xml:space="preserve" x="171.7" y="242.133" font-family="Calibri" font-size="7.5" fill="rgb(0,0,0)" text-anchor="middle">3</text>
<polygon points="185.7,236.3 191.7,236.3 191.7,242.3 185.7,242.3" fill="rgb(255,222,222)"/>
<polygon points="191.7,236.3 197.7,236.3 197.7,242.3 191.7,242.3" fill="rgb(213,213,255)"/>
<polygon points="197.7,236.3 203.7,236.3 203.7,242.3 197.7,242.3" fill="rgb(236,236,255)"/>
<polygon points="203.7,236.3 209.7,236.3 209.7,242.3 203.7,242.3" fill="rgb(255,154,154)"/>
<polygon points="209.7,236.3 215.7,236.3 215.7,242.3 209.7,242.3" fill="rgb(255,230,230)"/>
<polygon points="215.7,236.3 221.7,236.3 221.7,242.3 215.7,242.3" fill="rgb(255,214,214)"/>
<polygon points="221.7,236.3 227.7,236.3 227.7,242.3 221.7,242.3" fill="rgb(222,222,255)"/>
<polygon points="227.7,236.3 233.7,236.3 233.7,242.3 227.7,242.3" fill="rgb(255,240,240)"/>
<polygon points="243.7,236.3 249.7,236.3 249.7,242.3 243.7,242.3" fill="rgb(194,194,255)"/>
<polygon points="249.7,236.3 255.7,236.3 255.7,242.3 249.7,242.3" fill="rgb(136,136,255)"/>
<polygon points="255.7,236.3 261.7,236.3 261.7,242.3 255.7,242.3" fill="rgb(179,179,255)"/>
<polygon points="261.7,236.3 267.7,236.3 267.7,242.3 261.7,242.3" fill="rgb(119,119,255)"/>
<polygon points="267.7,236.3 273.7,236.3 273.7,242.3 267.7,242.3" fill="rgb(175,175,255)"/>
<polygon points="273.7,236.3 279.7,236.3 279.7,242.3 273.7,242.3" fill="rgb(255,166,166)"/>
<polygon points="279.7,236.3 285.7,236.3 285.7,242.3 279.7,242.3" fill="rgb(255,176,176)"/>
<polygon points="285.7,236.3 291.7,236.3 291.7,242.3 285.7,242.3" fill="rgb(254,185,185)"/>
<polygon points="301.7,236.3 307.7,236.3 307.7,242.3 301.7,242.3" fill="rgb(167,167,255)"/>
<polygon points="307.7,236.3 313.7,236.3 313.7,242.3 307.7,242.3" fill="rgb(136,136,255)"/>
<polygon points="313.7,236.3 319.7,236.3 319.7,242.3 313.7,242.3" fill="rgb(214,214,255)"/>
<polygon points="319.7,236.3 325.7,236.3 325.7,242.3 319.7,242.3" fill="rgb(132,132,255)"/>
<polygon points="325.7,236.3 331.7,236.3 331.7,242.3 325.7,242.3" fill="rgb(179,179,255)"/>
<polygon points="331.7,236.3 337.7,236.3 337.7,242.3 331.7,242.3" fill="rgb(254,170,170)"/>
<polygon points="337.7,236.3 343.7,236.3 343.7,242.3 337.7,242.3" fill="rgb(255,165,165)"/>
<polygon points="343.7,236.3 349.7,236.3 349.7,242.3 343.7,242.3" fill="rgb(255,144,144)"/>
<polygon points="151.7,242.3 159.7,242.3 159.7,248.3 151.7,248.3" fill="rgb(216,179,101)"/><text xml:space="preserve" x="155.7" y="248.133" font-family="Calibri" font-size="7.5" fill="rgb(0,0,0)" text-anchor="middle">14</text>
<polygon points="159.7,242.3 167.7,242.3 167.7,248.3 159.7,248.3" fill="rgb(156,207,203)"/><text xml:space="preserve" x="163.7" y="248.133" font-family="Calibri" font-size="7.5" fill="rgb(0,0,0)" text-anchor="middle">3</text>
<polygon points="167.7,242.3 175.7,242.3 175.7,248.3 167.7,248.3" fill="rgb(156,207,203)"/><text xml:space="preserve" x="171.7" y="248.133" font-family="Calibri" font-size="7.5" fill="rgb(0,0,0)" text-anchor="middle">3</text>
<polygon points="185.7,242.3 191.7,242.3 191.7,248.3 185.7,248.3" fill="rgb(255,235,235)"/>
<polygon points="191.7,242.3 197.7,242.3 197.7,248.3 191.7,248.3" fill="rgb(250,250,255)"/>
<polygon points="197.7,242.3 203.7,242.3 203.7,248.3 197.7,248.3" fill="rgb(255,214,214)"/>
<polygon points="203.7,242.3 209.7,242.3 209.7,248.3 203.7,248.3" fill="rgb(255,150,150)"/>
<polygon points="209.7,242.3 215.7,242.3 215.7,248.3 209.7,248.3" fill="rgb(227,227,255)"/>
<polygon points="215.7,242.3 221.7,242.3 221.7,248.3 215.7,248.3" fill="rgb(255,223,223)"/>
<polygon points="221.7,242.3 227.7,242.3 227.7,248.3 221.7,248.3" fill="rgb(255,246,246)"/>
<polygon points="227.7,242.3 233.7,242.3 233.7,248.3 227.7,248.3" fill="rgb(255,107,107)"/>
<polygon points="243.7,242.3 249.7,242.3 249.7,248.3 243.7,248.3" fill="rgb(221,221,255)"/>
<polygon points="249.7,242.3 255.7,242.3 255.7,248.3 249.7,248.3" fill="rgb(162,162,255)"/>
<polygon points="255.7,242.3 261.7,242.3 261.7,248.3 255.7,248.3" fill="rgb(186,186,255)"/>
<polygon points="261.7,242.3 267.7,242.3 267.7,248.3 261.7,248.3" fill="rgb(115,115,255)"/>
<polygon points="267.7,242.3 273.7,242.3 273.7,248.3 267.7,248.3" fill="rgb(173,173,255)"/>
<polygon points="273.7,242.3 279.7,242.3 279.7,248.3 273.7,248.3" fill="rgb(254,202,202)"/>
<polygon points="279.7,242.3 285.7,242.3 285.7,248.3 279.7,248.3" fill="rgb(237,237,255)"/>
<polygon points="285.7,242.3 291.7,242.3 291.7,248.3 285.7,248.3" fill="rgb(255,118,118)"/>
<polygon points="301.7,242.3 307.7,242.3 307.7,248.3 301.7,248.3" fill="rgb(159,159,255)"/>
<polygon points="307.7,242.3 313.7,242.3 313.7,248.3 307.7,248.3" fill="rgb(166,166,255)"/>
<polygon points="313.7,242.3 319.7,242.3 319.7,248.3 313.7,248.3" fill="rgb(219,219,255)"/>
<polygon points="319.7,242.3 325.7,242.3 325.7,248.3 319.7,248.3" fill="rgb(162,162,255)"/>
<polygon points="325.7,242.3 331.7,242.3 331.7,248.3 325.7,248.3" fill="rgb(184,184,255)"/>
<polygon points="331.7,242.3 337.7,242.3 337.7,248.3 331.7,248.3" fill="rgb(254,206,206)"/>
<polygon points="337.7,242.3 343.7,242.3 343.7,248.3 337.7,248.3" fill="rgb(255,197,197)"/>
<polygon points="343.7,242.3 349.7,242.3 349.7,248.3 343.7,248.3" fill="rgb(255,89,89)"/>
<polygon points="151.7,248.3 159.7,248.3 159.7,254.3 151.7,254.3" fill="rgb(216,179,101)"/><text xml:space="preserve" x="155.7" y="254.133" font-family="Calibri" font-size="7.5" fill="rgb(0,0,0)" text-anchor="middle">14</text>
<polygon points="159.7,248.3 167.7,248.3 167.7,254.3 159.7,254.3" fill="rgb(156,207,203)"/><text xml:space="preserve" x="163.7" y="254.133" font-family="Calibri" font-size="7.5" fill="rgb(0,0,0)" text-anchor="middle">3</text>
<polygon points="167.7,248.3 175.7,248.3 175.7,254.3 167.7,254.3" fill="rgb(156,207,203)"/><text xml:space="preserve" x="171.7" y="254.133" font-family="Calibri" font-size="7.5" fill="rgb(0,0,0)" text-anchor="middle">3</text>
<polygon points="185.7,248.3 191.7,248.3 191.7,254.3 185.7,254.3" fill="rgb(255,211,211)"/>
<polygon points="191.7,248.3 197.7,248.3 197.7,254.3 191.7,254.3" fill="rgb(255,236,236)"/>
<polygon points="197.7,248.3 203.7,248.3 203.7,254.3 197.7,254.3" fill="rgb(255,213,213)"/>
<polygon points="203.7,248.3 209.7,248.3 209.7,254.3 203.7,254.3" fill="rgb(255,189,189)"/>
<polygon points="209.7,248.3 215.7,248.3 215.7,254.3 209.7,254.3" fill="rgb(244,244,255)"/>
<polygon points="215.7,248.3 221.7,248.3 221.7,254.3 215.7,254.3" fill="rgb(221,221,255)"/>
<polygon points="221.7,248.3 227.7,248.3 227.7,254.3 221.7,254.3" fill="rgb(210,210,255)"/>
<polygon points="227.7,248.3 233.7,248.3 233.7,254.3 227.7,254.3" fill="rgb(255,227,227)"/>
<polygon points="243.7,248.3 249.7,248.3 249.7,254.3 243.7,254.3" fill="rgb(183,183,255)"/>
<polygon points="249.7,248.3 255.7,248.3 255.7,254.3 249.7,254.3" fill="rgb(188,188,255)"/>
<polygon points="255.7,248.3 261.7,248.3 261.7,254.3 255.7,254.3" fill="rgb(241,241,255)"/>
<polygon points="261.7,248.3 267.7,248.3 267.7,254.3 261.7,254.3" fill="rgb(148,148,255)"/>
<polygon points="267.7,248.3 273.7,248.3 273.7,254.3 267.7,254.3" fill="rgb(182,182,255)"/>
<polygon points="273.7,248.3 279.7,248.3 279.7,254.3 273.7,254.3" fill="rgb(255,185,185)"/>
<polygon points="279.7,248.3 285.7,248.3 285.7,254.3 279.7,254.3" fill="rgb(255,178,178)"/>
<polygon points="285.7,248.3 291.7,248.3 291.7,254.3 285.7,254.3" fill="rgb(255,173,173)"/>
<polygon points="301.7,248.3 307.7,248.3 307.7,254.3 301.7,254.3" fill="rgb(185,185,255)"/>
<polygon points="307.7,248.3 313.7,248.3 313.7,254.3 307.7,254.3" fill="rgb(138,138,255)"/>
<polygon points="313.7,248.3 319.7,248.3 319.7,254.3 313.7,254.3" fill="rgb(255,204,204)"/>
<polygon points="319.7,248.3 325.7,248.3 325.7,254.3 319.7,254.3" fill="rgb(210,210,255)"/>
<polygon points="325.7,248.3 331.7,248.3 331.7,254.3 325.7,254.3" fill="rgb(193,193,255)"/>
<polygon points="331.7,248.3 337.7,248.3 337.7,254.3 331.7,254.3" fill="rgb(255,225,225)"/>
<polygon points="337.7,248.3 343.7,248.3 343.7,254.3 337.7,254.3" fill="rgb(255,181,181)"/>
<polygon points="343.7,248.3 349.7,248.3 349.7,254.3 343.7,254.3" fill="rgb(255,121,121)"/>
<polygon points="151.7,254.3 159.7,254.3 159.7,260.3 151.7,260.3" fill="rgb(216,179,101)"/><text xml:space="preserve" x="155.7" y="260.133" font-family="Calibri" font-size="7.5" fill="rgb(0,0,0)" text-anchor="middle">14</text>
<polygon points="159.7,254.3 167.7,254.3 167.7,260.3 159.7,260.3" fill="rgb(156,207,203)"/><text xml:space="preserve" x="163.7" y="260.133" font-family="Calibri" font-size="7.5" fill="rgb(0,0,0)" text-anchor="middle">3</text>
<polygon points="167.7,254.3 175.7,254.3 175.7,260.3 167.7,260.3" fill="rgb(156,207,203)"/><text xml:space="preserve" x="171.7" y="260.133" font-family="Calibri" font-size="7.5" fill="rgb(0,0,0)" text-anchor="middle">3</text>
<polygon points="185.7,254.3 191.7,254.3 191.7,260.3 185.7,260.3" fill="rgb(255,190,190)"/>
<polygon points="191.7,254.3 197.7,254.3 197.7,260.3 191.7,260.3" fill="rgb(255,229,229)"/>
<polygon points="197.7,254.3 203.7,254.3 203.7,260.3 197.7,260.3" fill="rgb(255,183,183)"/>
<polygon points="203.7,254.3 209.7,254.3 209.7,260.3 203.7,260.3" fill="rgb(255,99,99)"/>
<polygon points="209.7,254.3 215.7,254.3 215.7,260.3 209.7,260.3" fill="rgb(222,222,255)"/>
<polygon points="215.7,254.3 221.7,254.3 221.7,260.3 215.7,260.3" fill="rgb(255,229,229)"/>
<polygon points="221.7,254.3 227.7,254.3 227.7,260.3 221.7,260.3" fill="rgb(255,118,118)"/>
<polygon points="227.7,254.3 233.7,254.3 233.7,260.3 227.7,260.3" fill="rgb(255,1,1)"/>
<polygon points="243.7,254.3 249.7,254.3 249.7,260.3 243.7,260.3" fill="rgb(254,206,206)"/>
<polygon points="249.7,254.3 255.7,254.3 255.7,260.3 249.7,260.3" fill="rgb(159,159,255)"/>
<polygon points="255.7,254.3 261.7,254.3 261.7,260.3 255.7,260.3" fill="rgb(176,176,255)"/>
<polygon points="261.7,254.3 267.7,254.3 267.7,260.3 261.7,260.3" fill="rgb(126,126,255)"/>
<polygon points="267.7,254.3 273.7,254.3 273.7,260.3 267.7,260.3" fill="rgb(178,178,255)"/>
<polygon points="273.7,254.3 279.7,254.3 279.7,260.3 273.7,260.3" fill="rgb(255,165,165)"/>
<polygon points="279.7,254.3 285.7,254.3 285.7,260.3 279.7,260.3" fill="rgb(255,69,69)"/>
<polygon points="285.7,254.3 291.7,254.3 291.7,260.3 285.7,260.3" fill="rgb(255,32,32)"/>
<polygon points="301.7,254.3 307.7,254.3 307.7,260.3 301.7,260.3" fill="rgb(245,245,255)"/>
<polygon points="307.7,254.3 313.7,254.3 313.7,260.3 307.7,260.3" fill="rgb(147,147,255)"/>
<polygon points="313.7,254.3 319.7,254.3 319.7,260.3 313.7,260.3" fill="rgb(102,102,255)"/>
<polygon points="319.7,254.3 325.7,254.3 325.7,260.3 319.7,260.3" fill="rgb(162,162,255)"/>
<polygon points="325.7,254.3 331.7,254.3 331.7,260.3 325.7,260.3" fill="rgb(179,179,255)"/>
<polygon points="331.7,254.3 337.7,254.3 337.7,260.3 331.7,260.3" fill="rgb(255,135,135)"/>
<polygon points="337.7,254.3 343.7,254.3 343.7,260.3 337.7,260.3" fill="rgb(255,70,70)"/>
<polygon points="343.7,254.3 349.7,254.3 349.7,260.3 343.7,260.3" fill="rgb(255,0,0)"/>
<polygon points="151.7,260.3 159.7,260.3 159.7,266.3 151.7,266.3" fill="rgb(216,179,101)"/><text xml:space="preserve" x="155.7" y="266.133" font-family="Calibri" font-size="7.5" fill="rgb(0,0,0)" text-anchor="middle">14</text>
<polygon points="159.7,260.3 167.7,260.3 167.7,266.3 159.7,266.3" fill="rgb(156,207,203)"/><text xml:space="preserve" x="163.7" y="266.133" font-family="Calibri" font-size="7.5" fill="rgb(0,0,0)" text-anchor="middle">3</text>
<polygon points="167.7,260.3 175.7,260.3 175.7,266.3 167.7,266.3" fill="rgb(156,207,203)"/><text xml:space="preserve" x="171.7" y="266.133" font-family="Calibri" font-size="7.5" fill="rgb(0,0,0)" text-anchor="middle">3</text>
<polygon points="185.7,260.3 191.7,260.3 191.7,266.3 185.7,266.3" fill="rgb(255,210,210)"/>
<polygon points="191.7,260.3 197.7,260.3 197.7,266.3 191.7,266.3" fill="rgb(214,214,255)"/>
<polygon points="197.7,260.3 203.7,260.3 203.7,266.3 197.7,266.3" fill="rgb(250,250,255)"/>
<polygon points="203.7,260.3 209.7,260.3 209.7,266.3 203.7,266.3" fill="rgb(255,202,202)"/>
<polygon points="209.7,260.3 215.7,260.3 215.7,266.3 209.7,266.3" fill="rgb(244,244,255)"/>
<polygon points="215.7,260.3 221.7,260.3 221.7,266.3 215.7,266.3" fill="rgb(223,223,255)"/>
<polygon points="221.7,260.3 227.7,260.3 227.7,266.3 221.7,266.3" fill="rgb(162,162,255)"/>
<polygon points="227.7,260.3 233.7,260.3 233.7,266.3 227.7,266.3" fill="rgb(255,180,180)"/>
<polygon points="243.7,260.3 249.7,260.3 249.7,266.3 243.7,266.3" fill="rgb(222,222,255)"/>
<polygon points="249.7,260.3 255.7,260.3 255.7,266.3 249.7,266.3" fill="rgb(142,142,255)"/>
<polygon points="255.7,260.3 261.7,260.3 261.7,266.3 255.7,266.3" fill="rgb(187,187,255)"/>
<polygon points="261.7,260.3 267.7,260.3 267.7,266.3 261.7,266.3" fill="rgb(154,154,255)"/>
<polygon points="267.7,260.3 273.7,260.3 273.7,266.3 267.7,266.3" fill="rgb(185,185,255)"/>
<polygon points="273.7,260.3 279.7,260.3 279.7,266.3 273.7,266.3" fill="rgb(254,214,214)"/>
<polygon points="279.7,260.3 285.7,260.3 285.7,266.3 279.7,266.3" fill="rgb(254,220,220)"/>
<polygon points="285.7,260.3 291.7,260.3 291.7,266.3 285.7,266.3" fill="rgb(255,154,154)"/>
<polygon points="301.7,260.3 307.7,260.3 307.7,266.3 301.7,266.3" fill="rgb(177,177,255)"/>
<polygon points="307.7,260.3 313.7,260.3 313.7,266.3 307.7,266.3" fill="rgb(136,136,255)"/>
<polygon points="313.7,260.3 319.7,260.3 319.7,266.3 313.7,266.3" fill="rgb(96,96,255)"/>
<polygon points="319.7,260.3 325.7,260.3 325.7,266.3 319.7,266.3" fill="rgb(137,137,255)"/>
<polygon points="325.7,260.3 331.7,260.3 331.7,266.3 325.7,266.3" fill="rgb(162,162,255)"/>
<polygon points="331.7,260.3 337.7,260.3 337.7,266.3 331.7,266.3" fill="rgb(255,229,229)"/>
<polygon points="337.7,260.3 343.7,260.3 343.7,266.3 337.7,266.3" fill="rgb(255,215,215)"/>
<polygon points="343.7,260.3 349.7,260.3 349.7,266.3 343.7,266.3" fill="rgb(255,91,91)"/>
<polygon points="151.7,266.3 159.7,266.3 159.7,272.3 151.7,272.3" fill="rgb(216,179,101)"/><text xml:space="preserve" x="155.7" y="272.133" font-family="Calibri" font-size="7.5" fill="rgb(0,0,0)" text-anchor="middle">14</text>
<polygon points="159.7,266.3 167.7,266.3 167.7,272.3 159.7,272.3" fill="rgb(156,207,203)"/><text xml:space="preserve" x="163.7" y="272.133" font-family="Calibri" font-size="7.5" fill="rgb(0,0,0)" text-anchor="middle">3</text>
<polygon points="167.7,266.3 175.7,266.3 175.7,272.3 167.7,272.3" fill="rgb(156,207,203)"/><text xml:space="preserve" x="171.7" y="272.133" font-family="Calibri" font-size="7.5" fill="rgb(0,0,0)" text-anchor="middle">3</text>
<polygon points="185.7,266.3 191.7,266.3 191.7,272.3 185.7,272.3" fill="rgb(255,208,208)"/>
<polygon points="191.7,266.3 197.7,266.3 197.7,272.3 191.7,272.3" fill="rgb(255,225,225)"/>
<polygon points="197.7,266.3 203.7,266.3 203.7,272.3 197.7,272.3" fill="rgb(255,231,231)"/>
<polygon points="203.7,266.3 209.7,266.3 209.7,272.3 203.7,272.3" fill="rgb(255,193,193)"/>
<polygon points="209.7,266.3 215.7,266.3 215.7,272.3 209.7,272.3" fill="rgb(237,237,255)"/>
<polygon points="215.7,266.3 221.7,266.3 221.7,272.3 215.7,272.3" fill="rgb(255,253,253)"/>
<polygon points="221.7,266.3 227.7,266.3 227.7,272.3 221.7,272.3" fill="rgb(252,252,255)"/>
<polygon points="227.7,266.3 233.7,266.3 233.7,272.3 227.7,272.3" fill="rgb(255,168,168)"/>
<polygon points="243.7,266.3 249.7,266.3 249.7,272.3 243.7,272.3" fill="rgb(235,235,255)"/>
<polygon points="249.7,266.3 255.7,266.3 255.7,272.3 249.7,272.3" fill="rgb(188,188,255)"/>
<polygon points="255.7,266.3 261.7,266.3 261.7,272.3 255.7,272.3" fill="rgb(184,184,255)"/>
<polygon points="261.7,266.3 267.7,266.3 267.7,272.3 261.7,272.3" fill="rgb(165,165,255)"/>
<polygon points="267.7,266.3 273.7,266.3 273.7,272.3 267.7,272.3" fill="rgb(193,193,255)"/>
<polygon points="273.7,266.3 279.7,266.3 279.7,272.3 273.7,272.3" fill="rgb(255,244,244)"/>
<polygon points="279.7,266.3 285.7,266.3 285.7,272.3 279.7,272.3" fill="rgb(255,208,208)"/>
<polygon points="285.7,266.3 291.7,266.3 291.7,272.3 285.7,272.3" fill="rgb(255,155,155)"/>
<polygon points="301.7,266.3 307.7,266.3 307.7,272.3 301.7,272.3" fill="rgb(255,254,254)"/>
<polygon points="307.7,266.3 313.7,266.3 313.7,272.3 307.7,272.3" fill="rgb(190,190,255)"/>
<polygon points="313.7,266.3 319.7,266.3 319.7,272.3 313.7,272.3" fill="rgb(143,143,255)"/>
<polygon points="319.7,266.3 325.7,266.3 325.7,272.3 319.7,272.3" fill="rgb(207,207,255)"/>
<polygon points="325.7,266.3 331.7,266.3 331.7,272.3 325.7,272.3" fill="rgb(186,186,255)"/>
<polygon points="331.7,266.3 337.7,266.3 337.7,272.3 331.7,272.3" fill="rgb(225,225,255)"/>
<polygon points="337.7,266.3 343.7,266.3 343.7,272.3 337.7,272.3" fill="rgb(254,142,142)"/>
<polygon points="343.7,266.3 349.7,266.3 349.7,272.3 343.7,272.3" fill="rgb(255,44,44)"/>
<polygon points="151.7,272.3 159.7,272.3 159.7,278.3 151.7,278.3" fill="rgb(216,179,101)"/><text xml:space="preserve" x="155.7" y="278.133" font-family="Calibri" font-size="7.5" fill="rgb(0,0,0)" text-anchor="middle">14</text>
<polygon points="159.7,272.3 167.7,272.3 167.7,278.3 159.7,278.3" fill="rgb(156,207,203)"/><text xml:space="preserve" x="163.7" y="278.133" font-family="Calibri" font-size="7.5" fill="rgb(0,0,0)" text-anchor="middle">3</text>
<polygon points="167.7,272.3 175.7,272.3 175.7,278.3 167.7,278.3" fill="rgb(156,207,203)"/><text xml:space="preserve" x="171.7" y="278.133" font-family="Calibri" font-size="7.5" fill="rgb(0,0,0)" text-anchor="middle">3</text>
<polygon points="185.7,272.3 191.7,272.3 191.7,278.3 185.7,278.3" fill="rgb(255,229,229)"/>
<polygon points="191.7,272.3 197.7,272.3 197.7,278.3 191.7,278.3" fill="rgb(255,249,249)"/>
<polygon points="197.7,272.3 203.7,272.3 203.7,278.3 197.7,278.3" fill="rgb(244,244,255)"/>
<polygon points="203.7,272.3 209.7,272.3 209.7,278.3 203.7,278.3" fill="rgb(255,211,211)"/>
<polygon points="209.7,272.3 215.7,272.3 215.7,278.3 209.7,278.3" fill="rgb(248,248,255)"/>
<polygon points="215.7,272.3 221.7,272.3 221.7,278.3 215.7,278.3" fill="rgb(255,243,243)"/>
<polygon points="221.7,272.3 227.7,272.3 227.7,278.3 221.7,278.3" fill="rgb(255,165,165)"/>
<polygon points="227.7,272.3 233.7,272.3 233.7,278.3 227.7,278.3" fill="rgb(255,190,190)"/>
<polygon points="243.7,272.3 249.7,272.3 249.7,278.3 243.7,278.3" fill="rgb(184,184,255)"/>
<polygon points="249.7,272.3 255.7,272.3 255.7,278.3 249.7,278.3" fill="rgb(186,186,255)"/>
<polygon points="255.7,272.3 261.7,272.3 261.7,278.3 255.7,278.3" fill="rgb(231,231,255)"/>
<polygon points="261.7,272.3 267.7,272.3 267.7,278.3 261.7,278.3" fill="rgb(160,160,255)"/>
<polygon points="267.7,272.3 273.7,272.3 273.7,278.3 267.7,278.3" fill="rgb(203,203,255)"/>
<polygon points="273.7,272.3 279.7,272.3 279.7,278.3 273.7,278.3" fill="rgb(255,157,157)"/>
<polygon points="279.7,272.3 285.7,272.3 285.7,278.3 279.7,278.3" fill="rgb(255,180,180)"/>
<polygon points="285.7,272.3 291.7,272.3 291.7,278.3 285.7,278.3" fill="rgb(255,217,217)"/>
<polygon points="301.7,272.3 307.7,272.3 307.7,278.3 301.7,278.3" fill="rgb(200,200,255)"/>
<polygon points="307.7,272.3 313.7,272.3 313.7,278.3 307.7,278.3" fill="rgb(175,175,255)"/>
<polygon points="313.7,272.3 319.7,272.3 319.7,278.3 313.7,278.3" fill="rgb(178,178,255)"/>
<polygon points="319.7,272.3 325.7,272.3 325.7,278.3 319.7,278.3" fill="rgb(128,128,255)"/>
<polygon points="325.7,272.3 331.7,272.3 331.7,278.3 325.7,278.3" fill="rgb(202,202,255)"/>
<polygon points="331.7,272.3 337.7,272.3 337.7,278.3 331.7,278.3" fill="rgb(255,179,179)"/>
<polygon points="337.7,272.3 343.7,272.3 343.7,278.3 337.7,278.3" fill="rgb(255,135,135)"/>
<polygon points="343.7,272.3 349.7,272.3 349.7,278.3 343.7,278.3" fill="rgb(255,89,89)"/>
<polygon points="151.7,278.3 159.7,278.3 159.7,284.3 151.7,284.3" fill="rgb(216,179,101)"/><text xml:space="preserve" x="155.7" y="284.133" font-family="Calibri" font-size="7.5" fill="rgb(0,0,0)" text-anchor="middle">14</text>
<polygon points="159.7,278.3 167.7,278.3 167.7,284.3 159.7,284.3" fill="rgb(156,207,203)"/><text xml:space="preserve" x="163.7" y="284.133" font-family="Calibri" font-size="7.5" fill="rgb(0,0,0)" text-anchor="middle">3</text>
<polygon points="167.7,278.3 175.7,278.3 175.7,284.3 167.7,284.3" fill="rgb(156,207,203)"/><text xml:space="preserve" x="171.7" y="284.133" font-family="Calibri" font-size="7.5" fill="rgb(0,0,0)" text-anchor="middle">3</text>
<polygon points="185.7,278.3 191.7,278.3 191.7,284.3 185.7,284.3" fill="rgb(255,227,227)"/>
<polygon points="191.7,278.3 197.7,278.3 197.7,284.3 191.7,284.3" fill="rgb(255,219,219)"/>
<polygon points="197.7,278.3 203.7,278.3 203.7,284.3 197.7,284.3" fill="rgb(255,181,181)"/>
<polygon points="203.7,278.3 209.7,278.3 209.7,284.3 203.7,284.3" fill="rgb(255,82,82)"/>
<polygon points="209.7,278.3 215.7,278.3 215.7,284.3 209.7,284.3" fill="rgb(233,233,255)"/>
<polygon points="215.7,278.3 221.7,278.3 221.7,284.3 215.7,284.3" fill="rgb(255,251,251)"/>
<polygon points="221.7,278.3 227.7,278.3 227.7,284.3 221.7,284.3" fill="rgb(255,189,189)"/>
<polygon points="227.7,278.3 233.7,278.3 233.7,284.3 227.7,284.3" fill="rgb(255,97,97)"/>
<polygon points="243.7,278.3 249.7,278.3 249.7,284.3 243.7,284.3" fill="rgb(255,243,243)"/>
<polygon points="249.7,278.3 255.7,278.3 255.7,284.3 249.7,284.3" fill="rgb(189,189,255)"/>
<polygon points="255.7,278.3 261.7,278.3 261.7,284.3 255.7,284.3" fill="rgb(181,181,255)"/>
<polygon points="261.7,278.3 267.7,278.3 267.7,284.3 261.7,284.3" fill="rgb(140,140,255)"/>
<polygon points="267.7,278.3 273.7,278.3 273.7,284.3 267.7,284.3" fill="rgb(188,188,255)"/>
<polygon points="273.7,278.3 279.7,278.3 279.7,284.3 273.7,284.3" fill="rgb(255,244,244)"/>
<polygon points="279.7,278.3 285.7,278.3 285.7,284.3 279.7,284.3" fill="rgb(254,201,201)"/>
<polygon points="285.7,278.3 291.7,278.3 291.7,284.3 285.7,284.3" fill="rgb(255,144,144)"/>
<polygon points="301.7,278.3 307.7,278.3 307.7,284.3 301.7,284.3" fill="rgb(255,245,245)"/>
<polygon points="307.7,278.3 313.7,278.3 313.7,284.3 307.7,284.3" fill="rgb(174,174,255)"/>
<polygon points="313.7,278.3 319.7,278.3 319.7,284.3 313.7,284.3" fill="rgb(100,100,255)"/>
<polygon points="319.7,278.3 325.7,278.3 325.7,284.3 319.7,284.3" fill="rgb(140,140,255)"/>
<polygon points="325.7,278.3 331.7,278.3 331.7,284.3 325.7,284.3" fill="rgb(181,181,255)"/>
<polygon points="331.7,278.3 337.7,278.3 337.7,284.3 331.7,284.3" fill="rgb(255,208,208)"/>
<polygon points="337.7,278.3 343.7,278.3 343.7,284.3 337.7,284.3" fill="rgb(255,215,215)"/>
<polygon points="343.7,278.3 349.7,278.3 349.7,284.3 343.7,284.3" fill="rgb(255,71,71)"/>
<polygon points="151.7,212.3 175.7,212.3 175.7,284.3 151.7,284.3" fill="none" stroke="black" stroke-width="1"/>
<polygon points="185.7,212.3 233.7,212.3 233.7,284.3 185.7,284.3" fill="none" stroke="black" stroke-width="1"/>
<polygon points="243.7,212.3 291.7,212.3 291.7,284.3 243.7,284.3" fill="none" stroke="black" stroke-width="1"/>
<polygon points="301.7,212.3 349.7,212.3 349.7,284.3 301.7,284.3" fill="none" stroke="black" stroke-width="1"/>
<text xml:space="preserve" x="195.85" y="316.633" font-family="Calibri" font-size="6" text-anchor="middle">moduleID</text>
<polygon points="85.85,324.3 105.85,324.3 105.85,344.3 85.85,344.3" fill="rgb(250,250,250)"/><polygon points="85.85,324.3 105.85,324.3 105.85,344.3 85.85,344.3" fill="none" stroke="black" stroke-width="1"/><text xml:space="preserve" x="95.85" y="337.133" font-family="Calibri" font-size="7.5" fill="rgb(0,0,0)" text-anchor="middle">-2.0</text>
<polygon points="105.85,324.3 125.85,324.3 125.85,344.3 105.85,344.3" fill="rgb(156,210,205)"/><polygon points="105.85,324.3 125.85,324.3 125.85,344.3 105.85,344.3" fill="none" stroke="black" stroke-width="1"/><text xml:space="preserve" x="115.85" y="337.133" font-family="Calibri" font-size="7.5" fill="rgb(0,0,0)" text-anchor="middle">-0.4</text>
<polygon points="125.85,324.3 145.85,324.3 145.85,344.3 125.85,344.3" fill="rgb(116,191,184)"/><polygon points="125.85,324.3 145.85,324.3 145.85,344.3 125.85,344.3" fill="none" stroke="black" stroke-width="1"/><text xml:space="preserve" x="135.85" y="337.133" font-family="Calibri" font-size="7.5" fill="rgb(0,0,0)" text-anchor="middle">1.2</text>
<polygon points="145.85,324.3 165.85,324.3 165.85,344.3 145.85,344.3" fill="rgb(152,206,201)"/><polygon points="145.85,324.3 165.85,324.3 165.85,344.3 145.85,344.3" fill="none" stroke="black" stroke-width="1"/><text xml:space="preserve" x="155.85" y="337.133" font-family="Calibri" font-size="7.5" fill="rgb(0,0,0)" text-anchor="middle">2.8</text>
<polygon points="165.85,324.3 185.85,324.3 185.85,344.3 165.85,344.3" fill="rgb(187,220,217)"/><polygon points="165.85,324.3 185.85,324.3 185.85,344.3 165.85,344.3" fill="none" stroke="black" stroke-width="1"/><text xml:space="preserve" x="175.85" y="337.133" font-family="Calibri" font-size="7.5" fill="rgb(0,0,0)" text-anchor="middle">4.4</text>
<polygon points="185.85,324.3 205.85,324.3 205.85,344.3 185.85,344.3" fill="rgb(222,235,234)"/><polygon points="185.85,324.3 205.85,324.3 205.85,344.3 185.85,344.3" fill="none" stroke="black" stroke-width="1"/><text xml:space="preserve" x="195.85" y="337.133" font-family="Calibri" font-size="7.5" fill="rgb(0,0,0)" text-anchor="middle">6.0</text>
<polygon points="205.85,324.3 225.85,324.3 225.85,344.3 205.85,344.3" fill="rgb(242,239,232)"/><polygon points="205.85,324.3 225.85,324.3 225.85,344.3 205.85,344.3" fill="none" stroke="black" stroke-width="1"/><text xml:space="preserve" x="215.85" y="337.133" font-family="Calibri" font-size="7.5" fill="rgb(0,0,0)" text-anchor="middle">7.6</text>
<polygon points="225.85,324.3 245.85,324.3 245.85,344.3 225.85,344.3" fill="rgb(235,224,199)"/><polygon points="225.85,324.3 245.85,324.3 245.85,344.3 225.85,344.3" fill="none" stroke="black" stroke-width="1"/><text xml:space="preserve" x="235.85" y="337.133" font-family="Calibri" font-size="7.5" fill="rgb(0,0,0)" text-anchor="middle">9.2</text>
<polygon points="245.85,324.3 265.85,324.3 265.85,344.3 245.85,344.3" fill="rgb(229,209,166)"/><polygon points="245.85,324.3 265.85,324.3 265.85,344.3 245.85,344.3" fill="none" stroke="black" stroke-width="1"/><text xml:space="preserve" x="255.85" y="337.133" font-family="Calibri" font-size="7.5" fill="rgb(0,0,0)" text-anchor="middle">10.8</text>
<polygon points="265.85,324.3 285.85,324.3 285.85,344.3 265.85,344.3" fill="rgb(222,194,133)"/><polygon points="265.85,324.3 285.85,324.3 285.85,344.3 265.85,344.3" fill="none" stroke="black" stroke-width="1"/><text xml:space="preserve" x="275.85" y="337.133" font-family="Calibri" font-size="7.5" fill="rgb(0,0,0)" text-anchor="middle">12.4</text>
<polygon points="285.85,324.3 305.85,324.3 305.85,344.3 285.85,344.3" fill="rgb(216,179,101)"/><polygon points="285.85,324.3 305.85,324.3 305.85,344.3 285.85,344.3" fill="none" stroke="black" stroke-width="1"/><text xml:space="preserve" x="295.85" y="337.133" font-family="Calibri" font-size="7.5" fill="rgb(0,0,0)" text-anchor="middle">14.0</text>
<text xml:space="preserve" x="195.85" y="376.633" font-family="Calibri" font-size="6" text-anchor="middle">marklevel</text>
<polygon points="85.85,384.3 105.85,384.3 105.85,404.3 85.85,404.3" fill="rgb(0,0,255)"/><polygon points="85.85,384.3 105.85,384.3 105.85,404.3 85.85,404.3" fill="none" stroke="black" stroke-width="1"/><text xml:space="preserve" x="95.85" y="397.133" font-family="Calibri" font-size="7.5" fill="rgb(255,255,255)" text-anchor="middle">-2.0</text>
<polygon points="105.85,384.3 125.85,384.3 125.85,404.3 105.85,404.3" fill="rgb(50,50,255)"/><polygon points="105.85,384.3 125.85,384.3 125.85,404.3 105.85,404.3" fill="none" stroke="black" stroke-width="1"/><text xml:space="preserve" x="115.85" y="397.133" font-family="Calibri" font-size="7.5" fill="rgb(255,255,255)" text-anchor="middle">-1.6</text>
<polygon points="125.85,384.3 145.85,384.3 145.85,404.3 125.85,404.3" fill="rgb(102,102,255)"/><polygon points="125.85,384.3 145.85,384.3 145.85,404.3 125.85,404.3" fill="none" stroke="black" stroke-width="1"/><text xml:space="preserve" x="135.85" y="397.133" font-family="Calibri" font-size="7.5" fill="rgb(255,255,255)" text-anchor="middle">-1.2</text>
<polygon points="145.85,384.3 165.85,384.3 165.85,404.3 145.85,404.3" fill="rgb(153,153,255)"/><polygon points="145.85,384.3 165.85,384.3 165.85,404.3 145.85,404.3" fill="none" stroke="black" stroke-width="1"/><text xml:space="preserve" x="155.85" y="397.133" font-family="Calibri" font-size="7.5" fill="rgb(0,0,0)" text-anchor="middle">-0.8</text>
<polygon points="165.85,384.3 185.85,384.3 185.85,404.3 165.85,404.3" fill="rgb(204,204,255)"/><polygon points="165.85,384.3 185.85,384.3 185.85,404.3 165.85,404.3" fill="none" stroke="black" stroke-width="1"/><text xml:space="preserve" x="175.85" y="397.133" font-family="Calibri" font-size="7.5" fill="rgb(0,0,0)" text-anchor="middle">-0.4</text>
<polygon points="185.85,384.3 205.85,384.3 205.85,404.3 185.85,404.3" fill="rgb(255,255,255)"/><polygon points="185.85,384.3 205.85,384.3 205.85,404.3 185.85,404.3" fill="none" stroke="black" stroke-width="1"/><text xml:space="preserve" x="195.85" y="397.133" font-family="Calibri" font-size="7.5" fill="rgb(0,0,0)" text-anchor="middle">0.0</text>
<polygon points="205.85,384.3 225.85,384.3 225.85,404.3 205.85,404.3" fill="rgb(255,204,204)"/><polygon points="205.85,384.3 225.85,384.3 225.85,404.3 205.85,404.3" fill="none" stroke="black" stroke-width="1"/><text xml:space="preserve" x="215.85" y="397.133" font-family="Calibri" font-size="7.5" fill="rgb(0,0,0)" text-anchor="middle">0.4</text>
<polygon points="225.85,384.3 245.85,384.3 245.85,404.3 225.85,404.3" fill="rgb(255,153,153)"/><polygon points="225.85,384.3 245.85,384.3 245.85,404.3 225.85,404.3" fill="none" stroke="black" stroke-width="1"/><text xml:space="preserve" x="235.85" y="397.133" font-family="Calibri" font-size="7.5" fill="rgb(0,0,0)" text-anchor="middle">0.8</text>
<polygon points="245.85,384.3 265.85,384.3 265.85,404.3 245.85,404.3" fill="rgb(255,102,102)"/><polygon points="245.85,384.3 265.85,384.3 265.85,404.3 245.85,404.3" fill="none" stroke="black" stroke-width="1"/><text xml:space="preserve" x="255.85" y="397.133" font-family="Calibri" font-size="7.5" fill="rgb(0,0,0)" text-anchor="middle">1.2</text>
<polygon points="265.85,384.3 285.85,384.3 285.85,404.3 265.85,404.3" fill="rgb(255,50,50)"/><polygon points="265.85,384.3 285.85,384.3 285.85,404.3 265.85,404.3" fill="none" stroke="black" stroke-width="1"/><text xml:space="preserve" x="275.85" y="397.133" font-family="Calibri" font-size="7.5" fill="rgb(255,255,255)" text-anchor="middle">1.6</text>
<polygon points="285.85,384.3 305.85,384.3 305.85,404.3 285.85,404.3" fill="rgb(255,0,0)"/><polygon points="285.85,384.3 305.85,384.3 305.85,404.3 285.85,404.3" fill="none" stroke="black" stroke-width="1"/><text xml:space="preserve" x="295.85" y="397.133" font-family="Calibri" font-size="7.5" fill="rgb(255,255,255)" text-anchor="middle">2.0</text>
</svg>
