<?xml version="1.0" standalone="no"?><!DOCTYPE svg PUBLIC "-//W3C//DTD SVG 1.1//EN" "http://www.w3.org/Graphics/SVG/1.1/DTD/svg11.dtd">
<svg width="393.5" height="418.3" version="1.1" xmlns="http://www.w3.org/2000/svg">
<text xml:space="preserve" x="149.5" y="217.633" font-family="Calibri" font-size="6" text-anchor="end">Glipr1</text>
<text xml:space="preserve" x="149.5" y="223.633" font-family="Calibri" font-size="6" text-anchor="end">Olfr913</text>
<text xml:space="preserve" x="149.5" y="229.633" font-family="Calibri" font-size="6" text-anchor="end">Rgn</text>
<text xml:space="preserve" x="149.5" y="235.633" font-family="Calibri" font-size="6" text-anchor="end">Nox4</text>
<text xml:space="preserve" x="149.5" y="241.633" font-family="Calibri" font-size="6" text-anchor="end">Ndph</text>
<text xml:space="preserve" x="149.5" y="247.633" font-family="Calibri" font-size="6" text-anchor="end">mmu-mir-532</text>
<text xml:space="preserve" x="149.5" y="253.633" font-family="Calibri" font-size="6" text-anchor="end">mmu-mir-494</text>
<text xml:space="preserve" x="149.5" y="259.633" font-family="Calibri" font-size="6" text-anchor="end">mmu-mir-487b</text>
<text xml:space="preserve" x="149.5" y="265.633" font-family="Calibri" font-size="6" text-anchor="end">mmu-mir-381</text>
<text xml:space="preserve" x="149.5" y="271.633" font-family="Calibri" font-size="6" text-anchor="end">mmu-mir-337</text>
<text xml:space="preserve" x="149.5" y="277.633" font-family="Calibri" font-size="6" text-anchor="end">mmu-mir-188</text>
<text xml:space="preserve" x="159.833" y="208.3" font-family="Calibri" font-size="6" transform="rotate(270 159.833 208.3)">ips</text>
<text xml:space="preserve" x="167.833" y="208.3" font-family="Calibri" font-size="6" transform="rotate(270 167.833 208.3)">pips</text>
<text xml:space="preserve" x="175.833" y="208.3" font-family="Calibri" font-size="6" transform="rotate(270 175.833 208.3)">mef</text>
<text xml:space="preserve" x="192.833" y="208.3" font-family="Calibri" font-size="6" transform="rotate(270 192.833 208.3)">ips_H3K4me3iPS</text>
<text xml:space="preserve" x="198.833" y="208.3" font-family="Calibri" font-size="6" transform="rotate(270 198.833 208.3)">ips_H3K9aciPS</text>
<text xml:space="preserve" x="204.833" y="208.3" font-family="Calibri" font-size="6" transform="rotate(270 204.833 208.3)">ips_H3K14aciPS</text>
<text xml:space="preserve" x="210.833" y="208.3" font-family="Calibri" font-size="6" transform="rotate(270 210.833 208.3)">ips_H3K18aciPS</text>
<text xml:space="preserve" x="216.833" y="208.3" font-family="Calibri" font-size="6" transform="rotate(270 216.833 208.3)">ips_H3K79me2iPS</text>
<text xml:space="preserve" x="222.833" y="208.3" font-family="Calibri" font-size="6" transform="rotate(270 222.833 208.3)">ips_H3K9me2iPS</text>
<text xml:space="preserve" x="228.833" y="208.3" font-family="Calibri" font-size="6" transform="rotate(270 228.833 208.3)">ips_H3K9me3iPS</text>
<text xml:space="preserve" x="234.833" y="208.3" font-family="Calibri" font-size="6" transform="rotate(270 234.833 208.3)">ips_H3K27me3iPS</text>
<text xml:space="preserve" x="250.833" y="208.3" font-family="Calibri" font-size="6" transform="rotate(270 250.833 208.3)">pips_H3K4me3pips</text>
<text xml:space="preserve" x="256.833" y="208.3" font-family="Calibri" font-size="6" transform="rotate(270 256.833 208.3)">pips_H3K9acpips</text>
<text xml:space="preserve" x="262.833" y="208.3" font-family="Calibri" font-size="6" transform="rotate(270 262.833 208.3)">pips_H3K14acpips</text>
<text xml:space="preserve" x="268.833" y="208.3" font-family="Calibri" font-size="6" transform="rotate(270 268.833 208.3)">pips_H3K18acpips</text>
<text xml:space="preserve" x="274.833" y="208.3" font-family="Calibri" font-size="6" transform="rotate(270 274.833 208.3)">pips_H3K79me2pips</text>
<text xml:space="preserve" x="280.833" y="208.3" font-family="Calibri" font-size="6" transform="rotate(270 280.833 208.3)">pips_H3K9me2pips</text>
<text xml:space="preserve" x="286.833" y="208.3" font-family="Calibri" font-size="6" transform="rotate(270 286.833 208.3)">pips_H3K9me3pips</text>
<text xml:space="preserve" x="292.833" y="208.3" font-family="Calibri" font-size="6" transform="rotate(270 292.833 208.3)">pips_H3K27me3pips</text>
<text xml:space="preserve" x="308.833" y="208.3" font-family="Calibri" font-size="6" transform="rotate(270 308.833 208.3)">mef_H3K4me3mef</text>
<text xml:space="preserve" x="314.833" y="208.3" font-family="Calibri" font-size="6" transform="rotate(270 314.833 208.3)">mef_H3K9acmef</text>
<text xml:space="preserve" x="320.833" y="208.3" font-family="Calibri" font-size="6" transform="rotate(270 320.833 208.3)">mef_H3K14acmef</text>
<text xml:space="preserve" x="326.833" y="208.3" font-family="Calibri" font-size="6" transform="rotate(270 326.833 208.3)">mef_H3K18acmef</text>
<text xml:space="preserve" x="332.833" y="208.3" font-family="Calibri" font-size="6" transform="rotate(270 332.833 208.3)">mef_H3K79me2mef</text>
<text xml:space="preserve" x="338.833" y="208.3" font-family="Calibri" font-size="6" transform="rotate(270 338.833 208.3)">mef_H3K9me2mef</text>
<text xml:space="preserve" x="344.833" y="208.3" font-family="Calibri" font-size="6" transform="rotate(270 344.833 208.3)">mef_H3K9me3mef</text>
<text xml:space="preserve" x="350.833" y="208.3" font-family="Calibri" font-size="6" transform="rotate(270 350.833 208.3)">mef_H3K27me3mef</text>
<polygon points="153.5,212.3 161.5,212.3 161.5,218.3 153.5,218.3" fill="rgb(178,217,213)"/><text xml:space="preserve" x="157.5" y="218.133" font-family="Calibri" font-size="7.5" fill="rgb(0,0,0)" text-anchor="middle">4</text>
<polygon points="161.5,212.3 169.5,212.3 169.5,218.3 161.5,218.3" fill="rgb(224,197,142)"/><text xml:space="preserve" x="165.5" y="218.133" font-family="Calibri" font-size="7.5" fill="rgb(0,0,0)" text-anchor="middle">12</text>
<polygon points="169.5,212.3 177.5,212.3 177.5,218.3 169.5,218.3" fill="rgb(134,198,192)"/><text xml:space="preserve" x="173.5" y="218.133" font-family="Calibri" font-size="7.5" fill="rgb(0,0,0)" text-anchor="middle">2</text>
<polygon points="187.5,212.3 193.5,212.3 193.5,218.3 187.5,218.3" fill="rgb(155,155,255)"/>
<polygon points="193.5,212.3 199.5,212.3 199.5,218.3 193.5,218.3" fill="rgb(161,161,255)"/>
<polygon points="199.5,212.3 205.5,212.3 205.5,218.3 199.5,218.3" fill="rgb(255,241,241)"/>
<polygon points="205.5,212.3 211.5,212.3 211.5,218.3 205.5,218.3" fill="rgb(229,229,255)"/>
<polygon points="211.5,212.3 217.5,212.3 217.5,218.3 211.5,218.3" fill="rgb(204,204,255)"/>
<polygon points="217.5,212.3 223.5,212.3 223.5,218.3 217.5,218.3" fill="rgb(255,110,110)"/>
<polygon points="223.5,212.3 229.5,212.3 229.5,218.3 223.5,218.3" fill="rgb(255,244,244)"/>
<polygon points="229.5,212.3 235.5,212.3 235.5,218.3 229.5,218.3" fill="rgb(209,209,255)"/>
<polygon points="245.5,212.3 251.5,212.3 251.5,218.3 245.5,218.3" fill="rgb(189,189,255)"/>
<polygon points="251.5,212.3 257.5,212.3 257.5,218.3 251.5,218.3" fill="rgb(156,156,255)"/>
<polygon points="257.5,212.3 263.5,212.3 263.5,218.3 257.5,218.3" fill="rgb(255,242,242)"/>
<polygon points="263.5,212.3 269.5,212.3 269.5,218.3 263.5,218.3" fill="rgb(207,207,255)"/>
<polygon points="269.5,212.3 275.5,212.3 275.5,218.3 269.5,218.3" fill="rgb(193,193,255)"/>
<polygon points="275.5,212.3 281.5,212.3 281.5,218.3 275.5,218.3" fill="rgb(255,204,204)"/>
<polygon points="281.5,212.3 287.5,212.3 287.5,218.3 281.5,218.3" fill="rgb(255,173,173)"/>
<polygon points="287.5,212.3 293.5,212.3 293.5,218.3 287.5,218.3" fill="rgb(205,205,255)"/>
<polygon points="303.5,212.3 309.5,212.3 309.5,218.3 303.5,218.3" fill="rgb(254,171,171)"/>
<polygon points="309.5,212.3 315.5,212.3 315.5,218.3 309.5,218.3" fill="rgb(223,223,255)"/>
<polygon points="315.5,212.3 321.5,212.3 321.5,218.3 315.5,218.3" fill="rgb(255,193,193)"/>
<polygon points="321.5,212.3 327.5,212.3 327.5,218.3 321.5,218.3" fill="rgb(255,145,145)"/>
<polygon points="327.5,212.3 333.5,212.3 333.5,218.3 327.5,218.3" fill="rgb(214,214,255)"/>
<polygon points="333.5,212.3 339.5,212.3 339.5,218.3 333.5,218.3" fill="rgb(255,217,217)"/>
<polygon points="339.5,212.3 345.5,212.3 345.5,218.3 339.5,218.3" fill="rgb(255,146,146)"/>
<polygon points="345.5,212.3 351.5,212.3 351.5,218.3 345.5,218.3" fill="rgb(180,180,255)"/>
<polygon points="153.5,218.3 161.5,218.3 161.5,224.3 153.5,224.3" fill="rgb(178,217,213)"/><text xml:space="preserve" x="157.5" y="224.133" font-family="Calibri" font-size="7.5" fill="rgb(0,0,0)" text-anchor="middle">4</text>
<polygon points="161.5,218.3 169.5,218.3 169.5,224.3 161.5,224.3" fill="rgb(224,197,142)"/><text xml:space="preserve" x="165.5" y="224.133" font-family="Calibri" font-size="7.5" fill="rgb(0,0,0)" text-anchor="middle">12</text>
<polygon points="169.5,218.3 177.5,218.3 177.5,224.3 169.5,224.3" fill="rgb(134,198,192)"/><text xml:space="preserve" x="173.5" y="224.133" font-family="Calibri" font-size="7.5" fill="rgb(0,0,0)" text-anchor="middle">2</text>
<polygon points="187.5,218.3 193.5,218.3 193.5,224.3 187.5,224.3" fill="rgb(182,182,255)"/>
<polygon points="193.5,218.3 199.5,218.3 199.5,224.3 193.5,224.3" fill="rgb(184,184,255)"/>
<polygon points="199.5,218.3 205.5,218.3 205.5,224.3 199.5,224.3" fill="rgb(221,221,255)"/>
<polygon points="205.5,218.3 211.5,218.3 211.5,224.3 205.5,224.3" fill="rgb(246,246,255)"/>
<polygon points="211.5,218.3 217.5,218.3 217.5,224.3 211.5,224.3" fill="rgb(215,215,255)"/>
<polygon points="217.5,218.3 223.5,218.3 223.5,224.3 217.5,224.3" fill="rgb(255,124,124)"/>
<polygon points="223.5,218.3 229.5,218.3 229.5,224.3 223.5,224.3" fill="rgb(255,159,159)"/>
<polygon points="229.5,218.3 235.5,218.3 235.5,224.3 229.5,224.3" fill="rgb(181,181,255)"/>
<polygon points="245.5,218.3 251.5,218.3 251.5,224.3 245.5,224.3" fill="rgb(144,144,255)"/>
<polygon points="251.5,218.3 257.5,218.3 257.5,224.3 251.5,224.3" fill="rgb(206,206,255)"/>
<polygon points="257.5,218.3 263.5,218.3 263.5,224.3 257.5,224.3" fill="rgb(255,237,237)"/>
<polygon points="263.5,218.3 269.5,218.3 269.5,224.3 263.5,224.3" fill="rgb(201,201,255)"/>
<polygon points="269.5,218.3 275.5,218.3 275.5,224.3 269.5,224.3" fill="rgb(207,207,255)"/>
<polygon points="275.5,218.3 281.5,218.3 281.5,224.3 275.5,224.3" fill="rgb(255,40,40)"/>
<polygon points="281.5,218.3 287.5,218.3 287.5,224.3 281.5,224.3" fill="rgb(255,144,144)"/>
<polygon points="287.5,218.3 293.5,218.3 293.5,224.3 287.5,224.3" fill="rgb(191,191,255)"/>
<polygon points="303.5,218.3 309.5,218.3 309.5,224.3 303.5,224.3" fill="rgb(171,171,255)"/>
<polygon points="309.5,218.3 315.5,218.3 315.5,224.3 309.5,224.3" fill="rgb(160,160,255)"/>
<polygon points="315.5,218.3 321.5,218.3 321.5,224.3 315.5,224.3" fill="rgb(255,244,244)"/>
<polygon points="321.5,218.3 327.5,218.3 327.5,224.3 321.5,224.3" fill="rgb(121,121,255)"/>
<polygon points="327.5,218.3 333.5,218.3 333.5,224.3 327.5,224.3" fill="rgb(236,236,255)"/>
<polygon points="333.5,218.3 339.5,218.3 339.5,224.3 333.5,224.3" fill="rgb(255,74,74)"/>
<polygon points="339.5,218.3 345.5,218.3 345.5,224.3 339.5,224.3" fill="rgb(255,96,96)"/>
<polygon points="345.5,218.3 351.5,218.3 351.5,224.3 345.5,224.3" fill="rgb(114,114,255)"/>
<polygon points="153.5,224.3 161.5,224.3 161.5,230.3 153.5,230.3" fill="rgb(178,217,213)"/><text xml:space="preserve" x="157.5" y="230.133" font-family="Calibri" font-size="7.5" fill="rgb(0,0,0)" text-anchor="middle">4</text>
<polygon points="161.5,224.3 169.5,224.3 169.5,230.3 161.5,230.3" fill="rgb(224,197,142)"/><text xml:space="preserve" x="165.5" y="230.133" font-family="Calibri" font-size="7.5" fill="rgb(0,0,0)" text-anchor="middle">12</text>
<polygon points="169.5,224.3 177.5,224.3 177.5,230.3 169.5,230.3" fill="rgb(134,198,192)"/><text xml:space="preserve" x="173.5" y="230.133" font-family="Calibri" font-size="7.5" fill="rgb(0,0,0)" text-anchor="middle">2</text>
<polygon points="187.5,224.3 193.5,224.3 193.5,230.3 187.5,230.3" fill="rgb(194,194,255)"/>
<polygon points="193.5,224.3 199.5,224.3 199.5,230.3 193.5,230.3" fill="rgb(208,208,255)"/>
<polygon points="199.5,224.3 205.5,224.3 205.5,230.3 199.5,230.3" fill="rgb(232,232,255)"/>
<polygon points="205.5,224.3 211.5,224.3 211.5,230.3 205.5,230.3" fill="rgb(221,221,255)"/>
<polygon points="211.5,224.3 217.5,224.3 217.5,230.3 211.5,230.3" fill="rgb(187,187,255)"/>
<polygon points="217.5,224.3 223.5,224.3 223.5,230.3 217.5,230.3" fill="rgb(210,210,255)"/>
<polygon points="223.5,224.3 229.5,224.3 229.5,230.3 223.5,230.3" fill="rgb(255,253,253)"/>
<polygon points="229.5,224.3 235.5,224.3 235.5,230.3 229.5,230.3" fill="rgb(255,167,167)"/>
<polygon points="245.5,224.3 251.5,224.3 251.5,230.3 245.5,230.3" fill="rgb(173,173,255)"/>
<polygon points="251.5,224.3 257.5,224.3 257.5,230.3 251.5,230.3" fill="rgb(202,202,255)"/>
<polygon points="257.5,224.3 263.5,224.3 263.5,230.3 257.5,230.3" fill="rgb(192,192,255)"/>
<polygon points="263.5,224.3 269.5,224.3 269.5,230.3 263.5,230.3" fill="rgb(160,160,255)"/>
<polygon points="269.5,224.3 275.5,224.3 275.5,230.3 269.5,230.3" fill="rgb(182,182,255)"/>
<polygon points="275.5,224.3 281.5,224.3 281.5,230.3 275.5,230.3" fill="rgb(255,164,164)"/>
<polygon points="281.5,224.3 287.5,224.3 287.5,230.3 281.5,230.3" fill="rgb(255,201,201)"/>
<polygon points="287.5,224.3 293.5,224.3 293.5,230.3 287.5,230.3" fill="rgb(255,136,136)"/>
<polygon points="303.5,224.3 309.5,224.3 309.5,230.3 303.5,230.3" fill="rgb(230,230,255)"/>
<polygon points="309.5,224.3 315.5,224.3 315.5,230.3 309.5,230.3" fill="rgb(182,182,255)"/>
<polygon points="315.5,224.3 321.5,224.3 321.5,230.3 315.5,230.3" fill="rgb(255,200,200)"/>
<polygon points="321.5,224.3 327.5,224.3 327.5,230.3 321.5,230.3" fill="rgb(255,206,206)"/>
<polygon points="327.5,224.3 333.5,224.3 333.5,230.3 327.5,230.3" fill="rgb(220,220,255)"/>
<polygon points="333.5,224.3 339.5,224.3 339.5,230.3 333.5,230.3" fill="rgb(255,170,170)"/>
<polygon points="339.5,224.3 345.5,224.3 345.5,230.3 339.5,230.3" fill="rgb(255,234,234)"/>
<polygon points="345.5,224.3 351.5,224.3 351.5,230.3 345.5,230.3" fill="rgb(255,188,188)"/>
<polygon points="153.5,230.3 161.5,230.3 161.5,236.3 153.5,236.3" fill="rgb(178,217,213)"/><text xml:space="preserve" x="157.5" y="236.133" font-family="Calibri" font-size="7.5" fill="rgb(0,0,0)" text-anchor="middle">4</text>
<polygon points="161.5,230.3 169.5,230.3 169.5,236.3 161.5,236.3" fill="rgb(224,197,142)"/><text xml:space="preserve" x="165.5" y="236.133" font-family="Calibri" font-size="7.5" fill="rgb(0,0,0)" text-anchor="middle">12</text>
<polygon points="169.5,230.3 177.5,230.3 177.5,236.3 169.5,236.3" fill="rgb(134,198,192)"/><text xml:space="preserve" x="173.5" y="236.133" font-family="Calibri" font-size="7.5" fill="rgb(0,0,0)" text-anchor="middle">2</text>
<polygon points="187.5,230.3 193.5,230.3 193.5,236.3 187.5,236.3" fill="rgb(233,233,255)"/>
<polygon points="193.5,230.3 199.5,230.3 199.5,236.3 193.5,236.3" fill="rgb(188,188,255)"/>
<polygon points="199.5,230.3 205.5,230.3 205.5,236.3 199.5,236.3" fill="rgb(170,170,255)"/>
<polygon points="205.5,230.3 211.5,230.3 211.5,236.3 205.5,236.3" fill="rgb(195,195,255)"/>
<polygon points="211.5,230.3 217.5,230.3 217.5,236.3 211.5,236.3" fill="rgb(184,184,255)"/>
<polygon points="217.5,230.3 223.5,230.3 223.5,236.3 217.5,236.3" fill="rgb(255,221,221)"/>
<polygon points="223.5,230.3 229.5,230.3 229.5,236.3 223.5,236.3" fill="rgb(231,231,255)"/>
<polygon points="229.5,230.3 235.5,230.3 235.5,236.3 229.5,236.3" fill="rgb(210,210,255)"/>
<polygon points="245.5,230.3 251.5,230.3 251.5,236.3 245.5,236.3" fill="rgb(212,212,255)"/>
<polygon points="251.5,230.3 257.5,230.3 257.5,236.3 251.5,236.3" fill="rgb(183,183,255)"/>
<polygon points="257.5,230.3 263.5,230.3 263.5,236.3 257.5,236.3" fill="rgb(172,172,255)"/>
<polygon points="263.5,230.3 269.5,230.3 269.5,236.3 263.5,236.3" fill="rgb(195,195,255)"/>
<polygon points="269.5,230.3 275.5,230.3 275.5,236.3 269.5,236.3" fill="rgb(176,176,255)"/>
<polygon points="275.5,230.3 281.5,230.3 281.5,236.3 275.5,236.3" fill="rgb(255,127,127)"/>
<polygon points="281.5,230.3 287.5,230.3 287.5,236.3 281.5,236.3" fill="rgb(255,242,242)"/>
<polygon points="287.5,230.3 293.5,230.3 293.5,236.3 287.5,236.3" fill="rgb(221,221,255)"/>
<polygon points="303.5,230.3 309.5,230.3 309.5,236.3 303.5,236.3" fill="rgb(255,192,192)"/>
<polygon points="309.5,230.3 315.5,230.3 315.5,236.3 309.5,236.3" fill="rgb(243,243,255)"/>
<polygon points="315.5,230.3 321.5,230.3 321.5,236.3 315.5,236.3" fill="rgb(255,213,213)"/>
<polygon points="321.5,230.3 327.5,230.3 327.5,236.3 321.5,236.3" fill="rgb(255,138,138)"/>
<polygon points="327.5,230.3 333.5,230.3 333.5,236.3 327.5,236.3" fill="rgb(255,218,218)"/>
<polygon points="333.5,230.3 339.5,230.3 339.5,236.3 333.5,236.3" fill="rgb(255,203,203)"/>
<polygon points="339.5,230.3 345.5,230.3 345.5,236.3 339.5,236.3" fill="rgb(230,230,255)"/>
<polygon points="345.5,230.3 351.5,230.3 351.5,236.3 345.5,236.3" fill="rgb(167,167,255)"/>
<polygon points="153.5,236.3 161.5,236.3 161.5,242.3 153.5,242.3" fill="rgb(178,217,213)"/><text xml:space="preserve" x="157.5" y="242.133" font-family="Calibri" font-size="7.5" fill="rgb(0,0,0)" text-anchor="middle">4</text>
<polygon points="161.5,236.3 169.5,236.3 169.5,242.3 161.5,242.3" fill="rgb(224,197,142)"/><text xml:space="preserve" x="165.5" y="242.133" font-family="Calibri" font-size="7.5" fill="rgb(0,0,0)" text-anchor="middle">12</text>
<polygon points="169.5,236.3 177.5,236.3 177.5,242.3 169.5,242.3" fill="rgb(134,198,192)"/><text xml:space="preserve" x="173.5" y="242.133" font-family="Calibri" font-size="7.5" fill="rgb(0,0,0)" text-anchor="middle">2</text>
<polygon points="187.5,236.3 193.5,236.3 193.5,242.3 187.5,242.3" fill="rgb(211,211,255)"/>
<polygon points="193.5,236.3 199.5,236.3 199.5,242.3 193.5,242.3" fill="rgb(179,179,255)"/>
<polygon points="199.5,236.3 205.5,236.3 205.5,242.3 199.5,242.3" fill="rgb(255,235,235)"/>
<polygon points="205.5,236.3 211.5,236.3 211.5,242.3 205.5,242.3" fill="rgb(223,223,255)"/>
<polygon points="211.5,236.3 217.5,236.3 217.5,242.3 211.5,242.3" fill="rgb(198,198,255)"/>
<polygon points="217.5,236.3 223.5,236.3 223.5,242.3 217.5,242.3" fill="rgb(255,223,223)"/>
<polygon points="223.5,236.3 229.5,236.3 229.5,242.3 223.5,242.3" fill="rgb(246,246,255)"/>
<polygon points="229.5,236.3 235.5,236.3 235.5,242.3 229.5,242.3" fill="rgb(254,166,166)"/>
<polygon points="245.5,236.3 251.5,236.3 251.5,242.3 245.5,242.3" fill="rgb(184,184,255)"/>
<polygon points="251.5,236.3 257.5,236.3 257.5,242.3 251.5,242.3" fill="rgb(173,173,255)"/>
<polygon points="257.5,236.3 263.5,236.3 263.5,242.3 257.5,242.3" fill="rgb(162,162,255)"/>
<polygon points="263.5,236.3 269.5,236.3 269.5,242.3 263.5,242.3" fill="rgb(140,140,255)"/>
<polygon points="269.5,236.3 275.5,236.3 275.5,242.3 269.5,242.3" fill="rgb(179,179,255)"/>
<polygon points="275.5,236.3 281.5,236.3 281.5,242.3 275.5,242.3" fill="rgb(255,158,158)"/>
<polygon points="281.5,236.3 287.5,236.3 287.5,242.3 281.5,242.3" fill="rgb(255,208,208)"/>
<polygon points="287.5,236.3 293.5,236.3 293.5,242.3 287.5,242.3" fill="rgb(255,195,195)"/>
<polygon points="303.5,236.3 309.5,236.3 309.5,242.3 303.5,242.3" fill="rgb(250,250,255)"/>
<polygon points="309.5,236.3 315.5,236.3 315.5,242.3 309.5,242.3" fill="rgb(184,184,255)"/>
<polygon points="315.5,236.3 321.5,236.3 321.5,242.3 315.5,242.3" fill="rgb(255,140,140)"/>
<polygon points="321.5,236.3 327.5,236.3 327.5,242.3 321.5,242.3" fill="rgb(255,149,149)"/>
<polygon points="327.5,236.3 333.5,236.3 333.5,242.3 327.5,242.3" fill="rgb(217,217,255)"/>
<polygon points="333.5,236.3 339.5,236.3 339.5,242.3 333.5,242.3" fill="rgb(255,149,149)"/>
<polygon points="339.5,236.3 345.5,236.3 345.5,242.3 339.5,242.3" fill="rgb(255,199,199)"/>
<polygon points="345.5,236.3 351.5,236.3 351.5,242.3 345.5,242.3" fill="rgb(255,180,180)"/>
<polygon points="153.5,242.3 161.5,242.3 161.5,248.3 153.5,248.3" fill="rgb(178,217,213)"/><text xml:space="preserve" x="157.5" y="248.133" font-family="Calibri" font-size="7.5" fill="rgb(0,0,0)" text-anchor="middle">4</text>
<polygon points="161.5,242.3 169.5,242.3 169.5,248.3 161.5,248.3" fill="rgb(224,197,142)"/><text xml:space="preserve" x="165.5" y="248.133" font-family="Calibri" font-size="7.5" fill="rgb(0,0,0)" text-anchor="middle">12</text>
<polygon points="169.5,242.3 177.5,242.3 177.5,248.3 169.5,248.3" fill="rgb(134,198,192)"/><text xml:space="preserve" x="173.5" y="248.133" font-family="Calibri" font-size="7.5" fill="rgb(0,0,0)" text-anchor="middle">2</text>
<polygon points="187.5,242.3 193.5,242.3 193.5,248.3 187.5,248.3" fill="rgb(150,150,255)"/>
<polygon points="193.5,242.3 199.5,242.3 199.5,248.3 193.5,248.3" fill="rgb(186,186,255)"/>
<polygon points="199.5,242.3 205.5,242.3 205.5,248.3 199.5,248.3" fill="rgb(221,221,255)"/>
<polygon points="205.5,242.3 211.5,242.3 211.5,248.3 205.5,248.3" fill="rgb(216,216,255)"/>
<polygon points="211.5,242.3 217.5,242.3 217.5,248.3 211.5,248.3" fill="rgb(222,222,255)"/>
<polygon points="217.5,242.3 223.5,242.3 223.5,248.3 217.5,248.3" fill="rgb(254,204,204)"/>
<polygon points="223.5,242.3 229.5,242.3 229.5,248.3 223.5,248.3" fill="rgb(174,174,255)"/>
<polygon points="229.5,242.3 235.5,242.3 235.5,248.3 229.5,248.3" fill="rgb(200,200,255)"/>
<polygon points="245.5,242.3 251.5,242.3 251.5,248.3 245.5,248.3" fill="rgb(207,207,255)"/>
<polygon points="251.5,242.3 257.5,242.3 257.5,248.3 251.5,248.3" fill="rgb(162,162,255)"/>
<polygon points="257.5,242.3 263.5,242.3 263.5,248.3 257.5,248.3" fill="rgb(207,207,255)"/>
<polygon points="263.5,242.3 269.5,242.3 269.5,248.3 263.5,248.3" fill="rgb(135,135,255)"/>
<polygon points="269.5,242.3 275.5,242.3 275.5,248.3 269.5,248.3" fill="rgb(173,173,255)"/>
<polygon points="275.5,242.3 281.5,242.3 281.5,248.3 275.5,248.3" fill="rgb(255,123,123)"/>
<polygon points="281.5,242.3 287.5,242.3 287.5,248.3 281.5,248.3" fill="rgb(254,241,241)"/>
<polygon points="287.5,242.3 293.5,242.3 293.5,248.3 287.5,248.3" fill="rgb(255,220,220)"/>
<polygon points="303.5,242.3 309.5,242.3 309.5,248.3 303.5,248.3" fill="rgb(167,167,255)"/>
<polygon points="309.5,242.3 315.5,242.3 315.5,248.3 309.5,248.3" fill="rgb(172,172,255)"/>
<polygon points="315.5,242.3 321.5,242.3 321.5,248.3 315.5,248.3" fill="rgb(255,244,244)"/>
<polygon points="321.5,242.3 327.5,242.3 327.5,248.3 321.5,248.3" fill="rgb(255,226,226)"/>
<polygon points="327.5,242.3 333.5,242.3 333.5,248.3 327.5,248.3" fill="rgb(255,200,200)"/>
<polygon points="333.5,242.3 339.5,242.3 339.5,248.3 333.5,248.3" fill="rgb(255,114,114)"/>
<polygon points="339.5,242.3 345.5,242.3 345.5,248.3 339.5,248.3" fill="rgb(255,228,228)"/>
<polygon points="345.5,242.3 351.5,242.3 351.5,248.3 345.5,248.3" fill="rgb(218,218,255)"/>
<polygon points="153.5,248.3 161.5,248.3 161.5,254.3 153.5,254.3" fill="rgb(178,217,213)"/><text xml:space="preserve" x="157.5" y="254.133" font-family="Calibri" font-size="7.5" fill="rgb(0,0,0)" text-anchor="middle">4</text>
<polygon points="161.5,248.3 169.5,248.3 169.5,254.3 161.5,254.3" fill="rgb(224,197,142)"/><text xml:space="preserve" x="165.5" y="254.133" font-family="Calibri" font-size="7.5" fill="rgb(0,0,0)" text-anchor="middle">12</text>
<polygon points="169.5,248.3 177.5,248.3 177.5,254.3 169.5,254.3" fill="rgb(134,198,192)"/><text xml:space="preserve" x="173.5" y="254.133" font-family="Calibri" font-size="7.5" fill="rgb(0,0,0)" text-anchor="middle">2</text>
<polygon points="187.5,248.3 193.5,248.3 193.5,254.3 187.5,254.3" fill="rgb(172,172,255)"/>
<polygon points="193.5,248.3 199.5,248.3 199.5,254.3 193.5,254.3" fill="rgb(193,193,255)"/>
<polygon points="199.5,248.3 205.5,248.3 205.5,254.3 199.5,254.3" fill="rgb(250,250,255)"/>
<polygon points="205.5,248.3 211.5,248.3 211.5,254.3 205.5,254.3" fill="rgb(219,219,255)"/>
<polygon points="211.5,248.3 217.5,248.3 217.5,254.3 211.5,254.3" fill="rgb(242,242,255)"/>
<polygon points="217.5,248.3 223.5,248.3 223.5,254.3 217.5,254.3" fill="rgb(255,73,73)"/>
<polygon points="223.5,248.3 229.5,248.3 229.5,254.3 223.5,254.3" fill="rgb(201,201,255)"/>
<polygon points="229.5,248.3 235.5,248.3 235.5,254.3 229.5,254.3" fill="rgb(199,199,255)"/>
<polygon points="245.5,248.3 251.5,248.3 251.5,254.3 245.5,254.3" fill="rgb(195,195,255)"/>
<polygon points="251.5,248.3 257.5,248.3 257.5,254.3 251.5,254.3" fill="rgb(204,204,255)"/>
<polygon points="257.5,248.3 263.5,248.3 263.5,254.3 257.5,254.3" fill="rgb(212,212,255)"/>
<polygon points="263.5,248.3 269.5,248.3 269.5,254.3 263.5,254.3" fill="rgb(162,162,255)"/>
<polygon points="269.5,248.3 275.5,248.3 275.5,254.3 269.5,254.3" fill="rgb(177,177,255)"/>
<polygon points="275.5,248.3 281.5,248.3 281.5,254.3 275.5,254.3" fill="rgb(255,147,147)"/>
<polygon points="281.5,248.3 287.5,248.3 287.5,254.3 281.5,254.3" fill="rgb(255,134,134)"/>
<polygon points="287.5,248.3 293.5,248.3 293.5,254.3 287.5,254.3" fill="rgb(255,214,214)"/>
<polygon points="303.5,248.3 309.5,248.3 309.5,254.3 303.5,254.3" fill="rgb(173,173,255)"/>
<polygon points="309.5,248.3 315.5,248.3 315.5,254.3 309.5,254.3" fill="rgb(245,245,255)"/>
<polygon points="315.5,248.3 321.5,248.3 321.5,254.3 315.5,254.3" fill="rgb(233,233,255)"/>
<polygon points="321.5,248.3 327.5,248.3 327.5,254.3 321.5,254.3" fill="rgb(192,192,255)"/>
<polygon points="327.5,248.3 333.5,248.3 333.5,254.3 327.5,254.3" fill="rgb(254,227,227)"/>
<polygon points="333.5,248.3 339.5,248.3 339.5,254.3 333.5,254.3" fill="rgb(255,184,184)"/>
<polygon points="339.5,248.3 345.5,248.3 345.5,254.3 339.5,254.3" fill="rgb(255,231,231)"/>
<polygon points="345.5,248.3 351.5,248.3 351.5,254.3 345.5,254.3" fill="rgb(255,168,168)"/>
<polygon points="153.5,254.3 161.5,254.3 161.5,260.3 153.5,260.3" fill="rgb(178,217,213)"/><text xml:space="preserve" x="157.5" y="260.133" font-family="Calibri" font-size="7.5" fill="rgb(0,0,0)" text-anchor="middle">4</text>
<polygon points="161.5,254.3 169.5,254.3 169.5,260.3 161.5,260.3" fill="rgb(224,197,142)"/><text xml:space="preserve" x="165.5" y="260.133" font-family="Calibri" font-size="7.5" fill="rgb(0,0,0)" text-anchor="middle">12</text>
<polygon points="169.5,254.3 177.5,254.3 177.5,260.3 169.5,260.3" fill="rgb(134,198,192)"/><text xml:space="preserve" x="173.5" y="260.133" font-family="Calibri" font-size="7.5" fill="rgb(0,0,0)" text-anchor="middle">2</text>
<polygon points="187.5,254.3 193.5,254.3 193.5,260.3 187.5,260.3" fill="rgb(153,153,255)"/>
<polygon points="193.5,254.3 199.5,254.3 199.5,260.3 193.5,260.3" fill="rgb(210,210,255)"/>
<polygon points="199.5,254.3 205.5,254.3 205.5,260.3 199.5,260.3" fill="rgb(254,246,246)"/>
<polygon points="205.5,254.3 211.5,254.3 211.5,260.3 205.5,260.3" fill="rgb(224,224,255)"/>
<polygon points="211.5,254.3 217.5,254.3 217.5,260.3 211.5,260.3" fill="rgb(244,244,255)"/>
<polygon points="217.5,254.3 223.5,254.3 223.5,260.3 217.5,260.3" fill="rgb(255,200,200)"/>
<polygon points="223.5,254.3 229.5,254.3 229.5,260.3 223.5,260.3" fill="rgb(239,239,255)"/>
<polygon points="229.5,254.3 235.5,254.3 235.5,260.3 229.5,260.3" fill="rgb(169,169,255)"/>
<polygon points="245.5,254.3 251.5,254.3 251.5,260.3 245.5,260.3" fill="rgb(192,192,255)"/>
<polygon points="251.5,254.3 257.5,254.3 257.5,260.3 251.5,260.3" fill="rgb(158,158,255)"/>
<polygon points="257.5,254.3 263.5,254.3 263.5,260.3 257.5,260.3" fill="rgb(254,235,235)"/>
<polygon points="263.5,254.3 269.5,254.3 269.5,260.3 263.5,260.3" fill="rgb(117,117,255)"/>
<polygon points="269.5,254.3 275.5,254.3 275.5,260.3 269.5,260.3" fill="rgb(151,151,255)"/>
<polygon points="275.5,254.3 281.5,254.3 281.5,260.3 275.5,260.3" fill="rgb(255,202,202)"/>
<polygon points="281.5,254.3 287.5,254.3 287.5,260.3 281.5,260.3" fill="rgb(255,249,249)"/>
<polygon points="287.5,254.3 293.5,254.3 293.5,260.3 287.5,260.3" fill="rgb(255,179,179)"/>
<polygon points="303.5,254.3 309.5,254.3 309.5,260.3 303.5,260.3" fill="rgb(150,150,255)"/>
<polygon points="309.5,254.3 315.5,254.3 315.5,260.3 309.5,260.3" fill="rgb(216,216,255)"/>
<polygon points="315.5,254.3 321.5,254.3 321.5,260.3 315.5,260.3" fill="rgb(255,253,253)"/>
<polygon points="321.5,254.3 327.5,254.3 327.5,260.3 321.5,260.3" fill="rgb(199,199,255)"/>
<polygon points="327.5,254.3 333.5,254.3 333.5,260.3 327.5,260.3" fill="rgb(255,241,241)"/>
<polygon points="333.5,254.3 339.5,254.3 339.5,260.3 333.5,260.3" fill="rgb(255,187,187)"/>
<polygon points="339.5,254.3 345.5,254.3 345.5,260.3 339.5,260.3" fill="rgb(255,212,212)"/>
<polygon points="345.5,254.3 351.5,254.3 351.5,260.3 345.5,260.3" fill="rgb(230,230,255)"/>
<polygon points="153.5,260.3 161.5,260.3 161.5,266.3 153.5,266.3" fill="rgb(178,217,213)"/><text xml:space="preserve" x="157.5" y="266.133" font-family="Calibri" font-size="7.5" fill="rgb(0,0,0)" text-anchor="middle">4</text>
<polygon points="161.5,260.3 169.5,260.3 169.5,266.3 161.5,266.3" fill="rgb(224,197,142)"/><text xml:space="preserve" x="165.5" y="266.133" font-family="Calibri" font-size="7.5" fill="rgb(0,0,0)" text-anchor="middle">12</text>
<polygon points="169.5,260.3 177.5,260.3 177.5,266.3 169.5,266.3" fill="rgb(134,198,192)"/><text xml:space="preserve" x="173.5" y="266.133" font-family="Calibri" font-size="7.5" fill="rgb(0,0,0)" text-anchor="middle">2</text>
<polygon points="187.5,260.3 193.5,260.3 193.5,266.3 187.5,266.3" fill="rgb(150,150,255)"/>
<polygon points="193.5,260.3 199.5,260.3 199.5,266.3 193.5,266.3" fill="rgb(212,212,255)"/>
<polygon points="199.5,260.3 205.5,260.3 205.5,266.3 199.5,266.3" fill="rgb(254,249,249)"/>
<polygon points="205.5,260.3 211.5,260.3 211.5,266.3 205.5,266.3" fill="rgb(221,221,255)"/>
<polygon points="211.5,260.3 217.5,260.3 217.5,266.3 211.5,266.3" fill="rgb(238,238,255)"/>
<polygon points="217.5,260.3 223.5,260.3 223.5,266.3 217.5,266.3" fill="rgb(255,205,205)"/>
<polygon points="223.5,260.3 229.5,260.3 229.5,266.3 223.5,266.3" fill="rgb(243,243,255)"/>
<polygon points="229.5,260.3 235.5,260.3 235.5,266.3 229.5,266.3" fill="rgb(170,170,255)"/>
<polygon points="245.5,260.3 251.5,260.3 251.5,266.3 245.5,266.3" fill="rgb(197,197,255)"/>
<polygon points="251.5,260.3 257.5,260.3 257.5,266.3 251.5,266.3" fill="rgb(158,158,255)"/>
<polygon points="257.5,260.3 263.5,260.3 263.5,266.3 257.5,266.3" fill="rgb(255,239,239)"/>
<polygon points="263.5,260.3 269.5,260.3 269.5,266.3 263.5,266.3" fill="rgb(120,120,255)"/>
<polygon points="269.5,260.3 275.5,260.3 275.5,266.3 269.5,266.3" fill="rgb(154,154,255)"/>
<polygon points="275.5,260.3 281.5,260.3 281.5,266.3 275.5,266.3" fill="rgb(255,212,212)"/>
<polygon points="281.5,260.3 287.5,260.3 287.5,266.3 281.5,266.3" fill="rgb(254,254,255)"/>
<polygon points="287.5,260.3 293.5,260.3 293.5,266.3 287.5,266.3" fill="rgb(255,190,190)"/>
<polygon points="303.5,260.3 309.5,260.3 309.5,266.3 303.5,266.3" fill="rgb(141,141,255)"/>
<polygon points="309.5,260.3 315.5,260.3 315.5,266.3 309.5,266.3" fill="rgb(223,223,255)"/>
<polygon points="315.5,260.3 321.5,260.3 321.5,266.3 315.5,266.3" fill="rgb(255,254,254)"/>
<polygon points="321.5,260.3 327.5,260.3 327.5,266.3 321.5,266.3" fill="rgb(196,196,255)"/>
<polygon points="327.5,260.3 333.5,260.3 333.5,266.3 327.5,266.3" fill="rgb(255,244,244)"/>
<polygon points="333.5,260.3 339.5,260.3 339.5,266.3 333.5,266.3" fill="rgb(255,194,194)"/>
<polygon points="339.5,260.3 345.5,260.3 345.5,266.3 339.5,266.3" fill="rgb(255,221,221)"/>
<polygon points="345.5,260.3 351.5,260.3 351.5,266.3 345.5,266.3" fill="rgb(223,223,255)"/>
<polygon points="153.5,266.3 161.5,266.3 161.5,272.3 153.5,272.3" fill="rgb(178,217,213)"/><text xml:space="preserve" x="157.5" y="272.133" font-family="Calibri" font-size="7.5" fill="rgb(0,0,0)" text-anchor="middle">4</text>
<polygon points="161.5,266.3 169.5,266.3 169.5,272.3 161.5,272.3" fill="rgb(224,197,142)"/><text xml:space="preserve" x="165.5" y="272.133" font-family="Calibri" font-size="7.5" fill="rgb(0,0,0)" text-anchor="middle">12</text>
<polygon points="169.5,266.3 177.5,266.3 177.5,272.3 169.5,272.3" fill="rgb(134,198,192)"/><text xml:space="preserve" x="173.5" y="272.133" font-family="Calibri" font-size="7.5" fill="rgb(0,0,0)" text-anchor="middle">2</text>
<polygon points="187.5,266.3 193.5,266.3 193.5,272.3 187.5,272.3" fill="rgb(166,166,255)"/>
<polygon points="193.5,266.3 199.5,266.3 199.5,272.3 193.5,272.3" fill="rgb(163,163,255)"/>
<polygon points="199.5,266.3 205.5,266.3 205.5,272.3 199.5,272.3" fill="rgb(255,240,240)"/>
<polygon points="205.5,266.3 211.5,266.3 211.5,272.3 205.5,272.3" fill="rgb(234,234,255)"/>
<polygon points="211.5,266.3 217.5,266.3 217.5,272.3 211.5,272.3" fill="rgb(250,250,255)"/>
<polygon points="217.5,266.3 223.5,266.3 223.5,272.3 217.5,272.3" fill="rgb(255,235,235)"/>
<polygon points="223.5,266.3 229.5,266.3 229.5,272.3 223.5,272.3" fill="rgb(254,211,211)"/>
<polygon points="229.5,266.3 235.5,266.3 235.5,272.3 229.5,272.3" fill="rgb(217,217,255)"/>
<polygon points="245.5,266.3 251.5,266.3 251.5,272.3 245.5,272.3" fill="rgb(165,165,255)"/>
<polygon points="251.5,266.3 257.5,266.3 257.5,272.3 251.5,272.3" fill="rgb(143,143,255)"/>
<polygon points="257.5,266.3 263.5,266.3 263.5,272.3 257.5,272.3" fill="rgb(255,245,245)"/>
<polygon points="263.5,266.3 269.5,266.3 269.5,272.3 263.5,272.3" fill="rgb(165,165,255)"/>
<polygon points="269.5,266.3 275.5,266.3 275.5,272.3 269.5,272.3" fill="rgb(156,156,255)"/>
<polygon points="275.5,266.3 281.5,266.3 281.5,272.3 275.5,272.3" fill="rgb(224,224,255)"/>
<polygon points="281.5,266.3 287.5,266.3 287.5,272.3 281.5,272.3" fill="rgb(218,218,255)"/>
<polygon points="287.5,266.3 293.5,266.3 293.5,272.3 287.5,272.3" fill="rgb(255,231,231)"/>
<polygon points="303.5,266.3 309.5,266.3 309.5,272.3 303.5,272.3" fill="rgb(152,152,255)"/>
<polygon points="309.5,266.3 315.5,266.3 315.5,272.3 309.5,272.3" fill="rgb(169,169,255)"/>
<polygon points="315.5,266.3 321.5,266.3 321.5,272.3 315.5,272.3" fill="rgb(255,249,249)"/>
<polygon points="321.5,266.3 327.5,266.3 327.5,272.3 321.5,272.3" fill="rgb(222,222,255)"/>
<polygon points="327.5,266.3 333.5,266.3 333.5,272.3 327.5,272.3" fill="rgb(255,226,226)"/>
<polygon points="333.5,266.3 339.5,266.3 339.5,272.3 333.5,272.3" fill="rgb(229,229,255)"/>
<polygon points="339.5,266.3 345.5,266.3 345.5,272.3 339.5,272.3" fill="rgb(205,205,255)"/>
<polygon points="345.5,266.3 351.5,266.3 351.5,272.3 345.5,272.3" fill="rgb(255,222,222)"/>
<polygon points="153.5,272.3 161.5,272.3 161.5,278.3 153.5,278.3" fill="rgb(178,217,213)"/><text xml:space="preserve" x="157.5" y="278.133" font-family="Calibri" font-size="7.5" fill="rgb(0,0,0)" text-anchor="middle">4</text>
<polygon points="161.5,272.3 169.5,272.3 169.5,278.3 161.5,278.3" fill="rgb(224,197,142)"/><text xml:space="preserve" x="165.5" y="278.133" font-family="Calibri" font-size="7.5" fill="rgb(0,0,0)" text-anchor="middle">12</text>
<polygon points="169.5,272.3 177.5,272.3 177.5,278.3 169.5,278.3" fill="rgb(134,198,192)"/><text xml:space="preserve" x="173.5" y="278.133" font-family="Calibri" font-size="7.5" fill="rgb(0,0,0)" text-anchor="middle">2</text>
<polygon points="187.5,272.3 193.5,272.3 193.5,278.3 187.5,278.3" fill="rgb(142,142,255)"/>
<polygon points="193.5,272.3 199.5,272.3 199.5,278.3 193.5,278.3" fill="rgb(189,189,255)"/>
<polygon points="199.5,272.3 205.5,272.3 205.5,278.3 199.5,278.3" fill="rgb(212,212,255)"/>
<polygon points="205.5,272.3 211.5,272.3 211.5,278.3 205.5,278.3" fill="rgb(200,200,255)"/>
<polygon points="211.5,272.3 217.5,272.3 217.5,278.3 211.5,278.3" fill="rgb(216,216,255)"/>
<polygon points="217.5,272.3 223.5,272.3 223.5,278.3 217.5,278.3" fill="rgb(255,218,218)"/>
<polygon points="223.5,272.3 229.5,272.3 229.5,278.3 223.5,278.3" fill="rgb(180,180,255)"/>
<polygon points="229.5,272.3 235.5,272.3 235.5,278.3 229.5,278.3" fill="rgb(200,200,255)"/>
<polygon points="245.5,272.3 251.5,272.3 251.5,278.3 245.5,278.3" fill="rgb(197,197,255)"/>
<polygon points="251.5,272.3 257.5,272.3 257.5,278.3 251.5,278.3" fill="rgb(158,158,255)"/>
<polygon points="257.5,272.3 263.5,272.3 263.5,278.3 257.5,278.3" fill="rgb(170,170,255)"/>
<polygon points="263.5,272.3 269.5,272.3 269.5,278.3 263.5,278.3" fill="rgb(124,124,255)"/>
<polygon points="269.5,272.3 275.5,272.3 275.5,278.3 269.5,278.3" fill="rgb(173,173,255)"/>
<polygon points="275.5,272.3 281.5,272.3 281.5,278.3 275.5,278.3" fill="rgb(255,121,121)"/>
<polygon points="281.5,272.3 287.5,272.3 287.5,278.3 281.5,278.3" fill="rgb(255,240,240)"/>
<polygon points="287.5,272.3 293.5,272.3 293.5,278.3 287.5,278.3" fill="rgb(255,212,212)"/>
<polygon points="303.5,272.3 309.5,272.3 309.5,278.3 303.5,278.3" fill="rgb(165,165,255)"/>
<polygon points="309.5,272.3 315.5,272.3 315.5,278.3 309.5,278.3" fill="rgb(161,161,255)"/>
<polygon points="315.5,272.3 321.5,272.3 321.5,278.3 315.5,278.3" fill="rgb(255,243,243)"/>
<polygon points="321.5,272.3 327.5,272.3 327.5,278.3 321.5,278.3" fill="rgb(255,233,233)"/>
<polygon points="327.5,272.3 333.5,272.3 333.5,278.3 327.5,278.3" fill="rgb(255,197,197)"/>
<polygon points="333.5,272.3 339.5,272.3 339.5,278.3 333.5,278.3" fill="rgb(255,106,106)"/>
<polygon points="339.5,272.3 345.5,272.3 345.5,278.3 339.5,278.3" fill="rgb(255,232,232)"/>
<polygon points="345.5,272.3 351.5,272.3 351.5,278.3 345.5,278.3" fill="rgb(219,219,255)"/>
<polygon points="153.5,212.3 177.5,212.3 177.5,278.3 153.5,278.3" fill="none" stroke="black" stroke-width="1"/>
<polygon points="187.5,212.3 235.5,212.3 235.5,278.3 187.5,278.3" fill="none" stroke="black" stroke-width="1"/>
<polygon points="245.5,212.3 293.5,212.3 293.5,278.3 245.5,278.3" fill="none" stroke="black" stroke-width="1"/>
<polygon points="303.5,212.3 351.5,212.3 351.5,278.3 303.5,278.3" fill="none" stroke="black" stroke-width="1"/>
<text xml:space="preserve" x="196.75" y="310.633" font-family="Calibri" font-size="6" text-anchor="middle">moduleID</text>
<polygon points="86.75,318.3 106.75,318.3 106.75,338.3 86.75,338.3" fill="rgb(250,250,250)"/><polygon points="86.75,318.3 106.75,318.3 106.75,338.3 86.75,338.3" fill="none" stroke="black" stroke-width="1"/><text xml:space="preserve" x="96.75" y="331.133" font-family="Calibri" font-size="7.5" fill="rgb(0,0,0)" text-anchor="middle">-2.0</text>
<polygon points="106.75,318.3 126.75,318.3 126.75,338.3 106.75,338.3" fill="rgb(156,210,205)"/><polygon points="106.75,318.3 126.75,318.3 126.75,338.3 106.75,338.3" fill="none" stroke="black" stroke-width="1"/><text xml:space="preserve" x="116.75" y="331.133" font-family="Calibri" font-size="7.5" fill="rgb(0,0,0)" text-anchor="middle">-0.4</text>
<polygon points="126.75,318.3 146.75,318.3 146.75,338.3 126.75,338.3" fill="rgb(116,191,184)"/><polygon points="126.75,318.3 146.75,318.3 146.75,338.3 126.75,338.3" fill="none" stroke="black" stroke-width="1"/><text xml:space="preserve" x="136.75" y="331.133" font-family="Calibri" font-size="7.5" fill="rgb(0,0,0)" text-anchor="middle">1.2</text>
<polygon points="146.75,318.3 166.75,318.3 166.75,338.3 146.75,338.3" fill="rgb(152,206,201)"/><polygon points="146.75,318.3 166.75,318.3 166.75,338.3 146.75,338.3" fill="none" stroke="black" stroke-width="1"/><text xml:space="preserve" x="156.75" y="331.133" font-family="Calibri" font-size="7.5" fill="rgb(0,0,0)" text-anchor="middle">2.8</text>
<polygon points="166.75,318.3 186.75,318.3 186.75,338.3 166.75,338.3" fill="rgb(187,220,217)"/><polygon points="166.75,318.3 186.75,318.3 186.75,338.3 166.75,338.3" fill="none" stroke="black" stroke-width="1"/><text xml:space="preserve" x="176.75" y="331.133" font-family="Calibri" font-size="7.5" fill="rgb(0,0,0)" text-anchor="middle">4.4</text>
<polygon points="186.75,318.3 206.75,318.3 206.75,338.3 186.75,338.3" fill="rgb(222,235,234)"/><polygon points="186.75,318.3 206.75,318.3 206.75,338.3 186.75,338.3" fill="none" stroke="black" stroke-width="1"/><text xml:space="preserve" x="196.75" y="331.133" font-family="Calibri" font-size="7.5" fill="rgb(0,0,0)" text-anchor="middle">6.0</text>
<polygon points="206.75,318.3 226.75,318.3 226.75,338.3 206.75,338.3" fill="rgb(242,239,232)"/><polygon points="206.75,318.3 226.75,318.3 226.75,338.3 206.75,338.3" fill="none" stroke="black" stroke-width="1"/><text xml:space="preserve" x="216.75" y="331.133" font-family="Calibri" font-size="7.5" fill="rgb(0,0,0)" text-anchor="middle">7.6</text>
<polygon points="226.75,318.3 246.75,318.3 246.75,338.3 226.75,338.3" fill="rgb(235,224,199)"/><polygon points="226.75,318.3 246.75,318.3 246.75,338.3 226.75,338.3" fill="none" stroke="black" stroke-width="1"/><text xml:space="preserve" x="236.75" y="331.133" font-family="Calibri" font-size="7.5" fill="rgb(0,0,0)" text-anchor="middle">9.2</text>
<polygon points="246.75,318.3 266.75,318.3 266.75,338.3 246.75,338.3" fill="rgb(229,209,166)"/><polygon points="246.75,318.3 266.75,318.3 266.75,338.3 246.75,338.3" fill="none" stroke="black" stroke-width="1"/><text xml:space="preserve" x="256.75" y="331.133" font-family="Calibri" font-size="7.5" fill="rgb(0,0,0)" text-anchor="middle">10.8</text>
<polygon points="266.75,318.3 286.75,318.3 286.75,338.3 266.75,338.3" fill="rgb(222,194,133)"/><polygon points="266.75,318.3 286.75,318.3 286.75,338.3 266.75,338.3" fill="none" stroke="black" stroke-width="1"/><text xml:space="preserve" x="276.75" y="331.133" font-family="Calibri" font-size="7.5" fill="rgb(0,0,0)" text-anchor="middle">12.4</text>
<polygon points="286.75,318.3 306.75,318.3 306.75,338.3 286.75,338.3" fill="rgb(216,179,101)"/><polygon points="286.75,318.3 306.75,318.3 306.75,338.3 286.75,338.3" fill="none" stroke="black" stroke-width="1"/><text xml:space="preserve" x="296.75" y="331.133" font-family="Calibri" font-size="7.5" fill="rgb(0,0,0)" text-anchor="middle">14.0</text>
<text xml:space="preserve" x="196.75" y="370.633" font-family="Calibri" font-size="6" text-anchor="middle">marklevel</text>
<polygon points="86.75,378.3 106.75,378.3 106.75,398.3 86.75,398.3" fill="rgb(0,0,255)"/><polygon points="86.75,378.3 106.75,378.3 106.75,398.3 86.75,398.3" fill="none" stroke="black" stroke-width="1"/><text xml:space="preserve" x="96.75" y="391.133" font-family="Calibri" font-size="7.5" fill="rgb(255,255,255)" text-anchor="middle">-2.0</text>
<polygon points="106.75,378.3 126.75,378.3 126.75,398.3 106.75,398.3" fill="rgb(50,50,255)"/><polygon points="106.75,378.3 126.75,378.3 126.75,398.3 106.75,398.3" fill="none" stroke="black" stroke-width="1"/><text xml:space="preserve" x="116.75" y="391.133" font-family="Calibri" font-size="7.5" fill="rgb(255,255,255)" text-anchor="middle">-1.6</text>
<polygon points="126.75,378.3 146.75,378.3 146.75,398.3 126.75,398.3" fill="rgb(102,102,255)"/><polygon points="126.75,378.3 146.75,378.3 146.75,398.3 126.75,398.3" fill="none" stroke="black" stroke-width="1"/><text xml:space="preserve" x="136.75" y="391.133" font-family="Calibri" font-size="7.5" fill="rgb(255,255,255)" text-anchor="middle">-1.2</text>
<polygon points="146.75,378.3 166.75,378.3 166.75,398.3 146.75,398.3" fill="rgb(153,153,255)"/><polygon points="146.75,378.3 166.75,378.3 166.75,398.3 146.75,398.3" fill="none" stroke="black" stroke-width="1"/><text xml:space="preserve" x="156.75" y="391.133" font-family="Calibri" font-size="7.5" fill="rgb(0,0,0)" text-anchor="middle">-0.8</text>
<polygon points="166.75,378.3 186.75,378.3 186.75,398.3 166.75,398.3" fill="rgb(204,204,255)"/><polygon points="166.75,378.3 186.75,378.3 186.75,398.3 166.75,398.3" fill="none" stroke="black" stroke-width="1"/><text xml:space="preserve" x="176.75" y="391.133" font-family="Calibri" font-size="7.5" fill="rgb(0,0,0)" text-anchor="middle">-0.4</text>
<polygon points="186.75,378.3 206.75,378.3 206.75,398.3 186.75,398.3" fill="rgb(255,255,255)"/><polygon points="186.75,378.3 206.75,378.3 206.75,398.3 186.75,398.3" fill="none" stroke="black" stroke-width="1"/><text xml:space="preserve" x="196.75" y="391.133" font-family="Calibri" font-size="7.5" fill="rgb(0,0,0)" text-anchor="middle">0.0</text>
<polygon points="206.75,378.3 226.75,378.3 226.75,398.3 206.75,398.3" fill="rgb(255,204,204)"/><polygon points="206.75,378.3 226.75,378.3 226.75,398.3 206.75,398.3" fill="none" stroke="black" stroke-width="1"/><text xml:space="preserve" x="216.75" y="391.133" font-family="Calibri" font-size="7.5" fill="rgb(0,0,0)" text-anchor="middle">0.4</text>
<polygon points="226.75,378.3 246.75,378.3 246.75,398.3 226.75,398.3" fill="rgb(255,153,153)"/><polygon points="226.75,378.3 246.75,378.3 246.75,398.3 226.75,398.3" fill="none" stroke="black" stroke-width="1"/><text xml:space="preserve" x="236.75" y="391.133" font-family="Calibri" font-size="7.5" fill="rgb(0,0,0)" text-anchor="middle">0.8</text>
<polygon points="246.75,378.3 266.75,378.3 266.75,398.3 246.75,398.3" fill="rgb(255,102,102)"/><polygon points="246.75,378.3 266.75,378.3 266.75,398.3 246.75,398.3" fill="none" stroke="black" stroke-width="1"/><text xml:space="preserve" x="256.75" y="391.133" font-family="Calibri" font-size="7.5" fill="rgb(0,0,0)" text-anchor="middle">1.2</text>
<polygon points="266.75,378.3 286.75,378.3 286.75,398.3 266.75,398.3" fill="rgb(255,50,50)"/><polygon points="266.75,378.3 286.75,378.3 286.75,398.3 266.75,398.3" fill="none" stroke="black" stroke-width="1"/><text xml:space="preserve" x="276.75" y="391.133" font-family="Calibri" font-size="7.5" fill="rgb(255,255,255)" text-anchor="middle">1.6</text>
<polygon points="286.75,378.3 306.75,378.3 306.75,398.3 286.75,398.3" fill="rgb(255,0,0)"/><polygon points="286.75,378.3 306.75,378.3 306.75,398.3 286.75,398.3" fill="none" stroke="black" stroke-width="1"/><text xml:space="preserve" x="296.75" y="391.133" font-family="Calibri" font-size="7.5" fill="rgb(255,255,255)" text-anchor="middle">2.0</text>
</svg>
