<?xml version="1.0" standalone="no"?><!DOCTYPE svg PUBLIC "-//W3C//DTD SVG 1.1//EN" "http://www.w3.org/Graphics/SVG/1.1/DTD/svg11.dtd">
<svg width="396.8" height="430.3" version="1.1" xmlns="http://www.w3.org/2000/svg">
<text xml:space="preserve" x="152.8" y="217.633" font-family="Calibri" font-size="6" text-anchor="end">Lrp10</text>
<text xml:space="preserve" x="152.8" y="223.633" font-family="Calibri" font-size="6" text-anchor="end">Cdkl2</text>
<text xml:space="preserve" x="152.8" y="229.633" font-family="Calibri" font-size="6" text-anchor="end">Mnd1</text>
<text xml:space="preserve" x="152.8" y="235.633" font-family="Calibri" font-size="6" text-anchor="end">Ctnnal1</text>
<text xml:space="preserve" x="152.8" y="241.633" font-family="Calibri" font-size="6" text-anchor="end">4430402I18Rik</text>
<text xml:space="preserve" x="152.8" y="247.633" font-family="Calibri" font-size="6" text-anchor="end">Nfkbiz</text>
<text xml:space="preserve" x="152.8" y="253.633" font-family="Calibri" font-size="6" text-anchor="end">D4Bwg0951e</text>
<text xml:space="preserve" x="152.8" y="259.633" font-family="Calibri" font-size="6" text-anchor="end">Pld1</text>
<text xml:space="preserve" x="152.8" y="265.633" font-family="Calibri" font-size="6" text-anchor="end">Asph</text>
<text xml:space="preserve" x="152.8" y="271.633" font-family="Calibri" font-size="6" text-anchor="end">Ripk2</text>
<text xml:space="preserve" x="152.8" y="277.633" font-family="Calibri" font-size="6" text-anchor="end">Rhobtb3</text>
<text xml:space="preserve" x="152.8" y="283.633" font-family="Calibri" font-size="6" text-anchor="end">2610203E10Rik</text>
<text xml:space="preserve" x="152.8" y="289.633" font-family="Calibri" font-size="6" text-anchor="end">Mnda</text>
<text xml:space="preserve" x="163.133" y="208.3" font-family="Calibri" font-size="6" transform="rotate(270 163.133 208.3)">ips</text>
<text xml:space="preserve" x="171.133" y="208.3" font-family="Calibri" font-size="6" transform="rotate(270 171.133 208.3)">pips</text>
<text xml:space="preserve" x="179.133" y="208.3" font-family="Calibri" font-size="6" transform="rotate(270 179.133 208.3)">mef</text>
<text xml:space="preserve" x="196.133" y="208.3" font-family="Calibri" font-size="6" transform="rotate(270 196.133 208.3)">ips_H3K4me3iPS</text>
<text xml:space="preserve" x="202.133" y="208.3" font-family="Calibri" font-size="6" transform="rotate(270 202.133 208.3)">ips_H3K9aciPS</text>
<text xml:space="preserve" x="208.133" y="208.3" font-family="Calibri" font-size="6" transform="rotate(270 208.133 208.3)">ips_H3K14aciPS</text>
<text xml:space="preserve" x="214.133" y="208.3" font-family="Calibri" font-size="6" transform="rotate(270 214.133 208.3)">ips_H3K18aciPS</text>
<text xml:space="preserve" x="220.133" y="208.3" font-family="Calibri" font-size="6" transform="rotate(270 220.133 208.3)">ips_H3K79me2iPS</text>
<text xml:space="preserve" x="226.133" y="208.3" font-family="Calibri" font-size="6" transform="rotate(270 226.133 208.3)">ips_H3K9me2iPS</text>
<text xml:space="preserve" x="232.133" y="208.3" font-family="Calibri" font-size="6" transform="rotate(270 232.133 208.3)">ips_H3K9me3iPS</text>
<text xml:space="preserve" x="238.133" y="208.3" font-family="Calibri" font-size="6" transform="rotate(270 238.133 208.3)">ips_H3K27me3iPS</text>
<text xml:space="preserve" x="254.133" y="208.3" font-family="Calibri" font-size="6" transform="rotate(270 254.133 208.3)">pips_H3K4me3pips</text>
<text xml:space="preserve" x="260.133" y="208.3" font-family="Calibri" font-size="6" transform="rotate(270 260.133 208.3)">pips_H3K9acpips</text>
<text xml:space="preserve" x="266.133" y="208.3" font-family="Calibri" font-size="6" transform="rotate(270 266.133 208.3)">pips_H3K14acpips</text>
<text xml:space="preserve" x="272.133" y="208.3" font-family="Calibri" font-size="6" transform="rotate(270 272.133 208.3)">pips_H3K18acpips</text>
<text xml:space="preserve" x="278.133" y="208.3" font-family="Calibri" font-size="6" transform="rotate(270 278.133 208.3)">pips_H3K79me2pips</text>
<text xml:space="preserve" x="284.133" y="208.3" font-family="Calibri" font-size="6" transform="rotate(270 284.133 208.3)">pips_H3K9me2pips</text>
<text xml:space="preserve" x="290.133" y="208.3" font-family="Calibri" font-size="6" transform="rotate(270 290.133 208.3)">pips_H3K9me3pips</text>
<text xml:space="preserve" x="296.133" y="208.3" font-family="Calibri" font-size="6" transform="rotate(270 296.133 208.3)">pips_H3K27me3pips</text>
<text xml:space="preserve" x="312.133" y="208.3" font-family="Calibri" font-size="6" transform="rotate(270 312.133 208.3)">mef_H3K4me3mef</text>
<text xml:space="preserve" x="318.133" y="208.3" font-family="Calibri" font-size="6" transform="rotate(270 318.133 208.3)">mef_H3K9acmef</text>
<text xml:space="preserve" x="324.133" y="208.3" font-family="Calibri" font-size="6" transform="rotate(270 324.133 208.3)">mef_H3K14acmef</text>
<text xml:space="preserve" x="330.133" y="208.3" font-family="Calibri" font-size="6" transform="rotate(270 330.133 208.3)">mef_H3K18acmef</text>
<text xml:space="preserve" x="336.133" y="208.3" font-family="Calibri" font-size="6" transform="rotate(270 336.133 208.3)">mef_H3K79me2mef</text>
<text xml:space="preserve" x="342.133" y="208.3" font-family="Calibri" font-size="6" transform="rotate(270 342.133 208.3)">mef_H3K9me2mef</text>
<text xml:space="preserve" x="348.133" y="208.3" font-family="Calibri" font-size="6" transform="rotate(270 348.133 208.3)">mef_H3K9me3mef</text>
<text xml:space="preserve" x="354.133" y="208.3" font-family="Calibri" font-size="6" transform="rotate(270 354.133 208.3)">mef_H3K27me3mef</text>
<polygon points="156.8,212.3 164.8,212.3 164.8,218.3 156.8,218.3" fill="rgb(240,235,224)"/><text xml:space="preserve" x="160.8" y="218.133" font-family="Calibri" font-size="7.5" fill="rgb(0,0,0)" text-anchor="middle">8</text>
<polygon points="164.8,212.3 172.8,212.3 172.8,218.3 164.8,218.3" fill="rgb(245,245,245)"/><text xml:space="preserve" x="168.8" y="218.133" font-family="Calibri" font-size="7.5" fill="rgb(0,0,0)" text-anchor="middle">7</text>
<polygon points="172.8,212.3 180.8,212.3 180.8,218.3 172.8,218.3" fill="rgb(216,179,101)"/><text xml:space="preserve" x="176.8" y="218.133" font-family="Calibri" font-size="7.5" fill="rgb(0,0,0)" text-anchor="middle">15</text>
<polygon points="190.8,212.3 196.8,212.3 196.8,218.3 190.8,218.3" fill="rgb(255,217,217)"/>
<polygon points="196.8,212.3 202.8,212.3 202.8,218.3 196.8,218.3" fill="rgb(254,252,252)"/>
<polygon points="202.8,212.3 208.8,212.3 208.8,218.3 202.8,218.3" fill="rgb(251,251,255)"/>
<polygon points="208.8,212.3 214.8,212.3 214.8,218.3 208.8,218.3" fill="rgb(255,254,254)"/>
<polygon points="214.8,212.3 220.8,212.3 220.8,218.3 214.8,218.3" fill="rgb(255,235,235)"/>
<polygon points="220.8,212.3 226.8,212.3 226.8,218.3 220.8,218.3" fill="rgb(231,231,255)"/>
<polygon points="226.8,212.3 232.8,212.3 232.8,218.3 226.8,218.3" fill="rgb(197,197,255)"/>
<polygon points="232.8,212.3 238.8,212.3 238.8,218.3 232.8,218.3" fill="rgb(156,156,255)"/>
<polygon points="248.8,212.3 254.8,212.3 254.8,218.3 248.8,218.3" fill="rgb(255,241,241)"/>
<polygon points="254.8,212.3 260.8,212.3 260.8,218.3 254.8,218.3" fill="rgb(255,231,231)"/>
<polygon points="260.8,212.3 266.8,212.3 266.8,218.3 260.8,218.3" fill="rgb(255,196,196)"/>
<polygon points="266.8,212.3 272.8,212.3 272.8,218.3 266.8,218.3" fill="rgb(255,168,168)"/>
<polygon points="272.8,212.3 278.8,212.3 278.8,218.3 272.8,218.3" fill="rgb(255,206,206)"/>
<polygon points="278.8,212.3 284.8,212.3 284.8,218.3 278.8,218.3" fill="rgb(255,234,234)"/>
<polygon points="284.8,212.3 290.8,212.3 290.8,218.3 284.8,218.3" fill="rgb(184,184,255)"/>
<polygon points="290.8,212.3 296.8,212.3 296.8,218.3 290.8,218.3" fill="rgb(162,162,255)"/>
<polygon points="306.8,212.3 312.8,212.3 312.8,218.3 306.8,218.3" fill="rgb(255,154,154)"/>
<polygon points="312.8,212.3 318.8,212.3 318.8,218.3 312.8,218.3" fill="rgb(255,241,241)"/>
<polygon points="318.8,212.3 324.8,212.3 324.8,218.3 318.8,218.3" fill="rgb(241,241,255)"/>
<polygon points="324.8,212.3 330.8,212.3 330.8,218.3 324.8,218.3" fill="rgb(254,189,189)"/>
<polygon points="330.8,212.3 336.8,212.3 336.8,218.3 330.8,218.3" fill="rgb(255,207,207)"/>
<polygon points="336.8,212.3 342.8,212.3 342.8,218.3 336.8,218.3" fill="rgb(228,228,255)"/>
<polygon points="342.8,212.3 348.8,212.3 348.8,218.3 342.8,218.3" fill="rgb(174,174,255)"/>
<polygon points="348.8,212.3 354.8,212.3 354.8,218.3 348.8,218.3" fill="rgb(230,230,255)"/>
<polygon points="156.8,218.3 164.8,218.3 164.8,224.3 156.8,224.3" fill="rgb(240,235,224)"/><text xml:space="preserve" x="160.8" y="224.133" font-family="Calibri" font-size="7.5" fill="rgb(0,0,0)" text-anchor="middle">8</text>
<polygon points="164.8,218.3 172.8,218.3 172.8,224.3 164.8,224.3" fill="rgb(245,245,245)"/><text xml:space="preserve" x="168.8" y="224.133" font-family="Calibri" font-size="7.5" fill="rgb(0,0,0)" text-anchor="middle">7</text>
<polygon points="172.8,218.3 180.8,218.3 180.8,224.3 172.8,224.3" fill="rgb(216,179,101)"/><text xml:space="preserve" x="176.8" y="224.133" font-family="Calibri" font-size="7.5" fill="rgb(0,0,0)" text-anchor="middle">14</text>
<polygon points="190.8,218.3 196.8,218.3 196.8,224.3 190.8,224.3" fill="rgb(255,244,244)"/>
<polygon points="196.8,218.3 202.8,218.3 202.8,224.3 196.8,224.3" fill="rgb(248,248,255)"/>
<polygon points="202.8,218.3 208.8,218.3 208.8,224.3 202.8,224.3" fill="rgb(172,172,255)"/>
<polygon points="208.8,218.3 214.8,218.3 214.8,224.3 208.8,224.3" fill="rgb(193,193,255)"/>
<polygon points="214.8,218.3 220.8,218.3 220.8,224.3 214.8,224.3" fill="rgb(255,251,251)"/>
<polygon points="220.8,218.3 226.8,218.3 226.8,224.3 220.8,224.3" fill="rgb(136,136,255)"/>
<polygon points="226.8,218.3 232.8,218.3 232.8,224.3 226.8,224.3" fill="rgb(230,230,255)"/>
<polygon points="232.8,218.3 238.8,218.3 238.8,224.3 232.8,224.3" fill="rgb(226,226,255)"/>
<polygon points="248.8,218.3 254.8,218.3 254.8,224.3 248.8,224.3" fill="rgb(255,225,225)"/>
<polygon points="254.8,218.3 260.8,218.3 260.8,224.3 254.8,224.3" fill="rgb(255,170,170)"/>
<polygon points="260.8,218.3 266.8,218.3 266.8,224.3 260.8,224.3" fill="rgb(250,250,255)"/>
<polygon points="266.8,218.3 272.8,218.3 272.8,224.3 266.8,224.3" fill="rgb(255,190,190)"/>
<polygon points="272.8,218.3 278.8,218.3 278.8,224.3 272.8,224.3" fill="rgb(255,161,161)"/>
<polygon points="278.8,218.3 284.8,218.3 284.8,224.3 278.8,224.3" fill="rgb(209,209,255)"/>
<polygon points="284.8,218.3 290.8,218.3 290.8,224.3 284.8,224.3" fill="rgb(212,212,255)"/>
<polygon points="290.8,218.3 296.8,218.3 296.8,224.3 290.8,224.3" fill="rgb(158,158,255)"/>
<polygon points="306.8,218.3 312.8,218.3 312.8,224.3 306.8,224.3" fill="rgb(255,224,224)"/>
<polygon points="312.8,218.3 318.8,218.3 318.8,224.3 312.8,224.3" fill="rgb(240,240,255)"/>
<polygon points="318.8,218.3 324.8,218.3 324.8,224.3 318.8,224.3" fill="rgb(171,171,255)"/>
<polygon points="324.8,218.3 330.8,218.3 330.8,224.3 324.8,224.3" fill="rgb(192,192,255)"/>
<polygon points="330.8,218.3 336.8,218.3 336.8,224.3 330.8,224.3" fill="rgb(238,238,255)"/>
<polygon points="336.8,218.3 342.8,218.3 342.8,224.3 336.8,224.3" fill="rgb(255,245,245)"/>
<polygon points="342.8,218.3 348.8,218.3 348.8,224.3 342.8,224.3" fill="rgb(228,228,255)"/>
<polygon points="348.8,218.3 354.8,218.3 354.8,224.3 348.8,224.3" fill="rgb(255,171,171)"/>
<polygon points="156.8,224.3 164.8,224.3 164.8,230.3 156.8,230.3" fill="rgb(240,235,224)"/><text xml:space="preserve" x="160.8" y="230.133" font-family="Calibri" font-size="7.5" fill="rgb(0,0,0)" text-anchor="middle">8</text>
<polygon points="164.8,224.3 172.8,224.3 172.8,230.3 164.8,230.3" fill="rgb(245,245,245)"/><text xml:space="preserve" x="168.8" y="230.133" font-family="Calibri" font-size="7.5" fill="rgb(0,0,0)" text-anchor="middle">7</text>
<polygon points="172.8,224.3 180.8,224.3 180.8,230.3 172.8,230.3" fill="rgb(216,179,101)"/><text xml:space="preserve" x="176.8" y="230.133" font-family="Calibri" font-size="7.5" fill="rgb(0,0,0)" text-anchor="middle">14</text>
<polygon points="190.8,224.3 196.8,224.3 196.8,230.3 190.8,230.3" fill="rgb(242,242,255)"/>
<polygon points="196.8,224.3 202.8,224.3 202.8,230.3 196.8,230.3" fill="rgb(248,248,255)"/>
<polygon points="202.8,224.3 208.8,224.3 208.8,230.3 202.8,230.3" fill="rgb(205,205,255)"/>
<polygon points="208.8,224.3 214.8,224.3 214.8,230.3 208.8,230.3" fill="rgb(255,222,222)"/>
<polygon points="214.8,224.3 220.8,224.3 220.8,230.3 214.8,230.3" fill="rgb(227,227,255)"/>
<polygon points="220.8,224.3 226.8,224.3 226.8,230.3 220.8,230.3" fill="rgb(254,254,255)"/>
<polygon points="226.8,224.3 232.8,224.3 232.8,230.3 226.8,230.3" fill="rgb(255,217,217)"/>
<polygon points="232.8,224.3 238.8,224.3 238.8,230.3 232.8,230.3" fill="rgb(195,195,255)"/>
<polygon points="248.8,224.3 254.8,224.3 254.8,230.3 248.8,230.3" fill="rgb(255,219,219)"/>
<polygon points="254.8,224.3 260.8,224.3 260.8,230.3 254.8,230.3" fill="rgb(255,226,226)"/>
<polygon points="260.8,224.3 266.8,224.3 266.8,230.3 260.8,230.3" fill="rgb(255,207,207)"/>
<polygon points="266.8,224.3 272.8,224.3 272.8,230.3 266.8,230.3" fill="rgb(255,151,151)"/>
<polygon points="272.8,224.3 278.8,224.3 278.8,230.3 272.8,230.3" fill="rgb(255,237,237)"/>
<polygon points="278.8,224.3 284.8,224.3 284.8,230.3 278.8,230.3" fill="rgb(255,217,217)"/>
<polygon points="284.8,224.3 290.8,224.3 290.8,230.3 284.8,230.3" fill="rgb(160,160,255)"/>
<polygon points="290.8,224.3 296.8,224.3 296.8,230.3 290.8,230.3" fill="rgb(177,177,255)"/>
<polygon points="306.8,224.3 312.8,224.3 312.8,230.3 306.8,230.3" fill="rgb(255,242,242)"/>
<polygon points="312.8,224.3 318.8,224.3 318.8,230.3 312.8,230.3" fill="rgb(244,244,255)"/>
<polygon points="318.8,224.3 324.8,224.3 324.8,230.3 318.8,230.3" fill="rgb(255,236,236)"/>
<polygon points="324.8,224.3 330.8,224.3 330.8,230.3 324.8,230.3" fill="rgb(255,231,231)"/>
<polygon points="330.8,224.3 336.8,224.3 336.8,230.3 330.8,230.3" fill="rgb(219,219,255)"/>
<polygon points="336.8,224.3 342.8,224.3 342.8,230.3 336.8,230.3" fill="rgb(217,217,255)"/>
<polygon points="342.8,224.3 348.8,224.3 348.8,230.3 342.8,230.3" fill="rgb(234,234,255)"/>
<polygon points="348.8,224.3 354.8,224.3 354.8,230.3 348.8,230.3" fill="rgb(215,215,255)"/>
<polygon points="156.8,230.3 164.8,230.3 164.8,236.3 156.8,236.3" fill="rgb(240,235,224)"/><text xml:space="preserve" x="160.8" y="236.133" font-family="Calibri" font-size="7.5" fill="rgb(0,0,0)" text-anchor="middle">8</text>
<polygon points="164.8,230.3 172.8,230.3 172.8,236.3 164.8,236.3" fill="rgb(245,245,245)"/><text xml:space="preserve" x="168.8" y="236.133" font-family="Calibri" font-size="7.5" fill="rgb(0,0,0)" text-anchor="middle">7</text>
<polygon points="172.8,230.3 180.8,230.3 180.8,236.3 172.8,236.3" fill="rgb(216,179,101)"/><text xml:space="preserve" x="176.8" y="236.133" font-family="Calibri" font-size="7.5" fill="rgb(0,0,0)" text-anchor="middle">14</text>
<polygon points="190.8,230.3 196.8,230.3 196.8,236.3 190.8,236.3" fill="rgb(255,222,222)"/>
<polygon points="196.8,230.3 202.8,230.3 202.8,236.3 196.8,236.3" fill="rgb(254,242,242)"/>
<polygon points="202.8,230.3 208.8,230.3 208.8,236.3 202.8,236.3" fill="rgb(254,238,238)"/>
<polygon points="208.8,230.3 214.8,230.3 214.8,236.3 208.8,236.3" fill="rgb(255,226,226)"/>
<polygon points="214.8,230.3 220.8,230.3 220.8,236.3 214.8,236.3" fill="rgb(254,242,242)"/>
<polygon points="220.8,230.3 226.8,230.3 226.8,236.3 220.8,236.3" fill="rgb(147,147,255)"/>
<polygon points="226.8,230.3 232.8,230.3 232.8,236.3 226.8,236.3" fill="rgb(169,169,255)"/>
<polygon points="232.8,230.3 238.8,230.3 238.8,236.3 232.8,236.3" fill="rgb(244,244,255)"/>
<polygon points="248.8,230.3 254.8,230.3 254.8,236.3 248.8,236.3" fill="rgb(255,233,233)"/>
<polygon points="254.8,230.3 260.8,230.3 260.8,236.3 254.8,236.3" fill="rgb(255,157,157)"/>
<polygon points="260.8,230.3 266.8,230.3 266.8,236.3 260.8,236.3" fill="rgb(255,187,187)"/>
<polygon points="266.8,230.3 272.8,230.3 272.8,236.3 266.8,236.3" fill="rgb(255,85,85)"/>
<polygon points="272.8,230.3 278.8,230.3 278.8,236.3 272.8,236.3" fill="rgb(255,183,183)"/>
<polygon points="278.8,230.3 284.8,230.3 284.8,236.3 278.8,236.3" fill="rgb(233,233,255)"/>
<polygon points="284.8,230.3 290.8,230.3 290.8,236.3 284.8,236.3" fill="rgb(245,245,255)"/>
<polygon points="290.8,230.3 296.8,230.3 296.8,236.3 290.8,236.3" fill="rgb(178,178,255)"/>
<polygon points="306.8,230.3 312.8,230.3 312.8,236.3 306.8,236.3" fill="rgb(255,215,215)"/>
<polygon points="312.8,230.3 318.8,230.3 318.8,236.3 312.8,236.3" fill="rgb(231,231,255)"/>
<polygon points="318.8,230.3 324.8,230.3 324.8,236.3 318.8,236.3" fill="rgb(255,167,167)"/>
<polygon points="324.8,230.3 330.8,230.3 330.8,236.3 324.8,236.3" fill="rgb(255,218,218)"/>
<polygon points="330.8,230.3 336.8,230.3 336.8,236.3 330.8,236.3" fill="rgb(225,225,255)"/>
<polygon points="336.8,230.3 342.8,230.3 342.8,236.3 336.8,236.3" fill="rgb(247,247,255)"/>
<polygon points="342.8,230.3 348.8,230.3 348.8,236.3 342.8,236.3" fill="rgb(182,182,255)"/>
<polygon points="348.8,230.3 354.8,230.3 354.8,236.3 348.8,236.3" fill="rgb(251,251,255)"/>
<polygon points="156.8,236.3 164.8,236.3 164.8,242.3 156.8,242.3" fill="rgb(240,235,224)"/><text xml:space="preserve" x="160.8" y="242.133" font-family="Calibri" font-size="7.5" fill="rgb(0,0,0)" text-anchor="middle">8</text>
<polygon points="164.8,236.3 172.8,236.3 172.8,242.3 164.8,242.3" fill="rgb(245,245,245)"/><text xml:space="preserve" x="168.8" y="242.133" font-family="Calibri" font-size="7.5" fill="rgb(0,0,0)" text-anchor="middle">7</text>
<polygon points="172.8,236.3 180.8,236.3 180.8,242.3 172.8,242.3" fill="rgb(216,179,101)"/><text xml:space="preserve" x="176.8" y="242.133" font-family="Calibri" font-size="7.5" fill="rgb(0,0,0)" text-anchor="middle">14</text>
<polygon points="190.8,236.3 196.8,236.3 196.8,242.3 190.8,242.3" fill="rgb(255,230,230)"/>
<polygon points="196.8,236.3 202.8,236.3 202.8,242.3 196.8,242.3" fill="rgb(255,220,220)"/>
<polygon points="202.8,236.3 208.8,236.3 208.8,242.3 202.8,242.3" fill="rgb(214,214,255)"/>
<polygon points="208.8,236.3 214.8,236.3 214.8,242.3 208.8,242.3" fill="rgb(224,224,255)"/>
<polygon points="214.8,236.3 220.8,236.3 220.8,242.3 214.8,242.3" fill="rgb(253,253,255)"/>
<polygon points="220.8,236.3 226.8,236.3 226.8,242.3 220.8,242.3" fill="rgb(171,171,255)"/>
<polygon points="226.8,236.3 232.8,236.3 232.8,242.3 226.8,242.3" fill="rgb(255,245,245)"/>
<polygon points="232.8,236.3 238.8,236.3 238.8,242.3 232.8,242.3" fill="rgb(254,159,159)"/>
<polygon points="248.8,236.3 254.8,236.3 254.8,242.3 248.8,242.3" fill="rgb(255,179,179)"/>
<polygon points="254.8,236.3 260.8,236.3 260.8,242.3 254.8,242.3" fill="rgb(255,197,197)"/>
<polygon points="260.8,236.3 266.8,236.3 266.8,242.3 260.8,242.3" fill="rgb(255,179,179)"/>
<polygon points="266.8,236.3 272.8,236.3 272.8,242.3 266.8,242.3" fill="rgb(255,239,239)"/>
<polygon points="272.8,236.3 278.8,236.3 278.8,242.3 272.8,242.3" fill="rgb(255,252,252)"/>
<polygon points="278.8,236.3 284.8,236.3 284.8,242.3 278.8,242.3" fill="rgb(198,198,255)"/>
<polygon points="284.8,236.3 290.8,236.3 290.8,242.3 284.8,242.3" fill="rgb(221,221,255)"/>
<polygon points="290.8,236.3 296.8,236.3 296.8,242.3 290.8,242.3" fill="rgb(255,197,197)"/>
<polygon points="306.8,236.3 312.8,236.3 312.8,242.3 306.8,242.3" fill="rgb(255,202,202)"/>
<polygon points="312.8,236.3 318.8,236.3 318.8,242.3 312.8,242.3" fill="rgb(255,217,217)"/>
<polygon points="318.8,236.3 324.8,236.3 324.8,242.3 318.8,242.3" fill="rgb(232,232,255)"/>
<polygon points="324.8,236.3 330.8,236.3 330.8,242.3 324.8,242.3" fill="rgb(222,222,255)"/>
<polygon points="330.8,236.3 336.8,236.3 336.8,242.3 330.8,242.3" fill="rgb(246,246,255)"/>
<polygon points="336.8,236.3 342.8,236.3 342.8,242.3 336.8,242.3" fill="rgb(255,237,237)"/>
<polygon points="342.8,236.3 348.8,236.3 348.8,242.3 342.8,242.3" fill="rgb(246,246,255)"/>
<polygon points="348.8,236.3 354.8,236.3 354.8,242.3 348.8,242.3" fill="rgb(255,193,193)"/>
<polygon points="156.8,242.3 164.8,242.3 164.8,248.3 156.8,248.3" fill="rgb(240,235,224)"/><text xml:space="preserve" x="160.8" y="248.133" font-family="Calibri" font-size="7.5" fill="rgb(0,0,0)" text-anchor="middle">8</text>
<polygon points="164.8,242.3 172.8,242.3 172.8,248.3 164.8,248.3" fill="rgb(245,245,245)"/><text xml:space="preserve" x="168.8" y="248.133" font-family="Calibri" font-size="7.5" fill="rgb(0,0,0)" text-anchor="middle">7</text>
<polygon points="172.8,242.3 180.8,242.3 180.8,248.3 172.8,248.3" fill="rgb(220,188,121)"/><text xml:space="preserve" x="176.8" y="248.133" font-family="Calibri" font-size="7.5" fill="rgb(0,0,0)" text-anchor="middle">13</text>
<polygon points="190.8,242.3 196.8,242.3 196.8,248.3 190.8,248.3" fill="rgb(255,236,236)"/>
<polygon points="196.8,242.3 202.8,242.3 202.8,248.3 196.8,248.3" fill="rgb(236,236,255)"/>
<polygon points="202.8,242.3 208.8,242.3 208.8,248.3 202.8,248.3" fill="rgb(220,220,255)"/>
<polygon points="208.8,242.3 214.8,242.3 214.8,248.3 208.8,248.3" fill="rgb(208,208,255)"/>
<polygon points="214.8,242.3 220.8,242.3 220.8,248.3 214.8,248.3" fill="rgb(206,206,255)"/>
<polygon points="220.8,242.3 226.8,242.3 226.8,248.3 220.8,248.3" fill="rgb(231,231,255)"/>
<polygon points="226.8,242.3 232.8,242.3 232.8,248.3 226.8,248.3" fill="rgb(255,248,248)"/>
<polygon points="232.8,242.3 238.8,242.3 238.8,248.3 232.8,248.3" fill="rgb(254,215,215)"/>
<polygon points="248.8,242.3 254.8,242.3 254.8,248.3 248.8,248.3" fill="rgb(245,245,255)"/>
<polygon points="254.8,242.3 260.8,242.3 260.8,248.3 254.8,248.3" fill="rgb(255,235,235)"/>
<polygon points="260.8,242.3 266.8,242.3 266.8,248.3 260.8,248.3" fill="rgb(255,243,243)"/>
<polygon points="266.8,242.3 272.8,242.3 272.8,248.3 266.8,248.3" fill="rgb(255,168,168)"/>
<polygon points="272.8,242.3 278.8,242.3 278.8,248.3 272.8,248.3" fill="rgb(254,210,210)"/>
<polygon points="278.8,242.3 284.8,242.3 284.8,248.3 278.8,248.3" fill="rgb(255,249,249)"/>
<polygon points="284.8,242.3 290.8,242.3 290.8,248.3 284.8,248.3" fill="rgb(255,240,240)"/>
<polygon points="290.8,242.3 296.8,242.3 296.8,248.3 290.8,248.3" fill="rgb(135,135,255)"/>
<polygon points="306.8,242.3 312.8,242.3 312.8,248.3 306.8,248.3" fill="rgb(255,144,144)"/>
<polygon points="312.8,242.3 318.8,242.3 318.8,248.3 312.8,248.3" fill="rgb(255,224,224)"/>
<polygon points="318.8,242.3 324.8,242.3 324.8,248.3 318.8,248.3" fill="rgb(255,140,140)"/>
<polygon points="324.8,242.3 330.8,242.3 330.8,248.3 324.8,248.3" fill="rgb(255,82,82)"/>
<polygon points="330.8,242.3 336.8,242.3 336.8,248.3 330.8,248.3" fill="rgb(255,193,193)"/>
<polygon points="336.8,242.3 342.8,242.3 342.8,248.3 336.8,248.3" fill="rgb(241,241,255)"/>
<polygon points="342.8,242.3 348.8,242.3 348.8,248.3 342.8,248.3" fill="rgb(215,215,255)"/>
<polygon points="348.8,242.3 354.8,242.3 354.8,248.3 348.8,248.3" fill="rgb(182,182,255)"/>
<polygon points="156.8,248.3 164.8,248.3 164.8,254.3 156.8,254.3" fill="rgb(240,235,224)"/><text xml:space="preserve" x="160.8" y="254.133" font-family="Calibri" font-size="7.5" fill="rgb(0,0,0)" text-anchor="middle">8</text>
<polygon points="164.8,248.3 172.8,248.3 172.8,254.3 164.8,254.3" fill="rgb(245,245,245)"/><text xml:space="preserve" x="168.8" y="254.133" font-family="Calibri" font-size="7.5" fill="rgb(0,0,0)" text-anchor="middle">7</text>
<polygon points="172.8,248.3 180.8,248.3 180.8,254.3 172.8,254.3" fill="rgb(220,188,121)"/><text xml:space="preserve" x="176.8" y="254.133" font-family="Calibri" font-size="7.5" fill="rgb(0,0,0)" text-anchor="middle">13</text>
<polygon points="190.8,248.3 196.8,248.3 196.8,254.3 190.8,254.3" fill="rgb(254,201,201)"/>
<polygon points="196.8,248.3 202.8,248.3 202.8,254.3 196.8,254.3" fill="rgb(247,247,255)"/>
<polygon points="202.8,248.3 208.8,248.3 208.8,254.3 202.8,254.3" fill="rgb(253,253,255)"/>
<polygon points="208.8,248.3 214.8,248.3 214.8,254.3 208.8,254.3" fill="rgb(255,207,207)"/>
<polygon points="214.8,248.3 220.8,248.3 220.8,254.3 214.8,254.3" fill="rgb(250,250,255)"/>
<polygon points="220.8,248.3 226.8,248.3 226.8,254.3 220.8,254.3" fill="rgb(187,187,255)"/>
<polygon points="226.8,248.3 232.8,248.3 232.8,254.3 226.8,254.3" fill="rgb(208,208,255)"/>
<polygon points="232.8,248.3 238.8,248.3 238.8,254.3 232.8,254.3" fill="rgb(231,231,255)"/>
<polygon points="248.8,248.3 254.8,248.3 254.8,254.3 248.8,254.3" fill="rgb(255,181,181)"/>
<polygon points="254.8,248.3 260.8,248.3 260.8,254.3 254.8,254.3" fill="rgb(254,216,216)"/>
<polygon points="260.8,248.3 266.8,248.3 266.8,254.3 260.8,254.3" fill="rgb(252,252,255)"/>
<polygon points="266.8,248.3 272.8,248.3 272.8,254.3 266.8,254.3" fill="rgb(255,122,122)"/>
<polygon points="272.8,248.3 278.8,248.3 278.8,254.3 272.8,254.3" fill="rgb(255,247,247)"/>
<polygon points="278.8,248.3 284.8,248.3 284.8,254.3 278.8,254.3" fill="rgb(243,243,255)"/>
<polygon points="284.8,248.3 290.8,248.3 290.8,254.3 284.8,254.3" fill="rgb(220,220,255)"/>
<polygon points="290.8,248.3 296.8,248.3 296.8,254.3 290.8,254.3" fill="rgb(222,222,255)"/>
<polygon points="306.8,248.3 312.8,248.3 312.8,254.3 306.8,254.3" fill="rgb(255,122,122)"/>
<polygon points="312.8,248.3 318.8,248.3 318.8,254.3 312.8,254.3" fill="rgb(254,215,215)"/>
<polygon points="318.8,248.3 324.8,248.3 324.8,254.3 318.8,254.3" fill="rgb(255,153,153)"/>
<polygon points="324.8,248.3 330.8,248.3 330.8,254.3 324.8,254.3" fill="rgb(255,71,71)"/>
<polygon points="330.8,248.3 336.8,248.3 336.8,254.3 330.8,254.3" fill="rgb(255,199,199)"/>
<polygon points="336.8,248.3 342.8,248.3 342.8,254.3 336.8,254.3" fill="rgb(201,201,255)"/>
<polygon points="342.8,248.3 348.8,248.3 348.8,254.3 342.8,254.3" fill="rgb(234,234,255)"/>
<polygon points="348.8,248.3 354.8,248.3 354.8,254.3 348.8,254.3" fill="rgb(218,218,255)"/>
<polygon points="156.8,254.3 164.8,254.3 164.8,260.3 156.8,260.3" fill="rgb(240,235,224)"/><text xml:space="preserve" x="160.8" y="260.133" font-family="Calibri" font-size="7.5" fill="rgb(0,0,0)" text-anchor="middle">8</text>
<polygon points="164.8,254.3 172.8,254.3 172.8,260.3 164.8,260.3" fill="rgb(245,245,245)"/><text xml:space="preserve" x="168.8" y="260.133" font-family="Calibri" font-size="7.5" fill="rgb(0,0,0)" text-anchor="middle">7</text>
<polygon points="172.8,254.3 180.8,254.3 180.8,260.3 172.8,260.3" fill="rgb(220,188,121)"/><text xml:space="preserve" x="176.8" y="260.133" font-family="Calibri" font-size="7.5" fill="rgb(0,0,0)" text-anchor="middle">13</text>
<polygon points="190.8,254.3 196.8,254.3 196.8,260.3 190.8,260.3" fill="rgb(221,221,255)"/>
<polygon points="196.8,254.3 202.8,254.3 202.8,260.3 196.8,260.3" fill="rgb(223,223,255)"/>
<polygon points="202.8,254.3 208.8,254.3 208.8,260.3 202.8,260.3" fill="rgb(239,239,255)"/>
<polygon points="208.8,254.3 214.8,254.3 214.8,260.3 208.8,260.3" fill="rgb(185,185,255)"/>
<polygon points="214.8,254.3 220.8,254.3 220.8,260.3 214.8,260.3" fill="rgb(211,211,255)"/>
<polygon points="220.8,254.3 226.8,254.3 226.8,260.3 220.8,260.3" fill="rgb(198,198,255)"/>
<polygon points="226.8,254.3 232.8,254.3 232.8,260.3 226.8,260.3" fill="rgb(176,176,255)"/>
<polygon points="232.8,254.3 238.8,254.3 238.8,260.3 232.8,260.3" fill="rgb(195,195,255)"/>
<polygon points="248.8,254.3 254.8,254.3 254.8,260.3 248.8,260.3" fill="rgb(255,211,211)"/>
<polygon points="254.8,254.3 260.8,254.3 260.8,260.3 254.8,260.3" fill="rgb(255,163,163)"/>
<polygon points="260.8,254.3 266.8,254.3 266.8,260.3 260.8,260.3" fill="rgb(255,198,198)"/>
<polygon points="266.8,254.3 272.8,254.3 272.8,260.3 266.8,260.3" fill="rgb(255,160,160)"/>
<polygon points="272.8,254.3 278.8,254.3 278.8,260.3 272.8,260.3" fill="rgb(255,235,235)"/>
<polygon points="278.8,254.3 284.8,254.3 284.8,260.3 278.8,260.3" fill="rgb(223,223,255)"/>
<polygon points="284.8,254.3 290.8,254.3 290.8,260.3 284.8,260.3" fill="rgb(164,164,255)"/>
<polygon points="290.8,254.3 296.8,254.3 296.8,260.3 290.8,260.3" fill="rgb(249,249,255)"/>
<polygon points="306.8,254.3 312.8,254.3 312.8,260.3 306.8,260.3" fill="rgb(255,177,177)"/>
<polygon points="312.8,254.3 318.8,254.3 318.8,260.3 312.8,260.3" fill="rgb(255,163,163)"/>
<polygon points="318.8,254.3 324.8,254.3 324.8,260.3 318.8,260.3" fill="rgb(254,162,162)"/>
<polygon points="324.8,254.3 330.8,254.3 330.8,260.3 324.8,260.3" fill="rgb(255,93,93)"/>
<polygon points="330.8,254.3 336.8,254.3 336.8,260.3 330.8,260.3" fill="rgb(255,175,175)"/>
<polygon points="336.8,254.3 342.8,254.3 342.8,260.3 336.8,260.3" fill="rgb(163,163,255)"/>
<polygon points="342.8,254.3 348.8,254.3 348.8,260.3 342.8,260.3" fill="rgb(200,200,255)"/>
<polygon points="348.8,254.3 354.8,254.3 354.8,260.3 348.8,260.3" fill="rgb(161,161,255)"/>
<polygon points="156.8,260.3 164.8,260.3 164.8,266.3 156.8,266.3" fill="rgb(240,235,224)"/><text xml:space="preserve" x="160.8" y="266.133" font-family="Calibri" font-size="7.5" fill="rgb(0,0,0)" text-anchor="middle">8</text>
<polygon points="164.8,260.3 172.8,260.3 172.8,266.3 164.8,266.3" fill="rgb(245,245,245)"/><text xml:space="preserve" x="168.8" y="266.133" font-family="Calibri" font-size="7.5" fill="rgb(0,0,0)" text-anchor="middle">7</text>
<polygon points="172.8,260.3 180.8,260.3 180.8,266.3 172.8,266.3" fill="rgb(220,188,121)"/><text xml:space="preserve" x="176.8" y="266.133" font-family="Calibri" font-size="7.5" fill="rgb(0,0,0)" text-anchor="middle">13</text>
<polygon points="190.8,260.3 196.8,260.3 196.8,266.3 190.8,266.3" fill="rgb(251,251,255)"/>
<polygon points="196.8,260.3 202.8,260.3 202.8,266.3 196.8,266.3" fill="rgb(255,239,239)"/>
<polygon points="202.8,260.3 208.8,260.3 208.8,266.3 202.8,266.3" fill="rgb(254,235,235)"/>
<polygon points="208.8,260.3 214.8,260.3 214.8,266.3 208.8,266.3" fill="rgb(255,234,234)"/>
<polygon points="214.8,260.3 220.8,260.3 220.8,266.3 214.8,266.3" fill="rgb(255,205,205)"/>
<polygon points="220.8,260.3 226.8,260.3 226.8,266.3 220.8,266.3" fill="rgb(216,216,255)"/>
<polygon points="226.8,260.3 232.8,260.3 232.8,266.3 226.8,266.3" fill="rgb(246,246,255)"/>
<polygon points="232.8,260.3 238.8,260.3 238.8,266.3 232.8,266.3" fill="rgb(193,193,255)"/>
<polygon points="248.8,260.3 254.8,260.3 254.8,266.3 248.8,266.3" fill="rgb(250,250,255)"/>
<polygon points="254.8,260.3 260.8,260.3 260.8,266.3 254.8,266.3" fill="rgb(255,237,237)"/>
<polygon points="260.8,260.3 266.8,260.3 266.8,266.3 260.8,266.3" fill="rgb(255,190,190)"/>
<polygon points="266.8,260.3 272.8,260.3 272.8,266.3 266.8,266.3" fill="rgb(255,197,197)"/>
<polygon points="272.8,260.3 278.8,260.3 278.8,266.3 272.8,266.3" fill="rgb(255,202,202)"/>
<polygon points="278.8,260.3 284.8,260.3 284.8,266.3 278.8,266.3" fill="rgb(255,229,229)"/>
<polygon points="284.8,260.3 290.8,260.3 290.8,266.3 284.8,266.3" fill="rgb(225,225,255)"/>
<polygon points="290.8,260.3 296.8,260.3 296.8,266.3 290.8,266.3" fill="rgb(243,243,255)"/>
<polygon points="306.8,260.3 312.8,260.3 312.8,266.3 306.8,266.3" fill="rgb(255,213,213)"/>
<polygon points="312.8,260.3 318.8,260.3 318.8,266.3 312.8,266.3" fill="rgb(255,224,224)"/>
<polygon points="318.8,260.3 324.8,260.3 324.8,266.3 318.8,266.3" fill="rgb(255,143,143)"/>
<polygon points="324.8,260.3 330.8,260.3 330.8,266.3 324.8,266.3" fill="rgb(255,95,95)"/>
<polygon points="330.8,260.3 336.8,260.3 336.8,266.3 330.8,266.3" fill="rgb(255,88,88)"/>
<polygon points="336.8,260.3 342.8,260.3 342.8,266.3 336.8,266.3" fill="rgb(244,244,255)"/>
<polygon points="342.8,260.3 348.8,260.3 348.8,266.3 342.8,266.3" fill="rgb(215,215,255)"/>
<polygon points="348.8,260.3 354.8,260.3 354.8,266.3 348.8,266.3" fill="rgb(171,171,255)"/>
<polygon points="156.8,266.3 164.8,266.3 164.8,272.3 156.8,272.3" fill="rgb(240,235,224)"/><text xml:space="preserve" x="160.8" y="272.133" font-family="Calibri" font-size="7.5" fill="rgb(0,0,0)" text-anchor="middle">8</text>
<polygon points="164.8,266.3 172.8,266.3 172.8,272.3 164.8,272.3" fill="rgb(245,245,245)"/><text xml:space="preserve" x="168.8" y="272.133" font-family="Calibri" font-size="7.5" fill="rgb(0,0,0)" text-anchor="middle">7</text>
<polygon points="172.8,266.3 180.8,266.3 180.8,272.3 172.8,272.3" fill="rgb(220,188,121)"/><text xml:space="preserve" x="176.8" y="272.133" font-family="Calibri" font-size="7.5" fill="rgb(0,0,0)" text-anchor="middle">13</text>
<polygon points="190.8,266.3 196.8,266.3 196.8,272.3 190.8,272.3" fill="rgb(255,203,203)"/>
<polygon points="196.8,266.3 202.8,266.3 202.8,272.3 196.8,272.3" fill="rgb(253,253,255)"/>
<polygon points="202.8,266.3 208.8,266.3 208.8,272.3 202.8,272.3" fill="rgb(228,228,255)"/>
<polygon points="208.8,266.3 214.8,266.3 214.8,272.3 208.8,272.3" fill="rgb(237,237,255)"/>
<polygon points="214.8,266.3 220.8,266.3 220.8,272.3 214.8,272.3" fill="rgb(255,248,248)"/>
<polygon points="220.8,266.3 226.8,266.3 226.8,272.3 220.8,272.3" fill="rgb(178,178,255)"/>
<polygon points="226.8,266.3 232.8,266.3 232.8,272.3 226.8,272.3" fill="rgb(248,248,255)"/>
<polygon points="232.8,266.3 238.8,266.3 238.8,272.3 232.8,272.3" fill="rgb(255,191,191)"/>
<polygon points="248.8,266.3 254.8,266.3 254.8,272.3 248.8,272.3" fill="rgb(255,222,222)"/>
<polygon points="254.8,266.3 260.8,266.3 260.8,272.3 254.8,272.3" fill="rgb(255,198,198)"/>
<polygon points="260.8,266.3 266.8,266.3 266.8,272.3 260.8,272.3" fill="rgb(255,194,194)"/>
<polygon points="266.8,266.3 272.8,266.3 272.8,272.3 266.8,272.3" fill="rgb(255,180,180)"/>
<polygon points="272.8,266.3 278.8,266.3 278.8,272.3 272.8,272.3" fill="rgb(255,194,194)"/>
<polygon points="278.8,266.3 284.8,266.3 284.8,272.3 278.8,272.3" fill="rgb(255,236,236)"/>
<polygon points="284.8,266.3 290.8,266.3 290.8,272.3 284.8,272.3" fill="rgb(206,206,255)"/>
<polygon points="290.8,266.3 296.8,266.3 296.8,272.3 290.8,272.3" fill="rgb(215,215,255)"/>
<polygon points="306.8,266.3 312.8,266.3 312.8,272.3 306.8,272.3" fill="rgb(255,73,73)"/>
<polygon points="312.8,266.3 318.8,266.3 318.8,272.3 312.8,272.3" fill="rgb(255,208,208)"/>
<polygon points="318.8,266.3 324.8,266.3 324.8,272.3 318.8,272.3" fill="rgb(255,146,146)"/>
<polygon points="324.8,266.3 330.8,266.3 330.8,272.3 324.8,272.3" fill="rgb(255,124,124)"/>
<polygon points="330.8,266.3 336.8,266.3 336.8,272.3 330.8,272.3" fill="rgb(255,157,157)"/>
<polygon points="336.8,266.3 342.8,266.3 342.8,272.3 336.8,272.3" fill="rgb(255,226,226)"/>
<polygon points="342.8,266.3 348.8,266.3 348.8,272.3 342.8,272.3" fill="rgb(198,198,255)"/>
<polygon points="348.8,266.3 354.8,266.3 354.8,272.3 348.8,272.3" fill="rgb(178,178,255)"/>
<polygon points="156.8,272.3 164.8,272.3 164.8,278.3 156.8,278.3" fill="rgb(240,235,224)"/><text xml:space="preserve" x="160.8" y="278.133" font-family="Calibri" font-size="7.5" fill="rgb(0,0,0)" text-anchor="middle">8</text>
<polygon points="164.8,272.3 172.8,272.3 172.8,278.3 164.8,278.3" fill="rgb(245,245,245)"/><text xml:space="preserve" x="168.8" y="278.133" font-family="Calibri" font-size="7.5" fill="rgb(0,0,0)" text-anchor="middle">7</text>
<polygon points="172.8,272.3 180.8,272.3 180.8,278.3 172.8,278.3" fill="rgb(220,188,121)"/><text xml:space="preserve" x="176.8" y="278.133" font-family="Calibri" font-size="7.5" fill="rgb(0,0,0)" text-anchor="middle">13</text>
<polygon points="190.8,272.3 196.8,272.3 196.8,278.3 190.8,278.3" fill="rgb(255,246,246)"/>
<polygon points="196.8,272.3 202.8,272.3 202.8,278.3 196.8,278.3" fill="rgb(242,242,255)"/>
<polygon points="202.8,272.3 208.8,272.3 208.8,278.3 202.8,278.3" fill="rgb(182,182,255)"/>
<polygon points="208.8,272.3 214.8,272.3 214.8,278.3 208.8,278.3" fill="rgb(232,232,255)"/>
<polygon points="214.8,272.3 220.8,272.3 220.8,278.3 214.8,278.3" fill="rgb(253,253,255)"/>
<polygon points="220.8,272.3 226.8,272.3 226.8,278.3 220.8,278.3" fill="rgb(255,249,249)"/>
<polygon points="226.8,272.3 232.8,272.3 232.8,278.3 226.8,278.3" fill="rgb(218,218,255)"/>
<polygon points="232.8,272.3 238.8,272.3 238.8,278.3 232.8,278.3" fill="rgb(255,204,204)"/>
<polygon points="248.8,272.3 254.8,272.3 254.8,278.3 248.8,278.3" fill="rgb(255,229,229)"/>
<polygon points="254.8,272.3 260.8,272.3 260.8,278.3 254.8,278.3" fill="rgb(255,193,193)"/>
<polygon points="260.8,272.3 266.8,272.3 266.8,278.3 260.8,278.3" fill="rgb(255,194,194)"/>
<polygon points="266.8,272.3 272.8,272.3 272.8,278.3 266.8,278.3" fill="rgb(255,132,132)"/>
<polygon points="272.8,272.3 278.8,272.3 278.8,278.3 272.8,278.3" fill="rgb(255,209,209)"/>
<polygon points="278.8,272.3 284.8,272.3 284.8,278.3 278.8,278.3" fill="rgb(254,219,219)"/>
<polygon points="284.8,272.3 290.8,272.3 290.8,278.3 284.8,278.3" fill="rgb(173,173,255)"/>
<polygon points="290.8,272.3 296.8,272.3 296.8,278.3 290.8,278.3" fill="rgb(214,214,255)"/>
<polygon points="306.8,272.3 312.8,272.3 312.8,278.3 306.8,278.3" fill="rgb(255,144,144)"/>
<polygon points="312.8,272.3 318.8,272.3 318.8,278.3 312.8,278.3" fill="rgb(255,171,171)"/>
<polygon points="318.8,272.3 324.8,272.3 324.8,278.3 318.8,278.3" fill="rgb(255,71,71)"/>
<polygon points="324.8,272.3 330.8,272.3 330.8,278.3 324.8,278.3" fill="rgb(255,60,60)"/>
<polygon points="330.8,272.3 336.8,272.3 336.8,278.3 330.8,278.3" fill="rgb(255,166,166)"/>
<polygon points="336.8,272.3 342.8,272.3 342.8,278.3 336.8,278.3" fill="rgb(255,241,241)"/>
<polygon points="342.8,272.3 348.8,272.3 348.8,278.3 342.8,278.3" fill="rgb(254,248,248)"/>
<polygon points="348.8,272.3 354.8,272.3 354.8,278.3 348.8,278.3" fill="rgb(199,199,255)"/>
<polygon points="156.8,278.3 164.8,278.3 164.8,284.3 156.8,284.3" fill="rgb(240,235,224)"/><text xml:space="preserve" x="160.8" y="284.133" font-family="Calibri" font-size="7.5" fill="rgb(0,0,0)" text-anchor="middle">8</text>
<polygon points="164.8,278.3 172.8,278.3 172.8,284.3 164.8,284.3" fill="rgb(245,245,245)"/><text xml:space="preserve" x="168.8" y="284.133" font-family="Calibri" font-size="7.5" fill="rgb(0,0,0)" text-anchor="middle">7</text>
<polygon points="172.8,278.3 180.8,278.3 180.8,284.3 172.8,284.3" fill="rgb(220,188,121)"/><text xml:space="preserve" x="176.8" y="284.133" font-family="Calibri" font-size="7.5" fill="rgb(0,0,0)" text-anchor="middle">13</text>
<polygon points="190.8,278.3 196.8,278.3 196.8,284.3 190.8,284.3" fill="rgb(255,246,246)"/>
<polygon points="196.8,278.3 202.8,278.3 202.8,284.3 196.8,284.3" fill="rgb(255,239,239)"/>
<polygon points="202.8,278.3 208.8,278.3 208.8,284.3 202.8,284.3" fill="rgb(255,229,229)"/>
<polygon points="208.8,278.3 214.8,278.3 214.8,284.3 208.8,284.3" fill="rgb(255,216,216)"/>
<polygon points="214.8,278.3 220.8,278.3 220.8,284.3 214.8,284.3" fill="rgb(209,209,255)"/>
<polygon points="220.8,278.3 226.8,278.3 226.8,284.3 220.8,284.3" fill="rgb(170,170,255)"/>
<polygon points="226.8,278.3 232.8,278.3 232.8,284.3 226.8,284.3" fill="rgb(185,185,255)"/>
<polygon points="232.8,278.3 238.8,278.3 238.8,284.3 232.8,284.3" fill="rgb(217,217,255)"/>
<polygon points="248.8,278.3 254.8,278.3 254.8,284.3 248.8,284.3" fill="rgb(255,191,191)"/>
<polygon points="254.8,278.3 260.8,278.3 260.8,284.3 254.8,284.3" fill="rgb(255,213,213)"/>
<polygon points="260.8,278.3 266.8,278.3 266.8,284.3 260.8,284.3" fill="rgb(254,228,228)"/>
<polygon points="266.8,278.3 272.8,278.3 272.8,284.3 266.8,284.3" fill="rgb(255,240,240)"/>
<polygon points="272.8,278.3 278.8,278.3 278.8,284.3 272.8,284.3" fill="rgb(230,230,255)"/>
<polygon points="278.8,278.3 284.8,278.3 284.8,284.3 278.8,284.3" fill="rgb(192,192,255)"/>
<polygon points="284.8,278.3 290.8,278.3 290.8,284.3 284.8,284.3" fill="rgb(225,225,255)"/>
<polygon points="290.8,278.3 296.8,278.3 296.8,284.3 290.8,284.3" fill="rgb(255,239,239)"/>
<polygon points="306.8,278.3 312.8,278.3 312.8,284.3 306.8,284.3" fill="rgb(255,223,223)"/>
<polygon points="312.8,278.3 318.8,278.3 318.8,284.3 312.8,284.3" fill="rgb(255,194,194)"/>
<polygon points="318.8,278.3 324.8,278.3 324.8,284.3 318.8,284.3" fill="rgb(255,22,22)"/>
<polygon points="324.8,278.3 330.8,278.3 330.8,284.3 324.8,284.3" fill="rgb(255,251,251)"/>
<polygon points="330.8,278.3 336.8,278.3 336.8,284.3 330.8,284.3" fill="rgb(222,222,255)"/>
<polygon points="336.8,278.3 342.8,278.3 342.8,284.3 336.8,284.3" fill="rgb(231,231,255)"/>
<polygon points="342.8,278.3 348.8,278.3 348.8,284.3 342.8,284.3" fill="rgb(212,212,255)"/>
<polygon points="348.8,278.3 354.8,278.3 354.8,284.3 348.8,284.3" fill="rgb(255,219,219)"/>
<polygon points="156.8,284.3 164.8,284.3 164.8,290.3 156.8,290.3" fill="rgb(236,226,203)"/><text xml:space="preserve" x="160.8" y="290.133" font-family="Calibri" font-size="7.5" fill="rgb(0,0,0)" text-anchor="middle">9</text>
<polygon points="164.8,284.3 172.8,284.3 172.8,290.3 164.8,290.3" fill="rgb(245,245,245)"/><text xml:space="preserve" x="168.8" y="290.133" font-family="Calibri" font-size="7.5" fill="rgb(0,0,0)" text-anchor="middle">7</text>
<polygon points="172.8,284.3 180.8,284.3 180.8,290.3 172.8,290.3" fill="rgb(220,188,121)"/><text xml:space="preserve" x="176.8" y="290.133" font-family="Calibri" font-size="7.5" fill="rgb(0,0,0)" text-anchor="middle">13</text>
<polygon points="190.8,284.3 196.8,284.3 196.8,290.3 190.8,290.3" fill="rgb(223,223,255)"/>
<polygon points="196.8,284.3 202.8,284.3 202.8,290.3 196.8,290.3" fill="rgb(98,98,255)"/>
<polygon points="202.8,284.3 208.8,284.3 208.8,290.3 202.8,290.3" fill="rgb(101,101,255)"/>
<polygon points="208.8,284.3 214.8,284.3 214.8,290.3 208.8,290.3" fill="rgb(60,60,255)"/>
<polygon points="214.8,284.3 220.8,284.3 220.8,290.3 214.8,290.3" fill="rgb(171,171,255)"/>
<polygon points="220.8,284.3 226.8,284.3 226.8,290.3 220.8,290.3" fill="rgb(254,152,152)"/>
<polygon points="226.8,284.3 232.8,284.3 232.8,290.3 226.8,290.3" fill="rgb(207,207,255)"/>
<polygon points="232.8,284.3 238.8,284.3 238.8,290.3 232.8,290.3" fill="rgb(106,106,255)"/>
<polygon points="248.8,284.3 254.8,284.3 254.8,290.3 248.8,290.3" fill="rgb(245,245,255)"/>
<polygon points="254.8,284.3 260.8,284.3 260.8,290.3 254.8,290.3" fill="rgb(254,206,206)"/>
<polygon points="260.8,284.3 266.8,284.3 266.8,290.3 260.8,290.3" fill="rgb(255,187,187)"/>
<polygon points="266.8,284.3 272.8,284.3 272.8,290.3 266.8,290.3" fill="rgb(255,135,135)"/>
<polygon points="272.8,284.3 278.8,284.3 278.8,290.3 272.8,290.3" fill="rgb(254,201,201)"/>
<polygon points="278.8,284.3 284.8,284.3 284.8,290.3 278.8,290.3" fill="rgb(255,169,169)"/>
<polygon points="284.8,284.3 290.8,284.3 290.8,290.3 284.8,290.3" fill="rgb(255,233,233)"/>
<polygon points="290.8,284.3 296.8,284.3 296.8,290.3 290.8,290.3" fill="rgb(225,225,255)"/>
<polygon points="306.8,284.3 312.8,284.3 312.8,290.3 306.8,290.3" fill="rgb(254,227,227)"/>
<polygon points="312.8,284.3 318.8,284.3 318.8,290.3 312.8,290.3" fill="rgb(255,209,209)"/>
<polygon points="318.8,284.3 324.8,284.3 324.8,290.3 318.8,290.3" fill="rgb(255,93,93)"/>
<polygon points="324.8,284.3 330.8,284.3 330.8,290.3 324.8,290.3" fill="rgb(255,75,75)"/>
<polygon points="330.8,284.3 336.8,284.3 336.8,290.3 330.8,290.3" fill="rgb(255,168,168)"/>
<polygon points="336.8,284.3 342.8,284.3 342.8,290.3 336.8,290.3" fill="rgb(255,228,228)"/>
<polygon points="342.8,284.3 348.8,284.3 348.8,290.3 342.8,290.3" fill="rgb(255,232,232)"/>
<polygon points="348.8,284.3 354.8,284.3 354.8,290.3 348.8,290.3" fill="rgb(105,105,255)"/>
<polygon points="156.8,212.3 180.8,212.3 180.8,290.3 156.8,290.3" fill="none" stroke="black" stroke-width="1"/>
<polygon points="190.8,212.3 238.8,212.3 238.8,290.3 190.8,290.3" fill="none" stroke="black" stroke-width="1"/>
<polygon points="248.8,212.3 296.8,212.3 296.8,290.3 248.8,290.3" fill="none" stroke="black" stroke-width="1"/>
<polygon points="306.8,212.3 354.8,212.3 354.8,290.3 306.8,290.3" fill="none" stroke="black" stroke-width="1"/>
<text xml:space="preserve" x="198.4" y="322.633" font-family="Calibri" font-size="6" text-anchor="middle">moduleID</text>
<polygon points="88.4,330.3 108.4,330.3 108.4,350.3 88.4,350.3" fill="rgb(250,250,250)"/><polygon points="88.4,330.3 108.4,330.3 108.4,350.3 88.4,350.3" fill="none" stroke="black" stroke-width="1"/><text xml:space="preserve" x="98.4" y="343.133" font-family="Calibri" font-size="7.5" fill="rgb(0,0,0)" text-anchor="middle">-2.0</text>
<polygon points="108.4,330.3 128.4,330.3 128.4,350.3 108.4,350.3" fill="rgb(156,210,205)"/><polygon points="108.4,330.3 128.4,330.3 128.4,350.3 108.4,350.3" fill="none" stroke="black" stroke-width="1"/><text xml:space="preserve" x="118.4" y="343.133" font-family="Calibri" font-size="7.5" fill="rgb(0,0,0)" text-anchor="middle">-0.4</text>
<polygon points="128.4,330.3 148.4,330.3 148.4,350.3 128.4,350.3" fill="rgb(116,191,184)"/><polygon points="128.4,330.3 148.4,330.3 148.4,350.3 128.4,350.3" fill="none" stroke="black" stroke-width="1"/><text xml:space="preserve" x="138.4" y="343.133" font-family="Calibri" font-size="7.5" fill="rgb(0,0,0)" text-anchor="middle">1.2</text>
<polygon points="148.4,330.3 168.4,330.3 168.4,350.3 148.4,350.3" fill="rgb(152,206,201)"/><polygon points="148.4,330.3 168.4,330.3 168.4,350.3 148.4,350.3" fill="none" stroke="black" stroke-width="1"/><text xml:space="preserve" x="158.4" y="343.133" font-family="Calibri" font-size="7.5" fill="rgb(0,0,0)" text-anchor="middle">2.8</text>
<polygon points="168.4,330.3 188.4,330.3 188.4,350.3 168.4,350.3" fill="rgb(187,220,217)"/><polygon points="168.4,330.3 188.4,330.3 188.4,350.3 168.4,350.3" fill="none" stroke="black" stroke-width="1"/><text xml:space="preserve" x="178.4" y="343.133" font-family="Calibri" font-size="7.5" fill="rgb(0,0,0)" text-anchor="middle">4.4</text>
<polygon points="188.4,330.3 208.4,330.3 208.4,350.3 188.4,350.3" fill="rgb(222,235,234)"/><polygon points="188.4,330.3 208.4,330.3 208.4,350.3 188.4,350.3" fill="none" stroke="black" stroke-width="1"/><text xml:space="preserve" x="198.4" y="343.133" font-family="Calibri" font-size="7.5" fill="rgb(0,0,0)" text-anchor="middle">6.0</text>
<polygon points="208.4,330.3 228.4,330.3 228.4,350.3 208.4,350.3" fill="rgb(242,239,232)"/><polygon points="208.4,330.3 228.4,330.3 228.4,350.3 208.4,350.3" fill="none" stroke="black" stroke-width="1"/><text xml:space="preserve" x="218.4" y="343.133" font-family="Calibri" font-size="7.5" fill="rgb(0,0,0)" text-anchor="middle">7.6</text>
<polygon points="228.4,330.3 248.4,330.3 248.4,350.3 228.4,350.3" fill="rgb(235,224,199)"/><polygon points="228.4,330.3 248.4,330.3 248.4,350.3 228.4,350.3" fill="none" stroke="black" stroke-width="1"/><text xml:space="preserve" x="238.4" y="343.133" font-family="Calibri" font-size="7.5" fill="rgb(0,0,0)" text-anchor="middle">9.2</text>
<polygon points="248.4,330.3 268.4,330.3 268.4,350.3 248.4,350.3" fill="rgb(229,209,166)"/><polygon points="248.4,330.3 268.4,330.3 268.4,350.3 248.4,350.3" fill="none" stroke="black" stroke-width="1"/><text xml:space="preserve" x="258.4" y="343.133" font-family="Calibri" font-size="7.5" fill="rgb(0,0,0)" text-anchor="middle">10.8</text>
<polygon points="268.4,330.3 288.4,330.3 288.4,350.3 268.4,350.3" fill="rgb(222,194,133)"/><polygon points="268.4,330.3 288.4,330.3 288.4,350.3 268.4,350.3" fill="none" stroke="black" stroke-width="1"/><text xml:space="preserve" x="278.4" y="343.133" font-family="Calibri" font-size="7.5" fill="rgb(0,0,0)" text-anchor="middle">12.4</text>
<polygon points="288.4,330.3 308.4,330.3 308.4,350.3 288.4,350.3" fill="rgb(216,179,101)"/><polygon points="288.4,330.3 308.4,330.3 308.4,350.3 288.4,350.3" fill="none" stroke="black" stroke-width="1"/><text xml:space="preserve" x="298.4" y="343.133" font-family="Calibri" font-size="7.5" fill="rgb(0,0,0)" text-anchor="middle">14.0</text>
<text xml:space="preserve" x="198.4" y="382.633" font-family="Calibri" font-size="6" text-anchor="middle">marklevel</text>
<polygon points="88.4,390.3 108.4,390.3 108.4,410.3 88.4,410.3" fill="rgb(0,0,255)"/><polygon points="88.4,390.3 108.4,390.3 108.4,410.3 88.4,410.3" fill="none" stroke="black" stroke-width="1"/><text xml:space="preserve" x="98.4" y="403.133" font-family="Calibri" font-size="7.5" fill="rgb(255,255,255)" text-anchor="middle">-2.0</text>
<polygon points="108.4,390.3 128.4,390.3 128.4,410.3 108.4,410.3" fill="rgb(50,50,255)"/><polygon points="108.4,390.3 128.4,390.3 128.4,410.3 108.4,410.3" fill="none" stroke="black" stroke-width="1"/><text xml:space="preserve" x="118.4" y="403.133" font-family="Calibri" font-size="7.5" fill="rgb(255,255,255)" text-anchor="middle">-1.6</text>
<polygon points="128.4,390.3 148.4,390.3 148.4,410.3 128.4,410.3" fill="rgb(102,102,255)"/><polygon points="128.4,390.3 148.4,390.3 148.4,410.3 128.4,410.3" fill="none" stroke="black" stroke-width="1"/><text xml:space="preserve" x="138.4" y="403.133" font-family="Calibri" font-size="7.5" fill="rgb(255,255,255)" text-anchor="middle">-1.2</text>
<polygon points="148.4,390.3 168.4,390.3 168.4,410.3 148.4,410.3" fill="rgb(153,153,255)"/><polygon points="148.4,390.3 168.4,390.3 168.4,410.3 148.4,410.3" fill="none" stroke="black" stroke-width="1"/><text xml:space="preserve" x="158.4" y="403.133" font-family="Calibri" font-size="7.5" fill="rgb(0,0,0)" text-anchor="middle">-0.8</text>
<polygon points="168.4,390.3 188.4,390.3 188.4,410.3 168.4,410.3" fill="rgb(204,204,255)"/><polygon points="168.4,390.3 188.4,390.3 188.4,410.3 168.4,410.3" fill="none" stroke="black" stroke-width="1"/><text xml:space="preserve" x="178.4" y="403.133" font-family="Calibri" font-size="7.5" fill="rgb(0,0,0)" text-anchor="middle">-0.4</text>
<polygon points="188.4,390.3 208.4,390.3 208.4,410.3 188.4,410.3" fill="rgb(255,255,255)"/><polygon points="188.4,390.3 208.4,390.3 208.4,410.3 188.4,410.3" fill="none" stroke="black" stroke-width="1"/><text xml:space="preserve" x="198.4" y="403.133" font-family="Calibri" font-size="7.5" fill="rgb(0,0,0)" text-anchor="middle">0.0</text>
<polygon points="208.4,390.3 228.4,390.3 228.4,410.3 208.4,410.3" fill="rgb(255,204,204)"/><polygon points="208.4,390.3 228.4,390.3 228.4,410.3 208.4,410.3" fill="none" stroke="black" stroke-width="1"/><text xml:space="preserve" x="218.4" y="403.133" font-family="Calibri" font-size="7.5" fill="rgb(0,0,0)" text-anchor="middle">0.4</text>
<polygon points="228.4,390.3 248.4,390.3 248.4,410.3 228.4,410.3" fill="rgb(255,153,153)"/><polygon points="228.4,390.3 248.4,390.3 248.4,410.3 228.4,410.3" fill="none" stroke="black" stroke-width="1"/><text xml:space="preserve" x="238.4" y="403.133" font-family="Calibri" font-size="7.5" fill="rgb(0,0,0)" text-anchor="middle">0.8</text>
<polygon points="248.4,390.3 268.4,390.3 268.4,410.3 248.4,410.3" fill="rgb(255,102,102)"/><polygon points="248.4,390.3 268.4,390.3 268.4,410.3 248.4,410.3" fill="none" stroke="black" stroke-width="1"/><text xml:space="preserve" x="258.4" y="403.133" font-family="Calibri" font-size="7.5" fill="rgb(0,0,0)" text-anchor="middle">1.2</text>
<polygon points="268.4,390.3 288.4,390.3 288.4,410.3 268.4,410.3" fill="rgb(255,50,50)"/><polygon points="268.4,390.3 288.4,390.3 288.4,410.3 268.4,410.3" fill="none" stroke="black" stroke-width="1"/><text xml:space="preserve" x="278.4" y="403.133" font-family="Calibri" font-size="7.5" fill="rgb(255,255,255)" text-anchor="middle">1.6</text>
<polygon points="288.4,390.3 308.4,390.3 308.4,410.3 288.4,410.3" fill="rgb(255,0,0)"/><polygon points="288.4,390.3 308.4,390.3 308.4,410.3 288.4,410.3" fill="none" stroke="black" stroke-width="1"/><text xml:space="preserve" x="298.4" y="403.133" font-family="Calibri" font-size="7.5" fill="rgb(255,255,255)" text-anchor="middle">2.0</text>
</svg>
