<?xml version="1.0" standalone="no"?><!DOCTYPE svg PUBLIC "-//W3C//DTD SVG 1.1//EN" "http://www.w3.org/Graphics/SVG/1.1/DTD/svg11.dtd">
<svg width="403.4" height="502.3" version="1.1" xmlns="http://www.w3.org/2000/svg">
<text xml:space="preserve" x="159.4" y="217.633" font-family="Calibri" font-size="6" text-anchor="end">A730069N07Rik</text>
<text xml:space="preserve" x="159.4" y="223.633" font-family="Calibri" font-size="6" text-anchor="end">Resp18</text>
<text xml:space="preserve" x="159.4" y="229.633" font-family="Calibri" font-size="6" text-anchor="end">Ric3</text>
<text xml:space="preserve" x="159.4" y="235.633" font-family="Calibri" font-size="6" text-anchor="end">D130067I03Rik</text>
<text xml:space="preserve" x="159.4" y="241.633" font-family="Calibri" font-size="6" text-anchor="end">Spag16</text>
<text xml:space="preserve" x="159.4" y="247.633" font-family="Calibri" font-size="6" text-anchor="end">Iqsec3</text>
<text xml:space="preserve" x="159.4" y="253.633" font-family="Calibri" font-size="6" text-anchor="end">Il12rb2</text>
<text xml:space="preserve" x="159.4" y="259.633" font-family="Calibri" font-size="6" text-anchor="end">Igsf1</text>
<text xml:space="preserve" x="159.4" y="265.633" font-family="Calibri" font-size="6" text-anchor="end">Htr1a</text>
<text xml:space="preserve" x="159.4" y="271.633" font-family="Calibri" font-size="6" text-anchor="end">Hnmt</text>
<text xml:space="preserve" x="159.4" y="277.633" font-family="Calibri" font-size="6" text-anchor="end">Grm1</text>
<text xml:space="preserve" x="159.4" y="283.633" font-family="Calibri" font-size="6" text-anchor="end">Gria4</text>
<text xml:space="preserve" x="159.4" y="289.633" font-family="Calibri" font-size="6" text-anchor="end">Gpr6</text>
<text xml:space="preserve" x="159.4" y="295.633" font-family="Calibri" font-size="6" text-anchor="end">Gpr158</text>
<text xml:space="preserve" x="159.4" y="301.633" font-family="Calibri" font-size="6" text-anchor="end">Gpr139</text>
<text xml:space="preserve" x="159.4" y="307.633" font-family="Calibri" font-size="6" text-anchor="end">Mycs</text>
<text xml:space="preserve" x="159.4" y="313.633" font-family="Calibri" font-size="6" text-anchor="end">Olfr1419</text>
<text xml:space="preserve" x="159.4" y="319.633" font-family="Calibri" font-size="6" text-anchor="end">Cacng2</text>
<text xml:space="preserve" x="159.4" y="325.633" font-family="Calibri" font-size="6" text-anchor="end">Tacr3</text>
<text xml:space="preserve" x="159.4" y="331.633" font-family="Calibri" font-size="6" text-anchor="end">Zfp36l3</text>
<text xml:space="preserve" x="159.4" y="337.633" font-family="Calibri" font-size="6" text-anchor="end">Gabrg1</text>
<text xml:space="preserve" x="159.4" y="343.633" font-family="Calibri" font-size="6" text-anchor="end">Brdt</text>
<text xml:space="preserve" x="159.4" y="349.633" font-family="Calibri" font-size="6" text-anchor="end">Luzp2</text>
<text xml:space="preserve" x="159.4" y="355.633" font-family="Calibri" font-size="6" text-anchor="end">Mael</text>
<text xml:space="preserve" x="159.4" y="361.633" font-family="Calibri" font-size="6" text-anchor="end">AU022751</text>
<text xml:space="preserve" x="169.733" y="208.3" font-family="Calibri" font-size="6" transform="rotate(270 169.733 208.3)">ips</text>
<text xml:space="preserve" x="177.733" y="208.3" font-family="Calibri" font-size="6" transform="rotate(270 177.733 208.3)">pips</text>
<text xml:space="preserve" x="185.733" y="208.3" font-family="Calibri" font-size="6" transform="rotate(270 185.733 208.3)">mef</text>
<text xml:space="preserve" x="202.733" y="208.3" font-family="Calibri" font-size="6" transform="rotate(270 202.733 208.3)">ips_H3K4me3iPS</text>
<text xml:space="preserve" x="208.733" y="208.3" font-family="Calibri" font-size="6" transform="rotate(270 208.733 208.3)">ips_H3K9aciPS</text>
<text xml:space="preserve" x="214.733" y="208.3" font-family="Calibri" font-size="6" transform="rotate(270 214.733 208.3)">ips_H3K14aciPS</text>
<text xml:space="preserve" x="220.733" y="208.3" font-family="Calibri" font-size="6" transform="rotate(270 220.733 208.3)">ips_H3K18aciPS</text>
<text xml:space="preserve" x="226.733" y="208.3" font-family="Calibri" font-size="6" transform="rotate(270 226.733 208.3)">ips_H3K79me2iPS</text>
<text xml:space="preserve" x="232.733" y="208.3" font-family="Calibri" font-size="6" transform="rotate(270 232.733 208.3)">ips_H3K9me2iPS</text>
<text xml:space="preserve" x="238.733" y="208.3" font-family="Calibri" font-size="6" transform="rotate(270 238.733 208.3)">ips_H3K9me3iPS</text>
<text xml:space="preserve" x="244.733" y="208.3" font-family="Calibri" font-size="6" transform="rotate(270 244.733 208.3)">ips_H3K27me3iPS</text>
<text xml:space="preserve" x="260.733" y="208.3" font-family="Calibri" font-size="6" transform="rotate(270 260.733 208.3)">pips_H3K4me3pips</text>
<text xml:space="preserve" x="266.733" y="208.3" font-family="Calibri" font-size="6" transform="rotate(270 266.733 208.3)">pips_H3K9acpips</text>
<text xml:space="preserve" x="272.733" y="208.3" font-family="Calibri" font-size="6" transform="rotate(270 272.733 208.3)">pips_H3K14acpips</text>
<text xml:space="preserve" x="278.733" y="208.3" font-family="Calibri" font-size="6" transform="rotate(270 278.733 208.3)">pips_H3K18acpips</text>
<text xml:space="preserve" x="284.733" y="208.3" font-family="Calibri" font-size="6" transform="rotate(270 284.733 208.3)">pips_H3K79me2pips</text>
<text xml:space="preserve" x="290.733" y="208.3" font-family="Calibri" font-size="6" transform="rotate(270 290.733 208.3)">pips_H3K9me2pips</text>
<text xml:space="preserve" x="296.733" y="208.3" font-family="Calibri" font-size="6" transform="rotate(270 296.733 208.3)">pips_H3K9me3pips</text>
<text xml:space="preserve" x="302.733" y="208.3" font-family="Calibri" font-size="6" transform="rotate(270 302.733 208.3)">pips_H3K27me3pips</text>
<text xml:space="preserve" x="318.733" y="208.3" font-family="Calibri" font-size="6" transform="rotate(270 318.733 208.3)">mef_H3K4me3mef</text>
<text xml:space="preserve" x="324.733" y="208.3" font-family="Calibri" font-size="6" transform="rotate(270 324.733 208.3)">mef_H3K9acmef</text>
<text xml:space="preserve" x="330.733" y="208.3" font-family="Calibri" font-size="6" transform="rotate(270 330.733 208.3)">mef_H3K14acmef</text>
<text xml:space="preserve" x="336.733" y="208.3" font-family="Calibri" font-size="6" transform="rotate(270 336.733 208.3)">mef_H3K18acmef</text>
<text xml:space="preserve" x="342.733" y="208.3" font-family="Calibri" font-size="6" transform="rotate(270 342.733 208.3)">mef_H3K79me2mef</text>
<text xml:space="preserve" x="348.733" y="208.3" font-family="Calibri" font-size="6" transform="rotate(270 348.733 208.3)">mef_H3K9me2mef</text>
<text xml:space="preserve" x="354.733" y="208.3" font-family="Calibri" font-size="6" transform="rotate(270 354.733 208.3)">mef_H3K9me3mef</text>
<text xml:space="preserve" x="360.733" y="208.3" font-family="Calibri" font-size="6" transform="rotate(270 360.733 208.3)">mef_H3K27me3mef</text>
<polygon points="163.4,212.3 171.4,212.3 171.4,218.3 163.4,218.3" fill="rgb(156,207,203)"/><text xml:space="preserve" x="167.4" y="218.133" font-family="Calibri" font-size="7.5" fill="rgb(0,0,0)" text-anchor="middle">3</text>
<polygon points="171.4,212.3 179.4,212.3 179.4,218.3 171.4,218.3" fill="rgb(224,197,142)"/><text xml:space="preserve" x="175.4" y="218.133" font-family="Calibri" font-size="7.5" fill="rgb(0,0,0)" text-anchor="middle">12</text>
<polygon points="179.4,212.3 187.4,212.3 187.4,218.3 179.4,218.3" fill="rgb(220,188,121)"/><text xml:space="preserve" x="183.4" y="218.133" font-family="Calibri" font-size="7.5" fill="rgb(0,0,0)" text-anchor="middle">13</text>
<polygon points="197.4,212.3 203.4,212.3 203.4,218.3 197.4,218.3" fill="rgb(224,224,255)"/>
<polygon points="203.4,212.3 209.4,212.3 209.4,218.3 203.4,218.3" fill="rgb(146,146,255)"/>
<polygon points="209.4,212.3 215.4,212.3 215.4,218.3 209.4,218.3" fill="rgb(155,155,255)"/>
<polygon points="215.4,212.3 221.4,212.3 221.4,218.3 215.4,218.3" fill="rgb(134,134,255)"/>
<polygon points="221.4,212.3 227.4,212.3 227.4,218.3 221.4,218.3" fill="rgb(211,211,255)"/>
<polygon points="227.4,212.3 233.4,212.3 233.4,218.3 227.4,218.3" fill="rgb(255,210,210)"/>
<polygon points="233.4,212.3 239.4,212.3 239.4,218.3 233.4,218.3" fill="rgb(254,244,244)"/>
<polygon points="239.4,212.3 245.4,212.3 245.4,218.3 239.4,218.3" fill="rgb(255,228,228)"/>
<polygon points="255.4,212.3 261.4,212.3 261.4,218.3 255.4,218.3" fill="rgb(191,191,255)"/>
<polygon points="261.4,212.3 267.4,212.3 267.4,218.3 261.4,218.3" fill="rgb(207,207,255)"/>
<polygon points="267.4,212.3 273.4,212.3 273.4,218.3 267.4,218.3" fill="rgb(190,190,255)"/>
<polygon points="273.4,212.3 279.4,212.3 279.4,218.3 273.4,218.3" fill="rgb(215,215,255)"/>
<polygon points="279.4,212.3 285.4,212.3 285.4,218.3 279.4,218.3" fill="rgb(215,215,255)"/>
<polygon points="285.4,212.3 291.4,212.3 291.4,218.3 285.4,218.3" fill="rgb(255,140,140)"/>
<polygon points="291.4,212.3 297.4,212.3 297.4,218.3 291.4,218.3" fill="rgb(255,230,230)"/>
<polygon points="297.4,212.3 303.4,212.3 303.4,218.3 297.4,218.3" fill="rgb(255,236,236)"/>
<polygon points="313.4,212.3 319.4,212.3 319.4,218.3 313.4,218.3" fill="rgb(255,112,112)"/>
<polygon points="319.4,212.3 325.4,212.3 325.4,218.3 319.4,218.3" fill="rgb(255,166,166)"/>
<polygon points="325.4,212.3 331.4,212.3 331.4,218.3 325.4,218.3" fill="rgb(255,117,117)"/>
<polygon points="331.4,212.3 337.4,212.3 337.4,218.3 331.4,218.3" fill="rgb(255,6,6)"/>
<polygon points="337.4,212.3 343.4,212.3 343.4,218.3 337.4,218.3" fill="rgb(255,112,112)"/>
<polygon points="343.4,212.3 349.4,212.3 349.4,218.3 343.4,218.3" fill="rgb(229,229,255)"/>
<polygon points="349.4,212.3 355.4,212.3 355.4,218.3 349.4,218.3" fill="rgb(255,241,241)"/>
<polygon points="355.4,212.3 361.4,212.3 361.4,218.3 355.4,218.3" fill="rgb(191,191,255)"/>
<polygon points="163.4,218.3 171.4,218.3 171.4,224.3 163.4,224.3" fill="rgb(156,207,203)"/><text xml:space="preserve" x="167.4" y="224.133" font-family="Calibri" font-size="7.5" fill="rgb(0,0,0)" text-anchor="middle">3</text>
<polygon points="171.4,218.3 179.4,218.3 179.4,224.3 171.4,224.3" fill="rgb(224,197,142)"/><text xml:space="preserve" x="175.4" y="224.133" font-family="Calibri" font-size="7.5" fill="rgb(0,0,0)" text-anchor="middle">12</text>
<polygon points="179.4,218.3 187.4,218.3 187.4,224.3 179.4,224.3" fill="rgb(224,197,142)"/><text xml:space="preserve" x="183.4" y="224.133" font-family="Calibri" font-size="7.5" fill="rgb(0,0,0)" text-anchor="middle">12</text>
<polygon points="197.4,218.3 203.4,218.3 203.4,224.3 197.4,224.3" fill="rgb(211,211,255)"/>
<polygon points="203.4,218.3 209.4,218.3 209.4,224.3 203.4,224.3" fill="rgb(169,169,255)"/>
<polygon points="209.4,218.3 215.4,218.3 215.4,224.3 209.4,224.3" fill="rgb(185,185,255)"/>
<polygon points="215.4,218.3 221.4,218.3 221.4,224.3 215.4,224.3" fill="rgb(162,162,255)"/>
<polygon points="221.4,218.3 227.4,218.3 227.4,224.3 221.4,224.3" fill="rgb(163,163,255)"/>
<polygon points="227.4,218.3 233.4,218.3 233.4,224.3 227.4,224.3" fill="rgb(255,251,251)"/>
<polygon points="233.4,218.3 239.4,218.3 239.4,224.3 233.4,224.3" fill="rgb(255,162,162)"/>
<polygon points="239.4,218.3 245.4,218.3 245.4,224.3 239.4,224.3" fill="rgb(255,104,104)"/>
<polygon points="255.4,218.3 261.4,218.3 261.4,224.3 255.4,224.3" fill="rgb(173,173,255)"/>
<polygon points="261.4,218.3 267.4,218.3 267.4,224.3 261.4,224.3" fill="rgb(142,142,255)"/>
<polygon points="267.4,218.3 273.4,218.3 273.4,224.3 267.4,224.3" fill="rgb(146,146,255)"/>
<polygon points="273.4,218.3 279.4,218.3 279.4,224.3 273.4,224.3" fill="rgb(87,87,255)"/>
<polygon points="279.4,218.3 285.4,218.3 285.4,224.3 279.4,224.3" fill="rgb(149,149,255)"/>
<polygon points="285.4,218.3 291.4,218.3 291.4,224.3 285.4,224.3" fill="rgb(255,120,120)"/>
<polygon points="291.4,218.3 297.4,218.3 297.4,224.3 291.4,224.3" fill="rgb(255,73,73)"/>
<polygon points="297.4,218.3 303.4,218.3 303.4,224.3 297.4,224.3" fill="rgb(255,188,188)"/>
<polygon points="313.4,218.3 319.4,218.3 319.4,224.3 313.4,224.3" fill="rgb(172,172,255)"/>
<polygon points="319.4,218.3 325.4,218.3 325.4,224.3 319.4,224.3" fill="rgb(150,150,255)"/>
<polygon points="325.4,218.3 331.4,218.3 331.4,224.3 325.4,224.3" fill="rgb(63,63,255)"/>
<polygon points="331.4,218.3 337.4,218.3 337.4,224.3 331.4,224.3" fill="rgb(87,87,255)"/>
<polygon points="337.4,218.3 343.4,218.3 343.4,224.3 337.4,224.3" fill="rgb(123,123,255)"/>
<polygon points="343.4,218.3 349.4,218.3 349.4,224.3 343.4,224.3" fill="rgb(255,138,138)"/>
<polygon points="349.4,218.3 355.4,218.3 355.4,224.3 349.4,224.3" fill="rgb(255,122,122)"/>
<polygon points="355.4,218.3 361.4,218.3 361.4,224.3 355.4,224.3" fill="rgb(255,53,53)"/>
<polygon points="163.4,224.3 171.4,224.3 171.4,230.3 163.4,230.3" fill="rgb(156,207,203)"/><text xml:space="preserve" x="167.4" y="230.133" font-family="Calibri" font-size="7.5" fill="rgb(0,0,0)" text-anchor="middle">3</text>
<polygon points="171.4,224.3 179.4,224.3 179.4,230.3 171.4,230.3" fill="rgb(224,197,142)"/><text xml:space="preserve" x="175.4" y="230.133" font-family="Calibri" font-size="7.5" fill="rgb(0,0,0)" text-anchor="middle">12</text>
<polygon points="179.4,224.3 187.4,224.3 187.4,230.3 179.4,230.3" fill="rgb(224,197,142)"/><text xml:space="preserve" x="183.4" y="230.133" font-family="Calibri" font-size="7.5" fill="rgb(0,0,0)" text-anchor="middle">12</text>
<polygon points="197.4,224.3 203.4,224.3 203.4,230.3 197.4,230.3" fill="rgb(248,248,255)"/>
<polygon points="203.4,224.3 209.4,224.3 209.4,230.3 203.4,230.3" fill="rgb(184,184,255)"/>
<polygon points="209.4,224.3 215.4,224.3 215.4,230.3 209.4,230.3" fill="rgb(147,147,255)"/>
<polygon points="215.4,224.3 221.4,224.3 221.4,230.3 215.4,230.3" fill="rgb(97,97,255)"/>
<polygon points="221.4,224.3 227.4,224.3 227.4,230.3 221.4,230.3" fill="rgb(205,205,255)"/>
<polygon points="227.4,224.3 233.4,224.3 233.4,230.3 227.4,230.3" fill="rgb(255,162,162)"/>
<polygon points="233.4,224.3 239.4,224.3 239.4,230.3 233.4,230.3" fill="rgb(238,238,255)"/>
<polygon points="239.4,224.3 245.4,224.3 245.4,230.3 239.4,230.3" fill="rgb(255,205,205)"/>
<polygon points="255.4,224.3 261.4,224.3 261.4,230.3 255.4,230.3" fill="rgb(231,231,255)"/>
<polygon points="261.4,224.3 267.4,224.3 267.4,230.3 261.4,230.3" fill="rgb(149,149,255)"/>
<polygon points="267.4,224.3 273.4,224.3 273.4,230.3 267.4,230.3" fill="rgb(94,94,255)"/>
<polygon points="273.4,224.3 279.4,224.3 279.4,230.3 273.4,230.3" fill="rgb(71,71,255)"/>
<polygon points="279.4,224.3 285.4,224.3 285.4,230.3 279.4,230.3" fill="rgb(149,149,255)"/>
<polygon points="285.4,224.3 291.4,224.3 291.4,230.3 285.4,230.3" fill="rgb(255,78,78)"/>
<polygon points="291.4,224.3 297.4,224.3 297.4,230.3 291.4,230.3" fill="rgb(255,174,174)"/>
<polygon points="297.4,224.3 303.4,224.3 303.4,230.3 297.4,230.3" fill="rgb(255,210,210)"/>
<polygon points="313.4,224.3 319.4,224.3 319.4,230.3 313.4,230.3" fill="rgb(156,156,255)"/>
<polygon points="319.4,224.3 325.4,224.3 325.4,230.3 319.4,230.3" fill="rgb(137,137,255)"/>
<polygon points="325.4,224.3 331.4,224.3 331.4,230.3 325.4,230.3" fill="rgb(79,79,255)"/>
<polygon points="331.4,224.3 337.4,224.3 337.4,230.3 331.4,230.3" fill="rgb(87,87,255)"/>
<polygon points="337.4,224.3 343.4,224.3 343.4,230.3 337.4,230.3" fill="rgb(152,152,255)"/>
<polygon points="343.4,224.3 349.4,224.3 349.4,230.3 343.4,230.3" fill="rgb(255,113,113)"/>
<polygon points="349.4,224.3 355.4,224.3 355.4,230.3 349.4,230.3" fill="rgb(255,177,177)"/>
<polygon points="355.4,224.3 361.4,224.3 361.4,230.3 355.4,230.3" fill="rgb(255,201,201)"/>
<polygon points="163.4,230.3 171.4,230.3 171.4,236.3 163.4,236.3" fill="rgb(156,207,203)"/><text xml:space="preserve" x="167.4" y="236.133" font-family="Calibri" font-size="7.5" fill="rgb(0,0,0)" text-anchor="middle">3</text>
<polygon points="171.4,230.3 179.4,230.3 179.4,236.3 171.4,236.3" fill="rgb(224,197,142)"/><text xml:space="preserve" x="175.4" y="236.133" font-family="Calibri" font-size="7.5" fill="rgb(0,0,0)" text-anchor="middle">12</text>
<polygon points="179.4,230.3 187.4,230.3 187.4,236.3 179.4,236.3" fill="rgb(224,197,142)"/><text xml:space="preserve" x="183.4" y="236.133" font-family="Calibri" font-size="7.5" fill="rgb(0,0,0)" text-anchor="middle">12</text>
<polygon points="197.4,230.3 203.4,230.3 203.4,236.3 197.4,236.3" fill="rgb(222,222,255)"/>
<polygon points="203.4,230.3 209.4,230.3 209.4,236.3 203.4,236.3" fill="rgb(158,158,255)"/>
<polygon points="209.4,230.3 215.4,230.3 215.4,236.3 209.4,236.3" fill="rgb(184,184,255)"/>
<polygon points="215.4,230.3 221.4,230.3 221.4,236.3 215.4,236.3" fill="rgb(119,119,255)"/>
<polygon points="221.4,230.3 227.4,230.3 227.4,236.3 221.4,236.3" fill="rgb(172,172,255)"/>
<polygon points="227.4,230.3 233.4,230.3 233.4,236.3 227.4,236.3" fill="rgb(255,180,180)"/>
<polygon points="233.4,230.3 239.4,230.3 239.4,236.3 233.4,236.3" fill="rgb(255,196,196)"/>
<polygon points="239.4,230.3 245.4,230.3 245.4,236.3 239.4,236.3" fill="rgb(255,94,94)"/>
<polygon points="255.4,230.3 261.4,230.3 261.4,236.3 255.4,236.3" fill="rgb(178,178,255)"/>
<polygon points="261.4,230.3 267.4,230.3 267.4,236.3 261.4,236.3" fill="rgb(134,134,255)"/>
<polygon points="267.4,230.3 273.4,230.3 273.4,236.3 267.4,236.3" fill="rgb(167,167,255)"/>
<polygon points="273.4,230.3 279.4,230.3 279.4,236.3 273.4,236.3" fill="rgb(81,81,255)"/>
<polygon points="279.4,230.3 285.4,230.3 285.4,236.3 279.4,236.3" fill="rgb(166,166,255)"/>
<polygon points="285.4,230.3 291.4,230.3 291.4,236.3 285.4,236.3" fill="rgb(255,123,123)"/>
<polygon points="291.4,230.3 297.4,230.3 297.4,236.3 291.4,236.3" fill="rgb(255,232,232)"/>
<polygon points="297.4,230.3 303.4,230.3 303.4,236.3 297.4,236.3" fill="rgb(255,152,152)"/>
<polygon points="313.4,230.3 319.4,230.3 319.4,236.3 313.4,236.3" fill="rgb(147,147,255)"/>
<polygon points="319.4,230.3 325.4,230.3 325.4,236.3 319.4,236.3" fill="rgb(153,153,255)"/>
<polygon points="325.4,230.3 331.4,230.3 331.4,236.3 325.4,236.3" fill="rgb(171,171,255)"/>
<polygon points="331.4,230.3 337.4,230.3 337.4,236.3 331.4,236.3" fill="rgb(109,109,255)"/>
<polygon points="337.4,230.3 343.4,230.3 343.4,236.3 337.4,236.3" fill="rgb(184,184,255)"/>
<polygon points="343.4,230.3 349.4,230.3 349.4,236.3 343.4,236.3" fill="rgb(255,214,214)"/>
<polygon points="349.4,230.3 355.4,230.3 355.4,236.3 349.4,236.3" fill="rgb(255,216,216)"/>
<polygon points="355.4,230.3 361.4,230.3 361.4,236.3 355.4,236.3" fill="rgb(255,208,208)"/>
<polygon points="163.4,236.3 171.4,236.3 171.4,242.3 163.4,242.3" fill="rgb(156,207,203)"/><text xml:space="preserve" x="167.4" y="242.133" font-family="Calibri" font-size="7.5" fill="rgb(0,0,0)" text-anchor="middle">3</text>
<polygon points="171.4,236.3 179.4,236.3 179.4,242.3 171.4,242.3" fill="rgb(224,197,142)"/><text xml:space="preserve" x="175.4" y="242.133" font-family="Calibri" font-size="7.5" fill="rgb(0,0,0)" text-anchor="middle">12</text>
<polygon points="179.4,236.3 187.4,236.3 187.4,242.3 179.4,242.3" fill="rgb(224,197,142)"/><text xml:space="preserve" x="183.4" y="242.133" font-family="Calibri" font-size="7.5" fill="rgb(0,0,0)" text-anchor="middle">12</text>
<polygon points="197.4,236.3 203.4,236.3 203.4,242.3 197.4,242.3" fill="rgb(255,219,219)"/>
<polygon points="203.4,236.3 209.4,236.3 209.4,242.3 203.4,242.3" fill="rgb(165,165,255)"/>
<polygon points="209.4,236.3 215.4,236.3 215.4,242.3 209.4,242.3" fill="rgb(179,179,255)"/>
<polygon points="215.4,236.3 221.4,236.3 221.4,242.3 215.4,242.3" fill="rgb(163,163,255)"/>
<polygon points="221.4,236.3 227.4,236.3 227.4,242.3 221.4,242.3" fill="rgb(225,225,255)"/>
<polygon points="227.4,236.3 233.4,236.3 233.4,242.3 227.4,242.3" fill="rgb(255,143,143)"/>
<polygon points="233.4,236.3 239.4,236.3 239.4,242.3 233.4,242.3" fill="rgb(255,127,127)"/>
<polygon points="239.4,236.3 245.4,236.3 245.4,242.3 239.4,242.3" fill="rgb(255,251,251)"/>
<polygon points="255.4,236.3 261.4,236.3 261.4,242.3 255.4,242.3" fill="rgb(185,185,255)"/>
<polygon points="261.4,236.3 267.4,236.3 267.4,242.3 261.4,242.3" fill="rgb(151,151,255)"/>
<polygon points="267.4,236.3 273.4,236.3 273.4,242.3 267.4,242.3" fill="rgb(192,192,255)"/>
<polygon points="273.4,236.3 279.4,236.3 279.4,242.3 273.4,242.3" fill="rgb(164,164,255)"/>
<polygon points="279.4,236.3 285.4,236.3 285.4,242.3 279.4,242.3" fill="rgb(220,220,255)"/>
<polygon points="285.4,236.3 291.4,236.3 291.4,242.3 285.4,242.3" fill="rgb(255,99,99)"/>
<polygon points="291.4,236.3 297.4,236.3 297.4,242.3 291.4,242.3" fill="rgb(255,203,203)"/>
<polygon points="297.4,236.3 303.4,236.3 303.4,242.3 297.4,242.3" fill="rgb(225,225,255)"/>
<polygon points="313.4,236.3 319.4,236.3 319.4,242.3 313.4,242.3" fill="rgb(211,211,255)"/>
<polygon points="319.4,236.3 325.4,236.3 325.4,242.3 319.4,242.3" fill="rgb(155,155,255)"/>
<polygon points="325.4,236.3 331.4,236.3 331.4,242.3 325.4,242.3" fill="rgb(209,209,255)"/>
<polygon points="331.4,236.3 337.4,236.3 337.4,242.3 331.4,242.3" fill="rgb(150,150,255)"/>
<polygon points="337.4,236.3 343.4,236.3 343.4,242.3 337.4,242.3" fill="rgb(187,187,255)"/>
<polygon points="343.4,236.3 349.4,236.3 349.4,242.3 343.4,242.3" fill="rgb(255,131,131)"/>
<polygon points="349.4,236.3 355.4,236.3 355.4,242.3 349.4,242.3" fill="rgb(255,185,185)"/>
<polygon points="355.4,236.3 361.4,236.3 361.4,242.3 355.4,242.3" fill="rgb(254,215,215)"/>
<polygon points="163.4,242.3 171.4,242.3 171.4,248.3 163.4,248.3" fill="rgb(156,207,203)"/><text xml:space="preserve" x="167.4" y="248.133" font-family="Calibri" font-size="7.5" fill="rgb(0,0,0)" text-anchor="middle">3</text>
<polygon points="171.4,242.3 179.4,242.3 179.4,248.3 171.4,248.3" fill="rgb(224,197,142)"/><text xml:space="preserve" x="175.4" y="248.133" font-family="Calibri" font-size="7.5" fill="rgb(0,0,0)" text-anchor="middle">12</text>
<polygon points="179.4,242.3 187.4,242.3 187.4,248.3 179.4,248.3" fill="rgb(224,197,142)"/><text xml:space="preserve" x="183.4" y="248.133" font-family="Calibri" font-size="7.5" fill="rgb(0,0,0)" text-anchor="middle">12</text>
<polygon points="197.4,242.3 203.4,242.3 203.4,248.3 197.4,248.3" fill="rgb(212,212,255)"/>
<polygon points="203.4,242.3 209.4,242.3 209.4,248.3 203.4,248.3" fill="rgb(175,175,255)"/>
<polygon points="209.4,242.3 215.4,242.3 215.4,248.3 209.4,248.3" fill="rgb(185,185,255)"/>
<polygon points="215.4,242.3 221.4,242.3 221.4,248.3 215.4,248.3" fill="rgb(148,148,255)"/>
<polygon points="221.4,242.3 227.4,242.3 227.4,248.3 221.4,248.3" fill="rgb(198,198,255)"/>
<polygon points="227.4,242.3 233.4,242.3 233.4,248.3 227.4,248.3" fill="rgb(245,245,255)"/>
<polygon points="233.4,242.3 239.4,242.3 239.4,248.3 233.4,248.3" fill="rgb(255,225,225)"/>
<polygon points="239.4,242.3 245.4,242.3 245.4,248.3 239.4,248.3" fill="rgb(255,77,77)"/>
<polygon points="255.4,242.3 261.4,242.3 261.4,248.3 255.4,248.3" fill="rgb(195,195,255)"/>
<polygon points="261.4,242.3 267.4,242.3 267.4,248.3 261.4,248.3" fill="rgb(155,155,255)"/>
<polygon points="267.4,242.3 273.4,242.3 273.4,248.3 267.4,248.3" fill="rgb(106,106,255)"/>
<polygon points="273.4,242.3 279.4,242.3 279.4,248.3 273.4,248.3" fill="rgb(91,91,255)"/>
<polygon points="279.4,242.3 285.4,242.3 285.4,248.3 279.4,248.3" fill="rgb(178,178,255)"/>
<polygon points="285.4,242.3 291.4,242.3 291.4,248.3 285.4,248.3" fill="rgb(255,147,147)"/>
<polygon points="291.4,242.3 297.4,242.3 297.4,248.3 291.4,248.3" fill="rgb(254,216,216)"/>
<polygon points="297.4,242.3 303.4,242.3 303.4,248.3 297.4,248.3" fill="rgb(255,148,148)"/>
<polygon points="313.4,242.3 319.4,242.3 319.4,248.3 313.4,248.3" fill="rgb(142,142,255)"/>
<polygon points="319.4,242.3 325.4,242.3 325.4,248.3 319.4,248.3" fill="rgb(150,150,255)"/>
<polygon points="325.4,242.3 331.4,242.3 331.4,248.3 325.4,248.3" fill="rgb(149,149,255)"/>
<polygon points="331.4,242.3 337.4,242.3 337.4,248.3 331.4,248.3" fill="rgb(115,115,255)"/>
<polygon points="337.4,242.3 343.4,242.3 343.4,248.3 337.4,248.3" fill="rgb(172,172,255)"/>
<polygon points="343.4,242.3 349.4,242.3 349.4,248.3 343.4,248.3" fill="rgb(255,188,188)"/>
<polygon points="349.4,242.3 355.4,242.3 355.4,248.3 349.4,248.3" fill="rgb(255,205,205)"/>
<polygon points="355.4,242.3 361.4,242.3 361.4,248.3 355.4,248.3" fill="rgb(255,177,177)"/>
<polygon points="163.4,248.3 171.4,248.3 171.4,254.3 163.4,254.3" fill="rgb(156,207,203)"/><text xml:space="preserve" x="167.4" y="254.133" font-family="Calibri" font-size="7.5" fill="rgb(0,0,0)" text-anchor="middle">3</text>
<polygon points="171.4,248.3 179.4,248.3 179.4,254.3 171.4,254.3" fill="rgb(224,197,142)"/><text xml:space="preserve" x="175.4" y="254.133" font-family="Calibri" font-size="7.5" fill="rgb(0,0,0)" text-anchor="middle">12</text>
<polygon points="179.4,248.3 187.4,248.3 187.4,254.3 179.4,254.3" fill="rgb(224,197,142)"/><text xml:space="preserve" x="183.4" y="254.133" font-family="Calibri" font-size="7.5" fill="rgb(0,0,0)" text-anchor="middle">12</text>
<polygon points="197.4,248.3 203.4,248.3 203.4,254.3 197.4,254.3" fill="rgb(241,241,255)"/>
<polygon points="203.4,248.3 209.4,248.3 209.4,254.3 203.4,254.3" fill="rgb(155,155,255)"/>
<polygon points="209.4,248.3 215.4,248.3 215.4,254.3 209.4,254.3" fill="rgb(164,164,255)"/>
<polygon points="215.4,248.3 221.4,248.3 221.4,254.3 215.4,254.3" fill="rgb(121,121,255)"/>
<polygon points="221.4,248.3 227.4,248.3 227.4,254.3 221.4,254.3" fill="rgb(182,182,255)"/>
<polygon points="227.4,248.3 233.4,248.3 233.4,254.3 227.4,254.3" fill="rgb(255,238,238)"/>
<polygon points="233.4,248.3 239.4,248.3 239.4,254.3 233.4,254.3" fill="rgb(248,248,255)"/>
<polygon points="239.4,248.3 245.4,248.3 245.4,254.3 239.4,254.3" fill="rgb(255,83,83)"/>
<polygon points="255.4,248.3 261.4,248.3 261.4,254.3 255.4,254.3" fill="rgb(195,195,255)"/>
<polygon points="261.4,248.3 267.4,248.3 267.4,254.3 261.4,254.3" fill="rgb(182,182,255)"/>
<polygon points="267.4,248.3 273.4,248.3 273.4,254.3 267.4,254.3" fill="rgb(215,215,255)"/>
<polygon points="273.4,248.3 279.4,248.3 279.4,254.3 273.4,254.3" fill="rgb(195,195,255)"/>
<polygon points="279.4,248.3 285.4,248.3 285.4,254.3 279.4,254.3" fill="rgb(180,180,255)"/>
<polygon points="285.4,248.3 291.4,248.3 291.4,254.3 285.4,254.3" fill="rgb(255,152,152)"/>
<polygon points="291.4,248.3 297.4,248.3 297.4,254.3 291.4,254.3" fill="rgb(255,225,225)"/>
<polygon points="297.4,248.3 303.4,248.3 303.4,254.3 297.4,254.3" fill="rgb(255,196,196)"/>
<polygon points="313.4,248.3 319.4,248.3 319.4,254.3 313.4,254.3" fill="rgb(169,169,255)"/>
<polygon points="319.4,248.3 325.4,248.3 325.4,254.3 319.4,254.3" fill="rgb(143,143,255)"/>
<polygon points="325.4,248.3 331.4,248.3 331.4,254.3 325.4,254.3" fill="rgb(192,192,255)"/>
<polygon points="331.4,248.3 337.4,248.3 337.4,254.3 331.4,254.3" fill="rgb(91,91,255)"/>
<polygon points="337.4,248.3 343.4,248.3 343.4,254.3 337.4,254.3" fill="rgb(152,152,255)"/>
<polygon points="343.4,248.3 349.4,248.3 349.4,254.3 343.4,254.3" fill="rgb(255,142,142)"/>
<polygon points="349.4,248.3 355.4,248.3 355.4,254.3 349.4,254.3" fill="rgb(255,193,193)"/>
<polygon points="355.4,248.3 361.4,248.3 361.4,254.3 355.4,254.3" fill="rgb(255,95,95)"/>
<polygon points="163.4,254.3 171.4,254.3 171.4,260.3 163.4,260.3" fill="rgb(156,207,203)"/><text xml:space="preserve" x="167.4" y="260.133" font-family="Calibri" font-size="7.5" fill="rgb(0,0,0)" text-anchor="middle">3</text>
<polygon points="171.4,254.3 179.4,254.3 179.4,260.3 171.4,260.3" fill="rgb(224,197,142)"/><text xml:space="preserve" x="175.4" y="260.133" font-family="Calibri" font-size="7.5" fill="rgb(0,0,0)" text-anchor="middle">12</text>
<polygon points="179.4,254.3 187.4,254.3 187.4,260.3 179.4,260.3" fill="rgb(224,197,142)"/><text xml:space="preserve" x="183.4" y="260.133" font-family="Calibri" font-size="7.5" fill="rgb(0,0,0)" text-anchor="middle">12</text>
<polygon points="197.4,254.3 203.4,254.3 203.4,260.3 197.4,260.3" fill="rgb(222,222,255)"/>
<polygon points="203.4,254.3 209.4,254.3 209.4,260.3 203.4,260.3" fill="rgb(167,167,255)"/>
<polygon points="209.4,254.3 215.4,254.3 215.4,260.3 209.4,260.3" fill="rgb(169,169,255)"/>
<polygon points="215.4,254.3 221.4,254.3 221.4,260.3 215.4,260.3" fill="rgb(214,214,255)"/>
<polygon points="221.4,254.3 227.4,254.3 227.4,260.3 221.4,260.3" fill="rgb(159,159,255)"/>
<polygon points="227.4,254.3 233.4,254.3 233.4,260.3 227.4,260.3" fill="rgb(255,240,240)"/>
<polygon points="233.4,254.3 239.4,254.3 239.4,260.3 233.4,260.3" fill="rgb(234,234,255)"/>
<polygon points="239.4,254.3 245.4,254.3 245.4,260.3 239.4,260.3" fill="rgb(255,182,182)"/>
<polygon points="255.4,254.3 261.4,254.3 261.4,260.3 255.4,260.3" fill="rgb(208,208,255)"/>
<polygon points="261.4,254.3 267.4,254.3 267.4,260.3 261.4,260.3" fill="rgb(116,116,255)"/>
<polygon points="267.4,254.3 273.4,254.3 273.4,260.3 267.4,260.3" fill="rgb(154,154,255)"/>
<polygon points="273.4,254.3 279.4,254.3 279.4,260.3 273.4,260.3" fill="rgb(52,52,255)"/>
<polygon points="279.4,254.3 285.4,254.3 285.4,260.3 279.4,260.3" fill="rgb(144,144,255)"/>
<polygon points="285.4,254.3 291.4,254.3 291.4,260.3 285.4,260.3" fill="rgb(255,151,151)"/>
<polygon points="291.4,254.3 297.4,254.3 297.4,260.3 291.4,260.3" fill="rgb(255,236,236)"/>
<polygon points="297.4,254.3 303.4,254.3 303.4,260.3 297.4,260.3" fill="rgb(255,130,130)"/>
<polygon points="313.4,254.3 319.4,254.3 319.4,260.3 313.4,260.3" fill="rgb(175,175,255)"/>
<polygon points="319.4,254.3 325.4,254.3 325.4,260.3 319.4,260.3" fill="rgb(129,129,255)"/>
<polygon points="325.4,254.3 331.4,254.3 331.4,260.3 325.4,260.3" fill="rgb(204,204,255)"/>
<polygon points="331.4,254.3 337.4,254.3 337.4,260.3 331.4,260.3" fill="rgb(148,148,255)"/>
<polygon points="337.4,254.3 343.4,254.3 343.4,260.3 337.4,260.3" fill="rgb(177,177,255)"/>
<polygon points="343.4,254.3 349.4,254.3 349.4,260.3 343.4,260.3" fill="rgb(255,207,207)"/>
<polygon points="349.4,254.3 355.4,254.3 355.4,260.3 349.4,260.3" fill="rgb(255,228,228)"/>
<polygon points="355.4,254.3 361.4,254.3 361.4,260.3 355.4,260.3" fill="rgb(255,195,195)"/>
<polygon points="163.4,260.3 171.4,260.3 171.4,266.3 163.4,266.3" fill="rgb(156,207,203)"/><text xml:space="preserve" x="167.4" y="266.133" font-family="Calibri" font-size="7.5" fill="rgb(0,0,0)" text-anchor="middle">3</text>
<polygon points="171.4,260.3 179.4,260.3 179.4,266.3 171.4,266.3" fill="rgb(224,197,142)"/><text xml:space="preserve" x="175.4" y="266.133" font-family="Calibri" font-size="7.5" fill="rgb(0,0,0)" text-anchor="middle">12</text>
<polygon points="179.4,260.3 187.4,260.3 187.4,266.3 179.4,266.3" fill="rgb(224,197,142)"/><text xml:space="preserve" x="183.4" y="266.133" font-family="Calibri" font-size="7.5" fill="rgb(0,0,0)" text-anchor="middle">12</text>
<polygon points="197.4,260.3 203.4,260.3 203.4,266.3 197.4,266.3" fill="rgb(235,235,255)"/>
<polygon points="203.4,260.3 209.4,260.3 209.4,266.3 203.4,266.3" fill="rgb(130,130,255)"/>
<polygon points="209.4,260.3 215.4,260.3 215.4,266.3 209.4,266.3" fill="rgb(128,128,255)"/>
<polygon points="215.4,260.3 221.4,260.3 221.4,266.3 215.4,266.3" fill="rgb(100,100,255)"/>
<polygon points="221.4,260.3 227.4,260.3 227.4,266.3 221.4,266.3" fill="rgb(181,181,255)"/>
<polygon points="227.4,260.3 233.4,260.3 233.4,266.3 227.4,266.3" fill="rgb(226,226,255)"/>
<polygon points="233.4,260.3 239.4,260.3 239.4,266.3 233.4,266.3" fill="rgb(255,245,245)"/>
<polygon points="239.4,260.3 245.4,260.3 245.4,266.3 239.4,266.3" fill="rgb(255,90,90)"/>
<polygon points="255.4,260.3 261.4,260.3 261.4,266.3 255.4,266.3" fill="rgb(181,181,255)"/>
<polygon points="261.4,260.3 267.4,260.3 267.4,266.3 261.4,266.3" fill="rgb(143,143,255)"/>
<polygon points="267.4,260.3 273.4,260.3 273.4,266.3 267.4,266.3" fill="rgb(111,111,255)"/>
<polygon points="273.4,260.3 279.4,260.3 279.4,266.3 273.4,266.3" fill="rgb(80,80,255)"/>
<polygon points="279.4,260.3 285.4,260.3 285.4,266.3 279.4,266.3" fill="rgb(181,181,255)"/>
<polygon points="285.4,260.3 291.4,260.3 291.4,266.3 285.4,266.3" fill="rgb(255,211,211)"/>
<polygon points="291.4,260.3 297.4,260.3 297.4,266.3 291.4,266.3" fill="rgb(216,216,255)"/>
<polygon points="297.4,260.3 303.4,260.3 303.4,266.3 297.4,266.3" fill="rgb(255,209,209)"/>
<polygon points="313.4,260.3 319.4,260.3 319.4,266.3 313.4,266.3" fill="rgb(151,151,255)"/>
<polygon points="319.4,260.3 325.4,260.3 325.4,266.3 319.4,266.3" fill="rgb(141,141,255)"/>
<polygon points="325.4,260.3 331.4,260.3 331.4,266.3 325.4,266.3" fill="rgb(155,155,255)"/>
<polygon points="331.4,260.3 337.4,260.3 337.4,266.3 331.4,266.3" fill="rgb(110,110,255)"/>
<polygon points="337.4,260.3 343.4,260.3 343.4,266.3 337.4,266.3" fill="rgb(201,201,255)"/>
<polygon points="343.4,260.3 349.4,260.3 349.4,266.3 343.4,266.3" fill="rgb(235,235,255)"/>
<polygon points="349.4,260.3 355.4,260.3 355.4,266.3 349.4,266.3" fill="rgb(255,246,246)"/>
<polygon points="355.4,260.3 361.4,260.3 361.4,266.3 355.4,266.3" fill="rgb(255,162,162)"/>
<polygon points="163.4,266.3 171.4,266.3 171.4,272.3 163.4,272.3" fill="rgb(156,207,203)"/><text xml:space="preserve" x="167.4" y="272.133" font-family="Calibri" font-size="7.5" fill="rgb(0,0,0)" text-anchor="middle">3</text>
<polygon points="171.4,266.3 179.4,266.3 179.4,272.3 171.4,272.3" fill="rgb(224,197,142)"/><text xml:space="preserve" x="175.4" y="272.133" font-family="Calibri" font-size="7.5" fill="rgb(0,0,0)" text-anchor="middle">12</text>
<polygon points="179.4,266.3 187.4,266.3 187.4,272.3 179.4,272.3" fill="rgb(224,197,142)"/><text xml:space="preserve" x="183.4" y="272.133" font-family="Calibri" font-size="7.5" fill="rgb(0,0,0)" text-anchor="middle">12</text>
<polygon points="197.4,266.3 203.4,266.3 203.4,272.3 197.4,272.3" fill="rgb(251,251,255)"/>
<polygon points="203.4,266.3 209.4,266.3 209.4,272.3 203.4,272.3" fill="rgb(143,143,255)"/>
<polygon points="209.4,266.3 215.4,266.3 215.4,272.3 209.4,272.3" fill="rgb(115,115,255)"/>
<polygon points="215.4,266.3 221.4,266.3 221.4,272.3 215.4,272.3" fill="rgb(204,204,255)"/>
<polygon points="221.4,266.3 227.4,266.3 227.4,272.3 221.4,272.3" fill="rgb(189,189,255)"/>
<polygon points="227.4,266.3 233.4,266.3 233.4,272.3 227.4,272.3" fill="rgb(255,228,228)"/>
<polygon points="233.4,266.3 239.4,266.3 239.4,272.3 233.4,272.3" fill="rgb(254,232,232)"/>
<polygon points="239.4,266.3 245.4,266.3 245.4,272.3 239.4,272.3" fill="rgb(249,249,255)"/>
<polygon points="255.4,266.3 261.4,266.3 261.4,272.3 255.4,272.3" fill="rgb(194,194,255)"/>
<polygon points="261.4,266.3 267.4,266.3 267.4,272.3 261.4,272.3" fill="rgb(185,185,255)"/>
<polygon points="267.4,266.3 273.4,266.3 273.4,272.3 267.4,272.3" fill="rgb(194,194,255)"/>
<polygon points="273.4,266.3 279.4,266.3 279.4,272.3 273.4,272.3" fill="rgb(179,179,255)"/>
<polygon points="279.4,266.3 285.4,266.3 285.4,272.3 279.4,272.3" fill="rgb(214,214,255)"/>
<polygon points="285.4,266.3 291.4,266.3 291.4,272.3 285.4,272.3" fill="rgb(255,122,122)"/>
<polygon points="291.4,266.3 297.4,266.3 297.4,272.3 291.4,272.3" fill="rgb(202,202,255)"/>
<polygon points="297.4,266.3 303.4,266.3 303.4,272.3 297.4,272.3" fill="rgb(211,211,255)"/>
<polygon points="313.4,266.3 319.4,266.3 319.4,272.3 313.4,272.3" fill="rgb(220,220,255)"/>
<polygon points="319.4,266.3 325.4,266.3 325.4,272.3 319.4,272.3" fill="rgb(139,139,255)"/>
<polygon points="325.4,266.3 331.4,266.3 331.4,272.3 325.4,272.3" fill="rgb(186,186,255)"/>
<polygon points="331.4,266.3 337.4,266.3 337.4,272.3 331.4,272.3" fill="rgb(96,96,255)"/>
<polygon points="337.4,266.3 343.4,266.3 343.4,272.3 337.4,272.3" fill="rgb(178,178,255)"/>
<polygon points="343.4,266.3 349.4,266.3 349.4,272.3 343.4,272.3" fill="rgb(255,192,192)"/>
<polygon points="349.4,266.3 355.4,266.3 355.4,272.3 349.4,272.3" fill="rgb(255,129,129)"/>
<polygon points="355.4,266.3 361.4,266.3 361.4,272.3 355.4,272.3" fill="rgb(255,231,231)"/>
<polygon points="163.4,272.3 171.4,272.3 171.4,278.3 163.4,278.3" fill="rgb(156,207,203)"/><text xml:space="preserve" x="167.4" y="278.133" font-family="Calibri" font-size="7.5" fill="rgb(0,0,0)" text-anchor="middle">3</text>
<polygon points="171.4,272.3 179.4,272.3 179.4,278.3 171.4,278.3" fill="rgb(224,197,142)"/><text xml:space="preserve" x="175.4" y="278.133" font-family="Calibri" font-size="7.5" fill="rgb(0,0,0)" text-anchor="middle">12</text>
<polygon points="179.4,272.3 187.4,272.3 187.4,278.3 179.4,278.3" fill="rgb(224,197,142)"/><text xml:space="preserve" x="183.4" y="278.133" font-family="Calibri" font-size="7.5" fill="rgb(0,0,0)" text-anchor="middle">12</text>
<polygon points="197.4,272.3 203.4,272.3 203.4,278.3 197.4,278.3" fill="rgb(239,239,255)"/>
<polygon points="203.4,272.3 209.4,272.3 209.4,278.3 203.4,278.3" fill="rgb(133,133,255)"/>
<polygon points="209.4,272.3 215.4,272.3 215.4,278.3 209.4,278.3" fill="rgb(130,130,255)"/>
<polygon points="215.4,272.3 221.4,272.3 221.4,278.3 215.4,278.3" fill="rgb(96,96,255)"/>
<polygon points="221.4,272.3 227.4,272.3 227.4,278.3 221.4,278.3" fill="rgb(171,171,255)"/>
<polygon points="227.4,272.3 233.4,272.3 233.4,278.3 227.4,278.3" fill="rgb(255,241,241)"/>
<polygon points="233.4,272.3 239.4,272.3 239.4,278.3 233.4,278.3" fill="rgb(255,202,202)"/>
<polygon points="239.4,272.3 245.4,272.3 245.4,278.3 239.4,278.3" fill="rgb(255,52,52)"/>
<polygon points="255.4,272.3 261.4,272.3 261.4,278.3 255.4,278.3" fill="rgb(193,193,255)"/>
<polygon points="261.4,272.3 267.4,272.3 267.4,278.3 261.4,278.3" fill="rgb(122,122,255)"/>
<polygon points="267.4,272.3 273.4,272.3 273.4,278.3 267.4,278.3" fill="rgb(119,119,255)"/>
<polygon points="273.4,272.3 279.4,272.3 279.4,278.3 273.4,278.3" fill="rgb(39,39,255)"/>
<polygon points="279.4,272.3 285.4,272.3 285.4,278.3 279.4,278.3" fill="rgb(153,153,255)"/>
<polygon points="285.4,272.3 291.4,272.3 291.4,278.3 285.4,278.3" fill="rgb(255,127,127)"/>
<polygon points="291.4,272.3 297.4,272.3 297.4,278.3 291.4,278.3" fill="rgb(255,141,141)"/>
<polygon points="297.4,272.3 303.4,272.3 303.4,278.3 297.4,278.3" fill="rgb(255,172,172)"/>
<polygon points="313.4,272.3 319.4,272.3 319.4,278.3 313.4,278.3" fill="rgb(187,187,255)"/>
<polygon points="319.4,272.3 325.4,272.3 325.4,278.3 319.4,278.3" fill="rgb(97,97,255)"/>
<polygon points="325.4,272.3 331.4,272.3 331.4,278.3 325.4,278.3" fill="rgb(91,91,255)"/>
<polygon points="331.4,272.3 337.4,272.3 337.4,278.3 331.4,278.3" fill="rgb(65,65,255)"/>
<polygon points="337.4,272.3 343.4,272.3 343.4,278.3 337.4,278.3" fill="rgb(169,169,255)"/>
<polygon points="343.4,272.3 349.4,272.3 349.4,278.3 343.4,278.3" fill="rgb(255,171,171)"/>
<polygon points="349.4,272.3 355.4,272.3 355.4,278.3 349.4,278.3" fill="rgb(255,201,201)"/>
<polygon points="355.4,272.3 361.4,272.3 361.4,278.3 355.4,278.3" fill="rgb(255,91,91)"/>
<polygon points="163.4,278.3 171.4,278.3 171.4,284.3 163.4,284.3" fill="rgb(156,207,203)"/><text xml:space="preserve" x="167.4" y="284.133" font-family="Calibri" font-size="7.5" fill="rgb(0,0,0)" text-anchor="middle">3</text>
<polygon points="171.4,278.3 179.4,278.3 179.4,284.3 171.4,284.3" fill="rgb(224,197,142)"/><text xml:space="preserve" x="175.4" y="284.133" font-family="Calibri" font-size="7.5" fill="rgb(0,0,0)" text-anchor="middle">12</text>
<polygon points="179.4,278.3 187.4,278.3 187.4,284.3 179.4,284.3" fill="rgb(224,197,142)"/><text xml:space="preserve" x="183.4" y="284.133" font-family="Calibri" font-size="7.5" fill="rgb(0,0,0)" text-anchor="middle">12</text>
<polygon points="197.4,278.3 203.4,278.3 203.4,284.3 197.4,284.3" fill="rgb(246,246,255)"/>
<polygon points="203.4,278.3 209.4,278.3 209.4,284.3 203.4,284.3" fill="rgb(135,135,255)"/>
<polygon points="209.4,278.3 215.4,278.3 215.4,284.3 209.4,284.3" fill="rgb(94,94,255)"/>
<polygon points="215.4,278.3 221.4,278.3 221.4,284.3 215.4,284.3" fill="rgb(130,130,255)"/>
<polygon points="221.4,278.3 227.4,278.3 227.4,284.3 221.4,284.3" fill="rgb(181,181,255)"/>
<polygon points="227.4,278.3 233.4,278.3 233.4,284.3 227.4,284.3" fill="rgb(179,179,255)"/>
<polygon points="233.4,278.3 239.4,278.3 239.4,284.3 233.4,284.3" fill="rgb(255,229,229)"/>
<polygon points="239.4,278.3 245.4,278.3 245.4,284.3 239.4,284.3" fill="rgb(255,151,151)"/>
<polygon points="255.4,278.3 261.4,278.3 261.4,284.3 255.4,284.3" fill="rgb(220,220,255)"/>
<polygon points="261.4,278.3 267.4,278.3 267.4,284.3 261.4,284.3" fill="rgb(167,167,255)"/>
<polygon points="267.4,278.3 273.4,278.3 273.4,284.3 267.4,284.3" fill="rgb(155,155,255)"/>
<polygon points="273.4,278.3 279.4,278.3 279.4,284.3 273.4,284.3" fill="rgb(150,150,255)"/>
<polygon points="279.4,278.3 285.4,278.3 285.4,284.3 279.4,284.3" fill="rgb(175,175,255)"/>
<polygon points="285.4,278.3 291.4,278.3 291.4,284.3 285.4,284.3" fill="rgb(255,204,204)"/>
<polygon points="291.4,278.3 297.4,278.3 297.4,284.3 291.4,284.3" fill="rgb(255,207,207)"/>
<polygon points="297.4,278.3 303.4,278.3 303.4,284.3 297.4,284.3" fill="rgb(255,214,214)"/>
<polygon points="313.4,278.3 319.4,278.3 319.4,284.3 313.4,284.3" fill="rgb(167,167,255)"/>
<polygon points="319.4,278.3 325.4,278.3 325.4,284.3 319.4,284.3" fill="rgb(89,89,255)"/>
<polygon points="325.4,278.3 331.4,278.3 331.4,284.3 325.4,284.3" fill="rgb(165,165,255)"/>
<polygon points="331.4,278.3 337.4,278.3 337.4,284.3 331.4,284.3" fill="rgb(91,91,255)"/>
<polygon points="337.4,278.3 343.4,278.3 343.4,284.3 337.4,284.3" fill="rgb(167,167,255)"/>
<polygon points="343.4,278.3 349.4,278.3 349.4,284.3 343.4,284.3" fill="rgb(255,218,218)"/>
<polygon points="349.4,278.3 355.4,278.3 355.4,284.3 349.4,284.3" fill="rgb(201,201,255)"/>
<polygon points="355.4,278.3 361.4,278.3 361.4,284.3 355.4,284.3" fill="rgb(255,222,222)"/>
<polygon points="163.4,284.3 171.4,284.3 171.4,290.3 163.4,290.3" fill="rgb(156,207,203)"/><text xml:space="preserve" x="167.4" y="290.133" font-family="Calibri" font-size="7.5" fill="rgb(0,0,0)" text-anchor="middle">3</text>
<polygon points="171.4,284.3 179.4,284.3 179.4,290.3 171.4,290.3" fill="rgb(224,197,142)"/><text xml:space="preserve" x="175.4" y="290.133" font-family="Calibri" font-size="7.5" fill="rgb(0,0,0)" text-anchor="middle">12</text>
<polygon points="179.4,284.3 187.4,284.3 187.4,290.3 179.4,290.3" fill="rgb(224,197,142)"/><text xml:space="preserve" x="183.4" y="290.133" font-family="Calibri" font-size="7.5" fill="rgb(0,0,0)" text-anchor="middle">12</text>
<polygon points="197.4,284.3 203.4,284.3 203.4,290.3 197.4,290.3" fill="rgb(207,207,255)"/>
<polygon points="203.4,284.3 209.4,284.3 209.4,290.3 203.4,290.3" fill="rgb(141,141,255)"/>
<polygon points="209.4,284.3 215.4,284.3 215.4,290.3 209.4,290.3" fill="rgb(195,195,255)"/>
<polygon points="215.4,284.3 221.4,284.3 221.4,290.3 215.4,290.3" fill="rgb(130,130,255)"/>
<polygon points="221.4,284.3 227.4,284.3 227.4,290.3 221.4,290.3" fill="rgb(156,156,255)"/>
<polygon points="227.4,284.3 233.4,284.3 233.4,290.3 227.4,290.3" fill="rgb(255,203,203)"/>
<polygon points="233.4,284.3 239.4,284.3 239.4,290.3 233.4,290.3" fill="rgb(255,202,202)"/>
<polygon points="239.4,284.3 245.4,284.3 245.4,290.3 239.4,290.3" fill="rgb(255,89,89)"/>
<polygon points="255.4,284.3 261.4,284.3 261.4,290.3 255.4,290.3" fill="rgb(216,216,255)"/>
<polygon points="261.4,284.3 267.4,284.3 267.4,290.3 261.4,290.3" fill="rgb(143,143,255)"/>
<polygon points="267.4,284.3 273.4,284.3 273.4,290.3 267.4,290.3" fill="rgb(169,169,255)"/>
<polygon points="273.4,284.3 279.4,284.3 279.4,290.3 273.4,290.3" fill="rgb(55,55,255)"/>
<polygon points="279.4,284.3 285.4,284.3 285.4,290.3 279.4,290.3" fill="rgb(149,149,255)"/>
<polygon points="285.4,284.3 291.4,284.3 291.4,290.3 285.4,290.3" fill="rgb(255,156,156)"/>
<polygon points="291.4,284.3 297.4,284.3 297.4,290.3 291.4,290.3" fill="rgb(255,177,177)"/>
<polygon points="297.4,284.3 303.4,284.3 303.4,290.3 297.4,290.3" fill="rgb(255,112,112)"/>
<polygon points="313.4,284.3 319.4,284.3 319.4,290.3 313.4,290.3" fill="rgb(124,124,255)"/>
<polygon points="319.4,284.3 325.4,284.3 325.4,290.3 319.4,290.3" fill="rgb(163,163,255)"/>
<polygon points="325.4,284.3 331.4,284.3 331.4,290.3 325.4,290.3" fill="rgb(167,167,255)"/>
<polygon points="331.4,284.3 337.4,284.3 337.4,290.3 331.4,290.3" fill="rgb(81,81,255)"/>
<polygon points="337.4,284.3 343.4,284.3 343.4,290.3 337.4,290.3" fill="rgb(164,164,255)"/>
<polygon points="343.4,284.3 349.4,284.3 349.4,290.3 343.4,290.3" fill="rgb(255,198,198)"/>
<polygon points="349.4,284.3 355.4,284.3 355.4,290.3 349.4,290.3" fill="rgb(255,227,227)"/>
<polygon points="355.4,284.3 361.4,284.3 361.4,290.3 355.4,290.3" fill="rgb(255,153,153)"/>
<polygon points="163.4,290.3 171.4,290.3 171.4,296.3 163.4,296.3" fill="rgb(156,207,203)"/><text xml:space="preserve" x="167.4" y="296.133" font-family="Calibri" font-size="7.5" fill="rgb(0,0,0)" text-anchor="middle">3</text>
<polygon points="171.4,290.3 179.4,290.3 179.4,296.3 171.4,296.3" fill="rgb(224,197,142)"/><text xml:space="preserve" x="175.4" y="296.133" font-family="Calibri" font-size="7.5" fill="rgb(0,0,0)" text-anchor="middle">12</text>
<polygon points="179.4,290.3 187.4,290.3 187.4,296.3 179.4,296.3" fill="rgb(224,197,142)"/><text xml:space="preserve" x="183.4" y="296.133" font-family="Calibri" font-size="7.5" fill="rgb(0,0,0)" text-anchor="middle">12</text>
<polygon points="197.4,290.3 203.4,290.3 203.4,296.3 197.4,296.3" fill="rgb(223,223,255)"/>
<polygon points="203.4,290.3 209.4,290.3 209.4,296.3 203.4,296.3" fill="rgb(165,165,255)"/>
<polygon points="209.4,290.3 215.4,290.3 215.4,296.3 209.4,296.3" fill="rgb(189,189,255)"/>
<polygon points="215.4,290.3 221.4,290.3 221.4,296.3 215.4,296.3" fill="rgb(174,174,255)"/>
<polygon points="221.4,290.3 227.4,290.3 227.4,296.3 221.4,296.3" fill="rgb(200,200,255)"/>
<polygon points="227.4,290.3 233.4,290.3 233.4,296.3 227.4,296.3" fill="rgb(255,162,162)"/>
<polygon points="233.4,290.3 239.4,290.3 239.4,296.3 233.4,296.3" fill="rgb(255,166,166)"/>
<polygon points="239.4,290.3 245.4,290.3 245.4,296.3 239.4,296.3" fill="rgb(255,124,124)"/>
<polygon points="255.4,290.3 261.4,290.3 261.4,296.3 255.4,296.3" fill="rgb(191,191,255)"/>
<polygon points="261.4,290.3 267.4,290.3 267.4,296.3 261.4,296.3" fill="rgb(152,152,255)"/>
<polygon points="267.4,290.3 273.4,290.3 273.4,296.3 267.4,296.3" fill="rgb(191,191,255)"/>
<polygon points="273.4,290.3 279.4,290.3 279.4,296.3 273.4,296.3" fill="rgb(89,89,255)"/>
<polygon points="279.4,290.3 285.4,290.3 285.4,296.3 279.4,296.3" fill="rgb(181,181,255)"/>
<polygon points="285.4,290.3 291.4,290.3 291.4,296.3 285.4,296.3" fill="rgb(255,156,156)"/>
<polygon points="291.4,290.3 297.4,290.3 297.4,296.3 291.4,296.3" fill="rgb(255,224,224)"/>
<polygon points="297.4,290.3 303.4,290.3 303.4,296.3 297.4,296.3" fill="rgb(255,138,138)"/>
<polygon points="313.4,290.3 319.4,290.3 319.4,296.3 313.4,296.3" fill="rgb(157,157,255)"/>
<polygon points="319.4,290.3 325.4,290.3 325.4,296.3 319.4,296.3" fill="rgb(146,146,255)"/>
<polygon points="325.4,290.3 331.4,290.3 331.4,296.3 325.4,296.3" fill="rgb(186,186,255)"/>
<polygon points="331.4,290.3 337.4,290.3 337.4,296.3 331.4,296.3" fill="rgb(123,123,255)"/>
<polygon points="337.4,290.3 343.4,290.3 343.4,296.3 337.4,296.3" fill="rgb(194,194,255)"/>
<polygon points="343.4,290.3 349.4,290.3 349.4,296.3 343.4,296.3" fill="rgb(255,178,178)"/>
<polygon points="349.4,290.3 355.4,290.3 355.4,296.3 349.4,296.3" fill="rgb(255,223,223)"/>
<polygon points="355.4,290.3 361.4,290.3 361.4,296.3 355.4,296.3" fill="rgb(255,237,237)"/>
<polygon points="163.4,296.3 171.4,296.3 171.4,302.3 163.4,302.3" fill="rgb(156,207,203)"/><text xml:space="preserve" x="167.4" y="302.133" font-family="Calibri" font-size="7.5" fill="rgb(0,0,0)" text-anchor="middle">3</text>
<polygon points="171.4,296.3 179.4,296.3 179.4,302.3 171.4,302.3" fill="rgb(224,197,142)"/><text xml:space="preserve" x="175.4" y="302.133" font-family="Calibri" font-size="7.5" fill="rgb(0,0,0)" text-anchor="middle">12</text>
<polygon points="179.4,296.3 187.4,296.3 187.4,302.3 179.4,302.3" fill="rgb(224,197,142)"/><text xml:space="preserve" x="183.4" y="302.133" font-family="Calibri" font-size="7.5" fill="rgb(0,0,0)" text-anchor="middle">12</text>
<polygon points="197.4,296.3 203.4,296.3 203.4,302.3 197.4,302.3" fill="rgb(228,228,255)"/>
<polygon points="203.4,296.3 209.4,296.3 209.4,302.3 203.4,302.3" fill="rgb(161,161,255)"/>
<polygon points="209.4,296.3 215.4,296.3 215.4,302.3 209.4,302.3" fill="rgb(249,249,255)"/>
<polygon points="215.4,296.3 221.4,296.3 221.4,302.3 215.4,302.3" fill="rgb(235,235,255)"/>
<polygon points="221.4,296.3 227.4,296.3 227.4,302.3 221.4,302.3" fill="rgb(160,160,255)"/>
<polygon points="227.4,296.3 233.4,296.3 233.4,302.3 227.4,302.3" fill="rgb(254,223,223)"/>
<polygon points="233.4,296.3 239.4,296.3 239.4,302.3 233.4,302.3" fill="rgb(255,242,242)"/>
<polygon points="239.4,296.3 245.4,296.3 245.4,302.3 239.4,302.3" fill="rgb(255,115,115)"/>
<polygon points="255.4,296.3 261.4,296.3 261.4,302.3 255.4,302.3" fill="rgb(177,177,255)"/>
<polygon points="261.4,296.3 267.4,296.3 267.4,302.3 261.4,302.3" fill="rgb(105,105,255)"/>
<polygon points="267.4,296.3 273.4,296.3 273.4,302.3 267.4,302.3" fill="rgb(206,206,255)"/>
<polygon points="273.4,296.3 279.4,296.3 279.4,302.3 273.4,302.3" fill="rgb(83,83,255)"/>
<polygon points="279.4,296.3 285.4,296.3 285.4,302.3 279.4,302.3" fill="rgb(143,143,255)"/>
<polygon points="285.4,296.3 291.4,296.3 291.4,302.3 285.4,302.3" fill="rgb(255,220,220)"/>
<polygon points="291.4,296.3 297.4,296.3 297.4,302.3 291.4,302.3" fill="rgb(255,243,243)"/>
<polygon points="297.4,296.3 303.4,296.3 303.4,302.3 297.4,302.3" fill="rgb(255,188,188)"/>
<polygon points="313.4,296.3 319.4,296.3 319.4,302.3 313.4,302.3" fill="rgb(127,127,255)"/>
<polygon points="319.4,296.3 325.4,296.3 325.4,302.3 319.4,302.3" fill="rgb(143,143,255)"/>
<polygon points="325.4,296.3 331.4,296.3 331.4,302.3 325.4,302.3" fill="rgb(150,150,255)"/>
<polygon points="331.4,296.3 337.4,296.3 337.4,302.3 331.4,302.3" fill="rgb(94,94,255)"/>
<polygon points="337.4,296.3 343.4,296.3 343.4,302.3 337.4,302.3" fill="rgb(165,165,255)"/>
<polygon points="343.4,296.3 349.4,296.3 349.4,302.3 343.4,302.3" fill="rgb(253,253,255)"/>
<polygon points="349.4,296.3 355.4,296.3 355.4,302.3 349.4,302.3" fill="rgb(226,226,255)"/>
<polygon points="355.4,296.3 361.4,296.3 361.4,302.3 355.4,302.3" fill="rgb(233,233,255)"/>
<polygon points="163.4,302.3 171.4,302.3 171.4,308.3 163.4,308.3" fill="rgb(156,207,203)"/><text xml:space="preserve" x="167.4" y="308.133" font-family="Calibri" font-size="7.5" fill="rgb(0,0,0)" text-anchor="middle">3</text>
<polygon points="171.4,302.3 179.4,302.3 179.4,308.3 171.4,308.3" fill="rgb(224,197,142)"/><text xml:space="preserve" x="175.4" y="308.133" font-family="Calibri" font-size="7.5" fill="rgb(0,0,0)" text-anchor="middle">12</text>
<polygon points="179.4,302.3 187.4,302.3 187.4,308.3 179.4,308.3" fill="rgb(224,197,142)"/><text xml:space="preserve" x="183.4" y="308.133" font-family="Calibri" font-size="7.5" fill="rgb(0,0,0)" text-anchor="middle">12</text>
<polygon points="197.4,302.3 203.4,302.3 203.4,308.3 197.4,308.3" fill="rgb(221,221,255)"/>
<polygon points="203.4,302.3 209.4,302.3 209.4,308.3 203.4,308.3" fill="rgb(122,122,255)"/>
<polygon points="209.4,302.3 215.4,302.3 215.4,308.3 209.4,308.3" fill="rgb(134,134,255)"/>
<polygon points="215.4,302.3 221.4,302.3 221.4,308.3 215.4,308.3" fill="rgb(139,139,255)"/>
<polygon points="221.4,302.3 227.4,302.3 227.4,308.3 221.4,308.3" fill="rgb(161,161,255)"/>
<polygon points="227.4,302.3 233.4,302.3 233.4,308.3 227.4,308.3" fill="rgb(255,160,160)"/>
<polygon points="233.4,302.3 239.4,302.3 239.4,308.3 233.4,308.3" fill="rgb(255,201,201)"/>
<polygon points="239.4,302.3 245.4,302.3 245.4,308.3 239.4,308.3" fill="rgb(255,127,127)"/>
<polygon points="255.4,302.3 261.4,302.3 261.4,308.3 255.4,308.3" fill="rgb(214,214,255)"/>
<polygon points="261.4,302.3 267.4,302.3 267.4,308.3 261.4,308.3" fill="rgb(134,134,255)"/>
<polygon points="267.4,302.3 273.4,302.3 273.4,308.3 267.4,308.3" fill="rgb(234,234,255)"/>
<polygon points="273.4,302.3 279.4,302.3 279.4,308.3 273.4,308.3" fill="rgb(180,180,255)"/>
<polygon points="279.4,302.3 285.4,302.3 285.4,308.3 279.4,308.3" fill="rgb(173,173,255)"/>
<polygon points="285.4,302.3 291.4,302.3 291.4,308.3 285.4,308.3" fill="rgb(255,211,211)"/>
<polygon points="291.4,302.3 297.4,302.3 297.4,308.3 291.4,308.3" fill="rgb(254,179,179)"/>
<polygon points="297.4,302.3 303.4,302.3 303.4,308.3 297.4,308.3" fill="rgb(209,209,255)"/>
<polygon points="313.4,302.3 319.4,302.3 319.4,308.3 313.4,308.3" fill="rgb(140,140,255)"/>
<polygon points="319.4,302.3 325.4,302.3 325.4,308.3 319.4,308.3" fill="rgb(135,135,255)"/>
<polygon points="325.4,302.3 331.4,302.3 331.4,308.3 325.4,308.3" fill="rgb(154,154,255)"/>
<polygon points="331.4,302.3 337.4,302.3 337.4,308.3 331.4,308.3" fill="rgb(129,129,255)"/>
<polygon points="337.4,302.3 343.4,302.3 343.4,308.3 337.4,308.3" fill="rgb(171,171,255)"/>
<polygon points="343.4,302.3 349.4,302.3 349.4,308.3 343.4,308.3" fill="rgb(255,250,250)"/>
<polygon points="349.4,302.3 355.4,302.3 355.4,308.3 349.4,308.3" fill="rgb(255,140,140)"/>
<polygon points="355.4,302.3 361.4,302.3 361.4,308.3 355.4,308.3" fill="rgb(152,152,255)"/>
<polygon points="163.4,308.3 171.4,308.3 171.4,314.3 163.4,314.3" fill="rgb(156,207,203)"/><text xml:space="preserve" x="167.4" y="314.133" font-family="Calibri" font-size="7.5" fill="rgb(0,0,0)" text-anchor="middle">3</text>
<polygon points="171.4,308.3 179.4,308.3 179.4,314.3 171.4,314.3" fill="rgb(224,197,142)"/><text xml:space="preserve" x="175.4" y="314.133" font-family="Calibri" font-size="7.5" fill="rgb(0,0,0)" text-anchor="middle">12</text>
<polygon points="179.4,308.3 187.4,308.3 187.4,314.3 179.4,314.3" fill="rgb(224,197,142)"/><text xml:space="preserve" x="183.4" y="314.133" font-family="Calibri" font-size="7.5" fill="rgb(0,0,0)" text-anchor="middle">12</text>
<polygon points="197.4,308.3 203.4,308.3 203.4,314.3 197.4,314.3" fill="rgb(179,179,255)"/>
<polygon points="203.4,308.3 209.4,308.3 209.4,314.3 203.4,314.3" fill="rgb(196,196,255)"/>
<polygon points="209.4,308.3 215.4,308.3 215.4,314.3 209.4,314.3" fill="rgb(170,170,255)"/>
<polygon points="215.4,308.3 221.4,308.3 221.4,314.3 215.4,314.3" fill="rgb(166,166,255)"/>
<polygon points="221.4,308.3 227.4,308.3 227.4,314.3 221.4,314.3" fill="rgb(181,181,255)"/>
<polygon points="227.4,308.3 233.4,308.3 233.4,314.3 227.4,314.3" fill="rgb(247,247,255)"/>
<polygon points="233.4,308.3 239.4,308.3 239.4,314.3 233.4,314.3" fill="rgb(255,158,158)"/>
<polygon points="239.4,308.3 245.4,308.3 245.4,314.3 239.4,314.3" fill="rgb(255,138,138)"/>
<polygon points="255.4,308.3 261.4,308.3 261.4,314.3 255.4,314.3" fill="rgb(179,179,255)"/>
<polygon points="261.4,308.3 267.4,308.3 267.4,314.3 261.4,314.3" fill="rgb(175,175,255)"/>
<polygon points="267.4,308.3 273.4,308.3 273.4,314.3 267.4,314.3" fill="rgb(214,214,255)"/>
<polygon points="273.4,308.3 279.4,308.3 279.4,314.3 273.4,314.3" fill="rgb(141,141,255)"/>
<polygon points="279.4,308.3 285.4,308.3 285.4,314.3 279.4,314.3" fill="rgb(194,194,255)"/>
<polygon points="285.4,308.3 291.4,308.3 291.4,314.3 285.4,314.3" fill="rgb(255,120,120)"/>
<polygon points="291.4,308.3 297.4,308.3 297.4,314.3 291.4,314.3" fill="rgb(255,178,178)"/>
<polygon points="297.4,308.3 303.4,308.3 303.4,314.3 297.4,314.3" fill="rgb(255,214,214)"/>
<polygon points="313.4,308.3 319.4,308.3 319.4,314.3 313.4,314.3" fill="rgb(145,145,255)"/>
<polygon points="319.4,308.3 325.4,308.3 325.4,314.3 319.4,314.3" fill="rgb(186,186,255)"/>
<polygon points="325.4,308.3 331.4,308.3 331.4,314.3 325.4,314.3" fill="rgb(210,210,255)"/>
<polygon points="331.4,308.3 337.4,308.3 337.4,314.3 331.4,314.3" fill="rgb(92,92,255)"/>
<polygon points="337.4,308.3 343.4,308.3 343.4,314.3 337.4,314.3" fill="rgb(182,182,255)"/>
<polygon points="343.4,308.3 349.4,308.3 349.4,314.3 343.4,314.3" fill="rgb(255,140,140)"/>
<polygon points="349.4,308.3 355.4,308.3 355.4,314.3 349.4,314.3" fill="rgb(255,208,208)"/>
<polygon points="355.4,308.3 361.4,308.3 361.4,314.3 355.4,314.3" fill="rgb(255,221,221)"/>
<polygon points="163.4,314.3 171.4,314.3 171.4,320.3 163.4,320.3" fill="rgb(156,207,203)"/><text xml:space="preserve" x="167.4" y="320.133" font-family="Calibri" font-size="7.5" fill="rgb(0,0,0)" text-anchor="middle">3</text>
<polygon points="171.4,314.3 179.4,314.3 179.4,320.3 171.4,320.3" fill="rgb(224,197,142)"/><text xml:space="preserve" x="175.4" y="320.133" font-family="Calibri" font-size="7.5" fill="rgb(0,0,0)" text-anchor="middle">12</text>
<polygon points="179.4,314.3 187.4,314.3 187.4,320.3 179.4,320.3" fill="rgb(224,197,142)"/><text xml:space="preserve" x="183.4" y="320.133" font-family="Calibri" font-size="7.5" fill="rgb(0,0,0)" text-anchor="middle">12</text>
<polygon points="197.4,314.3 203.4,314.3 203.4,320.3 197.4,320.3" fill="rgb(179,179,255)"/>
<polygon points="203.4,314.3 209.4,314.3 209.4,320.3 203.4,320.3" fill="rgb(130,130,255)"/>
<polygon points="209.4,314.3 215.4,314.3 215.4,320.3 209.4,320.3" fill="rgb(172,172,255)"/>
<polygon points="215.4,314.3 221.4,314.3 221.4,320.3 215.4,320.3" fill="rgb(111,111,255)"/>
<polygon points="221.4,314.3 227.4,314.3 227.4,320.3 221.4,320.3" fill="rgb(152,152,255)"/>
<polygon points="227.4,314.3 233.4,314.3 233.4,320.3 227.4,320.3" fill="rgb(255,218,218)"/>
<polygon points="233.4,314.3 239.4,314.3 239.4,320.3 233.4,320.3" fill="rgb(255,203,203)"/>
<polygon points="239.4,314.3 245.4,314.3 245.4,320.3 239.4,320.3" fill="rgb(255,92,92)"/>
<polygon points="255.4,314.3 261.4,314.3 261.4,320.3 255.4,320.3" fill="rgb(209,209,255)"/>
<polygon points="261.4,314.3 267.4,314.3 267.4,320.3 261.4,320.3" fill="rgb(148,148,255)"/>
<polygon points="267.4,314.3 273.4,314.3 273.4,320.3 267.4,320.3" fill="rgb(171,171,255)"/>
<polygon points="273.4,314.3 279.4,314.3 279.4,320.3 273.4,320.3" fill="rgb(79,79,255)"/>
<polygon points="279.4,314.3 285.4,314.3 285.4,320.3 279.4,320.3" fill="rgb(166,166,255)"/>
<polygon points="285.4,314.3 291.4,314.3 291.4,320.3 285.4,320.3" fill="rgb(255,149,149)"/>
<polygon points="291.4,314.3 297.4,314.3 297.4,320.3 291.4,320.3" fill="rgb(255,184,184)"/>
<polygon points="297.4,314.3 303.4,314.3 303.4,320.3 297.4,320.3" fill="rgb(255,188,188)"/>
<polygon points="313.4,314.3 319.4,314.3 319.4,320.3 313.4,320.3" fill="rgb(159,159,255)"/>
<polygon points="319.4,314.3 325.4,314.3 325.4,320.3 319.4,320.3" fill="rgb(153,153,255)"/>
<polygon points="325.4,314.3 331.4,314.3 331.4,320.3 325.4,320.3" fill="rgb(139,139,255)"/>
<polygon points="331.4,314.3 337.4,314.3 337.4,320.3 331.4,320.3" fill="rgb(130,130,255)"/>
<polygon points="337.4,314.3 343.4,314.3 343.4,320.3 337.4,320.3" fill="rgb(176,176,255)"/>
<polygon points="343.4,314.3 349.4,314.3 349.4,320.3 343.4,320.3" fill="rgb(255,165,165)"/>
<polygon points="349.4,314.3 355.4,314.3 355.4,320.3 349.4,320.3" fill="rgb(255,196,196)"/>
<polygon points="355.4,314.3 361.4,314.3 361.4,320.3 355.4,320.3" fill="rgb(255,213,213)"/>
<polygon points="163.4,320.3 171.4,320.3 171.4,326.3 163.4,326.3" fill="rgb(156,207,203)"/><text xml:space="preserve" x="167.4" y="326.133" font-family="Calibri" font-size="7.5" fill="rgb(0,0,0)" text-anchor="middle">3</text>
<polygon points="171.4,320.3 179.4,320.3 179.4,326.3 171.4,326.3" fill="rgb(224,197,142)"/><text xml:space="preserve" x="175.4" y="326.133" font-family="Calibri" font-size="7.5" fill="rgb(0,0,0)" text-anchor="middle">12</text>
<polygon points="179.4,320.3 187.4,320.3 187.4,326.3 179.4,326.3" fill="rgb(224,197,142)"/><text xml:space="preserve" x="183.4" y="326.133" font-family="Calibri" font-size="7.5" fill="rgb(0,0,0)" text-anchor="middle">12</text>
<polygon points="197.4,320.3 203.4,320.3 203.4,326.3 197.4,326.3" fill="rgb(228,228,255)"/>
<polygon points="203.4,320.3 209.4,320.3 209.4,326.3 203.4,326.3" fill="rgb(125,125,255)"/>
<polygon points="209.4,320.3 215.4,320.3 215.4,326.3 209.4,326.3" fill="rgb(123,123,255)"/>
<polygon points="215.4,320.3 221.4,320.3 221.4,326.3 215.4,326.3" fill="rgb(44,44,255)"/>
<polygon points="221.4,320.3 227.4,320.3 227.4,326.3 221.4,326.3" fill="rgb(168,168,255)"/>
<polygon points="227.4,320.3 233.4,320.3 233.4,326.3 227.4,326.3" fill="rgb(255,224,224)"/>
<polygon points="233.4,320.3 239.4,320.3 239.4,326.3 233.4,326.3" fill="rgb(255,248,248)"/>
<polygon points="239.4,320.3 245.4,320.3 245.4,326.3 239.4,326.3" fill="rgb(255,91,91)"/>
<polygon points="255.4,320.3 261.4,320.3 261.4,326.3 255.4,326.3" fill="rgb(174,174,255)"/>
<polygon points="261.4,320.3 267.4,320.3 267.4,326.3 261.4,326.3" fill="rgb(166,166,255)"/>
<polygon points="267.4,320.3 273.4,320.3 273.4,326.3 267.4,326.3" fill="rgb(97,97,255)"/>
<polygon points="273.4,320.3 279.4,320.3 279.4,326.3 273.4,326.3" fill="rgb(145,145,255)"/>
<polygon points="279.4,320.3 285.4,320.3 285.4,326.3 279.4,326.3" fill="rgb(183,183,255)"/>
<polygon points="285.4,320.3 291.4,320.3 291.4,326.3 285.4,326.3" fill="rgb(255,232,232)"/>
<polygon points="291.4,320.3 297.4,320.3 297.4,326.3 291.4,326.3" fill="rgb(255,220,220)"/>
<polygon points="297.4,320.3 303.4,320.3 303.4,326.3 297.4,326.3" fill="rgb(255,181,181)"/>
<polygon points="313.4,320.3 319.4,320.3 319.4,326.3 313.4,326.3" fill="rgb(176,176,255)"/>
<polygon points="319.4,320.3 325.4,320.3 325.4,326.3 319.4,326.3" fill="rgb(124,124,255)"/>
<polygon points="325.4,320.3 331.4,320.3 331.4,326.3 325.4,326.3" fill="rgb(233,233,255)"/>
<polygon points="331.4,320.3 337.4,320.3 337.4,326.3 331.4,326.3" fill="rgb(95,95,255)"/>
<polygon points="337.4,320.3 343.4,320.3 343.4,326.3 337.4,326.3" fill="rgb(148,148,255)"/>
<polygon points="343.4,320.3 349.4,320.3 349.4,326.3 343.4,326.3" fill="rgb(254,237,237)"/>
<polygon points="349.4,320.3 355.4,320.3 355.4,326.3 349.4,326.3" fill="rgb(255,240,240)"/>
<polygon points="355.4,320.3 361.4,320.3 361.4,326.3 355.4,326.3" fill="rgb(254,182,182)"/>
<polygon points="163.4,326.3 171.4,326.3 171.4,332.3 163.4,332.3" fill="rgb(156,207,203)"/><text xml:space="preserve" x="167.4" y="332.133" font-family="Calibri" font-size="7.5" fill="rgb(0,0,0)" text-anchor="middle">3</text>
<polygon points="171.4,326.3 179.4,326.3 179.4,332.3 171.4,332.3" fill="rgb(224,197,142)"/><text xml:space="preserve" x="175.4" y="332.133" font-family="Calibri" font-size="7.5" fill="rgb(0,0,0)" text-anchor="middle">12</text>
<polygon points="179.4,326.3 187.4,326.3 187.4,332.3 179.4,332.3" fill="rgb(224,197,142)"/><text xml:space="preserve" x="183.4" y="332.133" font-family="Calibri" font-size="7.5" fill="rgb(0,0,0)" text-anchor="middle">12</text>
<polygon points="197.4,326.3 203.4,326.3 203.4,332.3 197.4,332.3" fill="rgb(204,204,255)"/>
<polygon points="203.4,326.3 209.4,326.3 209.4,332.3 203.4,332.3" fill="rgb(176,176,255)"/>
<polygon points="209.4,326.3 215.4,326.3 215.4,332.3 209.4,332.3" fill="rgb(183,183,255)"/>
<polygon points="215.4,326.3 221.4,326.3 221.4,332.3 215.4,332.3" fill="rgb(168,168,255)"/>
<polygon points="221.4,326.3 227.4,326.3 227.4,332.3 221.4,332.3" fill="rgb(184,184,255)"/>
<polygon points="227.4,326.3 233.4,326.3 233.4,332.3 227.4,332.3" fill="rgb(255,248,248)"/>
<polygon points="233.4,326.3 239.4,326.3 239.4,332.3 233.4,332.3" fill="rgb(255,208,208)"/>
<polygon points="239.4,326.3 245.4,326.3 245.4,332.3 239.4,332.3" fill="rgb(255,219,219)"/>
<polygon points="255.4,326.3 261.4,326.3 261.4,332.3 255.4,332.3" fill="rgb(180,180,255)"/>
<polygon points="261.4,326.3 267.4,326.3 267.4,332.3 261.4,332.3" fill="rgb(145,145,255)"/>
<polygon points="267.4,326.3 273.4,326.3 273.4,332.3 267.4,332.3" fill="rgb(178,178,255)"/>
<polygon points="273.4,326.3 279.4,326.3 279.4,332.3 273.4,332.3" fill="rgb(120,120,255)"/>
<polygon points="279.4,326.3 285.4,326.3 285.4,332.3 279.4,332.3" fill="rgb(177,177,255)"/>
<polygon points="285.4,326.3 291.4,326.3 291.4,332.3 285.4,332.3" fill="rgb(255,208,208)"/>
<polygon points="291.4,326.3 297.4,326.3 297.4,332.3 291.4,332.3" fill="rgb(255,176,176)"/>
<polygon points="297.4,326.3 303.4,326.3 303.4,332.3 297.4,332.3" fill="rgb(255,252,252)"/>
<polygon points="313.4,326.3 319.4,326.3 319.4,332.3 313.4,332.3" fill="rgb(166,166,255)"/>
<polygon points="319.4,326.3 325.4,326.3 325.4,332.3 319.4,332.3" fill="rgb(175,175,255)"/>
<polygon points="325.4,326.3 331.4,326.3 331.4,332.3 325.4,332.3" fill="rgb(212,212,255)"/>
<polygon points="331.4,326.3 337.4,326.3 337.4,332.3 331.4,332.3" fill="rgb(135,135,255)"/>
<polygon points="337.4,326.3 343.4,326.3 343.4,332.3 337.4,332.3" fill="rgb(201,201,255)"/>
<polygon points="343.4,326.3 349.4,326.3 349.4,332.3 343.4,332.3" fill="rgb(255,223,223)"/>
<polygon points="349.4,326.3 355.4,326.3 355.4,332.3 349.4,332.3" fill="rgb(255,213,213)"/>
<polygon points="355.4,326.3 361.4,326.3 361.4,332.3 355.4,332.3" fill="rgb(255,242,242)"/>
<polygon points="163.4,332.3 171.4,332.3 171.4,338.3 163.4,338.3" fill="rgb(156,207,203)"/><text xml:space="preserve" x="167.4" y="338.133" font-family="Calibri" font-size="7.5" fill="rgb(0,0,0)" text-anchor="middle">3</text>
<polygon points="171.4,332.3 179.4,332.3 179.4,338.3 171.4,338.3" fill="rgb(224,197,142)"/><text xml:space="preserve" x="175.4" y="338.133" font-family="Calibri" font-size="7.5" fill="rgb(0,0,0)" text-anchor="middle">12</text>
<polygon points="179.4,332.3 187.4,332.3 187.4,338.3 179.4,338.3" fill="rgb(224,197,142)"/><text xml:space="preserve" x="183.4" y="338.133" font-family="Calibri" font-size="7.5" fill="rgb(0,0,0)" text-anchor="middle">12</text>
<polygon points="197.4,332.3 203.4,332.3 203.4,338.3 197.4,338.3" fill="rgb(222,222,255)"/>
<polygon points="203.4,332.3 209.4,332.3 209.4,338.3 203.4,338.3" fill="rgb(178,178,255)"/>
<polygon points="209.4,332.3 215.4,332.3 215.4,338.3 209.4,338.3" fill="rgb(183,183,255)"/>
<polygon points="215.4,332.3 221.4,332.3 221.4,338.3 215.4,338.3" fill="rgb(151,151,255)"/>
<polygon points="221.4,332.3 227.4,332.3 227.4,338.3 221.4,338.3" fill="rgb(225,225,255)"/>
<polygon points="227.4,332.3 233.4,332.3 233.4,338.3 227.4,338.3" fill="rgb(255,175,175)"/>
<polygon points="233.4,332.3 239.4,332.3 239.4,338.3 233.4,338.3" fill="rgb(255,249,249)"/>
<polygon points="239.4,332.3 245.4,332.3 245.4,338.3 239.4,338.3" fill="rgb(255,202,202)"/>
<polygon points="255.4,332.3 261.4,332.3 261.4,338.3 255.4,338.3" fill="rgb(241,241,255)"/>
<polygon points="261.4,332.3 267.4,332.3 267.4,338.3 261.4,338.3" fill="rgb(207,207,255)"/>
<polygon points="267.4,332.3 273.4,332.3 273.4,338.3 267.4,338.3" fill="rgb(172,172,255)"/>
<polygon points="273.4,332.3 279.4,332.3 279.4,338.3 273.4,338.3" fill="rgb(180,180,255)"/>
<polygon points="279.4,332.3 285.4,332.3 285.4,338.3 279.4,338.3" fill="rgb(204,204,255)"/>
<polygon points="285.4,332.3 291.4,332.3 291.4,338.3 285.4,338.3" fill="rgb(255,142,142)"/>
<polygon points="291.4,332.3 297.4,332.3 297.4,338.3 291.4,338.3" fill="rgb(255,174,174)"/>
<polygon points="297.4,332.3 303.4,332.3 303.4,338.3 297.4,338.3" fill="rgb(255,252,252)"/>
<polygon points="313.4,332.3 319.4,332.3 319.4,338.3 313.4,338.3" fill="rgb(180,180,255)"/>
<polygon points="319.4,332.3 325.4,332.3 325.4,338.3 319.4,338.3" fill="rgb(136,136,255)"/>
<polygon points="325.4,332.3 331.4,332.3 331.4,338.3 325.4,338.3" fill="rgb(163,163,255)"/>
<polygon points="331.4,332.3 337.4,332.3 337.4,338.3 331.4,338.3" fill="rgb(133,133,255)"/>
<polygon points="337.4,332.3 343.4,332.3 343.4,338.3 337.4,338.3" fill="rgb(203,203,255)"/>
<polygon points="343.4,332.3 349.4,332.3 349.4,338.3 343.4,338.3" fill="rgb(255,175,175)"/>
<polygon points="349.4,332.3 355.4,332.3 355.4,338.3 349.4,338.3" fill="rgb(255,183,183)"/>
<polygon points="355.4,332.3 361.4,332.3 361.4,338.3 355.4,338.3" fill="rgb(255,232,232)"/>
<polygon points="163.4,338.3 171.4,338.3 171.4,344.3 163.4,344.3" fill="rgb(156,207,203)"/><text xml:space="preserve" x="167.4" y="344.133" font-family="Calibri" font-size="7.5" fill="rgb(0,0,0)" text-anchor="middle">3</text>
<polygon points="171.4,338.3 179.4,338.3 179.4,344.3 171.4,344.3" fill="rgb(224,197,142)"/><text xml:space="preserve" x="175.4" y="344.133" font-family="Calibri" font-size="7.5" fill="rgb(0,0,0)" text-anchor="middle">12</text>
<polygon points="179.4,338.3 187.4,338.3 187.4,344.3 179.4,344.3" fill="rgb(224,197,142)"/><text xml:space="preserve" x="183.4" y="344.133" font-family="Calibri" font-size="7.5" fill="rgb(0,0,0)" text-anchor="middle">12</text>
<polygon points="197.4,338.3 203.4,338.3 203.4,344.3 197.4,344.3" fill="rgb(212,212,255)"/>
<polygon points="203.4,338.3 209.4,338.3 209.4,344.3 203.4,344.3" fill="rgb(163,163,255)"/>
<polygon points="209.4,338.3 215.4,338.3 215.4,344.3 209.4,344.3" fill="rgb(225,225,255)"/>
<polygon points="215.4,338.3 221.4,338.3 221.4,344.3 215.4,344.3" fill="rgb(192,192,255)"/>
<polygon points="221.4,338.3 227.4,338.3 227.4,344.3 221.4,344.3" fill="rgb(202,202,255)"/>
<polygon points="227.4,338.3 233.4,338.3 233.4,344.3 227.4,344.3" fill="rgb(254,131,131)"/>
<polygon points="233.4,338.3 239.4,338.3 239.4,344.3 233.4,344.3" fill="rgb(255,19,19)"/>
<polygon points="239.4,338.3 245.4,338.3 245.4,344.3 239.4,344.3" fill="rgb(255,184,184)"/>
<polygon points="255.4,338.3 261.4,338.3 261.4,344.3 255.4,344.3" fill="rgb(185,185,255)"/>
<polygon points="261.4,338.3 267.4,338.3 267.4,344.3 261.4,344.3" fill="rgb(180,180,255)"/>
<polygon points="267.4,338.3 273.4,338.3 273.4,344.3 267.4,344.3" fill="rgb(252,252,255)"/>
<polygon points="273.4,338.3 279.4,338.3 279.4,344.3 273.4,344.3" fill="rgb(165,165,255)"/>
<polygon points="279.4,338.3 285.4,338.3 285.4,344.3 279.4,344.3" fill="rgb(167,167,255)"/>
<polygon points="285.4,338.3 291.4,338.3 291.4,344.3 285.4,344.3" fill="rgb(255,193,193)"/>
<polygon points="291.4,338.3 297.4,338.3 297.4,344.3 291.4,344.3" fill="rgb(255,91,91)"/>
<polygon points="297.4,338.3 303.4,338.3 303.4,344.3 297.4,344.3" fill="rgb(255,193,193)"/>
<polygon points="313.4,338.3 319.4,338.3 319.4,344.3 313.4,344.3" fill="rgb(127,127,255)"/>
<polygon points="319.4,338.3 325.4,338.3 325.4,344.3 319.4,344.3" fill="rgb(178,178,255)"/>
<polygon points="325.4,338.3 331.4,338.3 331.4,344.3 325.4,344.3" fill="rgb(190,190,255)"/>
<polygon points="331.4,338.3 337.4,338.3 337.4,344.3 331.4,344.3" fill="rgb(167,167,255)"/>
<polygon points="337.4,338.3 343.4,338.3 343.4,344.3 337.4,344.3" fill="rgb(152,152,255)"/>
<polygon points="343.4,338.3 349.4,338.3 349.4,344.3 343.4,344.3" fill="rgb(255,191,191)"/>
<polygon points="349.4,338.3 355.4,338.3 355.4,344.3 349.4,344.3" fill="rgb(255,233,233)"/>
<polygon points="355.4,338.3 361.4,338.3 361.4,344.3 355.4,344.3" fill="rgb(255,220,220)"/>
<polygon points="163.4,344.3 171.4,344.3 171.4,350.3 163.4,350.3" fill="rgb(156,207,203)"/><text xml:space="preserve" x="167.4" y="350.133" font-family="Calibri" font-size="7.5" fill="rgb(0,0,0)" text-anchor="middle">3</text>
<polygon points="171.4,344.3 179.4,344.3 179.4,350.3 171.4,350.3" fill="rgb(224,197,142)"/><text xml:space="preserve" x="175.4" y="350.133" font-family="Calibri" font-size="7.5" fill="rgb(0,0,0)" text-anchor="middle">12</text>
<polygon points="179.4,344.3 187.4,344.3 187.4,350.3 179.4,350.3" fill="rgb(224,197,142)"/><text xml:space="preserve" x="183.4" y="350.133" font-family="Calibri" font-size="7.5" fill="rgb(0,0,0)" text-anchor="middle">12</text>
<polygon points="197.4,344.3 203.4,344.3 203.4,350.3 197.4,350.3" fill="rgb(217,217,255)"/>
<polygon points="203.4,344.3 209.4,344.3 209.4,350.3 203.4,350.3" fill="rgb(139,139,255)"/>
<polygon points="209.4,344.3 215.4,344.3 215.4,350.3 209.4,350.3" fill="rgb(145,145,255)"/>
<polygon points="215.4,344.3 221.4,344.3 221.4,350.3 215.4,350.3" fill="rgb(139,139,255)"/>
<polygon points="221.4,344.3 227.4,344.3 227.4,350.3 221.4,350.3" fill="rgb(189,189,255)"/>
<polygon points="227.4,344.3 233.4,344.3 233.4,350.3 227.4,350.3" fill="rgb(255,145,145)"/>
<polygon points="233.4,344.3 239.4,344.3 239.4,350.3 233.4,350.3" fill="rgb(255,193,193)"/>
<polygon points="239.4,344.3 245.4,344.3 245.4,350.3 239.4,350.3" fill="rgb(255,143,143)"/>
<polygon points="255.4,344.3 261.4,344.3 261.4,350.3 255.4,350.3" fill="rgb(204,204,255)"/>
<polygon points="261.4,344.3 267.4,344.3 267.4,350.3 261.4,350.3" fill="rgb(176,176,255)"/>
<polygon points="267.4,344.3 273.4,344.3 273.4,350.3 267.4,350.3" fill="rgb(251,251,255)"/>
<polygon points="273.4,344.3 279.4,344.3 279.4,350.3 273.4,350.3" fill="rgb(255,233,233)"/>
<polygon points="279.4,344.3 285.4,344.3 285.4,350.3 279.4,350.3" fill="rgb(198,198,255)"/>
<polygon points="285.4,344.3 291.4,344.3 291.4,350.3 285.4,350.3" fill="rgb(255,120,120)"/>
<polygon points="291.4,344.3 297.4,344.3 297.4,350.3 291.4,350.3" fill="rgb(255,122,122)"/>
<polygon points="297.4,344.3 303.4,344.3 303.4,350.3 297.4,350.3" fill="rgb(255,244,244)"/>
<polygon points="313.4,344.3 319.4,344.3 319.4,350.3 313.4,350.3" fill="rgb(179,179,255)"/>
<polygon points="319.4,344.3 325.4,344.3 325.4,350.3 319.4,350.3" fill="rgb(127,127,255)"/>
<polygon points="325.4,344.3 331.4,344.3 331.4,350.3 325.4,350.3" fill="rgb(205,205,255)"/>
<polygon points="331.4,344.3 337.4,344.3 337.4,350.3 331.4,350.3" fill="rgb(130,130,255)"/>
<polygon points="337.4,344.3 343.4,344.3 343.4,350.3 337.4,350.3" fill="rgb(179,179,255)"/>
<polygon points="343.4,344.3 349.4,344.3 349.4,350.3 343.4,350.3" fill="rgb(255,160,160)"/>
<polygon points="349.4,344.3 355.4,344.3 355.4,350.3 349.4,350.3" fill="rgb(255,176,176)"/>
<polygon points="355.4,344.3 361.4,344.3 361.4,350.3 355.4,350.3" fill="rgb(255,186,186)"/>
<polygon points="163.4,350.3 171.4,350.3 171.4,356.3 163.4,356.3" fill="rgb(156,207,203)"/><text xml:space="preserve" x="167.4" y="356.133" font-family="Calibri" font-size="7.5" fill="rgb(0,0,0)" text-anchor="middle">3</text>
<polygon points="171.4,350.3 179.4,350.3 179.4,356.3 171.4,356.3" fill="rgb(224,197,142)"/><text xml:space="preserve" x="175.4" y="356.133" font-family="Calibri" font-size="7.5" fill="rgb(0,0,0)" text-anchor="middle">12</text>
<polygon points="179.4,350.3 187.4,350.3 187.4,356.3 179.4,356.3" fill="rgb(224,197,142)"/><text xml:space="preserve" x="183.4" y="356.133" font-family="Calibri" font-size="7.5" fill="rgb(0,0,0)" text-anchor="middle">12</text>
<polygon points="197.4,350.3 203.4,350.3 203.4,356.3 197.4,356.3" fill="rgb(221,221,255)"/>
<polygon points="203.4,350.3 209.4,350.3 209.4,356.3 203.4,356.3" fill="rgb(128,128,255)"/>
<polygon points="209.4,350.3 215.4,350.3 215.4,356.3 209.4,356.3" fill="rgb(170,170,255)"/>
<polygon points="215.4,350.3 221.4,350.3 221.4,356.3 215.4,356.3" fill="rgb(166,166,255)"/>
<polygon points="221.4,350.3 227.4,350.3 227.4,356.3 221.4,356.3" fill="rgb(194,194,255)"/>
<polygon points="227.4,350.3 233.4,350.3 233.4,356.3 227.4,356.3" fill="rgb(255,166,166)"/>
<polygon points="233.4,350.3 239.4,350.3 239.4,356.3 233.4,356.3" fill="rgb(255,55,55)"/>
<polygon points="239.4,350.3 245.4,350.3 245.4,356.3 239.4,356.3" fill="rgb(254,137,137)"/>
<polygon points="255.4,350.3 261.4,350.3 261.4,356.3 255.4,356.3" fill="rgb(160,160,255)"/>
<polygon points="261.4,350.3 267.4,350.3 267.4,356.3 261.4,356.3" fill="rgb(152,152,255)"/>
<polygon points="267.4,350.3 273.4,350.3 273.4,356.3 267.4,356.3" fill="rgb(210,210,255)"/>
<polygon points="273.4,350.3 279.4,350.3 279.4,356.3 273.4,356.3" fill="rgb(114,114,255)"/>
<polygon points="279.4,350.3 285.4,350.3 285.4,356.3 279.4,356.3" fill="rgb(162,162,255)"/>
<polygon points="285.4,350.3 291.4,350.3 291.4,356.3 285.4,356.3" fill="rgb(255,153,153)"/>
<polygon points="291.4,350.3 297.4,350.3 297.4,356.3 291.4,356.3" fill="rgb(255,123,123)"/>
<polygon points="297.4,350.3 303.4,350.3 303.4,356.3 297.4,356.3" fill="rgb(255,202,202)"/>
<polygon points="313.4,350.3 319.4,350.3 319.4,356.3 313.4,356.3" fill="rgb(187,187,255)"/>
<polygon points="319.4,350.3 325.4,350.3 325.4,356.3 319.4,356.3" fill="rgb(173,173,255)"/>
<polygon points="325.4,350.3 331.4,350.3 331.4,356.3 325.4,356.3" fill="rgb(223,223,255)"/>
<polygon points="331.4,350.3 337.4,350.3 337.4,356.3 331.4,356.3" fill="rgb(178,178,255)"/>
<polygon points="337.4,350.3 343.4,350.3 343.4,356.3 337.4,356.3" fill="rgb(173,173,255)"/>
<polygon points="343.4,350.3 349.4,350.3 349.4,356.3 343.4,356.3" fill="rgb(255,208,208)"/>
<polygon points="349.4,350.3 355.4,350.3 355.4,356.3 349.4,356.3" fill="rgb(255,139,139)"/>
<polygon points="355.4,350.3 361.4,350.3 361.4,356.3 355.4,356.3" fill="rgb(255,249,249)"/>
<polygon points="163.4,356.3 171.4,356.3 171.4,362.3 163.4,362.3" fill="rgb(156,207,203)"/><text xml:space="preserve" x="167.4" y="362.133" font-family="Calibri" font-size="7.5" fill="rgb(0,0,0)" text-anchor="middle">3</text>
<polygon points="171.4,356.3 179.4,356.3 179.4,362.3 171.4,362.3" fill="rgb(224,197,142)"/><text xml:space="preserve" x="175.4" y="362.133" font-family="Calibri" font-size="7.5" fill="rgb(0,0,0)" text-anchor="middle">12</text>
<polygon points="179.4,356.3 187.4,356.3 187.4,362.3 179.4,362.3" fill="rgb(224,197,142)"/><text xml:space="preserve" x="183.4" y="362.133" font-family="Calibri" font-size="7.5" fill="rgb(0,0,0)" text-anchor="middle">12</text>
<polygon points="197.4,356.3 203.4,356.3 203.4,362.3 197.4,362.3" fill="rgb(204,204,255)"/>
<polygon points="203.4,356.3 209.4,356.3 209.4,362.3 203.4,362.3" fill="rgb(165,165,255)"/>
<polygon points="209.4,356.3 215.4,356.3 215.4,362.3 209.4,362.3" fill="rgb(181,181,255)"/>
<polygon points="215.4,356.3 221.4,356.3 221.4,362.3 215.4,362.3" fill="rgb(155,155,255)"/>
<polygon points="221.4,356.3 227.4,356.3 227.4,362.3 221.4,362.3" fill="rgb(203,203,255)"/>
<polygon points="227.4,356.3 233.4,356.3 233.4,362.3 227.4,362.3" fill="rgb(255,239,239)"/>
<polygon points="233.4,356.3 239.4,356.3 239.4,362.3 233.4,362.3" fill="rgb(254,155,155)"/>
<polygon points="239.4,356.3 245.4,356.3 245.4,362.3 239.4,362.3" fill="rgb(255,171,171)"/>
<polygon points="255.4,356.3 261.4,356.3 261.4,362.3 255.4,362.3" fill="rgb(203,203,255)"/>
<polygon points="261.4,356.3 267.4,356.3 267.4,362.3 261.4,362.3" fill="rgb(138,138,255)"/>
<polygon points="267.4,356.3 273.4,356.3 273.4,362.3 267.4,362.3" fill="rgb(177,177,255)"/>
<polygon points="273.4,356.3 279.4,356.3 279.4,362.3 273.4,362.3" fill="rgb(109,109,255)"/>
<polygon points="279.4,356.3 285.4,356.3 285.4,362.3 279.4,362.3" fill="rgb(170,170,255)"/>
<polygon points="285.4,356.3 291.4,356.3 291.4,362.3 285.4,362.3" fill="rgb(255,192,192)"/>
<polygon points="291.4,356.3 297.4,356.3 297.4,362.3 291.4,362.3" fill="rgb(255,206,206)"/>
<polygon points="297.4,356.3 303.4,356.3 303.4,362.3 297.4,362.3" fill="rgb(254,241,241)"/>
<polygon points="313.4,356.3 319.4,356.3 319.4,362.3 313.4,362.3" fill="rgb(152,152,255)"/>
<polygon points="319.4,356.3 325.4,356.3 325.4,362.3 319.4,362.3" fill="rgb(134,134,255)"/>
<polygon points="325.4,356.3 331.4,356.3 331.4,362.3 325.4,362.3" fill="rgb(188,188,255)"/>
<polygon points="331.4,356.3 337.4,356.3 337.4,362.3 331.4,362.3" fill="rgb(142,142,255)"/>
<polygon points="337.4,356.3 343.4,356.3 343.4,362.3 337.4,362.3" fill="rgb(186,186,255)"/>
<polygon points="343.4,356.3 349.4,356.3 349.4,362.3 343.4,362.3" fill="rgb(255,217,217)"/>
<polygon points="349.4,356.3 355.4,356.3 355.4,362.3 349.4,362.3" fill="rgb(255,173,173)"/>
<polygon points="355.4,356.3 361.4,356.3 361.4,362.3 355.4,362.3" fill="rgb(234,234,255)"/>
<polygon points="163.4,212.3 187.4,212.3 187.4,362.3 163.4,362.3" fill="none" stroke="black" stroke-width="1"/>
<polygon points="197.4,212.3 245.4,212.3 245.4,362.3 197.4,362.3" fill="none" stroke="black" stroke-width="1"/>
<polygon points="255.4,212.3 303.4,212.3 303.4,362.3 255.4,362.3" fill="none" stroke="black" stroke-width="1"/>
<polygon points="313.4,212.3 361.4,212.3 361.4,362.3 313.4,362.3" fill="none" stroke="black" stroke-width="1"/>
<text xml:space="preserve" x="201.7" y="394.633" font-family="Calibri" font-size="6" text-anchor="middle">moduleID</text>
<polygon points="91.7,402.3 111.7,402.3 111.7,422.3 91.7,422.3" fill="rgb(250,250,250)"/><polygon points="91.7,402.3 111.7,402.3 111.7,422.3 91.7,422.3" fill="none" stroke="black" stroke-width="1"/><text xml:space="preserve" x="101.7" y="415.133" font-family="Calibri" font-size="7.5" fill="rgb(0,0,0)" text-anchor="middle">-2.0</text>
<polygon points="111.7,402.3 131.7,402.3 131.7,422.3 111.7,422.3" fill="rgb(156,210,205)"/><polygon points="111.7,402.3 131.7,402.3 131.7,422.3 111.7,422.3" fill="none" stroke="black" stroke-width="1"/><text xml:space="preserve" x="121.7" y="415.133" font-family="Calibri" font-size="7.5" fill="rgb(0,0,0)" text-anchor="middle">-0.4</text>
<polygon points="131.7,402.3 151.7,402.3 151.7,422.3 131.7,422.3" fill="rgb(116,191,184)"/><polygon points="131.7,402.3 151.7,402.3 151.7,422.3 131.7,422.3" fill="none" stroke="black" stroke-width="1"/><text xml:space="preserve" x="141.7" y="415.133" font-family="Calibri" font-size="7.5" fill="rgb(0,0,0)" text-anchor="middle">1.2</text>
<polygon points="151.7,402.3 171.7,402.3 171.7,422.3 151.7,422.3" fill="rgb(152,206,201)"/><polygon points="151.7,402.3 171.7,402.3 171.7,422.3 151.7,422.3" fill="none" stroke="black" stroke-width="1"/><text xml:space="preserve" x="161.7" y="415.133" font-family="Calibri" font-size="7.5" fill="rgb(0,0,0)" text-anchor="middle">2.8</text>
<polygon points="171.7,402.3 191.7,402.3 191.7,422.3 171.7,422.3" fill="rgb(187,220,217)"/><polygon points="171.7,402.3 191.7,402.3 191.7,422.3 171.7,422.3" fill="none" stroke="black" stroke-width="1"/><text xml:space="preserve" x="181.7" y="415.133" font-family="Calibri" font-size="7.5" fill="rgb(0,0,0)" text-anchor="middle">4.4</text>
<polygon points="191.7,402.3 211.7,402.3 211.7,422.3 191.7,422.3" fill="rgb(222,235,234)"/><polygon points="191.7,402.3 211.7,402.3 211.7,422.3 191.7,422.3" fill="none" stroke="black" stroke-width="1"/><text xml:space="preserve" x="201.7" y="415.133" font-family="Calibri" font-size="7.5" fill="rgb(0,0,0)" text-anchor="middle">6.0</text>
<polygon points="211.7,402.3 231.7,402.3 231.7,422.3 211.7,422.3" fill="rgb(242,239,232)"/><polygon points="211.7,402.3 231.7,402.3 231.7,422.3 211.7,422.3" fill="none" stroke="black" stroke-width="1"/><text xml:space="preserve" x="221.7" y="415.133" font-family="Calibri" font-size="7.5" fill="rgb(0,0,0)" text-anchor="middle">7.6</text>
<polygon points="231.7,402.3 251.7,402.3 251.7,422.3 231.7,422.3" fill="rgb(235,224,199)"/><polygon points="231.7,402.3 251.7,402.3 251.7,422.3 231.7,422.3" fill="none" stroke="black" stroke-width="1"/><text xml:space="preserve" x="241.7" y="415.133" font-family="Calibri" font-size="7.5" fill="rgb(0,0,0)" text-anchor="middle">9.2</text>
<polygon points="251.7,402.3 271.7,402.3 271.7,422.3 251.7,422.3" fill="rgb(229,209,166)"/><polygon points="251.7,402.3 271.7,402.3 271.7,422.3 251.7,422.3" fill="none" stroke="black" stroke-width="1"/><text xml:space="preserve" x="261.7" y="415.133" font-family="Calibri" font-size="7.5" fill="rgb(0,0,0)" text-anchor="middle">10.8</text>
<polygon points="271.7,402.3 291.7,402.3 291.7,422.3 271.7,422.3" fill="rgb(222,194,133)"/><polygon points="271.7,402.3 291.7,402.3 291.7,422.3 271.7,422.3" fill="none" stroke="black" stroke-width="1"/><text xml:space="preserve" x="281.7" y="415.133" font-family="Calibri" font-size="7.5" fill="rgb(0,0,0)" text-anchor="middle">12.4</text>
<polygon points="291.7,402.3 311.7,402.3 311.7,422.3 291.7,422.3" fill="rgb(216,179,101)"/><polygon points="291.7,402.3 311.7,402.3 311.7,422.3 291.7,422.3" fill="none" stroke="black" stroke-width="1"/><text xml:space="preserve" x="301.7" y="415.133" font-family="Calibri" font-size="7.5" fill="rgb(0,0,0)" text-anchor="middle">14.0</text>
<text xml:space="preserve" x="201.7" y="454.633" font-family="Calibri" font-size="6" text-anchor="middle">marklevel</text>
<polygon points="91.7,462.3 111.7,462.3 111.7,482.3 91.7,482.3" fill="rgb(0,0,255)"/><polygon points="91.7,462.3 111.7,462.3 111.7,482.3 91.7,482.3" fill="none" stroke="black" stroke-width="1"/><text xml:space="preserve" x="101.7" y="475.133" font-family="Calibri" font-size="7.5" fill="rgb(255,255,255)" text-anchor="middle">-2.0</text>
<polygon points="111.7,462.3 131.7,462.3 131.7,482.3 111.7,482.3" fill="rgb(50,50,255)"/><polygon points="111.7,462.3 131.7,462.3 131.7,482.3 111.7,482.3" fill="none" stroke="black" stroke-width="1"/><text xml:space="preserve" x="121.7" y="475.133" font-family="Calibri" font-size="7.5" fill="rgb(255,255,255)" text-anchor="middle">-1.6</text>
<polygon points="131.7,462.3 151.7,462.3 151.7,482.3 131.7,482.3" fill="rgb(102,102,255)"/><polygon points="131.7,462.3 151.7,462.3 151.7,482.3 131.7,482.3" fill="none" stroke="black" stroke-width="1"/><text xml:space="preserve" x="141.7" y="475.133" font-family="Calibri" font-size="7.5" fill="rgb(255,255,255)" text-anchor="middle">-1.2</text>
<polygon points="151.7,462.3 171.7,462.3 171.7,482.3 151.7,482.3" fill="rgb(153,153,255)"/><polygon points="151.7,462.3 171.7,462.3 171.7,482.3 151.7,482.3" fill="none" stroke="black" stroke-width="1"/><text xml:space="preserve" x="161.7" y="475.133" font-family="Calibri" font-size="7.5" fill="rgb(0,0,0)" text-anchor="middle">-0.8</text>
<polygon points="171.7,462.3 191.7,462.3 191.7,482.3 171.7,482.3" fill="rgb(204,204,255)"/><polygon points="171.7,462.3 191.7,462.3 191.7,482.3 171.7,482.3" fill="none" stroke="black" stroke-width="1"/><text xml:space="preserve" x="181.7" y="475.133" font-family="Calibri" font-size="7.5" fill="rgb(0,0,0)" text-anchor="middle">-0.4</text>
<polygon points="191.7,462.3 211.7,462.3 211.7,482.3 191.7,482.3" fill="rgb(255,255,255)"/><polygon points="191.7,462.3 211.7,462.3 211.7,482.3 191.7,482.3" fill="none" stroke="black" stroke-width="1"/><text xml:space="preserve" x="201.7" y="475.133" font-family="Calibri" font-size="7.5" fill="rgb(0,0,0)" text-anchor="middle">0.0</text>
<polygon points="211.7,462.3 231.7,462.3 231.7,482.3 211.7,482.3" fill="rgb(255,204,204)"/><polygon points="211.7,462.3 231.7,462.3 231.7,482.3 211.7,482.3" fill="none" stroke="black" stroke-width="1"/><text xml:space="preserve" x="221.7" y="475.133" font-family="Calibri" font-size="7.5" fill="rgb(0,0,0)" text-anchor="middle">0.4</text>
<polygon points="231.7,462.3 251.7,462.3 251.7,482.3 231.7,482.3" fill="rgb(255,153,153)"/><polygon points="231.7,462.3 251.7,462.3 251.7,482.3 231.7,482.3" fill="none" stroke="black" stroke-width="1"/><text xml:space="preserve" x="241.7" y="475.133" font-family="Calibri" font-size="7.5" fill="rgb(0,0,0)" text-anchor="middle">0.8</text>
<polygon points="251.7,462.3 271.7,462.3 271.7,482.3 251.7,482.3" fill="rgb(255,102,102)"/><polygon points="251.7,462.3 271.7,462.3 271.7,482.3 251.7,482.3" fill="none" stroke="black" stroke-width="1"/><text xml:space="preserve" x="261.7" y="475.133" font-family="Calibri" font-size="7.5" fill="rgb(0,0,0)" text-anchor="middle">1.2</text>
<polygon points="271.7,462.3 291.7,462.3 291.7,482.3 271.7,482.3" fill="rgb(255,50,50)"/><polygon points="271.7,462.3 291.7,462.3 291.7,482.3 271.7,482.3" fill="none" stroke="black" stroke-width="1"/><text xml:space="preserve" x="281.7" y="475.133" font-family="Calibri" font-size="7.5" fill="rgb(255,255,255)" text-anchor="middle">1.6</text>
<polygon points="291.7,462.3 311.7,462.3 311.7,482.3 291.7,482.3" fill="rgb(255,0,0)"/><polygon points="291.7,462.3 311.7,462.3 311.7,482.3 291.7,482.3" fill="none" stroke="black" stroke-width="1"/><text xml:space="preserve" x="301.7" y="475.133" font-family="Calibri" font-size="7.5" fill="rgb(255,255,255)" text-anchor="middle">2.0</text>
</svg>
