<?xml version="1.0" standalone="no"?><!DOCTYPE svg PUBLIC "-//W3C//DTD SVG 1.1//EN" "http://www.w3.org/Graphics/SVG/1.1/DTD/svg11.dtd">
<svg width="405.5" height="424.3" version="1.1" xmlns="http://www.w3.org/2000/svg">
<text xml:space="preserve" x="161.5" y="217.633" font-family="Calibri" font-size="6" text-anchor="end">Adamts12</text>
<text xml:space="preserve" x="161.5" y="223.633" font-family="Calibri" font-size="6" text-anchor="end">Lsp1</text>
<text xml:space="preserve" x="161.5" y="229.633" font-family="Calibri" font-size="6" text-anchor="end">Bgn</text>
<text xml:space="preserve" x="161.5" y="235.633" font-family="Calibri" font-size="6" text-anchor="end">Wisp2</text>
<text xml:space="preserve" x="161.5" y="241.633" font-family="Calibri" font-size="6" text-anchor="end">Sdpr</text>
<text xml:space="preserve" x="161.5" y="247.633" font-family="Calibri" font-size="6" text-anchor="end">4933417A18Rik</text>
<text xml:space="preserve" x="161.5" y="253.633" font-family="Calibri" font-size="6" text-anchor="end">Pzp</text>
<text xml:space="preserve" x="161.5" y="259.633" font-family="Calibri" font-size="6" text-anchor="end">Actl7a</text>
<text xml:space="preserve" x="161.5" y="265.633" font-family="Calibri" font-size="6" text-anchor="end">Klk6</text>
<text xml:space="preserve" x="161.5" y="271.633" font-family="Calibri" font-size="6" text-anchor="end">Napsa</text>
<text xml:space="preserve" x="161.5" y="277.633" font-family="Calibri" font-size="6" text-anchor="end">1810010M01Rik</text>
<text xml:space="preserve" x="161.5" y="283.633" font-family="Calibri" font-size="6" text-anchor="end">Cxcl10</text>
<text xml:space="preserve" x="171.833" y="208.3" font-family="Calibri" font-size="6" transform="rotate(270 171.833 208.3)">ips</text>
<text xml:space="preserve" x="179.833" y="208.3" font-family="Calibri" font-size="6" transform="rotate(270 179.833 208.3)">pips</text>
<text xml:space="preserve" x="187.833" y="208.3" font-family="Calibri" font-size="6" transform="rotate(270 187.833 208.3)">mef</text>
<text xml:space="preserve" x="204.833" y="208.3" font-family="Calibri" font-size="6" transform="rotate(270 204.833 208.3)">ips_H3K4me3iPS</text>
<text xml:space="preserve" x="210.833" y="208.3" font-family="Calibri" font-size="6" transform="rotate(270 210.833 208.3)">ips_H3K9aciPS</text>
<text xml:space="preserve" x="216.833" y="208.3" font-family="Calibri" font-size="6" transform="rotate(270 216.833 208.3)">ips_H3K14aciPS</text>
<text xml:space="preserve" x="222.833" y="208.3" font-family="Calibri" font-size="6" transform="rotate(270 222.833 208.3)">ips_H3K18aciPS</text>
<text xml:space="preserve" x="228.833" y="208.3" font-family="Calibri" font-size="6" transform="rotate(270 228.833 208.3)">ips_H3K79me2iPS</text>
<text xml:space="preserve" x="234.833" y="208.3" font-family="Calibri" font-size="6" transform="rotate(270 234.833 208.3)">ips_H3K9me2iPS</text>
<text xml:space="preserve" x="240.833" y="208.3" font-family="Calibri" font-size="6" transform="rotate(270 240.833 208.3)">ips_H3K9me3iPS</text>
<text xml:space="preserve" x="246.833" y="208.3" font-family="Calibri" font-size="6" transform="rotate(270 246.833 208.3)">ips_H3K27me3iPS</text>
<text xml:space="preserve" x="262.833" y="208.3" font-family="Calibri" font-size="6" transform="rotate(270 262.833 208.3)">pips_H3K4me3pips</text>
<text xml:space="preserve" x="268.833" y="208.3" font-family="Calibri" font-size="6" transform="rotate(270 268.833 208.3)">pips_H3K9acpips</text>
<text xml:space="preserve" x="274.833" y="208.3" font-family="Calibri" font-size="6" transform="rotate(270 274.833 208.3)">pips_H3K14acpips</text>
<text xml:space="preserve" x="280.833" y="208.3" font-family="Calibri" font-size="6" transform="rotate(270 280.833 208.3)">pips_H3K18acpips</text>
<text xml:space="preserve" x="286.833" y="208.3" font-family="Calibri" font-size="6" transform="rotate(270 286.833 208.3)">pips_H3K79me2pips</text>
<text xml:space="preserve" x="292.833" y="208.3" font-family="Calibri" font-size="6" transform="rotate(270 292.833 208.3)">pips_H3K9me2pips</text>
<text xml:space="preserve" x="298.833" y="208.3" font-family="Calibri" font-size="6" transform="rotate(270 298.833 208.3)">pips_H3K9me3pips</text>
<text xml:space="preserve" x="304.833" y="208.3" font-family="Calibri" font-size="6" transform="rotate(270 304.833 208.3)">pips_H3K27me3pips</text>
<text xml:space="preserve" x="320.833" y="208.3" font-family="Calibri" font-size="6" transform="rotate(270 320.833 208.3)">mef_H3K4me3mef</text>
<text xml:space="preserve" x="326.833" y="208.3" font-family="Calibri" font-size="6" transform="rotate(270 326.833 208.3)">mef_H3K9acmef</text>
<text xml:space="preserve" x="332.833" y="208.3" font-family="Calibri" font-size="6" transform="rotate(270 332.833 208.3)">mef_H3K14acmef</text>
<text xml:space="preserve" x="338.833" y="208.3" font-family="Calibri" font-size="6" transform="rotate(270 338.833 208.3)">mef_H3K18acmef</text>
<text xml:space="preserve" x="344.833" y="208.3" font-family="Calibri" font-size="6" transform="rotate(270 344.833 208.3)">mef_H3K79me2mef</text>
<text xml:space="preserve" x="350.833" y="208.3" font-family="Calibri" font-size="6" transform="rotate(270 350.833 208.3)">mef_H3K9me2mef</text>
<text xml:space="preserve" x="356.833" y="208.3" font-family="Calibri" font-size="6" transform="rotate(270 356.833 208.3)">mef_H3K9me3mef</text>
<text xml:space="preserve" x="362.833" y="208.3" font-family="Calibri" font-size="6" transform="rotate(270 362.833 208.3)">mef_H3K27me3mef</text>
<polygon points="165.5,212.3 173.5,212.3 173.5,218.3 165.5,218.3" fill="rgb(178,217,213)"/><text xml:space="preserve" x="169.5" y="218.133" font-family="Calibri" font-size="7.5" fill="rgb(0,0,0)" text-anchor="middle">4</text>
<polygon points="173.5,212.3 181.5,212.3 181.5,218.3 173.5,218.3" fill="rgb(178,217,213)"/><text xml:space="preserve" x="177.5" y="218.133" font-family="Calibri" font-size="7.5" fill="rgb(0,0,0)" text-anchor="middle">4</text>
<polygon points="181.5,212.3 189.5,212.3 189.5,218.3 181.5,218.3" fill="rgb(220,188,121)"/><text xml:space="preserve" x="185.5" y="218.133" font-family="Calibri" font-size="7.5" fill="rgb(0,0,0)" text-anchor="middle">13</text>
<polygon points="199.5,212.3 205.5,212.3 205.5,218.3 199.5,218.3" fill="rgb(222,222,255)"/>
<polygon points="205.5,212.3 211.5,212.3 211.5,218.3 205.5,218.3" fill="rgb(131,131,255)"/>
<polygon points="211.5,212.3 217.5,212.3 217.5,218.3 211.5,218.3" fill="rgb(216,216,255)"/>
<polygon points="217.5,212.3 223.5,212.3 223.5,218.3 217.5,218.3" fill="rgb(190,190,255)"/>
<polygon points="223.5,212.3 229.5,212.3 229.5,218.3 223.5,218.3" fill="rgb(171,171,255)"/>
<polygon points="229.5,212.3 235.5,212.3 235.5,218.3 229.5,218.3" fill="rgb(255,154,154)"/>
<polygon points="235.5,212.3 241.5,212.3 241.5,218.3 235.5,218.3" fill="rgb(255,246,246)"/>
<polygon points="241.5,212.3 247.5,212.3 247.5,218.3 241.5,218.3" fill="rgb(255,241,241)"/>
<polygon points="257.5,212.3 263.5,212.3 263.5,218.3 257.5,218.3" fill="rgb(224,224,255)"/>
<polygon points="263.5,212.3 269.5,212.3 269.5,218.3 263.5,218.3" fill="rgb(182,182,255)"/>
<polygon points="269.5,212.3 275.5,212.3 275.5,218.3 269.5,218.3" fill="rgb(255,173,173)"/>
<polygon points="275.5,212.3 281.5,212.3 281.5,218.3 275.5,218.3" fill="rgb(219,219,255)"/>
<polygon points="281.5,212.3 287.5,212.3 287.5,218.3 281.5,218.3" fill="rgb(168,168,255)"/>
<polygon points="287.5,212.3 293.5,212.3 293.5,218.3 287.5,218.3" fill="rgb(255,201,201)"/>
<polygon points="293.5,212.3 299.5,212.3 299.5,218.3 293.5,218.3" fill="rgb(255,253,253)"/>
<polygon points="299.5,212.3 305.5,212.3 305.5,218.3 299.5,218.3" fill="rgb(255,178,178)"/>
<polygon points="315.5,212.3 321.5,212.3 321.5,218.3 315.5,218.3" fill="rgb(255,182,182)"/>
<polygon points="321.5,212.3 327.5,212.3 327.5,218.3 321.5,218.3" fill="rgb(255,188,188)"/>
<polygon points="327.5,212.3 333.5,212.3 333.5,218.3 327.5,218.3" fill="rgb(255,72,72)"/>
<polygon points="333.5,212.3 339.5,212.3 339.5,218.3 333.5,218.3" fill="rgb(255,71,71)"/>
<polygon points="339.5,212.3 345.5,212.3 345.5,218.3 339.5,218.3" fill="rgb(255,231,231)"/>
<polygon points="345.5,212.3 351.5,212.3 351.5,218.3 345.5,218.3" fill="rgb(254,203,203)"/>
<polygon points="351.5,212.3 357.5,212.3 357.5,218.3 351.5,218.3" fill="rgb(255,196,196)"/>
<polygon points="357.5,212.3 363.5,212.3 363.5,218.3 357.5,218.3" fill="rgb(234,234,255)"/>
<polygon points="165.5,218.3 173.5,218.3 173.5,224.3 165.5,224.3" fill="rgb(178,217,213)"/><text xml:space="preserve" x="169.5" y="224.133" font-family="Calibri" font-size="7.5" fill="rgb(0,0,0)" text-anchor="middle">4</text>
<polygon points="173.5,218.3 181.5,218.3 181.5,224.3 173.5,224.3" fill="rgb(178,217,213)"/><text xml:space="preserve" x="177.5" y="224.133" font-family="Calibri" font-size="7.5" fill="rgb(0,0,0)" text-anchor="middle">4</text>
<polygon points="181.5,218.3 189.5,218.3 189.5,224.3 181.5,224.3" fill="rgb(220,188,121)"/><text xml:space="preserve" x="185.5" y="224.133" font-family="Calibri" font-size="7.5" fill="rgb(0,0,0)" text-anchor="middle">13</text>
<polygon points="199.5,218.3 205.5,218.3 205.5,224.3 199.5,224.3" fill="rgb(152,152,255)"/>
<polygon points="205.5,218.3 211.5,218.3 211.5,224.3 205.5,224.3" fill="rgb(179,179,255)"/>
<polygon points="211.5,218.3 217.5,218.3 217.5,224.3 211.5,224.3" fill="rgb(237,237,255)"/>
<polygon points="217.5,218.3 223.5,218.3 223.5,224.3 217.5,224.3" fill="rgb(255,249,249)"/>
<polygon points="223.5,218.3 229.5,218.3 229.5,224.3 223.5,224.3" fill="rgb(167,167,255)"/>
<polygon points="229.5,218.3 235.5,218.3 235.5,224.3 229.5,224.3" fill="rgb(255,184,184)"/>
<polygon points="235.5,218.3 241.5,218.3 241.5,224.3 235.5,224.3" fill="rgb(226,226,255)"/>
<polygon points="241.5,218.3 247.5,218.3 247.5,224.3 241.5,224.3" fill="rgb(255,208,208)"/>
<polygon points="257.5,218.3 263.5,218.3 263.5,224.3 257.5,224.3" fill="rgb(230,230,255)"/>
<polygon points="263.5,218.3 269.5,218.3 269.5,224.3 263.5,224.3" fill="rgb(206,206,255)"/>
<polygon points="269.5,218.3 275.5,218.3 275.5,224.3 269.5,224.3" fill="rgb(255,243,243)"/>
<polygon points="275.5,218.3 281.5,218.3 281.5,224.3 275.5,224.3" fill="rgb(255,223,223)"/>
<polygon points="281.5,218.3 287.5,218.3 287.5,224.3 281.5,224.3" fill="rgb(167,167,255)"/>
<polygon points="287.5,218.3 293.5,218.3 293.5,224.3 287.5,224.3" fill="rgb(245,245,255)"/>
<polygon points="293.5,218.3 299.5,218.3 299.5,224.3 293.5,224.3" fill="rgb(223,223,255)"/>
<polygon points="299.5,218.3 305.5,218.3 305.5,224.3 299.5,224.3" fill="rgb(255,254,254)"/>
<polygon points="315.5,218.3 321.5,218.3 321.5,224.3 315.5,224.3" fill="rgb(255,252,252)"/>
<polygon points="321.5,218.3 327.5,218.3 327.5,224.3 321.5,224.3" fill="rgb(255,236,236)"/>
<polygon points="327.5,218.3 333.5,218.3 333.5,224.3 327.5,224.3" fill="rgb(255,72,72)"/>
<polygon points="333.5,218.3 339.5,218.3 339.5,224.3 333.5,224.3" fill="rgb(255,0,0)"/>
<polygon points="339.5,218.3 345.5,218.3 345.5,224.3 339.5,224.3" fill="rgb(255,229,229)"/>
<polygon points="345.5,218.3 351.5,218.3 351.5,224.3 345.5,224.3" fill="rgb(254,217,217)"/>
<polygon points="351.5,218.3 357.5,218.3 357.5,224.3 351.5,224.3" fill="rgb(239,239,255)"/>
<polygon points="357.5,218.3 363.5,218.3 363.5,224.3 357.5,224.3" fill="rgb(197,197,255)"/>
<polygon points="165.5,224.3 173.5,224.3 173.5,230.3 165.5,230.3" fill="rgb(178,217,213)"/><text xml:space="preserve" x="169.5" y="230.133" font-family="Calibri" font-size="7.5" fill="rgb(0,0,0)" text-anchor="middle">4</text>
<polygon points="173.5,224.3 181.5,224.3 181.5,230.3 173.5,230.3" fill="rgb(178,217,213)"/><text xml:space="preserve" x="177.5" y="230.133" font-family="Calibri" font-size="7.5" fill="rgb(0,0,0)" text-anchor="middle">4</text>
<polygon points="181.5,224.3 189.5,224.3 189.5,230.3 181.5,230.3" fill="rgb(220,188,121)"/><text xml:space="preserve" x="185.5" y="230.133" font-family="Calibri" font-size="7.5" fill="rgb(0,0,0)" text-anchor="middle">13</text>
<polygon points="199.5,224.3 205.5,224.3 205.5,230.3 199.5,230.3" fill="rgb(211,211,255)"/>
<polygon points="205.5,224.3 211.5,224.3 211.5,230.3 205.5,230.3" fill="rgb(200,200,255)"/>
<polygon points="211.5,224.3 217.5,224.3 217.5,230.3 211.5,230.3" fill="rgb(255,216,216)"/>
<polygon points="217.5,224.3 223.5,224.3 223.5,230.3 217.5,230.3" fill="rgb(255,233,233)"/>
<polygon points="223.5,224.3 229.5,224.3 229.5,230.3 223.5,230.3" fill="rgb(178,178,255)"/>
<polygon points="229.5,224.3 235.5,224.3 235.5,230.3 229.5,230.3" fill="rgb(255,188,188)"/>
<polygon points="235.5,224.3 241.5,224.3 241.5,230.3 235.5,230.3" fill="rgb(255,224,224)"/>
<polygon points="241.5,224.3 247.5,224.3 247.5,230.3 241.5,230.3" fill="rgb(255,176,176)"/>
<polygon points="257.5,224.3 263.5,224.3 263.5,230.3 257.5,230.3" fill="rgb(182,182,255)"/>
<polygon points="263.5,224.3 269.5,224.3 269.5,230.3 263.5,230.3" fill="rgb(171,171,255)"/>
<polygon points="269.5,224.3 275.5,224.3 275.5,230.3 269.5,230.3" fill="rgb(202,202,255)"/>
<polygon points="275.5,224.3 281.5,224.3 281.5,230.3 275.5,230.3" fill="rgb(244,244,255)"/>
<polygon points="281.5,224.3 287.5,224.3 287.5,230.3 281.5,230.3" fill="rgb(176,176,255)"/>
<polygon points="287.5,224.3 293.5,224.3 293.5,230.3 287.5,230.3" fill="rgb(255,237,237)"/>
<polygon points="293.5,224.3 299.5,224.3 299.5,230.3 293.5,230.3" fill="rgb(255,238,238)"/>
<polygon points="299.5,224.3 305.5,224.3 305.5,230.3 299.5,230.3" fill="rgb(255,171,171)"/>
<polygon points="315.5,224.3 321.5,224.3 321.5,230.3 315.5,230.3" fill="rgb(255,203,203)"/>
<polygon points="321.5,224.3 327.5,224.3 327.5,230.3 321.5,230.3" fill="rgb(255,251,251)"/>
<polygon points="327.5,224.3 333.5,224.3 333.5,230.3 327.5,230.3" fill="rgb(255,133,133)"/>
<polygon points="333.5,224.3 339.5,224.3 339.5,230.3 333.5,230.3" fill="rgb(255,2,2)"/>
<polygon points="339.5,224.3 345.5,224.3 345.5,230.3 339.5,230.3" fill="rgb(255,233,233)"/>
<polygon points="345.5,224.3 351.5,224.3 351.5,230.3 345.5,230.3" fill="rgb(255,248,248)"/>
<polygon points="351.5,224.3 357.5,224.3 357.5,230.3 351.5,230.3" fill="rgb(208,208,255)"/>
<polygon points="357.5,224.3 363.5,224.3 363.5,230.3 357.5,230.3" fill="rgb(255,221,221)"/>
<polygon points="165.5,230.3 173.5,230.3 173.5,236.3 165.5,236.3" fill="rgb(178,217,213)"/><text xml:space="preserve" x="169.5" y="236.133" font-family="Calibri" font-size="7.5" fill="rgb(0,0,0)" text-anchor="middle">4</text>
<polygon points="173.5,230.3 181.5,230.3 181.5,236.3 173.5,236.3" fill="rgb(178,217,213)"/><text xml:space="preserve" x="177.5" y="236.133" font-family="Calibri" font-size="7.5" fill="rgb(0,0,0)" text-anchor="middle">4</text>
<polygon points="181.5,230.3 189.5,230.3 189.5,236.3 181.5,236.3" fill="rgb(220,188,121)"/><text xml:space="preserve" x="185.5" y="236.133" font-family="Calibri" font-size="7.5" fill="rgb(0,0,0)" text-anchor="middle">13</text>
<polygon points="199.5,230.3 205.5,230.3 205.5,236.3 199.5,236.3" fill="rgb(186,186,255)"/>
<polygon points="205.5,230.3 211.5,230.3 211.5,236.3 205.5,236.3" fill="rgb(202,202,255)"/>
<polygon points="211.5,230.3 217.5,230.3 217.5,236.3 211.5,236.3" fill="rgb(245,245,255)"/>
<polygon points="217.5,230.3 223.5,230.3 223.5,236.3 217.5,236.3" fill="rgb(210,210,255)"/>
<polygon points="223.5,230.3 229.5,230.3 229.5,236.3 223.5,236.3" fill="rgb(217,217,255)"/>
<polygon points="229.5,230.3 235.5,230.3 235.5,236.3 229.5,236.3" fill="rgb(255,168,168)"/>
<polygon points="235.5,230.3 241.5,230.3 241.5,236.3 235.5,236.3" fill="rgb(255,240,240)"/>
<polygon points="241.5,230.3 247.5,230.3 247.5,236.3 241.5,236.3" fill="rgb(237,237,255)"/>
<polygon points="257.5,230.3 263.5,230.3 263.5,236.3 257.5,236.3" fill="rgb(207,207,255)"/>
<polygon points="263.5,230.3 269.5,230.3 269.5,236.3 263.5,236.3" fill="rgb(225,225,255)"/>
<polygon points="269.5,230.3 275.5,230.3 275.5,236.3 269.5,236.3" fill="rgb(245,245,255)"/>
<polygon points="275.5,230.3 281.5,230.3 281.5,236.3 275.5,236.3" fill="rgb(211,211,255)"/>
<polygon points="281.5,230.3 287.5,230.3 287.5,236.3 281.5,236.3" fill="rgb(187,187,255)"/>
<polygon points="287.5,230.3 293.5,230.3 293.5,236.3 287.5,236.3" fill="rgb(187,187,255)"/>
<polygon points="293.5,230.3 299.5,230.3 299.5,236.3 293.5,236.3" fill="rgb(255,217,217)"/>
<polygon points="299.5,230.3 305.5,230.3 305.5,236.3 299.5,236.3" fill="rgb(255,212,212)"/>
<polygon points="315.5,230.3 321.5,230.3 321.5,236.3 315.5,236.3" fill="rgb(255,179,179)"/>
<polygon points="321.5,230.3 327.5,230.3 327.5,236.3 321.5,236.3" fill="rgb(255,198,198)"/>
<polygon points="327.5,230.3 333.5,230.3 333.5,236.3 327.5,236.3" fill="rgb(255,81,81)"/>
<polygon points="333.5,230.3 339.5,230.3 339.5,236.3 333.5,236.3" fill="rgb(255,0,0)"/>
<polygon points="339.5,230.3 345.5,230.3 345.5,236.3 339.5,236.3" fill="rgb(255,246,246)"/>
<polygon points="345.5,230.3 351.5,230.3 351.5,236.3 345.5,236.3" fill="rgb(255,221,221)"/>
<polygon points="351.5,230.3 357.5,230.3 357.5,236.3 351.5,236.3" fill="rgb(255,254,254)"/>
<polygon points="357.5,230.3 363.5,230.3 363.5,236.3 357.5,236.3" fill="rgb(245,245,255)"/>
<polygon points="165.5,236.3 173.5,236.3 173.5,242.3 165.5,242.3" fill="rgb(178,217,213)"/><text xml:space="preserve" x="169.5" y="242.133" font-family="Calibri" font-size="7.5" fill="rgb(0,0,0)" text-anchor="middle">4</text>
<polygon points="173.5,236.3 181.5,236.3 181.5,242.3 173.5,242.3" fill="rgb(178,217,213)"/><text xml:space="preserve" x="177.5" y="242.133" font-family="Calibri" font-size="7.5" fill="rgb(0,0,0)" text-anchor="middle">4</text>
<polygon points="181.5,236.3 189.5,236.3 189.5,242.3 181.5,242.3" fill="rgb(220,188,121)"/><text xml:space="preserve" x="185.5" y="242.133" font-family="Calibri" font-size="7.5" fill="rgb(0,0,0)" text-anchor="middle">13</text>
<polygon points="199.5,236.3 205.5,236.3 205.5,242.3 199.5,242.3" fill="rgb(232,232,255)"/>
<polygon points="205.5,236.3 211.5,236.3 211.5,242.3 205.5,242.3" fill="rgb(147,147,255)"/>
<polygon points="211.5,236.3 217.5,236.3 217.5,242.3 211.5,242.3" fill="rgb(207,207,255)"/>
<polygon points="217.5,236.3 223.5,236.3 223.5,242.3 217.5,242.3" fill="rgb(163,163,255)"/>
<polygon points="223.5,236.3 229.5,236.3 229.5,242.3 223.5,242.3" fill="rgb(206,206,255)"/>
<polygon points="229.5,236.3 235.5,236.3 235.5,242.3 229.5,242.3" fill="rgb(255,143,143)"/>
<polygon points="235.5,236.3 241.5,236.3 241.5,242.3 235.5,242.3" fill="rgb(253,253,255)"/>
<polygon points="241.5,236.3 247.5,236.3 247.5,242.3 241.5,242.3" fill="rgb(255,244,244)"/>
<polygon points="257.5,236.3 263.5,236.3 263.5,242.3 257.5,242.3" fill="rgb(210,210,255)"/>
<polygon points="263.5,236.3 269.5,236.3 269.5,242.3 263.5,242.3" fill="rgb(183,183,255)"/>
<polygon points="269.5,236.3 275.5,236.3 275.5,242.3 269.5,242.3" fill="rgb(255,234,234)"/>
<polygon points="275.5,236.3 281.5,236.3 281.5,242.3 275.5,242.3" fill="rgb(211,211,255)"/>
<polygon points="281.5,236.3 287.5,236.3 287.5,242.3 281.5,242.3" fill="rgb(193,193,255)"/>
<polygon points="287.5,236.3 293.5,236.3 293.5,242.3 287.5,242.3" fill="rgb(255,146,146)"/>
<polygon points="293.5,236.3 299.5,236.3 299.5,242.3 293.5,242.3" fill="rgb(247,247,255)"/>
<polygon points="299.5,236.3 305.5,236.3 305.5,242.3 299.5,242.3" fill="rgb(255,252,252)"/>
<polygon points="315.5,236.3 321.5,236.3 321.5,242.3 315.5,242.3" fill="rgb(255,154,154)"/>
<polygon points="321.5,236.3 327.5,236.3 327.5,242.3 321.5,242.3" fill="rgb(255,187,187)"/>
<polygon points="327.5,236.3 333.5,236.3 333.5,242.3 327.5,242.3" fill="rgb(255,122,122)"/>
<polygon points="333.5,236.3 339.5,236.3 339.5,242.3 333.5,242.3" fill="rgb(255,65,65)"/>
<polygon points="339.5,236.3 345.5,236.3 345.5,242.3 339.5,242.3" fill="rgb(255,201,201)"/>
<polygon points="345.5,236.3 351.5,236.3 351.5,242.3 345.5,242.3" fill="rgb(255,213,213)"/>
<polygon points="351.5,236.3 357.5,236.3 357.5,242.3 351.5,242.3" fill="rgb(205,205,255)"/>
<polygon points="357.5,236.3 363.5,236.3 363.5,242.3 357.5,242.3" fill="rgb(198,198,255)"/>
<polygon points="165.5,242.3 173.5,242.3 173.5,248.3 165.5,248.3" fill="rgb(178,217,213)"/><text xml:space="preserve" x="169.5" y="248.133" font-family="Calibri" font-size="7.5" fill="rgb(0,0,0)" text-anchor="middle">4</text>
<polygon points="173.5,242.3 181.5,242.3 181.5,248.3 173.5,248.3" fill="rgb(178,217,213)"/><text xml:space="preserve" x="177.5" y="248.133" font-family="Calibri" font-size="7.5" fill="rgb(0,0,0)" text-anchor="middle">4</text>
<polygon points="181.5,242.3 189.5,242.3 189.5,248.3 181.5,248.3" fill="rgb(224,197,142)"/><text xml:space="preserve" x="185.5" y="248.133" font-family="Calibri" font-size="7.5" fill="rgb(0,0,0)" text-anchor="middle">12</text>
<polygon points="199.5,242.3 205.5,242.3 205.5,248.3 199.5,248.3" fill="rgb(151,151,255)"/>
<polygon points="205.5,242.3 211.5,242.3 211.5,248.3 205.5,248.3" fill="rgb(207,207,255)"/>
<polygon points="211.5,242.3 217.5,242.3 217.5,248.3 211.5,248.3" fill="rgb(255,245,245)"/>
<polygon points="217.5,242.3 223.5,242.3 223.5,248.3 217.5,248.3" fill="rgb(255,187,187)"/>
<polygon points="223.5,242.3 229.5,242.3 229.5,248.3 223.5,248.3" fill="rgb(188,188,255)"/>
<polygon points="229.5,242.3 235.5,242.3 235.5,248.3 229.5,248.3" fill="rgb(255,212,212)"/>
<polygon points="235.5,242.3 241.5,242.3 241.5,248.3 235.5,248.3" fill="rgb(213,213,255)"/>
<polygon points="241.5,242.3 247.5,242.3 247.5,248.3 241.5,248.3" fill="rgb(244,244,255)"/>
<polygon points="257.5,242.3 263.5,242.3 263.5,248.3 257.5,248.3" fill="rgb(194,194,255)"/>
<polygon points="263.5,242.3 269.5,242.3 269.5,248.3 263.5,248.3" fill="rgb(171,171,255)"/>
<polygon points="269.5,242.3 275.5,242.3 275.5,248.3 269.5,248.3" fill="rgb(245,245,255)"/>
<polygon points="275.5,242.3 281.5,242.3 281.5,248.3 275.5,248.3" fill="rgb(221,221,255)"/>
<polygon points="281.5,242.3 287.5,242.3 287.5,248.3 281.5,248.3" fill="rgb(172,172,255)"/>
<polygon points="287.5,242.3 293.5,242.3 293.5,248.3 287.5,248.3" fill="rgb(255,198,198)"/>
<polygon points="293.5,242.3 299.5,242.3 299.5,248.3 293.5,248.3" fill="rgb(255,238,238)"/>
<polygon points="299.5,242.3 305.5,242.3 305.5,248.3 299.5,248.3" fill="rgb(231,231,255)"/>
<polygon points="315.5,242.3 321.5,242.3 321.5,248.3 315.5,248.3" fill="rgb(126,126,255)"/>
<polygon points="321.5,242.3 327.5,242.3 327.5,248.3 321.5,248.3" fill="rgb(159,159,255)"/>
<polygon points="327.5,242.3 333.5,242.3 333.5,248.3 327.5,248.3" fill="rgb(217,217,255)"/>
<polygon points="333.5,242.3 339.5,242.3 339.5,248.3 333.5,248.3" fill="rgb(95,95,255)"/>
<polygon points="339.5,242.3 345.5,242.3 345.5,248.3 339.5,248.3" fill="rgb(160,160,255)"/>
<polygon points="345.5,242.3 351.5,242.3 351.5,248.3 345.5,248.3" fill="rgb(255,192,192)"/>
<polygon points="351.5,242.3 357.5,242.3 357.5,248.3 351.5,248.3" fill="rgb(255,242,242)"/>
<polygon points="357.5,242.3 363.5,242.3 363.5,248.3 357.5,248.3" fill="rgb(255,198,198)"/>
<polygon points="165.5,248.3 173.5,248.3 173.5,254.3 165.5,254.3" fill="rgb(178,217,213)"/><text xml:space="preserve" x="169.5" y="254.133" font-family="Calibri" font-size="7.5" fill="rgb(0,0,0)" text-anchor="middle">4</text>
<polygon points="173.5,248.3 181.5,248.3 181.5,254.3 173.5,254.3" fill="rgb(178,217,213)"/><text xml:space="preserve" x="177.5" y="254.133" font-family="Calibri" font-size="7.5" fill="rgb(0,0,0)" text-anchor="middle">4</text>
<polygon points="181.5,248.3 189.5,248.3 189.5,254.3 181.5,254.3" fill="rgb(224,197,142)"/><text xml:space="preserve" x="185.5" y="254.133" font-family="Calibri" font-size="7.5" fill="rgb(0,0,0)" text-anchor="middle">12</text>
<polygon points="199.5,248.3 205.5,248.3 205.5,254.3 199.5,254.3" fill="rgb(151,151,255)"/>
<polygon points="205.5,248.3 211.5,248.3 211.5,254.3 205.5,254.3" fill="rgb(186,186,255)"/>
<polygon points="211.5,248.3 217.5,248.3 217.5,254.3 211.5,254.3" fill="rgb(196,196,255)"/>
<polygon points="217.5,248.3 223.5,248.3 223.5,254.3 217.5,254.3" fill="rgb(183,183,255)"/>
<polygon points="223.5,248.3 229.5,248.3 229.5,254.3 223.5,254.3" fill="rgb(201,201,255)"/>
<polygon points="229.5,248.3 235.5,248.3 235.5,254.3 229.5,254.3" fill="rgb(255,135,135)"/>
<polygon points="235.5,248.3 241.5,248.3 241.5,254.3 235.5,254.3" fill="rgb(255,208,208)"/>
<polygon points="241.5,248.3 247.5,248.3 247.5,254.3 241.5,254.3" fill="rgb(186,186,255)"/>
<polygon points="257.5,248.3 263.5,248.3 263.5,254.3 257.5,254.3" fill="rgb(203,203,255)"/>
<polygon points="263.5,248.3 269.5,248.3 269.5,254.3 263.5,254.3" fill="rgb(206,206,255)"/>
<polygon points="269.5,248.3 275.5,248.3 275.5,254.3 269.5,254.3" fill="rgb(255,240,240)"/>
<polygon points="275.5,248.3 281.5,248.3 281.5,254.3 275.5,254.3" fill="rgb(192,192,255)"/>
<polygon points="281.5,248.3 287.5,248.3 287.5,254.3 281.5,254.3" fill="rgb(202,202,255)"/>
<polygon points="287.5,248.3 293.5,248.3 293.5,254.3 287.5,254.3" fill="rgb(255,174,174)"/>
<polygon points="293.5,248.3 299.5,248.3 299.5,254.3 293.5,254.3" fill="rgb(255,156,156)"/>
<polygon points="299.5,248.3 305.5,248.3 305.5,254.3 299.5,254.3" fill="rgb(255,174,174)"/>
<polygon points="315.5,248.3 321.5,248.3 321.5,254.3 315.5,254.3" fill="rgb(143,143,255)"/>
<polygon points="321.5,248.3 327.5,248.3 327.5,254.3 321.5,254.3" fill="rgb(166,166,255)"/>
<polygon points="327.5,248.3 333.5,248.3 333.5,254.3 327.5,254.3" fill="rgb(233,233,255)"/>
<polygon points="333.5,248.3 339.5,248.3 339.5,254.3 333.5,254.3" fill="rgb(116,116,255)"/>
<polygon points="339.5,248.3 345.5,248.3 345.5,254.3 339.5,254.3" fill="rgb(182,182,255)"/>
<polygon points="345.5,248.3 351.5,248.3 351.5,254.3 345.5,254.3" fill="rgb(255,195,195)"/>
<polygon points="351.5,248.3 357.5,248.3 357.5,254.3 351.5,254.3" fill="rgb(255,162,162)"/>
<polygon points="357.5,248.3 363.5,248.3 363.5,254.3 357.5,254.3" fill="rgb(223,223,255)"/>
<polygon points="165.5,254.3 173.5,254.3 173.5,260.3 165.5,260.3" fill="rgb(178,217,213)"/><text xml:space="preserve" x="169.5" y="260.133" font-family="Calibri" font-size="7.5" fill="rgb(0,0,0)" text-anchor="middle">4</text>
<polygon points="173.5,254.3 181.5,254.3 181.5,260.3 173.5,260.3" fill="rgb(178,217,213)"/><text xml:space="preserve" x="177.5" y="260.133" font-family="Calibri" font-size="7.5" fill="rgb(0,0,0)" text-anchor="middle">4</text>
<polygon points="181.5,254.3 189.5,254.3 189.5,260.3 181.5,260.3" fill="rgb(224,197,142)"/><text xml:space="preserve" x="185.5" y="260.133" font-family="Calibri" font-size="7.5" fill="rgb(0,0,0)" text-anchor="middle">12</text>
<polygon points="199.5,254.3 205.5,254.3 205.5,260.3 199.5,260.3" fill="rgb(170,170,255)"/>
<polygon points="205.5,254.3 211.5,254.3 211.5,260.3 205.5,260.3" fill="rgb(195,195,255)"/>
<polygon points="211.5,254.3 217.5,254.3 217.5,260.3 211.5,260.3" fill="rgb(255,243,243)"/>
<polygon points="217.5,254.3 223.5,254.3 223.5,260.3 217.5,260.3" fill="rgb(234,234,255)"/>
<polygon points="223.5,254.3 229.5,254.3 229.5,260.3 223.5,260.3" fill="rgb(219,219,255)"/>
<polygon points="229.5,254.3 235.5,254.3 235.5,260.3 229.5,260.3" fill="rgb(255,69,69)"/>
<polygon points="235.5,254.3 241.5,254.3 241.5,260.3 235.5,260.3" fill="rgb(255,220,220)"/>
<polygon points="241.5,254.3 247.5,254.3 247.5,260.3 241.5,260.3" fill="rgb(169,169,255)"/>
<polygon points="257.5,254.3 263.5,254.3 263.5,260.3 257.5,260.3" fill="rgb(178,178,255)"/>
<polygon points="263.5,254.3 269.5,254.3 269.5,260.3 263.5,260.3" fill="rgb(194,194,255)"/>
<polygon points="269.5,254.3 275.5,254.3 275.5,260.3 269.5,260.3" fill="rgb(211,211,255)"/>
<polygon points="275.5,254.3 281.5,254.3 281.5,260.3 275.5,260.3" fill="rgb(168,168,255)"/>
<polygon points="281.5,254.3 287.5,254.3 287.5,260.3 281.5,260.3" fill="rgb(183,183,255)"/>
<polygon points="287.5,254.3 293.5,254.3 293.5,260.3 287.5,260.3" fill="rgb(255,234,234)"/>
<polygon points="293.5,254.3 299.5,254.3 299.5,260.3 293.5,260.3" fill="rgb(184,184,255)"/>
<polygon points="299.5,254.3 305.5,254.3 305.5,260.3 299.5,260.3" fill="rgb(255,252,252)"/>
<polygon points="315.5,254.3 321.5,254.3 321.5,260.3 315.5,260.3" fill="rgb(122,122,255)"/>
<polygon points="321.5,254.3 327.5,254.3 327.5,260.3 321.5,260.3" fill="rgb(170,170,255)"/>
<polygon points="327.5,254.3 333.5,254.3 333.5,260.3 327.5,260.3" fill="rgb(163,163,255)"/>
<polygon points="333.5,254.3 339.5,254.3 339.5,260.3 333.5,260.3" fill="rgb(154,154,255)"/>
<polygon points="339.5,254.3 345.5,254.3 345.5,260.3 339.5,260.3" fill="rgb(183,183,255)"/>
<polygon points="345.5,254.3 351.5,254.3 351.5,260.3 345.5,260.3" fill="rgb(255,153,153)"/>
<polygon points="351.5,254.3 357.5,254.3 357.5,260.3 351.5,260.3" fill="rgb(235,235,255)"/>
<polygon points="357.5,254.3 363.5,254.3 363.5,260.3 357.5,260.3" fill="rgb(157,157,255)"/>
<polygon points="165.5,260.3 173.5,260.3 173.5,266.3 165.5,266.3" fill="rgb(178,217,213)"/><text xml:space="preserve" x="169.5" y="266.133" font-family="Calibri" font-size="7.5" fill="rgb(0,0,0)" text-anchor="middle">4</text>
<polygon points="173.5,260.3 181.5,260.3 181.5,266.3 173.5,266.3" fill="rgb(178,217,213)"/><text xml:space="preserve" x="177.5" y="266.133" font-family="Calibri" font-size="7.5" fill="rgb(0,0,0)" text-anchor="middle">4</text>
<polygon points="181.5,260.3 189.5,260.3 189.5,266.3 181.5,266.3" fill="rgb(224,197,142)"/><text xml:space="preserve" x="185.5" y="266.133" font-family="Calibri" font-size="7.5" fill="rgb(0,0,0)" text-anchor="middle">12</text>
<polygon points="199.5,260.3 205.5,260.3 205.5,266.3 199.5,266.3" fill="rgb(157,157,255)"/>
<polygon points="205.5,260.3 211.5,260.3 211.5,266.3 205.5,266.3" fill="rgb(209,209,255)"/>
<polygon points="211.5,260.3 217.5,260.3 217.5,266.3 211.5,266.3" fill="rgb(255,190,190)"/>
<polygon points="217.5,260.3 223.5,260.3 223.5,266.3 217.5,266.3" fill="rgb(232,232,255)"/>
<polygon points="223.5,260.3 229.5,260.3 229.5,266.3 223.5,266.3" fill="rgb(195,195,255)"/>
<polygon points="229.5,260.3 235.5,260.3 235.5,266.3 229.5,266.3" fill="rgb(255,148,148)"/>
<polygon points="235.5,260.3 241.5,260.3 241.5,266.3 235.5,266.3" fill="rgb(255,180,180)"/>
<polygon points="241.5,260.3 247.5,260.3 247.5,266.3 241.5,266.3" fill="rgb(255,177,177)"/>
<polygon points="257.5,260.3 263.5,260.3 263.5,266.3 257.5,266.3" fill="rgb(237,237,255)"/>
<polygon points="263.5,260.3 269.5,260.3 269.5,266.3 263.5,266.3" fill="rgb(206,206,255)"/>
<polygon points="269.5,260.3 275.5,260.3 275.5,266.3 269.5,266.3" fill="rgb(255,206,206)"/>
<polygon points="275.5,260.3 281.5,260.3 281.5,266.3 275.5,266.3" fill="rgb(194,194,255)"/>
<polygon points="281.5,260.3 287.5,260.3 287.5,266.3 281.5,266.3" fill="rgb(185,185,255)"/>
<polygon points="287.5,260.3 293.5,260.3 293.5,266.3 287.5,266.3" fill="rgb(255,238,238)"/>
<polygon points="293.5,260.3 299.5,260.3 299.5,266.3 293.5,266.3" fill="rgb(255,217,217)"/>
<polygon points="299.5,260.3 305.5,260.3 305.5,266.3 299.5,266.3" fill="rgb(255,197,197)"/>
<polygon points="315.5,260.3 321.5,260.3 321.5,266.3 315.5,266.3" fill="rgb(129,129,255)"/>
<polygon points="321.5,260.3 327.5,260.3 327.5,266.3 321.5,266.3" fill="rgb(127,127,255)"/>
<polygon points="327.5,260.3 333.5,260.3 333.5,266.3 327.5,266.3" fill="rgb(229,229,255)"/>
<polygon points="333.5,260.3 339.5,260.3 339.5,266.3 333.5,266.3" fill="rgb(107,107,255)"/>
<polygon points="339.5,260.3 345.5,260.3 345.5,266.3 339.5,266.3" fill="rgb(173,173,255)"/>
<polygon points="345.5,260.3 351.5,260.3 351.5,266.3 345.5,266.3" fill="rgb(255,230,230)"/>
<polygon points="351.5,260.3 357.5,260.3 357.5,266.3 351.5,266.3" fill="rgb(255,241,241)"/>
<polygon points="357.5,260.3 363.5,260.3 363.5,266.3 357.5,266.3" fill="rgb(255,243,243)"/>
<polygon points="165.5,266.3 173.5,266.3 173.5,272.3 165.5,272.3" fill="rgb(178,217,213)"/><text xml:space="preserve" x="169.5" y="272.133" font-family="Calibri" font-size="7.5" fill="rgb(0,0,0)" text-anchor="middle">4</text>
<polygon points="173.5,266.3 181.5,266.3 181.5,272.3 173.5,272.3" fill="rgb(178,217,213)"/><text xml:space="preserve" x="177.5" y="272.133" font-family="Calibri" font-size="7.5" fill="rgb(0,0,0)" text-anchor="middle">4</text>
<polygon points="181.5,266.3 189.5,266.3 189.5,272.3 181.5,272.3" fill="rgb(224,197,142)"/><text xml:space="preserve" x="185.5" y="272.133" font-family="Calibri" font-size="7.5" fill="rgb(0,0,0)" text-anchor="middle">12</text>
<polygon points="199.5,266.3 205.5,266.3 205.5,272.3 199.5,272.3" fill="rgb(168,168,255)"/>
<polygon points="205.5,266.3 211.5,266.3 211.5,272.3 205.5,272.3" fill="rgb(223,223,255)"/>
<polygon points="211.5,266.3 217.5,266.3 217.5,272.3 211.5,272.3" fill="rgb(255,188,188)"/>
<polygon points="217.5,266.3 223.5,266.3 223.5,272.3 217.5,272.3" fill="rgb(255,212,212)"/>
<polygon points="223.5,266.3 229.5,266.3 229.5,272.3 223.5,272.3" fill="rgb(144,144,255)"/>
<polygon points="229.5,266.3 235.5,266.3 235.5,272.3 229.5,272.3" fill="rgb(202,202,255)"/>
<polygon points="235.5,266.3 241.5,266.3 241.5,272.3 235.5,272.3" fill="rgb(205,205,255)"/>
<polygon points="241.5,266.3 247.5,266.3 247.5,272.3 241.5,272.3" fill="rgb(252,252,255)"/>
<polygon points="257.5,266.3 263.5,266.3 263.5,272.3 257.5,272.3" fill="rgb(238,238,255)"/>
<polygon points="263.5,266.3 269.5,266.3 269.5,272.3 263.5,272.3" fill="rgb(199,199,255)"/>
<polygon points="269.5,266.3 275.5,266.3 275.5,272.3 269.5,272.3" fill="rgb(255,251,251)"/>
<polygon points="275.5,266.3 281.5,266.3 281.5,272.3 275.5,272.3" fill="rgb(255,244,244)"/>
<polygon points="281.5,266.3 287.5,266.3 287.5,272.3 281.5,272.3" fill="rgb(144,144,255)"/>
<polygon points="287.5,266.3 293.5,266.3 293.5,272.3 287.5,272.3" fill="rgb(53,53,255)"/>
<polygon points="293.5,266.3 299.5,266.3 299.5,272.3 293.5,272.3" fill="rgb(195,195,255)"/>
<polygon points="299.5,266.3 305.5,266.3 305.5,272.3 299.5,272.3" fill="rgb(255,157,157)"/>
<polygon points="315.5,266.3 321.5,266.3 321.5,272.3 315.5,272.3" fill="rgb(123,123,255)"/>
<polygon points="321.5,266.3 327.5,266.3 327.5,272.3 321.5,272.3" fill="rgb(142,142,255)"/>
<polygon points="327.5,266.3 333.5,266.3 333.5,272.3 327.5,272.3" fill="rgb(169,169,255)"/>
<polygon points="333.5,266.3 339.5,266.3 339.5,272.3 333.5,272.3" fill="rgb(105,105,255)"/>
<polygon points="339.5,266.3 345.5,266.3 345.5,272.3 339.5,272.3" fill="rgb(134,134,255)"/>
<polygon points="345.5,266.3 351.5,266.3 351.5,272.3 345.5,272.3" fill="rgb(210,210,255)"/>
<polygon points="351.5,266.3 357.5,266.3 357.5,272.3 351.5,272.3" fill="rgb(198,198,255)"/>
<polygon points="357.5,266.3 363.5,266.3 363.5,272.3 357.5,272.3" fill="rgb(255,184,184)"/>
<polygon points="165.5,272.3 173.5,272.3 173.5,278.3 165.5,278.3" fill="rgb(178,217,213)"/><text xml:space="preserve" x="169.5" y="278.133" font-family="Calibri" font-size="7.5" fill="rgb(0,0,0)" text-anchor="middle">4</text>
<polygon points="173.5,272.3 181.5,272.3 181.5,278.3 173.5,278.3" fill="rgb(178,217,213)"/><text xml:space="preserve" x="177.5" y="278.133" font-family="Calibri" font-size="7.5" fill="rgb(0,0,0)" text-anchor="middle">4</text>
<polygon points="181.5,272.3 189.5,272.3 189.5,278.3 181.5,278.3" fill="rgb(224,197,142)"/><text xml:space="preserve" x="185.5" y="278.133" font-family="Calibri" font-size="7.5" fill="rgb(0,0,0)" text-anchor="middle">12</text>
<polygon points="199.5,272.3 205.5,272.3 205.5,278.3 199.5,278.3" fill="rgb(147,147,255)"/>
<polygon points="205.5,272.3 211.5,272.3 211.5,278.3 205.5,278.3" fill="rgb(212,212,255)"/>
<polygon points="211.5,272.3 217.5,272.3 217.5,278.3 211.5,278.3" fill="rgb(255,238,238)"/>
<polygon points="217.5,272.3 223.5,272.3 223.5,278.3 217.5,278.3" fill="rgb(218,218,255)"/>
<polygon points="223.5,272.3 229.5,272.3 229.5,278.3 223.5,278.3" fill="rgb(162,162,255)"/>
<polygon points="229.5,272.3 235.5,272.3 235.5,278.3 229.5,278.3" fill="rgb(228,228,255)"/>
<polygon points="235.5,272.3 241.5,272.3 241.5,278.3 235.5,278.3" fill="rgb(255,223,223)"/>
<polygon points="241.5,272.3 247.5,272.3 247.5,278.3 241.5,278.3" fill="rgb(255,152,152)"/>
<polygon points="257.5,272.3 263.5,272.3 263.5,278.3 257.5,278.3" fill="rgb(209,209,255)"/>
<polygon points="263.5,272.3 269.5,272.3 269.5,278.3 263.5,278.3" fill="rgb(207,207,255)"/>
<polygon points="269.5,272.3 275.5,272.3 275.5,278.3 269.5,278.3" fill="rgb(255,203,203)"/>
<polygon points="275.5,272.3 281.5,272.3 281.5,278.3 275.5,278.3" fill="rgb(255,250,250)"/>
<polygon points="281.5,272.3 287.5,272.3 287.5,278.3 281.5,278.3" fill="rgb(164,164,255)"/>
<polygon points="287.5,272.3 293.5,272.3 293.5,278.3 287.5,278.3" fill="rgb(255,242,242)"/>
<polygon points="293.5,272.3 299.5,272.3 299.5,278.3 293.5,278.3" fill="rgb(255,225,225)"/>
<polygon points="299.5,272.3 305.5,272.3 305.5,278.3 299.5,278.3" fill="rgb(255,174,174)"/>
<polygon points="315.5,272.3 321.5,272.3 321.5,278.3 315.5,278.3" fill="rgb(130,130,255)"/>
<polygon points="321.5,272.3 327.5,272.3 327.5,278.3 321.5,278.3" fill="rgb(175,175,255)"/>
<polygon points="327.5,272.3 333.5,272.3 333.5,278.3 327.5,278.3" fill="rgb(188,188,255)"/>
<polygon points="333.5,272.3 339.5,272.3 339.5,278.3 333.5,278.3" fill="rgb(131,131,255)"/>
<polygon points="339.5,272.3 345.5,272.3 345.5,278.3 339.5,278.3" fill="rgb(130,130,255)"/>
<polygon points="345.5,272.3 351.5,272.3 351.5,278.3 345.5,278.3" fill="rgb(255,193,193)"/>
<polygon points="351.5,272.3 357.5,272.3 357.5,278.3 351.5,278.3" fill="rgb(255,176,176)"/>
<polygon points="357.5,272.3 363.5,272.3 363.5,278.3 357.5,278.3" fill="rgb(255,84,84)"/>
<polygon points="165.5,278.3 173.5,278.3 173.5,284.3 165.5,284.3" fill="rgb(178,217,213)"/><text xml:space="preserve" x="169.5" y="284.133" font-family="Calibri" font-size="7.5" fill="rgb(0,0,0)" text-anchor="middle">4</text>
<polygon points="173.5,278.3 181.5,278.3 181.5,284.3 173.5,284.3" fill="rgb(178,217,213)"/><text xml:space="preserve" x="177.5" y="284.133" font-family="Calibri" font-size="7.5" fill="rgb(0,0,0)" text-anchor="middle">4</text>
<polygon points="181.5,278.3 189.5,278.3 189.5,284.3 181.5,284.3" fill="rgb(228,207,162)"/><text xml:space="preserve" x="185.5" y="284.133" font-family="Calibri" font-size="7.5" fill="rgb(0,0,0)" text-anchor="middle">11</text>
<polygon points="199.5,278.3 205.5,278.3 205.5,284.3 199.5,284.3" fill="rgb(211,211,255)"/>
<polygon points="205.5,278.3 211.5,278.3 211.5,284.3 205.5,284.3" fill="rgb(165,165,255)"/>
<polygon points="211.5,278.3 217.5,278.3 217.5,284.3 211.5,284.3" fill="rgb(255,245,245)"/>
<polygon points="217.5,278.3 223.5,278.3 223.5,284.3 217.5,284.3" fill="rgb(243,243,255)"/>
<polygon points="223.5,278.3 229.5,278.3 229.5,284.3 223.5,284.3" fill="rgb(195,195,255)"/>
<polygon points="229.5,278.3 235.5,278.3 235.5,284.3 229.5,284.3" fill="rgb(254,245,245)"/>
<polygon points="235.5,278.3 241.5,278.3 241.5,284.3 235.5,284.3" fill="rgb(254,212,212)"/>
<polygon points="241.5,278.3 247.5,278.3 247.5,284.3 241.5,284.3" fill="rgb(255,163,163)"/>
<polygon points="257.5,278.3 263.5,278.3 263.5,284.3 257.5,284.3" fill="rgb(197,197,255)"/>
<polygon points="263.5,278.3 269.5,278.3 269.5,284.3 263.5,284.3" fill="rgb(178,178,255)"/>
<polygon points="269.5,278.3 275.5,278.3 275.5,284.3 269.5,284.3" fill="rgb(255,243,243)"/>
<polygon points="275.5,278.3 281.5,278.3 281.5,284.3 275.5,284.3" fill="rgb(189,189,255)"/>
<polygon points="281.5,278.3 287.5,278.3 287.5,284.3 281.5,284.3" fill="rgb(176,176,255)"/>
<polygon points="287.5,278.3 293.5,278.3 293.5,284.3 287.5,284.3" fill="rgb(239,239,255)"/>
<polygon points="293.5,278.3 299.5,278.3 299.5,284.3 293.5,284.3" fill="rgb(255,150,150)"/>
<polygon points="299.5,278.3 305.5,278.3 305.5,284.3 299.5,284.3" fill="rgb(255,213,213)"/>
<polygon points="315.5,278.3 321.5,278.3 321.5,284.3 315.5,284.3" fill="rgb(255,244,244)"/>
<polygon points="321.5,278.3 327.5,278.3 327.5,284.3 321.5,284.3" fill="rgb(200,200,255)"/>
<polygon points="327.5,278.3 333.5,278.3 333.5,284.3 327.5,284.3" fill="rgb(255,232,232)"/>
<polygon points="333.5,278.3 339.5,278.3 339.5,284.3 333.5,284.3" fill="rgb(255,239,239)"/>
<polygon points="339.5,278.3 345.5,278.3 345.5,284.3 339.5,284.3" fill="rgb(186,186,255)"/>
<polygon points="345.5,278.3 351.5,278.3 351.5,284.3 345.5,284.3" fill="rgb(255,240,240)"/>
<polygon points="351.5,278.3 357.5,278.3 357.5,284.3 351.5,284.3" fill="rgb(255,253,253)"/>
<polygon points="357.5,278.3 363.5,278.3 363.5,284.3 357.5,284.3" fill="rgb(255,172,172)"/>
<polygon points="165.5,212.3 189.5,212.3 189.5,284.3 165.5,284.3" fill="none" stroke="black" stroke-width="1"/>
<polygon points="199.5,212.3 247.5,212.3 247.5,284.3 199.5,284.3" fill="none" stroke="black" stroke-width="1"/>
<polygon points="257.5,212.3 305.5,212.3 305.5,284.3 257.5,284.3" fill="none" stroke="black" stroke-width="1"/>
<polygon points="315.5,212.3 363.5,212.3 363.5,284.3 315.5,284.3" fill="none" stroke="black" stroke-width="1"/>
<text xml:space="preserve" x="202.75" y="316.633" font-family="Calibri" font-size="6" text-anchor="middle">moduleID</text>
<polygon points="92.75,324.3 112.75,324.3 112.75,344.3 92.75,344.3" fill="rgb(250,250,250)"/><polygon points="92.75,324.3 112.75,324.3 112.75,344.3 92.75,344.3" fill="none" stroke="black" stroke-width="1"/><text xml:space="preserve" x="102.75" y="337.133" font-family="Calibri" font-size="7.5" fill="rgb(0,0,0)" text-anchor="middle">-2.0</text>
<polygon points="112.75,324.3 132.75,324.3 132.75,344.3 112.75,344.3" fill="rgb(156,210,205)"/><polygon points="112.75,324.3 132.75,324.3 132.75,344.3 112.75,344.3" fill="none" stroke="black" stroke-width="1"/><text xml:space="preserve" x="122.75" y="337.133" font-family="Calibri" font-size="7.5" fill="rgb(0,0,0)" text-anchor="middle">-0.4</text>
<polygon points="132.75,324.3 152.75,324.3 152.75,344.3 132.75,344.3" fill="rgb(116,191,184)"/><polygon points="132.75,324.3 152.75,324.3 152.75,344.3 132.75,344.3" fill="none" stroke="black" stroke-width="1"/><text xml:space="preserve" x="142.75" y="337.133" font-family="Calibri" font-size="7.5" fill="rgb(0,0,0)" text-anchor="middle">1.2</text>
<polygon points="152.75,324.3 172.75,324.3 172.75,344.3 152.75,344.3" fill="rgb(152,206,201)"/><polygon points="152.75,324.3 172.75,324.3 172.75,344.3 152.75,344.3" fill="none" stroke="black" stroke-width="1"/><text xml:space="preserve" x="162.75" y="337.133" font-family="Calibri" font-size="7.5" fill="rgb(0,0,0)" text-anchor="middle">2.8</text>
<polygon points="172.75,324.3 192.75,324.3 192.75,344.3 172.75,344.3" fill="rgb(187,220,217)"/><polygon points="172.75,324.3 192.75,324.3 192.75,344.3 172.75,344.3" fill="none" stroke="black" stroke-width="1"/><text xml:space="preserve" x="182.75" y="337.133" font-family="Calibri" font-size="7.5" fill="rgb(0,0,0)" text-anchor="middle">4.4</text>
<polygon points="192.75,324.3 212.75,324.3 212.75,344.3 192.75,344.3" fill="rgb(222,235,234)"/><polygon points="192.75,324.3 212.75,324.3 212.75,344.3 192.75,344.3" fill="none" stroke="black" stroke-width="1"/><text xml:space="preserve" x="202.75" y="337.133" font-family="Calibri" font-size="7.5" fill="rgb(0,0,0)" text-anchor="middle">6.0</text>
<polygon points="212.75,324.3 232.75,324.3 232.75,344.3 212.75,344.3" fill="rgb(242,239,232)"/><polygon points="212.75,324.3 232.75,324.3 232.75,344.3 212.75,344.3" fill="none" stroke="black" stroke-width="1"/><text xml:space="preserve" x="222.75" y="337.133" font-family="Calibri" font-size="7.5" fill="rgb(0,0,0)" text-anchor="middle">7.6</text>
<polygon points="232.75,324.3 252.75,324.3 252.75,344.3 232.75,344.3" fill="rgb(235,224,199)"/><polygon points="232.75,324.3 252.75,324.3 252.75,344.3 232.75,344.3" fill="none" stroke="black" stroke-width="1"/><text xml:space="preserve" x="242.75" y="337.133" font-family="Calibri" font-size="7.5" fill="rgb(0,0,0)" text-anchor="middle">9.2</text>
<polygon points="252.75,324.3 272.75,324.3 272.75,344.3 252.75,344.3" fill="rgb(229,209,166)"/><polygon points="252.75,324.3 272.75,324.3 272.75,344.3 252.75,344.3" fill="none" stroke="black" stroke-width="1"/><text xml:space="preserve" x="262.75" y="337.133" font-family="Calibri" font-size="7.5" fill="rgb(0,0,0)" text-anchor="middle">10.8</text>
<polygon points="272.75,324.3 292.75,324.3 292.75,344.3 272.75,344.3" fill="rgb(222,194,133)"/><polygon points="272.75,324.3 292.75,324.3 292.75,344.3 272.75,344.3" fill="none" stroke="black" stroke-width="1"/><text xml:space="preserve" x="282.75" y="337.133" font-family="Calibri" font-size="7.5" fill="rgb(0,0,0)" text-anchor="middle">12.4</text>
<polygon points="292.75,324.3 312.75,324.3 312.75,344.3 292.75,344.3" fill="rgb(216,179,101)"/><polygon points="292.75,324.3 312.75,324.3 312.75,344.3 292.75,344.3" fill="none" stroke="black" stroke-width="1"/><text xml:space="preserve" x="302.75" y="337.133" font-family="Calibri" font-size="7.5" fill="rgb(0,0,0)" text-anchor="middle">14.0</text>
<text xml:space="preserve" x="202.75" y="376.633" font-family="Calibri" font-size="6" text-anchor="middle">marklevel</text>
<polygon points="92.75,384.3 112.75,384.3 112.75,404.3 92.75,404.3" fill="rgb(0,0,255)"/><polygon points="92.75,384.3 112.75,384.3 112.75,404.3 92.75,404.3" fill="none" stroke="black" stroke-width="1"/><text xml:space="preserve" x="102.75" y="397.133" font-family="Calibri" font-size="7.5" fill="rgb(255,255,255)" text-anchor="middle">-2.0</text>
<polygon points="112.75,384.3 132.75,384.3 132.75,404.3 112.75,404.3" fill="rgb(50,50,255)"/><polygon points="112.75,384.3 132.75,384.3 132.75,404.3 112.75,404.3" fill="none" stroke="black" stroke-width="1"/><text xml:space="preserve" x="122.75" y="397.133" font-family="Calibri" font-size="7.5" fill="rgb(255,255,255)" text-anchor="middle">-1.6</text>
<polygon points="132.75,384.3 152.75,384.3 152.75,404.3 132.75,404.3" fill="rgb(102,102,255)"/><polygon points="132.75,384.3 152.75,384.3 152.75,404.3 132.75,404.3" fill="none" stroke="black" stroke-width="1"/><text xml:space="preserve" x="142.75" y="397.133" font-family="Calibri" font-size="7.5" fill="rgb(255,255,255)" text-anchor="middle">-1.2</text>
<polygon points="152.75,384.3 172.75,384.3 172.75,404.3 152.75,404.3" fill="rgb(153,153,255)"/><polygon points="152.75,384.3 172.75,384.3 172.75,404.3 152.75,404.3" fill="none" stroke="black" stroke-width="1"/><text xml:space="preserve" x="162.75" y="397.133" font-family="Calibri" font-size="7.5" fill="rgb(0,0,0)" text-anchor="middle">-0.8</text>
<polygon points="172.75,384.3 192.75,384.3 192.75,404.3 172.75,404.3" fill="rgb(204,204,255)"/><polygon points="172.75,384.3 192.75,384.3 192.75,404.3 172.75,404.3" fill="none" stroke="black" stroke-width="1"/><text xml:space="preserve" x="182.75" y="397.133" font-family="Calibri" font-size="7.5" fill="rgb(0,0,0)" text-anchor="middle">-0.4</text>
<polygon points="192.75,384.3 212.75,384.3 212.75,404.3 192.75,404.3" fill="rgb(255,255,255)"/><polygon points="192.75,384.3 212.75,384.3 212.75,404.3 192.75,404.3" fill="none" stroke="black" stroke-width="1"/><text xml:space="preserve" x="202.75" y="397.133" font-family="Calibri" font-size="7.5" fill="rgb(0,0,0)" text-anchor="middle">0.0</text>
<polygon points="212.75,384.3 232.75,384.3 232.75,404.3 212.75,404.3" fill="rgb(255,204,204)"/><polygon points="212.75,384.3 232.75,384.3 232.75,404.3 212.75,404.3" fill="none" stroke="black" stroke-width="1"/><text xml:space="preserve" x="222.75" y="397.133" font-family="Calibri" font-size="7.5" fill="rgb(0,0,0)" text-anchor="middle">0.4</text>
<polygon points="232.75,384.3 252.75,384.3 252.75,404.3 232.75,404.3" fill="rgb(255,153,153)"/><polygon points="232.75,384.3 252.75,384.3 252.75,404.3 232.75,404.3" fill="none" stroke="black" stroke-width="1"/><text xml:space="preserve" x="242.75" y="397.133" font-family="Calibri" font-size="7.5" fill="rgb(0,0,0)" text-anchor="middle">0.8</text>
<polygon points="252.75,384.3 272.75,384.3 272.75,404.3 252.75,404.3" fill="rgb(255,102,102)"/><polygon points="252.75,384.3 272.75,384.3 272.75,404.3 252.75,404.3" fill="none" stroke="black" stroke-width="1"/><text xml:space="preserve" x="262.75" y="397.133" font-family="Calibri" font-size="7.5" fill="rgb(0,0,0)" text-anchor="middle">1.2</text>
<polygon points="272.75,384.3 292.75,384.3 292.75,404.3 272.75,404.3" fill="rgb(255,50,50)"/><polygon points="272.75,384.3 292.75,384.3 292.75,404.3 272.75,404.3" fill="none" stroke="black" stroke-width="1"/><text xml:space="preserve" x="282.75" y="397.133" font-family="Calibri" font-size="7.5" fill="rgb(255,255,255)" text-anchor="middle">1.6</text>
<polygon points="292.75,384.3 312.75,384.3 312.75,404.3 292.75,404.3" fill="rgb(255,0,0)"/><polygon points="292.75,384.3 312.75,384.3 312.75,404.3 292.75,404.3" fill="none" stroke="black" stroke-width="1"/><text xml:space="preserve" x="302.75" y="397.133" font-family="Calibri" font-size="7.5" fill="rgb(255,255,255)" text-anchor="middle">2.0</text>
</svg>
