<?xml version="1.0" standalone="no"?><!DOCTYPE svg PUBLIC "-//W3C//DTD SVG 1.1//EN" "http://www.w3.org/Graphics/SVG/1.1/DTD/svg11.dtd">
<svg width="404.3" height="424.3" version="1.1" xmlns="http://www.w3.org/2000/svg">
<text xml:space="preserve" x="160.3" y="217.633" font-family="Calibri" font-size="6" text-anchor="end">Ap1s2</text>
<text xml:space="preserve" x="160.3" y="223.633" font-family="Calibri" font-size="6" text-anchor="end">BC025546</text>
<text xml:space="preserve" x="160.3" y="229.633" font-family="Calibri" font-size="6" text-anchor="end">C730049F21Rik</text>
<text xml:space="preserve" x="160.3" y="235.633" font-family="Calibri" font-size="6" text-anchor="end">Atp11c</text>
<text xml:space="preserve" x="160.3" y="241.633" font-family="Calibri" font-size="6" text-anchor="end">mmu-mir-132</text>
<text xml:space="preserve" x="160.3" y="247.633" font-family="Calibri" font-size="6" text-anchor="end">Wdr44</text>
<text xml:space="preserve" x="160.3" y="253.633" font-family="Calibri" font-size="6" text-anchor="end">Mtmr1</text>
<text xml:space="preserve" x="160.3" y="259.633" font-family="Calibri" font-size="6" text-anchor="end">ORF34</text>
<text xml:space="preserve" x="160.3" y="265.633" font-family="Calibri" font-size="6" text-anchor="end">Upf3b</text>
<text xml:space="preserve" x="160.3" y="271.633" font-family="Calibri" font-size="6" text-anchor="end">Phka2</text>
<text xml:space="preserve" x="160.3" y="277.633" font-family="Calibri" font-size="6" text-anchor="end">1110051M20Rik</text>
<text xml:space="preserve" x="160.3" y="283.633" font-family="Calibri" font-size="6" text-anchor="end">Gas2</text>
<text xml:space="preserve" x="170.633" y="208.3" font-family="Calibri" font-size="6" transform="rotate(270 170.633 208.3)">ips</text>
<text xml:space="preserve" x="178.633" y="208.3" font-family="Calibri" font-size="6" transform="rotate(270 178.633 208.3)">pips</text>
<text xml:space="preserve" x="186.633" y="208.3" font-family="Calibri" font-size="6" transform="rotate(270 186.633 208.3)">mef</text>
<text xml:space="preserve" x="203.633" y="208.3" font-family="Calibri" font-size="6" transform="rotate(270 203.633 208.3)">ips_H3K4me3iPS</text>
<text xml:space="preserve" x="209.633" y="208.3" font-family="Calibri" font-size="6" transform="rotate(270 209.633 208.3)">ips_H3K9aciPS</text>
<text xml:space="preserve" x="215.633" y="208.3" font-family="Calibri" font-size="6" transform="rotate(270 215.633 208.3)">ips_H3K14aciPS</text>
<text xml:space="preserve" x="221.633" y="208.3" font-family="Calibri" font-size="6" transform="rotate(270 221.633 208.3)">ips_H3K18aciPS</text>
<text xml:space="preserve" x="227.633" y="208.3" font-family="Calibri" font-size="6" transform="rotate(270 227.633 208.3)">ips_H3K79me2iPS</text>
<text xml:space="preserve" x="233.633" y="208.3" font-family="Calibri" font-size="6" transform="rotate(270 233.633 208.3)">ips_H3K9me2iPS</text>
<text xml:space="preserve" x="239.633" y="208.3" font-family="Calibri" font-size="6" transform="rotate(270 239.633 208.3)">ips_H3K9me3iPS</text>
<text xml:space="preserve" x="245.633" y="208.3" font-family="Calibri" font-size="6" transform="rotate(270 245.633 208.3)">ips_H3K27me3iPS</text>
<text xml:space="preserve" x="261.633" y="208.3" font-family="Calibri" font-size="6" transform="rotate(270 261.633 208.3)">pips_H3K4me3pips</text>
<text xml:space="preserve" x="267.633" y="208.3" font-family="Calibri" font-size="6" transform="rotate(270 267.633 208.3)">pips_H3K9acpips</text>
<text xml:space="preserve" x="273.633" y="208.3" font-family="Calibri" font-size="6" transform="rotate(270 273.633 208.3)">pips_H3K14acpips</text>
<text xml:space="preserve" x="279.633" y="208.3" font-family="Calibri" font-size="6" transform="rotate(270 279.633 208.3)">pips_H3K18acpips</text>
<text xml:space="preserve" x="285.633" y="208.3" font-family="Calibri" font-size="6" transform="rotate(270 285.633 208.3)">pips_H3K79me2pips</text>
<text xml:space="preserve" x="291.633" y="208.3" font-family="Calibri" font-size="6" transform="rotate(270 291.633 208.3)">pips_H3K9me2pips</text>
<text xml:space="preserve" x="297.633" y="208.3" font-family="Calibri" font-size="6" transform="rotate(270 297.633 208.3)">pips_H3K9me3pips</text>
<text xml:space="preserve" x="303.633" y="208.3" font-family="Calibri" font-size="6" transform="rotate(270 303.633 208.3)">pips_H3K27me3pips</text>
<text xml:space="preserve" x="319.633" y="208.3" font-family="Calibri" font-size="6" transform="rotate(270 319.633 208.3)">mef_H3K4me3mef</text>
<text xml:space="preserve" x="325.633" y="208.3" font-family="Calibri" font-size="6" transform="rotate(270 325.633 208.3)">mef_H3K9acmef</text>
<text xml:space="preserve" x="331.633" y="208.3" font-family="Calibri" font-size="6" transform="rotate(270 331.633 208.3)">mef_H3K14acmef</text>
<text xml:space="preserve" x="337.633" y="208.3" font-family="Calibri" font-size="6" transform="rotate(270 337.633 208.3)">mef_H3K18acmef</text>
<text xml:space="preserve" x="343.633" y="208.3" font-family="Calibri" font-size="6" transform="rotate(270 343.633 208.3)">mef_H3K79me2mef</text>
<text xml:space="preserve" x="349.633" y="208.3" font-family="Calibri" font-size="6" transform="rotate(270 349.633 208.3)">mef_H3K9me2mef</text>
<text xml:space="preserve" x="355.633" y="208.3" font-family="Calibri" font-size="6" transform="rotate(270 355.633 208.3)">mef_H3K9me3mef</text>
<text xml:space="preserve" x="361.633" y="208.3" font-family="Calibri" font-size="6" transform="rotate(270 361.633 208.3)">mef_H3K27me3mef</text>
<polygon points="164.3,212.3 172.3,212.3 172.3,218.3 164.3,218.3" fill="rgb(240,235,224)"/><text xml:space="preserve" x="168.3" y="218.133" font-family="Calibri" font-size="7.5" fill="rgb(0,0,0)" text-anchor="middle">8</text>
<polygon points="172.3,212.3 180.3,212.3 180.3,218.3 172.3,218.3" fill="rgb(134,198,192)"/><text xml:space="preserve" x="176.3" y="218.133" font-family="Calibri" font-size="7.5" fill="rgb(0,0,0)" text-anchor="middle">2</text>
<polygon points="180.3,212.3 188.3,212.3 188.3,218.3 180.3,218.3" fill="rgb(216,179,101)"/><text xml:space="preserve" x="184.3" y="218.133" font-family="Calibri" font-size="7.5" fill="rgb(0,0,0)" text-anchor="middle">15</text>
<polygon points="198.3,212.3 204.3,212.3 204.3,218.3 198.3,218.3" fill="rgb(254,186,186)"/>
<polygon points="204.3,212.3 210.3,212.3 210.3,218.3 204.3,218.3" fill="rgb(255,252,252)"/>
<polygon points="210.3,212.3 216.3,212.3 216.3,218.3 210.3,218.3" fill="rgb(183,183,255)"/>
<polygon points="216.3,212.3 222.3,212.3 222.3,218.3 216.3,218.3" fill="rgb(255,225,225)"/>
<polygon points="222.3,212.3 228.3,212.3 228.3,218.3 222.3,218.3" fill="rgb(226,226,255)"/>
<polygon points="228.3,212.3 234.3,212.3 234.3,218.3 228.3,218.3" fill="rgb(196,196,255)"/>
<polygon points="234.3,212.3 240.3,212.3 240.3,218.3 234.3,218.3" fill="rgb(197,197,255)"/>
<polygon points="240.3,212.3 246.3,212.3 246.3,218.3 240.3,218.3" fill="rgb(255,252,252)"/>
<polygon points="256.3,212.3 262.3,212.3 262.3,218.3 256.3,218.3" fill="rgb(255,234,234)"/>
<polygon points="262.3,212.3 268.3,212.3 268.3,218.3 262.3,218.3" fill="rgb(249,249,255)"/>
<polygon points="268.3,212.3 274.3,212.3 274.3,218.3 268.3,218.3" fill="rgb(142,142,255)"/>
<polygon points="274.3,212.3 280.3,212.3 280.3,218.3 274.3,218.3" fill="rgb(206,206,255)"/>
<polygon points="280.3,212.3 286.3,212.3 286.3,218.3 280.3,218.3" fill="rgb(255,229,229)"/>
<polygon points="286.3,212.3 292.3,212.3 292.3,218.3 286.3,218.3" fill="rgb(255,243,243)"/>
<polygon points="292.3,212.3 298.3,212.3 298.3,218.3 292.3,218.3" fill="rgb(255,137,137)"/>
<polygon points="298.3,212.3 304.3,212.3 304.3,218.3 298.3,218.3" fill="rgb(240,240,255)"/>
<polygon points="314.3,212.3 320.3,212.3 320.3,218.3 314.3,218.3" fill="rgb(255,178,178)"/>
<polygon points="320.3,212.3 326.3,212.3 326.3,218.3 320.3,218.3" fill="rgb(255,250,250)"/>
<polygon points="326.3,212.3 332.3,212.3 332.3,218.3 326.3,218.3" fill="rgb(255,241,241)"/>
<polygon points="332.3,212.3 338.3,212.3 338.3,218.3 332.3,218.3" fill="rgb(255,185,185)"/>
<polygon points="338.3,212.3 344.3,212.3 344.3,218.3 338.3,218.3" fill="rgb(255,192,192)"/>
<polygon points="344.3,212.3 350.3,212.3 350.3,218.3 344.3,218.3" fill="rgb(227,227,255)"/>
<polygon points="350.3,212.3 356.3,212.3 356.3,218.3 350.3,218.3" fill="rgb(183,183,255)"/>
<polygon points="356.3,212.3 362.3,212.3 362.3,218.3 356.3,218.3" fill="rgb(255,223,223)"/>
<polygon points="164.3,218.3 172.3,218.3 172.3,224.3 164.3,224.3" fill="rgb(240,235,224)"/><text xml:space="preserve" x="168.3" y="224.133" font-family="Calibri" font-size="7.5" fill="rgb(0,0,0)" text-anchor="middle">8</text>
<polygon points="172.3,218.3 180.3,218.3 180.3,224.3 172.3,224.3" fill="rgb(134,198,192)"/><text xml:space="preserve" x="176.3" y="224.133" font-family="Calibri" font-size="7.5" fill="rgb(0,0,0)" text-anchor="middle">2</text>
<polygon points="180.3,218.3 188.3,218.3 188.3,224.3 180.3,224.3" fill="rgb(216,179,101)"/><text xml:space="preserve" x="184.3" y="224.133" font-family="Calibri" font-size="7.5" fill="rgb(0,0,0)" text-anchor="middle">15</text>
<polygon points="198.3,218.3 204.3,218.3 204.3,224.3 198.3,224.3" fill="rgb(255,241,241)"/>
<polygon points="204.3,218.3 210.3,218.3 210.3,224.3 204.3,224.3" fill="rgb(255,249,249)"/>
<polygon points="210.3,218.3 216.3,218.3 216.3,224.3 210.3,224.3" fill="rgb(223,223,255)"/>
<polygon points="216.3,218.3 222.3,218.3 222.3,224.3 216.3,224.3" fill="rgb(174,174,255)"/>
<polygon points="222.3,218.3 228.3,218.3 228.3,224.3 222.3,224.3" fill="rgb(255,228,228)"/>
<polygon points="228.3,218.3 234.3,218.3 234.3,224.3 228.3,224.3" fill="rgb(201,201,255)"/>
<polygon points="234.3,218.3 240.3,218.3 240.3,224.3 234.3,224.3" fill="rgb(238,238,255)"/>
<polygon points="240.3,218.3 246.3,218.3 246.3,224.3 240.3,224.3" fill="rgb(254,216,216)"/>
<polygon points="256.3,218.3 262.3,218.3 262.3,224.3 256.3,224.3" fill="rgb(254,212,212)"/>
<polygon points="262.3,218.3 268.3,218.3 268.3,224.3 262.3,224.3" fill="rgb(240,240,255)"/>
<polygon points="268.3,218.3 274.3,218.3 274.3,224.3 268.3,224.3" fill="rgb(214,214,255)"/>
<polygon points="274.3,218.3 280.3,218.3 280.3,224.3 274.3,224.3" fill="rgb(191,191,255)"/>
<polygon points="280.3,218.3 286.3,218.3 286.3,224.3 280.3,224.3" fill="rgb(255,139,139)"/>
<polygon points="286.3,218.3 292.3,218.3 292.3,224.3 286.3,224.3" fill="rgb(255,222,222)"/>
<polygon points="292.3,218.3 298.3,218.3 298.3,224.3 292.3,224.3" fill="rgb(255,50,50)"/>
<polygon points="298.3,218.3 304.3,218.3 304.3,224.3 298.3,224.3" fill="rgb(255,249,249)"/>
<polygon points="314.3,218.3 320.3,218.3 320.3,224.3 314.3,224.3" fill="rgb(255,212,212)"/>
<polygon points="320.3,218.3 326.3,218.3 326.3,224.3 320.3,224.3" fill="rgb(255,222,222)"/>
<polygon points="326.3,218.3 332.3,218.3 332.3,224.3 326.3,224.3" fill="rgb(229,229,255)"/>
<polygon points="332.3,218.3 338.3,218.3 338.3,224.3 332.3,224.3" fill="rgb(185,185,255)"/>
<polygon points="338.3,218.3 344.3,218.3 344.3,224.3 338.3,224.3" fill="rgb(255,153,153)"/>
<polygon points="344.3,218.3 350.3,218.3 350.3,224.3 344.3,224.3" fill="rgb(255,177,177)"/>
<polygon points="350.3,218.3 356.3,218.3 356.3,224.3 350.3,224.3" fill="rgb(235,235,255)"/>
<polygon points="356.3,218.3 362.3,218.3 362.3,224.3 356.3,224.3" fill="rgb(255,254,254)"/>
<polygon points="164.3,224.3 172.3,224.3 172.3,230.3 164.3,230.3" fill="rgb(240,235,224)"/><text xml:space="preserve" x="168.3" y="230.133" font-family="Calibri" font-size="7.5" fill="rgb(0,0,0)" text-anchor="middle">8</text>
<polygon points="172.3,224.3 180.3,224.3 180.3,230.3 172.3,230.3" fill="rgb(134,198,192)"/><text xml:space="preserve" x="176.3" y="230.133" font-family="Calibri" font-size="7.5" fill="rgb(0,0,0)" text-anchor="middle">2</text>
<polygon points="180.3,224.3 188.3,224.3 188.3,230.3 180.3,230.3" fill="rgb(216,179,101)"/><text xml:space="preserve" x="184.3" y="230.133" font-family="Calibri" font-size="7.5" fill="rgb(0,0,0)" text-anchor="middle">15</text>
<polygon points="198.3,224.3 204.3,224.3 204.3,230.3 198.3,230.3" fill="rgb(255,237,237)"/>
<polygon points="204.3,224.3 210.3,224.3 210.3,230.3 204.3,230.3" fill="rgb(255,211,211)"/>
<polygon points="210.3,224.3 216.3,224.3 216.3,230.3 210.3,230.3" fill="rgb(255,249,249)"/>
<polygon points="216.3,224.3 222.3,224.3 222.3,230.3 216.3,230.3" fill="rgb(245,245,255)"/>
<polygon points="222.3,224.3 228.3,224.3 228.3,230.3 222.3,230.3" fill="rgb(238,238,255)"/>
<polygon points="228.3,224.3 234.3,224.3 234.3,230.3 228.3,230.3" fill="rgb(192,192,255)"/>
<polygon points="234.3,224.3 240.3,224.3 240.3,230.3 234.3,230.3" fill="rgb(201,201,255)"/>
<polygon points="240.3,224.3 246.3,224.3 246.3,230.3 240.3,230.3" fill="rgb(237,237,255)"/>
<polygon points="256.3,224.3 262.3,224.3 262.3,230.3 256.3,230.3" fill="rgb(255,235,235)"/>
<polygon points="262.3,224.3 268.3,224.3 268.3,230.3 262.3,230.3" fill="rgb(240,240,255)"/>
<polygon points="268.3,224.3 274.3,224.3 274.3,230.3 268.3,230.3" fill="rgb(255,248,248)"/>
<polygon points="274.3,224.3 280.3,224.3 280.3,230.3 274.3,230.3" fill="rgb(253,253,255)"/>
<polygon points="280.3,224.3 286.3,224.3 286.3,230.3 280.3,230.3" fill="rgb(244,244,255)"/>
<polygon points="286.3,224.3 292.3,224.3 292.3,230.3 286.3,230.3" fill="rgb(255,254,254)"/>
<polygon points="292.3,224.3 298.3,224.3 298.3,230.3 292.3,230.3" fill="rgb(255,0,0)"/>
<polygon points="298.3,224.3 304.3,224.3 304.3,230.3 298.3,230.3" fill="rgb(239,239,255)"/>
<polygon points="314.3,224.3 320.3,224.3 320.3,230.3 314.3,230.3" fill="rgb(255,210,210)"/>
<polygon points="320.3,224.3 326.3,224.3 326.3,230.3 320.3,230.3" fill="rgb(255,208,208)"/>
<polygon points="326.3,224.3 332.3,224.3 332.3,230.3 326.3,230.3" fill="rgb(255,229,229)"/>
<polygon points="332.3,224.3 338.3,224.3 338.3,230.3 332.3,230.3" fill="rgb(255,235,235)"/>
<polygon points="338.3,224.3 344.3,224.3 344.3,230.3 338.3,230.3" fill="rgb(255,243,243)"/>
<polygon points="344.3,224.3 350.3,224.3 350.3,230.3 344.3,230.3" fill="rgb(231,231,255)"/>
<polygon points="350.3,224.3 356.3,224.3 356.3,230.3 350.3,230.3" fill="rgb(255,240,240)"/>
<polygon points="356.3,224.3 362.3,224.3 362.3,230.3 356.3,230.3" fill="rgb(214,214,255)"/>
<polygon points="164.3,230.3 172.3,230.3 172.3,236.3 164.3,236.3" fill="rgb(240,235,224)"/><text xml:space="preserve" x="168.3" y="236.133" font-family="Calibri" font-size="7.5" fill="rgb(0,0,0)" text-anchor="middle">8</text>
<polygon points="172.3,230.3 180.3,230.3 180.3,236.3 172.3,236.3" fill="rgb(134,198,192)"/><text xml:space="preserve" x="176.3" y="236.133" font-family="Calibri" font-size="7.5" fill="rgb(0,0,0)" text-anchor="middle">2</text>
<polygon points="180.3,230.3 188.3,230.3 188.3,236.3 180.3,236.3" fill="rgb(216,179,101)"/><text xml:space="preserve" x="184.3" y="236.133" font-family="Calibri" font-size="7.5" fill="rgb(0,0,0)" text-anchor="middle">14</text>
<polygon points="198.3,230.3 204.3,230.3 204.3,236.3 198.3,236.3" fill="rgb(255,215,215)"/>
<polygon points="204.3,230.3 210.3,230.3 210.3,236.3 204.3,236.3" fill="rgb(252,252,255)"/>
<polygon points="210.3,230.3 216.3,230.3 216.3,236.3 210.3,236.3" fill="rgb(206,206,255)"/>
<polygon points="216.3,230.3 222.3,230.3 222.3,236.3 216.3,236.3" fill="rgb(254,254,255)"/>
<polygon points="222.3,230.3 228.3,230.3 228.3,236.3 222.3,236.3" fill="rgb(255,235,235)"/>
<polygon points="228.3,230.3 234.3,230.3 234.3,236.3 228.3,236.3" fill="rgb(185,185,255)"/>
<polygon points="234.3,230.3 240.3,230.3 240.3,236.3 234.3,236.3" fill="rgb(230,230,255)"/>
<polygon points="240.3,230.3 246.3,230.3 246.3,236.3 240.3,236.3" fill="rgb(255,200,200)"/>
<polygon points="256.3,230.3 262.3,230.3 262.3,236.3 256.3,236.3" fill="rgb(225,225,255)"/>
<polygon points="262.3,230.3 268.3,230.3 268.3,236.3 262.3,236.3" fill="rgb(207,207,255)"/>
<polygon points="268.3,230.3 274.3,230.3 274.3,236.3 268.3,236.3" fill="rgb(145,145,255)"/>
<polygon points="274.3,230.3 280.3,230.3 280.3,236.3 274.3,236.3" fill="rgb(203,203,255)"/>
<polygon points="280.3,230.3 286.3,230.3 286.3,236.3 280.3,236.3" fill="rgb(236,236,255)"/>
<polygon points="286.3,230.3 292.3,230.3 292.3,236.3 286.3,236.3" fill="rgb(255,219,219)"/>
<polygon points="292.3,230.3 298.3,230.3 298.3,236.3 292.3,236.3" fill="rgb(255,181,181)"/>
<polygon points="298.3,230.3 304.3,230.3 304.3,236.3 298.3,236.3" fill="rgb(255,197,197)"/>
<polygon points="314.3,230.3 320.3,230.3 320.3,236.3 314.3,236.3" fill="rgb(255,221,221)"/>
<polygon points="320.3,230.3 326.3,230.3 326.3,236.3 320.3,236.3" fill="rgb(211,211,255)"/>
<polygon points="326.3,230.3 332.3,230.3 332.3,236.3 326.3,236.3" fill="rgb(210,210,255)"/>
<polygon points="332.3,230.3 338.3,230.3 338.3,236.3 332.3,236.3" fill="rgb(254,254,255)"/>
<polygon points="338.3,230.3 344.3,230.3 344.3,236.3 338.3,236.3" fill="rgb(242,242,255)"/>
<polygon points="344.3,230.3 350.3,230.3 350.3,236.3 344.3,236.3" fill="rgb(244,244,255)"/>
<polygon points="350.3,230.3 356.3,230.3 356.3,236.3 350.3,236.3" fill="rgb(255,250,250)"/>
<polygon points="356.3,230.3 362.3,230.3 362.3,236.3 356.3,236.3" fill="rgb(255,198,198)"/>
<polygon points="164.3,236.3 172.3,236.3 172.3,242.3 164.3,242.3" fill="rgb(240,235,224)"/><text xml:space="preserve" x="168.3" y="242.133" font-family="Calibri" font-size="7.5" fill="rgb(0,0,0)" text-anchor="middle">8</text>
<polygon points="172.3,236.3 180.3,236.3 180.3,242.3 172.3,242.3" fill="rgb(134,198,192)"/><text xml:space="preserve" x="176.3" y="242.133" font-family="Calibri" font-size="7.5" fill="rgb(0,0,0)" text-anchor="middle">2</text>
<polygon points="180.3,236.3 188.3,236.3 188.3,242.3 180.3,242.3" fill="rgb(216,179,101)"/><text xml:space="preserve" x="184.3" y="242.133" font-family="Calibri" font-size="7.5" fill="rgb(0,0,0)" text-anchor="middle">14</text>
<polygon points="198.3,236.3 204.3,236.3 204.3,242.3 198.3,242.3" fill="rgb(255,215,215)"/>
<polygon points="204.3,236.3 210.3,236.3 210.3,242.3 204.3,242.3" fill="rgb(246,246,255)"/>
<polygon points="210.3,236.3 216.3,236.3 216.3,242.3 210.3,242.3" fill="rgb(229,229,255)"/>
<polygon points="216.3,236.3 222.3,236.3 222.3,242.3 216.3,242.3" fill="rgb(201,201,255)"/>
<polygon points="222.3,236.3 228.3,236.3 228.3,242.3 222.3,242.3" fill="rgb(255,239,239)"/>
<polygon points="228.3,236.3 234.3,236.3 234.3,242.3 228.3,242.3" fill="rgb(198,198,255)"/>
<polygon points="234.3,236.3 240.3,236.3 240.3,242.3 234.3,242.3" fill="rgb(237,237,255)"/>
<polygon points="240.3,236.3 246.3,236.3 246.3,242.3 240.3,242.3" fill="rgb(255,189,189)"/>
<polygon points="256.3,236.3 262.3,236.3 262.3,242.3 256.3,242.3" fill="rgb(255,243,243)"/>
<polygon points="262.3,236.3 268.3,236.3 268.3,242.3 262.3,242.3" fill="rgb(238,238,255)"/>
<polygon points="268.3,236.3 274.3,236.3 274.3,242.3 268.3,242.3" fill="rgb(195,195,255)"/>
<polygon points="274.3,236.3 280.3,236.3 280.3,242.3 274.3,242.3" fill="rgb(174,174,255)"/>
<polygon points="280.3,236.3 286.3,236.3 286.3,242.3 280.3,242.3" fill="rgb(246,246,255)"/>
<polygon points="286.3,236.3 292.3,236.3 292.3,242.3 286.3,242.3" fill="rgb(211,211,255)"/>
<polygon points="292.3,236.3 298.3,236.3 298.3,242.3 292.3,242.3" fill="rgb(255,155,155)"/>
<polygon points="298.3,236.3 304.3,236.3 304.3,242.3 298.3,242.3" fill="rgb(255,220,220)"/>
<polygon points="314.3,236.3 320.3,236.3 320.3,242.3 314.3,242.3" fill="rgb(255,186,186)"/>
<polygon points="320.3,236.3 326.3,236.3 326.3,242.3 320.3,242.3" fill="rgb(255,232,232)"/>
<polygon points="326.3,236.3 332.3,236.3 332.3,242.3 326.3,242.3" fill="rgb(229,229,255)"/>
<polygon points="332.3,236.3 338.3,236.3 338.3,242.3 332.3,242.3" fill="rgb(255,236,236)"/>
<polygon points="338.3,236.3 344.3,236.3 344.3,242.3 338.3,242.3" fill="rgb(255,242,242)"/>
<polygon points="344.3,236.3 350.3,236.3 350.3,242.3 344.3,242.3" fill="rgb(255,253,253)"/>
<polygon points="350.3,236.3 356.3,236.3 356.3,242.3 350.3,242.3" fill="rgb(223,223,255)"/>
<polygon points="356.3,236.3 362.3,236.3 362.3,242.3 356.3,242.3" fill="rgb(227,227,255)"/>
<polygon points="164.3,242.3 172.3,242.3 172.3,248.3 164.3,248.3" fill="rgb(240,235,224)"/><text xml:space="preserve" x="168.3" y="248.133" font-family="Calibri" font-size="7.5" fill="rgb(0,0,0)" text-anchor="middle">8</text>
<polygon points="172.3,242.3 180.3,242.3 180.3,248.3 172.3,248.3" fill="rgb(134,198,192)"/><text xml:space="preserve" x="176.3" y="248.133" font-family="Calibri" font-size="7.5" fill="rgb(0,0,0)" text-anchor="middle">2</text>
<polygon points="180.3,242.3 188.3,242.3 188.3,248.3 180.3,248.3" fill="rgb(216,179,101)"/><text xml:space="preserve" x="184.3" y="248.133" font-family="Calibri" font-size="7.5" fill="rgb(0,0,0)" text-anchor="middle">14</text>
<polygon points="198.3,242.3 204.3,242.3 204.3,248.3 198.3,248.3" fill="rgb(255,207,207)"/>
<polygon points="204.3,242.3 210.3,242.3 210.3,248.3 204.3,248.3" fill="rgb(255,248,248)"/>
<polygon points="210.3,242.3 216.3,242.3 216.3,248.3 210.3,248.3" fill="rgb(202,202,255)"/>
<polygon points="216.3,242.3 222.3,242.3 222.3,248.3 216.3,248.3" fill="rgb(239,239,255)"/>
<polygon points="222.3,242.3 228.3,242.3 228.3,248.3 222.3,248.3" fill="rgb(255,206,206)"/>
<polygon points="228.3,242.3 234.3,242.3 234.3,248.3 228.3,248.3" fill="rgb(173,173,255)"/>
<polygon points="234.3,242.3 240.3,242.3 240.3,248.3 234.3,248.3" fill="rgb(197,197,255)"/>
<polygon points="240.3,242.3 246.3,242.3 246.3,248.3 240.3,248.3" fill="rgb(191,191,255)"/>
<polygon points="256.3,242.3 262.3,242.3 262.3,248.3 256.3,248.3" fill="rgb(234,234,255)"/>
<polygon points="262.3,242.3 268.3,242.3 268.3,248.3 262.3,248.3" fill="rgb(218,218,255)"/>
<polygon points="268.3,242.3 274.3,242.3 274.3,248.3 268.3,248.3" fill="rgb(168,168,255)"/>
<polygon points="274.3,242.3 280.3,242.3 280.3,248.3 274.3,248.3" fill="rgb(225,225,255)"/>
<polygon points="280.3,242.3 286.3,242.3 286.3,248.3 280.3,248.3" fill="rgb(255,234,234)"/>
<polygon points="286.3,242.3 292.3,242.3 292.3,248.3 286.3,248.3" fill="rgb(254,225,225)"/>
<polygon points="292.3,242.3 298.3,242.3 298.3,248.3 292.3,248.3" fill="rgb(231,231,255)"/>
<polygon points="298.3,242.3 304.3,242.3 304.3,248.3 298.3,248.3" fill="rgb(255,192,192)"/>
<polygon points="314.3,242.3 320.3,242.3 320.3,248.3 314.3,248.3" fill="rgb(255,194,194)"/>
<polygon points="320.3,242.3 326.3,242.3 326.3,248.3 320.3,248.3" fill="rgb(213,213,255)"/>
<polygon points="326.3,242.3 332.3,242.3 332.3,248.3 326.3,248.3" fill="rgb(247,247,255)"/>
<polygon points="332.3,242.3 338.3,242.3 338.3,248.3 332.3,248.3" fill="rgb(255,208,208)"/>
<polygon points="338.3,242.3 344.3,242.3 344.3,248.3 338.3,248.3" fill="rgb(255,222,222)"/>
<polygon points="344.3,242.3 350.3,242.3 350.3,248.3 344.3,248.3" fill="rgb(255,249,249)"/>
<polygon points="350.3,242.3 356.3,242.3 356.3,248.3 350.3,248.3" fill="rgb(217,217,255)"/>
<polygon points="356.3,242.3 362.3,242.3 362.3,248.3 356.3,248.3" fill="rgb(255,221,221)"/>
<polygon points="164.3,248.3 172.3,248.3 172.3,254.3 164.3,254.3" fill="rgb(240,235,224)"/><text xml:space="preserve" x="168.3" y="254.133" font-family="Calibri" font-size="7.5" fill="rgb(0,0,0)" text-anchor="middle">8</text>
<polygon points="172.3,248.3 180.3,248.3 180.3,254.3 172.3,254.3" fill="rgb(134,198,192)"/><text xml:space="preserve" x="176.3" y="254.133" font-family="Calibri" font-size="7.5" fill="rgb(0,0,0)" text-anchor="middle">2</text>
<polygon points="180.3,248.3 188.3,248.3 188.3,254.3 180.3,254.3" fill="rgb(216,179,101)"/><text xml:space="preserve" x="184.3" y="254.133" font-family="Calibri" font-size="7.5" fill="rgb(0,0,0)" text-anchor="middle">14</text>
<polygon points="198.3,248.3 204.3,248.3 204.3,254.3 198.3,254.3" fill="rgb(255,252,252)"/>
<polygon points="204.3,248.3 210.3,248.3 210.3,254.3 204.3,254.3" fill="rgb(248,248,255)"/>
<polygon points="210.3,248.3 216.3,248.3 216.3,254.3 210.3,254.3" fill="rgb(214,214,255)"/>
<polygon points="216.3,248.3 222.3,248.3 222.3,254.3 216.3,254.3" fill="rgb(200,200,255)"/>
<polygon points="222.3,248.3 228.3,248.3 228.3,254.3 222.3,254.3" fill="rgb(199,199,255)"/>
<polygon points="228.3,248.3 234.3,248.3 234.3,254.3 228.3,254.3" fill="rgb(174,174,255)"/>
<polygon points="234.3,248.3 240.3,248.3 240.3,254.3 234.3,254.3" fill="rgb(205,205,255)"/>
<polygon points="240.3,248.3 246.3,248.3 246.3,254.3 240.3,254.3" fill="rgb(252,252,255)"/>
<polygon points="256.3,248.3 262.3,248.3 262.3,254.3 256.3,254.3" fill="rgb(216,216,255)"/>
<polygon points="262.3,248.3 268.3,248.3 268.3,254.3 262.3,254.3" fill="rgb(224,224,255)"/>
<polygon points="268.3,248.3 274.3,248.3 274.3,254.3 268.3,254.3" fill="rgb(189,189,255)"/>
<polygon points="274.3,248.3 280.3,248.3 280.3,254.3 274.3,254.3" fill="rgb(223,223,255)"/>
<polygon points="280.3,248.3 286.3,248.3 286.3,254.3 280.3,254.3" fill="rgb(229,229,255)"/>
<polygon points="286.3,248.3 292.3,248.3 292.3,254.3 286.3,254.3" fill="rgb(255,220,220)"/>
<polygon points="292.3,248.3 298.3,248.3 298.3,254.3 292.3,254.3" fill="rgb(255,182,182)"/>
<polygon points="298.3,248.3 304.3,248.3 304.3,254.3 298.3,254.3" fill="rgb(216,216,255)"/>
<polygon points="314.3,248.3 320.3,248.3 320.3,254.3 314.3,254.3" fill="rgb(255,230,230)"/>
<polygon points="320.3,248.3 326.3,248.3 326.3,254.3 320.3,254.3" fill="rgb(206,206,255)"/>
<polygon points="326.3,248.3 332.3,248.3 332.3,254.3 326.3,254.3" fill="rgb(242,242,255)"/>
<polygon points="332.3,248.3 338.3,248.3 338.3,254.3 332.3,254.3" fill="rgb(218,218,255)"/>
<polygon points="338.3,248.3 344.3,248.3 344.3,254.3 338.3,254.3" fill="rgb(233,233,255)"/>
<polygon points="344.3,248.3 350.3,248.3 350.3,254.3 344.3,254.3" fill="rgb(252,252,255)"/>
<polygon points="350.3,248.3 356.3,248.3 356.3,254.3 350.3,254.3" fill="rgb(255,239,239)"/>
<polygon points="356.3,248.3 362.3,248.3 362.3,254.3 356.3,254.3" fill="rgb(255,240,240)"/>
<polygon points="164.3,254.3 172.3,254.3 172.3,260.3 164.3,260.3" fill="rgb(240,235,224)"/><text xml:space="preserve" x="168.3" y="260.133" font-family="Calibri" font-size="7.5" fill="rgb(0,0,0)" text-anchor="middle">8</text>
<polygon points="172.3,254.3 180.3,254.3 180.3,260.3 172.3,260.3" fill="rgb(134,198,192)"/><text xml:space="preserve" x="176.3" y="260.133" font-family="Calibri" font-size="7.5" fill="rgb(0,0,0)" text-anchor="middle">2</text>
<polygon points="180.3,254.3 188.3,254.3 188.3,260.3 180.3,260.3" fill="rgb(216,179,101)"/><text xml:space="preserve" x="184.3" y="260.133" font-family="Calibri" font-size="7.5" fill="rgb(0,0,0)" text-anchor="middle">14</text>
<polygon points="198.3,254.3 204.3,254.3 204.3,260.3 198.3,260.3" fill="rgb(255,201,201)"/>
<polygon points="204.3,254.3 210.3,254.3 210.3,260.3 204.3,260.3" fill="rgb(255,250,250)"/>
<polygon points="210.3,254.3 216.3,254.3 216.3,260.3 210.3,260.3" fill="rgb(211,211,255)"/>
<polygon points="216.3,254.3 222.3,254.3 222.3,260.3 216.3,260.3" fill="rgb(255,242,242)"/>
<polygon points="222.3,254.3 228.3,254.3 228.3,260.3 222.3,260.3" fill="rgb(255,214,214)"/>
<polygon points="228.3,254.3 234.3,254.3 234.3,260.3 228.3,260.3" fill="rgb(193,193,255)"/>
<polygon points="234.3,254.3 240.3,254.3 240.3,260.3 234.3,260.3" fill="rgb(194,194,255)"/>
<polygon points="240.3,254.3 246.3,254.3 246.3,260.3 240.3,260.3" fill="rgb(217,217,255)"/>
<polygon points="256.3,254.3 262.3,254.3 262.3,260.3 256.3,260.3" fill="rgb(255,240,240)"/>
<polygon points="262.3,254.3 268.3,254.3 268.3,260.3 262.3,260.3" fill="rgb(228,228,255)"/>
<polygon points="268.3,254.3 274.3,254.3 274.3,260.3 268.3,260.3" fill="rgb(185,185,255)"/>
<polygon points="274.3,254.3 280.3,254.3 280.3,260.3 274.3,260.3" fill="rgb(180,180,255)"/>
<polygon points="280.3,254.3 286.3,254.3 286.3,260.3 280.3,260.3" fill="rgb(250,250,255)"/>
<polygon points="286.3,254.3 292.3,254.3 292.3,260.3 286.3,260.3" fill="rgb(255,200,200)"/>
<polygon points="292.3,254.3 298.3,254.3 298.3,260.3 292.3,260.3" fill="rgb(255,234,234)"/>
<polygon points="298.3,254.3 304.3,254.3 304.3,260.3 298.3,260.3" fill="rgb(255,159,159)"/>
<polygon points="314.3,254.3 320.3,254.3 320.3,260.3 314.3,260.3" fill="rgb(255,237,237)"/>
<polygon points="320.3,254.3 326.3,254.3 326.3,260.3 320.3,260.3" fill="rgb(210,210,255)"/>
<polygon points="326.3,254.3 332.3,254.3 332.3,260.3 326.3,260.3" fill="rgb(232,232,255)"/>
<polygon points="332.3,254.3 338.3,254.3 338.3,260.3 332.3,260.3" fill="rgb(255,254,254)"/>
<polygon points="338.3,254.3 344.3,254.3 344.3,260.3 338.3,260.3" fill="rgb(255,242,242)"/>
<polygon points="344.3,254.3 350.3,254.3 350.3,260.3 344.3,260.3" fill="rgb(255,194,194)"/>
<polygon points="350.3,254.3 356.3,254.3 356.3,260.3 350.3,260.3" fill="rgb(226,226,255)"/>
<polygon points="356.3,254.3 362.3,254.3 362.3,260.3 356.3,260.3" fill="rgb(255,192,192)"/>
<polygon points="164.3,260.3 172.3,260.3 172.3,266.3 164.3,266.3" fill="rgb(240,235,224)"/><text xml:space="preserve" x="168.3" y="266.133" font-family="Calibri" font-size="7.5" fill="rgb(0,0,0)" text-anchor="middle">8</text>
<polygon points="172.3,260.3 180.3,260.3 180.3,266.3 172.3,266.3" fill="rgb(134,198,192)"/><text xml:space="preserve" x="176.3" y="266.133" font-family="Calibri" font-size="7.5" fill="rgb(0,0,0)" text-anchor="middle">2</text>
<polygon points="180.3,260.3 188.3,260.3 188.3,266.3 180.3,266.3" fill="rgb(216,179,101)"/><text xml:space="preserve" x="184.3" y="266.133" font-family="Calibri" font-size="7.5" fill="rgb(0,0,0)" text-anchor="middle">14</text>
<polygon points="198.3,260.3 204.3,260.3 204.3,266.3 198.3,266.3" fill="rgb(255,186,186)"/>
<polygon points="204.3,260.3 210.3,260.3 210.3,266.3 204.3,266.3" fill="rgb(255,225,225)"/>
<polygon points="210.3,260.3 216.3,260.3 216.3,266.3 210.3,266.3" fill="rgb(189,189,255)"/>
<polygon points="216.3,260.3 222.3,260.3 222.3,266.3 216.3,266.3" fill="rgb(199,199,255)"/>
<polygon points="222.3,260.3 228.3,260.3 228.3,266.3 222.3,266.3" fill="rgb(255,241,241)"/>
<polygon points="228.3,260.3 234.3,260.3 234.3,266.3 228.3,266.3" fill="rgb(177,177,255)"/>
<polygon points="234.3,260.3 240.3,260.3 240.3,266.3 234.3,266.3" fill="rgb(237,237,255)"/>
<polygon points="240.3,260.3 246.3,260.3 246.3,266.3 240.3,266.3" fill="rgb(255,246,246)"/>
<polygon points="256.3,260.3 262.3,260.3 262.3,266.3 256.3,266.3" fill="rgb(227,227,255)"/>
<polygon points="262.3,260.3 268.3,260.3 268.3,266.3 262.3,266.3" fill="rgb(221,221,255)"/>
<polygon points="268.3,260.3 274.3,260.3 274.3,266.3 268.3,266.3" fill="rgb(201,201,255)"/>
<polygon points="274.3,260.3 280.3,260.3 280.3,266.3 274.3,266.3" fill="rgb(157,157,255)"/>
<polygon points="280.3,260.3 286.3,260.3 286.3,266.3 280.3,266.3" fill="rgb(255,251,251)"/>
<polygon points="286.3,260.3 292.3,260.3 292.3,266.3 286.3,266.3" fill="rgb(255,245,245)"/>
<polygon points="292.3,260.3 298.3,260.3 298.3,266.3 292.3,266.3" fill="rgb(255,181,181)"/>
<polygon points="298.3,260.3 304.3,260.3 304.3,266.3 298.3,266.3" fill="rgb(255,188,188)"/>
<polygon points="314.3,260.3 320.3,260.3 320.3,266.3 314.3,266.3" fill="rgb(255,197,197)"/>
<polygon points="320.3,260.3 326.3,260.3 326.3,266.3 320.3,266.3" fill="rgb(208,208,255)"/>
<polygon points="326.3,260.3 332.3,260.3 332.3,266.3 326.3,266.3" fill="rgb(241,241,255)"/>
<polygon points="332.3,260.3 338.3,260.3 338.3,266.3 332.3,266.3" fill="rgb(233,233,255)"/>
<polygon points="338.3,260.3 344.3,260.3 344.3,266.3 338.3,266.3" fill="rgb(254,250,250)"/>
<polygon points="344.3,260.3 350.3,260.3 350.3,266.3 344.3,266.3" fill="rgb(255,247,247)"/>
<polygon points="350.3,260.3 356.3,260.3 356.3,266.3 350.3,266.3" fill="rgb(255,252,252)"/>
<polygon points="356.3,260.3 362.3,260.3 362.3,266.3 356.3,266.3" fill="rgb(255,166,166)"/>
<polygon points="164.3,266.3 172.3,266.3 172.3,272.3 164.3,272.3" fill="rgb(240,235,224)"/><text xml:space="preserve" x="168.3" y="272.133" font-family="Calibri" font-size="7.5" fill="rgb(0,0,0)" text-anchor="middle">8</text>
<polygon points="172.3,266.3 180.3,266.3 180.3,272.3 172.3,272.3" fill="rgb(134,198,192)"/><text xml:space="preserve" x="176.3" y="272.133" font-family="Calibri" font-size="7.5" fill="rgb(0,0,0)" text-anchor="middle">2</text>
<polygon points="180.3,266.3 188.3,266.3 188.3,272.3 180.3,272.3" fill="rgb(216,179,101)"/><text xml:space="preserve" x="184.3" y="272.133" font-family="Calibri" font-size="7.5" fill="rgb(0,0,0)" text-anchor="middle">14</text>
<polygon points="198.3,266.3 204.3,266.3 204.3,272.3 198.3,272.3" fill="rgb(255,196,196)"/>
<polygon points="204.3,266.3 210.3,266.3 210.3,272.3 204.3,272.3" fill="rgb(255,225,225)"/>
<polygon points="210.3,266.3 216.3,266.3 216.3,272.3 210.3,272.3" fill="rgb(252,252,255)"/>
<polygon points="216.3,266.3 222.3,266.3 222.3,272.3 216.3,272.3" fill="rgb(255,247,247)"/>
<polygon points="222.3,266.3 228.3,266.3 228.3,272.3 222.3,272.3" fill="rgb(255,239,239)"/>
<polygon points="228.3,266.3 234.3,266.3 234.3,272.3 228.3,272.3" fill="rgb(227,227,255)"/>
<polygon points="234.3,266.3 240.3,266.3 240.3,272.3 234.3,272.3" fill="rgb(176,176,255)"/>
<polygon points="240.3,266.3 246.3,266.3 246.3,272.3 240.3,272.3" fill="rgb(191,191,255)"/>
<polygon points="256.3,266.3 262.3,266.3 262.3,272.3 256.3,272.3" fill="rgb(255,219,219)"/>
<polygon points="262.3,266.3 268.3,266.3 268.3,272.3 262.3,272.3" fill="rgb(229,229,255)"/>
<polygon points="268.3,266.3 274.3,266.3 274.3,272.3 268.3,272.3" fill="rgb(135,135,255)"/>
<polygon points="274.3,266.3 280.3,266.3 280.3,272.3 274.3,272.3" fill="rgb(230,230,255)"/>
<polygon points="280.3,266.3 286.3,266.3 286.3,272.3 280.3,272.3" fill="rgb(226,226,255)"/>
<polygon points="286.3,266.3 292.3,266.3 292.3,272.3 286.3,272.3" fill="rgb(255,249,249)"/>
<polygon points="292.3,266.3 298.3,266.3 298.3,272.3 292.3,272.3" fill="rgb(255,238,238)"/>
<polygon points="298.3,266.3 304.3,266.3 304.3,272.3 298.3,272.3" fill="rgb(255,122,122)"/>
<polygon points="314.3,266.3 320.3,266.3 320.3,272.3 314.3,272.3" fill="rgb(255,205,205)"/>
<polygon points="320.3,266.3 326.3,266.3 326.3,272.3 320.3,272.3" fill="rgb(208,208,255)"/>
<polygon points="326.3,266.3 332.3,266.3 332.3,272.3 326.3,272.3" fill="rgb(254,216,216)"/>
<polygon points="332.3,266.3 338.3,266.3 338.3,272.3 332.3,272.3" fill="rgb(255,157,157)"/>
<polygon points="338.3,266.3 344.3,266.3 344.3,272.3 338.3,272.3" fill="rgb(255,244,244)"/>
<polygon points="344.3,266.3 350.3,266.3 350.3,272.3 344.3,272.3" fill="rgb(255,207,207)"/>
<polygon points="350.3,266.3 356.3,266.3 356.3,272.3 350.3,272.3" fill="rgb(220,220,255)"/>
<polygon points="356.3,266.3 362.3,266.3 362.3,272.3 356.3,272.3" fill="rgb(255,216,216)"/>
<polygon points="164.3,272.3 172.3,272.3 172.3,278.3 164.3,278.3" fill="rgb(240,235,224)"/><text xml:space="preserve" x="168.3" y="278.133" font-family="Calibri" font-size="7.5" fill="rgb(0,0,0)" text-anchor="middle">8</text>
<polygon points="172.3,272.3 180.3,272.3 180.3,278.3 172.3,278.3" fill="rgb(134,198,192)"/><text xml:space="preserve" x="176.3" y="278.133" font-family="Calibri" font-size="7.5" fill="rgb(0,0,0)" text-anchor="middle">2</text>
<polygon points="180.3,272.3 188.3,272.3 188.3,278.3 180.3,278.3" fill="rgb(216,179,101)"/><text xml:space="preserve" x="184.3" y="278.133" font-family="Calibri" font-size="7.5" fill="rgb(0,0,0)" text-anchor="middle">14</text>
<polygon points="198.3,272.3 204.3,272.3 204.3,278.3 198.3,278.3" fill="rgb(240,240,255)"/>
<polygon points="204.3,272.3 210.3,272.3 210.3,278.3 204.3,278.3" fill="rgb(231,231,255)"/>
<polygon points="210.3,272.3 216.3,272.3 216.3,278.3 210.3,278.3" fill="rgb(180,180,255)"/>
<polygon points="216.3,272.3 222.3,272.3 222.3,278.3 216.3,278.3" fill="rgb(229,229,255)"/>
<polygon points="222.3,272.3 228.3,272.3 228.3,278.3 222.3,278.3" fill="rgb(237,237,255)"/>
<polygon points="228.3,272.3 234.3,272.3 234.3,278.3 228.3,278.3" fill="rgb(212,212,255)"/>
<polygon points="234.3,272.3 240.3,272.3 240.3,278.3 234.3,278.3" fill="rgb(205,205,255)"/>
<polygon points="240.3,272.3 246.3,272.3 246.3,278.3 240.3,278.3" fill="rgb(197,197,255)"/>
<polygon points="256.3,272.3 262.3,272.3 262.3,278.3 256.3,278.3" fill="rgb(254,248,248)"/>
<polygon points="262.3,272.3 268.3,272.3 268.3,278.3 262.3,278.3" fill="rgb(186,186,255)"/>
<polygon points="268.3,272.3 274.3,272.3 274.3,278.3 268.3,278.3" fill="rgb(255,211,211)"/>
<polygon points="274.3,272.3 280.3,272.3 280.3,278.3 274.3,278.3" fill="rgb(239,239,255)"/>
<polygon points="280.3,272.3 286.3,272.3 286.3,278.3 280.3,278.3" fill="rgb(255,235,235)"/>
<polygon points="286.3,272.3 292.3,272.3 292.3,278.3 286.3,278.3" fill="rgb(255,152,152)"/>
<polygon points="292.3,272.3 298.3,272.3 298.3,278.3 292.3,278.3" fill="rgb(255,201,201)"/>
<polygon points="298.3,272.3 304.3,272.3 304.3,278.3 298.3,278.3" fill="rgb(220,220,255)"/>
<polygon points="314.3,272.3 320.3,272.3 320.3,278.3 314.3,278.3" fill="rgb(255,204,204)"/>
<polygon points="320.3,272.3 326.3,272.3 326.3,278.3 320.3,278.3" fill="rgb(237,237,255)"/>
<polygon points="326.3,272.3 332.3,272.3 332.3,278.3 326.3,278.3" fill="rgb(211,211,255)"/>
<polygon points="332.3,272.3 338.3,272.3 338.3,278.3 332.3,278.3" fill="rgb(213,213,255)"/>
<polygon points="338.3,272.3 344.3,272.3 344.3,278.3 338.3,278.3" fill="rgb(254,254,255)"/>
<polygon points="344.3,272.3 350.3,272.3 350.3,278.3 344.3,278.3" fill="rgb(255,197,197)"/>
<polygon points="350.3,272.3 356.3,272.3 356.3,278.3 350.3,278.3" fill="rgb(255,251,251)"/>
<polygon points="356.3,272.3 362.3,272.3 362.3,278.3 356.3,278.3" fill="rgb(255,210,210)"/>
<polygon points="164.3,278.3 172.3,278.3 172.3,284.3 164.3,284.3" fill="rgb(240,235,224)"/><text xml:space="preserve" x="168.3" y="284.133" font-family="Calibri" font-size="7.5" fill="rgb(0,0,0)" text-anchor="middle">8</text>
<polygon points="172.3,278.3 180.3,278.3 180.3,284.3 172.3,284.3" fill="rgb(134,198,192)"/><text xml:space="preserve" x="176.3" y="284.133" font-family="Calibri" font-size="7.5" fill="rgb(0,0,0)" text-anchor="middle">2</text>
<polygon points="180.3,278.3 188.3,278.3 188.3,284.3 180.3,284.3" fill="rgb(220,188,121)"/><text xml:space="preserve" x="184.3" y="284.133" font-family="Calibri" font-size="7.5" fill="rgb(0,0,0)" text-anchor="middle">13</text>
<polygon points="198.3,278.3 204.3,278.3 204.3,284.3 198.3,284.3" fill="rgb(255,216,216)"/>
<polygon points="204.3,278.3 210.3,278.3 210.3,284.3 204.3,284.3" fill="rgb(239,239,255)"/>
<polygon points="210.3,278.3 216.3,278.3 216.3,284.3 210.3,284.3" fill="rgb(198,198,255)"/>
<polygon points="216.3,278.3 222.3,278.3 222.3,284.3 216.3,284.3" fill="rgb(196,196,255)"/>
<polygon points="222.3,278.3 228.3,278.3 228.3,284.3 222.3,284.3" fill="rgb(244,244,255)"/>
<polygon points="228.3,278.3 234.3,278.3 234.3,284.3 228.3,284.3" fill="rgb(156,156,255)"/>
<polygon points="234.3,278.3 240.3,278.3 240.3,284.3 234.3,284.3" fill="rgb(166,166,255)"/>
<polygon points="240.3,278.3 246.3,278.3 246.3,284.3 240.3,284.3" fill="rgb(219,219,255)"/>
<polygon points="256.3,278.3 262.3,278.3 262.3,284.3 256.3,284.3" fill="rgb(255,228,228)"/>
<polygon points="262.3,278.3 268.3,278.3 268.3,284.3 262.3,284.3" fill="rgb(237,237,255)"/>
<polygon points="268.3,278.3 274.3,278.3 274.3,284.3 268.3,284.3" fill="rgb(255,215,215)"/>
<polygon points="274.3,278.3 280.3,278.3 280.3,284.3 274.3,284.3" fill="rgb(235,235,255)"/>
<polygon points="280.3,278.3 286.3,278.3 286.3,284.3 280.3,284.3" fill="rgb(208,208,255)"/>
<polygon points="286.3,278.3 292.3,278.3 292.3,284.3 286.3,284.3" fill="rgb(255,163,163)"/>
<polygon points="292.3,278.3 298.3,278.3 298.3,284.3 292.3,284.3" fill="rgb(171,171,255)"/>
<polygon points="298.3,278.3 304.3,278.3 304.3,284.3 298.3,284.3" fill="rgb(151,151,255)"/>
<polygon points="314.3,278.3 320.3,278.3 320.3,284.3 314.3,284.3" fill="rgb(255,157,157)"/>
<polygon points="320.3,278.3 326.3,278.3 326.3,284.3 320.3,284.3" fill="rgb(255,139,139)"/>
<polygon points="326.3,278.3 332.3,278.3 332.3,284.3 326.3,284.3" fill="rgb(255,43,43)"/>
<polygon points="332.3,278.3 338.3,278.3 338.3,284.3 332.3,284.3" fill="rgb(255,0,0)"/>
<polygon points="338.3,278.3 344.3,278.3 344.3,284.3 338.3,284.3" fill="rgb(255,209,209)"/>
<polygon points="344.3,278.3 350.3,278.3 350.3,284.3 344.3,284.3" fill="rgb(255,223,223)"/>
<polygon points="350.3,278.3 356.3,278.3 356.3,284.3 350.3,284.3" fill="rgb(130,130,255)"/>
<polygon points="356.3,278.3 362.3,278.3 362.3,284.3 356.3,284.3" fill="rgb(230,230,255)"/>
<polygon points="164.3,212.3 188.3,212.3 188.3,284.3 164.3,284.3" fill="none" stroke="black" stroke-width="1"/>
<polygon points="198.3,212.3 246.3,212.3 246.3,284.3 198.3,284.3" fill="none" stroke="black" stroke-width="1"/>
<polygon points="256.3,212.3 304.3,212.3 304.3,284.3 256.3,284.3" fill="none" stroke="black" stroke-width="1"/>
<polygon points="314.3,212.3 362.3,212.3 362.3,284.3 314.3,284.3" fill="none" stroke="black" stroke-width="1"/>
<text xml:space="preserve" x="202.15" y="316.633" font-family="Calibri" font-size="6" text-anchor="middle">moduleID</text>
<polygon points="92.15,324.3 112.15,324.3 112.15,344.3 92.15,344.3" fill="rgb(250,250,250)"/><polygon points="92.15,324.3 112.15,324.3 112.15,344.3 92.15,344.3" fill="none" stroke="black" stroke-width="1"/><text xml:space="preserve" x="102.15" y="337.133" font-family="Calibri" font-size="7.5" fill="rgb(0,0,0)" text-anchor="middle">-2.0</text>
<polygon points="112.15,324.3 132.15,324.3 132.15,344.3 112.15,344.3" fill="rgb(156,210,205)"/><polygon points="112.15,324.3 132.15,324.3 132.15,344.3 112.15,344.3" fill="none" stroke="black" stroke-width="1"/><text xml:space="preserve" x="122.15" y="337.133" font-family="Calibri" font-size="7.5" fill="rgb(0,0,0)" text-anchor="middle">-0.4</text>
<polygon points="132.15,324.3 152.15,324.3 152.15,344.3 132.15,344.3" fill="rgb(116,191,184)"/><polygon points="132.15,324.3 152.15,324.3 152.15,344.3 132.15,344.3" fill="none" stroke="black" stroke-width="1"/><text xml:space="preserve" x="142.15" y="337.133" font-family="Calibri" font-size="7.5" fill="rgb(0,0,0)" text-anchor="middle">1.2</text>
<polygon points="152.15,324.3 172.15,324.3 172.15,344.3 152.15,344.3" fill="rgb(152,206,201)"/><polygon points="152.15,324.3 172.15,324.3 172.15,344.3 152.15,344.3" fill="none" stroke="black" stroke-width="1"/><text xml:space="preserve" x="162.15" y="337.133" font-family="Calibri" font-size="7.5" fill="rgb(0,0,0)" text-anchor="middle">2.8</text>
<polygon points="172.15,324.3 192.15,324.3 192.15,344.3 172.15,344.3" fill="rgb(187,220,217)"/><polygon points="172.15,324.3 192.15,324.3 192.15,344.3 172.15,344.3" fill="none" stroke="black" stroke-width="1"/><text xml:space="preserve" x="182.15" y="337.133" font-family="Calibri" font-size="7.5" fill="rgb(0,0,0)" text-anchor="middle">4.4</text>
<polygon points="192.15,324.3 212.15,324.3 212.15,344.3 192.15,344.3" fill="rgb(222,235,234)"/><polygon points="192.15,324.3 212.15,324.3 212.15,344.3 192.15,344.3" fill="none" stroke="black" stroke-width="1"/><text xml:space="preserve" x="202.15" y="337.133" font-family="Calibri" font-size="7.5" fill="rgb(0,0,0)" text-anchor="middle">6.0</text>
<polygon points="212.15,324.3 232.15,324.3 232.15,344.3 212.15,344.3" fill="rgb(242,239,232)"/><polygon points="212.15,324.3 232.15,324.3 232.15,344.3 212.15,344.3" fill="none" stroke="black" stroke-width="1"/><text xml:space="preserve" x="222.15" y="337.133" font-family="Calibri" font-size="7.5" fill="rgb(0,0,0)" text-anchor="middle">7.6</text>
<polygon points="232.15,324.3 252.15,324.3 252.15,344.3 232.15,344.3" fill="rgb(235,224,199)"/><polygon points="232.15,324.3 252.15,324.3 252.15,344.3 232.15,344.3" fill="none" stroke="black" stroke-width="1"/><text xml:space="preserve" x="242.15" y="337.133" font-family="Calibri" font-size="7.5" fill="rgb(0,0,0)" text-anchor="middle">9.2</text>
<polygon points="252.15,324.3 272.15,324.3 272.15,344.3 252.15,344.3" fill="rgb(229,209,166)"/><polygon points="252.15,324.3 272.15,324.3 272.15,344.3 252.15,344.3" fill="none" stroke="black" stroke-width="1"/><text xml:space="preserve" x="262.15" y="337.133" font-family="Calibri" font-size="7.5" fill="rgb(0,0,0)" text-anchor="middle">10.8</text>
<polygon points="272.15,324.3 292.15,324.3 292.15,344.3 272.15,344.3" fill="rgb(222,194,133)"/><polygon points="272.15,324.3 292.15,324.3 292.15,344.3 272.15,344.3" fill="none" stroke="black" stroke-width="1"/><text xml:space="preserve" x="282.15" y="337.133" font-family="Calibri" font-size="7.5" fill="rgb(0,0,0)" text-anchor="middle">12.4</text>
<polygon points="292.15,324.3 312.15,324.3 312.15,344.3 292.15,344.3" fill="rgb(216,179,101)"/><polygon points="292.15,324.3 312.15,324.3 312.15,344.3 292.15,344.3" fill="none" stroke="black" stroke-width="1"/><text xml:space="preserve" x="302.15" y="337.133" font-family="Calibri" font-size="7.5" fill="rgb(0,0,0)" text-anchor="middle">14.0</text>
<text xml:space="preserve" x="202.15" y="376.633" font-family="Calibri" font-size="6" text-anchor="middle">marklevel</text>
<polygon points="92.15,384.3 112.15,384.3 112.15,404.3 92.15,404.3" fill="rgb(0,0,255)"/><polygon points="92.15,384.3 112.15,384.3 112.15,404.3 92.15,404.3" fill="none" stroke="black" stroke-width="1"/><text xml:space="preserve" x="102.15" y="397.133" font-family="Calibri" font-size="7.5" fill="rgb(255,255,255)" text-anchor="middle">-2.0</text>
<polygon points="112.15,384.3 132.15,384.3 132.15,404.3 112.15,404.3" fill="rgb(50,50,255)"/><polygon points="112.15,384.3 132.15,384.3 132.15,404.3 112.15,404.3" fill="none" stroke="black" stroke-width="1"/><text xml:space="preserve" x="122.15" y="397.133" font-family="Calibri" font-size="7.5" fill="rgb(255,255,255)" text-anchor="middle">-1.6</text>
<polygon points="132.15,384.3 152.15,384.3 152.15,404.3 132.15,404.3" fill="rgb(102,102,255)"/><polygon points="132.15,384.3 152.15,384.3 152.15,404.3 132.15,404.3" fill="none" stroke="black" stroke-width="1"/><text xml:space="preserve" x="142.15" y="397.133" font-family="Calibri" font-size="7.5" fill="rgb(255,255,255)" text-anchor="middle">-1.2</text>
<polygon points="152.15,384.3 172.15,384.3 172.15,404.3 152.15,404.3" fill="rgb(153,153,255)"/><polygon points="152.15,384.3 172.15,384.3 172.15,404.3 152.15,404.3" fill="none" stroke="black" stroke-width="1"/><text xml:space="preserve" x="162.15" y="397.133" font-family="Calibri" font-size="7.5" fill="rgb(0,0,0)" text-anchor="middle">-0.8</text>
<polygon points="172.15,384.3 192.15,384.3 192.15,404.3 172.15,404.3" fill="rgb(204,204,255)"/><polygon points="172.15,384.3 192.15,384.3 192.15,404.3 172.15,404.3" fill="none" stroke="black" stroke-width="1"/><text xml:space="preserve" x="182.15" y="397.133" font-family="Calibri" font-size="7.5" fill="rgb(0,0,0)" text-anchor="middle">-0.4</text>
<polygon points="192.15,384.3 212.15,384.3 212.15,404.3 192.15,404.3" fill="rgb(255,255,255)"/><polygon points="192.15,384.3 212.15,384.3 212.15,404.3 192.15,404.3" fill="none" stroke="black" stroke-width="1"/><text xml:space="preserve" x="202.15" y="397.133" font-family="Calibri" font-size="7.5" fill="rgb(0,0,0)" text-anchor="middle">0.0</text>
<polygon points="212.15,384.3 232.15,384.3 232.15,404.3 212.15,404.3" fill="rgb(255,204,204)"/><polygon points="212.15,384.3 232.15,384.3 232.15,404.3 212.15,404.3" fill="none" stroke="black" stroke-width="1"/><text xml:space="preserve" x="222.15" y="397.133" font-family="Calibri" font-size="7.5" fill="rgb(0,0,0)" text-anchor="middle">0.4</text>
<polygon points="232.15,384.3 252.15,384.3 252.15,404.3 232.15,404.3" fill="rgb(255,153,153)"/><polygon points="232.15,384.3 252.15,384.3 252.15,404.3 232.15,404.3" fill="none" stroke="black" stroke-width="1"/><text xml:space="preserve" x="242.15" y="397.133" font-family="Calibri" font-size="7.5" fill="rgb(0,0,0)" text-anchor="middle">0.8</text>
<polygon points="252.15,384.3 272.15,384.3 272.15,404.3 252.15,404.3" fill="rgb(255,102,102)"/><polygon points="252.15,384.3 272.15,384.3 272.15,404.3 252.15,404.3" fill="none" stroke="black" stroke-width="1"/><text xml:space="preserve" x="262.15" y="397.133" font-family="Calibri" font-size="7.5" fill="rgb(0,0,0)" text-anchor="middle">1.2</text>
<polygon points="272.15,384.3 292.15,384.3 292.15,404.3 272.15,404.3" fill="rgb(255,50,50)"/><polygon points="272.15,384.3 292.15,384.3 292.15,404.3 272.15,404.3" fill="none" stroke="black" stroke-width="1"/><text xml:space="preserve" x="282.15" y="397.133" font-family="Calibri" font-size="7.5" fill="rgb(255,255,255)" text-anchor="middle">1.6</text>
<polygon points="292.15,384.3 312.15,384.3 312.15,404.3 292.15,404.3" fill="rgb(255,0,0)"/><polygon points="292.15,384.3 312.15,384.3 312.15,404.3 292.15,404.3" fill="none" stroke="black" stroke-width="1"/><text xml:space="preserve" x="302.15" y="397.133" font-family="Calibri" font-size="7.5" fill="rgb(255,255,255)" text-anchor="middle">2.0</text>
</svg>
