<?xml version="1.0" standalone="no"?><!DOCTYPE svg PUBLIC "-//W3C//DTD SVG 1.1//EN" "http://www.w3.org/Graphics/SVG/1.1/DTD/svg11.dtd">
<svg width="351.8" height="502.3" version="1.1" xmlns="http://www.w3.org/2000/svg">
<text xml:space="preserve" x="107.8" y="217.633" font-family="Calibri" font-size="6" text-anchor="end">B3gnt7</text>
<text xml:space="preserve" x="107.8" y="223.633" font-family="Calibri" font-size="6" text-anchor="end">Mtap7</text>
<text xml:space="preserve" x="107.8" y="229.633" font-family="Calibri" font-size="6" text-anchor="end">Rfx2</text>
<text xml:space="preserve" x="107.8" y="235.633" font-family="Calibri" font-size="6" text-anchor="end">Grhl3</text>
<text xml:space="preserve" x="107.8" y="241.633" font-family="Calibri" font-size="6" text-anchor="end">Chmp4c</text>
<text xml:space="preserve" x="107.8" y="247.633" font-family="Calibri" font-size="6" text-anchor="end">Wdt2</text>
<text xml:space="preserve" x="107.8" y="253.633" font-family="Calibri" font-size="6" text-anchor="end">Tcfcp2l1</text>
<text xml:space="preserve" x="107.8" y="259.633" font-family="Calibri" font-size="6" text-anchor="end">Dact2</text>
<text xml:space="preserve" x="107.8" y="265.633" font-family="Calibri" font-size="6" text-anchor="end">Podxl</text>
<text xml:space="preserve" x="107.8" y="271.633" font-family="Calibri" font-size="6" text-anchor="end">Tbc1d8</text>
<text xml:space="preserve" x="107.8" y="277.633" font-family="Calibri" font-size="6" text-anchor="end">Tmem102</text>
<text xml:space="preserve" x="107.8" y="283.633" font-family="Calibri" font-size="6" text-anchor="end">Tspan15</text>
<text xml:space="preserve" x="107.8" y="289.633" font-family="Calibri" font-size="6" text-anchor="end">Upp1</text>
<text xml:space="preserve" x="107.8" y="295.633" font-family="Calibri" font-size="6" text-anchor="end">Ypel1</text>
<text xml:space="preserve" x="107.8" y="301.633" font-family="Calibri" font-size="6" text-anchor="end">Zbtb7c</text>
<text xml:space="preserve" x="107.8" y="307.633" font-family="Calibri" font-size="6" text-anchor="end">Zic2</text>
<text xml:space="preserve" x="107.8" y="313.633" font-family="Calibri" font-size="6" text-anchor="end">Zic5</text>
<text xml:space="preserve" x="107.8" y="319.633" font-family="Calibri" font-size="6" text-anchor="end">Il28ra</text>
<text xml:space="preserve" x="107.8" y="325.633" font-family="Calibri" font-size="6" text-anchor="end">BC004728</text>
<text xml:space="preserve" x="107.8" y="331.633" font-family="Calibri" font-size="6" text-anchor="end">Aldh1b1</text>
<text xml:space="preserve" x="107.8" y="337.633" font-family="Calibri" font-size="6" text-anchor="end">Pde9a</text>
<text xml:space="preserve" x="107.8" y="343.633" font-family="Calibri" font-size="6" text-anchor="end">Kcng3</text>
<text xml:space="preserve" x="107.8" y="349.633" font-family="Calibri" font-size="6" text-anchor="end">Cldn9</text>
<text xml:space="preserve" x="107.8" y="355.633" font-family="Calibri" font-size="6" text-anchor="end">Acpp</text>
<text xml:space="preserve" x="107.8" y="361.633" font-family="Calibri" font-size="6" text-anchor="end">Baz2b</text>
<text xml:space="preserve" x="118.133" y="208.3" font-family="Calibri" font-size="6" transform="rotate(270 118.133 208.3)">ips</text>
<text xml:space="preserve" x="126.133" y="208.3" font-family="Calibri" font-size="6" transform="rotate(270 126.133 208.3)">pips</text>
<text xml:space="preserve" x="134.133" y="208.3" font-family="Calibri" font-size="6" transform="rotate(270 134.133 208.3)">mef</text>
<text xml:space="preserve" x="151.133" y="208.3" font-family="Calibri" font-size="6" transform="rotate(270 151.133 208.3)">ips_H3K4me3iPS</text>
<text xml:space="preserve" x="157.133" y="208.3" font-family="Calibri" font-size="6" transform="rotate(270 157.133 208.3)">ips_H3K9aciPS</text>
<text xml:space="preserve" x="163.133" y="208.3" font-family="Calibri" font-size="6" transform="rotate(270 163.133 208.3)">ips_H3K14aciPS</text>
<text xml:space="preserve" x="169.133" y="208.3" font-family="Calibri" font-size="6" transform="rotate(270 169.133 208.3)">ips_H3K18aciPS</text>
<text xml:space="preserve" x="175.133" y="208.3" font-family="Calibri" font-size="6" transform="rotate(270 175.133 208.3)">ips_H3K79me2iPS</text>
<text xml:space="preserve" x="181.133" y="208.3" font-family="Calibri" font-size="6" transform="rotate(270 181.133 208.3)">ips_H3K9me2iPS</text>
<text xml:space="preserve" x="187.133" y="208.3" font-family="Calibri" font-size="6" transform="rotate(270 187.133 208.3)">ips_H3K9me3iPS</text>
<text xml:space="preserve" x="193.133" y="208.3" font-family="Calibri" font-size="6" transform="rotate(270 193.133 208.3)">ips_H3K27me3iPS</text>
<text xml:space="preserve" x="209.133" y="208.3" font-family="Calibri" font-size="6" transform="rotate(270 209.133 208.3)">pips_H3K4me3pips</text>
<text xml:space="preserve" x="215.133" y="208.3" font-family="Calibri" font-size="6" transform="rotate(270 215.133 208.3)">pips_H3K9acpips</text>
<text xml:space="preserve" x="221.133" y="208.3" font-family="Calibri" font-size="6" transform="rotate(270 221.133 208.3)">pips_H3K14acpips</text>
<text xml:space="preserve" x="227.133" y="208.3" font-family="Calibri" font-size="6" transform="rotate(270 227.133 208.3)">pips_H3K18acpips</text>
<text xml:space="preserve" x="233.133" y="208.3" font-family="Calibri" font-size="6" transform="rotate(270 233.133 208.3)">pips_H3K79me2pips</text>
<text xml:space="preserve" x="239.133" y="208.3" font-family="Calibri" font-size="6" transform="rotate(270 239.133 208.3)">pips_H3K9me2pips</text>
<text xml:space="preserve" x="245.133" y="208.3" font-family="Calibri" font-size="6" transform="rotate(270 245.133 208.3)">pips_H3K9me3pips</text>
<text xml:space="preserve" x="251.133" y="208.3" font-family="Calibri" font-size="6" transform="rotate(270 251.133 208.3)">pips_H3K27me3pips</text>
<text xml:space="preserve" x="267.133" y="208.3" font-family="Calibri" font-size="6" transform="rotate(270 267.133 208.3)">mef_H3K4me3mef</text>
<text xml:space="preserve" x="273.133" y="208.3" font-family="Calibri" font-size="6" transform="rotate(270 273.133 208.3)">mef_H3K9acmef</text>
<text xml:space="preserve" x="279.133" y="208.3" font-family="Calibri" font-size="6" transform="rotate(270 279.133 208.3)">mef_H3K14acmef</text>
<text xml:space="preserve" x="285.133" y="208.3" font-family="Calibri" font-size="6" transform="rotate(270 285.133 208.3)">mef_H3K18acmef</text>
<text xml:space="preserve" x="291.133" y="208.3" font-family="Calibri" font-size="6" transform="rotate(270 291.133 208.3)">mef_H3K79me2mef</text>
<text xml:space="preserve" x="297.133" y="208.3" font-family="Calibri" font-size="6" transform="rotate(270 297.133 208.3)">mef_H3K9me2mef</text>
<text xml:space="preserve" x="303.133" y="208.3" font-family="Calibri" font-size="6" transform="rotate(270 303.133 208.3)">mef_H3K9me3mef</text>
<text xml:space="preserve" x="309.133" y="208.3" font-family="Calibri" font-size="6" transform="rotate(270 309.133 208.3)">mef_H3K27me3mef</text>
<polygon points="111.8,212.3 119.8,212.3 119.8,218.3 111.8,218.3" fill="rgb(220,188,121)"/><text xml:space="preserve" x="115.8" y="218.133" font-family="Calibri" font-size="7.5" fill="rgb(0,0,0)" text-anchor="middle">13</text>
<polygon points="119.8,212.3 127.8,212.3 127.8,218.3 119.8,218.3" fill="rgb(245,245,245)"/><text xml:space="preserve" x="123.8" y="218.133" font-family="Calibri" font-size="7.5" fill="rgb(0,0,0)" text-anchor="middle">7</text>
<polygon points="127.8,212.3 135.8,212.3 135.8,218.3 127.8,218.3" fill="rgb(228,207,162)"/><text xml:space="preserve" x="131.8" y="218.133" font-family="Calibri" font-size="7.5" fill="rgb(0,0,0)" text-anchor="middle">11</text>
<polygon points="145.8,212.3 151.8,212.3 151.8,218.3 145.8,218.3" fill="rgb(255,227,227)"/>
<polygon points="151.8,212.3 157.8,212.3 157.8,218.3 151.8,218.3" fill="rgb(255,216,216)"/>
<polygon points="157.8,212.3 163.8,212.3 163.8,218.3 157.8,218.3" fill="rgb(255,123,123)"/>
<polygon points="163.8,212.3 169.8,212.3 169.8,218.3 163.8,218.3" fill="rgb(255,58,58)"/>
<polygon points="169.8,212.3 175.8,212.3 175.8,218.3 169.8,218.3" fill="rgb(255,208,208)"/>
<polygon points="175.8,212.3 181.8,212.3 181.8,218.3 175.8,218.3" fill="rgb(254,249,249)"/>
<polygon points="181.8,212.3 187.8,212.3 187.8,218.3 181.8,218.3" fill="rgb(255,231,231)"/>
<polygon points="187.8,212.3 193.8,212.3 193.8,218.3 187.8,218.3" fill="rgb(255,177,177)"/>
<polygon points="203.8,212.3 209.8,212.3 209.8,218.3 203.8,218.3" fill="rgb(255,250,250)"/>
<polygon points="209.8,212.3 215.8,212.3 215.8,218.3 209.8,218.3" fill="rgb(255,214,214)"/>
<polygon points="215.8,212.3 221.8,212.3 221.8,218.3 215.8,218.3" fill="rgb(255,177,177)"/>
<polygon points="221.8,212.3 227.8,212.3 227.8,218.3 221.8,218.3" fill="rgb(255,124,124)"/>
<polygon points="227.8,212.3 233.8,212.3 233.8,218.3 227.8,218.3" fill="rgb(255,252,252)"/>
<polygon points="233.8,212.3 239.8,212.3 239.8,218.3 233.8,218.3" fill="rgb(180,180,255)"/>
<polygon points="239.8,212.3 245.8,212.3 245.8,218.3 239.8,218.3" fill="rgb(194,194,255)"/>
<polygon points="245.8,212.3 251.8,212.3 251.8,218.3 245.8,218.3" fill="rgb(234,234,255)"/>
<polygon points="261.8,212.3 267.8,212.3 267.8,218.3 261.8,218.3" fill="rgb(192,192,255)"/>
<polygon points="267.8,212.3 273.8,212.3 273.8,218.3 267.8,218.3" fill="rgb(202,202,255)"/>
<polygon points="273.8,212.3 279.8,212.3 279.8,218.3 273.8,218.3" fill="rgb(255,253,253)"/>
<polygon points="279.8,212.3 285.8,212.3 285.8,218.3 279.8,218.3" fill="rgb(255,223,223)"/>
<polygon points="285.8,212.3 291.8,212.3 291.8,218.3 285.8,218.3" fill="rgb(192,192,255)"/>
<polygon points="291.8,212.3 297.8,212.3 297.8,218.3 291.8,218.3" fill="rgb(210,210,255)"/>
<polygon points="297.8,212.3 303.8,212.3 303.8,218.3 297.8,218.3" fill="rgb(255,228,228)"/>
<polygon points="303.8,212.3 309.8,212.3 309.8,218.3 303.8,218.3" fill="rgb(255,129,129)"/>
<polygon points="111.8,218.3 119.8,218.3 119.8,224.3 111.8,224.3" fill="rgb(220,188,121)"/><text xml:space="preserve" x="115.8" y="224.133" font-family="Calibri" font-size="7.5" fill="rgb(0,0,0)" text-anchor="middle">13</text>
<polygon points="119.8,218.3 127.8,218.3 127.8,224.3 119.8,224.3" fill="rgb(245,245,245)"/><text xml:space="preserve" x="123.8" y="224.133" font-family="Calibri" font-size="7.5" fill="rgb(0,0,0)" text-anchor="middle">7</text>
<polygon points="127.8,218.3 135.8,218.3 135.8,224.3 127.8,224.3" fill="rgb(228,207,162)"/><text xml:space="preserve" x="131.8" y="224.133" font-family="Calibri" font-size="7.5" fill="rgb(0,0,0)" text-anchor="middle">11</text>
<polygon points="145.8,218.3 151.8,218.3 151.8,224.3 145.8,224.3" fill="rgb(255,217,217)"/>
<polygon points="151.8,218.3 157.8,218.3 157.8,224.3 151.8,224.3" fill="rgb(255,157,157)"/>
<polygon points="157.8,218.3 163.8,218.3 163.8,224.3 157.8,224.3" fill="rgb(255,115,115)"/>
<polygon points="163.8,218.3 169.8,218.3 169.8,224.3 163.8,224.3" fill="rgb(255,98,98)"/>
<polygon points="169.8,218.3 175.8,218.3 175.8,224.3 169.8,224.3" fill="rgb(255,138,138)"/>
<polygon points="175.8,218.3 181.8,218.3 181.8,224.3 175.8,224.3" fill="rgb(244,244,255)"/>
<polygon points="181.8,218.3 187.8,218.3 187.8,224.3 181.8,224.3" fill="rgb(249,249,255)"/>
<polygon points="187.8,218.3 193.8,218.3 193.8,224.3 187.8,224.3" fill="rgb(255,159,159)"/>
<polygon points="203.8,218.3 209.8,218.3 209.8,224.3 203.8,224.3" fill="rgb(255,215,215)"/>
<polygon points="209.8,218.3 215.8,218.3 215.8,224.3 209.8,224.3" fill="rgb(255,144,144)"/>
<polygon points="215.8,218.3 221.8,218.3 221.8,224.3 215.8,224.3" fill="rgb(255,245,245)"/>
<polygon points="221.8,218.3 227.8,218.3 227.8,224.3 221.8,224.3" fill="rgb(255,186,186)"/>
<polygon points="227.8,218.3 233.8,218.3 233.8,224.3 227.8,224.3" fill="rgb(255,187,187)"/>
<polygon points="233.8,218.3 239.8,218.3 239.8,224.3 233.8,224.3" fill="rgb(202,202,255)"/>
<polygon points="239.8,218.3 245.8,218.3 245.8,224.3 239.8,224.3" fill="rgb(255,248,248)"/>
<polygon points="245.8,218.3 251.8,218.3 251.8,224.3 245.8,224.3" fill="rgb(217,217,255)"/>
<polygon points="261.8,218.3 267.8,218.3 267.8,224.3 261.8,224.3" fill="rgb(239,239,255)"/>
<polygon points="267.8,218.3 273.8,218.3 273.8,224.3 267.8,224.3" fill="rgb(225,225,255)"/>
<polygon points="273.8,218.3 279.8,218.3 279.8,224.3 273.8,224.3" fill="rgb(233,233,255)"/>
<polygon points="279.8,218.3 285.8,218.3 285.8,224.3 279.8,224.3" fill="rgb(158,158,255)"/>
<polygon points="285.8,218.3 291.8,218.3 291.8,224.3 285.8,224.3" fill="rgb(202,202,255)"/>
<polygon points="291.8,218.3 297.8,218.3 297.8,224.3 291.8,224.3" fill="rgb(255,248,248)"/>
<polygon points="297.8,218.3 303.8,218.3 303.8,224.3 297.8,224.3" fill="rgb(255,166,166)"/>
<polygon points="303.8,218.3 309.8,218.3 309.8,224.3 303.8,224.3" fill="rgb(255,105,105)"/>
<polygon points="111.8,224.3 119.8,224.3 119.8,230.3 111.8,230.3" fill="rgb(220,188,121)"/><text xml:space="preserve" x="115.8" y="230.133" font-family="Calibri" font-size="7.5" fill="rgb(0,0,0)" text-anchor="middle">13</text>
<polygon points="119.8,224.3 127.8,224.3 127.8,230.3 119.8,230.3" fill="rgb(245,245,245)"/><text xml:space="preserve" x="123.8" y="230.133" font-family="Calibri" font-size="7.5" fill="rgb(0,0,0)" text-anchor="middle">7</text>
<polygon points="127.8,224.3 135.8,224.3 135.8,230.3 127.8,230.3" fill="rgb(228,207,162)"/><text xml:space="preserve" x="131.8" y="230.133" font-family="Calibri" font-size="7.5" fill="rgb(0,0,0)" text-anchor="middle">11</text>
<polygon points="145.8,224.3 151.8,224.3 151.8,230.3 145.8,230.3" fill="rgb(255,111,111)"/>
<polygon points="151.8,224.3 157.8,224.3 157.8,230.3 151.8,230.3" fill="rgb(255,77,77)"/>
<polygon points="157.8,224.3 163.8,224.3 163.8,230.3 157.8,230.3" fill="rgb(255,0,0)"/>
<polygon points="163.8,224.3 169.8,224.3 169.8,230.3 163.8,230.3" fill="rgb(255,0,0)"/>
<polygon points="169.8,224.3 175.8,224.3 175.8,230.3 169.8,230.3" fill="rgb(255,130,130)"/>
<polygon points="175.8,224.3 181.8,224.3 181.8,230.3 175.8,230.3" fill="rgb(255,233,233)"/>
<polygon points="181.8,224.3 187.8,224.3 187.8,230.3 181.8,230.3" fill="rgb(232,232,255)"/>
<polygon points="187.8,224.3 193.8,224.3 193.8,230.3 187.8,230.3" fill="rgb(255,205,205)"/>
<polygon points="203.8,224.3 209.8,224.3 209.8,230.3 203.8,230.3" fill="rgb(255,181,181)"/>
<polygon points="209.8,224.3 215.8,224.3 215.8,230.3 209.8,230.3" fill="rgb(255,214,214)"/>
<polygon points="215.8,224.3 221.8,224.3 221.8,230.3 215.8,230.3" fill="rgb(255,159,159)"/>
<polygon points="221.8,224.3 227.8,224.3 227.8,230.3 221.8,230.3" fill="rgb(255,156,156)"/>
<polygon points="227.8,224.3 233.8,224.3 233.8,230.3 227.8,230.3" fill="rgb(255,234,234)"/>
<polygon points="233.8,224.3 239.8,224.3 239.8,230.3 233.8,230.3" fill="rgb(254,254,255)"/>
<polygon points="239.8,224.3 245.8,224.3 245.8,230.3 239.8,230.3" fill="rgb(255,254,254)"/>
<polygon points="245.8,224.3 251.8,224.3 251.8,230.3 245.8,230.3" fill="rgb(255,170,170)"/>
<polygon points="261.8,224.3 267.8,224.3 267.8,230.3 261.8,230.3" fill="rgb(255,200,200)"/>
<polygon points="267.8,224.3 273.8,224.3 273.8,230.3 267.8,230.3" fill="rgb(255,253,253)"/>
<polygon points="273.8,224.3 279.8,224.3 279.8,230.3 273.8,230.3" fill="rgb(160,160,255)"/>
<polygon points="279.8,224.3 285.8,224.3 285.8,230.3 279.8,230.3" fill="rgb(237,237,255)"/>
<polygon points="285.8,224.3 291.8,224.3 291.8,230.3 285.8,230.3" fill="rgb(208,208,255)"/>
<polygon points="291.8,224.3 297.8,224.3 297.8,230.3 291.8,230.3" fill="rgb(226,226,255)"/>
<polygon points="297.8,224.3 303.8,224.3 303.8,230.3 297.8,230.3" fill="rgb(255,155,155)"/>
<polygon points="303.8,224.3 309.8,224.3 309.8,230.3 303.8,230.3" fill="rgb(255,39,39)"/>
<polygon points="111.8,230.3 119.8,230.3 119.8,236.3 111.8,236.3" fill="rgb(220,188,121)"/><text xml:space="preserve" x="115.8" y="236.133" font-family="Calibri" font-size="7.5" fill="rgb(0,0,0)" text-anchor="middle">13</text>
<polygon points="119.8,230.3 127.8,230.3 127.8,236.3 119.8,236.3" fill="rgb(245,245,245)"/><text xml:space="preserve" x="123.8" y="236.133" font-family="Calibri" font-size="7.5" fill="rgb(0,0,0)" text-anchor="middle">7</text>
<polygon points="127.8,230.3 135.8,230.3 135.8,236.3 127.8,236.3" fill="rgb(228,207,162)"/><text xml:space="preserve" x="131.8" y="236.133" font-family="Calibri" font-size="7.5" fill="rgb(0,0,0)" text-anchor="middle">11</text>
<polygon points="145.8,230.3 151.8,230.3 151.8,236.3 145.8,236.3" fill="rgb(255,175,175)"/>
<polygon points="151.8,230.3 157.8,230.3 157.8,236.3 151.8,236.3" fill="rgb(255,147,147)"/>
<polygon points="157.8,230.3 163.8,230.3 163.8,236.3 157.8,236.3" fill="rgb(255,108,108)"/>
<polygon points="163.8,230.3 169.8,230.3 169.8,236.3 163.8,236.3" fill="rgb(255,0,0)"/>
<polygon points="169.8,230.3 175.8,230.3 175.8,236.3 169.8,236.3" fill="rgb(255,223,223)"/>
<polygon points="175.8,230.3 181.8,230.3 181.8,236.3 175.8,236.3" fill="rgb(241,241,255)"/>
<polygon points="181.8,230.3 187.8,230.3 187.8,236.3 181.8,236.3" fill="rgb(217,217,255)"/>
<polygon points="187.8,230.3 193.8,230.3 193.8,236.3 187.8,236.3" fill="rgb(255,209,209)"/>
<polygon points="203.8,230.3 209.8,230.3 209.8,236.3 203.8,236.3" fill="rgb(255,206,206)"/>
<polygon points="209.8,230.3 215.8,230.3 215.8,236.3 209.8,236.3" fill="rgb(255,209,209)"/>
<polygon points="215.8,230.3 221.8,230.3 221.8,236.3 215.8,236.3" fill="rgb(255,193,193)"/>
<polygon points="221.8,230.3 227.8,230.3 227.8,236.3 221.8,236.3" fill="rgb(255,116,116)"/>
<polygon points="227.8,230.3 233.8,230.3 233.8,236.3 227.8,236.3" fill="rgb(209,209,255)"/>
<polygon points="233.8,230.3 239.8,230.3 239.8,236.3 233.8,236.3" fill="rgb(179,179,255)"/>
<polygon points="239.8,230.3 245.8,230.3 245.8,236.3 239.8,236.3" fill="rgb(255,219,219)"/>
<polygon points="245.8,230.3 251.8,230.3 251.8,236.3 245.8,236.3" fill="rgb(254,226,226)"/>
<polygon points="261.8,230.3 267.8,230.3 267.8,236.3 261.8,236.3" fill="rgb(205,205,255)"/>
<polygon points="267.8,230.3 273.8,230.3 273.8,236.3 267.8,236.3" fill="rgb(207,207,255)"/>
<polygon points="273.8,230.3 279.8,230.3 279.8,236.3 273.8,236.3" fill="rgb(255,226,226)"/>
<polygon points="279.8,230.3 285.8,230.3 285.8,236.3 279.8,236.3" fill="rgb(255,215,215)"/>
<polygon points="285.8,230.3 291.8,230.3 291.8,236.3 285.8,236.3" fill="rgb(165,165,255)"/>
<polygon points="291.8,230.3 297.8,230.3 297.8,236.3 291.8,236.3" fill="rgb(195,195,255)"/>
<polygon points="297.8,230.3 303.8,230.3 303.8,236.3 297.8,236.3" fill="rgb(255,198,198)"/>
<polygon points="303.8,230.3 309.8,230.3 309.8,236.3 303.8,236.3" fill="rgb(255,44,44)"/>
<polygon points="111.8,236.3 119.8,236.3 119.8,242.3 111.8,242.3" fill="rgb(220,188,121)"/><text xml:space="preserve" x="115.8" y="242.133" font-family="Calibri" font-size="7.5" fill="rgb(0,0,0)" text-anchor="middle">13</text>
<polygon points="119.8,236.3 127.8,236.3 127.8,242.3 119.8,242.3" fill="rgb(245,245,245)"/><text xml:space="preserve" x="123.8" y="242.133" font-family="Calibri" font-size="7.5" fill="rgb(0,0,0)" text-anchor="middle">7</text>
<polygon points="127.8,236.3 135.8,236.3 135.8,242.3 127.8,242.3" fill="rgb(228,207,162)"/><text xml:space="preserve" x="131.8" y="242.133" font-family="Calibri" font-size="7.5" fill="rgb(0,0,0)" text-anchor="middle">11</text>
<polygon points="145.8,236.3 151.8,236.3 151.8,242.3 145.8,242.3" fill="rgb(255,167,167)"/>
<polygon points="151.8,236.3 157.8,236.3 157.8,242.3 151.8,242.3" fill="rgb(255,156,156)"/>
<polygon points="157.8,236.3 163.8,236.3 163.8,242.3 157.8,242.3" fill="rgb(255,149,149)"/>
<polygon points="163.8,236.3 169.8,236.3 169.8,242.3 163.8,242.3" fill="rgb(255,24,24)"/>
<polygon points="169.8,236.3 175.8,236.3 175.8,242.3 169.8,242.3" fill="rgb(255,176,176)"/>
<polygon points="175.8,236.3 181.8,236.3 181.8,242.3 175.8,242.3" fill="rgb(255,221,221)"/>
<polygon points="181.8,236.3 187.8,236.3 187.8,242.3 181.8,242.3" fill="rgb(255,223,223)"/>
<polygon points="187.8,236.3 193.8,236.3 193.8,242.3 187.8,242.3" fill="rgb(195,195,255)"/>
<polygon points="203.8,236.3 209.8,236.3 209.8,242.3 203.8,242.3" fill="rgb(248,248,255)"/>
<polygon points="209.8,236.3 215.8,236.3 215.8,242.3 209.8,242.3" fill="rgb(255,222,222)"/>
<polygon points="215.8,236.3 221.8,236.3 221.8,242.3 215.8,242.3" fill="rgb(255,183,183)"/>
<polygon points="221.8,236.3 227.8,236.3 227.8,242.3 221.8,242.3" fill="rgb(255,137,137)"/>
<polygon points="227.8,236.3 233.8,236.3 233.8,242.3 227.8,242.3" fill="rgb(255,193,193)"/>
<polygon points="233.8,236.3 239.8,236.3 239.8,242.3 233.8,242.3" fill="rgb(255,222,222)"/>
<polygon points="239.8,236.3 245.8,236.3 245.8,242.3 239.8,242.3" fill="rgb(255,152,152)"/>
<polygon points="245.8,236.3 251.8,236.3 251.8,242.3 245.8,242.3" fill="rgb(206,206,255)"/>
<polygon points="261.8,236.3 267.8,236.3 267.8,242.3 261.8,242.3" fill="rgb(246,246,255)"/>
<polygon points="267.8,236.3 273.8,236.3 273.8,242.3 267.8,242.3" fill="rgb(212,212,255)"/>
<polygon points="273.8,236.3 279.8,236.3 279.8,242.3 273.8,242.3" fill="rgb(220,220,255)"/>
<polygon points="279.8,236.3 285.8,236.3 285.8,242.3 279.8,242.3" fill="rgb(222,222,255)"/>
<polygon points="285.8,236.3 291.8,236.3 291.8,242.3 285.8,242.3" fill="rgb(197,197,255)"/>
<polygon points="291.8,236.3 297.8,236.3 297.8,242.3 291.8,242.3" fill="rgb(255,144,144)"/>
<polygon points="297.8,236.3 303.8,236.3 303.8,242.3 297.8,242.3" fill="rgb(255,181,181)"/>
<polygon points="303.8,236.3 309.8,236.3 309.8,242.3 303.8,242.3" fill="rgb(255,169,169)"/>
<polygon points="111.8,242.3 119.8,242.3 119.8,248.3 111.8,248.3" fill="rgb(220,188,121)"/><text xml:space="preserve" x="115.8" y="248.133" font-family="Calibri" font-size="7.5" fill="rgb(0,0,0)" text-anchor="middle">13</text>
<polygon points="119.8,242.3 127.8,242.3 127.8,248.3 119.8,248.3" fill="rgb(245,245,245)"/><text xml:space="preserve" x="123.8" y="248.133" font-family="Calibri" font-size="7.5" fill="rgb(0,0,0)" text-anchor="middle">7</text>
<polygon points="127.8,242.3 135.8,242.3 135.8,248.3 127.8,248.3" fill="rgb(228,207,162)"/><text xml:space="preserve" x="131.8" y="248.133" font-family="Calibri" font-size="7.5" fill="rgb(0,0,0)" text-anchor="middle">11</text>
<polygon points="145.8,242.3 151.8,242.3 151.8,248.3 145.8,248.3" fill="rgb(255,110,110)"/>
<polygon points="151.8,242.3 157.8,242.3 157.8,248.3 151.8,248.3" fill="rgb(255,58,58)"/>
<polygon points="157.8,242.3 163.8,242.3 163.8,248.3 157.8,248.3" fill="rgb(255,83,83)"/>
<polygon points="163.8,242.3 169.8,242.3 169.8,248.3 163.8,248.3" fill="rgb(255,0,0)"/>
<polygon points="169.8,242.3 175.8,242.3 175.8,248.3 169.8,248.3" fill="rgb(255,151,151)"/>
<polygon points="175.8,242.3 181.8,242.3 181.8,248.3 175.8,248.3" fill="rgb(184,184,255)"/>
<polygon points="181.8,242.3 187.8,242.3 187.8,248.3 181.8,248.3" fill="rgb(194,194,255)"/>
<polygon points="187.8,242.3 193.8,242.3 193.8,248.3 187.8,248.3" fill="rgb(195,195,255)"/>
<polygon points="203.8,242.3 209.8,242.3 209.8,248.3 203.8,248.3" fill="rgb(255,162,162)"/>
<polygon points="209.8,242.3 215.8,242.3 215.8,248.3 209.8,248.3" fill="rgb(254,225,225)"/>
<polygon points="215.8,242.3 221.8,242.3 221.8,248.3 215.8,248.3" fill="rgb(255,226,226)"/>
<polygon points="221.8,242.3 227.8,242.3 227.8,248.3 221.8,248.3" fill="rgb(255,189,189)"/>
<polygon points="227.8,242.3 233.8,242.3 233.8,248.3 227.8,248.3" fill="rgb(235,235,255)"/>
<polygon points="233.8,242.3 239.8,242.3 239.8,248.3 233.8,248.3" fill="rgb(201,201,255)"/>
<polygon points="239.8,242.3 245.8,242.3 245.8,248.3 239.8,248.3" fill="rgb(244,244,255)"/>
<polygon points="245.8,242.3 251.8,242.3 251.8,248.3 245.8,248.3" fill="rgb(251,251,255)"/>
<polygon points="261.8,242.3 267.8,242.3 267.8,248.3 261.8,248.3" fill="rgb(253,253,255)"/>
<polygon points="267.8,242.3 273.8,242.3 273.8,248.3 267.8,248.3" fill="rgb(252,252,255)"/>
<polygon points="273.8,242.3 279.8,242.3 279.8,248.3 273.8,248.3" fill="rgb(255,253,253)"/>
<polygon points="279.8,242.3 285.8,242.3 285.8,248.3 279.8,248.3" fill="rgb(218,218,255)"/>
<polygon points="285.8,242.3 291.8,242.3 291.8,248.3 285.8,248.3" fill="rgb(178,178,255)"/>
<polygon points="291.8,242.3 297.8,242.3 297.8,248.3 291.8,248.3" fill="rgb(203,203,255)"/>
<polygon points="297.8,242.3 303.8,242.3 303.8,248.3 297.8,248.3" fill="rgb(255,211,211)"/>
<polygon points="303.8,242.3 309.8,242.3 309.8,248.3 303.8,248.3" fill="rgb(255,162,162)"/>
<polygon points="111.8,248.3 119.8,248.3 119.8,254.3 111.8,254.3" fill="rgb(220,188,121)"/><text xml:space="preserve" x="115.8" y="254.133" font-family="Calibri" font-size="7.5" fill="rgb(0,0,0)" text-anchor="middle">13</text>
<polygon points="119.8,248.3 127.8,248.3 127.8,254.3 119.8,254.3" fill="rgb(245,245,245)"/><text xml:space="preserve" x="123.8" y="254.133" font-family="Calibri" font-size="7.5" fill="rgb(0,0,0)" text-anchor="middle">7</text>
<polygon points="127.8,248.3 135.8,248.3 135.8,254.3 127.8,254.3" fill="rgb(228,207,162)"/><text xml:space="preserve" x="131.8" y="254.133" font-family="Calibri" font-size="7.5" fill="rgb(0,0,0)" text-anchor="middle">11</text>
<polygon points="145.8,248.3 151.8,248.3 151.8,254.3 145.8,254.3" fill="rgb(255,175,175)"/>
<polygon points="151.8,248.3 157.8,248.3 157.8,254.3 151.8,254.3" fill="rgb(255,161,161)"/>
<polygon points="157.8,248.3 163.8,248.3 163.8,254.3 157.8,254.3" fill="rgb(255,121,121)"/>
<polygon points="163.8,248.3 169.8,248.3 169.8,254.3 163.8,254.3" fill="rgb(255,34,34)"/>
<polygon points="169.8,248.3 175.8,248.3 175.8,254.3 169.8,254.3" fill="rgb(255,130,130)"/>
<polygon points="175.8,248.3 181.8,248.3 181.8,254.3 175.8,254.3" fill="rgb(255,243,243)"/>
<polygon points="181.8,248.3 187.8,248.3 187.8,254.3 181.8,254.3" fill="rgb(255,248,248)"/>
<polygon points="187.8,248.3 193.8,248.3 193.8,254.3 187.8,254.3" fill="rgb(255,216,216)"/>
<polygon points="203.8,248.3 209.8,248.3 209.8,254.3 203.8,254.3" fill="rgb(245,245,255)"/>
<polygon points="209.8,248.3 215.8,248.3 215.8,254.3 209.8,254.3" fill="rgb(255,228,228)"/>
<polygon points="215.8,248.3 221.8,248.3 221.8,254.3 215.8,254.3" fill="rgb(255,192,192)"/>
<polygon points="221.8,248.3 227.8,248.3 227.8,254.3 221.8,254.3" fill="rgb(255,129,129)"/>
<polygon points="227.8,248.3 233.8,248.3 233.8,254.3 227.8,254.3" fill="rgb(255,239,239)"/>
<polygon points="233.8,248.3 239.8,248.3 239.8,254.3 233.8,254.3" fill="rgb(173,173,255)"/>
<polygon points="239.8,248.3 245.8,248.3 245.8,254.3 239.8,254.3" fill="rgb(209,209,255)"/>
<polygon points="245.8,248.3 251.8,248.3 251.8,254.3 245.8,254.3" fill="rgb(245,245,255)"/>
<polygon points="261.8,248.3 267.8,248.3 267.8,254.3 261.8,254.3" fill="rgb(215,215,255)"/>
<polygon points="267.8,248.3 273.8,248.3 273.8,254.3 267.8,254.3" fill="rgb(182,182,255)"/>
<polygon points="273.8,248.3 279.8,248.3 279.8,254.3 273.8,254.3" fill="rgb(209,209,255)"/>
<polygon points="279.8,248.3 285.8,248.3 285.8,254.3 279.8,254.3" fill="rgb(156,156,255)"/>
<polygon points="285.8,248.3 291.8,248.3 291.8,254.3 285.8,254.3" fill="rgb(184,184,255)"/>
<polygon points="291.8,248.3 297.8,248.3 297.8,254.3 291.8,254.3" fill="rgb(220,220,255)"/>
<polygon points="297.8,248.3 303.8,248.3 303.8,254.3 297.8,254.3" fill="rgb(255,246,246)"/>
<polygon points="303.8,248.3 309.8,248.3 309.8,254.3 303.8,254.3" fill="rgb(255,87,87)"/>
<polygon points="111.8,254.3 119.8,254.3 119.8,260.3 111.8,260.3" fill="rgb(216,179,101)"/><text xml:space="preserve" x="115.8" y="260.133" font-family="Calibri" font-size="7.5" fill="rgb(0,0,0)" text-anchor="middle">14</text>
<polygon points="119.8,254.3 127.8,254.3 127.8,260.3 119.8,260.3" fill="rgb(245,245,245)"/><text xml:space="preserve" x="123.8" y="260.133" font-family="Calibri" font-size="7.5" fill="rgb(0,0,0)" text-anchor="middle">7</text>
<polygon points="127.8,254.3 135.8,254.3 135.8,260.3 127.8,260.3" fill="rgb(228,207,162)"/><text xml:space="preserve" x="131.8" y="260.133" font-family="Calibri" font-size="7.5" fill="rgb(0,0,0)" text-anchor="middle">11</text>
<polygon points="145.8,254.3 151.8,254.3 151.8,260.3 145.8,260.3" fill="rgb(255,221,221)"/>
<polygon points="151.8,254.3 157.8,254.3 157.8,260.3 151.8,260.3" fill="rgb(255,227,227)"/>
<polygon points="157.8,254.3 163.8,254.3 163.8,260.3 157.8,260.3" fill="rgb(255,225,225)"/>
<polygon points="163.8,254.3 169.8,254.3 169.8,260.3 163.8,260.3" fill="rgb(254,203,203)"/>
<polygon points="169.8,254.3 175.8,254.3 175.8,260.3 169.8,260.3" fill="rgb(255,239,239)"/>
<polygon points="175.8,254.3 181.8,254.3 181.8,260.3 175.8,260.3" fill="rgb(219,219,255)"/>
<polygon points="181.8,254.3 187.8,254.3 187.8,260.3 181.8,260.3" fill="rgb(189,189,255)"/>
<polygon points="187.8,254.3 193.8,254.3 193.8,260.3 187.8,260.3" fill="rgb(255,170,170)"/>
<polygon points="203.8,254.3 209.8,254.3 209.8,260.3 203.8,260.3" fill="rgb(255,231,231)"/>
<polygon points="209.8,254.3 215.8,254.3 215.8,260.3 209.8,260.3" fill="rgb(255,197,197)"/>
<polygon points="215.8,254.3 221.8,254.3 221.8,260.3 215.8,260.3" fill="rgb(255,247,247)"/>
<polygon points="221.8,254.3 227.8,254.3 227.8,260.3 221.8,260.3" fill="rgb(255,126,126)"/>
<polygon points="227.8,254.3 233.8,254.3 233.8,260.3 227.8,260.3" fill="rgb(255,190,190)"/>
<polygon points="233.8,254.3 239.8,254.3 239.8,260.3 233.8,260.3" fill="rgb(203,203,255)"/>
<polygon points="239.8,254.3 245.8,254.3 245.8,260.3 239.8,260.3" fill="rgb(205,205,255)"/>
<polygon points="245.8,254.3 251.8,254.3 251.8,260.3 245.8,260.3" fill="rgb(255,224,224)"/>
<polygon points="261.8,254.3 267.8,254.3 267.8,260.3 261.8,260.3" fill="rgb(240,240,255)"/>
<polygon points="267.8,254.3 273.8,254.3 273.8,260.3 267.8,260.3" fill="rgb(205,205,255)"/>
<polygon points="273.8,254.3 279.8,254.3 279.8,260.3 273.8,260.3" fill="rgb(195,195,255)"/>
<polygon points="279.8,254.3 285.8,254.3 285.8,260.3 279.8,260.3" fill="rgb(200,200,255)"/>
<polygon points="285.8,254.3 291.8,254.3 291.8,260.3 285.8,260.3" fill="rgb(200,200,255)"/>
<polygon points="291.8,254.3 297.8,254.3 297.8,260.3 291.8,260.3" fill="rgb(167,167,255)"/>
<polygon points="297.8,254.3 303.8,254.3 303.8,260.3 297.8,260.3" fill="rgb(255,190,190)"/>
<polygon points="303.8,254.3 309.8,254.3 309.8,260.3 303.8,260.3" fill="rgb(255,59,59)"/>
<polygon points="111.8,260.3 119.8,260.3 119.8,266.3 111.8,266.3" fill="rgb(216,179,101)"/><text xml:space="preserve" x="115.8" y="266.133" font-family="Calibri" font-size="7.5" fill="rgb(0,0,0)" text-anchor="middle">14</text>
<polygon points="119.8,260.3 127.8,260.3 127.8,266.3 119.8,266.3" fill="rgb(245,245,245)"/><text xml:space="preserve" x="123.8" y="266.133" font-family="Calibri" font-size="7.5" fill="rgb(0,0,0)" text-anchor="middle">7</text>
<polygon points="127.8,260.3 135.8,260.3 135.8,266.3 127.8,266.3" fill="rgb(228,207,162)"/><text xml:space="preserve" x="131.8" y="266.133" font-family="Calibri" font-size="7.5" fill="rgb(0,0,0)" text-anchor="middle">11</text>
<polygon points="145.8,260.3 151.8,260.3 151.8,266.3 145.8,266.3" fill="rgb(255,207,207)"/>
<polygon points="151.8,260.3 157.8,260.3 157.8,266.3 151.8,266.3" fill="rgb(225,225,255)"/>
<polygon points="157.8,260.3 163.8,260.3 163.8,266.3 157.8,266.3" fill="rgb(255,210,210)"/>
<polygon points="163.8,260.3 169.8,260.3 169.8,266.3 163.8,266.3" fill="rgb(255,100,100)"/>
<polygon points="169.8,260.3 175.8,260.3 175.8,266.3 169.8,266.3" fill="rgb(243,243,255)"/>
<polygon points="175.8,260.3 181.8,260.3 181.8,266.3 175.8,266.3" fill="rgb(255,251,251)"/>
<polygon points="181.8,260.3 187.8,260.3 187.8,266.3 181.8,266.3" fill="rgb(255,210,210)"/>
<polygon points="187.8,260.3 193.8,260.3 193.8,266.3 187.8,266.3" fill="rgb(255,54,54)"/>
<polygon points="203.8,260.3 209.8,260.3 209.8,266.3 203.8,266.3" fill="rgb(254,216,216)"/>
<polygon points="209.8,260.3 215.8,260.3 215.8,266.3 209.8,266.3" fill="rgb(255,239,239)"/>
<polygon points="215.8,260.3 221.8,260.3 221.8,266.3 215.8,266.3" fill="rgb(255,204,204)"/>
<polygon points="221.8,260.3 227.8,260.3 227.8,266.3 221.8,266.3" fill="rgb(255,153,153)"/>
<polygon points="227.8,260.3 233.8,260.3 233.8,266.3 227.8,266.3" fill="rgb(255,202,202)"/>
<polygon points="233.8,260.3 239.8,260.3 239.8,266.3 233.8,266.3" fill="rgb(242,242,255)"/>
<polygon points="239.8,260.3 245.8,260.3 245.8,266.3 239.8,266.3" fill="rgb(216,216,255)"/>
<polygon points="245.8,260.3 251.8,260.3 251.8,266.3 245.8,266.3" fill="rgb(255,217,217)"/>
<polygon points="261.8,260.3 267.8,260.3 267.8,266.3 261.8,266.3" fill="rgb(234,234,255)"/>
<polygon points="267.8,260.3 273.8,260.3 273.8,266.3 267.8,266.3" fill="rgb(185,185,255)"/>
<polygon points="273.8,260.3 279.8,260.3 279.8,266.3 273.8,266.3" fill="rgb(240,240,255)"/>
<polygon points="279.8,260.3 285.8,260.3 285.8,266.3 279.8,266.3" fill="rgb(194,194,255)"/>
<polygon points="285.8,260.3 291.8,260.3 291.8,266.3 285.8,266.3" fill="rgb(190,190,255)"/>
<polygon points="291.8,260.3 297.8,260.3 297.8,266.3 291.8,266.3" fill="rgb(240,240,255)"/>
<polygon points="297.8,260.3 303.8,260.3 303.8,266.3 297.8,266.3" fill="rgb(255,233,233)"/>
<polygon points="303.8,260.3 309.8,260.3 309.8,266.3 303.8,266.3" fill="rgb(255,30,30)"/>
<polygon points="111.8,266.3 119.8,266.3 119.8,272.3 111.8,272.3" fill="rgb(216,179,101)"/><text xml:space="preserve" x="115.8" y="272.133" font-family="Calibri" font-size="7.5" fill="rgb(0,0,0)" text-anchor="middle">14</text>
<polygon points="119.8,266.3 127.8,266.3 127.8,272.3 119.8,272.3" fill="rgb(245,245,245)"/><text xml:space="preserve" x="123.8" y="272.133" font-family="Calibri" font-size="7.5" fill="rgb(0,0,0)" text-anchor="middle">7</text>
<polygon points="127.8,266.3 135.8,266.3 135.8,272.3 127.8,272.3" fill="rgb(228,207,162)"/><text xml:space="preserve" x="131.8" y="272.133" font-family="Calibri" font-size="7.5" fill="rgb(0,0,0)" text-anchor="middle">11</text>
<polygon points="145.8,266.3 151.8,266.3 151.8,272.3 145.8,272.3" fill="rgb(255,206,206)"/>
<polygon points="151.8,266.3 157.8,266.3 157.8,272.3 151.8,272.3" fill="rgb(255,211,211)"/>
<polygon points="157.8,266.3 163.8,266.3 163.8,272.3 157.8,272.3" fill="rgb(255,170,170)"/>
<polygon points="163.8,266.3 169.8,266.3 169.8,272.3 163.8,272.3" fill="rgb(255,150,150)"/>
<polygon points="169.8,266.3 175.8,266.3 175.8,272.3 169.8,272.3" fill="rgb(255,239,239)"/>
<polygon points="175.8,266.3 181.8,266.3 181.8,272.3 175.8,272.3" fill="rgb(255,203,203)"/>
<polygon points="181.8,266.3 187.8,266.3 187.8,272.3 181.8,272.3" fill="rgb(254,151,151)"/>
<polygon points="187.8,266.3 193.8,266.3 193.8,272.3 187.8,272.3" fill="rgb(255,150,150)"/>
<polygon points="203.8,266.3 209.8,266.3 209.8,272.3 203.8,272.3" fill="rgb(255,231,231)"/>
<polygon points="209.8,266.3 215.8,266.3 215.8,272.3 209.8,272.3" fill="rgb(255,222,222)"/>
<polygon points="215.8,266.3 221.8,266.3 221.8,272.3 215.8,272.3" fill="rgb(255,216,216)"/>
<polygon points="221.8,266.3 227.8,266.3 227.8,272.3 221.8,272.3" fill="rgb(255,155,155)"/>
<polygon points="227.8,266.3 233.8,266.3 233.8,272.3 227.8,272.3" fill="rgb(255,203,203)"/>
<polygon points="233.8,266.3 239.8,266.3 239.8,272.3 233.8,272.3" fill="rgb(236,236,255)"/>
<polygon points="239.8,266.3 245.8,266.3 245.8,272.3 239.8,272.3" fill="rgb(255,248,248)"/>
<polygon points="245.8,266.3 251.8,266.3 251.8,272.3 245.8,272.3" fill="rgb(255,228,228)"/>
<polygon points="261.8,266.3 267.8,266.3 267.8,272.3 261.8,272.3" fill="rgb(255,246,246)"/>
<polygon points="267.8,266.3 273.8,266.3 273.8,272.3 267.8,272.3" fill="rgb(203,203,255)"/>
<polygon points="273.8,266.3 279.8,266.3 279.8,272.3 273.8,272.3" fill="rgb(231,231,255)"/>
<polygon points="279.8,266.3 285.8,266.3 285.8,272.3 279.8,272.3" fill="rgb(211,211,255)"/>
<polygon points="285.8,266.3 291.8,266.3 291.8,272.3 285.8,272.3" fill="rgb(188,188,255)"/>
<polygon points="291.8,266.3 297.8,266.3 297.8,272.3 291.8,272.3" fill="rgb(255,218,218)"/>
<polygon points="297.8,266.3 303.8,266.3 303.8,272.3 297.8,272.3" fill="rgb(255,221,221)"/>
<polygon points="303.8,266.3 309.8,266.3 309.8,272.3 303.8,272.3" fill="rgb(255,90,90)"/>
<polygon points="111.8,272.3 119.8,272.3 119.8,278.3 111.8,278.3" fill="rgb(216,179,101)"/><text xml:space="preserve" x="115.8" y="278.133" font-family="Calibri" font-size="7.5" fill="rgb(0,0,0)" text-anchor="middle">14</text>
<polygon points="119.8,272.3 127.8,272.3 127.8,278.3 119.8,278.3" fill="rgb(245,245,245)"/><text xml:space="preserve" x="123.8" y="278.133" font-family="Calibri" font-size="7.5" fill="rgb(0,0,0)" text-anchor="middle">7</text>
<polygon points="127.8,272.3 135.8,272.3 135.8,278.3 127.8,278.3" fill="rgb(228,207,162)"/><text xml:space="preserve" x="131.8" y="278.133" font-family="Calibri" font-size="7.5" fill="rgb(0,0,0)" text-anchor="middle">11</text>
<polygon points="145.8,272.3 151.8,272.3 151.8,278.3 145.8,278.3" fill="rgb(255,233,233)"/>
<polygon points="151.8,272.3 157.8,272.3 157.8,278.3 151.8,278.3" fill="rgb(255,168,168)"/>
<polygon points="157.8,272.3 163.8,272.3 163.8,278.3 157.8,278.3" fill="rgb(255,169,169)"/>
<polygon points="163.8,272.3 169.8,272.3 169.8,278.3 163.8,278.3" fill="rgb(255,159,159)"/>
<polygon points="169.8,272.3 175.8,272.3 175.8,278.3 169.8,278.3" fill="rgb(243,243,255)"/>
<polygon points="175.8,272.3 181.8,272.3 181.8,278.3 175.8,278.3" fill="rgb(199,199,255)"/>
<polygon points="181.8,272.3 187.8,272.3 187.8,278.3 181.8,278.3" fill="rgb(255,219,219)"/>
<polygon points="187.8,272.3 193.8,272.3 193.8,278.3 187.8,278.3" fill="rgb(255,151,151)"/>
<polygon points="203.8,272.3 209.8,272.3 209.8,278.3 203.8,278.3" fill="rgb(254,210,210)"/>
<polygon points="209.8,272.3 215.8,272.3 215.8,278.3 209.8,278.3" fill="rgb(255,147,147)"/>
<polygon points="215.8,272.3 221.8,272.3 221.8,278.3 215.8,278.3" fill="rgb(255,205,205)"/>
<polygon points="221.8,272.3 227.8,272.3 227.8,278.3 221.8,278.3" fill="rgb(255,155,155)"/>
<polygon points="227.8,272.3 233.8,272.3 233.8,278.3 227.8,278.3" fill="rgb(241,241,255)"/>
<polygon points="233.8,272.3 239.8,272.3 239.8,278.3 233.8,278.3" fill="rgb(230,230,255)"/>
<polygon points="239.8,272.3 245.8,272.3 245.8,278.3 239.8,278.3" fill="rgb(255,177,177)"/>
<polygon points="245.8,272.3 251.8,272.3 251.8,278.3 245.8,278.3" fill="rgb(255,207,207)"/>
<polygon points="261.8,272.3 267.8,272.3 267.8,278.3 261.8,278.3" fill="rgb(237,237,255)"/>
<polygon points="267.8,272.3 273.8,272.3 273.8,278.3 267.8,278.3" fill="rgb(255,245,245)"/>
<polygon points="273.8,272.3 279.8,272.3 279.8,278.3 273.8,278.3" fill="rgb(191,191,255)"/>
<polygon points="279.8,272.3 285.8,272.3 285.8,278.3 279.8,278.3" fill="rgb(254,245,245)"/>
<polygon points="285.8,272.3 291.8,272.3 291.8,278.3 285.8,278.3" fill="rgb(202,202,255)"/>
<polygon points="291.8,272.3 297.8,272.3 297.8,278.3 291.8,278.3" fill="rgb(216,216,255)"/>
<polygon points="297.8,272.3 303.8,272.3 303.8,278.3 297.8,278.3" fill="rgb(254,161,161)"/>
<polygon points="303.8,272.3 309.8,272.3 309.8,278.3 303.8,278.3" fill="rgb(255,130,130)"/>
<polygon points="111.8,278.3 119.8,278.3 119.8,284.3 111.8,284.3" fill="rgb(216,179,101)"/><text xml:space="preserve" x="115.8" y="284.133" font-family="Calibri" font-size="7.5" fill="rgb(0,0,0)" text-anchor="middle">14</text>
<polygon points="119.8,278.3 127.8,278.3 127.8,284.3 119.8,284.3" fill="rgb(245,245,245)"/><text xml:space="preserve" x="123.8" y="284.133" font-family="Calibri" font-size="7.5" fill="rgb(0,0,0)" text-anchor="middle">7</text>
<polygon points="127.8,278.3 135.8,278.3 135.8,284.3 127.8,284.3" fill="rgb(228,207,162)"/><text xml:space="preserve" x="131.8" y="284.133" font-family="Calibri" font-size="7.5" fill="rgb(0,0,0)" text-anchor="middle">11</text>
<polygon points="145.8,278.3 151.8,278.3 151.8,284.3 145.8,284.3" fill="rgb(255,224,224)"/>
<polygon points="151.8,278.3 157.8,278.3 157.8,284.3 151.8,284.3" fill="rgb(255,252,252)"/>
<polygon points="157.8,278.3 163.8,278.3 163.8,284.3 157.8,284.3" fill="rgb(255,188,188)"/>
<polygon points="163.8,278.3 169.8,278.3 169.8,284.3 163.8,284.3" fill="rgb(255,181,181)"/>
<polygon points="169.8,278.3 175.8,278.3 175.8,284.3 169.8,284.3" fill="rgb(212,212,255)"/>
<polygon points="175.8,278.3 181.8,278.3 181.8,284.3 175.8,284.3" fill="rgb(229,229,255)"/>
<polygon points="181.8,278.3 187.8,278.3 187.8,284.3 181.8,284.3" fill="rgb(235,235,255)"/>
<polygon points="187.8,278.3 193.8,278.3 193.8,284.3 187.8,284.3" fill="rgb(255,86,86)"/>
<polygon points="203.8,278.3 209.8,278.3 209.8,284.3 203.8,284.3" fill="rgb(255,253,253)"/>
<polygon points="209.8,278.3 215.8,278.3 215.8,284.3 209.8,284.3" fill="rgb(255,175,175)"/>
<polygon points="215.8,278.3 221.8,278.3 221.8,284.3 215.8,284.3" fill="rgb(255,149,149)"/>
<polygon points="221.8,278.3 227.8,278.3 227.8,284.3 221.8,284.3" fill="rgb(255,76,76)"/>
<polygon points="227.8,278.3 233.8,278.3 233.8,284.3 227.8,284.3" fill="rgb(255,218,218)"/>
<polygon points="233.8,278.3 239.8,278.3 239.8,284.3 233.8,284.3" fill="rgb(248,248,255)"/>
<polygon points="239.8,278.3 245.8,278.3 245.8,284.3 239.8,284.3" fill="rgb(233,233,255)"/>
<polygon points="245.8,278.3 251.8,278.3 251.8,284.3 245.8,284.3" fill="rgb(255,202,202)"/>
<polygon points="261.8,278.3 267.8,278.3 267.8,284.3 261.8,284.3" fill="rgb(255,251,251)"/>
<polygon points="267.8,278.3 273.8,278.3 273.8,284.3 267.8,284.3" fill="rgb(198,198,255)"/>
<polygon points="273.8,278.3 279.8,278.3 279.8,284.3 273.8,284.3" fill="rgb(203,203,255)"/>
<polygon points="279.8,278.3 285.8,278.3 285.8,284.3 279.8,284.3" fill="rgb(181,181,255)"/>
<polygon points="285.8,278.3 291.8,278.3 291.8,284.3 285.8,284.3" fill="rgb(194,194,255)"/>
<polygon points="291.8,278.3 297.8,278.3 297.8,284.3 291.8,284.3" fill="rgb(255,233,233)"/>
<polygon points="297.8,278.3 303.8,278.3 303.8,284.3 297.8,284.3" fill="rgb(170,170,255)"/>
<polygon points="303.8,278.3 309.8,278.3 309.8,284.3 303.8,284.3" fill="rgb(255,75,75)"/>
<polygon points="111.8,284.3 119.8,284.3 119.8,290.3 111.8,290.3" fill="rgb(216,179,101)"/><text xml:space="preserve" x="115.8" y="290.133" font-family="Calibri" font-size="7.5" fill="rgb(0,0,0)" text-anchor="middle">14</text>
<polygon points="119.8,284.3 127.8,284.3 127.8,290.3 119.8,290.3" fill="rgb(245,245,245)"/><text xml:space="preserve" x="123.8" y="290.133" font-family="Calibri" font-size="7.5" fill="rgb(0,0,0)" text-anchor="middle">7</text>
<polygon points="127.8,284.3 135.8,284.3 135.8,290.3 127.8,290.3" fill="rgb(228,207,162)"/><text xml:space="preserve" x="131.8" y="290.133" font-family="Calibri" font-size="7.5" fill="rgb(0,0,0)" text-anchor="middle">11</text>
<polygon points="145.8,284.3 151.8,284.3 151.8,290.3 145.8,290.3" fill="rgb(255,110,110)"/>
<polygon points="151.8,284.3 157.8,284.3 157.8,290.3 151.8,290.3" fill="rgb(255,252,252)"/>
<polygon points="157.8,284.3 163.8,284.3 163.8,290.3 157.8,290.3" fill="rgb(255,186,186)"/>
<polygon points="163.8,284.3 169.8,284.3 169.8,290.3 163.8,290.3" fill="rgb(255,104,104)"/>
<polygon points="169.8,284.3 175.8,284.3 175.8,290.3 169.8,290.3" fill="rgb(249,249,255)"/>
<polygon points="175.8,284.3 181.8,284.3 181.8,290.3 175.8,290.3" fill="rgb(253,253,255)"/>
<polygon points="181.8,284.3 187.8,284.3 187.8,290.3 181.8,290.3" fill="rgb(255,237,237)"/>
<polygon points="187.8,284.3 193.8,284.3 193.8,290.3 187.8,290.3" fill="rgb(255,223,223)"/>
<polygon points="203.8,284.3 209.8,284.3 209.8,290.3 203.8,290.3" fill="rgb(255,173,173)"/>
<polygon points="209.8,284.3 215.8,284.3 215.8,290.3 209.8,290.3" fill="rgb(255,211,211)"/>
<polygon points="215.8,284.3 221.8,284.3 221.8,290.3 215.8,290.3" fill="rgb(255,182,182)"/>
<polygon points="221.8,284.3 227.8,284.3 227.8,290.3 221.8,290.3" fill="rgb(255,110,110)"/>
<polygon points="227.8,284.3 233.8,284.3 233.8,290.3 227.8,290.3" fill="rgb(255,252,252)"/>
<polygon points="233.8,284.3 239.8,284.3 239.8,290.3 233.8,290.3" fill="rgb(217,217,255)"/>
<polygon points="239.8,284.3 245.8,284.3 245.8,290.3 239.8,290.3" fill="rgb(234,234,255)"/>
<polygon points="245.8,284.3 251.8,284.3 251.8,290.3 245.8,290.3" fill="rgb(255,186,186)"/>
<polygon points="261.8,284.3 267.8,284.3 267.8,290.3 261.8,290.3" fill="rgb(255,217,217)"/>
<polygon points="267.8,284.3 273.8,284.3 273.8,290.3 267.8,290.3" fill="rgb(216,216,255)"/>
<polygon points="273.8,284.3 279.8,284.3 279.8,290.3 273.8,290.3" fill="rgb(233,233,255)"/>
<polygon points="279.8,284.3 285.8,284.3 285.8,290.3 279.8,290.3" fill="rgb(212,212,255)"/>
<polygon points="285.8,284.3 291.8,284.3 291.8,290.3 285.8,290.3" fill="rgb(205,205,255)"/>
<polygon points="291.8,284.3 297.8,284.3 297.8,290.3 291.8,290.3" fill="rgb(205,205,255)"/>
<polygon points="297.8,284.3 303.8,284.3 303.8,290.3 297.8,290.3" fill="rgb(254,223,223)"/>
<polygon points="303.8,284.3 309.8,284.3 309.8,290.3 303.8,290.3" fill="rgb(255,61,61)"/>
<polygon points="111.8,290.3 119.8,290.3 119.8,296.3 111.8,296.3" fill="rgb(216,179,101)"/><text xml:space="preserve" x="115.8" y="296.133" font-family="Calibri" font-size="7.5" fill="rgb(0,0,0)" text-anchor="middle">14</text>
<polygon points="119.8,290.3 127.8,290.3 127.8,296.3 119.8,296.3" fill="rgb(245,245,245)"/><text xml:space="preserve" x="123.8" y="296.133" font-family="Calibri" font-size="7.5" fill="rgb(0,0,0)" text-anchor="middle">7</text>
<polygon points="127.8,290.3 135.8,290.3 135.8,296.3 127.8,296.3" fill="rgb(228,207,162)"/><text xml:space="preserve" x="131.8" y="296.133" font-family="Calibri" font-size="7.5" fill="rgb(0,0,0)" text-anchor="middle">11</text>
<polygon points="145.8,290.3 151.8,290.3 151.8,296.3 145.8,296.3" fill="rgb(255,201,201)"/>
<polygon points="151.8,290.3 157.8,290.3 157.8,296.3 151.8,296.3" fill="rgb(255,196,196)"/>
<polygon points="157.8,290.3 163.8,290.3 163.8,296.3 157.8,296.3" fill="rgb(255,213,213)"/>
<polygon points="163.8,290.3 169.8,290.3 169.8,296.3 163.8,296.3" fill="rgb(255,235,235)"/>
<polygon points="169.8,290.3 175.8,290.3 175.8,296.3 169.8,296.3" fill="rgb(240,240,255)"/>
<polygon points="175.8,290.3 181.8,290.3 181.8,296.3 175.8,296.3" fill="rgb(150,150,255)"/>
<polygon points="181.8,290.3 187.8,290.3 187.8,296.3 181.8,296.3" fill="rgb(254,223,223)"/>
<polygon points="187.8,290.3 193.8,290.3 193.8,296.3 187.8,296.3" fill="rgb(255,216,216)"/>
<polygon points="203.8,290.3 209.8,290.3 209.8,296.3 203.8,296.3" fill="rgb(255,192,192)"/>
<polygon points="209.8,290.3 215.8,290.3 215.8,296.3 209.8,296.3" fill="rgb(255,189,189)"/>
<polygon points="215.8,290.3 221.8,290.3 221.8,296.3 215.8,296.3" fill="rgb(255,159,159)"/>
<polygon points="221.8,290.3 227.8,290.3 227.8,296.3 221.8,296.3" fill="rgb(255,173,173)"/>
<polygon points="227.8,290.3 233.8,290.3 233.8,296.3 227.8,296.3" fill="rgb(237,237,255)"/>
<polygon points="233.8,290.3 239.8,290.3 239.8,296.3 233.8,296.3" fill="rgb(213,213,255)"/>
<polygon points="239.8,290.3 245.8,290.3 245.8,296.3 239.8,296.3" fill="rgb(255,253,253)"/>
<polygon points="245.8,290.3 251.8,290.3 251.8,296.3 245.8,296.3" fill="rgb(251,251,255)"/>
<polygon points="261.8,290.3 267.8,290.3 267.8,296.3 261.8,296.3" fill="rgb(255,210,210)"/>
<polygon points="267.8,290.3 273.8,290.3 273.8,296.3 267.8,296.3" fill="rgb(234,234,255)"/>
<polygon points="273.8,290.3 279.8,290.3 279.8,296.3 273.8,296.3" fill="rgb(195,195,255)"/>
<polygon points="279.8,290.3 285.8,290.3 285.8,296.3 279.8,296.3" fill="rgb(197,197,255)"/>
<polygon points="285.8,290.3 291.8,290.3 291.8,296.3 285.8,296.3" fill="rgb(179,179,255)"/>
<polygon points="291.8,290.3 297.8,290.3 297.8,296.3 291.8,296.3" fill="rgb(175,175,255)"/>
<polygon points="297.8,290.3 303.8,290.3 303.8,296.3 297.8,296.3" fill="rgb(213,213,255)"/>
<polygon points="303.8,290.3 309.8,290.3 309.8,296.3 303.8,296.3" fill="rgb(255,188,188)"/>
<polygon points="111.8,296.3 119.8,296.3 119.8,302.3 111.8,302.3" fill="rgb(216,179,101)"/><text xml:space="preserve" x="115.8" y="302.133" font-family="Calibri" font-size="7.5" fill="rgb(0,0,0)" text-anchor="middle">14</text>
<polygon points="119.8,296.3 127.8,296.3 127.8,302.3 119.8,302.3" fill="rgb(245,245,245)"/><text xml:space="preserve" x="123.8" y="302.133" font-family="Calibri" font-size="7.5" fill="rgb(0,0,0)" text-anchor="middle">7</text>
<polygon points="127.8,296.3 135.8,296.3 135.8,302.3 127.8,302.3" fill="rgb(228,207,162)"/><text xml:space="preserve" x="131.8" y="302.133" font-family="Calibri" font-size="7.5" fill="rgb(0,0,0)" text-anchor="middle">11</text>
<polygon points="145.8,296.3 151.8,296.3 151.8,302.3 145.8,302.3" fill="rgb(255,201,201)"/>
<polygon points="151.8,296.3 157.8,296.3 157.8,302.3 151.8,302.3" fill="rgb(225,225,255)"/>
<polygon points="157.8,296.3 163.8,296.3 163.8,302.3 157.8,302.3" fill="rgb(251,251,255)"/>
<polygon points="163.8,296.3 169.8,296.3 169.8,302.3 163.8,302.3" fill="rgb(254,253,253)"/>
<polygon points="169.8,296.3 175.8,296.3 175.8,302.3 169.8,302.3" fill="rgb(253,253,255)"/>
<polygon points="175.8,296.3 181.8,296.3 181.8,302.3 175.8,302.3" fill="rgb(255,208,208)"/>
<polygon points="181.8,296.3 187.8,296.3 187.8,302.3 181.8,302.3" fill="rgb(255,134,134)"/>
<polygon points="187.8,296.3 193.8,296.3 193.8,302.3 187.8,302.3" fill="rgb(255,44,44)"/>
<polygon points="203.8,296.3 209.8,296.3 209.8,302.3 203.8,302.3" fill="rgb(255,235,235)"/>
<polygon points="209.8,296.3 215.8,296.3 215.8,302.3 209.8,302.3" fill="rgb(255,189,189)"/>
<polygon points="215.8,296.3 221.8,296.3 221.8,302.3 215.8,302.3" fill="rgb(255,192,192)"/>
<polygon points="221.8,296.3 227.8,296.3 227.8,302.3 221.8,302.3" fill="rgb(255,110,110)"/>
<polygon points="227.8,296.3 233.8,296.3 233.8,302.3 227.8,302.3" fill="rgb(255,160,160)"/>
<polygon points="233.8,296.3 239.8,296.3 239.8,302.3 233.8,302.3" fill="rgb(240,240,255)"/>
<polygon points="239.8,296.3 245.8,296.3 245.8,302.3 239.8,302.3" fill="rgb(255,235,235)"/>
<polygon points="245.8,296.3 251.8,296.3 251.8,302.3 245.8,302.3" fill="rgb(255,187,187)"/>
<polygon points="261.8,296.3 267.8,296.3 267.8,302.3 261.8,302.3" fill="rgb(254,216,216)"/>
<polygon points="267.8,296.3 273.8,296.3 273.8,302.3 267.8,302.3" fill="rgb(211,211,255)"/>
<polygon points="273.8,296.3 279.8,296.3 279.8,302.3 273.8,302.3" fill="rgb(207,207,255)"/>
<polygon points="279.8,296.3 285.8,296.3 285.8,302.3 279.8,302.3" fill="rgb(253,253,255)"/>
<polygon points="285.8,296.3 291.8,296.3 291.8,302.3 285.8,302.3" fill="rgb(235,235,255)"/>
<polygon points="291.8,296.3 297.8,296.3 297.8,302.3 291.8,302.3" fill="rgb(252,252,255)"/>
<polygon points="297.8,296.3 303.8,296.3 303.8,302.3 297.8,302.3" fill="rgb(255,211,211)"/>
<polygon points="303.8,296.3 309.8,296.3 309.8,302.3 303.8,302.3" fill="rgb(255,37,37)"/>
<polygon points="111.8,302.3 119.8,302.3 119.8,308.3 111.8,308.3" fill="rgb(216,179,101)"/><text xml:space="preserve" x="115.8" y="308.133" font-family="Calibri" font-size="7.5" fill="rgb(0,0,0)" text-anchor="middle">14</text>
<polygon points="119.8,302.3 127.8,302.3 127.8,308.3 119.8,308.3" fill="rgb(245,245,245)"/><text xml:space="preserve" x="123.8" y="308.133" font-family="Calibri" font-size="7.5" fill="rgb(0,0,0)" text-anchor="middle">7</text>
<polygon points="127.8,302.3 135.8,302.3 135.8,308.3 127.8,308.3" fill="rgb(228,207,162)"/><text xml:space="preserve" x="131.8" y="308.133" font-family="Calibri" font-size="7.5" fill="rgb(0,0,0)" text-anchor="middle">11</text>
<polygon points="145.8,302.3 151.8,302.3 151.8,308.3 145.8,308.3" fill="rgb(254,152,152)"/>
<polygon points="151.8,302.3 157.8,302.3 157.8,308.3 151.8,308.3" fill="rgb(255,224,224)"/>
<polygon points="157.8,302.3 163.8,302.3 163.8,308.3 157.8,308.3" fill="rgb(255,207,207)"/>
<polygon points="163.8,302.3 169.8,302.3 169.8,308.3 163.8,308.3" fill="rgb(255,146,146)"/>
<polygon points="169.8,302.3 175.8,302.3 175.8,308.3 169.8,308.3" fill="rgb(255,234,234)"/>
<polygon points="175.8,302.3 181.8,302.3 181.8,308.3 175.8,308.3" fill="rgb(255,251,251)"/>
<polygon points="181.8,302.3 187.8,302.3 187.8,308.3 181.8,308.3" fill="rgb(255,90,90)"/>
<polygon points="187.8,302.3 193.8,302.3 193.8,308.3 187.8,308.3" fill="rgb(255,46,46)"/>
<polygon points="203.8,302.3 209.8,302.3 209.8,308.3 203.8,308.3" fill="rgb(255,232,232)"/>
<polygon points="209.8,302.3 215.8,302.3 215.8,308.3 209.8,308.3" fill="rgb(255,162,162)"/>
<polygon points="215.8,302.3 221.8,302.3 221.8,308.3 215.8,308.3" fill="rgb(255,209,209)"/>
<polygon points="221.8,302.3 227.8,302.3 227.8,308.3 221.8,308.3" fill="rgb(255,112,112)"/>
<polygon points="227.8,302.3 233.8,302.3 233.8,308.3 227.8,308.3" fill="rgb(254,143,143)"/>
<polygon points="233.8,302.3 239.8,302.3 239.8,308.3 233.8,308.3" fill="rgb(210,210,255)"/>
<polygon points="239.8,302.3 245.8,302.3 245.8,308.3 239.8,308.3" fill="rgb(246,246,255)"/>
<polygon points="245.8,302.3 251.8,302.3 251.8,308.3 245.8,308.3" fill="rgb(255,253,253)"/>
<polygon points="261.8,302.3 267.8,302.3 267.8,308.3 261.8,308.3" fill="rgb(255,240,240)"/>
<polygon points="267.8,302.3 273.8,302.3 273.8,308.3 267.8,308.3" fill="rgb(188,188,255)"/>
<polygon points="273.8,302.3 279.8,302.3 279.8,308.3 273.8,308.3" fill="rgb(157,157,255)"/>
<polygon points="279.8,302.3 285.8,302.3 285.8,308.3 279.8,308.3" fill="rgb(202,202,255)"/>
<polygon points="285.8,302.3 291.8,302.3 291.8,308.3 285.8,308.3" fill="rgb(220,220,255)"/>
<polygon points="291.8,302.3 297.8,302.3 297.8,308.3 291.8,308.3" fill="rgb(220,220,255)"/>
<polygon points="297.8,302.3 303.8,302.3 303.8,308.3 297.8,308.3" fill="rgb(254,168,168)"/>
<polygon points="303.8,302.3 309.8,302.3 309.8,308.3 303.8,308.3" fill="rgb(255,12,12)"/>
<polygon points="111.8,308.3 119.8,308.3 119.8,314.3 111.8,314.3" fill="rgb(216,179,101)"/><text xml:space="preserve" x="115.8" y="314.133" font-family="Calibri" font-size="7.5" fill="rgb(0,0,0)" text-anchor="middle">14</text>
<polygon points="119.8,308.3 127.8,308.3 127.8,314.3 119.8,314.3" fill="rgb(245,245,245)"/><text xml:space="preserve" x="123.8" y="314.133" font-family="Calibri" font-size="7.5" fill="rgb(0,0,0)" text-anchor="middle">7</text>
<polygon points="127.8,308.3 135.8,308.3 135.8,314.3 127.8,314.3" fill="rgb(228,207,162)"/><text xml:space="preserve" x="131.8" y="314.133" font-family="Calibri" font-size="7.5" fill="rgb(0,0,0)" text-anchor="middle">11</text>
<polygon points="145.8,308.3 151.8,308.3 151.8,314.3 145.8,314.3" fill="rgb(255,190,190)"/>
<polygon points="151.8,308.3 157.8,308.3 157.8,314.3 151.8,314.3" fill="rgb(255,228,228)"/>
<polygon points="157.8,308.3 163.8,308.3 163.8,314.3 157.8,314.3" fill="rgb(254,253,253)"/>
<polygon points="163.8,308.3 169.8,308.3 169.8,314.3 163.8,314.3" fill="rgb(255,139,139)"/>
<polygon points="169.8,308.3 175.8,308.3 175.8,314.3 169.8,314.3" fill="rgb(255,247,247)"/>
<polygon points="175.8,308.3 181.8,308.3 181.8,314.3 175.8,314.3" fill="rgb(222,222,255)"/>
<polygon points="181.8,308.3 187.8,308.3 187.8,314.3 181.8,314.3" fill="rgb(255,174,174)"/>
<polygon points="187.8,308.3 193.8,308.3 193.8,314.3 187.8,314.3" fill="rgb(255,133,133)"/>
<polygon points="203.8,308.3 209.8,308.3 209.8,314.3 203.8,314.3" fill="rgb(255,205,205)"/>
<polygon points="209.8,308.3 215.8,308.3 215.8,314.3 209.8,314.3" fill="rgb(255,191,191)"/>
<polygon points="215.8,308.3 221.8,308.3 221.8,314.3 215.8,314.3" fill="rgb(255,218,218)"/>
<polygon points="221.8,308.3 227.8,308.3 227.8,314.3 221.8,314.3" fill="rgb(255,96,96)"/>
<polygon points="227.8,308.3 233.8,308.3 233.8,314.3 227.8,314.3" fill="rgb(255,158,158)"/>
<polygon points="233.8,308.3 239.8,308.3 239.8,314.3 233.8,314.3" fill="rgb(228,228,255)"/>
<polygon points="239.8,308.3 245.8,308.3 245.8,314.3 239.8,314.3" fill="rgb(184,184,255)"/>
<polygon points="245.8,308.3 251.8,308.3 251.8,314.3 245.8,314.3" fill="rgb(255,227,227)"/>
<polygon points="261.8,308.3 267.8,308.3 267.8,314.3 261.8,314.3" fill="rgb(238,238,255)"/>
<polygon points="267.8,308.3 273.8,308.3 273.8,314.3 267.8,314.3" fill="rgb(201,201,255)"/>
<polygon points="273.8,308.3 279.8,308.3 279.8,314.3 273.8,314.3" fill="rgb(164,164,255)"/>
<polygon points="279.8,308.3 285.8,308.3 285.8,314.3 279.8,314.3" fill="rgb(201,201,255)"/>
<polygon points="285.8,308.3 291.8,308.3 291.8,314.3 285.8,314.3" fill="rgb(245,245,255)"/>
<polygon points="291.8,308.3 297.8,308.3 297.8,314.3 291.8,314.3" fill="rgb(248,248,255)"/>
<polygon points="297.8,308.3 303.8,308.3 303.8,314.3 297.8,314.3" fill="rgb(255,139,139)"/>
<polygon points="303.8,308.3 309.8,308.3 309.8,314.3 303.8,314.3" fill="rgb(255,36,36)"/>
<polygon points="111.8,314.3 119.8,314.3 119.8,320.3 111.8,320.3" fill="rgb(216,179,101)"/><text xml:space="preserve" x="115.8" y="320.133" font-family="Calibri" font-size="7.5" fill="rgb(0,0,0)" text-anchor="middle">14</text>
<polygon points="119.8,314.3 127.8,314.3 127.8,320.3 119.8,320.3" fill="rgb(245,245,245)"/><text xml:space="preserve" x="123.8" y="320.133" font-family="Calibri" font-size="7.5" fill="rgb(0,0,0)" text-anchor="middle">7</text>
<polygon points="127.8,314.3 135.8,314.3 135.8,320.3 127.8,320.3" fill="rgb(228,207,162)"/><text xml:space="preserve" x="131.8" y="320.133" font-family="Calibri" font-size="7.5" fill="rgb(0,0,0)" text-anchor="middle">11</text>
<polygon points="145.8,314.3 151.8,314.3 151.8,320.3 145.8,320.3" fill="rgb(255,196,196)"/>
<polygon points="151.8,314.3 157.8,314.3 157.8,320.3 151.8,320.3" fill="rgb(255,190,190)"/>
<polygon points="157.8,314.3 163.8,314.3 163.8,320.3 157.8,320.3" fill="rgb(255,162,162)"/>
<polygon points="163.8,314.3 169.8,314.3 169.8,320.3 163.8,320.3" fill="rgb(255,133,133)"/>
<polygon points="169.8,314.3 175.8,314.3 175.8,320.3 169.8,320.3" fill="rgb(245,245,255)"/>
<polygon points="175.8,314.3 181.8,314.3 181.8,320.3 175.8,320.3" fill="rgb(238,238,255)"/>
<polygon points="181.8,314.3 187.8,314.3 187.8,320.3 181.8,320.3" fill="rgb(255,193,193)"/>
<polygon points="187.8,314.3 193.8,314.3 193.8,320.3 187.8,320.3" fill="rgb(255,110,110)"/>
<polygon points="203.8,314.3 209.8,314.3 209.8,320.3 203.8,320.3" fill="rgb(255,191,191)"/>
<polygon points="209.8,314.3 215.8,314.3 215.8,320.3 209.8,320.3" fill="rgb(255,170,170)"/>
<polygon points="215.8,314.3 221.8,314.3 221.8,320.3 215.8,320.3" fill="rgb(255,166,166)"/>
<polygon points="221.8,314.3 227.8,314.3 227.8,320.3 221.8,320.3" fill="rgb(255,126,126)"/>
<polygon points="227.8,314.3 233.8,314.3 233.8,320.3 227.8,320.3" fill="rgb(255,236,236)"/>
<polygon points="233.8,314.3 239.8,314.3 239.8,320.3 233.8,320.3" fill="rgb(209,209,255)"/>
<polygon points="239.8,314.3 245.8,314.3 245.8,320.3 239.8,320.3" fill="rgb(248,248,255)"/>
<polygon points="245.8,314.3 251.8,314.3 251.8,320.3 245.8,320.3" fill="rgb(254,146,146)"/>
<polygon points="261.8,314.3 267.8,314.3 267.8,320.3 261.8,320.3" fill="rgb(255,231,231)"/>
<polygon points="267.8,314.3 273.8,314.3 273.8,320.3 267.8,320.3" fill="rgb(222,222,255)"/>
<polygon points="273.8,314.3 279.8,314.3 279.8,320.3 273.8,320.3" fill="rgb(239,239,255)"/>
<polygon points="279.8,314.3 285.8,314.3 285.8,320.3 279.8,320.3" fill="rgb(238,238,255)"/>
<polygon points="285.8,314.3 291.8,314.3 291.8,320.3 285.8,320.3" fill="rgb(201,201,255)"/>
<polygon points="291.8,314.3 297.8,314.3 297.8,320.3 291.8,320.3" fill="rgb(240,240,255)"/>
<polygon points="297.8,314.3 303.8,314.3 303.8,320.3 297.8,320.3" fill="rgb(255,145,145)"/>
<polygon points="303.8,314.3 309.8,314.3 309.8,320.3 303.8,320.3" fill="rgb(255,31,31)"/>
<polygon points="111.8,320.3 119.8,320.3 119.8,326.3 111.8,326.3" fill="rgb(216,179,101)"/><text xml:space="preserve" x="115.8" y="326.133" font-family="Calibri" font-size="7.5" fill="rgb(0,0,0)" text-anchor="middle">14</text>
<polygon points="119.8,320.3 127.8,320.3 127.8,326.3 119.8,326.3" fill="rgb(245,245,245)"/><text xml:space="preserve" x="123.8" y="326.133" font-family="Calibri" font-size="7.5" fill="rgb(0,0,0)" text-anchor="middle">7</text>
<polygon points="127.8,320.3 135.8,320.3 135.8,326.3 127.8,326.3" fill="rgb(228,207,162)"/><text xml:space="preserve" x="131.8" y="326.133" font-family="Calibri" font-size="7.5" fill="rgb(0,0,0)" text-anchor="middle">11</text>
<polygon points="145.8,320.3 151.8,320.3 151.8,326.3 145.8,326.3" fill="rgb(254,254,255)"/>
<polygon points="151.8,320.3 157.8,320.3 157.8,326.3 151.8,326.3" fill="rgb(255,241,241)"/>
<polygon points="157.8,320.3 163.8,320.3 163.8,326.3 157.8,326.3" fill="rgb(255,183,183)"/>
<polygon points="163.8,320.3 169.8,320.3 169.8,326.3 163.8,326.3" fill="rgb(255,110,110)"/>
<polygon points="169.8,320.3 175.8,320.3 175.8,326.3 169.8,326.3" fill="rgb(234,234,255)"/>
<polygon points="175.8,320.3 181.8,320.3 181.8,326.3 175.8,326.3" fill="rgb(255,222,222)"/>
<polygon points="181.8,320.3 187.8,320.3 187.8,326.3 181.8,326.3" fill="rgb(229,229,255)"/>
<polygon points="187.8,320.3 193.8,320.3 193.8,326.3 187.8,326.3" fill="rgb(255,185,185)"/>
<polygon points="203.8,320.3 209.8,320.3 209.8,326.3 203.8,326.3" fill="rgb(255,217,217)"/>
<polygon points="209.8,320.3 215.8,320.3 215.8,326.3 209.8,326.3" fill="rgb(255,208,208)"/>
<polygon points="215.8,320.3 221.8,320.3 221.8,326.3 215.8,326.3" fill="rgb(255,203,203)"/>
<polygon points="221.8,320.3 227.8,320.3 227.8,326.3 221.8,326.3" fill="rgb(255,136,136)"/>
<polygon points="227.8,320.3 233.8,320.3 233.8,326.3 227.8,326.3" fill="rgb(255,200,200)"/>
<polygon points="233.8,320.3 239.8,320.3 239.8,326.3 233.8,326.3" fill="rgb(231,231,255)"/>
<polygon points="239.8,320.3 245.8,320.3 245.8,326.3 239.8,326.3" fill="rgb(228,228,255)"/>
<polygon points="245.8,320.3 251.8,320.3 251.8,326.3 245.8,326.3" fill="rgb(255,245,245)"/>
<polygon points="261.8,320.3 267.8,320.3 267.8,326.3 261.8,326.3" fill="rgb(216,216,255)"/>
<polygon points="267.8,320.3 273.8,320.3 273.8,326.3 267.8,326.3" fill="rgb(233,233,255)"/>
<polygon points="273.8,320.3 279.8,320.3 279.8,326.3 273.8,326.3" fill="rgb(196,196,255)"/>
<polygon points="279.8,320.3 285.8,320.3 285.8,326.3 279.8,326.3" fill="rgb(231,231,255)"/>
<polygon points="285.8,320.3 291.8,320.3 291.8,326.3 285.8,326.3" fill="rgb(215,215,255)"/>
<polygon points="291.8,320.3 297.8,320.3 297.8,326.3 291.8,326.3" fill="rgb(154,154,255)"/>
<polygon points="297.8,320.3 303.8,320.3 303.8,326.3 297.8,326.3" fill="rgb(255,227,227)"/>
<polygon points="303.8,320.3 309.8,320.3 309.8,326.3 303.8,326.3" fill="rgb(255,93,93)"/>
<polygon points="111.8,326.3 119.8,326.3 119.8,332.3 111.8,332.3" fill="rgb(216,179,101)"/><text xml:space="preserve" x="115.8" y="332.133" font-family="Calibri" font-size="7.5" fill="rgb(0,0,0)" text-anchor="middle">14</text>
<polygon points="119.8,326.3 127.8,326.3 127.8,332.3 119.8,332.3" fill="rgb(245,245,245)"/><text xml:space="preserve" x="123.8" y="332.133" font-family="Calibri" font-size="7.5" fill="rgb(0,0,0)" text-anchor="middle">7</text>
<polygon points="127.8,326.3 135.8,326.3 135.8,332.3 127.8,332.3" fill="rgb(228,207,162)"/><text xml:space="preserve" x="131.8" y="332.133" font-family="Calibri" font-size="7.5" fill="rgb(0,0,0)" text-anchor="middle">11</text>
<polygon points="145.8,326.3 151.8,326.3 151.8,332.3 145.8,332.3" fill="rgb(255,224,224)"/>
<polygon points="151.8,326.3 157.8,326.3 157.8,332.3 151.8,332.3" fill="rgb(255,187,187)"/>
<polygon points="157.8,326.3 163.8,326.3 163.8,332.3 157.8,332.3" fill="rgb(255,173,173)"/>
<polygon points="163.8,326.3 169.8,326.3 169.8,332.3 163.8,332.3" fill="rgb(255,71,71)"/>
<polygon points="169.8,326.3 175.8,326.3 175.8,332.3 169.8,332.3" fill="rgb(245,245,255)"/>
<polygon points="175.8,326.3 181.8,326.3 181.8,332.3 175.8,332.3" fill="rgb(213,213,255)"/>
<polygon points="181.8,326.3 187.8,326.3 187.8,332.3 181.8,332.3" fill="rgb(255,222,222)"/>
<polygon points="187.8,326.3 193.8,326.3 193.8,332.3 187.8,332.3" fill="rgb(255,160,160)"/>
<polygon points="203.8,326.3 209.8,326.3 209.8,332.3 203.8,332.3" fill="rgb(254,230,230)"/>
<polygon points="209.8,326.3 215.8,326.3 215.8,332.3 209.8,332.3" fill="rgb(255,208,208)"/>
<polygon points="215.8,326.3 221.8,326.3 221.8,332.3 215.8,332.3" fill="rgb(255,228,228)"/>
<polygon points="221.8,326.3 227.8,326.3 227.8,332.3 221.8,332.3" fill="rgb(255,141,141)"/>
<polygon points="227.8,326.3 233.8,326.3 233.8,332.3 227.8,332.3" fill="rgb(254,252,252)"/>
<polygon points="233.8,326.3 239.8,326.3 239.8,332.3 233.8,332.3" fill="rgb(244,244,255)"/>
<polygon points="239.8,326.3 245.8,326.3 245.8,332.3 239.8,332.3" fill="rgb(218,218,255)"/>
<polygon points="245.8,326.3 251.8,326.3 251.8,332.3 245.8,332.3" fill="rgb(255,209,209)"/>
<polygon points="261.8,326.3 267.8,326.3 267.8,332.3 261.8,332.3" fill="rgb(255,241,241)"/>
<polygon points="267.8,326.3 273.8,326.3 273.8,332.3 267.8,332.3" fill="rgb(224,224,255)"/>
<polygon points="273.8,326.3 279.8,326.3 279.8,332.3 273.8,332.3" fill="rgb(255,245,245)"/>
<polygon points="279.8,326.3 285.8,326.3 285.8,332.3 279.8,332.3" fill="rgb(233,233,255)"/>
<polygon points="285.8,326.3 291.8,326.3 291.8,332.3 285.8,332.3" fill="rgb(205,205,255)"/>
<polygon points="291.8,326.3 297.8,326.3 297.8,332.3 291.8,332.3" fill="rgb(255,249,249)"/>
<polygon points="297.8,326.3 303.8,326.3 303.8,332.3 297.8,332.3" fill="rgb(245,245,255)"/>
<polygon points="303.8,326.3 309.8,326.3 309.8,332.3 303.8,332.3" fill="rgb(255,114,114)"/>
<polygon points="111.8,332.3 119.8,332.3 119.8,338.3 111.8,338.3" fill="rgb(216,179,101)"/><text xml:space="preserve" x="115.8" y="338.133" font-family="Calibri" font-size="7.5" fill="rgb(0,0,0)" text-anchor="middle">14</text>
<polygon points="119.8,332.3 127.8,332.3 127.8,338.3 119.8,338.3" fill="rgb(245,245,245)"/><text xml:space="preserve" x="123.8" y="338.133" font-family="Calibri" font-size="7.5" fill="rgb(0,0,0)" text-anchor="middle">7</text>
<polygon points="127.8,332.3 135.8,332.3 135.8,338.3 127.8,338.3" fill="rgb(228,207,162)"/><text xml:space="preserve" x="131.8" y="338.133" font-family="Calibri" font-size="7.5" fill="rgb(0,0,0)" text-anchor="middle">11</text>
<polygon points="145.8,332.3 151.8,332.3 151.8,338.3 145.8,338.3" fill="rgb(239,239,255)"/>
<polygon points="151.8,332.3 157.8,332.3 157.8,338.3 151.8,338.3" fill="rgb(253,253,255)"/>
<polygon points="157.8,332.3 163.8,332.3 163.8,338.3 157.8,338.3" fill="rgb(254,182,182)"/>
<polygon points="163.8,332.3 169.8,332.3 169.8,338.3 163.8,338.3" fill="rgb(255,185,185)"/>
<polygon points="169.8,332.3 175.8,332.3 175.8,338.3 169.8,338.3" fill="rgb(239,239,255)"/>
<polygon points="175.8,332.3 181.8,332.3 181.8,338.3 175.8,338.3" fill="rgb(255,244,244)"/>
<polygon points="181.8,332.3 187.8,332.3 187.8,338.3 181.8,338.3" fill="rgb(245,245,255)"/>
<polygon points="187.8,332.3 193.8,332.3 193.8,338.3 187.8,338.3" fill="rgb(255,213,213)"/>
<polygon points="203.8,332.3 209.8,332.3 209.8,338.3 203.8,338.3" fill="rgb(255,219,219)"/>
<polygon points="209.8,332.3 215.8,332.3 215.8,338.3 209.8,338.3" fill="rgb(255,184,184)"/>
<polygon points="215.8,332.3 221.8,332.3 221.8,338.3 215.8,338.3" fill="rgb(255,215,215)"/>
<polygon points="221.8,332.3 227.8,332.3 227.8,338.3 221.8,338.3" fill="rgb(255,56,56)"/>
<polygon points="227.8,332.3 233.8,332.3 233.8,338.3 227.8,338.3" fill="rgb(255,189,189)"/>
<polygon points="233.8,332.3 239.8,332.3 239.8,338.3 233.8,338.3" fill="rgb(226,226,255)"/>
<polygon points="239.8,332.3 245.8,332.3 245.8,338.3 239.8,338.3" fill="rgb(205,205,255)"/>
<polygon points="245.8,332.3 251.8,332.3 251.8,338.3 245.8,338.3" fill="rgb(248,248,255)"/>
<polygon points="261.8,332.3 267.8,332.3 267.8,338.3 261.8,338.3" fill="rgb(192,192,255)"/>
<polygon points="267.8,332.3 273.8,332.3 273.8,338.3 267.8,338.3" fill="rgb(191,191,255)"/>
<polygon points="273.8,332.3 279.8,332.3 279.8,338.3 273.8,338.3" fill="rgb(221,221,255)"/>
<polygon points="279.8,332.3 285.8,332.3 285.8,338.3 279.8,338.3" fill="rgb(224,224,255)"/>
<polygon points="285.8,332.3 291.8,332.3 291.8,338.3 285.8,338.3" fill="rgb(187,187,255)"/>
<polygon points="291.8,332.3 297.8,332.3 297.8,338.3 291.8,338.3" fill="rgb(240,240,255)"/>
<polygon points="297.8,332.3 303.8,332.3 303.8,338.3 297.8,338.3" fill="rgb(254,254,255)"/>
<polygon points="303.8,332.3 309.8,332.3 309.8,338.3 303.8,338.3" fill="rgb(255,103,103)"/>
<polygon points="111.8,338.3 119.8,338.3 119.8,344.3 111.8,344.3" fill="rgb(216,179,101)"/><text xml:space="preserve" x="115.8" y="344.133" font-family="Calibri" font-size="7.5" fill="rgb(0,0,0)" text-anchor="middle">14</text>
<polygon points="119.8,338.3 127.8,338.3 127.8,344.3 119.8,344.3" fill="rgb(245,245,245)"/><text xml:space="preserve" x="123.8" y="344.133" font-family="Calibri" font-size="7.5" fill="rgb(0,0,0)" text-anchor="middle">7</text>
<polygon points="127.8,338.3 135.8,338.3 135.8,344.3 127.8,344.3" fill="rgb(228,207,162)"/><text xml:space="preserve" x="131.8" y="344.133" font-family="Calibri" font-size="7.5" fill="rgb(0,0,0)" text-anchor="middle">11</text>
<polygon points="145.8,338.3 151.8,338.3 151.8,344.3 145.8,344.3" fill="rgb(255,242,242)"/>
<polygon points="151.8,338.3 157.8,338.3 157.8,344.3 151.8,344.3" fill="rgb(243,243,255)"/>
<polygon points="157.8,338.3 163.8,338.3 163.8,344.3 157.8,344.3" fill="rgb(255,220,220)"/>
<polygon points="163.8,338.3 169.8,338.3 169.8,344.3 163.8,344.3" fill="rgb(255,212,212)"/>
<polygon points="169.8,338.3 175.8,338.3 175.8,344.3 169.8,344.3" fill="rgb(243,243,255)"/>
<polygon points="175.8,338.3 181.8,338.3 181.8,344.3 175.8,344.3" fill="rgb(228,228,255)"/>
<polygon points="181.8,338.3 187.8,338.3 187.8,344.3 181.8,344.3" fill="rgb(254,128,128)"/>
<polygon points="187.8,338.3 193.8,338.3 193.8,344.3 187.8,344.3" fill="rgb(255,102,102)"/>
<polygon points="203.8,338.3 209.8,338.3 209.8,344.3 203.8,344.3" fill="rgb(255,230,230)"/>
<polygon points="209.8,338.3 215.8,338.3 215.8,344.3 209.8,344.3" fill="rgb(255,204,204)"/>
<polygon points="215.8,338.3 221.8,338.3 221.8,344.3 215.8,344.3" fill="rgb(255,227,227)"/>
<polygon points="221.8,338.3 227.8,338.3 227.8,344.3 221.8,344.3" fill="rgb(255,161,161)"/>
<polygon points="227.8,338.3 233.8,338.3 233.8,344.3 227.8,344.3" fill="rgb(255,229,229)"/>
<polygon points="233.8,338.3 239.8,338.3 239.8,344.3 233.8,344.3" fill="rgb(218,218,255)"/>
<polygon points="239.8,338.3 245.8,338.3 245.8,344.3 239.8,344.3" fill="rgb(255,227,227)"/>
<polygon points="245.8,338.3 251.8,338.3 251.8,344.3 245.8,344.3" fill="rgb(255,238,238)"/>
<polygon points="261.8,338.3 267.8,338.3 267.8,344.3 261.8,344.3" fill="rgb(245,245,255)"/>
<polygon points="267.8,338.3 273.8,338.3 273.8,344.3 267.8,344.3" fill="rgb(196,196,255)"/>
<polygon points="273.8,338.3 279.8,338.3 279.8,344.3 273.8,344.3" fill="rgb(241,241,255)"/>
<polygon points="279.8,338.3 285.8,338.3 285.8,344.3 279.8,344.3" fill="rgb(185,185,255)"/>
<polygon points="285.8,338.3 291.8,338.3 291.8,344.3 285.8,344.3" fill="rgb(228,228,255)"/>
<polygon points="291.8,338.3 297.8,338.3 297.8,344.3 291.8,344.3" fill="rgb(188,188,255)"/>
<polygon points="297.8,338.3 303.8,338.3 303.8,344.3 297.8,344.3" fill="rgb(255,169,169)"/>
<polygon points="303.8,338.3 309.8,338.3 309.8,344.3 303.8,344.3" fill="rgb(255,49,49)"/>
<polygon points="111.8,344.3 119.8,344.3 119.8,350.3 111.8,350.3" fill="rgb(216,179,101)"/><text xml:space="preserve" x="115.8" y="350.133" font-family="Calibri" font-size="7.5" fill="rgb(0,0,0)" text-anchor="middle">14</text>
<polygon points="119.8,344.3 127.8,344.3 127.8,350.3 119.8,350.3" fill="rgb(245,245,245)"/><text xml:space="preserve" x="123.8" y="350.133" font-family="Calibri" font-size="7.5" fill="rgb(0,0,0)" text-anchor="middle">7</text>
<polygon points="127.8,344.3 135.8,344.3 135.8,350.3 127.8,350.3" fill="rgb(228,207,162)"/><text xml:space="preserve" x="131.8" y="350.133" font-family="Calibri" font-size="7.5" fill="rgb(0,0,0)" text-anchor="middle">11</text>
<polygon points="145.8,344.3 151.8,344.3 151.8,350.3 145.8,350.3" fill="rgb(251,251,255)"/>
<polygon points="151.8,344.3 157.8,344.3 157.8,350.3 151.8,350.3" fill="rgb(252,252,255)"/>
<polygon points="157.8,344.3 163.8,344.3 163.8,350.3 157.8,350.3" fill="rgb(255,177,177)"/>
<polygon points="163.8,344.3 169.8,344.3 169.8,350.3 163.8,350.3" fill="rgb(255,146,146)"/>
<polygon points="169.8,344.3 175.8,344.3 175.8,350.3 169.8,350.3" fill="rgb(221,221,255)"/>
<polygon points="175.8,344.3 181.8,344.3 181.8,350.3 175.8,350.3" fill="rgb(216,216,255)"/>
<polygon points="181.8,344.3 187.8,344.3 187.8,350.3 181.8,350.3" fill="rgb(254,241,241)"/>
<polygon points="187.8,344.3 193.8,344.3 193.8,350.3 187.8,350.3" fill="rgb(255,116,116)"/>
<polygon points="203.8,344.3 209.8,344.3 209.8,350.3 203.8,350.3" fill="rgb(255,211,211)"/>
<polygon points="209.8,344.3 215.8,344.3 215.8,350.3 209.8,350.3" fill="rgb(255,246,246)"/>
<polygon points="215.8,344.3 221.8,344.3 221.8,350.3 215.8,350.3" fill="rgb(255,180,180)"/>
<polygon points="221.8,344.3 227.8,344.3 227.8,350.3 221.8,350.3" fill="rgb(255,79,79)"/>
<polygon points="227.8,344.3 233.8,344.3 233.8,350.3 227.8,350.3" fill="rgb(247,247,255)"/>
<polygon points="233.8,344.3 239.8,344.3 239.8,350.3 233.8,350.3" fill="rgb(196,196,255)"/>
<polygon points="239.8,344.3 245.8,344.3 245.8,350.3 239.8,350.3" fill="rgb(155,155,255)"/>
<polygon points="245.8,344.3 251.8,344.3 251.8,350.3 245.8,350.3" fill="rgb(255,220,220)"/>
<polygon points="261.8,344.3 267.8,344.3 267.8,350.3 261.8,350.3" fill="rgb(177,177,255)"/>
<polygon points="267.8,344.3 273.8,344.3 273.8,350.3 267.8,350.3" fill="rgb(224,224,255)"/>
<polygon points="273.8,344.3 279.8,344.3 279.8,350.3 273.8,350.3" fill="rgb(235,235,255)"/>
<polygon points="279.8,344.3 285.8,344.3 285.8,350.3 279.8,350.3" fill="rgb(247,247,255)"/>
<polygon points="285.8,344.3 291.8,344.3 291.8,350.3 285.8,350.3" fill="rgb(174,174,255)"/>
<polygon points="291.8,344.3 297.8,344.3 297.8,350.3 291.8,350.3" fill="rgb(167,167,255)"/>
<polygon points="297.8,344.3 303.8,344.3 303.8,350.3 297.8,350.3" fill="rgb(254,241,241)"/>
<polygon points="303.8,344.3 309.8,344.3 309.8,350.3 303.8,350.3" fill="rgb(255,95,95)"/>
<polygon points="111.8,350.3 119.8,350.3 119.8,356.3 111.8,356.3" fill="rgb(216,179,101)"/><text xml:space="preserve" x="115.8" y="356.133" font-family="Calibri" font-size="7.5" fill="rgb(0,0,0)" text-anchor="middle">14</text>
<polygon points="119.8,350.3 127.8,350.3 127.8,356.3 119.8,356.3" fill="rgb(245,245,245)"/><text xml:space="preserve" x="123.8" y="356.133" font-family="Calibri" font-size="7.5" fill="rgb(0,0,0)" text-anchor="middle">7</text>
<polygon points="127.8,350.3 135.8,350.3 135.8,356.3 127.8,356.3" fill="rgb(228,207,162)"/><text xml:space="preserve" x="131.8" y="356.133" font-family="Calibri" font-size="7.5" fill="rgb(0,0,0)" text-anchor="middle">11</text>
<polygon points="145.8,350.3 151.8,350.3 151.8,356.3 145.8,356.3" fill="rgb(251,251,255)"/>
<polygon points="151.8,350.3 157.8,350.3 157.8,356.3 151.8,356.3" fill="rgb(238,238,255)"/>
<polygon points="157.8,350.3 163.8,350.3 163.8,356.3 157.8,356.3" fill="rgb(255,214,214)"/>
<polygon points="163.8,350.3 169.8,350.3 169.8,356.3 163.8,356.3" fill="rgb(255,178,178)"/>
<polygon points="169.8,350.3 175.8,350.3 175.8,356.3 169.8,356.3" fill="rgb(203,203,255)"/>
<polygon points="175.8,350.3 181.8,350.3 181.8,356.3 175.8,356.3" fill="rgb(255,229,229)"/>
<polygon points="181.8,350.3 187.8,350.3 187.8,356.3 181.8,356.3" fill="rgb(255,211,211)"/>
<polygon points="187.8,350.3 193.8,350.3 193.8,356.3 187.8,356.3" fill="rgb(255,137,137)"/>
<polygon points="203.8,350.3 209.8,350.3 209.8,356.3 203.8,356.3" fill="rgb(255,203,203)"/>
<polygon points="209.8,350.3 215.8,350.3 215.8,356.3 209.8,356.3" fill="rgb(254,190,190)"/>
<polygon points="215.8,350.3 221.8,350.3 221.8,356.3 215.8,356.3" fill="rgb(255,209,209)"/>
<polygon points="221.8,350.3 227.8,350.3 227.8,356.3 221.8,356.3" fill="rgb(255,98,98)"/>
<polygon points="227.8,350.3 233.8,350.3 233.8,356.3 227.8,356.3" fill="rgb(255,247,247)"/>
<polygon points="233.8,350.3 239.8,350.3 239.8,356.3 233.8,356.3" fill="rgb(252,252,255)"/>
<polygon points="239.8,350.3 245.8,350.3 245.8,356.3 239.8,356.3" fill="rgb(228,228,255)"/>
<polygon points="245.8,350.3 251.8,350.3 251.8,356.3 245.8,356.3" fill="rgb(255,238,238)"/>
<polygon points="261.8,350.3 267.8,350.3 267.8,356.3 261.8,356.3" fill="rgb(215,215,255)"/>
<polygon points="267.8,350.3 273.8,350.3 273.8,356.3 267.8,356.3" fill="rgb(204,204,255)"/>
<polygon points="273.8,350.3 279.8,350.3 279.8,356.3 273.8,356.3" fill="rgb(193,193,255)"/>
<polygon points="279.8,350.3 285.8,350.3 285.8,356.3 279.8,356.3" fill="rgb(180,180,255)"/>
<polygon points="285.8,350.3 291.8,350.3 291.8,356.3 285.8,356.3" fill="rgb(190,190,255)"/>
<polygon points="291.8,350.3 297.8,350.3 297.8,356.3 291.8,356.3" fill="rgb(251,251,255)"/>
<polygon points="297.8,350.3 303.8,350.3 303.8,356.3 297.8,356.3" fill="rgb(255,237,237)"/>
<polygon points="303.8,350.3 309.8,350.3 309.8,356.3 303.8,356.3" fill="rgb(255,169,169)"/>
<polygon points="111.8,356.3 119.8,356.3 119.8,362.3 111.8,362.3" fill="rgb(216,179,101)"/><text xml:space="preserve" x="115.8" y="362.133" font-family="Calibri" font-size="7.5" fill="rgb(0,0,0)" text-anchor="middle">14</text>
<polygon points="119.8,356.3 127.8,356.3 127.8,362.3 119.8,362.3" fill="rgb(245,245,245)"/><text xml:space="preserve" x="123.8" y="362.133" font-family="Calibri" font-size="7.5" fill="rgb(0,0,0)" text-anchor="middle">7</text>
<polygon points="127.8,356.3 135.8,356.3 135.8,362.3 127.8,362.3" fill="rgb(232,216,183)"/><text xml:space="preserve" x="131.8" y="362.133" font-family="Calibri" font-size="7.5" fill="rgb(0,0,0)" text-anchor="middle">10</text>
<polygon points="145.8,356.3 151.8,356.3 151.8,362.3 145.8,362.3" fill="rgb(254,173,173)"/>
<polygon points="151.8,356.3 157.8,356.3 157.8,362.3 151.8,362.3" fill="rgb(255,214,214)"/>
<polygon points="157.8,356.3 163.8,356.3 163.8,362.3 157.8,362.3" fill="rgb(242,242,255)"/>
<polygon points="163.8,356.3 169.8,356.3 169.8,362.3 163.8,362.3" fill="rgb(255,147,147)"/>
<polygon points="169.8,356.3 175.8,356.3 175.8,362.3 169.8,362.3" fill="rgb(254,239,239)"/>
<polygon points="175.8,356.3 181.8,356.3 181.8,362.3 175.8,362.3" fill="rgb(129,129,255)"/>
<polygon points="181.8,356.3 187.8,356.3 187.8,362.3 181.8,362.3" fill="rgb(239,239,255)"/>
<polygon points="187.8,356.3 193.8,356.3 193.8,362.3 187.8,362.3" fill="rgb(255,189,189)"/>
<polygon points="203.8,356.3 209.8,356.3 209.8,362.3 203.8,362.3" fill="rgb(254,172,172)"/>
<polygon points="209.8,356.3 215.8,356.3 215.8,362.3 209.8,362.3" fill="rgb(255,191,191)"/>
<polygon points="215.8,356.3 221.8,356.3 221.8,362.3 215.8,362.3" fill="rgb(255,250,250)"/>
<polygon points="221.8,356.3 227.8,356.3 227.8,362.3 221.8,362.3" fill="rgb(255,141,141)"/>
<polygon points="227.8,356.3 233.8,356.3 233.8,362.3 227.8,362.3" fill="rgb(255,215,215)"/>
<polygon points="233.8,356.3 239.8,356.3 239.8,362.3 233.8,362.3" fill="rgb(170,170,255)"/>
<polygon points="239.8,356.3 245.8,356.3 245.8,362.3 239.8,362.3" fill="rgb(193,193,255)"/>
<polygon points="245.8,356.3 251.8,356.3 251.8,362.3 245.8,362.3" fill="rgb(233,233,255)"/>
<polygon points="261.8,356.3 267.8,356.3 267.8,362.3 261.8,362.3" fill="rgb(255,158,158)"/>
<polygon points="267.8,356.3 273.8,356.3 273.8,362.3 267.8,362.3" fill="rgb(255,199,199)"/>
<polygon points="273.8,356.3 279.8,356.3 279.8,362.3 273.8,362.3" fill="rgb(255,219,219)"/>
<polygon points="279.8,356.3 285.8,356.3 285.8,362.3 279.8,362.3" fill="rgb(255,114,114)"/>
<polygon points="285.8,356.3 291.8,356.3 291.8,362.3 285.8,362.3" fill="rgb(255,167,167)"/>
<polygon points="291.8,356.3 297.8,356.3 297.8,362.3 291.8,362.3" fill="rgb(154,154,255)"/>
<polygon points="297.8,356.3 303.8,356.3 303.8,362.3 297.8,362.3" fill="rgb(162,162,255)"/>
<polygon points="303.8,356.3 309.8,356.3 309.8,362.3 303.8,362.3" fill="rgb(203,203,255)"/>
<polygon points="111.8,212.3 135.8,212.3 135.8,362.3 111.8,362.3" fill="none" stroke="black" stroke-width="1"/>
<polygon points="145.8,212.3 193.8,212.3 193.8,362.3 145.8,362.3" fill="none" stroke="black" stroke-width="1"/>
<polygon points="203.8,212.3 251.8,212.3 251.8,362.3 203.8,362.3" fill="none" stroke="black" stroke-width="1"/>
<polygon points="261.8,212.3 309.8,212.3 309.8,362.3 261.8,362.3" fill="none" stroke="black" stroke-width="1"/>
<text xml:space="preserve" x="175.9" y="394.633" font-family="Calibri" font-size="6" text-anchor="middle">moduleID</text>
<polygon points="65.9,402.3 85.9,402.3 85.9,422.3 65.9,422.3" fill="rgb(250,250,250)"/><polygon points="65.9,402.3 85.9,402.3 85.9,422.3 65.9,422.3" fill="none" stroke="black" stroke-width="1"/><text xml:space="preserve" x="75.9" y="415.133" font-family="Calibri" font-size="7.5" fill="rgb(0,0,0)" text-anchor="middle">-2.0</text>
<polygon points="85.9,402.3 105.9,402.3 105.9,422.3 85.9,422.3" fill="rgb(156,210,205)"/><polygon points="85.9,402.3 105.9,402.3 105.9,422.3 85.9,422.3" fill="none" stroke="black" stroke-width="1"/><text xml:space="preserve" x="95.9" y="415.133" font-family="Calibri" font-size="7.5" fill="rgb(0,0,0)" text-anchor="middle">-0.4</text>
<polygon points="105.9,402.3 125.9,402.3 125.9,422.3 105.9,422.3" fill="rgb(116,191,184)"/><polygon points="105.9,402.3 125.9,402.3 125.9,422.3 105.9,422.3" fill="none" stroke="black" stroke-width="1"/><text xml:space="preserve" x="115.9" y="415.133" font-family="Calibri" font-size="7.5" fill="rgb(0,0,0)" text-anchor="middle">1.2</text>
<polygon points="125.9,402.3 145.9,402.3 145.9,422.3 125.9,422.3" fill="rgb(152,206,201)"/><polygon points="125.9,402.3 145.9,402.3 145.9,422.3 125.9,422.3" fill="none" stroke="black" stroke-width="1"/><text xml:space="preserve" x="135.9" y="415.133" font-family="Calibri" font-size="7.5" fill="rgb(0,0,0)" text-anchor="middle">2.8</text>
<polygon points="145.9,402.3 165.9,402.3 165.9,422.3 145.9,422.3" fill="rgb(187,220,217)"/><polygon points="145.9,402.3 165.9,402.3 165.9,422.3 145.9,422.3" fill="none" stroke="black" stroke-width="1"/><text xml:space="preserve" x="155.9" y="415.133" font-family="Calibri" font-size="7.5" fill="rgb(0,0,0)" text-anchor="middle">4.4</text>
<polygon points="165.9,402.3 185.9,402.3 185.9,422.3 165.9,422.3" fill="rgb(222,235,234)"/><polygon points="165.9,402.3 185.9,402.3 185.9,422.3 165.9,422.3" fill="none" stroke="black" stroke-width="1"/><text xml:space="preserve" x="175.9" y="415.133" font-family="Calibri" font-size="7.5" fill="rgb(0,0,0)" text-anchor="middle">6.0</text>
<polygon points="185.9,402.3 205.9,402.3 205.9,422.3 185.9,422.3" fill="rgb(242,239,232)"/><polygon points="185.9,402.3 205.9,402.3 205.9,422.3 185.9,422.3" fill="none" stroke="black" stroke-width="1"/><text xml:space="preserve" x="195.9" y="415.133" font-family="Calibri" font-size="7.5" fill="rgb(0,0,0)" text-anchor="middle">7.6</text>
<polygon points="205.9,402.3 225.9,402.3 225.9,422.3 205.9,422.3" fill="rgb(235,224,199)"/><polygon points="205.9,402.3 225.9,402.3 225.9,422.3 205.9,422.3" fill="none" stroke="black" stroke-width="1"/><text xml:space="preserve" x="215.9" y="415.133" font-family="Calibri" font-size="7.5" fill="rgb(0,0,0)" text-anchor="middle">9.2</text>
<polygon points="225.9,402.3 245.9,402.3 245.9,422.3 225.9,422.3" fill="rgb(229,209,166)"/><polygon points="225.9,402.3 245.9,402.3 245.9,422.3 225.9,422.3" fill="none" stroke="black" stroke-width="1"/><text xml:space="preserve" x="235.9" y="415.133" font-family="Calibri" font-size="7.5" fill="rgb(0,0,0)" text-anchor="middle">10.8</text>
<polygon points="245.9,402.3 265.9,402.3 265.9,422.3 245.9,422.3" fill="rgb(222,194,133)"/><polygon points="245.9,402.3 265.9,402.3 265.9,422.3 245.9,422.3" fill="none" stroke="black" stroke-width="1"/><text xml:space="preserve" x="255.9" y="415.133" font-family="Calibri" font-size="7.5" fill="rgb(0,0,0)" text-anchor="middle">12.4</text>
<polygon points="265.9,402.3 285.9,402.3 285.9,422.3 265.9,422.3" fill="rgb(216,179,101)"/><polygon points="265.9,402.3 285.9,402.3 285.9,422.3 265.9,422.3" fill="none" stroke="black" stroke-width="1"/><text xml:space="preserve" x="275.9" y="415.133" font-family="Calibri" font-size="7.5" fill="rgb(0,0,0)" text-anchor="middle">14.0</text>
<text xml:space="preserve" x="175.9" y="454.633" font-family="Calibri" font-size="6" text-anchor="middle">marklevel</text>
<polygon points="65.9,462.3 85.9,462.3 85.9,482.3 65.9,482.3" fill="rgb(0,0,255)"/><polygon points="65.9,462.3 85.9,462.3 85.9,482.3 65.9,482.3" fill="none" stroke="black" stroke-width="1"/><text xml:space="preserve" x="75.9" y="475.133" font-family="Calibri" font-size="7.5" fill="rgb(255,255,255)" text-anchor="middle">-2.0</text>
<polygon points="85.9,462.3 105.9,462.3 105.9,482.3 85.9,482.3" fill="rgb(50,50,255)"/><polygon points="85.9,462.3 105.9,462.3 105.9,482.3 85.9,482.3" fill="none" stroke="black" stroke-width="1"/><text xml:space="preserve" x="95.9" y="475.133" font-family="Calibri" font-size="7.5" fill="rgb(255,255,255)" text-anchor="middle">-1.6</text>
<polygon points="105.9,462.3 125.9,462.3 125.9,482.3 105.9,482.3" fill="rgb(102,102,255)"/><polygon points="105.9,462.3 125.9,462.3 125.9,482.3 105.9,482.3" fill="none" stroke="black" stroke-width="1"/><text xml:space="preserve" x="115.9" y="475.133" font-family="Calibri" font-size="7.5" fill="rgb(255,255,255)" text-anchor="middle">-1.2</text>
<polygon points="125.9,462.3 145.9,462.3 145.9,482.3 125.9,482.3" fill="rgb(153,153,255)"/><polygon points="125.9,462.3 145.9,462.3 145.9,482.3 125.9,482.3" fill="none" stroke="black" stroke-width="1"/><text xml:space="preserve" x="135.9" y="475.133" font-family="Calibri" font-size="7.5" fill="rgb(0,0,0)" text-anchor="middle">-0.8</text>
<polygon points="145.9,462.3 165.9,462.3 165.9,482.3 145.9,482.3" fill="rgb(204,204,255)"/><polygon points="145.9,462.3 165.9,462.3 165.9,482.3 145.9,482.3" fill="none" stroke="black" stroke-width="1"/><text xml:space="preserve" x="155.9" y="475.133" font-family="Calibri" font-size="7.5" fill="rgb(0,0,0)" text-anchor="middle">-0.4</text>
<polygon points="165.9,462.3 185.9,462.3 185.9,482.3 165.9,482.3" fill="rgb(255,255,255)"/><polygon points="165.9,462.3 185.9,462.3 185.9,482.3 165.9,482.3" fill="none" stroke="black" stroke-width="1"/><text xml:space="preserve" x="175.9" y="475.133" font-family="Calibri" font-size="7.5" fill="rgb(0,0,0)" text-anchor="middle">0.0</text>
<polygon points="185.9,462.3 205.9,462.3 205.9,482.3 185.9,482.3" fill="rgb(255,204,204)"/><polygon points="185.9,462.3 205.9,462.3 205.9,482.3 185.9,482.3" fill="none" stroke="black" stroke-width="1"/><text xml:space="preserve" x="195.9" y="475.133" font-family="Calibri" font-size="7.5" fill="rgb(0,0,0)" text-anchor="middle">0.4</text>
<polygon points="205.9,462.3 225.9,462.3 225.9,482.3 205.9,482.3" fill="rgb(255,153,153)"/><polygon points="205.9,462.3 225.9,462.3 225.9,482.3 205.9,482.3" fill="none" stroke="black" stroke-width="1"/><text xml:space="preserve" x="215.9" y="475.133" font-family="Calibri" font-size="7.5" fill="rgb(0,0,0)" text-anchor="middle">0.8</text>
<polygon points="225.9,462.3 245.9,462.3 245.9,482.3 225.9,482.3" fill="rgb(255,102,102)"/><polygon points="225.9,462.3 245.9,462.3 245.9,482.3 225.9,482.3" fill="none" stroke="black" stroke-width="1"/><text xml:space="preserve" x="235.9" y="475.133" font-family="Calibri" font-size="7.5" fill="rgb(0,0,0)" text-anchor="middle">1.2</text>
<polygon points="245.9,462.3 265.9,462.3 265.9,482.3 245.9,482.3" fill="rgb(255,50,50)"/><polygon points="245.9,462.3 265.9,462.3 265.9,482.3 245.9,482.3" fill="none" stroke="black" stroke-width="1"/><text xml:space="preserve" x="255.9" y="475.133" font-family="Calibri" font-size="7.5" fill="rgb(255,255,255)" text-anchor="middle">1.6</text>
<polygon points="265.9,462.3 285.9,462.3 285.9,482.3 265.9,482.3" fill="rgb(255,0,0)"/><polygon points="265.9,462.3 285.9,462.3 285.9,482.3 265.9,482.3" fill="none" stroke="black" stroke-width="1"/><text xml:space="preserve" x="275.9" y="475.133" font-family="Calibri" font-size="7.5" fill="rgb(255,255,255)" text-anchor="middle">2.0</text>
</svg>
