<?xml version="1.0" standalone="no"?><!DOCTYPE svg PUBLIC "-//W3C//DTD SVG 1.1//EN" "http://www.w3.org/Graphics/SVG/1.1/DTD/svg11.dtd">
<svg width="392.9" height="430.3" version="1.1" xmlns="http://www.w3.org/2000/svg">
<text xml:space="preserve" x="148.9" y="217.633" font-family="Calibri" font-size="6" text-anchor="end">A430105I19Rik</text>
<text xml:space="preserve" x="148.9" y="223.633" font-family="Calibri" font-size="6" text-anchor="end">Lgals3bp</text>
<text xml:space="preserve" x="148.9" y="229.633" font-family="Calibri" font-size="6" text-anchor="end">Tenc1</text>
<text xml:space="preserve" x="148.9" y="235.633" font-family="Calibri" font-size="6" text-anchor="end">Cerk</text>
<text xml:space="preserve" x="148.9" y="241.633" font-family="Calibri" font-size="6" text-anchor="end">Acadl</text>
<text xml:space="preserve" x="148.9" y="247.633" font-family="Calibri" font-size="6" text-anchor="end">BC031353</text>
<text xml:space="preserve" x="148.9" y="253.633" font-family="Calibri" font-size="6" text-anchor="end">C1qtnf6</text>
<text xml:space="preserve" x="148.9" y="259.633" font-family="Calibri" font-size="6" text-anchor="end">Ccdc68</text>
<text xml:space="preserve" x="148.9" y="265.633" font-family="Calibri" font-size="6" text-anchor="end">Cdc42ep5</text>
<text xml:space="preserve" x="148.9" y="271.633" font-family="Calibri" font-size="6" text-anchor="end">Frk</text>
<text xml:space="preserve" x="148.9" y="277.633" font-family="Calibri" font-size="6" text-anchor="end">Ikbke</text>
<text xml:space="preserve" x="148.9" y="283.633" font-family="Calibri" font-size="6" text-anchor="end">Lrp1</text>
<text xml:space="preserve" x="148.9" y="289.633" font-family="Calibri" font-size="6" text-anchor="end">Tcirg1</text>
<text xml:space="preserve" x="159.233" y="208.3" font-family="Calibri" font-size="6" transform="rotate(270 159.233 208.3)">ips</text>
<text xml:space="preserve" x="167.233" y="208.3" font-family="Calibri" font-size="6" transform="rotate(270 167.233 208.3)">pips</text>
<text xml:space="preserve" x="175.233" y="208.3" font-family="Calibri" font-size="6" transform="rotate(270 175.233 208.3)">mef</text>
<text xml:space="preserve" x="192.233" y="208.3" font-family="Calibri" font-size="6" transform="rotate(270 192.233 208.3)">ips_H3K4me3iPS</text>
<text xml:space="preserve" x="198.233" y="208.3" font-family="Calibri" font-size="6" transform="rotate(270 198.233 208.3)">ips_H3K9aciPS</text>
<text xml:space="preserve" x="204.233" y="208.3" font-family="Calibri" font-size="6" transform="rotate(270 204.233 208.3)">ips_H3K14aciPS</text>
<text xml:space="preserve" x="210.233" y="208.3" font-family="Calibri" font-size="6" transform="rotate(270 210.233 208.3)">ips_H3K18aciPS</text>
<text xml:space="preserve" x="216.233" y="208.3" font-family="Calibri" font-size="6" transform="rotate(270 216.233 208.3)">ips_H3K79me2iPS</text>
<text xml:space="preserve" x="222.233" y="208.3" font-family="Calibri" font-size="6" transform="rotate(270 222.233 208.3)">ips_H3K9me2iPS</text>
<text xml:space="preserve" x="228.233" y="208.3" font-family="Calibri" font-size="6" transform="rotate(270 228.233 208.3)">ips_H3K9me3iPS</text>
<text xml:space="preserve" x="234.233" y="208.3" font-family="Calibri" font-size="6" transform="rotate(270 234.233 208.3)">ips_H3K27me3iPS</text>
<text xml:space="preserve" x="250.233" y="208.3" font-family="Calibri" font-size="6" transform="rotate(270 250.233 208.3)">pips_H3K4me3pips</text>
<text xml:space="preserve" x="256.233" y="208.3" font-family="Calibri" font-size="6" transform="rotate(270 256.233 208.3)">pips_H3K9acpips</text>
<text xml:space="preserve" x="262.233" y="208.3" font-family="Calibri" font-size="6" transform="rotate(270 262.233 208.3)">pips_H3K14acpips</text>
<text xml:space="preserve" x="268.233" y="208.3" font-family="Calibri" font-size="6" transform="rotate(270 268.233 208.3)">pips_H3K18acpips</text>
<text xml:space="preserve" x="274.233" y="208.3" font-family="Calibri" font-size="6" transform="rotate(270 274.233 208.3)">pips_H3K79me2pips</text>
<text xml:space="preserve" x="280.233" y="208.3" font-family="Calibri" font-size="6" transform="rotate(270 280.233 208.3)">pips_H3K9me2pips</text>
<text xml:space="preserve" x="286.233" y="208.3" font-family="Calibri" font-size="6" transform="rotate(270 286.233 208.3)">pips_H3K9me3pips</text>
<text xml:space="preserve" x="292.233" y="208.3" font-family="Calibri" font-size="6" transform="rotate(270 292.233 208.3)">pips_H3K27me3pips</text>
<text xml:space="preserve" x="308.233" y="208.3" font-family="Calibri" font-size="6" transform="rotate(270 308.233 208.3)">mef_H3K4me3mef</text>
<text xml:space="preserve" x="314.233" y="208.3" font-family="Calibri" font-size="6" transform="rotate(270 314.233 208.3)">mef_H3K9acmef</text>
<text xml:space="preserve" x="320.233" y="208.3" font-family="Calibri" font-size="6" transform="rotate(270 320.233 208.3)">mef_H3K14acmef</text>
<text xml:space="preserve" x="326.233" y="208.3" font-family="Calibri" font-size="6" transform="rotate(270 326.233 208.3)">mef_H3K18acmef</text>
<text xml:space="preserve" x="332.233" y="208.3" font-family="Calibri" font-size="6" transform="rotate(270 332.233 208.3)">mef_H3K79me2mef</text>
<text xml:space="preserve" x="338.233" y="208.3" font-family="Calibri" font-size="6" transform="rotate(270 338.233 208.3)">mef_H3K9me2mef</text>
<text xml:space="preserve" x="344.233" y="208.3" font-family="Calibri" font-size="6" transform="rotate(270 344.233 208.3)">mef_H3K9me3mef</text>
<text xml:space="preserve" x="350.233" y="208.3" font-family="Calibri" font-size="6" transform="rotate(270 350.233 208.3)">mef_H3K27me3mef</text>
<polygon points="152.9,212.3 160.9,212.3 160.9,218.3 152.9,218.3" fill="rgb(200,226,224)"/><text xml:space="preserve" x="156.9" y="218.133" font-family="Calibri" font-size="7.5" fill="rgb(0,0,0)" text-anchor="middle">5</text>
<polygon points="160.9,212.3 168.9,212.3 168.9,218.3 160.9,218.3" fill="rgb(245,245,245)"/><text xml:space="preserve" x="164.9" y="218.133" font-family="Calibri" font-size="7.5" fill="rgb(0,0,0)" text-anchor="middle">7</text>
<polygon points="168.9,212.3 176.9,212.3 176.9,218.3 168.9,218.3" fill="rgb(245,245,245)"/><text xml:space="preserve" x="172.9" y="218.133" font-family="Calibri" font-size="7.5" fill="rgb(0,0,0)" text-anchor="middle">7</text>
<polygon points="186.9,212.3 192.9,212.3 192.9,218.3 186.9,218.3" fill="rgb(202,202,255)"/>
<polygon points="192.9,212.3 198.9,212.3 198.9,218.3 192.9,218.3" fill="rgb(248,248,255)"/>
<polygon points="198.9,212.3 204.9,212.3 204.9,218.3 198.9,218.3" fill="rgb(255,215,215)"/>
<polygon points="204.9,212.3 210.9,212.3 210.9,218.3 204.9,218.3" fill="rgb(255,204,204)"/>
<polygon points="210.9,212.3 216.9,212.3 216.9,218.3 210.9,218.3" fill="rgb(228,228,255)"/>
<polygon points="216.9,212.3 222.9,212.3 222.9,218.3 216.9,218.3" fill="rgb(252,252,255)"/>
<polygon points="222.9,212.3 228.9,212.3 228.9,218.3 222.9,218.3" fill="rgb(255,226,226)"/>
<polygon points="228.9,212.3 234.9,212.3 234.9,218.3 228.9,218.3" fill="rgb(255,225,225)"/>
<polygon points="244.9,212.3 250.9,212.3 250.9,218.3 244.9,218.3" fill="rgb(255,176,176)"/>
<polygon points="250.9,212.3 256.9,212.3 256.9,218.3 250.9,218.3" fill="rgb(255,201,201)"/>
<polygon points="256.9,212.3 262.9,212.3 262.9,218.3 256.9,218.3" fill="rgb(255,199,199)"/>
<polygon points="262.9,212.3 268.9,212.3 268.9,218.3 262.9,218.3" fill="rgb(255,112,112)"/>
<polygon points="268.9,212.3 274.9,212.3 274.9,218.3 268.9,218.3" fill="rgb(255,247,247)"/>
<polygon points="274.9,212.3 280.9,212.3 280.9,218.3 274.9,218.3" fill="rgb(195,195,255)"/>
<polygon points="280.9,212.3 286.9,212.3 286.9,218.3 280.9,218.3" fill="rgb(207,207,255)"/>
<polygon points="286.9,212.3 292.9,212.3 292.9,218.3 286.9,218.3" fill="rgb(223,223,255)"/>
<polygon points="302.9,212.3 308.9,212.3 308.9,218.3 302.9,218.3" fill="rgb(255,225,225)"/>
<polygon points="308.9,212.3 314.9,212.3 314.9,218.3 308.9,218.3" fill="rgb(255,218,218)"/>
<polygon points="314.9,212.3 320.9,212.3 320.9,218.3 314.9,218.3" fill="rgb(255,137,137)"/>
<polygon points="320.9,212.3 326.9,212.3 326.9,218.3 320.9,218.3" fill="rgb(255,61,61)"/>
<polygon points="326.9,212.3 332.9,212.3 332.9,218.3 326.9,218.3" fill="rgb(237,237,255)"/>
<polygon points="332.9,212.3 338.9,212.3 338.9,218.3 332.9,218.3" fill="rgb(186,186,255)"/>
<polygon points="338.9,212.3 344.9,212.3 344.9,218.3 338.9,218.3" fill="rgb(203,203,255)"/>
<polygon points="344.9,212.3 350.9,212.3 350.9,218.3 344.9,218.3" fill="rgb(227,227,255)"/>
<polygon points="152.9,218.3 160.9,218.3 160.9,224.3 152.9,224.3" fill="rgb(200,226,224)"/><text xml:space="preserve" x="156.9" y="224.133" font-family="Calibri" font-size="7.5" fill="rgb(0,0,0)" text-anchor="middle">5</text>
<polygon points="160.9,218.3 168.9,218.3 168.9,224.3 160.9,224.3" fill="rgb(245,245,245)"/><text xml:space="preserve" x="164.9" y="224.133" font-family="Calibri" font-size="7.5" fill="rgb(0,0,0)" text-anchor="middle">7</text>
<polygon points="168.9,218.3 176.9,218.3 176.9,224.3 168.9,224.3" fill="rgb(245,245,245)"/><text xml:space="preserve" x="172.9" y="224.133" font-family="Calibri" font-size="7.5" fill="rgb(0,0,0)" text-anchor="middle">7</text>
<polygon points="186.9,218.3 192.9,218.3 192.9,224.3 186.9,224.3" fill="rgb(205,205,255)"/>
<polygon points="192.9,218.3 198.9,218.3 198.9,224.3 192.9,224.3" fill="rgb(247,247,255)"/>
<polygon points="198.9,218.3 204.9,218.3 204.9,224.3 198.9,224.3" fill="rgb(255,156,156)"/>
<polygon points="204.9,218.3 210.9,218.3 210.9,224.3 204.9,224.3" fill="rgb(255,164,164)"/>
<polygon points="210.9,218.3 216.9,218.3 216.9,224.3 210.9,224.3" fill="rgb(225,225,255)"/>
<polygon points="216.9,218.3 222.9,218.3 222.9,224.3 216.9,224.3" fill="rgb(255,201,201)"/>
<polygon points="222.9,218.3 228.9,218.3 228.9,224.3 222.9,224.3" fill="rgb(213,213,255)"/>
<polygon points="228.9,218.3 234.9,218.3 234.9,224.3 228.9,224.3" fill="rgb(189,189,255)"/>
<polygon points="244.9,218.3 250.9,218.3 250.9,224.3 244.9,224.3" fill="rgb(231,231,255)"/>
<polygon points="250.9,218.3 256.9,218.3 256.9,224.3 250.9,224.3" fill="rgb(255,190,190)"/>
<polygon points="256.9,218.3 262.9,218.3 262.9,224.3 256.9,224.3" fill="rgb(255,171,171)"/>
<polygon points="262.9,218.3 268.9,218.3 268.9,224.3 262.9,224.3" fill="rgb(255,145,145)"/>
<polygon points="268.9,218.3 274.9,218.3 274.9,224.3 268.9,224.3" fill="rgb(253,253,255)"/>
<polygon points="274.9,218.3 280.9,218.3 280.9,224.3 274.9,224.3" fill="rgb(241,241,255)"/>
<polygon points="280.9,218.3 286.9,218.3 286.9,224.3 280.9,224.3" fill="rgb(184,184,255)"/>
<polygon points="286.9,218.3 292.9,218.3 292.9,224.3 286.9,224.3" fill="rgb(249,249,255)"/>
<polygon points="302.9,218.3 308.9,218.3 308.9,224.3 302.9,224.3" fill="rgb(219,219,255)"/>
<polygon points="308.9,218.3 314.9,218.3 314.9,224.3 308.9,224.3" fill="rgb(255,139,139)"/>
<polygon points="314.9,218.3 320.9,218.3 320.9,224.3 314.9,224.3" fill="rgb(255,145,145)"/>
<polygon points="320.9,218.3 326.9,218.3 326.9,224.3 320.9,224.3" fill="rgb(255,99,99)"/>
<polygon points="326.9,218.3 332.9,218.3 332.9,224.3 326.9,224.3" fill="rgb(245,245,255)"/>
<polygon points="332.9,218.3 338.9,218.3 338.9,224.3 332.9,224.3" fill="rgb(226,226,255)"/>
<polygon points="338.9,218.3 344.9,218.3 344.9,224.3 338.9,224.3" fill="rgb(201,201,255)"/>
<polygon points="344.9,218.3 350.9,218.3 350.9,224.3 344.9,224.3" fill="rgb(186,186,255)"/>
<polygon points="152.9,224.3 160.9,224.3 160.9,230.3 152.9,230.3" fill="rgb(200,226,224)"/><text xml:space="preserve" x="156.9" y="230.133" font-family="Calibri" font-size="7.5" fill="rgb(0,0,0)" text-anchor="middle">5</text>
<polygon points="160.9,224.3 168.9,224.3 168.9,230.3 160.9,230.3" fill="rgb(245,245,245)"/><text xml:space="preserve" x="164.9" y="230.133" font-family="Calibri" font-size="7.5" fill="rgb(0,0,0)" text-anchor="middle">7</text>
<polygon points="168.9,224.3 176.9,224.3 176.9,230.3 168.9,230.3" fill="rgb(245,245,245)"/><text xml:space="preserve" x="172.9" y="230.133" font-family="Calibri" font-size="7.5" fill="rgb(0,0,0)" text-anchor="middle">7</text>
<polygon points="186.9,224.3 192.9,224.3 192.9,230.3 186.9,230.3" fill="rgb(253,253,255)"/>
<polygon points="192.9,224.3 198.9,224.3 198.9,230.3 192.9,230.3" fill="rgb(217,217,255)"/>
<polygon points="198.9,224.3 204.9,224.3 204.9,230.3 198.9,230.3" fill="rgb(255,203,203)"/>
<polygon points="204.9,224.3 210.9,224.3 210.9,230.3 204.9,230.3" fill="rgb(255,205,205)"/>
<polygon points="210.9,224.3 216.9,224.3 216.9,230.3 210.9,230.3" fill="rgb(209,209,255)"/>
<polygon points="216.9,224.3 222.9,224.3 222.9,230.3 216.9,230.3" fill="rgb(255,213,213)"/>
<polygon points="222.9,224.3 228.9,224.3 228.9,230.3 222.9,230.3" fill="rgb(211,211,255)"/>
<polygon points="228.9,224.3 234.9,224.3 234.9,230.3 228.9,230.3" fill="rgb(255,218,218)"/>
<polygon points="244.9,224.3 250.9,224.3 250.9,230.3 244.9,230.3" fill="rgb(255,226,226)"/>
<polygon points="250.9,224.3 256.9,224.3 256.9,230.3 250.9,230.3" fill="rgb(255,225,225)"/>
<polygon points="256.9,224.3 262.9,224.3 262.9,230.3 256.9,230.3" fill="rgb(255,222,222)"/>
<polygon points="262.9,224.3 268.9,224.3 268.9,230.3 262.9,230.3" fill="rgb(254,129,129)"/>
<polygon points="268.9,224.3 274.9,224.3 274.9,230.3 268.9,230.3" fill="rgb(237,237,255)"/>
<polygon points="274.9,224.3 280.9,224.3 280.9,230.3 274.9,230.3" fill="rgb(225,225,255)"/>
<polygon points="280.9,224.3 286.9,224.3 286.9,230.3 280.9,230.3" fill="rgb(165,165,255)"/>
<polygon points="286.9,224.3 292.9,224.3 292.9,230.3 286.9,230.3" fill="rgb(242,242,255)"/>
<polygon points="302.9,224.3 308.9,224.3 308.9,230.3 302.9,230.3" fill="rgb(255,197,197)"/>
<polygon points="308.9,224.3 314.9,224.3 314.9,230.3 308.9,230.3" fill="rgb(255,234,234)"/>
<polygon points="314.9,224.3 320.9,224.3 320.9,230.3 314.9,230.3" fill="rgb(255,202,202)"/>
<polygon points="320.9,224.3 326.9,224.3 326.9,230.3 320.9,230.3" fill="rgb(255,81,81)"/>
<polygon points="326.9,224.3 332.9,224.3 332.9,230.3 326.9,230.3" fill="rgb(231,231,255)"/>
<polygon points="332.9,224.3 338.9,224.3 338.9,230.3 332.9,230.3" fill="rgb(225,225,255)"/>
<polygon points="338.9,224.3 344.9,224.3 344.9,230.3 338.9,230.3" fill="rgb(211,211,255)"/>
<polygon points="344.9,224.3 350.9,224.3 350.9,230.3 344.9,230.3" fill="rgb(212,212,255)"/>
<polygon points="152.9,230.3 160.9,230.3 160.9,236.3 152.9,236.3" fill="rgb(200,226,224)"/><text xml:space="preserve" x="156.9" y="236.133" font-family="Calibri" font-size="7.5" fill="rgb(0,0,0)" text-anchor="middle">5</text>
<polygon points="160.9,230.3 168.9,230.3 168.9,236.3 160.9,236.3" fill="rgb(245,245,245)"/><text xml:space="preserve" x="164.9" y="236.133" font-family="Calibri" font-size="7.5" fill="rgb(0,0,0)" text-anchor="middle">7</text>
<polygon points="168.9,230.3 176.9,230.3 176.9,236.3 168.9,236.3" fill="rgb(245,245,245)"/><text xml:space="preserve" x="172.9" y="236.133" font-family="Calibri" font-size="7.5" fill="rgb(0,0,0)" text-anchor="middle">7</text>
<polygon points="186.9,230.3 192.9,230.3 192.9,236.3 186.9,236.3" fill="rgb(219,219,255)"/>
<polygon points="192.9,230.3 198.9,230.3 198.9,236.3 192.9,236.3" fill="rgb(224,224,255)"/>
<polygon points="198.9,230.3 204.9,230.3 204.9,236.3 198.9,236.3" fill="rgb(255,216,216)"/>
<polygon points="204.9,230.3 210.9,230.3 210.9,236.3 204.9,236.3" fill="rgb(255,231,231)"/>
<polygon points="210.9,230.3 216.9,230.3 216.9,236.3 210.9,236.3" fill="rgb(204,204,255)"/>
<polygon points="216.9,230.3 222.9,230.3 222.9,236.3 216.9,236.3" fill="rgb(255,230,230)"/>
<polygon points="222.9,230.3 228.9,230.3 228.9,236.3 222.9,236.3" fill="rgb(254,254,255)"/>
<polygon points="228.9,230.3 234.9,230.3 234.9,236.3 228.9,236.3" fill="rgb(255,187,187)"/>
<polygon points="244.9,230.3 250.9,230.3 250.9,236.3 244.9,236.3" fill="rgb(255,249,249)"/>
<polygon points="250.9,230.3 256.9,230.3 256.9,236.3 250.9,236.3" fill="rgb(255,197,197)"/>
<polygon points="256.9,230.3 262.9,230.3 262.9,236.3 256.9,236.3" fill="rgb(255,174,174)"/>
<polygon points="262.9,230.3 268.9,230.3 268.9,236.3 262.9,236.3" fill="rgb(255,82,82)"/>
<polygon points="268.9,230.3 274.9,230.3 274.9,236.3 268.9,236.3" fill="rgb(254,247,247)"/>
<polygon points="274.9,230.3 280.9,230.3 280.9,236.3 274.9,236.3" fill="rgb(246,246,255)"/>
<polygon points="280.9,230.3 286.9,230.3 286.9,236.3 280.9,236.3" fill="rgb(202,202,255)"/>
<polygon points="286.9,230.3 292.9,230.3 292.9,236.3 286.9,236.3" fill="rgb(231,231,255)"/>
<polygon points="302.9,230.3 308.9,230.3 308.9,236.3 302.9,236.3" fill="rgb(226,226,255)"/>
<polygon points="308.9,230.3 314.9,230.3 314.9,236.3 308.9,236.3" fill="rgb(255,228,228)"/>
<polygon points="314.9,230.3 320.9,230.3 320.9,236.3 314.9,236.3" fill="rgb(255,179,179)"/>
<polygon points="320.9,230.3 326.9,230.3 326.9,236.3 320.9,236.3" fill="rgb(255,188,188)"/>
<polygon points="326.9,230.3 332.9,230.3 332.9,236.3 326.9,236.3" fill="rgb(239,239,255)"/>
<polygon points="332.9,230.3 338.9,230.3 338.9,236.3 332.9,236.3" fill="rgb(255,250,250)"/>
<polygon points="338.9,230.3 344.9,230.3 344.9,236.3 338.9,236.3" fill="rgb(197,197,255)"/>
<polygon points="344.9,230.3 350.9,230.3 350.9,236.3 344.9,236.3" fill="rgb(225,225,255)"/>
<polygon points="152.9,236.3 160.9,236.3 160.9,242.3 152.9,242.3" fill="rgb(200,226,224)"/><text xml:space="preserve" x="156.9" y="242.133" font-family="Calibri" font-size="7.5" fill="rgb(0,0,0)" text-anchor="middle">5</text>
<polygon points="160.9,236.3 168.9,236.3 168.9,242.3 160.9,242.3" fill="rgb(245,245,245)"/><text xml:space="preserve" x="164.9" y="242.133" font-family="Calibri" font-size="7.5" fill="rgb(0,0,0)" text-anchor="middle">7</text>
<polygon points="168.9,236.3 176.9,236.3 176.9,242.3 168.9,242.3" fill="rgb(245,245,245)"/><text xml:space="preserve" x="172.9" y="242.133" font-family="Calibri" font-size="7.5" fill="rgb(0,0,0)" text-anchor="middle">7</text>
<polygon points="186.9,236.3 192.9,236.3 192.9,242.3 186.9,242.3" fill="rgb(253,253,255)"/>
<polygon points="192.9,236.3 198.9,236.3 198.9,242.3 192.9,242.3" fill="rgb(239,239,255)"/>
<polygon points="198.9,236.3 204.9,236.3 204.9,242.3 198.9,242.3" fill="rgb(255,239,239)"/>
<polygon points="204.9,236.3 210.9,236.3 210.9,242.3 204.9,242.3" fill="rgb(255,232,232)"/>
<polygon points="210.9,236.3 216.9,236.3 216.9,242.3 210.9,242.3" fill="rgb(221,221,255)"/>
<polygon points="216.9,236.3 222.9,236.3 222.9,242.3 216.9,242.3" fill="rgb(255,246,246)"/>
<polygon points="222.9,236.3 228.9,236.3 228.9,242.3 222.9,242.3" fill="rgb(229,229,255)"/>
<polygon points="228.9,236.3 234.9,236.3 234.9,242.3 228.9,242.3" fill="rgb(255,227,227)"/>
<polygon points="244.9,236.3 250.9,236.3 250.9,242.3 244.9,242.3" fill="rgb(255,177,177)"/>
<polygon points="250.9,236.3 256.9,236.3 256.9,242.3 250.9,242.3" fill="rgb(255,185,185)"/>
<polygon points="256.9,236.3 262.9,236.3 262.9,242.3 256.9,242.3" fill="rgb(255,197,197)"/>
<polygon points="262.9,236.3 268.9,236.3 268.9,242.3 262.9,242.3" fill="rgb(255,135,135)"/>
<polygon points="268.9,236.3 274.9,236.3 274.9,242.3 268.9,242.3" fill="rgb(255,199,199)"/>
<polygon points="274.9,236.3 280.9,236.3 280.9,242.3 274.9,242.3" fill="rgb(241,241,255)"/>
<polygon points="280.9,236.3 286.9,236.3 286.9,242.3 280.9,242.3" fill="rgb(220,220,255)"/>
<polygon points="286.9,236.3 292.9,236.3 292.9,242.3 286.9,242.3" fill="rgb(204,204,255)"/>
<polygon points="302.9,236.3 308.9,236.3 308.9,242.3 302.9,242.3" fill="rgb(255,202,202)"/>
<polygon points="308.9,236.3 314.9,236.3 314.9,242.3 308.9,242.3" fill="rgb(255,219,219)"/>
<polygon points="314.9,236.3 320.9,236.3 320.9,242.3 314.9,242.3" fill="rgb(255,207,207)"/>
<polygon points="320.9,236.3 326.9,236.3 326.9,242.3 320.9,242.3" fill="rgb(255,181,181)"/>
<polygon points="326.9,236.3 332.9,236.3 332.9,242.3 326.9,242.3" fill="rgb(255,209,209)"/>
<polygon points="332.9,236.3 338.9,236.3 338.9,242.3 332.9,242.3" fill="rgb(255,220,220)"/>
<polygon points="338.9,236.3 344.9,236.3 344.9,242.3 338.9,242.3" fill="rgb(255,244,244)"/>
<polygon points="344.9,236.3 350.9,236.3 350.9,242.3 344.9,242.3" fill="rgb(193,193,255)"/>
<polygon points="152.9,242.3 160.9,242.3 160.9,248.3 152.9,248.3" fill="rgb(200,226,224)"/><text xml:space="preserve" x="156.9" y="248.133" font-family="Calibri" font-size="7.5" fill="rgb(0,0,0)" text-anchor="middle">5</text>
<polygon points="160.9,242.3 168.9,242.3 168.9,248.3 160.9,248.3" fill="rgb(245,245,245)"/><text xml:space="preserve" x="164.9" y="248.133" font-family="Calibri" font-size="7.5" fill="rgb(0,0,0)" text-anchor="middle">7</text>
<polygon points="168.9,242.3 176.9,242.3 176.9,248.3 168.9,248.3" fill="rgb(245,245,245)"/><text xml:space="preserve" x="172.9" y="248.133" font-family="Calibri" font-size="7.5" fill="rgb(0,0,0)" text-anchor="middle">7</text>
<polygon points="186.9,242.3 192.9,242.3 192.9,248.3 186.9,248.3" fill="rgb(232,232,255)"/>
<polygon points="192.9,242.3 198.9,242.3 198.9,248.3 192.9,248.3" fill="rgb(222,222,255)"/>
<polygon points="198.9,242.3 204.9,242.3 204.9,248.3 198.9,248.3" fill="rgb(255,234,234)"/>
<polygon points="204.9,242.3 210.9,242.3 210.9,248.3 204.9,248.3" fill="rgb(255,251,251)"/>
<polygon points="210.9,242.3 216.9,242.3 216.9,248.3 210.9,248.3" fill="rgb(225,225,255)"/>
<polygon points="216.9,242.3 222.9,242.3 222.9,248.3 216.9,248.3" fill="rgb(199,199,255)"/>
<polygon points="222.9,242.3 228.9,242.3 228.9,248.3 222.9,248.3" fill="rgb(186,186,255)"/>
<polygon points="228.9,242.3 234.9,242.3 234.9,248.3 228.9,248.3" fill="rgb(255,244,244)"/>
<polygon points="244.9,242.3 250.9,242.3 250.9,248.3 244.9,248.3" fill="rgb(232,232,255)"/>
<polygon points="250.9,242.3 256.9,242.3 256.9,248.3 250.9,248.3" fill="rgb(255,178,178)"/>
<polygon points="256.9,242.3 262.9,242.3 262.9,248.3 256.9,248.3" fill="rgb(255,192,192)"/>
<polygon points="262.9,242.3 268.9,242.3 268.9,248.3 262.9,248.3" fill="rgb(255,139,139)"/>
<polygon points="268.9,242.3 274.9,242.3 274.9,248.3 268.9,248.3" fill="rgb(255,201,201)"/>
<polygon points="274.9,242.3 280.9,242.3 280.9,248.3 274.9,248.3" fill="rgb(243,243,255)"/>
<polygon points="280.9,242.3 286.9,242.3 286.9,248.3 280.9,248.3" fill="rgb(223,223,255)"/>
<polygon points="286.9,242.3 292.9,242.3 292.9,248.3 286.9,248.3" fill="rgb(205,205,255)"/>
<polygon points="302.9,242.3 308.9,242.3 308.9,248.3 302.9,248.3" fill="rgb(255,211,211)"/>
<polygon points="308.9,242.3 314.9,242.3 314.9,248.3 308.9,248.3" fill="rgb(255,202,202)"/>
<polygon points="314.9,242.3 320.9,242.3 320.9,248.3 314.9,248.3" fill="rgb(255,215,215)"/>
<polygon points="320.9,242.3 326.9,242.3 326.9,248.3 320.9,248.3" fill="rgb(255,159,159)"/>
<polygon points="326.9,242.3 332.9,242.3 332.9,248.3 326.9,248.3" fill="rgb(255,183,183)"/>
<polygon points="332.9,242.3 338.9,242.3 338.9,248.3 332.9,248.3" fill="rgb(222,222,255)"/>
<polygon points="338.9,242.3 344.9,242.3 344.9,248.3 338.9,248.3" fill="rgb(225,225,255)"/>
<polygon points="344.9,242.3 350.9,242.3 350.9,248.3 344.9,248.3" fill="rgb(208,208,255)"/>
<polygon points="152.9,248.3 160.9,248.3 160.9,254.3 152.9,254.3" fill="rgb(200,226,224)"/><text xml:space="preserve" x="156.9" y="254.133" font-family="Calibri" font-size="7.5" fill="rgb(0,0,0)" text-anchor="middle">5</text>
<polygon points="160.9,248.3 168.9,248.3 168.9,254.3 160.9,254.3" fill="rgb(245,245,245)"/><text xml:space="preserve" x="164.9" y="254.133" font-family="Calibri" font-size="7.5" fill="rgb(0,0,0)" text-anchor="middle">7</text>
<polygon points="168.9,248.3 176.9,248.3 176.9,254.3 168.9,254.3" fill="rgb(245,245,245)"/><text xml:space="preserve" x="172.9" y="254.133" font-family="Calibri" font-size="7.5" fill="rgb(0,0,0)" text-anchor="middle">7</text>
<polygon points="186.9,248.3 192.9,248.3 192.9,254.3 186.9,254.3" fill="rgb(217,217,255)"/>
<polygon points="192.9,248.3 198.9,248.3 198.9,254.3 192.9,254.3" fill="rgb(245,245,255)"/>
<polygon points="198.9,248.3 204.9,248.3 204.9,254.3 198.9,254.3" fill="rgb(254,184,184)"/>
<polygon points="204.9,248.3 210.9,248.3 210.9,254.3 204.9,254.3" fill="rgb(255,201,201)"/>
<polygon points="210.9,248.3 216.9,248.3 216.9,254.3 210.9,254.3" fill="rgb(208,208,255)"/>
<polygon points="216.9,248.3 222.9,248.3 222.9,254.3 216.9,254.3" fill="rgb(255,203,203)"/>
<polygon points="222.9,248.3 228.9,248.3 228.9,254.3 222.9,254.3" fill="rgb(254,248,248)"/>
<polygon points="228.9,248.3 234.9,248.3 234.9,254.3 228.9,254.3" fill="rgb(215,215,255)"/>
<polygon points="244.9,248.3 250.9,248.3 250.9,254.3 244.9,254.3" fill="rgb(243,243,255)"/>
<polygon points="250.9,248.3 256.9,248.3 256.9,254.3 250.9,254.3" fill="rgb(255,177,177)"/>
<polygon points="256.9,248.3 262.9,248.3 262.9,254.3 256.9,254.3" fill="rgb(255,209,209)"/>
<polygon points="262.9,248.3 268.9,248.3 268.9,254.3 262.9,254.3" fill="rgb(255,122,122)"/>
<polygon points="268.9,248.3 274.9,248.3 274.9,254.3 268.9,254.3" fill="rgb(249,249,255)"/>
<polygon points="274.9,248.3 280.9,248.3 280.9,254.3 274.9,254.3" fill="rgb(255,252,252)"/>
<polygon points="280.9,248.3 286.9,248.3 286.9,254.3 280.9,254.3" fill="rgb(196,196,255)"/>
<polygon points="286.9,248.3 292.9,248.3 292.9,254.3 286.9,254.3" fill="rgb(224,224,255)"/>
<polygon points="302.9,248.3 308.9,248.3 308.9,254.3 302.9,254.3" fill="rgb(255,214,214)"/>
<polygon points="308.9,248.3 314.9,248.3 314.9,254.3 308.9,254.3" fill="rgb(255,172,172)"/>
<polygon points="314.9,248.3 320.9,248.3 320.9,254.3 314.9,254.3" fill="rgb(255,149,149)"/>
<polygon points="320.9,248.3 326.9,248.3 326.9,254.3 320.9,254.3" fill="rgb(255,146,146)"/>
<polygon points="326.9,248.3 332.9,248.3 332.9,254.3 326.9,254.3" fill="rgb(255,227,227)"/>
<polygon points="332.9,248.3 338.9,248.3 338.9,254.3 332.9,254.3" fill="rgb(217,217,255)"/>
<polygon points="338.9,248.3 344.9,248.3 344.9,254.3 338.9,254.3" fill="rgb(193,193,255)"/>
<polygon points="344.9,248.3 350.9,248.3 350.9,254.3 344.9,254.3" fill="rgb(208,208,255)"/>
<polygon points="152.9,254.3 160.9,254.3 160.9,260.3 152.9,260.3" fill="rgb(200,226,224)"/><text xml:space="preserve" x="156.9" y="260.133" font-family="Calibri" font-size="7.5" fill="rgb(0,0,0)" text-anchor="middle">5</text>
<polygon points="160.9,254.3 168.9,254.3 168.9,260.3 160.9,260.3" fill="rgb(245,245,245)"/><text xml:space="preserve" x="164.9" y="260.133" font-family="Calibri" font-size="7.5" fill="rgb(0,0,0)" text-anchor="middle">7</text>
<polygon points="168.9,254.3 176.9,254.3 176.9,260.3 168.9,260.3" fill="rgb(245,245,245)"/><text xml:space="preserve" x="172.9" y="260.133" font-family="Calibri" font-size="7.5" fill="rgb(0,0,0)" text-anchor="middle">7</text>
<polygon points="186.9,254.3 192.9,254.3 192.9,260.3 186.9,260.3" fill="rgb(241,241,255)"/>
<polygon points="192.9,254.3 198.9,254.3 198.9,260.3 192.9,260.3" fill="rgb(248,248,255)"/>
<polygon points="198.9,254.3 204.9,254.3 204.9,260.3 198.9,260.3" fill="rgb(255,243,243)"/>
<polygon points="204.9,254.3 210.9,254.3 210.9,260.3 204.9,260.3" fill="rgb(255,147,147)"/>
<polygon points="210.9,254.3 216.9,254.3 216.9,260.3 210.9,260.3" fill="rgb(237,237,255)"/>
<polygon points="216.9,254.3 222.9,254.3 222.9,260.3 216.9,260.3" fill="rgb(255,189,189)"/>
<polygon points="222.9,254.3 228.9,254.3 228.9,260.3 222.9,260.3" fill="rgb(218,218,255)"/>
<polygon points="228.9,254.3 234.9,254.3 234.9,260.3 228.9,260.3" fill="rgb(229,229,255)"/>
<polygon points="244.9,254.3 250.9,254.3 250.9,260.3 244.9,260.3" fill="rgb(253,253,255)"/>
<polygon points="250.9,254.3 256.9,254.3 256.9,260.3 250.9,260.3" fill="rgb(255,222,222)"/>
<polygon points="256.9,254.3 262.9,254.3 262.9,260.3 256.9,260.3" fill="rgb(254,150,150)"/>
<polygon points="262.9,254.3 268.9,254.3 268.9,260.3 262.9,260.3" fill="rgb(255,117,117)"/>
<polygon points="268.9,254.3 274.9,254.3 274.9,260.3 268.9,260.3" fill="rgb(255,184,184)"/>
<polygon points="274.9,254.3 280.9,254.3 280.9,260.3 274.9,260.3" fill="rgb(255,210,210)"/>
<polygon points="280.9,254.3 286.9,254.3 286.9,260.3 280.9,260.3" fill="rgb(230,230,255)"/>
<polygon points="286.9,254.3 292.9,254.3 292.9,260.3 286.9,260.3" fill="rgb(210,210,255)"/>
<polygon points="302.9,254.3 308.9,254.3 308.9,260.3 302.9,260.3" fill="rgb(255,242,242)"/>
<polygon points="308.9,254.3 314.9,254.3 314.9,260.3 308.9,260.3" fill="rgb(252,252,255)"/>
<polygon points="314.9,254.3 320.9,254.3 320.9,260.3 314.9,260.3" fill="rgb(255,160,160)"/>
<polygon points="320.9,254.3 326.9,254.3 326.9,260.3 320.9,260.3" fill="rgb(254,135,135)"/>
<polygon points="326.9,254.3 332.9,254.3 332.9,260.3 326.9,260.3" fill="rgb(255,227,227)"/>
<polygon points="332.9,254.3 338.9,254.3 338.9,260.3 332.9,260.3" fill="rgb(255,192,192)"/>
<polygon points="338.9,254.3 344.9,254.3 344.9,260.3 338.9,260.3" fill="rgb(255,207,207)"/>
<polygon points="344.9,254.3 350.9,254.3 350.9,260.3 344.9,260.3" fill="rgb(215,215,255)"/>
<polygon points="152.9,260.3 160.9,260.3 160.9,266.3 152.9,266.3" fill="rgb(200,226,224)"/><text xml:space="preserve" x="156.9" y="266.133" font-family="Calibri" font-size="7.5" fill="rgb(0,0,0)" text-anchor="middle">5</text>
<polygon points="160.9,260.3 168.9,260.3 168.9,266.3 160.9,266.3" fill="rgb(245,245,245)"/><text xml:space="preserve" x="164.9" y="266.133" font-family="Calibri" font-size="7.5" fill="rgb(0,0,0)" text-anchor="middle">7</text>
<polygon points="168.9,260.3 176.9,260.3 176.9,266.3 168.9,266.3" fill="rgb(245,245,245)"/><text xml:space="preserve" x="172.9" y="266.133" font-family="Calibri" font-size="7.5" fill="rgb(0,0,0)" text-anchor="middle">7</text>
<polygon points="186.9,260.3 192.9,260.3 192.9,266.3 186.9,266.3" fill="rgb(248,248,255)"/>
<polygon points="192.9,260.3 198.9,260.3 198.9,266.3 192.9,266.3" fill="rgb(252,252,255)"/>
<polygon points="198.9,260.3 204.9,260.3 204.9,266.3 198.9,266.3" fill="rgb(255,227,227)"/>
<polygon points="204.9,260.3 210.9,260.3 210.9,266.3 204.9,266.3" fill="rgb(255,160,160)"/>
<polygon points="210.9,260.3 216.9,260.3 216.9,266.3 210.9,266.3" fill="rgb(198,198,255)"/>
<polygon points="216.9,260.3 222.9,260.3 222.9,266.3 216.9,266.3" fill="rgb(255,245,245)"/>
<polygon points="222.9,260.3 228.9,260.3 228.9,266.3 222.9,266.3" fill="rgb(207,207,255)"/>
<polygon points="228.9,260.3 234.9,260.3 234.9,266.3 228.9,266.3" fill="rgb(189,189,255)"/>
<polygon points="244.9,260.3 250.9,260.3 250.9,266.3 244.9,266.3" fill="rgb(249,249,255)"/>
<polygon points="250.9,260.3 256.9,260.3 256.9,266.3 250.9,266.3" fill="rgb(255,221,221)"/>
<polygon points="256.9,260.3 262.9,260.3 262.9,266.3 256.9,266.3" fill="rgb(255,190,190)"/>
<polygon points="262.9,260.3 268.9,260.3 268.9,266.3 262.9,266.3" fill="rgb(255,112,112)"/>
<polygon points="268.9,260.3 274.9,260.3 274.9,266.3 268.9,266.3" fill="rgb(255,206,206)"/>
<polygon points="274.9,260.3 280.9,260.3 280.9,266.3 274.9,266.3" fill="rgb(242,242,255)"/>
<polygon points="280.9,260.3 286.9,260.3 286.9,266.3 280.9,266.3" fill="rgb(205,205,255)"/>
<polygon points="286.9,260.3 292.9,260.3 292.9,266.3 286.9,266.3" fill="rgb(225,225,255)"/>
<polygon points="302.9,260.3 308.9,260.3 308.9,266.3 302.9,266.3" fill="rgb(255,217,217)"/>
<polygon points="308.9,260.3 314.9,260.3 314.9,266.3 308.9,266.3" fill="rgb(255,234,234)"/>
<polygon points="314.9,260.3 320.9,260.3 320.9,266.3 314.9,266.3" fill="rgb(255,236,236)"/>
<polygon points="320.9,260.3 326.9,260.3 326.9,266.3 320.9,266.3" fill="rgb(255,214,214)"/>
<polygon points="326.9,260.3 332.9,260.3 332.9,266.3 326.9,266.3" fill="rgb(227,227,255)"/>
<polygon points="332.9,260.3 338.9,260.3 338.9,266.3 332.9,266.3" fill="rgb(253,253,255)"/>
<polygon points="338.9,260.3 344.9,260.3 344.9,266.3 338.9,266.3" fill="rgb(221,221,255)"/>
<polygon points="344.9,260.3 350.9,260.3 350.9,266.3 344.9,266.3" fill="rgb(232,232,255)"/>
<polygon points="152.9,266.3 160.9,266.3 160.9,272.3 152.9,272.3" fill="rgb(200,226,224)"/><text xml:space="preserve" x="156.9" y="272.133" font-family="Calibri" font-size="7.5" fill="rgb(0,0,0)" text-anchor="middle">5</text>
<polygon points="160.9,266.3 168.9,266.3 168.9,272.3 160.9,272.3" fill="rgb(245,245,245)"/><text xml:space="preserve" x="164.9" y="272.133" font-family="Calibri" font-size="7.5" fill="rgb(0,0,0)" text-anchor="middle">7</text>
<polygon points="168.9,266.3 176.9,266.3 176.9,272.3 168.9,272.3" fill="rgb(245,245,245)"/><text xml:space="preserve" x="172.9" y="272.133" font-family="Calibri" font-size="7.5" fill="rgb(0,0,0)" text-anchor="middle">7</text>
<polygon points="186.9,266.3 192.9,266.3 192.9,272.3 186.9,272.3" fill="rgb(225,225,255)"/>
<polygon points="192.9,266.3 198.9,266.3 198.9,272.3 192.9,272.3" fill="rgb(204,204,255)"/>
<polygon points="198.9,266.3 204.9,266.3 204.9,272.3 198.9,272.3" fill="rgb(255,211,211)"/>
<polygon points="204.9,266.3 210.9,266.3 210.9,272.3 204.9,272.3" fill="rgb(254,244,244)"/>
<polygon points="210.9,266.3 216.9,266.3 216.9,272.3 210.9,272.3" fill="rgb(218,218,255)"/>
<polygon points="216.9,266.3 222.9,266.3 222.9,272.3 216.9,272.3" fill="rgb(255,186,186)"/>
<polygon points="222.9,266.3 228.9,266.3 228.9,272.3 222.9,272.3" fill="rgb(237,237,255)"/>
<polygon points="228.9,266.3 234.9,266.3 234.9,272.3 228.9,272.3" fill="rgb(255,238,238)"/>
<polygon points="244.9,266.3 250.9,266.3 250.9,272.3 244.9,272.3" fill="rgb(255,196,196)"/>
<polygon points="250.9,266.3 256.9,266.3 256.9,272.3 250.9,272.3" fill="rgb(255,216,216)"/>
<polygon points="256.9,266.3 262.9,266.3 262.9,272.3 256.9,272.3" fill="rgb(255,149,149)"/>
<polygon points="262.9,266.3 268.9,266.3 268.9,272.3 262.9,272.3" fill="rgb(255,134,134)"/>
<polygon points="268.9,266.3 274.9,266.3 274.9,272.3 268.9,272.3" fill="rgb(229,229,255)"/>
<polygon points="274.9,266.3 280.9,266.3 280.9,272.3 274.9,272.3" fill="rgb(254,228,228)"/>
<polygon points="280.9,266.3 286.9,266.3 286.9,272.3 280.9,272.3" fill="rgb(255,218,218)"/>
<polygon points="286.9,266.3 292.9,266.3 292.9,272.3 286.9,272.3" fill="rgb(240,240,255)"/>
<polygon points="302.9,266.3 308.9,266.3 308.9,272.3 302.9,272.3" fill="rgb(255,129,129)"/>
<polygon points="308.9,266.3 314.9,266.3 314.9,272.3 308.9,272.3" fill="rgb(255,220,220)"/>
<polygon points="314.9,266.3 320.9,266.3 320.9,272.3 314.9,272.3" fill="rgb(255,149,149)"/>
<polygon points="320.9,266.3 326.9,266.3 326.9,272.3 320.9,272.3" fill="rgb(255,101,101)"/>
<polygon points="326.9,266.3 332.9,266.3 332.9,272.3 326.9,272.3" fill="rgb(255,253,253)"/>
<polygon points="332.9,266.3 338.9,266.3 338.9,272.3 332.9,272.3" fill="rgb(254,243,243)"/>
<polygon points="338.9,266.3 344.9,266.3 344.9,272.3 338.9,272.3" fill="rgb(241,241,255)"/>
<polygon points="344.9,266.3 350.9,266.3 350.9,272.3 344.9,272.3" fill="rgb(214,214,255)"/>
<polygon points="152.9,272.3 160.9,272.3 160.9,278.3 152.9,278.3" fill="rgb(200,226,224)"/><text xml:space="preserve" x="156.9" y="278.133" font-family="Calibri" font-size="7.5" fill="rgb(0,0,0)" text-anchor="middle">5</text>
<polygon points="160.9,272.3 168.9,272.3 168.9,278.3 160.9,278.3" fill="rgb(245,245,245)"/><text xml:space="preserve" x="164.9" y="278.133" font-family="Calibri" font-size="7.5" fill="rgb(0,0,0)" text-anchor="middle">7</text>
<polygon points="168.9,272.3 176.9,272.3 176.9,278.3 168.9,278.3" fill="rgb(245,245,245)"/><text xml:space="preserve" x="172.9" y="278.133" font-family="Calibri" font-size="7.5" fill="rgb(0,0,0)" text-anchor="middle">7</text>
<polygon points="186.9,272.3 192.9,272.3 192.9,278.3 186.9,278.3" fill="rgb(211,211,255)"/>
<polygon points="192.9,272.3 198.9,272.3 198.9,278.3 192.9,278.3" fill="rgb(234,234,255)"/>
<polygon points="198.9,272.3 204.9,272.3 204.9,278.3 198.9,278.3" fill="rgb(255,152,152)"/>
<polygon points="204.9,272.3 210.9,272.3 210.9,278.3 204.9,278.3" fill="rgb(255,108,108)"/>
<polygon points="210.9,272.3 216.9,272.3 216.9,278.3 210.9,278.3" fill="rgb(226,226,255)"/>
<polygon points="216.9,272.3 222.9,272.3 222.9,278.3 216.9,278.3" fill="rgb(208,208,255)"/>
<polygon points="222.9,272.3 228.9,272.3 228.9,278.3 222.9,278.3" fill="rgb(186,186,255)"/>
<polygon points="228.9,272.3 234.9,272.3 234.9,278.3 228.9,278.3" fill="rgb(254,254,255)"/>
<polygon points="244.9,272.3 250.9,272.3 250.9,278.3 244.9,278.3" fill="rgb(255,251,251)"/>
<polygon points="250.9,272.3 256.9,272.3 256.9,278.3 250.9,278.3" fill="rgb(255,232,232)"/>
<polygon points="256.9,272.3 262.9,272.3 262.9,278.3 256.9,278.3" fill="rgb(255,184,184)"/>
<polygon points="262.9,272.3 268.9,272.3 268.9,278.3 262.9,278.3" fill="rgb(255,119,119)"/>
<polygon points="268.9,272.3 274.9,272.3 274.9,278.3 268.9,278.3" fill="rgb(241,241,255)"/>
<polygon points="274.9,272.3 280.9,272.3 280.9,278.3 274.9,278.3" fill="rgb(192,192,255)"/>
<polygon points="280.9,272.3 286.9,272.3 286.9,278.3 280.9,278.3" fill="rgb(155,155,255)"/>
<polygon points="286.9,272.3 292.9,272.3 292.9,278.3 286.9,278.3" fill="rgb(186,186,255)"/>
<polygon points="302.9,272.3 308.9,272.3 308.9,278.3 302.9,278.3" fill="rgb(255,222,222)"/>
<polygon points="308.9,272.3 314.9,272.3 314.9,278.3 308.9,278.3" fill="rgb(255,187,187)"/>
<polygon points="314.9,272.3 320.9,272.3 320.9,278.3 314.9,278.3" fill="rgb(255,159,159)"/>
<polygon points="320.9,272.3 326.9,272.3 326.9,278.3 320.9,278.3" fill="rgb(255,157,157)"/>
<polygon points="326.9,272.3 332.9,272.3 332.9,278.3 326.9,278.3" fill="rgb(236,236,255)"/>
<polygon points="332.9,272.3 338.9,272.3 338.9,278.3 332.9,278.3" fill="rgb(224,224,255)"/>
<polygon points="338.9,272.3 344.9,272.3 344.9,278.3 338.9,278.3" fill="rgb(174,174,255)"/>
<polygon points="344.9,272.3 350.9,272.3 350.9,278.3 344.9,278.3" fill="rgb(210,210,255)"/>
<polygon points="152.9,278.3 160.9,278.3 160.9,284.3 152.9,284.3" fill="rgb(200,226,224)"/><text xml:space="preserve" x="156.9" y="284.133" font-family="Calibri" font-size="7.5" fill="rgb(0,0,0)" text-anchor="middle">5</text>
<polygon points="160.9,278.3 168.9,278.3 168.9,284.3 160.9,284.3" fill="rgb(245,245,245)"/><text xml:space="preserve" x="164.9" y="284.133" font-family="Calibri" font-size="7.5" fill="rgb(0,0,0)" text-anchor="middle">7</text>
<polygon points="168.9,278.3 176.9,278.3 176.9,284.3 168.9,284.3" fill="rgb(245,245,245)"/><text xml:space="preserve" x="172.9" y="284.133" font-family="Calibri" font-size="7.5" fill="rgb(0,0,0)" text-anchor="middle">7</text>
<polygon points="186.9,278.3 192.9,278.3 192.9,284.3 186.9,284.3" fill="rgb(239,239,255)"/>
<polygon points="192.9,278.3 198.9,278.3 198.9,284.3 192.9,284.3" fill="rgb(253,253,255)"/>
<polygon points="198.9,278.3 204.9,278.3 204.9,284.3 198.9,284.3" fill="rgb(255,217,217)"/>
<polygon points="204.9,278.3 210.9,278.3 210.9,284.3 204.9,284.3" fill="rgb(255,199,199)"/>
<polygon points="210.9,278.3 216.9,278.3 216.9,284.3 210.9,284.3" fill="rgb(215,215,255)"/>
<polygon points="216.9,278.3 222.9,278.3 222.9,284.3 216.9,284.3" fill="rgb(254,214,214)"/>
<polygon points="222.9,278.3 228.9,278.3 228.9,284.3 222.9,284.3" fill="rgb(255,222,222)"/>
<polygon points="228.9,278.3 234.9,278.3 234.9,284.3 228.9,284.3" fill="rgb(238,238,255)"/>
<polygon points="244.9,278.3 250.9,278.3 250.9,284.3 244.9,284.3" fill="rgb(255,234,234)"/>
<polygon points="250.9,278.3 256.9,278.3 256.9,284.3 250.9,284.3" fill="rgb(255,218,218)"/>
<polygon points="256.9,278.3 262.9,278.3 262.9,284.3 256.9,284.3" fill="rgb(255,216,216)"/>
<polygon points="262.9,278.3 268.9,278.3 268.9,284.3 262.9,284.3" fill="rgb(255,120,120)"/>
<polygon points="268.9,278.3 274.9,278.3 274.9,284.3 268.9,284.3" fill="rgb(255,209,209)"/>
<polygon points="274.9,278.3 280.9,278.3 280.9,284.3 274.9,284.3" fill="rgb(240,240,255)"/>
<polygon points="280.9,278.3 286.9,278.3 286.9,284.3 280.9,284.3" fill="rgb(255,254,254)"/>
<polygon points="286.9,278.3 292.9,278.3 292.9,284.3 286.9,284.3" fill="rgb(198,198,255)"/>
<polygon points="302.9,278.3 308.9,278.3 308.9,284.3 302.9,284.3" fill="rgb(255,236,236)"/>
<polygon points="308.9,278.3 314.9,278.3 314.9,284.3 308.9,284.3" fill="rgb(255,172,172)"/>
<polygon points="314.9,278.3 320.9,278.3 320.9,284.3 314.9,284.3" fill="rgb(255,189,189)"/>
<polygon points="320.9,278.3 326.9,278.3 326.9,284.3 320.9,284.3" fill="rgb(255,125,125)"/>
<polygon points="326.9,278.3 332.9,278.3 332.9,284.3 326.9,284.3" fill="rgb(255,242,242)"/>
<polygon points="332.9,278.3 338.9,278.3 338.9,284.3 332.9,284.3" fill="rgb(215,215,255)"/>
<polygon points="338.9,278.3 344.9,278.3 344.9,284.3 338.9,284.3" fill="rgb(243,243,255)"/>
<polygon points="344.9,278.3 350.9,278.3 350.9,284.3 344.9,284.3" fill="rgb(208,208,255)"/>
<polygon points="152.9,284.3 160.9,284.3 160.9,290.3 152.9,290.3" fill="rgb(200,226,224)"/><text xml:space="preserve" x="156.9" y="290.133" font-family="Calibri" font-size="7.5" fill="rgb(0,0,0)" text-anchor="middle">5</text>
<polygon points="160.9,284.3 168.9,284.3 168.9,290.3 160.9,290.3" fill="rgb(240,235,224)"/><text xml:space="preserve" x="164.9" y="290.133" font-family="Calibri" font-size="7.5" fill="rgb(0,0,0)" text-anchor="middle">8</text>
<polygon points="168.9,284.3 176.9,284.3 176.9,290.3 168.9,290.3" fill="rgb(245,245,245)"/><text xml:space="preserve" x="172.9" y="290.133" font-family="Calibri" font-size="7.5" fill="rgb(0,0,0)" text-anchor="middle">7</text>
<polygon points="186.9,284.3 192.9,284.3 192.9,290.3 186.9,290.3" fill="rgb(232,232,255)"/>
<polygon points="192.9,284.3 198.9,284.3 198.9,290.3 192.9,290.3" fill="rgb(254,254,255)"/>
<polygon points="198.9,284.3 204.9,284.3 204.9,290.3 198.9,290.3" fill="rgb(255,203,203)"/>
<polygon points="204.9,284.3 210.9,284.3 210.9,290.3 204.9,290.3" fill="rgb(255,224,224)"/>
<polygon points="210.9,284.3 216.9,284.3 216.9,290.3 210.9,290.3" fill="rgb(208,208,255)"/>
<polygon points="216.9,284.3 222.9,284.3 222.9,290.3 216.9,290.3" fill="rgb(255,247,247)"/>
<polygon points="222.9,284.3 228.9,284.3 228.9,290.3 222.9,290.3" fill="rgb(211,211,255)"/>
<polygon points="228.9,284.3 234.9,284.3 234.9,290.3 228.9,290.3" fill="rgb(224,224,255)"/>
<polygon points="244.9,284.3 250.9,284.3 250.9,290.3 244.9,290.3" fill="rgb(255,254,254)"/>
<polygon points="250.9,284.3 256.9,284.3 256.9,290.3 250.9,290.3" fill="rgb(253,253,255)"/>
<polygon points="256.9,284.3 262.9,284.3 262.9,290.3 256.9,290.3" fill="rgb(255,227,227)"/>
<polygon points="262.9,284.3 268.9,284.3 268.9,290.3 262.9,290.3" fill="rgb(255,241,241)"/>
<polygon points="268.9,284.3 274.9,284.3 274.9,290.3 268.9,290.3" fill="rgb(236,236,255)"/>
<polygon points="274.9,284.3 280.9,284.3 280.9,290.3 274.9,290.3" fill="rgb(223,223,255)"/>
<polygon points="280.9,284.3 286.9,284.3 286.9,290.3 280.9,290.3" fill="rgb(164,164,255)"/>
<polygon points="286.9,284.3 292.9,284.3 292.9,290.3 286.9,290.3" fill="rgb(227,227,255)"/>
<polygon points="302.9,284.3 308.9,284.3 308.9,290.3 302.9,290.3" fill="rgb(255,242,242)"/>
<polygon points="308.9,284.3 314.9,284.3 314.9,290.3 308.9,290.3" fill="rgb(255,222,222)"/>
<polygon points="314.9,284.3 320.9,284.3 320.9,290.3 314.9,290.3" fill="rgb(255,204,204)"/>
<polygon points="320.9,284.3 326.9,284.3 326.9,290.3 320.9,290.3" fill="rgb(255,182,182)"/>
<polygon points="326.9,284.3 332.9,284.3 332.9,290.3 326.9,290.3" fill="rgb(255,234,234)"/>
<polygon points="332.9,284.3 338.9,284.3 338.9,290.3 332.9,290.3" fill="rgb(194,194,255)"/>
<polygon points="338.9,284.3 344.9,284.3 344.9,290.3 338.9,290.3" fill="rgb(192,192,255)"/>
<polygon points="344.9,284.3 350.9,284.3 350.9,290.3 344.9,290.3" fill="rgb(196,196,255)"/>
<polygon points="152.9,212.3 176.9,212.3 176.9,290.3 152.9,290.3" fill="none" stroke="black" stroke-width="1"/>
<polygon points="186.9,212.3 234.9,212.3 234.9,290.3 186.9,290.3" fill="none" stroke="black" stroke-width="1"/>
<polygon points="244.9,212.3 292.9,212.3 292.9,290.3 244.9,290.3" fill="none" stroke="black" stroke-width="1"/>
<polygon points="302.9,212.3 350.9,212.3 350.9,290.3 302.9,290.3" fill="none" stroke="black" stroke-width="1"/>
<text xml:space="preserve" x="196.45" y="322.633" font-family="Calibri" font-size="6" text-anchor="middle">moduleID</text>
<polygon points="86.45,330.3 106.45,330.3 106.45,350.3 86.45,350.3" fill="rgb(250,250,250)"/><polygon points="86.45,330.3 106.45,330.3 106.45,350.3 86.45,350.3" fill="none" stroke="black" stroke-width="1"/><text xml:space="preserve" x="96.45" y="343.133" font-family="Calibri" font-size="7.5" fill="rgb(0,0,0)" text-anchor="middle">-2.0</text>
<polygon points="106.45,330.3 126.45,330.3 126.45,350.3 106.45,350.3" fill="rgb(156,210,205)"/><polygon points="106.45,330.3 126.45,330.3 126.45,350.3 106.45,350.3" fill="none" stroke="black" stroke-width="1"/><text xml:space="preserve" x="116.45" y="343.133" font-family="Calibri" font-size="7.5" fill="rgb(0,0,0)" text-anchor="middle">-0.4</text>
<polygon points="126.45,330.3 146.45,330.3 146.45,350.3 126.45,350.3" fill="rgb(116,191,184)"/><polygon points="126.45,330.3 146.45,330.3 146.45,350.3 126.45,350.3" fill="none" stroke="black" stroke-width="1"/><text xml:space="preserve" x="136.45" y="343.133" font-family="Calibri" font-size="7.5" fill="rgb(0,0,0)" text-anchor="middle">1.2</text>
<polygon points="146.45,330.3 166.45,330.3 166.45,350.3 146.45,350.3" fill="rgb(152,206,201)"/><polygon points="146.45,330.3 166.45,330.3 166.45,350.3 146.45,350.3" fill="none" stroke="black" stroke-width="1"/><text xml:space="preserve" x="156.45" y="343.133" font-family="Calibri" font-size="7.5" fill="rgb(0,0,0)" text-anchor="middle">2.8</text>
<polygon points="166.45,330.3 186.45,330.3 186.45,350.3 166.45,350.3" fill="rgb(187,220,217)"/><polygon points="166.45,330.3 186.45,330.3 186.45,350.3 166.45,350.3" fill="none" stroke="black" stroke-width="1"/><text xml:space="preserve" x="176.45" y="343.133" font-family="Calibri" font-size="7.5" fill="rgb(0,0,0)" text-anchor="middle">4.4</text>
<polygon points="186.45,330.3 206.45,330.3 206.45,350.3 186.45,350.3" fill="rgb(222,235,234)"/><polygon points="186.45,330.3 206.45,330.3 206.45,350.3 186.45,350.3" fill="none" stroke="black" stroke-width="1"/><text xml:space="preserve" x="196.45" y="343.133" font-family="Calibri" font-size="7.5" fill="rgb(0,0,0)" text-anchor="middle">6.0</text>
<polygon points="206.45,330.3 226.45,330.3 226.45,350.3 206.45,350.3" fill="rgb(242,239,232)"/><polygon points="206.45,330.3 226.45,330.3 226.45,350.3 206.45,350.3" fill="none" stroke="black" stroke-width="1"/><text xml:space="preserve" x="216.45" y="343.133" font-family="Calibri" font-size="7.5" fill="rgb(0,0,0)" text-anchor="middle">7.6</text>
<polygon points="226.45,330.3 246.45,330.3 246.45,350.3 226.45,350.3" fill="rgb(235,224,199)"/><polygon points="226.45,330.3 246.45,330.3 246.45,350.3 226.45,350.3" fill="none" stroke="black" stroke-width="1"/><text xml:space="preserve" x="236.45" y="343.133" font-family="Calibri" font-size="7.5" fill="rgb(0,0,0)" text-anchor="middle">9.2</text>
<polygon points="246.45,330.3 266.45,330.3 266.45,350.3 246.45,350.3" fill="rgb(229,209,166)"/><polygon points="246.45,330.3 266.45,330.3 266.45,350.3 246.45,350.3" fill="none" stroke="black" stroke-width="1"/><text xml:space="preserve" x="256.45" y="343.133" font-family="Calibri" font-size="7.5" fill="rgb(0,0,0)" text-anchor="middle">10.8</text>
<polygon points="266.45,330.3 286.45,330.3 286.45,350.3 266.45,350.3" fill="rgb(222,194,133)"/><polygon points="266.45,330.3 286.45,330.3 286.45,350.3 266.45,350.3" fill="none" stroke="black" stroke-width="1"/><text xml:space="preserve" x="276.45" y="343.133" font-family="Calibri" font-size="7.5" fill="rgb(0,0,0)" text-anchor="middle">12.4</text>
<polygon points="286.45,330.3 306.45,330.3 306.45,350.3 286.45,350.3" fill="rgb(216,179,101)"/><polygon points="286.45,330.3 306.45,330.3 306.45,350.3 286.45,350.3" fill="none" stroke="black" stroke-width="1"/><text xml:space="preserve" x="296.45" y="343.133" font-family="Calibri" font-size="7.5" fill="rgb(0,0,0)" text-anchor="middle">14.0</text>
<text xml:space="preserve" x="196.45" y="382.633" font-family="Calibri" font-size="6" text-anchor="middle">marklevel</text>
<polygon points="86.45,390.3 106.45,390.3 106.45,410.3 86.45,410.3" fill="rgb(0,0,255)"/><polygon points="86.45,390.3 106.45,390.3 106.45,410.3 86.45,410.3" fill="none" stroke="black" stroke-width="1"/><text xml:space="preserve" x="96.45" y="403.133" font-family="Calibri" font-size="7.5" fill="rgb(255,255,255)" text-anchor="middle">-2.0</text>
<polygon points="106.45,390.3 126.45,390.3 126.45,410.3 106.45,410.3" fill="rgb(50,50,255)"/><polygon points="106.45,390.3 126.45,390.3 126.45,410.3 106.45,410.3" fill="none" stroke="black" stroke-width="1"/><text xml:space="preserve" x="116.45" y="403.133" font-family="Calibri" font-size="7.5" fill="rgb(255,255,255)" text-anchor="middle">-1.6</text>
<polygon points="126.45,390.3 146.45,390.3 146.45,410.3 126.45,410.3" fill="rgb(102,102,255)"/><polygon points="126.45,390.3 146.45,390.3 146.45,410.3 126.45,410.3" fill="none" stroke="black" stroke-width="1"/><text xml:space="preserve" x="136.45" y="403.133" font-family="Calibri" font-size="7.5" fill="rgb(255,255,255)" text-anchor="middle">-1.2</text>
<polygon points="146.45,390.3 166.45,390.3 166.45,410.3 146.45,410.3" fill="rgb(153,153,255)"/><polygon points="146.45,390.3 166.45,390.3 166.45,410.3 146.45,410.3" fill="none" stroke="black" stroke-width="1"/><text xml:space="preserve" x="156.45" y="403.133" font-family="Calibri" font-size="7.5" fill="rgb(0,0,0)" text-anchor="middle">-0.8</text>
<polygon points="166.45,390.3 186.45,390.3 186.45,410.3 166.45,410.3" fill="rgb(204,204,255)"/><polygon points="166.45,390.3 186.45,390.3 186.45,410.3 166.45,410.3" fill="none" stroke="black" stroke-width="1"/><text xml:space="preserve" x="176.45" y="403.133" font-family="Calibri" font-size="7.5" fill="rgb(0,0,0)" text-anchor="middle">-0.4</text>
<polygon points="186.45,390.3 206.45,390.3 206.45,410.3 186.45,410.3" fill="rgb(255,255,255)"/><polygon points="186.45,390.3 206.45,390.3 206.45,410.3 186.45,410.3" fill="none" stroke="black" stroke-width="1"/><text xml:space="preserve" x="196.45" y="403.133" font-family="Calibri" font-size="7.5" fill="rgb(0,0,0)" text-anchor="middle">0.0</text>
<polygon points="206.45,390.3 226.45,390.3 226.45,410.3 206.45,410.3" fill="rgb(255,204,204)"/><polygon points="206.45,390.3 226.45,390.3 226.45,410.3 206.45,410.3" fill="none" stroke="black" stroke-width="1"/><text xml:space="preserve" x="216.45" y="403.133" font-family="Calibri" font-size="7.5" fill="rgb(0,0,0)" text-anchor="middle">0.4</text>
<polygon points="226.45,390.3 246.45,390.3 246.45,410.3 226.45,410.3" fill="rgb(255,153,153)"/><polygon points="226.45,390.3 246.45,390.3 246.45,410.3 226.45,410.3" fill="none" stroke="black" stroke-width="1"/><text xml:space="preserve" x="236.45" y="403.133" font-family="Calibri" font-size="7.5" fill="rgb(0,0,0)" text-anchor="middle">0.8</text>
<polygon points="246.45,390.3 266.45,390.3 266.45,410.3 246.45,410.3" fill="rgb(255,102,102)"/><polygon points="246.45,390.3 266.45,390.3 266.45,410.3 246.45,410.3" fill="none" stroke="black" stroke-width="1"/><text xml:space="preserve" x="256.45" y="403.133" font-family="Calibri" font-size="7.5" fill="rgb(0,0,0)" text-anchor="middle">1.2</text>
<polygon points="266.45,390.3 286.45,390.3 286.45,410.3 266.45,410.3" fill="rgb(255,50,50)"/><polygon points="266.45,390.3 286.45,390.3 286.45,410.3 266.45,410.3" fill="none" stroke="black" stroke-width="1"/><text xml:space="preserve" x="276.45" y="403.133" font-family="Calibri" font-size="7.5" fill="rgb(255,255,255)" text-anchor="middle">1.6</text>
<polygon points="286.45,390.3 306.45,390.3 306.45,410.3 286.45,410.3" fill="rgb(255,0,0)"/><polygon points="286.45,390.3 306.45,390.3 306.45,410.3 286.45,410.3" fill="none" stroke="black" stroke-width="1"/><text xml:space="preserve" x="296.45" y="403.133" font-family="Calibri" font-size="7.5" fill="rgb(255,255,255)" text-anchor="middle">2.0</text>
</svg>
