<?xml version="1.0" standalone="no"?><!DOCTYPE svg PUBLIC "-//W3C//DTD SVG 1.1//EN" "http://www.w3.org/Graphics/SVG/1.1/DTD/svg11.dtd">
<svg width="398.9" height="490.3" version="1.1" xmlns="http://www.w3.org/2000/svg">
<text xml:space="preserve" x="154.9" y="217.633" font-family="Calibri" font-size="6" text-anchor="end">1810037C20Rik</text>
<text xml:space="preserve" x="154.9" y="223.633" font-family="Calibri" font-size="6" text-anchor="end">Ndufb11</text>
<text xml:space="preserve" x="154.9" y="229.633" font-family="Calibri" font-size="6" text-anchor="end">Pou2f1</text>
<text xml:space="preserve" x="154.9" y="235.633" font-family="Calibri" font-size="6" text-anchor="end">Mcts2</text>
<text xml:space="preserve" x="154.9" y="241.633" font-family="Calibri" font-size="6" text-anchor="end">Chek1</text>
<text xml:space="preserve" x="154.9" y="247.633" font-family="Calibri" font-size="6" text-anchor="end">Atp6ap1</text>
<text xml:space="preserve" x="154.9" y="253.633" font-family="Calibri" font-size="6" text-anchor="end">Brcc3</text>
<text xml:space="preserve" x="154.9" y="259.633" font-family="Calibri" font-size="6" text-anchor="end">Ccnb2</text>
<text xml:space="preserve" x="154.9" y="265.633" font-family="Calibri" font-size="6" text-anchor="end">Elk1</text>
<text xml:space="preserve" x="154.9" y="271.633" font-family="Calibri" font-size="6" text-anchor="end">Fancb</text>
<text xml:space="preserve" x="154.9" y="277.633" font-family="Calibri" font-size="6" text-anchor="end">Fundc2</text>
<text xml:space="preserve" x="154.9" y="283.633" font-family="Calibri" font-size="6" text-anchor="end">Igbp1</text>
<text xml:space="preserve" x="154.9" y="289.633" font-family="Calibri" font-size="6" text-anchor="end">Lage3</text>
<text xml:space="preserve" x="154.9" y="295.633" font-family="Calibri" font-size="6" text-anchor="end">Trappc2</text>
<text xml:space="preserve" x="154.9" y="301.633" font-family="Calibri" font-size="6" text-anchor="end">6030490I01Rik</text>
<text xml:space="preserve" x="154.9" y="307.633" font-family="Calibri" font-size="6" text-anchor="end">Tmem32</text>
<text xml:space="preserve" x="154.9" y="313.633" font-family="Calibri" font-size="6" text-anchor="end">Ard1</text>
<text xml:space="preserve" x="154.9" y="319.633" font-family="Calibri" font-size="6" text-anchor="end">Ribc1</text>
<text xml:space="preserve" x="154.9" y="325.633" font-family="Calibri" font-size="6" text-anchor="end">Araf</text>
<text xml:space="preserve" x="154.9" y="331.633" font-family="Calibri" font-size="6" text-anchor="end">Rbm10</text>
<text xml:space="preserve" x="154.9" y="337.633" font-family="Calibri" font-size="6" text-anchor="end">D0HXS9928E</text>
<text xml:space="preserve" x="154.9" y="343.633" font-family="Calibri" font-size="6" text-anchor="end">Mtcp1</text>
<text xml:space="preserve" x="154.9" y="349.633" font-family="Calibri" font-size="6" text-anchor="end">Mospd2</text>
<text xml:space="preserve" x="165.233" y="208.3" font-family="Calibri" font-size="6" transform="rotate(270 165.233 208.3)">ips</text>
<text xml:space="preserve" x="173.233" y="208.3" font-family="Calibri" font-size="6" transform="rotate(270 173.233 208.3)">pips</text>
<text xml:space="preserve" x="181.233" y="208.3" font-family="Calibri" font-size="6" transform="rotate(270 181.233 208.3)">mef</text>
<text xml:space="preserve" x="198.233" y="208.3" font-family="Calibri" font-size="6" transform="rotate(270 198.233 208.3)">ips_H3K4me3iPS</text>
<text xml:space="preserve" x="204.233" y="208.3" font-family="Calibri" font-size="6" transform="rotate(270 204.233 208.3)">ips_H3K9aciPS</text>
<text xml:space="preserve" x="210.233" y="208.3" font-family="Calibri" font-size="6" transform="rotate(270 210.233 208.3)">ips_H3K14aciPS</text>
<text xml:space="preserve" x="216.233" y="208.3" font-family="Calibri" font-size="6" transform="rotate(270 216.233 208.3)">ips_H3K18aciPS</text>
<text xml:space="preserve" x="222.233" y="208.3" font-family="Calibri" font-size="6" transform="rotate(270 222.233 208.3)">ips_H3K79me2iPS</text>
<text xml:space="preserve" x="228.233" y="208.3" font-family="Calibri" font-size="6" transform="rotate(270 228.233 208.3)">ips_H3K9me2iPS</text>
<text xml:space="preserve" x="234.233" y="208.3" font-family="Calibri" font-size="6" transform="rotate(270 234.233 208.3)">ips_H3K9me3iPS</text>
<text xml:space="preserve" x="240.233" y="208.3" font-family="Calibri" font-size="6" transform="rotate(270 240.233 208.3)">ips_H3K27me3iPS</text>
<text xml:space="preserve" x="256.233" y="208.3" font-family="Calibri" font-size="6" transform="rotate(270 256.233 208.3)">pips_H3K4me3pips</text>
<text xml:space="preserve" x="262.233" y="208.3" font-family="Calibri" font-size="6" transform="rotate(270 262.233 208.3)">pips_H3K9acpips</text>
<text xml:space="preserve" x="268.233" y="208.3" font-family="Calibri" font-size="6" transform="rotate(270 268.233 208.3)">pips_H3K14acpips</text>
<text xml:space="preserve" x="274.233" y="208.3" font-family="Calibri" font-size="6" transform="rotate(270 274.233 208.3)">pips_H3K18acpips</text>
<text xml:space="preserve" x="280.233" y="208.3" font-family="Calibri" font-size="6" transform="rotate(270 280.233 208.3)">pips_H3K79me2pips</text>
<text xml:space="preserve" x="286.233" y="208.3" font-family="Calibri" font-size="6" transform="rotate(270 286.233 208.3)">pips_H3K9me2pips</text>
<text xml:space="preserve" x="292.233" y="208.3" font-family="Calibri" font-size="6" transform="rotate(270 292.233 208.3)">pips_H3K9me3pips</text>
<text xml:space="preserve" x="298.233" y="208.3" font-family="Calibri" font-size="6" transform="rotate(270 298.233 208.3)">pips_H3K27me3pips</text>
<text xml:space="preserve" x="314.233" y="208.3" font-family="Calibri" font-size="6" transform="rotate(270 314.233 208.3)">mef_H3K4me3mef</text>
<text xml:space="preserve" x="320.233" y="208.3" font-family="Calibri" font-size="6" transform="rotate(270 320.233 208.3)">mef_H3K9acmef</text>
<text xml:space="preserve" x="326.233" y="208.3" font-family="Calibri" font-size="6" transform="rotate(270 326.233 208.3)">mef_H3K14acmef</text>
<text xml:space="preserve" x="332.233" y="208.3" font-family="Calibri" font-size="6" transform="rotate(270 332.233 208.3)">mef_H3K18acmef</text>
<text xml:space="preserve" x="338.233" y="208.3" font-family="Calibri" font-size="6" transform="rotate(270 338.233 208.3)">mef_H3K79me2mef</text>
<text xml:space="preserve" x="344.233" y="208.3" font-family="Calibri" font-size="6" transform="rotate(270 344.233 208.3)">mef_H3K9me2mef</text>
<text xml:space="preserve" x="350.233" y="208.3" font-family="Calibri" font-size="6" transform="rotate(270 350.233 208.3)">mef_H3K9me3mef</text>
<text xml:space="preserve" x="356.233" y="208.3" font-family="Calibri" font-size="6" transform="rotate(270 356.233 208.3)">mef_H3K27me3mef</text>
<polygon points="158.9,212.3 166.9,212.3 166.9,218.3 158.9,218.3" fill="rgb(112,189,182)"/><text xml:space="preserve" x="162.9" y="218.133" font-family="Calibri" font-size="7.5" fill="rgb(0,0,0)" text-anchor="middle">1</text>
<polygon points="166.9,212.3 174.9,212.3 174.9,218.3 166.9,218.3" fill="rgb(134,198,192)"/><text xml:space="preserve" x="170.9" y="218.133" font-family="Calibri" font-size="7.5" fill="rgb(0,0,0)" text-anchor="middle">2</text>
<polygon points="174.9,212.3 182.9,212.3 182.9,218.3 174.9,218.3" fill="rgb(134,198,192)"/><text xml:space="preserve" x="178.9" y="218.133" font-family="Calibri" font-size="7.5" fill="rgb(0,0,0)" text-anchor="middle">2</text>
<polygon points="192.9,212.3 198.9,212.3 198.9,218.3 192.9,218.3" fill="rgb(255,189,189)"/>
<polygon points="198.9,212.3 204.9,212.3 204.9,218.3 198.9,218.3" fill="rgb(255,178,178)"/>
<polygon points="204.9,212.3 210.9,212.3 210.9,218.3 204.9,218.3" fill="rgb(238,238,255)"/>
<polygon points="210.9,212.3 216.9,212.3 216.9,218.3 210.9,218.3" fill="rgb(224,224,255)"/>
<polygon points="216.9,212.3 222.9,212.3 222.9,218.3 216.9,218.3" fill="rgb(254,240,240)"/>
<polygon points="222.9,212.3 228.9,212.3 228.9,218.3 222.9,218.3" fill="rgb(190,190,255)"/>
<polygon points="228.9,212.3 234.9,212.3 234.9,218.3 228.9,218.3" fill="rgb(206,206,255)"/>
<polygon points="234.9,212.3 240.9,212.3 240.9,218.3 234.9,218.3" fill="rgb(200,200,255)"/>
<polygon points="250.9,212.3 256.9,212.3 256.9,218.3 250.9,218.3" fill="rgb(255,238,238)"/>
<polygon points="256.9,212.3 262.9,212.3 262.9,218.3 256.9,218.3" fill="rgb(226,226,255)"/>
<polygon points="262.9,212.3 268.9,212.3 268.9,218.3 262.9,218.3" fill="rgb(137,137,255)"/>
<polygon points="268.9,212.3 274.9,212.3 274.9,218.3 268.9,218.3" fill="rgb(190,190,255)"/>
<polygon points="274.9,212.3 280.9,212.3 280.9,218.3 274.9,218.3" fill="rgb(254,238,238)"/>
<polygon points="280.9,212.3 286.9,212.3 286.9,218.3 280.9,218.3" fill="rgb(255,193,193)"/>
<polygon points="286.9,212.3 292.9,212.3 292.9,218.3 286.9,218.3" fill="rgb(255,81,81)"/>
<polygon points="292.9,212.3 298.9,212.3 298.9,218.3 292.9,218.3" fill="rgb(255,109,109)"/>
<polygon points="308.9,212.3 314.9,212.3 314.9,218.3 308.9,218.3" fill="rgb(255,124,124)"/>
<polygon points="314.9,212.3 320.9,212.3 320.9,218.3 314.9,218.3" fill="rgb(226,226,255)"/>
<polygon points="320.9,212.3 326.9,212.3 326.9,218.3 320.9,218.3" fill="rgb(255,180,180)"/>
<polygon points="326.9,212.3 332.9,212.3 332.9,218.3 326.9,218.3" fill="rgb(255,231,231)"/>
<polygon points="332.9,212.3 338.9,212.3 338.9,218.3 332.9,218.3" fill="rgb(255,221,221)"/>
<polygon points="338.9,212.3 344.9,212.3 344.9,218.3 338.9,218.3" fill="rgb(255,221,221)"/>
<polygon points="344.9,212.3 350.9,212.3 350.9,218.3 344.9,218.3" fill="rgb(255,213,213)"/>
<polygon points="350.9,212.3 356.9,212.3 356.9,218.3 350.9,218.3" fill="rgb(254,179,179)"/>
<polygon points="158.9,218.3 166.9,218.3 166.9,224.3 158.9,224.3" fill="rgb(112,189,182)"/><text xml:space="preserve" x="162.9" y="224.133" font-family="Calibri" font-size="7.5" fill="rgb(0,0,0)" text-anchor="middle">1</text>
<polygon points="166.9,218.3 174.9,218.3 174.9,224.3 166.9,224.3" fill="rgb(134,198,192)"/><text xml:space="preserve" x="170.9" y="224.133" font-family="Calibri" font-size="7.5" fill="rgb(0,0,0)" text-anchor="middle">2</text>
<polygon points="174.9,218.3 182.9,218.3 182.9,224.3 174.9,224.3" fill="rgb(134,198,192)"/><text xml:space="preserve" x="178.9" y="224.133" font-family="Calibri" font-size="7.5" fill="rgb(0,0,0)" text-anchor="middle">2</text>
<polygon points="192.9,218.3 198.9,218.3 198.9,224.3 192.9,224.3" fill="rgb(255,174,174)"/>
<polygon points="198.9,218.3 204.9,218.3 204.9,224.3 198.9,224.3" fill="rgb(255,153,153)"/>
<polygon points="204.9,218.3 210.9,218.3 210.9,224.3 204.9,224.3" fill="rgb(255,251,251)"/>
<polygon points="210.9,218.3 216.9,218.3 216.9,224.3 210.9,224.3" fill="rgb(221,221,255)"/>
<polygon points="216.9,218.3 222.9,218.3 222.9,224.3 216.9,224.3" fill="rgb(255,28,28)"/>
<polygon points="222.9,218.3 228.9,218.3 228.9,224.3 222.9,224.3" fill="rgb(183,183,255)"/>
<polygon points="228.9,218.3 234.9,218.3 234.9,224.3 228.9,224.3" fill="rgb(170,170,255)"/>
<polygon points="234.9,218.3 240.9,218.3 240.9,224.3 234.9,224.3" fill="rgb(147,147,255)"/>
<polygon points="250.9,218.3 256.9,218.3 256.9,224.3 250.9,224.3" fill="rgb(255,232,232)"/>
<polygon points="256.9,218.3 262.9,218.3 262.9,224.3 256.9,224.3" fill="rgb(255,252,252)"/>
<polygon points="262.9,218.3 268.9,218.3 268.9,224.3 262.9,224.3" fill="rgb(218,218,255)"/>
<polygon points="268.9,218.3 274.9,218.3 274.9,224.3 268.9,224.3" fill="rgb(178,178,255)"/>
<polygon points="274.9,218.3 280.9,218.3 280.9,224.3 274.9,224.3" fill="rgb(255,126,126)"/>
<polygon points="280.9,218.3 286.9,218.3 286.9,224.3 280.9,224.3" fill="rgb(255,198,198)"/>
<polygon points="286.9,218.3 292.9,218.3 292.9,224.3 286.9,224.3" fill="rgb(255,231,231)"/>
<polygon points="292.9,218.3 298.9,218.3 298.9,224.3 292.9,224.3" fill="rgb(255,213,213)"/>
<polygon points="308.9,218.3 314.9,218.3 314.9,224.3 308.9,224.3" fill="rgb(255,176,176)"/>
<polygon points="314.9,218.3 320.9,218.3 320.9,224.3 314.9,224.3" fill="rgb(211,211,255)"/>
<polygon points="320.9,218.3 326.9,218.3 326.9,224.3 320.9,224.3" fill="rgb(252,252,255)"/>
<polygon points="326.9,218.3 332.9,218.3 332.9,224.3 326.9,224.3" fill="rgb(234,234,255)"/>
<polygon points="332.9,218.3 338.9,218.3 338.9,224.3 332.9,224.3" fill="rgb(255,133,133)"/>
<polygon points="338.9,218.3 344.9,218.3 344.9,224.3 338.9,224.3" fill="rgb(255,201,201)"/>
<polygon points="344.9,218.3 350.9,218.3 350.9,224.3 344.9,224.3" fill="rgb(214,214,255)"/>
<polygon points="350.9,218.3 356.9,218.3 356.9,224.3 350.9,224.3" fill="rgb(211,211,255)"/>
<polygon points="158.9,224.3 166.9,224.3 166.9,230.3 158.9,230.3" fill="rgb(112,189,182)"/><text xml:space="preserve" x="162.9" y="230.133" font-family="Calibri" font-size="7.5" fill="rgb(0,0,0)" text-anchor="middle">1</text>
<polygon points="166.9,224.3 174.9,224.3 174.9,230.3 166.9,230.3" fill="rgb(134,198,192)"/><text xml:space="preserve" x="170.9" y="230.133" font-family="Calibri" font-size="7.5" fill="rgb(0,0,0)" text-anchor="middle">2</text>
<polygon points="174.9,224.3 182.9,224.3 182.9,230.3 174.9,230.3" fill="rgb(134,198,192)"/><text xml:space="preserve" x="178.9" y="230.133" font-family="Calibri" font-size="7.5" fill="rgb(0,0,0)" text-anchor="middle">2</text>
<polygon points="192.9,224.3 198.9,224.3 198.9,230.3 192.9,230.3" fill="rgb(254,254,255)"/>
<polygon points="198.9,224.3 204.9,224.3 204.9,230.3 198.9,230.3" fill="rgb(255,242,242)"/>
<polygon points="204.9,224.3 210.9,224.3 210.9,230.3 204.9,230.3" fill="rgb(235,235,255)"/>
<polygon points="210.9,224.3 216.9,224.3 216.9,230.3 210.9,230.3" fill="rgb(255,252,252)"/>
<polygon points="216.9,224.3 222.9,224.3 222.9,230.3 216.9,230.3" fill="rgb(255,134,134)"/>
<polygon points="222.9,224.3 228.9,224.3 228.9,230.3 222.9,230.3" fill="rgb(175,175,255)"/>
<polygon points="228.9,224.3 234.9,224.3 234.9,230.3 228.9,230.3" fill="rgb(182,182,255)"/>
<polygon points="234.9,224.3 240.9,224.3 240.9,230.3 234.9,230.3" fill="rgb(162,162,255)"/>
<polygon points="250.9,224.3 256.9,224.3 256.9,230.3 250.9,230.3" fill="rgb(255,246,246)"/>
<polygon points="256.9,224.3 262.9,224.3 262.9,230.3 256.9,230.3" fill="rgb(255,250,250)"/>
<polygon points="262.9,224.3 268.9,224.3 268.9,230.3 262.9,230.3" fill="rgb(254,251,251)"/>
<polygon points="268.9,224.3 274.9,224.3 274.9,230.3 268.9,230.3" fill="rgb(255,200,200)"/>
<polygon points="274.9,224.3 280.9,224.3 280.9,230.3 274.9,230.3" fill="rgb(255,132,132)"/>
<polygon points="280.9,224.3 286.9,224.3 286.9,230.3 280.9,230.3" fill="rgb(255,180,180)"/>
<polygon points="286.9,224.3 292.9,224.3 292.9,230.3 286.9,230.3" fill="rgb(255,227,227)"/>
<polygon points="292.9,224.3 298.9,224.3 298.9,230.3 292.9,230.3" fill="rgb(209,209,255)"/>
<polygon points="308.9,224.3 314.9,224.3 314.9,230.3 308.9,230.3" fill="rgb(225,225,255)"/>
<polygon points="314.9,224.3 320.9,224.3 320.9,230.3 314.9,230.3" fill="rgb(233,233,255)"/>
<polygon points="320.9,224.3 326.9,224.3 326.9,230.3 320.9,230.3" fill="rgb(255,229,229)"/>
<polygon points="326.9,224.3 332.9,224.3 332.9,230.3 326.9,230.3" fill="rgb(255,239,239)"/>
<polygon points="332.9,224.3 338.9,224.3 338.9,230.3 332.9,230.3" fill="rgb(255,161,161)"/>
<polygon points="338.9,224.3 344.9,224.3 344.9,230.3 338.9,230.3" fill="rgb(255,167,167)"/>
<polygon points="344.9,224.3 350.9,224.3 350.9,230.3 344.9,230.3" fill="rgb(243,243,255)"/>
<polygon points="350.9,224.3 356.9,224.3 356.9,230.3 350.9,230.3" fill="rgb(229,229,255)"/>
<polygon points="158.9,230.3 166.9,230.3 166.9,236.3 158.9,236.3" fill="rgb(112,189,182)"/><text xml:space="preserve" x="162.9" y="236.133" font-family="Calibri" font-size="7.5" fill="rgb(0,0,0)" text-anchor="middle">1</text>
<polygon points="166.9,230.3 174.9,230.3 174.9,236.3 166.9,236.3" fill="rgb(134,198,192)"/><text xml:space="preserve" x="170.9" y="236.133" font-family="Calibri" font-size="7.5" fill="rgb(0,0,0)" text-anchor="middle">2</text>
<polygon points="174.9,230.3 182.9,230.3 182.9,236.3 174.9,236.3" fill="rgb(134,198,192)"/><text xml:space="preserve" x="178.9" y="236.133" font-family="Calibri" font-size="7.5" fill="rgb(0,0,0)" text-anchor="middle">2</text>
<polygon points="192.9,230.3 198.9,230.3 198.9,236.3 192.9,236.3" fill="rgb(255,201,201)"/>
<polygon points="198.9,230.3 204.9,230.3 204.9,236.3 198.9,236.3" fill="rgb(255,128,128)"/>
<polygon points="204.9,230.3 210.9,230.3 210.9,236.3 204.9,236.3" fill="rgb(255,237,237)"/>
<polygon points="210.9,230.3 216.9,230.3 216.9,236.3 210.9,236.3" fill="rgb(204,204,255)"/>
<polygon points="216.9,230.3 222.9,230.3 222.9,236.3 216.9,236.3" fill="rgb(255,142,142)"/>
<polygon points="222.9,230.3 228.9,230.3 228.9,236.3 222.9,236.3" fill="rgb(230,230,255)"/>
<polygon points="228.9,230.3 234.9,230.3 234.9,236.3 228.9,236.3" fill="rgb(212,212,255)"/>
<polygon points="234.9,230.3 240.9,230.3 240.9,236.3 234.9,236.3" fill="rgb(140,140,255)"/>
<polygon points="250.9,230.3 256.9,230.3 256.9,236.3 250.9,236.3" fill="rgb(255,217,217)"/>
<polygon points="256.9,230.3 262.9,230.3 262.9,236.3 256.9,236.3" fill="rgb(255,230,230)"/>
<polygon points="262.9,230.3 268.9,230.3 268.9,236.3 262.9,236.3" fill="rgb(157,157,255)"/>
<polygon points="268.9,230.3 274.9,230.3 274.9,236.3 268.9,236.3" fill="rgb(201,201,255)"/>
<polygon points="274.9,230.3 280.9,230.3 280.9,236.3 274.9,236.3" fill="rgb(255,191,191)"/>
<polygon points="280.9,230.3 286.9,230.3 286.9,236.3 280.9,236.3" fill="rgb(200,200,255)"/>
<polygon points="286.9,230.3 292.9,230.3 292.9,236.3 286.9,236.3" fill="rgb(255,0,0)"/>
<polygon points="292.9,230.3 298.9,230.3 298.9,236.3 292.9,236.3" fill="rgb(176,176,255)"/>
<polygon points="308.9,230.3 314.9,230.3 314.9,236.3 308.9,236.3" fill="rgb(255,223,223)"/>
<polygon points="314.9,230.3 320.9,230.3 320.9,236.3 314.9,236.3" fill="rgb(254,231,231)"/>
<polygon points="320.9,230.3 326.9,230.3 326.9,236.3 320.9,236.3" fill="rgb(189,189,255)"/>
<polygon points="326.9,230.3 332.9,230.3 332.9,236.3 326.9,236.3" fill="rgb(255,217,217)"/>
<polygon points="332.9,230.3 338.9,230.3 338.9,236.3 332.9,236.3" fill="rgb(255,171,171)"/>
<polygon points="338.9,230.3 344.9,230.3 344.9,236.3 338.9,236.3" fill="rgb(191,191,255)"/>
<polygon points="344.9,230.3 350.9,230.3 350.9,236.3 344.9,236.3" fill="rgb(255,95,95)"/>
<polygon points="350.9,230.3 356.9,230.3 356.9,236.3 350.9,236.3" fill="rgb(193,193,255)"/>
<polygon points="158.9,236.3 166.9,236.3 166.9,242.3 158.9,242.3" fill="rgb(112,189,182)"/><text xml:space="preserve" x="162.9" y="242.133" font-family="Calibri" font-size="7.5" fill="rgb(0,0,0)" text-anchor="middle">1</text>
<polygon points="166.9,236.3 174.9,236.3 174.9,242.3 166.9,242.3" fill="rgb(134,198,192)"/><text xml:space="preserve" x="170.9" y="242.133" font-family="Calibri" font-size="7.5" fill="rgb(0,0,0)" text-anchor="middle">2</text>
<polygon points="174.9,236.3 182.9,236.3 182.9,242.3 174.9,242.3" fill="rgb(134,198,192)"/><text xml:space="preserve" x="178.9" y="242.133" font-family="Calibri" font-size="7.5" fill="rgb(0,0,0)" text-anchor="middle">2</text>
<polygon points="192.9,236.3 198.9,236.3 198.9,242.3 192.9,242.3" fill="rgb(255,179,179)"/>
<polygon points="198.9,236.3 204.9,236.3 204.9,242.3 198.9,242.3" fill="rgb(255,203,203)"/>
<polygon points="204.9,236.3 210.9,236.3 210.9,242.3 204.9,242.3" fill="rgb(255,250,250)"/>
<polygon points="210.9,236.3 216.9,236.3 216.9,242.3 210.9,242.3" fill="rgb(249,249,255)"/>
<polygon points="216.9,236.3 222.9,236.3 222.9,242.3 216.9,242.3" fill="rgb(255,164,164)"/>
<polygon points="222.9,236.3 228.9,236.3 228.9,242.3 222.9,242.3" fill="rgb(219,219,255)"/>
<polygon points="228.9,236.3 234.9,236.3 234.9,242.3 228.9,242.3" fill="rgb(202,202,255)"/>
<polygon points="234.9,236.3 240.9,236.3 240.9,242.3 234.9,242.3" fill="rgb(149,149,255)"/>
<polygon points="250.9,236.3 256.9,236.3 256.9,242.3 250.9,242.3" fill="rgb(255,184,184)"/>
<polygon points="256.9,236.3 262.9,236.3 262.9,242.3 256.9,242.3" fill="rgb(252,252,255)"/>
<polygon points="262.9,236.3 268.9,236.3 268.9,242.3 262.9,242.3" fill="rgb(255,212,212)"/>
<polygon points="268.9,236.3 274.9,236.3 274.9,242.3 268.9,242.3" fill="rgb(248,248,255)"/>
<polygon points="274.9,236.3 280.9,236.3 280.9,242.3 274.9,242.3" fill="rgb(255,227,227)"/>
<polygon points="280.9,236.3 286.9,236.3 286.9,242.3 280.9,242.3" fill="rgb(255,223,223)"/>
<polygon points="286.9,236.3 292.9,236.3 292.9,242.3 286.9,242.3" fill="rgb(192,192,255)"/>
<polygon points="292.9,236.3 298.9,236.3 298.9,242.3 292.9,242.3" fill="rgb(144,144,255)"/>
<polygon points="308.9,236.3 314.9,236.3 314.9,242.3 308.9,242.3" fill="rgb(255,188,188)"/>
<polygon points="314.9,236.3 320.9,236.3 320.9,242.3 314.9,242.3" fill="rgb(189,189,255)"/>
<polygon points="320.9,236.3 326.9,236.3 326.9,242.3 320.9,242.3" fill="rgb(135,135,255)"/>
<polygon points="326.9,236.3 332.9,236.3 332.9,242.3 326.9,242.3" fill="rgb(229,229,255)"/>
<polygon points="332.9,236.3 338.9,236.3 338.9,242.3 332.9,242.3" fill="rgb(248,248,255)"/>
<polygon points="338.9,236.3 344.9,236.3 344.9,242.3 338.9,242.3" fill="rgb(255,190,190)"/>
<polygon points="344.9,236.3 350.9,236.3 350.9,242.3 344.9,242.3" fill="rgb(255,242,242)"/>
<polygon points="350.9,236.3 356.9,236.3 356.9,242.3 350.9,242.3" fill="rgb(185,185,255)"/>
<polygon points="158.9,242.3 166.9,242.3 166.9,248.3 158.9,248.3" fill="rgb(112,189,182)"/><text xml:space="preserve" x="162.9" y="248.133" font-family="Calibri" font-size="7.5" fill="rgb(0,0,0)" text-anchor="middle">1</text>
<polygon points="166.9,242.3 174.9,242.3 174.9,248.3 166.9,248.3" fill="rgb(134,198,192)"/><text xml:space="preserve" x="170.9" y="248.133" font-family="Calibri" font-size="7.5" fill="rgb(0,0,0)" text-anchor="middle">2</text>
<polygon points="174.9,242.3 182.9,242.3 182.9,248.3 174.9,248.3" fill="rgb(134,198,192)"/><text xml:space="preserve" x="178.9" y="248.133" font-family="Calibri" font-size="7.5" fill="rgb(0,0,0)" text-anchor="middle">2</text>
<polygon points="192.9,242.3 198.9,242.3 198.9,248.3 192.9,248.3" fill="rgb(255,215,215)"/>
<polygon points="198.9,242.3 204.9,242.3 204.9,248.3 198.9,248.3" fill="rgb(255,192,192)"/>
<polygon points="204.9,242.3 210.9,242.3 210.9,248.3 204.9,248.3" fill="rgb(222,222,255)"/>
<polygon points="210.9,242.3 216.9,242.3 216.9,248.3 210.9,248.3" fill="rgb(196,196,255)"/>
<polygon points="216.9,242.3 222.9,242.3 222.9,248.3 216.9,248.3" fill="rgb(254,207,207)"/>
<polygon points="222.9,242.3 228.9,242.3 228.9,248.3 222.9,248.3" fill="rgb(108,108,255)"/>
<polygon points="228.9,242.3 234.9,242.3 234.9,248.3 228.9,248.3" fill="rgb(107,107,255)"/>
<polygon points="234.9,242.3 240.9,242.3 240.9,248.3 234.9,248.3" fill="rgb(127,127,255)"/>
<polygon points="250.9,242.3 256.9,242.3 256.9,248.3 250.9,248.3" fill="rgb(255,251,251)"/>
<polygon points="256.9,242.3 262.9,242.3 262.9,248.3 256.9,248.3" fill="rgb(232,232,255)"/>
<polygon points="262.9,242.3 268.9,242.3 268.9,248.3 262.9,248.3" fill="rgb(143,143,255)"/>
<polygon points="268.9,242.3 274.9,242.3 274.9,248.3 268.9,248.3" fill="rgb(158,158,255)"/>
<polygon points="274.9,242.3 280.9,242.3 280.9,248.3 274.9,248.3" fill="rgb(255,250,250)"/>
<polygon points="280.9,242.3 286.9,242.3 286.9,248.3 280.9,248.3" fill="rgb(243,243,255)"/>
<polygon points="286.9,242.3 292.9,242.3 292.9,248.3 286.9,248.3" fill="rgb(255,183,183)"/>
<polygon points="292.9,242.3 298.9,242.3 298.9,248.3 292.9,248.3" fill="rgb(254,167,167)"/>
<polygon points="308.9,242.3 314.9,242.3 314.9,248.3 308.9,248.3" fill="rgb(255,195,195)"/>
<polygon points="314.9,242.3 320.9,242.3 320.9,248.3 314.9,248.3" fill="rgb(216,216,255)"/>
<polygon points="320.9,242.3 326.9,242.3 326.9,248.3 320.9,248.3" fill="rgb(229,229,255)"/>
<polygon points="326.9,242.3 332.9,242.3 332.9,248.3 326.9,248.3" fill="rgb(255,249,249)"/>
<polygon points="332.9,242.3 338.9,242.3 338.9,248.3 332.9,248.3" fill="rgb(255,212,212)"/>
<polygon points="338.9,242.3 344.9,242.3 344.9,248.3 338.9,248.3" fill="rgb(254,254,254)"/>
<polygon points="344.9,242.3 350.9,242.3 350.9,248.3 344.9,248.3" fill="rgb(185,185,255)"/>
<polygon points="350.9,242.3 356.9,242.3 356.9,248.3 350.9,248.3" fill="rgb(250,250,255)"/>
<polygon points="158.9,248.3 166.9,248.3 166.9,254.3 158.9,254.3" fill="rgb(112,189,182)"/><text xml:space="preserve" x="162.9" y="254.133" font-family="Calibri" font-size="7.5" fill="rgb(0,0,0)" text-anchor="middle">1</text>
<polygon points="166.9,248.3 174.9,248.3 174.9,254.3 166.9,254.3" fill="rgb(134,198,192)"/><text xml:space="preserve" x="170.9" y="254.133" font-family="Calibri" font-size="7.5" fill="rgb(0,0,0)" text-anchor="middle">2</text>
<polygon points="174.9,248.3 182.9,248.3 182.9,254.3 174.9,254.3" fill="rgb(134,198,192)"/><text xml:space="preserve" x="178.9" y="254.133" font-family="Calibri" font-size="7.5" fill="rgb(0,0,0)" text-anchor="middle">2</text>
<polygon points="192.9,248.3 198.9,248.3 198.9,254.3 192.9,254.3" fill="rgb(255,170,170)"/>
<polygon points="198.9,248.3 204.9,248.3 204.9,254.3 198.9,254.3" fill="rgb(255,141,141)"/>
<polygon points="204.9,248.3 210.9,248.3 210.9,254.3 204.9,254.3" fill="rgb(215,215,255)"/>
<polygon points="210.9,248.3 216.9,248.3 216.9,254.3 210.9,254.3" fill="rgb(147,147,255)"/>
<polygon points="216.9,248.3 222.9,248.3 222.9,254.3 216.9,254.3" fill="rgb(255,83,83)"/>
<polygon points="222.9,248.3 228.9,248.3 228.9,254.3 222.9,254.3" fill="rgb(36,36,255)"/>
<polygon points="228.9,248.3 234.9,248.3 234.9,254.3 228.9,254.3" fill="rgb(147,147,255)"/>
<polygon points="234.9,248.3 240.9,248.3 240.9,254.3 234.9,254.3" fill="rgb(125,125,255)"/>
<polygon points="250.9,248.3 256.9,248.3 256.9,254.3 250.9,254.3" fill="rgb(255,236,236)"/>
<polygon points="256.9,248.3 262.9,248.3 262.9,254.3 256.9,254.3" fill="rgb(222,222,255)"/>
<polygon points="262.9,248.3 268.9,248.3 268.9,254.3 262.9,254.3" fill="rgb(73,73,255)"/>
<polygon points="268.9,248.3 274.9,248.3 274.9,254.3 268.9,254.3" fill="rgb(127,127,255)"/>
<polygon points="274.9,248.3 280.9,248.3 280.9,254.3 274.9,254.3" fill="rgb(255,177,177)"/>
<polygon points="280.9,248.3 286.9,248.3 286.9,254.3 280.9,254.3" fill="rgb(255,240,240)"/>
<polygon points="286.9,248.3 292.9,248.3 292.9,254.3 286.9,254.3" fill="rgb(255,208,208)"/>
<polygon points="292.9,248.3 298.9,248.3 298.9,254.3 292.9,254.3" fill="rgb(255,143,143)"/>
<polygon points="308.9,248.3 314.9,248.3 314.9,254.3 308.9,254.3" fill="rgb(255,126,126)"/>
<polygon points="314.9,248.3 320.9,248.3 320.9,254.3 314.9,254.3" fill="rgb(177,177,255)"/>
<polygon points="320.9,248.3 326.9,248.3 326.9,254.3 320.9,254.3" fill="rgb(231,231,255)"/>
<polygon points="326.9,248.3 332.9,248.3 332.9,254.3 326.9,254.3" fill="rgb(243,243,255)"/>
<polygon points="332.9,248.3 338.9,248.3 338.9,254.3 332.9,254.3" fill="rgb(255,135,135)"/>
<polygon points="338.9,248.3 344.9,248.3 344.9,254.3 338.9,254.3" fill="rgb(255,127,127)"/>
<polygon points="344.9,248.3 350.9,248.3 350.9,254.3 344.9,254.3" fill="rgb(148,148,255)"/>
<polygon points="350.9,248.3 356.9,248.3 356.9,254.3 350.9,254.3" fill="rgb(255,189,189)"/>
<polygon points="158.9,254.3 166.9,254.3 166.9,260.3 158.9,260.3" fill="rgb(112,189,182)"/><text xml:space="preserve" x="162.9" y="260.133" font-family="Calibri" font-size="7.5" fill="rgb(0,0,0)" text-anchor="middle">1</text>
<polygon points="166.9,254.3 174.9,254.3 174.9,260.3 166.9,260.3" fill="rgb(134,198,192)"/><text xml:space="preserve" x="170.9" y="260.133" font-family="Calibri" font-size="7.5" fill="rgb(0,0,0)" text-anchor="middle">2</text>
<polygon points="174.9,254.3 182.9,254.3 182.9,260.3 174.9,260.3" fill="rgb(134,198,192)"/><text xml:space="preserve" x="178.9" y="260.133" font-family="Calibri" font-size="7.5" fill="rgb(0,0,0)" text-anchor="middle">2</text>
<polygon points="192.9,254.3 198.9,254.3 198.9,260.3 192.9,260.3" fill="rgb(255,220,220)"/>
<polygon points="198.9,254.3 204.9,254.3 204.9,260.3 198.9,260.3" fill="rgb(255,174,174)"/>
<polygon points="204.9,254.3 210.9,254.3 210.9,260.3 204.9,260.3" fill="rgb(254,252,252)"/>
<polygon points="210.9,254.3 216.9,254.3 216.9,260.3 210.9,260.3" fill="rgb(255,244,244)"/>
<polygon points="216.9,254.3 222.9,254.3 222.9,260.3 216.9,260.3" fill="rgb(255,130,130)"/>
<polygon points="222.9,254.3 228.9,254.3 228.9,260.3 222.9,260.3" fill="rgb(152,152,255)"/>
<polygon points="228.9,254.3 234.9,254.3 234.9,260.3 228.9,260.3" fill="rgb(154,154,255)"/>
<polygon points="234.9,254.3 240.9,254.3 240.9,260.3 234.9,260.3" fill="rgb(128,128,255)"/>
<polygon points="250.9,254.3 256.9,254.3 256.9,260.3 250.9,260.3" fill="rgb(255,251,251)"/>
<polygon points="256.9,254.3 262.9,254.3 262.9,260.3 256.9,260.3" fill="rgb(210,210,255)"/>
<polygon points="262.9,254.3 268.9,254.3 268.9,260.3 262.9,260.3" fill="rgb(199,199,255)"/>
<polygon points="268.9,254.3 274.9,254.3 274.9,260.3 268.9,260.3" fill="rgb(177,177,255)"/>
<polygon points="274.9,254.3 280.9,254.3 280.9,260.3 274.9,260.3" fill="rgb(255,224,224)"/>
<polygon points="280.9,254.3 286.9,254.3 286.9,260.3 280.9,260.3" fill="rgb(228,228,255)"/>
<polygon points="286.9,254.3 292.9,254.3 292.9,260.3 286.9,260.3" fill="rgb(162,162,255)"/>
<polygon points="292.9,254.3 298.9,254.3 298.9,260.3 292.9,260.3" fill="rgb(145,145,255)"/>
<polygon points="308.9,254.3 314.9,254.3 314.9,260.3 308.9,260.3" fill="rgb(255,217,217)"/>
<polygon points="314.9,254.3 320.9,254.3 320.9,260.3 314.9,260.3" fill="rgb(217,217,255)"/>
<polygon points="320.9,254.3 326.9,254.3 326.9,260.3 320.9,260.3" fill="rgb(178,178,255)"/>
<polygon points="326.9,254.3 332.9,254.3 332.9,260.3 326.9,260.3" fill="rgb(222,222,255)"/>
<polygon points="332.9,254.3 338.9,254.3 338.9,260.3 332.9,260.3" fill="rgb(255,199,199)"/>
<polygon points="338.9,254.3 344.9,254.3 344.9,260.3 338.9,260.3" fill="rgb(255,191,191)"/>
<polygon points="344.9,254.3 350.9,254.3 350.9,260.3 344.9,260.3" fill="rgb(178,178,255)"/>
<polygon points="350.9,254.3 356.9,254.3 356.9,260.3 350.9,260.3" fill="rgb(112,112,255)"/>
<polygon points="158.9,260.3 166.9,260.3 166.9,266.3 158.9,266.3" fill="rgb(112,189,182)"/><text xml:space="preserve" x="162.9" y="266.133" font-family="Calibri" font-size="7.5" fill="rgb(0,0,0)" text-anchor="middle">1</text>
<polygon points="166.9,260.3 174.9,260.3 174.9,266.3 166.9,266.3" fill="rgb(134,198,192)"/><text xml:space="preserve" x="170.9" y="266.133" font-family="Calibri" font-size="7.5" fill="rgb(0,0,0)" text-anchor="middle">2</text>
<polygon points="174.9,260.3 182.9,260.3 182.9,266.3 174.9,266.3" fill="rgb(134,198,192)"/><text xml:space="preserve" x="178.9" y="266.133" font-family="Calibri" font-size="7.5" fill="rgb(0,0,0)" text-anchor="middle">2</text>
<polygon points="192.9,260.3 198.9,260.3 198.9,266.3 192.9,266.3" fill="rgb(255,216,216)"/>
<polygon points="198.9,260.3 204.9,260.3 204.9,266.3 198.9,266.3" fill="rgb(255,185,185)"/>
<polygon points="204.9,260.3 210.9,260.3 210.9,266.3 204.9,266.3" fill="rgb(209,209,255)"/>
<polygon points="210.9,260.3 216.9,260.3 216.9,266.3 210.9,266.3" fill="rgb(201,201,255)"/>
<polygon points="216.9,260.3 222.9,260.3 222.9,266.3 216.9,266.3" fill="rgb(255,136,136)"/>
<polygon points="222.9,260.3 228.9,260.3 228.9,266.3 222.9,266.3" fill="rgb(73,73,255)"/>
<polygon points="228.9,260.3 234.9,260.3 234.9,266.3 228.9,266.3" fill="rgb(122,122,255)"/>
<polygon points="234.9,260.3 240.9,260.3 240.9,266.3 234.9,266.3" fill="rgb(88,88,255)"/>
<polygon points="250.9,260.3 256.9,260.3 256.9,266.3 250.9,266.3" fill="rgb(255,223,223)"/>
<polygon points="256.9,260.3 262.9,260.3 262.9,266.3 256.9,266.3" fill="rgb(243,243,255)"/>
<polygon points="262.9,260.3 268.9,260.3 268.9,266.3 262.9,266.3" fill="rgb(165,165,255)"/>
<polygon points="268.9,260.3 274.9,260.3 274.9,266.3 268.9,266.3" fill="rgb(159,159,255)"/>
<polygon points="274.9,260.3 280.9,260.3 280.9,266.3 274.9,266.3" fill="rgb(243,243,255)"/>
<polygon points="280.9,260.3 286.9,260.3 286.9,266.3 280.9,266.3" fill="rgb(233,233,255)"/>
<polygon points="286.9,260.3 292.9,260.3 292.9,266.3 286.9,266.3" fill="rgb(233,233,255)"/>
<polygon points="292.9,260.3 298.9,260.3 298.9,266.3 292.9,266.3" fill="rgb(255,184,184)"/>
<polygon points="308.9,260.3 314.9,260.3 314.9,266.3 308.9,266.3" fill="rgb(255,204,204)"/>
<polygon points="314.9,260.3 320.9,260.3 320.9,266.3 314.9,266.3" fill="rgb(254,249,249)"/>
<polygon points="320.9,260.3 326.9,260.3 326.9,266.3 320.9,266.3" fill="rgb(255,236,236)"/>
<polygon points="326.9,260.3 332.9,260.3 332.9,266.3 326.9,266.3" fill="rgb(255,205,205)"/>
<polygon points="332.9,260.3 338.9,260.3 338.9,266.3 332.9,266.3" fill="rgb(255,170,170)"/>
<polygon points="338.9,260.3 344.9,260.3 344.9,266.3 338.9,266.3" fill="rgb(206,206,255)"/>
<polygon points="344.9,260.3 350.9,260.3 350.9,266.3 344.9,266.3" fill="rgb(105,105,255)"/>
<polygon points="350.9,260.3 356.9,260.3 356.9,266.3 350.9,266.3" fill="rgb(174,174,255)"/>
<polygon points="158.9,266.3 166.9,266.3 166.9,272.3 158.9,272.3" fill="rgb(112,189,182)"/><text xml:space="preserve" x="162.9" y="272.133" font-family="Calibri" font-size="7.5" fill="rgb(0,0,0)" text-anchor="middle">1</text>
<polygon points="166.9,266.3 174.9,266.3 174.9,272.3 166.9,272.3" fill="rgb(134,198,192)"/><text xml:space="preserve" x="170.9" y="272.133" font-family="Calibri" font-size="7.5" fill="rgb(0,0,0)" text-anchor="middle">2</text>
<polygon points="174.9,266.3 182.9,266.3 182.9,272.3 174.9,272.3" fill="rgb(134,198,192)"/><text xml:space="preserve" x="178.9" y="272.133" font-family="Calibri" font-size="7.5" fill="rgb(0,0,0)" text-anchor="middle">2</text>
<polygon points="192.9,266.3 198.9,266.3 198.9,272.3 192.9,272.3" fill="rgb(255,146,146)"/>
<polygon points="198.9,266.3 204.9,266.3 204.9,272.3 198.9,272.3" fill="rgb(255,192,192)"/>
<polygon points="204.9,266.3 210.9,266.3 210.9,272.3 204.9,272.3" fill="rgb(251,251,255)"/>
<polygon points="210.9,266.3 216.9,266.3 216.9,272.3 210.9,272.3" fill="rgb(210,210,255)"/>
<polygon points="216.9,266.3 222.9,266.3 222.9,272.3 216.9,272.3" fill="rgb(255,162,162)"/>
<polygon points="222.9,266.3 228.9,266.3 228.9,272.3 222.9,272.3" fill="rgb(191,191,255)"/>
<polygon points="228.9,266.3 234.9,266.3 234.9,272.3 228.9,272.3" fill="rgb(197,197,255)"/>
<polygon points="234.9,266.3 240.9,266.3 240.9,272.3 234.9,272.3" fill="rgb(164,164,255)"/>
<polygon points="250.9,266.3 256.9,266.3 256.9,272.3 250.9,272.3" fill="rgb(255,221,221)"/>
<polygon points="256.9,266.3 262.9,266.3 262.9,272.3 256.9,272.3" fill="rgb(227,227,255)"/>
<polygon points="262.9,266.3 268.9,266.3 268.9,272.3 262.9,272.3" fill="rgb(135,135,255)"/>
<polygon points="268.9,266.3 274.9,266.3 274.9,272.3 268.9,272.3" fill="rgb(140,140,255)"/>
<polygon points="274.9,266.3 280.9,266.3 280.9,272.3 274.9,272.3" fill="rgb(247,247,255)"/>
<polygon points="280.9,266.3 286.9,266.3 286.9,272.3 280.9,272.3" fill="rgb(255,200,200)"/>
<polygon points="286.9,266.3 292.9,266.3 292.9,272.3 286.9,272.3" fill="rgb(240,240,255)"/>
<polygon points="292.9,266.3 298.9,266.3 298.9,272.3 292.9,272.3" fill="rgb(255,229,229)"/>
<polygon points="308.9,266.3 314.9,266.3 314.9,272.3 308.9,272.3" fill="rgb(255,144,144)"/>
<polygon points="314.9,266.3 320.9,266.3 320.9,272.3 314.9,272.3" fill="rgb(246,246,255)"/>
<polygon points="320.9,266.3 326.9,266.3 326.9,272.3 320.9,272.3" fill="rgb(255,180,180)"/>
<polygon points="326.9,266.3 332.9,266.3 332.9,272.3 326.9,272.3" fill="rgb(255,189,189)"/>
<polygon points="332.9,266.3 338.9,266.3 338.9,272.3 332.9,272.3" fill="rgb(255,104,104)"/>
<polygon points="338.9,266.3 344.9,266.3 344.9,272.3 338.9,272.3" fill="rgb(255,217,217)"/>
<polygon points="344.9,266.3 350.9,266.3 350.9,272.3 344.9,272.3" fill="rgb(160,160,255)"/>
<polygon points="350.9,266.3 356.9,266.3 356.9,272.3 350.9,272.3" fill="rgb(222,222,255)"/>
<polygon points="158.9,272.3 166.9,272.3 166.9,278.3 158.9,278.3" fill="rgb(112,189,182)"/><text xml:space="preserve" x="162.9" y="278.133" font-family="Calibri" font-size="7.5" fill="rgb(0,0,0)" text-anchor="middle">1</text>
<polygon points="166.9,272.3 174.9,272.3 174.9,278.3 166.9,278.3" fill="rgb(134,198,192)"/><text xml:space="preserve" x="170.9" y="278.133" font-family="Calibri" font-size="7.5" fill="rgb(0,0,0)" text-anchor="middle">2</text>
<polygon points="174.9,272.3 182.9,272.3 182.9,278.3 174.9,278.3" fill="rgb(134,198,192)"/><text xml:space="preserve" x="178.9" y="278.133" font-family="Calibri" font-size="7.5" fill="rgb(0,0,0)" text-anchor="middle">2</text>
<polygon points="192.9,272.3 198.9,272.3 198.9,278.3 192.9,278.3" fill="rgb(255,231,231)"/>
<polygon points="198.9,272.3 204.9,272.3 204.9,278.3 198.9,278.3" fill="rgb(255,199,199)"/>
<polygon points="204.9,272.3 210.9,272.3 210.9,278.3 204.9,278.3" fill="rgb(184,184,255)"/>
<polygon points="210.9,272.3 216.9,272.3 216.9,278.3 210.9,278.3" fill="rgb(253,253,255)"/>
<polygon points="216.9,272.3 222.9,272.3 222.9,278.3 216.9,278.3" fill="rgb(255,205,205)"/>
<polygon points="222.9,272.3 228.9,272.3 228.9,278.3 222.9,278.3" fill="rgb(197,197,255)"/>
<polygon points="228.9,272.3 234.9,272.3 234.9,278.3 228.9,278.3" fill="rgb(147,147,255)"/>
<polygon points="234.9,272.3 240.9,272.3 240.9,278.3 234.9,278.3" fill="rgb(163,163,255)"/>
<polygon points="250.9,272.3 256.9,272.3 256.9,278.3 250.9,278.3" fill="rgb(238,238,255)"/>
<polygon points="256.9,272.3 262.9,272.3 262.9,278.3 256.9,278.3" fill="rgb(252,252,255)"/>
<polygon points="262.9,272.3 268.9,272.3 268.9,278.3 262.9,278.3" fill="rgb(217,217,255)"/>
<polygon points="268.9,272.3 274.9,272.3 274.9,278.3 268.9,278.3" fill="rgb(201,201,255)"/>
<polygon points="274.9,272.3 280.9,272.3 280.9,278.3 274.9,278.3" fill="rgb(255,198,198)"/>
<polygon points="280.9,272.3 286.9,272.3 286.9,278.3 280.9,278.3" fill="rgb(255,170,170)"/>
<polygon points="286.9,272.3 292.9,272.3 292.9,278.3 286.9,278.3" fill="rgb(255,212,212)"/>
<polygon points="292.9,272.3 298.9,272.3 298.9,278.3 292.9,278.3" fill="rgb(255,180,180)"/>
<polygon points="308.9,272.3 314.9,272.3 314.9,278.3 308.9,278.3" fill="rgb(255,215,215)"/>
<polygon points="314.9,272.3 320.9,272.3 320.9,278.3 314.9,278.3" fill="rgb(249,249,255)"/>
<polygon points="320.9,272.3 326.9,272.3 326.9,278.3 320.9,278.3" fill="rgb(255,119,119)"/>
<polygon points="326.9,272.3 332.9,272.3 332.9,278.3 326.9,278.3" fill="rgb(255,132,132)"/>
<polygon points="332.9,272.3 338.9,272.3 338.9,278.3 332.9,278.3" fill="rgb(255,183,183)"/>
<polygon points="338.9,272.3 344.9,272.3 344.9,278.3 338.9,278.3" fill="rgb(255,134,134)"/>
<polygon points="344.9,272.3 350.9,272.3 350.9,278.3 344.9,278.3" fill="rgb(251,251,255)"/>
<polygon points="350.9,272.3 356.9,272.3 356.9,278.3 350.9,278.3" fill="rgb(255,178,178)"/>
<polygon points="158.9,278.3 166.9,278.3 166.9,284.3 158.9,284.3" fill="rgb(112,189,182)"/><text xml:space="preserve" x="162.9" y="284.133" font-family="Calibri" font-size="7.5" fill="rgb(0,0,0)" text-anchor="middle">1</text>
<polygon points="166.9,278.3 174.9,278.3 174.9,284.3 166.9,284.3" fill="rgb(134,198,192)"/><text xml:space="preserve" x="170.9" y="284.133" font-family="Calibri" font-size="7.5" fill="rgb(0,0,0)" text-anchor="middle">2</text>
<polygon points="174.9,278.3 182.9,278.3 182.9,284.3 174.9,284.3" fill="rgb(134,198,192)"/><text xml:space="preserve" x="178.9" y="284.133" font-family="Calibri" font-size="7.5" fill="rgb(0,0,0)" text-anchor="middle">2</text>
<polygon points="192.9,278.3 198.9,278.3 198.9,284.3 192.9,284.3" fill="rgb(255,136,136)"/>
<polygon points="198.9,278.3 204.9,278.3 204.9,284.3 198.9,284.3" fill="rgb(255,220,220)"/>
<polygon points="204.9,278.3 210.9,278.3 210.9,284.3 204.9,284.3" fill="rgb(218,218,255)"/>
<polygon points="210.9,278.3 216.9,278.3 216.9,284.3 210.9,284.3" fill="rgb(199,199,255)"/>
<polygon points="216.9,278.3 222.9,278.3 222.9,284.3 216.9,284.3" fill="rgb(255,209,209)"/>
<polygon points="222.9,278.3 228.9,278.3 228.9,284.3 222.9,284.3" fill="rgb(241,241,255)"/>
<polygon points="228.9,278.3 234.9,278.3 234.9,284.3 228.9,284.3" fill="rgb(172,172,255)"/>
<polygon points="234.9,278.3 240.9,278.3 240.9,284.3 234.9,284.3" fill="rgb(174,174,255)"/>
<polygon points="250.9,278.3 256.9,278.3 256.9,284.3 250.9,284.3" fill="rgb(255,235,235)"/>
<polygon points="256.9,278.3 262.9,278.3 262.9,284.3 256.9,284.3" fill="rgb(224,224,255)"/>
<polygon points="262.9,278.3 268.9,278.3 268.9,284.3 262.9,284.3" fill="rgb(146,146,255)"/>
<polygon points="268.9,278.3 274.9,278.3 274.9,284.3 268.9,284.3" fill="rgb(149,149,255)"/>
<polygon points="274.9,278.3 280.9,278.3 280.9,284.3 274.9,284.3" fill="rgb(255,226,226)"/>
<polygon points="280.9,278.3 286.9,278.3 286.9,284.3 280.9,284.3" fill="rgb(255,213,213)"/>
<polygon points="286.9,278.3 292.9,278.3 292.9,284.3 286.9,284.3" fill="rgb(255,248,248)"/>
<polygon points="292.9,278.3 298.9,278.3 298.9,284.3 292.9,284.3" fill="rgb(255,154,154)"/>
<polygon points="308.9,278.3 314.9,278.3 314.9,284.3 308.9,284.3" fill="rgb(255,165,165)"/>
<polygon points="314.9,278.3 320.9,278.3 320.9,284.3 314.9,284.3" fill="rgb(214,214,255)"/>
<polygon points="320.9,278.3 326.9,278.3 326.9,284.3 320.9,284.3" fill="rgb(255,249,249)"/>
<polygon points="326.9,278.3 332.9,278.3 332.9,284.3 326.9,284.3" fill="rgb(255,221,221)"/>
<polygon points="332.9,278.3 338.9,278.3 338.9,284.3 332.9,284.3" fill="rgb(255,244,244)"/>
<polygon points="338.9,278.3 344.9,278.3 344.9,284.3 338.9,284.3" fill="rgb(255,155,155)"/>
<polygon points="344.9,278.3 350.9,278.3 350.9,284.3 344.9,284.3" fill="rgb(244,244,255)"/>
<polygon points="350.9,278.3 356.9,278.3 356.9,284.3 350.9,284.3" fill="rgb(255,182,182)"/>
<polygon points="158.9,284.3 166.9,284.3 166.9,290.3 158.9,290.3" fill="rgb(112,189,182)"/><text xml:space="preserve" x="162.9" y="290.133" font-family="Calibri" font-size="7.5" fill="rgb(0,0,0)" text-anchor="middle">1</text>
<polygon points="166.9,284.3 174.9,284.3 174.9,290.3 166.9,290.3" fill="rgb(134,198,192)"/><text xml:space="preserve" x="170.9" y="290.133" font-family="Calibri" font-size="7.5" fill="rgb(0,0,0)" text-anchor="middle">2</text>
<polygon points="174.9,284.3 182.9,284.3 182.9,290.3 174.9,290.3" fill="rgb(134,198,192)"/><text xml:space="preserve" x="178.9" y="290.133" font-family="Calibri" font-size="7.5" fill="rgb(0,0,0)" text-anchor="middle">2</text>
<polygon points="192.9,284.3 198.9,284.3 198.9,290.3 192.9,290.3" fill="rgb(255,229,229)"/>
<polygon points="198.9,284.3 204.9,284.3 204.9,290.3 198.9,290.3" fill="rgb(255,179,179)"/>
<polygon points="204.9,284.3 210.9,284.3 210.9,290.3 204.9,290.3" fill="rgb(255,253,253)"/>
<polygon points="210.9,284.3 216.9,284.3 216.9,290.3 210.9,290.3" fill="rgb(249,249,255)"/>
<polygon points="216.9,284.3 222.9,284.3 222.9,290.3 216.9,290.3" fill="rgb(255,229,229)"/>
<polygon points="222.9,284.3 228.9,284.3 228.9,290.3 222.9,290.3" fill="rgb(183,183,255)"/>
<polygon points="228.9,284.3 234.9,284.3 234.9,290.3 228.9,290.3" fill="rgb(167,167,255)"/>
<polygon points="234.9,284.3 240.9,284.3 240.9,290.3 234.9,290.3" fill="rgb(153,153,255)"/>
<polygon points="250.9,284.3 256.9,284.3 256.9,290.3 250.9,290.3" fill="rgb(255,221,221)"/>
<polygon points="256.9,284.3 262.9,284.3 262.9,290.3 256.9,290.3" fill="rgb(218,218,255)"/>
<polygon points="262.9,284.3 268.9,284.3 268.9,290.3 262.9,290.3" fill="rgb(181,181,255)"/>
<polygon points="268.9,284.3 274.9,284.3 274.9,290.3 268.9,290.3" fill="rgb(154,154,255)"/>
<polygon points="274.9,284.3 280.9,284.3 280.9,290.3 274.9,290.3" fill="rgb(233,233,255)"/>
<polygon points="280.9,284.3 286.9,284.3 286.9,290.3 280.9,290.3" fill="rgb(255,229,229)"/>
<polygon points="286.9,284.3 292.9,284.3 292.9,290.3 286.9,290.3" fill="rgb(255,210,210)"/>
<polygon points="292.9,284.3 298.9,284.3 298.9,290.3 292.9,290.3" fill="rgb(255,188,188)"/>
<polygon points="308.9,284.3 314.9,284.3 314.9,290.3 308.9,290.3" fill="rgb(251,251,255)"/>
<polygon points="314.9,284.3 320.9,284.3 320.9,290.3 314.9,290.3" fill="rgb(203,203,255)"/>
<polygon points="320.9,284.3 326.9,284.3 326.9,290.3 320.9,290.3" fill="rgb(204,204,255)"/>
<polygon points="326.9,284.3 332.9,284.3 332.9,290.3 326.9,290.3" fill="rgb(243,243,255)"/>
<polygon points="332.9,284.3 338.9,284.3 338.9,290.3 332.9,290.3" fill="rgb(255,242,242)"/>
<polygon points="338.9,284.3 344.9,284.3 344.9,290.3 338.9,290.3" fill="rgb(255,207,207)"/>
<polygon points="344.9,284.3 350.9,284.3 350.9,290.3 344.9,290.3" fill="rgb(255,215,215)"/>
<polygon points="350.9,284.3 356.9,284.3 356.9,290.3 350.9,290.3" fill="rgb(210,210,255)"/>
<polygon points="158.9,290.3 166.9,290.3 166.9,296.3 158.9,296.3" fill="rgb(112,189,182)"/><text xml:space="preserve" x="162.9" y="296.133" font-family="Calibri" font-size="7.5" fill="rgb(0,0,0)" text-anchor="middle">1</text>
<polygon points="166.9,290.3 174.9,290.3 174.9,296.3 166.9,296.3" fill="rgb(134,198,192)"/><text xml:space="preserve" x="170.9" y="296.133" font-family="Calibri" font-size="7.5" fill="rgb(0,0,0)" text-anchor="middle">2</text>
<polygon points="174.9,290.3 182.9,290.3 182.9,296.3 174.9,296.3" fill="rgb(134,198,192)"/><text xml:space="preserve" x="178.9" y="296.133" font-family="Calibri" font-size="7.5" fill="rgb(0,0,0)" text-anchor="middle">2</text>
<polygon points="192.9,290.3 198.9,290.3 198.9,296.3 192.9,296.3" fill="rgb(255,180,180)"/>
<polygon points="198.9,290.3 204.9,290.3 204.9,296.3 198.9,296.3" fill="rgb(255,187,187)"/>
<polygon points="204.9,290.3 210.9,290.3 210.9,296.3 204.9,296.3" fill="rgb(248,248,255)"/>
<polygon points="210.9,290.3 216.9,290.3 216.9,296.3 210.9,296.3" fill="rgb(227,227,255)"/>
<polygon points="216.9,290.3 222.9,290.3 222.9,296.3 216.9,296.3" fill="rgb(255,133,133)"/>
<polygon points="222.9,290.3 228.9,290.3 228.9,296.3 222.9,296.3" fill="rgb(174,174,255)"/>
<polygon points="228.9,290.3 234.9,290.3 234.9,296.3 228.9,296.3" fill="rgb(204,204,255)"/>
<polygon points="234.9,290.3 240.9,290.3 240.9,296.3 234.9,296.3" fill="rgb(177,177,255)"/>
<polygon points="250.9,290.3 256.9,290.3 256.9,296.3 250.9,296.3" fill="rgb(255,217,217)"/>
<polygon points="256.9,290.3 262.9,290.3 262.9,296.3 256.9,296.3" fill="rgb(243,243,255)"/>
<polygon points="262.9,290.3 268.9,290.3 268.9,296.3 262.9,296.3" fill="rgb(185,185,255)"/>
<polygon points="268.9,290.3 274.9,290.3 274.9,296.3 268.9,296.3" fill="rgb(196,196,255)"/>
<polygon points="274.9,290.3 280.9,290.3 280.9,296.3 274.9,296.3" fill="rgb(255,203,203)"/>
<polygon points="280.9,290.3 286.9,290.3 286.9,296.3 280.9,296.3" fill="rgb(255,237,237)"/>
<polygon points="286.9,290.3 292.9,290.3 292.9,296.3 286.9,296.3" fill="rgb(255,208,208)"/>
<polygon points="292.9,290.3 298.9,290.3 298.9,296.3 292.9,296.3" fill="rgb(255,244,244)"/>
<polygon points="308.9,290.3 314.9,290.3 314.9,296.3 308.9,296.3" fill="rgb(255,163,163)"/>
<polygon points="314.9,290.3 320.9,290.3 320.9,296.3 314.9,296.3" fill="rgb(228,228,255)"/>
<polygon points="320.9,290.3 326.9,290.3 326.9,296.3 320.9,296.3" fill="rgb(255,196,196)"/>
<polygon points="326.9,290.3 332.9,290.3 332.9,296.3 326.9,296.3" fill="rgb(255,107,107)"/>
<polygon points="332.9,290.3 338.9,290.3 338.9,296.3 332.9,296.3" fill="rgb(255,170,170)"/>
<polygon points="338.9,290.3 344.9,290.3 344.9,296.3 338.9,296.3" fill="rgb(255,251,251)"/>
<polygon points="344.9,290.3 350.9,290.3 350.9,296.3 344.9,296.3" fill="rgb(254,225,225)"/>
<polygon points="350.9,290.3 356.9,290.3 356.9,296.3 350.9,296.3" fill="rgb(255,222,222)"/>
<polygon points="158.9,296.3 166.9,296.3 166.9,302.3 158.9,302.3" fill="rgb(112,189,182)"/><text xml:space="preserve" x="162.9" y="302.133" font-family="Calibri" font-size="7.5" fill="rgb(0,0,0)" text-anchor="middle">1</text>
<polygon points="166.9,296.3 174.9,296.3 174.9,302.3 166.9,302.3" fill="rgb(134,198,192)"/><text xml:space="preserve" x="170.9" y="302.133" font-family="Calibri" font-size="7.5" fill="rgb(0,0,0)" text-anchor="middle">2</text>
<polygon points="174.9,296.3 182.9,296.3 182.9,302.3 174.9,302.3" fill="rgb(134,198,192)"/><text xml:space="preserve" x="178.9" y="302.133" font-family="Calibri" font-size="7.5" fill="rgb(0,0,0)" text-anchor="middle">2</text>
<polygon points="192.9,296.3 198.9,296.3 198.9,302.3 192.9,302.3" fill="rgb(255,147,147)"/>
<polygon points="198.9,296.3 204.9,296.3 204.9,302.3 198.9,302.3" fill="rgb(252,252,255)"/>
<polygon points="204.9,296.3 210.9,296.3 210.9,302.3 204.9,302.3" fill="rgb(212,212,255)"/>
<polygon points="210.9,296.3 216.9,296.3 216.9,302.3 210.9,302.3" fill="rgb(189,189,255)"/>
<polygon points="216.9,296.3 222.9,296.3 222.9,302.3 216.9,302.3" fill="rgb(255,170,170)"/>
<polygon points="222.9,296.3 228.9,296.3 228.9,302.3 222.9,302.3" fill="rgb(255,246,246)"/>
<polygon points="228.9,296.3 234.9,296.3 234.9,302.3 228.9,302.3" fill="rgb(182,182,255)"/>
<polygon points="234.9,296.3 240.9,296.3 240.9,302.3 234.9,302.3" fill="rgb(170,170,255)"/>
<polygon points="250.9,296.3 256.9,296.3 256.9,302.3 250.9,302.3" fill="rgb(255,241,241)"/>
<polygon points="256.9,296.3 262.9,296.3 262.9,302.3 256.9,302.3" fill="rgb(178,178,255)"/>
<polygon points="262.9,296.3 268.9,296.3 268.9,302.3 262.9,302.3" fill="rgb(177,177,255)"/>
<polygon points="268.9,296.3 274.9,296.3 274.9,302.3 268.9,302.3" fill="rgb(254,239,239)"/>
<polygon points="274.9,296.3 280.9,296.3 280.9,302.3 274.9,302.3" fill="rgb(255,129,129)"/>
<polygon points="280.9,296.3 286.9,296.3 286.9,302.3 280.9,302.3" fill="rgb(255,159,159)"/>
<polygon points="286.9,296.3 292.9,296.3 292.9,302.3 286.9,302.3" fill="rgb(255,220,220)"/>
<polygon points="292.9,296.3 298.9,296.3 298.9,302.3 292.9,302.3" fill="rgb(177,177,255)"/>
<polygon points="308.9,296.3 314.9,296.3 314.9,302.3 308.9,302.3" fill="rgb(255,165,165)"/>
<polygon points="314.9,296.3 320.9,296.3 320.9,302.3 314.9,302.3" fill="rgb(156,156,255)"/>
<polygon points="320.9,296.3 326.9,296.3 326.9,302.3 320.9,302.3" fill="rgb(166,166,255)"/>
<polygon points="326.9,296.3 332.9,296.3 332.9,302.3 326.9,302.3" fill="rgb(182,182,255)"/>
<polygon points="332.9,296.3 338.9,296.3 338.9,302.3 332.9,302.3" fill="rgb(255,227,227)"/>
<polygon points="338.9,296.3 344.9,296.3 344.9,302.3 338.9,302.3" fill="rgb(255,158,158)"/>
<polygon points="344.9,296.3 350.9,296.3 350.9,302.3 344.9,302.3" fill="rgb(236,236,255)"/>
<polygon points="350.9,296.3 356.9,296.3 356.9,302.3 350.9,302.3" fill="rgb(236,236,255)"/>
<polygon points="158.9,302.3 166.9,302.3 166.9,308.3 158.9,308.3" fill="rgb(112,189,182)"/><text xml:space="preserve" x="162.9" y="308.133" font-family="Calibri" font-size="7.5" fill="rgb(0,0,0)" text-anchor="middle">1</text>
<polygon points="166.9,302.3 174.9,302.3 174.9,308.3 166.9,308.3" fill="rgb(134,198,192)"/><text xml:space="preserve" x="170.9" y="308.133" font-family="Calibri" font-size="7.5" fill="rgb(0,0,0)" text-anchor="middle">2</text>
<polygon points="174.9,302.3 182.9,302.3 182.9,308.3 174.9,308.3" fill="rgb(134,198,192)"/><text xml:space="preserve" x="178.9" y="308.133" font-family="Calibri" font-size="7.5" fill="rgb(0,0,0)" text-anchor="middle">2</text>
<polygon points="192.9,302.3 198.9,302.3 198.9,308.3 192.9,308.3" fill="rgb(254,178,178)"/>
<polygon points="198.9,302.3 204.9,302.3 204.9,308.3 198.9,308.3" fill="rgb(255,209,209)"/>
<polygon points="204.9,302.3 210.9,302.3 210.9,308.3 204.9,308.3" fill="rgb(211,211,255)"/>
<polygon points="210.9,302.3 216.9,302.3 216.9,308.3 210.9,308.3" fill="rgb(213,213,255)"/>
<polygon points="216.9,302.3 222.9,302.3 222.9,308.3 216.9,308.3" fill="rgb(255,173,173)"/>
<polygon points="222.9,302.3 228.9,302.3 228.9,308.3 222.9,308.3" fill="rgb(157,157,255)"/>
<polygon points="228.9,302.3 234.9,302.3 234.9,308.3 228.9,308.3" fill="rgb(154,154,255)"/>
<polygon points="234.9,302.3 240.9,302.3 240.9,308.3 234.9,308.3" fill="rgb(188,188,255)"/>
<polygon points="250.9,302.3 256.9,302.3 256.9,308.3 250.9,308.3" fill="rgb(255,248,248)"/>
<polygon points="256.9,302.3 262.9,302.3 262.9,308.3 256.9,308.3" fill="rgb(205,205,255)"/>
<polygon points="262.9,302.3 268.9,302.3 268.9,308.3 262.9,308.3" fill="rgb(162,162,255)"/>
<polygon points="268.9,302.3 274.9,302.3 274.9,308.3 268.9,308.3" fill="rgb(166,166,255)"/>
<polygon points="274.9,302.3 280.9,302.3 280.9,308.3 274.9,308.3" fill="rgb(255,241,241)"/>
<polygon points="280.9,302.3 286.9,302.3 286.9,308.3 280.9,308.3" fill="rgb(255,232,232)"/>
<polygon points="286.9,302.3 292.9,302.3 292.9,308.3 286.9,308.3" fill="rgb(255,208,208)"/>
<polygon points="292.9,302.3 298.9,302.3 298.9,308.3 292.9,308.3" fill="rgb(255,144,144)"/>
<polygon points="308.9,302.3 314.9,302.3 314.9,308.3 308.9,308.3" fill="rgb(255,191,191)"/>
<polygon points="314.9,302.3 320.9,302.3 320.9,308.3 314.9,308.3" fill="rgb(240,240,255)"/>
<polygon points="320.9,302.3 326.9,302.3 326.9,308.3 320.9,308.3" fill="rgb(254,246,246)"/>
<polygon points="326.9,302.3 332.9,302.3 332.9,308.3 326.9,308.3" fill="rgb(217,217,255)"/>
<polygon points="332.9,302.3 338.9,302.3 338.9,308.3 332.9,308.3" fill="rgb(255,217,217)"/>
<polygon points="338.9,302.3 344.9,302.3 344.9,308.3 338.9,308.3" fill="rgb(255,192,192)"/>
<polygon points="344.9,302.3 350.9,302.3 350.9,308.3 344.9,308.3" fill="rgb(240,240,255)"/>
<polygon points="350.9,302.3 356.9,302.3 356.9,308.3 350.9,308.3" fill="rgb(255,216,216)"/>
<polygon points="158.9,308.3 166.9,308.3 166.9,314.3 158.9,314.3" fill="rgb(112,189,182)"/><text xml:space="preserve" x="162.9" y="314.133" font-family="Calibri" font-size="7.5" fill="rgb(0,0,0)" text-anchor="middle">1</text>
<polygon points="166.9,308.3 174.9,308.3 174.9,314.3 166.9,314.3" fill="rgb(134,198,192)"/><text xml:space="preserve" x="170.9" y="314.133" font-family="Calibri" font-size="7.5" fill="rgb(0,0,0)" text-anchor="middle">2</text>
<polygon points="174.9,308.3 182.9,308.3 182.9,314.3 174.9,314.3" fill="rgb(134,198,192)"/><text xml:space="preserve" x="178.9" y="314.133" font-family="Calibri" font-size="7.5" fill="rgb(0,0,0)" text-anchor="middle">2</text>
<polygon points="192.9,308.3 198.9,308.3 198.9,314.3 192.9,314.3" fill="rgb(255,183,183)"/>
<polygon points="198.9,308.3 204.9,308.3 204.9,314.3 198.9,314.3" fill="rgb(255,191,191)"/>
<polygon points="204.9,308.3 210.9,308.3 210.9,314.3 204.9,314.3" fill="rgb(255,242,242)"/>
<polygon points="210.9,308.3 216.9,308.3 216.9,314.3 210.9,314.3" fill="rgb(238,238,255)"/>
<polygon points="216.9,308.3 222.9,308.3 222.9,314.3 216.9,314.3" fill="rgb(255,177,177)"/>
<polygon points="222.9,308.3 228.9,308.3 228.9,314.3 222.9,314.3" fill="rgb(225,225,255)"/>
<polygon points="228.9,308.3 234.9,308.3 234.9,314.3 228.9,314.3" fill="rgb(183,183,255)"/>
<polygon points="234.9,308.3 240.9,308.3 240.9,314.3 234.9,314.3" fill="rgb(164,164,255)"/>
<polygon points="250.9,308.3 256.9,308.3 256.9,314.3 250.9,314.3" fill="rgb(255,251,251)"/>
<polygon points="256.9,308.3 262.9,308.3 262.9,314.3 256.9,314.3" fill="rgb(232,232,255)"/>
<polygon points="262.9,308.3 268.9,308.3 268.9,314.3 262.9,314.3" fill="rgb(177,177,255)"/>
<polygon points="268.9,308.3 274.9,308.3 274.9,314.3 268.9,314.3" fill="rgb(183,183,255)"/>
<polygon points="274.9,308.3 280.9,308.3 280.9,314.3 274.9,314.3" fill="rgb(255,239,239)"/>
<polygon points="280.9,308.3 286.9,308.3 286.9,314.3 280.9,314.3" fill="rgb(255,224,224)"/>
<polygon points="286.9,308.3 292.9,308.3 292.9,314.3 286.9,314.3" fill="rgb(255,181,181)"/>
<polygon points="292.9,308.3 298.9,308.3 298.9,314.3 292.9,314.3" fill="rgb(255,207,207)"/>
<polygon points="308.9,308.3 314.9,308.3 314.9,314.3 308.9,314.3" fill="rgb(255,196,196)"/>
<polygon points="314.9,308.3 320.9,308.3 320.9,314.3 314.9,314.3" fill="rgb(193,193,255)"/>
<polygon points="320.9,308.3 326.9,308.3 326.9,314.3 320.9,314.3" fill="rgb(224,224,255)"/>
<polygon points="326.9,308.3 332.9,308.3 332.9,314.3 326.9,314.3" fill="rgb(255,242,242)"/>
<polygon points="332.9,308.3 338.9,308.3 338.9,314.3 332.9,314.3" fill="rgb(243,243,255)"/>
<polygon points="338.9,308.3 344.9,308.3 344.9,314.3 338.9,314.3" fill="rgb(255,183,183)"/>
<polygon points="344.9,308.3 350.9,308.3 350.9,314.3 344.9,314.3" fill="rgb(215,215,255)"/>
<polygon points="350.9,308.3 356.9,308.3 356.9,314.3 350.9,314.3" fill="rgb(255,236,236)"/>
<polygon points="158.9,314.3 166.9,314.3 166.9,320.3 158.9,320.3" fill="rgb(112,189,182)"/><text xml:space="preserve" x="162.9" y="320.133" font-family="Calibri" font-size="7.5" fill="rgb(0,0,0)" text-anchor="middle">1</text>
<polygon points="166.9,314.3 174.9,314.3 174.9,320.3 166.9,320.3" fill="rgb(134,198,192)"/><text xml:space="preserve" x="170.9" y="320.133" font-family="Calibri" font-size="7.5" fill="rgb(0,0,0)" text-anchor="middle">2</text>
<polygon points="174.9,314.3 182.9,314.3 182.9,320.3 174.9,320.3" fill="rgb(134,198,192)"/><text xml:space="preserve" x="178.9" y="320.133" font-family="Calibri" font-size="7.5" fill="rgb(0,0,0)" text-anchor="middle">2</text>
<polygon points="192.9,314.3 198.9,314.3 198.9,320.3 192.9,320.3" fill="rgb(255,131,131)"/>
<polygon points="198.9,314.3 204.9,314.3 204.9,320.3 198.9,320.3" fill="rgb(255,223,223)"/>
<polygon points="204.9,314.3 210.9,314.3 210.9,320.3 204.9,320.3" fill="rgb(209,209,255)"/>
<polygon points="210.9,314.3 216.9,314.3 216.9,320.3 210.9,320.3" fill="rgb(176,176,255)"/>
<polygon points="216.9,314.3 222.9,314.3 222.9,320.3 216.9,320.3" fill="rgb(255,63,63)"/>
<polygon points="222.9,314.3 228.9,314.3 228.9,320.3 222.9,320.3" fill="rgb(199,199,255)"/>
<polygon points="228.9,314.3 234.9,314.3 234.9,320.3 228.9,320.3" fill="rgb(141,141,255)"/>
<polygon points="234.9,314.3 240.9,314.3 240.9,320.3 234.9,320.3" fill="rgb(165,165,255)"/>
<polygon points="250.9,314.3 256.9,314.3 256.9,320.3 250.9,320.3" fill="rgb(255,213,213)"/>
<polygon points="256.9,314.3 262.9,314.3 262.9,320.3 256.9,320.3" fill="rgb(207,207,255)"/>
<polygon points="262.9,314.3 268.9,314.3 268.9,320.3 262.9,320.3" fill="rgb(121,121,255)"/>
<polygon points="268.9,314.3 274.9,314.3 274.9,320.3 268.9,320.3" fill="rgb(200,200,255)"/>
<polygon points="274.9,314.3 280.9,314.3 280.9,320.3 274.9,320.3" fill="rgb(255,174,174)"/>
<polygon points="280.9,314.3 286.9,314.3 286.9,320.3 280.9,320.3" fill="rgb(215,215,255)"/>
<polygon points="286.9,314.3 292.9,314.3 292.9,320.3 286.9,320.3" fill="rgb(218,218,255)"/>
<polygon points="292.9,314.3 298.9,314.3 298.9,320.3 292.9,320.3" fill="rgb(255,159,159)"/>
<polygon points="308.9,314.3 314.9,314.3 314.9,320.3 308.9,320.3" fill="rgb(255,147,147)"/>
<polygon points="314.9,314.3 320.9,314.3 320.9,320.3 314.9,320.3" fill="rgb(246,246,255)"/>
<polygon points="320.9,314.3 326.9,314.3 326.9,320.3 320.9,320.3" fill="rgb(243,243,255)"/>
<polygon points="326.9,314.3 332.9,314.3 332.9,320.3 326.9,320.3" fill="rgb(255,246,246)"/>
<polygon points="332.9,314.3 338.9,314.3 338.9,320.3 332.9,320.3" fill="rgb(255,159,159)"/>
<polygon points="338.9,314.3 344.9,314.3 344.9,320.3 338.9,320.3" fill="rgb(180,180,255)"/>
<polygon points="344.9,314.3 350.9,314.3 350.9,320.3 344.9,320.3" fill="rgb(178,178,255)"/>
<polygon points="350.9,314.3 356.9,314.3 356.9,320.3 350.9,320.3" fill="rgb(255,173,173)"/>
<polygon points="158.9,320.3 166.9,320.3 166.9,326.3 158.9,326.3" fill="rgb(112,189,182)"/><text xml:space="preserve" x="162.9" y="326.133" font-family="Calibri" font-size="7.5" fill="rgb(0,0,0)" text-anchor="middle">1</text>
<polygon points="166.9,320.3 174.9,320.3 174.9,326.3 166.9,326.3" fill="rgb(134,198,192)"/><text xml:space="preserve" x="170.9" y="326.133" font-family="Calibri" font-size="7.5" fill="rgb(0,0,0)" text-anchor="middle">2</text>
<polygon points="174.9,320.3 182.9,320.3 182.9,326.3 174.9,326.3" fill="rgb(134,198,192)"/><text xml:space="preserve" x="178.9" y="326.133" font-family="Calibri" font-size="7.5" fill="rgb(0,0,0)" text-anchor="middle">2</text>
<polygon points="192.9,320.3 198.9,320.3 198.9,326.3 192.9,326.3" fill="rgb(255,195,195)"/>
<polygon points="198.9,320.3 204.9,320.3 204.9,326.3 198.9,326.3" fill="rgb(254,228,228)"/>
<polygon points="204.9,320.3 210.9,320.3 210.9,326.3 204.9,326.3" fill="rgb(255,251,251)"/>
<polygon points="210.9,320.3 216.9,320.3 216.9,326.3 210.9,326.3" fill="rgb(237,237,255)"/>
<polygon points="216.9,320.3 222.9,320.3 222.9,326.3 216.9,326.3" fill="rgb(255,129,129)"/>
<polygon points="222.9,320.3 228.9,320.3 228.9,326.3 222.9,326.3" fill="rgb(222,222,255)"/>
<polygon points="228.9,320.3 234.9,320.3 234.9,326.3 228.9,326.3" fill="rgb(169,169,255)"/>
<polygon points="234.9,320.3 240.9,320.3 240.9,326.3 234.9,326.3" fill="rgb(150,150,255)"/>
<polygon points="250.9,320.3 256.9,320.3 256.9,326.3 250.9,326.3" fill="rgb(244,244,255)"/>
<polygon points="256.9,320.3 262.9,320.3 262.9,326.3 256.9,326.3" fill="rgb(188,188,255)"/>
<polygon points="262.9,320.3 268.9,320.3 268.9,326.3 262.9,326.3" fill="rgb(187,187,255)"/>
<polygon points="268.9,320.3 274.9,320.3 274.9,326.3 268.9,326.3" fill="rgb(164,164,255)"/>
<polygon points="274.9,320.3 280.9,320.3 280.9,326.3 274.9,326.3" fill="rgb(255,233,233)"/>
<polygon points="280.9,320.3 286.9,320.3 286.9,326.3 280.9,326.3" fill="rgb(255,202,202)"/>
<polygon points="286.9,320.3 292.9,320.3 292.9,326.3 286.9,326.3" fill="rgb(255,195,195)"/>
<polygon points="292.9,320.3 298.9,320.3 298.9,326.3 292.9,326.3" fill="rgb(255,191,191)"/>
<polygon points="308.9,320.3 314.9,320.3 314.9,326.3 308.9,326.3" fill="rgb(255,198,198)"/>
<polygon points="314.9,320.3 320.9,320.3 320.9,326.3 314.9,326.3" fill="rgb(184,184,255)"/>
<polygon points="320.9,320.3 326.9,320.3 326.9,326.3 320.9,326.3" fill="rgb(255,237,237)"/>
<polygon points="326.9,320.3 332.9,320.3 332.9,326.3 326.9,326.3" fill="rgb(255,232,232)"/>
<polygon points="332.9,320.3 338.9,320.3 338.9,326.3 332.9,326.3" fill="rgb(255,206,206)"/>
<polygon points="338.9,320.3 344.9,320.3 344.9,326.3 338.9,326.3" fill="rgb(255,203,203)"/>
<polygon points="344.9,320.3 350.9,320.3 350.9,326.3 344.9,326.3" fill="rgb(231,231,255)"/>
<polygon points="350.9,320.3 356.9,320.3 356.9,326.3 350.9,326.3" fill="rgb(220,220,255)"/>
<polygon points="158.9,326.3 166.9,326.3 166.9,332.3 158.9,332.3" fill="rgb(112,189,182)"/><text xml:space="preserve" x="162.9" y="332.133" font-family="Calibri" font-size="7.5" fill="rgb(0,0,0)" text-anchor="middle">1</text>
<polygon points="166.9,326.3 174.9,326.3 174.9,332.3 166.9,332.3" fill="rgb(134,198,192)"/><text xml:space="preserve" x="170.9" y="332.133" font-family="Calibri" font-size="7.5" fill="rgb(0,0,0)" text-anchor="middle">2</text>
<polygon points="174.9,326.3 182.9,326.3 182.9,332.3 174.9,332.3" fill="rgb(134,198,192)"/><text xml:space="preserve" x="178.9" y="332.133" font-family="Calibri" font-size="7.5" fill="rgb(0,0,0)" text-anchor="middle">2</text>
<polygon points="192.9,326.3 198.9,326.3 198.9,332.3 192.9,332.3" fill="rgb(255,195,195)"/>
<polygon points="198.9,326.3 204.9,326.3 204.9,332.3 198.9,332.3" fill="rgb(254,161,161)"/>
<polygon points="204.9,326.3 210.9,326.3 210.9,332.3 204.9,332.3" fill="rgb(238,238,255)"/>
<polygon points="210.9,326.3 216.9,326.3 216.9,332.3 210.9,332.3" fill="rgb(238,238,255)"/>
<polygon points="216.9,326.3 222.9,326.3 222.9,332.3 216.9,332.3" fill="rgb(255,0,0)"/>
<polygon points="222.9,326.3 228.9,326.3 228.9,332.3 222.9,332.3" fill="rgb(187,187,255)"/>
<polygon points="228.9,326.3 234.9,326.3 234.9,332.3 228.9,332.3" fill="rgb(159,159,255)"/>
<polygon points="234.9,326.3 240.9,326.3 240.9,332.3 234.9,332.3" fill="rgb(149,149,255)"/>
<polygon points="250.9,326.3 256.9,326.3 256.9,332.3 250.9,332.3" fill="rgb(255,239,239)"/>
<polygon points="256.9,326.3 262.9,326.3 262.9,332.3 256.9,332.3" fill="rgb(208,208,255)"/>
<polygon points="262.9,326.3 268.9,326.3 268.9,332.3 262.9,332.3" fill="rgb(230,230,255)"/>
<polygon points="268.9,326.3 274.9,326.3 274.9,332.3 268.9,332.3" fill="rgb(177,177,255)"/>
<polygon points="274.9,326.3 280.9,326.3 280.9,332.3 274.9,332.3" fill="rgb(255,93,93)"/>
<polygon points="280.9,326.3 286.9,326.3 286.9,332.3 280.9,332.3" fill="rgb(254,190,190)"/>
<polygon points="286.9,326.3 292.9,326.3 292.9,332.3 286.9,332.3" fill="rgb(255,221,221)"/>
<polygon points="292.9,326.3 298.9,326.3 298.9,332.3 292.9,332.3" fill="rgb(255,176,176)"/>
<polygon points="308.9,326.3 314.9,326.3 314.9,332.3 308.9,332.3" fill="rgb(255,190,190)"/>
<polygon points="314.9,326.3 320.9,326.3 320.9,332.3 314.9,332.3" fill="rgb(219,219,255)"/>
<polygon points="320.9,326.3 326.9,326.3 326.9,332.3 320.9,332.3" fill="rgb(254,243,243)"/>
<polygon points="326.9,326.3 332.9,326.3 332.9,332.3 326.9,332.3" fill="rgb(233,233,255)"/>
<polygon points="332.9,326.3 338.9,326.3 338.9,332.3 332.9,332.3" fill="rgb(255,93,93)"/>
<polygon points="338.9,326.3 344.9,326.3 344.9,332.3 338.9,332.3" fill="rgb(254,177,177)"/>
<polygon points="344.9,326.3 350.9,326.3 350.9,332.3 344.9,332.3" fill="rgb(234,234,255)"/>
<polygon points="350.9,326.3 356.9,326.3 356.9,332.3 350.9,332.3" fill="rgb(201,201,255)"/>
<polygon points="158.9,332.3 166.9,332.3 166.9,338.3 158.9,338.3" fill="rgb(112,189,182)"/><text xml:space="preserve" x="162.9" y="338.133" font-family="Calibri" font-size="7.5" fill="rgb(0,0,0)" text-anchor="middle">1</text>
<polygon points="166.9,332.3 174.9,332.3 174.9,338.3 166.9,338.3" fill="rgb(134,198,192)"/><text xml:space="preserve" x="170.9" y="338.133" font-family="Calibri" font-size="7.5" fill="rgb(0,0,0)" text-anchor="middle">2</text>
<polygon points="174.9,332.3 182.9,332.3 182.9,338.3 174.9,338.3" fill="rgb(134,198,192)"/><text xml:space="preserve" x="178.9" y="338.133" font-family="Calibri" font-size="7.5" fill="rgb(0,0,0)" text-anchor="middle">2</text>
<polygon points="192.9,332.3 198.9,332.3 198.9,338.3 192.9,338.3" fill="rgb(255,230,230)"/>
<polygon points="198.9,332.3 204.9,332.3 204.9,338.3 198.9,338.3" fill="rgb(255,203,203)"/>
<polygon points="204.9,332.3 210.9,332.3 210.9,338.3 204.9,338.3" fill="rgb(238,238,255)"/>
<polygon points="210.9,332.3 216.9,332.3 216.9,338.3 210.9,338.3" fill="rgb(197,197,255)"/>
<polygon points="216.9,332.3 222.9,332.3 222.9,338.3 216.9,338.3" fill="rgb(254,168,168)"/>
<polygon points="222.9,332.3 228.9,332.3 228.9,338.3 222.9,338.3" fill="rgb(227,227,255)"/>
<polygon points="228.9,332.3 234.9,332.3 234.9,338.3 228.9,338.3" fill="rgb(154,154,255)"/>
<polygon points="234.9,332.3 240.9,332.3 240.9,338.3 234.9,338.3" fill="rgb(156,156,255)"/>
<polygon points="250.9,332.3 256.9,332.3 256.9,338.3 250.9,338.3" fill="rgb(215,215,255)"/>
<polygon points="256.9,332.3 262.9,332.3 262.9,338.3 256.9,338.3" fill="rgb(237,237,255)"/>
<polygon points="262.9,332.3 268.9,332.3 268.9,338.3 262.9,338.3" fill="rgb(178,178,255)"/>
<polygon points="268.9,332.3 274.9,332.3 274.9,338.3 268.9,338.3" fill="rgb(167,167,255)"/>
<polygon points="274.9,332.3 280.9,332.3 280.9,338.3 274.9,338.3" fill="rgb(245,245,255)"/>
<polygon points="280.9,332.3 286.9,332.3 286.9,338.3 280.9,338.3" fill="rgb(241,241,255)"/>
<polygon points="286.9,332.3 292.9,332.3 292.9,338.3 286.9,338.3" fill="rgb(255,200,200)"/>
<polygon points="292.9,332.3 298.9,332.3 298.9,338.3 292.9,338.3" fill="rgb(255,186,186)"/>
<polygon points="308.9,332.3 314.9,332.3 314.9,338.3 308.9,338.3" fill="rgb(255,240,240)"/>
<polygon points="314.9,332.3 320.9,332.3 320.9,338.3 314.9,338.3" fill="rgb(238,238,255)"/>
<polygon points="320.9,332.3 326.9,332.3 326.9,338.3 320.9,338.3" fill="rgb(255,236,236)"/>
<polygon points="326.9,332.3 332.9,332.3 332.9,338.3 326.9,338.3" fill="rgb(255,237,237)"/>
<polygon points="332.9,332.3 338.9,332.3 338.9,338.3 332.9,338.3" fill="rgb(255,198,198)"/>
<polygon points="338.9,332.3 344.9,332.3 344.9,338.3 338.9,338.3" fill="rgb(212,212,255)"/>
<polygon points="344.9,332.3 350.9,332.3 350.9,338.3 344.9,338.3" fill="rgb(255,254,254)"/>
<polygon points="350.9,332.3 356.9,332.3 356.9,338.3 350.9,338.3" fill="rgb(242,242,255)"/>
<polygon points="158.9,338.3 166.9,338.3 166.9,344.3 158.9,344.3" fill="rgb(112,189,182)"/><text xml:space="preserve" x="162.9" y="344.133" font-family="Calibri" font-size="7.5" fill="rgb(0,0,0)" text-anchor="middle">1</text>
<polygon points="166.9,338.3 174.9,338.3 174.9,344.3 166.9,344.3" fill="rgb(134,198,192)"/><text xml:space="preserve" x="170.9" y="344.133" font-family="Calibri" font-size="7.5" fill="rgb(0,0,0)" text-anchor="middle">2</text>
<polygon points="174.9,338.3 182.9,338.3 182.9,344.3 174.9,344.3" fill="rgb(134,198,192)"/><text xml:space="preserve" x="178.9" y="344.133" font-family="Calibri" font-size="7.5" fill="rgb(0,0,0)" text-anchor="middle">2</text>
<polygon points="192.9,338.3 198.9,338.3 198.9,344.3 192.9,344.3" fill="rgb(255,182,182)"/>
<polygon points="198.9,338.3 204.9,338.3 204.9,344.3 198.9,344.3" fill="rgb(254,206,206)"/>
<polygon points="204.9,338.3 210.9,338.3 210.9,344.3 204.9,344.3" fill="rgb(196,196,255)"/>
<polygon points="210.9,338.3 216.9,338.3 216.9,344.3 210.9,344.3" fill="rgb(171,171,255)"/>
<polygon points="216.9,338.3 222.9,338.3 222.9,344.3 216.9,344.3" fill="rgb(255,114,114)"/>
<polygon points="222.9,338.3 228.9,338.3 228.9,344.3 222.9,344.3" fill="rgb(111,111,255)"/>
<polygon points="228.9,338.3 234.9,338.3 234.9,344.3 228.9,344.3" fill="rgb(180,180,255)"/>
<polygon points="234.9,338.3 240.9,338.3 240.9,344.3 234.9,344.3" fill="rgb(152,152,255)"/>
<polygon points="250.9,338.3 256.9,338.3 256.9,344.3 250.9,344.3" fill="rgb(248,248,255)"/>
<polygon points="256.9,338.3 262.9,338.3 262.9,344.3 256.9,344.3" fill="rgb(207,207,255)"/>
<polygon points="262.9,338.3 268.9,338.3 268.9,344.3 262.9,344.3" fill="rgb(82,82,255)"/>
<polygon points="268.9,338.3 274.9,338.3 274.9,344.3 268.9,344.3" fill="rgb(173,173,255)"/>
<polygon points="274.9,338.3 280.9,338.3 280.9,344.3 274.9,344.3" fill="rgb(255,182,182)"/>
<polygon points="280.9,338.3 286.9,338.3 286.9,344.3 280.9,344.3" fill="rgb(254,214,214)"/>
<polygon points="286.9,338.3 292.9,338.3 292.9,344.3 286.9,344.3" fill="rgb(255,181,181)"/>
<polygon points="292.9,338.3 298.9,338.3 298.9,344.3 292.9,344.3" fill="rgb(254,182,182)"/>
<polygon points="308.9,338.3 314.9,338.3 314.9,344.3 308.9,344.3" fill="rgb(255,142,142)"/>
<polygon points="314.9,338.3 320.9,338.3 320.9,344.3 314.9,344.3" fill="rgb(189,189,255)"/>
<polygon points="320.9,338.3 326.9,338.3 326.9,344.3 320.9,344.3" fill="rgb(215,215,255)"/>
<polygon points="326.9,338.3 332.9,338.3 332.9,344.3 326.9,344.3" fill="rgb(255,235,235)"/>
<polygon points="332.9,338.3 338.9,338.3 338.9,344.3 332.9,344.3" fill="rgb(255,148,148)"/>
<polygon points="338.9,338.3 344.9,338.3 344.9,344.3 338.9,344.3" fill="rgb(255,185,185)"/>
<polygon points="344.9,338.3 350.9,338.3 350.9,344.3 344.9,344.3" fill="rgb(255,243,243)"/>
<polygon points="350.9,338.3 356.9,338.3 356.9,344.3 350.9,344.3" fill="rgb(255,190,190)"/>
<polygon points="158.9,344.3 166.9,344.3 166.9,350.3 158.9,350.3" fill="rgb(112,189,182)"/><text xml:space="preserve" x="162.9" y="350.133" font-family="Calibri" font-size="7.5" fill="rgb(0,0,0)" text-anchor="middle">1</text>
<polygon points="166.9,344.3 174.9,344.3 174.9,350.3 166.9,350.3" fill="rgb(134,198,192)"/><text xml:space="preserve" x="170.9" y="350.133" font-family="Calibri" font-size="7.5" fill="rgb(0,0,0)" text-anchor="middle">2</text>
<polygon points="174.9,344.3 182.9,344.3 182.9,350.3 174.9,350.3" fill="rgb(134,198,192)"/><text xml:space="preserve" x="178.9" y="350.133" font-family="Calibri" font-size="7.5" fill="rgb(0,0,0)" text-anchor="middle">2</text>
<polygon points="192.9,344.3 198.9,344.3 198.9,350.3 192.9,350.3" fill="rgb(255,172,172)"/>
<polygon points="198.9,344.3 204.9,344.3 204.9,350.3 198.9,350.3" fill="rgb(255,213,213)"/>
<polygon points="204.9,344.3 210.9,344.3 210.9,350.3 204.9,350.3" fill="rgb(240,240,255)"/>
<polygon points="210.9,344.3 216.9,344.3 216.9,350.3 210.9,350.3" fill="rgb(197,197,255)"/>
<polygon points="216.9,344.3 222.9,344.3 222.9,350.3 216.9,350.3" fill="rgb(255,171,171)"/>
<polygon points="222.9,344.3 228.9,344.3 228.9,350.3 222.9,350.3" fill="rgb(185,185,255)"/>
<polygon points="228.9,344.3 234.9,344.3 234.9,350.3 228.9,350.3" fill="rgb(170,170,255)"/>
<polygon points="234.9,344.3 240.9,344.3 240.9,350.3 234.9,350.3" fill="rgb(160,160,255)"/>
<polygon points="250.9,344.3 256.9,344.3 256.9,350.3 250.9,350.3" fill="rgb(255,228,228)"/>
<polygon points="256.9,344.3 262.9,344.3 262.9,350.3 256.9,350.3" fill="rgb(221,221,255)"/>
<polygon points="262.9,344.3 268.9,344.3 268.9,350.3 262.9,350.3" fill="rgb(140,140,255)"/>
<polygon points="268.9,344.3 274.9,344.3 274.9,350.3 268.9,350.3" fill="rgb(158,158,255)"/>
<polygon points="274.9,344.3 280.9,344.3 280.9,350.3 274.9,350.3" fill="rgb(253,253,255)"/>
<polygon points="280.9,344.3 286.9,344.3 286.9,350.3 280.9,350.3" fill="rgb(254,201,201)"/>
<polygon points="286.9,344.3 292.9,344.3 292.9,350.3 286.9,350.3" fill="rgb(226,226,255)"/>
<polygon points="292.9,344.3 298.9,344.3 298.9,350.3 292.9,350.3" fill="rgb(255,253,253)"/>
<polygon points="308.9,344.3 314.9,344.3 314.9,350.3 308.9,350.3" fill="rgb(255,183,183)"/>
<polygon points="314.9,344.3 320.9,344.3 320.9,350.3 314.9,350.3" fill="rgb(223,223,255)"/>
<polygon points="320.9,344.3 326.9,344.3 326.9,350.3 320.9,350.3" fill="rgb(255,212,212)"/>
<polygon points="326.9,344.3 332.9,344.3 332.9,350.3 326.9,350.3" fill="rgb(255,205,205)"/>
<polygon points="332.9,344.3 338.9,344.3 338.9,350.3 332.9,350.3" fill="rgb(255,119,119)"/>
<polygon points="338.9,344.3 344.9,344.3 344.9,350.3 338.9,350.3" fill="rgb(255,213,213)"/>
<polygon points="344.9,344.3 350.9,344.3 350.9,350.3 344.9,350.3" fill="rgb(178,178,255)"/>
<polygon points="350.9,344.3 356.9,344.3 356.9,350.3 350.9,350.3" fill="rgb(194,194,255)"/>
<polygon points="158.9,212.3 182.9,212.3 182.9,350.3 158.9,350.3" fill="none" stroke="black" stroke-width="1"/>
<polygon points="192.9,212.3 240.9,212.3 240.9,350.3 192.9,350.3" fill="none" stroke="black" stroke-width="1"/>
<polygon points="250.9,212.3 298.9,212.3 298.9,350.3 250.9,350.3" fill="none" stroke="black" stroke-width="1"/>
<polygon points="308.9,212.3 356.9,212.3 356.9,350.3 308.9,350.3" fill="none" stroke="black" stroke-width="1"/>
<text xml:space="preserve" x="199.45" y="382.633" font-family="Calibri" font-size="6" text-anchor="middle">moduleID</text>
<polygon points="89.45,390.3 109.45,390.3 109.45,410.3 89.45,410.3" fill="rgb(250,250,250)"/><polygon points="89.45,390.3 109.45,390.3 109.45,410.3 89.45,410.3" fill="none" stroke="black" stroke-width="1"/><text xml:space="preserve" x="99.45" y="403.133" font-family="Calibri" font-size="7.5" fill="rgb(0,0,0)" text-anchor="middle">-2.0</text>
<polygon points="109.45,390.3 129.45,390.3 129.45,410.3 109.45,410.3" fill="rgb(156,210,205)"/><polygon points="109.45,390.3 129.45,390.3 129.45,410.3 109.45,410.3" fill="none" stroke="black" stroke-width="1"/><text xml:space="preserve" x="119.45" y="403.133" font-family="Calibri" font-size="7.5" fill="rgb(0,0,0)" text-anchor="middle">-0.4</text>
<polygon points="129.45,390.3 149.45,390.3 149.45,410.3 129.45,410.3" fill="rgb(116,191,184)"/><polygon points="129.45,390.3 149.45,390.3 149.45,410.3 129.45,410.3" fill="none" stroke="black" stroke-width="1"/><text xml:space="preserve" x="139.45" y="403.133" font-family="Calibri" font-size="7.5" fill="rgb(0,0,0)" text-anchor="middle">1.2</text>
<polygon points="149.45,390.3 169.45,390.3 169.45,410.3 149.45,410.3" fill="rgb(152,206,201)"/><polygon points="149.45,390.3 169.45,390.3 169.45,410.3 149.45,410.3" fill="none" stroke="black" stroke-width="1"/><text xml:space="preserve" x="159.45" y="403.133" font-family="Calibri" font-size="7.5" fill="rgb(0,0,0)" text-anchor="middle">2.8</text>
<polygon points="169.45,390.3 189.45,390.3 189.45,410.3 169.45,410.3" fill="rgb(187,220,217)"/><polygon points="169.45,390.3 189.45,390.3 189.45,410.3 169.45,410.3" fill="none" stroke="black" stroke-width="1"/><text xml:space="preserve" x="179.45" y="403.133" font-family="Calibri" font-size="7.5" fill="rgb(0,0,0)" text-anchor="middle">4.4</text>
<polygon points="189.45,390.3 209.45,390.3 209.45,410.3 189.45,410.3" fill="rgb(222,235,234)"/><polygon points="189.45,390.3 209.45,390.3 209.45,410.3 189.45,410.3" fill="none" stroke="black" stroke-width="1"/><text xml:space="preserve" x="199.45" y="403.133" font-family="Calibri" font-size="7.5" fill="rgb(0,0,0)" text-anchor="middle">6.0</text>
<polygon points="209.45,390.3 229.45,390.3 229.45,410.3 209.45,410.3" fill="rgb(242,239,232)"/><polygon points="209.45,390.3 229.45,390.3 229.45,410.3 209.45,410.3" fill="none" stroke="black" stroke-width="1"/><text xml:space="preserve" x="219.45" y="403.133" font-family="Calibri" font-size="7.5" fill="rgb(0,0,0)" text-anchor="middle">7.6</text>
<polygon points="229.45,390.3 249.45,390.3 249.45,410.3 229.45,410.3" fill="rgb(235,224,199)"/><polygon points="229.45,390.3 249.45,390.3 249.45,410.3 229.45,410.3" fill="none" stroke="black" stroke-width="1"/><text xml:space="preserve" x="239.45" y="403.133" font-family="Calibri" font-size="7.5" fill="rgb(0,0,0)" text-anchor="middle">9.2</text>
<polygon points="249.45,390.3 269.45,390.3 269.45,410.3 249.45,410.3" fill="rgb(229,209,166)"/><polygon points="249.45,390.3 269.45,390.3 269.45,410.3 249.45,410.3" fill="none" stroke="black" stroke-width="1"/><text xml:space="preserve" x="259.45" y="403.133" font-family="Calibri" font-size="7.5" fill="rgb(0,0,0)" text-anchor="middle">10.8</text>
<polygon points="269.45,390.3 289.45,390.3 289.45,410.3 269.45,410.3" fill="rgb(222,194,133)"/><polygon points="269.45,390.3 289.45,390.3 289.45,410.3 269.45,410.3" fill="none" stroke="black" stroke-width="1"/><text xml:space="preserve" x="279.45" y="403.133" font-family="Calibri" font-size="7.5" fill="rgb(0,0,0)" text-anchor="middle">12.4</text>
<polygon points="289.45,390.3 309.45,390.3 309.45,410.3 289.45,410.3" fill="rgb(216,179,101)"/><polygon points="289.45,390.3 309.45,390.3 309.45,410.3 289.45,410.3" fill="none" stroke="black" stroke-width="1"/><text xml:space="preserve" x="299.45" y="403.133" font-family="Calibri" font-size="7.5" fill="rgb(0,0,0)" text-anchor="middle">14.0</text>
<text xml:space="preserve" x="199.45" y="442.633" font-family="Calibri" font-size="6" text-anchor="middle">marklevel</text>
<polygon points="89.45,450.3 109.45,450.3 109.45,470.3 89.45,470.3" fill="rgb(0,0,255)"/><polygon points="89.45,450.3 109.45,450.3 109.45,470.3 89.45,470.3" fill="none" stroke="black" stroke-width="1"/><text xml:space="preserve" x="99.45" y="463.133" font-family="Calibri" font-size="7.5" fill="rgb(255,255,255)" text-anchor="middle">-2.0</text>
<polygon points="109.45,450.3 129.45,450.3 129.45,470.3 109.45,470.3" fill="rgb(50,50,255)"/><polygon points="109.45,450.3 129.45,450.3 129.45,470.3 109.45,470.3" fill="none" stroke="black" stroke-width="1"/><text xml:space="preserve" x="119.45" y="463.133" font-family="Calibri" font-size="7.5" fill="rgb(255,255,255)" text-anchor="middle">-1.6</text>
<polygon points="129.45,450.3 149.45,450.3 149.45,470.3 129.45,470.3" fill="rgb(102,102,255)"/><polygon points="129.45,450.3 149.45,450.3 149.45,470.3 129.45,470.3" fill="none" stroke="black" stroke-width="1"/><text xml:space="preserve" x="139.45" y="463.133" font-family="Calibri" font-size="7.5" fill="rgb(255,255,255)" text-anchor="middle">-1.2</text>
<polygon points="149.45,450.3 169.45,450.3 169.45,470.3 149.45,470.3" fill="rgb(153,153,255)"/><polygon points="149.45,450.3 169.45,450.3 169.45,470.3 149.45,470.3" fill="none" stroke="black" stroke-width="1"/><text xml:space="preserve" x="159.45" y="463.133" font-family="Calibri" font-size="7.5" fill="rgb(0,0,0)" text-anchor="middle">-0.8</text>
<polygon points="169.45,450.3 189.45,450.3 189.45,470.3 169.45,470.3" fill="rgb(204,204,255)"/><polygon points="169.45,450.3 189.45,450.3 189.45,470.3 169.45,470.3" fill="none" stroke="black" stroke-width="1"/><text xml:space="preserve" x="179.45" y="463.133" font-family="Calibri" font-size="7.5" fill="rgb(0,0,0)" text-anchor="middle">-0.4</text>
<polygon points="189.45,450.3 209.45,450.3 209.45,470.3 189.45,470.3" fill="rgb(255,255,255)"/><polygon points="189.45,450.3 209.45,450.3 209.45,470.3 189.45,470.3" fill="none" stroke="black" stroke-width="1"/><text xml:space="preserve" x="199.45" y="463.133" font-family="Calibri" font-size="7.5" fill="rgb(0,0,0)" text-anchor="middle">0.0</text>
<polygon points="209.45,450.3 229.45,450.3 229.45,470.3 209.45,470.3" fill="rgb(255,204,204)"/><polygon points="209.45,450.3 229.45,450.3 229.45,470.3 209.45,470.3" fill="none" stroke="black" stroke-width="1"/><text xml:space="preserve" x="219.45" y="463.133" font-family="Calibri" font-size="7.5" fill="rgb(0,0,0)" text-anchor="middle">0.4</text>
<polygon points="229.45,450.3 249.45,450.3 249.45,470.3 229.45,470.3" fill="rgb(255,153,153)"/><polygon points="229.45,450.3 249.45,450.3 249.45,470.3 229.45,470.3" fill="none" stroke="black" stroke-width="1"/><text xml:space="preserve" x="239.45" y="463.133" font-family="Calibri" font-size="7.5" fill="rgb(0,0,0)" text-anchor="middle">0.8</text>
<polygon points="249.45,450.3 269.45,450.3 269.45,470.3 249.45,470.3" fill="rgb(255,102,102)"/><polygon points="249.45,450.3 269.45,450.3 269.45,470.3 249.45,470.3" fill="none" stroke="black" stroke-width="1"/><text xml:space="preserve" x="259.45" y="463.133" font-family="Calibri" font-size="7.5" fill="rgb(0,0,0)" text-anchor="middle">1.2</text>
<polygon points="269.45,450.3 289.45,450.3 289.45,470.3 269.45,470.3" fill="rgb(255,50,50)"/><polygon points="269.45,450.3 289.45,450.3 289.45,470.3 269.45,470.3" fill="none" stroke="black" stroke-width="1"/><text xml:space="preserve" x="279.45" y="463.133" font-family="Calibri" font-size="7.5" fill="rgb(255,255,255)" text-anchor="middle">1.6</text>
<polygon points="289.45,450.3 309.45,450.3 309.45,470.3 289.45,470.3" fill="rgb(255,0,0)"/><polygon points="289.45,450.3 309.45,450.3 309.45,470.3 289.45,470.3" fill="none" stroke="black" stroke-width="1"/><text xml:space="preserve" x="299.45" y="463.133" font-family="Calibri" font-size="7.5" fill="rgb(255,255,255)" text-anchor="middle">2.0</text>
</svg>
