<?xml version="1.0" standalone="no"?><!DOCTYPE svg PUBLIC "-//W3C//DTD SVG 1.1//EN" "http://www.w3.org/Graphics/SVG/1.1/DTD/svg11.dtd">
<svg width="398" height="424.3" version="1.1" xmlns="http://www.w3.org/2000/svg">
<text xml:space="preserve" x="154" y="217.633" font-family="Calibri" font-size="6" text-anchor="end">6330581L23Rik</text>
<text xml:space="preserve" x="154" y="223.633" font-family="Calibri" font-size="6" text-anchor="end">Zfp319</text>
<text xml:space="preserve" x="154" y="229.633" font-family="Calibri" font-size="6" text-anchor="end">Fibp</text>
<text xml:space="preserve" x="154" y="235.633" font-family="Calibri" font-size="6" text-anchor="end">Camk2d</text>
<text xml:space="preserve" x="154" y="241.633" font-family="Calibri" font-size="6" text-anchor="end">Rdh10</text>
<text xml:space="preserve" x="154" y="247.633" font-family="Calibri" font-size="6" text-anchor="end">Adam9</text>
<text xml:space="preserve" x="154" y="253.633" font-family="Calibri" font-size="6" text-anchor="end">Usp47</text>
<text xml:space="preserve" x="154" y="259.633" font-family="Calibri" font-size="6" text-anchor="end">Ube2j1</text>
<text xml:space="preserve" x="154" y="265.633" font-family="Calibri" font-size="6" text-anchor="end">Sufu</text>
<text xml:space="preserve" x="154" y="271.633" font-family="Calibri" font-size="6" text-anchor="end">Sfrs9</text>
<text xml:space="preserve" x="154" y="277.633" font-family="Calibri" font-size="6" text-anchor="end">1810031K17Rik</text>
<text xml:space="preserve" x="154" y="283.633" font-family="Calibri" font-size="6" text-anchor="end">Arhgef11</text>
<text xml:space="preserve" x="164.333" y="208.3" font-family="Calibri" font-size="6" transform="rotate(270 164.333 208.3)">ips</text>
<text xml:space="preserve" x="172.333" y="208.3" font-family="Calibri" font-size="6" transform="rotate(270 172.333 208.3)">pips</text>
<text xml:space="preserve" x="180.333" y="208.3" font-family="Calibri" font-size="6" transform="rotate(270 180.333 208.3)">mef</text>
<text xml:space="preserve" x="197.333" y="208.3" font-family="Calibri" font-size="6" transform="rotate(270 197.333 208.3)">ips_H3K4me3iPS</text>
<text xml:space="preserve" x="203.333" y="208.3" font-family="Calibri" font-size="6" transform="rotate(270 203.333 208.3)">ips_H3K9aciPS</text>
<text xml:space="preserve" x="209.333" y="208.3" font-family="Calibri" font-size="6" transform="rotate(270 209.333 208.3)">ips_H3K14aciPS</text>
<text xml:space="preserve" x="215.333" y="208.3" font-family="Calibri" font-size="6" transform="rotate(270 215.333 208.3)">ips_H3K18aciPS</text>
<text xml:space="preserve" x="221.333" y="208.3" font-family="Calibri" font-size="6" transform="rotate(270 221.333 208.3)">ips_H3K79me2iPS</text>
<text xml:space="preserve" x="227.333" y="208.3" font-family="Calibri" font-size="6" transform="rotate(270 227.333 208.3)">ips_H3K9me2iPS</text>
<text xml:space="preserve" x="233.333" y="208.3" font-family="Calibri" font-size="6" transform="rotate(270 233.333 208.3)">ips_H3K9me3iPS</text>
<text xml:space="preserve" x="239.333" y="208.3" font-family="Calibri" font-size="6" transform="rotate(270 239.333 208.3)">ips_H3K27me3iPS</text>
<text xml:space="preserve" x="255.333" y="208.3" font-family="Calibri" font-size="6" transform="rotate(270 255.333 208.3)">pips_H3K4me3pips</text>
<text xml:space="preserve" x="261.333" y="208.3" font-family="Calibri" font-size="6" transform="rotate(270 261.333 208.3)">pips_H3K9acpips</text>
<text xml:space="preserve" x="267.333" y="208.3" font-family="Calibri" font-size="6" transform="rotate(270 267.333 208.3)">pips_H3K14acpips</text>
<text xml:space="preserve" x="273.333" y="208.3" font-family="Calibri" font-size="6" transform="rotate(270 273.333 208.3)">pips_H3K18acpips</text>
<text xml:space="preserve" x="279.333" y="208.3" font-family="Calibri" font-size="6" transform="rotate(270 279.333 208.3)">pips_H3K79me2pips</text>
<text xml:space="preserve" x="285.333" y="208.3" font-family="Calibri" font-size="6" transform="rotate(270 285.333 208.3)">pips_H3K9me2pips</text>
<text xml:space="preserve" x="291.333" y="208.3" font-family="Calibri" font-size="6" transform="rotate(270 291.333 208.3)">pips_H3K9me3pips</text>
<text xml:space="preserve" x="297.333" y="208.3" font-family="Calibri" font-size="6" transform="rotate(270 297.333 208.3)">pips_H3K27me3pips</text>
<text xml:space="preserve" x="313.333" y="208.3" font-family="Calibri" font-size="6" transform="rotate(270 313.333 208.3)">mef_H3K4me3mef</text>
<text xml:space="preserve" x="319.333" y="208.3" font-family="Calibri" font-size="6" transform="rotate(270 319.333 208.3)">mef_H3K9acmef</text>
<text xml:space="preserve" x="325.333" y="208.3" font-family="Calibri" font-size="6" transform="rotate(270 325.333 208.3)">mef_H3K14acmef</text>
<text xml:space="preserve" x="331.333" y="208.3" font-family="Calibri" font-size="6" transform="rotate(270 331.333 208.3)">mef_H3K18acmef</text>
<text xml:space="preserve" x="337.333" y="208.3" font-family="Calibri" font-size="6" transform="rotate(270 337.333 208.3)">mef_H3K79me2mef</text>
<text xml:space="preserve" x="343.333" y="208.3" font-family="Calibri" font-size="6" transform="rotate(270 343.333 208.3)">mef_H3K9me2mef</text>
<text xml:space="preserve" x="349.333" y="208.3" font-family="Calibri" font-size="6" transform="rotate(270 349.333 208.3)">mef_H3K9me3mef</text>
<text xml:space="preserve" x="355.333" y="208.3" font-family="Calibri" font-size="6" transform="rotate(270 355.333 208.3)">mef_H3K27me3mef</text>
<polygon points="158,212.3 166,212.3 166,218.3 158,218.3" fill="rgb(216,179,101)"/><text xml:space="preserve" x="162" y="218.133" font-family="Calibri" font-size="7.5" fill="rgb(0,0,0)" text-anchor="middle">15</text>
<polygon points="166,212.3 174,212.3 174,218.3 166,218.3" fill="rgb(232,216,183)"/><text xml:space="preserve" x="170" y="218.133" font-family="Calibri" font-size="7.5" fill="rgb(0,0,0)" text-anchor="middle">10</text>
<polygon points="174,212.3 182,212.3 182,218.3 174,218.3" fill="rgb(222,235,234)"/><text xml:space="preserve" x="178" y="218.133" font-family="Calibri" font-size="7.5" fill="rgb(0,0,0)" text-anchor="middle">6</text>
<polygon points="192,212.3 198,212.3 198,218.3 192,218.3" fill="rgb(255,113,113)"/>
<polygon points="198,212.3 204,212.3 204,218.3 198,218.3" fill="rgb(255,197,197)"/>
<polygon points="204,212.3 210,212.3 210,218.3 204,218.3" fill="rgb(241,241,255)"/>
<polygon points="210,212.3 216,212.3 216,218.3 210,218.3" fill="rgb(238,238,255)"/>
<polygon points="216,212.3 222,212.3 222,218.3 216,218.3" fill="rgb(255,236,236)"/>
<polygon points="222,212.3 228,212.3 228,218.3 222,218.3" fill="rgb(255,196,196)"/>
<polygon points="228,212.3 234,212.3 234,218.3 228,218.3" fill="rgb(255,99,99)"/>
<polygon points="234,212.3 240,212.3 240,218.3 234,218.3" fill="rgb(164,164,255)"/>
<polygon points="250,212.3 256,212.3 256,218.3 250,218.3" fill="rgb(255,114,114)"/>
<polygon points="256,212.3 262,212.3 262,218.3 256,218.3" fill="rgb(255,161,161)"/>
<polygon points="262,212.3 268,212.3 268,218.3 262,218.3" fill="rgb(255,189,189)"/>
<polygon points="268,212.3 274,212.3 274,218.3 268,218.3" fill="rgb(255,217,217)"/>
<polygon points="274,212.3 280,212.3 280,218.3 274,218.3" fill="rgb(255,181,181)"/>
<polygon points="280,212.3 286,212.3 286,218.3 280,218.3" fill="rgb(227,227,255)"/>
<polygon points="286,212.3 292,212.3 292,218.3 286,218.3" fill="rgb(238,238,255)"/>
<polygon points="292,212.3 298,212.3 298,218.3 292,218.3" fill="rgb(192,192,255)"/>
<polygon points="308,212.3 314,212.3 314,218.3 308,218.3" fill="rgb(255,48,48)"/>
<polygon points="314,212.3 320,212.3 320,218.3 314,218.3" fill="rgb(255,111,111)"/>
<polygon points="320,212.3 326,212.3 326,218.3 320,218.3" fill="rgb(255,156,156)"/>
<polygon points="326,212.3 332,212.3 332,218.3 326,218.3" fill="rgb(255,201,201)"/>
<polygon points="332,212.3 338,212.3 338,218.3 332,218.3" fill="rgb(255,97,97)"/>
<polygon points="338,212.3 344,212.3 344,218.3 338,218.3" fill="rgb(254,220,220)"/>
<polygon points="344,212.3 350,212.3 350,218.3 344,218.3" fill="rgb(214,214,255)"/>
<polygon points="350,212.3 356,212.3 356,218.3 350,218.3" fill="rgb(189,189,255)"/>
<polygon points="158,218.3 166,218.3 166,224.3 158,224.3" fill="rgb(216,179,101)"/><text xml:space="preserve" x="162" y="224.133" font-family="Calibri" font-size="7.5" fill="rgb(0,0,0)" text-anchor="middle">15</text>
<polygon points="166,218.3 174,218.3 174,224.3 166,224.3" fill="rgb(232,216,183)"/><text xml:space="preserve" x="170" y="224.133" font-family="Calibri" font-size="7.5" fill="rgb(0,0,0)" text-anchor="middle">10</text>
<polygon points="174,218.3 182,218.3 182,224.3 174,224.3" fill="rgb(222,235,234)"/><text xml:space="preserve" x="178" y="224.133" font-family="Calibri" font-size="7.5" fill="rgb(0,0,0)" text-anchor="middle">6</text>
<polygon points="192,218.3 198,218.3 198,224.3 192,224.3" fill="rgb(255,146,146)"/>
<polygon points="198,218.3 204,218.3 204,224.3 198,224.3" fill="rgb(255,160,160)"/>
<polygon points="204,218.3 210,218.3 210,224.3 204,224.3" fill="rgb(255,208,208)"/>
<polygon points="210,218.3 216,218.3 216,224.3 210,224.3" fill="rgb(254,195,195)"/>
<polygon points="216,218.3 222,218.3 222,224.3 216,224.3" fill="rgb(255,201,201)"/>
<polygon points="222,218.3 228,218.3 228,224.3 222,224.3" fill="rgb(254,247,247)"/>
<polygon points="228,218.3 234,218.3 234,224.3 228,224.3" fill="rgb(255,226,226)"/>
<polygon points="234,218.3 240,218.3 240,224.3 234,224.3" fill="rgb(255,198,198)"/>
<polygon points="250,218.3 256,218.3 256,224.3 250,224.3" fill="rgb(255,165,165)"/>
<polygon points="256,218.3 262,218.3 262,224.3 256,224.3" fill="rgb(255,149,149)"/>
<polygon points="262,218.3 268,218.3 268,224.3 262,224.3" fill="rgb(255,235,235)"/>
<polygon points="268,218.3 274,218.3 274,224.3 268,224.3" fill="rgb(255,201,201)"/>
<polygon points="274,218.3 280,218.3 280,224.3 274,224.3" fill="rgb(255,149,149)"/>
<polygon points="280,218.3 286,218.3 286,224.3 280,224.3" fill="rgb(244,244,255)"/>
<polygon points="286,218.3 292,218.3 292,224.3 286,224.3" fill="rgb(255,251,251)"/>
<polygon points="292,218.3 298,218.3 298,224.3 292,224.3" fill="rgb(221,221,255)"/>
<polygon points="308,218.3 314,218.3 314,224.3 308,224.3" fill="rgb(255,123,123)"/>
<polygon points="314,218.3 320,218.3 320,224.3 314,224.3" fill="rgb(255,86,86)"/>
<polygon points="320,218.3 326,218.3 326,224.3 320,224.3" fill="rgb(255,137,137)"/>
<polygon points="326,218.3 332,218.3 332,224.3 326,224.3" fill="rgb(255,158,158)"/>
<polygon points="332,218.3 338,218.3 338,224.3 332,224.3" fill="rgb(255,84,84)"/>
<polygon points="338,218.3 344,218.3 344,224.3 338,224.3" fill="rgb(167,167,255)"/>
<polygon points="344,218.3 350,218.3 350,224.3 344,224.3" fill="rgb(227,227,255)"/>
<polygon points="350,218.3 356,218.3 356,224.3 350,224.3" fill="rgb(222,222,255)"/>
<polygon points="158,224.3 166,224.3 166,230.3 158,230.3" fill="rgb(216,179,101)"/><text xml:space="preserve" x="162" y="230.133" font-family="Calibri" font-size="7.5" fill="rgb(0,0,0)" text-anchor="middle">15</text>
<polygon points="166,224.3 174,224.3 174,230.3 166,230.3" fill="rgb(232,216,183)"/><text xml:space="preserve" x="170" y="230.133" font-family="Calibri" font-size="7.5" fill="rgb(0,0,0)" text-anchor="middle">10</text>
<polygon points="174,224.3 182,224.3 182,230.3 174,230.3" fill="rgb(222,235,234)"/><text xml:space="preserve" x="178" y="230.133" font-family="Calibri" font-size="7.5" fill="rgb(0,0,0)" text-anchor="middle">6</text>
<polygon points="192,224.3 198,224.3 198,230.3 192,230.3" fill="rgb(255,136,136)"/>
<polygon points="198,224.3 204,224.3 204,230.3 198,230.3" fill="rgb(255,171,171)"/>
<polygon points="204,224.3 210,224.3 210,230.3 204,230.3" fill="rgb(255,222,222)"/>
<polygon points="210,224.3 216,224.3 216,230.3 210,230.3" fill="rgb(241,241,255)"/>
<polygon points="216,224.3 222,224.3 222,230.3 216,230.3" fill="rgb(255,190,190)"/>
<polygon points="222,224.3 228,224.3 228,230.3 222,230.3" fill="rgb(208,208,255)"/>
<polygon points="228,224.3 234,224.3 234,230.3 228,230.3" fill="rgb(255,250,250)"/>
<polygon points="234,224.3 240,224.3 240,230.3 234,230.3" fill="rgb(255,232,232)"/>
<polygon points="250,224.3 256,224.3 256,230.3 250,230.3" fill="rgb(255,183,183)"/>
<polygon points="256,224.3 262,224.3 262,230.3 256,230.3" fill="rgb(255,154,154)"/>
<polygon points="262,224.3 268,224.3 268,230.3 262,230.3" fill="rgb(255,203,203)"/>
<polygon points="268,224.3 274,224.3 274,230.3 268,230.3" fill="rgb(255,239,239)"/>
<polygon points="274,224.3 280,224.3 280,230.3 274,230.3" fill="rgb(255,178,178)"/>
<polygon points="280,224.3 286,224.3 286,230.3 280,230.3" fill="rgb(234,234,255)"/>
<polygon points="286,224.3 292,224.3 292,230.3 286,230.3" fill="rgb(217,217,255)"/>
<polygon points="292,224.3 298,224.3 298,230.3 292,230.3" fill="rgb(189,189,255)"/>
<polygon points="308,224.3 314,224.3 314,230.3 308,230.3" fill="rgb(255,108,108)"/>
<polygon points="314,224.3 320,224.3 320,230.3 314,230.3" fill="rgb(255,83,83)"/>
<polygon points="320,224.3 326,224.3 326,230.3 320,230.3" fill="rgb(255,228,228)"/>
<polygon points="326,224.3 332,224.3 332,230.3 326,230.3" fill="rgb(255,181,181)"/>
<polygon points="332,224.3 338,224.3 338,230.3 332,230.3" fill="rgb(254,139,139)"/>
<polygon points="338,224.3 344,224.3 344,230.3 338,230.3" fill="rgb(151,151,255)"/>
<polygon points="344,224.3 350,224.3 350,230.3 344,230.3" fill="rgb(181,181,255)"/>
<polygon points="350,224.3 356,224.3 356,230.3 350,230.3" fill="rgb(169,169,255)"/>
<polygon points="158,230.3 166,230.3 166,236.3 158,236.3" fill="rgb(216,179,101)"/><text xml:space="preserve" x="162" y="236.133" font-family="Calibri" font-size="7.5" fill="rgb(0,0,0)" text-anchor="middle">15</text>
<polygon points="166,230.3 174,230.3 174,236.3 166,236.3" fill="rgb(232,216,183)"/><text xml:space="preserve" x="170" y="236.133" font-family="Calibri" font-size="7.5" fill="rgb(0,0,0)" text-anchor="middle">10</text>
<polygon points="174,230.3 182,230.3 182,236.3 174,236.3" fill="rgb(222,235,234)"/><text xml:space="preserve" x="178" y="236.133" font-family="Calibri" font-size="7.5" fill="rgb(0,0,0)" text-anchor="middle">6</text>
<polygon points="192,230.3 198,230.3 198,236.3 192,236.3" fill="rgb(255,146,146)"/>
<polygon points="198,230.3 204,230.3 204,236.3 198,236.3" fill="rgb(255,203,203)"/>
<polygon points="204,230.3 210,230.3 210,236.3 204,236.3" fill="rgb(249,249,255)"/>
<polygon points="210,230.3 216,230.3 216,236.3 210,236.3" fill="rgb(255,221,221)"/>
<polygon points="216,230.3 222,230.3 222,236.3 216,236.3" fill="rgb(254,228,228)"/>
<polygon points="222,230.3 228,230.3 228,236.3 222,236.3" fill="rgb(234,234,255)"/>
<polygon points="228,230.3 234,230.3 234,236.3 228,236.3" fill="rgb(255,233,233)"/>
<polygon points="234,230.3 240,230.3 240,236.3 234,236.3" fill="rgb(255,140,140)"/>
<polygon points="250,230.3 256,230.3 256,236.3 250,236.3" fill="rgb(254,174,174)"/>
<polygon points="256,230.3 262,230.3 262,236.3 256,236.3" fill="rgb(255,134,134)"/>
<polygon points="262,230.3 268,230.3 268,236.3 262,236.3" fill="rgb(255,218,218)"/>
<polygon points="268,230.3 274,230.3 274,236.3 268,236.3" fill="rgb(255,140,140)"/>
<polygon points="274,230.3 280,230.3 280,236.3 274,236.3" fill="rgb(255,150,150)"/>
<polygon points="280,230.3 286,230.3 286,236.3 280,236.3" fill="rgb(214,214,255)"/>
<polygon points="286,230.3 292,230.3 292,236.3 286,236.3" fill="rgb(238,238,255)"/>
<polygon points="292,230.3 298,230.3 298,236.3 292,236.3" fill="rgb(255,235,235)"/>
<polygon points="308,230.3 314,230.3 314,236.3 308,236.3" fill="rgb(255,100,100)"/>
<polygon points="314,230.3 320,230.3 320,236.3 314,236.3" fill="rgb(255,67,67)"/>
<polygon points="320,230.3 326,230.3 326,236.3 320,236.3" fill="rgb(255,167,167)"/>
<polygon points="326,230.3 332,230.3 332,236.3 326,236.3" fill="rgb(255,32,32)"/>
<polygon points="332,230.3 338,230.3 338,236.3 332,236.3" fill="rgb(255,90,90)"/>
<polygon points="338,230.3 344,230.3 344,236.3 338,236.3" fill="rgb(85,85,255)"/>
<polygon points="344,230.3 350,230.3 350,236.3 344,236.3" fill="rgb(161,161,255)"/>
<polygon points="350,230.3 356,230.3 356,236.3 350,236.3" fill="rgb(172,172,255)"/>
<polygon points="158,236.3 166,236.3 166,242.3 158,242.3" fill="rgb(216,179,101)"/><text xml:space="preserve" x="162" y="242.133" font-family="Calibri" font-size="7.5" fill="rgb(0,0,0)" text-anchor="middle">15</text>
<polygon points="166,236.3 174,236.3 174,242.3 166,242.3" fill="rgb(232,216,183)"/><text xml:space="preserve" x="170" y="242.133" font-family="Calibri" font-size="7.5" fill="rgb(0,0,0)" text-anchor="middle">10</text>
<polygon points="174,236.3 182,236.3 182,242.3 174,242.3" fill="rgb(222,235,234)"/><text xml:space="preserve" x="178" y="242.133" font-family="Calibri" font-size="7.5" fill="rgb(0,0,0)" text-anchor="middle">6</text>
<polygon points="192,236.3 198,236.3 198,242.3 192,242.3" fill="rgb(255,103,103)"/>
<polygon points="198,236.3 204,236.3 204,242.3 198,242.3" fill="rgb(255,180,180)"/>
<polygon points="204,236.3 210,236.3 210,242.3 204,242.3" fill="rgb(255,191,191)"/>
<polygon points="210,236.3 216,236.3 216,242.3 210,242.3" fill="rgb(255,223,223)"/>
<polygon points="216,236.3 222,236.3 222,242.3 216,242.3" fill="rgb(254,137,137)"/>
<polygon points="222,236.3 228,236.3 228,242.3 222,242.3" fill="rgb(240,240,255)"/>
<polygon points="228,236.3 234,236.3 234,242.3 228,242.3" fill="rgb(255,197,197)"/>
<polygon points="234,236.3 240,236.3 240,242.3 234,242.3" fill="rgb(255,177,177)"/>
<polygon points="250,236.3 256,236.3 256,242.3 250,242.3" fill="rgb(255,147,147)"/>
<polygon points="256,236.3 262,236.3 262,242.3 256,242.3" fill="rgb(255,145,145)"/>
<polygon points="262,236.3 268,236.3 268,242.3 262,242.3" fill="rgb(255,226,226)"/>
<polygon points="268,236.3 274,236.3 274,242.3 268,242.3" fill="rgb(255,177,177)"/>
<polygon points="274,236.3 280,236.3 280,242.3 274,242.3" fill="rgb(255,88,88)"/>
<polygon points="280,236.3 286,236.3 286,242.3 280,242.3" fill="rgb(213,213,255)"/>
<polygon points="286,236.3 292,236.3 292,242.3 286,242.3" fill="rgb(255,254,254)"/>
<polygon points="292,236.3 298,236.3 298,242.3 292,242.3" fill="rgb(226,226,255)"/>
<polygon points="308,236.3 314,236.3 314,242.3 308,242.3" fill="rgb(255,56,56)"/>
<polygon points="314,236.3 320,236.3 320,242.3 314,242.3" fill="rgb(255,147,147)"/>
<polygon points="320,236.3 326,236.3 326,242.3 320,242.3" fill="rgb(255,178,178)"/>
<polygon points="326,236.3 332,236.3 332,242.3 326,242.3" fill="rgb(255,149,149)"/>
<polygon points="332,236.3 338,236.3 338,242.3 332,242.3" fill="rgb(255,105,105)"/>
<polygon points="338,236.3 344,236.3 344,242.3 338,242.3" fill="rgb(211,211,255)"/>
<polygon points="344,236.3 350,236.3 350,242.3 344,242.3" fill="rgb(200,200,255)"/>
<polygon points="350,236.3 356,236.3 356,242.3 350,242.3" fill="rgb(223,223,255)"/>
<polygon points="158,242.3 166,242.3 166,248.3 158,248.3" fill="rgb(216,179,101)"/><text xml:space="preserve" x="162" y="248.133" font-family="Calibri" font-size="7.5" fill="rgb(0,0,0)" text-anchor="middle">15</text>
<polygon points="166,242.3 174,242.3 174,248.3 166,248.3" fill="rgb(232,216,183)"/><text xml:space="preserve" x="170" y="248.133" font-family="Calibri" font-size="7.5" fill="rgb(0,0,0)" text-anchor="middle">10</text>
<polygon points="174,242.3 182,242.3 182,248.3 174,248.3" fill="rgb(222,235,234)"/><text xml:space="preserve" x="178" y="248.133" font-family="Calibri" font-size="7.5" fill="rgb(0,0,0)" text-anchor="middle">6</text>
<polygon points="192,242.3 198,242.3 198,248.3 192,248.3" fill="rgb(255,158,158)"/>
<polygon points="198,242.3 204,242.3 204,248.3 198,248.3" fill="rgb(255,176,176)"/>
<polygon points="204,242.3 210,242.3 210,248.3 204,248.3" fill="rgb(255,240,240)"/>
<polygon points="210,242.3 216,242.3 216,248.3 210,248.3" fill="rgb(255,240,240)"/>
<polygon points="216,242.3 222,242.3 222,248.3 216,248.3" fill="rgb(255,200,200)"/>
<polygon points="222,242.3 228,242.3 228,248.3 222,248.3" fill="rgb(190,190,255)"/>
<polygon points="228,242.3 234,242.3 234,248.3 228,248.3" fill="rgb(209,209,255)"/>
<polygon points="234,242.3 240,242.3 240,248.3 234,248.3" fill="rgb(255,252,252)"/>
<polygon points="250,242.3 256,242.3 256,248.3 250,248.3" fill="rgb(255,152,152)"/>
<polygon points="256,242.3 262,242.3 262,248.3 256,248.3" fill="rgb(255,152,152)"/>
<polygon points="262,242.3 268,242.3 268,248.3 262,248.3" fill="rgb(255,231,231)"/>
<polygon points="268,242.3 274,242.3 274,248.3 268,248.3" fill="rgb(255,197,197)"/>
<polygon points="274,242.3 280,242.3 280,248.3 274,248.3" fill="rgb(255,119,119)"/>
<polygon points="280,242.3 286,242.3 286,248.3 280,248.3" fill="rgb(202,202,255)"/>
<polygon points="286,242.3 292,242.3 292,248.3 286,248.3" fill="rgb(208,208,255)"/>
<polygon points="292,242.3 298,242.3 298,248.3 292,248.3" fill="rgb(190,190,255)"/>
<polygon points="308,242.3 314,242.3 314,248.3 308,248.3" fill="rgb(255,91,91)"/>
<polygon points="314,242.3 320,242.3 320,248.3 314,248.3" fill="rgb(255,112,112)"/>
<polygon points="320,242.3 326,242.3 326,248.3 320,248.3" fill="rgb(255,195,195)"/>
<polygon points="326,242.3 332,242.3 332,248.3 326,248.3" fill="rgb(255,116,116)"/>
<polygon points="332,242.3 338,242.3 338,248.3 332,248.3" fill="rgb(255,48,48)"/>
<polygon points="338,242.3 344,242.3 344,248.3 338,248.3" fill="rgb(169,169,255)"/>
<polygon points="344,242.3 350,242.3 350,248.3 344,248.3" fill="rgb(255,240,240)"/>
<polygon points="350,242.3 356,242.3 356,248.3 350,248.3" fill="rgb(196,196,255)"/>
<polygon points="158,248.3 166,248.3 166,254.3 158,254.3" fill="rgb(216,179,101)"/><text xml:space="preserve" x="162" y="254.133" font-family="Calibri" font-size="7.5" fill="rgb(0,0,0)" text-anchor="middle">15</text>
<polygon points="166,248.3 174,248.3 174,254.3 166,254.3" fill="rgb(232,216,183)"/><text xml:space="preserve" x="170" y="254.133" font-family="Calibri" font-size="7.5" fill="rgb(0,0,0)" text-anchor="middle">10</text>
<polygon points="174,248.3 182,248.3 182,254.3 174,254.3" fill="rgb(222,235,234)"/><text xml:space="preserve" x="178" y="254.133" font-family="Calibri" font-size="7.5" fill="rgb(0,0,0)" text-anchor="middle">6</text>
<polygon points="192,248.3 198,248.3 198,254.3 192,254.3" fill="rgb(255,177,177)"/>
<polygon points="198,248.3 204,248.3 204,254.3 198,254.3" fill="rgb(254,179,179)"/>
<polygon points="204,248.3 210,248.3 210,254.3 204,254.3" fill="rgb(254,243,243)"/>
<polygon points="210,248.3 216,248.3 216,254.3 210,254.3" fill="rgb(254,236,236)"/>
<polygon points="216,248.3 222,248.3 222,254.3 216,254.3" fill="rgb(255,160,160)"/>
<polygon points="222,248.3 228,248.3 228,254.3 222,254.3" fill="rgb(169,169,255)"/>
<polygon points="228,248.3 234,248.3 234,254.3 228,254.3" fill="rgb(225,225,255)"/>
<polygon points="234,248.3 240,248.3 240,254.3 234,254.3" fill="rgb(255,214,214)"/>
<polygon points="250,248.3 256,248.3 256,254.3 250,254.3" fill="rgb(255,192,192)"/>
<polygon points="256,248.3 262,248.3 262,254.3 256,254.3" fill="rgb(255,167,167)"/>
<polygon points="262,248.3 268,248.3 268,254.3 262,254.3" fill="rgb(255,149,149)"/>
<polygon points="268,248.3 274,248.3 274,254.3 268,254.3" fill="rgb(255,173,173)"/>
<polygon points="274,248.3 280,248.3 280,254.3 274,254.3" fill="rgb(255,110,110)"/>
<polygon points="280,248.3 286,248.3 286,254.3 280,254.3" fill="rgb(248,248,255)"/>
<polygon points="286,248.3 292,248.3 292,254.3 286,254.3" fill="rgb(216,216,255)"/>
<polygon points="292,248.3 298,248.3 298,254.3 292,254.3" fill="rgb(233,233,255)"/>
<polygon points="308,248.3 314,248.3 314,254.3 308,254.3" fill="rgb(255,127,127)"/>
<polygon points="314,248.3 320,248.3 320,254.3 314,254.3" fill="rgb(255,95,95)"/>
<polygon points="320,248.3 326,248.3 326,254.3 320,254.3" fill="rgb(255,141,141)"/>
<polygon points="326,248.3 332,248.3 332,254.3 326,254.3" fill="rgb(255,112,112)"/>
<polygon points="332,248.3 338,248.3 338,254.3 332,254.3" fill="rgb(255,88,88)"/>
<polygon points="338,248.3 344,248.3 344,254.3 338,254.3" fill="rgb(175,175,255)"/>
<polygon points="344,248.3 350,248.3 350,254.3 344,254.3" fill="rgb(205,205,255)"/>
<polygon points="350,248.3 356,248.3 356,254.3 350,254.3" fill="rgb(215,215,255)"/>
<polygon points="158,254.3 166,254.3 166,260.3 158,260.3" fill="rgb(216,179,101)"/><text xml:space="preserve" x="162" y="260.133" font-family="Calibri" font-size="7.5" fill="rgb(0,0,0)" text-anchor="middle">15</text>
<polygon points="166,254.3 174,254.3 174,260.3 166,260.3" fill="rgb(232,216,183)"/><text xml:space="preserve" x="170" y="260.133" font-family="Calibri" font-size="7.5" fill="rgb(0,0,0)" text-anchor="middle">10</text>
<polygon points="174,254.3 182,254.3 182,260.3 174,260.3" fill="rgb(222,235,234)"/><text xml:space="preserve" x="178" y="260.133" font-family="Calibri" font-size="7.5" fill="rgb(0,0,0)" text-anchor="middle">6</text>
<polygon points="192,254.3 198,254.3 198,260.3 192,260.3" fill="rgb(255,202,202)"/>
<polygon points="198,254.3 204,254.3 204,260.3 198,260.3" fill="rgb(255,215,215)"/>
<polygon points="204,254.3 210,254.3 210,260.3 204,260.3" fill="rgb(242,242,255)"/>
<polygon points="210,254.3 216,254.3 216,260.3 210,260.3" fill="rgb(242,242,255)"/>
<polygon points="216,254.3 222,254.3 222,260.3 216,260.3" fill="rgb(255,195,195)"/>
<polygon points="222,254.3 228,254.3 228,260.3 222,260.3" fill="rgb(207,207,255)"/>
<polygon points="228,254.3 234,254.3 234,260.3 228,260.3" fill="rgb(255,161,161)"/>
<polygon points="234,254.3 240,254.3 240,260.3 234,260.3" fill="rgb(255,77,77)"/>
<polygon points="250,254.3 256,254.3 256,260.3 250,260.3" fill="rgb(255,155,155)"/>
<polygon points="256,254.3 262,254.3 262,260.3 256,260.3" fill="rgb(255,169,169)"/>
<polygon points="262,254.3 268,254.3 268,260.3 262,260.3" fill="rgb(255,209,209)"/>
<polygon points="268,254.3 274,254.3 274,260.3 268,260.3" fill="rgb(255,169,169)"/>
<polygon points="274,254.3 280,254.3 280,260.3 274,260.3" fill="rgb(255,98,98)"/>
<polygon points="280,254.3 286,254.3 286,260.3 280,260.3" fill="rgb(175,175,255)"/>
<polygon points="286,254.3 292,254.3 292,260.3 286,260.3" fill="rgb(255,244,244)"/>
<polygon points="292,254.3 298,254.3 298,260.3 292,260.3" fill="rgb(235,235,255)"/>
<polygon points="308,254.3 314,254.3 314,260.3 308,260.3" fill="rgb(255,119,119)"/>
<polygon points="314,254.3 320,254.3 320,260.3 314,260.3" fill="rgb(255,111,111)"/>
<polygon points="320,254.3 326,254.3 326,260.3 320,260.3" fill="rgb(255,189,189)"/>
<polygon points="326,254.3 332,254.3 332,260.3 326,260.3" fill="rgb(254,171,171)"/>
<polygon points="332,254.3 338,254.3 338,260.3 332,260.3" fill="rgb(255,49,49)"/>
<polygon points="338,254.3 344,254.3 344,260.3 338,260.3" fill="rgb(188,188,255)"/>
<polygon points="344,254.3 350,254.3 350,260.3 344,260.3" fill="rgb(255,251,251)"/>
<polygon points="350,254.3 356,254.3 356,260.3 350,260.3" fill="rgb(190,190,255)"/>
<polygon points="158,260.3 166,260.3 166,266.3 158,266.3" fill="rgb(216,179,101)"/><text xml:space="preserve" x="162" y="266.133" font-family="Calibri" font-size="7.5" fill="rgb(0,0,0)" text-anchor="middle">15</text>
<polygon points="166,260.3 174,260.3 174,266.3 166,266.3" fill="rgb(232,216,183)"/><text xml:space="preserve" x="170" y="266.133" font-family="Calibri" font-size="7.5" fill="rgb(0,0,0)" text-anchor="middle">10</text>
<polygon points="174,260.3 182,260.3 182,266.3 174,266.3" fill="rgb(222,235,234)"/><text xml:space="preserve" x="178" y="266.133" font-family="Calibri" font-size="7.5" fill="rgb(0,0,0)" text-anchor="middle">6</text>
<polygon points="192,260.3 198,260.3 198,266.3 192,266.3" fill="rgb(255,144,144)"/>
<polygon points="198,260.3 204,260.3 204,266.3 198,266.3" fill="rgb(255,200,200)"/>
<polygon points="204,260.3 210,260.3 210,266.3 204,266.3" fill="rgb(255,213,213)"/>
<polygon points="210,260.3 216,260.3 216,266.3 210,266.3" fill="rgb(243,243,255)"/>
<polygon points="216,260.3 222,260.3 222,266.3 216,266.3" fill="rgb(255,132,132)"/>
<polygon points="222,260.3 228,260.3 228,266.3 222,266.3" fill="rgb(255,240,240)"/>
<polygon points="228,260.3 234,260.3 234,266.3 228,266.3" fill="rgb(224,224,255)"/>
<polygon points="234,260.3 240,260.3 240,266.3 234,266.3" fill="rgb(255,247,247)"/>
<polygon points="250,260.3 256,260.3 256,266.3 250,266.3" fill="rgb(255,157,157)"/>
<polygon points="256,260.3 262,260.3 262,266.3 256,266.3" fill="rgb(254,173,173)"/>
<polygon points="262,260.3 268,260.3 268,266.3 262,266.3" fill="rgb(255,222,222)"/>
<polygon points="268,260.3 274,260.3 274,266.3 268,266.3" fill="rgb(255,233,233)"/>
<polygon points="274,260.3 280,260.3 280,266.3 274,266.3" fill="rgb(255,82,82)"/>
<polygon points="280,260.3 286,260.3 286,266.3 280,266.3" fill="rgb(208,208,255)"/>
<polygon points="286,260.3 292,260.3 292,266.3 286,266.3" fill="rgb(194,194,255)"/>
<polygon points="292,260.3 298,260.3 298,266.3 292,266.3" fill="rgb(253,253,255)"/>
<polygon points="308,260.3 314,260.3 314,266.3 308,266.3" fill="rgb(255,104,104)"/>
<polygon points="314,260.3 320,260.3 320,266.3 314,266.3" fill="rgb(255,117,117)"/>
<polygon points="320,260.3 326,260.3 326,266.3 320,266.3" fill="rgb(255,169,169)"/>
<polygon points="326,260.3 332,260.3 332,266.3 326,266.3" fill="rgb(255,209,209)"/>
<polygon points="332,260.3 338,260.3 338,266.3 332,266.3" fill="rgb(255,65,65)"/>
<polygon points="338,260.3 344,260.3 344,266.3 338,266.3" fill="rgb(195,195,255)"/>
<polygon points="344,260.3 350,260.3 350,266.3 344,266.3" fill="rgb(245,245,255)"/>
<polygon points="350,260.3 356,260.3 356,266.3 350,266.3" fill="rgb(217,217,255)"/>
<polygon points="158,266.3 166,266.3 166,272.3 158,272.3" fill="rgb(216,179,101)"/><text xml:space="preserve" x="162" y="272.133" font-family="Calibri" font-size="7.5" fill="rgb(0,0,0)" text-anchor="middle">15</text>
<polygon points="166,266.3 174,266.3 174,272.3 166,272.3" fill="rgb(232,216,183)"/><text xml:space="preserve" x="170" y="272.133" font-family="Calibri" font-size="7.5" fill="rgb(0,0,0)" text-anchor="middle">10</text>
<polygon points="174,266.3 182,266.3 182,272.3 174,272.3" fill="rgb(222,235,234)"/><text xml:space="preserve" x="178" y="272.133" font-family="Calibri" font-size="7.5" fill="rgb(0,0,0)" text-anchor="middle">6</text>
<polygon points="192,266.3 198,266.3 198,272.3 192,272.3" fill="rgb(255,172,172)"/>
<polygon points="198,266.3 204,266.3 204,272.3 198,272.3" fill="rgb(255,170,170)"/>
<polygon points="204,266.3 210,266.3 210,272.3 204,272.3" fill="rgb(255,231,231)"/>
<polygon points="210,266.3 216,266.3 216,272.3 210,272.3" fill="rgb(255,240,240)"/>
<polygon points="216,266.3 222,266.3 222,272.3 216,272.3" fill="rgb(255,179,179)"/>
<polygon points="222,266.3 228,266.3 228,272.3 222,272.3" fill="rgb(179,179,255)"/>
<polygon points="228,266.3 234,266.3 234,272.3 228,272.3" fill="rgb(255,236,236)"/>
<polygon points="234,266.3 240,266.3 240,272.3 234,272.3" fill="rgb(245,245,255)"/>
<polygon points="250,266.3 256,266.3 256,272.3 250,272.3" fill="rgb(255,196,196)"/>
<polygon points="256,266.3 262,266.3 262,272.3 256,272.3" fill="rgb(255,136,136)"/>
<polygon points="262,266.3 268,266.3 268,272.3 262,272.3" fill="rgb(255,184,184)"/>
<polygon points="268,266.3 274,266.3 274,272.3 268,272.3" fill="rgb(255,243,243)"/>
<polygon points="274,266.3 280,266.3 280,272.3 274,272.3" fill="rgb(255,88,88)"/>
<polygon points="280,266.3 286,266.3 286,272.3 280,272.3" fill="rgb(188,188,255)"/>
<polygon points="286,266.3 292,266.3 292,272.3 286,272.3" fill="rgb(243,243,255)"/>
<polygon points="292,266.3 298,266.3 298,272.3 292,272.3" fill="rgb(217,217,255)"/>
<polygon points="308,266.3 314,266.3 314,272.3 308,272.3" fill="rgb(255,125,125)"/>
<polygon points="314,266.3 320,266.3 320,272.3 314,272.3" fill="rgb(255,110,110)"/>
<polygon points="320,266.3 326,266.3 326,272.3 320,272.3" fill="rgb(254,184,184)"/>
<polygon points="326,266.3 332,266.3 332,272.3 326,272.3" fill="rgb(255,212,212)"/>
<polygon points="332,266.3 338,266.3 338,272.3 332,272.3" fill="rgb(255,45,45)"/>
<polygon points="338,266.3 344,266.3 344,272.3 338,272.3" fill="rgb(198,198,255)"/>
<polygon points="344,266.3 350,266.3 350,272.3 344,272.3" fill="rgb(178,178,255)"/>
<polygon points="350,266.3 356,266.3 356,272.3 350,272.3" fill="rgb(150,150,255)"/>
<polygon points="158,272.3 166,272.3 166,278.3 158,278.3" fill="rgb(216,179,101)"/><text xml:space="preserve" x="162" y="278.133" font-family="Calibri" font-size="7.5" fill="rgb(0,0,0)" text-anchor="middle">14</text>
<polygon points="166,272.3 174,272.3 174,278.3 166,278.3" fill="rgb(232,216,183)"/><text xml:space="preserve" x="170" y="278.133" font-family="Calibri" font-size="7.5" fill="rgb(0,0,0)" text-anchor="middle">10</text>
<polygon points="174,272.3 182,272.3 182,278.3 174,278.3" fill="rgb(222,235,234)"/><text xml:space="preserve" x="178" y="278.133" font-family="Calibri" font-size="7.5" fill="rgb(0,0,0)" text-anchor="middle">6</text>
<polygon points="192,272.3 198,272.3 198,278.3 192,278.3" fill="rgb(255,208,208)"/>
<polygon points="198,272.3 204,272.3 204,278.3 198,278.3" fill="rgb(255,217,217)"/>
<polygon points="204,272.3 210,272.3 210,278.3 204,278.3" fill="rgb(254,243,243)"/>
<polygon points="210,272.3 216,272.3 216,278.3 210,278.3" fill="rgb(243,243,255)"/>
<polygon points="216,272.3 222,272.3 222,278.3 216,278.3" fill="rgb(238,238,255)"/>
<polygon points="222,272.3 228,272.3 228,278.3 222,278.3" fill="rgb(196,196,255)"/>
<polygon points="228,272.3 234,272.3 234,278.3 228,278.3" fill="rgb(255,244,244)"/>
<polygon points="234,272.3 240,272.3 240,278.3 234,278.3" fill="rgb(255,140,140)"/>
<polygon points="250,272.3 256,272.3 256,278.3 250,278.3" fill="rgb(254,166,166)"/>
<polygon points="256,272.3 262,272.3 262,278.3 256,278.3" fill="rgb(255,117,117)"/>
<polygon points="262,272.3 268,272.3 268,278.3 262,278.3" fill="rgb(255,245,245)"/>
<polygon points="268,272.3 274,272.3 274,278.3 268,278.3" fill="rgb(255,190,190)"/>
<polygon points="274,272.3 280,272.3 280,278.3 274,278.3" fill="rgb(255,177,177)"/>
<polygon points="280,272.3 286,272.3 286,278.3 280,278.3" fill="rgb(126,126,255)"/>
<polygon points="286,272.3 292,272.3 292,278.3 286,278.3" fill="rgb(196,196,255)"/>
<polygon points="292,272.3 298,272.3 298,278.3 292,278.3" fill="rgb(220,220,255)"/>
<polygon points="308,272.3 314,272.3 314,278.3 308,278.3" fill="rgb(255,148,148)"/>
<polygon points="314,272.3 320,272.3 320,278.3 314,278.3" fill="rgb(255,74,74)"/>
<polygon points="320,272.3 326,272.3 326,278.3 320,278.3" fill="rgb(255,157,157)"/>
<polygon points="326,272.3 332,272.3 332,278.3 326,278.3" fill="rgb(255,158,158)"/>
<polygon points="332,272.3 338,272.3 338,278.3 332,278.3" fill="rgb(255,167,167)"/>
<polygon points="338,272.3 344,272.3 344,278.3 338,278.3" fill="rgb(83,83,255)"/>
<polygon points="344,272.3 350,272.3 350,278.3 344,278.3" fill="rgb(150,150,255)"/>
<polygon points="350,272.3 356,272.3 356,278.3 350,278.3" fill="rgb(192,192,255)"/>
<polygon points="158,278.3 166,278.3 166,284.3 158,284.3" fill="rgb(220,188,121)"/><text xml:space="preserve" x="162" y="284.133" font-family="Calibri" font-size="7.5" fill="rgb(0,0,0)" text-anchor="middle">13</text>
<polygon points="166,278.3 174,278.3 174,284.3 166,284.3" fill="rgb(232,216,183)"/><text xml:space="preserve" x="170" y="284.133" font-family="Calibri" font-size="7.5" fill="rgb(0,0,0)" text-anchor="middle">10</text>
<polygon points="174,278.3 182,278.3 182,284.3 174,284.3" fill="rgb(222,235,234)"/><text xml:space="preserve" x="178" y="284.133" font-family="Calibri" font-size="7.5" fill="rgb(0,0,0)" text-anchor="middle">6</text>
<polygon points="192,278.3 198,278.3 198,284.3 192,284.3" fill="rgb(255,126,126)"/>
<polygon points="198,278.3 204,278.3 204,284.3 198,284.3" fill="rgb(255,71,71)"/>
<polygon points="204,278.3 210,278.3 210,284.3 204,284.3" fill="rgb(255,130,130)"/>
<polygon points="210,278.3 216,278.3 216,284.3 210,284.3" fill="rgb(255,208,208)"/>
<polygon points="216,278.3 222,278.3 222,284.3 216,284.3" fill="rgb(255,173,173)"/>
<polygon points="222,278.3 228,278.3 228,284.3 222,284.3" fill="rgb(217,217,255)"/>
<polygon points="228,278.3 234,278.3 234,284.3 228,284.3" fill="rgb(232,232,255)"/>
<polygon points="234,278.3 240,278.3 240,284.3 234,284.3" fill="rgb(255,219,219)"/>
<polygon points="250,278.3 256,278.3 256,284.3 250,284.3" fill="rgb(255,173,173)"/>
<polygon points="256,278.3 262,278.3 262,284.3 256,284.3" fill="rgb(255,143,143)"/>
<polygon points="262,278.3 268,278.3 268,284.3 262,284.3" fill="rgb(254,176,176)"/>
<polygon points="268,278.3 274,278.3 274,284.3 268,284.3" fill="rgb(255,202,202)"/>
<polygon points="274,278.3 280,278.3 280,284.3 274,284.3" fill="rgb(254,176,176)"/>
<polygon points="280,278.3 286,278.3 286,284.3 280,284.3" fill="rgb(238,238,255)"/>
<polygon points="286,278.3 292,278.3 292,284.3 286,284.3" fill="rgb(255,227,227)"/>
<polygon points="292,278.3 298,278.3 298,284.3 292,284.3" fill="rgb(255,221,221)"/>
<polygon points="308,278.3 314,278.3 314,284.3 308,284.3" fill="rgb(255,51,51)"/>
<polygon points="314,278.3 320,278.3 320,284.3 314,284.3" fill="rgb(255,41,41)"/>
<polygon points="320,278.3 326,278.3 326,284.3 320,284.3" fill="rgb(255,55,55)"/>
<polygon points="326,278.3 332,278.3 332,284.3 326,284.3" fill="rgb(255,149,149)"/>
<polygon points="332,278.3 338,278.3 338,284.3 332,284.3" fill="rgb(255,63,63)"/>
<polygon points="338,278.3 344,278.3 344,284.3 338,284.3" fill="rgb(197,197,255)"/>
<polygon points="344,278.3 350,278.3 350,284.3 344,284.3" fill="rgb(204,204,255)"/>
<polygon points="350,278.3 356,278.3 356,284.3 350,284.3" fill="rgb(213,213,255)"/>
<polygon points="158,212.3 182,212.3 182,284.3 158,284.3" fill="none" stroke="black" stroke-width="1"/>
<polygon points="192,212.3 240,212.3 240,284.3 192,284.3" fill="none" stroke="black" stroke-width="1"/>
<polygon points="250,212.3 298,212.3 298,284.3 250,284.3" fill="none" stroke="black" stroke-width="1"/>
<polygon points="308,212.3 356,212.3 356,284.3 308,284.3" fill="none" stroke="black" stroke-width="1"/>
<text xml:space="preserve" x="199" y="316.633" font-family="Calibri" font-size="6" text-anchor="middle">moduleID</text>
<polygon points="89,324.3 109,324.3 109,344.3 89,344.3" fill="rgb(250,250,250)"/><polygon points="89,324.3 109,324.3 109,344.3 89,344.3" fill="none" stroke="black" stroke-width="1"/><text xml:space="preserve" x="99" y="337.133" font-family="Calibri" font-size="7.5" fill="rgb(0,0,0)" text-anchor="middle">-2.0</text>
<polygon points="109,324.3 129,324.3 129,344.3 109,344.3" fill="rgb(156,210,205)"/><polygon points="109,324.3 129,324.3 129,344.3 109,344.3" fill="none" stroke="black" stroke-width="1"/><text xml:space="preserve" x="119" y="337.133" font-family="Calibri" font-size="7.5" fill="rgb(0,0,0)" text-anchor="middle">-0.4</text>
<polygon points="129,324.3 149,324.3 149,344.3 129,344.3" fill="rgb(116,191,184)"/><polygon points="129,324.3 149,324.3 149,344.3 129,344.3" fill="none" stroke="black" stroke-width="1"/><text xml:space="preserve" x="139" y="337.133" font-family="Calibri" font-size="7.5" fill="rgb(0,0,0)" text-anchor="middle">1.2</text>
<polygon points="149,324.3 169,324.3 169,344.3 149,344.3" fill="rgb(152,206,201)"/><polygon points="149,324.3 169,324.3 169,344.3 149,344.3" fill="none" stroke="black" stroke-width="1"/><text xml:space="preserve" x="159" y="337.133" font-family="Calibri" font-size="7.5" fill="rgb(0,0,0)" text-anchor="middle">2.8</text>
<polygon points="169,324.3 189,324.3 189,344.3 169,344.3" fill="rgb(187,220,217)"/><polygon points="169,324.3 189,324.3 189,344.3 169,344.3" fill="none" stroke="black" stroke-width="1"/><text xml:space="preserve" x="179" y="337.133" font-family="Calibri" font-size="7.5" fill="rgb(0,0,0)" text-anchor="middle">4.4</text>
<polygon points="189,324.3 209,324.3 209,344.3 189,344.3" fill="rgb(222,235,234)"/><polygon points="189,324.3 209,324.3 209,344.3 189,344.3" fill="none" stroke="black" stroke-width="1"/><text xml:space="preserve" x="199" y="337.133" font-family="Calibri" font-size="7.5" fill="rgb(0,0,0)" text-anchor="middle">6.0</text>
<polygon points="209,324.3 229,324.3 229,344.3 209,344.3" fill="rgb(242,239,232)"/><polygon points="209,324.3 229,324.3 229,344.3 209,344.3" fill="none" stroke="black" stroke-width="1"/><text xml:space="preserve" x="219" y="337.133" font-family="Calibri" font-size="7.5" fill="rgb(0,0,0)" text-anchor="middle">7.6</text>
<polygon points="229,324.3 249,324.3 249,344.3 229,344.3" fill="rgb(235,224,199)"/><polygon points="229,324.3 249,324.3 249,344.3 229,344.3" fill="none" stroke="black" stroke-width="1"/><text xml:space="preserve" x="239" y="337.133" font-family="Calibri" font-size="7.5" fill="rgb(0,0,0)" text-anchor="middle">9.2</text>
<polygon points="249,324.3 269,324.3 269,344.3 249,344.3" fill="rgb(229,209,166)"/><polygon points="249,324.3 269,324.3 269,344.3 249,344.3" fill="none" stroke="black" stroke-width="1"/><text xml:space="preserve" x="259" y="337.133" font-family="Calibri" font-size="7.5" fill="rgb(0,0,0)" text-anchor="middle">10.8</text>
<polygon points="269,324.3 289,324.3 289,344.3 269,344.3" fill="rgb(222,194,133)"/><polygon points="269,324.3 289,324.3 289,344.3 269,344.3" fill="none" stroke="black" stroke-width="1"/><text xml:space="preserve" x="279" y="337.133" font-family="Calibri" font-size="7.5" fill="rgb(0,0,0)" text-anchor="middle">12.4</text>
<polygon points="289,324.3 309,324.3 309,344.3 289,344.3" fill="rgb(216,179,101)"/><polygon points="289,324.3 309,324.3 309,344.3 289,344.3" fill="none" stroke="black" stroke-width="1"/><text xml:space="preserve" x="299" y="337.133" font-family="Calibri" font-size="7.5" fill="rgb(0,0,0)" text-anchor="middle">14.0</text>
<text xml:space="preserve" x="199" y="376.633" font-family="Calibri" font-size="6" text-anchor="middle">marklevel</text>
<polygon points="89,384.3 109,384.3 109,404.3 89,404.3" fill="rgb(0,0,255)"/><polygon points="89,384.3 109,384.3 109,404.3 89,404.3" fill="none" stroke="black" stroke-width="1"/><text xml:space="preserve" x="99" y="397.133" font-family="Calibri" font-size="7.5" fill="rgb(255,255,255)" text-anchor="middle">-2.0</text>
<polygon points="109,384.3 129,384.3 129,404.3 109,404.3" fill="rgb(50,50,255)"/><polygon points="109,384.3 129,384.3 129,404.3 109,404.3" fill="none" stroke="black" stroke-width="1"/><text xml:space="preserve" x="119" y="397.133" font-family="Calibri" font-size="7.5" fill="rgb(255,255,255)" text-anchor="middle">-1.6</text>
<polygon points="129,384.3 149,384.3 149,404.3 129,404.3" fill="rgb(102,102,255)"/><polygon points="129,384.3 149,384.3 149,404.3 129,404.3" fill="none" stroke="black" stroke-width="1"/><text xml:space="preserve" x="139" y="397.133" font-family="Calibri" font-size="7.5" fill="rgb(255,255,255)" text-anchor="middle">-1.2</text>
<polygon points="149,384.3 169,384.3 169,404.3 149,404.3" fill="rgb(153,153,255)"/><polygon points="149,384.3 169,384.3 169,404.3 149,404.3" fill="none" stroke="black" stroke-width="1"/><text xml:space="preserve" x="159" y="397.133" font-family="Calibri" font-size="7.5" fill="rgb(0,0,0)" text-anchor="middle">-0.8</text>
<polygon points="169,384.3 189,384.3 189,404.3 169,404.3" fill="rgb(204,204,255)"/><polygon points="169,384.3 189,384.3 189,404.3 169,404.3" fill="none" stroke="black" stroke-width="1"/><text xml:space="preserve" x="179" y="397.133" font-family="Calibri" font-size="7.5" fill="rgb(0,0,0)" text-anchor="middle">-0.4</text>
<polygon points="189,384.3 209,384.3 209,404.3 189,404.3" fill="rgb(255,255,255)"/><polygon points="189,384.3 209,384.3 209,404.3 189,404.3" fill="none" stroke="black" stroke-width="1"/><text xml:space="preserve" x="199" y="397.133" font-family="Calibri" font-size="7.5" fill="rgb(0,0,0)" text-anchor="middle">0.0</text>
<polygon points="209,384.3 229,384.3 229,404.3 209,404.3" fill="rgb(255,204,204)"/><polygon points="209,384.3 229,384.3 229,404.3 209,404.3" fill="none" stroke="black" stroke-width="1"/><text xml:space="preserve" x="219" y="397.133" font-family="Calibri" font-size="7.5" fill="rgb(0,0,0)" text-anchor="middle">0.4</text>
<polygon points="229,384.3 249,384.3 249,404.3 229,404.3" fill="rgb(255,153,153)"/><polygon points="229,384.3 249,384.3 249,404.3 229,404.3" fill="none" stroke="black" stroke-width="1"/><text xml:space="preserve" x="239" y="397.133" font-family="Calibri" font-size="7.5" fill="rgb(0,0,0)" text-anchor="middle">0.8</text>
<polygon points="249,384.3 269,384.3 269,404.3 249,404.3" fill="rgb(255,102,102)"/><polygon points="249,384.3 269,384.3 269,404.3 249,404.3" fill="none" stroke="black" stroke-width="1"/><text xml:space="preserve" x="259" y="397.133" font-family="Calibri" font-size="7.5" fill="rgb(0,0,0)" text-anchor="middle">1.2</text>
<polygon points="269,384.3 289,384.3 289,404.3 269,404.3" fill="rgb(255,50,50)"/><polygon points="269,384.3 289,384.3 289,404.3 269,404.3" fill="none" stroke="black" stroke-width="1"/><text xml:space="preserve" x="279" y="397.133" font-family="Calibri" font-size="7.5" fill="rgb(255,255,255)" text-anchor="middle">1.6</text>
<polygon points="289,384.3 309,384.3 309,404.3 289,404.3" fill="rgb(255,0,0)"/><polygon points="289,384.3 309,384.3 309,404.3 289,404.3" fill="none" stroke="black" stroke-width="1"/><text xml:space="preserve" x="299" y="397.133" font-family="Calibri" font-size="7.5" fill="rgb(255,255,255)" text-anchor="middle">2.0</text>
</svg>
