<?xml version="1.0" standalone="no"?><!DOCTYPE svg PUBLIC "-//W3C//DTD SVG 1.1//EN" "http://www.w3.org/Graphics/SVG/1.1/DTD/svg11.dtd">
<svg width="337.1" height="466.3" version="1.1" xmlns="http://www.w3.org/2000/svg">
<text xml:space="preserve" x="93.1" y="217.633" font-family="Calibri" font-size="6" text-anchor="end">Ccdc16</text>
<text xml:space="preserve" x="93.1" y="223.633" font-family="Calibri" font-size="6" text-anchor="end">Ndufa4</text>
<text xml:space="preserve" x="93.1" y="229.633" font-family="Calibri" font-size="6" text-anchor="end">Klf5</text>
<text xml:space="preserve" x="93.1" y="235.633" font-family="Calibri" font-size="6" text-anchor="end">Ccdc77</text>
<text xml:space="preserve" x="93.1" y="241.633" font-family="Calibri" font-size="6" text-anchor="end">Ccm2</text>
<text xml:space="preserve" x="93.1" y="247.633" font-family="Calibri" font-size="6" text-anchor="end">Ccnb1</text>
<text xml:space="preserve" x="93.1" y="253.633" font-family="Calibri" font-size="6" text-anchor="end">Fxr1h</text>
<text xml:space="preserve" x="93.1" y="259.633" font-family="Calibri" font-size="6" text-anchor="end">G3bp</text>
<text xml:space="preserve" x="93.1" y="265.633" font-family="Calibri" font-size="6" text-anchor="end">Ipmk</text>
<text xml:space="preserve" x="93.1" y="271.633" font-family="Calibri" font-size="6" text-anchor="end">Zfp64</text>
<text xml:space="preserve" x="93.1" y="277.633" font-family="Calibri" font-size="6" text-anchor="end">Dhx9</text>
<text xml:space="preserve" x="93.1" y="283.633" font-family="Calibri" font-size="6" text-anchor="end">Ube2s</text>
<text xml:space="preserve" x="93.1" y="289.633" font-family="Calibri" font-size="6" text-anchor="end">Slc25a36</text>
<text xml:space="preserve" x="93.1" y="295.633" font-family="Calibri" font-size="6" text-anchor="end">Rplp2</text>
<text xml:space="preserve" x="93.1" y="301.633" font-family="Calibri" font-size="6" text-anchor="end">Rpl22</text>
<text xml:space="preserve" x="93.1" y="307.633" font-family="Calibri" font-size="6" text-anchor="end">Rad21</text>
<text xml:space="preserve" x="93.1" y="313.633" font-family="Calibri" font-size="6" text-anchor="end">Pitpnb</text>
<text xml:space="preserve" x="93.1" y="319.633" font-family="Calibri" font-size="6" text-anchor="end">Pias2</text>
<text xml:space="preserve" x="93.1" y="325.633" font-family="Calibri" font-size="6" text-anchor="end">Parp1</text>
<text xml:space="preserve" x="103.433" y="208.3" font-family="Calibri" font-size="6" transform="rotate(270 103.433 208.3)">ips</text>
<text xml:space="preserve" x="111.433" y="208.3" font-family="Calibri" font-size="6" transform="rotate(270 111.433 208.3)">pips</text>
<text xml:space="preserve" x="119.433" y="208.3" font-family="Calibri" font-size="6" transform="rotate(270 119.433 208.3)">mef</text>
<text xml:space="preserve" x="136.433" y="208.3" font-family="Calibri" font-size="6" transform="rotate(270 136.433 208.3)">ips_H3K4me3iPS</text>
<text xml:space="preserve" x="142.433" y="208.3" font-family="Calibri" font-size="6" transform="rotate(270 142.433 208.3)">ips_H3K9aciPS</text>
<text xml:space="preserve" x="148.433" y="208.3" font-family="Calibri" font-size="6" transform="rotate(270 148.433 208.3)">ips_H3K14aciPS</text>
<text xml:space="preserve" x="154.433" y="208.3" font-family="Calibri" font-size="6" transform="rotate(270 154.433 208.3)">ips_H3K18aciPS</text>
<text xml:space="preserve" x="160.433" y="208.3" font-family="Calibri" font-size="6" transform="rotate(270 160.433 208.3)">ips_H3K79me2iPS</text>
<text xml:space="preserve" x="166.433" y="208.3" font-family="Calibri" font-size="6" transform="rotate(270 166.433 208.3)">ips_H3K9me2iPS</text>
<text xml:space="preserve" x="172.433" y="208.3" font-family="Calibri" font-size="6" transform="rotate(270 172.433 208.3)">ips_H3K9me3iPS</text>
<text xml:space="preserve" x="178.433" y="208.3" font-family="Calibri" font-size="6" transform="rotate(270 178.433 208.3)">ips_H3K27me3iPS</text>
<text xml:space="preserve" x="194.433" y="208.3" font-family="Calibri" font-size="6" transform="rotate(270 194.433 208.3)">pips_H3K4me3pips</text>
<text xml:space="preserve" x="200.433" y="208.3" font-family="Calibri" font-size="6" transform="rotate(270 200.433 208.3)">pips_H3K9acpips</text>
<text xml:space="preserve" x="206.433" y="208.3" font-family="Calibri" font-size="6" transform="rotate(270 206.433 208.3)">pips_H3K14acpips</text>
<text xml:space="preserve" x="212.433" y="208.3" font-family="Calibri" font-size="6" transform="rotate(270 212.433 208.3)">pips_H3K18acpips</text>
<text xml:space="preserve" x="218.433" y="208.3" font-family="Calibri" font-size="6" transform="rotate(270 218.433 208.3)">pips_H3K79me2pips</text>
<text xml:space="preserve" x="224.433" y="208.3" font-family="Calibri" font-size="6" transform="rotate(270 224.433 208.3)">pips_H3K9me2pips</text>
<text xml:space="preserve" x="230.433" y="208.3" font-family="Calibri" font-size="6" transform="rotate(270 230.433 208.3)">pips_H3K9me3pips</text>
<text xml:space="preserve" x="236.433" y="208.3" font-family="Calibri" font-size="6" transform="rotate(270 236.433 208.3)">pips_H3K27me3pips</text>
<text xml:space="preserve" x="252.433" y="208.3" font-family="Calibri" font-size="6" transform="rotate(270 252.433 208.3)">mef_H3K4me3mef</text>
<text xml:space="preserve" x="258.433" y="208.3" font-family="Calibri" font-size="6" transform="rotate(270 258.433 208.3)">mef_H3K9acmef</text>
<text xml:space="preserve" x="264.433" y="208.3" font-family="Calibri" font-size="6" transform="rotate(270 264.433 208.3)">mef_H3K14acmef</text>
<text xml:space="preserve" x="270.433" y="208.3" font-family="Calibri" font-size="6" transform="rotate(270 270.433 208.3)">mef_H3K18acmef</text>
<text xml:space="preserve" x="276.433" y="208.3" font-family="Calibri" font-size="6" transform="rotate(270 276.433 208.3)">mef_H3K79me2mef</text>
<text xml:space="preserve" x="282.433" y="208.3" font-family="Calibri" font-size="6" transform="rotate(270 282.433 208.3)">mef_H3K9me2mef</text>
<text xml:space="preserve" x="288.433" y="208.3" font-family="Calibri" font-size="6" transform="rotate(270 288.433 208.3)">mef_H3K9me3mef</text>
<text xml:space="preserve" x="294.433" y="208.3" font-family="Calibri" font-size="6" transform="rotate(270 294.433 208.3)">mef_H3K27me3mef</text>
<polygon points="97.1,212.3 105.1,212.3 105.1,218.3 97.1,218.3" fill="rgb(222,235,234)"/><text xml:space="preserve" x="101.1" y="218.133" font-family="Calibri" font-size="7.5" fill="rgb(0,0,0)" text-anchor="middle">6</text>
<polygon points="105.1,212.3 113.1,212.3 113.1,218.3 105.1,218.3" fill="rgb(232,216,183)"/><text xml:space="preserve" x="109.1" y="218.133" font-family="Calibri" font-size="7.5" fill="rgb(0,0,0)" text-anchor="middle">10</text>
<polygon points="113.1,212.3 121.1,212.3 121.1,218.3 113.1,218.3" fill="rgb(232,216,183)"/><text xml:space="preserve" x="117.1" y="218.133" font-family="Calibri" font-size="7.5" fill="rgb(0,0,0)" text-anchor="middle">10</text>
<polygon points="131.1,212.3 137.1,212.3 137.1,218.3 131.1,218.3" fill="rgb(255,85,85)"/>
<polygon points="137.1,212.3 143.1,212.3 143.1,218.3 137.1,218.3" fill="rgb(255,113,113)"/>
<polygon points="143.1,212.3 149.1,212.3 149.1,218.3 143.1,218.3" fill="rgb(255,230,230)"/>
<polygon points="149.1,212.3 155.1,212.3 155.1,218.3 149.1,218.3" fill="rgb(200,200,255)"/>
<polygon points="155.1,212.3 161.1,212.3 161.1,218.3 155.1,218.3" fill="rgb(255,82,82)"/>
<polygon points="161.1,212.3 167.1,212.3 167.1,218.3 161.1,218.3" fill="rgb(186,186,255)"/>
<polygon points="167.1,212.3 173.1,212.3 173.1,218.3 167.1,218.3" fill="rgb(212,212,255)"/>
<polygon points="173.1,212.3 179.1,212.3 179.1,218.3 173.1,218.3" fill="rgb(178,178,255)"/>
<polygon points="189.1,212.3 195.1,212.3 195.1,218.3 189.1,218.3" fill="rgb(255,169,169)"/>
<polygon points="195.1,212.3 201.1,212.3 201.1,218.3 195.1,218.3" fill="rgb(255,129,129)"/>
<polygon points="201.1,212.3 207.1,212.3 207.1,218.3 201.1,218.3" fill="rgb(255,252,252)"/>
<polygon points="207.1,212.3 213.1,212.3 213.1,218.3 207.1,218.3" fill="rgb(250,250,255)"/>
<polygon points="213.1,212.3 219.1,212.3 219.1,218.3 213.1,218.3" fill="rgb(255,112,112)"/>
<polygon points="219.1,212.3 225.1,212.3 225.1,218.3 219.1,218.3" fill="rgb(230,230,255)"/>
<polygon points="225.1,212.3 231.1,212.3 231.1,218.3 225.1,218.3" fill="rgb(233,233,255)"/>
<polygon points="231.1,212.3 237.1,212.3 237.1,218.3 231.1,218.3" fill="rgb(255,249,249)"/>
<polygon points="247.1,212.3 253.1,212.3 253.1,218.3 247.1,218.3" fill="rgb(255,120,120)"/>
<polygon points="253.1,212.3 259.1,212.3 259.1,218.3 253.1,218.3" fill="rgb(255,164,164)"/>
<polygon points="259.1,212.3 265.1,212.3 265.1,218.3 259.1,218.3" fill="rgb(239,239,255)"/>
<polygon points="265.1,212.3 271.1,212.3 271.1,218.3 265.1,218.3" fill="rgb(241,241,255)"/>
<polygon points="271.1,212.3 277.1,212.3 277.1,218.3 271.1,218.3" fill="rgb(255,155,155)"/>
<polygon points="277.1,212.3 283.1,212.3 283.1,218.3 277.1,218.3" fill="rgb(244,244,255)"/>
<polygon points="283.1,212.3 289.1,212.3 289.1,218.3 283.1,218.3" fill="rgb(255,239,239)"/>
<polygon points="289.1,212.3 295.1,212.3 295.1,218.3 289.1,218.3" fill="rgb(254,250,250)"/>
<polygon points="97.1,218.3 105.1,218.3 105.1,224.3 97.1,224.3" fill="rgb(222,235,234)"/><text xml:space="preserve" x="101.1" y="224.133" font-family="Calibri" font-size="7.5" fill="rgb(0,0,0)" text-anchor="middle">6</text>
<polygon points="105.1,218.3 113.1,218.3 113.1,224.3 105.1,224.3" fill="rgb(232,216,183)"/><text xml:space="preserve" x="109.1" y="224.133" font-family="Calibri" font-size="7.5" fill="rgb(0,0,0)" text-anchor="middle">10</text>
<polygon points="113.1,218.3 121.1,218.3 121.1,224.3 113.1,224.3" fill="rgb(232,216,183)"/><text xml:space="preserve" x="117.1" y="224.133" font-family="Calibri" font-size="7.5" fill="rgb(0,0,0)" text-anchor="middle">10</text>
<polygon points="131.1,218.3 137.1,218.3 137.1,224.3 131.1,224.3" fill="rgb(255,134,134)"/>
<polygon points="137.1,218.3 143.1,218.3 143.1,224.3 137.1,224.3" fill="rgb(255,100,100)"/>
<polygon points="143.1,218.3 149.1,218.3 149.1,224.3 143.1,224.3" fill="rgb(255,249,249)"/>
<polygon points="149.1,218.3 155.1,218.3 155.1,224.3 149.1,224.3" fill="rgb(227,227,255)"/>
<polygon points="155.1,218.3 161.1,218.3 161.1,224.3 155.1,224.3" fill="rgb(255,75,75)"/>
<polygon points="161.1,218.3 167.1,218.3 167.1,224.3 161.1,224.3" fill="rgb(185,185,255)"/>
<polygon points="167.1,218.3 173.1,218.3 173.1,224.3 167.1,224.3" fill="rgb(207,207,255)"/>
<polygon points="173.1,218.3 179.1,218.3 179.1,224.3 173.1,224.3" fill="rgb(177,177,255)"/>
<polygon points="189.1,218.3 195.1,218.3 195.1,224.3 189.1,224.3" fill="rgb(255,151,151)"/>
<polygon points="195.1,218.3 201.1,218.3 201.1,224.3 195.1,224.3" fill="rgb(255,153,153)"/>
<polygon points="201.1,218.3 207.1,218.3 207.1,224.3 201.1,224.3" fill="rgb(255,246,246)"/>
<polygon points="207.1,218.3 213.1,218.3 213.1,224.3 207.1,224.3" fill="rgb(255,252,252)"/>
<polygon points="213.1,218.3 219.1,218.3 219.1,224.3 213.1,224.3" fill="rgb(255,74,74)"/>
<polygon points="219.1,218.3 225.1,218.3 225.1,224.3 219.1,224.3" fill="rgb(255,222,222)"/>
<polygon points="225.1,218.3 231.1,218.3 231.1,224.3 225.1,224.3" fill="rgb(247,247,255)"/>
<polygon points="231.1,218.3 237.1,218.3 237.1,224.3 231.1,224.3" fill="rgb(211,211,255)"/>
<polygon points="247.1,218.3 253.1,218.3 253.1,224.3 247.1,224.3" fill="rgb(255,149,149)"/>
<polygon points="253.1,218.3 259.1,218.3 259.1,224.3 253.1,224.3" fill="rgb(254,165,165)"/>
<polygon points="259.1,218.3 265.1,218.3 265.1,224.3 259.1,224.3" fill="rgb(255,231,231)"/>
<polygon points="265.1,218.3 271.1,218.3 271.1,224.3 265.1,224.3" fill="rgb(255,228,228)"/>
<polygon points="271.1,218.3 277.1,218.3 277.1,224.3 271.1,224.3" fill="rgb(255,107,107)"/>
<polygon points="277.1,218.3 283.1,218.3 283.1,224.3 277.1,224.3" fill="rgb(255,179,179)"/>
<polygon points="283.1,218.3 289.1,218.3 289.1,224.3 283.1,224.3" fill="rgb(243,243,255)"/>
<polygon points="289.1,218.3 295.1,218.3 295.1,224.3 289.1,224.3" fill="rgb(252,252,255)"/>
<polygon points="97.1,224.3 105.1,224.3 105.1,230.3 97.1,230.3" fill="rgb(222,235,234)"/><text xml:space="preserve" x="101.1" y="230.133" font-family="Calibri" font-size="7.5" fill="rgb(0,0,0)" text-anchor="middle">6</text>
<polygon points="105.1,224.3 113.1,224.3 113.1,230.3 105.1,230.3" fill="rgb(232,216,183)"/><text xml:space="preserve" x="109.1" y="230.133" font-family="Calibri" font-size="7.5" fill="rgb(0,0,0)" text-anchor="middle">10</text>
<polygon points="113.1,224.3 121.1,224.3 121.1,230.3 113.1,230.3" fill="rgb(232,216,183)"/><text xml:space="preserve" x="117.1" y="230.133" font-family="Calibri" font-size="7.5" fill="rgb(0,0,0)" text-anchor="middle">10</text>
<polygon points="131.1,224.3 137.1,224.3 137.1,230.3 131.1,230.3" fill="rgb(255,100,100)"/>
<polygon points="137.1,224.3 143.1,224.3 143.1,230.3 137.1,230.3" fill="rgb(255,89,89)"/>
<polygon points="143.1,224.3 149.1,224.3 149.1,230.3 143.1,230.3" fill="rgb(255,110,110)"/>
<polygon points="149.1,224.3 155.1,224.3 155.1,230.3 149.1,230.3" fill="rgb(255,25,25)"/>
<polygon points="155.1,224.3 161.1,224.3 161.1,230.3 155.1,230.3" fill="rgb(255,55,55)"/>
<polygon points="161.1,224.3 167.1,224.3 167.1,230.3 161.1,230.3" fill="rgb(114,114,255)"/>
<polygon points="167.1,224.3 173.1,224.3 173.1,230.3 167.1,230.3" fill="rgb(214,214,255)"/>
<polygon points="173.1,224.3 179.1,224.3 179.1,230.3 173.1,230.3" fill="rgb(228,228,255)"/>
<polygon points="189.1,224.3 195.1,224.3 195.1,230.3 189.1,230.3" fill="rgb(255,176,176)"/>
<polygon points="195.1,224.3 201.1,224.3 201.1,230.3 195.1,230.3" fill="rgb(255,179,179)"/>
<polygon points="201.1,224.3 207.1,224.3 207.1,230.3 201.1,230.3" fill="rgb(255,208,208)"/>
<polygon points="207.1,224.3 213.1,224.3 213.1,230.3 207.1,230.3" fill="rgb(255,187,187)"/>
<polygon points="213.1,224.3 219.1,224.3 219.1,230.3 213.1,230.3" fill="rgb(255,140,140)"/>
<polygon points="219.1,224.3 225.1,224.3 225.1,230.3 219.1,230.3" fill="rgb(158,158,255)"/>
<polygon points="225.1,224.3 231.1,224.3 231.1,230.3 225.1,230.3" fill="rgb(191,191,255)"/>
<polygon points="231.1,224.3 237.1,224.3 237.1,230.3 231.1,230.3" fill="rgb(247,247,255)"/>
<polygon points="247.1,224.3 253.1,224.3 253.1,230.3 247.1,230.3" fill="rgb(255,176,176)"/>
<polygon points="253.1,224.3 259.1,224.3 259.1,230.3 253.1,230.3" fill="rgb(255,223,223)"/>
<polygon points="259.1,224.3 265.1,224.3 265.1,230.3 259.1,230.3" fill="rgb(238,238,255)"/>
<polygon points="265.1,224.3 271.1,224.3 271.1,230.3 265.1,230.3" fill="rgb(255,146,146)"/>
<polygon points="271.1,224.3 277.1,224.3 277.1,230.3 271.1,230.3" fill="rgb(255,193,193)"/>
<polygon points="277.1,224.3 283.1,224.3 283.1,230.3 277.1,230.3" fill="rgb(123,123,255)"/>
<polygon points="283.1,224.3 289.1,224.3 289.1,230.3 283.1,230.3" fill="rgb(145,145,255)"/>
<polygon points="289.1,224.3 295.1,224.3 295.1,230.3 289.1,230.3" fill="rgb(236,236,255)"/>
<polygon points="97.1,230.3 105.1,230.3 105.1,236.3 97.1,236.3" fill="rgb(222,235,234)"/><text xml:space="preserve" x="101.1" y="236.133" font-family="Calibri" font-size="7.5" fill="rgb(0,0,0)" text-anchor="middle">6</text>
<polygon points="105.1,230.3 113.1,230.3 113.1,236.3 105.1,236.3" fill="rgb(232,216,183)"/><text xml:space="preserve" x="109.1" y="236.133" font-family="Calibri" font-size="7.5" fill="rgb(0,0,0)" text-anchor="middle">10</text>
<polygon points="113.1,230.3 121.1,230.3 121.1,236.3 113.1,236.3" fill="rgb(232,216,183)"/><text xml:space="preserve" x="117.1" y="236.133" font-family="Calibri" font-size="7.5" fill="rgb(0,0,0)" text-anchor="middle">10</text>
<polygon points="131.1,230.3 137.1,230.3 137.1,236.3 131.1,236.3" fill="rgb(255,109,109)"/>
<polygon points="137.1,230.3 143.1,230.3 143.1,236.3 137.1,236.3" fill="rgb(255,93,93)"/>
<polygon points="143.1,230.3 149.1,230.3 149.1,236.3 143.1,236.3" fill="rgb(255,173,173)"/>
<polygon points="149.1,230.3 155.1,230.3 155.1,236.3 149.1,236.3" fill="rgb(255,123,123)"/>
<polygon points="155.1,230.3 161.1,230.3 161.1,236.3 155.1,236.3" fill="rgb(255,123,123)"/>
<polygon points="161.1,230.3 167.1,230.3 167.1,236.3 161.1,236.3" fill="rgb(123,123,255)"/>
<polygon points="167.1,230.3 173.1,230.3 173.1,236.3 167.1,236.3" fill="rgb(174,174,255)"/>
<polygon points="173.1,230.3 179.1,230.3 179.1,236.3 173.1,236.3" fill="rgb(179,179,255)"/>
<polygon points="189.1,230.3 195.1,230.3 195.1,236.3 189.1,236.3" fill="rgb(255,129,129)"/>
<polygon points="195.1,230.3 201.1,230.3 201.1,236.3 195.1,236.3" fill="rgb(255,182,182)"/>
<polygon points="201.1,230.3 207.1,230.3 207.1,236.3 201.1,236.3" fill="rgb(255,213,213)"/>
<polygon points="207.1,230.3 213.1,230.3 213.1,236.3 207.1,236.3" fill="rgb(255,203,203)"/>
<polygon points="213.1,230.3 219.1,230.3 219.1,236.3 213.1,236.3" fill="rgb(255,111,111)"/>
<polygon points="219.1,230.3 225.1,230.3 225.1,236.3 219.1,236.3" fill="rgb(255,230,230)"/>
<polygon points="225.1,230.3 231.1,230.3 231.1,236.3 225.1,236.3" fill="rgb(205,205,255)"/>
<polygon points="231.1,230.3 237.1,230.3 237.1,236.3 231.1,236.3" fill="rgb(219,219,255)"/>
<polygon points="247.1,230.3 253.1,230.3 253.1,236.3 247.1,236.3" fill="rgb(255,94,94)"/>
<polygon points="253.1,230.3 259.1,230.3 259.1,236.3 253.1,236.3" fill="rgb(255,178,178)"/>
<polygon points="259.1,230.3 265.1,230.3 265.1,236.3 259.1,236.3" fill="rgb(255,249,249)"/>
<polygon points="265.1,230.3 271.1,230.3 271.1,236.3 265.1,236.3" fill="rgb(255,225,225)"/>
<polygon points="271.1,230.3 277.1,230.3 277.1,236.3 271.1,236.3" fill="rgb(255,154,154)"/>
<polygon points="277.1,230.3 283.1,230.3 283.1,236.3 277.1,236.3" fill="rgb(247,247,255)"/>
<polygon points="283.1,230.3 289.1,230.3 289.1,236.3 283.1,236.3" fill="rgb(229,229,255)"/>
<polygon points="289.1,230.3 295.1,230.3 295.1,236.3 289.1,236.3" fill="rgb(201,201,255)"/>
<polygon points="97.1,236.3 105.1,236.3 105.1,242.3 97.1,242.3" fill="rgb(222,235,234)"/><text xml:space="preserve" x="101.1" y="242.133" font-family="Calibri" font-size="7.5" fill="rgb(0,0,0)" text-anchor="middle">6</text>
<polygon points="105.1,236.3 113.1,236.3 113.1,242.3 105.1,242.3" fill="rgb(232,216,183)"/><text xml:space="preserve" x="109.1" y="242.133" font-family="Calibri" font-size="7.5" fill="rgb(0,0,0)" text-anchor="middle">10</text>
<polygon points="113.1,236.3 121.1,236.3 121.1,242.3 113.1,242.3" fill="rgb(232,216,183)"/><text xml:space="preserve" x="117.1" y="242.133" font-family="Calibri" font-size="7.5" fill="rgb(0,0,0)" text-anchor="middle">10</text>
<polygon points="131.1,236.3 137.1,236.3 137.1,242.3 131.1,242.3" fill="rgb(255,158,158)"/>
<polygon points="137.1,236.3 143.1,236.3 143.1,242.3 137.1,242.3" fill="rgb(255,96,96)"/>
<polygon points="143.1,236.3 149.1,236.3 149.1,242.3 143.1,242.3" fill="rgb(255,137,137)"/>
<polygon points="149.1,236.3 155.1,236.3 155.1,242.3 149.1,242.3" fill="rgb(255,136,136)"/>
<polygon points="155.1,236.3 161.1,236.3 161.1,242.3 155.1,242.3" fill="rgb(255,98,98)"/>
<polygon points="161.1,236.3 167.1,236.3 167.1,242.3 161.1,242.3" fill="rgb(198,198,255)"/>
<polygon points="167.1,236.3 173.1,236.3 173.1,242.3 167.1,242.3" fill="rgb(149,149,255)"/>
<polygon points="173.1,236.3 179.1,236.3 179.1,242.3 173.1,242.3" fill="rgb(131,131,255)"/>
<polygon points="189.1,236.3 195.1,236.3 195.1,242.3 189.1,242.3" fill="rgb(255,208,208)"/>
<polygon points="195.1,236.3 201.1,236.3 201.1,242.3 195.1,242.3" fill="rgb(255,97,97)"/>
<polygon points="201.1,236.3 207.1,236.3 207.1,242.3 201.1,242.3" fill="rgb(255,147,147)"/>
<polygon points="207.1,236.3 213.1,236.3 213.1,242.3 207.1,242.3" fill="rgb(255,112,112)"/>
<polygon points="213.1,236.3 219.1,236.3 219.1,242.3 213.1,242.3" fill="rgb(255,110,110)"/>
<polygon points="219.1,236.3 225.1,236.3 225.1,242.3 219.1,242.3" fill="rgb(255,252,252)"/>
<polygon points="225.1,236.3 231.1,236.3 231.1,242.3 225.1,242.3" fill="rgb(210,210,255)"/>
<polygon points="231.1,236.3 237.1,236.3 237.1,242.3 231.1,242.3" fill="rgb(192,192,255)"/>
<polygon points="247.1,236.3 253.1,236.3 253.1,242.3 247.1,242.3" fill="rgb(255,190,190)"/>
<polygon points="253.1,236.3 259.1,236.3 259.1,242.3 253.1,242.3" fill="rgb(255,150,150)"/>
<polygon points="259.1,236.3 265.1,236.3 265.1,242.3 259.1,242.3" fill="rgb(255,184,184)"/>
<polygon points="265.1,236.3 271.1,236.3 271.1,242.3 265.1,242.3" fill="rgb(254,192,192)"/>
<polygon points="271.1,236.3 277.1,236.3 277.1,242.3 271.1,242.3" fill="rgb(255,124,124)"/>
<polygon points="277.1,236.3 283.1,236.3 283.1,242.3 277.1,242.3" fill="rgb(255,241,241)"/>
<polygon points="283.1,236.3 289.1,236.3 289.1,242.3 283.1,242.3" fill="rgb(208,208,255)"/>
<polygon points="289.1,236.3 295.1,236.3 295.1,242.3 289.1,242.3" fill="rgb(194,194,255)"/>
<polygon points="97.1,242.3 105.1,242.3 105.1,248.3 97.1,248.3" fill="rgb(222,235,234)"/><text xml:space="preserve" x="101.1" y="248.133" font-family="Calibri" font-size="7.5" fill="rgb(0,0,0)" text-anchor="middle">6</text>
<polygon points="105.1,242.3 113.1,242.3 113.1,248.3 105.1,248.3" fill="rgb(232,216,183)"/><text xml:space="preserve" x="109.1" y="248.133" font-family="Calibri" font-size="7.5" fill="rgb(0,0,0)" text-anchor="middle">10</text>
<polygon points="113.1,242.3 121.1,242.3 121.1,248.3 113.1,248.3" fill="rgb(232,216,183)"/><text xml:space="preserve" x="117.1" y="248.133" font-family="Calibri" font-size="7.5" fill="rgb(0,0,0)" text-anchor="middle">10</text>
<polygon points="131.1,242.3 137.1,242.3 137.1,248.3 131.1,248.3" fill="rgb(255,108,108)"/>
<polygon points="137.1,242.3 143.1,242.3 143.1,248.3 137.1,248.3" fill="rgb(255,19,19)"/>
<polygon points="143.1,242.3 149.1,242.3 149.1,248.3 143.1,248.3" fill="rgb(255,17,17)"/>
<polygon points="149.1,242.3 155.1,242.3 155.1,248.3 149.1,248.3" fill="rgb(255,77,77)"/>
<polygon points="155.1,242.3 161.1,242.3 161.1,248.3 155.1,248.3" fill="rgb(255,26,26)"/>
<polygon points="161.1,242.3 167.1,242.3 167.1,248.3 161.1,248.3" fill="rgb(247,247,255)"/>
<polygon points="167.1,242.3 173.1,242.3 173.1,248.3 167.1,248.3" fill="rgb(247,247,255)"/>
<polygon points="173.1,242.3 179.1,242.3 179.1,248.3 173.1,248.3" fill="rgb(186,186,255)"/>
<polygon points="189.1,242.3 195.1,242.3 195.1,248.3 189.1,248.3" fill="rgb(255,181,181)"/>
<polygon points="195.1,242.3 201.1,242.3 201.1,248.3 195.1,248.3" fill="rgb(255,165,165)"/>
<polygon points="201.1,242.3 207.1,242.3 207.1,248.3 201.1,248.3" fill="rgb(255,217,217)"/>
<polygon points="207.1,242.3 213.1,242.3 213.1,248.3 207.1,248.3" fill="rgb(255,178,178)"/>
<polygon points="213.1,242.3 219.1,242.3 219.1,248.3 213.1,248.3" fill="rgb(255,140,140)"/>
<polygon points="219.1,242.3 225.1,242.3 225.1,248.3 219.1,248.3" fill="rgb(143,143,255)"/>
<polygon points="225.1,242.3 231.1,242.3 231.1,248.3 225.1,248.3" fill="rgb(181,181,255)"/>
<polygon points="231.1,242.3 237.1,242.3 237.1,248.3 231.1,248.3" fill="rgb(167,167,255)"/>
<polygon points="247.1,242.3 253.1,242.3 253.1,248.3 247.1,248.3" fill="rgb(255,163,163)"/>
<polygon points="253.1,242.3 259.1,242.3 259.1,248.3 253.1,248.3" fill="rgb(255,157,157)"/>
<polygon points="259.1,242.3 265.1,242.3 265.1,248.3 259.1,248.3" fill="rgb(255,153,153)"/>
<polygon points="265.1,242.3 271.1,242.3 271.1,248.3 265.1,248.3" fill="rgb(250,250,255)"/>
<polygon points="271.1,242.3 277.1,242.3 277.1,248.3 271.1,248.3" fill="rgb(255,148,148)"/>
<polygon points="277.1,242.3 283.1,242.3 283.1,248.3 277.1,248.3" fill="rgb(166,166,255)"/>
<polygon points="283.1,242.3 289.1,242.3 289.1,248.3 283.1,248.3" fill="rgb(134,134,255)"/>
<polygon points="289.1,242.3 295.1,242.3 295.1,248.3 289.1,248.3" fill="rgb(196,196,255)"/>
<polygon points="97.1,248.3 105.1,248.3 105.1,254.3 97.1,254.3" fill="rgb(222,235,234)"/><text xml:space="preserve" x="101.1" y="254.133" font-family="Calibri" font-size="7.5" fill="rgb(0,0,0)" text-anchor="middle">6</text>
<polygon points="105.1,248.3 113.1,248.3 113.1,254.3 105.1,254.3" fill="rgb(232,216,183)"/><text xml:space="preserve" x="109.1" y="254.133" font-family="Calibri" font-size="7.5" fill="rgb(0,0,0)" text-anchor="middle">10</text>
<polygon points="113.1,248.3 121.1,248.3 121.1,254.3 113.1,254.3" fill="rgb(232,216,183)"/><text xml:space="preserve" x="117.1" y="254.133" font-family="Calibri" font-size="7.5" fill="rgb(0,0,0)" text-anchor="middle">10</text>
<polygon points="131.1,248.3 137.1,248.3 137.1,254.3 131.1,254.3" fill="rgb(255,144,144)"/>
<polygon points="137.1,248.3 143.1,248.3 143.1,254.3 137.1,254.3" fill="rgb(255,61,61)"/>
<polygon points="143.1,248.3 149.1,248.3 149.1,254.3 143.1,254.3" fill="rgb(255,140,140)"/>
<polygon points="149.1,248.3 155.1,248.3 155.1,254.3 149.1,254.3" fill="rgb(255,113,113)"/>
<polygon points="155.1,248.3 161.1,248.3 161.1,254.3 155.1,254.3" fill="rgb(255,5,5)"/>
<polygon points="161.1,248.3 167.1,248.3 167.1,254.3 161.1,254.3" fill="rgb(254,242,242)"/>
<polygon points="167.1,248.3 173.1,248.3 173.1,254.3 167.1,254.3" fill="rgb(225,225,255)"/>
<polygon points="173.1,248.3 179.1,248.3 179.1,254.3 173.1,254.3" fill="rgb(184,184,255)"/>
<polygon points="189.1,248.3 195.1,248.3 195.1,254.3 189.1,254.3" fill="rgb(255,223,223)"/>
<polygon points="195.1,248.3 201.1,248.3 201.1,254.3 195.1,254.3" fill="rgb(255,138,138)"/>
<polygon points="201.1,248.3 207.1,248.3 207.1,254.3 201.1,254.3" fill="rgb(255,177,177)"/>
<polygon points="207.1,248.3 213.1,248.3 213.1,254.3 207.1,254.3" fill="rgb(255,184,184)"/>
<polygon points="213.1,248.3 219.1,248.3 219.1,254.3 213.1,254.3" fill="rgb(255,97,97)"/>
<polygon points="219.1,248.3 225.1,248.3 225.1,254.3 219.1,254.3" fill="rgb(255,223,223)"/>
<polygon points="225.1,248.3 231.1,248.3 231.1,254.3 225.1,254.3" fill="rgb(255,215,215)"/>
<polygon points="231.1,248.3 237.1,248.3 237.1,254.3 231.1,254.3" fill="rgb(167,167,255)"/>
<polygon points="247.1,248.3 253.1,248.3 253.1,254.3 247.1,254.3" fill="rgb(255,149,149)"/>
<polygon points="253.1,248.3 259.1,248.3 259.1,254.3 253.1,254.3" fill="rgb(255,177,177)"/>
<polygon points="259.1,248.3 265.1,248.3 265.1,254.3 259.1,254.3" fill="rgb(255,230,230)"/>
<polygon points="265.1,248.3 271.1,248.3 271.1,254.3 265.1,254.3" fill="rgb(255,227,227)"/>
<polygon points="271.1,248.3 277.1,248.3 277.1,254.3 271.1,254.3" fill="rgb(255,84,84)"/>
<polygon points="277.1,248.3 283.1,248.3 283.1,254.3 277.1,254.3" fill="rgb(255,184,184)"/>
<polygon points="283.1,248.3 289.1,248.3 289.1,254.3 283.1,254.3" fill="rgb(255,191,191)"/>
<polygon points="289.1,248.3 295.1,248.3 295.1,254.3 289.1,254.3" fill="rgb(244,244,255)"/>
<polygon points="97.1,254.3 105.1,254.3 105.1,260.3 97.1,260.3" fill="rgb(222,235,234)"/><text xml:space="preserve" x="101.1" y="260.133" font-family="Calibri" font-size="7.5" fill="rgb(0,0,0)" text-anchor="middle">6</text>
<polygon points="105.1,254.3 113.1,254.3 113.1,260.3 105.1,260.3" fill="rgb(232,216,183)"/><text xml:space="preserve" x="109.1" y="260.133" font-family="Calibri" font-size="7.5" fill="rgb(0,0,0)" text-anchor="middle">10</text>
<polygon points="113.1,254.3 121.1,254.3 121.1,260.3 113.1,260.3" fill="rgb(232,216,183)"/><text xml:space="preserve" x="117.1" y="260.133" font-family="Calibri" font-size="7.5" fill="rgb(0,0,0)" text-anchor="middle">10</text>
<polygon points="131.1,254.3 137.1,254.3 137.1,260.3 131.1,260.3" fill="rgb(255,105,105)"/>
<polygon points="137.1,254.3 143.1,254.3 143.1,260.3 137.1,260.3" fill="rgb(255,99,99)"/>
<polygon points="143.1,254.3 149.1,254.3 149.1,260.3 143.1,260.3" fill="rgb(255,99,99)"/>
<polygon points="149.1,254.3 155.1,254.3 155.1,260.3 149.1,260.3" fill="rgb(255,162,162)"/>
<polygon points="155.1,254.3 161.1,254.3 161.1,260.3 155.1,260.3" fill="rgb(255,0,0)"/>
<polygon points="161.1,254.3 167.1,254.3 167.1,260.3 161.1,260.3" fill="rgb(255,216,216)"/>
<polygon points="167.1,254.3 173.1,254.3 173.1,260.3 167.1,260.3" fill="rgb(252,252,255)"/>
<polygon points="173.1,254.3 179.1,254.3 179.1,260.3 173.1,260.3" fill="rgb(181,181,255)"/>
<polygon points="189.1,254.3 195.1,254.3 195.1,260.3 189.1,260.3" fill="rgb(255,216,216)"/>
<polygon points="195.1,254.3 201.1,254.3 201.1,260.3 195.1,260.3" fill="rgb(255,172,172)"/>
<polygon points="201.1,254.3 207.1,254.3 207.1,260.3 201.1,260.3" fill="rgb(255,212,212)"/>
<polygon points="207.1,254.3 213.1,254.3 213.1,260.3 207.1,260.3" fill="rgb(255,187,187)"/>
<polygon points="213.1,254.3 219.1,254.3 219.1,260.3 213.1,260.3" fill="rgb(255,73,73)"/>
<polygon points="219.1,254.3 225.1,254.3 225.1,260.3 219.1,260.3" fill="rgb(255,205,205)"/>
<polygon points="225.1,254.3 231.1,254.3 231.1,260.3 225.1,260.3" fill="rgb(255,245,245)"/>
<polygon points="231.1,254.3 237.1,254.3 237.1,260.3 231.1,260.3" fill="rgb(178,178,255)"/>
<polygon points="247.1,254.3 253.1,254.3 253.1,260.3 247.1,260.3" fill="rgb(255,137,137)"/>
<polygon points="253.1,254.3 259.1,254.3 259.1,260.3 253.1,260.3" fill="rgb(255,151,151)"/>
<polygon points="259.1,254.3 265.1,254.3 265.1,260.3 259.1,260.3" fill="rgb(255,215,215)"/>
<polygon points="265.1,254.3 271.1,254.3 271.1,260.3 265.1,260.3" fill="rgb(255,212,212)"/>
<polygon points="271.1,254.3 277.1,254.3 277.1,260.3 271.1,260.3" fill="rgb(255,137,137)"/>
<polygon points="277.1,254.3 283.1,254.3 283.1,260.3 277.1,260.3" fill="rgb(212,212,255)"/>
<polygon points="283.1,254.3 289.1,254.3 289.1,260.3 283.1,260.3" fill="rgb(245,245,255)"/>
<polygon points="289.1,254.3 295.1,254.3 295.1,260.3 289.1,260.3" fill="rgb(197,197,255)"/>
<polygon points="97.1,260.3 105.1,260.3 105.1,266.3 97.1,266.3" fill="rgb(222,235,234)"/><text xml:space="preserve" x="101.1" y="266.133" font-family="Calibri" font-size="7.5" fill="rgb(0,0,0)" text-anchor="middle">6</text>
<polygon points="105.1,260.3 113.1,260.3 113.1,266.3 105.1,266.3" fill="rgb(232,216,183)"/><text xml:space="preserve" x="109.1" y="266.133" font-family="Calibri" font-size="7.5" fill="rgb(0,0,0)" text-anchor="middle">10</text>
<polygon points="113.1,260.3 121.1,260.3 121.1,266.3 113.1,266.3" fill="rgb(232,216,183)"/><text xml:space="preserve" x="117.1" y="266.133" font-family="Calibri" font-size="7.5" fill="rgb(0,0,0)" text-anchor="middle">10</text>
<polygon points="131.1,260.3 137.1,260.3 137.1,266.3 131.1,266.3" fill="rgb(255,113,113)"/>
<polygon points="137.1,260.3 143.1,260.3 143.1,266.3 137.1,266.3" fill="rgb(255,117,117)"/>
<polygon points="143.1,260.3 149.1,260.3 149.1,266.3 143.1,266.3" fill="rgb(255,147,147)"/>
<polygon points="149.1,260.3 155.1,260.3 155.1,266.3 149.1,266.3" fill="rgb(255,115,115)"/>
<polygon points="155.1,260.3 161.1,260.3 161.1,266.3 155.1,266.3" fill="rgb(255,68,68)"/>
<polygon points="161.1,260.3 167.1,260.3 167.1,266.3 161.1,266.3" fill="rgb(197,197,255)"/>
<polygon points="167.1,260.3 173.1,260.3 173.1,266.3 167.1,266.3" fill="rgb(166,166,255)"/>
<polygon points="173.1,260.3 179.1,260.3 179.1,266.3 173.1,266.3" fill="rgb(195,195,255)"/>
<polygon points="189.1,260.3 195.1,260.3 195.1,266.3 189.1,266.3" fill="rgb(255,180,180)"/>
<polygon points="195.1,260.3 201.1,260.3 201.1,266.3 195.1,266.3" fill="rgb(255,144,144)"/>
<polygon points="201.1,260.3 207.1,260.3 207.1,266.3 201.1,266.3" fill="rgb(255,198,198)"/>
<polygon points="207.1,260.3 213.1,260.3 213.1,266.3 207.1,266.3" fill="rgb(255,152,152)"/>
<polygon points="213.1,260.3 219.1,260.3 219.1,266.3 213.1,266.3" fill="rgb(255,101,101)"/>
<polygon points="219.1,260.3 225.1,260.3 225.1,266.3 219.1,266.3" fill="rgb(179,179,255)"/>
<polygon points="225.1,260.3 231.1,260.3 231.1,266.3 225.1,266.3" fill="rgb(255,240,240)"/>
<polygon points="231.1,260.3 237.1,260.3 237.1,266.3 231.1,266.3" fill="rgb(169,169,255)"/>
<polygon points="247.1,260.3 253.1,260.3 253.1,266.3 247.1,266.3" fill="rgb(255,164,164)"/>
<polygon points="253.1,260.3 259.1,260.3 259.1,266.3 253.1,266.3" fill="rgb(255,133,133)"/>
<polygon points="259.1,260.3 265.1,260.3 265.1,266.3 259.1,266.3" fill="rgb(255,237,237)"/>
<polygon points="265.1,260.3 271.1,260.3 271.1,266.3 265.1,266.3" fill="rgb(255,212,212)"/>
<polygon points="271.1,260.3 277.1,260.3 277.1,266.3 271.1,266.3" fill="rgb(255,152,152)"/>
<polygon points="277.1,260.3 283.1,260.3 283.1,266.3 277.1,266.3" fill="rgb(161,161,255)"/>
<polygon points="283.1,260.3 289.1,260.3 289.1,266.3 283.1,266.3" fill="rgb(147,147,255)"/>
<polygon points="289.1,260.3 295.1,260.3 295.1,266.3 289.1,266.3" fill="rgb(191,191,255)"/>
<polygon points="97.1,266.3 105.1,266.3 105.1,272.3 97.1,272.3" fill="rgb(222,235,234)"/><text xml:space="preserve" x="101.1" y="272.133" font-family="Calibri" font-size="7.5" fill="rgb(0,0,0)" text-anchor="middle">6</text>
<polygon points="105.1,266.3 113.1,266.3 113.1,272.3 105.1,272.3" fill="rgb(232,216,183)"/><text xml:space="preserve" x="109.1" y="272.133" font-family="Calibri" font-size="7.5" fill="rgb(0,0,0)" text-anchor="middle">10</text>
<polygon points="113.1,266.3 121.1,266.3 121.1,272.3 113.1,272.3" fill="rgb(232,216,183)"/><text xml:space="preserve" x="117.1" y="272.133" font-family="Calibri" font-size="7.5" fill="rgb(0,0,0)" text-anchor="middle">10</text>
<polygon points="131.1,266.3 137.1,266.3 137.1,272.3 131.1,272.3" fill="rgb(255,85,85)"/>
<polygon points="137.1,266.3 143.1,266.3 143.1,272.3 137.1,272.3" fill="rgb(255,73,73)"/>
<polygon points="143.1,266.3 149.1,266.3 149.1,272.3 143.1,272.3" fill="rgb(255,88,88)"/>
<polygon points="149.1,266.3 155.1,266.3 155.1,272.3 149.1,272.3" fill="rgb(255,39,39)"/>
<polygon points="155.1,266.3 161.1,266.3 161.1,272.3 155.1,272.3" fill="rgb(255,73,73)"/>
<polygon points="161.1,266.3 167.1,266.3 167.1,272.3 161.1,272.3" fill="rgb(245,245,255)"/>
<polygon points="167.1,266.3 173.1,266.3 173.1,272.3 167.1,272.3" fill="rgb(215,215,255)"/>
<polygon points="173.1,266.3 179.1,266.3 179.1,272.3 173.1,272.3" fill="rgb(188,188,255)"/>
<polygon points="189.1,266.3 195.1,266.3 195.1,272.3 189.1,272.3" fill="rgb(255,138,138)"/>
<polygon points="195.1,266.3 201.1,266.3 201.1,272.3 195.1,272.3" fill="rgb(255,181,181)"/>
<polygon points="201.1,266.3 207.1,266.3 207.1,272.3 201.1,272.3" fill="rgb(255,247,247)"/>
<polygon points="207.1,266.3 213.1,266.3 213.1,272.3 207.1,272.3" fill="rgb(255,121,121)"/>
<polygon points="213.1,266.3 219.1,266.3 219.1,272.3 213.1,272.3" fill="rgb(255,138,138)"/>
<polygon points="219.1,266.3 225.1,266.3 225.1,272.3 219.1,272.3" fill="rgb(255,244,244)"/>
<polygon points="225.1,266.3 231.1,266.3 231.1,272.3 225.1,272.3" fill="rgb(242,242,255)"/>
<polygon points="231.1,266.3 237.1,266.3 237.1,272.3 231.1,272.3" fill="rgb(248,248,255)"/>
<polygon points="247.1,266.3 253.1,266.3 253.1,272.3 247.1,272.3" fill="rgb(255,185,185)"/>
<polygon points="253.1,266.3 259.1,266.3 259.1,272.3 253.1,272.3" fill="rgb(255,173,173)"/>
<polygon points="259.1,266.3 265.1,266.3 265.1,272.3 259.1,272.3" fill="rgb(255,216,216)"/>
<polygon points="265.1,266.3 271.1,266.3 271.1,272.3 265.1,272.3" fill="rgb(255,194,194)"/>
<polygon points="271.1,266.3 277.1,266.3 277.1,272.3 271.1,272.3" fill="rgb(255,151,151)"/>
<polygon points="277.1,266.3 283.1,266.3 283.1,272.3 277.1,272.3" fill="rgb(254,243,243)"/>
<polygon points="283.1,266.3 289.1,266.3 289.1,272.3 283.1,272.3" fill="rgb(239,239,255)"/>
<polygon points="289.1,266.3 295.1,266.3 295.1,272.3 289.1,272.3" fill="rgb(245,245,255)"/>
<polygon points="97.1,272.3 105.1,272.3 105.1,278.3 97.1,278.3" fill="rgb(222,235,234)"/><text xml:space="preserve" x="101.1" y="278.133" font-family="Calibri" font-size="7.5" fill="rgb(0,0,0)" text-anchor="middle">6</text>
<polygon points="105.1,272.3 113.1,272.3 113.1,278.3 105.1,278.3" fill="rgb(232,216,183)"/><text xml:space="preserve" x="109.1" y="278.133" font-family="Calibri" font-size="7.5" fill="rgb(0,0,0)" text-anchor="middle">10</text>
<polygon points="113.1,272.3 121.1,272.3 121.1,278.3 113.1,278.3" fill="rgb(232,216,183)"/><text xml:space="preserve" x="117.1" y="278.133" font-family="Calibri" font-size="7.5" fill="rgb(0,0,0)" text-anchor="middle">10</text>
<polygon points="131.1,272.3 137.1,272.3 137.1,278.3 131.1,278.3" fill="rgb(255,140,140)"/>
<polygon points="137.1,272.3 143.1,272.3 143.1,278.3 137.1,278.3" fill="rgb(255,78,78)"/>
<polygon points="143.1,272.3 149.1,272.3 149.1,278.3 143.1,278.3" fill="rgb(255,104,104)"/>
<polygon points="149.1,272.3 155.1,272.3 155.1,278.3 149.1,278.3" fill="rgb(255,105,105)"/>
<polygon points="155.1,272.3 161.1,272.3 161.1,278.3 155.1,278.3" fill="rgb(255,25,25)"/>
<polygon points="161.1,272.3 167.1,272.3 167.1,278.3 161.1,278.3" fill="rgb(255,212,212)"/>
<polygon points="167.1,272.3 173.1,272.3 173.1,278.3 167.1,278.3" fill="rgb(253,253,255)"/>
<polygon points="173.1,272.3 179.1,272.3 179.1,278.3 173.1,278.3" fill="rgb(179,179,255)"/>
<polygon points="189.1,272.3 195.1,272.3 195.1,278.3 189.1,278.3" fill="rgb(255,219,219)"/>
<polygon points="195.1,272.3 201.1,272.3 201.1,278.3 195.1,278.3" fill="rgb(255,155,155)"/>
<polygon points="201.1,272.3 207.1,272.3 207.1,278.3 201.1,278.3" fill="rgb(255,191,191)"/>
<polygon points="207.1,272.3 213.1,272.3 213.1,278.3 207.1,278.3" fill="rgb(255,166,166)"/>
<polygon points="213.1,272.3 219.1,272.3 219.1,278.3 213.1,278.3" fill="rgb(255,101,101)"/>
<polygon points="219.1,272.3 225.1,272.3 225.1,278.3 219.1,278.3" fill="rgb(202,202,255)"/>
<polygon points="225.1,272.3 231.1,272.3 231.1,278.3 225.1,278.3" fill="rgb(207,207,255)"/>
<polygon points="231.1,272.3 237.1,272.3 237.1,278.3 231.1,278.3" fill="rgb(249,249,255)"/>
<polygon points="247.1,272.3 253.1,272.3 253.1,278.3 247.1,278.3" fill="rgb(255,205,205)"/>
<polygon points="253.1,272.3 259.1,272.3 259.1,278.3 253.1,278.3" fill="rgb(255,166,166)"/>
<polygon points="259.1,272.3 265.1,272.3 265.1,278.3 259.1,278.3" fill="rgb(255,235,235)"/>
<polygon points="265.1,272.3 271.1,272.3 271.1,278.3 265.1,278.3" fill="rgb(255,221,221)"/>
<polygon points="271.1,272.3 277.1,272.3 277.1,278.3 271.1,278.3" fill="rgb(255,98,98)"/>
<polygon points="277.1,272.3 283.1,272.3 283.1,278.3 277.1,278.3" fill="rgb(255,228,228)"/>
<polygon points="283.1,272.3 289.1,272.3 289.1,278.3 283.1,278.3" fill="rgb(255,254,254)"/>
<polygon points="289.1,272.3 295.1,272.3 295.1,278.3 289.1,278.3" fill="rgb(223,223,255)"/>
<polygon points="97.1,278.3 105.1,278.3 105.1,284.3 97.1,284.3" fill="rgb(222,235,234)"/><text xml:space="preserve" x="101.1" y="284.133" font-family="Calibri" font-size="7.5" fill="rgb(0,0,0)" text-anchor="middle">6</text>
<polygon points="105.1,278.3 113.1,278.3 113.1,284.3 105.1,284.3" fill="rgb(232,216,183)"/><text xml:space="preserve" x="109.1" y="284.133" font-family="Calibri" font-size="7.5" fill="rgb(0,0,0)" text-anchor="middle">10</text>
<polygon points="113.1,278.3 121.1,278.3 121.1,284.3 113.1,284.3" fill="rgb(232,216,183)"/><text xml:space="preserve" x="117.1" y="284.133" font-family="Calibri" font-size="7.5" fill="rgb(0,0,0)" text-anchor="middle">10</text>
<polygon points="131.1,278.3 137.1,278.3 137.1,284.3 131.1,284.3" fill="rgb(255,120,120)"/>
<polygon points="137.1,278.3 143.1,278.3 143.1,284.3 137.1,284.3" fill="rgb(255,111,111)"/>
<polygon points="143.1,278.3 149.1,278.3 149.1,284.3 143.1,284.3" fill="rgb(255,135,135)"/>
<polygon points="149.1,278.3 155.1,278.3 155.1,284.3 149.1,284.3" fill="rgb(255,105,105)"/>
<polygon points="155.1,278.3 161.1,278.3 161.1,284.3 155.1,284.3" fill="rgb(255,41,41)"/>
<polygon points="161.1,278.3 167.1,278.3 167.1,284.3 161.1,284.3" fill="rgb(192,192,255)"/>
<polygon points="167.1,278.3 173.1,278.3 173.1,284.3 167.1,284.3" fill="rgb(255,242,242)"/>
<polygon points="173.1,278.3 179.1,278.3 179.1,284.3 173.1,284.3" fill="rgb(167,167,255)"/>
<polygon points="189.1,278.3 195.1,278.3 195.1,284.3 189.1,284.3" fill="rgb(254,167,167)"/>
<polygon points="195.1,278.3 201.1,278.3 201.1,284.3 195.1,284.3" fill="rgb(255,201,201)"/>
<polygon points="201.1,278.3 207.1,278.3 207.1,284.3 201.1,284.3" fill="rgb(255,125,125)"/>
<polygon points="207.1,278.3 213.1,278.3 213.1,284.3 207.1,284.3" fill="rgb(255,230,230)"/>
<polygon points="213.1,278.3 219.1,278.3 219.1,284.3 213.1,284.3" fill="rgb(255,108,108)"/>
<polygon points="219.1,278.3 225.1,278.3 225.1,284.3 219.1,284.3" fill="rgb(255,248,248)"/>
<polygon points="225.1,278.3 231.1,278.3 231.1,284.3 225.1,284.3" fill="rgb(189,189,255)"/>
<polygon points="231.1,278.3 237.1,278.3 237.1,284.3 231.1,284.3" fill="rgb(243,243,255)"/>
<polygon points="247.1,278.3 253.1,278.3 253.1,284.3 247.1,284.3" fill="rgb(254,149,149)"/>
<polygon points="253.1,278.3 259.1,278.3 259.1,284.3 253.1,284.3" fill="rgb(255,165,165)"/>
<polygon points="259.1,278.3 265.1,278.3 265.1,284.3 259.1,284.3" fill="rgb(255,177,177)"/>
<polygon points="265.1,278.3 271.1,278.3 271.1,284.3 265.1,284.3" fill="rgb(255,229,229)"/>
<polygon points="271.1,278.3 277.1,278.3 277.1,284.3 271.1,284.3" fill="rgb(255,120,120)"/>
<polygon points="277.1,278.3 283.1,278.3 283.1,284.3 277.1,284.3" fill="rgb(255,248,248)"/>
<polygon points="283.1,278.3 289.1,278.3 289.1,284.3 283.1,284.3" fill="rgb(237,237,255)"/>
<polygon points="289.1,278.3 295.1,278.3 295.1,284.3 289.1,284.3" fill="rgb(204,204,255)"/>
<polygon points="97.1,284.3 105.1,284.3 105.1,290.3 97.1,290.3" fill="rgb(222,235,234)"/><text xml:space="preserve" x="101.1" y="290.133" font-family="Calibri" font-size="7.5" fill="rgb(0,0,0)" text-anchor="middle">6</text>
<polygon points="105.1,284.3 113.1,284.3 113.1,290.3 105.1,290.3" fill="rgb(232,216,183)"/><text xml:space="preserve" x="109.1" y="290.133" font-family="Calibri" font-size="7.5" fill="rgb(0,0,0)" text-anchor="middle">10</text>
<polygon points="113.1,284.3 121.1,284.3 121.1,290.3 113.1,290.3" fill="rgb(232,216,183)"/><text xml:space="preserve" x="117.1" y="290.133" font-family="Calibri" font-size="7.5" fill="rgb(0,0,0)" text-anchor="middle">10</text>
<polygon points="131.1,284.3 137.1,284.3 137.1,290.3 131.1,290.3" fill="rgb(255,90,90)"/>
<polygon points="137.1,284.3 143.1,284.3 143.1,290.3 137.1,290.3" fill="rgb(255,78,78)"/>
<polygon points="143.1,284.3 149.1,284.3 149.1,290.3 143.1,290.3" fill="rgb(255,116,116)"/>
<polygon points="149.1,284.3 155.1,284.3 155.1,290.3 149.1,290.3" fill="rgb(255,18,18)"/>
<polygon points="155.1,284.3 161.1,284.3 161.1,290.3 155.1,290.3" fill="rgb(255,48,48)"/>
<polygon points="161.1,284.3 167.1,284.3 167.1,290.3 161.1,290.3" fill="rgb(215,215,255)"/>
<polygon points="167.1,284.3 173.1,284.3 173.1,290.3 167.1,290.3" fill="rgb(222,222,255)"/>
<polygon points="173.1,284.3 179.1,284.3 179.1,290.3 173.1,290.3" fill="rgb(192,192,255)"/>
<polygon points="189.1,284.3 195.1,284.3 195.1,290.3 189.1,290.3" fill="rgb(255,182,182)"/>
<polygon points="195.1,284.3 201.1,284.3 201.1,290.3 195.1,290.3" fill="rgb(255,152,152)"/>
<polygon points="201.1,284.3 207.1,284.3 207.1,290.3 201.1,290.3" fill="rgb(255,178,178)"/>
<polygon points="207.1,284.3 213.1,284.3 213.1,290.3 207.1,290.3" fill="rgb(255,122,122)"/>
<polygon points="213.1,284.3 219.1,284.3 219.1,290.3 213.1,290.3" fill="rgb(255,128,128)"/>
<polygon points="219.1,284.3 225.1,284.3 225.1,290.3 219.1,290.3" fill="rgb(208,208,255)"/>
<polygon points="225.1,284.3 231.1,284.3 231.1,290.3 225.1,290.3" fill="rgb(255,175,175)"/>
<polygon points="231.1,284.3 237.1,284.3 237.1,290.3 231.1,290.3" fill="rgb(186,186,255)"/>
<polygon points="247.1,284.3 253.1,284.3 253.1,290.3 247.1,290.3" fill="rgb(255,173,173)"/>
<polygon points="253.1,284.3 259.1,284.3 259.1,290.3 253.1,290.3" fill="rgb(255,186,186)"/>
<polygon points="259.1,284.3 265.1,284.3 265.1,290.3 259.1,290.3" fill="rgb(255,200,200)"/>
<polygon points="265.1,284.3 271.1,284.3 271.1,290.3 265.1,290.3" fill="rgb(254,246,246)"/>
<polygon points="271.1,284.3 277.1,284.3 277.1,290.3 271.1,290.3" fill="rgb(255,154,154)"/>
<polygon points="277.1,284.3 283.1,284.3 283.1,290.3 277.1,290.3" fill="rgb(246,246,255)"/>
<polygon points="283.1,284.3 289.1,284.3 289.1,290.3 283.1,290.3" fill="rgb(242,242,255)"/>
<polygon points="289.1,284.3 295.1,284.3 295.1,290.3 289.1,290.3" fill="rgb(249,249,255)"/>
<polygon points="97.1,290.3 105.1,290.3 105.1,296.3 97.1,296.3" fill="rgb(222,235,234)"/><text xml:space="preserve" x="101.1" y="296.133" font-family="Calibri" font-size="7.5" fill="rgb(0,0,0)" text-anchor="middle">6</text>
<polygon points="105.1,290.3 113.1,290.3 113.1,296.3 105.1,296.3" fill="rgb(232,216,183)"/><text xml:space="preserve" x="109.1" y="296.133" font-family="Calibri" font-size="7.5" fill="rgb(0,0,0)" text-anchor="middle">10</text>
<polygon points="113.1,290.3 121.1,290.3 121.1,296.3 113.1,296.3" fill="rgb(232,216,183)"/><text xml:space="preserve" x="117.1" y="296.133" font-family="Calibri" font-size="7.5" fill="rgb(0,0,0)" text-anchor="middle">10</text>
<polygon points="131.1,290.3 137.1,290.3 137.1,296.3 131.1,296.3" fill="rgb(255,54,54)"/>
<polygon points="137.1,290.3 143.1,290.3 143.1,296.3 137.1,296.3" fill="rgb(255,92,92)"/>
<polygon points="143.1,290.3 149.1,290.3 149.1,296.3 143.1,296.3" fill="rgb(255,150,150)"/>
<polygon points="149.1,290.3 155.1,290.3 155.1,296.3 149.1,296.3" fill="rgb(255,168,168)"/>
<polygon points="155.1,290.3 161.1,290.3 161.1,296.3 155.1,296.3" fill="rgb(255,108,108)"/>
<polygon points="161.1,290.3 167.1,290.3 167.1,296.3 161.1,296.3" fill="rgb(255,248,248)"/>
<polygon points="167.1,290.3 173.1,290.3 173.1,296.3 167.1,296.3" fill="rgb(255,248,248)"/>
<polygon points="173.1,290.3 179.1,290.3 179.1,296.3 173.1,296.3" fill="rgb(182,182,255)"/>
<polygon points="189.1,290.3 195.1,290.3 195.1,296.3 189.1,296.3" fill="rgb(255,125,125)"/>
<polygon points="195.1,290.3 201.1,290.3 201.1,296.3 195.1,296.3" fill="rgb(254,186,186)"/>
<polygon points="201.1,290.3 207.1,290.3 207.1,296.3 201.1,296.3" fill="rgb(239,239,255)"/>
<polygon points="207.1,290.3 213.1,290.3 213.1,296.3 207.1,296.3" fill="rgb(255,171,171)"/>
<polygon points="213.1,290.3 219.1,290.3 219.1,296.3 213.1,296.3" fill="rgb(255,138,138)"/>
<polygon points="219.1,290.3 225.1,290.3 225.1,296.3 219.1,296.3" fill="rgb(232,232,255)"/>
<polygon points="225.1,290.3 231.1,290.3 231.1,296.3 225.1,296.3" fill="rgb(200,200,255)"/>
<polygon points="231.1,290.3 237.1,290.3 237.1,296.3 231.1,296.3" fill="rgb(255,244,244)"/>
<polygon points="247.1,290.3 253.1,290.3 253.1,296.3 247.1,296.3" fill="rgb(255,110,110)"/>
<polygon points="253.1,290.3 259.1,290.3 259.1,296.3 253.1,296.3" fill="rgb(255,134,134)"/>
<polygon points="259.1,290.3 265.1,290.3 265.1,296.3 259.1,296.3" fill="rgb(254,254,255)"/>
<polygon points="265.1,290.3 271.1,290.3 271.1,296.3 265.1,296.3" fill="rgb(255,165,165)"/>
<polygon points="271.1,290.3 277.1,290.3 277.1,296.3 271.1,296.3" fill="rgb(255,169,169)"/>
<polygon points="277.1,290.3 283.1,290.3 283.1,296.3 277.1,296.3" fill="rgb(186,186,255)"/>
<polygon points="283.1,290.3 289.1,290.3 289.1,296.3 283.1,296.3" fill="rgb(216,216,255)"/>
<polygon points="289.1,290.3 295.1,290.3 295.1,296.3 289.1,296.3" fill="rgb(194,194,255)"/>
<polygon points="97.1,296.3 105.1,296.3 105.1,302.3 97.1,302.3" fill="rgb(222,235,234)"/><text xml:space="preserve" x="101.1" y="302.133" font-family="Calibri" font-size="7.5" fill="rgb(0,0,0)" text-anchor="middle">6</text>
<polygon points="105.1,296.3 113.1,296.3 113.1,302.3 105.1,302.3" fill="rgb(232,216,183)"/><text xml:space="preserve" x="109.1" y="302.133" font-family="Calibri" font-size="7.5" fill="rgb(0,0,0)" text-anchor="middle">10</text>
<polygon points="113.1,296.3 121.1,296.3 121.1,302.3 113.1,302.3" fill="rgb(232,216,183)"/><text xml:space="preserve" x="117.1" y="302.133" font-family="Calibri" font-size="7.5" fill="rgb(0,0,0)" text-anchor="middle">10</text>
<polygon points="131.1,296.3 137.1,296.3 137.1,302.3 131.1,302.3" fill="rgb(255,155,155)"/>
<polygon points="137.1,296.3 143.1,296.3 143.1,302.3 137.1,302.3" fill="rgb(255,63,63)"/>
<polygon points="143.1,296.3 149.1,296.3 149.1,302.3 143.1,302.3" fill="rgb(255,123,123)"/>
<polygon points="149.1,296.3 155.1,296.3 155.1,302.3 149.1,302.3" fill="rgb(255,156,156)"/>
<polygon points="155.1,296.3 161.1,296.3 161.1,302.3 155.1,302.3" fill="rgb(255,94,94)"/>
<polygon points="161.1,296.3 167.1,296.3 167.1,302.3 161.1,302.3" fill="rgb(230,230,255)"/>
<polygon points="167.1,296.3 173.1,296.3 173.1,302.3 167.1,302.3" fill="rgb(231,231,255)"/>
<polygon points="173.1,296.3 179.1,296.3 179.1,302.3 173.1,302.3" fill="rgb(186,186,255)"/>
<polygon points="189.1,296.3 195.1,296.3 195.1,302.3 189.1,302.3" fill="rgb(255,169,169)"/>
<polygon points="195.1,296.3 201.1,296.3 201.1,302.3 195.1,302.3" fill="rgb(255,125,125)"/>
<polygon points="201.1,296.3 207.1,296.3 207.1,302.3 201.1,302.3" fill="rgb(255,195,195)"/>
<polygon points="207.1,296.3 213.1,296.3 213.1,302.3 207.1,302.3" fill="rgb(255,202,202)"/>
<polygon points="213.1,296.3 219.1,296.3 219.1,302.3 213.1,302.3" fill="rgb(255,126,126)"/>
<polygon points="219.1,296.3 225.1,296.3 225.1,302.3 219.1,302.3" fill="rgb(194,194,255)"/>
<polygon points="225.1,296.3 231.1,296.3 231.1,302.3 225.1,302.3" fill="rgb(194,194,255)"/>
<polygon points="231.1,296.3 237.1,296.3 237.1,302.3 231.1,302.3" fill="rgb(206,206,255)"/>
<polygon points="247.1,296.3 253.1,296.3 253.1,302.3 247.1,302.3" fill="rgb(255,194,194)"/>
<polygon points="253.1,296.3 259.1,296.3 259.1,302.3 253.1,302.3" fill="rgb(255,94,94)"/>
<polygon points="259.1,296.3 265.1,296.3 265.1,302.3 259.1,302.3" fill="rgb(255,206,206)"/>
<polygon points="265.1,296.3 271.1,296.3 271.1,302.3 265.1,302.3" fill="rgb(255,223,223)"/>
<polygon points="271.1,296.3 277.1,296.3 277.1,302.3 271.1,302.3" fill="rgb(255,139,139)"/>
<polygon points="277.1,296.3 283.1,296.3 283.1,302.3 277.1,302.3" fill="rgb(183,183,255)"/>
<polygon points="283.1,296.3 289.1,296.3 289.1,302.3 283.1,302.3" fill="rgb(207,207,255)"/>
<polygon points="289.1,296.3 295.1,296.3 295.1,302.3 289.1,302.3" fill="rgb(230,230,255)"/>
<polygon points="97.1,302.3 105.1,302.3 105.1,308.3 97.1,308.3" fill="rgb(222,235,234)"/><text xml:space="preserve" x="101.1" y="308.133" font-family="Calibri" font-size="7.5" fill="rgb(0,0,0)" text-anchor="middle">6</text>
<polygon points="105.1,302.3 113.1,302.3 113.1,308.3 105.1,308.3" fill="rgb(232,216,183)"/><text xml:space="preserve" x="109.1" y="308.133" font-family="Calibri" font-size="7.5" fill="rgb(0,0,0)" text-anchor="middle">10</text>
<polygon points="113.1,302.3 121.1,302.3 121.1,308.3 113.1,308.3" fill="rgb(232,216,183)"/><text xml:space="preserve" x="117.1" y="308.133" font-family="Calibri" font-size="7.5" fill="rgb(0,0,0)" text-anchor="middle">10</text>
<polygon points="131.1,302.3 137.1,302.3 137.1,308.3 131.1,308.3" fill="rgb(255,149,149)"/>
<polygon points="137.1,302.3 143.1,302.3 143.1,308.3 137.1,308.3" fill="rgb(255,61,61)"/>
<polygon points="143.1,302.3 149.1,302.3 149.1,308.3 143.1,308.3" fill="rgb(255,116,116)"/>
<polygon points="149.1,302.3 155.1,302.3 155.1,308.3 149.1,308.3" fill="rgb(255,58,58)"/>
<polygon points="155.1,302.3 161.1,302.3 161.1,308.3 155.1,308.3" fill="rgb(255,0,0)"/>
<polygon points="161.1,302.3 167.1,302.3 167.1,308.3 161.1,308.3" fill="rgb(201,201,255)"/>
<polygon points="167.1,302.3 173.1,302.3 173.1,308.3 167.1,308.3" fill="rgb(184,184,255)"/>
<polygon points="173.1,302.3 179.1,302.3 179.1,308.3 173.1,308.3" fill="rgb(183,183,255)"/>
<polygon points="189.1,302.3 195.1,302.3 195.1,308.3 189.1,308.3" fill="rgb(255,143,143)"/>
<polygon points="195.1,302.3 201.1,302.3 201.1,308.3 195.1,308.3" fill="rgb(255,182,182)"/>
<polygon points="201.1,302.3 207.1,302.3 207.1,308.3 201.1,308.3" fill="rgb(255,221,221)"/>
<polygon points="207.1,302.3 213.1,302.3 213.1,308.3 207.1,308.3" fill="rgb(255,179,179)"/>
<polygon points="213.1,302.3 219.1,302.3 219.1,308.3 213.1,308.3" fill="rgb(255,85,85)"/>
<polygon points="219.1,302.3 225.1,302.3 225.1,308.3 219.1,308.3" fill="rgb(238,238,255)"/>
<polygon points="225.1,302.3 231.1,302.3 231.1,308.3 225.1,308.3" fill="rgb(255,195,195)"/>
<polygon points="231.1,302.3 237.1,302.3 237.1,308.3 231.1,308.3" fill="rgb(221,221,255)"/>
<polygon points="247.1,302.3 253.1,302.3 253.1,308.3 247.1,308.3" fill="rgb(254,166,166)"/>
<polygon points="253.1,302.3 259.1,302.3 259.1,308.3 253.1,308.3" fill="rgb(255,189,189)"/>
<polygon points="259.1,302.3 265.1,302.3 265.1,308.3 259.1,308.3" fill="rgb(255,198,198)"/>
<polygon points="265.1,302.3 271.1,302.3 271.1,308.3 265.1,308.3" fill="rgb(255,216,216)"/>
<polygon points="271.1,302.3 277.1,302.3 277.1,308.3 271.1,308.3" fill="rgb(255,128,128)"/>
<polygon points="277.1,302.3 283.1,302.3 283.1,308.3 277.1,308.3" fill="rgb(255,242,242)"/>
<polygon points="283.1,302.3 289.1,302.3 289.1,308.3 283.1,308.3" fill="rgb(255,210,210)"/>
<polygon points="289.1,302.3 295.1,302.3 295.1,308.3 289.1,308.3" fill="rgb(204,204,255)"/>
<polygon points="97.1,308.3 105.1,308.3 105.1,314.3 97.1,314.3" fill="rgb(222,235,234)"/><text xml:space="preserve" x="101.1" y="314.133" font-family="Calibri" font-size="7.5" fill="rgb(0,0,0)" text-anchor="middle">6</text>
<polygon points="105.1,308.3 113.1,308.3 113.1,314.3 105.1,314.3" fill="rgb(232,216,183)"/><text xml:space="preserve" x="109.1" y="314.133" font-family="Calibri" font-size="7.5" fill="rgb(0,0,0)" text-anchor="middle">10</text>
<polygon points="113.1,308.3 121.1,308.3 121.1,314.3 113.1,314.3" fill="rgb(232,216,183)"/><text xml:space="preserve" x="117.1" y="314.133" font-family="Calibri" font-size="7.5" fill="rgb(0,0,0)" text-anchor="middle">10</text>
<polygon points="131.1,308.3 137.1,308.3 137.1,314.3 131.1,314.3" fill="rgb(255,120,120)"/>
<polygon points="137.1,308.3 143.1,308.3 143.1,314.3 137.1,314.3" fill="rgb(255,69,69)"/>
<polygon points="143.1,308.3 149.1,308.3 149.1,314.3 143.1,314.3" fill="rgb(255,231,231)"/>
<polygon points="149.1,308.3 155.1,308.3 155.1,314.3 149.1,314.3" fill="rgb(255,235,235)"/>
<polygon points="155.1,308.3 161.1,308.3 161.1,314.3 155.1,314.3" fill="rgb(255,92,92)"/>
<polygon points="161.1,308.3 167.1,308.3 167.1,314.3 161.1,314.3" fill="rgb(248,248,255)"/>
<polygon points="167.1,308.3 173.1,308.3 173.1,314.3 167.1,314.3" fill="rgb(221,221,255)"/>
<polygon points="173.1,308.3 179.1,308.3 179.1,314.3 173.1,314.3" fill="rgb(160,160,255)"/>
<polygon points="189.1,308.3 195.1,308.3 195.1,314.3 189.1,314.3" fill="rgb(255,153,153)"/>
<polygon points="195.1,308.3 201.1,308.3 201.1,314.3 195.1,314.3" fill="rgb(255,169,169)"/>
<polygon points="201.1,308.3 207.1,308.3 207.1,314.3 201.1,314.3" fill="rgb(255,182,182)"/>
<polygon points="207.1,308.3 213.1,308.3 213.1,314.3 207.1,314.3" fill="rgb(255,243,243)"/>
<polygon points="213.1,308.3 219.1,308.3 219.1,314.3 213.1,314.3" fill="rgb(255,107,107)"/>
<polygon points="219.1,308.3 225.1,308.3 225.1,314.3 219.1,314.3" fill="rgb(255,242,242)"/>
<polygon points="225.1,308.3 231.1,308.3 231.1,314.3 225.1,314.3" fill="rgb(204,204,255)"/>
<polygon points="231.1,308.3 237.1,308.3 237.1,314.3 231.1,314.3" fill="rgb(232,232,255)"/>
<polygon points="247.1,308.3 253.1,308.3 253.1,314.3 247.1,314.3" fill="rgb(255,139,139)"/>
<polygon points="253.1,308.3 259.1,308.3 259.1,314.3 253.1,314.3" fill="rgb(255,131,131)"/>
<polygon points="259.1,308.3 265.1,308.3 265.1,314.3 259.1,314.3" fill="rgb(255,218,218)"/>
<polygon points="265.1,308.3 271.1,308.3 271.1,314.3 265.1,314.3" fill="rgb(255,232,232)"/>
<polygon points="271.1,308.3 277.1,308.3 277.1,314.3 271.1,314.3" fill="rgb(255,118,118)"/>
<polygon points="277.1,308.3 283.1,308.3 283.1,314.3 277.1,314.3" fill="rgb(247,247,255)"/>
<polygon points="283.1,308.3 289.1,308.3 289.1,314.3 283.1,314.3" fill="rgb(211,211,255)"/>
<polygon points="289.1,308.3 295.1,308.3 295.1,314.3 289.1,314.3" fill="rgb(189,189,255)"/>
<polygon points="97.1,314.3 105.1,314.3 105.1,320.3 97.1,320.3" fill="rgb(222,235,234)"/><text xml:space="preserve" x="101.1" y="320.133" font-family="Calibri" font-size="7.5" fill="rgb(0,0,0)" text-anchor="middle">6</text>
<polygon points="105.1,314.3 113.1,314.3 113.1,320.3 105.1,320.3" fill="rgb(232,216,183)"/><text xml:space="preserve" x="109.1" y="320.133" font-family="Calibri" font-size="7.5" fill="rgb(0,0,0)" text-anchor="middle">10</text>
<polygon points="113.1,314.3 121.1,314.3 121.1,320.3 113.1,320.3" fill="rgb(232,216,183)"/><text xml:space="preserve" x="117.1" y="320.133" font-family="Calibri" font-size="7.5" fill="rgb(0,0,0)" text-anchor="middle">10</text>
<polygon points="131.1,314.3 137.1,314.3 137.1,320.3 131.1,320.3" fill="rgb(255,111,111)"/>
<polygon points="137.1,314.3 143.1,314.3 143.1,320.3 137.1,320.3" fill="rgb(255,115,115)"/>
<polygon points="143.1,314.3 149.1,314.3 149.1,320.3 143.1,320.3" fill="rgb(255,189,189)"/>
<polygon points="149.1,314.3 155.1,314.3 155.1,320.3 149.1,320.3" fill="rgb(255,174,174)"/>
<polygon points="155.1,314.3 161.1,314.3 161.1,320.3 155.1,320.3" fill="rgb(255,0,0)"/>
<polygon points="161.1,314.3 167.1,314.3 167.1,320.3 161.1,320.3" fill="rgb(254,254,255)"/>
<polygon points="167.1,314.3 173.1,314.3 173.1,320.3 167.1,320.3" fill="rgb(255,229,229)"/>
<polygon points="173.1,314.3 179.1,314.3 179.1,320.3 173.1,320.3" fill="rgb(162,162,255)"/>
<polygon points="189.1,314.3 195.1,314.3 195.1,320.3 189.1,320.3" fill="rgb(255,182,182)"/>
<polygon points="195.1,314.3 201.1,314.3 201.1,320.3 195.1,320.3" fill="rgb(255,172,172)"/>
<polygon points="201.1,314.3 207.1,314.3 207.1,320.3 201.1,320.3" fill="rgb(255,218,218)"/>
<polygon points="207.1,314.3 213.1,314.3 213.1,320.3 207.1,320.3" fill="rgb(255,165,165)"/>
<polygon points="213.1,314.3 219.1,314.3 219.1,320.3 213.1,320.3" fill="rgb(254,166,166)"/>
<polygon points="219.1,314.3 225.1,314.3 225.1,320.3 219.1,320.3" fill="rgb(206,206,255)"/>
<polygon points="225.1,314.3 231.1,314.3 231.1,320.3 225.1,320.3" fill="rgb(255,165,165)"/>
<polygon points="231.1,314.3 237.1,314.3 237.1,320.3 231.1,320.3" fill="rgb(255,225,225)"/>
<polygon points="247.1,314.3 253.1,314.3 253.1,320.3 247.1,320.3" fill="rgb(255,134,134)"/>
<polygon points="253.1,314.3 259.1,314.3 259.1,320.3 253.1,320.3" fill="rgb(255,161,161)"/>
<polygon points="259.1,314.3 265.1,314.3 265.1,320.3 259.1,320.3" fill="rgb(255,213,213)"/>
<polygon points="265.1,314.3 271.1,314.3 271.1,320.3 265.1,320.3" fill="rgb(255,81,81)"/>
<polygon points="271.1,314.3 277.1,314.3 277.1,320.3 271.1,320.3" fill="rgb(255,166,166)"/>
<polygon points="277.1,314.3 283.1,314.3 283.1,320.3 277.1,320.3" fill="rgb(217,217,255)"/>
<polygon points="283.1,314.3 289.1,314.3 289.1,320.3 283.1,320.3" fill="rgb(255,120,120)"/>
<polygon points="289.1,314.3 295.1,314.3 295.1,320.3 289.1,320.3" fill="rgb(196,196,255)"/>
<polygon points="97.1,320.3 105.1,320.3 105.1,326.3 97.1,326.3" fill="rgb(222,235,234)"/><text xml:space="preserve" x="101.1" y="326.133" font-family="Calibri" font-size="7.5" fill="rgb(0,0,0)" text-anchor="middle">6</text>
<polygon points="105.1,320.3 113.1,320.3 113.1,326.3 105.1,326.3" fill="rgb(232,216,183)"/><text xml:space="preserve" x="109.1" y="326.133" font-family="Calibri" font-size="7.5" fill="rgb(0,0,0)" text-anchor="middle">10</text>
<polygon points="113.1,320.3 121.1,320.3 121.1,326.3 113.1,326.3" fill="rgb(232,216,183)"/><text xml:space="preserve" x="117.1" y="326.133" font-family="Calibri" font-size="7.5" fill="rgb(0,0,0)" text-anchor="middle">10</text>
<polygon points="131.1,320.3 137.1,320.3 137.1,326.3 131.1,326.3" fill="rgb(255,127,127)"/>
<polygon points="137.1,320.3 143.1,320.3 143.1,326.3 137.1,326.3" fill="rgb(255,100,100)"/>
<polygon points="143.1,320.3 149.1,320.3 149.1,326.3 143.1,326.3" fill="rgb(255,124,124)"/>
<polygon points="149.1,320.3 155.1,320.3 155.1,326.3 149.1,326.3" fill="rgb(255,49,49)"/>
<polygon points="155.1,320.3 161.1,320.3 161.1,326.3 155.1,326.3" fill="rgb(255,111,111)"/>
<polygon points="161.1,320.3 167.1,320.3 167.1,326.3 161.1,326.3" fill="rgb(187,187,255)"/>
<polygon points="167.1,320.3 173.1,320.3 173.1,326.3 167.1,326.3" fill="rgb(255,218,218)"/>
<polygon points="173.1,320.3 179.1,320.3 179.1,326.3 173.1,326.3" fill="rgb(184,184,255)"/>
<polygon points="189.1,320.3 195.1,320.3 195.1,326.3 189.1,326.3" fill="rgb(255,165,165)"/>
<polygon points="195.1,320.3 201.1,320.3 201.1,326.3 195.1,326.3" fill="rgb(255,142,142)"/>
<polygon points="201.1,320.3 207.1,320.3 207.1,326.3 201.1,326.3" fill="rgb(255,171,171)"/>
<polygon points="207.1,320.3 213.1,320.3 213.1,326.3 207.1,326.3" fill="rgb(255,118,118)"/>
<polygon points="213.1,320.3 219.1,320.3 219.1,326.3 213.1,326.3" fill="rgb(255,133,133)"/>
<polygon points="219.1,320.3 225.1,320.3 225.1,326.3 219.1,326.3" fill="rgb(134,134,255)"/>
<polygon points="225.1,320.3 231.1,320.3 231.1,326.3 225.1,326.3" fill="rgb(141,141,255)"/>
<polygon points="231.1,320.3 237.1,320.3 237.1,326.3 231.1,326.3" fill="rgb(211,211,255)"/>
<polygon points="247.1,320.3 253.1,320.3 253.1,326.3 247.1,326.3" fill="rgb(254,183,183)"/>
<polygon points="253.1,320.3 259.1,320.3 259.1,326.3 253.1,326.3" fill="rgb(255,164,164)"/>
<polygon points="259.1,320.3 265.1,320.3 265.1,326.3 259.1,326.3" fill="rgb(255,206,206)"/>
<polygon points="265.1,320.3 271.1,320.3 271.1,326.3 265.1,326.3" fill="rgb(254,237,237)"/>
<polygon points="271.1,320.3 277.1,320.3 277.1,326.3 271.1,326.3" fill="rgb(255,166,166)"/>
<polygon points="277.1,320.3 283.1,320.3 283.1,326.3 277.1,326.3" fill="rgb(204,204,255)"/>
<polygon points="283.1,320.3 289.1,320.3 289.1,326.3 283.1,326.3" fill="rgb(120,120,255)"/>
<polygon points="289.1,320.3 295.1,320.3 295.1,326.3 289.1,326.3" fill="rgb(251,251,255)"/>
<polygon points="97.1,212.3 121.1,212.3 121.1,326.3 97.1,326.3" fill="none" stroke="black" stroke-width="1"/>
<polygon points="131.1,212.3 179.1,212.3 179.1,326.3 131.1,326.3" fill="none" stroke="black" stroke-width="1"/>
<polygon points="189.1,212.3 237.1,212.3 237.1,326.3 189.1,326.3" fill="none" stroke="black" stroke-width="1"/>
<polygon points="247.1,212.3 295.1,212.3 295.1,326.3 247.1,326.3" fill="none" stroke="black" stroke-width="1"/>
<text xml:space="preserve" x="168.55" y="358.633" font-family="Calibri" font-size="6" text-anchor="middle">moduleID</text>
<polygon points="58.55,366.3 78.55,366.3 78.55,386.3 58.55,386.3" fill="rgb(250,250,250)"/><polygon points="58.55,366.3 78.55,366.3 78.55,386.3 58.55,386.3" fill="none" stroke="black" stroke-width="1"/><text xml:space="preserve" x="68.55" y="379.133" font-family="Calibri" font-size="7.5" fill="rgb(0,0,0)" text-anchor="middle">-2.0</text>
<polygon points="78.55,366.3 98.55,366.3 98.55,386.3 78.55,386.3" fill="rgb(156,210,205)"/><polygon points="78.55,366.3 98.55,366.3 98.55,386.3 78.55,386.3" fill="none" stroke="black" stroke-width="1"/><text xml:space="preserve" x="88.55" y="379.133" font-family="Calibri" font-size="7.5" fill="rgb(0,0,0)" text-anchor="middle">-0.4</text>
<polygon points="98.55,366.3 118.55,366.3 118.55,386.3 98.55,386.3" fill="rgb(116,191,184)"/><polygon points="98.55,366.3 118.55,366.3 118.55,386.3 98.55,386.3" fill="none" stroke="black" stroke-width="1"/><text xml:space="preserve" x="108.55" y="379.133" font-family="Calibri" font-size="7.5" fill="rgb(0,0,0)" text-anchor="middle">1.2</text>
<polygon points="118.55,366.3 138.55,366.3 138.55,386.3 118.55,386.3" fill="rgb(152,206,201)"/><polygon points="118.55,366.3 138.55,366.3 138.55,386.3 118.55,386.3" fill="none" stroke="black" stroke-width="1"/><text xml:space="preserve" x="128.55" y="379.133" font-family="Calibri" font-size="7.5" fill="rgb(0,0,0)" text-anchor="middle">2.8</text>
<polygon points="138.55,366.3 158.55,366.3 158.55,386.3 138.55,386.3" fill="rgb(187,220,217)"/><polygon points="138.55,366.3 158.55,366.3 158.55,386.3 138.55,386.3" fill="none" stroke="black" stroke-width="1"/><text xml:space="preserve" x="148.55" y="379.133" font-family="Calibri" font-size="7.5" fill="rgb(0,0,0)" text-anchor="middle">4.4</text>
<polygon points="158.55,366.3 178.55,366.3 178.55,386.3 158.55,386.3" fill="rgb(222,235,234)"/><polygon points="158.55,366.3 178.55,366.3 178.55,386.3 158.55,386.3" fill="none" stroke="black" stroke-width="1"/><text xml:space="preserve" x="168.55" y="379.133" font-family="Calibri" font-size="7.5" fill="rgb(0,0,0)" text-anchor="middle">6.0</text>
<polygon points="178.55,366.3 198.55,366.3 198.55,386.3 178.55,386.3" fill="rgb(242,239,232)"/><polygon points="178.55,366.3 198.55,366.3 198.55,386.3 178.55,386.3" fill="none" stroke="black" stroke-width="1"/><text xml:space="preserve" x="188.55" y="379.133" font-family="Calibri" font-size="7.5" fill="rgb(0,0,0)" text-anchor="middle">7.6</text>
<polygon points="198.55,366.3 218.55,366.3 218.55,386.3 198.55,386.3" fill="rgb(235,224,199)"/><polygon points="198.55,366.3 218.55,366.3 218.55,386.3 198.55,386.3" fill="none" stroke="black" stroke-width="1"/><text xml:space="preserve" x="208.55" y="379.133" font-family="Calibri" font-size="7.5" fill="rgb(0,0,0)" text-anchor="middle">9.2</text>
<polygon points="218.55,366.3 238.55,366.3 238.55,386.3 218.55,386.3" fill="rgb(229,209,166)"/><polygon points="218.55,366.3 238.55,366.3 238.55,386.3 218.55,386.3" fill="none" stroke="black" stroke-width="1"/><text xml:space="preserve" x="228.55" y="379.133" font-family="Calibri" font-size="7.5" fill="rgb(0,0,0)" text-anchor="middle">10.8</text>
<polygon points="238.55,366.3 258.55,366.3 258.55,386.3 238.55,386.3" fill="rgb(222,194,133)"/><polygon points="238.55,366.3 258.55,366.3 258.55,386.3 238.55,386.3" fill="none" stroke="black" stroke-width="1"/><text xml:space="preserve" x="248.55" y="379.133" font-family="Calibri" font-size="7.5" fill="rgb(0,0,0)" text-anchor="middle">12.4</text>
<polygon points="258.55,366.3 278.55,366.3 278.55,386.3 258.55,386.3" fill="rgb(216,179,101)"/><polygon points="258.55,366.3 278.55,366.3 278.55,386.3 258.55,386.3" fill="none" stroke="black" stroke-width="1"/><text xml:space="preserve" x="268.55" y="379.133" font-family="Calibri" font-size="7.5" fill="rgb(0,0,0)" text-anchor="middle">14.0</text>
<text xml:space="preserve" x="168.55" y="418.633" font-family="Calibri" font-size="6" text-anchor="middle">marklevel</text>
<polygon points="58.55,426.3 78.55,426.3 78.55,446.3 58.55,446.3" fill="rgb(0,0,255)"/><polygon points="58.55,426.3 78.55,426.3 78.55,446.3 58.55,446.3" fill="none" stroke="black" stroke-width="1"/><text xml:space="preserve" x="68.55" y="439.133" font-family="Calibri" font-size="7.5" fill="rgb(255,255,255)" text-anchor="middle">-2.0</text>
<polygon points="78.55,426.3 98.55,426.3 98.55,446.3 78.55,446.3" fill="rgb(50,50,255)"/><polygon points="78.55,426.3 98.55,426.3 98.55,446.3 78.55,446.3" fill="none" stroke="black" stroke-width="1"/><text xml:space="preserve" x="88.55" y="439.133" font-family="Calibri" font-size="7.5" fill="rgb(255,255,255)" text-anchor="middle">-1.6</text>
<polygon points="98.55,426.3 118.55,426.3 118.55,446.3 98.55,446.3" fill="rgb(102,102,255)"/><polygon points="98.55,426.3 118.55,426.3 118.55,446.3 98.55,446.3" fill="none" stroke="black" stroke-width="1"/><text xml:space="preserve" x="108.55" y="439.133" font-family="Calibri" font-size="7.5" fill="rgb(255,255,255)" text-anchor="middle">-1.2</text>
<polygon points="118.55,426.3 138.55,426.3 138.55,446.3 118.55,446.3" fill="rgb(153,153,255)"/><polygon points="118.55,426.3 138.55,426.3 138.55,446.3 118.55,446.3" fill="none" stroke="black" stroke-width="1"/><text xml:space="preserve" x="128.55" y="439.133" font-family="Calibri" font-size="7.5" fill="rgb(0,0,0)" text-anchor="middle">-0.8</text>
<polygon points="138.55,426.3 158.55,426.3 158.55,446.3 138.55,446.3" fill="rgb(204,204,255)"/><polygon points="138.55,426.3 158.55,426.3 158.55,446.3 138.55,446.3" fill="none" stroke="black" stroke-width="1"/><text xml:space="preserve" x="148.55" y="439.133" font-family="Calibri" font-size="7.5" fill="rgb(0,0,0)" text-anchor="middle">-0.4</text>
<polygon points="158.55,426.3 178.55,426.3 178.55,446.3 158.55,446.3" fill="rgb(255,255,255)"/><polygon points="158.55,426.3 178.55,426.3 178.55,446.3 158.55,446.3" fill="none" stroke="black" stroke-width="1"/><text xml:space="preserve" x="168.55" y="439.133" font-family="Calibri" font-size="7.5" fill="rgb(0,0,0)" text-anchor="middle">0.0</text>
<polygon points="178.55,426.3 198.55,426.3 198.55,446.3 178.55,446.3" fill="rgb(255,204,204)"/><polygon points="178.55,426.3 198.55,426.3 198.55,446.3 178.55,446.3" fill="none" stroke="black" stroke-width="1"/><text xml:space="preserve" x="188.55" y="439.133" font-family="Calibri" font-size="7.5" fill="rgb(0,0,0)" text-anchor="middle">0.4</text>
<polygon points="198.55,426.3 218.55,426.3 218.55,446.3 198.55,446.3" fill="rgb(255,153,153)"/><polygon points="198.55,426.3 218.55,426.3 218.55,446.3 198.55,446.3" fill="none" stroke="black" stroke-width="1"/><text xml:space="preserve" x="208.55" y="439.133" font-family="Calibri" font-size="7.5" fill="rgb(0,0,0)" text-anchor="middle">0.8</text>
<polygon points="218.55,426.3 238.55,426.3 238.55,446.3 218.55,446.3" fill="rgb(255,102,102)"/><polygon points="218.55,426.3 238.55,426.3 238.55,446.3 218.55,446.3" fill="none" stroke="black" stroke-width="1"/><text xml:space="preserve" x="228.55" y="439.133" font-family="Calibri" font-size="7.5" fill="rgb(0,0,0)" text-anchor="middle">1.2</text>
<polygon points="238.55,426.3 258.55,426.3 258.55,446.3 238.55,446.3" fill="rgb(255,50,50)"/><polygon points="238.55,426.3 258.55,426.3 258.55,446.3 238.55,446.3" fill="none" stroke="black" stroke-width="1"/><text xml:space="preserve" x="248.55" y="439.133" font-family="Calibri" font-size="7.5" fill="rgb(255,255,255)" text-anchor="middle">1.6</text>
<polygon points="258.55,426.3 278.55,426.3 278.55,446.3 258.55,446.3" fill="rgb(255,0,0)"/><polygon points="258.55,426.3 278.55,426.3 278.55,446.3 258.55,446.3" fill="none" stroke="black" stroke-width="1"/><text xml:space="preserve" x="268.55" y="439.133" font-family="Calibri" font-size="7.5" fill="rgb(255,255,255)" text-anchor="middle">2.0</text>
</svg>
