<?xml version="1.0" standalone="no"?><!DOCTYPE svg PUBLIC "-//W3C//DTD SVG 1.1//EN" "http://www.w3.org/Graphics/SVG/1.1/DTD/svg11.dtd">
<svg width="397.1" height="478.3" version="1.1" xmlns="http://www.w3.org/2000/svg">
<text xml:space="preserve" x="153.1" y="217.633" font-family="Calibri" font-size="6" text-anchor="end">Anxa3</text>
<text xml:space="preserve" x="153.1" y="223.633" font-family="Calibri" font-size="6" text-anchor="end">Stard13</text>
<text xml:space="preserve" x="153.1" y="229.633" font-family="Calibri" font-size="6" text-anchor="end">Lrrk1</text>
<text xml:space="preserve" x="153.1" y="235.633" font-family="Calibri" font-size="6" text-anchor="end">Nr2f2</text>
<text xml:space="preserve" x="153.1" y="241.633" font-family="Calibri" font-size="6" text-anchor="end">Ikzf2</text>
<text xml:space="preserve" x="153.1" y="247.633" font-family="Calibri" font-size="6" text-anchor="end">Atp10a</text>
<text xml:space="preserve" x="153.1" y="253.633" font-family="Calibri" font-size="6" text-anchor="end">mmu-mir-615</text>
<text xml:space="preserve" x="153.1" y="259.633" font-family="Calibri" font-size="6" text-anchor="end">Rnasel</text>
<text xml:space="preserve" x="153.1" y="265.633" font-family="Calibri" font-size="6" text-anchor="end">Hs3st3a1</text>
<text xml:space="preserve" x="153.1" y="271.633" font-family="Calibri" font-size="6" text-anchor="end">Hoxd9</text>
<text xml:space="preserve" x="153.1" y="277.633" font-family="Calibri" font-size="6" text-anchor="end">Hoxb5</text>
<text xml:space="preserve" x="153.1" y="283.633" font-family="Calibri" font-size="6" text-anchor="end">Hoxb3</text>
<text xml:space="preserve" x="153.1" y="289.633" font-family="Calibri" font-size="6" text-anchor="end">Hoxa5</text>
<text xml:space="preserve" x="153.1" y="295.633" font-family="Calibri" font-size="6" text-anchor="end">Hoxa3</text>
<text xml:space="preserve" x="153.1" y="301.633" font-family="Calibri" font-size="6" text-anchor="end">Itpr2</text>
<text xml:space="preserve" x="153.1" y="307.633" font-family="Calibri" font-size="6" text-anchor="end">Mfap3l</text>
<text xml:space="preserve" x="153.1" y="313.633" font-family="Calibri" font-size="6" text-anchor="end">Hdgfrp3</text>
<text xml:space="preserve" x="153.1" y="319.633" font-family="Calibri" font-size="6" text-anchor="end">Ntn4</text>
<text xml:space="preserve" x="153.1" y="325.633" font-family="Calibri" font-size="6" text-anchor="end">6230409E13Rik</text>
<text xml:space="preserve" x="153.1" y="331.633" font-family="Calibri" font-size="6" text-anchor="end">Hic2</text>
<text xml:space="preserve" x="153.1" y="337.633" font-family="Calibri" font-size="6" text-anchor="end">Atox1</text>
<text xml:space="preserve" x="163.433" y="208.3" font-family="Calibri" font-size="6" transform="rotate(270 163.433 208.3)">ips</text>
<text xml:space="preserve" x="171.433" y="208.3" font-family="Calibri" font-size="6" transform="rotate(270 171.433 208.3)">pips</text>
<text xml:space="preserve" x="179.433" y="208.3" font-family="Calibri" font-size="6" transform="rotate(270 179.433 208.3)">mef</text>
<text xml:space="preserve" x="196.433" y="208.3" font-family="Calibri" font-size="6" transform="rotate(270 196.433 208.3)">ips_H3K4me3iPS</text>
<text xml:space="preserve" x="202.433" y="208.3" font-family="Calibri" font-size="6" transform="rotate(270 202.433 208.3)">ips_H3K9aciPS</text>
<text xml:space="preserve" x="208.433" y="208.3" font-family="Calibri" font-size="6" transform="rotate(270 208.433 208.3)">ips_H3K14aciPS</text>
<text xml:space="preserve" x="214.433" y="208.3" font-family="Calibri" font-size="6" transform="rotate(270 214.433 208.3)">ips_H3K18aciPS</text>
<text xml:space="preserve" x="220.433" y="208.3" font-family="Calibri" font-size="6" transform="rotate(270 220.433 208.3)">ips_H3K79me2iPS</text>
<text xml:space="preserve" x="226.433" y="208.3" font-family="Calibri" font-size="6" transform="rotate(270 226.433 208.3)">ips_H3K9me2iPS</text>
<text xml:space="preserve" x="232.433" y="208.3" font-family="Calibri" font-size="6" transform="rotate(270 232.433 208.3)">ips_H3K9me3iPS</text>
<text xml:space="preserve" x="238.433" y="208.3" font-family="Calibri" font-size="6" transform="rotate(270 238.433 208.3)">ips_H3K27me3iPS</text>
<text xml:space="preserve" x="254.433" y="208.3" font-family="Calibri" font-size="6" transform="rotate(270 254.433 208.3)">pips_H3K4me3pips</text>
<text xml:space="preserve" x="260.433" y="208.3" font-family="Calibri" font-size="6" transform="rotate(270 260.433 208.3)">pips_H3K9acpips</text>
<text xml:space="preserve" x="266.433" y="208.3" font-family="Calibri" font-size="6" transform="rotate(270 266.433 208.3)">pips_H3K14acpips</text>
<text xml:space="preserve" x="272.433" y="208.3" font-family="Calibri" font-size="6" transform="rotate(270 272.433 208.3)">pips_H3K18acpips</text>
<text xml:space="preserve" x="278.433" y="208.3" font-family="Calibri" font-size="6" transform="rotate(270 278.433 208.3)">pips_H3K79me2pips</text>
<text xml:space="preserve" x="284.433" y="208.3" font-family="Calibri" font-size="6" transform="rotate(270 284.433 208.3)">pips_H3K9me2pips</text>
<text xml:space="preserve" x="290.433" y="208.3" font-family="Calibri" font-size="6" transform="rotate(270 290.433 208.3)">pips_H3K9me3pips</text>
<text xml:space="preserve" x="296.433" y="208.3" font-family="Calibri" font-size="6" transform="rotate(270 296.433 208.3)">pips_H3K27me3pips</text>
<text xml:space="preserve" x="312.433" y="208.3" font-family="Calibri" font-size="6" transform="rotate(270 312.433 208.3)">mef_H3K4me3mef</text>
<text xml:space="preserve" x="318.433" y="208.3" font-family="Calibri" font-size="6" transform="rotate(270 318.433 208.3)">mef_H3K9acmef</text>
<text xml:space="preserve" x="324.433" y="208.3" font-family="Calibri" font-size="6" transform="rotate(270 324.433 208.3)">mef_H3K14acmef</text>
<text xml:space="preserve" x="330.433" y="208.3" font-family="Calibri" font-size="6" transform="rotate(270 330.433 208.3)">mef_H3K18acmef</text>
<text xml:space="preserve" x="336.433" y="208.3" font-family="Calibri" font-size="6" transform="rotate(270 336.433 208.3)">mef_H3K79me2mef</text>
<text xml:space="preserve" x="342.433" y="208.3" font-family="Calibri" font-size="6" transform="rotate(270 342.433 208.3)">mef_H3K9me2mef</text>
<text xml:space="preserve" x="348.433" y="208.3" font-family="Calibri" font-size="6" transform="rotate(270 348.433 208.3)">mef_H3K9me3mef</text>
<text xml:space="preserve" x="354.433" y="208.3" font-family="Calibri" font-size="6" transform="rotate(270 354.433 208.3)">mef_H3K27me3mef</text>
<polygon points="157.1,212.3 165.1,212.3 165.1,218.3 157.1,218.3" fill="rgb(228,207,162)"/><text xml:space="preserve" x="161.1" y="218.133" font-family="Calibri" font-size="7.5" fill="rgb(0,0,0)" text-anchor="middle">11</text>
<polygon points="165.1,212.3 173.1,212.3 173.1,218.3 165.1,218.3" fill="rgb(245,245,245)"/><text xml:space="preserve" x="169.1" y="218.133" font-family="Calibri" font-size="7.5" fill="rgb(0,0,0)" text-anchor="middle">7</text>
<polygon points="173.1,212.3 181.1,212.3 181.1,218.3 173.1,218.3" fill="rgb(220,188,121)"/><text xml:space="preserve" x="177.1" y="218.133" font-family="Calibri" font-size="7.5" fill="rgb(0,0,0)" text-anchor="middle">13</text>
<polygon points="191.1,212.3 197.1,212.3 197.1,218.3 191.1,218.3" fill="rgb(255,239,239)"/>
<polygon points="197.1,212.3 203.1,212.3 203.1,218.3 197.1,218.3" fill="rgb(172,172,255)"/>
<polygon points="203.1,212.3 209.1,212.3 209.1,218.3 203.1,218.3" fill="rgb(233,233,255)"/>
<polygon points="209.1,212.3 215.1,212.3 215.1,218.3 209.1,218.3" fill="rgb(255,222,222)"/>
<polygon points="215.1,212.3 221.1,212.3 221.1,218.3 215.1,218.3" fill="rgb(243,243,255)"/>
<polygon points="221.1,212.3 227.1,212.3 227.1,218.3 221.1,218.3" fill="rgb(255,155,155)"/>
<polygon points="227.1,212.3 233.1,212.3 233.1,218.3 227.1,218.3" fill="rgb(255,152,152)"/>
<polygon points="233.1,212.3 239.1,212.3 239.1,218.3 233.1,218.3" fill="rgb(255,231,231)"/>
<polygon points="249.1,212.3 255.1,212.3 255.1,218.3 249.1,218.3" fill="rgb(255,213,213)"/>
<polygon points="255.1,212.3 261.1,212.3 261.1,218.3 255.1,218.3" fill="rgb(255,237,237)"/>
<polygon points="261.1,212.3 267.1,212.3 267.1,218.3 261.1,218.3" fill="rgb(255,155,155)"/>
<polygon points="267.1,212.3 273.1,212.3 273.1,218.3 267.1,218.3" fill="rgb(255,107,107)"/>
<polygon points="273.1,212.3 279.1,212.3 279.1,218.3 273.1,218.3" fill="rgb(255,236,236)"/>
<polygon points="279.1,212.3 285.1,212.3 285.1,218.3 279.1,218.3" fill="rgb(223,223,255)"/>
<polygon points="285.1,212.3 291.1,212.3 291.1,218.3 285.1,218.3" fill="rgb(255,242,242)"/>
<polygon points="291.1,212.3 297.1,212.3 297.1,218.3 291.1,218.3" fill="rgb(222,222,255)"/>
<polygon points="307.1,212.3 313.1,212.3 313.1,218.3 307.1,218.3" fill="rgb(255,128,128)"/>
<polygon points="313.1,212.3 319.1,212.3 319.1,218.3 313.1,218.3" fill="rgb(255,189,189)"/>
<polygon points="319.1,212.3 325.1,212.3 325.1,218.3 319.1,218.3" fill="rgb(255,130,130)"/>
<polygon points="325.1,212.3 331.1,212.3 331.1,218.3 325.1,218.3" fill="rgb(255,94,94)"/>
<polygon points="331.1,212.3 337.1,212.3 337.1,218.3 331.1,218.3" fill="rgb(255,148,148)"/>
<polygon points="337.1,212.3 343.1,212.3 343.1,218.3 337.1,218.3" fill="rgb(255,244,244)"/>
<polygon points="343.1,212.3 349.1,212.3 349.1,218.3 343.1,218.3" fill="rgb(187,187,255)"/>
<polygon points="349.1,212.3 355.1,212.3 355.1,218.3 349.1,218.3" fill="rgb(191,191,255)"/>
<polygon points="157.1,218.3 165.1,218.3 165.1,224.3 157.1,224.3" fill="rgb(228,207,162)"/><text xml:space="preserve" x="161.1" y="224.133" font-family="Calibri" font-size="7.5" fill="rgb(0,0,0)" text-anchor="middle">11</text>
<polygon points="165.1,218.3 173.1,218.3 173.1,224.3 165.1,224.3" fill="rgb(245,245,245)"/><text xml:space="preserve" x="169.1" y="224.133" font-family="Calibri" font-size="7.5" fill="rgb(0,0,0)" text-anchor="middle">7</text>
<polygon points="173.1,218.3 181.1,218.3 181.1,224.3 173.1,224.3" fill="rgb(220,188,121)"/><text xml:space="preserve" x="177.1" y="224.133" font-family="Calibri" font-size="7.5" fill="rgb(0,0,0)" text-anchor="middle">13</text>
<polygon points="191.1,218.3 197.1,218.3 197.1,224.3 191.1,224.3" fill="rgb(255,209,209)"/>
<polygon points="197.1,218.3 203.1,218.3 203.1,224.3 197.1,224.3" fill="rgb(229,229,255)"/>
<polygon points="203.1,218.3 209.1,218.3 209.1,224.3 203.1,224.3" fill="rgb(229,229,255)"/>
<polygon points="209.1,218.3 215.1,218.3 215.1,224.3 209.1,224.3" fill="rgb(236,236,255)"/>
<polygon points="215.1,218.3 221.1,218.3 221.1,224.3 215.1,224.3" fill="rgb(226,226,255)"/>
<polygon points="221.1,218.3 227.1,218.3 227.1,224.3 221.1,224.3" fill="rgb(236,236,255)"/>
<polygon points="227.1,218.3 233.1,218.3 233.1,224.3 227.1,224.3" fill="rgb(255,156,156)"/>
<polygon points="233.1,218.3 239.1,218.3 239.1,224.3 233.1,224.3" fill="rgb(255,127,127)"/>
<polygon points="249.1,218.3 255.1,218.3 255.1,224.3 249.1,224.3" fill="rgb(255,117,117)"/>
<polygon points="255.1,218.3 261.1,218.3 261.1,224.3 255.1,224.3" fill="rgb(255,202,202)"/>
<polygon points="261.1,218.3 267.1,218.3 267.1,224.3 261.1,224.3" fill="rgb(255,232,232)"/>
<polygon points="267.1,218.3 273.1,218.3 273.1,224.3 267.1,224.3" fill="rgb(255,200,200)"/>
<polygon points="273.1,218.3 279.1,218.3 279.1,224.3 273.1,224.3" fill="rgb(254,247,247)"/>
<polygon points="279.1,218.3 285.1,218.3 285.1,224.3 279.1,224.3" fill="rgb(255,251,251)"/>
<polygon points="285.1,218.3 291.1,218.3 291.1,224.3 285.1,224.3" fill="rgb(228,228,255)"/>
<polygon points="291.1,218.3 297.1,218.3 297.1,224.3 291.1,224.3" fill="rgb(203,203,255)"/>
<polygon points="307.1,218.3 313.1,218.3 313.1,224.3 307.1,224.3" fill="rgb(255,117,117)"/>
<polygon points="313.1,218.3 319.1,218.3 319.1,224.3 313.1,224.3" fill="rgb(255,159,159)"/>
<polygon points="319.1,218.3 325.1,218.3 325.1,224.3 319.1,224.3" fill="rgb(255,72,72)"/>
<polygon points="325.1,218.3 331.1,218.3 331.1,224.3 325.1,224.3" fill="rgb(255,12,12)"/>
<polygon points="331.1,218.3 337.1,218.3 337.1,224.3 331.1,224.3" fill="rgb(255,82,82)"/>
<polygon points="337.1,218.3 343.1,218.3 343.1,224.3 337.1,224.3" fill="rgb(207,207,255)"/>
<polygon points="343.1,218.3 349.1,218.3 349.1,224.3 343.1,224.3" fill="rgb(246,246,255)"/>
<polygon points="349.1,218.3 355.1,218.3 355.1,224.3 349.1,224.3" fill="rgb(189,189,255)"/>
<polygon points="157.1,224.3 165.1,224.3 165.1,230.3 157.1,230.3" fill="rgb(228,207,162)"/><text xml:space="preserve" x="161.1" y="230.133" font-family="Calibri" font-size="7.5" fill="rgb(0,0,0)" text-anchor="middle">11</text>
<polygon points="165.1,224.3 173.1,224.3 173.1,230.3 165.1,230.3" fill="rgb(245,245,245)"/><text xml:space="preserve" x="169.1" y="230.133" font-family="Calibri" font-size="7.5" fill="rgb(0,0,0)" text-anchor="middle">7</text>
<polygon points="173.1,224.3 181.1,224.3 181.1,230.3 173.1,230.3" fill="rgb(220,188,121)"/><text xml:space="preserve" x="177.1" y="230.133" font-family="Calibri" font-size="7.5" fill="rgb(0,0,0)" text-anchor="middle">13</text>
<polygon points="191.1,224.3 197.1,224.3 197.1,230.3 191.1,230.3" fill="rgb(250,250,255)"/>
<polygon points="197.1,224.3 203.1,224.3 203.1,230.3 197.1,230.3" fill="rgb(187,187,255)"/>
<polygon points="203.1,224.3 209.1,224.3 209.1,230.3 203.1,230.3" fill="rgb(213,213,255)"/>
<polygon points="209.1,224.3 215.1,224.3 215.1,230.3 209.1,230.3" fill="rgb(223,223,255)"/>
<polygon points="215.1,224.3 221.1,224.3 221.1,230.3 215.1,230.3" fill="rgb(211,211,255)"/>
<polygon points="221.1,224.3 227.1,224.3 227.1,230.3 221.1,230.3" fill="rgb(234,234,255)"/>
<polygon points="227.1,224.3 233.1,224.3 233.1,230.3 227.1,230.3" fill="rgb(255,191,191)"/>
<polygon points="233.1,224.3 239.1,224.3 239.1,230.3 233.1,230.3" fill="rgb(255,96,96)"/>
<polygon points="249.1,224.3 255.1,224.3 255.1,230.3 249.1,230.3" fill="rgb(255,172,172)"/>
<polygon points="255.1,224.3 261.1,224.3 261.1,230.3 255.1,230.3" fill="rgb(255,183,183)"/>
<polygon points="261.1,224.3 267.1,224.3 267.1,230.3 261.1,230.3" fill="rgb(255,175,175)"/>
<polygon points="267.1,224.3 273.1,224.3 273.1,230.3 267.1,230.3" fill="rgb(255,163,163)"/>
<polygon points="273.1,224.3 279.1,224.3 279.1,230.3 273.1,230.3" fill="rgb(255,193,193)"/>
<polygon points="279.1,224.3 285.1,224.3 285.1,230.3 279.1,230.3" fill="rgb(192,192,255)"/>
<polygon points="285.1,224.3 291.1,224.3 291.1,230.3 285.1,230.3" fill="rgb(246,246,255)"/>
<polygon points="291.1,224.3 297.1,224.3 297.1,230.3 291.1,230.3" fill="rgb(201,201,255)"/>
<polygon points="307.1,224.3 313.1,224.3 313.1,230.3 307.1,230.3" fill="rgb(255,170,170)"/>
<polygon points="313.1,224.3 319.1,224.3 319.1,230.3 313.1,230.3" fill="rgb(255,131,131)"/>
<polygon points="319.1,224.3 325.1,224.3 325.1,230.3 319.1,230.3" fill="rgb(255,99,99)"/>
<polygon points="325.1,224.3 331.1,224.3 331.1,230.3 325.1,230.3" fill="rgb(255,92,92)"/>
<polygon points="331.1,224.3 337.1,224.3 337.1,230.3 331.1,230.3" fill="rgb(255,126,126)"/>
<polygon points="337.1,224.3 343.1,224.3 343.1,230.3 337.1,230.3" fill="rgb(187,187,255)"/>
<polygon points="343.1,224.3 349.1,224.3 349.1,230.3 343.1,230.3" fill="rgb(218,218,255)"/>
<polygon points="349.1,224.3 355.1,224.3 355.1,230.3 349.1,230.3" fill="rgb(224,224,255)"/>
<polygon points="157.1,230.3 165.1,230.3 165.1,236.3 157.1,236.3" fill="rgb(228,207,162)"/><text xml:space="preserve" x="161.1" y="236.133" font-family="Calibri" font-size="7.5" fill="rgb(0,0,0)" text-anchor="middle">11</text>
<polygon points="165.1,230.3 173.1,230.3 173.1,236.3 165.1,236.3" fill="rgb(245,245,245)"/><text xml:space="preserve" x="169.1" y="236.133" font-family="Calibri" font-size="7.5" fill="rgb(0,0,0)" text-anchor="middle">7</text>
<polygon points="173.1,230.3 181.1,230.3 181.1,236.3 173.1,236.3" fill="rgb(220,188,121)"/><text xml:space="preserve" x="177.1" y="236.133" font-family="Calibri" font-size="7.5" fill="rgb(0,0,0)" text-anchor="middle">13</text>
<polygon points="191.1,230.3 197.1,230.3 197.1,236.3 191.1,236.3" fill="rgb(255,167,167)"/>
<polygon points="197.1,230.3 203.1,230.3 203.1,236.3 197.1,236.3" fill="rgb(209,209,255)"/>
<polygon points="203.1,230.3 209.1,230.3 209.1,236.3 203.1,236.3" fill="rgb(255,248,248)"/>
<polygon points="209.1,230.3 215.1,230.3 215.1,236.3 209.1,236.3" fill="rgb(243,243,255)"/>
<polygon points="215.1,230.3 221.1,230.3 221.1,236.3 215.1,236.3" fill="rgb(237,237,255)"/>
<polygon points="221.1,230.3 227.1,230.3 227.1,236.3 221.1,236.3" fill="rgb(244,244,255)"/>
<polygon points="227.1,230.3 233.1,230.3 233.1,236.3 227.1,236.3" fill="rgb(255,3,3)"/>
<polygon points="233.1,230.3 239.1,230.3 239.1,236.3 233.1,236.3" fill="rgb(255,0,0)"/>
<polygon points="249.1,230.3 255.1,230.3 255.1,236.3 249.1,236.3" fill="rgb(255,159,159)"/>
<polygon points="255.1,230.3 261.1,230.3 261.1,236.3 255.1,236.3" fill="rgb(255,201,201)"/>
<polygon points="261.1,230.3 267.1,230.3 267.1,236.3 261.1,236.3" fill="rgb(255,204,204)"/>
<polygon points="267.1,230.3 273.1,230.3 273.1,236.3 267.1,236.3" fill="rgb(255,192,192)"/>
<polygon points="273.1,230.3 279.1,230.3 279.1,236.3 273.1,236.3" fill="rgb(255,241,241)"/>
<polygon points="279.1,230.3 285.1,230.3 285.1,236.3 279.1,236.3" fill="rgb(188,188,255)"/>
<polygon points="285.1,230.3 291.1,230.3 291.1,236.3 285.1,236.3" fill="rgb(255,249,249)"/>
<polygon points="291.1,230.3 297.1,230.3 297.1,236.3 291.1,236.3" fill="rgb(255,176,176)"/>
<polygon points="307.1,230.3 313.1,230.3 313.1,236.3 307.1,236.3" fill="rgb(255,129,129)"/>
<polygon points="313.1,230.3 319.1,230.3 319.1,236.3 313.1,236.3" fill="rgb(255,193,193)"/>
<polygon points="319.1,230.3 325.1,230.3 325.1,236.3 319.1,236.3" fill="rgb(255,189,189)"/>
<polygon points="325.1,230.3 331.1,230.3 331.1,236.3 325.1,236.3" fill="rgb(255,97,97)"/>
<polygon points="331.1,230.3 337.1,230.3 337.1,236.3 331.1,236.3" fill="rgb(255,171,171)"/>
<polygon points="337.1,230.3 343.1,230.3 343.1,236.3 337.1,236.3" fill="rgb(122,122,255)"/>
<polygon points="343.1,230.3 349.1,230.3 349.1,236.3 343.1,236.3" fill="rgb(235,235,255)"/>
<polygon points="349.1,230.3 355.1,230.3 355.1,236.3 349.1,236.3" fill="rgb(255,159,159)"/>
<polygon points="157.1,236.3 165.1,236.3 165.1,242.3 157.1,242.3" fill="rgb(228,207,162)"/><text xml:space="preserve" x="161.1" y="242.133" font-family="Calibri" font-size="7.5" fill="rgb(0,0,0)" text-anchor="middle">11</text>
<polygon points="165.1,236.3 173.1,236.3 173.1,242.3 165.1,242.3" fill="rgb(245,245,245)"/><text xml:space="preserve" x="169.1" y="242.133" font-family="Calibri" font-size="7.5" fill="rgb(0,0,0)" text-anchor="middle">7</text>
<polygon points="173.1,236.3 181.1,236.3 181.1,242.3 173.1,242.3" fill="rgb(220,188,121)"/><text xml:space="preserve" x="177.1" y="242.133" font-family="Calibri" font-size="7.5" fill="rgb(0,0,0)" text-anchor="middle">13</text>
<polygon points="191.1,236.3 197.1,236.3 197.1,242.3 191.1,242.3" fill="rgb(255,185,185)"/>
<polygon points="197.1,236.3 203.1,236.3 203.1,242.3 197.1,242.3" fill="rgb(229,229,255)"/>
<polygon points="203.1,236.3 209.1,236.3 209.1,242.3 203.1,242.3" fill="rgb(192,192,255)"/>
<polygon points="209.1,236.3 215.1,236.3 215.1,242.3 209.1,242.3" fill="rgb(195,195,255)"/>
<polygon points="215.1,236.3 221.1,236.3 221.1,242.3 215.1,242.3" fill="rgb(217,217,255)"/>
<polygon points="221.1,236.3 227.1,236.3 227.1,242.3 221.1,242.3" fill="rgb(229,229,255)"/>
<polygon points="227.1,236.3 233.1,236.3 233.1,242.3 227.1,242.3" fill="rgb(255,177,177)"/>
<polygon points="233.1,236.3 239.1,236.3 239.1,242.3 233.1,242.3" fill="rgb(255,113,113)"/>
<polygon points="249.1,236.3 255.1,236.3 255.1,242.3 249.1,242.3" fill="rgb(255,218,218)"/>
<polygon points="255.1,236.3 261.1,236.3 261.1,242.3 255.1,242.3" fill="rgb(255,208,208)"/>
<polygon points="261.1,236.3 267.1,236.3 267.1,242.3 261.1,242.3" fill="rgb(255,226,226)"/>
<polygon points="267.1,236.3 273.1,236.3 273.1,242.3 267.1,242.3" fill="rgb(255,170,170)"/>
<polygon points="273.1,236.3 279.1,236.3 279.1,242.3 273.1,242.3" fill="rgb(255,227,227)"/>
<polygon points="279.1,236.3 285.1,236.3 285.1,242.3 279.1,242.3" fill="rgb(203,203,255)"/>
<polygon points="285.1,236.3 291.1,236.3 291.1,242.3 285.1,242.3" fill="rgb(194,194,255)"/>
<polygon points="291.1,236.3 297.1,236.3 297.1,242.3 291.1,242.3" fill="rgb(255,248,248)"/>
<polygon points="307.1,236.3 313.1,236.3 313.1,242.3 307.1,242.3" fill="rgb(255,86,86)"/>
<polygon points="313.1,236.3 319.1,236.3 319.1,242.3 313.1,242.3" fill="rgb(255,181,181)"/>
<polygon points="319.1,236.3 325.1,236.3 325.1,242.3 319.1,242.3" fill="rgb(255,206,206)"/>
<polygon points="325.1,236.3 331.1,236.3 331.1,242.3 325.1,242.3" fill="rgb(255,104,104)"/>
<polygon points="331.1,236.3 337.1,236.3 337.1,242.3 331.1,242.3" fill="rgb(255,210,210)"/>
<polygon points="337.1,236.3 343.1,236.3 343.1,242.3 337.1,242.3" fill="rgb(169,169,255)"/>
<polygon points="343.1,236.3 349.1,236.3 349.1,242.3 343.1,242.3" fill="rgb(198,198,255)"/>
<polygon points="349.1,236.3 355.1,236.3 355.1,242.3 349.1,242.3" fill="rgb(248,248,255)"/>
<polygon points="157.1,242.3 165.1,242.3 165.1,248.3 157.1,248.3" fill="rgb(228,207,162)"/><text xml:space="preserve" x="161.1" y="248.133" font-family="Calibri" font-size="7.5" fill="rgb(0,0,0)" text-anchor="middle">11</text>
<polygon points="165.1,242.3 173.1,242.3 173.1,248.3 165.1,248.3" fill="rgb(245,245,245)"/><text xml:space="preserve" x="169.1" y="248.133" font-family="Calibri" font-size="7.5" fill="rgb(0,0,0)" text-anchor="middle">7</text>
<polygon points="173.1,242.3 181.1,242.3 181.1,248.3 173.1,248.3" fill="rgb(216,179,101)"/><text xml:space="preserve" x="177.1" y="248.133" font-family="Calibri" font-size="7.5" fill="rgb(0,0,0)" text-anchor="middle">14</text>
<polygon points="191.1,242.3 197.1,242.3 197.1,248.3 191.1,248.3" fill="rgb(242,242,255)"/>
<polygon points="197.1,242.3 203.1,242.3 203.1,248.3 197.1,248.3" fill="rgb(194,194,255)"/>
<polygon points="203.1,242.3 209.1,242.3 209.1,248.3 203.1,248.3" fill="rgb(245,245,255)"/>
<polygon points="209.1,242.3 215.1,242.3 215.1,248.3 209.1,248.3" fill="rgb(254,239,239)"/>
<polygon points="215.1,242.3 221.1,242.3 221.1,248.3 215.1,248.3" fill="rgb(224,224,255)"/>
<polygon points="221.1,242.3 227.1,242.3 227.1,248.3 221.1,248.3" fill="rgb(255,159,159)"/>
<polygon points="227.1,242.3 233.1,242.3 233.1,248.3 227.1,248.3" fill="rgb(255,158,158)"/>
<polygon points="233.1,242.3 239.1,242.3 239.1,248.3 233.1,248.3" fill="rgb(255,81,81)"/>
<polygon points="249.1,242.3 255.1,242.3 255.1,248.3 249.1,248.3" fill="rgb(225,225,255)"/>
<polygon points="255.1,242.3 261.1,242.3 261.1,248.3 255.1,248.3" fill="rgb(255,226,226)"/>
<polygon points="261.1,242.3 267.1,242.3 267.1,248.3 261.1,248.3" fill="rgb(255,210,210)"/>
<polygon points="267.1,242.3 273.1,242.3 273.1,248.3 267.1,248.3" fill="rgb(255,119,119)"/>
<polygon points="273.1,242.3 279.1,242.3 279.1,248.3 273.1,248.3" fill="rgb(255,172,172)"/>
<polygon points="279.1,242.3 285.1,242.3 285.1,248.3 279.1,248.3" fill="rgb(255,237,237)"/>
<polygon points="285.1,242.3 291.1,242.3 291.1,248.3 285.1,248.3" fill="rgb(228,228,255)"/>
<polygon points="291.1,242.3 297.1,242.3 297.1,248.3 291.1,248.3" fill="rgb(255,222,222)"/>
<polygon points="307.1,242.3 313.1,242.3 313.1,248.3 307.1,248.3" fill="rgb(255,201,201)"/>
<polygon points="313.1,242.3 319.1,242.3 319.1,248.3 313.1,248.3" fill="rgb(219,219,255)"/>
<polygon points="319.1,242.3 325.1,242.3 325.1,248.3 319.1,248.3" fill="rgb(255,198,198)"/>
<polygon points="325.1,242.3 331.1,242.3 331.1,248.3 325.1,248.3" fill="rgb(255,154,154)"/>
<polygon points="331.1,242.3 337.1,242.3 337.1,248.3 331.1,248.3" fill="rgb(254,254,255)"/>
<polygon points="337.1,242.3 343.1,242.3 343.1,248.3 337.1,248.3" fill="rgb(255,236,236)"/>
<polygon points="343.1,242.3 349.1,242.3 349.1,248.3 343.1,248.3" fill="rgb(214,214,255)"/>
<polygon points="349.1,242.3 355.1,242.3 355.1,248.3 349.1,248.3" fill="rgb(255,233,233)"/>
<polygon points="157.1,248.3 165.1,248.3 165.1,254.3 157.1,254.3" fill="rgb(228,207,162)"/><text xml:space="preserve" x="161.1" y="254.133" font-family="Calibri" font-size="7.5" fill="rgb(0,0,0)" text-anchor="middle">11</text>
<polygon points="165.1,248.3 173.1,248.3 173.1,254.3 165.1,254.3" fill="rgb(245,245,245)"/><text xml:space="preserve" x="169.1" y="254.133" font-family="Calibri" font-size="7.5" fill="rgb(0,0,0)" text-anchor="middle">7</text>
<polygon points="173.1,248.3 181.1,248.3 181.1,254.3 173.1,254.3" fill="rgb(216,179,101)"/><text xml:space="preserve" x="177.1" y="254.133" font-family="Calibri" font-size="7.5" fill="rgb(0,0,0)" text-anchor="middle">14</text>
<polygon points="191.1,248.3 197.1,248.3 197.1,254.3 191.1,254.3" fill="rgb(255,170,170)"/>
<polygon points="197.1,248.3 203.1,248.3 203.1,254.3 197.1,254.3" fill="rgb(202,202,255)"/>
<polygon points="203.1,248.3 209.1,248.3 209.1,254.3 203.1,254.3" fill="rgb(255,192,192)"/>
<polygon points="209.1,248.3 215.1,248.3 215.1,254.3 209.1,254.3" fill="rgb(255,254,254)"/>
<polygon points="215.1,248.3 221.1,248.3 221.1,254.3 215.1,254.3" fill="rgb(191,191,255)"/>
<polygon points="221.1,248.3 227.1,248.3 227.1,254.3 221.1,254.3" fill="rgb(191,191,255)"/>
<polygon points="227.1,248.3 233.1,248.3 233.1,254.3 227.1,254.3" fill="rgb(255,0,0)"/>
<polygon points="233.1,248.3 239.1,248.3 239.1,254.3 233.1,254.3" fill="rgb(255,0,0)"/>
<polygon points="249.1,248.3 255.1,248.3 255.1,254.3 249.1,254.3" fill="rgb(255,158,158)"/>
<polygon points="255.1,248.3 261.1,248.3 261.1,254.3 255.1,254.3" fill="rgb(255,220,220)"/>
<polygon points="261.1,248.3 267.1,248.3 267.1,254.3 261.1,254.3" fill="rgb(255,202,202)"/>
<polygon points="267.1,248.3 273.1,248.3 273.1,254.3 267.1,254.3" fill="rgb(255,102,102)"/>
<polygon points="273.1,248.3 279.1,248.3 279.1,254.3 273.1,254.3" fill="rgb(255,240,240)"/>
<polygon points="279.1,248.3 285.1,248.3 285.1,254.3 279.1,254.3" fill="rgb(170,170,255)"/>
<polygon points="285.1,248.3 291.1,248.3 291.1,254.3 285.1,254.3" fill="rgb(255,253,253)"/>
<polygon points="291.1,248.3 297.1,248.3 297.1,254.3 291.1,254.3" fill="rgb(255,198,198)"/>
<polygon points="307.1,248.3 313.1,248.3 313.1,254.3 307.1,254.3" fill="rgb(255,189,189)"/>
<polygon points="313.1,248.3 319.1,248.3 319.1,254.3 313.1,254.3" fill="rgb(255,243,243)"/>
<polygon points="319.1,248.3 325.1,248.3 325.1,254.3 319.1,254.3" fill="rgb(243,243,255)"/>
<polygon points="325.1,248.3 331.1,248.3 331.1,254.3 325.1,254.3" fill="rgb(255,99,99)"/>
<polygon points="331.1,248.3 337.1,248.3 337.1,254.3 331.1,254.3" fill="rgb(254,221,221)"/>
<polygon points="337.1,248.3 343.1,248.3 343.1,254.3 337.1,254.3" fill="rgb(113,113,255)"/>
<polygon points="343.1,248.3 349.1,248.3 349.1,254.3 343.1,254.3" fill="rgb(255,196,196)"/>
<polygon points="349.1,248.3 355.1,248.3 355.1,254.3 349.1,254.3" fill="rgb(255,0,0)"/>
<polygon points="157.1,254.3 165.1,254.3 165.1,260.3 157.1,260.3" fill="rgb(228,207,162)"/><text xml:space="preserve" x="161.1" y="260.133" font-family="Calibri" font-size="7.5" fill="rgb(0,0,0)" text-anchor="middle">11</text>
<polygon points="165.1,254.3 173.1,254.3 173.1,260.3 165.1,260.3" fill="rgb(245,245,245)"/><text xml:space="preserve" x="169.1" y="260.133" font-family="Calibri" font-size="7.5" fill="rgb(0,0,0)" text-anchor="middle">7</text>
<polygon points="173.1,254.3 181.1,254.3 181.1,260.3 173.1,260.3" fill="rgb(216,179,101)"/><text xml:space="preserve" x="177.1" y="260.133" font-family="Calibri" font-size="7.5" fill="rgb(0,0,0)" text-anchor="middle">14</text>
<polygon points="191.1,254.3 197.1,254.3 197.1,260.3 191.1,260.3" fill="rgb(228,228,255)"/>
<polygon points="197.1,254.3 203.1,254.3 203.1,260.3 197.1,260.3" fill="rgb(240,240,255)"/>
<polygon points="203.1,254.3 209.1,254.3 209.1,260.3 203.1,260.3" fill="rgb(255,238,238)"/>
<polygon points="209.1,254.3 215.1,254.3 215.1,260.3 209.1,260.3" fill="rgb(255,237,237)"/>
<polygon points="215.1,254.3 221.1,254.3 221.1,260.3 215.1,260.3" fill="rgb(197,197,255)"/>
<polygon points="221.1,254.3 227.1,254.3 227.1,260.3 221.1,260.3" fill="rgb(196,196,255)"/>
<polygon points="227.1,254.3 233.1,254.3 233.1,260.3 227.1,260.3" fill="rgb(255,220,220)"/>
<polygon points="233.1,254.3 239.1,254.3 239.1,260.3 233.1,260.3" fill="rgb(255,147,147)"/>
<polygon points="249.1,254.3 255.1,254.3 255.1,260.3 249.1,260.3" fill="rgb(255,243,243)"/>
<polygon points="255.1,254.3 261.1,254.3 261.1,260.3 255.1,260.3" fill="rgb(255,197,197)"/>
<polygon points="261.1,254.3 267.1,254.3 267.1,260.3 261.1,260.3" fill="rgb(255,211,211)"/>
<polygon points="267.1,254.3 273.1,254.3 273.1,260.3 267.1,260.3" fill="rgb(255,147,147)"/>
<polygon points="273.1,254.3 279.1,254.3 279.1,260.3 273.1,260.3" fill="rgb(254,176,176)"/>
<polygon points="279.1,254.3 285.1,254.3 285.1,260.3 279.1,260.3" fill="rgb(211,211,255)"/>
<polygon points="285.1,254.3 291.1,254.3 291.1,260.3 285.1,260.3" fill="rgb(221,221,255)"/>
<polygon points="291.1,254.3 297.1,254.3 297.1,260.3 291.1,260.3" fill="rgb(223,223,255)"/>
<polygon points="307.1,254.3 313.1,254.3 313.1,260.3 307.1,260.3" fill="rgb(255,243,243)"/>
<polygon points="313.1,254.3 319.1,254.3 319.1,260.3 313.1,260.3" fill="rgb(255,229,229)"/>
<polygon points="319.1,254.3 325.1,254.3 325.1,260.3 319.1,260.3" fill="rgb(255,205,205)"/>
<polygon points="325.1,254.3 331.1,254.3 331.1,260.3 325.1,260.3" fill="rgb(255,215,215)"/>
<polygon points="331.1,254.3 337.1,254.3 337.1,260.3 331.1,260.3" fill="rgb(222,222,255)"/>
<polygon points="337.1,254.3 343.1,254.3 343.1,260.3 337.1,260.3" fill="rgb(216,216,255)"/>
<polygon points="343.1,254.3 349.1,254.3 349.1,260.3 343.1,260.3" fill="rgb(228,228,255)"/>
<polygon points="349.1,254.3 355.1,254.3 355.1,260.3 349.1,260.3" fill="rgb(255,181,181)"/>
<polygon points="157.1,260.3 165.1,260.3 165.1,266.3 157.1,266.3" fill="rgb(228,207,162)"/><text xml:space="preserve" x="161.1" y="266.133" font-family="Calibri" font-size="7.5" fill="rgb(0,0,0)" text-anchor="middle">11</text>
<polygon points="165.1,260.3 173.1,260.3 173.1,266.3 165.1,266.3" fill="rgb(245,245,245)"/><text xml:space="preserve" x="169.1" y="266.133" font-family="Calibri" font-size="7.5" fill="rgb(0,0,0)" text-anchor="middle">7</text>
<polygon points="173.1,260.3 181.1,260.3 181.1,266.3 173.1,266.3" fill="rgb(216,179,101)"/><text xml:space="preserve" x="177.1" y="266.133" font-family="Calibri" font-size="7.5" fill="rgb(0,0,0)" text-anchor="middle">14</text>
<polygon points="191.1,260.3 197.1,260.3 197.1,266.3 191.1,266.3" fill="rgb(239,239,255)"/>
<polygon points="197.1,260.3 203.1,260.3 203.1,266.3 197.1,266.3" fill="rgb(190,190,255)"/>
<polygon points="203.1,260.3 209.1,260.3 209.1,266.3 203.1,266.3" fill="rgb(224,224,255)"/>
<polygon points="209.1,260.3 215.1,260.3 215.1,266.3 209.1,266.3" fill="rgb(210,210,255)"/>
<polygon points="215.1,260.3 221.1,260.3 221.1,266.3 215.1,266.3" fill="rgb(188,188,255)"/>
<polygon points="221.1,260.3 227.1,260.3 227.1,266.3 221.1,266.3" fill="rgb(255,207,207)"/>
<polygon points="227.1,260.3 233.1,260.3 233.1,266.3 227.1,266.3" fill="rgb(255,188,188)"/>
<polygon points="233.1,260.3 239.1,260.3 239.1,266.3 233.1,266.3" fill="rgb(255,89,89)"/>
<polygon points="249.1,260.3 255.1,260.3 255.1,266.3 249.1,266.3" fill="rgb(255,204,204)"/>
<polygon points="255.1,260.3 261.1,260.3 261.1,266.3 255.1,266.3" fill="rgb(254,190,190)"/>
<polygon points="261.1,260.3 267.1,260.3 267.1,266.3 261.1,266.3" fill="rgb(255,200,200)"/>
<polygon points="267.1,260.3 273.1,260.3 273.1,266.3 267.1,266.3" fill="rgb(255,131,131)"/>
<polygon points="273.1,260.3 279.1,260.3 279.1,266.3 273.1,266.3" fill="rgb(255,217,217)"/>
<polygon points="279.1,260.3 285.1,260.3 285.1,266.3 279.1,266.3" fill="rgb(254,251,251)"/>
<polygon points="285.1,260.3 291.1,260.3 291.1,266.3 285.1,266.3" fill="rgb(254,234,234)"/>
<polygon points="291.1,260.3 297.1,260.3 297.1,266.3 291.1,266.3" fill="rgb(255,247,247)"/>
<polygon points="307.1,260.3 313.1,260.3 313.1,266.3 307.1,266.3" fill="rgb(255,236,236)"/>
<polygon points="313.1,260.3 319.1,260.3 319.1,266.3 313.1,266.3" fill="rgb(239,239,255)"/>
<polygon points="319.1,260.3 325.1,260.3 325.1,266.3 319.1,266.3" fill="rgb(255,248,248)"/>
<polygon points="325.1,260.3 331.1,260.3 331.1,266.3 325.1,266.3" fill="rgb(255,216,216)"/>
<polygon points="331.1,260.3 337.1,260.3 337.1,266.3 331.1,266.3" fill="rgb(208,208,255)"/>
<polygon points="337.1,260.3 343.1,260.3 343.1,266.3 337.1,266.3" fill="rgb(184,184,255)"/>
<polygon points="343.1,260.3 349.1,260.3 349.1,266.3 343.1,266.3" fill="rgb(255,182,182)"/>
<polygon points="349.1,260.3 355.1,260.3 355.1,266.3 349.1,266.3" fill="rgb(255,122,122)"/>
<polygon points="157.1,266.3 165.1,266.3 165.1,272.3 157.1,272.3" fill="rgb(228,207,162)"/><text xml:space="preserve" x="161.1" y="272.133" font-family="Calibri" font-size="7.5" fill="rgb(0,0,0)" text-anchor="middle">11</text>
<polygon points="165.1,266.3 173.1,266.3 173.1,272.3 165.1,272.3" fill="rgb(245,245,245)"/><text xml:space="preserve" x="169.1" y="272.133" font-family="Calibri" font-size="7.5" fill="rgb(0,0,0)" text-anchor="middle">7</text>
<polygon points="173.1,266.3 181.1,266.3 181.1,272.3 173.1,272.3" fill="rgb(216,179,101)"/><text xml:space="preserve" x="177.1" y="272.133" font-family="Calibri" font-size="7.5" fill="rgb(0,0,0)" text-anchor="middle">14</text>
<polygon points="191.1,266.3 197.1,266.3 197.1,272.3 191.1,272.3" fill="rgb(255,200,200)"/>
<polygon points="197.1,266.3 203.1,266.3 203.1,272.3 197.1,272.3" fill="rgb(222,222,255)"/>
<polygon points="203.1,266.3 209.1,266.3 209.1,272.3 203.1,272.3" fill="rgb(225,225,255)"/>
<polygon points="209.1,266.3 215.1,266.3 215.1,272.3 209.1,272.3" fill="rgb(241,241,255)"/>
<polygon points="215.1,266.3 221.1,266.3 221.1,272.3 215.1,272.3" fill="rgb(203,203,255)"/>
<polygon points="221.1,266.3 227.1,266.3 227.1,272.3 221.1,272.3" fill="rgb(172,172,255)"/>
<polygon points="227.1,266.3 233.1,266.3 233.1,272.3 227.1,272.3" fill="rgb(255,85,85)"/>
<polygon points="233.1,266.3 239.1,266.3 239.1,272.3 233.1,272.3" fill="rgb(255,0,0)"/>
<polygon points="249.1,266.3 255.1,266.3 255.1,272.3 249.1,272.3" fill="rgb(255,183,183)"/>
<polygon points="255.1,266.3 261.1,266.3 261.1,272.3 255.1,272.3" fill="rgb(255,197,197)"/>
<polygon points="261.1,266.3 267.1,266.3 267.1,272.3 261.1,272.3" fill="rgb(254,185,185)"/>
<polygon points="267.1,266.3 273.1,266.3 273.1,272.3 267.1,272.3" fill="rgb(255,201,201)"/>
<polygon points="273.1,266.3 279.1,266.3 279.1,272.3 273.1,272.3" fill="rgb(255,250,250)"/>
<polygon points="279.1,266.3 285.1,266.3 285.1,272.3 279.1,272.3" fill="rgb(215,215,255)"/>
<polygon points="285.1,266.3 291.1,266.3 291.1,272.3 285.1,272.3" fill="rgb(226,226,255)"/>
<polygon points="291.1,266.3 297.1,266.3 297.1,272.3 291.1,272.3" fill="rgb(254,205,205)"/>
<polygon points="307.1,266.3 313.1,266.3 313.1,272.3 307.1,272.3" fill="rgb(255,205,205)"/>
<polygon points="313.1,266.3 319.1,266.3 319.1,272.3 313.1,272.3" fill="rgb(239,239,255)"/>
<polygon points="319.1,266.3 325.1,266.3 325.1,272.3 319.1,272.3" fill="rgb(161,161,255)"/>
<polygon points="325.1,266.3 331.1,266.3 331.1,272.3 325.1,272.3" fill="rgb(255,220,220)"/>
<polygon points="331.1,266.3 337.1,266.3 337.1,272.3 331.1,272.3" fill="rgb(255,210,210)"/>
<polygon points="337.1,266.3 343.1,266.3 343.1,272.3 337.1,272.3" fill="rgb(144,144,255)"/>
<polygon points="343.1,266.3 349.1,266.3 349.1,272.3 343.1,272.3" fill="rgb(255,141,141)"/>
<polygon points="349.1,266.3 355.1,266.3 355.1,272.3 349.1,272.3" fill="rgb(255,32,32)"/>
<polygon points="157.1,272.3 165.1,272.3 165.1,278.3 157.1,278.3" fill="rgb(228,207,162)"/><text xml:space="preserve" x="161.1" y="278.133" font-family="Calibri" font-size="7.5" fill="rgb(0,0,0)" text-anchor="middle">11</text>
<polygon points="165.1,272.3 173.1,272.3 173.1,278.3 165.1,278.3" fill="rgb(245,245,245)"/><text xml:space="preserve" x="169.1" y="278.133" font-family="Calibri" font-size="7.5" fill="rgb(0,0,0)" text-anchor="middle">7</text>
<polygon points="173.1,272.3 181.1,272.3 181.1,278.3 173.1,278.3" fill="rgb(216,179,101)"/><text xml:space="preserve" x="177.1" y="278.133" font-family="Calibri" font-size="7.5" fill="rgb(0,0,0)" text-anchor="middle">14</text>
<polygon points="191.1,272.3 197.1,272.3 197.1,278.3 191.1,278.3" fill="rgb(255,242,242)"/>
<polygon points="197.1,272.3 203.1,272.3 203.1,278.3 197.1,278.3" fill="rgb(168,168,255)"/>
<polygon points="203.1,272.3 209.1,272.3 209.1,278.3 203.1,278.3" fill="rgb(238,238,255)"/>
<polygon points="209.1,272.3 215.1,272.3 215.1,278.3 209.1,278.3" fill="rgb(222,222,255)"/>
<polygon points="215.1,272.3 221.1,272.3 221.1,278.3 215.1,278.3" fill="rgb(193,193,255)"/>
<polygon points="221.1,272.3 227.1,272.3 227.1,278.3 221.1,278.3" fill="rgb(254,252,252)"/>
<polygon points="227.1,272.3 233.1,272.3 233.1,278.3 227.1,278.3" fill="rgb(255,37,37)"/>
<polygon points="233.1,272.3 239.1,272.3 239.1,278.3 233.1,278.3" fill="rgb(255,2,2)"/>
<polygon points="249.1,272.3 255.1,272.3 255.1,278.3 249.1,278.3" fill="rgb(254,246,246)"/>
<polygon points="255.1,272.3 261.1,272.3 261.1,278.3 255.1,278.3" fill="rgb(255,246,246)"/>
<polygon points="261.1,272.3 267.1,272.3 267.1,278.3 261.1,278.3" fill="rgb(255,185,185)"/>
<polygon points="267.1,272.3 273.1,272.3 273.1,278.3 267.1,278.3" fill="rgb(255,211,211)"/>
<polygon points="273.1,272.3 279.1,272.3 279.1,278.3 273.1,278.3" fill="rgb(255,160,160)"/>
<polygon points="279.1,272.3 285.1,272.3 285.1,278.3 279.1,278.3" fill="rgb(182,182,255)"/>
<polygon points="285.1,272.3 291.1,272.3 291.1,278.3 285.1,278.3" fill="rgb(201,201,255)"/>
<polygon points="291.1,272.3 297.1,272.3 297.1,278.3 291.1,278.3" fill="rgb(255,206,206)"/>
<polygon points="307.1,272.3 313.1,272.3 313.1,278.3 307.1,278.3" fill="rgb(255,225,225)"/>
<polygon points="313.1,272.3 319.1,272.3 319.1,278.3 313.1,278.3" fill="rgb(255,229,229)"/>
<polygon points="319.1,272.3 325.1,272.3 325.1,278.3 319.1,278.3" fill="rgb(255,252,252)"/>
<polygon points="325.1,272.3 331.1,272.3 331.1,278.3 325.1,278.3" fill="rgb(255,158,158)"/>
<polygon points="331.1,272.3 337.1,272.3 337.1,278.3 331.1,278.3" fill="rgb(255,222,222)"/>
<polygon points="337.1,272.3 343.1,272.3 343.1,278.3 337.1,278.3" fill="rgb(179,179,255)"/>
<polygon points="343.1,272.3 349.1,272.3 349.1,278.3 343.1,278.3" fill="rgb(254,230,230)"/>
<polygon points="349.1,272.3 355.1,272.3 355.1,278.3 349.1,278.3" fill="rgb(255,38,38)"/>
<polygon points="157.1,278.3 165.1,278.3 165.1,284.3 157.1,284.3" fill="rgb(228,207,162)"/><text xml:space="preserve" x="161.1" y="284.133" font-family="Calibri" font-size="7.5" fill="rgb(0,0,0)" text-anchor="middle">11</text>
<polygon points="165.1,278.3 173.1,278.3 173.1,284.3 165.1,284.3" fill="rgb(245,245,245)"/><text xml:space="preserve" x="169.1" y="284.133" font-family="Calibri" font-size="7.5" fill="rgb(0,0,0)" text-anchor="middle">7</text>
<polygon points="173.1,278.3 181.1,278.3 181.1,284.3 173.1,284.3" fill="rgb(216,179,101)"/><text xml:space="preserve" x="177.1" y="284.133" font-family="Calibri" font-size="7.5" fill="rgb(0,0,0)" text-anchor="middle">14</text>
<polygon points="191.1,278.3 197.1,278.3 197.1,284.3 191.1,284.3" fill="rgb(255,251,251)"/>
<polygon points="197.1,278.3 203.1,278.3 203.1,284.3 197.1,284.3" fill="rgb(195,195,255)"/>
<polygon points="203.1,278.3 209.1,278.3 209.1,284.3 203.1,284.3" fill="rgb(237,237,255)"/>
<polygon points="209.1,278.3 215.1,278.3 215.1,284.3 209.1,284.3" fill="rgb(240,240,255)"/>
<polygon points="215.1,278.3 221.1,278.3 221.1,284.3 215.1,284.3" fill="rgb(197,197,255)"/>
<polygon points="221.1,278.3 227.1,278.3 227.1,284.3 221.1,284.3" fill="rgb(253,253,255)"/>
<polygon points="227.1,278.3 233.1,278.3 233.1,284.3 227.1,284.3" fill="rgb(255,78,78)"/>
<polygon points="233.1,278.3 239.1,278.3 239.1,284.3 233.1,284.3" fill="rgb(255,0,0)"/>
<polygon points="249.1,278.3 255.1,278.3 255.1,284.3 249.1,284.3" fill="rgb(255,225,225)"/>
<polygon points="255.1,278.3 261.1,278.3 261.1,284.3 255.1,284.3" fill="rgb(255,225,225)"/>
<polygon points="261.1,278.3 267.1,278.3 267.1,284.3 261.1,284.3" fill="rgb(255,212,212)"/>
<polygon points="267.1,278.3 273.1,278.3 273.1,284.3 267.1,284.3" fill="rgb(255,194,194)"/>
<polygon points="273.1,278.3 279.1,278.3 279.1,284.3 273.1,284.3" fill="rgb(255,178,178)"/>
<polygon points="279.1,278.3 285.1,278.3 285.1,284.3 279.1,284.3" fill="rgb(227,227,255)"/>
<polygon points="285.1,278.3 291.1,278.3 291.1,284.3 285.1,284.3" fill="rgb(172,172,255)"/>
<polygon points="291.1,278.3 297.1,278.3 297.1,284.3 291.1,284.3" fill="rgb(255,213,213)"/>
<polygon points="307.1,278.3 313.1,278.3 313.1,284.3 307.1,284.3" fill="rgb(255,253,253)"/>
<polygon points="313.1,278.3 319.1,278.3 319.1,284.3 313.1,284.3" fill="rgb(255,244,244)"/>
<polygon points="319.1,278.3 325.1,278.3 325.1,284.3 319.1,284.3" fill="rgb(255,231,231)"/>
<polygon points="325.1,278.3 331.1,278.3 331.1,284.3 325.1,284.3" fill="rgb(255,133,133)"/>
<polygon points="331.1,278.3 337.1,278.3 337.1,284.3 331.1,284.3" fill="rgb(255,219,219)"/>
<polygon points="337.1,278.3 343.1,278.3 343.1,284.3 337.1,284.3" fill="rgb(177,177,255)"/>
<polygon points="343.1,278.3 349.1,278.3 349.1,284.3 343.1,284.3" fill="rgb(255,248,248)"/>
<polygon points="349.1,278.3 355.1,278.3 355.1,284.3 349.1,284.3" fill="rgb(255,29,29)"/>
<polygon points="157.1,284.3 165.1,284.3 165.1,290.3 157.1,290.3" fill="rgb(228,207,162)"/><text xml:space="preserve" x="161.1" y="290.133" font-family="Calibri" font-size="7.5" fill="rgb(0,0,0)" text-anchor="middle">11</text>
<polygon points="165.1,284.3 173.1,284.3 173.1,290.3 165.1,290.3" fill="rgb(245,245,245)"/><text xml:space="preserve" x="169.1" y="290.133" font-family="Calibri" font-size="7.5" fill="rgb(0,0,0)" text-anchor="middle">7</text>
<polygon points="173.1,284.3 181.1,284.3 181.1,290.3 173.1,290.3" fill="rgb(216,179,101)"/><text xml:space="preserve" x="177.1" y="290.133" font-family="Calibri" font-size="7.5" fill="rgb(0,0,0)" text-anchor="middle">14</text>
<polygon points="191.1,284.3 197.1,284.3 197.1,290.3 191.1,290.3" fill="rgb(254,214,214)"/>
<polygon points="197.1,284.3 203.1,284.3 203.1,290.3 197.1,290.3" fill="rgb(204,204,255)"/>
<polygon points="203.1,284.3 209.1,284.3 209.1,290.3 203.1,290.3" fill="rgb(246,246,255)"/>
<polygon points="209.1,284.3 215.1,284.3 215.1,290.3 209.1,290.3" fill="rgb(240,240,255)"/>
<polygon points="215.1,284.3 221.1,284.3 221.1,290.3 215.1,290.3" fill="rgb(244,244,255)"/>
<polygon points="221.1,284.3 227.1,284.3 227.1,290.3 221.1,290.3" fill="rgb(255,235,235)"/>
<polygon points="227.1,284.3 233.1,284.3 233.1,290.3 227.1,290.3" fill="rgb(255,84,84)"/>
<polygon points="233.1,284.3 239.1,284.3 239.1,290.3 233.1,290.3" fill="rgb(255,0,0)"/>
<polygon points="249.1,284.3 255.1,284.3 255.1,290.3 249.1,290.3" fill="rgb(255,215,215)"/>
<polygon points="255.1,284.3 261.1,284.3 261.1,290.3 255.1,290.3" fill="rgb(255,208,208)"/>
<polygon points="261.1,284.3 267.1,284.3 267.1,290.3 261.1,290.3" fill="rgb(255,247,247)"/>
<polygon points="267.1,284.3 273.1,284.3 273.1,290.3 267.1,290.3" fill="rgb(255,177,177)"/>
<polygon points="273.1,284.3 279.1,284.3 279.1,290.3 273.1,290.3" fill="rgb(255,151,151)"/>
<polygon points="279.1,284.3 285.1,284.3 285.1,290.3 279.1,290.3" fill="rgb(207,207,255)"/>
<polygon points="285.1,284.3 291.1,284.3 291.1,290.3 285.1,290.3" fill="rgb(255,228,228)"/>
<polygon points="291.1,284.3 297.1,284.3 297.1,290.3 291.1,290.3" fill="rgb(255,253,253)"/>
<polygon points="307.1,284.3 313.1,284.3 313.1,290.3 307.1,290.3" fill="rgb(255,212,212)"/>
<polygon points="313.1,284.3 319.1,284.3 319.1,290.3 313.1,290.3" fill="rgb(232,232,255)"/>
<polygon points="319.1,284.3 325.1,284.3 325.1,290.3 319.1,290.3" fill="rgb(198,198,255)"/>
<polygon points="325.1,284.3 331.1,284.3 331.1,290.3 325.1,290.3" fill="rgb(255,222,222)"/>
<polygon points="331.1,284.3 337.1,284.3 337.1,290.3 331.1,290.3" fill="rgb(255,233,233)"/>
<polygon points="337.1,284.3 343.1,284.3 343.1,290.3 337.1,290.3" fill="rgb(179,179,255)"/>
<polygon points="343.1,284.3 349.1,284.3 349.1,290.3 343.1,290.3" fill="rgb(255,226,226)"/>
<polygon points="349.1,284.3 355.1,284.3 355.1,290.3 349.1,290.3" fill="rgb(255,162,162)"/>
<polygon points="157.1,290.3 165.1,290.3 165.1,296.3 157.1,296.3" fill="rgb(228,207,162)"/><text xml:space="preserve" x="161.1" y="296.133" font-family="Calibri" font-size="7.5" fill="rgb(0,0,0)" text-anchor="middle">11</text>
<polygon points="165.1,290.3 173.1,290.3 173.1,296.3 165.1,296.3" fill="rgb(245,245,245)"/><text xml:space="preserve" x="169.1" y="296.133" font-family="Calibri" font-size="7.5" fill="rgb(0,0,0)" text-anchor="middle">7</text>
<polygon points="173.1,290.3 181.1,290.3 181.1,296.3 173.1,296.3" fill="rgb(216,179,101)"/><text xml:space="preserve" x="177.1" y="296.133" font-family="Calibri" font-size="7.5" fill="rgb(0,0,0)" text-anchor="middle">14</text>
<polygon points="191.1,290.3 197.1,290.3 197.1,296.3 191.1,296.3" fill="rgb(255,221,221)"/>
<polygon points="197.1,290.3 203.1,290.3 203.1,296.3 197.1,296.3" fill="rgb(230,230,255)"/>
<polygon points="203.1,290.3 209.1,290.3 209.1,296.3 203.1,296.3" fill="rgb(223,223,255)"/>
<polygon points="209.1,290.3 215.1,290.3 215.1,296.3 209.1,296.3" fill="rgb(238,238,255)"/>
<polygon points="215.1,290.3 221.1,290.3 221.1,296.3 215.1,296.3" fill="rgb(219,219,255)"/>
<polygon points="221.1,290.3 227.1,290.3 227.1,296.3 221.1,296.3" fill="rgb(124,124,255)"/>
<polygon points="227.1,290.3 233.1,290.3 233.1,296.3 227.1,296.3" fill="rgb(255,37,37)"/>
<polygon points="233.1,290.3 239.1,290.3 239.1,296.3 233.1,296.3" fill="rgb(255,0,0)"/>
<polygon points="249.1,290.3 255.1,290.3 255.1,296.3 249.1,296.3" fill="rgb(255,246,246)"/>
<polygon points="255.1,290.3 261.1,290.3 261.1,296.3 255.1,296.3" fill="rgb(255,199,199)"/>
<polygon points="261.1,290.3 267.1,290.3 267.1,296.3 261.1,296.3" fill="rgb(255,207,207)"/>
<polygon points="267.1,290.3 273.1,290.3 273.1,296.3 267.1,296.3" fill="rgb(255,171,171)"/>
<polygon points="273.1,290.3 279.1,290.3 279.1,296.3 273.1,296.3" fill="rgb(255,109,109)"/>
<polygon points="279.1,290.3 285.1,290.3 285.1,296.3 279.1,296.3" fill="rgb(184,184,255)"/>
<polygon points="285.1,290.3 291.1,290.3 291.1,296.3 285.1,296.3" fill="rgb(255,237,237)"/>
<polygon points="291.1,290.3 297.1,290.3 297.1,296.3 291.1,296.3" fill="rgb(226,226,255)"/>
<polygon points="307.1,290.3 313.1,290.3 313.1,296.3 307.1,296.3" fill="rgb(253,253,255)"/>
<polygon points="313.1,290.3 319.1,290.3 319.1,296.3 313.1,296.3" fill="rgb(255,240,240)"/>
<polygon points="319.1,290.3 325.1,290.3 325.1,296.3 319.1,296.3" fill="rgb(208,208,255)"/>
<polygon points="325.1,290.3 331.1,290.3 331.1,296.3 325.1,296.3" fill="rgb(255,232,232)"/>
<polygon points="331.1,290.3 337.1,290.3 337.1,296.3 331.1,296.3" fill="rgb(254,224,224)"/>
<polygon points="337.1,290.3 343.1,290.3 343.1,296.3 337.1,296.3" fill="rgb(114,114,255)"/>
<polygon points="343.1,290.3 349.1,290.3 349.1,296.3 343.1,296.3" fill="rgb(255,244,244)"/>
<polygon points="349.1,290.3 355.1,290.3 355.1,296.3 349.1,296.3" fill="rgb(255,160,160)"/>
<polygon points="157.1,296.3 165.1,296.3 165.1,302.3 157.1,302.3" fill="rgb(228,207,162)"/><text xml:space="preserve" x="161.1" y="302.133" font-family="Calibri" font-size="7.5" fill="rgb(0,0,0)" text-anchor="middle">11</text>
<polygon points="165.1,296.3 173.1,296.3 173.1,302.3 165.1,302.3" fill="rgb(245,245,245)"/><text xml:space="preserve" x="169.1" y="302.133" font-family="Calibri" font-size="7.5" fill="rgb(0,0,0)" text-anchor="middle">7</text>
<polygon points="173.1,296.3 181.1,296.3 181.1,302.3 173.1,302.3" fill="rgb(216,179,101)"/><text xml:space="preserve" x="177.1" y="302.133" font-family="Calibri" font-size="7.5" fill="rgb(0,0,0)" text-anchor="middle">14</text>
<polygon points="191.1,296.3 197.1,296.3 197.1,302.3 191.1,302.3" fill="rgb(255,251,251)"/>
<polygon points="197.1,296.3 203.1,296.3 203.1,302.3 197.1,302.3" fill="rgb(213,213,255)"/>
<polygon points="203.1,296.3 209.1,296.3 209.1,302.3 203.1,302.3" fill="rgb(243,243,255)"/>
<polygon points="209.1,296.3 215.1,296.3 215.1,302.3 209.1,302.3" fill="rgb(250,250,255)"/>
<polygon points="215.1,296.3 221.1,296.3 221.1,302.3 215.1,302.3" fill="rgb(187,187,255)"/>
<polygon points="221.1,296.3 227.1,296.3 227.1,302.3 221.1,302.3" fill="rgb(231,231,255)"/>
<polygon points="227.1,296.3 233.1,296.3 233.1,302.3 227.1,302.3" fill="rgb(254,157,157)"/>
<polygon points="233.1,296.3 239.1,296.3 239.1,302.3 233.1,302.3" fill="rgb(255,107,107)"/>
<polygon points="249.1,296.3 255.1,296.3 255.1,302.3 249.1,302.3" fill="rgb(255,227,227)"/>
<polygon points="255.1,296.3 261.1,296.3 261.1,302.3 255.1,302.3" fill="rgb(255,194,194)"/>
<polygon points="261.1,296.3 267.1,296.3 267.1,302.3 261.1,302.3" fill="rgb(255,216,216)"/>
<polygon points="267.1,296.3 273.1,296.3 273.1,302.3 267.1,302.3" fill="rgb(255,150,150)"/>
<polygon points="273.1,296.3 279.1,296.3 279.1,302.3 273.1,302.3" fill="rgb(255,214,214)"/>
<polygon points="279.1,296.3 285.1,296.3 285.1,302.3 279.1,302.3" fill="rgb(193,193,255)"/>
<polygon points="285.1,296.3 291.1,296.3 291.1,302.3 285.1,302.3" fill="rgb(212,212,255)"/>
<polygon points="291.1,296.3 297.1,296.3 297.1,302.3 291.1,302.3" fill="rgb(255,196,196)"/>
<polygon points="307.1,296.3 313.1,296.3 313.1,302.3 307.1,302.3" fill="rgb(255,208,208)"/>
<polygon points="313.1,296.3 319.1,296.3 319.1,302.3 313.1,302.3" fill="rgb(249,249,255)"/>
<polygon points="319.1,296.3 325.1,296.3 325.1,302.3 319.1,302.3" fill="rgb(255,228,228)"/>
<polygon points="325.1,296.3 331.1,296.3 331.1,302.3 325.1,302.3" fill="rgb(255,244,244)"/>
<polygon points="331.1,296.3 337.1,296.3 337.1,302.3 331.1,302.3" fill="rgb(254,234,234)"/>
<polygon points="337.1,296.3 343.1,296.3 343.1,302.3 337.1,302.3" fill="rgb(255,224,224)"/>
<polygon points="343.1,296.3 349.1,296.3 349.1,302.3 343.1,302.3" fill="rgb(241,241,255)"/>
<polygon points="349.1,296.3 355.1,296.3 355.1,302.3 349.1,302.3" fill="rgb(255,232,232)"/>
<polygon points="157.1,302.3 165.1,302.3 165.1,308.3 157.1,308.3" fill="rgb(228,207,162)"/><text xml:space="preserve" x="161.1" y="308.133" font-family="Calibri" font-size="7.5" fill="rgb(0,0,0)" text-anchor="middle">11</text>
<polygon points="165.1,302.3 173.1,302.3 173.1,308.3 165.1,308.3" fill="rgb(245,245,245)"/><text xml:space="preserve" x="169.1" y="308.133" font-family="Calibri" font-size="7.5" fill="rgb(0,0,0)" text-anchor="middle">7</text>
<polygon points="173.1,302.3 181.1,302.3 181.1,308.3 173.1,308.3" fill="rgb(216,179,101)"/><text xml:space="preserve" x="177.1" y="308.133" font-family="Calibri" font-size="7.5" fill="rgb(0,0,0)" text-anchor="middle">14</text>
<polygon points="191.1,302.3 197.1,302.3 197.1,308.3 191.1,308.3" fill="rgb(254,246,246)"/>
<polygon points="197.1,302.3 203.1,302.3 203.1,308.3 197.1,308.3" fill="rgb(235,235,255)"/>
<polygon points="203.1,302.3 209.1,302.3 209.1,308.3 203.1,308.3" fill="rgb(244,244,255)"/>
<polygon points="209.1,302.3 215.1,302.3 215.1,308.3 209.1,308.3" fill="rgb(250,250,255)"/>
<polygon points="215.1,302.3 221.1,302.3 221.1,308.3 215.1,308.3" fill="rgb(239,239,255)"/>
<polygon points="221.1,302.3 227.1,302.3 227.1,308.3 221.1,308.3" fill="rgb(229,229,255)"/>
<polygon points="227.1,302.3 233.1,302.3 233.1,308.3 227.1,308.3" fill="rgb(255,125,125)"/>
<polygon points="233.1,302.3 239.1,302.3 239.1,308.3 233.1,308.3" fill="rgb(255,51,51)"/>
<polygon points="249.1,302.3 255.1,302.3 255.1,308.3 249.1,308.3" fill="rgb(255,173,173)"/>
<polygon points="255.1,302.3 261.1,302.3 261.1,308.3 255.1,308.3" fill="rgb(255,211,211)"/>
<polygon points="261.1,302.3 267.1,302.3 267.1,308.3 261.1,308.3" fill="rgb(255,211,211)"/>
<polygon points="267.1,302.3 273.1,302.3 273.1,308.3 267.1,308.3" fill="rgb(255,157,157)"/>
<polygon points="273.1,302.3 279.1,302.3 279.1,308.3 273.1,308.3" fill="rgb(255,214,214)"/>
<polygon points="279.1,302.3 285.1,302.3 285.1,308.3 279.1,308.3" fill="rgb(218,218,255)"/>
<polygon points="285.1,302.3 291.1,302.3 291.1,308.3 285.1,308.3" fill="rgb(254,217,217)"/>
<polygon points="291.1,302.3 297.1,302.3 297.1,308.3 291.1,308.3" fill="rgb(255,242,242)"/>
<polygon points="307.1,302.3 313.1,302.3 313.1,308.3 307.1,308.3" fill="rgb(254,206,206)"/>
<polygon points="313.1,302.3 319.1,302.3 319.1,308.3 313.1,308.3" fill="rgb(241,241,255)"/>
<polygon points="319.1,302.3 325.1,302.3 325.1,308.3 319.1,308.3" fill="rgb(255,225,225)"/>
<polygon points="325.1,302.3 331.1,302.3 331.1,308.3 325.1,308.3" fill="rgb(255,205,205)"/>
<polygon points="331.1,302.3 337.1,302.3 337.1,308.3 331.1,308.3" fill="rgb(255,250,250)"/>
<polygon points="337.1,302.3 343.1,302.3 343.1,308.3 337.1,308.3" fill="rgb(240,240,255)"/>
<polygon points="343.1,302.3 349.1,302.3 349.1,308.3 343.1,308.3" fill="rgb(255,229,229)"/>
<polygon points="349.1,302.3 355.1,302.3 355.1,308.3 349.1,308.3" fill="rgb(255,217,217)"/>
<polygon points="157.1,308.3 165.1,308.3 165.1,314.3 157.1,314.3" fill="rgb(228,207,162)"/><text xml:space="preserve" x="161.1" y="314.133" font-family="Calibri" font-size="7.5" fill="rgb(0,0,0)" text-anchor="middle">11</text>
<polygon points="165.1,308.3 173.1,308.3 173.1,314.3 165.1,314.3" fill="rgb(245,245,245)"/><text xml:space="preserve" x="169.1" y="314.133" font-family="Calibri" font-size="7.5" fill="rgb(0,0,0)" text-anchor="middle">7</text>
<polygon points="173.1,308.3 181.1,308.3 181.1,314.3 173.1,314.3" fill="rgb(216,179,101)"/><text xml:space="preserve" x="177.1" y="314.133" font-family="Calibri" font-size="7.5" fill="rgb(0,0,0)" text-anchor="middle">14</text>
<polygon points="191.1,308.3 197.1,308.3 197.1,314.3 191.1,314.3" fill="rgb(255,224,224)"/>
<polygon points="197.1,308.3 203.1,308.3 203.1,314.3 197.1,314.3" fill="rgb(252,252,255)"/>
<polygon points="203.1,308.3 209.1,308.3 209.1,314.3 203.1,314.3" fill="rgb(220,220,255)"/>
<polygon points="209.1,308.3 215.1,308.3 215.1,314.3 209.1,314.3" fill="rgb(240,240,255)"/>
<polygon points="215.1,308.3 221.1,308.3 221.1,314.3 215.1,314.3" fill="rgb(236,236,255)"/>
<polygon points="221.1,308.3 227.1,308.3 227.1,314.3 221.1,314.3" fill="rgb(241,241,255)"/>
<polygon points="227.1,308.3 233.1,308.3 233.1,314.3 227.1,314.3" fill="rgb(255,92,92)"/>
<polygon points="233.1,308.3 239.1,308.3 239.1,314.3 233.1,314.3" fill="rgb(255,61,61)"/>
<polygon points="249.1,308.3 255.1,308.3 255.1,314.3 249.1,314.3" fill="rgb(255,203,203)"/>
<polygon points="255.1,308.3 261.1,308.3 261.1,314.3 255.1,314.3" fill="rgb(255,186,186)"/>
<polygon points="261.1,308.3 267.1,308.3 267.1,314.3 261.1,314.3" fill="rgb(255,231,231)"/>
<polygon points="267.1,308.3 273.1,308.3 273.1,314.3 267.1,314.3" fill="rgb(255,209,209)"/>
<polygon points="273.1,308.3 279.1,308.3 279.1,314.3 273.1,314.3" fill="rgb(255,197,197)"/>
<polygon points="279.1,308.3 285.1,308.3 285.1,314.3 279.1,314.3" fill="rgb(231,231,255)"/>
<polygon points="285.1,308.3 291.1,308.3 291.1,314.3 285.1,314.3" fill="rgb(255,173,173)"/>
<polygon points="291.1,308.3 297.1,308.3 297.1,314.3 291.1,314.3" fill="rgb(255,236,236)"/>
<polygon points="307.1,308.3 313.1,308.3 313.1,314.3 307.1,314.3" fill="rgb(255,219,219)"/>
<polygon points="313.1,308.3 319.1,308.3 319.1,314.3 313.1,314.3" fill="rgb(228,228,255)"/>
<polygon points="319.1,308.3 325.1,308.3 325.1,314.3 319.1,314.3" fill="rgb(215,215,255)"/>
<polygon points="325.1,308.3 331.1,308.3 331.1,314.3 325.1,314.3" fill="rgb(222,222,255)"/>
<polygon points="331.1,308.3 337.1,308.3 337.1,314.3 331.1,314.3" fill="rgb(255,254,254)"/>
<polygon points="337.1,308.3 343.1,308.3 343.1,314.3 337.1,314.3" fill="rgb(250,250,255)"/>
<polygon points="343.1,308.3 349.1,308.3 349.1,314.3 343.1,314.3" fill="rgb(255,157,157)"/>
<polygon points="349.1,308.3 355.1,308.3 355.1,314.3 349.1,314.3" fill="rgb(255,120,120)"/>
<polygon points="157.1,314.3 165.1,314.3 165.1,320.3 157.1,320.3" fill="rgb(228,207,162)"/><text xml:space="preserve" x="161.1" y="320.133" font-family="Calibri" font-size="7.5" fill="rgb(0,0,0)" text-anchor="middle">11</text>
<polygon points="165.1,314.3 173.1,314.3 173.1,320.3 165.1,320.3" fill="rgb(245,245,245)"/><text xml:space="preserve" x="169.1" y="320.133" font-family="Calibri" font-size="7.5" fill="rgb(0,0,0)" text-anchor="middle">7</text>
<polygon points="173.1,314.3 181.1,314.3 181.1,320.3 173.1,320.3" fill="rgb(216,179,101)"/><text xml:space="preserve" x="177.1" y="320.133" font-family="Calibri" font-size="7.5" fill="rgb(0,0,0)" text-anchor="middle">14</text>
<polygon points="191.1,314.3 197.1,314.3 197.1,320.3 191.1,320.3" fill="rgb(255,250,250)"/>
<polygon points="197.1,314.3 203.1,314.3 203.1,320.3 197.1,320.3" fill="rgb(206,206,255)"/>
<polygon points="203.1,314.3 209.1,314.3 209.1,320.3 203.1,320.3" fill="rgb(225,225,255)"/>
<polygon points="209.1,314.3 215.1,314.3 215.1,320.3 209.1,320.3" fill="rgb(255,240,240)"/>
<polygon points="215.1,314.3 221.1,314.3 221.1,320.3 215.1,320.3" fill="rgb(206,206,255)"/>
<polygon points="221.1,314.3 227.1,314.3 227.1,320.3 221.1,320.3" fill="rgb(240,240,255)"/>
<polygon points="227.1,314.3 233.1,314.3 233.1,320.3 227.1,320.3" fill="rgb(255,96,96)"/>
<polygon points="233.1,314.3 239.1,314.3 239.1,320.3 233.1,320.3" fill="rgb(255,40,40)"/>
<polygon points="249.1,314.3 255.1,314.3 255.1,320.3 249.1,320.3" fill="rgb(243,243,255)"/>
<polygon points="255.1,314.3 261.1,314.3 261.1,320.3 255.1,320.3" fill="rgb(255,203,203)"/>
<polygon points="261.1,314.3 267.1,314.3 267.1,320.3 261.1,320.3" fill="rgb(255,204,204)"/>
<polygon points="267.1,314.3 273.1,314.3 273.1,320.3 267.1,320.3" fill="rgb(255,102,102)"/>
<polygon points="273.1,314.3 279.1,314.3 279.1,320.3 273.1,320.3" fill="rgb(255,229,229)"/>
<polygon points="279.1,314.3 285.1,314.3 285.1,320.3 279.1,320.3" fill="rgb(241,241,255)"/>
<polygon points="285.1,314.3 291.1,314.3 291.1,320.3 285.1,320.3" fill="rgb(231,231,255)"/>
<polygon points="291.1,314.3 297.1,314.3 297.1,320.3 291.1,320.3" fill="rgb(255,249,249)"/>
<polygon points="307.1,314.3 313.1,314.3 313.1,320.3 307.1,320.3" fill="rgb(255,211,211)"/>
<polygon points="313.1,314.3 319.1,314.3 319.1,320.3 313.1,320.3" fill="rgb(249,249,255)"/>
<polygon points="319.1,314.3 325.1,314.3 325.1,320.3 319.1,320.3" fill="rgb(255,219,219)"/>
<polygon points="325.1,314.3 331.1,314.3 331.1,320.3 325.1,320.3" fill="rgb(255,199,199)"/>
<polygon points="331.1,314.3 337.1,314.3 337.1,320.3 331.1,320.3" fill="rgb(238,238,255)"/>
<polygon points="337.1,314.3 343.1,314.3 343.1,320.3 337.1,320.3" fill="rgb(210,210,255)"/>
<polygon points="343.1,314.3 349.1,314.3 349.1,320.3 343.1,320.3" fill="rgb(254,230,230)"/>
<polygon points="349.1,314.3 355.1,314.3 355.1,320.3 349.1,320.3" fill="rgb(255,218,218)"/>
<polygon points="157.1,320.3 165.1,320.3 165.1,326.3 157.1,326.3" fill="rgb(228,207,162)"/><text xml:space="preserve" x="161.1" y="326.133" font-family="Calibri" font-size="7.5" fill="rgb(0,0,0)" text-anchor="middle">11</text>
<polygon points="165.1,320.3 173.1,320.3 173.1,326.3 165.1,326.3" fill="rgb(245,245,245)"/><text xml:space="preserve" x="169.1" y="326.133" font-family="Calibri" font-size="7.5" fill="rgb(0,0,0)" text-anchor="middle">7</text>
<polygon points="173.1,320.3 181.1,320.3 181.1,326.3 173.1,326.3" fill="rgb(216,179,101)"/><text xml:space="preserve" x="177.1" y="326.133" font-family="Calibri" font-size="7.5" fill="rgb(0,0,0)" text-anchor="middle">14</text>
<polygon points="191.1,320.3 197.1,320.3 197.1,326.3 191.1,326.3" fill="rgb(252,252,255)"/>
<polygon points="197.1,320.3 203.1,320.3 203.1,326.3 197.1,326.3" fill="rgb(240,240,255)"/>
<polygon points="203.1,320.3 209.1,320.3 209.1,326.3 203.1,326.3" fill="rgb(200,200,255)"/>
<polygon points="209.1,320.3 215.1,320.3 215.1,326.3 209.1,326.3" fill="rgb(255,253,253)"/>
<polygon points="215.1,320.3 221.1,320.3 221.1,326.3 215.1,326.3" fill="rgb(215,215,255)"/>
<polygon points="221.1,320.3 227.1,320.3 227.1,326.3 221.1,326.3" fill="rgb(255,180,180)"/>
<polygon points="227.1,320.3 233.1,320.3 233.1,326.3 227.1,326.3" fill="rgb(255,59,59)"/>
<polygon points="233.1,320.3 239.1,320.3 239.1,326.3 233.1,326.3" fill="rgb(255,142,142)"/>
<polygon points="249.1,320.3 255.1,320.3 255.1,326.3 249.1,326.3" fill="rgb(255,225,225)"/>
<polygon points="255.1,320.3 261.1,320.3 261.1,326.3 255.1,326.3" fill="rgb(255,198,198)"/>
<polygon points="261.1,320.3 267.1,320.3 267.1,326.3 261.1,326.3" fill="rgb(255,223,223)"/>
<polygon points="267.1,320.3 273.1,320.3 273.1,326.3 267.1,326.3" fill="rgb(255,177,177)"/>
<polygon points="273.1,320.3 279.1,320.3 279.1,326.3 273.1,326.3" fill="rgb(255,210,210)"/>
<polygon points="279.1,320.3 285.1,320.3 285.1,326.3 279.1,326.3" fill="rgb(255,230,230)"/>
<polygon points="285.1,320.3 291.1,320.3 291.1,326.3 285.1,326.3" fill="rgb(255,243,243)"/>
<polygon points="291.1,320.3 297.1,320.3 297.1,326.3 291.1,326.3" fill="rgb(251,251,255)"/>
<polygon points="307.1,320.3 313.1,320.3 313.1,326.3 307.1,326.3" fill="rgb(255,205,205)"/>
<polygon points="313.1,320.3 319.1,320.3 319.1,326.3 313.1,326.3" fill="rgb(255,248,248)"/>
<polygon points="319.1,320.3 325.1,320.3 325.1,326.3 319.1,326.3" fill="rgb(255,201,201)"/>
<polygon points="325.1,320.3 331.1,320.3 331.1,326.3 325.1,326.3" fill="rgb(254,254,255)"/>
<polygon points="331.1,320.3 337.1,320.3 337.1,326.3 331.1,326.3" fill="rgb(246,246,255)"/>
<polygon points="337.1,320.3 343.1,320.3 343.1,326.3 337.1,326.3" fill="rgb(255,210,210)"/>
<polygon points="343.1,320.3 349.1,320.3 349.1,326.3 343.1,326.3" fill="rgb(255,205,205)"/>
<polygon points="349.1,320.3 355.1,320.3 355.1,326.3 349.1,326.3" fill="rgb(244,244,255)"/>
<polygon points="157.1,326.3 165.1,326.3 165.1,332.3 157.1,332.3" fill="rgb(232,216,183)"/><text xml:space="preserve" x="161.1" y="332.133" font-family="Calibri" font-size="7.5" fill="rgb(0,0,0)" text-anchor="middle">10</text>
<polygon points="165.1,326.3 173.1,326.3 173.1,332.3 165.1,332.3" fill="rgb(245,245,245)"/><text xml:space="preserve" x="169.1" y="332.133" font-family="Calibri" font-size="7.5" fill="rgb(0,0,0)" text-anchor="middle">7</text>
<polygon points="173.1,326.3 181.1,326.3 181.1,332.3 173.1,332.3" fill="rgb(216,179,101)"/><text xml:space="preserve" x="177.1" y="332.133" font-family="Calibri" font-size="7.5" fill="rgb(0,0,0)" text-anchor="middle">14</text>
<polygon points="191.1,326.3 197.1,326.3 197.1,332.3 191.1,332.3" fill="rgb(254,153,153)"/>
<polygon points="197.1,326.3 203.1,326.3 203.1,332.3 197.1,332.3" fill="rgb(255,171,171)"/>
<polygon points="203.1,326.3 209.1,326.3 209.1,332.3 203.1,332.3" fill="rgb(255,175,175)"/>
<polygon points="209.1,326.3 215.1,326.3 215.1,332.3 209.1,332.3" fill="rgb(255,125,125)"/>
<polygon points="215.1,326.3 221.1,326.3 221.1,332.3 215.1,332.3" fill="rgb(255,124,124)"/>
<polygon points="221.1,326.3 227.1,326.3 227.1,332.3 221.1,332.3" fill="rgb(205,205,255)"/>
<polygon points="227.1,326.3 233.1,326.3 233.1,332.3 227.1,332.3" fill="rgb(148,148,255)"/>
<polygon points="233.1,326.3 239.1,326.3 239.1,332.3 233.1,332.3" fill="rgb(210,210,255)"/>
<polygon points="249.1,326.3 255.1,326.3 255.1,332.3 249.1,332.3" fill="rgb(255,212,212)"/>
<polygon points="255.1,326.3 261.1,326.3 261.1,332.3 255.1,332.3" fill="rgb(255,193,193)"/>
<polygon points="261.1,326.3 267.1,326.3 267.1,332.3 261.1,332.3" fill="rgb(255,232,232)"/>
<polygon points="267.1,326.3 273.1,326.3 273.1,332.3 267.1,332.3" fill="rgb(255,186,186)"/>
<polygon points="273.1,326.3 279.1,326.3 279.1,332.3 273.1,332.3" fill="rgb(255,200,200)"/>
<polygon points="279.1,326.3 285.1,326.3 285.1,332.3 279.1,332.3" fill="rgb(191,191,255)"/>
<polygon points="285.1,326.3 291.1,326.3 291.1,332.3 285.1,332.3" fill="rgb(237,237,255)"/>
<polygon points="291.1,326.3 297.1,326.3 297.1,332.3 291.1,332.3" fill="rgb(251,251,255)"/>
<polygon points="307.1,326.3 313.1,326.3 313.1,332.3 307.1,332.3" fill="rgb(255,174,174)"/>
<polygon points="313.1,326.3 319.1,326.3 319.1,332.3 313.1,332.3" fill="rgb(255,235,235)"/>
<polygon points="319.1,326.3 325.1,326.3 325.1,332.3 319.1,332.3" fill="rgb(249,249,255)"/>
<polygon points="325.1,326.3 331.1,326.3 331.1,332.3 325.1,332.3" fill="rgb(255,182,182)"/>
<polygon points="331.1,326.3 337.1,326.3 337.1,332.3 331.1,332.3" fill="rgb(255,253,253)"/>
<polygon points="337.1,326.3 343.1,326.3 343.1,332.3 337.1,332.3" fill="rgb(179,179,255)"/>
<polygon points="343.1,326.3 349.1,326.3 349.1,332.3 343.1,332.3" fill="rgb(255,249,249)"/>
<polygon points="349.1,326.3 355.1,326.3 355.1,332.3 349.1,332.3" fill="rgb(255,228,228)"/>
<polygon points="157.1,332.3 165.1,332.3 165.1,338.3 157.1,338.3" fill="rgb(232,216,183)"/><text xml:space="preserve" x="161.1" y="338.133" font-family="Calibri" font-size="7.5" fill="rgb(0,0,0)" text-anchor="middle">10</text>
<polygon points="165.1,332.3 173.1,332.3 173.1,338.3 165.1,338.3" fill="rgb(245,245,245)"/><text xml:space="preserve" x="169.1" y="338.133" font-family="Calibri" font-size="7.5" fill="rgb(0,0,0)" text-anchor="middle">7</text>
<polygon points="173.1,332.3 181.1,332.3 181.1,338.3 173.1,338.3" fill="rgb(216,179,101)"/><text xml:space="preserve" x="177.1" y="338.133" font-family="Calibri" font-size="7.5" fill="rgb(0,0,0)" text-anchor="middle">15</text>
<polygon points="191.1,332.3 197.1,332.3 197.1,338.3 191.1,338.3" fill="rgb(255,202,202)"/>
<polygon points="197.1,332.3 203.1,332.3 203.1,338.3 197.1,338.3" fill="rgb(255,123,123)"/>
<polygon points="203.1,332.3 209.1,332.3 209.1,338.3 203.1,338.3" fill="rgb(255,112,112)"/>
<polygon points="209.1,332.3 215.1,332.3 215.1,338.3 209.1,338.3" fill="rgb(254,163,163)"/>
<polygon points="215.1,332.3 221.1,332.3 221.1,338.3 215.1,338.3" fill="rgb(255,153,153)"/>
<polygon points="221.1,332.3 227.1,332.3 227.1,338.3 221.1,338.3" fill="rgb(255,197,197)"/>
<polygon points="227.1,332.3 233.1,332.3 233.1,338.3 227.1,338.3" fill="rgb(187,187,255)"/>
<polygon points="233.1,332.3 239.1,332.3 239.1,338.3 233.1,338.3" fill="rgb(160,160,255)"/>
<polygon points="249.1,332.3 255.1,332.3 255.1,338.3 249.1,338.3" fill="rgb(237,237,255)"/>
<polygon points="255.1,332.3 261.1,332.3 261.1,338.3 255.1,338.3" fill="rgb(255,169,169)"/>
<polygon points="261.1,332.3 267.1,332.3 267.1,338.3 261.1,338.3" fill="rgb(255,187,187)"/>
<polygon points="267.1,332.3 273.1,332.3 273.1,338.3 267.1,338.3" fill="rgb(255,197,197)"/>
<polygon points="273.1,332.3 279.1,332.3 279.1,338.3 273.1,338.3" fill="rgb(255,185,185)"/>
<polygon points="279.1,332.3 285.1,332.3 285.1,338.3 279.1,338.3" fill="rgb(255,241,241)"/>
<polygon points="285.1,332.3 291.1,332.3 291.1,338.3 285.1,338.3" fill="rgb(246,246,255)"/>
<polygon points="291.1,332.3 297.1,332.3 297.1,338.3 291.1,338.3" fill="rgb(143,143,255)"/>
<polygon points="307.1,332.3 313.1,332.3 313.1,338.3 307.1,338.3" fill="rgb(255,216,216)"/>
<polygon points="313.1,332.3 319.1,332.3 319.1,338.3 313.1,338.3" fill="rgb(255,202,202)"/>
<polygon points="319.1,332.3 325.1,332.3 325.1,338.3 319.1,338.3" fill="rgb(255,199,199)"/>
<polygon points="325.1,332.3 331.1,332.3 331.1,338.3 325.1,338.3" fill="rgb(255,217,217)"/>
<polygon points="331.1,332.3 337.1,332.3 337.1,338.3 331.1,338.3" fill="rgb(255,205,205)"/>
<polygon points="337.1,332.3 343.1,332.3 343.1,338.3 337.1,338.3" fill="rgb(255,194,194)"/>
<polygon points="343.1,332.3 349.1,332.3 349.1,338.3 343.1,338.3" fill="rgb(227,227,255)"/>
<polygon points="349.1,332.3 355.1,332.3 355.1,338.3 349.1,338.3" fill="rgb(180,180,255)"/>
<polygon points="157.1,212.3 181.1,212.3 181.1,338.3 157.1,338.3" fill="none" stroke="black" stroke-width="1"/>
<polygon points="191.1,212.3 239.1,212.3 239.1,338.3 191.1,338.3" fill="none" stroke="black" stroke-width="1"/>
<polygon points="249.1,212.3 297.1,212.3 297.1,338.3 249.1,338.3" fill="none" stroke="black" stroke-width="1"/>
<polygon points="307.1,212.3 355.1,212.3 355.1,338.3 307.1,338.3" fill="none" stroke="black" stroke-width="1"/>
<text xml:space="preserve" x="198.55" y="370.633" font-family="Calibri" font-size="6" text-anchor="middle">moduleID</text>
<polygon points="88.55,378.3 108.55,378.3 108.55,398.3 88.55,398.3" fill="rgb(250,250,250)"/><polygon points="88.55,378.3 108.55,378.3 108.55,398.3 88.55,398.3" fill="none" stroke="black" stroke-width="1"/><text xml:space="preserve" x="98.55" y="391.133" font-family="Calibri" font-size="7.5" fill="rgb(0,0,0)" text-anchor="middle">-2.0</text>
<polygon points="108.55,378.3 128.55,378.3 128.55,398.3 108.55,398.3" fill="rgb(156,210,205)"/><polygon points="108.55,378.3 128.55,378.3 128.55,398.3 108.55,398.3" fill="none" stroke="black" stroke-width="1"/><text xml:space="preserve" x="118.55" y="391.133" font-family="Calibri" font-size="7.5" fill="rgb(0,0,0)" text-anchor="middle">-0.4</text>
<polygon points="128.55,378.3 148.55,378.3 148.55,398.3 128.55,398.3" fill="rgb(116,191,184)"/><polygon points="128.55,378.3 148.55,378.3 148.55,398.3 128.55,398.3" fill="none" stroke="black" stroke-width="1"/><text xml:space="preserve" x="138.55" y="391.133" font-family="Calibri" font-size="7.5" fill="rgb(0,0,0)" text-anchor="middle">1.2</text>
<polygon points="148.55,378.3 168.55,378.3 168.55,398.3 148.55,398.3" fill="rgb(152,206,201)"/><polygon points="148.55,378.3 168.55,378.3 168.55,398.3 148.55,398.3" fill="none" stroke="black" stroke-width="1"/><text xml:space="preserve" x="158.55" y="391.133" font-family="Calibri" font-size="7.5" fill="rgb(0,0,0)" text-anchor="middle">2.8</text>
<polygon points="168.55,378.3 188.55,378.3 188.55,398.3 168.55,398.3" fill="rgb(187,220,217)"/><polygon points="168.55,378.3 188.55,378.3 188.55,398.3 168.55,398.3" fill="none" stroke="black" stroke-width="1"/><text xml:space="preserve" x="178.55" y="391.133" font-family="Calibri" font-size="7.5" fill="rgb(0,0,0)" text-anchor="middle">4.4</text>
<polygon points="188.55,378.3 208.55,378.3 208.55,398.3 188.55,398.3" fill="rgb(222,235,234)"/><polygon points="188.55,378.3 208.55,378.3 208.55,398.3 188.55,398.3" fill="none" stroke="black" stroke-width="1"/><text xml:space="preserve" x="198.55" y="391.133" font-family="Calibri" font-size="7.5" fill="rgb(0,0,0)" text-anchor="middle">6.0</text>
<polygon points="208.55,378.3 228.55,378.3 228.55,398.3 208.55,398.3" fill="rgb(242,239,232)"/><polygon points="208.55,378.3 228.55,378.3 228.55,398.3 208.55,398.3" fill="none" stroke="black" stroke-width="1"/><text xml:space="preserve" x="218.55" y="391.133" font-family="Calibri" font-size="7.5" fill="rgb(0,0,0)" text-anchor="middle">7.6</text>
<polygon points="228.55,378.3 248.55,378.3 248.55,398.3 228.55,398.3" fill="rgb(235,224,199)"/><polygon points="228.55,378.3 248.55,378.3 248.55,398.3 228.55,398.3" fill="none" stroke="black" stroke-width="1"/><text xml:space="preserve" x="238.55" y="391.133" font-family="Calibri" font-size="7.5" fill="rgb(0,0,0)" text-anchor="middle">9.2</text>
<polygon points="248.55,378.3 268.55,378.3 268.55,398.3 248.55,398.3" fill="rgb(229,209,166)"/><polygon points="248.55,378.3 268.55,378.3 268.55,398.3 248.55,398.3" fill="none" stroke="black" stroke-width="1"/><text xml:space="preserve" x="258.55" y="391.133" font-family="Calibri" font-size="7.5" fill="rgb(0,0,0)" text-anchor="middle">10.8</text>
<polygon points="268.55,378.3 288.55,378.3 288.55,398.3 268.55,398.3" fill="rgb(222,194,133)"/><polygon points="268.55,378.3 288.55,378.3 288.55,398.3 268.55,398.3" fill="none" stroke="black" stroke-width="1"/><text xml:space="preserve" x="278.55" y="391.133" font-family="Calibri" font-size="7.5" fill="rgb(0,0,0)" text-anchor="middle">12.4</text>
<polygon points="288.55,378.3 308.55,378.3 308.55,398.3 288.55,398.3" fill="rgb(216,179,101)"/><polygon points="288.55,378.3 308.55,378.3 308.55,398.3 288.55,398.3" fill="none" stroke="black" stroke-width="1"/><text xml:space="preserve" x="298.55" y="391.133" font-family="Calibri" font-size="7.5" fill="rgb(0,0,0)" text-anchor="middle">14.0</text>
<text xml:space="preserve" x="198.55" y="430.633" font-family="Calibri" font-size="6" text-anchor="middle">marklevel</text>
<polygon points="88.55,438.3 108.55,438.3 108.55,458.3 88.55,458.3" fill="rgb(0,0,255)"/><polygon points="88.55,438.3 108.55,438.3 108.55,458.3 88.55,458.3" fill="none" stroke="black" stroke-width="1"/><text xml:space="preserve" x="98.55" y="451.133" font-family="Calibri" font-size="7.5" fill="rgb(255,255,255)" text-anchor="middle">-2.0</text>
<polygon points="108.55,438.3 128.55,438.3 128.55,458.3 108.55,458.3" fill="rgb(50,50,255)"/><polygon points="108.55,438.3 128.55,438.3 128.55,458.3 108.55,458.3" fill="none" stroke="black" stroke-width="1"/><text xml:space="preserve" x="118.55" y="451.133" font-family="Calibri" font-size="7.5" fill="rgb(255,255,255)" text-anchor="middle">-1.6</text>
<polygon points="128.55,438.3 148.55,438.3 148.55,458.3 128.55,458.3" fill="rgb(102,102,255)"/><polygon points="128.55,438.3 148.55,438.3 148.55,458.3 128.55,458.3" fill="none" stroke="black" stroke-width="1"/><text xml:space="preserve" x="138.55" y="451.133" font-family="Calibri" font-size="7.5" fill="rgb(255,255,255)" text-anchor="middle">-1.2</text>
<polygon points="148.55,438.3 168.55,438.3 168.55,458.3 148.55,458.3" fill="rgb(153,153,255)"/><polygon points="148.55,438.3 168.55,438.3 168.55,458.3 148.55,458.3" fill="none" stroke="black" stroke-width="1"/><text xml:space="preserve" x="158.55" y="451.133" font-family="Calibri" font-size="7.5" fill="rgb(0,0,0)" text-anchor="middle">-0.8</text>
<polygon points="168.55,438.3 188.55,438.3 188.55,458.3 168.55,458.3" fill="rgb(204,204,255)"/><polygon points="168.55,438.3 188.55,438.3 188.55,458.3 168.55,458.3" fill="none" stroke="black" stroke-width="1"/><text xml:space="preserve" x="178.55" y="451.133" font-family="Calibri" font-size="7.5" fill="rgb(0,0,0)" text-anchor="middle">-0.4</text>
<polygon points="188.55,438.3 208.55,438.3 208.55,458.3 188.55,458.3" fill="rgb(255,255,255)"/><polygon points="188.55,438.3 208.55,438.3 208.55,458.3 188.55,458.3" fill="none" stroke="black" stroke-width="1"/><text xml:space="preserve" x="198.55" y="451.133" font-family="Calibri" font-size="7.5" fill="rgb(0,0,0)" text-anchor="middle">0.0</text>
<polygon points="208.55,438.3 228.55,438.3 228.55,458.3 208.55,458.3" fill="rgb(255,204,204)"/><polygon points="208.55,438.3 228.55,438.3 228.55,458.3 208.55,458.3" fill="none" stroke="black" stroke-width="1"/><text xml:space="preserve" x="218.55" y="451.133" font-family="Calibri" font-size="7.5" fill="rgb(0,0,0)" text-anchor="middle">0.4</text>
<polygon points="228.55,438.3 248.55,438.3 248.55,458.3 228.55,458.3" fill="rgb(255,153,153)"/><polygon points="228.55,438.3 248.55,438.3 248.55,458.3 228.55,458.3" fill="none" stroke="black" stroke-width="1"/><text xml:space="preserve" x="238.55" y="451.133" font-family="Calibri" font-size="7.5" fill="rgb(0,0,0)" text-anchor="middle">0.8</text>
<polygon points="248.55,438.3 268.55,438.3 268.55,458.3 248.55,458.3" fill="rgb(255,102,102)"/><polygon points="248.55,438.3 268.55,438.3 268.55,458.3 248.55,458.3" fill="none" stroke="black" stroke-width="1"/><text xml:space="preserve" x="258.55" y="451.133" font-family="Calibri" font-size="7.5" fill="rgb(0,0,0)" text-anchor="middle">1.2</text>
<polygon points="268.55,438.3 288.55,438.3 288.55,458.3 268.55,458.3" fill="rgb(255,50,50)"/><polygon points="268.55,438.3 288.55,438.3 288.55,458.3 268.55,458.3" fill="none" stroke="black" stroke-width="1"/><text xml:space="preserve" x="278.55" y="451.133" font-family="Calibri" font-size="7.5" fill="rgb(255,255,255)" text-anchor="middle">1.6</text>
<polygon points="288.55,438.3 308.55,438.3 308.55,458.3 288.55,458.3" fill="rgb(255,0,0)"/><polygon points="288.55,438.3 308.55,438.3 308.55,458.3 288.55,458.3" fill="none" stroke="black" stroke-width="1"/><text xml:space="preserve" x="298.55" y="451.133" font-family="Calibri" font-size="7.5" fill="rgb(255,255,255)" text-anchor="middle">2.0</text>
</svg>
