<?xml version="1.0" standalone="no"?><!DOCTYPE svg PUBLIC "-//W3C//DTD SVG 1.1//EN" "http://www.w3.org/Graphics/SVG/1.1/DTD/svg11.dtd">
<svg width="409.4" height="436.3" version="1.1" xmlns="http://www.w3.org/2000/svg">
<text xml:space="preserve" x="165.4" y="217.633" font-family="Calibri" font-size="6" text-anchor="end">4432405B04Rik</text>
<text xml:space="preserve" x="165.4" y="223.633" font-family="Calibri" font-size="6" text-anchor="end">Akr1e1</text>
<text xml:space="preserve" x="165.4" y="229.633" font-family="Calibri" font-size="6" text-anchor="end">Mrpl48</text>
<text xml:space="preserve" x="165.4" y="235.633" font-family="Calibri" font-size="6" text-anchor="end">Mterfd2</text>
<text xml:space="preserve" x="165.4" y="241.633" font-family="Calibri" font-size="6" text-anchor="end">4930430F08Rik</text>
<text xml:space="preserve" x="165.4" y="247.633" font-family="Calibri" font-size="6" text-anchor="end">Ccdc28a</text>
<text xml:space="preserve" x="165.4" y="253.633" font-family="Calibri" font-size="6" text-anchor="end">Gmds</text>
<text xml:space="preserve" x="165.4" y="259.633" font-family="Calibri" font-size="6" text-anchor="end">Hlcs</text>
<text xml:space="preserve" x="165.4" y="265.633" font-family="Calibri" font-size="6" text-anchor="end">Lrrc49</text>
<text xml:space="preserve" x="165.4" y="271.633" font-family="Calibri" font-size="6" text-anchor="end">Wdr51b</text>
<text xml:space="preserve" x="165.4" y="277.633" font-family="Calibri" font-size="6" text-anchor="end">Ttc26</text>
<text xml:space="preserve" x="165.4" y="283.633" font-family="Calibri" font-size="6" text-anchor="end">Nudt12</text>
<text xml:space="preserve" x="165.4" y="289.633" font-family="Calibri" font-size="6" text-anchor="end">Apoa1bp</text>
<text xml:space="preserve" x="165.4" y="295.633" font-family="Calibri" font-size="6" text-anchor="end">mmu-mir-125b-2</text>
<text xml:space="preserve" x="175.733" y="208.3" font-family="Calibri" font-size="6" transform="rotate(270 175.733 208.3)">ips</text>
<text xml:space="preserve" x="183.733" y="208.3" font-family="Calibri" font-size="6" transform="rotate(270 183.733 208.3)">pips</text>
<text xml:space="preserve" x="191.733" y="208.3" font-family="Calibri" font-size="6" transform="rotate(270 191.733 208.3)">mef</text>
<text xml:space="preserve" x="208.733" y="208.3" font-family="Calibri" font-size="6" transform="rotate(270 208.733 208.3)">ips_H3K4me3iPS</text>
<text xml:space="preserve" x="214.733" y="208.3" font-family="Calibri" font-size="6" transform="rotate(270 214.733 208.3)">ips_H3K9aciPS</text>
<text xml:space="preserve" x="220.733" y="208.3" font-family="Calibri" font-size="6" transform="rotate(270 220.733 208.3)">ips_H3K14aciPS</text>
<text xml:space="preserve" x="226.733" y="208.3" font-family="Calibri" font-size="6" transform="rotate(270 226.733 208.3)">ips_H3K18aciPS</text>
<text xml:space="preserve" x="232.733" y="208.3" font-family="Calibri" font-size="6" transform="rotate(270 232.733 208.3)">ips_H3K79me2iPS</text>
<text xml:space="preserve" x="238.733" y="208.3" font-family="Calibri" font-size="6" transform="rotate(270 238.733 208.3)">ips_H3K9me2iPS</text>
<text xml:space="preserve" x="244.733" y="208.3" font-family="Calibri" font-size="6" transform="rotate(270 244.733 208.3)">ips_H3K9me3iPS</text>
<text xml:space="preserve" x="250.733" y="208.3" font-family="Calibri" font-size="6" transform="rotate(270 250.733 208.3)">ips_H3K27me3iPS</text>
<text xml:space="preserve" x="266.733" y="208.3" font-family="Calibri" font-size="6" transform="rotate(270 266.733 208.3)">pips_H3K4me3pips</text>
<text xml:space="preserve" x="272.733" y="208.3" font-family="Calibri" font-size="6" transform="rotate(270 272.733 208.3)">pips_H3K9acpips</text>
<text xml:space="preserve" x="278.733" y="208.3" font-family="Calibri" font-size="6" transform="rotate(270 278.733 208.3)">pips_H3K14acpips</text>
<text xml:space="preserve" x="284.733" y="208.3" font-family="Calibri" font-size="6" transform="rotate(270 284.733 208.3)">pips_H3K18acpips</text>
<text xml:space="preserve" x="290.733" y="208.3" font-family="Calibri" font-size="6" transform="rotate(270 290.733 208.3)">pips_H3K79me2pips</text>
<text xml:space="preserve" x="296.733" y="208.3" font-family="Calibri" font-size="6" transform="rotate(270 296.733 208.3)">pips_H3K9me2pips</text>
<text xml:space="preserve" x="302.733" y="208.3" font-family="Calibri" font-size="6" transform="rotate(270 302.733 208.3)">pips_H3K9me3pips</text>
<text xml:space="preserve" x="308.733" y="208.3" font-family="Calibri" font-size="6" transform="rotate(270 308.733 208.3)">pips_H3K27me3pips</text>
<text xml:space="preserve" x="324.733" y="208.3" font-family="Calibri" font-size="6" transform="rotate(270 324.733 208.3)">mef_H3K4me3mef</text>
<text xml:space="preserve" x="330.733" y="208.3" font-family="Calibri" font-size="6" transform="rotate(270 330.733 208.3)">mef_H3K9acmef</text>
<text xml:space="preserve" x="336.733" y="208.3" font-family="Calibri" font-size="6" transform="rotate(270 336.733 208.3)">mef_H3K14acmef</text>
<text xml:space="preserve" x="342.733" y="208.3" font-family="Calibri" font-size="6" transform="rotate(270 342.733 208.3)">mef_H3K18acmef</text>
<text xml:space="preserve" x="348.733" y="208.3" font-family="Calibri" font-size="6" transform="rotate(270 348.733 208.3)">mef_H3K79me2mef</text>
<text xml:space="preserve" x="354.733" y="208.3" font-family="Calibri" font-size="6" transform="rotate(270 354.733 208.3)">mef_H3K9me2mef</text>
<text xml:space="preserve" x="360.733" y="208.3" font-family="Calibri" font-size="6" transform="rotate(270 360.733 208.3)">mef_H3K9me3mef</text>
<text xml:space="preserve" x="366.733" y="208.3" font-family="Calibri" font-size="6" transform="rotate(270 366.733 208.3)">mef_H3K27me3mef</text>
<polygon points="169.4,212.3 177.4,212.3 177.4,218.3 169.4,218.3" fill="rgb(134,198,192)"/><text xml:space="preserve" x="173.4" y="218.133" font-family="Calibri" font-size="7.5" fill="rgb(0,0,0)" text-anchor="middle">2</text>
<polygon points="177.4,212.3 185.4,212.3 185.4,218.3 177.4,218.3" fill="rgb(240,235,224)"/><text xml:space="preserve" x="181.4" y="218.133" font-family="Calibri" font-size="7.5" fill="rgb(0,0,0)" text-anchor="middle">8</text>
<polygon points="185.4,212.3 193.4,212.3 193.4,218.3 185.4,218.3" fill="rgb(240,235,224)"/><text xml:space="preserve" x="189.4" y="218.133" font-family="Calibri" font-size="7.5" fill="rgb(0,0,0)" text-anchor="middle">8</text>
<polygon points="203.4,212.3 209.4,212.3 209.4,218.3 203.4,218.3" fill="rgb(255,241,241)"/>
<polygon points="209.4,212.3 215.4,212.3 215.4,218.3 209.4,218.3" fill="rgb(235,235,255)"/>
<polygon points="215.4,212.3 221.4,212.3 221.4,218.3 215.4,218.3" fill="rgb(148,148,255)"/>
<polygon points="221.4,212.3 227.4,212.3 227.4,218.3 221.4,218.3" fill="rgb(132,132,255)"/>
<polygon points="227.4,212.3 233.4,212.3 233.4,218.3 227.4,218.3" fill="rgb(209,209,255)"/>
<polygon points="233.4,212.3 239.4,212.3 239.4,218.3 233.4,218.3" fill="rgb(132,132,255)"/>
<polygon points="239.4,212.3 245.4,212.3 245.4,218.3 239.4,218.3" fill="rgb(105,105,255)"/>
<polygon points="245.4,212.3 251.4,212.3 251.4,218.3 245.4,218.3" fill="rgb(134,134,255)"/>
<polygon points="261.4,212.3 267.4,212.3 267.4,218.3 261.4,218.3" fill="rgb(255,219,219)"/>
<polygon points="267.4,212.3 273.4,212.3 273.4,218.3 267.4,218.3" fill="rgb(255,237,237)"/>
<polygon points="273.4,212.3 279.4,212.3 279.4,218.3 273.4,218.3" fill="rgb(179,179,255)"/>
<polygon points="279.4,212.3 285.4,212.3 285.4,218.3 279.4,218.3" fill="rgb(170,170,255)"/>
<polygon points="285.4,212.3 291.4,212.3 291.4,218.3 285.4,218.3" fill="rgb(218,218,255)"/>
<polygon points="291.4,212.3 297.4,212.3 297.4,218.3 291.4,218.3" fill="rgb(129,129,255)"/>
<polygon points="297.4,212.3 303.4,212.3 303.4,218.3 297.4,218.3" fill="rgb(157,157,255)"/>
<polygon points="303.4,212.3 309.4,212.3 309.4,218.3 303.4,218.3" fill="rgb(194,194,255)"/>
<polygon points="319.4,212.3 325.4,212.3 325.4,218.3 319.4,218.3" fill="rgb(255,214,214)"/>
<polygon points="325.4,212.3 331.4,212.3 331.4,218.3 325.4,218.3" fill="rgb(255,200,200)"/>
<polygon points="331.4,212.3 337.4,212.3 337.4,218.3 331.4,218.3" fill="rgb(66,66,255)"/>
<polygon points="337.4,212.3 343.4,212.3 343.4,218.3 337.4,218.3" fill="rgb(198,198,255)"/>
<polygon points="343.4,212.3 349.4,212.3 349.4,218.3 343.4,218.3" fill="rgb(221,221,255)"/>
<polygon points="349.4,212.3 355.4,212.3 355.4,218.3 349.4,218.3" fill="rgb(128,128,255)"/>
<polygon points="355.4,212.3 361.4,212.3 361.4,218.3 355.4,218.3" fill="rgb(132,132,255)"/>
<polygon points="361.4,212.3 367.4,212.3 367.4,218.3 361.4,218.3" fill="rgb(164,164,255)"/>
<polygon points="169.4,218.3 177.4,218.3 177.4,224.3 169.4,224.3" fill="rgb(134,198,192)"/><text xml:space="preserve" x="173.4" y="224.133" font-family="Calibri" font-size="7.5" fill="rgb(0,0,0)" text-anchor="middle">2</text>
<polygon points="177.4,218.3 185.4,218.3 185.4,224.3 177.4,224.3" fill="rgb(240,235,224)"/><text xml:space="preserve" x="181.4" y="224.133" font-family="Calibri" font-size="7.5" fill="rgb(0,0,0)" text-anchor="middle">8</text>
<polygon points="185.4,218.3 193.4,218.3 193.4,224.3 185.4,224.3" fill="rgb(240,235,224)"/><text xml:space="preserve" x="189.4" y="224.133" font-family="Calibri" font-size="7.5" fill="rgb(0,0,0)" text-anchor="middle">8</text>
<polygon points="203.4,218.3 209.4,218.3 209.4,224.3 203.4,224.3" fill="rgb(229,229,255)"/>
<polygon points="209.4,218.3 215.4,218.3 215.4,224.3 209.4,224.3" fill="rgb(188,188,255)"/>
<polygon points="215.4,218.3 221.4,218.3 221.4,224.3 215.4,224.3" fill="rgb(167,167,255)"/>
<polygon points="221.4,218.3 227.4,218.3 227.4,224.3 221.4,224.3" fill="rgb(201,201,255)"/>
<polygon points="227.4,218.3 233.4,218.3 233.4,224.3 227.4,224.3" fill="rgb(232,232,255)"/>
<polygon points="233.4,218.3 239.4,218.3 239.4,224.3 233.4,224.3" fill="rgb(255,212,212)"/>
<polygon points="239.4,218.3 245.4,218.3 245.4,224.3 239.4,224.3" fill="rgb(236,236,255)"/>
<polygon points="245.4,218.3 251.4,218.3 251.4,224.3 245.4,224.3" fill="rgb(141,141,255)"/>
<polygon points="261.4,218.3 267.4,218.3 267.4,224.3 261.4,224.3" fill="rgb(255,231,231)"/>
<polygon points="267.4,218.3 273.4,218.3 273.4,224.3 267.4,224.3" fill="rgb(255,226,226)"/>
<polygon points="273.4,218.3 279.4,218.3 279.4,224.3 273.4,224.3" fill="rgb(255,245,245)"/>
<polygon points="279.4,218.3 285.4,218.3 285.4,224.3 279.4,224.3" fill="rgb(228,228,255)"/>
<polygon points="285.4,218.3 291.4,218.3 291.4,224.3 285.4,224.3" fill="rgb(255,204,204)"/>
<polygon points="291.4,218.3 297.4,218.3 297.4,224.3 291.4,224.3" fill="rgb(243,243,255)"/>
<polygon points="297.4,218.3 303.4,218.3 303.4,224.3 297.4,224.3" fill="rgb(186,186,255)"/>
<polygon points="303.4,218.3 309.4,218.3 309.4,224.3 303.4,224.3" fill="rgb(175,175,255)"/>
<polygon points="319.4,218.3 325.4,218.3 325.4,224.3 319.4,224.3" fill="rgb(255,229,229)"/>
<polygon points="325.4,218.3 331.4,218.3 331.4,224.3 325.4,224.3" fill="rgb(239,239,255)"/>
<polygon points="331.4,218.3 337.4,218.3 337.4,224.3 331.4,224.3" fill="rgb(176,176,255)"/>
<polygon points="337.4,218.3 343.4,218.3 343.4,224.3 337.4,224.3" fill="rgb(204,204,255)"/>
<polygon points="343.4,218.3 349.4,218.3 349.4,224.3 343.4,224.3" fill="rgb(255,232,232)"/>
<polygon points="349.4,218.3 355.4,218.3 355.4,224.3 349.4,224.3" fill="rgb(255,216,216)"/>
<polygon points="355.4,218.3 361.4,218.3 361.4,224.3 355.4,224.3" fill="rgb(228,228,255)"/>
<polygon points="361.4,218.3 367.4,218.3 367.4,224.3 361.4,224.3" fill="rgb(151,151,255)"/>
<polygon points="169.4,224.3 177.4,224.3 177.4,230.3 169.4,230.3" fill="rgb(134,198,192)"/><text xml:space="preserve" x="173.4" y="230.133" font-family="Calibri" font-size="7.5" fill="rgb(0,0,0)" text-anchor="middle">2</text>
<polygon points="177.4,224.3 185.4,224.3 185.4,230.3 177.4,230.3" fill="rgb(240,235,224)"/><text xml:space="preserve" x="181.4" y="230.133" font-family="Calibri" font-size="7.5" fill="rgb(0,0,0)" text-anchor="middle">8</text>
<polygon points="185.4,224.3 193.4,224.3 193.4,230.3 185.4,230.3" fill="rgb(240,235,224)"/><text xml:space="preserve" x="189.4" y="230.133" font-family="Calibri" font-size="7.5" fill="rgb(0,0,0)" text-anchor="middle">8</text>
<polygon points="203.4,224.3 209.4,224.3 209.4,230.3 203.4,230.3" fill="rgb(234,234,255)"/>
<polygon points="209.4,224.3 215.4,224.3 215.4,230.3 209.4,230.3" fill="rgb(255,240,240)"/>
<polygon points="215.4,224.3 221.4,224.3 221.4,230.3 215.4,230.3" fill="rgb(126,126,255)"/>
<polygon points="221.4,224.3 227.4,224.3 227.4,230.3 221.4,230.3" fill="rgb(130,130,255)"/>
<polygon points="227.4,224.3 233.4,224.3 233.4,230.3 227.4,230.3" fill="rgb(243,243,255)"/>
<polygon points="233.4,224.3 239.4,224.3 239.4,230.3 233.4,230.3" fill="rgb(71,71,255)"/>
<polygon points="239.4,224.3 245.4,224.3 245.4,230.3 239.4,230.3" fill="rgb(163,163,255)"/>
<polygon points="245.4,224.3 251.4,224.3 251.4,230.3 245.4,230.3" fill="rgb(164,164,255)"/>
<polygon points="261.4,224.3 267.4,224.3 267.4,230.3 261.4,230.3" fill="rgb(254,245,245)"/>
<polygon points="267.4,224.3 273.4,224.3 273.4,230.3 267.4,230.3" fill="rgb(255,246,246)"/>
<polygon points="273.4,224.3 279.4,224.3 279.4,230.3 273.4,230.3" fill="rgb(211,211,255)"/>
<polygon points="279.4,224.3 285.4,224.3 285.4,230.3 279.4,230.3" fill="rgb(201,201,255)"/>
<polygon points="285.4,224.3 291.4,224.3 291.4,230.3 285.4,230.3" fill="rgb(255,221,221)"/>
<polygon points="291.4,224.3 297.4,224.3 297.4,230.3 291.4,230.3" fill="rgb(255,234,234)"/>
<polygon points="297.4,224.3 303.4,224.3 303.4,230.3 297.4,230.3" fill="rgb(198,198,255)"/>
<polygon points="303.4,224.3 309.4,224.3 309.4,230.3 303.4,230.3" fill="rgb(228,228,255)"/>
<polygon points="319.4,224.3 325.4,224.3 325.4,230.3 319.4,230.3" fill="rgb(255,206,206)"/>
<polygon points="325.4,224.3 331.4,224.3 331.4,230.3 325.4,230.3" fill="rgb(255,234,234)"/>
<polygon points="331.4,224.3 337.4,224.3 337.4,230.3 331.4,230.3" fill="rgb(145,145,255)"/>
<polygon points="337.4,224.3 343.4,224.3 343.4,230.3 337.4,230.3" fill="rgb(210,210,255)"/>
<polygon points="343.4,224.3 349.4,224.3 349.4,230.3 343.4,230.3" fill="rgb(255,237,237)"/>
<polygon points="349.4,224.3 355.4,224.3 355.4,230.3 349.4,230.3" fill="rgb(255,179,179)"/>
<polygon points="355.4,224.3 361.4,224.3 361.4,230.3 355.4,230.3" fill="rgb(230,230,255)"/>
<polygon points="361.4,224.3 367.4,224.3 367.4,230.3 361.4,230.3" fill="rgb(212,212,255)"/>
<polygon points="169.4,230.3 177.4,230.3 177.4,236.3 169.4,236.3" fill="rgb(134,198,192)"/><text xml:space="preserve" x="173.4" y="236.133" font-family="Calibri" font-size="7.5" fill="rgb(0,0,0)" text-anchor="middle">2</text>
<polygon points="177.4,230.3 185.4,230.3 185.4,236.3 177.4,236.3" fill="rgb(240,235,224)"/><text xml:space="preserve" x="181.4" y="236.133" font-family="Calibri" font-size="7.5" fill="rgb(0,0,0)" text-anchor="middle">8</text>
<polygon points="185.4,230.3 193.4,230.3 193.4,236.3 185.4,236.3" fill="rgb(240,235,224)"/><text xml:space="preserve" x="189.4" y="236.133" font-family="Calibri" font-size="7.5" fill="rgb(0,0,0)" text-anchor="middle">8</text>
<polygon points="203.4,230.3 209.4,230.3 209.4,236.3 203.4,236.3" fill="rgb(255,222,222)"/>
<polygon points="209.4,230.3 215.4,230.3 215.4,236.3 209.4,236.3" fill="rgb(255,240,240)"/>
<polygon points="215.4,230.3 221.4,230.3 221.4,236.3 215.4,236.3" fill="rgb(150,150,255)"/>
<polygon points="221.4,230.3 227.4,230.3 227.4,236.3 221.4,236.3" fill="rgb(122,122,255)"/>
<polygon points="227.4,230.3 233.4,230.3 233.4,236.3 227.4,236.3" fill="rgb(255,228,228)"/>
<polygon points="233.4,230.3 239.4,230.3 239.4,236.3 233.4,236.3" fill="rgb(134,134,255)"/>
<polygon points="239.4,230.3 245.4,230.3 245.4,236.3 239.4,236.3" fill="rgb(120,120,255)"/>
<polygon points="245.4,230.3 251.4,230.3 251.4,236.3 245.4,236.3" fill="rgb(100,100,255)"/>
<polygon points="261.4,230.3 267.4,230.3 267.4,236.3 261.4,236.3" fill="rgb(255,229,229)"/>
<polygon points="267.4,230.3 273.4,230.3 273.4,236.3 267.4,236.3" fill="rgb(255,207,207)"/>
<polygon points="273.4,230.3 279.4,230.3 279.4,236.3 273.4,236.3" fill="rgb(159,159,255)"/>
<polygon points="279.4,230.3 285.4,230.3 285.4,236.3 279.4,236.3" fill="rgb(152,152,255)"/>
<polygon points="285.4,230.3 291.4,230.3 291.4,236.3 285.4,236.3" fill="rgb(255,232,232)"/>
<polygon points="291.4,230.3 297.4,230.3 297.4,236.3 291.4,236.3" fill="rgb(156,156,255)"/>
<polygon points="297.4,230.3 303.4,230.3 303.4,236.3 297.4,236.3" fill="rgb(154,154,255)"/>
<polygon points="303.4,230.3 309.4,230.3 309.4,236.3 303.4,236.3" fill="rgb(154,154,255)"/>
<polygon points="319.4,230.3 325.4,230.3 325.4,236.3 319.4,236.3" fill="rgb(255,214,214)"/>
<polygon points="325.4,230.3 331.4,230.3 331.4,236.3 325.4,236.3" fill="rgb(255,200,200)"/>
<polygon points="331.4,230.3 337.4,230.3 337.4,236.3 331.4,236.3" fill="rgb(113,113,255)"/>
<polygon points="337.4,230.3 343.4,230.3 343.4,236.3 337.4,236.3" fill="rgb(170,170,255)"/>
<polygon points="343.4,230.3 349.4,230.3 349.4,236.3 343.4,236.3" fill="rgb(255,209,209)"/>
<polygon points="349.4,230.3 355.4,230.3 355.4,236.3 349.4,236.3" fill="rgb(210,210,255)"/>
<polygon points="355.4,230.3 361.4,230.3 361.4,236.3 355.4,236.3" fill="rgb(136,136,255)"/>
<polygon points="361.4,230.3 367.4,230.3 367.4,236.3 361.4,236.3" fill="rgb(117,117,255)"/>
<polygon points="169.4,236.3 177.4,236.3 177.4,242.3 169.4,242.3" fill="rgb(134,198,192)"/><text xml:space="preserve" x="173.4" y="242.133" font-family="Calibri" font-size="7.5" fill="rgb(0,0,0)" text-anchor="middle">2</text>
<polygon points="177.4,236.3 185.4,236.3 185.4,242.3 177.4,242.3" fill="rgb(240,235,224)"/><text xml:space="preserve" x="181.4" y="242.133" font-family="Calibri" font-size="7.5" fill="rgb(0,0,0)" text-anchor="middle">8</text>
<polygon points="185.4,236.3 193.4,236.3 193.4,242.3 185.4,242.3" fill="rgb(240,235,224)"/><text xml:space="preserve" x="189.4" y="242.133" font-family="Calibri" font-size="7.5" fill="rgb(0,0,0)" text-anchor="middle">8</text>
<polygon points="203.4,236.3 209.4,236.3 209.4,242.3 203.4,242.3" fill="rgb(255,238,238)"/>
<polygon points="209.4,236.3 215.4,236.3 215.4,242.3 209.4,242.3" fill="rgb(222,222,255)"/>
<polygon points="215.4,236.3 221.4,236.3 221.4,242.3 215.4,242.3" fill="rgb(144,144,255)"/>
<polygon points="221.4,236.3 227.4,236.3 227.4,242.3 221.4,242.3" fill="rgb(190,190,255)"/>
<polygon points="227.4,236.3 233.4,236.3 233.4,242.3 227.4,242.3" fill="rgb(244,244,255)"/>
<polygon points="233.4,236.3 239.4,236.3 239.4,242.3 233.4,242.3" fill="rgb(255,194,194)"/>
<polygon points="239.4,236.3 245.4,236.3 245.4,242.3 239.4,242.3" fill="rgb(255,66,66)"/>
<polygon points="245.4,236.3 251.4,236.3 251.4,242.3 245.4,242.3" fill="rgb(230,230,255)"/>
<polygon points="261.4,236.3 267.4,236.3 267.4,242.3 261.4,242.3" fill="rgb(255,206,206)"/>
<polygon points="267.4,236.3 273.4,236.3 273.4,242.3 267.4,242.3" fill="rgb(255,244,244)"/>
<polygon points="273.4,236.3 279.4,236.3 279.4,242.3 273.4,242.3" fill="rgb(188,188,255)"/>
<polygon points="279.4,236.3 285.4,236.3 285.4,242.3 279.4,242.3" fill="rgb(206,206,255)"/>
<polygon points="285.4,236.3 291.4,236.3 291.4,242.3 285.4,242.3" fill="rgb(254,254,254)"/>
<polygon points="291.4,236.3 297.4,236.3 297.4,242.3 291.4,242.3" fill="rgb(255,212,212)"/>
<polygon points="297.4,236.3 303.4,236.3 303.4,242.3 297.4,242.3" fill="rgb(236,236,255)"/>
<polygon points="303.4,236.3 309.4,236.3 309.4,242.3 303.4,242.3" fill="rgb(205,205,255)"/>
<polygon points="319.4,236.3 325.4,236.3 325.4,242.3 319.4,242.3" fill="rgb(255,233,233)"/>
<polygon points="325.4,236.3 331.4,236.3 331.4,242.3 325.4,242.3" fill="rgb(254,248,248)"/>
<polygon points="331.4,236.3 337.4,236.3 337.4,242.3 331.4,242.3" fill="rgb(207,207,255)"/>
<polygon points="337.4,236.3 343.4,236.3 343.4,242.3 337.4,242.3" fill="rgb(191,191,255)"/>
<polygon points="343.4,236.3 349.4,236.3 349.4,242.3 343.4,242.3" fill="rgb(229,229,255)"/>
<polygon points="349.4,236.3 355.4,236.3 355.4,242.3 349.4,242.3" fill="rgb(255,176,176)"/>
<polygon points="355.4,236.3 361.4,236.3 361.4,242.3 355.4,242.3" fill="rgb(244,244,255)"/>
<polygon points="361.4,236.3 367.4,236.3 367.4,242.3 361.4,242.3" fill="rgb(225,225,255)"/>
<polygon points="169.4,242.3 177.4,242.3 177.4,248.3 169.4,248.3" fill="rgb(134,198,192)"/><text xml:space="preserve" x="173.4" y="248.133" font-family="Calibri" font-size="7.5" fill="rgb(0,0,0)" text-anchor="middle">2</text>
<polygon points="177.4,242.3 185.4,242.3 185.4,248.3 177.4,248.3" fill="rgb(240,235,224)"/><text xml:space="preserve" x="181.4" y="248.133" font-family="Calibri" font-size="7.5" fill="rgb(0,0,0)" text-anchor="middle">8</text>
<polygon points="185.4,242.3 193.4,242.3 193.4,248.3 185.4,248.3" fill="rgb(240,235,224)"/><text xml:space="preserve" x="189.4" y="248.133" font-family="Calibri" font-size="7.5" fill="rgb(0,0,0)" text-anchor="middle">8</text>
<polygon points="203.4,242.3 209.4,242.3 209.4,248.3 203.4,248.3" fill="rgb(255,126,126)"/>
<polygon points="209.4,242.3 215.4,242.3 215.4,248.3 209.4,248.3" fill="rgb(251,251,255)"/>
<polygon points="215.4,242.3 221.4,242.3 221.4,248.3 215.4,248.3" fill="rgb(161,161,255)"/>
<polygon points="221.4,242.3 227.4,242.3 227.4,248.3 221.4,248.3" fill="rgb(125,125,255)"/>
<polygon points="227.4,242.3 233.4,242.3 233.4,248.3 227.4,248.3" fill="rgb(220,220,255)"/>
<polygon points="233.4,242.3 239.4,242.3 239.4,248.3 233.4,248.3" fill="rgb(255,237,237)"/>
<polygon points="239.4,242.3 245.4,242.3 245.4,248.3 239.4,248.3" fill="rgb(255,0,0)"/>
<polygon points="245.4,242.3 251.4,242.3 251.4,248.3 245.4,248.3" fill="rgb(150,150,255)"/>
<polygon points="261.4,242.3 267.4,242.3 267.4,248.3 261.4,248.3" fill="rgb(255,207,207)"/>
<polygon points="267.4,242.3 273.4,242.3 273.4,248.3 267.4,248.3" fill="rgb(255,196,196)"/>
<polygon points="273.4,242.3 279.4,242.3 279.4,248.3 273.4,248.3" fill="rgb(223,223,255)"/>
<polygon points="279.4,242.3 285.4,242.3 285.4,248.3 279.4,248.3" fill="rgb(255,251,251)"/>
<polygon points="285.4,242.3 291.4,242.3 291.4,248.3 285.4,248.3" fill="rgb(255,245,245)"/>
<polygon points="291.4,242.3 297.4,242.3 297.4,248.3 291.4,248.3" fill="rgb(210,210,255)"/>
<polygon points="297.4,242.3 303.4,242.3 303.4,248.3 297.4,248.3" fill="rgb(237,237,255)"/>
<polygon points="303.4,242.3 309.4,242.3 309.4,248.3 303.4,248.3" fill="rgb(135,135,255)"/>
<polygon points="319.4,242.3 325.4,242.3 325.4,248.3 319.4,248.3" fill="rgb(255,143,143)"/>
<polygon points="325.4,242.3 331.4,242.3 331.4,248.3 325.4,248.3" fill="rgb(255,210,210)"/>
<polygon points="331.4,242.3 337.4,242.3 337.4,248.3 331.4,248.3" fill="rgb(127,127,255)"/>
<polygon points="337.4,242.3 343.4,242.3 343.4,248.3 337.4,248.3" fill="rgb(236,236,255)"/>
<polygon points="343.4,242.3 349.4,242.3 349.4,248.3 343.4,248.3" fill="rgb(225,225,255)"/>
<polygon points="349.4,242.3 355.4,242.3 355.4,248.3 349.4,248.3" fill="rgb(214,214,255)"/>
<polygon points="355.4,242.3 361.4,242.3 361.4,248.3 355.4,248.3" fill="rgb(144,144,255)"/>
<polygon points="361.4,242.3 367.4,242.3 367.4,248.3 361.4,248.3" fill="rgb(181,181,255)"/>
<polygon points="169.4,248.3 177.4,248.3 177.4,254.3 169.4,254.3" fill="rgb(134,198,192)"/><text xml:space="preserve" x="173.4" y="254.133" font-family="Calibri" font-size="7.5" fill="rgb(0,0,0)" text-anchor="middle">2</text>
<polygon points="177.4,248.3 185.4,248.3 185.4,254.3 177.4,254.3" fill="rgb(240,235,224)"/><text xml:space="preserve" x="181.4" y="254.133" font-family="Calibri" font-size="7.5" fill="rgb(0,0,0)" text-anchor="middle">8</text>
<polygon points="185.4,248.3 193.4,248.3 193.4,254.3 185.4,254.3" fill="rgb(240,235,224)"/><text xml:space="preserve" x="189.4" y="254.133" font-family="Calibri" font-size="7.5" fill="rgb(0,0,0)" text-anchor="middle">8</text>
<polygon points="203.4,248.3 209.4,248.3 209.4,254.3 203.4,254.3" fill="rgb(255,235,235)"/>
<polygon points="209.4,248.3 215.4,248.3 215.4,254.3 209.4,254.3" fill="rgb(193,193,255)"/>
<polygon points="215.4,248.3 221.4,248.3 221.4,254.3 215.4,254.3" fill="rgb(159,159,255)"/>
<polygon points="221.4,248.3 227.4,248.3 227.4,254.3 221.4,254.3" fill="rgb(190,190,255)"/>
<polygon points="227.4,248.3 233.4,248.3 233.4,254.3 227.4,254.3" fill="rgb(212,212,255)"/>
<polygon points="233.4,248.3 239.4,248.3 239.4,254.3 233.4,254.3" fill="rgb(255,241,241)"/>
<polygon points="239.4,248.3 245.4,248.3 245.4,254.3 239.4,254.3" fill="rgb(255,195,195)"/>
<polygon points="245.4,248.3 251.4,248.3 251.4,254.3 245.4,254.3" fill="rgb(245,245,255)"/>
<polygon points="261.4,248.3 267.4,248.3 267.4,254.3 261.4,254.3" fill="rgb(248,248,255)"/>
<polygon points="267.4,248.3 273.4,248.3 273.4,254.3 267.4,254.3" fill="rgb(255,241,241)"/>
<polygon points="273.4,248.3 279.4,248.3 279.4,254.3 273.4,254.3" fill="rgb(248,248,255)"/>
<polygon points="279.4,248.3 285.4,248.3 285.4,254.3 279.4,254.3" fill="rgb(198,198,255)"/>
<polygon points="285.4,248.3 291.4,248.3 291.4,254.3 285.4,254.3" fill="rgb(255,245,245)"/>
<polygon points="291.4,248.3 297.4,248.3 297.4,254.3 291.4,254.3" fill="rgb(219,219,255)"/>
<polygon points="297.4,248.3 303.4,248.3 303.4,254.3 297.4,254.3" fill="rgb(244,244,255)"/>
<polygon points="303.4,248.3 309.4,248.3 309.4,254.3 303.4,254.3" fill="rgb(226,226,255)"/>
<polygon points="319.4,248.3 325.4,248.3 325.4,254.3 319.4,254.3" fill="rgb(255,182,182)"/>
<polygon points="325.4,248.3 331.4,248.3 331.4,254.3 325.4,254.3" fill="rgb(255,249,249)"/>
<polygon points="331.4,248.3 337.4,248.3 337.4,254.3 331.4,254.3" fill="rgb(254,209,209)"/>
<polygon points="337.4,248.3 343.4,248.3 343.4,254.3 337.4,254.3" fill="rgb(254,236,236)"/>
<polygon points="343.4,248.3 349.4,248.3 349.4,254.3 343.4,254.3" fill="rgb(255,223,223)"/>
<polygon points="349.4,248.3 355.4,248.3 355.4,254.3 349.4,254.3" fill="rgb(255,211,211)"/>
<polygon points="355.4,248.3 361.4,248.3 361.4,254.3 355.4,254.3" fill="rgb(254,254,255)"/>
<polygon points="361.4,248.3 367.4,248.3 367.4,254.3 361.4,254.3" fill="rgb(216,216,255)"/>
<polygon points="169.4,254.3 177.4,254.3 177.4,260.3 169.4,260.3" fill="rgb(134,198,192)"/><text xml:space="preserve" x="173.4" y="260.133" font-family="Calibri" font-size="7.5" fill="rgb(0,0,0)" text-anchor="middle">2</text>
<polygon points="177.4,254.3 185.4,254.3 185.4,260.3 177.4,260.3" fill="rgb(240,235,224)"/><text xml:space="preserve" x="181.4" y="260.133" font-family="Calibri" font-size="7.5" fill="rgb(0,0,0)" text-anchor="middle">8</text>
<polygon points="185.4,254.3 193.4,254.3 193.4,260.3 185.4,260.3" fill="rgb(240,235,224)"/><text xml:space="preserve" x="189.4" y="260.133" font-family="Calibri" font-size="7.5" fill="rgb(0,0,0)" text-anchor="middle">8</text>
<polygon points="203.4,254.3 209.4,254.3 209.4,260.3 203.4,260.3" fill="rgb(233,233,255)"/>
<polygon points="209.4,254.3 215.4,254.3 215.4,260.3 209.4,260.3" fill="rgb(239,239,255)"/>
<polygon points="215.4,254.3 221.4,254.3 221.4,260.3 215.4,260.3" fill="rgb(255,187,187)"/>
<polygon points="221.4,254.3 227.4,254.3 227.4,260.3 221.4,260.3" fill="rgb(191,191,255)"/>
<polygon points="227.4,254.3 233.4,254.3 233.4,260.3 227.4,260.3" fill="rgb(227,227,255)"/>
<polygon points="233.4,254.3 239.4,254.3 239.4,260.3 233.4,260.3" fill="rgb(255,251,251)"/>
<polygon points="239.4,254.3 245.4,254.3 245.4,260.3 239.4,260.3" fill="rgb(255,101,101)"/>
<polygon points="245.4,254.3 251.4,254.3 251.4,260.3 245.4,260.3" fill="rgb(147,147,255)"/>
<polygon points="261.4,254.3 267.4,254.3 267.4,260.3 261.4,260.3" fill="rgb(247,247,255)"/>
<polygon points="267.4,254.3 273.4,254.3 273.4,260.3 267.4,260.3" fill="rgb(255,248,248)"/>
<polygon points="273.4,254.3 279.4,254.3 279.4,260.3 273.4,260.3" fill="rgb(255,241,241)"/>
<polygon points="279.4,254.3 285.4,254.3 285.4,260.3 279.4,260.3" fill="rgb(255,219,219)"/>
<polygon points="285.4,254.3 291.4,254.3 291.4,260.3 285.4,260.3" fill="rgb(255,226,226)"/>
<polygon points="291.4,254.3 297.4,254.3 297.4,260.3 291.4,260.3" fill="rgb(228,228,255)"/>
<polygon points="297.4,254.3 303.4,254.3 303.4,260.3 297.4,260.3" fill="rgb(254,253,253)"/>
<polygon points="303.4,254.3 309.4,254.3 309.4,260.3 303.4,260.3" fill="rgb(220,220,255)"/>
<polygon points="319.4,254.3 325.4,254.3 325.4,260.3 319.4,260.3" fill="rgb(255,254,254)"/>
<polygon points="325.4,254.3 331.4,254.3 331.4,260.3 325.4,260.3" fill="rgb(227,227,255)"/>
<polygon points="331.4,254.3 337.4,254.3 337.4,260.3 331.4,260.3" fill="rgb(225,225,255)"/>
<polygon points="337.4,254.3 343.4,254.3 343.4,260.3 337.4,260.3" fill="rgb(188,188,255)"/>
<polygon points="343.4,254.3 349.4,254.3 349.4,260.3 343.4,260.3" fill="rgb(196,196,255)"/>
<polygon points="349.4,254.3 355.4,254.3 355.4,260.3 349.4,260.3" fill="rgb(243,243,255)"/>
<polygon points="355.4,254.3 361.4,254.3 361.4,260.3 355.4,260.3" fill="rgb(223,223,255)"/>
<polygon points="361.4,254.3 367.4,254.3 367.4,260.3 361.4,260.3" fill="rgb(166,166,255)"/>
<polygon points="169.4,260.3 177.4,260.3 177.4,266.3 169.4,266.3" fill="rgb(134,198,192)"/><text xml:space="preserve" x="173.4" y="266.133" font-family="Calibri" font-size="7.5" fill="rgb(0,0,0)" text-anchor="middle">2</text>
<polygon points="177.4,260.3 185.4,260.3 185.4,266.3 177.4,266.3" fill="rgb(240,235,224)"/><text xml:space="preserve" x="181.4" y="266.133" font-family="Calibri" font-size="7.5" fill="rgb(0,0,0)" text-anchor="middle">8</text>
<polygon points="185.4,260.3 193.4,260.3 193.4,266.3 185.4,266.3" fill="rgb(240,235,224)"/><text xml:space="preserve" x="189.4" y="266.133" font-family="Calibri" font-size="7.5" fill="rgb(0,0,0)" text-anchor="middle">8</text>
<polygon points="203.4,260.3 209.4,260.3 209.4,266.3 203.4,266.3" fill="rgb(236,236,255)"/>
<polygon points="209.4,260.3 215.4,260.3 215.4,266.3 209.4,266.3" fill="rgb(203,203,255)"/>
<polygon points="215.4,260.3 221.4,260.3 221.4,266.3 215.4,266.3" fill="rgb(132,132,255)"/>
<polygon points="221.4,260.3 227.4,260.3 227.4,266.3 221.4,266.3" fill="rgb(133,133,255)"/>
<polygon points="227.4,260.3 233.4,260.3 233.4,266.3 227.4,266.3" fill="rgb(205,205,255)"/>
<polygon points="233.4,260.3 239.4,260.3 239.4,266.3 233.4,266.3" fill="rgb(208,208,255)"/>
<polygon points="239.4,260.3 245.4,260.3 245.4,266.3 239.4,266.3" fill="rgb(188,188,255)"/>
<polygon points="245.4,260.3 251.4,260.3 251.4,266.3 245.4,266.3" fill="rgb(178,178,255)"/>
<polygon points="261.4,260.3 267.4,260.3 267.4,266.3 261.4,266.3" fill="rgb(255,236,236)"/>
<polygon points="267.4,260.3 273.4,260.3 273.4,266.3 267.4,266.3" fill="rgb(243,243,255)"/>
<polygon points="273.4,260.3 279.4,260.3 279.4,266.3 273.4,266.3" fill="rgb(191,191,255)"/>
<polygon points="279.4,260.3 285.4,260.3 285.4,266.3 279.4,266.3" fill="rgb(255,222,222)"/>
<polygon points="285.4,260.3 291.4,260.3 291.4,266.3 285.4,266.3" fill="rgb(241,241,255)"/>
<polygon points="291.4,260.3 297.4,260.3 297.4,266.3 291.4,266.3" fill="rgb(222,222,255)"/>
<polygon points="297.4,260.3 303.4,260.3 303.4,266.3 297.4,266.3" fill="rgb(207,207,255)"/>
<polygon points="303.4,260.3 309.4,260.3 309.4,266.3 303.4,266.3" fill="rgb(156,156,255)"/>
<polygon points="319.4,260.3 325.4,260.3 325.4,266.3 319.4,266.3" fill="rgb(255,200,200)"/>
<polygon points="325.4,260.3 331.4,260.3 331.4,266.3 325.4,266.3" fill="rgb(255,253,253)"/>
<polygon points="331.4,260.3 337.4,260.3 337.4,266.3 331.4,266.3" fill="rgb(221,221,255)"/>
<polygon points="337.4,260.3 343.4,260.3 343.4,266.3 337.4,266.3" fill="rgb(255,237,237)"/>
<polygon points="343.4,260.3 349.4,260.3 349.4,266.3 343.4,266.3" fill="rgb(255,249,249)"/>
<polygon points="349.4,260.3 355.4,260.3 355.4,266.3 349.4,266.3" fill="rgb(240,240,255)"/>
<polygon points="355.4,260.3 361.4,260.3 361.4,266.3 355.4,266.3" fill="rgb(210,210,255)"/>
<polygon points="361.4,260.3 367.4,260.3 367.4,266.3 361.4,266.3" fill="rgb(162,162,255)"/>
<polygon points="169.4,266.3 177.4,266.3 177.4,272.3 169.4,272.3" fill="rgb(134,198,192)"/><text xml:space="preserve" x="173.4" y="272.133" font-family="Calibri" font-size="7.5" fill="rgb(0,0,0)" text-anchor="middle">2</text>
<polygon points="177.4,266.3 185.4,266.3 185.4,272.3 177.4,272.3" fill="rgb(240,235,224)"/><text xml:space="preserve" x="181.4" y="272.133" font-family="Calibri" font-size="7.5" fill="rgb(0,0,0)" text-anchor="middle">8</text>
<polygon points="185.4,266.3 193.4,266.3 193.4,272.3 185.4,272.3" fill="rgb(240,235,224)"/><text xml:space="preserve" x="189.4" y="272.133" font-family="Calibri" font-size="7.5" fill="rgb(0,0,0)" text-anchor="middle">8</text>
<polygon points="203.4,266.3 209.4,266.3 209.4,272.3 203.4,272.3" fill="rgb(254,145,145)"/>
<polygon points="209.4,266.3 215.4,266.3 215.4,272.3 209.4,272.3" fill="rgb(218,218,255)"/>
<polygon points="215.4,266.3 221.4,266.3 221.4,272.3 215.4,272.3" fill="rgb(183,183,255)"/>
<polygon points="221.4,266.3 227.4,266.3 227.4,272.3 221.4,272.3" fill="rgb(196,196,255)"/>
<polygon points="227.4,266.3 233.4,266.3 233.4,272.3 227.4,272.3" fill="rgb(217,217,255)"/>
<polygon points="233.4,266.3 239.4,266.3 239.4,272.3 233.4,272.3" fill="rgb(255,188,188)"/>
<polygon points="239.4,266.3 245.4,266.3 245.4,272.3 239.4,272.3" fill="rgb(255,0,0)"/>
<polygon points="245.4,266.3 251.4,266.3 251.4,272.3 245.4,272.3" fill="rgb(255,229,229)"/>
<polygon points="261.4,266.3 267.4,266.3 267.4,272.3 261.4,272.3" fill="rgb(255,219,219)"/>
<polygon points="267.4,266.3 273.4,266.3 273.4,272.3 267.4,272.3" fill="rgb(254,253,253)"/>
<polygon points="273.4,266.3 279.4,266.3 279.4,272.3 273.4,272.3" fill="rgb(210,210,255)"/>
<polygon points="279.4,266.3 285.4,266.3 285.4,272.3 279.4,272.3" fill="rgb(249,249,255)"/>
<polygon points="285.4,266.3 291.4,266.3 291.4,272.3 285.4,272.3" fill="rgb(255,242,242)"/>
<polygon points="291.4,266.3 297.4,266.3 297.4,272.3 291.4,272.3" fill="rgb(216,216,255)"/>
<polygon points="297.4,266.3 303.4,266.3 303.4,272.3 297.4,272.3" fill="rgb(255,234,234)"/>
<polygon points="303.4,266.3 309.4,266.3 309.4,272.3 303.4,272.3" fill="rgb(140,140,255)"/>
<polygon points="319.4,266.3 325.4,266.3 325.4,272.3 319.4,272.3" fill="rgb(255,171,171)"/>
<polygon points="325.4,266.3 331.4,266.3 331.4,272.3 325.4,272.3" fill="rgb(255,233,233)"/>
<polygon points="331.4,266.3 337.4,266.3 337.4,272.3 331.4,272.3" fill="rgb(179,179,255)"/>
<polygon points="337.4,266.3 343.4,266.3 343.4,272.3 337.4,272.3" fill="rgb(234,234,255)"/>
<polygon points="343.4,266.3 349.4,266.3 349.4,272.3 343.4,272.3" fill="rgb(243,243,255)"/>
<polygon points="349.4,266.3 355.4,266.3 355.4,272.3 349.4,272.3" fill="rgb(207,207,255)"/>
<polygon points="355.4,266.3 361.4,266.3 361.4,272.3 355.4,272.3" fill="rgb(184,184,255)"/>
<polygon points="361.4,266.3 367.4,266.3 367.4,272.3 361.4,272.3" fill="rgb(187,187,255)"/>
<polygon points="169.4,272.3 177.4,272.3 177.4,278.3 169.4,278.3" fill="rgb(134,198,192)"/><text xml:space="preserve" x="173.4" y="278.133" font-family="Calibri" font-size="7.5" fill="rgb(0,0,0)" text-anchor="middle">2</text>
<polygon points="177.4,272.3 185.4,272.3 185.4,278.3 177.4,278.3" fill="rgb(240,235,224)"/><text xml:space="preserve" x="181.4" y="278.133" font-family="Calibri" font-size="7.5" fill="rgb(0,0,0)" text-anchor="middle">8</text>
<polygon points="185.4,272.3 193.4,272.3 193.4,278.3 185.4,278.3" fill="rgb(240,235,224)"/><text xml:space="preserve" x="189.4" y="278.133" font-family="Calibri" font-size="7.5" fill="rgb(0,0,0)" text-anchor="middle">8</text>
<polygon points="203.4,272.3 209.4,272.3 209.4,278.3 203.4,278.3" fill="rgb(255,189,189)"/>
<polygon points="209.4,272.3 215.4,272.3 215.4,278.3 209.4,278.3" fill="rgb(223,223,255)"/>
<polygon points="215.4,272.3 221.4,272.3 221.4,278.3 215.4,278.3" fill="rgb(98,98,255)"/>
<polygon points="221.4,272.3 227.4,272.3 227.4,278.3 221.4,278.3" fill="rgb(108,108,255)"/>
<polygon points="227.4,272.3 233.4,272.3 233.4,278.3 227.4,278.3" fill="rgb(187,187,255)"/>
<polygon points="233.4,272.3 239.4,272.3 239.4,278.3 233.4,278.3" fill="rgb(63,63,255)"/>
<polygon points="239.4,272.3 245.4,272.3 245.4,278.3 239.4,278.3" fill="rgb(160,160,255)"/>
<polygon points="245.4,272.3 251.4,272.3 251.4,278.3 245.4,278.3" fill="rgb(205,205,255)"/>
<polygon points="261.4,272.3 267.4,272.3 267.4,278.3 261.4,278.3" fill="rgb(255,242,242)"/>
<polygon points="267.4,272.3 273.4,272.3 273.4,278.3 267.4,278.3" fill="rgb(255,252,252)"/>
<polygon points="273.4,272.3 279.4,272.3 279.4,278.3 273.4,278.3" fill="rgb(159,159,255)"/>
<polygon points="279.4,272.3 285.4,272.3 285.4,278.3 279.4,278.3" fill="rgb(158,158,255)"/>
<polygon points="285.4,272.3 291.4,272.3 291.4,278.3 285.4,278.3" fill="rgb(237,237,255)"/>
<polygon points="291.4,272.3 297.4,272.3 297.4,278.3 291.4,278.3" fill="rgb(213,213,255)"/>
<polygon points="297.4,272.3 303.4,272.3 303.4,278.3 297.4,278.3" fill="rgb(154,154,255)"/>
<polygon points="303.4,272.3 309.4,272.3 309.4,278.3 303.4,278.3" fill="rgb(228,228,255)"/>
<polygon points="319.4,272.3 325.4,272.3 325.4,278.3 319.4,278.3" fill="rgb(255,158,158)"/>
<polygon points="325.4,272.3 331.4,272.3 331.4,278.3 325.4,278.3" fill="rgb(255,210,210)"/>
<polygon points="331.4,272.3 337.4,272.3 337.4,278.3 331.4,278.3" fill="rgb(160,160,255)"/>
<polygon points="337.4,272.3 343.4,272.3 343.4,278.3 337.4,278.3" fill="rgb(193,193,255)"/>
<polygon points="343.4,272.3 349.4,272.3 349.4,278.3 343.4,278.3" fill="rgb(241,241,255)"/>
<polygon points="349.4,272.3 355.4,272.3 355.4,278.3 349.4,278.3" fill="rgb(192,192,255)"/>
<polygon points="355.4,272.3 361.4,272.3 361.4,278.3 355.4,278.3" fill="rgb(176,176,255)"/>
<polygon points="361.4,272.3 367.4,272.3 367.4,278.3 361.4,278.3" fill="rgb(208,208,255)"/>
<polygon points="169.4,278.3 177.4,278.3 177.4,284.3 169.4,284.3" fill="rgb(134,198,192)"/><text xml:space="preserve" x="173.4" y="284.133" font-family="Calibri" font-size="7.5" fill="rgb(0,0,0)" text-anchor="middle">2</text>
<polygon points="177.4,278.3 185.4,278.3 185.4,284.3 177.4,284.3" fill="rgb(240,235,224)"/><text xml:space="preserve" x="181.4" y="284.133" font-family="Calibri" font-size="7.5" fill="rgb(0,0,0)" text-anchor="middle">8</text>
<polygon points="185.4,278.3 193.4,278.3 193.4,284.3 185.4,284.3" fill="rgb(240,235,224)"/><text xml:space="preserve" x="189.4" y="284.133" font-family="Calibri" font-size="7.5" fill="rgb(0,0,0)" text-anchor="middle">8</text>
<polygon points="203.4,278.3 209.4,278.3 209.4,284.3 203.4,284.3" fill="rgb(255,241,241)"/>
<polygon points="209.4,278.3 215.4,278.3 215.4,284.3 209.4,284.3" fill="rgb(210,210,255)"/>
<polygon points="215.4,278.3 221.4,278.3 221.4,284.3 215.4,284.3" fill="rgb(152,152,255)"/>
<polygon points="221.4,278.3 227.4,278.3 227.4,284.3 221.4,284.3" fill="rgb(183,183,255)"/>
<polygon points="227.4,278.3 233.4,278.3 233.4,284.3 227.4,284.3" fill="rgb(222,222,255)"/>
<polygon points="233.4,278.3 239.4,278.3 239.4,284.3 233.4,284.3" fill="rgb(255,152,152)"/>
<polygon points="239.4,278.3 245.4,278.3 245.4,284.3 239.4,284.3" fill="rgb(255,251,251)"/>
<polygon points="245.4,278.3 251.4,278.3 251.4,284.3 245.4,284.3" fill="rgb(255,241,241)"/>
<polygon points="261.4,278.3 267.4,278.3 267.4,284.3 261.4,284.3" fill="rgb(245,245,255)"/>
<polygon points="267.4,278.3 273.4,278.3 273.4,284.3 267.4,284.3" fill="rgb(244,244,255)"/>
<polygon points="273.4,278.3 279.4,278.3 279.4,284.3 273.4,284.3" fill="rgb(244,244,255)"/>
<polygon points="279.4,278.3 285.4,278.3 285.4,284.3 279.4,284.3" fill="rgb(205,205,255)"/>
<polygon points="285.4,278.3 291.4,278.3 291.4,284.3 285.4,284.3" fill="rgb(214,214,255)"/>
<polygon points="291.4,278.3 297.4,278.3 297.4,284.3 291.4,284.3" fill="rgb(255,171,171)"/>
<polygon points="297.4,278.3 303.4,278.3 303.4,284.3 297.4,284.3" fill="rgb(190,190,255)"/>
<polygon points="303.4,278.3 309.4,278.3 309.4,284.3 303.4,284.3" fill="rgb(211,211,255)"/>
<polygon points="319.4,278.3 325.4,278.3 325.4,284.3 319.4,284.3" fill="rgb(255,193,193)"/>
<polygon points="325.4,278.3 331.4,278.3 331.4,284.3 325.4,284.3" fill="rgb(255,251,251)"/>
<polygon points="331.4,278.3 337.4,278.3 337.4,284.3 331.4,284.3" fill="rgb(233,233,255)"/>
<polygon points="337.4,278.3 343.4,278.3 343.4,284.3 337.4,284.3" fill="rgb(218,218,255)"/>
<polygon points="343.4,278.3 349.4,278.3 349.4,284.3 343.4,284.3" fill="rgb(218,218,255)"/>
<polygon points="349.4,278.3 355.4,278.3 355.4,284.3 349.4,284.3" fill="rgb(255,190,190)"/>
<polygon points="355.4,278.3 361.4,278.3 361.4,284.3 355.4,284.3" fill="rgb(234,234,255)"/>
<polygon points="361.4,278.3 367.4,278.3 367.4,284.3 361.4,284.3" fill="rgb(224,224,255)"/>
<polygon points="169.4,284.3 177.4,284.3 177.4,290.3 169.4,290.3" fill="rgb(134,198,192)"/><text xml:space="preserve" x="173.4" y="290.133" font-family="Calibri" font-size="7.5" fill="rgb(0,0,0)" text-anchor="middle">2</text>
<polygon points="177.4,284.3 185.4,284.3 185.4,290.3 177.4,290.3" fill="rgb(240,235,224)"/><text xml:space="preserve" x="181.4" y="290.133" font-family="Calibri" font-size="7.5" fill="rgb(0,0,0)" text-anchor="middle">8</text>
<polygon points="185.4,284.3 193.4,284.3 193.4,290.3 185.4,290.3" fill="rgb(240,235,224)"/><text xml:space="preserve" x="189.4" y="290.133" font-family="Calibri" font-size="7.5" fill="rgb(0,0,0)" text-anchor="middle">8</text>
<polygon points="203.4,284.3 209.4,284.3 209.4,290.3 203.4,290.3" fill="rgb(255,251,251)"/>
<polygon points="209.4,284.3 215.4,284.3 215.4,290.3 209.4,290.3" fill="rgb(255,245,245)"/>
<polygon points="215.4,284.3 221.4,284.3 221.4,290.3 215.4,290.3" fill="rgb(235,235,255)"/>
<polygon points="221.4,284.3 227.4,284.3 227.4,290.3 221.4,290.3" fill="rgb(180,180,255)"/>
<polygon points="227.4,284.3 233.4,284.3 233.4,290.3 227.4,290.3" fill="rgb(255,248,248)"/>
<polygon points="233.4,284.3 239.4,284.3 239.4,290.3 233.4,290.3" fill="rgb(255,177,177)"/>
<polygon points="239.4,284.3 245.4,284.3 245.4,290.3 239.4,290.3" fill="rgb(255,106,106)"/>
<polygon points="245.4,284.3 251.4,284.3 251.4,290.3 245.4,290.3" fill="rgb(199,199,255)"/>
<polygon points="261.4,284.3 267.4,284.3 267.4,290.3 261.4,290.3" fill="rgb(255,195,195)"/>
<polygon points="267.4,284.3 273.4,284.3 273.4,290.3 267.4,290.3" fill="rgb(255,212,212)"/>
<polygon points="273.4,284.3 279.4,284.3 279.4,290.3 273.4,290.3" fill="rgb(254,249,249)"/>
<polygon points="279.4,284.3 285.4,284.3 285.4,290.3 279.4,290.3" fill="rgb(223,223,255)"/>
<polygon points="285.4,284.3 291.4,284.3 291.4,290.3 285.4,290.3" fill="rgb(248,248,255)"/>
<polygon points="291.4,284.3 297.4,284.3 297.4,290.3 291.4,290.3" fill="rgb(234,234,255)"/>
<polygon points="297.4,284.3 303.4,284.3 303.4,290.3 297.4,290.3" fill="rgb(233,233,255)"/>
<polygon points="303.4,284.3 309.4,284.3 309.4,290.3 303.4,290.3" fill="rgb(192,192,255)"/>
<polygon points="319.4,284.3 325.4,284.3 325.4,290.3 319.4,290.3" fill="rgb(255,200,200)"/>
<polygon points="325.4,284.3 331.4,284.3 331.4,290.3 325.4,290.3" fill="rgb(255,193,193)"/>
<polygon points="331.4,284.3 337.4,284.3 337.4,290.3 331.4,290.3" fill="rgb(202,202,255)"/>
<polygon points="337.4,284.3 343.4,284.3 343.4,290.3 337.4,290.3" fill="rgb(210,210,255)"/>
<polygon points="343.4,284.3 349.4,284.3 349.4,290.3 343.4,290.3" fill="rgb(250,250,255)"/>
<polygon points="349.4,284.3 355.4,284.3 355.4,290.3 349.4,290.3" fill="rgb(174,174,255)"/>
<polygon points="355.4,284.3 361.4,284.3 361.4,290.3 355.4,290.3" fill="rgb(225,225,255)"/>
<polygon points="361.4,284.3 367.4,284.3 367.4,290.3 361.4,290.3" fill="rgb(185,185,255)"/>
<polygon points="169.4,290.3 177.4,290.3 177.4,296.3 169.4,296.3" fill="rgb(134,198,192)"/><text xml:space="preserve" x="173.4" y="296.133" font-family="Calibri" font-size="7.5" fill="rgb(0,0,0)" text-anchor="middle">2</text>
<polygon points="177.4,290.3 185.4,290.3 185.4,296.3 177.4,296.3" fill="rgb(240,235,224)"/><text xml:space="preserve" x="181.4" y="296.133" font-family="Calibri" font-size="7.5" fill="rgb(0,0,0)" text-anchor="middle">8</text>
<polygon points="185.4,290.3 193.4,290.3 193.4,296.3 185.4,296.3" fill="rgb(245,245,245)"/><text xml:space="preserve" x="189.4" y="296.133" font-family="Calibri" font-size="7.5" fill="rgb(0,0,0)" text-anchor="middle">7</text>
<polygon points="203.4,290.3 209.4,290.3 209.4,296.3 203.4,296.3" fill="rgb(205,205,255)"/>
<polygon points="209.4,290.3 215.4,290.3 215.4,296.3 209.4,296.3" fill="rgb(186,186,255)"/>
<polygon points="215.4,290.3 221.4,290.3 221.4,296.3 215.4,296.3" fill="rgb(120,120,255)"/>
<polygon points="221.4,290.3 227.4,290.3 227.4,296.3 221.4,296.3" fill="rgb(136,136,255)"/>
<polygon points="227.4,290.3 233.4,290.3 233.4,296.3 227.4,296.3" fill="rgb(209,209,255)"/>
<polygon points="233.4,290.3 239.4,290.3 239.4,296.3 233.4,296.3" fill="rgb(252,252,255)"/>
<polygon points="239.4,290.3 245.4,290.3 245.4,296.3 239.4,296.3" fill="rgb(189,189,255)"/>
<polygon points="245.4,290.3 251.4,290.3 251.4,296.3 245.4,296.3" fill="rgb(255,244,244)"/>
<polygon points="261.4,290.3 267.4,290.3 267.4,296.3 261.4,296.3" fill="rgb(245,245,255)"/>
<polygon points="267.4,290.3 273.4,290.3 273.4,296.3 267.4,296.3" fill="rgb(247,247,255)"/>
<polygon points="273.4,290.3 279.4,290.3 279.4,296.3 273.4,296.3" fill="rgb(212,212,255)"/>
<polygon points="279.4,290.3 285.4,290.3 285.4,296.3 279.4,296.3" fill="rgb(255,243,243)"/>
<polygon points="285.4,290.3 291.4,290.3 291.4,296.3 285.4,296.3" fill="rgb(223,223,255)"/>
<polygon points="291.4,290.3 297.4,290.3 297.4,296.3 291.4,296.3" fill="rgb(241,241,255)"/>
<polygon points="297.4,290.3 303.4,290.3 303.4,296.3 297.4,296.3" fill="rgb(206,206,255)"/>
<polygon points="303.4,290.3 309.4,290.3 309.4,296.3 303.4,296.3" fill="rgb(221,221,255)"/>
<polygon points="319.4,290.3 325.4,290.3 325.4,296.3 319.4,296.3" fill="rgb(253,253,255)"/>
<polygon points="325.4,290.3 331.4,290.3 331.4,296.3 325.4,296.3" fill="rgb(255,228,228)"/>
<polygon points="331.4,290.3 337.4,290.3 337.4,296.3 331.4,296.3" fill="rgb(255,198,198)"/>
<polygon points="337.4,290.3 343.4,290.3 343.4,296.3 337.4,296.3" fill="rgb(255,106,106)"/>
<polygon points="343.4,290.3 349.4,290.3 349.4,296.3 343.4,296.3" fill="rgb(254,207,207)"/>
<polygon points="349.4,290.3 355.4,290.3 355.4,296.3 349.4,296.3" fill="rgb(254,241,241)"/>
<polygon points="355.4,290.3 361.4,290.3 361.4,296.3 355.4,296.3" fill="rgb(255,254,254)"/>
<polygon points="361.4,290.3 367.4,290.3 367.4,296.3 361.4,296.3" fill="rgb(169,169,255)"/>
<polygon points="169.4,212.3 193.4,212.3 193.4,296.3 169.4,296.3" fill="none" stroke="black" stroke-width="1"/>
<polygon points="203.4,212.3 251.4,212.3 251.4,296.3 203.4,296.3" fill="none" stroke="black" stroke-width="1"/>
<polygon points="261.4,212.3 309.4,212.3 309.4,296.3 261.4,296.3" fill="none" stroke="black" stroke-width="1"/>
<polygon points="319.4,212.3 367.4,212.3 367.4,296.3 319.4,296.3" fill="none" stroke="black" stroke-width="1"/>
<text xml:space="preserve" x="204.7" y="328.633" font-family="Calibri" font-size="6" text-anchor="middle">moduleID</text>
<polygon points="94.7,336.3 114.7,336.3 114.7,356.3 94.7,356.3" fill="rgb(250,250,250)"/><polygon points="94.7,336.3 114.7,336.3 114.7,356.3 94.7,356.3" fill="none" stroke="black" stroke-width="1"/><text xml:space="preserve" x="104.7" y="349.133" font-family="Calibri" font-size="7.5" fill="rgb(0,0,0)" text-anchor="middle">-2.0</text>
<polygon points="114.7,336.3 134.7,336.3 134.7,356.3 114.7,356.3" fill="rgb(156,210,205)"/><polygon points="114.7,336.3 134.7,336.3 134.7,356.3 114.7,356.3" fill="none" stroke="black" stroke-width="1"/><text xml:space="preserve" x="124.7" y="349.133" font-family="Calibri" font-size="7.5" fill="rgb(0,0,0)" text-anchor="middle">-0.4</text>
<polygon points="134.7,336.3 154.7,336.3 154.7,356.3 134.7,356.3" fill="rgb(116,191,184)"/><polygon points="134.7,336.3 154.7,336.3 154.7,356.3 134.7,356.3" fill="none" stroke="black" stroke-width="1"/><text xml:space="preserve" x="144.7" y="349.133" font-family="Calibri" font-size="7.5" fill="rgb(0,0,0)" text-anchor="middle">1.2</text>
<polygon points="154.7,336.3 174.7,336.3 174.7,356.3 154.7,356.3" fill="rgb(152,206,201)"/><polygon points="154.7,336.3 174.7,336.3 174.7,356.3 154.7,356.3" fill="none" stroke="black" stroke-width="1"/><text xml:space="preserve" x="164.7" y="349.133" font-family="Calibri" font-size="7.5" fill="rgb(0,0,0)" text-anchor="middle">2.8</text>
<polygon points="174.7,336.3 194.7,336.3 194.7,356.3 174.7,356.3" fill="rgb(187,220,217)"/><polygon points="174.7,336.3 194.7,336.3 194.7,356.3 174.7,356.3" fill="none" stroke="black" stroke-width="1"/><text xml:space="preserve" x="184.7" y="349.133" font-family="Calibri" font-size="7.5" fill="rgb(0,0,0)" text-anchor="middle">4.4</text>
<polygon points="194.7,336.3 214.7,336.3 214.7,356.3 194.7,356.3" fill="rgb(222,235,234)"/><polygon points="194.7,336.3 214.7,336.3 214.7,356.3 194.7,356.3" fill="none" stroke="black" stroke-width="1"/><text xml:space="preserve" x="204.7" y="349.133" font-family="Calibri" font-size="7.5" fill="rgb(0,0,0)" text-anchor="middle">6.0</text>
<polygon points="214.7,336.3 234.7,336.3 234.7,356.3 214.7,356.3" fill="rgb(242,239,232)"/><polygon points="214.7,336.3 234.7,336.3 234.7,356.3 214.7,356.3" fill="none" stroke="black" stroke-width="1"/><text xml:space="preserve" x="224.7" y="349.133" font-family="Calibri" font-size="7.5" fill="rgb(0,0,0)" text-anchor="middle">7.6</text>
<polygon points="234.7,336.3 254.7,336.3 254.7,356.3 234.7,356.3" fill="rgb(235,224,199)"/><polygon points="234.7,336.3 254.7,336.3 254.7,356.3 234.7,356.3" fill="none" stroke="black" stroke-width="1"/><text xml:space="preserve" x="244.7" y="349.133" font-family="Calibri" font-size="7.5" fill="rgb(0,0,0)" text-anchor="middle">9.2</text>
<polygon points="254.7,336.3 274.7,336.3 274.7,356.3 254.7,356.3" fill="rgb(229,209,166)"/><polygon points="254.7,336.3 274.7,336.3 274.7,356.3 254.7,356.3" fill="none" stroke="black" stroke-width="1"/><text xml:space="preserve" x="264.7" y="349.133" font-family="Calibri" font-size="7.5" fill="rgb(0,0,0)" text-anchor="middle">10.8</text>
<polygon points="274.7,336.3 294.7,336.3 294.7,356.3 274.7,356.3" fill="rgb(222,194,133)"/><polygon points="274.7,336.3 294.7,336.3 294.7,356.3 274.7,356.3" fill="none" stroke="black" stroke-width="1"/><text xml:space="preserve" x="284.7" y="349.133" font-family="Calibri" font-size="7.5" fill="rgb(0,0,0)" text-anchor="middle">12.4</text>
<polygon points="294.7,336.3 314.7,336.3 314.7,356.3 294.7,356.3" fill="rgb(216,179,101)"/><polygon points="294.7,336.3 314.7,336.3 314.7,356.3 294.7,356.3" fill="none" stroke="black" stroke-width="1"/><text xml:space="preserve" x="304.7" y="349.133" font-family="Calibri" font-size="7.5" fill="rgb(0,0,0)" text-anchor="middle">14.0</text>
<text xml:space="preserve" x="204.7" y="388.633" font-family="Calibri" font-size="6" text-anchor="middle">marklevel</text>
<polygon points="94.7,396.3 114.7,396.3 114.7,416.3 94.7,416.3" fill="rgb(0,0,255)"/><polygon points="94.7,396.3 114.7,396.3 114.7,416.3 94.7,416.3" fill="none" stroke="black" stroke-width="1"/><text xml:space="preserve" x="104.7" y="409.133" font-family="Calibri" font-size="7.5" fill="rgb(255,255,255)" text-anchor="middle">-2.0</text>
<polygon points="114.7,396.3 134.7,396.3 134.7,416.3 114.7,416.3" fill="rgb(50,50,255)"/><polygon points="114.7,396.3 134.7,396.3 134.7,416.3 114.7,416.3" fill="none" stroke="black" stroke-width="1"/><text xml:space="preserve" x="124.7" y="409.133" font-family="Calibri" font-size="7.5" fill="rgb(255,255,255)" text-anchor="middle">-1.6</text>
<polygon points="134.7,396.3 154.7,396.3 154.7,416.3 134.7,416.3" fill="rgb(102,102,255)"/><polygon points="134.7,396.3 154.7,396.3 154.7,416.3 134.7,416.3" fill="none" stroke="black" stroke-width="1"/><text xml:space="preserve" x="144.7" y="409.133" font-family="Calibri" font-size="7.5" fill="rgb(255,255,255)" text-anchor="middle">-1.2</text>
<polygon points="154.7,396.3 174.7,396.3 174.7,416.3 154.7,416.3" fill="rgb(153,153,255)"/><polygon points="154.7,396.3 174.7,396.3 174.7,416.3 154.7,416.3" fill="none" stroke="black" stroke-width="1"/><text xml:space="preserve" x="164.7" y="409.133" font-family="Calibri" font-size="7.5" fill="rgb(0,0,0)" text-anchor="middle">-0.8</text>
<polygon points="174.7,396.3 194.7,396.3 194.7,416.3 174.7,416.3" fill="rgb(204,204,255)"/><polygon points="174.7,396.3 194.7,396.3 194.7,416.3 174.7,416.3" fill="none" stroke="black" stroke-width="1"/><text xml:space="preserve" x="184.7" y="409.133" font-family="Calibri" font-size="7.5" fill="rgb(0,0,0)" text-anchor="middle">-0.4</text>
<polygon points="194.7,396.3 214.7,396.3 214.7,416.3 194.7,416.3" fill="rgb(255,255,255)"/><polygon points="194.7,396.3 214.7,396.3 214.7,416.3 194.7,416.3" fill="none" stroke="black" stroke-width="1"/><text xml:space="preserve" x="204.7" y="409.133" font-family="Calibri" font-size="7.5" fill="rgb(0,0,0)" text-anchor="middle">0.0</text>
<polygon points="214.7,396.3 234.7,396.3 234.7,416.3 214.7,416.3" fill="rgb(255,204,204)"/><polygon points="214.7,396.3 234.7,396.3 234.7,416.3 214.7,416.3" fill="none" stroke="black" stroke-width="1"/><text xml:space="preserve" x="224.7" y="409.133" font-family="Calibri" font-size="7.5" fill="rgb(0,0,0)" text-anchor="middle">0.4</text>
<polygon points="234.7,396.3 254.7,396.3 254.7,416.3 234.7,416.3" fill="rgb(255,153,153)"/><polygon points="234.7,396.3 254.7,396.3 254.7,416.3 234.7,416.3" fill="none" stroke="black" stroke-width="1"/><text xml:space="preserve" x="244.7" y="409.133" font-family="Calibri" font-size="7.5" fill="rgb(0,0,0)" text-anchor="middle">0.8</text>
<polygon points="254.7,396.3 274.7,396.3 274.7,416.3 254.7,416.3" fill="rgb(255,102,102)"/><polygon points="254.7,396.3 274.7,396.3 274.7,416.3 254.7,416.3" fill="none" stroke="black" stroke-width="1"/><text xml:space="preserve" x="264.7" y="409.133" font-family="Calibri" font-size="7.5" fill="rgb(0,0,0)" text-anchor="middle">1.2</text>
<polygon points="274.7,396.3 294.7,396.3 294.7,416.3 274.7,416.3" fill="rgb(255,50,50)"/><polygon points="274.7,396.3 294.7,396.3 294.7,416.3 274.7,416.3" fill="none" stroke="black" stroke-width="1"/><text xml:space="preserve" x="284.7" y="409.133" font-family="Calibri" font-size="7.5" fill="rgb(255,255,255)" text-anchor="middle">1.6</text>
<polygon points="294.7,396.3 314.7,396.3 314.7,416.3 294.7,416.3" fill="rgb(255,0,0)"/><polygon points="294.7,396.3 314.7,396.3 314.7,416.3 294.7,416.3" fill="none" stroke="black" stroke-width="1"/><text xml:space="preserve" x="304.7" y="409.133" font-family="Calibri" font-size="7.5" fill="rgb(255,255,255)" text-anchor="middle">2.0</text>
</svg>
