<?xml version="1.0" standalone="no"?><!DOCTYPE svg PUBLIC "-//W3C//DTD SVG 1.1//EN" "http://www.w3.org/Graphics/SVG/1.1/DTD/svg11.dtd">
<svg width="381.2" height="430.3" version="1.1" xmlns="http://www.w3.org/2000/svg">
<text xml:space="preserve" x="137.2" y="217.633" font-family="Calibri" font-size="6" text-anchor="end">Armcx1</text>
<text xml:space="preserve" x="137.2" y="223.633" font-family="Calibri" font-size="6" text-anchor="end">mmu-mir-503</text>
<text xml:space="preserve" x="137.2" y="229.633" font-family="Calibri" font-size="6" text-anchor="end">Kctd12b</text>
<text xml:space="preserve" x="137.2" y="235.633" font-family="Calibri" font-size="6" text-anchor="end">Gria3</text>
<text xml:space="preserve" x="137.2" y="241.633" font-family="Calibri" font-size="6" text-anchor="end">Khdrbs3</text>
<text xml:space="preserve" x="137.2" y="247.633" font-family="Calibri" font-size="6" text-anchor="end">Klhl13</text>
<text xml:space="preserve" x="137.2" y="253.633" font-family="Calibri" font-size="6" text-anchor="end">Gpc3</text>
<text xml:space="preserve" x="137.2" y="259.633" font-family="Calibri" font-size="6" text-anchor="end">mmu-mir-351</text>
<text xml:space="preserve" x="137.2" y="265.633" font-family="Calibri" font-size="6" text-anchor="end">mmu-mir-322</text>
<text xml:space="preserve" x="137.2" y="271.633" font-family="Calibri" font-size="6" text-anchor="end">Tmem47</text>
<text xml:space="preserve" x="137.2" y="277.633" font-family="Calibri" font-size="6" text-anchor="end">Slc38a4</text>
<text xml:space="preserve" x="137.2" y="283.633" font-family="Calibri" font-size="6" text-anchor="end">Pdk4</text>
<text xml:space="preserve" x="137.2" y="289.633" font-family="Calibri" font-size="6" text-anchor="end">Gpc4</text>
<text xml:space="preserve" x="147.533" y="208.3" font-family="Calibri" font-size="6" transform="rotate(270 147.533 208.3)">ips</text>
<text xml:space="preserve" x="155.533" y="208.3" font-family="Calibri" font-size="6" transform="rotate(270 155.533 208.3)">pips</text>
<text xml:space="preserve" x="163.533" y="208.3" font-family="Calibri" font-size="6" transform="rotate(270 163.533 208.3)">mef</text>
<text xml:space="preserve" x="180.533" y="208.3" font-family="Calibri" font-size="6" transform="rotate(270 180.533 208.3)">ips_H3K4me3iPS</text>
<text xml:space="preserve" x="186.533" y="208.3" font-family="Calibri" font-size="6" transform="rotate(270 186.533 208.3)">ips_H3K9aciPS</text>
<text xml:space="preserve" x="192.533" y="208.3" font-family="Calibri" font-size="6" transform="rotate(270 192.533 208.3)">ips_H3K14aciPS</text>
<text xml:space="preserve" x="198.533" y="208.3" font-family="Calibri" font-size="6" transform="rotate(270 198.533 208.3)">ips_H3K18aciPS</text>
<text xml:space="preserve" x="204.533" y="208.3" font-family="Calibri" font-size="6" transform="rotate(270 204.533 208.3)">ips_H3K79me2iPS</text>
<text xml:space="preserve" x="210.533" y="208.3" font-family="Calibri" font-size="6" transform="rotate(270 210.533 208.3)">ips_H3K9me2iPS</text>
<text xml:space="preserve" x="216.533" y="208.3" font-family="Calibri" font-size="6" transform="rotate(270 216.533 208.3)">ips_H3K9me3iPS</text>
<text xml:space="preserve" x="222.533" y="208.3" font-family="Calibri" font-size="6" transform="rotate(270 222.533 208.3)">ips_H3K27me3iPS</text>
<text xml:space="preserve" x="238.533" y="208.3" font-family="Calibri" font-size="6" transform="rotate(270 238.533 208.3)">pips_H3K4me3pips</text>
<text xml:space="preserve" x="244.533" y="208.3" font-family="Calibri" font-size="6" transform="rotate(270 244.533 208.3)">pips_H3K9acpips</text>
<text xml:space="preserve" x="250.533" y="208.3" font-family="Calibri" font-size="6" transform="rotate(270 250.533 208.3)">pips_H3K14acpips</text>
<text xml:space="preserve" x="256.533" y="208.3" font-family="Calibri" font-size="6" transform="rotate(270 256.533 208.3)">pips_H3K18acpips</text>
<text xml:space="preserve" x="262.533" y="208.3" font-family="Calibri" font-size="6" transform="rotate(270 262.533 208.3)">pips_H3K79me2pips</text>
<text xml:space="preserve" x="268.533" y="208.3" font-family="Calibri" font-size="6" transform="rotate(270 268.533 208.3)">pips_H3K9me2pips</text>
<text xml:space="preserve" x="274.533" y="208.3" font-family="Calibri" font-size="6" transform="rotate(270 274.533 208.3)">pips_H3K9me3pips</text>
<text xml:space="preserve" x="280.533" y="208.3" font-family="Calibri" font-size="6" transform="rotate(270 280.533 208.3)">pips_H3K27me3pips</text>
<text xml:space="preserve" x="296.533" y="208.3" font-family="Calibri" font-size="6" transform="rotate(270 296.533 208.3)">mef_H3K4me3mef</text>
<text xml:space="preserve" x="302.533" y="208.3" font-family="Calibri" font-size="6" transform="rotate(270 302.533 208.3)">mef_H3K9acmef</text>
<text xml:space="preserve" x="308.533" y="208.3" font-family="Calibri" font-size="6" transform="rotate(270 308.533 208.3)">mef_H3K14acmef</text>
<text xml:space="preserve" x="314.533" y="208.3" font-family="Calibri" font-size="6" transform="rotate(270 314.533 208.3)">mef_H3K18acmef</text>
<text xml:space="preserve" x="320.533" y="208.3" font-family="Calibri" font-size="6" transform="rotate(270 320.533 208.3)">mef_H3K79me2mef</text>
<text xml:space="preserve" x="326.533" y="208.3" font-family="Calibri" font-size="6" transform="rotate(270 326.533 208.3)">mef_H3K9me2mef</text>
<text xml:space="preserve" x="332.533" y="208.3" font-family="Calibri" font-size="6" transform="rotate(270 332.533 208.3)">mef_H3K9me3mef</text>
<text xml:space="preserve" x="338.533" y="208.3" font-family="Calibri" font-size="6" transform="rotate(270 338.533 208.3)">mef_H3K27me3mef</text>
<polygon points="141.2,212.3 149.2,212.3 149.2,218.3 141.2,218.3" fill="rgb(216,179,101)"/><text xml:space="preserve" x="145.2" y="218.133" font-family="Calibri" font-size="7.5" fill="rgb(0,0,0)" text-anchor="middle">14</text>
<polygon points="149.2,212.3 157.2,212.3 157.2,218.3 149.2,218.3" fill="rgb(156,207,203)"/><text xml:space="preserve" x="153.2" y="218.133" font-family="Calibri" font-size="7.5" fill="rgb(0,0,0)" text-anchor="middle">3</text>
<polygon points="157.2,212.3 165.2,212.3 165.2,218.3 157.2,218.3" fill="rgb(216,179,101)"/><text xml:space="preserve" x="161.2" y="218.133" font-family="Calibri" font-size="7.5" fill="rgb(0,0,0)" text-anchor="middle">14</text>
<polygon points="175.2,212.3 181.2,212.3 181.2,218.3 175.2,218.3" fill="rgb(255,144,144)"/>
<polygon points="181.2,212.3 187.2,212.3 187.2,218.3 181.2,218.3" fill="rgb(245,245,255)"/>
<polygon points="187.2,212.3 193.2,212.3 193.2,218.3 187.2,218.3" fill="rgb(203,203,255)"/>
<polygon points="193.2,212.3 199.2,212.3 199.2,218.3 193.2,218.3" fill="rgb(254,143,143)"/>
<polygon points="199.2,212.3 205.2,212.3 205.2,218.3 199.2,218.3" fill="rgb(255,252,252)"/>
<polygon points="205.2,212.3 211.2,212.3 211.2,218.3 205.2,218.3" fill="rgb(216,216,255)"/>
<polygon points="211.2,212.3 217.2,212.3 217.2,218.3 211.2,218.3" fill="rgb(200,200,255)"/>
<polygon points="217.2,212.3 223.2,212.3 223.2,218.3 217.2,218.3" fill="rgb(210,210,255)"/>
<polygon points="233.2,212.3 239.2,212.3 239.2,218.3 233.2,218.3" fill="rgb(254,254,255)"/>
<polygon points="239.2,212.3 245.2,212.3 245.2,218.3 239.2,218.3" fill="rgb(182,182,255)"/>
<polygon points="245.2,212.3 251.2,212.3 251.2,218.3 245.2,218.3" fill="rgb(173,173,255)"/>
<polygon points="251.2,212.3 257.2,212.3 257.2,218.3 251.2,218.3" fill="rgb(143,143,255)"/>
<polygon points="257.2,212.3 263.2,212.3 263.2,218.3 257.2,218.3" fill="rgb(177,177,255)"/>
<polygon points="263.2,212.3 269.2,212.3 269.2,218.3 263.2,218.3" fill="rgb(255,233,233)"/>
<polygon points="269.2,212.3 275.2,212.3 275.2,218.3 269.2,218.3" fill="rgb(255,220,220)"/>
<polygon points="275.2,212.3 281.2,212.3 281.2,218.3 275.2,218.3" fill="rgb(255,123,123)"/>
<polygon points="291.2,212.3 297.2,212.3 297.2,218.3 291.2,218.3" fill="rgb(255,174,174)"/>
<polygon points="297.2,212.3 303.2,212.3 303.2,218.3 297.2,218.3" fill="rgb(255,250,250)"/>
<polygon points="303.2,212.3 309.2,212.3 309.2,218.3 303.2,218.3" fill="rgb(242,242,255)"/>
<polygon points="309.2,212.3 315.2,212.3 315.2,218.3 309.2,218.3" fill="rgb(255,171,171)"/>
<polygon points="315.2,212.3 321.2,212.3 321.2,218.3 315.2,218.3" fill="rgb(254,247,247)"/>
<polygon points="321.2,212.3 327.2,212.3 327.2,218.3 321.2,218.3" fill="rgb(255,250,250)"/>
<polygon points="327.2,212.3 333.2,212.3 333.2,218.3 327.2,218.3" fill="rgb(234,234,255)"/>
<polygon points="333.2,212.3 339.2,212.3 339.2,218.3 333.2,218.3" fill="rgb(255,161,161)"/>
<polygon points="141.2,218.3 149.2,218.3 149.2,224.3 141.2,224.3" fill="rgb(216,179,101)"/><text xml:space="preserve" x="145.2" y="224.133" font-family="Calibri" font-size="7.5" fill="rgb(0,0,0)" text-anchor="middle">14</text>
<polygon points="149.2,218.3 157.2,218.3 157.2,224.3 149.2,224.3" fill="rgb(156,207,203)"/><text xml:space="preserve" x="153.2" y="224.133" font-family="Calibri" font-size="7.5" fill="rgb(0,0,0)" text-anchor="middle">3</text>
<polygon points="157.2,218.3 165.2,218.3 165.2,224.3 157.2,224.3" fill="rgb(216,179,101)"/><text xml:space="preserve" x="161.2" y="224.133" font-family="Calibri" font-size="7.5" fill="rgb(0,0,0)" text-anchor="middle">14</text>
<polygon points="175.2,218.3 181.2,218.3 181.2,224.3 175.2,224.3" fill="rgb(255,193,193)"/>
<polygon points="181.2,218.3 187.2,218.3 187.2,224.3 181.2,224.3" fill="rgb(255,212,212)"/>
<polygon points="187.2,218.3 193.2,218.3 193.2,224.3 187.2,224.3" fill="rgb(255,214,214)"/>
<polygon points="193.2,218.3 199.2,218.3 199.2,224.3 193.2,224.3" fill="rgb(255,158,158)"/>
<polygon points="199.2,218.3 205.2,218.3 205.2,224.3 199.2,224.3" fill="rgb(226,226,255)"/>
<polygon points="205.2,218.3 211.2,218.3 211.2,224.3 205.2,224.3" fill="rgb(194,194,255)"/>
<polygon points="211.2,218.3 217.2,218.3 217.2,224.3 211.2,224.3" fill="rgb(255,252,252)"/>
<polygon points="217.2,218.3 223.2,218.3 223.2,224.3 217.2,224.3" fill="rgb(255,202,202)"/>
<polygon points="233.2,218.3 239.2,218.3 239.2,224.3 233.2,224.3" fill="rgb(243,243,255)"/>
<polygon points="239.2,218.3 245.2,218.3 245.2,224.3 239.2,224.3" fill="rgb(181,181,255)"/>
<polygon points="245.2,218.3 251.2,218.3 251.2,224.3 245.2,224.3" fill="rgb(200,200,255)"/>
<polygon points="251.2,218.3 257.2,218.3 257.2,224.3 251.2,224.3" fill="rgb(154,154,255)"/>
<polygon points="257.2,218.3 263.2,218.3 263.2,224.3 257.2,224.3" fill="rgb(173,173,255)"/>
<polygon points="263.2,218.3 269.2,218.3 269.2,224.3 263.2,224.3" fill="rgb(255,210,210)"/>
<polygon points="269.2,218.3 275.2,218.3 275.2,224.3 269.2,224.3" fill="rgb(255,181,181)"/>
<polygon points="275.2,218.3 281.2,218.3 281.2,224.3 275.2,224.3" fill="rgb(255,138,138)"/>
<polygon points="291.2,218.3 297.2,218.3 297.2,224.3 291.2,224.3" fill="rgb(255,244,244)"/>
<polygon points="297.2,218.3 303.2,218.3 303.2,224.3 297.2,224.3" fill="rgb(213,213,255)"/>
<polygon points="303.2,218.3 309.2,218.3 309.2,224.3 303.2,224.3" fill="rgb(255,240,240)"/>
<polygon points="309.2,218.3 315.2,218.3 315.2,224.3 309.2,224.3" fill="rgb(255,140,140)"/>
<polygon points="315.2,218.3 321.2,218.3 321.2,224.3 315.2,224.3" fill="rgb(255,252,252)"/>
<polygon points="321.2,218.3 327.2,218.3 327.2,224.3 321.2,224.3" fill="rgb(248,248,255)"/>
<polygon points="327.2,218.3 333.2,218.3 333.2,224.3 327.2,224.3" fill="rgb(255,243,243)"/>
<polygon points="333.2,218.3 339.2,218.3 339.2,224.3 333.2,224.3" fill="rgb(255,207,207)"/>
<polygon points="141.2,224.3 149.2,224.3 149.2,230.3 141.2,230.3" fill="rgb(216,179,101)"/><text xml:space="preserve" x="145.2" y="230.133" font-family="Calibri" font-size="7.5" fill="rgb(0,0,0)" text-anchor="middle">14</text>
<polygon points="149.2,224.3 157.2,224.3 157.2,230.3 149.2,230.3" fill="rgb(156,207,203)"/><text xml:space="preserve" x="153.2" y="230.133" font-family="Calibri" font-size="7.5" fill="rgb(0,0,0)" text-anchor="middle">3</text>
<polygon points="157.2,224.3 165.2,224.3 165.2,230.3 157.2,230.3" fill="rgb(216,179,101)"/><text xml:space="preserve" x="161.2" y="230.133" font-family="Calibri" font-size="7.5" fill="rgb(0,0,0)" text-anchor="middle">14</text>
<polygon points="175.2,224.3 181.2,224.3 181.2,230.3 175.2,230.3" fill="rgb(254,229,229)"/>
<polygon points="181.2,224.3 187.2,224.3 187.2,230.3 181.2,230.3" fill="rgb(255,248,248)"/>
<polygon points="187.2,224.3 193.2,224.3 193.2,230.3 187.2,230.3" fill="rgb(255,234,234)"/>
<polygon points="193.2,224.3 199.2,224.3 199.2,230.3 193.2,230.3" fill="rgb(255,119,119)"/>
<polygon points="199.2,224.3 205.2,224.3 205.2,230.3 199.2,230.3" fill="rgb(217,217,255)"/>
<polygon points="205.2,224.3 211.2,224.3 211.2,230.3 205.2,230.3" fill="rgb(232,232,255)"/>
<polygon points="211.2,224.3 217.2,224.3 217.2,230.3 211.2,230.3" fill="rgb(169,169,255)"/>
<polygon points="217.2,224.3 223.2,224.3 223.2,230.3 217.2,230.3" fill="rgb(222,222,255)"/>
<polygon points="233.2,224.3 239.2,224.3 239.2,230.3 233.2,230.3" fill="rgb(213,213,255)"/>
<polygon points="239.2,224.3 245.2,224.3 245.2,230.3 239.2,230.3" fill="rgb(174,174,255)"/>
<polygon points="245.2,224.3 251.2,224.3 251.2,230.3 245.2,230.3" fill="rgb(151,151,255)"/>
<polygon points="251.2,224.3 257.2,224.3 257.2,230.3 251.2,230.3" fill="rgb(173,173,255)"/>
<polygon points="257.2,224.3 263.2,224.3 263.2,230.3 257.2,230.3" fill="rgb(165,165,255)"/>
<polygon points="263.2,224.3 269.2,224.3 269.2,230.3 263.2,230.3" fill="rgb(255,172,172)"/>
<polygon points="269.2,224.3 275.2,224.3 275.2,230.3 269.2,230.3" fill="rgb(254,201,201)"/>
<polygon points="275.2,224.3 281.2,224.3 281.2,230.3 275.2,230.3" fill="rgb(255,151,151)"/>
<polygon points="291.2,224.3 297.2,224.3 297.2,230.3 291.2,230.3" fill="rgb(255,200,200)"/>
<polygon points="297.2,224.3 303.2,224.3 303.2,230.3 297.2,230.3" fill="rgb(199,199,255)"/>
<polygon points="303.2,224.3 309.2,224.3 309.2,230.3 303.2,230.3" fill="rgb(255,201,201)"/>
<polygon points="309.2,224.3 315.2,224.3 315.2,230.3 309.2,230.3" fill="rgb(255,251,251)"/>
<polygon points="315.2,224.3 321.2,224.3 321.2,230.3 315.2,230.3" fill="rgb(252,252,255)"/>
<polygon points="321.2,224.3 327.2,224.3 327.2,230.3 321.2,230.3" fill="rgb(255,155,155)"/>
<polygon points="327.2,224.3 333.2,224.3 333.2,230.3 327.2,230.3" fill="rgb(255,254,254)"/>
<polygon points="333.2,224.3 339.2,224.3 339.2,230.3 333.2,230.3" fill="rgb(255,186,186)"/>
<polygon points="141.2,230.3 149.2,230.3 149.2,236.3 141.2,236.3" fill="rgb(216,179,101)"/><text xml:space="preserve" x="145.2" y="236.133" font-family="Calibri" font-size="7.5" fill="rgb(0,0,0)" text-anchor="middle">14</text>
<polygon points="149.2,230.3 157.2,230.3 157.2,236.3 149.2,236.3" fill="rgb(156,207,203)"/><text xml:space="preserve" x="153.2" y="236.133" font-family="Calibri" font-size="7.5" fill="rgb(0,0,0)" text-anchor="middle">3</text>
<polygon points="157.2,230.3 165.2,230.3 165.2,236.3 157.2,236.3" fill="rgb(216,179,101)"/><text xml:space="preserve" x="161.2" y="236.133" font-family="Calibri" font-size="7.5" fill="rgb(0,0,0)" text-anchor="middle">14</text>
<polygon points="175.2,230.3 181.2,230.3 181.2,236.3 175.2,236.3" fill="rgb(255,213,213)"/>
<polygon points="181.2,230.3 187.2,230.3 187.2,236.3 181.2,236.3" fill="rgb(230,230,255)"/>
<polygon points="187.2,230.3 193.2,230.3 193.2,236.3 187.2,236.3" fill="rgb(255,210,210)"/>
<polygon points="193.2,230.3 199.2,230.3 199.2,236.3 193.2,236.3" fill="rgb(255,151,151)"/>
<polygon points="199.2,230.3 205.2,230.3 205.2,236.3 199.2,236.3" fill="rgb(226,226,255)"/>
<polygon points="205.2,230.3 211.2,230.3 211.2,236.3 205.2,236.3" fill="rgb(255,240,240)"/>
<polygon points="211.2,230.3 217.2,230.3 217.2,236.3 211.2,236.3" fill="rgb(255,232,232)"/>
<polygon points="217.2,230.3 223.2,230.3 223.2,236.3 217.2,236.3" fill="rgb(255,111,111)"/>
<polygon points="233.2,230.3 239.2,230.3 239.2,236.3 233.2,236.3" fill="rgb(255,249,249)"/>
<polygon points="239.2,230.3 245.2,230.3 245.2,236.3 239.2,236.3" fill="rgb(168,168,255)"/>
<polygon points="245.2,230.3 251.2,230.3 251.2,236.3 245.2,236.3" fill="rgb(219,219,255)"/>
<polygon points="251.2,230.3 257.2,230.3 257.2,236.3 251.2,236.3" fill="rgb(185,185,255)"/>
<polygon points="257.2,230.3 263.2,230.3 263.2,236.3 257.2,236.3" fill="rgb(183,183,255)"/>
<polygon points="263.2,230.3 269.2,230.3 269.2,236.3 263.2,236.3" fill="rgb(255,210,210)"/>
<polygon points="269.2,230.3 275.2,230.3 275.2,236.3 269.2,236.3" fill="rgb(255,220,220)"/>
<polygon points="275.2,230.3 281.2,230.3 281.2,236.3 275.2,236.3" fill="rgb(254,134,134)"/>
<polygon points="291.2,230.3 297.2,230.3 297.2,236.3 291.2,236.3" fill="rgb(255,185,185)"/>
<polygon points="297.2,230.3 303.2,230.3 303.2,236.3 297.2,236.3" fill="rgb(226,226,255)"/>
<polygon points="303.2,230.3 309.2,230.3 309.2,236.3 303.2,236.3" fill="rgb(255,186,186)"/>
<polygon points="309.2,230.3 315.2,230.3 315.2,236.3 309.2,236.3" fill="rgb(255,103,103)"/>
<polygon points="315.2,230.3 321.2,230.3 321.2,236.3 315.2,236.3" fill="rgb(255,218,218)"/>
<polygon points="321.2,230.3 327.2,230.3 327.2,236.3 321.2,236.3" fill="rgb(254,236,236)"/>
<polygon points="327.2,230.3 333.2,230.3 333.2,236.3 327.2,236.3" fill="rgb(249,249,255)"/>
<polygon points="333.2,230.3 339.2,230.3 339.2,236.3 333.2,236.3" fill="rgb(255,157,157)"/>
<polygon points="141.2,236.3 149.2,236.3 149.2,242.3 141.2,242.3" fill="rgb(216,179,101)"/><text xml:space="preserve" x="145.2" y="242.133" font-family="Calibri" font-size="7.5" fill="rgb(0,0,0)" text-anchor="middle">14</text>
<polygon points="149.2,236.3 157.2,236.3 157.2,242.3 149.2,242.3" fill="rgb(156,207,203)"/><text xml:space="preserve" x="153.2" y="242.133" font-family="Calibri" font-size="7.5" fill="rgb(0,0,0)" text-anchor="middle">3</text>
<polygon points="157.2,236.3 165.2,236.3 165.2,242.3 157.2,242.3" fill="rgb(216,179,101)"/><text xml:space="preserve" x="161.2" y="242.133" font-family="Calibri" font-size="7.5" fill="rgb(0,0,0)" text-anchor="middle">14</text>
<polygon points="175.2,236.3 181.2,236.3 181.2,242.3 175.2,242.3" fill="rgb(255,228,228)"/>
<polygon points="181.2,236.3 187.2,236.3 187.2,242.3 181.2,242.3" fill="rgb(255,254,254)"/>
<polygon points="187.2,236.3 193.2,236.3 193.2,242.3 187.2,242.3" fill="rgb(255,182,182)"/>
<polygon points="193.2,236.3 199.2,236.3 199.2,242.3 193.2,242.3" fill="rgb(255,231,231)"/>
<polygon points="199.2,236.3 205.2,236.3 205.2,242.3 199.2,242.3" fill="rgb(229,229,255)"/>
<polygon points="205.2,236.3 211.2,236.3 211.2,242.3 205.2,242.3" fill="rgb(255,248,248)"/>
<polygon points="211.2,236.3 217.2,236.3 217.2,242.3 211.2,242.3" fill="rgb(254,184,184)"/>
<polygon points="217.2,236.3 223.2,236.3 223.2,242.3 217.2,242.3" fill="rgb(255,145,145)"/>
<polygon points="233.2,236.3 239.2,236.3 239.2,242.3 233.2,242.3" fill="rgb(233,233,255)"/>
<polygon points="239.2,236.3 245.2,236.3 245.2,242.3 239.2,242.3" fill="rgb(180,180,255)"/>
<polygon points="245.2,236.3 251.2,236.3 251.2,242.3 245.2,242.3" fill="rgb(220,220,255)"/>
<polygon points="251.2,236.3 257.2,236.3 257.2,242.3 251.2,242.3" fill="rgb(154,154,255)"/>
<polygon points="257.2,236.3 263.2,236.3 263.2,242.3 257.2,242.3" fill="rgb(164,164,255)"/>
<polygon points="263.2,236.3 269.2,236.3 269.2,242.3 263.2,242.3" fill="rgb(227,227,255)"/>
<polygon points="269.2,236.3 275.2,236.3 275.2,242.3 269.2,242.3" fill="rgb(255,192,192)"/>
<polygon points="275.2,236.3 281.2,236.3 281.2,242.3 275.2,242.3" fill="rgb(255,105,105)"/>
<polygon points="291.2,236.3 297.2,236.3 297.2,242.3 291.2,242.3" fill="rgb(255,241,241)"/>
<polygon points="297.2,236.3 303.2,236.3 303.2,242.3 297.2,242.3" fill="rgb(243,243,255)"/>
<polygon points="303.2,236.3 309.2,236.3 309.2,242.3 303.2,242.3" fill="rgb(255,248,248)"/>
<polygon points="309.2,236.3 315.2,236.3 315.2,242.3 309.2,242.3" fill="rgb(255,251,251)"/>
<polygon points="315.2,236.3 321.2,236.3 321.2,242.3 315.2,242.3" fill="rgb(241,241,255)"/>
<polygon points="321.2,236.3 327.2,236.3 327.2,242.3 321.2,242.3" fill="rgb(186,186,255)"/>
<polygon points="327.2,236.3 333.2,236.3 333.2,242.3 327.2,242.3" fill="rgb(191,191,255)"/>
<polygon points="333.2,236.3 339.2,236.3 339.2,242.3 333.2,242.3" fill="rgb(255,204,204)"/>
<polygon points="141.2,242.3 149.2,242.3 149.2,248.3 141.2,248.3" fill="rgb(216,179,101)"/><text xml:space="preserve" x="145.2" y="248.133" font-family="Calibri" font-size="7.5" fill="rgb(0,0,0)" text-anchor="middle">14</text>
<polygon points="149.2,242.3 157.2,242.3 157.2,248.3 149.2,248.3" fill="rgb(156,207,203)"/><text xml:space="preserve" x="153.2" y="248.133" font-family="Calibri" font-size="7.5" fill="rgb(0,0,0)" text-anchor="middle">3</text>
<polygon points="157.2,242.3 165.2,242.3 165.2,248.3 157.2,248.3" fill="rgb(216,179,101)"/><text xml:space="preserve" x="161.2" y="248.133" font-family="Calibri" font-size="7.5" fill="rgb(0,0,0)" text-anchor="middle">14</text>
<polygon points="175.2,242.3 181.2,242.3 181.2,248.3 175.2,248.3" fill="rgb(254,223,223)"/>
<polygon points="181.2,242.3 187.2,242.3 187.2,248.3 181.2,248.3" fill="rgb(255,233,233)"/>
<polygon points="187.2,242.3 193.2,242.3 193.2,248.3 187.2,248.3" fill="rgb(255,236,236)"/>
<polygon points="193.2,242.3 199.2,242.3 199.2,248.3 193.2,248.3" fill="rgb(254,212,212)"/>
<polygon points="199.2,242.3 205.2,242.3 205.2,248.3 199.2,248.3" fill="rgb(250,250,255)"/>
<polygon points="205.2,242.3 211.2,242.3 211.2,248.3 205.2,248.3" fill="rgb(255,194,194)"/>
<polygon points="211.2,242.3 217.2,242.3 217.2,248.3 211.2,248.3" fill="rgb(230,230,255)"/>
<polygon points="217.2,242.3 223.2,242.3 223.2,248.3 217.2,248.3" fill="rgb(224,224,255)"/>
<polygon points="233.2,242.3 239.2,242.3 239.2,248.3 233.2,248.3" fill="rgb(252,252,255)"/>
<polygon points="239.2,242.3 245.2,242.3 245.2,248.3 239.2,248.3" fill="rgb(188,188,255)"/>
<polygon points="245.2,242.3 251.2,242.3 251.2,248.3 245.2,248.3" fill="rgb(126,126,255)"/>
<polygon points="251.2,242.3 257.2,242.3 257.2,248.3 251.2,248.3" fill="rgb(180,180,255)"/>
<polygon points="257.2,242.3 263.2,242.3 263.2,248.3 257.2,248.3" fill="rgb(169,169,255)"/>
<polygon points="263.2,242.3 269.2,242.3 269.2,248.3 263.2,248.3" fill="rgb(255,193,193)"/>
<polygon points="269.2,242.3 275.2,242.3 275.2,248.3 269.2,248.3" fill="rgb(255,232,232)"/>
<polygon points="275.2,242.3 281.2,242.3 281.2,248.3 275.2,248.3" fill="rgb(255,145,145)"/>
<polygon points="291.2,242.3 297.2,242.3 297.2,248.3 291.2,248.3" fill="rgb(255,242,242)"/>
<polygon points="297.2,242.3 303.2,242.3 303.2,248.3 297.2,248.3" fill="rgb(188,188,255)"/>
<polygon points="303.2,242.3 309.2,242.3 309.2,248.3 303.2,248.3" fill="rgb(241,241,255)"/>
<polygon points="309.2,242.3 315.2,242.3 315.2,248.3 309.2,248.3" fill="rgb(255,219,219)"/>
<polygon points="315.2,242.3 321.2,242.3 321.2,248.3 315.2,248.3" fill="rgb(253,253,255)"/>
<polygon points="321.2,242.3 327.2,242.3 327.2,248.3 321.2,248.3" fill="rgb(255,220,220)"/>
<polygon points="327.2,242.3 333.2,242.3 333.2,248.3 327.2,248.3" fill="rgb(254,248,248)"/>
<polygon points="333.2,242.3 339.2,242.3 339.2,248.3 333.2,248.3" fill="rgb(244,244,255)"/>
<polygon points="141.2,248.3 149.2,248.3 149.2,254.3 141.2,254.3" fill="rgb(216,179,101)"/><text xml:space="preserve" x="145.2" y="254.133" font-family="Calibri" font-size="7.5" fill="rgb(0,0,0)" text-anchor="middle">14</text>
<polygon points="149.2,248.3 157.2,248.3 157.2,254.3 149.2,254.3" fill="rgb(156,207,203)"/><text xml:space="preserve" x="153.2" y="254.133" font-family="Calibri" font-size="7.5" fill="rgb(0,0,0)" text-anchor="middle">3</text>
<polygon points="157.2,248.3 165.2,248.3 165.2,254.3 157.2,254.3" fill="rgb(216,179,101)"/><text xml:space="preserve" x="161.2" y="254.133" font-family="Calibri" font-size="7.5" fill="rgb(0,0,0)" text-anchor="middle">14</text>
<polygon points="175.2,248.3 181.2,248.3 181.2,254.3 175.2,254.3" fill="rgb(255,211,211)"/>
<polygon points="181.2,248.3 187.2,248.3 187.2,254.3 181.2,254.3" fill="rgb(255,241,241)"/>
<polygon points="187.2,248.3 193.2,248.3 193.2,254.3 187.2,254.3" fill="rgb(255,250,250)"/>
<polygon points="193.2,248.3 199.2,248.3 199.2,254.3 193.2,254.3" fill="rgb(255,226,226)"/>
<polygon points="199.2,248.3 205.2,248.3 205.2,254.3 199.2,254.3" fill="rgb(206,206,255)"/>
<polygon points="205.2,248.3 211.2,248.3 211.2,254.3 205.2,254.3" fill="rgb(229,229,255)"/>
<polygon points="211.2,248.3 217.2,248.3 217.2,254.3 211.2,254.3" fill="rgb(255,185,185)"/>
<polygon points="217.2,248.3 223.2,248.3 223.2,254.3 217.2,254.3" fill="rgb(255,182,182)"/>
<polygon points="233.2,248.3 239.2,248.3 239.2,254.3 233.2,254.3" fill="rgb(213,213,255)"/>
<polygon points="239.2,248.3 245.2,248.3 245.2,254.3 239.2,254.3" fill="rgb(185,185,255)"/>
<polygon points="245.2,248.3 251.2,248.3 251.2,254.3 245.2,254.3" fill="rgb(133,133,255)"/>
<polygon points="251.2,248.3 257.2,248.3 257.2,254.3 251.2,254.3" fill="rgb(110,110,255)"/>
<polygon points="257.2,248.3 263.2,248.3 263.2,254.3 257.2,254.3" fill="rgb(165,165,255)"/>
<polygon points="263.2,248.3 269.2,248.3 269.2,254.3 263.2,254.3" fill="rgb(255,211,211)"/>
<polygon points="269.2,248.3 275.2,248.3 275.2,254.3 269.2,254.3" fill="rgb(255,186,186)"/>
<polygon points="275.2,248.3 281.2,248.3 281.2,254.3 275.2,254.3" fill="rgb(255,71,71)"/>
<polygon points="291.2,248.3 297.2,248.3 297.2,254.3 291.2,254.3" fill="rgb(255,240,240)"/>
<polygon points="297.2,248.3 303.2,248.3 303.2,254.3 297.2,254.3" fill="rgb(194,194,255)"/>
<polygon points="303.2,248.3 309.2,248.3 309.2,254.3 303.2,254.3" fill="rgb(255,246,246)"/>
<polygon points="309.2,248.3 315.2,248.3 315.2,254.3 309.2,254.3" fill="rgb(255,169,169)"/>
<polygon points="315.2,248.3 321.2,248.3 321.2,254.3 315.2,254.3" fill="rgb(234,234,255)"/>
<polygon points="321.2,248.3 327.2,248.3 327.2,254.3 321.2,254.3" fill="rgb(255,232,232)"/>
<polygon points="327.2,248.3 333.2,248.3 333.2,254.3 327.2,254.3" fill="rgb(255,252,252)"/>
<polygon points="333.2,248.3 339.2,248.3 339.2,254.3 333.2,254.3" fill="rgb(255,133,133)"/>
<polygon points="141.2,254.3 149.2,254.3 149.2,260.3 141.2,260.3" fill="rgb(216,179,101)"/><text xml:space="preserve" x="145.2" y="260.133" font-family="Calibri" font-size="7.5" fill="rgb(0,0,0)" text-anchor="middle">14</text>
<polygon points="149.2,254.3 157.2,254.3 157.2,260.3 149.2,260.3" fill="rgb(156,207,203)"/><text xml:space="preserve" x="153.2" y="260.133" font-family="Calibri" font-size="7.5" fill="rgb(0,0,0)" text-anchor="middle">3</text>
<polygon points="157.2,254.3 165.2,254.3 165.2,260.3 157.2,260.3" fill="rgb(216,179,101)"/><text xml:space="preserve" x="161.2" y="260.133" font-family="Calibri" font-size="7.5" fill="rgb(0,0,0)" text-anchor="middle">14</text>
<polygon points="175.2,254.3 181.2,254.3 181.2,260.3 175.2,260.3" fill="rgb(255,184,184)"/>
<polygon points="181.2,254.3 187.2,254.3 187.2,260.3 181.2,260.3" fill="rgb(255,211,211)"/>
<polygon points="187.2,254.3 193.2,254.3 193.2,260.3 187.2,260.3" fill="rgb(254,219,219)"/>
<polygon points="193.2,254.3 199.2,254.3 199.2,260.3 193.2,260.3" fill="rgb(255,168,168)"/>
<polygon points="199.2,254.3 205.2,254.3 205.2,260.3 199.2,260.3" fill="rgb(231,231,255)"/>
<polygon points="205.2,254.3 211.2,254.3 211.2,260.3 205.2,260.3" fill="rgb(180,180,255)"/>
<polygon points="211.2,254.3 217.2,254.3 217.2,260.3 211.2,260.3" fill="rgb(229,229,255)"/>
<polygon points="217.2,254.3 223.2,254.3 223.2,260.3 217.2,260.3" fill="rgb(255,221,221)"/>
<polygon points="233.2,254.3 239.2,254.3 239.2,260.3 233.2,260.3" fill="rgb(234,234,255)"/>
<polygon points="239.2,254.3 245.2,254.3 245.2,260.3 239.2,260.3" fill="rgb(173,173,255)"/>
<polygon points="245.2,254.3 251.2,254.3 251.2,260.3 245.2,260.3" fill="rgb(171,171,255)"/>
<polygon points="251.2,254.3 257.2,254.3 257.2,260.3 251.2,260.3" fill="rgb(145,145,255)"/>
<polygon points="257.2,254.3 263.2,254.3 263.2,260.3 257.2,260.3" fill="rgb(166,166,255)"/>
<polygon points="263.2,254.3 269.2,254.3 269.2,260.3 263.2,260.3" fill="rgb(254,211,211)"/>
<polygon points="269.2,254.3 275.2,254.3 275.2,260.3 269.2,260.3" fill="rgb(255,186,186)"/>
<polygon points="275.2,254.3 281.2,254.3 281.2,260.3 275.2,260.3" fill="rgb(255,146,146)"/>
<polygon points="291.2,254.3 297.2,254.3 297.2,260.3 291.2,260.3" fill="rgb(255,254,254)"/>
<polygon points="297.2,254.3 303.2,254.3 303.2,260.3 297.2,260.3" fill="rgb(195,195,255)"/>
<polygon points="303.2,254.3 309.2,254.3 309.2,260.3 303.2,260.3" fill="rgb(242,242,255)"/>
<polygon points="309.2,254.3 315.2,254.3 315.2,260.3 309.2,260.3" fill="rgb(255,155,155)"/>
<polygon points="315.2,254.3 321.2,254.3 321.2,260.3 315.2,260.3" fill="rgb(249,249,255)"/>
<polygon points="321.2,254.3 327.2,254.3 327.2,260.3 321.2,260.3" fill="rgb(255,244,244)"/>
<polygon points="327.2,254.3 333.2,254.3 333.2,260.3 327.2,260.3" fill="rgb(255,248,248)"/>
<polygon points="333.2,254.3 339.2,254.3 339.2,260.3 333.2,260.3" fill="rgb(255,201,201)"/>
<polygon points="141.2,260.3 149.2,260.3 149.2,266.3 141.2,266.3" fill="rgb(216,179,101)"/><text xml:space="preserve" x="145.2" y="266.133" font-family="Calibri" font-size="7.5" fill="rgb(0,0,0)" text-anchor="middle">14</text>
<polygon points="149.2,260.3 157.2,260.3 157.2,266.3 149.2,266.3" fill="rgb(156,207,203)"/><text xml:space="preserve" x="153.2" y="266.133" font-family="Calibri" font-size="7.5" fill="rgb(0,0,0)" text-anchor="middle">3</text>
<polygon points="157.2,260.3 165.2,260.3 165.2,266.3 157.2,266.3" fill="rgb(216,179,101)"/><text xml:space="preserve" x="161.2" y="266.133" font-family="Calibri" font-size="7.5" fill="rgb(0,0,0)" text-anchor="middle">14</text>
<polygon points="175.2,260.3 181.2,260.3 181.2,266.3 175.2,266.3" fill="rgb(255,194,194)"/>
<polygon points="181.2,260.3 187.2,260.3 187.2,266.3 181.2,266.3" fill="rgb(255,216,216)"/>
<polygon points="187.2,260.3 193.2,260.3 193.2,266.3 187.2,266.3" fill="rgb(255,223,223)"/>
<polygon points="193.2,260.3 199.2,260.3 199.2,266.3 193.2,266.3" fill="rgb(255,156,156)"/>
<polygon points="199.2,260.3 205.2,260.3 205.2,266.3 199.2,266.3" fill="rgb(221,221,255)"/>
<polygon points="205.2,260.3 211.2,260.3 211.2,266.3 205.2,266.3" fill="rgb(202,202,255)"/>
<polygon points="211.2,260.3 217.2,260.3 217.2,266.3 211.2,266.3" fill="rgb(255,239,239)"/>
<polygon points="217.2,260.3 223.2,260.3 223.2,266.3 217.2,266.3" fill="rgb(255,185,185)"/>
<polygon points="233.2,260.3 239.2,260.3 239.2,266.3 233.2,266.3" fill="rgb(241,241,255)"/>
<polygon points="239.2,260.3 245.2,260.3 245.2,266.3 239.2,266.3" fill="rgb(192,192,255)"/>
<polygon points="245.2,260.3 251.2,260.3 251.2,266.3 245.2,266.3" fill="rgb(199,199,255)"/>
<polygon points="251.2,260.3 257.2,260.3 257.2,266.3 251.2,266.3" fill="rgb(158,158,255)"/>
<polygon points="257.2,260.3 263.2,260.3 263.2,266.3 257.2,266.3" fill="rgb(178,178,255)"/>
<polygon points="263.2,260.3 269.2,260.3 269.2,266.3 263.2,266.3" fill="rgb(255,212,212)"/>
<polygon points="269.2,260.3 275.2,260.3 275.2,266.3 269.2,266.3" fill="rgb(255,189,189)"/>
<polygon points="275.2,260.3 281.2,260.3 281.2,266.3 275.2,266.3" fill="rgb(255,150,150)"/>
<polygon points="291.2,260.3 297.2,260.3 297.2,266.3 291.2,266.3" fill="rgb(255,236,236)"/>
<polygon points="297.2,260.3 303.2,260.3 303.2,266.3 297.2,266.3" fill="rgb(221,221,255)"/>
<polygon points="303.2,260.3 309.2,260.3 309.2,266.3 303.2,266.3" fill="rgb(255,222,222)"/>
<polygon points="309.2,260.3 315.2,260.3 315.2,266.3 309.2,266.3" fill="rgb(255,132,132)"/>
<polygon points="315.2,260.3 321.2,260.3 321.2,266.3 315.2,266.3" fill="rgb(255,246,246)"/>
<polygon points="321.2,260.3 327.2,260.3 327.2,266.3 321.2,266.3" fill="rgb(243,243,255)"/>
<polygon points="327.2,260.3 333.2,260.3 333.2,266.3 327.2,266.3" fill="rgb(255,253,253)"/>
<polygon points="333.2,260.3 339.2,260.3 339.2,266.3 333.2,266.3" fill="rgb(255,204,204)"/>
<polygon points="141.2,266.3 149.2,266.3 149.2,272.3 141.2,272.3" fill="rgb(216,179,101)"/><text xml:space="preserve" x="145.2" y="272.133" font-family="Calibri" font-size="7.5" fill="rgb(0,0,0)" text-anchor="middle">14</text>
<polygon points="149.2,266.3 157.2,266.3 157.2,272.3 149.2,272.3" fill="rgb(156,207,203)"/><text xml:space="preserve" x="153.2" y="272.133" font-family="Calibri" font-size="7.5" fill="rgb(0,0,0)" text-anchor="middle">3</text>
<polygon points="157.2,266.3 165.2,266.3 165.2,272.3 157.2,272.3" fill="rgb(216,179,101)"/><text xml:space="preserve" x="161.2" y="272.133" font-family="Calibri" font-size="7.5" fill="rgb(0,0,0)" text-anchor="middle">14</text>
<polygon points="175.2,266.3 181.2,266.3 181.2,272.3 175.2,272.3" fill="rgb(255,186,186)"/>
<polygon points="181.2,266.3 187.2,266.3 187.2,272.3 181.2,272.3" fill="rgb(236,236,255)"/>
<polygon points="187.2,266.3 193.2,266.3 193.2,272.3 187.2,272.3" fill="rgb(231,231,255)"/>
<polygon points="193.2,266.3 199.2,266.3 199.2,272.3 193.2,272.3" fill="rgb(255,250,250)"/>
<polygon points="199.2,266.3 205.2,266.3 205.2,272.3 199.2,272.3" fill="rgb(232,232,255)"/>
<polygon points="205.2,266.3 211.2,266.3 211.2,272.3 205.2,272.3" fill="rgb(255,233,233)"/>
<polygon points="211.2,266.3 217.2,266.3 217.2,272.3 211.2,272.3" fill="rgb(255,234,234)"/>
<polygon points="217.2,266.3 223.2,266.3 223.2,272.3 217.2,272.3" fill="rgb(255,234,234)"/>
<polygon points="233.2,266.3 239.2,266.3 239.2,272.3 233.2,272.3" fill="rgb(245,245,255)"/>
<polygon points="239.2,266.3 245.2,266.3 245.2,272.3 239.2,272.3" fill="rgb(166,166,255)"/>
<polygon points="245.2,266.3 251.2,266.3 251.2,272.3 245.2,272.3" fill="rgb(162,162,255)"/>
<polygon points="251.2,266.3 257.2,266.3 257.2,272.3 251.2,272.3" fill="rgb(165,165,255)"/>
<polygon points="257.2,266.3 263.2,266.3 263.2,272.3 257.2,272.3" fill="rgb(187,187,255)"/>
<polygon points="263.2,266.3 269.2,266.3 269.2,272.3 263.2,272.3" fill="rgb(255,208,208)"/>
<polygon points="269.2,266.3 275.2,266.3 275.2,272.3 269.2,272.3" fill="rgb(255,199,199)"/>
<polygon points="275.2,266.3 281.2,266.3 281.2,272.3 275.2,272.3" fill="rgb(255,166,166)"/>
<polygon points="291.2,266.3 297.2,266.3 297.2,272.3 291.2,272.3" fill="rgb(254,214,214)"/>
<polygon points="297.2,266.3 303.2,266.3 303.2,272.3 297.2,272.3" fill="rgb(202,202,255)"/>
<polygon points="303.2,266.3 309.2,266.3 309.2,272.3 303.2,272.3" fill="rgb(255,226,226)"/>
<polygon points="309.2,266.3 315.2,266.3 315.2,272.3 309.2,272.3" fill="rgb(254,199,199)"/>
<polygon points="315.2,266.3 321.2,266.3 321.2,272.3 315.2,272.3" fill="rgb(254,254,255)"/>
<polygon points="321.2,266.3 327.2,266.3 327.2,272.3 321.2,272.3" fill="rgb(255,238,238)"/>
<polygon points="327.2,266.3 333.2,266.3 333.2,272.3 327.2,272.3" fill="rgb(253,253,255)"/>
<polygon points="333.2,266.3 339.2,266.3 339.2,272.3 333.2,272.3" fill="rgb(255,173,173)"/>
<polygon points="141.2,272.3 149.2,272.3 149.2,278.3 141.2,278.3" fill="rgb(216,179,101)"/><text xml:space="preserve" x="145.2" y="278.133" font-family="Calibri" font-size="7.5" fill="rgb(0,0,0)" text-anchor="middle">14</text>
<polygon points="149.2,272.3 157.2,272.3 157.2,278.3 149.2,278.3" fill="rgb(156,207,203)"/><text xml:space="preserve" x="153.2" y="278.133" font-family="Calibri" font-size="7.5" fill="rgb(0,0,0)" text-anchor="middle">3</text>
<polygon points="157.2,272.3 165.2,272.3 165.2,278.3 157.2,278.3" fill="rgb(216,179,101)"/><text xml:space="preserve" x="161.2" y="278.133" font-family="Calibri" font-size="7.5" fill="rgb(0,0,0)" text-anchor="middle">14</text>
<polygon points="175.2,272.3 181.2,272.3 181.2,278.3 175.2,278.3" fill="rgb(255,182,182)"/>
<polygon points="181.2,272.3 187.2,272.3 187.2,278.3 181.2,278.3" fill="rgb(255,252,252)"/>
<polygon points="187.2,272.3 193.2,272.3 193.2,278.3 187.2,278.3" fill="rgb(255,199,199)"/>
<polygon points="193.2,272.3 199.2,272.3 199.2,278.3 193.2,278.3" fill="rgb(255,164,164)"/>
<polygon points="199.2,272.3 205.2,272.3 205.2,278.3 199.2,278.3" fill="rgb(233,233,255)"/>
<polygon points="205.2,272.3 211.2,272.3 211.2,278.3 205.2,278.3" fill="rgb(255,138,138)"/>
<polygon points="211.2,272.3 217.2,272.3 217.2,278.3 211.2,278.3" fill="rgb(255,71,71)"/>
<polygon points="217.2,272.3 223.2,272.3 223.2,278.3 217.2,278.3" fill="rgb(255,215,215)"/>
<polygon points="233.2,272.3 239.2,272.3 239.2,278.3 233.2,278.3" fill="rgb(249,249,255)"/>
<polygon points="239.2,272.3 245.2,272.3 245.2,278.3 239.2,278.3" fill="rgb(156,156,255)"/>
<polygon points="245.2,272.3 251.2,272.3 251.2,278.3 245.2,278.3" fill="rgb(202,202,255)"/>
<polygon points="251.2,272.3 257.2,272.3 257.2,278.3 251.2,278.3" fill="rgb(159,159,255)"/>
<polygon points="257.2,272.3 263.2,272.3 263.2,278.3 257.2,278.3" fill="rgb(158,158,255)"/>
<polygon points="263.2,272.3 269.2,272.3 269.2,278.3 263.2,278.3" fill="rgb(255,218,218)"/>
<polygon points="269.2,272.3 275.2,272.3 275.2,278.3 269.2,278.3" fill="rgb(254,139,139)"/>
<polygon points="275.2,272.3 281.2,272.3 281.2,278.3 275.2,278.3" fill="rgb(255,166,166)"/>
<polygon points="291.2,272.3 297.2,272.3 297.2,278.3 291.2,278.3" fill="rgb(255,238,238)"/>
<polygon points="297.2,272.3 303.2,272.3 303.2,278.3 297.2,278.3" fill="rgb(225,225,255)"/>
<polygon points="303.2,272.3 309.2,272.3 309.2,278.3 303.2,278.3" fill="rgb(255,234,234)"/>
<polygon points="309.2,272.3 315.2,272.3 315.2,278.3 309.2,278.3" fill="rgb(255,229,229)"/>
<polygon points="315.2,272.3 321.2,272.3 321.2,278.3 315.2,278.3" fill="rgb(199,199,255)"/>
<polygon points="321.2,272.3 327.2,272.3 327.2,278.3 321.2,278.3" fill="rgb(254,246,246)"/>
<polygon points="327.2,272.3 333.2,272.3 333.2,278.3 327.2,278.3" fill="rgb(255,124,124)"/>
<polygon points="333.2,272.3 339.2,272.3 339.2,278.3 333.2,278.3" fill="rgb(224,224,255)"/>
<polygon points="141.2,278.3 149.2,278.3 149.2,284.3 141.2,284.3" fill="rgb(220,188,121)"/><text xml:space="preserve" x="145.2" y="284.133" font-family="Calibri" font-size="7.5" fill="rgb(0,0,0)" text-anchor="middle">13</text>
<polygon points="149.2,278.3 157.2,278.3 157.2,284.3 149.2,284.3" fill="rgb(156,207,203)"/><text xml:space="preserve" x="153.2" y="284.133" font-family="Calibri" font-size="7.5" fill="rgb(0,0,0)" text-anchor="middle">3</text>
<polygon points="157.2,278.3 165.2,278.3 165.2,284.3 157.2,284.3" fill="rgb(216,179,101)"/><text xml:space="preserve" x="161.2" y="284.133" font-family="Calibri" font-size="7.5" fill="rgb(0,0,0)" text-anchor="middle">14</text>
<polygon points="175.2,278.3 181.2,278.3 181.2,284.3 175.2,284.3" fill="rgb(255,224,224)"/>
<polygon points="181.2,278.3 187.2,278.3 187.2,284.3 181.2,284.3" fill="rgb(255,187,187)"/>
<polygon points="187.2,278.3 193.2,278.3 193.2,284.3 187.2,284.3" fill="rgb(254,130,130)"/>
<polygon points="193.2,278.3 199.2,278.3 199.2,284.3 193.2,284.3" fill="rgb(255,86,86)"/>
<polygon points="199.2,278.3 205.2,278.3 205.2,284.3 199.2,284.3" fill="rgb(255,231,231)"/>
<polygon points="205.2,278.3 211.2,278.3 211.2,284.3 205.2,284.3" fill="rgb(254,140,140)"/>
<polygon points="211.2,278.3 217.2,278.3 217.2,284.3 211.2,284.3" fill="rgb(254,164,164)"/>
<polygon points="217.2,278.3 223.2,278.3 223.2,284.3 217.2,284.3" fill="rgb(214,214,255)"/>
<polygon points="233.2,278.3 239.2,278.3 239.2,284.3 233.2,284.3" fill="rgb(243,243,255)"/>
<polygon points="239.2,278.3 245.2,278.3 245.2,284.3 239.2,284.3" fill="rgb(176,176,255)"/>
<polygon points="245.2,278.3 251.2,278.3 251.2,284.3 245.2,284.3" fill="rgb(185,185,255)"/>
<polygon points="251.2,278.3 257.2,278.3 257.2,284.3 251.2,284.3" fill="rgb(153,153,255)"/>
<polygon points="257.2,278.3 263.2,278.3 263.2,284.3 257.2,284.3" fill="rgb(167,167,255)"/>
<polygon points="263.2,278.3 269.2,278.3 269.2,284.3 263.2,284.3" fill="rgb(255,107,107)"/>
<polygon points="269.2,278.3 275.2,278.3 275.2,284.3 269.2,284.3" fill="rgb(255,219,219)"/>
<polygon points="275.2,278.3 281.2,278.3 281.2,284.3 275.2,284.3" fill="rgb(255,193,193)"/>
<polygon points="291.2,278.3 297.2,278.3 297.2,284.3 291.2,284.3" fill="rgb(255,233,233)"/>
<polygon points="297.2,278.3 303.2,278.3 303.2,284.3 297.2,284.3" fill="rgb(227,227,255)"/>
<polygon points="303.2,278.3 309.2,278.3 309.2,284.3 303.2,284.3" fill="rgb(255,226,226)"/>
<polygon points="309.2,278.3 315.2,278.3 315.2,284.3 309.2,284.3" fill="rgb(255,223,223)"/>
<polygon points="315.2,278.3 321.2,278.3 321.2,284.3 315.2,284.3" fill="rgb(218,218,255)"/>
<polygon points="321.2,278.3 327.2,278.3 327.2,284.3 321.2,284.3" fill="rgb(255,168,168)"/>
<polygon points="327.2,278.3 333.2,278.3 333.2,284.3 327.2,284.3" fill="rgb(243,243,255)"/>
<polygon points="333.2,278.3 339.2,278.3 339.2,284.3 333.2,284.3" fill="rgb(233,233,255)"/>
<polygon points="141.2,284.3 149.2,284.3 149.2,290.3 141.2,290.3" fill="rgb(220,188,121)"/><text xml:space="preserve" x="145.2" y="290.133" font-family="Calibri" font-size="7.5" fill="rgb(0,0,0)" text-anchor="middle">13</text>
<polygon points="149.2,284.3 157.2,284.3 157.2,290.3 149.2,290.3" fill="rgb(156,207,203)"/><text xml:space="preserve" x="153.2" y="290.133" font-family="Calibri" font-size="7.5" fill="rgb(0,0,0)" text-anchor="middle">3</text>
<polygon points="157.2,284.3 165.2,284.3 165.2,290.3 157.2,290.3" fill="rgb(216,179,101)"/><text xml:space="preserve" x="161.2" y="290.133" font-family="Calibri" font-size="7.5" fill="rgb(0,0,0)" text-anchor="middle">14</text>
<polygon points="175.2,284.3 181.2,284.3 181.2,290.3 175.2,290.3" fill="rgb(255,186,186)"/>
<polygon points="181.2,284.3 187.2,284.3 187.2,290.3 181.2,290.3" fill="rgb(254,247,247)"/>
<polygon points="187.2,284.3 193.2,284.3 193.2,290.3 187.2,290.3" fill="rgb(255,151,151)"/>
<polygon points="193.2,284.3 199.2,284.3 199.2,290.3 193.2,290.3" fill="rgb(255,43,43)"/>
<polygon points="199.2,284.3 205.2,284.3 205.2,290.3 199.2,290.3" fill="rgb(255,247,247)"/>
<polygon points="205.2,284.3 211.2,284.3 211.2,290.3 205.2,290.3" fill="rgb(255,199,199)"/>
<polygon points="211.2,284.3 217.2,284.3 217.2,290.3 211.2,290.3" fill="rgb(255,250,250)"/>
<polygon points="217.2,284.3 223.2,284.3 223.2,290.3 217.2,290.3" fill="rgb(254,222,222)"/>
<polygon points="233.2,284.3 239.2,284.3 239.2,290.3 233.2,290.3" fill="rgb(235,235,255)"/>
<polygon points="239.2,284.3 245.2,284.3 245.2,290.3 239.2,290.3" fill="rgb(182,182,255)"/>
<polygon points="245.2,284.3 251.2,284.3 251.2,290.3 245.2,290.3" fill="rgb(180,180,255)"/>
<polygon points="251.2,284.3 257.2,284.3 257.2,290.3 251.2,290.3" fill="rgb(166,166,255)"/>
<polygon points="257.2,284.3 263.2,284.3 263.2,290.3 257.2,290.3" fill="rgb(189,189,255)"/>
<polygon points="263.2,284.3 269.2,284.3 269.2,290.3 263.2,290.3" fill="rgb(255,195,195)"/>
<polygon points="269.2,284.3 275.2,284.3 275.2,290.3 269.2,290.3" fill="rgb(255,149,149)"/>
<polygon points="275.2,284.3 281.2,284.3 281.2,290.3 275.2,290.3" fill="rgb(255,196,196)"/>
<polygon points="291.2,284.3 297.2,284.3 297.2,290.3 291.2,290.3" fill="rgb(255,221,221)"/>
<polygon points="297.2,284.3 303.2,284.3 303.2,290.3 297.2,290.3" fill="rgb(224,224,255)"/>
<polygon points="303.2,284.3 309.2,284.3 309.2,290.3 303.2,290.3" fill="rgb(255,160,160)"/>
<polygon points="309.2,284.3 315.2,284.3 315.2,290.3 309.2,290.3" fill="rgb(255,123,123)"/>
<polygon points="315.2,284.3 321.2,284.3 321.2,290.3 315.2,290.3" fill="rgb(232,232,255)"/>
<polygon points="321.2,284.3 327.2,284.3 327.2,290.3 321.2,290.3" fill="rgb(255,237,237)"/>
<polygon points="327.2,284.3 333.2,284.3 333.2,290.3 327.2,290.3" fill="rgb(254,254,255)"/>
<polygon points="333.2,284.3 339.2,284.3 339.2,290.3 333.2,290.3" fill="rgb(255,186,186)"/>
<polygon points="141.2,212.3 165.2,212.3 165.2,290.3 141.2,290.3" fill="none" stroke="black" stroke-width="1"/>
<polygon points="175.2,212.3 223.2,212.3 223.2,290.3 175.2,290.3" fill="none" stroke="black" stroke-width="1"/>
<polygon points="233.2,212.3 281.2,212.3 281.2,290.3 233.2,290.3" fill="none" stroke="black" stroke-width="1"/>
<polygon points="291.2,212.3 339.2,212.3 339.2,290.3 291.2,290.3" fill="none" stroke="black" stroke-width="1"/>
<text xml:space="preserve" x="190.6" y="322.633" font-family="Calibri" font-size="6" text-anchor="middle">moduleID</text>
<polygon points="80.6,330.3 100.6,330.3 100.6,350.3 80.6,350.3" fill="rgb(250,250,250)"/><polygon points="80.6,330.3 100.6,330.3 100.6,350.3 80.6,350.3" fill="none" stroke="black" stroke-width="1"/><text xml:space="preserve" x="90.6" y="343.133" font-family="Calibri" font-size="7.5" fill="rgb(0,0,0)" text-anchor="middle">-2.0</text>
<polygon points="100.6,330.3 120.6,330.3 120.6,350.3 100.6,350.3" fill="rgb(156,210,205)"/><polygon points="100.6,330.3 120.6,330.3 120.6,350.3 100.6,350.3" fill="none" stroke="black" stroke-width="1"/><text xml:space="preserve" x="110.6" y="343.133" font-family="Calibri" font-size="7.5" fill="rgb(0,0,0)" text-anchor="middle">-0.4</text>
<polygon points="120.6,330.3 140.6,330.3 140.6,350.3 120.6,350.3" fill="rgb(116,191,184)"/><polygon points="120.6,330.3 140.6,330.3 140.6,350.3 120.6,350.3" fill="none" stroke="black" stroke-width="1"/><text xml:space="preserve" x="130.6" y="343.133" font-family="Calibri" font-size="7.5" fill="rgb(0,0,0)" text-anchor="middle">1.2</text>
<polygon points="140.6,330.3 160.6,330.3 160.6,350.3 140.6,350.3" fill="rgb(152,206,201)"/><polygon points="140.6,330.3 160.6,330.3 160.6,350.3 140.6,350.3" fill="none" stroke="black" stroke-width="1"/><text xml:space="preserve" x="150.6" y="343.133" font-family="Calibri" font-size="7.5" fill="rgb(0,0,0)" text-anchor="middle">2.8</text>
<polygon points="160.6,330.3 180.6,330.3 180.6,350.3 160.6,350.3" fill="rgb(187,220,217)"/><polygon points="160.6,330.3 180.6,330.3 180.6,350.3 160.6,350.3" fill="none" stroke="black" stroke-width="1"/><text xml:space="preserve" x="170.6" y="343.133" font-family="Calibri" font-size="7.5" fill="rgb(0,0,0)" text-anchor="middle">4.4</text>
<polygon points="180.6,330.3 200.6,330.3 200.6,350.3 180.6,350.3" fill="rgb(222,235,234)"/><polygon points="180.6,330.3 200.6,330.3 200.6,350.3 180.6,350.3" fill="none" stroke="black" stroke-width="1"/><text xml:space="preserve" x="190.6" y="343.133" font-family="Calibri" font-size="7.5" fill="rgb(0,0,0)" text-anchor="middle">6.0</text>
<polygon points="200.6,330.3 220.6,330.3 220.6,350.3 200.6,350.3" fill="rgb(242,239,232)"/><polygon points="200.6,330.3 220.6,330.3 220.6,350.3 200.6,350.3" fill="none" stroke="black" stroke-width="1"/><text xml:space="preserve" x="210.6" y="343.133" font-family="Calibri" font-size="7.5" fill="rgb(0,0,0)" text-anchor="middle">7.6</text>
<polygon points="220.6,330.3 240.6,330.3 240.6,350.3 220.6,350.3" fill="rgb(235,224,199)"/><polygon points="220.6,330.3 240.6,330.3 240.6,350.3 220.6,350.3" fill="none" stroke="black" stroke-width="1"/><text xml:space="preserve" x="230.6" y="343.133" font-family="Calibri" font-size="7.5" fill="rgb(0,0,0)" text-anchor="middle">9.2</text>
<polygon points="240.6,330.3 260.6,330.3 260.6,350.3 240.6,350.3" fill="rgb(229,209,166)"/><polygon points="240.6,330.3 260.6,330.3 260.6,350.3 240.6,350.3" fill="none" stroke="black" stroke-width="1"/><text xml:space="preserve" x="250.6" y="343.133" font-family="Calibri" font-size="7.5" fill="rgb(0,0,0)" text-anchor="middle">10.8</text>
<polygon points="260.6,330.3 280.6,330.3 280.6,350.3 260.6,350.3" fill="rgb(222,194,133)"/><polygon points="260.6,330.3 280.6,330.3 280.6,350.3 260.6,350.3" fill="none" stroke="black" stroke-width="1"/><text xml:space="preserve" x="270.6" y="343.133" font-family="Calibri" font-size="7.5" fill="rgb(0,0,0)" text-anchor="middle">12.4</text>
<polygon points="280.6,330.3 300.6,330.3 300.6,350.3 280.6,350.3" fill="rgb(216,179,101)"/><polygon points="280.6,330.3 300.6,330.3 300.6,350.3 280.6,350.3" fill="none" stroke="black" stroke-width="1"/><text xml:space="preserve" x="290.6" y="343.133" font-family="Calibri" font-size="7.5" fill="rgb(0,0,0)" text-anchor="middle">14.0</text>
<text xml:space="preserve" x="190.6" y="382.633" font-family="Calibri" font-size="6" text-anchor="middle">marklevel</text>
<polygon points="80.6,390.3 100.6,390.3 100.6,410.3 80.6,410.3" fill="rgb(0,0,255)"/><polygon points="80.6,390.3 100.6,390.3 100.6,410.3 80.6,410.3" fill="none" stroke="black" stroke-width="1"/><text xml:space="preserve" x="90.6" y="403.133" font-family="Calibri" font-size="7.5" fill="rgb(255,255,255)" text-anchor="middle">-2.0</text>
<polygon points="100.6,390.3 120.6,390.3 120.6,410.3 100.6,410.3" fill="rgb(50,50,255)"/><polygon points="100.6,390.3 120.6,390.3 120.6,410.3 100.6,410.3" fill="none" stroke="black" stroke-width="1"/><text xml:space="preserve" x="110.6" y="403.133" font-family="Calibri" font-size="7.5" fill="rgb(255,255,255)" text-anchor="middle">-1.6</text>
<polygon points="120.6,390.3 140.6,390.3 140.6,410.3 120.6,410.3" fill="rgb(102,102,255)"/><polygon points="120.6,390.3 140.6,390.3 140.6,410.3 120.6,410.3" fill="none" stroke="black" stroke-width="1"/><text xml:space="preserve" x="130.6" y="403.133" font-family="Calibri" font-size="7.5" fill="rgb(255,255,255)" text-anchor="middle">-1.2</text>
<polygon points="140.6,390.3 160.6,390.3 160.6,410.3 140.6,410.3" fill="rgb(153,153,255)"/><polygon points="140.6,390.3 160.6,390.3 160.6,410.3 140.6,410.3" fill="none" stroke="black" stroke-width="1"/><text xml:space="preserve" x="150.6" y="403.133" font-family="Calibri" font-size="7.5" fill="rgb(0,0,0)" text-anchor="middle">-0.8</text>
<polygon points="160.6,390.3 180.6,390.3 180.6,410.3 160.6,410.3" fill="rgb(204,204,255)"/><polygon points="160.6,390.3 180.6,390.3 180.6,410.3 160.6,410.3" fill="none" stroke="black" stroke-width="1"/><text xml:space="preserve" x="170.6" y="403.133" font-family="Calibri" font-size="7.5" fill="rgb(0,0,0)" text-anchor="middle">-0.4</text>
<polygon points="180.6,390.3 200.6,390.3 200.6,410.3 180.6,410.3" fill="rgb(255,255,255)"/><polygon points="180.6,390.3 200.6,390.3 200.6,410.3 180.6,410.3" fill="none" stroke="black" stroke-width="1"/><text xml:space="preserve" x="190.6" y="403.133" font-family="Calibri" font-size="7.5" fill="rgb(0,0,0)" text-anchor="middle">0.0</text>
<polygon points="200.6,390.3 220.6,390.3 220.6,410.3 200.6,410.3" fill="rgb(255,204,204)"/><polygon points="200.6,390.3 220.6,390.3 220.6,410.3 200.6,410.3" fill="none" stroke="black" stroke-width="1"/><text xml:space="preserve" x="210.6" y="403.133" font-family="Calibri" font-size="7.5" fill="rgb(0,0,0)" text-anchor="middle">0.4</text>
<polygon points="220.6,390.3 240.6,390.3 240.6,410.3 220.6,410.3" fill="rgb(255,153,153)"/><polygon points="220.6,390.3 240.6,390.3 240.6,410.3 220.6,410.3" fill="none" stroke="black" stroke-width="1"/><text xml:space="preserve" x="230.6" y="403.133" font-family="Calibri" font-size="7.5" fill="rgb(0,0,0)" text-anchor="middle">0.8</text>
<polygon points="240.6,390.3 260.6,390.3 260.6,410.3 240.6,410.3" fill="rgb(255,102,102)"/><polygon points="240.6,390.3 260.6,390.3 260.6,410.3 240.6,410.3" fill="none" stroke="black" stroke-width="1"/><text xml:space="preserve" x="250.6" y="403.133" font-family="Calibri" font-size="7.5" fill="rgb(0,0,0)" text-anchor="middle">1.2</text>
<polygon points="260.6,390.3 280.6,390.3 280.6,410.3 260.6,410.3" fill="rgb(255,50,50)"/><polygon points="260.6,390.3 280.6,390.3 280.6,410.3 260.6,410.3" fill="none" stroke="black" stroke-width="1"/><text xml:space="preserve" x="270.6" y="403.133" font-family="Calibri" font-size="7.5" fill="rgb(255,255,255)" text-anchor="middle">1.6</text>
<polygon points="280.6,390.3 300.6,390.3 300.6,410.3 280.6,410.3" fill="rgb(255,0,0)"/><polygon points="280.6,390.3 300.6,390.3 300.6,410.3 280.6,410.3" fill="none" stroke="black" stroke-width="1"/><text xml:space="preserve" x="290.6" y="403.133" font-family="Calibri" font-size="7.5" fill="rgb(255,255,255)" text-anchor="middle">2.0</text>
</svg>
