<?xml version="1.0" standalone="no"?><!DOCTYPE svg PUBLIC "-//W3C//DTD SVG 1.1//EN" "http://www.w3.org/Graphics/SVG/1.1/DTD/svg11.dtd">
<svg width="401" height="424.3" version="1.1" xmlns="http://www.w3.org/2000/svg">
<text xml:space="preserve" x="157" y="217.633" font-family="Calibri" font-size="6" text-anchor="end">2010002N04Rik</text>
<text xml:space="preserve" x="157" y="223.633" font-family="Calibri" font-size="6" text-anchor="end">Myh10</text>
<text xml:space="preserve" x="157" y="229.633" font-family="Calibri" font-size="6" text-anchor="end">Nid1</text>
<text xml:space="preserve" x="157" y="235.633" font-family="Calibri" font-size="6" text-anchor="end">Mcam</text>
<text xml:space="preserve" x="157" y="241.633" font-family="Calibri" font-size="6" text-anchor="end">Arhgap28</text>
<text xml:space="preserve" x="157" y="247.633" font-family="Calibri" font-size="6" text-anchor="end">BC027663</text>
<text xml:space="preserve" x="157" y="253.633" font-family="Calibri" font-size="6" text-anchor="end">Gng8</text>
<text xml:space="preserve" x="157" y="259.633" font-family="Calibri" font-size="6" text-anchor="end">Lass6</text>
<text xml:space="preserve" x="157" y="265.633" font-family="Calibri" font-size="6" text-anchor="end">Nid2</text>
<text xml:space="preserve" x="157" y="271.633" font-family="Calibri" font-size="6" text-anchor="end">Bcar3</text>
<text xml:space="preserve" x="157" y="277.633" font-family="Calibri" font-size="6" text-anchor="end">Vdac1</text>
<text xml:space="preserve" x="157" y="283.633" font-family="Calibri" font-size="6" text-anchor="end">Fbxl3</text>
<text xml:space="preserve" x="167.333" y="208.3" font-family="Calibri" font-size="6" transform="rotate(270 167.333 208.3)">ips</text>
<text xml:space="preserve" x="175.333" y="208.3" font-family="Calibri" font-size="6" transform="rotate(270 175.333 208.3)">pips</text>
<text xml:space="preserve" x="183.333" y="208.3" font-family="Calibri" font-size="6" transform="rotate(270 183.333 208.3)">mef</text>
<text xml:space="preserve" x="200.333" y="208.3" font-family="Calibri" font-size="6" transform="rotate(270 200.333 208.3)">ips_H3K4me3iPS</text>
<text xml:space="preserve" x="206.333" y="208.3" font-family="Calibri" font-size="6" transform="rotate(270 206.333 208.3)">ips_H3K9aciPS</text>
<text xml:space="preserve" x="212.333" y="208.3" font-family="Calibri" font-size="6" transform="rotate(270 212.333 208.3)">ips_H3K14aciPS</text>
<text xml:space="preserve" x="218.333" y="208.3" font-family="Calibri" font-size="6" transform="rotate(270 218.333 208.3)">ips_H3K18aciPS</text>
<text xml:space="preserve" x="224.333" y="208.3" font-family="Calibri" font-size="6" transform="rotate(270 224.333 208.3)">ips_H3K79me2iPS</text>
<text xml:space="preserve" x="230.333" y="208.3" font-family="Calibri" font-size="6" transform="rotate(270 230.333 208.3)">ips_H3K9me2iPS</text>
<text xml:space="preserve" x="236.333" y="208.3" font-family="Calibri" font-size="6" transform="rotate(270 236.333 208.3)">ips_H3K9me3iPS</text>
<text xml:space="preserve" x="242.333" y="208.3" font-family="Calibri" font-size="6" transform="rotate(270 242.333 208.3)">ips_H3K27me3iPS</text>
<text xml:space="preserve" x="258.333" y="208.3" font-family="Calibri" font-size="6" transform="rotate(270 258.333 208.3)">pips_H3K4me3pips</text>
<text xml:space="preserve" x="264.333" y="208.3" font-family="Calibri" font-size="6" transform="rotate(270 264.333 208.3)">pips_H3K9acpips</text>
<text xml:space="preserve" x="270.333" y="208.3" font-family="Calibri" font-size="6" transform="rotate(270 270.333 208.3)">pips_H3K14acpips</text>
<text xml:space="preserve" x="276.333" y="208.3" font-family="Calibri" font-size="6" transform="rotate(270 276.333 208.3)">pips_H3K18acpips</text>
<text xml:space="preserve" x="282.333" y="208.3" font-family="Calibri" font-size="6" transform="rotate(270 282.333 208.3)">pips_H3K79me2pips</text>
<text xml:space="preserve" x="288.333" y="208.3" font-family="Calibri" font-size="6" transform="rotate(270 288.333 208.3)">pips_H3K9me2pips</text>
<text xml:space="preserve" x="294.333" y="208.3" font-family="Calibri" font-size="6" transform="rotate(270 294.333 208.3)">pips_H3K9me3pips</text>
<text xml:space="preserve" x="300.333" y="208.3" font-family="Calibri" font-size="6" transform="rotate(270 300.333 208.3)">pips_H3K27me3pips</text>
<text xml:space="preserve" x="316.333" y="208.3" font-family="Calibri" font-size="6" transform="rotate(270 316.333 208.3)">mef_H3K4me3mef</text>
<text xml:space="preserve" x="322.333" y="208.3" font-family="Calibri" font-size="6" transform="rotate(270 322.333 208.3)">mef_H3K9acmef</text>
<text xml:space="preserve" x="328.333" y="208.3" font-family="Calibri" font-size="6" transform="rotate(270 328.333 208.3)">mef_H3K14acmef</text>
<text xml:space="preserve" x="334.333" y="208.3" font-family="Calibri" font-size="6" transform="rotate(270 334.333 208.3)">mef_H3K18acmef</text>
<text xml:space="preserve" x="340.333" y="208.3" font-family="Calibri" font-size="6" transform="rotate(270 340.333 208.3)">mef_H3K79me2mef</text>
<text xml:space="preserve" x="346.333" y="208.3" font-family="Calibri" font-size="6" transform="rotate(270 346.333 208.3)">mef_H3K9me2mef</text>
<text xml:space="preserve" x="352.333" y="208.3" font-family="Calibri" font-size="6" transform="rotate(270 352.333 208.3)">mef_H3K9me3mef</text>
<text xml:space="preserve" x="358.333" y="208.3" font-family="Calibri" font-size="6" transform="rotate(270 358.333 208.3)">mef_H3K27me3mef</text>
<polygon points="161,212.3 169,212.3 169,218.3 161,218.3" fill="rgb(216,179,101)"/><text xml:space="preserve" x="165" y="218.133" font-family="Calibri" font-size="7.5" fill="rgb(0,0,0)" text-anchor="middle">14</text>
<polygon points="169,212.3 177,212.3 177,218.3 169,218.3" fill="rgb(228,207,162)"/><text xml:space="preserve" x="173" y="218.133" font-family="Calibri" font-size="7.5" fill="rgb(0,0,0)" text-anchor="middle">11</text>
<polygon points="177,212.3 185,212.3 185,218.3 177,218.3" fill="rgb(245,245,245)"/><text xml:space="preserve" x="181" y="218.133" font-family="Calibri" font-size="7.5" fill="rgb(0,0,0)" text-anchor="middle">7</text>
<polygon points="195,212.3 201,212.3 201,218.3 195,218.3" fill="rgb(255,208,208)"/>
<polygon points="201,212.3 207,212.3 207,218.3 201,218.3" fill="rgb(255,251,251)"/>
<polygon points="207,212.3 213,212.3 213,218.3 207,218.3" fill="rgb(255,167,167)"/>
<polygon points="213,212.3 219,212.3 219,218.3 213,218.3" fill="rgb(255,190,190)"/>
<polygon points="219,212.3 225,212.3 225,218.3 219,218.3" fill="rgb(248,248,255)"/>
<polygon points="225,212.3 231,212.3 231,218.3 225,218.3" fill="rgb(255,243,243)"/>
<polygon points="231,212.3 237,212.3 237,218.3 231,218.3" fill="rgb(240,240,255)"/>
<polygon points="237,212.3 243,212.3 243,218.3 237,218.3" fill="rgb(255,233,233)"/>
<polygon points="253,212.3 259,212.3 259,218.3 253,218.3" fill="rgb(207,207,255)"/>
<polygon points="259,212.3 265,212.3 265,218.3 259,218.3" fill="rgb(215,215,255)"/>
<polygon points="265,212.3 271,212.3 271,218.3 265,218.3" fill="rgb(255,233,233)"/>
<polygon points="271,212.3 277,212.3 277,218.3 271,218.3" fill="rgb(211,211,255)"/>
<polygon points="277,212.3 283,212.3 283,218.3 277,218.3" fill="rgb(211,211,255)"/>
<polygon points="283,212.3 289,212.3 289,218.3 283,218.3" fill="rgb(255,208,208)"/>
<polygon points="289,212.3 295,212.3 295,218.3 289,218.3" fill="rgb(255,185,185)"/>
<polygon points="295,212.3 301,212.3 301,218.3 295,218.3" fill="rgb(236,236,255)"/>
<polygon points="311,212.3 317,212.3 317,218.3 311,218.3" fill="rgb(255,202,202)"/>
<polygon points="317,212.3 323,212.3 323,218.3 317,218.3" fill="rgb(255,204,204)"/>
<polygon points="323,212.3 329,212.3 329,218.3 323,218.3" fill="rgb(255,152,152)"/>
<polygon points="329,212.3 335,212.3 335,218.3 329,218.3" fill="rgb(255,142,142)"/>
<polygon points="335,212.3 341,212.3 341,218.3 335,218.3" fill="rgb(255,231,231)"/>
<polygon points="341,212.3 347,212.3 347,218.3 341,218.3" fill="rgb(255,226,226)"/>
<polygon points="347,212.3 353,212.3 353,218.3 347,218.3" fill="rgb(245,245,255)"/>
<polygon points="353,212.3 359,212.3 359,218.3 353,218.3" fill="rgb(255,218,218)"/>
<polygon points="161,218.3 169,218.3 169,224.3 161,224.3" fill="rgb(216,179,101)"/><text xml:space="preserve" x="165" y="224.133" font-family="Calibri" font-size="7.5" fill="rgb(0,0,0)" text-anchor="middle">14</text>
<polygon points="169,218.3 177,218.3 177,224.3 169,224.3" fill="rgb(228,207,162)"/><text xml:space="preserve" x="173" y="224.133" font-family="Calibri" font-size="7.5" fill="rgb(0,0,0)" text-anchor="middle">11</text>
<polygon points="177,218.3 185,218.3 185,224.3 177,224.3" fill="rgb(245,245,245)"/><text xml:space="preserve" x="181" y="224.133" font-family="Calibri" font-size="7.5" fill="rgb(0,0,0)" text-anchor="middle">7</text>
<polygon points="195,218.3 201,218.3 201,224.3 195,224.3" fill="rgb(255,215,215)"/>
<polygon points="201,218.3 207,218.3 207,224.3 201,224.3" fill="rgb(255,246,246)"/>
<polygon points="207,218.3 213,218.3 213,224.3 207,224.3" fill="rgb(255,251,251)"/>
<polygon points="213,218.3 219,218.3 219,224.3 213,224.3" fill="rgb(254,253,253)"/>
<polygon points="219,218.3 225,218.3 225,224.3 219,224.3" fill="rgb(254,254,255)"/>
<polygon points="225,218.3 231,218.3 231,224.3 225,224.3" fill="rgb(255,242,242)"/>
<polygon points="231,218.3 237,218.3 237,224.3 231,224.3" fill="rgb(255,252,252)"/>
<polygon points="237,218.3 243,218.3 243,224.3 237,224.3" fill="rgb(255,240,240)"/>
<polygon points="253,218.3 259,218.3 259,224.3 253,224.3" fill="rgb(214,214,255)"/>
<polygon points="259,218.3 265,218.3 265,224.3 259,224.3" fill="rgb(204,204,255)"/>
<polygon points="265,218.3 271,218.3 271,224.3 265,224.3" fill="rgb(186,186,255)"/>
<polygon points="271,218.3 277,218.3 277,224.3 271,224.3" fill="rgb(189,189,255)"/>
<polygon points="277,218.3 283,218.3 283,224.3 277,224.3" fill="rgb(184,184,255)"/>
<polygon points="283,218.3 289,218.3 289,224.3 283,224.3" fill="rgb(255,225,225)"/>
<polygon points="289,218.3 295,218.3 295,224.3 289,224.3" fill="rgb(255,158,158)"/>
<polygon points="295,218.3 301,218.3 301,224.3 295,224.3" fill="rgb(255,173,173)"/>
<polygon points="311,218.3 317,218.3 317,224.3 311,224.3" fill="rgb(255,196,196)"/>
<polygon points="317,218.3 323,218.3 323,224.3 317,224.3" fill="rgb(255,207,207)"/>
<polygon points="323,218.3 329,218.3 329,224.3 323,224.3" fill="rgb(255,195,195)"/>
<polygon points="329,218.3 335,218.3 335,224.3 329,224.3" fill="rgb(255,170,170)"/>
<polygon points="335,218.3 341,218.3 341,224.3 335,224.3" fill="rgb(255,213,213)"/>
<polygon points="341,218.3 347,218.3 347,224.3 341,224.3" fill="rgb(223,223,255)"/>
<polygon points="347,218.3 353,218.3 353,224.3 347,224.3" fill="rgb(233,233,255)"/>
<polygon points="353,218.3 359,218.3 359,224.3 353,224.3" fill="rgb(244,244,255)"/>
<polygon points="161,224.3 169,224.3 169,230.3 161,230.3" fill="rgb(216,179,101)"/><text xml:space="preserve" x="165" y="230.133" font-family="Calibri" font-size="7.5" fill="rgb(0,0,0)" text-anchor="middle">14</text>
<polygon points="169,224.3 177,224.3 177,230.3 169,230.3" fill="rgb(228,207,162)"/><text xml:space="preserve" x="173" y="230.133" font-family="Calibri" font-size="7.5" fill="rgb(0,0,0)" text-anchor="middle">11</text>
<polygon points="177,224.3 185,224.3 185,230.3 177,230.3" fill="rgb(245,245,245)"/><text xml:space="preserve" x="181" y="230.133" font-family="Calibri" font-size="7.5" fill="rgb(0,0,0)" text-anchor="middle">7</text>
<polygon points="195,224.3 201,224.3 201,230.3 195,230.3" fill="rgb(255,235,235)"/>
<polygon points="201,224.3 207,224.3 207,230.3 201,230.3" fill="rgb(255,240,240)"/>
<polygon points="207,224.3 213,224.3 213,230.3 207,230.3" fill="rgb(255,213,213)"/>
<polygon points="213,224.3 219,224.3 219,230.3 213,230.3" fill="rgb(255,213,213)"/>
<polygon points="219,224.3 225,224.3 225,230.3 219,230.3" fill="rgb(230,230,255)"/>
<polygon points="225,224.3 231,224.3 231,230.3 225,230.3" fill="rgb(255,233,233)"/>
<polygon points="231,224.3 237,224.3 237,230.3 231,230.3" fill="rgb(196,196,255)"/>
<polygon points="237,224.3 243,224.3 243,230.3 237,230.3" fill="rgb(255,248,248)"/>
<polygon points="253,224.3 259,224.3 259,230.3 253,230.3" fill="rgb(247,247,255)"/>
<polygon points="259,224.3 265,224.3 265,230.3 259,230.3" fill="rgb(184,184,255)"/>
<polygon points="265,224.3 271,224.3 271,230.3 265,230.3" fill="rgb(254,226,226)"/>
<polygon points="271,224.3 277,224.3 277,230.3 271,230.3" fill="rgb(238,238,255)"/>
<polygon points="277,224.3 283,224.3 283,230.3 277,230.3" fill="rgb(164,164,255)"/>
<polygon points="283,224.3 289,224.3 289,230.3 283,230.3" fill="rgb(236,236,255)"/>
<polygon points="289,224.3 295,224.3 295,230.3 289,230.3" fill="rgb(255,239,239)"/>
<polygon points="295,224.3 301,224.3 301,230.3 295,230.3" fill="rgb(255,215,215)"/>
<polygon points="311,224.3 317,224.3 317,230.3 311,230.3" fill="rgb(255,208,208)"/>
<polygon points="317,224.3 323,224.3 323,230.3 317,230.3" fill="rgb(254,235,235)"/>
<polygon points="323,224.3 329,224.3 329,230.3 323,230.3" fill="rgb(255,189,189)"/>
<polygon points="329,224.3 335,224.3 335,230.3 329,230.3" fill="rgb(255,146,146)"/>
<polygon points="335,224.3 341,224.3 341,230.3 335,230.3" fill="rgb(236,236,255)"/>
<polygon points="341,224.3 347,224.3 347,230.3 341,230.3" fill="rgb(225,225,255)"/>
<polygon points="347,224.3 353,224.3 353,230.3 347,230.3" fill="rgb(199,199,255)"/>
<polygon points="353,224.3 359,224.3 359,230.3 353,230.3" fill="rgb(177,177,255)"/>
<polygon points="161,230.3 169,230.3 169,236.3 161,236.3" fill="rgb(216,179,101)"/><text xml:space="preserve" x="165" y="236.133" font-family="Calibri" font-size="7.5" fill="rgb(0,0,0)" text-anchor="middle">14</text>
<polygon points="169,230.3 177,230.3 177,236.3 169,236.3" fill="rgb(228,207,162)"/><text xml:space="preserve" x="173" y="236.133" font-family="Calibri" font-size="7.5" fill="rgb(0,0,0)" text-anchor="middle">11</text>
<polygon points="177,230.3 185,230.3 185,236.3 177,236.3" fill="rgb(245,245,245)"/><text xml:space="preserve" x="181" y="236.133" font-family="Calibri" font-size="7.5" fill="rgb(0,0,0)" text-anchor="middle">7</text>
<polygon points="195,230.3 201,230.3 201,236.3 195,236.3" fill="rgb(254,225,225)"/>
<polygon points="201,230.3 207,230.3 207,236.3 201,236.3" fill="rgb(253,253,255)"/>
<polygon points="207,230.3 213,230.3 213,236.3 207,236.3" fill="rgb(255,163,163)"/>
<polygon points="213,230.3 219,230.3 219,236.3 213,236.3" fill="rgb(255,114,114)"/>
<polygon points="219,230.3 225,230.3 225,236.3 219,236.3" fill="rgb(216,216,255)"/>
<polygon points="225,230.3 231,230.3 231,236.3 225,236.3" fill="rgb(255,221,221)"/>
<polygon points="231,230.3 237,230.3 237,236.3 231,236.3" fill="rgb(255,161,161)"/>
<polygon points="237,230.3 243,230.3 243,236.3 237,236.3" fill="rgb(255,158,158)"/>
<polygon points="253,230.3 259,230.3 259,236.3 253,236.3" fill="rgb(251,251,255)"/>
<polygon points="259,230.3 265,230.3 265,236.3 259,236.3" fill="rgb(219,219,255)"/>
<polygon points="265,230.3 271,230.3 271,236.3 265,236.3" fill="rgb(255,238,238)"/>
<polygon points="271,230.3 277,230.3 277,236.3 271,236.3" fill="rgb(251,251,255)"/>
<polygon points="277,230.3 283,230.3 283,236.3 277,236.3" fill="rgb(197,197,255)"/>
<polygon points="283,230.3 289,230.3 289,236.3 283,236.3" fill="rgb(205,205,255)"/>
<polygon points="289,230.3 295,230.3 295,236.3 289,236.3" fill="rgb(255,230,230)"/>
<polygon points="295,230.3 301,230.3 301,236.3 295,236.3" fill="rgb(255,150,150)"/>
<polygon points="311,230.3 317,230.3 317,236.3 311,236.3" fill="rgb(255,221,221)"/>
<polygon points="317,230.3 323,230.3 323,236.3 317,236.3" fill="rgb(255,227,227)"/>
<polygon points="323,230.3 329,230.3 329,236.3 323,236.3" fill="rgb(255,192,192)"/>
<polygon points="329,230.3 335,230.3 335,236.3 329,236.3" fill="rgb(254,133,133)"/>
<polygon points="335,230.3 341,230.3 341,236.3 335,236.3" fill="rgb(255,249,249)"/>
<polygon points="341,230.3 347,230.3 347,236.3 341,236.3" fill="rgb(216,216,255)"/>
<polygon points="347,230.3 353,230.3 353,236.3 347,236.3" fill="rgb(223,223,255)"/>
<polygon points="353,230.3 359,230.3 359,236.3 353,236.3" fill="rgb(241,241,255)"/>
<polygon points="161,236.3 169,236.3 169,242.3 161,242.3" fill="rgb(216,179,101)"/><text xml:space="preserve" x="165" y="242.133" font-family="Calibri" font-size="7.5" fill="rgb(0,0,0)" text-anchor="middle">14</text>
<polygon points="169,236.3 177,236.3 177,242.3 169,242.3" fill="rgb(228,207,162)"/><text xml:space="preserve" x="173" y="242.133" font-family="Calibri" font-size="7.5" fill="rgb(0,0,0)" text-anchor="middle">11</text>
<polygon points="177,236.3 185,236.3 185,242.3 177,242.3" fill="rgb(245,245,245)"/><text xml:space="preserve" x="181" y="242.133" font-family="Calibri" font-size="7.5" fill="rgb(0,0,0)" text-anchor="middle">7</text>
<polygon points="195,236.3 201,236.3 201,242.3 195,242.3" fill="rgb(255,192,192)"/>
<polygon points="201,236.3 207,236.3 207,242.3 201,242.3" fill="rgb(255,211,211)"/>
<polygon points="207,236.3 213,236.3 213,242.3 207,242.3" fill="rgb(255,162,162)"/>
<polygon points="213,236.3 219,236.3 219,242.3 213,242.3" fill="rgb(255,94,94)"/>
<polygon points="219,236.3 225,236.3 225,242.3 219,242.3" fill="rgb(255,242,242)"/>
<polygon points="225,236.3 231,236.3 231,242.3 225,242.3" fill="rgb(236,236,255)"/>
<polygon points="231,236.3 237,236.3 237,242.3 231,242.3" fill="rgb(255,191,191)"/>
<polygon points="237,236.3 243,236.3 243,242.3 237,242.3" fill="rgb(255,230,230)"/>
<polygon points="253,236.3 259,236.3 259,242.3 253,242.3" fill="rgb(255,246,246)"/>
<polygon points="259,236.3 265,236.3 265,242.3 259,242.3" fill="rgb(219,219,255)"/>
<polygon points="265,236.3 271,236.3 271,242.3 265,242.3" fill="rgb(226,226,255)"/>
<polygon points="271,236.3 277,236.3 277,242.3 271,242.3" fill="rgb(255,239,239)"/>
<polygon points="277,236.3 283,236.3 283,242.3 277,242.3" fill="rgb(194,194,255)"/>
<polygon points="283,236.3 289,236.3 289,242.3 283,242.3" fill="rgb(240,240,255)"/>
<polygon points="289,236.3 295,236.3 295,242.3 289,242.3" fill="rgb(255,110,110)"/>
<polygon points="295,236.3 301,236.3 301,242.3 295,242.3" fill="rgb(242,242,255)"/>
<polygon points="311,236.3 317,236.3 317,242.3 311,242.3" fill="rgb(255,192,192)"/>
<polygon points="317,236.3 323,236.3 323,242.3 317,242.3" fill="rgb(255,192,192)"/>
<polygon points="323,236.3 329,236.3 329,242.3 323,242.3" fill="rgb(255,187,187)"/>
<polygon points="329,236.3 335,236.3 335,242.3 329,242.3" fill="rgb(255,80,80)"/>
<polygon points="335,236.3 341,236.3 341,242.3 335,242.3" fill="rgb(255,218,218)"/>
<polygon points="341,236.3 347,236.3 347,242.3 341,242.3" fill="rgb(199,199,255)"/>
<polygon points="347,236.3 353,236.3 353,242.3 347,242.3" fill="rgb(255,243,243)"/>
<polygon points="353,236.3 359,236.3 359,242.3 353,242.3" fill="rgb(255,197,197)"/>
<polygon points="161,242.3 169,242.3 169,248.3 161,248.3" fill="rgb(216,179,101)"/><text xml:space="preserve" x="165" y="248.133" font-family="Calibri" font-size="7.5" fill="rgb(0,0,0)" text-anchor="middle">14</text>
<polygon points="169,242.3 177,242.3 177,248.3 169,248.3" fill="rgb(228,207,162)"/><text xml:space="preserve" x="173" y="248.133" font-family="Calibri" font-size="7.5" fill="rgb(0,0,0)" text-anchor="middle">11</text>
<polygon points="177,242.3 185,242.3 185,248.3 177,248.3" fill="rgb(245,245,245)"/><text xml:space="preserve" x="181" y="248.133" font-family="Calibri" font-size="7.5" fill="rgb(0,0,0)" text-anchor="middle">7</text>
<polygon points="195,242.3 201,242.3 201,248.3 195,248.3" fill="rgb(243,243,255)"/>
<polygon points="201,242.3 207,242.3 207,248.3 201,248.3" fill="rgb(255,238,238)"/>
<polygon points="207,242.3 213,242.3 213,248.3 207,248.3" fill="rgb(255,218,218)"/>
<polygon points="213,242.3 219,242.3 219,248.3 213,248.3" fill="rgb(255,155,155)"/>
<polygon points="219,242.3 225,242.3 225,248.3 219,248.3" fill="rgb(209,209,255)"/>
<polygon points="225,242.3 231,242.3 231,248.3 225,248.3" fill="rgb(250,250,255)"/>
<polygon points="231,242.3 237,242.3 237,248.3 231,248.3" fill="rgb(245,245,255)"/>
<polygon points="237,242.3 243,242.3 243,248.3 237,248.3" fill="rgb(254,206,206)"/>
<polygon points="253,242.3 259,242.3 259,248.3 253,248.3" fill="rgb(229,229,255)"/>
<polygon points="259,242.3 265,242.3 265,248.3 259,248.3" fill="rgb(205,205,255)"/>
<polygon points="265,242.3 271,242.3 271,248.3 265,248.3" fill="rgb(255,243,243)"/>
<polygon points="271,242.3 277,242.3 277,248.3 271,248.3" fill="rgb(255,251,251)"/>
<polygon points="277,242.3 283,242.3 283,248.3 277,248.3" fill="rgb(204,204,255)"/>
<polygon points="283,242.3 289,242.3 289,248.3 283,248.3" fill="rgb(255,191,191)"/>
<polygon points="289,242.3 295,242.3 295,248.3 289,248.3" fill="rgb(255,164,164)"/>
<polygon points="295,242.3 301,242.3 301,248.3 295,248.3" fill="rgb(255,215,215)"/>
<polygon points="311,242.3 317,242.3 317,248.3 311,248.3" fill="rgb(255,201,201)"/>
<polygon points="317,242.3 323,242.3 323,248.3 317,248.3" fill="rgb(254,230,230)"/>
<polygon points="323,242.3 329,242.3 329,248.3 323,248.3" fill="rgb(255,224,224)"/>
<polygon points="329,242.3 335,242.3 335,248.3 329,248.3" fill="rgb(255,159,159)"/>
<polygon points="335,242.3 341,242.3 341,248.3 335,248.3" fill="rgb(255,231,231)"/>
<polygon points="341,242.3 347,242.3 347,248.3 341,248.3" fill="rgb(240,240,255)"/>
<polygon points="347,242.3 353,242.3 353,248.3 347,248.3" fill="rgb(205,205,255)"/>
<polygon points="353,242.3 359,242.3 359,248.3 353,248.3" fill="rgb(240,240,255)"/>
<polygon points="161,248.3 169,248.3 169,254.3 161,254.3" fill="rgb(216,179,101)"/><text xml:space="preserve" x="165" y="254.133" font-family="Calibri" font-size="7.5" fill="rgb(0,0,0)" text-anchor="middle">14</text>
<polygon points="169,248.3 177,248.3 177,254.3 169,254.3" fill="rgb(228,207,162)"/><text xml:space="preserve" x="173" y="254.133" font-family="Calibri" font-size="7.5" fill="rgb(0,0,0)" text-anchor="middle">11</text>
<polygon points="177,248.3 185,248.3 185,254.3 177,254.3" fill="rgb(245,245,245)"/><text xml:space="preserve" x="181" y="254.133" font-family="Calibri" font-size="7.5" fill="rgb(0,0,0)" text-anchor="middle">7</text>
<polygon points="195,248.3 201,248.3 201,254.3 195,254.3" fill="rgb(236,236,255)"/>
<polygon points="201,248.3 207,248.3 207,254.3 201,254.3" fill="rgb(247,247,255)"/>
<polygon points="207,248.3 213,248.3 213,254.3 207,254.3" fill="rgb(255,210,210)"/>
<polygon points="213,248.3 219,248.3 219,254.3 213,254.3" fill="rgb(255,227,227)"/>
<polygon points="219,248.3 225,248.3 225,254.3 219,254.3" fill="rgb(228,228,255)"/>
<polygon points="225,248.3 231,248.3 231,254.3 225,254.3" fill="rgb(213,213,255)"/>
<polygon points="231,248.3 237,248.3 237,254.3 231,254.3" fill="rgb(255,173,173)"/>
<polygon points="237,248.3 243,248.3 243,254.3 237,254.3" fill="rgb(255,127,127)"/>
<polygon points="253,248.3 259,248.3 259,254.3 253,254.3" fill="rgb(233,233,255)"/>
<polygon points="259,248.3 265,248.3 265,254.3 259,254.3" fill="rgb(226,226,255)"/>
<polygon points="265,248.3 271,248.3 271,254.3 265,254.3" fill="rgb(255,236,236)"/>
<polygon points="271,248.3 277,248.3 277,254.3 271,254.3" fill="rgb(247,247,255)"/>
<polygon points="277,248.3 283,248.3 283,254.3 277,254.3" fill="rgb(206,206,255)"/>
<polygon points="283,248.3 289,248.3 289,254.3 283,254.3" fill="rgb(188,188,255)"/>
<polygon points="289,248.3 295,248.3 295,254.3 289,254.3" fill="rgb(255,138,138)"/>
<polygon points="295,248.3 301,248.3 301,254.3 295,254.3" fill="rgb(255,189,189)"/>
<polygon points="311,248.3 317,248.3 317,254.3 311,254.3" fill="rgb(255,236,236)"/>
<polygon points="317,248.3 323,248.3 323,254.3 317,254.3" fill="rgb(255,171,171)"/>
<polygon points="323,248.3 329,248.3 329,254.3 323,254.3" fill="rgb(255,157,157)"/>
<polygon points="329,248.3 335,248.3 335,254.3 329,254.3" fill="rgb(255,151,151)"/>
<polygon points="335,248.3 341,248.3 341,254.3 335,254.3" fill="rgb(255,197,197)"/>
<polygon points="341,248.3 347,248.3 347,254.3 341,254.3" fill="rgb(146,146,255)"/>
<polygon points="347,248.3 353,248.3 353,254.3 347,254.3" fill="rgb(223,223,255)"/>
<polygon points="353,248.3 359,248.3 359,254.3 353,254.3" fill="rgb(243,243,255)"/>
<polygon points="161,254.3 169,254.3 169,260.3 161,260.3" fill="rgb(216,179,101)"/><text xml:space="preserve" x="165" y="260.133" font-family="Calibri" font-size="7.5" fill="rgb(0,0,0)" text-anchor="middle">14</text>
<polygon points="169,254.3 177,254.3 177,260.3 169,260.3" fill="rgb(228,207,162)"/><text xml:space="preserve" x="173" y="260.133" font-family="Calibri" font-size="7.5" fill="rgb(0,0,0)" text-anchor="middle">11</text>
<polygon points="177,254.3 185,254.3 185,260.3 177,260.3" fill="rgb(245,245,245)"/><text xml:space="preserve" x="181" y="260.133" font-family="Calibri" font-size="7.5" fill="rgb(0,0,0)" text-anchor="middle">7</text>
<polygon points="195,254.3 201,254.3 201,260.3 195,260.3" fill="rgb(255,221,221)"/>
<polygon points="201,254.3 207,254.3 207,260.3 201,260.3" fill="rgb(255,238,238)"/>
<polygon points="207,254.3 213,254.3 213,260.3 207,260.3" fill="rgb(255,235,235)"/>
<polygon points="213,254.3 219,254.3 219,260.3 213,260.3" fill="rgb(255,224,224)"/>
<polygon points="219,254.3 225,254.3 225,260.3 219,260.3" fill="rgb(255,251,251)"/>
<polygon points="225,254.3 231,254.3 231,260.3 225,260.3" fill="rgb(246,246,255)"/>
<polygon points="231,254.3 237,254.3 237,260.3 231,260.3" fill="rgb(255,200,200)"/>
<polygon points="237,254.3 243,254.3 243,260.3 237,260.3" fill="rgb(255,174,174)"/>
<polygon points="253,254.3 259,254.3 259,260.3 253,260.3" fill="rgb(235,235,255)"/>
<polygon points="259,254.3 265,254.3 265,260.3 259,260.3" fill="rgb(192,192,255)"/>
<polygon points="265,254.3 271,254.3 271,260.3 265,260.3" fill="rgb(240,240,255)"/>
<polygon points="271,254.3 277,254.3 277,260.3 271,260.3" fill="rgb(174,174,255)"/>
<polygon points="277,254.3 283,254.3 283,260.3 277,260.3" fill="rgb(184,184,255)"/>
<polygon points="283,254.3 289,254.3 289,260.3 283,260.3" fill="rgb(255,215,215)"/>
<polygon points="289,254.3 295,254.3 295,260.3 289,260.3" fill="rgb(255,155,155)"/>
<polygon points="295,254.3 301,254.3 301,260.3 295,260.3" fill="rgb(255,166,166)"/>
<polygon points="311,254.3 317,254.3 317,260.3 311,260.3" fill="rgb(255,196,196)"/>
<polygon points="317,254.3 323,254.3 323,260.3 317,260.3" fill="rgb(255,193,193)"/>
<polygon points="323,254.3 329,254.3 329,260.3 323,260.3" fill="rgb(255,208,208)"/>
<polygon points="329,254.3 335,254.3 335,260.3 329,260.3" fill="rgb(255,168,168)"/>
<polygon points="335,254.3 341,254.3 341,260.3 335,260.3" fill="rgb(254,206,206)"/>
<polygon points="341,254.3 347,254.3 347,260.3 341,260.3" fill="rgb(255,228,228)"/>
<polygon points="347,254.3 353,254.3 353,260.3 347,260.3" fill="rgb(255,254,254)"/>
<polygon points="353,254.3 359,254.3 359,260.3 353,260.3" fill="rgb(235,235,255)"/>
<polygon points="161,260.3 169,260.3 169,266.3 161,266.3" fill="rgb(220,188,121)"/><text xml:space="preserve" x="165" y="266.133" font-family="Calibri" font-size="7.5" fill="rgb(0,0,0)" text-anchor="middle">13</text>
<polygon points="169,260.3 177,260.3 177,266.3 169,266.3" fill="rgb(228,207,162)"/><text xml:space="preserve" x="173" y="266.133" font-family="Calibri" font-size="7.5" fill="rgb(0,0,0)" text-anchor="middle">11</text>
<polygon points="177,260.3 185,260.3 185,266.3 177,266.3" fill="rgb(245,245,245)"/><text xml:space="preserve" x="181" y="266.133" font-family="Calibri" font-size="7.5" fill="rgb(0,0,0)" text-anchor="middle">7</text>
<polygon points="195,260.3 201,260.3 201,266.3 195,266.3" fill="rgb(255,107,107)"/>
<polygon points="201,260.3 207,260.3 207,266.3 201,266.3" fill="rgb(255,98,98)"/>
<polygon points="207,260.3 213,260.3 213,266.3 207,266.3" fill="rgb(255,66,66)"/>
<polygon points="213,260.3 219,260.3 219,266.3 213,266.3" fill="rgb(255,0,0)"/>
<polygon points="219,260.3 225,260.3 225,266.3 219,266.3" fill="rgb(255,159,159)"/>
<polygon points="225,260.3 231,260.3 231,266.3 225,266.3" fill="rgb(255,233,233)"/>
<polygon points="231,260.3 237,260.3 237,266.3 231,266.3" fill="rgb(169,169,255)"/>
<polygon points="237,260.3 243,260.3 243,266.3 237,266.3" fill="rgb(219,219,255)"/>
<polygon points="253,260.3 259,260.3 259,266.3 253,266.3" fill="rgb(255,197,197)"/>
<polygon points="259,260.3 265,260.3 265,266.3 259,266.3" fill="rgb(224,224,255)"/>
<polygon points="265,260.3 271,260.3 271,266.3 265,266.3" fill="rgb(240,240,255)"/>
<polygon points="271,260.3 277,260.3 277,266.3 271,266.3" fill="rgb(213,213,255)"/>
<polygon points="277,260.3 283,260.3 283,266.3 277,266.3" fill="rgb(182,182,255)"/>
<polygon points="283,260.3 289,260.3 289,266.3 283,266.3" fill="rgb(254,227,227)"/>
<polygon points="289,260.3 295,260.3 295,266.3 289,266.3" fill="rgb(255,163,163)"/>
<polygon points="295,260.3 301,260.3 301,266.3 295,266.3" fill="rgb(255,130,130)"/>
<polygon points="311,260.3 317,260.3 317,266.3 311,266.3" fill="rgb(255,177,177)"/>
<polygon points="317,260.3 323,260.3 323,266.3 317,266.3" fill="rgb(255,214,214)"/>
<polygon points="323,260.3 329,260.3 329,266.3 323,266.3" fill="rgb(255,143,143)"/>
<polygon points="329,260.3 335,260.3 335,266.3 329,266.3" fill="rgb(255,125,125)"/>
<polygon points="335,260.3 341,260.3 341,266.3 335,266.3" fill="rgb(245,245,255)"/>
<polygon points="341,260.3 347,260.3 347,266.3 341,266.3" fill="rgb(255,242,242)"/>
<polygon points="347,260.3 353,260.3 353,266.3 347,266.3" fill="rgb(212,212,255)"/>
<polygon points="353,260.3 359,260.3 359,266.3 353,266.3" fill="rgb(255,249,249)"/>
<polygon points="161,266.3 169,266.3 169,272.3 161,272.3" fill="rgb(220,188,121)"/><text xml:space="preserve" x="165" y="272.133" font-family="Calibri" font-size="7.5" fill="rgb(0,0,0)" text-anchor="middle">13</text>
<polygon points="169,266.3 177,266.3 177,272.3 169,272.3" fill="rgb(228,207,162)"/><text xml:space="preserve" x="173" y="272.133" font-family="Calibri" font-size="7.5" fill="rgb(0,0,0)" text-anchor="middle">11</text>
<polygon points="177,266.3 185,266.3 185,272.3 177,272.3" fill="rgb(245,245,245)"/><text xml:space="preserve" x="181" y="272.133" font-family="Calibri" font-size="7.5" fill="rgb(0,0,0)" text-anchor="middle">7</text>
<polygon points="195,266.3 201,266.3 201,272.3 195,272.3" fill="rgb(255,192,192)"/>
<polygon points="201,266.3 207,266.3 207,272.3 201,272.3" fill="rgb(255,178,178)"/>
<polygon points="207,266.3 213,266.3 213,272.3 207,272.3" fill="rgb(255,156,156)"/>
<polygon points="213,266.3 219,266.3 219,272.3 213,272.3" fill="rgb(255,55,55)"/>
<polygon points="219,266.3 225,266.3 225,272.3 219,272.3" fill="rgb(255,201,201)"/>
<polygon points="225,266.3 231,266.3 231,272.3 225,272.3" fill="rgb(217,217,255)"/>
<polygon points="231,266.3 237,266.3 237,272.3 231,272.3" fill="rgb(211,211,255)"/>
<polygon points="237,266.3 243,266.3 243,272.3 237,272.3" fill="rgb(255,191,191)"/>
<polygon points="253,266.3 259,266.3 259,272.3 253,272.3" fill="rgb(250,250,255)"/>
<polygon points="259,266.3 265,266.3 265,272.3 259,272.3" fill="rgb(209,209,255)"/>
<polygon points="265,266.3 271,266.3 271,272.3 265,272.3" fill="rgb(255,235,235)"/>
<polygon points="271,266.3 277,266.3 277,272.3 271,272.3" fill="rgb(222,222,255)"/>
<polygon points="277,266.3 283,266.3 283,272.3 277,272.3" fill="rgb(206,206,255)"/>
<polygon points="283,266.3 289,266.3 289,272.3 283,272.3" fill="rgb(173,173,255)"/>
<polygon points="289,266.3 295,266.3 295,272.3 289,272.3" fill="rgb(255,214,214)"/>
<polygon points="295,266.3 301,266.3 301,272.3 295,272.3" fill="rgb(255,172,172)"/>
<polygon points="311,266.3 317,266.3 317,272.3 311,272.3" fill="rgb(255,171,171)"/>
<polygon points="317,266.3 323,266.3 323,272.3 317,272.3" fill="rgb(255,193,193)"/>
<polygon points="323,266.3 329,266.3 329,272.3 323,272.3" fill="rgb(255,191,191)"/>
<polygon points="329,266.3 335,266.3 335,272.3 329,272.3" fill="rgb(255,147,147)"/>
<polygon points="335,266.3 341,266.3 341,272.3 335,272.3" fill="rgb(254,213,213)"/>
<polygon points="341,266.3 347,266.3 347,272.3 341,272.3" fill="rgb(195,195,255)"/>
<polygon points="347,266.3 353,266.3 353,272.3 347,272.3" fill="rgb(170,170,255)"/>
<polygon points="353,266.3 359,266.3 359,272.3 353,272.3" fill="rgb(245,245,255)"/>
<polygon points="161,272.3 169,272.3 169,278.3 161,278.3" fill="rgb(220,188,121)"/><text xml:space="preserve" x="165" y="278.133" font-family="Calibri" font-size="7.5" fill="rgb(0,0,0)" text-anchor="middle">13</text>
<polygon points="169,272.3 177,272.3 177,278.3 169,278.3" fill="rgb(232,216,183)"/><text xml:space="preserve" x="173" y="278.133" font-family="Calibri" font-size="7.5" fill="rgb(0,0,0)" text-anchor="middle">10</text>
<polygon points="177,272.3 185,272.3 185,278.3 177,278.3" fill="rgb(245,245,245)"/><text xml:space="preserve" x="181" y="278.133" font-family="Calibri" font-size="7.5" fill="rgb(0,0,0)" text-anchor="middle">7</text>
<polygon points="195,272.3 201,272.3 201,278.3 195,278.3" fill="rgb(255,128,128)"/>
<polygon points="201,272.3 207,272.3 207,278.3 201,278.3" fill="rgb(255,203,203)"/>
<polygon points="207,272.3 213,272.3 213,278.3 207,278.3" fill="rgb(255,188,188)"/>
<polygon points="213,272.3 219,272.3 219,278.3 213,278.3" fill="rgb(255,147,147)"/>
<polygon points="219,272.3 225,272.3 225,278.3 219,278.3" fill="rgb(255,116,116)"/>
<polygon points="225,272.3 231,272.3 231,278.3 225,278.3" fill="rgb(254,205,205)"/>
<polygon points="231,272.3 237,272.3 237,278.3 231,278.3" fill="rgb(255,87,87)"/>
<polygon points="237,272.3 243,272.3 243,278.3 237,278.3" fill="rgb(206,206,255)"/>
<polygon points="253,272.3 259,272.3 259,278.3 253,278.3" fill="rgb(255,216,216)"/>
<polygon points="259,272.3 265,272.3 265,278.3 259,278.3" fill="rgb(255,187,187)"/>
<polygon points="265,272.3 271,272.3 271,278.3 265,278.3" fill="rgb(255,251,251)"/>
<polygon points="271,272.3 277,272.3 277,278.3 271,278.3" fill="rgb(255,109,109)"/>
<polygon points="277,272.3 283,272.3 283,278.3 277,278.3" fill="rgb(255,153,153)"/>
<polygon points="283,272.3 289,272.3 289,278.3 283,278.3" fill="rgb(255,245,245)"/>
<polygon points="289,272.3 295,272.3 295,278.3 289,278.3" fill="rgb(245,245,255)"/>
<polygon points="295,272.3 301,272.3 301,278.3 295,278.3" fill="rgb(197,197,255)"/>
<polygon points="311,272.3 317,272.3 317,278.3 311,278.3" fill="rgb(255,194,194)"/>
<polygon points="317,272.3 323,272.3 323,278.3 317,278.3" fill="rgb(255,217,217)"/>
<polygon points="323,272.3 329,272.3 329,278.3 323,278.3" fill="rgb(255,230,230)"/>
<polygon points="329,272.3 335,272.3 335,278.3 329,278.3" fill="rgb(254,211,211)"/>
<polygon points="335,272.3 341,272.3 341,278.3 335,278.3" fill="rgb(255,194,194)"/>
<polygon points="341,272.3 347,272.3 347,278.3 341,278.3" fill="rgb(255,247,247)"/>
<polygon points="347,272.3 353,272.3 353,278.3 347,278.3" fill="rgb(255,243,243)"/>
<polygon points="353,272.3 359,272.3 359,278.3 353,278.3" fill="rgb(208,208,255)"/>
<polygon points="161,278.3 169,278.3 169,284.3 161,284.3" fill="rgb(220,188,121)"/><text xml:space="preserve" x="165" y="284.133" font-family="Calibri" font-size="7.5" fill="rgb(0,0,0)" text-anchor="middle">13</text>
<polygon points="169,278.3 177,278.3 177,284.3 169,284.3" fill="rgb(232,216,183)"/><text xml:space="preserve" x="173" y="284.133" font-family="Calibri" font-size="7.5" fill="rgb(0,0,0)" text-anchor="middle">10</text>
<polygon points="177,278.3 185,278.3 185,284.3 177,284.3" fill="rgb(245,245,245)"/><text xml:space="preserve" x="181" y="284.133" font-family="Calibri" font-size="7.5" fill="rgb(0,0,0)" text-anchor="middle">7</text>
<polygon points="195,278.3 201,278.3 201,284.3 195,284.3" fill="rgb(255,182,182)"/>
<polygon points="201,278.3 207,278.3 207,284.3 201,284.3" fill="rgb(255,164,164)"/>
<polygon points="207,278.3 213,278.3 213,284.3 207,284.3" fill="rgb(255,138,138)"/>
<polygon points="213,278.3 219,278.3 219,284.3 213,284.3" fill="rgb(255,55,55)"/>
<polygon points="219,278.3 225,278.3 225,284.3 219,284.3" fill="rgb(255,141,141)"/>
<polygon points="225,278.3 231,278.3 231,284.3 225,284.3" fill="rgb(255,233,233)"/>
<polygon points="231,278.3 237,278.3 237,284.3 231,284.3" fill="rgb(215,215,255)"/>
<polygon points="237,278.3 243,278.3 243,284.3 237,284.3" fill="rgb(174,174,255)"/>
<polygon points="253,278.3 259,278.3 259,284.3 253,284.3" fill="rgb(255,205,205)"/>
<polygon points="259,278.3 265,278.3 265,284.3 259,284.3" fill="rgb(255,170,170)"/>
<polygon points="265,278.3 271,278.3 271,284.3 265,284.3" fill="rgb(255,207,207)"/>
<polygon points="271,278.3 277,278.3 277,284.3 271,284.3" fill="rgb(255,69,69)"/>
<polygon points="277,278.3 283,278.3 283,284.3 277,284.3" fill="rgb(255,161,161)"/>
<polygon points="283,278.3 289,278.3 289,284.3 283,284.3" fill="rgb(251,251,255)"/>
<polygon points="289,278.3 295,278.3 295,284.3 289,284.3" fill="rgb(197,197,255)"/>
<polygon points="295,278.3 301,278.3 301,284.3 295,284.3" fill="rgb(235,235,255)"/>
<polygon points="311,278.3 317,278.3 317,284.3 311,284.3" fill="rgb(255,191,191)"/>
<polygon points="317,278.3 323,278.3 323,284.3 317,284.3" fill="rgb(255,208,208)"/>
<polygon points="323,278.3 329,278.3 329,284.3 323,284.3" fill="rgb(255,207,207)"/>
<polygon points="329,278.3 335,278.3 335,284.3 329,284.3" fill="rgb(255,197,197)"/>
<polygon points="335,278.3 341,278.3 341,284.3 335,284.3" fill="rgb(255,185,185)"/>
<polygon points="341,278.3 347,278.3 347,284.3 341,284.3" fill="rgb(206,206,255)"/>
<polygon points="347,278.3 353,278.3 353,284.3 347,284.3" fill="rgb(221,221,255)"/>
<polygon points="353,278.3 359,278.3 359,284.3 353,284.3" fill="rgb(224,224,255)"/>
<polygon points="161,212.3 185,212.3 185,284.3 161,284.3" fill="none" stroke="black" stroke-width="1"/>
<polygon points="195,212.3 243,212.3 243,284.3 195,284.3" fill="none" stroke="black" stroke-width="1"/>
<polygon points="253,212.3 301,212.3 301,284.3 253,284.3" fill="none" stroke="black" stroke-width="1"/>
<polygon points="311,212.3 359,212.3 359,284.3 311,284.3" fill="none" stroke="black" stroke-width="1"/>
<text xml:space="preserve" x="200.5" y="316.633" font-family="Calibri" font-size="6" text-anchor="middle">moduleID</text>
<polygon points="90.5,324.3 110.5,324.3 110.5,344.3 90.5,344.3" fill="rgb(250,250,250)"/><polygon points="90.5,324.3 110.5,324.3 110.5,344.3 90.5,344.3" fill="none" stroke="black" stroke-width="1"/><text xml:space="preserve" x="100.5" y="337.133" font-family="Calibri" font-size="7.5" fill="rgb(0,0,0)" text-anchor="middle">-2.0</text>
<polygon points="110.5,324.3 130.5,324.3 130.5,344.3 110.5,344.3" fill="rgb(156,210,205)"/><polygon points="110.5,324.3 130.5,324.3 130.5,344.3 110.5,344.3" fill="none" stroke="black" stroke-width="1"/><text xml:space="preserve" x="120.5" y="337.133" font-family="Calibri" font-size="7.5" fill="rgb(0,0,0)" text-anchor="middle">-0.4</text>
<polygon points="130.5,324.3 150.5,324.3 150.5,344.3 130.5,344.3" fill="rgb(116,191,184)"/><polygon points="130.5,324.3 150.5,324.3 150.5,344.3 130.5,344.3" fill="none" stroke="black" stroke-width="1"/><text xml:space="preserve" x="140.5" y="337.133" font-family="Calibri" font-size="7.5" fill="rgb(0,0,0)" text-anchor="middle">1.2</text>
<polygon points="150.5,324.3 170.5,324.3 170.5,344.3 150.5,344.3" fill="rgb(152,206,201)"/><polygon points="150.5,324.3 170.5,324.3 170.5,344.3 150.5,344.3" fill="none" stroke="black" stroke-width="1"/><text xml:space="preserve" x="160.5" y="337.133" font-family="Calibri" font-size="7.5" fill="rgb(0,0,0)" text-anchor="middle">2.8</text>
<polygon points="170.5,324.3 190.5,324.3 190.5,344.3 170.5,344.3" fill="rgb(187,220,217)"/><polygon points="170.5,324.3 190.5,324.3 190.5,344.3 170.5,344.3" fill="none" stroke="black" stroke-width="1"/><text xml:space="preserve" x="180.5" y="337.133" font-family="Calibri" font-size="7.5" fill="rgb(0,0,0)" text-anchor="middle">4.4</text>
<polygon points="190.5,324.3 210.5,324.3 210.5,344.3 190.5,344.3" fill="rgb(222,235,234)"/><polygon points="190.5,324.3 210.5,324.3 210.5,344.3 190.5,344.3" fill="none" stroke="black" stroke-width="1"/><text xml:space="preserve" x="200.5" y="337.133" font-family="Calibri" font-size="7.5" fill="rgb(0,0,0)" text-anchor="middle">6.0</text>
<polygon points="210.5,324.3 230.5,324.3 230.5,344.3 210.5,344.3" fill="rgb(242,239,232)"/><polygon points="210.5,324.3 230.5,324.3 230.5,344.3 210.5,344.3" fill="none" stroke="black" stroke-width="1"/><text xml:space="preserve" x="220.5" y="337.133" font-family="Calibri" font-size="7.5" fill="rgb(0,0,0)" text-anchor="middle">7.6</text>
<polygon points="230.5,324.3 250.5,324.3 250.5,344.3 230.5,344.3" fill="rgb(235,224,199)"/><polygon points="230.5,324.3 250.5,324.3 250.5,344.3 230.5,344.3" fill="none" stroke="black" stroke-width="1"/><text xml:space="preserve" x="240.5" y="337.133" font-family="Calibri" font-size="7.5" fill="rgb(0,0,0)" text-anchor="middle">9.2</text>
<polygon points="250.5,324.3 270.5,324.3 270.5,344.3 250.5,344.3" fill="rgb(229,209,166)"/><polygon points="250.5,324.3 270.5,324.3 270.5,344.3 250.5,344.3" fill="none" stroke="black" stroke-width="1"/><text xml:space="preserve" x="260.5" y="337.133" font-family="Calibri" font-size="7.5" fill="rgb(0,0,0)" text-anchor="middle">10.8</text>
<polygon points="270.5,324.3 290.5,324.3 290.5,344.3 270.5,344.3" fill="rgb(222,194,133)"/><polygon points="270.5,324.3 290.5,324.3 290.5,344.3 270.5,344.3" fill="none" stroke="black" stroke-width="1"/><text xml:space="preserve" x="280.5" y="337.133" font-family="Calibri" font-size="7.5" fill="rgb(0,0,0)" text-anchor="middle">12.4</text>
<polygon points="290.5,324.3 310.5,324.3 310.5,344.3 290.5,344.3" fill="rgb(216,179,101)"/><polygon points="290.5,324.3 310.5,324.3 310.5,344.3 290.5,344.3" fill="none" stroke="black" stroke-width="1"/><text xml:space="preserve" x="300.5" y="337.133" font-family="Calibri" font-size="7.5" fill="rgb(0,0,0)" text-anchor="middle">14.0</text>
<text xml:space="preserve" x="200.5" y="376.633" font-family="Calibri" font-size="6" text-anchor="middle">marklevel</text>
<polygon points="90.5,384.3 110.5,384.3 110.5,404.3 90.5,404.3" fill="rgb(0,0,255)"/><polygon points="90.5,384.3 110.5,384.3 110.5,404.3 90.5,404.3" fill="none" stroke="black" stroke-width="1"/><text xml:space="preserve" x="100.5" y="397.133" font-family="Calibri" font-size="7.5" fill="rgb(255,255,255)" text-anchor="middle">-2.0</text>
<polygon points="110.5,384.3 130.5,384.3 130.5,404.3 110.5,404.3" fill="rgb(50,50,255)"/><polygon points="110.5,384.3 130.5,384.3 130.5,404.3 110.5,404.3" fill="none" stroke="black" stroke-width="1"/><text xml:space="preserve" x="120.5" y="397.133" font-family="Calibri" font-size="7.5" fill="rgb(255,255,255)" text-anchor="middle">-1.6</text>
<polygon points="130.5,384.3 150.5,384.3 150.5,404.3 130.5,404.3" fill="rgb(102,102,255)"/><polygon points="130.5,384.3 150.5,384.3 150.5,404.3 130.5,404.3" fill="none" stroke="black" stroke-width="1"/><text xml:space="preserve" x="140.5" y="397.133" font-family="Calibri" font-size="7.5" fill="rgb(255,255,255)" text-anchor="middle">-1.2</text>
<polygon points="150.5,384.3 170.5,384.3 170.5,404.3 150.5,404.3" fill="rgb(153,153,255)"/><polygon points="150.5,384.3 170.5,384.3 170.5,404.3 150.5,404.3" fill="none" stroke="black" stroke-width="1"/><text xml:space="preserve" x="160.5" y="397.133" font-family="Calibri" font-size="7.5" fill="rgb(0,0,0)" text-anchor="middle">-0.8</text>
<polygon points="170.5,384.3 190.5,384.3 190.5,404.3 170.5,404.3" fill="rgb(204,204,255)"/><polygon points="170.5,384.3 190.5,384.3 190.5,404.3 170.5,404.3" fill="none" stroke="black" stroke-width="1"/><text xml:space="preserve" x="180.5" y="397.133" font-family="Calibri" font-size="7.5" fill="rgb(0,0,0)" text-anchor="middle">-0.4</text>
<polygon points="190.5,384.3 210.5,384.3 210.5,404.3 190.5,404.3" fill="rgb(255,255,255)"/><polygon points="190.5,384.3 210.5,384.3 210.5,404.3 190.5,404.3" fill="none" stroke="black" stroke-width="1"/><text xml:space="preserve" x="200.5" y="397.133" font-family="Calibri" font-size="7.5" fill="rgb(0,0,0)" text-anchor="middle">0.0</text>
<polygon points="210.5,384.3 230.5,384.3 230.5,404.3 210.5,404.3" fill="rgb(255,204,204)"/><polygon points="210.5,384.3 230.5,384.3 230.5,404.3 210.5,404.3" fill="none" stroke="black" stroke-width="1"/><text xml:space="preserve" x="220.5" y="397.133" font-family="Calibri" font-size="7.5" fill="rgb(0,0,0)" text-anchor="middle">0.4</text>
<polygon points="230.5,384.3 250.5,384.3 250.5,404.3 230.5,404.3" fill="rgb(255,153,153)"/><polygon points="230.5,384.3 250.5,384.3 250.5,404.3 230.5,404.3" fill="none" stroke="black" stroke-width="1"/><text xml:space="preserve" x="240.5" y="397.133" font-family="Calibri" font-size="7.5" fill="rgb(0,0,0)" text-anchor="middle">0.8</text>
<polygon points="250.5,384.3 270.5,384.3 270.5,404.3 250.5,404.3" fill="rgb(255,102,102)"/><polygon points="250.5,384.3 270.5,384.3 270.5,404.3 250.5,404.3" fill="none" stroke="black" stroke-width="1"/><text xml:space="preserve" x="260.5" y="397.133" font-family="Calibri" font-size="7.5" fill="rgb(0,0,0)" text-anchor="middle">1.2</text>
<polygon points="270.5,384.3 290.5,384.3 290.5,404.3 270.5,404.3" fill="rgb(255,50,50)"/><polygon points="270.5,384.3 290.5,384.3 290.5,404.3 270.5,404.3" fill="none" stroke="black" stroke-width="1"/><text xml:space="preserve" x="280.5" y="397.133" font-family="Calibri" font-size="7.5" fill="rgb(255,255,255)" text-anchor="middle">1.6</text>
<polygon points="290.5,384.3 310.5,384.3 310.5,404.3 290.5,404.3" fill="rgb(255,0,0)"/><polygon points="290.5,384.3 310.5,384.3 310.5,404.3 290.5,404.3" fill="none" stroke="black" stroke-width="1"/><text xml:space="preserve" x="300.5" y="397.133" font-family="Calibri" font-size="7.5" fill="rgb(255,255,255)" text-anchor="middle">2.0</text>
</svg>
