<?xml version="1.0" standalone="no"?><!DOCTYPE svg PUBLIC "-//W3C//DTD SVG 1.1//EN" "http://www.w3.org/Graphics/SVG/1.1/DTD/svg11.dtd">
<svg width="400.4" height="496.3" version="1.1" xmlns="http://www.w3.org/2000/svg">
<text xml:space="preserve" x="156.4" y="217.633" font-family="Calibri" font-size="6" text-anchor="end">AI451617</text>
<text xml:space="preserve" x="156.4" y="223.633" font-family="Calibri" font-size="6" text-anchor="end">LOC634650</text>
<text xml:space="preserve" x="156.4" y="229.633" font-family="Calibri" font-size="6" text-anchor="end">LOC632687</text>
<text xml:space="preserve" x="156.4" y="235.633" font-family="Calibri" font-size="6" text-anchor="end">Txndc2</text>
<text xml:space="preserve" x="156.4" y="241.633" font-family="Calibri" font-size="6" text-anchor="end">Arntl2</text>
<text xml:space="preserve" x="156.4" y="247.633" font-family="Calibri" font-size="6" text-anchor="end">Abca6</text>
<text xml:space="preserve" x="156.4" y="253.633" font-family="Calibri" font-size="6" text-anchor="end">BC043118</text>
<text xml:space="preserve" x="156.4" y="259.633" font-family="Calibri" font-size="6" text-anchor="end">BC048651</text>
<text xml:space="preserve" x="156.4" y="265.633" font-family="Calibri" font-size="6" text-anchor="end">Fbxw13</text>
<text xml:space="preserve" x="156.4" y="271.633" font-family="Calibri" font-size="6" text-anchor="end">Foxp1</text>
<text xml:space="preserve" x="156.4" y="277.633" font-family="Calibri" font-size="6" text-anchor="end">Galp</text>
<text xml:space="preserve" x="156.4" y="283.633" font-family="Calibri" font-size="6" text-anchor="end">Iqsec2</text>
<text xml:space="preserve" x="156.4" y="289.633" font-family="Calibri" font-size="6" text-anchor="end">Ear7</text>
<text xml:space="preserve" x="156.4" y="295.633" font-family="Calibri" font-size="6" text-anchor="end">mmu-mir-100</text>
<text xml:space="preserve" x="156.4" y="301.633" font-family="Calibri" font-size="6" text-anchor="end">Tulp4</text>
<text xml:space="preserve" x="156.4" y="307.633" font-family="Calibri" font-size="6" text-anchor="end">Ear6</text>
<text xml:space="preserve" x="156.4" y="313.633" font-family="Calibri" font-size="6" text-anchor="end">Slc23a3</text>
<text xml:space="preserve" x="156.4" y="319.633" font-family="Calibri" font-size="6" text-anchor="end">Dll3</text>
<text xml:space="preserve" x="156.4" y="325.633" font-family="Calibri" font-size="6" text-anchor="end">Tdrd7</text>
<text xml:space="preserve" x="156.4" y="331.633" font-family="Calibri" font-size="6" text-anchor="end">Slc39a2</text>
<text xml:space="preserve" x="156.4" y="337.633" font-family="Calibri" font-size="6" text-anchor="end">Rsl1</text>
<text xml:space="preserve" x="156.4" y="343.633" font-family="Calibri" font-size="6" text-anchor="end">D830007F02Rik</text>
<text xml:space="preserve" x="156.4" y="349.633" font-family="Calibri" font-size="6" text-anchor="end">Rnf180</text>
<text xml:space="preserve" x="156.4" y="355.633" font-family="Calibri" font-size="6" text-anchor="end">Clec12a</text>
<text xml:space="preserve" x="166.733" y="208.3" font-family="Calibri" font-size="6" transform="rotate(270 166.733 208.3)">ips</text>
<text xml:space="preserve" x="174.733" y="208.3" font-family="Calibri" font-size="6" transform="rotate(270 174.733 208.3)">pips</text>
<text xml:space="preserve" x="182.733" y="208.3" font-family="Calibri" font-size="6" transform="rotate(270 182.733 208.3)">mef</text>
<text xml:space="preserve" x="199.733" y="208.3" font-family="Calibri" font-size="6" transform="rotate(270 199.733 208.3)">ips_H3K4me3iPS</text>
<text xml:space="preserve" x="205.733" y="208.3" font-family="Calibri" font-size="6" transform="rotate(270 205.733 208.3)">ips_H3K9aciPS</text>
<text xml:space="preserve" x="211.733" y="208.3" font-family="Calibri" font-size="6" transform="rotate(270 211.733 208.3)">ips_H3K14aciPS</text>
<text xml:space="preserve" x="217.733" y="208.3" font-family="Calibri" font-size="6" transform="rotate(270 217.733 208.3)">ips_H3K18aciPS</text>
<text xml:space="preserve" x="223.733" y="208.3" font-family="Calibri" font-size="6" transform="rotate(270 223.733 208.3)">ips_H3K79me2iPS</text>
<text xml:space="preserve" x="229.733" y="208.3" font-family="Calibri" font-size="6" transform="rotate(270 229.733 208.3)">ips_H3K9me2iPS</text>
<text xml:space="preserve" x="235.733" y="208.3" font-family="Calibri" font-size="6" transform="rotate(270 235.733 208.3)">ips_H3K9me3iPS</text>
<text xml:space="preserve" x="241.733" y="208.3" font-family="Calibri" font-size="6" transform="rotate(270 241.733 208.3)">ips_H3K27me3iPS</text>
<text xml:space="preserve" x="257.733" y="208.3" font-family="Calibri" font-size="6" transform="rotate(270 257.733 208.3)">pips_H3K4me3pips</text>
<text xml:space="preserve" x="263.733" y="208.3" font-family="Calibri" font-size="6" transform="rotate(270 263.733 208.3)">pips_H3K9acpips</text>
<text xml:space="preserve" x="269.733" y="208.3" font-family="Calibri" font-size="6" transform="rotate(270 269.733 208.3)">pips_H3K14acpips</text>
<text xml:space="preserve" x="275.733" y="208.3" font-family="Calibri" font-size="6" transform="rotate(270 275.733 208.3)">pips_H3K18acpips</text>
<text xml:space="preserve" x="281.733" y="208.3" font-family="Calibri" font-size="6" transform="rotate(270 281.733 208.3)">pips_H3K79me2pips</text>
<text xml:space="preserve" x="287.733" y="208.3" font-family="Calibri" font-size="6" transform="rotate(270 287.733 208.3)">pips_H3K9me2pips</text>
<text xml:space="preserve" x="293.733" y="208.3" font-family="Calibri" font-size="6" transform="rotate(270 293.733 208.3)">pips_H3K9me3pips</text>
<text xml:space="preserve" x="299.733" y="208.3" font-family="Calibri" font-size="6" transform="rotate(270 299.733 208.3)">pips_H3K27me3pips</text>
<text xml:space="preserve" x="315.733" y="208.3" font-family="Calibri" font-size="6" transform="rotate(270 315.733 208.3)">mef_H3K4me3mef</text>
<text xml:space="preserve" x="321.733" y="208.3" font-family="Calibri" font-size="6" transform="rotate(270 321.733 208.3)">mef_H3K9acmef</text>
<text xml:space="preserve" x="327.733" y="208.3" font-family="Calibri" font-size="6" transform="rotate(270 327.733 208.3)">mef_H3K14acmef</text>
<text xml:space="preserve" x="333.733" y="208.3" font-family="Calibri" font-size="6" transform="rotate(270 333.733 208.3)">mef_H3K18acmef</text>
<text xml:space="preserve" x="339.733" y="208.3" font-family="Calibri" font-size="6" transform="rotate(270 339.733 208.3)">mef_H3K79me2mef</text>
<text xml:space="preserve" x="345.733" y="208.3" font-family="Calibri" font-size="6" transform="rotate(270 345.733 208.3)">mef_H3K9me2mef</text>
<text xml:space="preserve" x="351.733" y="208.3" font-family="Calibri" font-size="6" transform="rotate(270 351.733 208.3)">mef_H3K9me3mef</text>
<text xml:space="preserve" x="357.733" y="208.3" font-family="Calibri" font-size="6" transform="rotate(270 357.733 208.3)">mef_H3K27me3mef</text>
<polygon points="160.4,212.3 168.4,212.3 168.4,218.3 160.4,218.3" fill="rgb(178,217,213)"/><text xml:space="preserve" x="164.4" y="218.133" font-family="Calibri" font-size="7.5" fill="rgb(0,0,0)" text-anchor="middle">4</text>
<polygon points="168.4,212.3 176.4,212.3 176.4,218.3 168.4,218.3" fill="rgb(134,198,192)"/><text xml:space="preserve" x="172.4" y="218.133" font-family="Calibri" font-size="7.5" fill="rgb(0,0,0)" text-anchor="middle">2</text>
<polygon points="176.4,212.3 184.4,212.3 184.4,218.3 176.4,218.3" fill="rgb(134,198,192)"/><text xml:space="preserve" x="180.4" y="218.133" font-family="Calibri" font-size="7.5" fill="rgb(0,0,0)" text-anchor="middle">2</text>
<polygon points="194.4,212.3 200.4,212.3 200.4,218.3 194.4,218.3" fill="rgb(199,199,255)"/>
<polygon points="200.4,212.3 206.4,212.3 206.4,218.3 200.4,218.3" fill="rgb(176,176,255)"/>
<polygon points="206.4,212.3 212.4,212.3 212.4,218.3 206.4,218.3" fill="rgb(255,225,225)"/>
<polygon points="212.4,212.3 218.4,212.3 218.4,218.3 212.4,218.3" fill="rgb(218,218,255)"/>
<polygon points="218.4,212.3 224.4,212.3 224.4,218.3 218.4,218.3" fill="rgb(198,198,255)"/>
<polygon points="224.4,212.3 230.4,212.3 230.4,218.3 224.4,218.3" fill="rgb(255,66,66)"/>
<polygon points="230.4,212.3 236.4,212.3 236.4,218.3 230.4,218.3" fill="rgb(254,254,255)"/>
<polygon points="236.4,212.3 242.4,212.3 242.4,218.3 236.4,218.3" fill="rgb(233,233,255)"/>
<polygon points="252.4,212.3 258.4,212.3 258.4,218.3 252.4,218.3" fill="rgb(190,190,255)"/>
<polygon points="258.4,212.3 264.4,212.3 264.4,218.3 258.4,218.3" fill="rgb(244,244,255)"/>
<polygon points="264.4,212.3 270.4,212.3 270.4,218.3 264.4,218.3" fill="rgb(199,199,255)"/>
<polygon points="270.4,212.3 276.4,212.3 276.4,218.3 270.4,218.3" fill="rgb(255,153,153)"/>
<polygon points="276.4,212.3 282.4,212.3 282.4,218.3 276.4,218.3" fill="rgb(231,231,255)"/>
<polygon points="282.4,212.3 288.4,212.3 288.4,218.3 282.4,218.3" fill="rgb(255,0,0)"/>
<polygon points="288.4,212.3 294.4,212.3 294.4,218.3 288.4,218.3" fill="rgb(208,208,255)"/>
<polygon points="294.4,212.3 300.4,212.3 300.4,218.3 294.4,218.3" fill="rgb(255,61,61)"/>
<polygon points="310.4,212.3 316.4,212.3 316.4,218.3 310.4,218.3" fill="rgb(215,215,255)"/>
<polygon points="316.4,212.3 322.4,212.3 322.4,218.3 316.4,218.3" fill="rgb(155,155,255)"/>
<polygon points="322.4,212.3 328.4,212.3 328.4,218.3 322.4,218.3" fill="rgb(127,127,255)"/>
<polygon points="328.4,212.3 334.4,212.3 334.4,218.3 328.4,218.3" fill="rgb(135,135,255)"/>
<polygon points="334.4,212.3 340.4,212.3 340.4,218.3 334.4,218.3" fill="rgb(172,172,255)"/>
<polygon points="340.4,212.3 346.4,212.3 346.4,218.3 340.4,218.3" fill="rgb(244,244,255)"/>
<polygon points="346.4,212.3 352.4,212.3 352.4,218.3 346.4,218.3" fill="rgb(255,102,102)"/>
<polygon points="352.4,212.3 358.4,212.3 358.4,218.3 352.4,218.3" fill="rgb(222,222,255)"/>
<polygon points="160.4,218.3 168.4,218.3 168.4,224.3 160.4,224.3" fill="rgb(178,217,213)"/><text xml:space="preserve" x="164.4" y="224.133" font-family="Calibri" font-size="7.5" fill="rgb(0,0,0)" text-anchor="middle">4</text>
<polygon points="168.4,218.3 176.4,218.3 176.4,224.3 168.4,224.3" fill="rgb(134,198,192)"/><text xml:space="preserve" x="172.4" y="224.133" font-family="Calibri" font-size="7.5" fill="rgb(0,0,0)" text-anchor="middle">2</text>
<polygon points="176.4,218.3 184.4,218.3 184.4,224.3 176.4,224.3" fill="rgb(134,198,192)"/><text xml:space="preserve" x="180.4" y="224.133" font-family="Calibri" font-size="7.5" fill="rgb(0,0,0)" text-anchor="middle">2</text>
<polygon points="194.4,218.3 200.4,218.3 200.4,224.3 194.4,224.3" fill="rgb(143,143,255)"/>
<polygon points="200.4,218.3 206.4,218.3 206.4,224.3 200.4,224.3" fill="rgb(205,205,255)"/>
<polygon points="206.4,218.3 212.4,218.3 212.4,224.3 206.4,224.3" fill="rgb(255,223,223)"/>
<polygon points="212.4,218.3 218.4,218.3 218.4,224.3 212.4,224.3" fill="rgb(255,223,223)"/>
<polygon points="218.4,218.3 224.4,218.3 224.4,224.3 218.4,224.3" fill="rgb(197,197,255)"/>
<polygon points="224.4,218.3 230.4,218.3 230.4,224.3 224.4,224.3" fill="rgb(255,205,205)"/>
<polygon points="230.4,218.3 236.4,218.3 236.4,224.3 230.4,224.3" fill="rgb(214,214,255)"/>
<polygon points="236.4,218.3 242.4,218.3 242.4,224.3 236.4,224.3" fill="rgb(103,103,255)"/>
<polygon points="252.4,218.3 258.4,218.3 258.4,224.3 252.4,224.3" fill="rgb(169,169,255)"/>
<polygon points="258.4,218.3 264.4,218.3 264.4,224.3 258.4,224.3" fill="rgb(255,201,201)"/>
<polygon points="264.4,218.3 270.4,218.3 270.4,224.3 264.4,224.3" fill="rgb(255,154,154)"/>
<polygon points="270.4,218.3 276.4,218.3 276.4,224.3 270.4,224.3" fill="rgb(255,114,114)"/>
<polygon points="276.4,218.3 282.4,218.3 282.4,224.3 276.4,224.3" fill="rgb(255,250,250)"/>
<polygon points="282.4,218.3 288.4,218.3 288.4,224.3 282.4,224.3" fill="rgb(254,188,188)"/>
<polygon points="288.4,218.3 294.4,218.3 294.4,224.3 288.4,224.3" fill="rgb(255,210,210)"/>
<polygon points="294.4,218.3 300.4,218.3 300.4,224.3 294.4,224.3" fill="rgb(199,199,255)"/>
<polygon points="310.4,218.3 316.4,218.3 316.4,224.3 310.4,224.3" fill="rgb(118,118,255)"/>
<polygon points="316.4,218.3 322.4,218.3 322.4,224.3 316.4,224.3" fill="rgb(198,198,255)"/>
<polygon points="322.4,218.3 328.4,218.3 328.4,224.3 322.4,224.3" fill="rgb(255,168,168)"/>
<polygon points="328.4,218.3 334.4,218.3 334.4,224.3 328.4,224.3" fill="rgb(255,189,189)"/>
<polygon points="334.4,218.3 340.4,218.3 340.4,224.3 334.4,224.3" fill="rgb(147,147,255)"/>
<polygon points="340.4,218.3 346.4,218.3 346.4,224.3 340.4,224.3" fill="rgb(255,186,186)"/>
<polygon points="346.4,218.3 352.4,218.3 352.4,224.3 346.4,224.3" fill="rgb(254,200,200)"/>
<polygon points="352.4,218.3 358.4,218.3 358.4,224.3 352.4,224.3" fill="rgb(115,115,255)"/>
<polygon points="160.4,224.3 168.4,224.3 168.4,230.3 160.4,230.3" fill="rgb(178,217,213)"/><text xml:space="preserve" x="164.4" y="230.133" font-family="Calibri" font-size="7.5" fill="rgb(0,0,0)" text-anchor="middle">4</text>
<polygon points="168.4,224.3 176.4,224.3 176.4,230.3 168.4,230.3" fill="rgb(134,198,192)"/><text xml:space="preserve" x="172.4" y="230.133" font-family="Calibri" font-size="7.5" fill="rgb(0,0,0)" text-anchor="middle">2</text>
<polygon points="176.4,224.3 184.4,224.3 184.4,230.3 176.4,230.3" fill="rgb(134,198,192)"/><text xml:space="preserve" x="180.4" y="230.133" font-family="Calibri" font-size="7.5" fill="rgb(0,0,0)" text-anchor="middle">2</text>
<polygon points="194.4,224.3 200.4,224.3 200.4,230.3 194.4,230.3" fill="rgb(194,194,255)"/>
<polygon points="200.4,224.3 206.4,224.3 206.4,230.3 200.4,230.3" fill="rgb(183,183,255)"/>
<polygon points="206.4,224.3 212.4,224.3 212.4,230.3 206.4,230.3" fill="rgb(221,221,255)"/>
<polygon points="212.4,224.3 218.4,224.3 218.4,230.3 212.4,230.3" fill="rgb(245,245,255)"/>
<polygon points="218.4,224.3 224.4,224.3 224.4,230.3 218.4,230.3" fill="rgb(174,174,255)"/>
<polygon points="224.4,224.3 230.4,224.3 230.4,230.3 224.4,230.3" fill="rgb(255,235,235)"/>
<polygon points="230.4,224.3 236.4,224.3 236.4,230.3 230.4,230.3" fill="rgb(254,196,196)"/>
<polygon points="236.4,224.3 242.4,224.3 242.4,230.3 236.4,230.3" fill="rgb(255,125,125)"/>
<polygon points="252.4,224.3 258.4,224.3 258.4,230.3 252.4,230.3" fill="rgb(226,226,255)"/>
<polygon points="258.4,224.3 264.4,224.3 264.4,230.3 258.4,230.3" fill="rgb(255,242,242)"/>
<polygon points="264.4,224.3 270.4,224.3 270.4,230.3 264.4,230.3" fill="rgb(255,188,188)"/>
<polygon points="270.4,224.3 276.4,224.3 276.4,230.3 270.4,230.3" fill="rgb(255,162,162)"/>
<polygon points="276.4,224.3 282.4,224.3 282.4,230.3 276.4,230.3" fill="rgb(255,173,173)"/>
<polygon points="282.4,224.3 288.4,224.3 288.4,230.3 282.4,230.3" fill="rgb(253,253,255)"/>
<polygon points="288.4,224.3 294.4,224.3 294.4,230.3 288.4,230.3" fill="rgb(255,131,131)"/>
<polygon points="294.4,224.3 300.4,224.3 300.4,230.3 294.4,230.3" fill="rgb(218,218,255)"/>
<polygon points="310.4,224.3 316.4,224.3 316.4,230.3 310.4,230.3" fill="rgb(237,237,255)"/>
<polygon points="316.4,224.3 322.4,224.3 322.4,230.3 316.4,230.3" fill="rgb(253,253,255)"/>
<polygon points="322.4,224.3 328.4,224.3 328.4,230.3 322.4,230.3" fill="rgb(255,138,138)"/>
<polygon points="328.4,224.3 334.4,224.3 334.4,230.3 328.4,230.3" fill="rgb(255,155,155)"/>
<polygon points="334.4,224.3 340.4,224.3 340.4,230.3 334.4,230.3" fill="rgb(180,180,255)"/>
<polygon points="340.4,224.3 346.4,224.3 346.4,230.3 340.4,230.3" fill="rgb(255,169,169)"/>
<polygon points="346.4,224.3 352.4,224.3 352.4,230.3 346.4,230.3" fill="rgb(223,223,255)"/>
<polygon points="352.4,224.3 358.4,224.3 358.4,230.3 352.4,230.3" fill="rgb(254,162,162)"/>
<polygon points="160.4,230.3 168.4,230.3 168.4,236.3 160.4,236.3" fill="rgb(178,217,213)"/><text xml:space="preserve" x="164.4" y="236.133" font-family="Calibri" font-size="7.5" fill="rgb(0,0,0)" text-anchor="middle">4</text>
<polygon points="168.4,230.3 176.4,230.3 176.4,236.3 168.4,236.3" fill="rgb(134,198,192)"/><text xml:space="preserve" x="172.4" y="236.133" font-family="Calibri" font-size="7.5" fill="rgb(0,0,0)" text-anchor="middle">2</text>
<polygon points="176.4,230.3 184.4,230.3 184.4,236.3 176.4,236.3" fill="rgb(134,198,192)"/><text xml:space="preserve" x="180.4" y="236.133" font-family="Calibri" font-size="7.5" fill="rgb(0,0,0)" text-anchor="middle">2</text>
<polygon points="194.4,230.3 200.4,230.3 200.4,236.3 194.4,236.3" fill="rgb(151,151,255)"/>
<polygon points="200.4,230.3 206.4,230.3 206.4,236.3 200.4,236.3" fill="rgb(181,181,255)"/>
<polygon points="206.4,230.3 212.4,230.3 212.4,236.3 206.4,236.3" fill="rgb(255,236,236)"/>
<polygon points="212.4,230.3 218.4,230.3 218.4,236.3 212.4,236.3" fill="rgb(255,174,174)"/>
<polygon points="218.4,230.3 224.4,230.3 224.4,236.3 218.4,236.3" fill="rgb(213,213,255)"/>
<polygon points="224.4,230.3 230.4,230.3 230.4,236.3 224.4,236.3" fill="rgb(255,116,116)"/>
<polygon points="230.4,230.3 236.4,230.3 236.4,236.3 230.4,236.3" fill="rgb(255,216,216)"/>
<polygon points="236.4,230.3 242.4,230.3 242.4,236.3 236.4,236.3" fill="rgb(224,224,255)"/>
<polygon points="252.4,230.3 258.4,230.3 258.4,236.3 252.4,236.3" fill="rgb(161,161,255)"/>
<polygon points="258.4,230.3 264.4,230.3 264.4,236.3 258.4,236.3" fill="rgb(185,185,255)"/>
<polygon points="264.4,230.3 270.4,230.3 270.4,236.3 264.4,236.3" fill="rgb(255,207,207)"/>
<polygon points="270.4,230.3 276.4,230.3 276.4,236.3 270.4,236.3" fill="rgb(255,180,180)"/>
<polygon points="276.4,230.3 282.4,230.3 282.4,236.3 276.4,236.3" fill="rgb(190,190,255)"/>
<polygon points="282.4,230.3 288.4,230.3 288.4,236.3 282.4,236.3" fill="rgb(255,191,191)"/>
<polygon points="288.4,230.3 294.4,230.3 294.4,236.3 288.4,236.3" fill="rgb(255,137,137)"/>
<polygon points="294.4,230.3 300.4,230.3 300.4,236.3 294.4,236.3" fill="rgb(180,180,255)"/>
<polygon points="310.4,230.3 316.4,230.3 316.4,236.3 310.4,236.3" fill="rgb(174,174,255)"/>
<polygon points="316.4,230.3 322.4,230.3 322.4,236.3 316.4,236.3" fill="rgb(183,183,255)"/>
<polygon points="322.4,230.3 328.4,230.3 328.4,236.3 322.4,236.3" fill="rgb(255,135,135)"/>
<polygon points="328.4,230.3 334.4,230.3 334.4,236.3 328.4,236.3" fill="rgb(255,170,170)"/>
<polygon points="334.4,230.3 340.4,230.3 340.4,236.3 334.4,236.3" fill="rgb(206,206,255)"/>
<polygon points="340.4,230.3 346.4,230.3 346.4,236.3 340.4,236.3" fill="rgb(254,155,155)"/>
<polygon points="346.4,230.3 352.4,230.3 352.4,236.3 346.4,236.3" fill="rgb(255,94,94)"/>
<polygon points="352.4,230.3 358.4,230.3 358.4,236.3 352.4,236.3" fill="rgb(185,185,255)"/>
<polygon points="160.4,236.3 168.4,236.3 168.4,242.3 160.4,242.3" fill="rgb(178,217,213)"/><text xml:space="preserve" x="164.4" y="242.133" font-family="Calibri" font-size="7.5" fill="rgb(0,0,0)" text-anchor="middle">4</text>
<polygon points="168.4,236.3 176.4,236.3 176.4,242.3 168.4,242.3" fill="rgb(134,198,192)"/><text xml:space="preserve" x="172.4" y="242.133" font-family="Calibri" font-size="7.5" fill="rgb(0,0,0)" text-anchor="middle">2</text>
<polygon points="176.4,236.3 184.4,236.3 184.4,242.3 176.4,242.3" fill="rgb(134,198,192)"/><text xml:space="preserve" x="180.4" y="242.133" font-family="Calibri" font-size="7.5" fill="rgb(0,0,0)" text-anchor="middle">2</text>
<polygon points="194.4,236.3 200.4,236.3 200.4,242.3 194.4,242.3" fill="rgb(168,168,255)"/>
<polygon points="200.4,236.3 206.4,236.3 206.4,242.3 200.4,242.3" fill="rgb(196,196,255)"/>
<polygon points="206.4,236.3 212.4,236.3 212.4,242.3 206.4,242.3" fill="rgb(255,243,243)"/>
<polygon points="212.4,236.3 218.4,236.3 218.4,242.3 212.4,242.3" fill="rgb(216,216,255)"/>
<polygon points="218.4,236.3 224.4,236.3 224.4,242.3 218.4,242.3" fill="rgb(187,187,255)"/>
<polygon points="224.4,236.3 230.4,236.3 230.4,242.3 224.4,242.3" fill="rgb(255,218,218)"/>
<polygon points="230.4,236.3 236.4,236.3 236.4,242.3 230.4,242.3" fill="rgb(243,243,255)"/>
<polygon points="236.4,236.3 242.4,236.3 242.4,242.3 236.4,242.3" fill="rgb(196,196,255)"/>
<polygon points="252.4,236.3 258.4,236.3 258.4,242.3 252.4,242.3" fill="rgb(204,204,255)"/>
<polygon points="258.4,236.3 264.4,236.3 264.4,242.3 258.4,242.3" fill="rgb(249,249,255)"/>
<polygon points="264.4,236.3 270.4,236.3 270.4,242.3 264.4,242.3" fill="rgb(202,202,255)"/>
<polygon points="270.4,236.3 276.4,236.3 276.4,242.3 270.4,242.3" fill="rgb(220,220,255)"/>
<polygon points="276.4,236.3 282.4,236.3 282.4,242.3 276.4,242.3" fill="rgb(255,92,92)"/>
<polygon points="282.4,236.3 288.4,236.3 288.4,242.3 282.4,242.3" fill="rgb(189,189,255)"/>
<polygon points="288.4,236.3 294.4,236.3 294.4,242.3 288.4,242.3" fill="rgb(220,220,255)"/>
<polygon points="294.4,236.3 300.4,236.3 300.4,242.3 294.4,242.3" fill="rgb(152,152,255)"/>
<polygon points="310.4,236.3 316.4,236.3 316.4,242.3 310.4,242.3" fill="rgb(132,132,255)"/>
<polygon points="316.4,236.3 322.4,236.3 322.4,242.3 316.4,242.3" fill="rgb(235,235,255)"/>
<polygon points="322.4,236.3 328.4,236.3 328.4,242.3 322.4,242.3" fill="rgb(198,198,255)"/>
<polygon points="328.4,236.3 334.4,236.3 334.4,242.3 328.4,242.3" fill="rgb(165,165,255)"/>
<polygon points="334.4,236.3 340.4,236.3 340.4,242.3 334.4,242.3" fill="rgb(177,177,255)"/>
<polygon points="340.4,236.3 346.4,236.3 346.4,242.3 340.4,242.3" fill="rgb(255,198,198)"/>
<polygon points="346.4,236.3 352.4,236.3 352.4,242.3 346.4,242.3" fill="rgb(211,211,255)"/>
<polygon points="352.4,236.3 358.4,236.3 358.4,242.3 352.4,242.3" fill="rgb(128,128,255)"/>
<polygon points="160.4,242.3 168.4,242.3 168.4,248.3 160.4,248.3" fill="rgb(178,217,213)"/><text xml:space="preserve" x="164.4" y="248.133" font-family="Calibri" font-size="7.5" fill="rgb(0,0,0)" text-anchor="middle">4</text>
<polygon points="168.4,242.3 176.4,242.3 176.4,248.3 168.4,248.3" fill="rgb(134,198,192)"/><text xml:space="preserve" x="172.4" y="248.133" font-family="Calibri" font-size="7.5" fill="rgb(0,0,0)" text-anchor="middle">2</text>
<polygon points="176.4,242.3 184.4,242.3 184.4,248.3 176.4,248.3" fill="rgb(134,198,192)"/><text xml:space="preserve" x="180.4" y="248.133" font-family="Calibri" font-size="7.5" fill="rgb(0,0,0)" text-anchor="middle">2</text>
<polygon points="194.4,242.3 200.4,242.3 200.4,248.3 194.4,248.3" fill="rgb(195,195,255)"/>
<polygon points="200.4,242.3 206.4,242.3 206.4,248.3 200.4,248.3" fill="rgb(184,184,255)"/>
<polygon points="206.4,242.3 212.4,242.3 212.4,248.3 206.4,248.3" fill="rgb(176,176,255)"/>
<polygon points="212.4,242.3 218.4,242.3 218.4,248.3 212.4,248.3" fill="rgb(188,188,255)"/>
<polygon points="218.4,242.3 224.4,242.3 224.4,248.3 218.4,248.3" fill="rgb(214,214,255)"/>
<polygon points="224.4,242.3 230.4,242.3 230.4,248.3 224.4,248.3" fill="rgb(255,245,245)"/>
<polygon points="230.4,242.3 236.4,242.3 236.4,248.3 230.4,248.3" fill="rgb(255,225,225)"/>
<polygon points="236.4,242.3 242.4,242.3 242.4,248.3 236.4,248.3" fill="rgb(235,235,255)"/>
<polygon points="252.4,242.3 258.4,242.3 258.4,248.3 252.4,248.3" fill="rgb(195,195,255)"/>
<polygon points="258.4,242.3 264.4,242.3 264.4,248.3 258.4,248.3" fill="rgb(215,215,255)"/>
<polygon points="264.4,242.3 270.4,242.3 270.4,248.3 264.4,248.3" fill="rgb(255,197,197)"/>
<polygon points="270.4,242.3 276.4,242.3 276.4,248.3 270.4,248.3" fill="rgb(255,202,202)"/>
<polygon points="276.4,242.3 282.4,242.3 282.4,248.3 276.4,248.3" fill="rgb(227,227,255)"/>
<polygon points="282.4,242.3 288.4,242.3 288.4,248.3 282.4,248.3" fill="rgb(255,177,177)"/>
<polygon points="288.4,242.3 294.4,242.3 294.4,248.3 288.4,248.3" fill="rgb(255,212,212)"/>
<polygon points="294.4,242.3 300.4,242.3 300.4,248.3 294.4,248.3" fill="rgb(153,153,255)"/>
<polygon points="310.4,242.3 316.4,242.3 316.4,248.3 310.4,248.3" fill="rgb(209,209,255)"/>
<polygon points="316.4,242.3 322.4,242.3 322.4,248.3 316.4,248.3" fill="rgb(147,147,255)"/>
<polygon points="322.4,242.3 328.4,242.3 328.4,248.3 322.4,248.3" fill="rgb(255,242,242)"/>
<polygon points="328.4,242.3 334.4,242.3 334.4,248.3 328.4,248.3" fill="rgb(184,184,255)"/>
<polygon points="334.4,242.3 340.4,242.3 340.4,248.3 334.4,248.3" fill="rgb(190,190,255)"/>
<polygon points="340.4,242.3 346.4,242.3 346.4,248.3 340.4,248.3" fill="rgb(255,168,168)"/>
<polygon points="346.4,242.3 352.4,242.3 352.4,248.3 346.4,248.3" fill="rgb(255,162,162)"/>
<polygon points="352.4,242.3 358.4,242.3 358.4,248.3 352.4,248.3" fill="rgb(255,237,237)"/>
<polygon points="160.4,248.3 168.4,248.3 168.4,254.3 160.4,254.3" fill="rgb(178,217,213)"/><text xml:space="preserve" x="164.4" y="254.133" font-family="Calibri" font-size="7.5" fill="rgb(0,0,0)" text-anchor="middle">4</text>
<polygon points="168.4,248.3 176.4,248.3 176.4,254.3 168.4,254.3" fill="rgb(134,198,192)"/><text xml:space="preserve" x="172.4" y="254.133" font-family="Calibri" font-size="7.5" fill="rgb(0,0,0)" text-anchor="middle">2</text>
<polygon points="176.4,248.3 184.4,248.3 184.4,254.3 176.4,254.3" fill="rgb(134,198,192)"/><text xml:space="preserve" x="180.4" y="254.133" font-family="Calibri" font-size="7.5" fill="rgb(0,0,0)" text-anchor="middle">2</text>
<polygon points="194.4,248.3 200.4,248.3 200.4,254.3 194.4,254.3" fill="rgb(160,160,255)"/>
<polygon points="200.4,248.3 206.4,248.3 206.4,254.3 200.4,254.3" fill="rgb(212,212,255)"/>
<polygon points="206.4,248.3 212.4,248.3 212.4,254.3 206.4,254.3" fill="rgb(255,218,218)"/>
<polygon points="212.4,248.3 218.4,248.3 218.4,254.3 212.4,254.3" fill="rgb(253,253,255)"/>
<polygon points="218.4,248.3 224.4,248.3 224.4,254.3 218.4,254.3" fill="rgb(219,219,255)"/>
<polygon points="224.4,248.3 230.4,248.3 230.4,254.3 224.4,254.3" fill="rgb(255,217,217)"/>
<polygon points="230.4,248.3 236.4,248.3 236.4,254.3 230.4,254.3" fill="rgb(254,154,154)"/>
<polygon points="236.4,248.3 242.4,248.3 242.4,254.3 236.4,254.3" fill="rgb(235,235,255)"/>
<polygon points="252.4,248.3 258.4,248.3 258.4,254.3 252.4,254.3" fill="rgb(153,153,255)"/>
<polygon points="258.4,248.3 264.4,248.3 264.4,254.3 258.4,254.3" fill="rgb(216,216,255)"/>
<polygon points="264.4,248.3 270.4,248.3 270.4,254.3 264.4,254.3" fill="rgb(255,218,218)"/>
<polygon points="270.4,248.3 276.4,248.3 276.4,254.3 270.4,254.3" fill="rgb(255,188,188)"/>
<polygon points="276.4,248.3 282.4,248.3 282.4,254.3 276.4,254.3" fill="rgb(255,206,206)"/>
<polygon points="282.4,248.3 288.4,248.3 288.4,254.3 282.4,254.3" fill="rgb(255,237,237)"/>
<polygon points="288.4,248.3 294.4,248.3 294.4,254.3 288.4,254.3" fill="rgb(226,226,255)"/>
<polygon points="294.4,248.3 300.4,248.3 300.4,254.3 294.4,254.3" fill="rgb(190,190,255)"/>
<polygon points="310.4,248.3 316.4,248.3 316.4,254.3 310.4,254.3" fill="rgb(168,168,255)"/>
<polygon points="316.4,248.3 322.4,248.3 322.4,254.3 316.4,254.3" fill="rgb(205,205,255)"/>
<polygon points="322.4,248.3 328.4,248.3 328.4,254.3 322.4,254.3" fill="rgb(255,182,182)"/>
<polygon points="328.4,248.3 334.4,248.3 334.4,254.3 328.4,254.3" fill="rgb(244,244,255)"/>
<polygon points="334.4,248.3 340.4,248.3 340.4,254.3 334.4,254.3" fill="rgb(190,190,255)"/>
<polygon points="340.4,248.3 346.4,248.3 346.4,254.3 340.4,254.3" fill="rgb(255,213,213)"/>
<polygon points="346.4,248.3 352.4,248.3 352.4,254.3 346.4,254.3" fill="rgb(202,202,255)"/>
<polygon points="352.4,248.3 358.4,248.3 358.4,254.3 352.4,254.3" fill="rgb(152,152,255)"/>
<polygon points="160.4,254.3 168.4,254.3 168.4,260.3 160.4,260.3" fill="rgb(178,217,213)"/><text xml:space="preserve" x="164.4" y="260.133" font-family="Calibri" font-size="7.5" fill="rgb(0,0,0)" text-anchor="middle">4</text>
<polygon points="168.4,254.3 176.4,254.3 176.4,260.3 168.4,260.3" fill="rgb(134,198,192)"/><text xml:space="preserve" x="172.4" y="260.133" font-family="Calibri" font-size="7.5" fill="rgb(0,0,0)" text-anchor="middle">2</text>
<polygon points="176.4,254.3 184.4,254.3 184.4,260.3 176.4,260.3" fill="rgb(134,198,192)"/><text xml:space="preserve" x="180.4" y="260.133" font-family="Calibri" font-size="7.5" fill="rgb(0,0,0)" text-anchor="middle">2</text>
<polygon points="194.4,254.3 200.4,254.3 200.4,260.3 194.4,260.3" fill="rgb(152,152,255)"/>
<polygon points="200.4,254.3 206.4,254.3 206.4,260.3 200.4,260.3" fill="rgb(194,194,255)"/>
<polygon points="206.4,254.3 212.4,254.3 212.4,260.3 206.4,260.3" fill="rgb(254,243,243)"/>
<polygon points="212.4,254.3 218.4,254.3 218.4,260.3 212.4,260.3" fill="rgb(255,228,228)"/>
<polygon points="218.4,254.3 224.4,254.3 224.4,260.3 218.4,260.3" fill="rgb(157,157,255)"/>
<polygon points="224.4,254.3 230.4,254.3 230.4,260.3 224.4,260.3" fill="rgb(235,235,255)"/>
<polygon points="230.4,254.3 236.4,254.3 236.4,260.3 230.4,260.3" fill="rgb(217,217,255)"/>
<polygon points="236.4,254.3 242.4,254.3 242.4,260.3 236.4,260.3" fill="rgb(251,251,255)"/>
<polygon points="252.4,254.3 258.4,254.3 258.4,260.3 252.4,260.3" fill="rgb(163,163,255)"/>
<polygon points="258.4,254.3 264.4,254.3 264.4,260.3 258.4,260.3" fill="rgb(186,186,255)"/>
<polygon points="264.4,254.3 270.4,254.3 270.4,260.3 264.4,260.3" fill="rgb(255,245,245)"/>
<polygon points="270.4,254.3 276.4,254.3 276.4,260.3 270.4,260.3" fill="rgb(255,182,182)"/>
<polygon points="276.4,254.3 282.4,254.3 282.4,260.3 276.4,260.3" fill="rgb(168,168,255)"/>
<polygon points="282.4,254.3 288.4,254.3 288.4,260.3 282.4,260.3" fill="rgb(244,244,255)"/>
<polygon points="288.4,254.3 294.4,254.3 294.4,260.3 288.4,260.3" fill="rgb(255,197,197)"/>
<polygon points="294.4,254.3 300.4,254.3 300.4,260.3 294.4,260.3" fill="rgb(122,122,255)"/>
<polygon points="310.4,254.3 316.4,254.3 316.4,260.3 310.4,260.3" fill="rgb(218,218,255)"/>
<polygon points="316.4,254.3 322.4,254.3 322.4,260.3 316.4,260.3" fill="rgb(189,189,255)"/>
<polygon points="322.4,254.3 328.4,254.3 328.4,260.3 322.4,260.3" fill="rgb(255,177,177)"/>
<polygon points="328.4,254.3 334.4,254.3 334.4,260.3 328.4,260.3" fill="rgb(255,128,128)"/>
<polygon points="334.4,254.3 340.4,254.3 340.4,260.3 334.4,260.3" fill="rgb(177,177,255)"/>
<polygon points="340.4,254.3 346.4,254.3 346.4,260.3 340.4,260.3" fill="rgb(220,220,255)"/>
<polygon points="346.4,254.3 352.4,254.3 352.4,260.3 346.4,260.3" fill="rgb(255,136,136)"/>
<polygon points="352.4,254.3 358.4,254.3 358.4,260.3 352.4,260.3" fill="rgb(230,230,255)"/>
<polygon points="160.4,260.3 168.4,260.3 168.4,266.3 160.4,266.3" fill="rgb(178,217,213)"/><text xml:space="preserve" x="164.4" y="266.133" font-family="Calibri" font-size="7.5" fill="rgb(0,0,0)" text-anchor="middle">4</text>
<polygon points="168.4,260.3 176.4,260.3 176.4,266.3 168.4,266.3" fill="rgb(134,198,192)"/><text xml:space="preserve" x="172.4" y="266.133" font-family="Calibri" font-size="7.5" fill="rgb(0,0,0)" text-anchor="middle">2</text>
<polygon points="176.4,260.3 184.4,260.3 184.4,266.3 176.4,266.3" fill="rgb(134,198,192)"/><text xml:space="preserve" x="180.4" y="266.133" font-family="Calibri" font-size="7.5" fill="rgb(0,0,0)" text-anchor="middle">2</text>
<polygon points="194.4,260.3 200.4,260.3 200.4,266.3 194.4,266.3" fill="rgb(108,108,255)"/>
<polygon points="200.4,260.3 206.4,260.3 206.4,266.3 200.4,266.3" fill="rgb(229,229,255)"/>
<polygon points="206.4,260.3 212.4,260.3 212.4,266.3 206.4,266.3" fill="rgb(255,193,193)"/>
<polygon points="212.4,260.3 218.4,260.3 218.4,266.3 212.4,266.3" fill="rgb(240,240,255)"/>
<polygon points="218.4,260.3 224.4,260.3 224.4,266.3 218.4,266.3" fill="rgb(189,189,255)"/>
<polygon points="224.4,260.3 230.4,260.3 230.4,266.3 224.4,266.3" fill="rgb(255,99,99)"/>
<polygon points="230.4,260.3 236.4,260.3 236.4,266.3 230.4,266.3" fill="rgb(190,190,255)"/>
<polygon points="236.4,260.3 242.4,260.3 242.4,266.3 236.4,266.3" fill="rgb(146,146,255)"/>
<polygon points="252.4,260.3 258.4,260.3 258.4,266.3 252.4,266.3" fill="rgb(200,200,255)"/>
<polygon points="258.4,260.3 264.4,260.3 264.4,266.3 258.4,266.3" fill="rgb(245,245,255)"/>
<polygon points="264.4,260.3 270.4,260.3 270.4,266.3 264.4,266.3" fill="rgb(236,236,255)"/>
<polygon points="270.4,260.3 276.4,260.3 276.4,266.3 270.4,266.3" fill="rgb(133,133,255)"/>
<polygon points="276.4,260.3 282.4,260.3 282.4,266.3 276.4,266.3" fill="rgb(151,151,255)"/>
<polygon points="282.4,260.3 288.4,260.3 288.4,266.3 282.4,266.3" fill="rgb(255,133,133)"/>
<polygon points="288.4,260.3 294.4,260.3 294.4,266.3 288.4,266.3" fill="rgb(255,242,242)"/>
<polygon points="294.4,260.3 300.4,260.3 300.4,266.3 294.4,266.3" fill="rgb(255,190,190)"/>
<polygon points="310.4,260.3 316.4,260.3 316.4,266.3 310.4,266.3" fill="rgb(111,111,255)"/>
<polygon points="316.4,260.3 322.4,260.3 322.4,266.3 316.4,266.3" fill="rgb(241,241,255)"/>
<polygon points="322.4,260.3 328.4,260.3 328.4,266.3 322.4,266.3" fill="rgb(255,252,252)"/>
<polygon points="328.4,260.3 334.4,260.3 334.4,266.3 328.4,266.3" fill="rgb(63,63,255)"/>
<polygon points="334.4,260.3 340.4,260.3 340.4,266.3 334.4,266.3" fill="rgb(178,178,255)"/>
<polygon points="340.4,260.3 346.4,260.3 346.4,266.3 340.4,266.3" fill="rgb(255,199,199)"/>
<polygon points="346.4,260.3 352.4,260.3 352.4,266.3 346.4,266.3" fill="rgb(254,219,219)"/>
<polygon points="352.4,260.3 358.4,260.3 358.4,266.3 352.4,266.3" fill="rgb(157,157,255)"/>
<polygon points="160.4,266.3 168.4,266.3 168.4,272.3 160.4,272.3" fill="rgb(178,217,213)"/><text xml:space="preserve" x="164.4" y="272.133" font-family="Calibri" font-size="7.5" fill="rgb(0,0,0)" text-anchor="middle">4</text>
<polygon points="168.4,266.3 176.4,266.3 176.4,272.3 168.4,272.3" fill="rgb(134,198,192)"/><text xml:space="preserve" x="172.4" y="272.133" font-family="Calibri" font-size="7.5" fill="rgb(0,0,0)" text-anchor="middle">2</text>
<polygon points="176.4,266.3 184.4,266.3 184.4,272.3 176.4,272.3" fill="rgb(134,198,192)"/><text xml:space="preserve" x="180.4" y="272.133" font-family="Calibri" font-size="7.5" fill="rgb(0,0,0)" text-anchor="middle">2</text>
<polygon points="194.4,266.3 200.4,266.3 200.4,272.3 194.4,272.3" fill="rgb(177,177,255)"/>
<polygon points="200.4,266.3 206.4,266.3 206.4,272.3 200.4,272.3" fill="rgb(175,175,255)"/>
<polygon points="206.4,266.3 212.4,266.3 212.4,272.3 206.4,272.3" fill="rgb(235,235,255)"/>
<polygon points="212.4,266.3 218.4,266.3 218.4,272.3 212.4,272.3" fill="rgb(237,237,255)"/>
<polygon points="218.4,266.3 224.4,266.3 224.4,272.3 218.4,272.3" fill="rgb(209,209,255)"/>
<polygon points="224.4,266.3 230.4,266.3 230.4,272.3 224.4,272.3" fill="rgb(255,161,161)"/>
<polygon points="230.4,266.3 236.4,266.3 236.4,272.3 230.4,272.3" fill="rgb(244,244,255)"/>
<polygon points="236.4,266.3 242.4,266.3 242.4,272.3 236.4,272.3" fill="rgb(210,210,255)"/>
<polygon points="252.4,266.3 258.4,266.3 258.4,272.3 252.4,272.3" fill="rgb(196,196,255)"/>
<polygon points="258.4,266.3 264.4,266.3 264.4,272.3 258.4,272.3" fill="rgb(245,245,255)"/>
<polygon points="264.4,266.3 270.4,266.3 270.4,272.3 264.4,272.3" fill="rgb(255,192,192)"/>
<polygon points="270.4,266.3 276.4,266.3 276.4,272.3 270.4,272.3" fill="rgb(255,139,139)"/>
<polygon points="276.4,266.3 282.4,266.3 282.4,272.3 276.4,272.3" fill="rgb(255,190,190)"/>
<polygon points="282.4,266.3 288.4,266.3 288.4,272.3 282.4,272.3" fill="rgb(255,242,242)"/>
<polygon points="288.4,266.3 294.4,266.3 294.4,272.3 288.4,272.3" fill="rgb(241,241,255)"/>
<polygon points="294.4,266.3 300.4,266.3 300.4,272.3 294.4,272.3" fill="rgb(156,156,255)"/>
<polygon points="310.4,266.3 316.4,266.3 316.4,272.3 310.4,272.3" fill="rgb(254,248,248)"/>
<polygon points="316.4,266.3 322.4,266.3 322.4,272.3 316.4,272.3" fill="rgb(234,234,255)"/>
<polygon points="322.4,266.3 328.4,266.3 328.4,272.3 322.4,272.3" fill="rgb(255,155,155)"/>
<polygon points="328.4,266.3 334.4,266.3 334.4,272.3 328.4,272.3" fill="rgb(255,141,141)"/>
<polygon points="334.4,266.3 340.4,266.3 340.4,272.3 334.4,272.3" fill="rgb(255,159,159)"/>
<polygon points="340.4,266.3 346.4,266.3 346.4,272.3 340.4,272.3" fill="rgb(255,219,219)"/>
<polygon points="346.4,266.3 352.4,266.3 352.4,272.3 346.4,272.3" fill="rgb(210,210,255)"/>
<polygon points="352.4,266.3 358.4,266.3 358.4,272.3 352.4,272.3" fill="rgb(162,162,255)"/>
<polygon points="160.4,272.3 168.4,272.3 168.4,278.3 160.4,278.3" fill="rgb(178,217,213)"/><text xml:space="preserve" x="164.4" y="278.133" font-family="Calibri" font-size="7.5" fill="rgb(0,0,0)" text-anchor="middle">4</text>
<polygon points="168.4,272.3 176.4,272.3 176.4,278.3 168.4,278.3" fill="rgb(134,198,192)"/><text xml:space="preserve" x="172.4" y="278.133" font-family="Calibri" font-size="7.5" fill="rgb(0,0,0)" text-anchor="middle">2</text>
<polygon points="176.4,272.3 184.4,272.3 184.4,278.3 176.4,278.3" fill="rgb(134,198,192)"/><text xml:space="preserve" x="180.4" y="278.133" font-family="Calibri" font-size="7.5" fill="rgb(0,0,0)" text-anchor="middle">2</text>
<polygon points="194.4,272.3 200.4,272.3 200.4,278.3 194.4,278.3" fill="rgb(155,155,255)"/>
<polygon points="200.4,272.3 206.4,272.3 206.4,278.3 200.4,278.3" fill="rgb(222,222,255)"/>
<polygon points="206.4,272.3 212.4,272.3 212.4,278.3 206.4,278.3" fill="rgb(254,243,243)"/>
<polygon points="212.4,272.3 218.4,272.3 218.4,278.3 212.4,278.3" fill="rgb(247,247,255)"/>
<polygon points="218.4,272.3 224.4,272.3 224.4,278.3 218.4,278.3" fill="rgb(188,188,255)"/>
<polygon points="224.4,272.3 230.4,272.3 230.4,278.3 224.4,278.3" fill="rgb(209,209,255)"/>
<polygon points="230.4,272.3 236.4,272.3 236.4,278.3 230.4,278.3" fill="rgb(250,250,255)"/>
<polygon points="236.4,272.3 242.4,272.3 242.4,278.3 236.4,278.3" fill="rgb(255,230,230)"/>
<polygon points="252.4,272.3 258.4,272.3 258.4,278.3 252.4,278.3" fill="rgb(229,229,255)"/>
<polygon points="258.4,272.3 264.4,272.3 264.4,278.3 258.4,278.3" fill="rgb(189,189,255)"/>
<polygon points="264.4,272.3 270.4,272.3 270.4,278.3 264.4,278.3" fill="rgb(213,213,255)"/>
<polygon points="270.4,272.3 276.4,272.3 276.4,278.3 270.4,278.3" fill="rgb(115,115,255)"/>
<polygon points="276.4,272.3 282.4,272.3 282.4,278.3 276.4,278.3" fill="rgb(161,161,255)"/>
<polygon points="282.4,272.3 288.4,272.3 288.4,278.3 282.4,278.3" fill="rgb(234,234,255)"/>
<polygon points="288.4,272.3 294.4,272.3 294.4,278.3 288.4,278.3" fill="rgb(255,0,0)"/>
<polygon points="294.4,272.3 300.4,272.3 300.4,278.3 294.4,278.3" fill="rgb(255,180,180)"/>
<polygon points="310.4,272.3 316.4,272.3 316.4,278.3 310.4,278.3" fill="rgb(103,103,255)"/>
<polygon points="316.4,272.3 322.4,272.3 322.4,278.3 316.4,278.3" fill="rgb(201,201,255)"/>
<polygon points="322.4,272.3 328.4,272.3 328.4,278.3 322.4,278.3" fill="rgb(199,199,255)"/>
<polygon points="328.4,272.3 334.4,272.3 334.4,278.3 328.4,278.3" fill="rgb(136,136,255)"/>
<polygon points="334.4,272.3 340.4,272.3 340.4,278.3 334.4,278.3" fill="rgb(157,157,255)"/>
<polygon points="340.4,272.3 346.4,272.3 346.4,278.3 340.4,278.3" fill="rgb(133,133,255)"/>
<polygon points="346.4,272.3 352.4,272.3 352.4,278.3 346.4,278.3" fill="rgb(255,247,247)"/>
<polygon points="352.4,272.3 358.4,272.3 358.4,278.3 352.4,278.3" fill="rgb(255,252,252)"/>
<polygon points="160.4,278.3 168.4,278.3 168.4,284.3 160.4,284.3" fill="rgb(178,217,213)"/><text xml:space="preserve" x="164.4" y="284.133" font-family="Calibri" font-size="7.5" fill="rgb(0,0,0)" text-anchor="middle">4</text>
<polygon points="168.4,278.3 176.4,278.3 176.4,284.3 168.4,284.3" fill="rgb(134,198,192)"/><text xml:space="preserve" x="172.4" y="284.133" font-family="Calibri" font-size="7.5" fill="rgb(0,0,0)" text-anchor="middle">2</text>
<polygon points="176.4,278.3 184.4,278.3 184.4,284.3 176.4,284.3" fill="rgb(134,198,192)"/><text xml:space="preserve" x="180.4" y="284.133" font-family="Calibri" font-size="7.5" fill="rgb(0,0,0)" text-anchor="middle">2</text>
<polygon points="194.4,278.3 200.4,278.3 200.4,284.3 194.4,284.3" fill="rgb(150,150,255)"/>
<polygon points="200.4,278.3 206.4,278.3 206.4,284.3 200.4,284.3" fill="rgb(222,222,255)"/>
<polygon points="206.4,278.3 212.4,278.3 212.4,284.3 206.4,284.3" fill="rgb(225,225,255)"/>
<polygon points="212.4,278.3 218.4,278.3 218.4,284.3 212.4,284.3" fill="rgb(219,219,255)"/>
<polygon points="218.4,278.3 224.4,278.3 224.4,284.3 218.4,284.3" fill="rgb(215,215,255)"/>
<polygon points="224.4,278.3 230.4,278.3 230.4,284.3 224.4,284.3" fill="rgb(214,214,255)"/>
<polygon points="230.4,278.3 236.4,278.3 236.4,284.3 230.4,284.3" fill="rgb(187,187,255)"/>
<polygon points="236.4,278.3 242.4,278.3 242.4,284.3 236.4,284.3" fill="rgb(222,222,255)"/>
<polygon points="252.4,278.3 258.4,278.3 258.4,284.3 252.4,284.3" fill="rgb(198,198,255)"/>
<polygon points="258.4,278.3 264.4,278.3 264.4,284.3 258.4,284.3" fill="rgb(213,213,255)"/>
<polygon points="264.4,278.3 270.4,278.3 270.4,284.3 264.4,284.3" fill="rgb(190,190,255)"/>
<polygon points="270.4,278.3 276.4,278.3 276.4,284.3 270.4,284.3" fill="rgb(226,226,255)"/>
<polygon points="276.4,278.3 282.4,278.3 282.4,284.3 276.4,284.3" fill="rgb(232,232,255)"/>
<polygon points="282.4,278.3 288.4,278.3 288.4,284.3 282.4,284.3" fill="rgb(217,217,255)"/>
<polygon points="288.4,278.3 294.4,278.3 294.4,284.3 288.4,284.3" fill="rgb(255,246,246)"/>
<polygon points="294.4,278.3 300.4,278.3 300.4,284.3 294.4,284.3" fill="rgb(255,177,177)"/>
<polygon points="310.4,278.3 316.4,278.3 316.4,284.3 310.4,284.3" fill="rgb(222,222,255)"/>
<polygon points="316.4,278.3 322.4,278.3 322.4,284.3 316.4,284.3" fill="rgb(228,228,255)"/>
<polygon points="322.4,278.3 328.4,278.3 328.4,284.3 322.4,284.3" fill="rgb(255,180,180)"/>
<polygon points="328.4,278.3 334.4,278.3 334.4,284.3 328.4,284.3" fill="rgb(255,184,184)"/>
<polygon points="334.4,278.3 340.4,278.3 340.4,284.3 334.4,284.3" fill="rgb(255,232,232)"/>
<polygon points="340.4,278.3 346.4,278.3 346.4,284.3 340.4,284.3" fill="rgb(255,242,242)"/>
<polygon points="346.4,278.3 352.4,278.3 352.4,284.3 346.4,284.3" fill="rgb(244,244,255)"/>
<polygon points="352.4,278.3 358.4,278.3 358.4,284.3 352.4,284.3" fill="rgb(255,208,208)"/>
<polygon points="160.4,284.3 168.4,284.3 168.4,290.3 160.4,290.3" fill="rgb(178,217,213)"/><text xml:space="preserve" x="164.4" y="290.133" font-family="Calibri" font-size="7.5" fill="rgb(0,0,0)" text-anchor="middle">4</text>
<polygon points="168.4,284.3 176.4,284.3 176.4,290.3 168.4,290.3" fill="rgb(134,198,192)"/><text xml:space="preserve" x="172.4" y="290.133" font-family="Calibri" font-size="7.5" fill="rgb(0,0,0)" text-anchor="middle">2</text>
<polygon points="176.4,284.3 184.4,284.3 184.4,290.3 176.4,290.3" fill="rgb(134,198,192)"/><text xml:space="preserve" x="180.4" y="290.133" font-family="Calibri" font-size="7.5" fill="rgb(0,0,0)" text-anchor="middle">2</text>
<polygon points="194.4,284.3 200.4,284.3 200.4,290.3 194.4,290.3" fill="rgb(86,86,255)"/>
<polygon points="200.4,284.3 206.4,284.3 206.4,290.3 200.4,290.3" fill="rgb(180,180,255)"/>
<polygon points="206.4,284.3 212.4,284.3 212.4,290.3 206.4,290.3" fill="rgb(255,249,249)"/>
<polygon points="212.4,284.3 218.4,284.3 218.4,290.3 212.4,290.3" fill="rgb(161,161,255)"/>
<polygon points="218.4,284.3 224.4,284.3 224.4,290.3 218.4,290.3" fill="rgb(173,173,255)"/>
<polygon points="224.4,284.3 230.4,284.3 230.4,290.3 224.4,290.3" fill="rgb(255,230,230)"/>
<polygon points="230.4,284.3 236.4,284.3 236.4,290.3 230.4,290.3" fill="rgb(219,219,255)"/>
<polygon points="236.4,284.3 242.4,284.3 242.4,290.3 236.4,290.3" fill="rgb(238,238,255)"/>
<polygon points="252.4,284.3 258.4,284.3 258.4,290.3 252.4,290.3" fill="rgb(198,198,255)"/>
<polygon points="258.4,284.3 264.4,284.3 264.4,290.3 258.4,290.3" fill="rgb(255,252,252)"/>
<polygon points="264.4,284.3 270.4,284.3 270.4,290.3 264.4,290.3" fill="rgb(255,229,229)"/>
<polygon points="270.4,284.3 276.4,284.3 276.4,290.3 270.4,290.3" fill="rgb(215,215,255)"/>
<polygon points="276.4,284.3 282.4,284.3 282.4,290.3 276.4,290.3" fill="rgb(130,130,255)"/>
<polygon points="282.4,284.3 288.4,284.3 288.4,290.3 282.4,290.3" fill="rgb(255,253,253)"/>
<polygon points="288.4,284.3 294.4,284.3 294.4,290.3 288.4,290.3" fill="rgb(248,248,255)"/>
<polygon points="294.4,284.3 300.4,284.3 300.4,290.3 294.4,290.3" fill="rgb(255,175,175)"/>
<polygon points="310.4,284.3 316.4,284.3 316.4,290.3 310.4,290.3" fill="rgb(71,71,255)"/>
<polygon points="316.4,284.3 322.4,284.3 322.4,290.3 316.4,290.3" fill="rgb(183,183,255)"/>
<polygon points="322.4,284.3 328.4,284.3 328.4,290.3 322.4,290.3" fill="rgb(243,243,255)"/>
<polygon points="328.4,284.3 334.4,284.3 334.4,290.3 328.4,290.3" fill="rgb(99,99,255)"/>
<polygon points="334.4,284.3 340.4,284.3 340.4,290.3 334.4,290.3" fill="rgb(124,124,255)"/>
<polygon points="340.4,284.3 346.4,284.3 346.4,290.3 340.4,290.3" fill="rgb(255,251,251)"/>
<polygon points="346.4,284.3 352.4,284.3 352.4,290.3 346.4,290.3" fill="rgb(207,207,255)"/>
<polygon points="352.4,284.3 358.4,284.3 358.4,290.3 352.4,290.3" fill="rgb(255,239,239)"/>
<polygon points="160.4,290.3 168.4,290.3 168.4,296.3 160.4,296.3" fill="rgb(178,217,213)"/><text xml:space="preserve" x="164.4" y="296.133" font-family="Calibri" font-size="7.5" fill="rgb(0,0,0)" text-anchor="middle">4</text>
<polygon points="168.4,290.3 176.4,290.3 176.4,296.3 168.4,296.3" fill="rgb(134,198,192)"/><text xml:space="preserve" x="172.4" y="296.133" font-family="Calibri" font-size="7.5" fill="rgb(0,0,0)" text-anchor="middle">2</text>
<polygon points="176.4,290.3 184.4,290.3 184.4,296.3 176.4,296.3" fill="rgb(134,198,192)"/><text xml:space="preserve" x="180.4" y="296.133" font-family="Calibri" font-size="7.5" fill="rgb(0,0,0)" text-anchor="middle">2</text>
<polygon points="194.4,290.3 200.4,290.3 200.4,296.3 194.4,296.3" fill="rgb(167,167,255)"/>
<polygon points="200.4,290.3 206.4,290.3 206.4,296.3 200.4,296.3" fill="rgb(181,181,255)"/>
<polygon points="206.4,290.3 212.4,290.3 212.4,296.3 206.4,296.3" fill="rgb(200,200,255)"/>
<polygon points="212.4,290.3 218.4,290.3 218.4,296.3 212.4,296.3" fill="rgb(222,222,255)"/>
<polygon points="218.4,290.3 224.4,290.3 224.4,296.3 218.4,296.3" fill="rgb(194,194,255)"/>
<polygon points="224.4,290.3 230.4,290.3 230.4,296.3 224.4,296.3" fill="rgb(255,192,192)"/>
<polygon points="230.4,290.3 236.4,290.3 236.4,296.3 230.4,296.3" fill="rgb(221,221,255)"/>
<polygon points="236.4,290.3 242.4,290.3 242.4,296.3 236.4,296.3" fill="rgb(208,208,255)"/>
<polygon points="252.4,290.3 258.4,290.3 258.4,296.3 252.4,296.3" fill="rgb(178,178,255)"/>
<polygon points="258.4,290.3 264.4,290.3 264.4,296.3 258.4,296.3" fill="rgb(202,202,255)"/>
<polygon points="264.4,290.3 270.4,290.3 270.4,296.3 264.4,296.3" fill="rgb(240,240,255)"/>
<polygon points="270.4,290.3 276.4,290.3 276.4,296.3 270.4,296.3" fill="rgb(255,244,244)"/>
<polygon points="276.4,290.3 282.4,290.3 282.4,296.3 276.4,296.3" fill="rgb(229,229,255)"/>
<polygon points="282.4,290.3 288.4,290.3 288.4,296.3 282.4,296.3" fill="rgb(255,147,147)"/>
<polygon points="288.4,290.3 294.4,290.3 294.4,296.3 288.4,296.3" fill="rgb(255,229,229)"/>
<polygon points="294.4,290.3 300.4,290.3 300.4,296.3 294.4,296.3" fill="rgb(171,171,255)"/>
<polygon points="310.4,290.3 316.4,290.3 316.4,296.3 310.4,296.3" fill="rgb(236,236,255)"/>
<polygon points="316.4,290.3 322.4,290.3 322.4,296.3 316.4,296.3" fill="rgb(255,247,247)"/>
<polygon points="322.4,290.3 328.4,290.3 328.4,296.3 322.4,296.3" fill="rgb(255,178,178)"/>
<polygon points="328.4,290.3 334.4,290.3 334.4,296.3 328.4,296.3" fill="rgb(255,95,95)"/>
<polygon points="334.4,290.3 340.4,290.3 340.4,296.3 334.4,296.3" fill="rgb(255,229,229)"/>
<polygon points="340.4,290.3 346.4,290.3 346.4,296.3 340.4,296.3" fill="rgb(255,220,220)"/>
<polygon points="346.4,290.3 352.4,290.3 352.4,296.3 346.4,296.3" fill="rgb(239,239,255)"/>
<polygon points="352.4,290.3 358.4,290.3 358.4,296.3 352.4,296.3" fill="rgb(137,137,255)"/>
<polygon points="160.4,296.3 168.4,296.3 168.4,302.3 160.4,302.3" fill="rgb(178,217,213)"/><text xml:space="preserve" x="164.4" y="302.133" font-family="Calibri" font-size="7.5" fill="rgb(0,0,0)" text-anchor="middle">4</text>
<polygon points="168.4,296.3 176.4,296.3 176.4,302.3 168.4,302.3" fill="rgb(134,198,192)"/><text xml:space="preserve" x="172.4" y="302.133" font-family="Calibri" font-size="7.5" fill="rgb(0,0,0)" text-anchor="middle">2</text>
<polygon points="176.4,296.3 184.4,296.3 184.4,302.3 176.4,302.3" fill="rgb(134,198,192)"/><text xml:space="preserve" x="180.4" y="302.133" font-family="Calibri" font-size="7.5" fill="rgb(0,0,0)" text-anchor="middle">2</text>
<polygon points="194.4,296.3 200.4,296.3 200.4,302.3 194.4,302.3" fill="rgb(167,167,255)"/>
<polygon points="200.4,296.3 206.4,296.3 206.4,302.3 200.4,302.3" fill="rgb(204,204,255)"/>
<polygon points="206.4,296.3 212.4,296.3 212.4,302.3 206.4,302.3" fill="rgb(211,211,255)"/>
<polygon points="212.4,296.3 218.4,296.3 218.4,302.3 212.4,302.3" fill="rgb(220,220,255)"/>
<polygon points="218.4,296.3 224.4,296.3 224.4,302.3 218.4,302.3" fill="rgb(206,206,255)"/>
<polygon points="224.4,296.3 230.4,296.3 230.4,302.3 224.4,302.3" fill="rgb(185,185,255)"/>
<polygon points="230.4,296.3 236.4,296.3 236.4,302.3 230.4,302.3" fill="rgb(252,252,255)"/>
<polygon points="236.4,296.3 242.4,296.3 242.4,302.3 236.4,302.3" fill="rgb(255,248,248)"/>
<polygon points="252.4,296.3 258.4,296.3 258.4,302.3 252.4,302.3" fill="rgb(221,221,255)"/>
<polygon points="258.4,296.3 264.4,296.3 264.4,302.3 258.4,302.3" fill="rgb(251,251,255)"/>
<polygon points="264.4,296.3 270.4,296.3 270.4,302.3 264.4,302.3" fill="rgb(255,207,207)"/>
<polygon points="270.4,296.3 276.4,296.3 276.4,302.3 270.4,302.3" fill="rgb(255,90,90)"/>
<polygon points="276.4,296.3 282.4,296.3 282.4,302.3 276.4,302.3" fill="rgb(255,189,189)"/>
<polygon points="282.4,296.3 288.4,296.3 288.4,302.3 282.4,302.3" fill="rgb(198,198,255)"/>
<polygon points="288.4,296.3 294.4,296.3 294.4,302.3 288.4,302.3" fill="rgb(255,234,234)"/>
<polygon points="294.4,296.3 300.4,296.3 300.4,302.3 294.4,302.3" fill="rgb(173,173,255)"/>
<polygon points="310.4,296.3 316.4,296.3 316.4,302.3 310.4,302.3" fill="rgb(238,238,255)"/>
<polygon points="316.4,296.3 322.4,296.3 322.4,302.3 316.4,302.3" fill="rgb(249,249,255)"/>
<polygon points="322.4,296.3 328.4,296.3 328.4,302.3 322.4,302.3" fill="rgb(255,149,149)"/>
<polygon points="328.4,296.3 334.4,296.3 334.4,302.3 328.4,302.3" fill="rgb(255,61,61)"/>
<polygon points="334.4,296.3 340.4,296.3 340.4,302.3 334.4,302.3" fill="rgb(255,95,95)"/>
<polygon points="340.4,296.3 346.4,296.3 346.4,302.3 340.4,302.3" fill="rgb(250,250,255)"/>
<polygon points="346.4,296.3 352.4,296.3 352.4,302.3 346.4,302.3" fill="rgb(255,203,203)"/>
<polygon points="352.4,296.3 358.4,296.3 358.4,302.3 352.4,302.3" fill="rgb(133,133,255)"/>
<polygon points="160.4,302.3 168.4,302.3 168.4,308.3 160.4,308.3" fill="rgb(178,217,213)"/><text xml:space="preserve" x="164.4" y="308.133" font-family="Calibri" font-size="7.5" fill="rgb(0,0,0)" text-anchor="middle">4</text>
<polygon points="168.4,302.3 176.4,302.3 176.4,308.3 168.4,308.3" fill="rgb(134,198,192)"/><text xml:space="preserve" x="172.4" y="308.133" font-family="Calibri" font-size="7.5" fill="rgb(0,0,0)" text-anchor="middle">2</text>
<polygon points="176.4,302.3 184.4,302.3 184.4,308.3 176.4,308.3" fill="rgb(134,198,192)"/><text xml:space="preserve" x="180.4" y="308.133" font-family="Calibri" font-size="7.5" fill="rgb(0,0,0)" text-anchor="middle">2</text>
<polygon points="194.4,302.3 200.4,302.3 200.4,308.3 194.4,308.3" fill="rgb(86,86,255)"/>
<polygon points="200.4,302.3 206.4,302.3 206.4,308.3 200.4,308.3" fill="rgb(180,180,255)"/>
<polygon points="206.4,302.3 212.4,302.3 212.4,308.3 206.4,308.3" fill="rgb(255,249,249)"/>
<polygon points="212.4,302.3 218.4,302.3 218.4,308.3 212.4,308.3" fill="rgb(161,161,255)"/>
<polygon points="218.4,302.3 224.4,302.3 224.4,308.3 218.4,308.3" fill="rgb(173,173,255)"/>
<polygon points="224.4,302.3 230.4,302.3 230.4,308.3 224.4,308.3" fill="rgb(255,230,230)"/>
<polygon points="230.4,302.3 236.4,302.3 236.4,308.3 230.4,308.3" fill="rgb(219,219,255)"/>
<polygon points="236.4,302.3 242.4,302.3 242.4,308.3 236.4,308.3" fill="rgb(238,238,255)"/>
<polygon points="252.4,302.3 258.4,302.3 258.4,308.3 252.4,308.3" fill="rgb(198,198,255)"/>
<polygon points="258.4,302.3 264.4,302.3 264.4,308.3 258.4,308.3" fill="rgb(255,252,252)"/>
<polygon points="264.4,302.3 270.4,302.3 270.4,308.3 264.4,308.3" fill="rgb(255,229,229)"/>
<polygon points="270.4,302.3 276.4,302.3 276.4,308.3 270.4,308.3" fill="rgb(215,215,255)"/>
<polygon points="276.4,302.3 282.4,302.3 282.4,308.3 276.4,308.3" fill="rgb(130,130,255)"/>
<polygon points="282.4,302.3 288.4,302.3 288.4,308.3 282.4,308.3" fill="rgb(255,253,253)"/>
<polygon points="288.4,302.3 294.4,302.3 294.4,308.3 288.4,308.3" fill="rgb(248,248,255)"/>
<polygon points="294.4,302.3 300.4,302.3 300.4,308.3 294.4,308.3" fill="rgb(255,175,175)"/>
<polygon points="310.4,302.3 316.4,302.3 316.4,308.3 310.4,308.3" fill="rgb(71,71,255)"/>
<polygon points="316.4,302.3 322.4,302.3 322.4,308.3 316.4,308.3" fill="rgb(183,183,255)"/>
<polygon points="322.4,302.3 328.4,302.3 328.4,308.3 322.4,308.3" fill="rgb(243,243,255)"/>
<polygon points="328.4,302.3 334.4,302.3 334.4,308.3 328.4,308.3" fill="rgb(99,99,255)"/>
<polygon points="334.4,302.3 340.4,302.3 340.4,308.3 334.4,308.3" fill="rgb(124,124,255)"/>
<polygon points="340.4,302.3 346.4,302.3 346.4,308.3 340.4,308.3" fill="rgb(255,251,251)"/>
<polygon points="346.4,302.3 352.4,302.3 352.4,308.3 346.4,308.3" fill="rgb(207,207,255)"/>
<polygon points="352.4,302.3 358.4,302.3 358.4,308.3 352.4,308.3" fill="rgb(255,239,239)"/>
<polygon points="160.4,308.3 168.4,308.3 168.4,314.3 160.4,314.3" fill="rgb(178,217,213)"/><text xml:space="preserve" x="164.4" y="314.133" font-family="Calibri" font-size="7.5" fill="rgb(0,0,0)" text-anchor="middle">4</text>
<polygon points="168.4,308.3 176.4,308.3 176.4,314.3 168.4,314.3" fill="rgb(134,198,192)"/><text xml:space="preserve" x="172.4" y="314.133" font-family="Calibri" font-size="7.5" fill="rgb(0,0,0)" text-anchor="middle">2</text>
<polygon points="176.4,308.3 184.4,308.3 184.4,314.3 176.4,314.3" fill="rgb(134,198,192)"/><text xml:space="preserve" x="180.4" y="314.133" font-family="Calibri" font-size="7.5" fill="rgb(0,0,0)" text-anchor="middle">2</text>
<polygon points="194.4,308.3 200.4,308.3 200.4,314.3 194.4,314.3" fill="rgb(152,152,255)"/>
<polygon points="200.4,308.3 206.4,308.3 206.4,314.3 200.4,314.3" fill="rgb(233,233,255)"/>
<polygon points="206.4,308.3 212.4,308.3 212.4,314.3 206.4,314.3" fill="rgb(251,251,255)"/>
<polygon points="212.4,308.3 218.4,308.3 218.4,314.3 212.4,314.3" fill="rgb(182,182,255)"/>
<polygon points="218.4,308.3 224.4,308.3 224.4,314.3 218.4,314.3" fill="rgb(177,177,255)"/>
<polygon points="224.4,308.3 230.4,308.3 230.4,314.3 224.4,314.3" fill="rgb(185,185,255)"/>
<polygon points="230.4,308.3 236.4,308.3 236.4,314.3 230.4,314.3" fill="rgb(254,217,217)"/>
<polygon points="236.4,308.3 242.4,308.3 242.4,314.3 236.4,314.3" fill="rgb(255,206,206)"/>
<polygon points="252.4,308.3 258.4,308.3 258.4,314.3 252.4,314.3" fill="rgb(229,229,255)"/>
<polygon points="258.4,308.3 264.4,308.3 264.4,314.3 258.4,314.3" fill="rgb(255,224,224)"/>
<polygon points="264.4,308.3 270.4,308.3 270.4,314.3 264.4,314.3" fill="rgb(155,155,255)"/>
<polygon points="270.4,308.3 276.4,308.3 276.4,314.3 270.4,314.3" fill="rgb(220,220,255)"/>
<polygon points="276.4,308.3 282.4,308.3 282.4,314.3 276.4,314.3" fill="rgb(194,194,255)"/>
<polygon points="282.4,308.3 288.4,308.3 288.4,314.3 282.4,314.3" fill="rgb(134,134,255)"/>
<polygon points="288.4,308.3 294.4,308.3 294.4,314.3 288.4,314.3" fill="rgb(156,156,255)"/>
<polygon points="294.4,308.3 300.4,308.3 300.4,314.3 294.4,314.3" fill="rgb(255,243,243)"/>
<polygon points="310.4,308.3 316.4,308.3 316.4,314.3 310.4,314.3" fill="rgb(156,156,255)"/>
<polygon points="316.4,308.3 322.4,308.3 322.4,314.3 316.4,314.3" fill="rgb(211,211,255)"/>
<polygon points="322.4,308.3 328.4,308.3 328.4,314.3 322.4,314.3" fill="rgb(94,94,255)"/>
<polygon points="328.4,308.3 334.4,308.3 334.4,314.3 328.4,314.3" fill="rgb(183,183,255)"/>
<polygon points="334.4,308.3 340.4,308.3 340.4,314.3 334.4,314.3" fill="rgb(184,184,255)"/>
<polygon points="340.4,308.3 346.4,308.3 346.4,314.3 340.4,314.3" fill="rgb(217,217,255)"/>
<polygon points="346.4,308.3 352.4,308.3 352.4,314.3 346.4,314.3" fill="rgb(163,163,255)"/>
<polygon points="352.4,308.3 358.4,308.3 358.4,314.3 352.4,314.3" fill="rgb(236,236,255)"/>
<polygon points="160.4,314.3 168.4,314.3 168.4,320.3 160.4,320.3" fill="rgb(178,217,213)"/><text xml:space="preserve" x="164.4" y="320.133" font-family="Calibri" font-size="7.5" fill="rgb(0,0,0)" text-anchor="middle">4</text>
<polygon points="168.4,314.3 176.4,314.3 176.4,320.3 168.4,320.3" fill="rgb(134,198,192)"/><text xml:space="preserve" x="172.4" y="320.133" font-family="Calibri" font-size="7.5" fill="rgb(0,0,0)" text-anchor="middle">2</text>
<polygon points="176.4,314.3 184.4,314.3 184.4,320.3 176.4,320.3" fill="rgb(134,198,192)"/><text xml:space="preserve" x="180.4" y="320.133" font-family="Calibri" font-size="7.5" fill="rgb(0,0,0)" text-anchor="middle">2</text>
<polygon points="194.4,314.3 200.4,314.3 200.4,320.3 194.4,320.3" fill="rgb(199,199,255)"/>
<polygon points="200.4,314.3 206.4,314.3 206.4,320.3 200.4,320.3" fill="rgb(219,219,255)"/>
<polygon points="206.4,314.3 212.4,314.3 212.4,320.3 206.4,320.3" fill="rgb(228,228,255)"/>
<polygon points="212.4,314.3 218.4,314.3 218.4,320.3 212.4,320.3" fill="rgb(227,227,255)"/>
<polygon points="218.4,314.3 224.4,314.3 224.4,320.3 218.4,320.3" fill="rgb(197,197,255)"/>
<polygon points="224.4,314.3 230.4,314.3 230.4,320.3 224.4,320.3" fill="rgb(181,181,255)"/>
<polygon points="230.4,314.3 236.4,314.3 236.4,320.3 230.4,320.3" fill="rgb(252,252,255)"/>
<polygon points="236.4,314.3 242.4,314.3 242.4,320.3 236.4,320.3" fill="rgb(255,194,194)"/>
<polygon points="252.4,314.3 258.4,314.3 258.4,320.3 252.4,320.3" fill="rgb(230,230,255)"/>
<polygon points="258.4,314.3 264.4,314.3 264.4,320.3 258.4,320.3" fill="rgb(249,249,255)"/>
<polygon points="264.4,314.3 270.4,314.3 270.4,320.3 264.4,320.3" fill="rgb(161,161,255)"/>
<polygon points="270.4,314.3 276.4,314.3 276.4,320.3 270.4,320.3" fill="rgb(203,203,255)"/>
<polygon points="276.4,314.3 282.4,314.3 282.4,320.3 276.4,320.3" fill="rgb(198,198,255)"/>
<polygon points="282.4,314.3 288.4,314.3 288.4,320.3 282.4,320.3" fill="rgb(127,127,255)"/>
<polygon points="288.4,314.3 294.4,314.3 294.4,320.3 288.4,320.3" fill="rgb(175,175,255)"/>
<polygon points="294.4,314.3 300.4,314.3 300.4,320.3 294.4,320.3" fill="rgb(255,170,170)"/>
<polygon points="310.4,314.3 316.4,314.3 316.4,320.3 310.4,320.3" fill="rgb(173,173,255)"/>
<polygon points="316.4,314.3 322.4,314.3 322.4,320.3 316.4,320.3" fill="rgb(229,229,255)"/>
<polygon points="322.4,314.3 328.4,314.3 328.4,320.3 322.4,320.3" fill="rgb(112,112,255)"/>
<polygon points="328.4,314.3 334.4,314.3 334.4,320.3 328.4,320.3" fill="rgb(126,126,255)"/>
<polygon points="334.4,314.3 340.4,314.3 340.4,320.3 334.4,320.3" fill="rgb(182,182,255)"/>
<polygon points="340.4,314.3 346.4,314.3 346.4,320.3 340.4,320.3" fill="rgb(48,48,255)"/>
<polygon points="346.4,314.3 352.4,314.3 352.4,320.3 346.4,320.3" fill="rgb(218,218,255)"/>
<polygon points="352.4,314.3 358.4,314.3 358.4,320.3 352.4,320.3" fill="rgb(255,153,153)"/>
<polygon points="160.4,320.3 168.4,320.3 168.4,326.3 160.4,326.3" fill="rgb(178,217,213)"/><text xml:space="preserve" x="164.4" y="326.133" font-family="Calibri" font-size="7.5" fill="rgb(0,0,0)" text-anchor="middle">4</text>
<polygon points="168.4,320.3 176.4,320.3 176.4,326.3 168.4,326.3" fill="rgb(134,198,192)"/><text xml:space="preserve" x="172.4" y="326.133" font-family="Calibri" font-size="7.5" fill="rgb(0,0,0)" text-anchor="middle">2</text>
<polygon points="176.4,320.3 184.4,320.3 184.4,326.3 176.4,326.3" fill="rgb(134,198,192)"/><text xml:space="preserve" x="180.4" y="326.133" font-family="Calibri" font-size="7.5" fill="rgb(0,0,0)" text-anchor="middle">2</text>
<polygon points="194.4,320.3 200.4,320.3 200.4,326.3 194.4,326.3" fill="rgb(147,147,255)"/>
<polygon points="200.4,320.3 206.4,320.3 206.4,326.3 200.4,326.3" fill="rgb(177,177,255)"/>
<polygon points="206.4,320.3 212.4,320.3 212.4,326.3 206.4,326.3" fill="rgb(212,212,255)"/>
<polygon points="212.4,320.3 218.4,320.3 218.4,326.3 212.4,326.3" fill="rgb(172,172,255)"/>
<polygon points="218.4,320.3 224.4,320.3 224.4,326.3 218.4,326.3" fill="rgb(218,218,255)"/>
<polygon points="224.4,320.3 230.4,320.3 230.4,326.3 224.4,326.3" fill="rgb(255,191,191)"/>
<polygon points="230.4,320.3 236.4,320.3 236.4,326.3 230.4,326.3" fill="rgb(188,188,255)"/>
<polygon points="236.4,320.3 242.4,320.3 242.4,326.3 236.4,326.3" fill="rgb(232,232,255)"/>
<polygon points="252.4,320.3 258.4,320.3 258.4,326.3 252.4,326.3" fill="rgb(161,161,255)"/>
<polygon points="258.4,320.3 264.4,320.3 264.4,326.3 258.4,326.3" fill="rgb(214,214,255)"/>
<polygon points="264.4,320.3 270.4,320.3 270.4,326.3 264.4,326.3" fill="rgb(254,254,255)"/>
<polygon points="270.4,320.3 276.4,320.3 276.4,326.3 270.4,326.3" fill="rgb(204,204,255)"/>
<polygon points="276.4,320.3 282.4,320.3 282.4,326.3 276.4,326.3" fill="rgb(239,239,255)"/>
<polygon points="282.4,320.3 288.4,320.3 288.4,326.3 282.4,326.3" fill="rgb(255,222,222)"/>
<polygon points="288.4,320.3 294.4,320.3 294.4,326.3 288.4,326.3" fill="rgb(187,187,255)"/>
<polygon points="294.4,320.3 300.4,320.3 300.4,326.3 294.4,326.3" fill="rgb(245,245,255)"/>
<polygon points="310.4,320.3 316.4,320.3 316.4,326.3 310.4,326.3" fill="rgb(144,144,255)"/>
<polygon points="316.4,320.3 322.4,320.3 322.4,326.3 316.4,326.3" fill="rgb(218,218,255)"/>
<polygon points="322.4,320.3 328.4,320.3 328.4,326.3 322.4,326.3" fill="rgb(255,165,165)"/>
<polygon points="328.4,320.3 334.4,320.3 334.4,326.3 328.4,326.3" fill="rgb(255,236,236)"/>
<polygon points="334.4,320.3 340.4,320.3 340.4,326.3 334.4,326.3" fill="rgb(255,232,232)"/>
<polygon points="340.4,320.3 346.4,320.3 346.4,326.3 340.4,326.3" fill="rgb(255,187,187)"/>
<polygon points="346.4,320.3 352.4,320.3 352.4,326.3 346.4,326.3" fill="rgb(223,223,255)"/>
<polygon points="352.4,320.3 358.4,320.3 358.4,326.3 352.4,326.3" fill="rgb(155,155,255)"/>
<polygon points="160.4,326.3 168.4,326.3 168.4,332.3 160.4,332.3" fill="rgb(178,217,213)"/><text xml:space="preserve" x="164.4" y="332.133" font-family="Calibri" font-size="7.5" fill="rgb(0,0,0)" text-anchor="middle">4</text>
<polygon points="168.4,326.3 176.4,326.3 176.4,332.3 168.4,332.3" fill="rgb(134,198,192)"/><text xml:space="preserve" x="172.4" y="332.133" font-family="Calibri" font-size="7.5" fill="rgb(0,0,0)" text-anchor="middle">2</text>
<polygon points="176.4,326.3 184.4,326.3 184.4,332.3 176.4,332.3" fill="rgb(134,198,192)"/><text xml:space="preserve" x="180.4" y="332.133" font-family="Calibri" font-size="7.5" fill="rgb(0,0,0)" text-anchor="middle">2</text>
<polygon points="194.4,326.3 200.4,326.3 200.4,332.3 194.4,332.3" fill="rgb(183,183,255)"/>
<polygon points="200.4,326.3 206.4,326.3 206.4,332.3 200.4,332.3" fill="rgb(218,218,255)"/>
<polygon points="206.4,326.3 212.4,326.3 212.4,332.3 206.4,332.3" fill="rgb(255,250,250)"/>
<polygon points="212.4,326.3 218.4,326.3 218.4,332.3 212.4,332.3" fill="rgb(230,230,255)"/>
<polygon points="218.4,326.3 224.4,326.3 224.4,332.3 218.4,332.3" fill="rgb(189,189,255)"/>
<polygon points="224.4,326.3 230.4,326.3 230.4,332.3 224.4,332.3" fill="rgb(175,175,255)"/>
<polygon points="230.4,326.3 236.4,326.3 236.4,332.3 230.4,332.3" fill="rgb(237,237,255)"/>
<polygon points="236.4,326.3 242.4,326.3 242.4,332.3 236.4,332.3" fill="rgb(217,217,255)"/>
<polygon points="252.4,326.3 258.4,326.3 258.4,332.3 252.4,332.3" fill="rgb(200,200,255)"/>
<polygon points="258.4,326.3 264.4,326.3 264.4,332.3 258.4,332.3" fill="rgb(187,187,255)"/>
<polygon points="264.4,326.3 270.4,326.3 270.4,332.3 264.4,332.3" fill="rgb(207,207,255)"/>
<polygon points="270.4,326.3 276.4,326.3 276.4,332.3 270.4,332.3" fill="rgb(153,153,255)"/>
<polygon points="276.4,326.3 282.4,326.3 282.4,332.3 276.4,332.3" fill="rgb(194,194,255)"/>
<polygon points="282.4,326.3 288.4,326.3 288.4,332.3 282.4,332.3" fill="rgb(130,130,255)"/>
<polygon points="288.4,326.3 294.4,326.3 294.4,332.3 288.4,332.3" fill="rgb(149,149,255)"/>
<polygon points="294.4,326.3 300.4,326.3 300.4,332.3 294.4,332.3" fill="rgb(202,202,255)"/>
<polygon points="310.4,326.3 316.4,326.3 316.4,332.3 310.4,332.3" fill="rgb(172,172,255)"/>
<polygon points="316.4,326.3 322.4,326.3 322.4,332.3 316.4,332.3" fill="rgb(233,233,255)"/>
<polygon points="322.4,326.3 328.4,326.3 328.4,332.3 322.4,332.3" fill="rgb(121,121,255)"/>
<polygon points="328.4,326.3 334.4,326.3 334.4,332.3 328.4,332.3" fill="rgb(190,190,255)"/>
<polygon points="334.4,326.3 340.4,326.3 340.4,332.3 334.4,332.3" fill="rgb(174,174,255)"/>
<polygon points="340.4,326.3 346.4,326.3 346.4,332.3 340.4,332.3" fill="rgb(106,106,255)"/>
<polygon points="346.4,326.3 352.4,326.3 352.4,332.3 346.4,332.3" fill="rgb(149,149,255)"/>
<polygon points="352.4,326.3 358.4,326.3 358.4,332.3 352.4,332.3" fill="rgb(163,163,255)"/>
<polygon points="160.4,332.3 168.4,332.3 168.4,338.3 160.4,338.3" fill="rgb(178,217,213)"/><text xml:space="preserve" x="164.4" y="338.133" font-family="Calibri" font-size="7.5" fill="rgb(0,0,0)" text-anchor="middle">4</text>
<polygon points="168.4,332.3 176.4,332.3 176.4,338.3 168.4,338.3" fill="rgb(134,198,192)"/><text xml:space="preserve" x="172.4" y="338.133" font-family="Calibri" font-size="7.5" fill="rgb(0,0,0)" text-anchor="middle">2</text>
<polygon points="176.4,332.3 184.4,332.3 184.4,338.3 176.4,338.3" fill="rgb(134,198,192)"/><text xml:space="preserve" x="180.4" y="338.133" font-family="Calibri" font-size="7.5" fill="rgb(0,0,0)" text-anchor="middle">2</text>
<polygon points="194.4,332.3 200.4,332.3 200.4,338.3 194.4,338.3" fill="rgb(154,154,255)"/>
<polygon points="200.4,332.3 206.4,332.3 206.4,338.3 200.4,338.3" fill="rgb(174,174,255)"/>
<polygon points="206.4,332.3 212.4,332.3 212.4,338.3 206.4,338.3" fill="rgb(207,207,255)"/>
<polygon points="212.4,332.3 218.4,332.3 218.4,338.3 212.4,338.3" fill="rgb(166,166,255)"/>
<polygon points="218.4,332.3 224.4,332.3 224.4,338.3 218.4,338.3" fill="rgb(181,181,255)"/>
<polygon points="224.4,332.3 230.4,332.3 230.4,338.3 224.4,338.3" fill="rgb(255,238,238)"/>
<polygon points="230.4,332.3 236.4,332.3 236.4,338.3 230.4,338.3" fill="rgb(236,236,255)"/>
<polygon points="236.4,332.3 242.4,332.3 242.4,338.3 236.4,338.3" fill="rgb(225,225,255)"/>
<polygon points="252.4,332.3 258.4,332.3 258.4,338.3 252.4,338.3" fill="rgb(255,198,198)"/>
<polygon points="258.4,332.3 264.4,332.3 264.4,338.3 258.4,338.3" fill="rgb(177,177,255)"/>
<polygon points="264.4,332.3 270.4,332.3 270.4,338.3 264.4,338.3" fill="rgb(249,249,255)"/>
<polygon points="270.4,332.3 276.4,332.3 276.4,338.3 270.4,338.3" fill="rgb(193,193,255)"/>
<polygon points="276.4,332.3 282.4,332.3 282.4,338.3 276.4,338.3" fill="rgb(209,209,255)"/>
<polygon points="282.4,332.3 288.4,332.3 288.4,338.3 282.4,338.3" fill="rgb(255,182,182)"/>
<polygon points="288.4,332.3 294.4,332.3 294.4,338.3 288.4,338.3" fill="rgb(255,226,226)"/>
<polygon points="294.4,332.3 300.4,332.3 300.4,338.3 294.4,338.3" fill="rgb(255,151,151)"/>
<polygon points="310.4,332.3 316.4,332.3 316.4,338.3 310.4,338.3" fill="rgb(191,191,255)"/>
<polygon points="316.4,332.3 322.4,332.3 322.4,338.3 316.4,338.3" fill="rgb(237,237,255)"/>
<polygon points="322.4,332.3 328.4,332.3 328.4,338.3 322.4,338.3" fill="rgb(223,223,255)"/>
<polygon points="328.4,332.3 334.4,332.3 334.4,338.3 328.4,338.3" fill="rgb(169,169,255)"/>
<polygon points="334.4,332.3 340.4,332.3 340.4,338.3 334.4,338.3" fill="rgb(167,167,255)"/>
<polygon points="340.4,332.3 346.4,332.3 346.4,338.3 340.4,338.3" fill="rgb(255,197,197)"/>
<polygon points="346.4,332.3 352.4,332.3 352.4,338.3 346.4,338.3" fill="rgb(255,193,193)"/>
<polygon points="352.4,332.3 358.4,332.3 358.4,338.3 352.4,338.3" fill="rgb(231,231,255)"/>
<polygon points="160.4,338.3 168.4,338.3 168.4,344.3 160.4,344.3" fill="rgb(178,217,213)"/><text xml:space="preserve" x="164.4" y="344.133" font-family="Calibri" font-size="7.5" fill="rgb(0,0,0)" text-anchor="middle">4</text>
<polygon points="168.4,338.3 176.4,338.3 176.4,344.3 168.4,344.3" fill="rgb(134,198,192)"/><text xml:space="preserve" x="172.4" y="344.133" font-family="Calibri" font-size="7.5" fill="rgb(0,0,0)" text-anchor="middle">2</text>
<polygon points="176.4,338.3 184.4,338.3 184.4,344.3 176.4,344.3" fill="rgb(134,198,192)"/><text xml:space="preserve" x="180.4" y="344.133" font-family="Calibri" font-size="7.5" fill="rgb(0,0,0)" text-anchor="middle">2</text>
<polygon points="194.4,338.3 200.4,338.3 200.4,344.3 194.4,344.3" fill="rgb(202,202,255)"/>
<polygon points="200.4,338.3 206.4,338.3 206.4,344.3 200.4,344.3" fill="rgb(194,194,255)"/>
<polygon points="206.4,338.3 212.4,338.3 212.4,344.3 206.4,344.3" fill="rgb(179,179,255)"/>
<polygon points="212.4,338.3 218.4,338.3 218.4,344.3 212.4,344.3" fill="rgb(204,204,255)"/>
<polygon points="218.4,338.3 224.4,338.3 224.4,344.3 218.4,344.3" fill="rgb(216,216,255)"/>
<polygon points="224.4,338.3 230.4,338.3 230.4,344.3 224.4,344.3" fill="rgb(255,186,186)"/>
<polygon points="230.4,338.3 236.4,338.3 236.4,344.3 230.4,344.3" fill="rgb(255,239,239)"/>
<polygon points="236.4,338.3 242.4,338.3 242.4,344.3 236.4,344.3" fill="rgb(255,218,218)"/>
<polygon points="252.4,338.3 258.4,338.3 258.4,344.3 252.4,344.3" fill="rgb(160,160,255)"/>
<polygon points="258.4,338.3 264.4,338.3 264.4,344.3 258.4,344.3" fill="rgb(240,240,255)"/>
<polygon points="264.4,338.3 270.4,338.3 270.4,344.3 264.4,344.3" fill="rgb(245,245,255)"/>
<polygon points="270.4,338.3 276.4,338.3 276.4,344.3 270.4,344.3" fill="rgb(234,234,255)"/>
<polygon points="276.4,338.3 282.4,338.3 282.4,344.3 276.4,344.3" fill="rgb(226,226,255)"/>
<polygon points="282.4,338.3 288.4,338.3 288.4,344.3 282.4,344.3" fill="rgb(255,146,146)"/>
<polygon points="288.4,338.3 294.4,338.3 294.4,344.3 288.4,344.3" fill="rgb(255,206,206)"/>
<polygon points="294.4,338.3 300.4,338.3 300.4,344.3 294.4,344.3" fill="rgb(255,203,203)"/>
<polygon points="310.4,338.3 316.4,338.3 316.4,344.3 310.4,344.3" fill="rgb(199,199,255)"/>
<polygon points="316.4,338.3 322.4,338.3 322.4,344.3 316.4,344.3" fill="rgb(220,220,255)"/>
<polygon points="322.4,338.3 328.4,338.3 328.4,344.3 322.4,344.3" fill="rgb(255,197,197)"/>
<polygon points="328.4,338.3 334.4,338.3 334.4,344.3 328.4,344.3" fill="rgb(255,216,216)"/>
<polygon points="334.4,338.3 340.4,338.3 340.4,344.3 334.4,344.3" fill="rgb(220,220,255)"/>
<polygon points="340.4,338.3 346.4,338.3 346.4,344.3 340.4,344.3" fill="rgb(255,112,112)"/>
<polygon points="346.4,338.3 352.4,338.3 352.4,344.3 346.4,344.3" fill="rgb(255,183,183)"/>
<polygon points="352.4,338.3 358.4,338.3 358.4,344.3 352.4,344.3" fill="rgb(254,200,200)"/>
<polygon points="160.4,344.3 168.4,344.3 168.4,350.3 160.4,350.3" fill="rgb(178,217,213)"/><text xml:space="preserve" x="164.4" y="350.133" font-family="Calibri" font-size="7.5" fill="rgb(0,0,0)" text-anchor="middle">4</text>
<polygon points="168.4,344.3 176.4,344.3 176.4,350.3 168.4,350.3" fill="rgb(134,198,192)"/><text xml:space="preserve" x="172.4" y="350.133" font-family="Calibri" font-size="7.5" fill="rgb(0,0,0)" text-anchor="middle">2</text>
<polygon points="176.4,344.3 184.4,344.3 184.4,350.3 176.4,350.3" fill="rgb(134,198,192)"/><text xml:space="preserve" x="180.4" y="350.133" font-family="Calibri" font-size="7.5" fill="rgb(0,0,0)" text-anchor="middle">2</text>
<polygon points="194.4,344.3 200.4,344.3 200.4,350.3 194.4,350.3" fill="rgb(184,184,255)"/>
<polygon points="200.4,344.3 206.4,344.3 206.4,350.3 200.4,350.3" fill="rgb(232,232,255)"/>
<polygon points="206.4,344.3 212.4,344.3 212.4,350.3 206.4,350.3" fill="rgb(223,223,255)"/>
<polygon points="212.4,344.3 218.4,344.3 218.4,350.3 212.4,350.3" fill="rgb(199,199,255)"/>
<polygon points="218.4,344.3 224.4,344.3 224.4,350.3 218.4,350.3" fill="rgb(186,186,255)"/>
<polygon points="224.4,344.3 230.4,344.3 230.4,350.3 224.4,350.3" fill="rgb(254,199,199)"/>
<polygon points="230.4,344.3 236.4,344.3 236.4,350.3 230.4,350.3" fill="rgb(255,175,175)"/>
<polygon points="236.4,344.3 242.4,344.3 242.4,350.3 236.4,350.3" fill="rgb(255,245,245)"/>
<polygon points="252.4,344.3 258.4,344.3 258.4,350.3 252.4,350.3" fill="rgb(255,195,195)"/>
<polygon points="258.4,344.3 264.4,344.3 264.4,350.3 258.4,350.3" fill="rgb(245,245,255)"/>
<polygon points="264.4,344.3 270.4,344.3 270.4,350.3 264.4,350.3" fill="rgb(214,214,255)"/>
<polygon points="270.4,344.3 276.4,344.3 276.4,350.3 270.4,350.3" fill="rgb(134,134,255)"/>
<polygon points="276.4,344.3 282.4,344.3 282.4,350.3 276.4,350.3" fill="rgb(169,169,255)"/>
<polygon points="282.4,344.3 288.4,344.3 288.4,350.3 282.4,350.3" fill="rgb(255,219,219)"/>
<polygon points="288.4,344.3 294.4,344.3 294.4,350.3 288.4,350.3" fill="rgb(255,207,207)"/>
<polygon points="294.4,344.3 300.4,344.3 300.4,350.3 294.4,350.3" fill="rgb(255,179,179)"/>
<polygon points="310.4,344.3 316.4,344.3 316.4,350.3 310.4,350.3" fill="rgb(204,204,255)"/>
<polygon points="316.4,344.3 322.4,344.3 322.4,350.3 316.4,350.3" fill="rgb(217,217,255)"/>
<polygon points="322.4,344.3 328.4,344.3 328.4,350.3 322.4,350.3" fill="rgb(150,150,255)"/>
<polygon points="328.4,344.3 334.4,344.3 334.4,350.3 328.4,350.3" fill="rgb(146,146,255)"/>
<polygon points="334.4,344.3 340.4,344.3 340.4,350.3 334.4,350.3" fill="rgb(179,179,255)"/>
<polygon points="340.4,344.3 346.4,344.3 346.4,350.3 340.4,350.3" fill="rgb(255,199,199)"/>
<polygon points="346.4,344.3 352.4,344.3 352.4,350.3 346.4,350.3" fill="rgb(255,108,108)"/>
<polygon points="352.4,344.3 358.4,344.3 358.4,350.3 352.4,350.3" fill="rgb(242,242,255)"/>
<polygon points="160.4,350.3 168.4,350.3 168.4,356.3 160.4,356.3" fill="rgb(178,217,213)"/><text xml:space="preserve" x="164.4" y="356.133" font-family="Calibri" font-size="7.5" fill="rgb(0,0,0)" text-anchor="middle">4</text>
<polygon points="168.4,350.3 176.4,350.3 176.4,356.3 168.4,356.3" fill="rgb(134,198,192)"/><text xml:space="preserve" x="172.4" y="356.133" font-family="Calibri" font-size="7.5" fill="rgb(0,0,0)" text-anchor="middle">2</text>
<polygon points="176.4,350.3 184.4,350.3 184.4,356.3 176.4,356.3" fill="rgb(134,198,192)"/><text xml:space="preserve" x="180.4" y="356.133" font-family="Calibri" font-size="7.5" fill="rgb(0,0,0)" text-anchor="middle">2</text>
<polygon points="194.4,350.3 200.4,350.3 200.4,356.3 194.4,356.3" fill="rgb(183,183,255)"/>
<polygon points="200.4,350.3 206.4,350.3 206.4,356.3 200.4,356.3" fill="rgb(158,158,255)"/>
<polygon points="206.4,350.3 212.4,350.3 212.4,356.3 206.4,356.3" fill="rgb(239,239,255)"/>
<polygon points="212.4,350.3 218.4,350.3 218.4,356.3 212.4,356.3" fill="rgb(255,227,227)"/>
<polygon points="218.4,350.3 224.4,350.3 224.4,356.3 218.4,356.3" fill="rgb(228,228,255)"/>
<polygon points="224.4,350.3 230.4,350.3 230.4,356.3 224.4,356.3" fill="rgb(255,222,222)"/>
<polygon points="230.4,350.3 236.4,350.3 236.4,356.3 230.4,356.3" fill="rgb(255,178,178)"/>
<polygon points="236.4,350.3 242.4,350.3 242.4,356.3 236.4,356.3" fill="rgb(181,181,255)"/>
<polygon points="252.4,350.3 258.4,350.3 258.4,356.3 252.4,356.3" fill="rgb(188,188,255)"/>
<polygon points="258.4,350.3 264.4,350.3 264.4,356.3 258.4,356.3" fill="rgb(184,184,255)"/>
<polygon points="264.4,350.3 270.4,350.3 270.4,356.3 264.4,356.3" fill="rgb(204,204,255)"/>
<polygon points="270.4,350.3 276.4,350.3 276.4,356.3 270.4,356.3" fill="rgb(239,239,255)"/>
<polygon points="276.4,350.3 282.4,350.3 282.4,356.3 276.4,356.3" fill="rgb(208,208,255)"/>
<polygon points="282.4,350.3 288.4,350.3 288.4,356.3 282.4,356.3" fill="rgb(255,187,187)"/>
<polygon points="288.4,350.3 294.4,350.3 294.4,356.3 288.4,356.3" fill="rgb(255,117,117)"/>
<polygon points="294.4,350.3 300.4,350.3 300.4,356.3 294.4,356.3" fill="rgb(226,226,255)"/>
<polygon points="310.4,350.3 316.4,350.3 316.4,356.3 310.4,356.3" fill="rgb(168,168,255)"/>
<polygon points="316.4,350.3 322.4,350.3 322.4,356.3 316.4,356.3" fill="rgb(161,161,255)"/>
<polygon points="322.4,350.3 328.4,350.3 328.4,356.3 322.4,356.3" fill="rgb(255,234,234)"/>
<polygon points="328.4,350.3 334.4,350.3 334.4,356.3 328.4,356.3" fill="rgb(238,238,255)"/>
<polygon points="334.4,350.3 340.4,350.3 340.4,356.3 334.4,356.3" fill="rgb(198,198,255)"/>
<polygon points="340.4,350.3 346.4,350.3 346.4,356.3 340.4,356.3" fill="rgb(255,218,218)"/>
<polygon points="346.4,350.3 352.4,350.3 352.4,356.3 346.4,356.3" fill="rgb(255,110,110)"/>
<polygon points="352.4,350.3 358.4,350.3 358.4,356.3 352.4,356.3" fill="rgb(200,200,255)"/>
<polygon points="160.4,212.3 184.4,212.3 184.4,356.3 160.4,356.3" fill="none" stroke="black" stroke-width="1"/>
<polygon points="194.4,212.3 242.4,212.3 242.4,356.3 194.4,356.3" fill="none" stroke="black" stroke-width="1"/>
<polygon points="252.4,212.3 300.4,212.3 300.4,356.3 252.4,356.3" fill="none" stroke="black" stroke-width="1"/>
<polygon points="310.4,212.3 358.4,212.3 358.4,356.3 310.4,356.3" fill="none" stroke="black" stroke-width="1"/>
<text xml:space="preserve" x="200.2" y="388.633" font-family="Calibri" font-size="6" text-anchor="middle">moduleID</text>
<polygon points="90.2,396.3 110.2,396.3 110.2,416.3 90.2,416.3" fill="rgb(250,250,250)"/><polygon points="90.2,396.3 110.2,396.3 110.2,416.3 90.2,416.3" fill="none" stroke="black" stroke-width="1"/><text xml:space="preserve" x="100.2" y="409.133" font-family="Calibri" font-size="7.5" fill="rgb(0,0,0)" text-anchor="middle">-2.0</text>
<polygon points="110.2,396.3 130.2,396.3 130.2,416.3 110.2,416.3" fill="rgb(156,210,205)"/><polygon points="110.2,396.3 130.2,396.3 130.2,416.3 110.2,416.3" fill="none" stroke="black" stroke-width="1"/><text xml:space="preserve" x="120.2" y="409.133" font-family="Calibri" font-size="7.5" fill="rgb(0,0,0)" text-anchor="middle">-0.4</text>
<polygon points="130.2,396.3 150.2,396.3 150.2,416.3 130.2,416.3" fill="rgb(116,191,184)"/><polygon points="130.2,396.3 150.2,396.3 150.2,416.3 130.2,416.3" fill="none" stroke="black" stroke-width="1"/><text xml:space="preserve" x="140.2" y="409.133" font-family="Calibri" font-size="7.5" fill="rgb(0,0,0)" text-anchor="middle">1.2</text>
<polygon points="150.2,396.3 170.2,396.3 170.2,416.3 150.2,416.3" fill="rgb(152,206,201)"/><polygon points="150.2,396.3 170.2,396.3 170.2,416.3 150.2,416.3" fill="none" stroke="black" stroke-width="1"/><text xml:space="preserve" x="160.2" y="409.133" font-family="Calibri" font-size="7.5" fill="rgb(0,0,0)" text-anchor="middle">2.8</text>
<polygon points="170.2,396.3 190.2,396.3 190.2,416.3 170.2,416.3" fill="rgb(187,220,217)"/><polygon points="170.2,396.3 190.2,396.3 190.2,416.3 170.2,416.3" fill="none" stroke="black" stroke-width="1"/><text xml:space="preserve" x="180.2" y="409.133" font-family="Calibri" font-size="7.5" fill="rgb(0,0,0)" text-anchor="middle">4.4</text>
<polygon points="190.2,396.3 210.2,396.3 210.2,416.3 190.2,416.3" fill="rgb(222,235,234)"/><polygon points="190.2,396.3 210.2,396.3 210.2,416.3 190.2,416.3" fill="none" stroke="black" stroke-width="1"/><text xml:space="preserve" x="200.2" y="409.133" font-family="Calibri" font-size="7.5" fill="rgb(0,0,0)" text-anchor="middle">6.0</text>
<polygon points="210.2,396.3 230.2,396.3 230.2,416.3 210.2,416.3" fill="rgb(242,239,232)"/><polygon points="210.2,396.3 230.2,396.3 230.2,416.3 210.2,416.3" fill="none" stroke="black" stroke-width="1"/><text xml:space="preserve" x="220.2" y="409.133" font-family="Calibri" font-size="7.5" fill="rgb(0,0,0)" text-anchor="middle">7.6</text>
<polygon points="230.2,396.3 250.2,396.3 250.2,416.3 230.2,416.3" fill="rgb(235,224,199)"/><polygon points="230.2,396.3 250.2,396.3 250.2,416.3 230.2,416.3" fill="none" stroke="black" stroke-width="1"/><text xml:space="preserve" x="240.2" y="409.133" font-family="Calibri" font-size="7.5" fill="rgb(0,0,0)" text-anchor="middle">9.2</text>
<polygon points="250.2,396.3 270.2,396.3 270.2,416.3 250.2,416.3" fill="rgb(229,209,166)"/><polygon points="250.2,396.3 270.2,396.3 270.2,416.3 250.2,416.3" fill="none" stroke="black" stroke-width="1"/><text xml:space="preserve" x="260.2" y="409.133" font-family="Calibri" font-size="7.5" fill="rgb(0,0,0)" text-anchor="middle">10.8</text>
<polygon points="270.2,396.3 290.2,396.3 290.2,416.3 270.2,416.3" fill="rgb(222,194,133)"/><polygon points="270.2,396.3 290.2,396.3 290.2,416.3 270.2,416.3" fill="none" stroke="black" stroke-width="1"/><text xml:space="preserve" x="280.2" y="409.133" font-family="Calibri" font-size="7.5" fill="rgb(0,0,0)" text-anchor="middle">12.4</text>
<polygon points="290.2,396.3 310.2,396.3 310.2,416.3 290.2,416.3" fill="rgb(216,179,101)"/><polygon points="290.2,396.3 310.2,396.3 310.2,416.3 290.2,416.3" fill="none" stroke="black" stroke-width="1"/><text xml:space="preserve" x="300.2" y="409.133" font-family="Calibri" font-size="7.5" fill="rgb(0,0,0)" text-anchor="middle">14.0</text>
<text xml:space="preserve" x="200.2" y="448.633" font-family="Calibri" font-size="6" text-anchor="middle">marklevel</text>
<polygon points="90.2,456.3 110.2,456.3 110.2,476.3 90.2,476.3" fill="rgb(0,0,255)"/><polygon points="90.2,456.3 110.2,456.3 110.2,476.3 90.2,476.3" fill="none" stroke="black" stroke-width="1"/><text xml:space="preserve" x="100.2" y="469.133" font-family="Calibri" font-size="7.5" fill="rgb(255,255,255)" text-anchor="middle">-2.0</text>
<polygon points="110.2,456.3 130.2,456.3 130.2,476.3 110.2,476.3" fill="rgb(50,50,255)"/><polygon points="110.2,456.3 130.2,456.3 130.2,476.3 110.2,476.3" fill="none" stroke="black" stroke-width="1"/><text xml:space="preserve" x="120.2" y="469.133" font-family="Calibri" font-size="7.5" fill="rgb(255,255,255)" text-anchor="middle">-1.6</text>
<polygon points="130.2,456.3 150.2,456.3 150.2,476.3 130.2,476.3" fill="rgb(102,102,255)"/><polygon points="130.2,456.3 150.2,456.3 150.2,476.3 130.2,476.3" fill="none" stroke="black" stroke-width="1"/><text xml:space="preserve" x="140.2" y="469.133" font-family="Calibri" font-size="7.5" fill="rgb(255,255,255)" text-anchor="middle">-1.2</text>
<polygon points="150.2,456.3 170.2,456.3 170.2,476.3 150.2,476.3" fill="rgb(153,153,255)"/><polygon points="150.2,456.3 170.2,456.3 170.2,476.3 150.2,476.3" fill="none" stroke="black" stroke-width="1"/><text xml:space="preserve" x="160.2" y="469.133" font-family="Calibri" font-size="7.5" fill="rgb(0,0,0)" text-anchor="middle">-0.8</text>
<polygon points="170.2,456.3 190.2,456.3 190.2,476.3 170.2,476.3" fill="rgb(204,204,255)"/><polygon points="170.2,456.3 190.2,456.3 190.2,476.3 170.2,476.3" fill="none" stroke="black" stroke-width="1"/><text xml:space="preserve" x="180.2" y="469.133" font-family="Calibri" font-size="7.5" fill="rgb(0,0,0)" text-anchor="middle">-0.4</text>
<polygon points="190.2,456.3 210.2,456.3 210.2,476.3 190.2,476.3" fill="rgb(255,255,255)"/><polygon points="190.2,456.3 210.2,456.3 210.2,476.3 190.2,476.3" fill="none" stroke="black" stroke-width="1"/><text xml:space="preserve" x="200.2" y="469.133" font-family="Calibri" font-size="7.5" fill="rgb(0,0,0)" text-anchor="middle">0.0</text>
<polygon points="210.2,456.3 230.2,456.3 230.2,476.3 210.2,476.3" fill="rgb(255,204,204)"/><polygon points="210.2,456.3 230.2,456.3 230.2,476.3 210.2,476.3" fill="none" stroke="black" stroke-width="1"/><text xml:space="preserve" x="220.2" y="469.133" font-family="Calibri" font-size="7.5" fill="rgb(0,0,0)" text-anchor="middle">0.4</text>
<polygon points="230.2,456.3 250.2,456.3 250.2,476.3 230.2,476.3" fill="rgb(255,153,153)"/><polygon points="230.2,456.3 250.2,456.3 250.2,476.3 230.2,476.3" fill="none" stroke="black" stroke-width="1"/><text xml:space="preserve" x="240.2" y="469.133" font-family="Calibri" font-size="7.5" fill="rgb(0,0,0)" text-anchor="middle">0.8</text>
<polygon points="250.2,456.3 270.2,456.3 270.2,476.3 250.2,476.3" fill="rgb(255,102,102)"/><polygon points="250.2,456.3 270.2,456.3 270.2,476.3 250.2,476.3" fill="none" stroke="black" stroke-width="1"/><text xml:space="preserve" x="260.2" y="469.133" font-family="Calibri" font-size="7.5" fill="rgb(0,0,0)" text-anchor="middle">1.2</text>
<polygon points="270.2,456.3 290.2,456.3 290.2,476.3 270.2,476.3" fill="rgb(255,50,50)"/><polygon points="270.2,456.3 290.2,456.3 290.2,476.3 270.2,476.3" fill="none" stroke="black" stroke-width="1"/><text xml:space="preserve" x="280.2" y="469.133" font-family="Calibri" font-size="7.5" fill="rgb(255,255,255)" text-anchor="middle">1.6</text>
<polygon points="290.2,456.3 310.2,456.3 310.2,476.3 290.2,476.3" fill="rgb(255,0,0)"/><polygon points="290.2,456.3 310.2,456.3 310.2,476.3 290.2,476.3" fill="none" stroke="black" stroke-width="1"/><text xml:space="preserve" x="300.2" y="469.133" font-family="Calibri" font-size="7.5" fill="rgb(255,255,255)" text-anchor="middle">2.0</text>
</svg>
