<?xml version="1.0" standalone="no"?><!DOCTYPE svg PUBLIC "-//W3C//DTD SVG 1.1//EN" "http://www.w3.org/Graphics/SVG/1.1/DTD/svg11.dtd">
<svg width="402.5" height="460.3" version="1.1" xmlns="http://www.w3.org/2000/svg">
<text xml:space="preserve" x="158.5" y="217.633" font-family="Calibri" font-size="6" text-anchor="end">0610009O03Rik</text>
<text xml:space="preserve" x="158.5" y="223.633" font-family="Calibri" font-size="6" text-anchor="end">Cib1</text>
<text xml:space="preserve" x="158.5" y="229.633" font-family="Calibri" font-size="6" text-anchor="end">Eif4g1</text>
<text xml:space="preserve" x="158.5" y="235.633" font-family="Calibri" font-size="6" text-anchor="end">Ints4</text>
<text xml:space="preserve" x="158.5" y="241.633" font-family="Calibri" font-size="6" text-anchor="end">Akap8l</text>
<text xml:space="preserve" x="158.5" y="247.633" font-family="Calibri" font-size="6" text-anchor="end">1110001J03Rik</text>
<text xml:space="preserve" x="158.5" y="253.633" font-family="Calibri" font-size="6" text-anchor="end">Ccbl1</text>
<text xml:space="preserve" x="158.5" y="259.633" font-family="Calibri" font-size="6" text-anchor="end">Uchl5</text>
<text xml:space="preserve" x="158.5" y="265.633" font-family="Calibri" font-size="6" text-anchor="end">Wdr18</text>
<text xml:space="preserve" x="158.5" y="271.633" font-family="Calibri" font-size="6" text-anchor="end">Atf2</text>
<text xml:space="preserve" x="158.5" y="277.633" font-family="Calibri" font-size="6" text-anchor="end">Sae1</text>
<text xml:space="preserve" x="158.5" y="283.633" font-family="Calibri" font-size="6" text-anchor="end">Diap1</text>
<text xml:space="preserve" x="158.5" y="289.633" font-family="Calibri" font-size="6" text-anchor="end">Rab27a</text>
<text xml:space="preserve" x="158.5" y="295.633" font-family="Calibri" font-size="6" text-anchor="end">D330012F22Rik</text>
<text xml:space="preserve" x="158.5" y="301.633" font-family="Calibri" font-size="6" text-anchor="end">Rab5b</text>
<text xml:space="preserve" x="158.5" y="307.633" font-family="Calibri" font-size="6" text-anchor="end">Polr2h</text>
<text xml:space="preserve" x="158.5" y="313.633" font-family="Calibri" font-size="6" text-anchor="end">Iars2</text>
<text xml:space="preserve" x="158.5" y="319.633" font-family="Calibri" font-size="6" text-anchor="end">Clcn2</text>
<text xml:space="preserve" x="168.833" y="208.3" font-family="Calibri" font-size="6" transform="rotate(270 168.833 208.3)">ips</text>
<text xml:space="preserve" x="176.833" y="208.3" font-family="Calibri" font-size="6" transform="rotate(270 176.833 208.3)">pips</text>
<text xml:space="preserve" x="184.833" y="208.3" font-family="Calibri" font-size="6" transform="rotate(270 184.833 208.3)">mef</text>
<text xml:space="preserve" x="201.833" y="208.3" font-family="Calibri" font-size="6" transform="rotate(270 201.833 208.3)">ips_H3K4me3iPS</text>
<text xml:space="preserve" x="207.833" y="208.3" font-family="Calibri" font-size="6" transform="rotate(270 207.833 208.3)">ips_H3K9aciPS</text>
<text xml:space="preserve" x="213.833" y="208.3" font-family="Calibri" font-size="6" transform="rotate(270 213.833 208.3)">ips_H3K14aciPS</text>
<text xml:space="preserve" x="219.833" y="208.3" font-family="Calibri" font-size="6" transform="rotate(270 219.833 208.3)">ips_H3K18aciPS</text>
<text xml:space="preserve" x="225.833" y="208.3" font-family="Calibri" font-size="6" transform="rotate(270 225.833 208.3)">ips_H3K79me2iPS</text>
<text xml:space="preserve" x="231.833" y="208.3" font-family="Calibri" font-size="6" transform="rotate(270 231.833 208.3)">ips_H3K9me2iPS</text>
<text xml:space="preserve" x="237.833" y="208.3" font-family="Calibri" font-size="6" transform="rotate(270 237.833 208.3)">ips_H3K9me3iPS</text>
<text xml:space="preserve" x="243.833" y="208.3" font-family="Calibri" font-size="6" transform="rotate(270 243.833 208.3)">ips_H3K27me3iPS</text>
<text xml:space="preserve" x="259.833" y="208.3" font-family="Calibri" font-size="6" transform="rotate(270 259.833 208.3)">pips_H3K4me3pips</text>
<text xml:space="preserve" x="265.833" y="208.3" font-family="Calibri" font-size="6" transform="rotate(270 265.833 208.3)">pips_H3K9acpips</text>
<text xml:space="preserve" x="271.833" y="208.3" font-family="Calibri" font-size="6" transform="rotate(270 271.833 208.3)">pips_H3K14acpips</text>
<text xml:space="preserve" x="277.833" y="208.3" font-family="Calibri" font-size="6" transform="rotate(270 277.833 208.3)">pips_H3K18acpips</text>
<text xml:space="preserve" x="283.833" y="208.3" font-family="Calibri" font-size="6" transform="rotate(270 283.833 208.3)">pips_H3K79me2pips</text>
<text xml:space="preserve" x="289.833" y="208.3" font-family="Calibri" font-size="6" transform="rotate(270 289.833 208.3)">pips_H3K9me2pips</text>
<text xml:space="preserve" x="295.833" y="208.3" font-family="Calibri" font-size="6" transform="rotate(270 295.833 208.3)">pips_H3K9me3pips</text>
<text xml:space="preserve" x="301.833" y="208.3" font-family="Calibri" font-size="6" transform="rotate(270 301.833 208.3)">pips_H3K27me3pips</text>
<text xml:space="preserve" x="317.833" y="208.3" font-family="Calibri" font-size="6" transform="rotate(270 317.833 208.3)">mef_H3K4me3mef</text>
<text xml:space="preserve" x="323.833" y="208.3" font-family="Calibri" font-size="6" transform="rotate(270 323.833 208.3)">mef_H3K9acmef</text>
<text xml:space="preserve" x="329.833" y="208.3" font-family="Calibri" font-size="6" transform="rotate(270 329.833 208.3)">mef_H3K14acmef</text>
<text xml:space="preserve" x="335.833" y="208.3" font-family="Calibri" font-size="6" transform="rotate(270 335.833 208.3)">mef_H3K18acmef</text>
<text xml:space="preserve" x="341.833" y="208.3" font-family="Calibri" font-size="6" transform="rotate(270 341.833 208.3)">mef_H3K79me2mef</text>
<text xml:space="preserve" x="347.833" y="208.3" font-family="Calibri" font-size="6" transform="rotate(270 347.833 208.3)">mef_H3K9me2mef</text>
<text xml:space="preserve" x="353.833" y="208.3" font-family="Calibri" font-size="6" transform="rotate(270 353.833 208.3)">mef_H3K9me3mef</text>
<text xml:space="preserve" x="359.833" y="208.3" font-family="Calibri" font-size="6" transform="rotate(270 359.833 208.3)">mef_H3K27me3mef</text>
<polygon points="162.5,212.3 170.5,212.3 170.5,218.3 162.5,218.3" fill="rgb(232,216,183)"/><text xml:space="preserve" x="166.5" y="218.133" font-family="Calibri" font-size="7.5" fill="rgb(0,0,0)" text-anchor="middle">10</text>
<polygon points="170.5,212.3 178.5,212.3 178.5,218.3 170.5,218.3" fill="rgb(232,216,183)"/><text xml:space="preserve" x="174.5" y="218.133" font-family="Calibri" font-size="7.5" fill="rgb(0,0,0)" text-anchor="middle">10</text>
<polygon points="178.5,212.3 186.5,212.3 186.5,218.3 178.5,218.3" fill="rgb(112,189,182)"/><text xml:space="preserve" x="182.5" y="218.133" font-family="Calibri" font-size="7.5" fill="rgb(0,0,0)" text-anchor="middle">1</text>
<polygon points="196.5,212.3 202.5,212.3 202.5,218.3 196.5,218.3" fill="rgb(255,207,207)"/>
<polygon points="202.5,212.3 208.5,212.3 208.5,218.3 202.5,218.3" fill="rgb(255,134,134)"/>
<polygon points="208.5,212.3 214.5,212.3 214.5,218.3 208.5,218.3" fill="rgb(255,157,157)"/>
<polygon points="214.5,212.3 220.5,212.3 220.5,218.3 214.5,218.3" fill="rgb(255,157,157)"/>
<polygon points="220.5,212.3 226.5,212.3 226.5,218.3 220.5,218.3" fill="rgb(255,211,211)"/>
<polygon points="226.5,212.3 232.5,212.3 232.5,218.3 226.5,218.3" fill="rgb(220,220,255)"/>
<polygon points="232.5,212.3 238.5,212.3 238.5,218.3 232.5,218.3" fill="rgb(189,189,255)"/>
<polygon points="238.5,212.3 244.5,212.3 244.5,218.3 238.5,218.3" fill="rgb(159,159,255)"/>
<polygon points="254.5,212.3 260.5,212.3 260.5,218.3 254.5,218.3" fill="rgb(255,187,187)"/>
<polygon points="260.5,212.3 266.5,212.3 266.5,218.3 260.5,218.3" fill="rgb(255,143,143)"/>
<polygon points="266.5,212.3 272.5,212.3 272.5,218.3 266.5,218.3" fill="rgb(255,164,164)"/>
<polygon points="272.5,212.3 278.5,212.3 278.5,218.3 272.5,218.3" fill="rgb(255,181,181)"/>
<polygon points="278.5,212.3 284.5,212.3 284.5,218.3 278.5,218.3" fill="rgb(255,207,207)"/>
<polygon points="284.5,212.3 290.5,212.3 290.5,218.3 284.5,218.3" fill="rgb(195,195,255)"/>
<polygon points="290.5,212.3 296.5,212.3 296.5,218.3 290.5,218.3" fill="rgb(134,134,255)"/>
<polygon points="296.5,212.3 302.5,212.3 302.5,218.3 296.5,218.3" fill="rgb(234,234,255)"/>
<polygon points="312.5,212.3 318.5,212.3 318.5,218.3 312.5,218.3" fill="rgb(255,235,235)"/>
<polygon points="318.5,212.3 324.5,212.3 324.5,218.3 318.5,218.3" fill="rgb(255,169,169)"/>
<polygon points="324.5,212.3 330.5,212.3 330.5,218.3 324.5,218.3" fill="rgb(229,229,255)"/>
<polygon points="330.5,212.3 336.5,212.3 336.5,218.3 330.5,218.3" fill="rgb(255,223,223)"/>
<polygon points="336.5,212.3 342.5,212.3 342.5,218.3 336.5,218.3" fill="rgb(255,233,233)"/>
<polygon points="342.5,212.3 348.5,212.3 348.5,218.3 342.5,218.3" fill="rgb(119,119,255)"/>
<polygon points="348.5,212.3 354.5,212.3 354.5,218.3 348.5,218.3" fill="rgb(182,182,255)"/>
<polygon points="354.5,212.3 360.5,212.3 360.5,218.3 354.5,218.3" fill="rgb(183,183,255)"/>
<polygon points="162.5,218.3 170.5,218.3 170.5,224.3 162.5,224.3" fill="rgb(232,216,183)"/><text xml:space="preserve" x="166.5" y="224.133" font-family="Calibri" font-size="7.5" fill="rgb(0,0,0)" text-anchor="middle">10</text>
<polygon points="170.5,218.3 178.5,218.3 178.5,224.3 170.5,224.3" fill="rgb(232,216,183)"/><text xml:space="preserve" x="174.5" y="224.133" font-family="Calibri" font-size="7.5" fill="rgb(0,0,0)" text-anchor="middle">10</text>
<polygon points="178.5,218.3 186.5,218.3 186.5,224.3 178.5,224.3" fill="rgb(112,189,182)"/><text xml:space="preserve" x="182.5" y="224.133" font-family="Calibri" font-size="7.5" fill="rgb(0,0,0)" text-anchor="middle">1</text>
<polygon points="196.5,218.3 202.5,218.3 202.5,224.3 196.5,224.3" fill="rgb(255,151,151)"/>
<polygon points="202.5,218.3 208.5,218.3 208.5,224.3 202.5,224.3" fill="rgb(255,114,114)"/>
<polygon points="208.5,218.3 214.5,218.3 214.5,224.3 208.5,224.3" fill="rgb(255,217,217)"/>
<polygon points="214.5,218.3 220.5,218.3 220.5,224.3 214.5,224.3" fill="rgb(255,174,174)"/>
<polygon points="220.5,218.3 226.5,218.3 226.5,224.3 220.5,224.3" fill="rgb(255,146,146)"/>
<polygon points="226.5,218.3 232.5,218.3 232.5,224.3 226.5,224.3" fill="rgb(216,216,255)"/>
<polygon points="232.5,218.3 238.5,218.3 238.5,224.3 232.5,224.3" fill="rgb(221,221,255)"/>
<polygon points="238.5,218.3 244.5,218.3 244.5,224.3 238.5,224.3" fill="rgb(179,179,255)"/>
<polygon points="254.5,218.3 260.5,218.3 260.5,224.3 254.5,224.3" fill="rgb(255,174,174)"/>
<polygon points="260.5,218.3 266.5,218.3 266.5,224.3 260.5,224.3" fill="rgb(255,157,157)"/>
<polygon points="266.5,218.3 272.5,218.3 272.5,224.3 266.5,224.3" fill="rgb(255,183,183)"/>
<polygon points="272.5,218.3 278.5,218.3 278.5,224.3 272.5,224.3" fill="rgb(255,220,220)"/>
<polygon points="278.5,218.3 284.5,218.3 284.5,224.3 278.5,224.3" fill="rgb(255,159,159)"/>
<polygon points="284.5,218.3 290.5,218.3 290.5,224.3 284.5,224.3" fill="rgb(223,223,255)"/>
<polygon points="290.5,218.3 296.5,218.3 296.5,224.3 290.5,224.3" fill="rgb(244,244,255)"/>
<polygon points="296.5,218.3 302.5,218.3 302.5,224.3 296.5,224.3" fill="rgb(227,227,255)"/>
<polygon points="312.5,218.3 318.5,218.3 318.5,224.3 312.5,224.3" fill="rgb(255,171,171)"/>
<polygon points="318.5,218.3 324.5,218.3 324.5,224.3 318.5,224.3" fill="rgb(255,116,116)"/>
<polygon points="324.5,218.3 330.5,218.3 330.5,224.3 324.5,224.3" fill="rgb(226,226,255)"/>
<polygon points="330.5,218.3 336.5,218.3 336.5,224.3 330.5,224.3" fill="rgb(255,231,231)"/>
<polygon points="336.5,218.3 342.5,218.3 342.5,224.3 336.5,224.3" fill="rgb(255,149,149)"/>
<polygon points="342.5,218.3 348.5,218.3 348.5,224.3 342.5,224.3" fill="rgb(210,210,255)"/>
<polygon points="348.5,218.3 354.5,218.3 354.5,224.3 348.5,224.3" fill="rgb(136,136,255)"/>
<polygon points="354.5,218.3 360.5,218.3 360.5,224.3 354.5,224.3" fill="rgb(179,179,255)"/>
<polygon points="162.5,224.3 170.5,224.3 170.5,230.3 162.5,230.3" fill="rgb(232,216,183)"/><text xml:space="preserve" x="166.5" y="230.133" font-family="Calibri" font-size="7.5" fill="rgb(0,0,0)" text-anchor="middle">10</text>
<polygon points="170.5,224.3 178.5,224.3 178.5,230.3 170.5,230.3" fill="rgb(232,216,183)"/><text xml:space="preserve" x="174.5" y="230.133" font-family="Calibri" font-size="7.5" fill="rgb(0,0,0)" text-anchor="middle">10</text>
<polygon points="178.5,224.3 186.5,224.3 186.5,230.3 178.5,230.3" fill="rgb(112,189,182)"/><text xml:space="preserve" x="182.5" y="230.133" font-family="Calibri" font-size="7.5" fill="rgb(0,0,0)" text-anchor="middle">1</text>
<polygon points="196.5,224.3 202.5,224.3 202.5,230.3 196.5,230.3" fill="rgb(255,201,201)"/>
<polygon points="202.5,224.3 208.5,224.3 208.5,230.3 202.5,230.3" fill="rgb(255,174,174)"/>
<polygon points="208.5,224.3 214.5,224.3 214.5,230.3 208.5,230.3" fill="rgb(255,182,182)"/>
<polygon points="214.5,224.3 220.5,224.3 220.5,230.3 214.5,230.3" fill="rgb(255,218,218)"/>
<polygon points="220.5,224.3 226.5,224.3 226.5,230.3 220.5,230.3" fill="rgb(255,109,109)"/>
<polygon points="226.5,224.3 232.5,224.3 232.5,230.3 226.5,230.3" fill="rgb(228,228,255)"/>
<polygon points="232.5,224.3 238.5,224.3 238.5,230.3 232.5,230.3" fill="rgb(208,208,255)"/>
<polygon points="238.5,224.3 244.5,224.3 244.5,230.3 238.5,230.3" fill="rgb(157,157,255)"/>
<polygon points="254.5,224.3 260.5,224.3 260.5,230.3 254.5,230.3" fill="rgb(249,249,255)"/>
<polygon points="260.5,224.3 266.5,224.3 266.5,230.3 260.5,230.3" fill="rgb(255,170,170)"/>
<polygon points="266.5,224.3 272.5,224.3 272.5,230.3 266.5,230.3" fill="rgb(255,244,244)"/>
<polygon points="272.5,224.3 278.5,224.3 278.5,230.3 272.5,230.3" fill="rgb(255,167,167)"/>
<polygon points="278.5,224.3 284.5,224.3 284.5,230.3 278.5,230.3" fill="rgb(255,145,145)"/>
<polygon points="284.5,224.3 290.5,224.3 290.5,230.3 284.5,230.3" fill="rgb(182,182,255)"/>
<polygon points="290.5,224.3 296.5,224.3 296.5,230.3 290.5,230.3" fill="rgb(188,188,255)"/>
<polygon points="296.5,224.3 302.5,224.3 302.5,230.3 296.5,230.3" fill="rgb(126,126,255)"/>
<polygon points="312.5,224.3 318.5,224.3 318.5,230.3 312.5,230.3" fill="rgb(255,215,215)"/>
<polygon points="318.5,224.3 324.5,224.3 324.5,230.3 318.5,230.3" fill="rgb(255,163,163)"/>
<polygon points="324.5,224.3 330.5,224.3 330.5,230.3 324.5,230.3" fill="rgb(255,233,233)"/>
<polygon points="330.5,224.3 336.5,224.3 336.5,230.3 330.5,230.3" fill="rgb(254,232,232)"/>
<polygon points="336.5,224.3 342.5,224.3 342.5,230.3 336.5,230.3" fill="rgb(255,166,166)"/>
<polygon points="342.5,224.3 348.5,224.3 348.5,230.3 342.5,230.3" fill="rgb(188,188,255)"/>
<polygon points="348.5,224.3 354.5,224.3 354.5,230.3 348.5,230.3" fill="rgb(187,187,255)"/>
<polygon points="354.5,224.3 360.5,224.3 360.5,230.3 354.5,230.3" fill="rgb(158,158,255)"/>
<polygon points="162.5,230.3 170.5,230.3 170.5,236.3 162.5,236.3" fill="rgb(232,216,183)"/><text xml:space="preserve" x="166.5" y="236.133" font-family="Calibri" font-size="7.5" fill="rgb(0,0,0)" text-anchor="middle">10</text>
<polygon points="170.5,230.3 178.5,230.3 178.5,236.3 170.5,236.3" fill="rgb(232,216,183)"/><text xml:space="preserve" x="174.5" y="236.133" font-family="Calibri" font-size="7.5" fill="rgb(0,0,0)" text-anchor="middle">10</text>
<polygon points="178.5,230.3 186.5,230.3 186.5,236.3 178.5,236.3" fill="rgb(112,189,182)"/><text xml:space="preserve" x="182.5" y="236.133" font-family="Calibri" font-size="7.5" fill="rgb(0,0,0)" text-anchor="middle">1</text>
<polygon points="196.5,230.3 202.5,230.3 202.5,236.3 196.5,236.3" fill="rgb(255,151,151)"/>
<polygon points="202.5,230.3 208.5,230.3 208.5,236.3 202.5,236.3" fill="rgb(255,148,148)"/>
<polygon points="208.5,230.3 214.5,230.3 214.5,236.3 208.5,236.3" fill="rgb(255,246,246)"/>
<polygon points="214.5,230.3 220.5,230.3 220.5,236.3 214.5,236.3" fill="rgb(234,234,255)"/>
<polygon points="220.5,230.3 226.5,230.3 226.5,236.3 220.5,236.3" fill="rgb(255,134,134)"/>
<polygon points="226.5,230.3 232.5,230.3 232.5,236.3 226.5,236.3" fill="rgb(255,253,253)"/>
<polygon points="232.5,230.3 238.5,230.3 238.5,236.3 232.5,236.3" fill="rgb(255,219,219)"/>
<polygon points="238.5,230.3 244.5,230.3 244.5,236.3 238.5,236.3" fill="rgb(143,143,255)"/>
<polygon points="254.5,230.3 260.5,230.3 260.5,236.3 254.5,236.3" fill="rgb(255,123,123)"/>
<polygon points="260.5,230.3 266.5,230.3 266.5,236.3 260.5,236.3" fill="rgb(255,143,143)"/>
<polygon points="266.5,230.3 272.5,230.3 272.5,236.3 266.5,236.3" fill="rgb(255,182,182)"/>
<polygon points="272.5,230.3 278.5,230.3 278.5,236.3 272.5,236.3" fill="rgb(255,201,201)"/>
<polygon points="278.5,230.3 284.5,230.3 284.5,236.3 278.5,236.3" fill="rgb(255,130,130)"/>
<polygon points="284.5,230.3 290.5,230.3 290.5,236.3 284.5,236.3" fill="rgb(191,191,255)"/>
<polygon points="290.5,230.3 296.5,230.3 296.5,236.3 290.5,236.3" fill="rgb(224,224,255)"/>
<polygon points="296.5,230.3 302.5,230.3 302.5,236.3 296.5,236.3" fill="rgb(107,107,255)"/>
<polygon points="312.5,230.3 318.5,230.3 318.5,236.3 312.5,236.3" fill="rgb(255,147,147)"/>
<polygon points="318.5,230.3 324.5,230.3 324.5,236.3 318.5,236.3" fill="rgb(255,126,126)"/>
<polygon points="324.5,230.3 330.5,230.3 330.5,236.3 324.5,236.3" fill="rgb(237,237,255)"/>
<polygon points="330.5,230.3 336.5,230.3 336.5,236.3 330.5,236.3" fill="rgb(234,234,255)"/>
<polygon points="336.5,230.3 342.5,230.3 342.5,236.3 336.5,236.3" fill="rgb(255,165,165)"/>
<polygon points="342.5,230.3 348.5,230.3 348.5,236.3 342.5,236.3" fill="rgb(255,235,235)"/>
<polygon points="348.5,230.3 354.5,230.3 354.5,236.3 348.5,236.3" fill="rgb(159,159,255)"/>
<polygon points="354.5,230.3 360.5,230.3 360.5,236.3 354.5,236.3" fill="rgb(208,208,255)"/>
<polygon points="162.5,236.3 170.5,236.3 170.5,242.3 162.5,242.3" fill="rgb(232,216,183)"/><text xml:space="preserve" x="166.5" y="242.133" font-family="Calibri" font-size="7.5" fill="rgb(0,0,0)" text-anchor="middle">10</text>
<polygon points="170.5,236.3 178.5,236.3 178.5,242.3 170.5,242.3" fill="rgb(232,216,183)"/><text xml:space="preserve" x="174.5" y="242.133" font-family="Calibri" font-size="7.5" fill="rgb(0,0,0)" text-anchor="middle">10</text>
<polygon points="178.5,236.3 186.5,236.3 186.5,242.3 178.5,242.3" fill="rgb(112,189,182)"/><text xml:space="preserve" x="182.5" y="242.133" font-family="Calibri" font-size="7.5" fill="rgb(0,0,0)" text-anchor="middle">1</text>
<polygon points="196.5,236.3 202.5,236.3 202.5,242.3 196.5,242.3" fill="rgb(255,113,113)"/>
<polygon points="202.5,236.3 208.5,236.3 208.5,242.3 202.5,242.3" fill="rgb(255,164,164)"/>
<polygon points="208.5,236.3 214.5,236.3 214.5,242.3 208.5,242.3" fill="rgb(255,189,189)"/>
<polygon points="214.5,236.3 220.5,236.3 220.5,242.3 214.5,242.3" fill="rgb(255,201,201)"/>
<polygon points="220.5,236.3 226.5,236.3 226.5,242.3 220.5,242.3" fill="rgb(255,123,123)"/>
<polygon points="226.5,236.3 232.5,236.3 232.5,242.3 226.5,242.3" fill="rgb(181,181,255)"/>
<polygon points="232.5,236.3 238.5,236.3 238.5,242.3 232.5,242.3" fill="rgb(147,147,255)"/>
<polygon points="238.5,236.3 244.5,236.3 244.5,242.3 238.5,242.3" fill="rgb(172,172,255)"/>
<polygon points="254.5,236.3 260.5,236.3 260.5,242.3 254.5,242.3" fill="rgb(254,175,175)"/>
<polygon points="260.5,236.3 266.5,236.3 266.5,242.3 260.5,242.3" fill="rgb(255,154,154)"/>
<polygon points="266.5,236.3 272.5,236.3 272.5,242.3 266.5,242.3" fill="rgb(255,226,226)"/>
<polygon points="272.5,236.3 278.5,236.3 278.5,242.3 272.5,242.3" fill="rgb(255,168,168)"/>
<polygon points="278.5,236.3 284.5,236.3 284.5,242.3 278.5,242.3" fill="rgb(255,143,143)"/>
<polygon points="284.5,236.3 290.5,236.3 290.5,242.3 284.5,242.3" fill="rgb(210,210,255)"/>
<polygon points="290.5,236.3 296.5,236.3 296.5,242.3 290.5,242.3" fill="rgb(143,143,255)"/>
<polygon points="296.5,236.3 302.5,236.3 302.5,242.3 296.5,242.3" fill="rgb(167,167,255)"/>
<polygon points="312.5,236.3 318.5,236.3 318.5,242.3 312.5,242.3" fill="rgb(255,150,150)"/>
<polygon points="318.5,236.3 324.5,236.3 324.5,242.3 318.5,242.3" fill="rgb(255,146,146)"/>
<polygon points="324.5,236.3 330.5,236.3 330.5,242.3 324.5,242.3" fill="rgb(231,231,255)"/>
<polygon points="330.5,236.3 336.5,236.3 336.5,242.3 330.5,242.3" fill="rgb(255,224,224)"/>
<polygon points="336.5,236.3 342.5,236.3 342.5,242.3 336.5,242.3" fill="rgb(255,207,207)"/>
<polygon points="342.5,236.3 348.5,236.3 348.5,242.3 342.5,242.3" fill="rgb(63,63,255)"/>
<polygon points="348.5,236.3 354.5,236.3 354.5,242.3 348.5,242.3" fill="rgb(182,182,255)"/>
<polygon points="354.5,236.3 360.5,236.3 360.5,242.3 354.5,242.3" fill="rgb(164,164,255)"/>
<polygon points="162.5,242.3 170.5,242.3 170.5,248.3 162.5,248.3" fill="rgb(232,216,183)"/><text xml:space="preserve" x="166.5" y="248.133" font-family="Calibri" font-size="7.5" fill="rgb(0,0,0)" text-anchor="middle">10</text>
<polygon points="170.5,242.3 178.5,242.3 178.5,248.3 170.5,248.3" fill="rgb(232,216,183)"/><text xml:space="preserve" x="174.5" y="248.133" font-family="Calibri" font-size="7.5" fill="rgb(0,0,0)" text-anchor="middle">10</text>
<polygon points="178.5,242.3 186.5,242.3 186.5,248.3 178.5,248.3" fill="rgb(112,189,182)"/><text xml:space="preserve" x="182.5" y="248.133" font-family="Calibri" font-size="7.5" fill="rgb(0,0,0)" text-anchor="middle">1</text>
<polygon points="196.5,242.3 202.5,242.3 202.5,248.3 196.5,248.3" fill="rgb(255,160,160)"/>
<polygon points="202.5,242.3 208.5,242.3 208.5,248.3 202.5,248.3" fill="rgb(255,166,166)"/>
<polygon points="208.5,242.3 214.5,242.3 214.5,248.3 208.5,248.3" fill="rgb(255,213,213)"/>
<polygon points="214.5,242.3 220.5,242.3 220.5,248.3 214.5,248.3" fill="rgb(255,206,206)"/>
<polygon points="220.5,242.3 226.5,242.3 226.5,248.3 220.5,248.3" fill="rgb(255,232,232)"/>
<polygon points="226.5,242.3 232.5,242.3 232.5,248.3 226.5,248.3" fill="rgb(160,160,255)"/>
<polygon points="232.5,242.3 238.5,242.3 238.5,248.3 232.5,248.3" fill="rgb(187,187,255)"/>
<polygon points="238.5,242.3 244.5,242.3 244.5,248.3 238.5,248.3" fill="rgb(171,171,255)"/>
<polygon points="254.5,242.3 260.5,242.3 260.5,248.3 254.5,248.3" fill="rgb(255,120,120)"/>
<polygon points="260.5,242.3 266.5,242.3 266.5,248.3 260.5,248.3" fill="rgb(255,183,183)"/>
<polygon points="266.5,242.3 272.5,242.3 272.5,248.3 266.5,248.3" fill="rgb(255,174,174)"/>
<polygon points="272.5,242.3 278.5,242.3 278.5,248.3 272.5,248.3" fill="rgb(255,182,182)"/>
<polygon points="278.5,242.3 284.5,242.3 284.5,248.3 278.5,248.3" fill="rgb(255,221,221)"/>
<polygon points="284.5,242.3 290.5,242.3 290.5,248.3 284.5,248.3" fill="rgb(142,142,255)"/>
<polygon points="290.5,242.3 296.5,242.3 296.5,248.3 290.5,248.3" fill="rgb(143,143,255)"/>
<polygon points="296.5,242.3 302.5,242.3 302.5,248.3 296.5,248.3" fill="rgb(248,248,255)"/>
<polygon points="312.5,242.3 318.5,242.3 318.5,248.3 312.5,248.3" fill="rgb(255,141,141)"/>
<polygon points="318.5,242.3 324.5,242.3 324.5,248.3 318.5,248.3" fill="rgb(255,165,165)"/>
<polygon points="324.5,242.3 330.5,242.3 330.5,248.3 324.5,248.3" fill="rgb(255,238,238)"/>
<polygon points="330.5,242.3 336.5,242.3 336.5,248.3 330.5,248.3" fill="rgb(255,208,208)"/>
<polygon points="336.5,242.3 342.5,242.3 342.5,248.3 336.5,248.3" fill="rgb(255,252,252)"/>
<polygon points="342.5,242.3 348.5,242.3 348.5,248.3 342.5,248.3" fill="rgb(194,194,255)"/>
<polygon points="348.5,242.3 354.5,242.3 354.5,248.3 348.5,248.3" fill="rgb(107,107,255)"/>
<polygon points="354.5,242.3 360.5,242.3 360.5,248.3 354.5,248.3" fill="rgb(206,206,255)"/>
<polygon points="162.5,248.3 170.5,248.3 170.5,254.3 162.5,254.3" fill="rgb(232,216,183)"/><text xml:space="preserve" x="166.5" y="254.133" font-family="Calibri" font-size="7.5" fill="rgb(0,0,0)" text-anchor="middle">10</text>
<polygon points="170.5,248.3 178.5,248.3 178.5,254.3 170.5,254.3" fill="rgb(232,216,183)"/><text xml:space="preserve" x="174.5" y="254.133" font-family="Calibri" font-size="7.5" fill="rgb(0,0,0)" text-anchor="middle">10</text>
<polygon points="178.5,248.3 186.5,248.3 186.5,254.3 178.5,254.3" fill="rgb(112,189,182)"/><text xml:space="preserve" x="182.5" y="254.133" font-family="Calibri" font-size="7.5" fill="rgb(0,0,0)" text-anchor="middle">1</text>
<polygon points="196.5,248.3 202.5,248.3 202.5,254.3 196.5,254.3" fill="rgb(255,145,145)"/>
<polygon points="202.5,248.3 208.5,248.3 208.5,254.3 202.5,254.3" fill="rgb(255,166,166)"/>
<polygon points="208.5,248.3 214.5,248.3 214.5,254.3 208.5,254.3" fill="rgb(255,151,151)"/>
<polygon points="214.5,248.3 220.5,248.3 220.5,254.3 214.5,254.3" fill="rgb(255,222,222)"/>
<polygon points="220.5,248.3 226.5,248.3 226.5,254.3 220.5,254.3" fill="rgb(255,247,247)"/>
<polygon points="226.5,248.3 232.5,248.3 232.5,254.3 226.5,254.3" fill="rgb(254,242,242)"/>
<polygon points="232.5,248.3 238.5,248.3 238.5,254.3 232.5,254.3" fill="rgb(246,246,255)"/>
<polygon points="238.5,248.3 244.5,248.3 244.5,254.3 238.5,254.3" fill="rgb(246,246,255)"/>
<polygon points="254.5,248.3 260.5,248.3 260.5,254.3 254.5,254.3" fill="rgb(255,161,161)"/>
<polygon points="260.5,248.3 266.5,248.3 266.5,254.3 260.5,254.3" fill="rgb(255,149,149)"/>
<polygon points="266.5,248.3 272.5,248.3 272.5,254.3 266.5,254.3" fill="rgb(255,200,200)"/>
<polygon points="272.5,248.3 278.5,248.3 278.5,254.3 272.5,254.3" fill="rgb(255,182,182)"/>
<polygon points="278.5,248.3 284.5,248.3 284.5,254.3 278.5,254.3" fill="rgb(255,235,235)"/>
<polygon points="284.5,248.3 290.5,248.3 290.5,254.3 284.5,254.3" fill="rgb(183,183,255)"/>
<polygon points="290.5,248.3 296.5,248.3 296.5,254.3 290.5,254.3" fill="rgb(216,216,255)"/>
<polygon points="296.5,248.3 302.5,248.3 302.5,254.3 296.5,254.3" fill="rgb(178,178,255)"/>
<polygon points="312.5,248.3 318.5,248.3 318.5,254.3 312.5,254.3" fill="rgb(255,134,134)"/>
<polygon points="318.5,248.3 324.5,248.3 324.5,254.3 318.5,254.3" fill="rgb(255,151,151)"/>
<polygon points="324.5,248.3 330.5,248.3 330.5,254.3 324.5,254.3" fill="rgb(254,247,247)"/>
<polygon points="330.5,248.3 336.5,248.3 336.5,254.3 330.5,254.3" fill="rgb(255,240,240)"/>
<polygon points="336.5,248.3 342.5,248.3 342.5,254.3 336.5,254.3" fill="rgb(237,237,255)"/>
<polygon points="342.5,248.3 348.5,248.3 348.5,254.3 342.5,254.3" fill="rgb(138,138,255)"/>
<polygon points="348.5,248.3 354.5,248.3 354.5,254.3 348.5,254.3" fill="rgb(185,185,255)"/>
<polygon points="354.5,248.3 360.5,248.3 360.5,254.3 354.5,254.3" fill="rgb(234,234,255)"/>
<polygon points="162.5,254.3 170.5,254.3 170.5,260.3 162.5,260.3" fill="rgb(232,216,183)"/><text xml:space="preserve" x="166.5" y="260.133" font-family="Calibri" font-size="7.5" fill="rgb(0,0,0)" text-anchor="middle">10</text>
<polygon points="170.5,254.3 178.5,254.3 178.5,260.3 170.5,260.3" fill="rgb(232,216,183)"/><text xml:space="preserve" x="174.5" y="260.133" font-family="Calibri" font-size="7.5" fill="rgb(0,0,0)" text-anchor="middle">10</text>
<polygon points="178.5,254.3 186.5,254.3 186.5,260.3 178.5,260.3" fill="rgb(112,189,182)"/><text xml:space="preserve" x="182.5" y="260.133" font-family="Calibri" font-size="7.5" fill="rgb(0,0,0)" text-anchor="middle">1</text>
<polygon points="196.5,254.3 202.5,254.3 202.5,260.3 196.5,260.3" fill="rgb(255,144,144)"/>
<polygon points="202.5,254.3 208.5,254.3 208.5,260.3 202.5,260.3" fill="rgb(255,138,138)"/>
<polygon points="208.5,254.3 214.5,254.3 214.5,260.3 208.5,260.3" fill="rgb(255,228,228)"/>
<polygon points="214.5,254.3 220.5,254.3 220.5,260.3 214.5,260.3" fill="rgb(234,234,255)"/>
<polygon points="220.5,254.3 226.5,254.3 226.5,260.3 220.5,260.3" fill="rgb(255,114,114)"/>
<polygon points="226.5,254.3 232.5,254.3 232.5,260.3 226.5,260.3" fill="rgb(158,158,255)"/>
<polygon points="232.5,254.3 238.5,254.3 238.5,260.3 232.5,260.3" fill="rgb(255,222,222)"/>
<polygon points="238.5,254.3 244.5,254.3 244.5,260.3 238.5,260.3" fill="rgb(255,249,249)"/>
<polygon points="254.5,254.3 260.5,254.3 260.5,260.3 254.5,260.3" fill="rgb(255,129,129)"/>
<polygon points="260.5,254.3 266.5,254.3 266.5,260.3 260.5,260.3" fill="rgb(255,160,160)"/>
<polygon points="266.5,254.3 272.5,254.3 272.5,260.3 266.5,260.3" fill="rgb(255,223,223)"/>
<polygon points="272.5,254.3 278.5,254.3 278.5,260.3 272.5,260.3" fill="rgb(254,230,230)"/>
<polygon points="278.5,254.3 284.5,254.3 284.5,260.3 278.5,260.3" fill="rgb(255,74,74)"/>
<polygon points="284.5,254.3 290.5,254.3 290.5,260.3 284.5,260.3" fill="rgb(198,198,255)"/>
<polygon points="290.5,254.3 296.5,254.3 296.5,260.3 290.5,260.3" fill="rgb(207,207,255)"/>
<polygon points="296.5,254.3 302.5,254.3 302.5,260.3 296.5,260.3" fill="rgb(220,220,255)"/>
<polygon points="312.5,254.3 318.5,254.3 318.5,260.3 312.5,260.3" fill="rgb(255,137,137)"/>
<polygon points="318.5,254.3 324.5,254.3 324.5,260.3 318.5,260.3" fill="rgb(255,163,163)"/>
<polygon points="324.5,254.3 330.5,254.3 330.5,260.3 324.5,260.3" fill="rgb(255,213,213)"/>
<polygon points="330.5,254.3 336.5,254.3 336.5,260.3 330.5,260.3" fill="rgb(255,238,238)"/>
<polygon points="336.5,254.3 342.5,254.3 342.5,260.3 336.5,260.3" fill="rgb(255,50,50)"/>
<polygon points="342.5,254.3 348.5,254.3 348.5,260.3 342.5,260.3" fill="rgb(254,249,249)"/>
<polygon points="348.5,254.3 354.5,254.3 354.5,260.3 348.5,260.3" fill="rgb(173,173,255)"/>
<polygon points="354.5,254.3 360.5,254.3 360.5,260.3 354.5,260.3" fill="rgb(175,175,255)"/>
<polygon points="162.5,260.3 170.5,260.3 170.5,266.3 162.5,266.3" fill="rgb(232,216,183)"/><text xml:space="preserve" x="166.5" y="266.133" font-family="Calibri" font-size="7.5" fill="rgb(0,0,0)" text-anchor="middle">10</text>
<polygon points="170.5,260.3 178.5,260.3 178.5,266.3 170.5,266.3" fill="rgb(232,216,183)"/><text xml:space="preserve" x="174.5" y="266.133" font-family="Calibri" font-size="7.5" fill="rgb(0,0,0)" text-anchor="middle">10</text>
<polygon points="178.5,260.3 186.5,260.3 186.5,266.3 178.5,266.3" fill="rgb(112,189,182)"/><text xml:space="preserve" x="182.5" y="266.133" font-family="Calibri" font-size="7.5" fill="rgb(0,0,0)" text-anchor="middle">1</text>
<polygon points="196.5,260.3 202.5,260.3 202.5,266.3 196.5,266.3" fill="rgb(254,191,191)"/>
<polygon points="202.5,260.3 208.5,260.3 208.5,266.3 202.5,266.3" fill="rgb(255,126,126)"/>
<polygon points="208.5,260.3 214.5,260.3 214.5,266.3 208.5,266.3" fill="rgb(255,182,182)"/>
<polygon points="214.5,260.3 220.5,260.3 220.5,266.3 214.5,266.3" fill="rgb(255,185,185)"/>
<polygon points="220.5,260.3 226.5,260.3 226.5,266.3 220.5,266.3" fill="rgb(255,139,139)"/>
<polygon points="226.5,260.3 232.5,260.3 232.5,266.3 226.5,266.3" fill="rgb(243,243,255)"/>
<polygon points="232.5,260.3 238.5,260.3 238.5,266.3 232.5,266.3" fill="rgb(207,207,255)"/>
<polygon points="238.5,260.3 244.5,260.3 244.5,266.3 238.5,266.3" fill="rgb(201,201,255)"/>
<polygon points="254.5,260.3 260.5,260.3 260.5,266.3 254.5,266.3" fill="rgb(255,173,173)"/>
<polygon points="260.5,260.3 266.5,260.3 266.5,266.3 260.5,266.3" fill="rgb(255,117,117)"/>
<polygon points="266.5,260.3 272.5,260.3 272.5,266.3 266.5,266.3" fill="rgb(255,169,169)"/>
<polygon points="272.5,260.3 278.5,260.3 278.5,266.3 272.5,266.3" fill="rgb(255,236,236)"/>
<polygon points="278.5,260.3 284.5,260.3 284.5,266.3 278.5,266.3" fill="rgb(255,166,166)"/>
<polygon points="284.5,260.3 290.5,260.3 290.5,266.3 284.5,266.3" fill="rgb(182,182,255)"/>
<polygon points="290.5,260.3 296.5,260.3 296.5,266.3 290.5,266.3" fill="rgb(169,169,255)"/>
<polygon points="296.5,260.3 302.5,260.3 302.5,266.3 296.5,266.3" fill="rgb(250,250,255)"/>
<polygon points="312.5,260.3 318.5,260.3 318.5,266.3 312.5,266.3" fill="rgb(254,233,233)"/>
<polygon points="318.5,260.3 324.5,260.3 324.5,266.3 318.5,266.3" fill="rgb(255,106,106)"/>
<polygon points="324.5,260.3 330.5,260.3 330.5,266.3 324.5,266.3" fill="rgb(250,250,255)"/>
<polygon points="330.5,260.3 336.5,260.3 336.5,266.3 330.5,266.3" fill="rgb(255,226,226)"/>
<polygon points="336.5,260.3 342.5,260.3 342.5,266.3 336.5,266.3" fill="rgb(255,156,156)"/>
<polygon points="342.5,260.3 348.5,260.3 348.5,266.3 342.5,266.3" fill="rgb(95,95,255)"/>
<polygon points="348.5,260.3 354.5,260.3 354.5,266.3 348.5,266.3" fill="rgb(125,125,255)"/>
<polygon points="354.5,260.3 360.5,260.3 360.5,266.3 354.5,266.3" fill="rgb(214,214,255)"/>
<polygon points="162.5,266.3 170.5,266.3 170.5,272.3 162.5,272.3" fill="rgb(232,216,183)"/><text xml:space="preserve" x="166.5" y="272.133" font-family="Calibri" font-size="7.5" fill="rgb(0,0,0)" text-anchor="middle">10</text>
<polygon points="170.5,266.3 178.5,266.3 178.5,272.3 170.5,272.3" fill="rgb(232,216,183)"/><text xml:space="preserve" x="174.5" y="272.133" font-family="Calibri" font-size="7.5" fill="rgb(0,0,0)" text-anchor="middle">10</text>
<polygon points="178.5,266.3 186.5,266.3 186.5,272.3 178.5,272.3" fill="rgb(112,189,182)"/><text xml:space="preserve" x="182.5" y="272.133" font-family="Calibri" font-size="7.5" fill="rgb(0,0,0)" text-anchor="middle">1</text>
<polygon points="196.5,266.3 202.5,266.3 202.5,272.3 196.5,272.3" fill="rgb(255,139,139)"/>
<polygon points="202.5,266.3 208.5,266.3 208.5,272.3 202.5,272.3" fill="rgb(255,130,130)"/>
<polygon points="208.5,266.3 214.5,266.3 214.5,272.3 208.5,272.3" fill="rgb(255,214,214)"/>
<polygon points="214.5,266.3 220.5,266.3 220.5,272.3 214.5,272.3" fill="rgb(255,235,235)"/>
<polygon points="220.5,266.3 226.5,266.3 226.5,272.3 220.5,272.3" fill="rgb(255,95,95)"/>
<polygon points="226.5,266.3 232.5,266.3 232.5,272.3 226.5,272.3" fill="rgb(184,184,255)"/>
<polygon points="232.5,266.3 238.5,266.3 238.5,272.3 232.5,272.3" fill="rgb(195,195,255)"/>
<polygon points="238.5,266.3 244.5,266.3 244.5,272.3 238.5,272.3" fill="rgb(154,154,255)"/>
<polygon points="254.5,266.3 260.5,266.3 260.5,272.3 254.5,272.3" fill="rgb(255,167,167)"/>
<polygon points="260.5,266.3 266.5,266.3 266.5,272.3 260.5,272.3" fill="rgb(255,178,178)"/>
<polygon points="266.5,266.3 272.5,266.3 272.5,272.3 266.5,272.3" fill="rgb(249,249,255)"/>
<polygon points="272.5,266.3 278.5,266.3 278.5,272.3 272.5,272.3" fill="rgb(255,190,190)"/>
<polygon points="278.5,266.3 284.5,266.3 284.5,272.3 278.5,272.3" fill="rgb(255,82,82)"/>
<polygon points="284.5,266.3 290.5,266.3 290.5,272.3 284.5,272.3" fill="rgb(233,233,255)"/>
<polygon points="290.5,266.3 296.5,266.3 296.5,272.3 290.5,272.3" fill="rgb(242,242,255)"/>
<polygon points="296.5,266.3 302.5,266.3 302.5,272.3 296.5,272.3" fill="rgb(223,223,255)"/>
<polygon points="312.5,266.3 318.5,266.3 318.5,272.3 312.5,272.3" fill="rgb(255,129,129)"/>
<polygon points="318.5,266.3 324.5,266.3 324.5,272.3 318.5,272.3" fill="rgb(255,144,144)"/>
<polygon points="324.5,266.3 330.5,266.3 330.5,272.3 324.5,272.3" fill="rgb(222,222,255)"/>
<polygon points="330.5,266.3 336.5,266.3 336.5,272.3 330.5,272.3" fill="rgb(255,233,233)"/>
<polygon points="336.5,266.3 342.5,266.3 342.5,272.3 336.5,272.3" fill="rgb(255,89,89)"/>
<polygon points="342.5,266.3 348.5,266.3 348.5,272.3 342.5,272.3" fill="rgb(234,234,255)"/>
<polygon points="348.5,266.3 354.5,266.3 354.5,272.3 348.5,272.3" fill="rgb(218,218,255)"/>
<polygon points="354.5,266.3 360.5,266.3 360.5,272.3 354.5,272.3" fill="rgb(208,208,255)"/>
<polygon points="162.5,272.3 170.5,272.3 170.5,278.3 162.5,278.3" fill="rgb(232,216,183)"/><text xml:space="preserve" x="166.5" y="278.133" font-family="Calibri" font-size="7.5" fill="rgb(0,0,0)" text-anchor="middle">10</text>
<polygon points="170.5,272.3 178.5,272.3 178.5,278.3 170.5,278.3" fill="rgb(232,216,183)"/><text xml:space="preserve" x="174.5" y="278.133" font-family="Calibri" font-size="7.5" fill="rgb(0,0,0)" text-anchor="middle">10</text>
<polygon points="178.5,272.3 186.5,272.3 186.5,278.3 178.5,278.3" fill="rgb(112,189,182)"/><text xml:space="preserve" x="182.5" y="278.133" font-family="Calibri" font-size="7.5" fill="rgb(0,0,0)" text-anchor="middle">1</text>
<polygon points="196.5,272.3 202.5,272.3 202.5,278.3 196.5,278.3" fill="rgb(255,171,171)"/>
<polygon points="202.5,272.3 208.5,272.3 208.5,278.3 202.5,278.3" fill="rgb(255,92,92)"/>
<polygon points="208.5,272.3 214.5,272.3 214.5,278.3 208.5,278.3" fill="rgb(255,190,190)"/>
<polygon points="214.5,272.3 220.5,272.3 220.5,278.3 214.5,278.3" fill="rgb(255,141,141)"/>
<polygon points="220.5,272.3 226.5,272.3 226.5,278.3 220.5,278.3" fill="rgb(255,96,96)"/>
<polygon points="226.5,272.3 232.5,272.3 232.5,278.3 226.5,278.3" fill="rgb(176,176,255)"/>
<polygon points="232.5,272.3 238.5,272.3 238.5,278.3 232.5,278.3" fill="rgb(218,218,255)"/>
<polygon points="238.5,272.3 244.5,272.3 244.5,278.3 238.5,278.3" fill="rgb(221,221,255)"/>
<polygon points="254.5,272.3 260.5,272.3 260.5,278.3 254.5,278.3" fill="rgb(255,164,164)"/>
<polygon points="260.5,272.3 266.5,272.3 266.5,278.3 260.5,278.3" fill="rgb(255,155,155)"/>
<polygon points="266.5,272.3 272.5,272.3 272.5,278.3 266.5,278.3" fill="rgb(255,192,192)"/>
<polygon points="272.5,272.3 278.5,272.3 278.5,278.3 272.5,278.3" fill="rgb(255,245,245)"/>
<polygon points="278.5,272.3 284.5,272.3 284.5,278.3 278.5,278.3" fill="rgb(255,101,101)"/>
<polygon points="284.5,272.3 290.5,272.3 290.5,278.3 284.5,278.3" fill="rgb(226,226,255)"/>
<polygon points="290.5,272.3 296.5,272.3 296.5,278.3 290.5,278.3" fill="rgb(206,206,255)"/>
<polygon points="296.5,272.3 302.5,272.3 302.5,278.3 296.5,278.3" fill="rgb(255,240,240)"/>
<polygon points="312.5,272.3 318.5,272.3 318.5,278.3 312.5,278.3" fill="rgb(255,185,185)"/>
<polygon points="318.5,272.3 324.5,272.3 324.5,278.3 318.5,278.3" fill="rgb(255,127,127)"/>
<polygon points="324.5,272.3 330.5,272.3 330.5,278.3 324.5,278.3" fill="rgb(223,223,255)"/>
<polygon points="330.5,272.3 336.5,272.3 336.5,278.3 330.5,278.3" fill="rgb(255,247,247)"/>
<polygon points="336.5,272.3 342.5,272.3 342.5,278.3 336.5,278.3" fill="rgb(255,110,110)"/>
<polygon points="342.5,272.3 348.5,272.3 348.5,278.3 342.5,278.3" fill="rgb(205,205,255)"/>
<polygon points="348.5,272.3 354.5,272.3 354.5,278.3 348.5,278.3" fill="rgb(188,188,255)"/>
<polygon points="354.5,272.3 360.5,272.3 360.5,278.3 354.5,278.3" fill="rgb(224,224,255)"/>
<polygon points="162.5,278.3 170.5,278.3 170.5,284.3 162.5,284.3" fill="rgb(232,216,183)"/><text xml:space="preserve" x="166.5" y="284.133" font-family="Calibri" font-size="7.5" fill="rgb(0,0,0)" text-anchor="middle">10</text>
<polygon points="170.5,278.3 178.5,278.3 178.5,284.3 170.5,284.3" fill="rgb(232,216,183)"/><text xml:space="preserve" x="174.5" y="284.133" font-family="Calibri" font-size="7.5" fill="rgb(0,0,0)" text-anchor="middle">10</text>
<polygon points="178.5,278.3 186.5,278.3 186.5,284.3 178.5,284.3" fill="rgb(112,189,182)"/><text xml:space="preserve" x="182.5" y="284.133" font-family="Calibri" font-size="7.5" fill="rgb(0,0,0)" text-anchor="middle">1</text>
<polygon points="196.5,278.3 202.5,278.3 202.5,284.3 196.5,284.3" fill="rgb(255,200,200)"/>
<polygon points="202.5,278.3 208.5,278.3 208.5,284.3 202.5,284.3" fill="rgb(255,185,185)"/>
<polygon points="208.5,278.3 214.5,278.3 214.5,284.3 208.5,284.3" fill="rgb(255,190,190)"/>
<polygon points="214.5,278.3 220.5,278.3 220.5,284.3 214.5,284.3" fill="rgb(255,161,161)"/>
<polygon points="220.5,278.3 226.5,278.3 226.5,284.3 220.5,284.3" fill="rgb(255,176,176)"/>
<polygon points="226.5,278.3 232.5,278.3 232.5,284.3 226.5,284.3" fill="rgb(176,176,255)"/>
<polygon points="232.5,278.3 238.5,278.3 238.5,284.3 232.5,284.3" fill="rgb(172,172,255)"/>
<polygon points="238.5,278.3 244.5,278.3 244.5,284.3 238.5,284.3" fill="rgb(116,116,255)"/>
<polygon points="254.5,278.3 260.5,278.3 260.5,284.3 254.5,284.3" fill="rgb(255,166,166)"/>
<polygon points="260.5,278.3 266.5,278.3 266.5,284.3 260.5,284.3" fill="rgb(255,174,174)"/>
<polygon points="266.5,278.3 272.5,278.3 272.5,284.3 266.5,284.3" fill="rgb(255,223,223)"/>
<polygon points="272.5,278.3 278.5,278.3 278.5,284.3 272.5,284.3" fill="rgb(255,171,171)"/>
<polygon points="278.5,278.3 284.5,278.3 284.5,284.3 278.5,284.3" fill="rgb(255,170,170)"/>
<polygon points="284.5,278.3 290.5,278.3 290.5,284.3 284.5,284.3" fill="rgb(153,153,255)"/>
<polygon points="290.5,278.3 296.5,278.3 296.5,284.3 290.5,284.3" fill="rgb(219,219,255)"/>
<polygon points="296.5,278.3 302.5,278.3 302.5,284.3 296.5,284.3" fill="rgb(178,178,255)"/>
<polygon points="312.5,278.3 318.5,278.3 318.5,284.3 312.5,284.3" fill="rgb(255,212,212)"/>
<polygon points="318.5,278.3 324.5,278.3 324.5,284.3 318.5,284.3" fill="rgb(255,205,205)"/>
<polygon points="324.5,278.3 330.5,278.3 330.5,284.3 324.5,284.3" fill="rgb(205,205,255)"/>
<polygon points="330.5,278.3 336.5,278.3 336.5,284.3 330.5,284.3" fill="rgb(226,226,255)"/>
<polygon points="336.5,278.3 342.5,278.3 342.5,284.3 336.5,284.3" fill="rgb(255,229,229)"/>
<polygon points="342.5,278.3 348.5,278.3 348.5,284.3 342.5,284.3" fill="rgb(140,140,255)"/>
<polygon points="348.5,278.3 354.5,278.3 354.5,284.3 348.5,284.3" fill="rgb(139,139,255)"/>
<polygon points="354.5,278.3 360.5,278.3 360.5,284.3 354.5,284.3" fill="rgb(136,136,255)"/>
<polygon points="162.5,284.3 170.5,284.3 170.5,290.3 162.5,290.3" fill="rgb(232,216,183)"/><text xml:space="preserve" x="166.5" y="290.133" font-family="Calibri" font-size="7.5" fill="rgb(0,0,0)" text-anchor="middle">10</text>
<polygon points="170.5,284.3 178.5,284.3 178.5,290.3 170.5,290.3" fill="rgb(232,216,183)"/><text xml:space="preserve" x="174.5" y="290.133" font-family="Calibri" font-size="7.5" fill="rgb(0,0,0)" text-anchor="middle">10</text>
<polygon points="178.5,284.3 186.5,284.3 186.5,290.3 178.5,290.3" fill="rgb(112,189,182)"/><text xml:space="preserve" x="182.5" y="290.133" font-family="Calibri" font-size="7.5" fill="rgb(0,0,0)" text-anchor="middle">1</text>
<polygon points="196.5,284.3 202.5,284.3 202.5,290.3 196.5,290.3" fill="rgb(255,147,147)"/>
<polygon points="202.5,284.3 208.5,284.3 208.5,290.3 202.5,290.3" fill="rgb(255,135,135)"/>
<polygon points="208.5,284.3 214.5,284.3 214.5,290.3 208.5,290.3" fill="rgb(255,202,202)"/>
<polygon points="214.5,284.3 220.5,284.3 220.5,290.3 214.5,290.3" fill="rgb(255,195,195)"/>
<polygon points="220.5,284.3 226.5,284.3 226.5,290.3 220.5,290.3" fill="rgb(255,198,198)"/>
<polygon points="226.5,284.3 232.5,284.3 232.5,290.3 226.5,290.3" fill="rgb(188,188,255)"/>
<polygon points="232.5,284.3 238.5,284.3 238.5,290.3 232.5,290.3" fill="rgb(169,169,255)"/>
<polygon points="238.5,284.3 244.5,284.3 244.5,290.3 238.5,290.3" fill="rgb(220,220,255)"/>
<polygon points="254.5,284.3 260.5,284.3 260.5,290.3 254.5,290.3" fill="rgb(255,243,243)"/>
<polygon points="260.5,284.3 266.5,284.3 266.5,290.3 260.5,290.3" fill="rgb(255,101,101)"/>
<polygon points="266.5,284.3 272.5,284.3 272.5,290.3 266.5,290.3" fill="rgb(255,176,176)"/>
<polygon points="272.5,284.3 278.5,284.3 278.5,290.3 272.5,290.3" fill="rgb(255,139,139)"/>
<polygon points="278.5,284.3 284.5,284.3 284.5,290.3 278.5,290.3" fill="rgb(255,165,165)"/>
<polygon points="284.5,284.3 290.5,284.3 290.5,290.3 284.5,290.3" fill="rgb(166,166,255)"/>
<polygon points="290.5,284.3 296.5,284.3 296.5,290.3 290.5,290.3" fill="rgb(154,154,255)"/>
<polygon points="296.5,284.3 302.5,284.3 302.5,290.3 296.5,290.3" fill="rgb(241,241,255)"/>
<polygon points="312.5,284.3 318.5,284.3 318.5,290.3 312.5,290.3" fill="rgb(255,166,166)"/>
<polygon points="318.5,284.3 324.5,284.3 324.5,290.3 318.5,290.3" fill="rgb(255,175,175)"/>
<polygon points="324.5,284.3 330.5,284.3 330.5,290.3 324.5,290.3" fill="rgb(183,183,255)"/>
<polygon points="330.5,284.3 336.5,284.3 336.5,290.3 330.5,290.3" fill="rgb(248,248,255)"/>
<polygon points="336.5,284.3 342.5,284.3 342.5,290.3 336.5,290.3" fill="rgb(255,248,248)"/>
<polygon points="342.5,284.3 348.5,284.3 348.5,290.3 342.5,290.3" fill="rgb(213,213,255)"/>
<polygon points="348.5,284.3 354.5,284.3 354.5,290.3 348.5,290.3" fill="rgb(145,145,255)"/>
<polygon points="354.5,284.3 360.5,284.3 360.5,290.3 354.5,290.3" fill="rgb(233,233,255)"/>
<polygon points="162.5,290.3 170.5,290.3 170.5,296.3 162.5,296.3" fill="rgb(232,216,183)"/><text xml:space="preserve" x="166.5" y="296.133" font-family="Calibri" font-size="7.5" fill="rgb(0,0,0)" text-anchor="middle">10</text>
<polygon points="170.5,290.3 178.5,290.3 178.5,296.3 170.5,296.3" fill="rgb(232,216,183)"/><text xml:space="preserve" x="174.5" y="296.133" font-family="Calibri" font-size="7.5" fill="rgb(0,0,0)" text-anchor="middle">10</text>
<polygon points="178.5,290.3 186.5,290.3 186.5,296.3 178.5,296.3" fill="rgb(112,189,182)"/><text xml:space="preserve" x="182.5" y="296.133" font-family="Calibri" font-size="7.5" fill="rgb(0,0,0)" text-anchor="middle">1</text>
<polygon points="196.5,290.3 202.5,290.3 202.5,296.3 196.5,296.3" fill="rgb(255,192,192)"/>
<polygon points="202.5,290.3 208.5,290.3 208.5,296.3 202.5,296.3" fill="rgb(255,151,151)"/>
<polygon points="208.5,290.3 214.5,290.3 214.5,296.3 208.5,296.3" fill="rgb(255,206,206)"/>
<polygon points="214.5,290.3 220.5,290.3 220.5,296.3 214.5,296.3" fill="rgb(255,183,183)"/>
<polygon points="220.5,290.3 226.5,290.3 226.5,296.3 220.5,296.3" fill="rgb(255,155,155)"/>
<polygon points="226.5,290.3 232.5,290.3 232.5,296.3 226.5,296.3" fill="rgb(250,250,255)"/>
<polygon points="232.5,290.3 238.5,290.3 238.5,296.3 232.5,296.3" fill="rgb(218,218,255)"/>
<polygon points="238.5,290.3 244.5,290.3 244.5,296.3 238.5,296.3" fill="rgb(188,188,255)"/>
<polygon points="254.5,290.3 260.5,290.3 260.5,296.3 254.5,296.3" fill="rgb(255,165,165)"/>
<polygon points="260.5,290.3 266.5,290.3 266.5,296.3 260.5,296.3" fill="rgb(255,179,179)"/>
<polygon points="266.5,290.3 272.5,290.3 272.5,296.3 266.5,296.3" fill="rgb(255,195,195)"/>
<polygon points="272.5,290.3 278.5,290.3 278.5,296.3 272.5,296.3" fill="rgb(255,218,218)"/>
<polygon points="278.5,290.3 284.5,290.3 284.5,296.3 278.5,296.3" fill="rgb(255,173,173)"/>
<polygon points="284.5,290.3 290.5,290.3 290.5,296.3 284.5,296.3" fill="rgb(243,243,255)"/>
<polygon points="290.5,290.3 296.5,290.3 296.5,296.3 290.5,296.3" fill="rgb(243,243,255)"/>
<polygon points="296.5,290.3 302.5,290.3 302.5,296.3 296.5,296.3" fill="rgb(235,235,255)"/>
<polygon points="312.5,290.3 318.5,290.3 318.5,296.3 312.5,296.3" fill="rgb(255,200,200)"/>
<polygon points="318.5,290.3 324.5,290.3 324.5,296.3 318.5,296.3" fill="rgb(255,155,155)"/>
<polygon points="324.5,290.3 330.5,290.3 330.5,296.3 324.5,296.3" fill="rgb(236,236,255)"/>
<polygon points="330.5,290.3 336.5,290.3 336.5,296.3 330.5,296.3" fill="rgb(255,246,246)"/>
<polygon points="336.5,290.3 342.5,290.3 342.5,296.3 336.5,296.3" fill="rgb(255,171,171)"/>
<polygon points="342.5,290.3 348.5,290.3 348.5,296.3 342.5,296.3" fill="rgb(234,234,255)"/>
<polygon points="348.5,290.3 354.5,290.3 354.5,296.3 348.5,296.3" fill="rgb(156,156,255)"/>
<polygon points="354.5,290.3 360.5,290.3 360.5,296.3 354.5,296.3" fill="rgb(186,186,255)"/>
<polygon points="162.5,296.3 170.5,296.3 170.5,302.3 162.5,302.3" fill="rgb(232,216,183)"/><text xml:space="preserve" x="166.5" y="302.133" font-family="Calibri" font-size="7.5" fill="rgb(0,0,0)" text-anchor="middle">10</text>
<polygon points="170.5,296.3 178.5,296.3 178.5,302.3 170.5,302.3" fill="rgb(232,216,183)"/><text xml:space="preserve" x="174.5" y="302.133" font-family="Calibri" font-size="7.5" fill="rgb(0,0,0)" text-anchor="middle">10</text>
<polygon points="178.5,296.3 186.5,296.3 186.5,302.3 178.5,302.3" fill="rgb(112,189,182)"/><text xml:space="preserve" x="182.5" y="302.133" font-family="Calibri" font-size="7.5" fill="rgb(0,0,0)" text-anchor="middle">1</text>
<polygon points="196.5,296.3 202.5,296.3 202.5,302.3 196.5,302.3" fill="rgb(255,215,215)"/>
<polygon points="202.5,296.3 208.5,296.3 208.5,302.3 202.5,302.3" fill="rgb(255,139,139)"/>
<polygon points="208.5,296.3 214.5,296.3 214.5,302.3 208.5,302.3" fill="rgb(254,181,181)"/>
<polygon points="214.5,296.3 220.5,296.3 220.5,302.3 214.5,302.3" fill="rgb(255,165,165)"/>
<polygon points="220.5,296.3 226.5,296.3 226.5,302.3 220.5,302.3" fill="rgb(255,71,71)"/>
<polygon points="226.5,296.3 232.5,296.3 232.5,302.3 226.5,302.3" fill="rgb(183,183,255)"/>
<polygon points="232.5,296.3 238.5,296.3 238.5,302.3 232.5,302.3" fill="rgb(156,156,255)"/>
<polygon points="238.5,296.3 244.5,296.3 244.5,302.3 238.5,302.3" fill="rgb(122,122,255)"/>
<polygon points="254.5,296.3 260.5,296.3 260.5,302.3 254.5,302.3" fill="rgb(255,200,200)"/>
<polygon points="260.5,296.3 266.5,296.3 266.5,302.3 260.5,302.3" fill="rgb(255,164,164)"/>
<polygon points="266.5,296.3 272.5,296.3 272.5,302.3 266.5,302.3" fill="rgb(255,164,164)"/>
<polygon points="272.5,296.3 278.5,296.3 278.5,302.3 272.5,302.3" fill="rgb(255,152,152)"/>
<polygon points="278.5,296.3 284.5,296.3 284.5,302.3 278.5,302.3" fill="rgb(255,109,109)"/>
<polygon points="284.5,296.3 290.5,296.3 290.5,302.3 284.5,302.3" fill="rgb(203,203,255)"/>
<polygon points="290.5,296.3 296.5,296.3 296.5,302.3 290.5,302.3" fill="rgb(206,206,255)"/>
<polygon points="296.5,296.3 302.5,296.3 302.5,302.3 296.5,302.3" fill="rgb(217,217,255)"/>
<polygon points="312.5,296.3 318.5,296.3 318.5,302.3 312.5,302.3" fill="rgb(255,207,207)"/>
<polygon points="318.5,296.3 324.5,296.3 324.5,302.3 318.5,302.3" fill="rgb(255,159,159)"/>
<polygon points="324.5,296.3 330.5,296.3 330.5,302.3 324.5,302.3" fill="rgb(232,232,255)"/>
<polygon points="330.5,296.3 336.5,296.3 336.5,302.3 330.5,302.3" fill="rgb(254,227,227)"/>
<polygon points="336.5,296.3 342.5,296.3 342.5,302.3 336.5,302.3" fill="rgb(254,141,141)"/>
<polygon points="342.5,296.3 348.5,296.3 348.5,302.3 342.5,302.3" fill="rgb(218,218,255)"/>
<polygon points="348.5,296.3 354.5,296.3 354.5,302.3 348.5,302.3" fill="rgb(185,185,255)"/>
<polygon points="354.5,296.3 360.5,296.3 360.5,302.3 354.5,302.3" fill="rgb(130,130,255)"/>
<polygon points="162.5,302.3 170.5,302.3 170.5,308.3 162.5,308.3" fill="rgb(232,216,183)"/><text xml:space="preserve" x="166.5" y="308.133" font-family="Calibri" font-size="7.5" fill="rgb(0,0,0)" text-anchor="middle">10</text>
<polygon points="170.5,302.3 178.5,302.3 178.5,308.3 170.5,308.3" fill="rgb(232,216,183)"/><text xml:space="preserve" x="174.5" y="308.133" font-family="Calibri" font-size="7.5" fill="rgb(0,0,0)" text-anchor="middle">10</text>
<polygon points="178.5,302.3 186.5,302.3 186.5,308.3 178.5,308.3" fill="rgb(112,189,182)"/><text xml:space="preserve" x="182.5" y="308.133" font-family="Calibri" font-size="7.5" fill="rgb(0,0,0)" text-anchor="middle">1</text>
<polygon points="196.5,302.3 202.5,302.3 202.5,308.3 196.5,308.3" fill="rgb(255,118,118)"/>
<polygon points="202.5,302.3 208.5,302.3 208.5,308.3 202.5,308.3" fill="rgb(255,155,155)"/>
<polygon points="208.5,302.3 214.5,302.3 214.5,308.3 208.5,308.3" fill="rgb(255,177,177)"/>
<polygon points="214.5,302.3 220.5,302.3 220.5,308.3 214.5,308.3" fill="rgb(255,201,201)"/>
<polygon points="220.5,302.3 226.5,302.3 226.5,308.3 220.5,308.3" fill="rgb(255,161,161)"/>
<polygon points="226.5,302.3 232.5,302.3 232.5,308.3 226.5,308.3" fill="rgb(221,221,255)"/>
<polygon points="232.5,302.3 238.5,302.3 238.5,308.3 232.5,308.3" fill="rgb(240,240,255)"/>
<polygon points="238.5,302.3 244.5,302.3 244.5,308.3 238.5,308.3" fill="rgb(154,154,255)"/>
<polygon points="254.5,302.3 260.5,302.3 260.5,308.3 254.5,308.3" fill="rgb(255,187,187)"/>
<polygon points="260.5,302.3 266.5,302.3 266.5,308.3 260.5,308.3" fill="rgb(255,147,147)"/>
<polygon points="266.5,302.3 272.5,302.3 272.5,308.3 266.5,308.3" fill="rgb(254,227,227)"/>
<polygon points="272.5,302.3 278.5,302.3 278.5,308.3 272.5,308.3" fill="rgb(255,154,154)"/>
<polygon points="278.5,302.3 284.5,302.3 284.5,308.3 278.5,308.3" fill="rgb(254,195,195)"/>
<polygon points="284.5,302.3 290.5,302.3 290.5,308.3 284.5,308.3" fill="rgb(175,175,255)"/>
<polygon points="290.5,302.3 296.5,302.3 296.5,308.3 290.5,308.3" fill="rgb(196,196,255)"/>
<polygon points="296.5,302.3 302.5,302.3 302.5,308.3 296.5,308.3" fill="rgb(139,139,255)"/>
<polygon points="312.5,302.3 318.5,302.3 318.5,308.3 312.5,308.3" fill="rgb(255,156,156)"/>
<polygon points="318.5,302.3 324.5,302.3 324.5,308.3 318.5,308.3" fill="rgb(255,173,173)"/>
<polygon points="324.5,302.3 330.5,302.3 330.5,308.3 324.5,308.3" fill="rgb(250,250,255)"/>
<polygon points="330.5,302.3 336.5,302.3 336.5,308.3 330.5,308.3" fill="rgb(255,230,230)"/>
<polygon points="336.5,302.3 342.5,302.3 342.5,308.3 336.5,308.3" fill="rgb(255,239,239)"/>
<polygon points="342.5,302.3 348.5,302.3 348.5,308.3 342.5,308.3" fill="rgb(111,111,255)"/>
<polygon points="348.5,302.3 354.5,302.3 354.5,308.3 348.5,308.3" fill="rgb(141,141,255)"/>
<polygon points="354.5,302.3 360.5,302.3 360.5,308.3 354.5,308.3" fill="rgb(174,174,255)"/>
<polygon points="162.5,308.3 170.5,308.3 170.5,314.3 162.5,314.3" fill="rgb(232,216,183)"/><text xml:space="preserve" x="166.5" y="314.133" font-family="Calibri" font-size="7.5" fill="rgb(0,0,0)" text-anchor="middle">10</text>
<polygon points="170.5,308.3 178.5,308.3 178.5,314.3 170.5,314.3" fill="rgb(232,216,183)"/><text xml:space="preserve" x="174.5" y="314.133" font-family="Calibri" font-size="7.5" fill="rgb(0,0,0)" text-anchor="middle">10</text>
<polygon points="178.5,308.3 186.5,308.3 186.5,314.3 178.5,314.3" fill="rgb(112,189,182)"/><text xml:space="preserve" x="182.5" y="314.133" font-family="Calibri" font-size="7.5" fill="rgb(0,0,0)" text-anchor="middle">1</text>
<polygon points="196.5,308.3 202.5,308.3 202.5,314.3 196.5,314.3" fill="rgb(255,135,135)"/>
<polygon points="202.5,308.3 208.5,308.3 208.5,314.3 202.5,314.3" fill="rgb(255,128,128)"/>
<polygon points="208.5,308.3 214.5,308.3 214.5,314.3 208.5,314.3" fill="rgb(255,204,204)"/>
<polygon points="214.5,308.3 220.5,308.3 220.5,314.3 214.5,314.3" fill="rgb(255,202,202)"/>
<polygon points="220.5,308.3 226.5,308.3 226.5,314.3 220.5,314.3" fill="rgb(255,183,183)"/>
<polygon points="226.5,308.3 232.5,308.3 232.5,314.3 226.5,314.3" fill="rgb(197,197,255)"/>
<polygon points="232.5,308.3 238.5,308.3 238.5,314.3 232.5,314.3" fill="rgb(197,197,255)"/>
<polygon points="238.5,308.3 244.5,308.3 244.5,314.3 238.5,314.3" fill="rgb(209,209,255)"/>
<polygon points="254.5,308.3 260.5,308.3 260.5,314.3 254.5,314.3" fill="rgb(255,168,168)"/>
<polygon points="260.5,308.3 266.5,308.3 266.5,314.3 260.5,314.3" fill="rgb(255,144,144)"/>
<polygon points="266.5,308.3 272.5,308.3 272.5,314.3 266.5,314.3" fill="rgb(255,232,232)"/>
<polygon points="272.5,308.3 278.5,308.3 278.5,314.3 272.5,314.3" fill="rgb(254,199,199)"/>
<polygon points="278.5,308.3 284.5,308.3 284.5,314.3 278.5,314.3" fill="rgb(255,119,119)"/>
<polygon points="284.5,308.3 290.5,308.3 290.5,314.3 284.5,314.3" fill="rgb(177,177,255)"/>
<polygon points="290.5,308.3 296.5,308.3 296.5,314.3 290.5,314.3" fill="rgb(227,227,255)"/>
<polygon points="296.5,308.3 302.5,308.3 302.5,314.3 296.5,314.3" fill="rgb(223,223,255)"/>
<polygon points="312.5,308.3 318.5,308.3 318.5,314.3 312.5,314.3" fill="rgb(255,106,106)"/>
<polygon points="318.5,308.3 324.5,308.3 324.5,314.3 318.5,314.3" fill="rgb(255,153,153)"/>
<polygon points="324.5,308.3 330.5,308.3 330.5,314.3 324.5,314.3" fill="rgb(205,205,255)"/>
<polygon points="330.5,308.3 336.5,308.3 336.5,314.3 330.5,314.3" fill="rgb(255,253,253)"/>
<polygon points="336.5,308.3 342.5,308.3 342.5,314.3 336.5,314.3" fill="rgb(255,136,136)"/>
<polygon points="342.5,308.3 348.5,308.3 348.5,314.3 342.5,314.3" fill="rgb(145,145,255)"/>
<polygon points="348.5,308.3 354.5,308.3 354.5,314.3 348.5,314.3" fill="rgb(204,204,255)"/>
<polygon points="354.5,308.3 360.5,308.3 360.5,314.3 354.5,314.3" fill="rgb(194,194,255)"/>
<polygon points="162.5,314.3 170.5,314.3 170.5,320.3 162.5,320.3" fill="rgb(232,216,183)"/><text xml:space="preserve" x="166.5" y="320.133" font-family="Calibri" font-size="7.5" fill="rgb(0,0,0)" text-anchor="middle">10</text>
<polygon points="170.5,314.3 178.5,314.3 178.5,320.3 170.5,320.3" fill="rgb(232,216,183)"/><text xml:space="preserve" x="174.5" y="320.133" font-family="Calibri" font-size="7.5" fill="rgb(0,0,0)" text-anchor="middle">10</text>
<polygon points="178.5,314.3 186.5,314.3 186.5,320.3 178.5,320.3" fill="rgb(112,189,182)"/><text xml:space="preserve" x="182.5" y="320.133" font-family="Calibri" font-size="7.5" fill="rgb(0,0,0)" text-anchor="middle">1</text>
<polygon points="196.5,314.3 202.5,314.3 202.5,320.3 196.5,320.3" fill="rgb(255,116,116)"/>
<polygon points="202.5,314.3 208.5,314.3 208.5,320.3 202.5,320.3" fill="rgb(255,140,140)"/>
<polygon points="208.5,314.3 214.5,314.3 214.5,320.3 208.5,320.3" fill="rgb(255,179,179)"/>
<polygon points="214.5,314.3 220.5,314.3 220.5,320.3 214.5,320.3" fill="rgb(255,147,147)"/>
<polygon points="220.5,314.3 226.5,314.3 226.5,320.3 220.5,320.3" fill="rgb(255,199,199)"/>
<polygon points="226.5,314.3 232.5,314.3 232.5,320.3 226.5,320.3" fill="rgb(249,249,255)"/>
<polygon points="232.5,314.3 238.5,314.3 238.5,320.3 232.5,320.3" fill="rgb(214,214,255)"/>
<polygon points="238.5,314.3 244.5,314.3 244.5,320.3 238.5,320.3" fill="rgb(161,161,255)"/>
<polygon points="254.5,314.3 260.5,314.3 260.5,320.3 254.5,320.3" fill="rgb(255,177,177)"/>
<polygon points="260.5,314.3 266.5,314.3 266.5,320.3 260.5,320.3" fill="rgb(255,95,95)"/>
<polygon points="266.5,314.3 272.5,314.3 272.5,320.3 266.5,320.3" fill="rgb(255,192,192)"/>
<polygon points="272.5,314.3 278.5,314.3 278.5,320.3 272.5,320.3" fill="rgb(255,115,115)"/>
<polygon points="278.5,314.3 284.5,314.3 284.5,320.3 278.5,320.3" fill="rgb(255,221,221)"/>
<polygon points="284.5,314.3 290.5,314.3 290.5,320.3 284.5,320.3" fill="rgb(182,182,255)"/>
<polygon points="290.5,314.3 296.5,314.3 296.5,320.3 290.5,320.3" fill="rgb(199,199,255)"/>
<polygon points="296.5,314.3 302.5,314.3 302.5,320.3 296.5,320.3" fill="rgb(130,130,255)"/>
<polygon points="312.5,314.3 318.5,314.3 318.5,320.3 312.5,320.3" fill="rgb(255,158,158)"/>
<polygon points="318.5,314.3 324.5,314.3 324.5,320.3 318.5,320.3" fill="rgb(255,158,158)"/>
<polygon points="324.5,314.3 330.5,314.3 330.5,320.3 324.5,320.3" fill="rgb(255,224,224)"/>
<polygon points="330.5,314.3 336.5,314.3 336.5,320.3 330.5,320.3" fill="rgb(255,227,227)"/>
<polygon points="336.5,314.3 342.5,314.3 342.5,320.3 336.5,320.3" fill="rgb(245,245,255)"/>
<polygon points="342.5,314.3 348.5,314.3 348.5,320.3 342.5,320.3" fill="rgb(155,155,255)"/>
<polygon points="348.5,314.3 354.5,314.3 354.5,320.3 348.5,320.3" fill="rgb(172,172,255)"/>
<polygon points="354.5,314.3 360.5,314.3 360.5,320.3 354.5,320.3" fill="rgb(195,195,255)"/>
<polygon points="162.5,212.3 186.5,212.3 186.5,320.3 162.5,320.3" fill="none" stroke="black" stroke-width="1"/>
<polygon points="196.5,212.3 244.5,212.3 244.5,320.3 196.5,320.3" fill="none" stroke="black" stroke-width="1"/>
<polygon points="254.5,212.3 302.5,212.3 302.5,320.3 254.5,320.3" fill="none" stroke="black" stroke-width="1"/>
<polygon points="312.5,212.3 360.5,212.3 360.5,320.3 312.5,320.3" fill="none" stroke="black" stroke-width="1"/>
<text xml:space="preserve" x="201.25" y="352.633" font-family="Calibri" font-size="6" text-anchor="middle">moduleID</text>
<polygon points="91.25,360.3 111.25,360.3 111.25,380.3 91.25,380.3" fill="rgb(250,250,250)"/><polygon points="91.25,360.3 111.25,360.3 111.25,380.3 91.25,380.3" fill="none" stroke="black" stroke-width="1"/><text xml:space="preserve" x="101.25" y="373.133" font-family="Calibri" font-size="7.5" fill="rgb(0,0,0)" text-anchor="middle">-2.0</text>
<polygon points="111.25,360.3 131.25,360.3 131.25,380.3 111.25,380.3" fill="rgb(156,210,205)"/><polygon points="111.25,360.3 131.25,360.3 131.25,380.3 111.25,380.3" fill="none" stroke="black" stroke-width="1"/><text xml:space="preserve" x="121.25" y="373.133" font-family="Calibri" font-size="7.5" fill="rgb(0,0,0)" text-anchor="middle">-0.4</text>
<polygon points="131.25,360.3 151.25,360.3 151.25,380.3 131.25,380.3" fill="rgb(116,191,184)"/><polygon points="131.25,360.3 151.25,360.3 151.25,380.3 131.25,380.3" fill="none" stroke="black" stroke-width="1"/><text xml:space="preserve" x="141.25" y="373.133" font-family="Calibri" font-size="7.5" fill="rgb(0,0,0)" text-anchor="middle">1.2</text>
<polygon points="151.25,360.3 171.25,360.3 171.25,380.3 151.25,380.3" fill="rgb(152,206,201)"/><polygon points="151.25,360.3 171.25,360.3 171.25,380.3 151.25,380.3" fill="none" stroke="black" stroke-width="1"/><text xml:space="preserve" x="161.25" y="373.133" font-family="Calibri" font-size="7.5" fill="rgb(0,0,0)" text-anchor="middle">2.8</text>
<polygon points="171.25,360.3 191.25,360.3 191.25,380.3 171.25,380.3" fill="rgb(187,220,217)"/><polygon points="171.25,360.3 191.25,360.3 191.25,380.3 171.25,380.3" fill="none" stroke="black" stroke-width="1"/><text xml:space="preserve" x="181.25" y="373.133" font-family="Calibri" font-size="7.5" fill="rgb(0,0,0)" text-anchor="middle">4.4</text>
<polygon points="191.25,360.3 211.25,360.3 211.25,380.3 191.25,380.3" fill="rgb(222,235,234)"/><polygon points="191.25,360.3 211.25,360.3 211.25,380.3 191.25,380.3" fill="none" stroke="black" stroke-width="1"/><text xml:space="preserve" x="201.25" y="373.133" font-family="Calibri" font-size="7.5" fill="rgb(0,0,0)" text-anchor="middle">6.0</text>
<polygon points="211.25,360.3 231.25,360.3 231.25,380.3 211.25,380.3" fill="rgb(242,239,232)"/><polygon points="211.25,360.3 231.25,360.3 231.25,380.3 211.25,380.3" fill="none" stroke="black" stroke-width="1"/><text xml:space="preserve" x="221.25" y="373.133" font-family="Calibri" font-size="7.5" fill="rgb(0,0,0)" text-anchor="middle">7.6</text>
<polygon points="231.25,360.3 251.25,360.3 251.25,380.3 231.25,380.3" fill="rgb(235,224,199)"/><polygon points="231.25,360.3 251.25,360.3 251.25,380.3 231.25,380.3" fill="none" stroke="black" stroke-width="1"/><text xml:space="preserve" x="241.25" y="373.133" font-family="Calibri" font-size="7.5" fill="rgb(0,0,0)" text-anchor="middle">9.2</text>
<polygon points="251.25,360.3 271.25,360.3 271.25,380.3 251.25,380.3" fill="rgb(229,209,166)"/><polygon points="251.25,360.3 271.25,360.3 271.25,380.3 251.25,380.3" fill="none" stroke="black" stroke-width="1"/><text xml:space="preserve" x="261.25" y="373.133" font-family="Calibri" font-size="7.5" fill="rgb(0,0,0)" text-anchor="middle">10.8</text>
<polygon points="271.25,360.3 291.25,360.3 291.25,380.3 271.25,380.3" fill="rgb(222,194,133)"/><polygon points="271.25,360.3 291.25,360.3 291.25,380.3 271.25,380.3" fill="none" stroke="black" stroke-width="1"/><text xml:space="preserve" x="281.25" y="373.133" font-family="Calibri" font-size="7.5" fill="rgb(0,0,0)" text-anchor="middle">12.4</text>
<polygon points="291.25,360.3 311.25,360.3 311.25,380.3 291.25,380.3" fill="rgb(216,179,101)"/><polygon points="291.25,360.3 311.25,360.3 311.25,380.3 291.25,380.3" fill="none" stroke="black" stroke-width="1"/><text xml:space="preserve" x="301.25" y="373.133" font-family="Calibri" font-size="7.5" fill="rgb(0,0,0)" text-anchor="middle">14.0</text>
<text xml:space="preserve" x="201.25" y="412.633" font-family="Calibri" font-size="6" text-anchor="middle">marklevel</text>
<polygon points="91.25,420.3 111.25,420.3 111.25,440.3 91.25,440.3" fill="rgb(0,0,255)"/><polygon points="91.25,420.3 111.25,420.3 111.25,440.3 91.25,440.3" fill="none" stroke="black" stroke-width="1"/><text xml:space="preserve" x="101.25" y="433.133" font-family="Calibri" font-size="7.5" fill="rgb(255,255,255)" text-anchor="middle">-2.0</text>
<polygon points="111.25,420.3 131.25,420.3 131.25,440.3 111.25,440.3" fill="rgb(50,50,255)"/><polygon points="111.25,420.3 131.25,420.3 131.25,440.3 111.25,440.3" fill="none" stroke="black" stroke-width="1"/><text xml:space="preserve" x="121.25" y="433.133" font-family="Calibri" font-size="7.5" fill="rgb(255,255,255)" text-anchor="middle">-1.6</text>
<polygon points="131.25,420.3 151.25,420.3 151.25,440.3 131.25,440.3" fill="rgb(102,102,255)"/><polygon points="131.25,420.3 151.25,420.3 151.25,440.3 131.25,440.3" fill="none" stroke="black" stroke-width="1"/><text xml:space="preserve" x="141.25" y="433.133" font-family="Calibri" font-size="7.5" fill="rgb(255,255,255)" text-anchor="middle">-1.2</text>
<polygon points="151.25,420.3 171.25,420.3 171.25,440.3 151.25,440.3" fill="rgb(153,153,255)"/><polygon points="151.25,420.3 171.25,420.3 171.25,440.3 151.25,440.3" fill="none" stroke="black" stroke-width="1"/><text xml:space="preserve" x="161.25" y="433.133" font-family="Calibri" font-size="7.5" fill="rgb(0,0,0)" text-anchor="middle">-0.8</text>
<polygon points="171.25,420.3 191.25,420.3 191.25,440.3 171.25,440.3" fill="rgb(204,204,255)"/><polygon points="171.25,420.3 191.25,420.3 191.25,440.3 171.25,440.3" fill="none" stroke="black" stroke-width="1"/><text xml:space="preserve" x="181.25" y="433.133" font-family="Calibri" font-size="7.5" fill="rgb(0,0,0)" text-anchor="middle">-0.4</text>
<polygon points="191.25,420.3 211.25,420.3 211.25,440.3 191.25,440.3" fill="rgb(255,255,255)"/><polygon points="191.25,420.3 211.25,420.3 211.25,440.3 191.25,440.3" fill="none" stroke="black" stroke-width="1"/><text xml:space="preserve" x="201.25" y="433.133" font-family="Calibri" font-size="7.5" fill="rgb(0,0,0)" text-anchor="middle">0.0</text>
<polygon points="211.25,420.3 231.25,420.3 231.25,440.3 211.25,440.3" fill="rgb(255,204,204)"/><polygon points="211.25,420.3 231.25,420.3 231.25,440.3 211.25,440.3" fill="none" stroke="black" stroke-width="1"/><text xml:space="preserve" x="221.25" y="433.133" font-family="Calibri" font-size="7.5" fill="rgb(0,0,0)" text-anchor="middle">0.4</text>
<polygon points="231.25,420.3 251.25,420.3 251.25,440.3 231.25,440.3" fill="rgb(255,153,153)"/><polygon points="231.25,420.3 251.25,420.3 251.25,440.3 231.25,440.3" fill="none" stroke="black" stroke-width="1"/><text xml:space="preserve" x="241.25" y="433.133" font-family="Calibri" font-size="7.5" fill="rgb(0,0,0)" text-anchor="middle">0.8</text>
<polygon points="251.25,420.3 271.25,420.3 271.25,440.3 251.25,440.3" fill="rgb(255,102,102)"/><polygon points="251.25,420.3 271.25,420.3 271.25,440.3 251.25,440.3" fill="none" stroke="black" stroke-width="1"/><text xml:space="preserve" x="261.25" y="433.133" font-family="Calibri" font-size="7.5" fill="rgb(0,0,0)" text-anchor="middle">1.2</text>
<polygon points="271.25,420.3 291.25,420.3 291.25,440.3 271.25,440.3" fill="rgb(255,50,50)"/><polygon points="271.25,420.3 291.25,420.3 291.25,440.3 271.25,440.3" fill="none" stroke="black" stroke-width="1"/><text xml:space="preserve" x="281.25" y="433.133" font-family="Calibri" font-size="7.5" fill="rgb(255,255,255)" text-anchor="middle">1.6</text>
<polygon points="291.25,420.3 311.25,420.3 311.25,440.3 291.25,440.3" fill="rgb(255,0,0)"/><polygon points="291.25,420.3 311.25,420.3 311.25,440.3 291.25,440.3" fill="none" stroke="black" stroke-width="1"/><text xml:space="preserve" x="301.25" y="433.133" font-family="Calibri" font-size="7.5" fill="rgb(255,255,255)" text-anchor="middle">2.0</text>
</svg>
