<?xml version="1.0" standalone="no"?><!DOCTYPE svg PUBLIC "-//W3C//DTD SVG 1.1//EN" "http://www.w3.org/Graphics/SVG/1.1/DTD/svg11.dtd">
<svg width="350.9" height="430.3" version="1.1" xmlns="http://www.w3.org/2000/svg">
<text xml:space="preserve" x="106.9" y="217.633" font-family="Calibri" font-size="6" text-anchor="end">BC029214</text>
<text xml:space="preserve" x="106.9" y="223.633" font-family="Calibri" font-size="6" text-anchor="end">Plscr2</text>
<text xml:space="preserve" x="106.9" y="229.633" font-family="Calibri" font-size="6" text-anchor="end">S100a5</text>
<text xml:space="preserve" x="106.9" y="235.633" font-family="Calibri" font-size="6" text-anchor="end">Slitl2</text>
<text xml:space="preserve" x="106.9" y="241.633" font-family="Calibri" font-size="6" text-anchor="end">Tmem119</text>
<text xml:space="preserve" x="106.9" y="247.633" font-family="Calibri" font-size="6" text-anchor="end">Mmp2</text>
<text xml:space="preserve" x="106.9" y="253.633" font-family="Calibri" font-size="6" text-anchor="end">Lmod1</text>
<text xml:space="preserve" x="106.9" y="259.633" font-family="Calibri" font-size="6" text-anchor="end">Cyp3a13</text>
<text xml:space="preserve" x="106.9" y="265.633" font-family="Calibri" font-size="6" text-anchor="end">Rdh7</text>
<text xml:space="preserve" x="106.9" y="271.633" font-family="Calibri" font-size="6" text-anchor="end">Oas1d</text>
<text xml:space="preserve" x="106.9" y="277.633" font-family="Calibri" font-size="6" text-anchor="end">Gimap9</text>
<text xml:space="preserve" x="106.9" y="283.633" font-family="Calibri" font-size="6" text-anchor="end">Oasl2</text>
<text xml:space="preserve" x="106.9" y="289.633" font-family="Calibri" font-size="6" text-anchor="end">BC051628</text>
<text xml:space="preserve" x="117.233" y="208.3" font-family="Calibri" font-size="6" transform="rotate(270 117.233 208.3)">ips</text>
<text xml:space="preserve" x="125.233" y="208.3" font-family="Calibri" font-size="6" transform="rotate(270 125.233 208.3)">pips</text>
<text xml:space="preserve" x="133.233" y="208.3" font-family="Calibri" font-size="6" transform="rotate(270 133.233 208.3)">mef</text>
<text xml:space="preserve" x="150.233" y="208.3" font-family="Calibri" font-size="6" transform="rotate(270 150.233 208.3)">ips_H3K4me3iPS</text>
<text xml:space="preserve" x="156.233" y="208.3" font-family="Calibri" font-size="6" transform="rotate(270 156.233 208.3)">ips_H3K9aciPS</text>
<text xml:space="preserve" x="162.233" y="208.3" font-family="Calibri" font-size="6" transform="rotate(270 162.233 208.3)">ips_H3K14aciPS</text>
<text xml:space="preserve" x="168.233" y="208.3" font-family="Calibri" font-size="6" transform="rotate(270 168.233 208.3)">ips_H3K18aciPS</text>
<text xml:space="preserve" x="174.233" y="208.3" font-family="Calibri" font-size="6" transform="rotate(270 174.233 208.3)">ips_H3K79me2iPS</text>
<text xml:space="preserve" x="180.233" y="208.3" font-family="Calibri" font-size="6" transform="rotate(270 180.233 208.3)">ips_H3K9me2iPS</text>
<text xml:space="preserve" x="186.233" y="208.3" font-family="Calibri" font-size="6" transform="rotate(270 186.233 208.3)">ips_H3K9me3iPS</text>
<text xml:space="preserve" x="192.233" y="208.3" font-family="Calibri" font-size="6" transform="rotate(270 192.233 208.3)">ips_H3K27me3iPS</text>
<text xml:space="preserve" x="208.233" y="208.3" font-family="Calibri" font-size="6" transform="rotate(270 208.233 208.3)">pips_H3K4me3pips</text>
<text xml:space="preserve" x="214.233" y="208.3" font-family="Calibri" font-size="6" transform="rotate(270 214.233 208.3)">pips_H3K9acpips</text>
<text xml:space="preserve" x="220.233" y="208.3" font-family="Calibri" font-size="6" transform="rotate(270 220.233 208.3)">pips_H3K14acpips</text>
<text xml:space="preserve" x="226.233" y="208.3" font-family="Calibri" font-size="6" transform="rotate(270 226.233 208.3)">pips_H3K18acpips</text>
<text xml:space="preserve" x="232.233" y="208.3" font-family="Calibri" font-size="6" transform="rotate(270 232.233 208.3)">pips_H3K79me2pips</text>
<text xml:space="preserve" x="238.233" y="208.3" font-family="Calibri" font-size="6" transform="rotate(270 238.233 208.3)">pips_H3K9me2pips</text>
<text xml:space="preserve" x="244.233" y="208.3" font-family="Calibri" font-size="6" transform="rotate(270 244.233 208.3)">pips_H3K9me3pips</text>
<text xml:space="preserve" x="250.233" y="208.3" font-family="Calibri" font-size="6" transform="rotate(270 250.233 208.3)">pips_H3K27me3pips</text>
<text xml:space="preserve" x="266.233" y="208.3" font-family="Calibri" font-size="6" transform="rotate(270 266.233 208.3)">mef_H3K4me3mef</text>
<text xml:space="preserve" x="272.233" y="208.3" font-family="Calibri" font-size="6" transform="rotate(270 272.233 208.3)">mef_H3K9acmef</text>
<text xml:space="preserve" x="278.233" y="208.3" font-family="Calibri" font-size="6" transform="rotate(270 278.233 208.3)">mef_H3K14acmef</text>
<text xml:space="preserve" x="284.233" y="208.3" font-family="Calibri" font-size="6" transform="rotate(270 284.233 208.3)">mef_H3K18acmef</text>
<text xml:space="preserve" x="290.233" y="208.3" font-family="Calibri" font-size="6" transform="rotate(270 290.233 208.3)">mef_H3K79me2mef</text>
<text xml:space="preserve" x="296.233" y="208.3" font-family="Calibri" font-size="6" transform="rotate(270 296.233 208.3)">mef_H3K9me2mef</text>
<text xml:space="preserve" x="302.233" y="208.3" font-family="Calibri" font-size="6" transform="rotate(270 302.233 208.3)">mef_H3K9me3mef</text>
<text xml:space="preserve" x="308.233" y="208.3" font-family="Calibri" font-size="6" transform="rotate(270 308.233 208.3)">mef_H3K27me3mef</text>
<polygon points="110.9,212.3 118.9,212.3 118.9,218.3 110.9,218.3" fill="rgb(200,226,224)"/><text xml:space="preserve" x="114.9" y="218.133" font-family="Calibri" font-size="7.5" fill="rgb(0,0,0)" text-anchor="middle">5</text>
<polygon points="118.9,212.3 126.9,212.3 126.9,218.3 118.9,218.3" fill="rgb(200,226,224)"/><text xml:space="preserve" x="122.9" y="218.133" font-family="Calibri" font-size="7.5" fill="rgb(0,0,0)" text-anchor="middle">5</text>
<polygon points="126.9,212.3 134.9,212.3 134.9,218.3 126.9,218.3" fill="rgb(216,179,101)"/><text xml:space="preserve" x="130.9" y="218.133" font-family="Calibri" font-size="7.5" fill="rgb(0,0,0)" text-anchor="middle">14</text>
<polygon points="144.9,212.3 150.9,212.3 150.9,218.3 144.9,218.3" fill="rgb(241,241,255)"/>
<polygon points="150.9,212.3 156.9,212.3 156.9,218.3 150.9,218.3" fill="rgb(231,231,255)"/>
<polygon points="156.9,212.3 162.9,212.3 162.9,218.3 156.9,218.3" fill="rgb(255,190,190)"/>
<polygon points="162.9,212.3 168.9,212.3 168.9,218.3 162.9,218.3" fill="rgb(255,246,246)"/>
<polygon points="168.9,212.3 174.9,212.3 174.9,218.3 168.9,218.3" fill="rgb(235,235,255)"/>
<polygon points="174.9,212.3 180.9,212.3 180.9,218.3 174.9,218.3" fill="rgb(255,192,192)"/>
<polygon points="180.9,212.3 186.9,212.3 186.9,218.3 180.9,218.3" fill="rgb(233,233,255)"/>
<polygon points="186.9,212.3 192.9,212.3 192.9,218.3 186.9,218.3" fill="rgb(229,229,255)"/>
<polygon points="202.9,212.3 208.9,212.3 208.9,218.3 202.9,218.3" fill="rgb(255,231,231)"/>
<polygon points="208.9,212.3 214.9,212.3 214.9,218.3 208.9,218.3" fill="rgb(255,246,246)"/>
<polygon points="214.9,212.3 220.9,212.3 220.9,218.3 214.9,218.3" fill="rgb(255,222,222)"/>
<polygon points="220.9,212.3 226.9,212.3 226.9,218.3 220.9,218.3" fill="rgb(255,143,143)"/>
<polygon points="226.9,212.3 232.9,212.3 232.9,218.3 226.9,218.3" fill="rgb(234,234,255)"/>
<polygon points="232.9,212.3 238.9,212.3 238.9,218.3 232.9,218.3" fill="rgb(254,223,223)"/>
<polygon points="238.9,212.3 244.9,212.3 244.9,218.3 238.9,218.3" fill="rgb(200,200,255)"/>
<polygon points="244.9,212.3 250.9,212.3 250.9,218.3 244.9,218.3" fill="rgb(248,248,255)"/>
<polygon points="260.9,212.3 266.9,212.3 266.9,218.3 260.9,218.3" fill="rgb(255,224,224)"/>
<polygon points="266.9,212.3 272.9,212.3 272.9,218.3 266.9,218.3" fill="rgb(255,251,251)"/>
<polygon points="272.9,212.3 278.9,212.3 278.9,218.3 272.9,218.3" fill="rgb(255,204,204)"/>
<polygon points="278.9,212.3 284.9,212.3 284.9,218.3 278.9,218.3" fill="rgb(255,203,203)"/>
<polygon points="284.9,212.3 290.9,212.3 290.9,218.3 284.9,218.3" fill="rgb(228,228,255)"/>
<polygon points="290.9,212.3 296.9,212.3 296.9,218.3 290.9,218.3" fill="rgb(255,196,196)"/>
<polygon points="296.9,212.3 302.9,212.3 302.9,218.3 296.9,218.3" fill="rgb(215,215,255)"/>
<polygon points="302.9,212.3 308.9,212.3 308.9,218.3 302.9,218.3" fill="rgb(224,224,255)"/>
<polygon points="110.9,218.3 118.9,218.3 118.9,224.3 110.9,224.3" fill="rgb(200,226,224)"/><text xml:space="preserve" x="114.9" y="224.133" font-family="Calibri" font-size="7.5" fill="rgb(0,0,0)" text-anchor="middle">5</text>
<polygon points="118.9,218.3 126.9,218.3 126.9,224.3 118.9,224.3" fill="rgb(200,226,224)"/><text xml:space="preserve" x="122.9" y="224.133" font-family="Calibri" font-size="7.5" fill="rgb(0,0,0)" text-anchor="middle">5</text>
<polygon points="126.9,218.3 134.9,218.3 134.9,224.3 126.9,224.3" fill="rgb(220,188,121)"/><text xml:space="preserve" x="130.9" y="224.133" font-family="Calibri" font-size="7.5" fill="rgb(0,0,0)" text-anchor="middle">13</text>
<polygon points="144.9,218.3 150.9,218.3 150.9,224.3 144.9,224.3" fill="rgb(191,191,255)"/>
<polygon points="150.9,218.3 156.9,218.3 156.9,224.3 150.9,224.3" fill="rgb(215,215,255)"/>
<polygon points="156.9,218.3 162.9,218.3 162.9,224.3 156.9,224.3" fill="rgb(255,241,241)"/>
<polygon points="162.9,218.3 168.9,218.3 168.9,224.3 162.9,224.3" fill="rgb(255,178,178)"/>
<polygon points="168.9,218.3 174.9,218.3 174.9,224.3 168.9,224.3" fill="rgb(212,212,255)"/>
<polygon points="174.9,218.3 180.9,218.3 180.9,224.3 174.9,224.3" fill="rgb(238,238,255)"/>
<polygon points="180.9,218.3 186.9,218.3 186.9,224.3 180.9,224.3" fill="rgb(207,207,255)"/>
<polygon points="186.9,218.3 192.9,218.3 192.9,224.3 186.9,224.3" fill="rgb(146,146,255)"/>
<polygon points="202.9,218.3 208.9,218.3 208.9,224.3 202.9,224.3" fill="rgb(211,211,255)"/>
<polygon points="208.9,218.3 214.9,218.3 214.9,224.3 208.9,224.3" fill="rgb(210,210,255)"/>
<polygon points="214.9,218.3 220.9,218.3 220.9,224.3 214.9,224.3" fill="rgb(254,243,243)"/>
<polygon points="220.9,218.3 226.9,218.3 226.9,224.3 220.9,224.3" fill="rgb(255,223,223)"/>
<polygon points="226.9,218.3 232.9,218.3 232.9,224.3 226.9,224.3" fill="rgb(212,212,255)"/>
<polygon points="232.9,218.3 238.9,218.3 238.9,224.3 232.9,224.3" fill="rgb(255,214,214)"/>
<polygon points="238.9,218.3 244.9,218.3 244.9,224.3 238.9,224.3" fill="rgb(203,203,255)"/>
<polygon points="244.9,218.3 250.9,218.3 250.9,224.3 244.9,224.3" fill="rgb(159,159,255)"/>
<polygon points="260.9,218.3 266.9,218.3 266.9,224.3 260.9,224.3" fill="rgb(254,239,239)"/>
<polygon points="266.9,218.3 272.9,218.3 272.9,224.3 266.9,224.3" fill="rgb(253,253,255)"/>
<polygon points="272.9,218.3 278.9,218.3 278.9,224.3 272.9,224.3" fill="rgb(255,129,129)"/>
<polygon points="278.9,218.3 284.9,218.3 284.9,224.3 278.9,224.3" fill="rgb(255,10,10)"/>
<polygon points="284.9,218.3 290.9,218.3 290.9,224.3 284.9,224.3" fill="rgb(255,249,249)"/>
<polygon points="290.9,218.3 296.9,218.3 296.9,224.3 290.9,224.3" fill="rgb(253,253,255)"/>
<polygon points="296.9,218.3 302.9,218.3 302.9,224.3 296.9,224.3" fill="rgb(255,211,211)"/>
<polygon points="302.9,218.3 308.9,218.3 308.9,224.3 302.9,224.3" fill="rgb(135,135,255)"/>
<polygon points="110.9,224.3 118.9,224.3 118.9,230.3 110.9,230.3" fill="rgb(200,226,224)"/><text xml:space="preserve" x="114.9" y="230.133" font-family="Calibri" font-size="7.5" fill="rgb(0,0,0)" text-anchor="middle">5</text>
<polygon points="118.9,224.3 126.9,224.3 126.9,230.3 118.9,230.3" fill="rgb(200,226,224)"/><text xml:space="preserve" x="122.9" y="230.133" font-family="Calibri" font-size="7.5" fill="rgb(0,0,0)" text-anchor="middle">5</text>
<polygon points="126.9,224.3 134.9,224.3 134.9,230.3 126.9,230.3" fill="rgb(220,188,121)"/><text xml:space="preserve" x="130.9" y="230.133" font-family="Calibri" font-size="7.5" fill="rgb(0,0,0)" text-anchor="middle">13</text>
<polygon points="144.9,224.3 150.9,224.3 150.9,230.3 144.9,230.3" fill="rgb(152,152,255)"/>
<polygon points="150.9,224.3 156.9,224.3 156.9,230.3 150.9,230.3" fill="rgb(248,248,255)"/>
<polygon points="156.9,224.3 162.9,224.3 162.9,230.3 156.9,230.3" fill="rgb(255,164,164)"/>
<polygon points="162.9,224.3 168.9,224.3 168.9,230.3 162.9,230.3" fill="rgb(255,152,152)"/>
<polygon points="168.9,224.3 174.9,224.3 174.9,230.3 168.9,230.3" fill="rgb(159,159,255)"/>
<polygon points="174.9,224.3 180.9,224.3 180.9,230.3 174.9,230.3" fill="rgb(255,145,145)"/>
<polygon points="180.9,224.3 186.9,224.3 186.9,230.3 180.9,230.3" fill="rgb(221,221,255)"/>
<polygon points="186.9,224.3 192.9,224.3 192.9,230.3 186.9,230.3" fill="rgb(213,213,255)"/>
<polygon points="202.9,224.3 208.9,224.3 208.9,230.3 202.9,230.3" fill="rgb(223,223,255)"/>
<polygon points="208.9,224.3 214.9,224.3 214.9,230.3 208.9,230.3" fill="rgb(255,236,236)"/>
<polygon points="214.9,224.3 220.9,224.3 220.9,230.3 214.9,230.3" fill="rgb(255,167,167)"/>
<polygon points="220.9,224.3 226.9,224.3 226.9,230.3 220.9,230.3" fill="rgb(255,76,76)"/>
<polygon points="226.9,224.3 232.9,224.3 232.9,230.3 226.9,230.3" fill="rgb(178,178,255)"/>
<polygon points="232.9,224.3 238.9,224.3 238.9,230.3 232.9,230.3" fill="rgb(243,243,255)"/>
<polygon points="238.9,224.3 244.9,224.3 244.9,230.3 238.9,230.3" fill="rgb(187,187,255)"/>
<polygon points="244.9,224.3 250.9,224.3 250.9,230.3 244.9,230.3" fill="rgb(173,173,255)"/>
<polygon points="260.9,224.3 266.9,224.3 266.9,230.3 260.9,230.3" fill="rgb(209,209,255)"/>
<polygon points="266.9,224.3 272.9,224.3 272.9,230.3 266.9,230.3" fill="rgb(255,188,188)"/>
<polygon points="272.9,224.3 278.9,224.3 278.9,230.3 272.9,230.3" fill="rgb(255,38,38)"/>
<polygon points="278.9,224.3 284.9,224.3 284.9,230.3 278.9,230.3" fill="rgb(255,0,0)"/>
<polygon points="284.9,224.3 290.9,224.3 290.9,230.3 284.9,230.3" fill="rgb(218,218,255)"/>
<polygon points="290.9,224.3 296.9,224.3 296.9,230.3 290.9,230.3" fill="rgb(255,195,195)"/>
<polygon points="296.9,224.3 302.9,224.3 302.9,230.3 296.9,230.3" fill="rgb(165,165,255)"/>
<polygon points="302.9,224.3 308.9,224.3 308.9,230.3 302.9,230.3" fill="rgb(169,169,255)"/>
<polygon points="110.9,230.3 118.9,230.3 118.9,236.3 110.9,236.3" fill="rgb(200,226,224)"/><text xml:space="preserve" x="114.9" y="236.133" font-family="Calibri" font-size="7.5" fill="rgb(0,0,0)" text-anchor="middle">5</text>
<polygon points="118.9,230.3 126.9,230.3 126.9,236.3 118.9,236.3" fill="rgb(200,226,224)"/><text xml:space="preserve" x="122.9" y="236.133" font-family="Calibri" font-size="7.5" fill="rgb(0,0,0)" text-anchor="middle">5</text>
<polygon points="126.9,230.3 134.9,230.3 134.9,236.3 126.9,236.3" fill="rgb(220,188,121)"/><text xml:space="preserve" x="130.9" y="236.133" font-family="Calibri" font-size="7.5" fill="rgb(0,0,0)" text-anchor="middle">13</text>
<polygon points="144.9,230.3 150.9,230.3 150.9,236.3 144.9,236.3" fill="rgb(245,245,255)"/>
<polygon points="150.9,230.3 156.9,230.3 156.9,236.3 150.9,236.3" fill="rgb(255,238,238)"/>
<polygon points="156.9,230.3 162.9,230.3 162.9,236.3 156.9,236.3" fill="rgb(255,188,188)"/>
<polygon points="162.9,230.3 168.9,230.3 168.9,236.3 162.9,236.3" fill="rgb(255,220,220)"/>
<polygon points="168.9,230.3 174.9,230.3 174.9,236.3 168.9,236.3" fill="rgb(204,204,255)"/>
<polygon points="174.9,230.3 180.9,230.3 180.9,236.3 174.9,236.3" fill="rgb(220,220,255)"/>
<polygon points="180.9,230.3 186.9,230.3 186.9,236.3 180.9,236.3" fill="rgb(128,128,255)"/>
<polygon points="186.9,230.3 192.9,230.3 192.9,236.3 186.9,236.3" fill="rgb(203,203,255)"/>
<polygon points="202.9,230.3 208.9,230.3 208.9,236.3 202.9,236.3" fill="rgb(245,245,255)"/>
<polygon points="208.9,230.3 214.9,230.3 214.9,236.3 208.9,236.3" fill="rgb(255,228,228)"/>
<polygon points="214.9,230.3 220.9,230.3 220.9,236.3 214.9,236.3" fill="rgb(255,173,173)"/>
<polygon points="220.9,230.3 226.9,230.3 226.9,236.3 220.9,236.3" fill="rgb(254,226,226)"/>
<polygon points="226.9,230.3 232.9,230.3 232.9,236.3 226.9,236.3" fill="rgb(198,198,255)"/>
<polygon points="232.9,230.3 238.9,230.3 238.9,236.3 232.9,236.3" fill="rgb(166,166,255)"/>
<polygon points="238.9,230.3 244.9,230.3 244.9,236.3 238.9,236.3" fill="rgb(187,187,255)"/>
<polygon points="244.9,230.3 250.9,230.3 250.9,236.3 244.9,236.3" fill="rgb(220,220,255)"/>
<polygon points="260.9,230.3 266.9,230.3 266.9,236.3 260.9,236.3" fill="rgb(255,222,222)"/>
<polygon points="266.9,230.3 272.9,230.3 272.9,236.3 266.9,236.3" fill="rgb(255,114,114)"/>
<polygon points="272.9,230.3 278.9,230.3 278.9,236.3 272.9,236.3" fill="rgb(255,147,147)"/>
<polygon points="278.9,230.3 284.9,230.3 284.9,236.3 278.9,236.3" fill="rgb(255,101,101)"/>
<polygon points="284.9,230.3 290.9,230.3 290.9,236.3 284.9,236.3" fill="rgb(255,212,212)"/>
<polygon points="290.9,230.3 296.9,230.3 296.9,236.3 290.9,236.3" fill="rgb(160,160,255)"/>
<polygon points="296.9,230.3 302.9,230.3 302.9,236.3 296.9,236.3" fill="rgb(146,146,255)"/>
<polygon points="302.9,230.3 308.9,230.3 308.9,236.3 302.9,236.3" fill="rgb(168,168,255)"/>
<polygon points="110.9,236.3 118.9,236.3 118.9,242.3 110.9,242.3" fill="rgb(200,226,224)"/><text xml:space="preserve" x="114.9" y="242.133" font-family="Calibri" font-size="7.5" fill="rgb(0,0,0)" text-anchor="middle">5</text>
<polygon points="118.9,236.3 126.9,236.3 126.9,242.3 118.9,242.3" fill="rgb(200,226,224)"/><text xml:space="preserve" x="122.9" y="242.133" font-family="Calibri" font-size="7.5" fill="rgb(0,0,0)" text-anchor="middle">5</text>
<polygon points="126.9,236.3 134.9,236.3 134.9,242.3 126.9,242.3" fill="rgb(220,188,121)"/><text xml:space="preserve" x="130.9" y="242.133" font-family="Calibri" font-size="7.5" fill="rgb(0,0,0)" text-anchor="middle">13</text>
<polygon points="144.9,236.3 150.9,236.3 150.9,242.3 144.9,242.3" fill="rgb(209,209,255)"/>
<polygon points="150.9,236.3 156.9,236.3 156.9,242.3 150.9,242.3" fill="rgb(235,235,255)"/>
<polygon points="156.9,236.3 162.9,236.3 162.9,242.3 156.9,242.3" fill="rgb(255,246,246)"/>
<polygon points="162.9,236.3 168.9,236.3 168.9,242.3 162.9,242.3" fill="rgb(254,224,224)"/>
<polygon points="168.9,236.3 174.9,236.3 174.9,242.3 168.9,242.3" fill="rgb(213,213,255)"/>
<polygon points="174.9,236.3 180.9,236.3 180.9,242.3 174.9,242.3" fill="rgb(176,176,255)"/>
<polygon points="180.9,236.3 186.9,236.3 186.9,242.3 180.9,242.3" fill="rgb(255,245,245)"/>
<polygon points="186.9,236.3 192.9,236.3 192.9,242.3 186.9,242.3" fill="rgb(255,155,155)"/>
<polygon points="202.9,236.3 208.9,236.3 208.9,242.3 202.9,242.3" fill="rgb(230,230,255)"/>
<polygon points="208.9,236.3 214.9,236.3 214.9,242.3 208.9,242.3" fill="rgb(255,246,246)"/>
<polygon points="214.9,236.3 220.9,236.3 220.9,242.3 214.9,242.3" fill="rgb(255,216,216)"/>
<polygon points="220.9,236.3 226.9,236.3 226.9,242.3 220.9,242.3" fill="rgb(255,199,199)"/>
<polygon points="226.9,236.3 232.9,236.3 232.9,242.3 226.9,242.3" fill="rgb(208,208,255)"/>
<polygon points="232.9,236.3 238.9,236.3 238.9,242.3 232.9,242.3" fill="rgb(179,179,255)"/>
<polygon points="238.9,236.3 244.9,236.3 244.9,242.3 238.9,242.3" fill="rgb(255,248,248)"/>
<polygon points="244.9,236.3 250.9,236.3 250.9,242.3 244.9,242.3" fill="rgb(255,217,217)"/>
<polygon points="260.9,236.3 266.9,236.3 266.9,242.3 260.9,242.3" fill="rgb(255,226,226)"/>
<polygon points="266.9,236.3 272.9,236.3 272.9,242.3 266.9,242.3" fill="rgb(255,120,120)"/>
<polygon points="272.9,236.3 278.9,236.3 278.9,242.3 272.9,242.3" fill="rgb(255,95,95)"/>
<polygon points="278.9,236.3 284.9,236.3 284.9,242.3 278.9,242.3" fill="rgb(255,50,50)"/>
<polygon points="284.9,236.3 290.9,236.3 290.9,242.3 284.9,242.3" fill="rgb(255,211,211)"/>
<polygon points="290.9,236.3 296.9,236.3 296.9,242.3 290.9,242.3" fill="rgb(231,231,255)"/>
<polygon points="296.9,236.3 302.9,236.3 302.9,242.3 296.9,242.3" fill="rgb(149,149,255)"/>
<polygon points="302.9,236.3 308.9,236.3 308.9,242.3 302.9,242.3" fill="rgb(221,221,255)"/>
<polygon points="110.9,242.3 118.9,242.3 118.9,248.3 110.9,248.3" fill="rgb(200,226,224)"/><text xml:space="preserve" x="114.9" y="248.133" font-family="Calibri" font-size="7.5" fill="rgb(0,0,0)" text-anchor="middle">5</text>
<polygon points="118.9,242.3 126.9,242.3 126.9,248.3 118.9,248.3" fill="rgb(200,226,224)"/><text xml:space="preserve" x="122.9" y="248.133" font-family="Calibri" font-size="7.5" fill="rgb(0,0,0)" text-anchor="middle">5</text>
<polygon points="126.9,242.3 134.9,242.3 134.9,248.3 126.9,248.3" fill="rgb(220,188,121)"/><text xml:space="preserve" x="130.9" y="248.133" font-family="Calibri" font-size="7.5" fill="rgb(0,0,0)" text-anchor="middle">13</text>
<polygon points="144.9,242.3 150.9,242.3 150.9,248.3 144.9,248.3" fill="rgb(242,242,255)"/>
<polygon points="150.9,242.3 156.9,242.3 156.9,248.3 150.9,248.3" fill="rgb(255,251,251)"/>
<polygon points="156.9,242.3 162.9,242.3 162.9,248.3 156.9,248.3" fill="rgb(255,173,173)"/>
<polygon points="162.9,242.3 168.9,242.3 168.9,248.3 162.9,248.3" fill="rgb(255,127,127)"/>
<polygon points="168.9,242.3 174.9,242.3 174.9,248.3 168.9,248.3" fill="rgb(234,234,255)"/>
<polygon points="174.9,242.3 180.9,242.3 180.9,248.3 174.9,248.3" fill="rgb(255,151,151)"/>
<polygon points="180.9,242.3 186.9,242.3 186.9,248.3 180.9,248.3" fill="rgb(255,203,203)"/>
<polygon points="186.9,242.3 192.9,242.3 192.9,248.3 186.9,248.3" fill="rgb(255,200,200)"/>
<polygon points="202.9,242.3 208.9,242.3 208.9,248.3 202.9,248.3" fill="rgb(224,224,255)"/>
<polygon points="208.9,242.3 214.9,242.3 214.9,248.3 208.9,248.3" fill="rgb(197,197,255)"/>
<polygon points="214.9,242.3 220.9,242.3 220.9,248.3 214.9,248.3" fill="rgb(255,226,226)"/>
<polygon points="220.9,242.3 226.9,242.3 226.9,248.3 220.9,248.3" fill="rgb(255,206,206)"/>
<polygon points="226.9,242.3 232.9,242.3 232.9,248.3 226.9,248.3" fill="rgb(213,213,255)"/>
<polygon points="232.9,242.3 238.9,242.3 238.9,248.3 232.9,248.3" fill="rgb(255,178,178)"/>
<polygon points="238.9,242.3 244.9,242.3 244.9,248.3 238.9,248.3" fill="rgb(255,236,236)"/>
<polygon points="244.9,242.3 250.9,242.3 250.9,248.3 244.9,248.3" fill="rgb(254,239,239)"/>
<polygon points="260.9,242.3 266.9,242.3 266.9,248.3 260.9,248.3" fill="rgb(255,207,207)"/>
<polygon points="266.9,242.3 272.9,242.3 272.9,248.3 266.9,248.3" fill="rgb(255,216,216)"/>
<polygon points="272.9,242.3 278.9,242.3 278.9,248.3 272.9,248.3" fill="rgb(255,99,99)"/>
<polygon points="278.9,242.3 284.9,242.3 284.9,248.3 278.9,248.3" fill="rgb(255,92,92)"/>
<polygon points="284.9,242.3 290.9,242.3 290.9,248.3 284.9,248.3" fill="rgb(255,216,216)"/>
<polygon points="290.9,242.3 296.9,242.3 296.9,248.3 290.9,248.3" fill="rgb(255,225,225)"/>
<polygon points="296.9,242.3 302.9,242.3 302.9,248.3 296.9,248.3" fill="rgb(255,253,253)"/>
<polygon points="302.9,242.3 308.9,242.3 308.9,248.3 302.9,248.3" fill="rgb(255,235,235)"/>
<polygon points="110.9,248.3 118.9,248.3 118.9,254.3 110.9,254.3" fill="rgb(200,226,224)"/><text xml:space="preserve" x="114.9" y="254.133" font-family="Calibri" font-size="7.5" fill="rgb(0,0,0)" text-anchor="middle">5</text>
<polygon points="118.9,248.3 126.9,248.3 126.9,254.3 118.9,254.3" fill="rgb(200,226,224)"/><text xml:space="preserve" x="122.9" y="254.133" font-family="Calibri" font-size="7.5" fill="rgb(0,0,0)" text-anchor="middle">5</text>
<polygon points="126.9,248.3 134.9,248.3 134.9,254.3 126.9,254.3" fill="rgb(220,188,121)"/><text xml:space="preserve" x="130.9" y="254.133" font-family="Calibri" font-size="7.5" fill="rgb(0,0,0)" text-anchor="middle">13</text>
<polygon points="144.9,248.3 150.9,248.3 150.9,254.3 144.9,254.3" fill="rgb(192,192,255)"/>
<polygon points="150.9,248.3 156.9,248.3 156.9,254.3 150.9,254.3" fill="rgb(255,236,236)"/>
<polygon points="156.9,248.3 162.9,248.3 162.9,254.3 156.9,254.3" fill="rgb(254,200,200)"/>
<polygon points="162.9,248.3 168.9,248.3 168.9,254.3 162.9,254.3" fill="rgb(255,193,193)"/>
<polygon points="168.9,248.3 174.9,248.3 174.9,254.3 168.9,254.3" fill="rgb(214,214,255)"/>
<polygon points="174.9,248.3 180.9,248.3 180.9,254.3 174.9,254.3" fill="rgb(255,142,142)"/>
<polygon points="180.9,248.3 186.9,248.3 186.9,254.3 180.9,254.3" fill="rgb(254,202,202)"/>
<polygon points="186.9,248.3 192.9,248.3 192.9,254.3 186.9,254.3" fill="rgb(255,156,156)"/>
<polygon points="202.9,248.3 208.9,248.3 208.9,254.3 202.9,254.3" fill="rgb(226,226,255)"/>
<polygon points="208.9,248.3 214.9,248.3 214.9,254.3 208.9,254.3" fill="rgb(236,236,255)"/>
<polygon points="214.9,248.3 220.9,248.3 220.9,254.3 214.9,254.3" fill="rgb(255,180,180)"/>
<polygon points="220.9,248.3 226.9,248.3 226.9,254.3 220.9,254.3" fill="rgb(222,222,255)"/>
<polygon points="226.9,248.3 232.9,248.3 232.9,254.3 226.9,254.3" fill="rgb(212,212,255)"/>
<polygon points="232.9,248.3 238.9,248.3 238.9,254.3 232.9,254.3" fill="rgb(210,210,255)"/>
<polygon points="238.9,248.3 244.9,248.3 244.9,254.3 238.9,254.3" fill="rgb(255,173,173)"/>
<polygon points="244.9,248.3 250.9,248.3 250.9,254.3 244.9,254.3" fill="rgb(255,219,219)"/>
<polygon points="260.9,248.3 266.9,248.3 266.9,254.3 260.9,254.3" fill="rgb(255,153,153)"/>
<polygon points="266.9,248.3 272.9,248.3 272.9,254.3 266.9,254.3" fill="rgb(255,225,225)"/>
<polygon points="272.9,248.3 278.9,248.3 278.9,254.3 272.9,254.3" fill="rgb(255,158,158)"/>
<polygon points="278.9,248.3 284.9,248.3 284.9,254.3 278.9,254.3" fill="rgb(255,87,87)"/>
<polygon points="284.9,248.3 290.9,248.3 290.9,254.3 284.9,254.3" fill="rgb(255,212,212)"/>
<polygon points="290.9,248.3 296.9,248.3 296.9,254.3 290.9,254.3" fill="rgb(255,197,197)"/>
<polygon points="296.9,248.3 302.9,248.3 302.9,254.3 296.9,254.3" fill="rgb(255,179,179)"/>
<polygon points="302.9,248.3 308.9,248.3 308.9,254.3 302.9,254.3" fill="rgb(255,228,228)"/>
<polygon points="110.9,254.3 118.9,254.3 118.9,260.3 110.9,260.3" fill="rgb(200,226,224)"/><text xml:space="preserve" x="114.9" y="260.133" font-family="Calibri" font-size="7.5" fill="rgb(0,0,0)" text-anchor="middle">5</text>
<polygon points="118.9,254.3 126.9,254.3 126.9,260.3 118.9,260.3" fill="rgb(200,226,224)"/><text xml:space="preserve" x="122.9" y="260.133" font-family="Calibri" font-size="7.5" fill="rgb(0,0,0)" text-anchor="middle">5</text>
<polygon points="126.9,254.3 134.9,254.3 134.9,260.3 126.9,260.3" fill="rgb(224,197,142)"/><text xml:space="preserve" x="130.9" y="260.133" font-family="Calibri" font-size="7.5" fill="rgb(0,0,0)" text-anchor="middle">12</text>
<polygon points="144.9,254.3 150.9,254.3 150.9,260.3 144.9,260.3" fill="rgb(176,176,255)"/>
<polygon points="150.9,254.3 156.9,254.3 156.9,260.3 150.9,260.3" fill="rgb(220,220,255)"/>
<polygon points="156.9,254.3 162.9,254.3 162.9,260.3 156.9,260.3" fill="rgb(255,244,244)"/>
<polygon points="162.9,254.3 168.9,254.3 168.9,260.3 162.9,260.3" fill="rgb(255,157,157)"/>
<polygon points="168.9,254.3 174.9,254.3 174.9,260.3 168.9,260.3" fill="rgb(207,207,255)"/>
<polygon points="174.9,254.3 180.9,254.3 180.9,260.3 174.9,260.3" fill="rgb(255,117,117)"/>
<polygon points="180.9,254.3 186.9,254.3 186.9,260.3 180.9,260.3" fill="rgb(224,224,255)"/>
<polygon points="186.9,254.3 192.9,254.3 192.9,260.3 186.9,260.3" fill="rgb(190,190,255)"/>
<polygon points="202.9,254.3 208.9,254.3 208.9,260.3 202.9,260.3" fill="rgb(193,193,255)"/>
<polygon points="208.9,254.3 214.9,254.3 214.9,260.3 208.9,260.3" fill="rgb(219,219,255)"/>
<polygon points="214.9,254.3 220.9,254.3 220.9,260.3 214.9,260.3" fill="rgb(243,243,255)"/>
<polygon points="220.9,254.3 226.9,254.3 226.9,260.3 220.9,260.3" fill="rgb(254,195,195)"/>
<polygon points="226.9,254.3 232.9,254.3 232.9,260.3 226.9,260.3" fill="rgb(191,191,255)"/>
<polygon points="232.9,254.3 238.9,254.3 238.9,260.3 232.9,260.3" fill="rgb(255,117,117)"/>
<polygon points="238.9,254.3 244.9,254.3 244.9,260.3 238.9,260.3" fill="rgb(235,235,255)"/>
<polygon points="244.9,254.3 250.9,254.3 250.9,260.3 244.9,260.3" fill="rgb(255,243,243)"/>
<polygon points="260.9,254.3 266.9,254.3 266.9,260.3 260.9,260.3" fill="rgb(130,130,255)"/>
<polygon points="266.9,254.3 272.9,254.3 272.9,260.3 266.9,260.3" fill="rgb(105,105,255)"/>
<polygon points="272.9,254.3 278.9,254.3 278.9,260.3 272.9,260.3" fill="rgb(201,201,255)"/>
<polygon points="278.9,254.3 284.9,254.3 284.9,260.3 278.9,260.3" fill="rgb(51,51,255)"/>
<polygon points="284.9,254.3 290.9,254.3 290.9,260.3 284.9,260.3" fill="rgb(147,147,255)"/>
<polygon points="290.9,254.3 296.9,254.3 296.9,260.3 290.9,260.3" fill="rgb(255,136,136)"/>
<polygon points="296.9,254.3 302.9,254.3 302.9,260.3 296.9,260.3" fill="rgb(255,236,236)"/>
<polygon points="302.9,254.3 308.9,254.3 308.9,260.3 302.9,260.3" fill="rgb(215,215,255)"/>
<polygon points="110.9,260.3 118.9,260.3 118.9,266.3 110.9,266.3" fill="rgb(200,226,224)"/><text xml:space="preserve" x="114.9" y="266.133" font-family="Calibri" font-size="7.5" fill="rgb(0,0,0)" text-anchor="middle">5</text>
<polygon points="118.9,260.3 126.9,260.3 126.9,266.3 118.9,266.3" fill="rgb(200,226,224)"/><text xml:space="preserve" x="122.9" y="266.133" font-family="Calibri" font-size="7.5" fill="rgb(0,0,0)" text-anchor="middle">5</text>
<polygon points="126.9,260.3 134.9,260.3 134.9,266.3 126.9,266.3" fill="rgb(224,197,142)"/><text xml:space="preserve" x="130.9" y="266.133" font-family="Calibri" font-size="7.5" fill="rgb(0,0,0)" text-anchor="middle">12</text>
<polygon points="144.9,260.3 150.9,260.3 150.9,266.3 144.9,266.3" fill="rgb(150,150,255)"/>
<polygon points="150.9,260.3 156.9,260.3 156.9,266.3 150.9,266.3" fill="rgb(224,224,255)"/>
<polygon points="156.9,260.3 162.9,260.3 162.9,266.3 156.9,266.3" fill="rgb(254,174,174)"/>
<polygon points="162.9,260.3 168.9,260.3 168.9,266.3 162.9,266.3" fill="rgb(255,125,125)"/>
<polygon points="168.9,260.3 174.9,260.3 174.9,266.3 168.9,266.3" fill="rgb(172,172,255)"/>
<polygon points="174.9,260.3 180.9,260.3 180.9,266.3 174.9,266.3" fill="rgb(255,170,170)"/>
<polygon points="180.9,260.3 186.9,260.3 186.9,266.3 180.9,266.3" fill="rgb(255,207,207)"/>
<polygon points="186.9,260.3 192.9,260.3 192.9,266.3 186.9,266.3" fill="rgb(237,237,255)"/>
<polygon points="202.9,260.3 208.9,260.3 208.9,266.3 202.9,266.3" fill="rgb(229,229,255)"/>
<polygon points="208.9,260.3 214.9,260.3 214.9,266.3 208.9,266.3" fill="rgb(217,217,255)"/>
<polygon points="214.9,260.3 220.9,260.3 220.9,266.3 214.9,266.3" fill="rgb(254,154,154)"/>
<polygon points="220.9,260.3 226.9,260.3 226.9,266.3 220.9,266.3" fill="rgb(255,71,71)"/>
<polygon points="226.9,260.3 232.9,260.3 232.9,266.3 226.9,266.3" fill="rgb(188,188,255)"/>
<polygon points="232.9,260.3 238.9,260.3 238.9,266.3 232.9,266.3" fill="rgb(255,252,252)"/>
<polygon points="238.9,260.3 244.9,260.3 244.9,266.3 238.9,266.3" fill="rgb(248,248,255)"/>
<polygon points="244.9,260.3 250.9,260.3 250.9,266.3 244.9,266.3" fill="rgb(255,247,247)"/>
<polygon points="260.9,260.3 266.9,260.3 266.9,266.3 260.9,266.3" fill="rgb(136,136,255)"/>
<polygon points="266.9,260.3 272.9,260.3 272.9,266.3 266.9,266.3" fill="rgb(145,145,255)"/>
<polygon points="272.9,260.3 278.9,260.3 278.9,266.3 272.9,266.3" fill="rgb(213,213,255)"/>
<polygon points="278.9,260.3 284.9,260.3 284.9,266.3 278.9,266.3" fill="rgb(116,116,255)"/>
<polygon points="284.9,260.3 290.9,260.3 290.9,266.3 284.9,266.3" fill="rgb(118,118,255)"/>
<polygon points="290.9,260.3 296.9,260.3 296.9,266.3 290.9,266.3" fill="rgb(255,187,187)"/>
<polygon points="296.9,260.3 302.9,260.3 302.9,266.3 296.9,266.3" fill="rgb(255,214,214)"/>
<polygon points="302.9,260.3 308.9,260.3 308.9,266.3 302.9,266.3" fill="rgb(255,147,147)"/>
<polygon points="110.9,266.3 118.9,266.3 118.9,272.3 110.9,272.3" fill="rgb(200,226,224)"/><text xml:space="preserve" x="114.9" y="272.133" font-family="Calibri" font-size="7.5" fill="rgb(0,0,0)" text-anchor="middle">5</text>
<polygon points="118.9,266.3 126.9,266.3 126.9,272.3 118.9,272.3" fill="rgb(200,226,224)"/><text xml:space="preserve" x="122.9" y="272.133" font-family="Calibri" font-size="7.5" fill="rgb(0,0,0)" text-anchor="middle">5</text>
<polygon points="126.9,266.3 134.9,266.3 134.9,272.3 126.9,272.3" fill="rgb(224,197,142)"/><text xml:space="preserve" x="130.9" y="272.133" font-family="Calibri" font-size="7.5" fill="rgb(0,0,0)" text-anchor="middle">12</text>
<polygon points="144.9,266.3 150.9,266.3 150.9,272.3 144.9,272.3" fill="rgb(163,163,255)"/>
<polygon points="150.9,266.3 156.9,266.3 156.9,272.3 150.9,272.3" fill="rgb(255,242,242)"/>
<polygon points="156.9,266.3 162.9,266.3 162.9,272.3 156.9,272.3" fill="rgb(255,136,136)"/>
<polygon points="162.9,266.3 168.9,266.3 168.9,272.3 162.9,272.3" fill="rgb(255,182,182)"/>
<polygon points="168.9,266.3 174.9,266.3 174.9,272.3 168.9,272.3" fill="rgb(190,190,255)"/>
<polygon points="174.9,266.3 180.9,266.3 180.9,272.3 174.9,272.3" fill="rgb(255,248,248)"/>
<polygon points="180.9,266.3 186.9,266.3 186.9,272.3 180.9,272.3" fill="rgb(225,225,255)"/>
<polygon points="186.9,266.3 192.9,266.3 192.9,272.3 186.9,272.3" fill="rgb(208,208,255)"/>
<polygon points="202.9,266.3 208.9,266.3 208.9,272.3 202.9,272.3" fill="rgb(221,221,255)"/>
<polygon points="208.9,266.3 214.9,266.3 214.9,272.3 208.9,272.3" fill="rgb(255,249,249)"/>
<polygon points="214.9,266.3 220.9,266.3 220.9,272.3 214.9,272.3" fill="rgb(255,163,163)"/>
<polygon points="220.9,266.3 226.9,266.3 226.9,272.3 220.9,272.3" fill="rgb(255,222,222)"/>
<polygon points="226.9,266.3 232.9,266.3 232.9,272.3 226.9,272.3" fill="rgb(164,164,255)"/>
<polygon points="232.9,266.3 238.9,266.3 238.9,272.3 232.9,272.3" fill="rgb(228,228,255)"/>
<polygon points="238.9,266.3 244.9,266.3 244.9,272.3 238.9,272.3" fill="rgb(255,219,219)"/>
<polygon points="244.9,266.3 250.9,266.3 250.9,272.3 244.9,272.3" fill="rgb(254,176,176)"/>
<polygon points="260.9,266.3 266.9,266.3 266.9,272.3 260.9,272.3" fill="rgb(107,107,255)"/>
<polygon points="266.9,266.3 272.9,266.3 272.9,272.3 266.9,272.3" fill="rgb(142,142,255)"/>
<polygon points="272.9,266.3 278.9,266.3 278.9,272.3 272.9,272.3" fill="rgb(222,222,255)"/>
<polygon points="278.9,266.3 284.9,266.3 284.9,272.3 278.9,272.3" fill="rgb(82,82,255)"/>
<polygon points="284.9,266.3 290.9,266.3 290.9,272.3 284.9,272.3" fill="rgb(112,112,255)"/>
<polygon points="290.9,266.3 296.9,266.3 296.9,272.3 290.9,272.3" fill="rgb(255,251,251)"/>
<polygon points="296.9,266.3 302.9,266.3 302.9,272.3 296.9,272.3" fill="rgb(236,236,255)"/>
<polygon points="302.9,266.3 308.9,266.3 308.9,272.3 302.9,272.3" fill="rgb(236,236,255)"/>
<polygon points="110.9,272.3 118.9,272.3 118.9,278.3 110.9,278.3" fill="rgb(200,226,224)"/><text xml:space="preserve" x="114.9" y="278.133" font-family="Calibri" font-size="7.5" fill="rgb(0,0,0)" text-anchor="middle">5</text>
<polygon points="118.9,272.3 126.9,272.3 126.9,278.3 118.9,278.3" fill="rgb(200,226,224)"/><text xml:space="preserve" x="122.9" y="278.133" font-family="Calibri" font-size="7.5" fill="rgb(0,0,0)" text-anchor="middle">5</text>
<polygon points="126.9,272.3 134.9,272.3 134.9,278.3 126.9,278.3" fill="rgb(224,197,142)"/><text xml:space="preserve" x="130.9" y="278.133" font-family="Calibri" font-size="7.5" fill="rgb(0,0,0)" text-anchor="middle">12</text>
<polygon points="144.9,272.3 150.9,272.3 150.9,278.3 144.9,278.3" fill="rgb(223,223,255)"/>
<polygon points="150.9,272.3 156.9,272.3 156.9,278.3 150.9,278.3" fill="rgb(228,228,255)"/>
<polygon points="156.9,272.3 162.9,272.3 162.9,278.3 156.9,278.3" fill="rgb(255,242,242)"/>
<polygon points="162.9,272.3 168.9,272.3 168.9,278.3 162.9,278.3" fill="rgb(255,164,164)"/>
<polygon points="168.9,272.3 174.9,272.3 174.9,278.3 168.9,278.3" fill="rgb(208,208,255)"/>
<polygon points="174.9,272.3 180.9,272.3 180.9,278.3 174.9,278.3" fill="rgb(255,180,180)"/>
<polygon points="180.9,272.3 186.9,272.3 186.9,278.3 180.9,278.3" fill="rgb(255,166,166)"/>
<polygon points="186.9,272.3 192.9,272.3 192.9,278.3 186.9,278.3" fill="rgb(179,179,255)"/>
<polygon points="202.9,272.3 208.9,272.3 208.9,278.3 202.9,278.3" fill="rgb(254,254,255)"/>
<polygon points="208.9,272.3 214.9,272.3 214.9,278.3 208.9,278.3" fill="rgb(255,238,238)"/>
<polygon points="214.9,272.3 220.9,272.3 220.9,278.3 214.9,278.3" fill="rgb(255,209,209)"/>
<polygon points="220.9,272.3 226.9,272.3 226.9,278.3 220.9,278.3" fill="rgb(255,214,214)"/>
<polygon points="226.9,272.3 232.9,272.3 232.9,278.3 226.9,278.3" fill="rgb(239,239,255)"/>
<polygon points="232.9,272.3 238.9,272.3 238.9,278.3 232.9,278.3" fill="rgb(254,179,179)"/>
<polygon points="238.9,272.3 244.9,272.3 244.9,278.3 238.9,278.3" fill="rgb(255,216,216)"/>
<polygon points="244.9,272.3 250.9,272.3 250.9,278.3 244.9,278.3" fill="rgb(255,211,211)"/>
<polygon points="260.9,272.3 266.9,272.3 266.9,278.3 260.9,278.3" fill="rgb(144,144,255)"/>
<polygon points="266.9,272.3 272.9,272.3 272.9,278.3 266.9,278.3" fill="rgb(142,142,255)"/>
<polygon points="272.9,272.3 278.9,272.3 278.9,278.3 272.9,278.3" fill="rgb(228,228,255)"/>
<polygon points="278.9,272.3 284.9,272.3 284.9,278.3 278.9,278.3" fill="rgb(122,122,255)"/>
<polygon points="284.9,272.3 290.9,272.3 290.9,278.3 284.9,278.3" fill="rgb(146,146,255)"/>
<polygon points="290.9,272.3 296.9,272.3 296.9,278.3 290.9,278.3" fill="rgb(255,198,198)"/>
<polygon points="296.9,272.3 302.9,272.3 302.9,278.3 296.9,278.3" fill="rgb(215,215,255)"/>
<polygon points="302.9,272.3 308.9,272.3 308.9,278.3 302.9,278.3" fill="rgb(222,222,255)"/>
<polygon points="110.9,278.3 118.9,278.3 118.9,284.3 110.9,284.3" fill="rgb(200,226,224)"/><text xml:space="preserve" x="114.9" y="284.133" font-family="Calibri" font-size="7.5" fill="rgb(0,0,0)" text-anchor="middle">5</text>
<polygon points="118.9,278.3 126.9,278.3 126.9,284.3 118.9,284.3" fill="rgb(200,226,224)"/><text xml:space="preserve" x="122.9" y="284.133" font-family="Calibri" font-size="7.5" fill="rgb(0,0,0)" text-anchor="middle">5</text>
<polygon points="126.9,278.3 134.9,278.3 134.9,284.3 126.9,284.3" fill="rgb(228,207,162)"/><text xml:space="preserve" x="130.9" y="284.133" font-family="Calibri" font-size="7.5" fill="rgb(0,0,0)" text-anchor="middle">11</text>
<polygon points="144.9,278.3 150.9,278.3 150.9,284.3 144.9,284.3" fill="rgb(236,236,255)"/>
<polygon points="150.9,278.3 156.9,278.3 156.9,284.3 150.9,284.3" fill="rgb(226,226,255)"/>
<polygon points="156.9,278.3 162.9,278.3 162.9,284.3 156.9,284.3" fill="rgb(254,196,196)"/>
<polygon points="162.9,278.3 168.9,278.3 168.9,284.3 162.9,284.3" fill="rgb(255,164,164)"/>
<polygon points="168.9,278.3 174.9,278.3 174.9,284.3 168.9,284.3" fill="rgb(212,212,255)"/>
<polygon points="174.9,278.3 180.9,278.3 180.9,284.3 174.9,284.3" fill="rgb(255,224,224)"/>
<polygon points="180.9,278.3 186.9,278.3 186.9,284.3 180.9,284.3" fill="rgb(255,103,103)"/>
<polygon points="186.9,278.3 192.9,278.3 192.9,284.3 186.9,284.3" fill="rgb(255,177,177)"/>
<polygon points="202.9,278.3 208.9,278.3 208.9,284.3 202.9,284.3" fill="rgb(223,223,255)"/>
<polygon points="208.9,278.3 214.9,278.3 214.9,284.3 208.9,284.3" fill="rgb(219,219,255)"/>
<polygon points="214.9,278.3 220.9,278.3 220.9,284.3 214.9,284.3" fill="rgb(255,210,210)"/>
<polygon points="220.9,278.3 226.9,278.3 226.9,284.3 220.9,284.3" fill="rgb(255,240,240)"/>
<polygon points="226.9,278.3 232.9,278.3 232.9,284.3 226.9,284.3" fill="rgb(212,212,255)"/>
<polygon points="232.9,278.3 238.9,278.3 238.9,284.3 232.9,284.3" fill="rgb(255,244,244)"/>
<polygon points="238.9,278.3 244.9,278.3 244.9,284.3 238.9,284.3" fill="rgb(255,240,240)"/>
<polygon points="244.9,278.3 250.9,278.3 250.9,284.3 244.9,284.3" fill="rgb(254,194,194)"/>
<polygon points="260.9,278.3 266.9,278.3 266.9,284.3 260.9,284.3" fill="rgb(229,229,255)"/>
<polygon points="266.9,278.3 272.9,278.3 272.9,284.3 266.9,284.3" fill="rgb(203,203,255)"/>
<polygon points="272.9,278.3 278.9,278.3 278.9,284.3 272.9,284.3" fill="rgb(255,221,221)"/>
<polygon points="278.9,278.3 284.9,278.3 284.9,284.3 278.9,284.3" fill="rgb(254,233,233)"/>
<polygon points="284.9,278.3 290.9,278.3 290.9,284.3 284.9,284.3" fill="rgb(185,185,255)"/>
<polygon points="290.9,278.3 296.9,278.3 296.9,284.3 290.9,284.3" fill="rgb(255,235,235)"/>
<polygon points="296.9,278.3 302.9,278.3 302.9,284.3 296.9,284.3" fill="rgb(255,206,206)"/>
<polygon points="302.9,278.3 308.9,278.3 308.9,284.3 302.9,284.3" fill="rgb(255,200,200)"/>
<polygon points="110.9,284.3 118.9,284.3 118.9,290.3 110.9,290.3" fill="rgb(200,226,224)"/><text xml:space="preserve" x="114.9" y="290.133" font-family="Calibri" font-size="7.5" fill="rgb(0,0,0)" text-anchor="middle">5</text>
<polygon points="118.9,284.3 126.9,284.3 126.9,290.3 118.9,290.3" fill="rgb(200,226,224)"/><text xml:space="preserve" x="122.9" y="290.133" font-family="Calibri" font-size="7.5" fill="rgb(0,0,0)" text-anchor="middle">5</text>
<polygon points="126.9,284.3 134.9,284.3 134.9,290.3 126.9,290.3" fill="rgb(228,207,162)"/><text xml:space="preserve" x="130.9" y="290.133" font-family="Calibri" font-size="7.5" fill="rgb(0,0,0)" text-anchor="middle">11</text>
<polygon points="144.9,284.3 150.9,284.3 150.9,290.3 144.9,290.3" fill="rgb(214,214,255)"/>
<polygon points="150.9,284.3 156.9,284.3 156.9,290.3 150.9,290.3" fill="rgb(245,245,255)"/>
<polygon points="156.9,284.3 162.9,284.3 162.9,290.3 156.9,290.3" fill="rgb(255,233,233)"/>
<polygon points="162.9,284.3 168.9,284.3 168.9,290.3 162.9,290.3" fill="rgb(255,203,203)"/>
<polygon points="168.9,284.3 174.9,284.3 174.9,290.3 168.9,290.3" fill="rgb(207,207,255)"/>
<polygon points="174.9,284.3 180.9,284.3 180.9,290.3 174.9,290.3" fill="rgb(255,199,199)"/>
<polygon points="180.9,284.3 186.9,284.3 186.9,290.3 180.9,290.3" fill="rgb(205,205,255)"/>
<polygon points="186.9,284.3 192.9,284.3 192.9,290.3 186.9,290.3" fill="rgb(255,220,220)"/>
<polygon points="202.9,284.3 208.9,284.3 208.9,290.3 202.9,290.3" fill="rgb(241,241,255)"/>
<polygon points="208.9,284.3 214.9,284.3 214.9,290.3 208.9,290.3" fill="rgb(217,217,255)"/>
<polygon points="214.9,284.3 220.9,284.3 220.9,290.3 214.9,290.3" fill="rgb(255,229,229)"/>
<polygon points="220.9,284.3 226.9,284.3 226.9,290.3 220.9,290.3" fill="rgb(250,250,255)"/>
<polygon points="226.9,284.3 232.9,284.3 232.9,290.3 226.9,290.3" fill="rgb(187,187,255)"/>
<polygon points="232.9,284.3 238.9,284.3 238.9,290.3 232.9,290.3" fill="rgb(194,194,255)"/>
<polygon points="238.9,284.3 244.9,284.3 244.9,290.3 238.9,290.3" fill="rgb(255,234,234)"/>
<polygon points="244.9,284.3 250.9,284.3 250.9,290.3 244.9,290.3" fill="rgb(255,227,227)"/>
<polygon points="260.9,284.3 266.9,284.3 266.9,290.3 260.9,290.3" fill="rgb(214,214,255)"/>
<polygon points="266.9,284.3 272.9,284.3 272.9,290.3 266.9,290.3" fill="rgb(198,198,255)"/>
<polygon points="272.9,284.3 278.9,284.3 278.9,290.3 272.9,290.3" fill="rgb(237,237,255)"/>
<polygon points="278.9,284.3 284.9,284.3 284.9,290.3 278.9,290.3" fill="rgb(234,234,255)"/>
<polygon points="284.9,284.3 290.9,284.3 290.9,290.3 284.9,290.3" fill="rgb(186,186,255)"/>
<polygon points="290.9,284.3 296.9,284.3 296.9,290.3 290.9,290.3" fill="rgb(255,233,233)"/>
<polygon points="296.9,284.3 302.9,284.3 302.9,290.3 296.9,290.3" fill="rgb(241,241,255)"/>
<polygon points="302.9,284.3 308.9,284.3 308.9,290.3 302.9,290.3" fill="rgb(255,157,157)"/>
<polygon points="110.9,212.3 134.9,212.3 134.9,290.3 110.9,290.3" fill="none" stroke="black" stroke-width="1"/>
<polygon points="144.9,212.3 192.9,212.3 192.9,290.3 144.9,290.3" fill="none" stroke="black" stroke-width="1"/>
<polygon points="202.9,212.3 250.9,212.3 250.9,290.3 202.9,290.3" fill="none" stroke="black" stroke-width="1"/>
<polygon points="260.9,212.3 308.9,212.3 308.9,290.3 260.9,290.3" fill="none" stroke="black" stroke-width="1"/>
<text xml:space="preserve" x="175.45" y="322.633" font-family="Calibri" font-size="6" text-anchor="middle">moduleID</text>
<polygon points="65.45,330.3 85.45,330.3 85.45,350.3 65.45,350.3" fill="rgb(250,250,250)"/><polygon points="65.45,330.3 85.45,330.3 85.45,350.3 65.45,350.3" fill="none" stroke="black" stroke-width="1"/><text xml:space="preserve" x="75.45" y="343.133" font-family="Calibri" font-size="7.5" fill="rgb(0,0,0)" text-anchor="middle">-2.0</text>
<polygon points="85.45,330.3 105.45,330.3 105.45,350.3 85.45,350.3" fill="rgb(156,210,205)"/><polygon points="85.45,330.3 105.45,330.3 105.45,350.3 85.45,350.3" fill="none" stroke="black" stroke-width="1"/><text xml:space="preserve" x="95.45" y="343.133" font-family="Calibri" font-size="7.5" fill="rgb(0,0,0)" text-anchor="middle">-0.4</text>
<polygon points="105.45,330.3 125.45,330.3 125.45,350.3 105.45,350.3" fill="rgb(116,191,184)"/><polygon points="105.45,330.3 125.45,330.3 125.45,350.3 105.45,350.3" fill="none" stroke="black" stroke-width="1"/><text xml:space="preserve" x="115.45" y="343.133" font-family="Calibri" font-size="7.5" fill="rgb(0,0,0)" text-anchor="middle">1.2</text>
<polygon points="125.45,330.3 145.45,330.3 145.45,350.3 125.45,350.3" fill="rgb(152,206,201)"/><polygon points="125.45,330.3 145.45,330.3 145.45,350.3 125.45,350.3" fill="none" stroke="black" stroke-width="1"/><text xml:space="preserve" x="135.45" y="343.133" font-family="Calibri" font-size="7.5" fill="rgb(0,0,0)" text-anchor="middle">2.8</text>
<polygon points="145.45,330.3 165.45,330.3 165.45,350.3 145.45,350.3" fill="rgb(187,220,217)"/><polygon points="145.45,330.3 165.45,330.3 165.45,350.3 145.45,350.3" fill="none" stroke="black" stroke-width="1"/><text xml:space="preserve" x="155.45" y="343.133" font-family="Calibri" font-size="7.5" fill="rgb(0,0,0)" text-anchor="middle">4.4</text>
<polygon points="165.45,330.3 185.45,330.3 185.45,350.3 165.45,350.3" fill="rgb(222,235,234)"/><polygon points="165.45,330.3 185.45,330.3 185.45,350.3 165.45,350.3" fill="none" stroke="black" stroke-width="1"/><text xml:space="preserve" x="175.45" y="343.133" font-family="Calibri" font-size="7.5" fill="rgb(0,0,0)" text-anchor="middle">6.0</text>
<polygon points="185.45,330.3 205.45,330.3 205.45,350.3 185.45,350.3" fill="rgb(242,239,232)"/><polygon points="185.45,330.3 205.45,330.3 205.45,350.3 185.45,350.3" fill="none" stroke="black" stroke-width="1"/><text xml:space="preserve" x="195.45" y="343.133" font-family="Calibri" font-size="7.5" fill="rgb(0,0,0)" text-anchor="middle">7.6</text>
<polygon points="205.45,330.3 225.45,330.3 225.45,350.3 205.45,350.3" fill="rgb(235,224,199)"/><polygon points="205.45,330.3 225.45,330.3 225.45,350.3 205.45,350.3" fill="none" stroke="black" stroke-width="1"/><text xml:space="preserve" x="215.45" y="343.133" font-family="Calibri" font-size="7.5" fill="rgb(0,0,0)" text-anchor="middle">9.2</text>
<polygon points="225.45,330.3 245.45,330.3 245.45,350.3 225.45,350.3" fill="rgb(229,209,166)"/><polygon points="225.45,330.3 245.45,330.3 245.45,350.3 225.45,350.3" fill="none" stroke="black" stroke-width="1"/><text xml:space="preserve" x="235.45" y="343.133" font-family="Calibri" font-size="7.5" fill="rgb(0,0,0)" text-anchor="middle">10.8</text>
<polygon points="245.45,330.3 265.45,330.3 265.45,350.3 245.45,350.3" fill="rgb(222,194,133)"/><polygon points="245.45,330.3 265.45,330.3 265.45,350.3 245.45,350.3" fill="none" stroke="black" stroke-width="1"/><text xml:space="preserve" x="255.45" y="343.133" font-family="Calibri" font-size="7.5" fill="rgb(0,0,0)" text-anchor="middle">12.4</text>
<polygon points="265.45,330.3 285.45,330.3 285.45,350.3 265.45,350.3" fill="rgb(216,179,101)"/><polygon points="265.45,330.3 285.45,330.3 285.45,350.3 265.45,350.3" fill="none" stroke="black" stroke-width="1"/><text xml:space="preserve" x="275.45" y="343.133" font-family="Calibri" font-size="7.5" fill="rgb(0,0,0)" text-anchor="middle">14.0</text>
<text xml:space="preserve" x="175.45" y="382.633" font-family="Calibri" font-size="6" text-anchor="middle">marklevel</text>
<polygon points="65.45,390.3 85.45,390.3 85.45,410.3 65.45,410.3" fill="rgb(0,0,255)"/><polygon points="65.45,390.3 85.45,390.3 85.45,410.3 65.45,410.3" fill="none" stroke="black" stroke-width="1"/><text xml:space="preserve" x="75.45" y="403.133" font-family="Calibri" font-size="7.5" fill="rgb(255,255,255)" text-anchor="middle">-2.0</text>
<polygon points="85.45,390.3 105.45,390.3 105.45,410.3 85.45,410.3" fill="rgb(50,50,255)"/><polygon points="85.45,390.3 105.45,390.3 105.45,410.3 85.45,410.3" fill="none" stroke="black" stroke-width="1"/><text xml:space="preserve" x="95.45" y="403.133" font-family="Calibri" font-size="7.5" fill="rgb(255,255,255)" text-anchor="middle">-1.6</text>
<polygon points="105.45,390.3 125.45,390.3 125.45,410.3 105.45,410.3" fill="rgb(102,102,255)"/><polygon points="105.45,390.3 125.45,390.3 125.45,410.3 105.45,410.3" fill="none" stroke="black" stroke-width="1"/><text xml:space="preserve" x="115.45" y="403.133" font-family="Calibri" font-size="7.5" fill="rgb(255,255,255)" text-anchor="middle">-1.2</text>
<polygon points="125.45,390.3 145.45,390.3 145.45,410.3 125.45,410.3" fill="rgb(153,153,255)"/><polygon points="125.45,390.3 145.45,390.3 145.45,410.3 125.45,410.3" fill="none" stroke="black" stroke-width="1"/><text xml:space="preserve" x="135.45" y="403.133" font-family="Calibri" font-size="7.5" fill="rgb(0,0,0)" text-anchor="middle">-0.8</text>
<polygon points="145.45,390.3 165.45,390.3 165.45,410.3 145.45,410.3" fill="rgb(204,204,255)"/><polygon points="145.45,390.3 165.45,390.3 165.45,410.3 145.45,410.3" fill="none" stroke="black" stroke-width="1"/><text xml:space="preserve" x="155.45" y="403.133" font-family="Calibri" font-size="7.5" fill="rgb(0,0,0)" text-anchor="middle">-0.4</text>
<polygon points="165.45,390.3 185.45,390.3 185.45,410.3 165.45,410.3" fill="rgb(255,255,255)"/><polygon points="165.45,390.3 185.45,390.3 185.45,410.3 165.45,410.3" fill="none" stroke="black" stroke-width="1"/><text xml:space="preserve" x="175.45" y="403.133" font-family="Calibri" font-size="7.5" fill="rgb(0,0,0)" text-anchor="middle">0.0</text>
<polygon points="185.45,390.3 205.45,390.3 205.45,410.3 185.45,410.3" fill="rgb(255,204,204)"/><polygon points="185.45,390.3 205.45,390.3 205.45,410.3 185.45,410.3" fill="none" stroke="black" stroke-width="1"/><text xml:space="preserve" x="195.45" y="403.133" font-family="Calibri" font-size="7.5" fill="rgb(0,0,0)" text-anchor="middle">0.4</text>
<polygon points="205.45,390.3 225.45,390.3 225.45,410.3 205.45,410.3" fill="rgb(255,153,153)"/><polygon points="205.45,390.3 225.45,390.3 225.45,410.3 205.45,410.3" fill="none" stroke="black" stroke-width="1"/><text xml:space="preserve" x="215.45" y="403.133" font-family="Calibri" font-size="7.5" fill="rgb(0,0,0)" text-anchor="middle">0.8</text>
<polygon points="225.45,390.3 245.45,390.3 245.45,410.3 225.45,410.3" fill="rgb(255,102,102)"/><polygon points="225.45,390.3 245.45,390.3 245.45,410.3 225.45,410.3" fill="none" stroke="black" stroke-width="1"/><text xml:space="preserve" x="235.45" y="403.133" font-family="Calibri" font-size="7.5" fill="rgb(0,0,0)" text-anchor="middle">1.2</text>
<polygon points="245.45,390.3 265.45,390.3 265.45,410.3 245.45,410.3" fill="rgb(255,50,50)"/><polygon points="245.45,390.3 265.45,390.3 265.45,410.3 245.45,410.3" fill="none" stroke="black" stroke-width="1"/><text xml:space="preserve" x="255.45" y="403.133" font-family="Calibri" font-size="7.5" fill="rgb(255,255,255)" text-anchor="middle">1.6</text>
<polygon points="265.45,390.3 285.45,390.3 285.45,410.3 265.45,410.3" fill="rgb(255,0,0)"/><polygon points="265.45,390.3 285.45,390.3 285.45,410.3 265.45,410.3" fill="none" stroke="black" stroke-width="1"/><text xml:space="preserve" x="275.45" y="403.133" font-family="Calibri" font-size="7.5" fill="rgb(255,255,255)" text-anchor="middle">2.0</text>
</svg>
