<?xml version="1.0" standalone="no"?><!DOCTYPE svg PUBLIC "-//W3C//DTD SVG 1.1//EN" "http://www.w3.org/Graphics/SVG/1.1/DTD/svg11.dtd">
<svg width="396.5" height="490.3" version="1.1" xmlns="http://www.w3.org/2000/svg">
<text xml:space="preserve" x="152.5" y="217.633" font-family="Calibri" font-size="6" text-anchor="end">AL022779</text>
<text xml:space="preserve" x="152.5" y="223.633" font-family="Calibri" font-size="6" text-anchor="end">Melk</text>
<text xml:space="preserve" x="152.5" y="229.633" font-family="Calibri" font-size="6" text-anchor="end">Mlf1ip</text>
<text xml:space="preserve" x="152.5" y="235.633" font-family="Calibri" font-size="6" text-anchor="end">Mterfd3</text>
<text xml:space="preserve" x="152.5" y="241.633" font-family="Calibri" font-size="6" text-anchor="end">Chtf18</text>
<text xml:space="preserve" x="152.5" y="247.633" font-family="Calibri" font-size="6" text-anchor="end">Rpa2</text>
<text xml:space="preserve" x="152.5" y="253.633" font-family="Calibri" font-size="6" text-anchor="end">Pqbp1</text>
<text xml:space="preserve" x="152.5" y="259.633" font-family="Calibri" font-size="6" text-anchor="end">AY074887</text>
<text xml:space="preserve" x="152.5" y="265.633" font-family="Calibri" font-size="6" text-anchor="end">Gcdh</text>
<text xml:space="preserve" x="152.5" y="271.633" font-family="Calibri" font-size="6" text-anchor="end">Kif23</text>
<text xml:space="preserve" x="152.5" y="277.633" font-family="Calibri" font-size="6" text-anchor="end">Wdr51a</text>
<text xml:space="preserve" x="152.5" y="283.633" font-family="Calibri" font-size="6" text-anchor="end">Asf1b</text>
<text xml:space="preserve" x="152.5" y="289.633" font-family="Calibri" font-size="6" text-anchor="end">Timm17b</text>
<text xml:space="preserve" x="152.5" y="295.633" font-family="Calibri" font-size="6" text-anchor="end">Trip13</text>
<text xml:space="preserve" x="152.5" y="301.633" font-family="Calibri" font-size="6" text-anchor="end">E130016E03Rik</text>
<text xml:space="preserve" x="152.5" y="307.633" font-family="Calibri" font-size="6" text-anchor="end">Slc25a16</text>
<text xml:space="preserve" x="152.5" y="313.633" font-family="Calibri" font-size="6" text-anchor="end">Dhrs7b</text>
<text xml:space="preserve" x="152.5" y="319.633" font-family="Calibri" font-size="6" text-anchor="end">Slc35a2</text>
<text xml:space="preserve" x="152.5" y="325.633" font-family="Calibri" font-size="6" text-anchor="end">Dhfr</text>
<text xml:space="preserve" x="152.5" y="331.633" font-family="Calibri" font-size="6" text-anchor="end">Rpusd1</text>
<text xml:space="preserve" x="152.5" y="337.633" font-family="Calibri" font-size="6" text-anchor="end">Dbt</text>
<text xml:space="preserve" x="152.5" y="343.633" font-family="Calibri" font-size="6" text-anchor="end">Pms1</text>
<text xml:space="preserve" x="152.5" y="349.633" font-family="Calibri" font-size="6" text-anchor="end">Nfatc2ip</text>
<text xml:space="preserve" x="162.833" y="208.3" font-family="Calibri" font-size="6" transform="rotate(270 162.833 208.3)">ips</text>
<text xml:space="preserve" x="170.833" y="208.3" font-family="Calibri" font-size="6" transform="rotate(270 170.833 208.3)">pips</text>
<text xml:space="preserve" x="178.833" y="208.3" font-family="Calibri" font-size="6" transform="rotate(270 178.833 208.3)">mef</text>
<text xml:space="preserve" x="195.833" y="208.3" font-family="Calibri" font-size="6" transform="rotate(270 195.833 208.3)">ips_H3K4me3iPS</text>
<text xml:space="preserve" x="201.833" y="208.3" font-family="Calibri" font-size="6" transform="rotate(270 201.833 208.3)">ips_H3K9aciPS</text>
<text xml:space="preserve" x="207.833" y="208.3" font-family="Calibri" font-size="6" transform="rotate(270 207.833 208.3)">ips_H3K14aciPS</text>
<text xml:space="preserve" x="213.833" y="208.3" font-family="Calibri" font-size="6" transform="rotate(270 213.833 208.3)">ips_H3K18aciPS</text>
<text xml:space="preserve" x="219.833" y="208.3" font-family="Calibri" font-size="6" transform="rotate(270 219.833 208.3)">ips_H3K79me2iPS</text>
<text xml:space="preserve" x="225.833" y="208.3" font-family="Calibri" font-size="6" transform="rotate(270 225.833 208.3)">ips_H3K9me2iPS</text>
<text xml:space="preserve" x="231.833" y="208.3" font-family="Calibri" font-size="6" transform="rotate(270 231.833 208.3)">ips_H3K9me3iPS</text>
<text xml:space="preserve" x="237.833" y="208.3" font-family="Calibri" font-size="6" transform="rotate(270 237.833 208.3)">ips_H3K27me3iPS</text>
<text xml:space="preserve" x="253.833" y="208.3" font-family="Calibri" font-size="6" transform="rotate(270 253.833 208.3)">pips_H3K4me3pips</text>
<text xml:space="preserve" x="259.833" y="208.3" font-family="Calibri" font-size="6" transform="rotate(270 259.833 208.3)">pips_H3K9acpips</text>
<text xml:space="preserve" x="265.833" y="208.3" font-family="Calibri" font-size="6" transform="rotate(270 265.833 208.3)">pips_H3K14acpips</text>
<text xml:space="preserve" x="271.833" y="208.3" font-family="Calibri" font-size="6" transform="rotate(270 271.833 208.3)">pips_H3K18acpips</text>
<text xml:space="preserve" x="277.833" y="208.3" font-family="Calibri" font-size="6" transform="rotate(270 277.833 208.3)">pips_H3K79me2pips</text>
<text xml:space="preserve" x="283.833" y="208.3" font-family="Calibri" font-size="6" transform="rotate(270 283.833 208.3)">pips_H3K9me2pips</text>
<text xml:space="preserve" x="289.833" y="208.3" font-family="Calibri" font-size="6" transform="rotate(270 289.833 208.3)">pips_H3K9me3pips</text>
<text xml:space="preserve" x="295.833" y="208.3" font-family="Calibri" font-size="6" transform="rotate(270 295.833 208.3)">pips_H3K27me3pips</text>
<text xml:space="preserve" x="311.833" y="208.3" font-family="Calibri" font-size="6" transform="rotate(270 311.833 208.3)">mef_H3K4me3mef</text>
<text xml:space="preserve" x="317.833" y="208.3" font-family="Calibri" font-size="6" transform="rotate(270 317.833 208.3)">mef_H3K9acmef</text>
<text xml:space="preserve" x="323.833" y="208.3" font-family="Calibri" font-size="6" transform="rotate(270 323.833 208.3)">mef_H3K14acmef</text>
<text xml:space="preserve" x="329.833" y="208.3" font-family="Calibri" font-size="6" transform="rotate(270 329.833 208.3)">mef_H3K18acmef</text>
<text xml:space="preserve" x="335.833" y="208.3" font-family="Calibri" font-size="6" transform="rotate(270 335.833 208.3)">mef_H3K79me2mef</text>
<text xml:space="preserve" x="341.833" y="208.3" font-family="Calibri" font-size="6" transform="rotate(270 341.833 208.3)">mef_H3K9me2mef</text>
<text xml:space="preserve" x="347.833" y="208.3" font-family="Calibri" font-size="6" transform="rotate(270 347.833 208.3)">mef_H3K9me3mef</text>
<text xml:space="preserve" x="353.833" y="208.3" font-family="Calibri" font-size="6" transform="rotate(270 353.833 208.3)">mef_H3K27me3mef</text>
<polygon points="156.5,212.3 164.5,212.3 164.5,218.3 156.5,218.3" fill="rgb(112,189,182)"/><text xml:space="preserve" x="160.5" y="218.133" font-family="Calibri" font-size="7.5" fill="rgb(0,0,0)" text-anchor="middle">1</text>
<polygon points="164.5,212.3 172.5,212.3 172.5,218.3 164.5,218.3" fill="rgb(240,235,224)"/><text xml:space="preserve" x="168.5" y="218.133" font-family="Calibri" font-size="7.5" fill="rgb(0,0,0)" text-anchor="middle">8</text>
<polygon points="172.5,212.3 180.5,212.3 180.5,218.3 172.5,218.3" fill="rgb(240,235,224)"/><text xml:space="preserve" x="176.5" y="218.133" font-family="Calibri" font-size="7.5" fill="rgb(0,0,0)" text-anchor="middle">8</text>
<polygon points="190.5,212.3 196.5,212.3 196.5,218.3 190.5,218.3" fill="rgb(255,208,208)"/>
<polygon points="196.5,212.3 202.5,212.3 202.5,218.3 196.5,218.3" fill="rgb(255,205,205)"/>
<polygon points="202.5,212.3 208.5,212.3 208.5,218.3 202.5,218.3" fill="rgb(228,228,255)"/>
<polygon points="208.5,212.3 214.5,212.3 214.5,218.3 208.5,218.3" fill="rgb(201,201,255)"/>
<polygon points="214.5,212.3 220.5,212.3 220.5,218.3 214.5,218.3" fill="rgb(255,211,211)"/>
<polygon points="220.5,212.3 226.5,212.3 226.5,218.3 220.5,218.3" fill="rgb(141,141,255)"/>
<polygon points="226.5,212.3 232.5,212.3 232.5,218.3 226.5,218.3" fill="rgb(127,127,255)"/>
<polygon points="232.5,212.3 238.5,212.3 238.5,218.3 232.5,218.3" fill="rgb(148,148,255)"/>
<polygon points="248.5,212.3 254.5,212.3 254.5,218.3 248.5,218.3" fill="rgb(222,222,255)"/>
<polygon points="254.5,212.3 260.5,212.3 260.5,218.3 254.5,218.3" fill="rgb(254,245,245)"/>
<polygon points="260.5,212.3 266.5,212.3 266.5,218.3 260.5,218.3" fill="rgb(208,208,255)"/>
<polygon points="266.5,212.3 272.5,212.3 272.5,218.3 266.5,218.3" fill="rgb(209,209,255)"/>
<polygon points="272.5,212.3 278.5,212.3 278.5,218.3 272.5,218.3" fill="rgb(255,231,231)"/>
<polygon points="278.5,212.3 284.5,212.3 284.5,218.3 278.5,218.3" fill="rgb(201,201,255)"/>
<polygon points="284.5,212.3 290.5,212.3 290.5,218.3 284.5,218.3" fill="rgb(152,152,255)"/>
<polygon points="290.5,212.3 296.5,212.3 296.5,218.3 290.5,218.3" fill="rgb(142,142,255)"/>
<polygon points="306.5,212.3 312.5,212.3 312.5,218.3 306.5,218.3" fill="rgb(254,185,185)"/>
<polygon points="312.5,212.3 318.5,212.3 318.5,218.3 312.5,218.3" fill="rgb(255,223,223)"/>
<polygon points="318.5,212.3 324.5,212.3 324.5,218.3 318.5,218.3" fill="rgb(185,185,255)"/>
<polygon points="324.5,212.3 330.5,212.3 330.5,218.3 324.5,218.3" fill="rgb(193,193,255)"/>
<polygon points="330.5,212.3 336.5,212.3 336.5,218.3 330.5,218.3" fill="rgb(244,244,255)"/>
<polygon points="336.5,212.3 342.5,212.3 342.5,218.3 336.5,218.3" fill="rgb(187,187,255)"/>
<polygon points="342.5,212.3 348.5,212.3 348.5,218.3 342.5,218.3" fill="rgb(134,134,255)"/>
<polygon points="348.5,212.3 354.5,212.3 354.5,218.3 348.5,218.3" fill="rgb(115,115,255)"/>
<polygon points="156.5,218.3 164.5,218.3 164.5,224.3 156.5,224.3" fill="rgb(112,189,182)"/><text xml:space="preserve" x="160.5" y="224.133" font-family="Calibri" font-size="7.5" fill="rgb(0,0,0)" text-anchor="middle">1</text>
<polygon points="164.5,218.3 172.5,218.3 172.5,224.3 164.5,224.3" fill="rgb(240,235,224)"/><text xml:space="preserve" x="168.5" y="224.133" font-family="Calibri" font-size="7.5" fill="rgb(0,0,0)" text-anchor="middle">8</text>
<polygon points="172.5,218.3 180.5,218.3 180.5,224.3 172.5,224.3" fill="rgb(240,235,224)"/><text xml:space="preserve" x="176.5" y="224.133" font-family="Calibri" font-size="7.5" fill="rgb(0,0,0)" text-anchor="middle">8</text>
<polygon points="190.5,218.3 196.5,218.3 196.5,224.3 190.5,224.3" fill="rgb(254,194,194)"/>
<polygon points="196.5,218.3 202.5,218.3 202.5,224.3 196.5,224.3" fill="rgb(255,184,184)"/>
<polygon points="202.5,218.3 208.5,218.3 208.5,224.3 202.5,224.3" fill="rgb(244,244,255)"/>
<polygon points="208.5,218.3 214.5,218.3 214.5,224.3 208.5,224.3" fill="rgb(187,187,255)"/>
<polygon points="214.5,218.3 220.5,218.3 220.5,224.3 214.5,224.3" fill="rgb(255,189,189)"/>
<polygon points="220.5,218.3 226.5,218.3 226.5,224.3 220.5,224.3" fill="rgb(173,173,255)"/>
<polygon points="226.5,218.3 232.5,218.3 232.5,224.3 226.5,224.3" fill="rgb(162,162,255)"/>
<polygon points="232.5,218.3 238.5,218.3 238.5,224.3 232.5,224.3" fill="rgb(201,201,255)"/>
<polygon points="248.5,218.3 254.5,218.3 254.5,224.3 248.5,224.3" fill="rgb(255,248,248)"/>
<polygon points="254.5,218.3 260.5,218.3 260.5,224.3 254.5,224.3" fill="rgb(246,246,255)"/>
<polygon points="260.5,218.3 266.5,218.3 266.5,224.3 260.5,224.3" fill="rgb(191,191,255)"/>
<polygon points="266.5,218.3 272.5,218.3 272.5,224.3 266.5,224.3" fill="rgb(196,196,255)"/>
<polygon points="272.5,218.3 278.5,218.3 278.5,224.3 272.5,224.3" fill="rgb(255,230,230)"/>
<polygon points="278.5,218.3 284.5,218.3 284.5,224.3 278.5,224.3" fill="rgb(189,189,255)"/>
<polygon points="284.5,218.3 290.5,218.3 290.5,224.3 284.5,224.3" fill="rgb(217,217,255)"/>
<polygon points="290.5,218.3 296.5,218.3 296.5,224.3 290.5,224.3" fill="rgb(254,254,254)"/>
<polygon points="306.5,218.3 312.5,218.3 312.5,224.3 306.5,224.3" fill="rgb(255,190,190)"/>
<polygon points="312.5,218.3 318.5,218.3 318.5,224.3 312.5,224.3" fill="rgb(255,240,240)"/>
<polygon points="318.5,218.3 324.5,218.3 324.5,224.3 318.5,224.3" fill="rgb(189,189,255)"/>
<polygon points="324.5,218.3 330.5,218.3 330.5,224.3 324.5,224.3" fill="rgb(168,168,255)"/>
<polygon points="330.5,218.3 336.5,218.3 336.5,224.3 330.5,224.3" fill="rgb(255,222,222)"/>
<polygon points="336.5,218.3 342.5,218.3 342.5,224.3 336.5,224.3" fill="rgb(223,223,255)"/>
<polygon points="342.5,218.3 348.5,218.3 348.5,224.3 342.5,224.3" fill="rgb(224,224,255)"/>
<polygon points="348.5,218.3 354.5,218.3 354.5,224.3 348.5,224.3" fill="rgb(255,244,244)"/>
<polygon points="156.5,224.3 164.5,224.3 164.5,230.3 156.5,230.3" fill="rgb(112,189,182)"/><text xml:space="preserve" x="160.5" y="230.133" font-family="Calibri" font-size="7.5" fill="rgb(0,0,0)" text-anchor="middle">1</text>
<polygon points="164.5,224.3 172.5,224.3 172.5,230.3 164.5,230.3" fill="rgb(240,235,224)"/><text xml:space="preserve" x="168.5" y="230.133" font-family="Calibri" font-size="7.5" fill="rgb(0,0,0)" text-anchor="middle">8</text>
<polygon points="172.5,224.3 180.5,224.3 180.5,230.3 172.5,230.3" fill="rgb(240,235,224)"/><text xml:space="preserve" x="176.5" y="230.133" font-family="Calibri" font-size="7.5" fill="rgb(0,0,0)" text-anchor="middle">8</text>
<polygon points="190.5,224.3 196.5,224.3 196.5,230.3 190.5,230.3" fill="rgb(255,178,178)"/>
<polygon points="196.5,224.3 202.5,224.3 202.5,230.3 196.5,230.3" fill="rgb(255,179,179)"/>
<polygon points="202.5,224.3 208.5,224.3 208.5,230.3 202.5,230.3" fill="rgb(255,243,243)"/>
<polygon points="208.5,224.3 214.5,224.3 214.5,230.3 208.5,230.3" fill="rgb(246,246,255)"/>
<polygon points="214.5,224.3 220.5,224.3 220.5,230.3 214.5,230.3" fill="rgb(255,214,214)"/>
<polygon points="220.5,224.3 226.5,224.3 226.5,230.3 220.5,230.3" fill="rgb(219,219,255)"/>
<polygon points="226.5,224.3 232.5,224.3 232.5,230.3 226.5,230.3" fill="rgb(193,193,255)"/>
<polygon points="232.5,224.3 238.5,224.3 238.5,230.3 232.5,230.3" fill="rgb(184,184,255)"/>
<polygon points="248.5,224.3 254.5,224.3 254.5,230.3 248.5,230.3" fill="rgb(242,242,255)"/>
<polygon points="254.5,224.3 260.5,224.3 260.5,230.3 254.5,230.3" fill="rgb(246,246,255)"/>
<polygon points="260.5,224.3 266.5,224.3 266.5,230.3 260.5,230.3" fill="rgb(211,211,255)"/>
<polygon points="266.5,224.3 272.5,224.3 272.5,230.3 266.5,230.3" fill="rgb(199,199,255)"/>
<polygon points="272.5,224.3 278.5,224.3 278.5,230.3 272.5,230.3" fill="rgb(227,227,255)"/>
<polygon points="278.5,224.3 284.5,224.3 284.5,230.3 278.5,230.3" fill="rgb(187,187,255)"/>
<polygon points="284.5,224.3 290.5,224.3 290.5,230.3 284.5,230.3" fill="rgb(167,167,255)"/>
<polygon points="290.5,224.3 296.5,224.3 296.5,230.3 290.5,230.3" fill="rgb(145,145,255)"/>
<polygon points="306.5,224.3 312.5,224.3 312.5,230.3 306.5,230.3" fill="rgb(255,199,199)"/>
<polygon points="312.5,224.3 318.5,224.3 318.5,230.3 312.5,230.3" fill="rgb(255,226,226)"/>
<polygon points="318.5,224.3 324.5,224.3 324.5,230.3 318.5,230.3" fill="rgb(186,186,255)"/>
<polygon points="324.5,224.3 330.5,224.3 330.5,230.3 324.5,230.3" fill="rgb(241,241,255)"/>
<polygon points="330.5,224.3 336.5,224.3 336.5,230.3 330.5,230.3" fill="rgb(234,234,255)"/>
<polygon points="336.5,224.3 342.5,224.3 342.5,230.3 336.5,230.3" fill="rgb(160,160,255)"/>
<polygon points="342.5,224.3 348.5,224.3 348.5,230.3 342.5,230.3" fill="rgb(212,212,255)"/>
<polygon points="348.5,224.3 354.5,224.3 354.5,230.3 348.5,230.3" fill="rgb(220,220,255)"/>
<polygon points="156.5,230.3 164.5,230.3 164.5,236.3 156.5,236.3" fill="rgb(112,189,182)"/><text xml:space="preserve" x="160.5" y="236.133" font-family="Calibri" font-size="7.5" fill="rgb(0,0,0)" text-anchor="middle">1</text>
<polygon points="164.5,230.3 172.5,230.3 172.5,236.3 164.5,236.3" fill="rgb(240,235,224)"/><text xml:space="preserve" x="168.5" y="236.133" font-family="Calibri" font-size="7.5" fill="rgb(0,0,0)" text-anchor="middle">8</text>
<polygon points="172.5,230.3 180.5,230.3 180.5,236.3 172.5,236.3" fill="rgb(240,235,224)"/><text xml:space="preserve" x="176.5" y="236.133" font-family="Calibri" font-size="7.5" fill="rgb(0,0,0)" text-anchor="middle">8</text>
<polygon points="190.5,230.3 196.5,230.3 196.5,236.3 190.5,236.3" fill="rgb(255,205,205)"/>
<polygon points="196.5,230.3 202.5,230.3 202.5,236.3 196.5,236.3" fill="rgb(255,194,194)"/>
<polygon points="202.5,230.3 208.5,230.3 208.5,236.3 202.5,236.3" fill="rgb(195,195,255)"/>
<polygon points="208.5,230.3 214.5,230.3 214.5,236.3 208.5,236.3" fill="rgb(149,149,255)"/>
<polygon points="214.5,230.3 220.5,230.3 220.5,236.3 214.5,236.3" fill="rgb(255,228,228)"/>
<polygon points="220.5,230.3 226.5,230.3 226.5,236.3 220.5,236.3" fill="rgb(132,132,255)"/>
<polygon points="226.5,230.3 232.5,230.3 232.5,236.3 226.5,236.3" fill="rgb(184,184,255)"/>
<polygon points="232.5,230.3 238.5,230.3 238.5,236.3 232.5,236.3" fill="rgb(133,133,255)"/>
<polygon points="248.5,230.3 254.5,230.3 254.5,236.3 248.5,236.3" fill="rgb(255,237,237)"/>
<polygon points="254.5,230.3 260.5,230.3 260.5,236.3 254.5,236.3" fill="rgb(254,221,221)"/>
<polygon points="260.5,230.3 266.5,230.3 266.5,236.3 260.5,236.3" fill="rgb(188,188,255)"/>
<polygon points="266.5,230.3 272.5,230.3 272.5,236.3 266.5,236.3" fill="rgb(244,244,255)"/>
<polygon points="272.5,230.3 278.5,230.3 278.5,236.3 272.5,236.3" fill="rgb(255,227,227)"/>
<polygon points="278.5,230.3 284.5,230.3 284.5,236.3 278.5,236.3" fill="rgb(242,242,255)"/>
<polygon points="284.5,230.3 290.5,230.3 290.5,236.3 284.5,236.3" fill="rgb(183,183,255)"/>
<polygon points="290.5,230.3 296.5,230.3 296.5,236.3 290.5,236.3" fill="rgb(206,206,255)"/>
<polygon points="306.5,230.3 312.5,230.3 312.5,236.3 306.5,236.3" fill="rgb(255,221,221)"/>
<polygon points="312.5,230.3 318.5,230.3 318.5,236.3 312.5,236.3" fill="rgb(255,254,254)"/>
<polygon points="318.5,230.3 324.5,230.3 324.5,236.3 318.5,236.3" fill="rgb(162,162,255)"/>
<polygon points="324.5,230.3 330.5,230.3 330.5,236.3 324.5,236.3" fill="rgb(163,163,255)"/>
<polygon points="330.5,230.3 336.5,230.3 336.5,236.3 330.5,236.3" fill="rgb(247,247,255)"/>
<polygon points="336.5,230.3 342.5,230.3 342.5,236.3 336.5,236.3" fill="rgb(248,248,255)"/>
<polygon points="342.5,230.3 348.5,230.3 348.5,236.3 342.5,236.3" fill="rgb(218,218,255)"/>
<polygon points="348.5,230.3 354.5,230.3 354.5,236.3 348.5,236.3" fill="rgb(111,111,255)"/>
<polygon points="156.5,236.3 164.5,236.3 164.5,242.3 156.5,242.3" fill="rgb(112,189,182)"/><text xml:space="preserve" x="160.5" y="242.133" font-family="Calibri" font-size="7.5" fill="rgb(0,0,0)" text-anchor="middle">1</text>
<polygon points="164.5,236.3 172.5,236.3 172.5,242.3 164.5,242.3" fill="rgb(240,235,224)"/><text xml:space="preserve" x="168.5" y="242.133" font-family="Calibri" font-size="7.5" fill="rgb(0,0,0)" text-anchor="middle">8</text>
<polygon points="172.5,236.3 180.5,236.3 180.5,242.3 172.5,242.3" fill="rgb(240,235,224)"/><text xml:space="preserve" x="176.5" y="242.133" font-family="Calibri" font-size="7.5" fill="rgb(0,0,0)" text-anchor="middle">8</text>
<polygon points="190.5,236.3 196.5,236.3 196.5,242.3 190.5,242.3" fill="rgb(254,161,161)"/>
<polygon points="196.5,236.3 202.5,236.3 202.5,242.3 196.5,242.3" fill="rgb(255,153,153)"/>
<polygon points="202.5,236.3 208.5,236.3 208.5,242.3 202.5,242.3" fill="rgb(255,225,225)"/>
<polygon points="208.5,236.3 214.5,236.3 214.5,242.3 208.5,242.3" fill="rgb(255,247,247)"/>
<polygon points="214.5,236.3 220.5,236.3 220.5,242.3 214.5,242.3" fill="rgb(255,154,154)"/>
<polygon points="220.5,236.3 226.5,236.3 226.5,242.3 220.5,242.3" fill="rgb(255,253,253)"/>
<polygon points="226.5,236.3 232.5,236.3 232.5,242.3 226.5,242.3" fill="rgb(194,194,255)"/>
<polygon points="232.5,236.3 238.5,236.3 238.5,242.3 232.5,242.3" fill="rgb(141,141,255)"/>
<polygon points="248.5,236.3 254.5,236.3 254.5,242.3 248.5,242.3" fill="rgb(255,215,215)"/>
<polygon points="254.5,236.3 260.5,236.3 260.5,242.3 254.5,242.3" fill="rgb(255,235,235)"/>
<polygon points="260.5,236.3 266.5,236.3 266.5,242.3 260.5,242.3" fill="rgb(200,200,255)"/>
<polygon points="266.5,236.3 272.5,236.3 272.5,242.3 266.5,242.3" fill="rgb(188,188,255)"/>
<polygon points="272.5,236.3 278.5,236.3 278.5,242.3 272.5,242.3" fill="rgb(224,224,255)"/>
<polygon points="278.5,236.3 284.5,236.3 284.5,242.3 278.5,242.3" fill="rgb(182,182,255)"/>
<polygon points="284.5,236.3 290.5,236.3 290.5,242.3 284.5,242.3" fill="rgb(185,185,255)"/>
<polygon points="290.5,236.3 296.5,236.3 296.5,242.3 290.5,242.3" fill="rgb(190,190,255)"/>
<polygon points="306.5,236.3 312.5,236.3 312.5,242.3 306.5,242.3" fill="rgb(255,198,198)"/>
<polygon points="312.5,236.3 318.5,236.3 318.5,242.3 312.5,242.3" fill="rgb(255,189,189)"/>
<polygon points="318.5,236.3 324.5,236.3 324.5,242.3 318.5,242.3" fill="rgb(148,148,255)"/>
<polygon points="324.5,236.3 330.5,236.3 330.5,242.3 324.5,242.3" fill="rgb(175,175,255)"/>
<polygon points="330.5,236.3 336.5,236.3 336.5,242.3 330.5,242.3" fill="rgb(231,231,255)"/>
<polygon points="336.5,236.3 342.5,236.3 342.5,242.3 336.5,242.3" fill="rgb(167,167,255)"/>
<polygon points="342.5,236.3 348.5,236.3 348.5,242.3 342.5,242.3" fill="rgb(169,169,255)"/>
<polygon points="348.5,236.3 354.5,236.3 354.5,242.3 348.5,242.3" fill="rgb(161,161,255)"/>
<polygon points="156.5,242.3 164.5,242.3 164.5,248.3 156.5,248.3" fill="rgb(112,189,182)"/><text xml:space="preserve" x="160.5" y="248.133" font-family="Calibri" font-size="7.5" fill="rgb(0,0,0)" text-anchor="middle">1</text>
<polygon points="164.5,242.3 172.5,242.3 172.5,248.3 164.5,248.3" fill="rgb(240,235,224)"/><text xml:space="preserve" x="168.5" y="248.133" font-family="Calibri" font-size="7.5" fill="rgb(0,0,0)" text-anchor="middle">8</text>
<polygon points="172.5,242.3 180.5,242.3 180.5,248.3 172.5,248.3" fill="rgb(240,235,224)"/><text xml:space="preserve" x="176.5" y="248.133" font-family="Calibri" font-size="7.5" fill="rgb(0,0,0)" text-anchor="middle">8</text>
<polygon points="190.5,242.3 196.5,242.3 196.5,248.3 190.5,248.3" fill="rgb(255,181,181)"/>
<polygon points="196.5,242.3 202.5,242.3 202.5,248.3 196.5,248.3" fill="rgb(255,171,171)"/>
<polygon points="202.5,242.3 208.5,242.3 208.5,248.3 202.5,248.3" fill="rgb(255,213,213)"/>
<polygon points="208.5,242.3 214.5,242.3 214.5,248.3 208.5,248.3" fill="rgb(235,235,255)"/>
<polygon points="214.5,242.3 220.5,242.3 220.5,248.3 214.5,248.3" fill="rgb(255,173,173)"/>
<polygon points="220.5,242.3 226.5,242.3 226.5,248.3 220.5,248.3" fill="rgb(231,231,255)"/>
<polygon points="226.5,242.3 232.5,242.3 232.5,248.3 226.5,248.3" fill="rgb(204,204,255)"/>
<polygon points="232.5,242.3 238.5,242.3 238.5,248.3 232.5,248.3" fill="rgb(164,164,255)"/>
<polygon points="248.5,242.3 254.5,242.3 254.5,248.3 248.5,248.3" fill="rgb(255,240,240)"/>
<polygon points="254.5,242.3 260.5,242.3 260.5,248.3 254.5,248.3" fill="rgb(246,246,255)"/>
<polygon points="260.5,242.3 266.5,242.3 266.5,248.3 260.5,248.3" fill="rgb(212,212,255)"/>
<polygon points="266.5,242.3 272.5,242.3 272.5,248.3 266.5,248.3" fill="rgb(194,194,255)"/>
<polygon points="272.5,242.3 278.5,242.3 278.5,248.3 272.5,248.3" fill="rgb(255,245,245)"/>
<polygon points="278.5,242.3 284.5,242.3 284.5,248.3 278.5,248.3" fill="rgb(249,249,255)"/>
<polygon points="284.5,242.3 290.5,242.3 290.5,248.3 284.5,248.3" fill="rgb(208,208,255)"/>
<polygon points="290.5,242.3 296.5,242.3 296.5,248.3 290.5,248.3" fill="rgb(187,187,255)"/>
<polygon points="306.5,242.3 312.5,242.3 312.5,248.3 306.5,248.3" fill="rgb(255,200,200)"/>
<polygon points="312.5,242.3 318.5,242.3 318.5,248.3 312.5,248.3" fill="rgb(255,248,248)"/>
<polygon points="318.5,242.3 324.5,242.3 324.5,248.3 318.5,248.3" fill="rgb(146,146,255)"/>
<polygon points="324.5,242.3 330.5,242.3 330.5,248.3 324.5,248.3" fill="rgb(171,171,255)"/>
<polygon points="330.5,242.3 336.5,242.3 336.5,248.3 330.5,248.3" fill="rgb(242,242,255)"/>
<polygon points="336.5,242.3 342.5,242.3 342.5,248.3 336.5,248.3" fill="rgb(255,243,243)"/>
<polygon points="342.5,242.3 348.5,242.3 348.5,248.3 342.5,248.3" fill="rgb(220,220,255)"/>
<polygon points="348.5,242.3 354.5,242.3 354.5,248.3 348.5,248.3" fill="rgb(204,204,255)"/>
<polygon points="156.5,248.3 164.5,248.3 164.5,254.3 156.5,254.3" fill="rgb(112,189,182)"/><text xml:space="preserve" x="160.5" y="254.133" font-family="Calibri" font-size="7.5" fill="rgb(0,0,0)" text-anchor="middle">1</text>
<polygon points="164.5,248.3 172.5,248.3 172.5,254.3 164.5,254.3" fill="rgb(240,235,224)"/><text xml:space="preserve" x="168.5" y="254.133" font-family="Calibri" font-size="7.5" fill="rgb(0,0,0)" text-anchor="middle">8</text>
<polygon points="172.5,248.3 180.5,248.3 180.5,254.3 172.5,254.3" fill="rgb(240,235,224)"/><text xml:space="preserve" x="176.5" y="254.133" font-family="Calibri" font-size="7.5" fill="rgb(0,0,0)" text-anchor="middle">8</text>
<polygon points="190.5,248.3 196.5,248.3 196.5,254.3 190.5,254.3" fill="rgb(254,180,180)"/>
<polygon points="196.5,248.3 202.5,248.3 202.5,254.3 196.5,254.3" fill="rgb(255,175,175)"/>
<polygon points="202.5,248.3 208.5,248.3 208.5,254.3 202.5,254.3" fill="rgb(253,253,255)"/>
<polygon points="208.5,248.3 214.5,248.3 214.5,254.3 208.5,254.3" fill="rgb(229,229,255)"/>
<polygon points="214.5,248.3 220.5,248.3 220.5,254.3 214.5,254.3" fill="rgb(255,174,174)"/>
<polygon points="220.5,248.3 226.5,248.3 226.5,254.3 220.5,254.3" fill="rgb(165,165,255)"/>
<polygon points="226.5,248.3 232.5,248.3 232.5,254.3 226.5,254.3" fill="rgb(139,139,255)"/>
<polygon points="232.5,248.3 238.5,248.3 238.5,254.3 232.5,254.3" fill="rgb(152,152,255)"/>
<polygon points="248.5,248.3 254.5,248.3 254.5,254.3 248.5,254.3" fill="rgb(246,246,255)"/>
<polygon points="254.5,248.3 260.5,248.3 260.5,254.3 254.5,254.3" fill="rgb(255,254,254)"/>
<polygon points="260.5,248.3 266.5,248.3 266.5,254.3 260.5,254.3" fill="rgb(255,254,254)"/>
<polygon points="266.5,248.3 272.5,248.3 272.5,254.3 266.5,254.3" fill="rgb(205,205,255)"/>
<polygon points="272.5,248.3 278.5,248.3 278.5,254.3 272.5,254.3" fill="rgb(253,253,255)"/>
<polygon points="278.5,248.3 284.5,248.3 284.5,254.3 278.5,254.3" fill="rgb(241,241,255)"/>
<polygon points="284.5,248.3 290.5,248.3 290.5,254.3 284.5,254.3" fill="rgb(254,219,219)"/>
<polygon points="290.5,248.3 296.5,248.3 296.5,254.3 290.5,254.3" fill="rgb(212,212,255)"/>
<polygon points="306.5,248.3 312.5,248.3 312.5,254.3 306.5,254.3" fill="rgb(255,201,201)"/>
<polygon points="312.5,248.3 318.5,248.3 318.5,254.3 312.5,254.3" fill="rgb(255,254,254)"/>
<polygon points="318.5,248.3 324.5,248.3 324.5,254.3 318.5,254.3" fill="rgb(255,216,216)"/>
<polygon points="324.5,248.3 330.5,248.3 330.5,254.3 324.5,254.3" fill="rgb(255,232,232)"/>
<polygon points="330.5,248.3 336.5,248.3 336.5,254.3 330.5,254.3" fill="rgb(255,191,191)"/>
<polygon points="336.5,248.3 342.5,248.3 342.5,254.3 336.5,254.3" fill="rgb(248,248,255)"/>
<polygon points="342.5,248.3 348.5,248.3 348.5,254.3 342.5,254.3" fill="rgb(229,229,255)"/>
<polygon points="348.5,248.3 354.5,248.3 354.5,254.3 348.5,254.3" fill="rgb(158,158,255)"/>
<polygon points="156.5,254.3 164.5,254.3 164.5,260.3 156.5,260.3" fill="rgb(112,189,182)"/><text xml:space="preserve" x="160.5" y="260.133" font-family="Calibri" font-size="7.5" fill="rgb(0,0,0)" text-anchor="middle">1</text>
<polygon points="164.5,254.3 172.5,254.3 172.5,260.3 164.5,260.3" fill="rgb(240,235,224)"/><text xml:space="preserve" x="168.5" y="260.133" font-family="Calibri" font-size="7.5" fill="rgb(0,0,0)" text-anchor="middle">8</text>
<polygon points="172.5,254.3 180.5,254.3 180.5,260.3 172.5,260.3" fill="rgb(240,235,224)"/><text xml:space="preserve" x="176.5" y="260.133" font-family="Calibri" font-size="7.5" fill="rgb(0,0,0)" text-anchor="middle">8</text>
<polygon points="190.5,254.3 196.5,254.3 196.5,260.3 190.5,260.3" fill="rgb(254,205,205)"/>
<polygon points="196.5,254.3 202.5,254.3 202.5,260.3 196.5,260.3" fill="rgb(255,156,156)"/>
<polygon points="202.5,254.3 208.5,254.3 208.5,260.3 202.5,260.3" fill="rgb(255,212,212)"/>
<polygon points="208.5,254.3 214.5,254.3 214.5,260.3 208.5,260.3" fill="rgb(255,230,230)"/>
<polygon points="214.5,254.3 220.5,254.3 220.5,260.3 214.5,260.3" fill="rgb(255,158,158)"/>
<polygon points="220.5,254.3 226.5,254.3 226.5,260.3 220.5,260.3" fill="rgb(146,146,255)"/>
<polygon points="226.5,254.3 232.5,254.3 232.5,260.3 226.5,260.3" fill="rgb(176,176,255)"/>
<polygon points="232.5,254.3 238.5,254.3 238.5,260.3 232.5,260.3" fill="rgb(134,134,255)"/>
<polygon points="248.5,254.3 254.5,254.3 254.5,260.3 248.5,260.3" fill="rgb(249,249,255)"/>
<polygon points="254.5,254.3 260.5,254.3 260.5,260.3 254.5,260.3" fill="rgb(255,247,247)"/>
<polygon points="260.5,254.3 266.5,254.3 266.5,260.3 260.5,260.3" fill="rgb(220,220,255)"/>
<polygon points="266.5,254.3 272.5,254.3 272.5,260.3 266.5,260.3" fill="rgb(255,234,234)"/>
<polygon points="272.5,254.3 278.5,254.3 278.5,260.3 272.5,260.3" fill="rgb(255,209,209)"/>
<polygon points="278.5,254.3 284.5,254.3 284.5,260.3 278.5,260.3" fill="rgb(220,220,255)"/>
<polygon points="284.5,254.3 290.5,254.3 290.5,260.3 284.5,260.3" fill="rgb(169,169,255)"/>
<polygon points="290.5,254.3 296.5,254.3 296.5,260.3 290.5,260.3" fill="rgb(168,168,255)"/>
<polygon points="306.5,254.3 312.5,254.3 312.5,260.3 306.5,260.3" fill="rgb(255,192,192)"/>
<polygon points="312.5,254.3 318.5,254.3 318.5,260.3 312.5,260.3" fill="rgb(255,209,209)"/>
<polygon points="318.5,254.3 324.5,254.3 324.5,260.3 318.5,260.3" fill="rgb(255,216,216)"/>
<polygon points="324.5,254.3 330.5,254.3 330.5,260.3 324.5,260.3" fill="rgb(255,226,226)"/>
<polygon points="330.5,254.3 336.5,254.3 336.5,260.3 330.5,260.3" fill="rgb(255,215,215)"/>
<polygon points="336.5,254.3 342.5,254.3 342.5,260.3 336.5,260.3" fill="rgb(255,233,233)"/>
<polygon points="342.5,254.3 348.5,254.3 348.5,260.3 342.5,260.3" fill="rgb(210,210,255)"/>
<polygon points="348.5,254.3 354.5,254.3 354.5,260.3 348.5,260.3" fill="rgb(125,125,255)"/>
<polygon points="156.5,260.3 164.5,260.3 164.5,266.3 156.5,266.3" fill="rgb(112,189,182)"/><text xml:space="preserve" x="160.5" y="266.133" font-family="Calibri" font-size="7.5" fill="rgb(0,0,0)" text-anchor="middle">1</text>
<polygon points="164.5,260.3 172.5,260.3 172.5,266.3 164.5,266.3" fill="rgb(240,235,224)"/><text xml:space="preserve" x="168.5" y="266.133" font-family="Calibri" font-size="7.5" fill="rgb(0,0,0)" text-anchor="middle">8</text>
<polygon points="172.5,260.3 180.5,260.3 180.5,266.3 172.5,266.3" fill="rgb(240,235,224)"/><text xml:space="preserve" x="176.5" y="266.133" font-family="Calibri" font-size="7.5" fill="rgb(0,0,0)" text-anchor="middle">8</text>
<polygon points="190.5,260.3 196.5,260.3 196.5,266.3 190.5,266.3" fill="rgb(255,198,198)"/>
<polygon points="196.5,260.3 202.5,260.3 202.5,266.3 196.5,266.3" fill="rgb(255,175,175)"/>
<polygon points="202.5,260.3 208.5,260.3 208.5,266.3 202.5,266.3" fill="rgb(255,214,214)"/>
<polygon points="208.5,260.3 214.5,260.3 214.5,266.3 208.5,266.3" fill="rgb(239,239,255)"/>
<polygon points="214.5,260.3 220.5,260.3 220.5,266.3 214.5,266.3" fill="rgb(255,246,246)"/>
<polygon points="220.5,260.3 226.5,260.3 226.5,266.3 220.5,266.3" fill="rgb(139,139,255)"/>
<polygon points="226.5,260.3 232.5,260.3 232.5,266.3 226.5,266.3" fill="rgb(155,155,255)"/>
<polygon points="232.5,260.3 238.5,260.3 238.5,266.3 232.5,266.3" fill="rgb(193,193,255)"/>
<polygon points="248.5,260.3 254.5,260.3 254.5,266.3 248.5,266.3" fill="rgb(255,239,239)"/>
<polygon points="254.5,260.3 260.5,260.3 260.5,266.3 254.5,266.3" fill="rgb(255,217,217)"/>
<polygon points="260.5,260.3 266.5,260.3 266.5,266.3 260.5,266.3" fill="rgb(236,236,255)"/>
<polygon points="266.5,260.3 272.5,260.3 272.5,266.3 266.5,266.3" fill="rgb(171,171,255)"/>
<polygon points="272.5,260.3 278.5,260.3 278.5,266.3 272.5,266.3" fill="rgb(195,195,255)"/>
<polygon points="278.5,260.3 284.5,260.3 284.5,266.3 278.5,266.3" fill="rgb(186,186,255)"/>
<polygon points="284.5,260.3 290.5,260.3 290.5,266.3 284.5,266.3" fill="rgb(162,162,255)"/>
<polygon points="290.5,260.3 296.5,260.3 296.5,266.3 290.5,266.3" fill="rgb(248,248,255)"/>
<polygon points="306.5,260.3 312.5,260.3 312.5,266.3 306.5,266.3" fill="rgb(255,193,193)"/>
<polygon points="312.5,260.3 318.5,260.3 318.5,266.3 312.5,266.3" fill="rgb(255,182,182)"/>
<polygon points="318.5,260.3 324.5,260.3 324.5,266.3 318.5,266.3" fill="rgb(144,144,255)"/>
<polygon points="324.5,260.3 330.5,260.3 330.5,266.3 324.5,266.3" fill="rgb(186,186,255)"/>
<polygon points="330.5,260.3 336.5,260.3 336.5,266.3 330.5,266.3" fill="rgb(185,185,255)"/>
<polygon points="336.5,260.3 342.5,260.3 342.5,266.3 336.5,266.3" fill="rgb(194,194,255)"/>
<polygon points="342.5,260.3 348.5,260.3 348.5,266.3 342.5,266.3" fill="rgb(161,161,255)"/>
<polygon points="348.5,260.3 354.5,260.3 354.5,266.3 348.5,266.3" fill="rgb(226,226,255)"/>
<polygon points="156.5,266.3 164.5,266.3 164.5,272.3 156.5,272.3" fill="rgb(112,189,182)"/><text xml:space="preserve" x="160.5" y="272.133" font-family="Calibri" font-size="7.5" fill="rgb(0,0,0)" text-anchor="middle">1</text>
<polygon points="164.5,266.3 172.5,266.3 172.5,272.3 164.5,272.3" fill="rgb(240,235,224)"/><text xml:space="preserve" x="168.5" y="272.133" font-family="Calibri" font-size="7.5" fill="rgb(0,0,0)" text-anchor="middle">8</text>
<polygon points="172.5,266.3 180.5,266.3 180.5,272.3 172.5,272.3" fill="rgb(240,235,224)"/><text xml:space="preserve" x="176.5" y="272.133" font-family="Calibri" font-size="7.5" fill="rgb(0,0,0)" text-anchor="middle">8</text>
<polygon points="190.5,266.3 196.5,266.3 196.5,272.3 190.5,272.3" fill="rgb(255,189,189)"/>
<polygon points="196.5,266.3 202.5,266.3 202.5,272.3 196.5,272.3" fill="rgb(254,211,211)"/>
<polygon points="202.5,266.3 208.5,266.3 208.5,272.3 202.5,272.3" fill="rgb(255,229,229)"/>
<polygon points="208.5,266.3 214.5,266.3 214.5,272.3 208.5,272.3" fill="rgb(255,224,224)"/>
<polygon points="214.5,266.3 220.5,266.3 220.5,272.3 214.5,272.3" fill="rgb(255,173,173)"/>
<polygon points="220.5,266.3 226.5,266.3 226.5,272.3 220.5,272.3" fill="rgb(157,157,255)"/>
<polygon points="226.5,266.3 232.5,266.3 232.5,272.3 226.5,272.3" fill="rgb(209,209,255)"/>
<polygon points="232.5,266.3 238.5,266.3 238.5,272.3 232.5,272.3" fill="rgb(172,172,255)"/>
<polygon points="248.5,266.3 254.5,266.3 254.5,272.3 248.5,272.3" fill="rgb(255,208,208)"/>
<polygon points="254.5,266.3 260.5,266.3 260.5,272.3 254.5,272.3" fill="rgb(242,242,255)"/>
<polygon points="260.5,266.3 266.5,266.3 266.5,272.3 260.5,272.3" fill="rgb(205,205,255)"/>
<polygon points="266.5,266.3 272.5,266.3 272.5,272.3 266.5,272.3" fill="rgb(240,240,255)"/>
<polygon points="272.5,266.3 278.5,266.3 278.5,272.3 272.5,272.3" fill="rgb(255,214,214)"/>
<polygon points="278.5,266.3 284.5,266.3 284.5,272.3 278.5,272.3" fill="rgb(161,161,255)"/>
<polygon points="284.5,266.3 290.5,266.3 290.5,272.3 284.5,272.3" fill="rgb(182,182,255)"/>
<polygon points="290.5,266.3 296.5,266.3 296.5,272.3 290.5,272.3" fill="rgb(215,215,255)"/>
<polygon points="306.5,266.3 312.5,266.3 312.5,272.3 306.5,272.3" fill="rgb(255,212,212)"/>
<polygon points="312.5,266.3 318.5,266.3 318.5,272.3 312.5,272.3" fill="rgb(250,250,255)"/>
<polygon points="318.5,266.3 324.5,266.3 324.5,272.3 318.5,272.3" fill="rgb(228,228,255)"/>
<polygon points="324.5,266.3 330.5,266.3 330.5,272.3 324.5,272.3" fill="rgb(226,226,255)"/>
<polygon points="330.5,266.3 336.5,266.3 336.5,272.3 330.5,272.3" fill="rgb(255,212,212)"/>
<polygon points="336.5,266.3 342.5,266.3 342.5,272.3 336.5,272.3" fill="rgb(146,146,255)"/>
<polygon points="342.5,266.3 348.5,266.3 348.5,272.3 342.5,272.3" fill="rgb(138,138,255)"/>
<polygon points="348.5,266.3 354.5,266.3 354.5,272.3 348.5,272.3" fill="rgb(170,170,255)"/>
<polygon points="156.5,272.3 164.5,272.3 164.5,278.3 156.5,278.3" fill="rgb(112,189,182)"/><text xml:space="preserve" x="160.5" y="278.133" font-family="Calibri" font-size="7.5" fill="rgb(0,0,0)" text-anchor="middle">1</text>
<polygon points="164.5,272.3 172.5,272.3 172.5,278.3 164.5,278.3" fill="rgb(240,235,224)"/><text xml:space="preserve" x="168.5" y="278.133" font-family="Calibri" font-size="7.5" fill="rgb(0,0,0)" text-anchor="middle">8</text>
<polygon points="172.5,272.3 180.5,272.3 180.5,278.3 172.5,278.3" fill="rgb(240,235,224)"/><text xml:space="preserve" x="176.5" y="278.133" font-family="Calibri" font-size="7.5" fill="rgb(0,0,0)" text-anchor="middle">8</text>
<polygon points="190.5,272.3 196.5,272.3 196.5,278.3 190.5,278.3" fill="rgb(255,198,198)"/>
<polygon points="196.5,272.3 202.5,272.3 202.5,278.3 196.5,278.3" fill="rgb(255,170,170)"/>
<polygon points="202.5,272.3 208.5,272.3 208.5,278.3 202.5,278.3" fill="rgb(255,236,236)"/>
<polygon points="208.5,272.3 214.5,272.3 214.5,278.3 208.5,278.3" fill="rgb(231,231,255)"/>
<polygon points="214.5,272.3 220.5,272.3 220.5,278.3 214.5,278.3" fill="rgb(255,237,237)"/>
<polygon points="220.5,272.3 226.5,272.3 226.5,278.3 220.5,278.3" fill="rgb(212,212,255)"/>
<polygon points="226.5,272.3 232.5,272.3 232.5,278.3 226.5,278.3" fill="rgb(183,183,255)"/>
<polygon points="232.5,272.3 238.5,272.3 238.5,278.3 232.5,278.3" fill="rgb(151,151,255)"/>
<polygon points="248.5,272.3 254.5,272.3 254.5,278.3 248.5,278.3" fill="rgb(255,214,214)"/>
<polygon points="254.5,272.3 260.5,272.3 260.5,278.3 254.5,278.3" fill="rgb(255,223,223)"/>
<polygon points="260.5,272.3 266.5,272.3 266.5,278.3 260.5,278.3" fill="rgb(179,179,255)"/>
<polygon points="266.5,272.3 272.5,272.3 272.5,278.3 266.5,278.3" fill="rgb(220,220,255)"/>
<polygon points="272.5,272.3 278.5,272.3 278.5,278.3 272.5,278.3" fill="rgb(215,215,255)"/>
<polygon points="278.5,272.3 284.5,272.3 284.5,278.3 278.5,278.3" fill="rgb(172,172,255)"/>
<polygon points="284.5,272.3 290.5,272.3 290.5,278.3 284.5,278.3" fill="rgb(180,180,255)"/>
<polygon points="290.5,272.3 296.5,272.3 296.5,278.3 290.5,278.3" fill="rgb(216,216,255)"/>
<polygon points="306.5,272.3 312.5,272.3 312.5,278.3 306.5,278.3" fill="rgb(255,197,197)"/>
<polygon points="312.5,272.3 318.5,272.3 318.5,278.3 312.5,278.3" fill="rgb(255,194,194)"/>
<polygon points="318.5,272.3 324.5,272.3 324.5,278.3 318.5,278.3" fill="rgb(165,165,255)"/>
<polygon points="324.5,272.3 330.5,272.3 330.5,278.3 324.5,278.3" fill="rgb(233,233,255)"/>
<polygon points="330.5,272.3 336.5,272.3 336.5,278.3 330.5,278.3" fill="rgb(242,242,255)"/>
<polygon points="336.5,272.3 342.5,272.3 342.5,278.3 336.5,278.3" fill="rgb(141,141,255)"/>
<polygon points="342.5,272.3 348.5,272.3 348.5,278.3 342.5,278.3" fill="rgb(207,207,255)"/>
<polygon points="348.5,272.3 354.5,272.3 354.5,278.3 348.5,278.3" fill="rgb(171,171,255)"/>
<polygon points="156.5,278.3 164.5,278.3 164.5,284.3 156.5,284.3" fill="rgb(112,189,182)"/><text xml:space="preserve" x="160.5" y="284.133" font-family="Calibri" font-size="7.5" fill="rgb(0,0,0)" text-anchor="middle">1</text>
<polygon points="164.5,278.3 172.5,278.3 172.5,284.3 164.5,284.3" fill="rgb(240,235,224)"/><text xml:space="preserve" x="168.5" y="284.133" font-family="Calibri" font-size="7.5" fill="rgb(0,0,0)" text-anchor="middle">8</text>
<polygon points="172.5,278.3 180.5,278.3 180.5,284.3 172.5,284.3" fill="rgb(240,235,224)"/><text xml:space="preserve" x="176.5" y="284.133" font-family="Calibri" font-size="7.5" fill="rgb(0,0,0)" text-anchor="middle">8</text>
<polygon points="190.5,278.3 196.5,278.3 196.5,284.3 190.5,284.3" fill="rgb(255,207,207)"/>
<polygon points="196.5,278.3 202.5,278.3 202.5,284.3 196.5,284.3" fill="rgb(255,181,181)"/>
<polygon points="202.5,278.3 208.5,278.3 208.5,284.3 202.5,284.3" fill="rgb(254,254,255)"/>
<polygon points="208.5,278.3 214.5,278.3 214.5,284.3 208.5,284.3" fill="rgb(197,197,255)"/>
<polygon points="214.5,278.3 220.5,278.3 220.5,284.3 214.5,284.3" fill="rgb(255,190,190)"/>
<polygon points="220.5,278.3 226.5,278.3 226.5,284.3 220.5,284.3" fill="rgb(166,166,255)"/>
<polygon points="226.5,278.3 232.5,278.3 232.5,284.3 226.5,284.3" fill="rgb(208,208,255)"/>
<polygon points="232.5,278.3 238.5,278.3 238.5,284.3 232.5,284.3" fill="rgb(193,193,255)"/>
<polygon points="248.5,278.3 254.5,278.3 254.5,284.3 248.5,284.3" fill="rgb(255,166,166)"/>
<polygon points="254.5,278.3 260.5,278.3 260.5,284.3 254.5,284.3" fill="rgb(255,247,247)"/>
<polygon points="260.5,278.3 266.5,278.3 266.5,284.3 260.5,284.3" fill="rgb(216,216,255)"/>
<polygon points="266.5,278.3 272.5,278.3 272.5,284.3 266.5,284.3" fill="rgb(201,201,255)"/>
<polygon points="272.5,278.3 278.5,278.3 278.5,284.3 272.5,284.3" fill="rgb(250,250,255)"/>
<polygon points="278.5,278.3 284.5,278.3 284.5,284.3 278.5,284.3" fill="rgb(183,183,255)"/>
<polygon points="284.5,278.3 290.5,278.3 290.5,284.3 284.5,284.3" fill="rgb(180,180,255)"/>
<polygon points="290.5,278.3 296.5,278.3 296.5,284.3 290.5,284.3" fill="rgb(255,243,243)"/>
<polygon points="306.5,278.3 312.5,278.3 312.5,284.3 306.5,284.3" fill="rgb(255,183,183)"/>
<polygon points="312.5,278.3 318.5,278.3 318.5,284.3 312.5,284.3" fill="rgb(255,232,232)"/>
<polygon points="318.5,278.3 324.5,278.3 324.5,284.3 318.5,284.3" fill="rgb(168,168,255)"/>
<polygon points="324.5,278.3 330.5,278.3 330.5,284.3 324.5,284.3" fill="rgb(169,169,255)"/>
<polygon points="330.5,278.3 336.5,278.3 336.5,284.3 330.5,284.3" fill="rgb(255,246,246)"/>
<polygon points="336.5,278.3 342.5,278.3 342.5,284.3 336.5,284.3" fill="rgb(168,168,255)"/>
<polygon points="342.5,278.3 348.5,278.3 348.5,284.3 342.5,284.3" fill="rgb(188,188,255)"/>
<polygon points="348.5,278.3 354.5,278.3 354.5,284.3 348.5,284.3" fill="rgb(255,236,236)"/>
<polygon points="156.5,284.3 164.5,284.3 164.5,290.3 156.5,290.3" fill="rgb(112,189,182)"/><text xml:space="preserve" x="160.5" y="290.133" font-family="Calibri" font-size="7.5" fill="rgb(0,0,0)" text-anchor="middle">1</text>
<polygon points="164.5,284.3 172.5,284.3 172.5,290.3 164.5,290.3" fill="rgb(240,235,224)"/><text xml:space="preserve" x="168.5" y="290.133" font-family="Calibri" font-size="7.5" fill="rgb(0,0,0)" text-anchor="middle">8</text>
<polygon points="172.5,284.3 180.5,284.3 180.5,290.3 172.5,290.3" fill="rgb(240,235,224)"/><text xml:space="preserve" x="176.5" y="290.133" font-family="Calibri" font-size="7.5" fill="rgb(0,0,0)" text-anchor="middle">8</text>
<polygon points="190.5,284.3 196.5,284.3 196.5,290.3 190.5,290.3" fill="rgb(255,181,181)"/>
<polygon points="196.5,284.3 202.5,284.3 202.5,290.3 196.5,290.3" fill="rgb(255,190,190)"/>
<polygon points="202.5,284.3 208.5,284.3 208.5,290.3 202.5,290.3" fill="rgb(237,237,255)"/>
<polygon points="208.5,284.3 214.5,284.3 214.5,290.3 208.5,290.3" fill="rgb(222,222,255)"/>
<polygon points="214.5,284.3 220.5,284.3 220.5,290.3 214.5,290.3" fill="rgb(255,168,168)"/>
<polygon points="220.5,284.3 226.5,284.3 226.5,290.3 220.5,290.3" fill="rgb(161,161,255)"/>
<polygon points="226.5,284.3 232.5,284.3 232.5,290.3 226.5,290.3" fill="rgb(137,137,255)"/>
<polygon points="232.5,284.3 238.5,284.3 238.5,290.3 232.5,290.3" fill="rgb(140,140,255)"/>
<polygon points="248.5,284.3 254.5,284.3 254.5,290.3 248.5,290.3" fill="rgb(255,244,244)"/>
<polygon points="254.5,284.3 260.5,284.3 260.5,290.3 254.5,290.3" fill="rgb(255,251,251)"/>
<polygon points="260.5,284.3 266.5,284.3 266.5,290.3 260.5,290.3" fill="rgb(249,249,255)"/>
<polygon points="266.5,284.3 272.5,284.3 272.5,290.3 266.5,290.3" fill="rgb(188,188,255)"/>
<polygon points="272.5,284.3 278.5,284.3 278.5,290.3 272.5,290.3" fill="rgb(254,254,255)"/>
<polygon points="278.5,284.3 284.5,284.3 284.5,290.3 278.5,290.3" fill="rgb(231,231,255)"/>
<polygon points="284.5,284.3 290.5,284.3 290.5,290.3 284.5,290.3" fill="rgb(242,242,255)"/>
<polygon points="290.5,284.3 296.5,284.3 296.5,290.3 290.5,290.3" fill="rgb(233,233,255)"/>
<polygon points="306.5,284.3 312.5,284.3 312.5,290.3 306.5,290.3" fill="rgb(255,192,192)"/>
<polygon points="312.5,284.3 318.5,284.3 318.5,290.3 312.5,290.3" fill="rgb(238,238,255)"/>
<polygon points="318.5,284.3 324.5,284.3 324.5,290.3 318.5,290.3" fill="rgb(255,231,231)"/>
<polygon points="324.5,284.3 330.5,284.3 330.5,290.3 324.5,290.3" fill="rgb(255,216,216)"/>
<polygon points="330.5,284.3 336.5,284.3 336.5,290.3 330.5,290.3" fill="rgb(255,187,187)"/>
<polygon points="336.5,284.3 342.5,284.3 342.5,290.3 336.5,290.3" fill="rgb(246,246,255)"/>
<polygon points="342.5,284.3 348.5,284.3 348.5,290.3 342.5,290.3" fill="rgb(148,148,255)"/>
<polygon points="348.5,284.3 354.5,284.3 354.5,290.3 348.5,290.3" fill="rgb(181,181,255)"/>
<polygon points="156.5,290.3 164.5,290.3 164.5,296.3 156.5,296.3" fill="rgb(112,189,182)"/><text xml:space="preserve" x="160.5" y="296.133" font-family="Calibri" font-size="7.5" fill="rgb(0,0,0)" text-anchor="middle">1</text>
<polygon points="164.5,290.3 172.5,290.3 172.5,296.3 164.5,296.3" fill="rgb(240,235,224)"/><text xml:space="preserve" x="168.5" y="296.133" font-family="Calibri" font-size="7.5" fill="rgb(0,0,0)" text-anchor="middle">8</text>
<polygon points="172.5,290.3 180.5,290.3 180.5,296.3 172.5,296.3" fill="rgb(240,235,224)"/><text xml:space="preserve" x="176.5" y="296.133" font-family="Calibri" font-size="7.5" fill="rgb(0,0,0)" text-anchor="middle">8</text>
<polygon points="190.5,290.3 196.5,290.3 196.5,296.3 190.5,296.3" fill="rgb(255,179,179)"/>
<polygon points="196.5,290.3 202.5,290.3 202.5,296.3 196.5,296.3" fill="rgb(255,200,200)"/>
<polygon points="202.5,290.3 208.5,290.3 208.5,296.3 202.5,296.3" fill="rgb(211,211,255)"/>
<polygon points="208.5,290.3 214.5,290.3 214.5,296.3 208.5,296.3" fill="rgb(222,222,255)"/>
<polygon points="214.5,290.3 220.5,290.3 220.5,296.3 214.5,296.3" fill="rgb(254,209,209)"/>
<polygon points="220.5,290.3 226.5,290.3 226.5,296.3 220.5,296.3" fill="rgb(170,170,255)"/>
<polygon points="226.5,290.3 232.5,290.3 232.5,296.3 226.5,296.3" fill="rgb(126,126,255)"/>
<polygon points="232.5,290.3 238.5,290.3 238.5,296.3 232.5,296.3" fill="rgb(168,168,255)"/>
<polygon points="248.5,290.3 254.5,290.3 254.5,296.3 248.5,296.3" fill="rgb(237,237,255)"/>
<polygon points="254.5,290.3 260.5,290.3 260.5,296.3 254.5,296.3" fill="rgb(254,248,248)"/>
<polygon points="260.5,290.3 266.5,290.3 266.5,296.3 260.5,296.3" fill="rgb(235,235,255)"/>
<polygon points="266.5,290.3 272.5,290.3 272.5,296.3 266.5,296.3" fill="rgb(209,209,255)"/>
<polygon points="272.5,290.3 278.5,290.3 278.5,296.3 272.5,296.3" fill="rgb(255,227,227)"/>
<polygon points="278.5,290.3 284.5,290.3 284.5,296.3 278.5,296.3" fill="rgb(215,215,255)"/>
<polygon points="284.5,290.3 290.5,290.3 290.5,296.3 284.5,296.3" fill="rgb(166,166,255)"/>
<polygon points="290.5,290.3 296.5,290.3 296.5,296.3 290.5,296.3" fill="rgb(172,172,255)"/>
<polygon points="306.5,290.3 312.5,290.3 312.5,296.3 306.5,296.3" fill="rgb(254,177,177)"/>
<polygon points="312.5,290.3 318.5,290.3 318.5,296.3 312.5,296.3" fill="rgb(255,194,194)"/>
<polygon points="318.5,290.3 324.5,290.3 324.5,296.3 318.5,296.3" fill="rgb(183,183,255)"/>
<polygon points="324.5,290.3 330.5,290.3 330.5,296.3 324.5,296.3" fill="rgb(205,205,255)"/>
<polygon points="330.5,290.3 336.5,290.3 336.5,296.3 330.5,296.3" fill="rgb(254,251,251)"/>
<polygon points="336.5,290.3 342.5,290.3 342.5,296.3 336.5,296.3" fill="rgb(178,178,255)"/>
<polygon points="342.5,290.3 348.5,290.3 348.5,296.3 342.5,296.3" fill="rgb(134,134,255)"/>
<polygon points="348.5,290.3 354.5,290.3 354.5,296.3 348.5,296.3" fill="rgb(155,155,255)"/>
<polygon points="156.5,296.3 164.5,296.3 164.5,302.3 156.5,302.3" fill="rgb(112,189,182)"/><text xml:space="preserve" x="160.5" y="302.133" font-family="Calibri" font-size="7.5" fill="rgb(0,0,0)" text-anchor="middle">1</text>
<polygon points="164.5,296.3 172.5,296.3 172.5,302.3 164.5,302.3" fill="rgb(240,235,224)"/><text xml:space="preserve" x="168.5" y="302.133" font-family="Calibri" font-size="7.5" fill="rgb(0,0,0)" text-anchor="middle">8</text>
<polygon points="172.5,296.3 180.5,296.3 180.5,302.3 172.5,302.3" fill="rgb(240,235,224)"/><text xml:space="preserve" x="176.5" y="302.133" font-family="Calibri" font-size="7.5" fill="rgb(0,0,0)" text-anchor="middle">8</text>
<polygon points="190.5,296.3 196.5,296.3 196.5,302.3 190.5,302.3" fill="rgb(255,243,243)"/>
<polygon points="196.5,296.3 202.5,296.3 202.5,302.3 196.5,302.3" fill="rgb(255,158,158)"/>
<polygon points="202.5,296.3 208.5,296.3 208.5,302.3 202.5,302.3" fill="rgb(255,249,249)"/>
<polygon points="208.5,296.3 214.5,296.3 214.5,302.3 208.5,302.3" fill="rgb(255,224,224)"/>
<polygon points="214.5,296.3 220.5,296.3 220.5,302.3 214.5,302.3" fill="rgb(255,166,166)"/>
<polygon points="220.5,296.3 226.5,296.3 226.5,302.3 220.5,302.3" fill="rgb(241,241,255)"/>
<polygon points="226.5,296.3 232.5,296.3 232.5,302.3 226.5,302.3" fill="rgb(202,202,255)"/>
<polygon points="232.5,296.3 238.5,296.3 238.5,302.3 232.5,302.3" fill="rgb(122,122,255)"/>
<polygon points="248.5,296.3 254.5,296.3 254.5,302.3 248.5,302.3" fill="rgb(255,188,188)"/>
<polygon points="254.5,296.3 260.5,296.3 260.5,302.3 254.5,302.3" fill="rgb(255,251,251)"/>
<polygon points="260.5,296.3 266.5,296.3 266.5,302.3 260.5,302.3" fill="rgb(236,236,255)"/>
<polygon points="266.5,296.3 272.5,296.3 272.5,302.3 266.5,302.3" fill="rgb(173,173,255)"/>
<polygon points="272.5,296.3 278.5,296.3 278.5,302.3 272.5,302.3" fill="rgb(255,218,218)"/>
<polygon points="278.5,296.3 284.5,296.3 284.5,302.3 278.5,302.3" fill="rgb(255,242,242)"/>
<polygon points="284.5,296.3 290.5,296.3 290.5,302.3 284.5,302.3" fill="rgb(197,197,255)"/>
<polygon points="290.5,296.3 296.5,296.3 296.5,302.3 290.5,302.3" fill="rgb(253,253,255)"/>
<polygon points="306.5,296.3 312.5,296.3 312.5,302.3 306.5,302.3" fill="rgb(255,175,175)"/>
<polygon points="312.5,296.3 318.5,296.3 318.5,302.3 312.5,302.3" fill="rgb(255,237,237)"/>
<polygon points="318.5,296.3 324.5,296.3 324.5,302.3 318.5,302.3" fill="rgb(161,161,255)"/>
<polygon points="324.5,296.3 330.5,296.3 330.5,302.3 324.5,302.3" fill="rgb(247,247,255)"/>
<polygon points="330.5,296.3 336.5,296.3 336.5,302.3 330.5,302.3" fill="rgb(251,251,255)"/>
<polygon points="336.5,296.3 342.5,296.3 342.5,302.3 336.5,302.3" fill="rgb(237,237,255)"/>
<polygon points="342.5,296.3 348.5,296.3 348.5,302.3 342.5,302.3" fill="rgb(233,233,255)"/>
<polygon points="348.5,296.3 354.5,296.3 354.5,302.3 348.5,302.3" fill="rgb(141,141,255)"/>
<polygon points="156.5,302.3 164.5,302.3 164.5,308.3 156.5,308.3" fill="rgb(112,189,182)"/><text xml:space="preserve" x="160.5" y="308.133" font-family="Calibri" font-size="7.5" fill="rgb(0,0,0)" text-anchor="middle">1</text>
<polygon points="164.5,302.3 172.5,302.3 172.5,308.3 164.5,308.3" fill="rgb(240,235,224)"/><text xml:space="preserve" x="168.5" y="308.133" font-family="Calibri" font-size="7.5" fill="rgb(0,0,0)" text-anchor="middle">8</text>
<polygon points="172.5,302.3 180.5,302.3 180.5,308.3 172.5,308.3" fill="rgb(240,235,224)"/><text xml:space="preserve" x="176.5" y="308.133" font-family="Calibri" font-size="7.5" fill="rgb(0,0,0)" text-anchor="middle">8</text>
<polygon points="190.5,302.3 196.5,302.3 196.5,308.3 190.5,308.3" fill="rgb(255,145,145)"/>
<polygon points="196.5,302.3 202.5,302.3 202.5,308.3 196.5,308.3" fill="rgb(255,120,120)"/>
<polygon points="202.5,302.3 208.5,302.3 208.5,308.3 202.5,308.3" fill="rgb(255,205,205)"/>
<polygon points="208.5,302.3 214.5,302.3 214.5,308.3 208.5,308.3" fill="rgb(241,241,255)"/>
<polygon points="214.5,302.3 220.5,302.3 220.5,308.3 214.5,308.3" fill="rgb(255,206,206)"/>
<polygon points="220.5,302.3 226.5,302.3 226.5,308.3 220.5,308.3" fill="rgb(146,146,255)"/>
<polygon points="226.5,302.3 232.5,302.3 232.5,308.3 226.5,308.3" fill="rgb(161,161,255)"/>
<polygon points="232.5,302.3 238.5,302.3 238.5,308.3 232.5,308.3" fill="rgb(147,147,255)"/>
<polygon points="248.5,302.3 254.5,302.3 254.5,308.3 248.5,308.3" fill="rgb(255,242,242)"/>
<polygon points="254.5,302.3 260.5,302.3 260.5,308.3 254.5,308.3" fill="rgb(255,220,220)"/>
<polygon points="260.5,302.3 266.5,302.3 266.5,308.3 260.5,308.3" fill="rgb(255,239,239)"/>
<polygon points="266.5,302.3 272.5,302.3 272.5,308.3 266.5,308.3" fill="rgb(255,237,237)"/>
<polygon points="272.5,302.3 278.5,302.3 278.5,308.3 272.5,308.3" fill="rgb(255,222,222)"/>
<polygon points="278.5,302.3 284.5,302.3 284.5,308.3 278.5,308.3" fill="rgb(230,230,255)"/>
<polygon points="284.5,302.3 290.5,302.3 290.5,308.3 284.5,308.3" fill="rgb(241,241,255)"/>
<polygon points="290.5,302.3 296.5,302.3 296.5,308.3 290.5,308.3" fill="rgb(158,158,255)"/>
<polygon points="306.5,302.3 312.5,302.3 312.5,308.3 306.5,308.3" fill="rgb(255,206,206)"/>
<polygon points="312.5,302.3 318.5,302.3 318.5,308.3 312.5,308.3" fill="rgb(255,221,221)"/>
<polygon points="318.5,302.3 324.5,302.3 324.5,308.3 318.5,308.3" fill="rgb(184,184,255)"/>
<polygon points="324.5,302.3 330.5,302.3 330.5,308.3 324.5,308.3" fill="rgb(233,233,255)"/>
<polygon points="330.5,302.3 336.5,302.3 336.5,308.3 330.5,308.3" fill="rgb(255,219,219)"/>
<polygon points="336.5,302.3 342.5,302.3 342.5,308.3 336.5,308.3" fill="rgb(249,249,255)"/>
<polygon points="342.5,302.3 348.5,302.3 348.5,308.3 342.5,308.3" fill="rgb(232,232,255)"/>
<polygon points="348.5,302.3 354.5,302.3 354.5,308.3 348.5,308.3" fill="rgb(159,159,255)"/>
<polygon points="156.5,308.3 164.5,308.3 164.5,314.3 156.5,314.3" fill="rgb(112,189,182)"/><text xml:space="preserve" x="160.5" y="314.133" font-family="Calibri" font-size="7.5" fill="rgb(0,0,0)" text-anchor="middle">1</text>
<polygon points="164.5,308.3 172.5,308.3 172.5,314.3 164.5,314.3" fill="rgb(240,235,224)"/><text xml:space="preserve" x="168.5" y="314.133" font-family="Calibri" font-size="7.5" fill="rgb(0,0,0)" text-anchor="middle">8</text>
<polygon points="172.5,308.3 180.5,308.3 180.5,314.3 172.5,314.3" fill="rgb(240,235,224)"/><text xml:space="preserve" x="176.5" y="314.133" font-family="Calibri" font-size="7.5" fill="rgb(0,0,0)" text-anchor="middle">8</text>
<polygon points="190.5,308.3 196.5,308.3 196.5,314.3 190.5,314.3" fill="rgb(255,235,235)"/>
<polygon points="196.5,308.3 202.5,308.3 202.5,314.3 196.5,314.3" fill="rgb(255,182,182)"/>
<polygon points="202.5,308.3 208.5,308.3 208.5,314.3 202.5,314.3" fill="rgb(250,250,255)"/>
<polygon points="208.5,308.3 214.5,308.3 214.5,314.3 208.5,314.3" fill="rgb(206,206,255)"/>
<polygon points="214.5,308.3 220.5,308.3 220.5,314.3 214.5,314.3" fill="rgb(255,179,179)"/>
<polygon points="220.5,308.3 226.5,308.3 226.5,314.3 220.5,314.3" fill="rgb(197,197,255)"/>
<polygon points="226.5,308.3 232.5,308.3 232.5,314.3 226.5,314.3" fill="rgb(211,211,255)"/>
<polygon points="232.5,308.3 238.5,308.3 238.5,314.3 232.5,314.3" fill="rgb(179,179,255)"/>
<polygon points="248.5,308.3 254.5,308.3 254.5,314.3 248.5,314.3" fill="rgb(255,240,240)"/>
<polygon points="254.5,308.3 260.5,308.3 260.5,314.3 254.5,314.3" fill="rgb(255,190,190)"/>
<polygon points="260.5,308.3 266.5,308.3 266.5,314.3 260.5,314.3" fill="rgb(208,208,255)"/>
<polygon points="266.5,308.3 272.5,308.3 272.5,314.3 266.5,314.3" fill="rgb(238,238,255)"/>
<polygon points="272.5,308.3 278.5,308.3 278.5,314.3 272.5,314.3" fill="rgb(255,196,196)"/>
<polygon points="278.5,308.3 284.5,308.3 284.5,314.3 278.5,314.3" fill="rgb(219,219,255)"/>
<polygon points="284.5,308.3 290.5,308.3 290.5,314.3 284.5,314.3" fill="rgb(240,240,255)"/>
<polygon points="290.5,308.3 296.5,308.3 296.5,314.3 290.5,314.3" fill="rgb(148,148,255)"/>
<polygon points="306.5,308.3 312.5,308.3 312.5,314.3 306.5,314.3" fill="rgb(255,223,223)"/>
<polygon points="312.5,308.3 318.5,308.3 318.5,314.3 312.5,314.3" fill="rgb(255,226,226)"/>
<polygon points="318.5,308.3 324.5,308.3 324.5,314.3 318.5,314.3" fill="rgb(177,177,255)"/>
<polygon points="324.5,308.3 330.5,308.3 330.5,314.3 324.5,314.3" fill="rgb(175,175,255)"/>
<polygon points="330.5,308.3 336.5,308.3 336.5,314.3 330.5,314.3" fill="rgb(254,239,239)"/>
<polygon points="336.5,308.3 342.5,308.3 342.5,314.3 336.5,314.3" fill="rgb(254,254,254)"/>
<polygon points="342.5,308.3 348.5,308.3 348.5,314.3 342.5,314.3" fill="rgb(201,201,255)"/>
<polygon points="348.5,308.3 354.5,308.3 354.5,314.3 348.5,314.3" fill="rgb(219,219,255)"/>
<polygon points="156.5,314.3 164.5,314.3 164.5,320.3 156.5,320.3" fill="rgb(112,189,182)"/><text xml:space="preserve" x="160.5" y="320.133" font-family="Calibri" font-size="7.5" fill="rgb(0,0,0)" text-anchor="middle">1</text>
<polygon points="164.5,314.3 172.5,314.3 172.5,320.3 164.5,320.3" fill="rgb(240,235,224)"/><text xml:space="preserve" x="168.5" y="320.133" font-family="Calibri" font-size="7.5" fill="rgb(0,0,0)" text-anchor="middle">8</text>
<polygon points="172.5,314.3 180.5,314.3 180.5,320.3 172.5,320.3" fill="rgb(240,235,224)"/><text xml:space="preserve" x="176.5" y="320.133" font-family="Calibri" font-size="7.5" fill="rgb(0,0,0)" text-anchor="middle">8</text>
<polygon points="190.5,314.3 196.5,314.3 196.5,320.3 190.5,320.3" fill="rgb(255,164,164)"/>
<polygon points="196.5,314.3 202.5,314.3 202.5,320.3 196.5,320.3" fill="rgb(255,193,193)"/>
<polygon points="202.5,314.3 208.5,314.3 208.5,320.3 202.5,320.3" fill="rgb(198,198,255)"/>
<polygon points="208.5,314.3 214.5,314.3 214.5,320.3 208.5,320.3" fill="rgb(219,219,255)"/>
<polygon points="214.5,314.3 220.5,314.3 220.5,320.3 214.5,320.3" fill="rgb(255,223,223)"/>
<polygon points="220.5,314.3 226.5,314.3 226.5,320.3 220.5,320.3" fill="rgb(157,157,255)"/>
<polygon points="226.5,314.3 232.5,314.3 232.5,320.3 226.5,320.3" fill="rgb(198,198,255)"/>
<polygon points="232.5,314.3 238.5,314.3 238.5,320.3 232.5,320.3" fill="rgb(191,191,255)"/>
<polygon points="248.5,314.3 254.5,314.3 254.5,320.3 248.5,320.3" fill="rgb(255,223,223)"/>
<polygon points="254.5,314.3 260.5,314.3 260.5,320.3 254.5,320.3" fill="rgb(250,250,255)"/>
<polygon points="260.5,314.3 266.5,314.3 266.5,320.3 260.5,320.3" fill="rgb(224,224,255)"/>
<polygon points="266.5,314.3 272.5,314.3 272.5,320.3 266.5,320.3" fill="rgb(201,201,255)"/>
<polygon points="272.5,314.3 278.5,314.3 278.5,320.3 272.5,320.3" fill="rgb(255,240,240)"/>
<polygon points="278.5,314.3 284.5,314.3 284.5,320.3 278.5,320.3" fill="rgb(232,232,255)"/>
<polygon points="284.5,314.3 290.5,314.3 290.5,320.3 284.5,320.3" fill="rgb(254,212,212)"/>
<polygon points="290.5,314.3 296.5,314.3 296.5,320.3 290.5,320.3" fill="rgb(237,237,255)"/>
<polygon points="306.5,314.3 312.5,314.3 312.5,320.3 306.5,320.3" fill="rgb(255,186,186)"/>
<polygon points="312.5,314.3 318.5,314.3 318.5,320.3 312.5,320.3" fill="rgb(255,250,250)"/>
<polygon points="318.5,314.3 324.5,314.3 324.5,320.3 318.5,320.3" fill="rgb(213,213,255)"/>
<polygon points="324.5,314.3 330.5,314.3 330.5,320.3 324.5,320.3" fill="rgb(255,245,245)"/>
<polygon points="330.5,314.3 336.5,314.3 336.5,320.3 330.5,320.3" fill="rgb(255,195,195)"/>
<polygon points="336.5,314.3 342.5,314.3 342.5,320.3 336.5,320.3" fill="rgb(191,191,255)"/>
<polygon points="342.5,314.3 348.5,314.3 348.5,320.3 342.5,320.3" fill="rgb(197,197,255)"/>
<polygon points="348.5,314.3 354.5,314.3 354.5,320.3 348.5,320.3" fill="rgb(224,224,255)"/>
<polygon points="156.5,320.3 164.5,320.3 164.5,326.3 156.5,326.3" fill="rgb(112,189,182)"/><text xml:space="preserve" x="160.5" y="326.133" font-family="Calibri" font-size="7.5" fill="rgb(0,0,0)" text-anchor="middle">1</text>
<polygon points="164.5,320.3 172.5,320.3 172.5,326.3 164.5,326.3" fill="rgb(240,235,224)"/><text xml:space="preserve" x="168.5" y="326.133" font-family="Calibri" font-size="7.5" fill="rgb(0,0,0)" text-anchor="middle">8</text>
<polygon points="172.5,320.3 180.5,320.3 180.5,326.3 172.5,326.3" fill="rgb(240,235,224)"/><text xml:space="preserve" x="176.5" y="326.133" font-family="Calibri" font-size="7.5" fill="rgb(0,0,0)" text-anchor="middle">8</text>
<polygon points="190.5,320.3 196.5,320.3 196.5,326.3 190.5,326.3" fill="rgb(255,182,182)"/>
<polygon points="196.5,320.3 202.5,320.3 202.5,326.3 196.5,326.3" fill="rgb(255,174,174)"/>
<polygon points="202.5,320.3 208.5,320.3 208.5,326.3 202.5,326.3" fill="rgb(246,246,255)"/>
<polygon points="208.5,320.3 214.5,320.3 214.5,326.3 208.5,326.3" fill="rgb(216,216,255)"/>
<polygon points="214.5,320.3 220.5,320.3 220.5,326.3 214.5,326.3" fill="rgb(255,171,171)"/>
<polygon points="220.5,320.3 226.5,320.3 226.5,326.3 220.5,326.3" fill="rgb(156,156,255)"/>
<polygon points="226.5,320.3 232.5,320.3 232.5,326.3 226.5,326.3" fill="rgb(200,200,255)"/>
<polygon points="232.5,320.3 238.5,320.3 238.5,326.3 232.5,326.3" fill="rgb(150,150,255)"/>
<polygon points="248.5,320.3 254.5,320.3 254.5,326.3 248.5,326.3" fill="rgb(255,221,221)"/>
<polygon points="254.5,320.3 260.5,320.3 260.5,326.3 254.5,326.3" fill="rgb(255,202,202)"/>
<polygon points="260.5,320.3 266.5,320.3 266.5,326.3 260.5,326.3" fill="rgb(217,217,255)"/>
<polygon points="266.5,320.3 272.5,320.3 272.5,326.3 266.5,326.3" fill="rgb(255,242,242)"/>
<polygon points="272.5,320.3 278.5,320.3 278.5,326.3 272.5,326.3" fill="rgb(255,234,234)"/>
<polygon points="278.5,320.3 284.5,320.3 284.5,326.3 278.5,326.3" fill="rgb(249,249,255)"/>
<polygon points="284.5,320.3 290.5,320.3 290.5,326.3 284.5,326.3" fill="rgb(200,200,255)"/>
<polygon points="290.5,320.3 296.5,320.3 296.5,326.3 290.5,326.3" fill="rgb(226,226,255)"/>
<polygon points="306.5,320.3 312.5,320.3 312.5,326.3 306.5,326.3" fill="rgb(255,200,200)"/>
<polygon points="312.5,320.3 318.5,320.3 318.5,326.3 312.5,326.3" fill="rgb(255,208,208)"/>
<polygon points="318.5,320.3 324.5,320.3 324.5,326.3 318.5,326.3" fill="rgb(224,224,255)"/>
<polygon points="324.5,320.3 330.5,320.3 330.5,326.3 324.5,326.3" fill="rgb(238,238,255)"/>
<polygon points="330.5,320.3 336.5,320.3 336.5,326.3 330.5,326.3" fill="rgb(234,234,255)"/>
<polygon points="336.5,320.3 342.5,320.3 342.5,326.3 336.5,326.3" fill="rgb(251,251,255)"/>
<polygon points="342.5,320.3 348.5,320.3 348.5,326.3 342.5,326.3" fill="rgb(225,225,255)"/>
<polygon points="348.5,320.3 354.5,320.3 354.5,326.3 348.5,326.3" fill="rgb(162,162,255)"/>
<polygon points="156.5,326.3 164.5,326.3 164.5,332.3 156.5,332.3" fill="rgb(112,189,182)"/><text xml:space="preserve" x="160.5" y="332.133" font-family="Calibri" font-size="7.5" fill="rgb(0,0,0)" text-anchor="middle">1</text>
<polygon points="164.5,326.3 172.5,326.3 172.5,332.3 164.5,332.3" fill="rgb(240,235,224)"/><text xml:space="preserve" x="168.5" y="332.133" font-family="Calibri" font-size="7.5" fill="rgb(0,0,0)" text-anchor="middle">8</text>
<polygon points="172.5,326.3 180.5,326.3 180.5,332.3 172.5,332.3" fill="rgb(240,235,224)"/><text xml:space="preserve" x="176.5" y="332.133" font-family="Calibri" font-size="7.5" fill="rgb(0,0,0)" text-anchor="middle">8</text>
<polygon points="190.5,326.3 196.5,326.3 196.5,332.3 190.5,332.3" fill="rgb(254,175,175)"/>
<polygon points="196.5,326.3 202.5,326.3 202.5,332.3 196.5,332.3" fill="rgb(255,179,179)"/>
<polygon points="202.5,326.3 208.5,326.3 208.5,332.3 202.5,332.3" fill="rgb(255,219,219)"/>
<polygon points="208.5,326.3 214.5,326.3 214.5,332.3 208.5,332.3" fill="rgb(254,254,255)"/>
<polygon points="214.5,326.3 220.5,326.3 220.5,332.3 214.5,332.3" fill="rgb(255,169,169)"/>
<polygon points="220.5,326.3 226.5,326.3 226.5,332.3 220.5,332.3" fill="rgb(250,250,255)"/>
<polygon points="226.5,326.3 232.5,326.3 232.5,332.3 226.5,332.3" fill="rgb(205,205,255)"/>
<polygon points="232.5,326.3 238.5,326.3 238.5,332.3 232.5,332.3" fill="rgb(150,150,255)"/>
<polygon points="248.5,326.3 254.5,326.3 254.5,332.3 248.5,332.3" fill="rgb(255,225,225)"/>
<polygon points="254.5,326.3 260.5,326.3 260.5,332.3 254.5,332.3" fill="rgb(255,216,216)"/>
<polygon points="260.5,326.3 266.5,326.3 266.5,332.3 260.5,332.3" fill="rgb(204,204,255)"/>
<polygon points="266.5,326.3 272.5,326.3 272.5,332.3 266.5,332.3" fill="rgb(203,203,255)"/>
<polygon points="272.5,326.3 278.5,326.3 278.5,332.3 272.5,332.3" fill="rgb(229,229,255)"/>
<polygon points="278.5,326.3 284.5,326.3 284.5,332.3 278.5,332.3" fill="rgb(197,197,255)"/>
<polygon points="284.5,326.3 290.5,326.3 290.5,332.3 284.5,332.3" fill="rgb(218,218,255)"/>
<polygon points="290.5,326.3 296.5,326.3 296.5,332.3 290.5,332.3" fill="rgb(199,199,255)"/>
<polygon points="306.5,326.3 312.5,326.3 312.5,332.3 306.5,332.3" fill="rgb(255,206,206)"/>
<polygon points="312.5,326.3 318.5,326.3 318.5,332.3 312.5,332.3" fill="rgb(255,208,208)"/>
<polygon points="318.5,326.3 324.5,326.3 324.5,332.3 318.5,332.3" fill="rgb(169,169,255)"/>
<polygon points="324.5,326.3 330.5,326.3 330.5,332.3 324.5,332.3" fill="rgb(184,184,255)"/>
<polygon points="330.5,326.3 336.5,326.3 336.5,332.3 330.5,332.3" fill="rgb(241,241,255)"/>
<polygon points="336.5,326.3 342.5,326.3 342.5,332.3 336.5,332.3" fill="rgb(190,190,255)"/>
<polygon points="342.5,326.3 348.5,326.3 348.5,332.3 342.5,332.3" fill="rgb(187,187,255)"/>
<polygon points="348.5,326.3 354.5,326.3 354.5,332.3 348.5,332.3" fill="rgb(186,186,255)"/>
<polygon points="156.5,332.3 164.5,332.3 164.5,338.3 156.5,338.3" fill="rgb(112,189,182)"/><text xml:space="preserve" x="160.5" y="338.133" font-family="Calibri" font-size="7.5" fill="rgb(0,0,0)" text-anchor="middle">1</text>
<polygon points="164.5,332.3 172.5,332.3 172.5,338.3 164.5,338.3" fill="rgb(240,235,224)"/><text xml:space="preserve" x="168.5" y="338.133" font-family="Calibri" font-size="7.5" fill="rgb(0,0,0)" text-anchor="middle">8</text>
<polygon points="172.5,332.3 180.5,332.3 180.5,338.3 172.5,338.3" fill="rgb(240,235,224)"/><text xml:space="preserve" x="176.5" y="338.133" font-family="Calibri" font-size="7.5" fill="rgb(0,0,0)" text-anchor="middle">8</text>
<polygon points="190.5,332.3 196.5,332.3 196.5,338.3 190.5,338.3" fill="rgb(255,171,171)"/>
<polygon points="196.5,332.3 202.5,332.3 202.5,338.3 196.5,338.3" fill="rgb(255,128,128)"/>
<polygon points="202.5,332.3 208.5,332.3 208.5,338.3 202.5,338.3" fill="rgb(255,225,225)"/>
<polygon points="208.5,332.3 214.5,332.3 214.5,338.3 208.5,338.3" fill="rgb(241,241,255)"/>
<polygon points="214.5,332.3 220.5,332.3 220.5,338.3 214.5,338.3" fill="rgb(255,201,201)"/>
<polygon points="220.5,332.3 226.5,332.3 226.5,338.3 220.5,338.3" fill="rgb(113,113,255)"/>
<polygon points="226.5,332.3 232.5,332.3 232.5,338.3 226.5,338.3" fill="rgb(175,175,255)"/>
<polygon points="232.5,332.3 238.5,332.3 238.5,338.3 232.5,338.3" fill="rgb(165,165,255)"/>
<polygon points="248.5,332.3 254.5,332.3 254.5,338.3 248.5,338.3" fill="rgb(255,214,214)"/>
<polygon points="254.5,332.3 260.5,332.3 260.5,338.3 254.5,338.3" fill="rgb(255,216,216)"/>
<polygon points="260.5,332.3 266.5,332.3 266.5,338.3 260.5,338.3" fill="rgb(220,220,255)"/>
<polygon points="266.5,332.3 272.5,332.3 272.5,338.3 266.5,338.3" fill="rgb(219,219,255)"/>
<polygon points="272.5,332.3 278.5,332.3 278.5,338.3 272.5,338.3" fill="rgb(255,245,245)"/>
<polygon points="278.5,332.3 284.5,332.3 284.5,338.3 278.5,338.3" fill="rgb(225,225,255)"/>
<polygon points="284.5,332.3 290.5,332.3 290.5,338.3 284.5,338.3" fill="rgb(194,194,255)"/>
<polygon points="290.5,332.3 296.5,332.3 296.5,338.3 290.5,338.3" fill="rgb(200,200,255)"/>
<polygon points="306.5,332.3 312.5,332.3 312.5,338.3 306.5,338.3" fill="rgb(255,164,164)"/>
<polygon points="312.5,332.3 318.5,332.3 318.5,338.3 312.5,338.3" fill="rgb(255,197,197)"/>
<polygon points="318.5,332.3 324.5,332.3 324.5,338.3 318.5,338.3" fill="rgb(175,175,255)"/>
<polygon points="324.5,332.3 330.5,332.3 330.5,338.3 324.5,338.3" fill="rgb(235,235,255)"/>
<polygon points="330.5,332.3 336.5,332.3 336.5,338.3 330.5,338.3" fill="rgb(255,243,243)"/>
<polygon points="336.5,332.3 342.5,332.3 342.5,338.3 336.5,338.3" fill="rgb(206,206,255)"/>
<polygon points="342.5,332.3 348.5,332.3 348.5,338.3 342.5,338.3" fill="rgb(207,207,255)"/>
<polygon points="348.5,332.3 354.5,332.3 354.5,338.3 348.5,338.3" fill="rgb(224,224,255)"/>
<polygon points="156.5,338.3 164.5,338.3 164.5,344.3 156.5,344.3" fill="rgb(112,189,182)"/><text xml:space="preserve" x="160.5" y="344.133" font-family="Calibri" font-size="7.5" fill="rgb(0,0,0)" text-anchor="middle">1</text>
<polygon points="164.5,338.3 172.5,338.3 172.5,344.3 164.5,344.3" fill="rgb(240,235,224)"/><text xml:space="preserve" x="168.5" y="344.133" font-family="Calibri" font-size="7.5" fill="rgb(0,0,0)" text-anchor="middle">8</text>
<polygon points="172.5,338.3 180.5,338.3 180.5,344.3 172.5,344.3" fill="rgb(240,235,224)"/><text xml:space="preserve" x="176.5" y="344.133" font-family="Calibri" font-size="7.5" fill="rgb(0,0,0)" text-anchor="middle">8</text>
<polygon points="190.5,338.3 196.5,338.3 196.5,344.3 190.5,344.3" fill="rgb(255,211,211)"/>
<polygon points="196.5,338.3 202.5,338.3 202.5,344.3 196.5,344.3" fill="rgb(255,217,217)"/>
<polygon points="202.5,338.3 208.5,338.3 208.5,344.3 202.5,344.3" fill="rgb(219,219,255)"/>
<polygon points="208.5,338.3 214.5,338.3 214.5,344.3 208.5,344.3" fill="rgb(181,181,255)"/>
<polygon points="214.5,338.3 220.5,338.3 220.5,344.3 214.5,344.3" fill="rgb(255,177,177)"/>
<polygon points="220.5,338.3 226.5,338.3 226.5,344.3 220.5,344.3" fill="rgb(93,93,255)"/>
<polygon points="226.5,338.3 232.5,338.3 232.5,344.3 226.5,344.3" fill="rgb(174,174,255)"/>
<polygon points="232.5,338.3 238.5,338.3 238.5,344.3 232.5,344.3" fill="rgb(146,146,255)"/>
<polygon points="248.5,338.3 254.5,338.3 254.5,344.3 248.5,344.3" fill="rgb(255,210,210)"/>
<polygon points="254.5,338.3 260.5,338.3 260.5,344.3 254.5,344.3" fill="rgb(255,242,242)"/>
<polygon points="260.5,338.3 266.5,338.3 266.5,344.3 260.5,344.3" fill="rgb(250,250,255)"/>
<polygon points="266.5,338.3 272.5,338.3 272.5,344.3 266.5,344.3" fill="rgb(255,238,238)"/>
<polygon points="272.5,338.3 278.5,338.3 278.5,344.3 272.5,344.3" fill="rgb(254,188,188)"/>
<polygon points="278.5,338.3 284.5,338.3 284.5,344.3 278.5,344.3" fill="rgb(254,254,255)"/>
<polygon points="284.5,338.3 290.5,338.3 290.5,344.3 284.5,344.3" fill="rgb(215,215,255)"/>
<polygon points="290.5,338.3 296.5,338.3 296.5,344.3 290.5,344.3" fill="rgb(154,154,255)"/>
<polygon points="306.5,338.3 312.5,338.3 312.5,344.3 306.5,344.3" fill="rgb(254,198,198)"/>
<polygon points="312.5,338.3 318.5,338.3 318.5,344.3 312.5,344.3" fill="rgb(255,248,248)"/>
<polygon points="318.5,338.3 324.5,338.3 324.5,344.3 318.5,344.3" fill="rgb(216,216,255)"/>
<polygon points="324.5,338.3 330.5,338.3 330.5,344.3 324.5,344.3" fill="rgb(210,210,255)"/>
<polygon points="330.5,338.3 336.5,338.3 336.5,344.3 330.5,344.3" fill="rgb(255,232,232)"/>
<polygon points="336.5,338.3 342.5,338.3 342.5,344.3 336.5,344.3" fill="rgb(255,211,211)"/>
<polygon points="342.5,338.3 348.5,338.3 348.5,344.3 342.5,344.3" fill="rgb(174,174,255)"/>
<polygon points="348.5,338.3 354.5,338.3 354.5,344.3 348.5,344.3" fill="rgb(165,165,255)"/>
<polygon points="156.5,344.3 164.5,344.3 164.5,350.3 156.5,350.3" fill="rgb(112,189,182)"/><text xml:space="preserve" x="160.5" y="350.133" font-family="Calibri" font-size="7.5" fill="rgb(0,0,0)" text-anchor="middle">1</text>
<polygon points="164.5,344.3 172.5,344.3 172.5,350.3 164.5,350.3" fill="rgb(240,235,224)"/><text xml:space="preserve" x="168.5" y="350.133" font-family="Calibri" font-size="7.5" fill="rgb(0,0,0)" text-anchor="middle">8</text>
<polygon points="172.5,344.3 180.5,344.3 180.5,350.3 172.5,350.3" fill="rgb(240,235,224)"/><text xml:space="preserve" x="176.5" y="350.133" font-family="Calibri" font-size="7.5" fill="rgb(0,0,0)" text-anchor="middle">8</text>
<polygon points="190.5,344.3 196.5,344.3 196.5,350.3 190.5,350.3" fill="rgb(255,174,174)"/>
<polygon points="196.5,344.3 202.5,344.3 202.5,350.3 196.5,350.3" fill="rgb(255,145,145)"/>
<polygon points="202.5,344.3 208.5,344.3 208.5,350.3 202.5,350.3" fill="rgb(255,225,225)"/>
<polygon points="208.5,344.3 214.5,344.3 214.5,350.3 208.5,350.3" fill="rgb(255,216,216)"/>
<polygon points="214.5,344.3 220.5,344.3 220.5,350.3 214.5,350.3" fill="rgb(255,191,191)"/>
<polygon points="220.5,344.3 226.5,344.3 226.5,350.3 220.5,350.3" fill="rgb(154,154,255)"/>
<polygon points="226.5,344.3 232.5,344.3 232.5,350.3 226.5,350.3" fill="rgb(147,147,255)"/>
<polygon points="232.5,344.3 238.5,344.3 238.5,350.3 232.5,350.3" fill="rgb(168,168,255)"/>
<polygon points="248.5,344.3 254.5,344.3 254.5,350.3 248.5,350.3" fill="rgb(255,219,219)"/>
<polygon points="254.5,344.3 260.5,344.3 260.5,350.3 254.5,350.3" fill="rgb(255,202,202)"/>
<polygon points="260.5,344.3 266.5,344.3 266.5,350.3 260.5,350.3" fill="rgb(255,237,237)"/>
<polygon points="266.5,344.3 272.5,344.3 272.5,350.3 266.5,350.3" fill="rgb(231,231,255)"/>
<polygon points="272.5,344.3 278.5,344.3 278.5,350.3 272.5,350.3" fill="rgb(239,239,255)"/>
<polygon points="278.5,344.3 284.5,344.3 284.5,350.3 278.5,350.3" fill="rgb(217,217,255)"/>
<polygon points="284.5,344.3 290.5,344.3 290.5,350.3 284.5,350.3" fill="rgb(178,178,255)"/>
<polygon points="290.5,344.3 296.5,344.3 296.5,350.3 290.5,350.3" fill="rgb(220,220,255)"/>
<polygon points="306.5,344.3 312.5,344.3 312.5,350.3 306.5,350.3" fill="rgb(255,231,231)"/>
<polygon points="312.5,344.3 318.5,344.3 318.5,350.3 312.5,350.3" fill="rgb(254,174,174)"/>
<polygon points="318.5,344.3 324.5,344.3 324.5,350.3 318.5,350.3" fill="rgb(174,174,255)"/>
<polygon points="324.5,344.3 330.5,344.3 330.5,350.3 324.5,350.3" fill="rgb(182,182,255)"/>
<polygon points="330.5,344.3 336.5,344.3 336.5,350.3 330.5,350.3" fill="rgb(239,239,255)"/>
<polygon points="336.5,344.3 342.5,344.3 342.5,350.3 336.5,350.3" fill="rgb(168,168,255)"/>
<polygon points="342.5,344.3 348.5,344.3 348.5,350.3 342.5,350.3" fill="rgb(180,180,255)"/>
<polygon points="348.5,344.3 354.5,344.3 354.5,350.3 348.5,350.3" fill="rgb(219,219,255)"/>
<polygon points="156.5,212.3 180.5,212.3 180.5,350.3 156.5,350.3" fill="none" stroke="black" stroke-width="1"/>
<polygon points="190.5,212.3 238.5,212.3 238.5,350.3 190.5,350.3" fill="none" stroke="black" stroke-width="1"/>
<polygon points="248.5,212.3 296.5,212.3 296.5,350.3 248.5,350.3" fill="none" stroke="black" stroke-width="1"/>
<polygon points="306.5,212.3 354.5,212.3 354.5,350.3 306.5,350.3" fill="none" stroke="black" stroke-width="1"/>
<text xml:space="preserve" x="198.25" y="382.633" font-family="Calibri" font-size="6" text-anchor="middle">moduleID</text>
<polygon points="88.25,390.3 108.25,390.3 108.25,410.3 88.25,410.3" fill="rgb(250,250,250)"/><polygon points="88.25,390.3 108.25,390.3 108.25,410.3 88.25,410.3" fill="none" stroke="black" stroke-width="1"/><text xml:space="preserve" x="98.25" y="403.133" font-family="Calibri" font-size="7.5" fill="rgb(0,0,0)" text-anchor="middle">-2.0</text>
<polygon points="108.25,390.3 128.25,390.3 128.25,410.3 108.25,410.3" fill="rgb(156,210,205)"/><polygon points="108.25,390.3 128.25,390.3 128.25,410.3 108.25,410.3" fill="none" stroke="black" stroke-width="1"/><text xml:space="preserve" x="118.25" y="403.133" font-family="Calibri" font-size="7.5" fill="rgb(0,0,0)" text-anchor="middle">-0.4</text>
<polygon points="128.25,390.3 148.25,390.3 148.25,410.3 128.25,410.3" fill="rgb(116,191,184)"/><polygon points="128.25,390.3 148.25,390.3 148.25,410.3 128.25,410.3" fill="none" stroke="black" stroke-width="1"/><text xml:space="preserve" x="138.25" y="403.133" font-family="Calibri" font-size="7.5" fill="rgb(0,0,0)" text-anchor="middle">1.2</text>
<polygon points="148.25,390.3 168.25,390.3 168.25,410.3 148.25,410.3" fill="rgb(152,206,201)"/><polygon points="148.25,390.3 168.25,390.3 168.25,410.3 148.25,410.3" fill="none" stroke="black" stroke-width="1"/><text xml:space="preserve" x="158.25" y="403.133" font-family="Calibri" font-size="7.5" fill="rgb(0,0,0)" text-anchor="middle">2.8</text>
<polygon points="168.25,390.3 188.25,390.3 188.25,410.3 168.25,410.3" fill="rgb(187,220,217)"/><polygon points="168.25,390.3 188.25,390.3 188.25,410.3 168.25,410.3" fill="none" stroke="black" stroke-width="1"/><text xml:space="preserve" x="178.25" y="403.133" font-family="Calibri" font-size="7.5" fill="rgb(0,0,0)" text-anchor="middle">4.4</text>
<polygon points="188.25,390.3 208.25,390.3 208.25,410.3 188.25,410.3" fill="rgb(222,235,234)"/><polygon points="188.25,390.3 208.25,390.3 208.25,410.3 188.25,410.3" fill="none" stroke="black" stroke-width="1"/><text xml:space="preserve" x="198.25" y="403.133" font-family="Calibri" font-size="7.5" fill="rgb(0,0,0)" text-anchor="middle">6.0</text>
<polygon points="208.25,390.3 228.25,390.3 228.25,410.3 208.25,410.3" fill="rgb(242,239,232)"/><polygon points="208.25,390.3 228.25,390.3 228.25,410.3 208.25,410.3" fill="none" stroke="black" stroke-width="1"/><text xml:space="preserve" x="218.25" y="403.133" font-family="Calibri" font-size="7.5" fill="rgb(0,0,0)" text-anchor="middle">7.6</text>
<polygon points="228.25,390.3 248.25,390.3 248.25,410.3 228.25,410.3" fill="rgb(235,224,199)"/><polygon points="228.25,390.3 248.25,390.3 248.25,410.3 228.25,410.3" fill="none" stroke="black" stroke-width="1"/><text xml:space="preserve" x="238.25" y="403.133" font-family="Calibri" font-size="7.5" fill="rgb(0,0,0)" text-anchor="middle">9.2</text>
<polygon points="248.25,390.3 268.25,390.3 268.25,410.3 248.25,410.3" fill="rgb(229,209,166)"/><polygon points="248.25,390.3 268.25,390.3 268.25,410.3 248.25,410.3" fill="none" stroke="black" stroke-width="1"/><text xml:space="preserve" x="258.25" y="403.133" font-family="Calibri" font-size="7.5" fill="rgb(0,0,0)" text-anchor="middle">10.8</text>
<polygon points="268.25,390.3 288.25,390.3 288.25,410.3 268.25,410.3" fill="rgb(222,194,133)"/><polygon points="268.25,390.3 288.25,390.3 288.25,410.3 268.25,410.3" fill="none" stroke="black" stroke-width="1"/><text xml:space="preserve" x="278.25" y="403.133" font-family="Calibri" font-size="7.5" fill="rgb(0,0,0)" text-anchor="middle">12.4</text>
<polygon points="288.25,390.3 308.25,390.3 308.25,410.3 288.25,410.3" fill="rgb(216,179,101)"/><polygon points="288.25,390.3 308.25,390.3 308.25,410.3 288.25,410.3" fill="none" stroke="black" stroke-width="1"/><text xml:space="preserve" x="298.25" y="403.133" font-family="Calibri" font-size="7.5" fill="rgb(0,0,0)" text-anchor="middle">14.0</text>
<text xml:space="preserve" x="198.25" y="442.633" font-family="Calibri" font-size="6" text-anchor="middle">marklevel</text>
<polygon points="88.25,450.3 108.25,450.3 108.25,470.3 88.25,470.3" fill="rgb(0,0,255)"/><polygon points="88.25,450.3 108.25,450.3 108.25,470.3 88.25,470.3" fill="none" stroke="black" stroke-width="1"/><text xml:space="preserve" x="98.25" y="463.133" font-family="Calibri" font-size="7.5" fill="rgb(255,255,255)" text-anchor="middle">-2.0</text>
<polygon points="108.25,450.3 128.25,450.3 128.25,470.3 108.25,470.3" fill="rgb(50,50,255)"/><polygon points="108.25,450.3 128.25,450.3 128.25,470.3 108.25,470.3" fill="none" stroke="black" stroke-width="1"/><text xml:space="preserve" x="118.25" y="463.133" font-family="Calibri" font-size="7.5" fill="rgb(255,255,255)" text-anchor="middle">-1.6</text>
<polygon points="128.25,450.3 148.25,450.3 148.25,470.3 128.25,470.3" fill="rgb(102,102,255)"/><polygon points="128.25,450.3 148.25,450.3 148.25,470.3 128.25,470.3" fill="none" stroke="black" stroke-width="1"/><text xml:space="preserve" x="138.25" y="463.133" font-family="Calibri" font-size="7.5" fill="rgb(255,255,255)" text-anchor="middle">-1.2</text>
<polygon points="148.25,450.3 168.25,450.3 168.25,470.3 148.25,470.3" fill="rgb(153,153,255)"/><polygon points="148.25,450.3 168.25,450.3 168.25,470.3 148.25,470.3" fill="none" stroke="black" stroke-width="1"/><text xml:space="preserve" x="158.25" y="463.133" font-family="Calibri" font-size="7.5" fill="rgb(0,0,0)" text-anchor="middle">-0.8</text>
<polygon points="168.25,450.3 188.25,450.3 188.25,470.3 168.25,470.3" fill="rgb(204,204,255)"/><polygon points="168.25,450.3 188.25,450.3 188.25,470.3 168.25,470.3" fill="none" stroke="black" stroke-width="1"/><text xml:space="preserve" x="178.25" y="463.133" font-family="Calibri" font-size="7.5" fill="rgb(0,0,0)" text-anchor="middle">-0.4</text>
<polygon points="188.25,450.3 208.25,450.3 208.25,470.3 188.25,470.3" fill="rgb(255,255,255)"/><polygon points="188.25,450.3 208.25,450.3 208.25,470.3 188.25,470.3" fill="none" stroke="black" stroke-width="1"/><text xml:space="preserve" x="198.25" y="463.133" font-family="Calibri" font-size="7.5" fill="rgb(0,0,0)" text-anchor="middle">0.0</text>
<polygon points="208.25,450.3 228.25,450.3 228.25,470.3 208.25,470.3" fill="rgb(255,204,204)"/><polygon points="208.25,450.3 228.25,450.3 228.25,470.3 208.25,470.3" fill="none" stroke="black" stroke-width="1"/><text xml:space="preserve" x="218.25" y="463.133" font-family="Calibri" font-size="7.5" fill="rgb(0,0,0)" text-anchor="middle">0.4</text>
<polygon points="228.25,450.3 248.25,450.3 248.25,470.3 228.25,470.3" fill="rgb(255,153,153)"/><polygon points="228.25,450.3 248.25,450.3 248.25,470.3 228.25,470.3" fill="none" stroke="black" stroke-width="1"/><text xml:space="preserve" x="238.25" y="463.133" font-family="Calibri" font-size="7.5" fill="rgb(0,0,0)" text-anchor="middle">0.8</text>
<polygon points="248.25,450.3 268.25,450.3 268.25,470.3 248.25,470.3" fill="rgb(255,102,102)"/><polygon points="248.25,450.3 268.25,450.3 268.25,470.3 248.25,470.3" fill="none" stroke="black" stroke-width="1"/><text xml:space="preserve" x="258.25" y="463.133" font-family="Calibri" font-size="7.5" fill="rgb(0,0,0)" text-anchor="middle">1.2</text>
<polygon points="268.25,450.3 288.25,450.3 288.25,470.3 268.25,470.3" fill="rgb(255,50,50)"/><polygon points="268.25,450.3 288.25,450.3 288.25,470.3 268.25,470.3" fill="none" stroke="black" stroke-width="1"/><text xml:space="preserve" x="278.25" y="463.133" font-family="Calibri" font-size="7.5" fill="rgb(255,255,255)" text-anchor="middle">1.6</text>
<polygon points="288.25,450.3 308.25,450.3 308.25,470.3 288.25,470.3" fill="rgb(255,0,0)"/><polygon points="288.25,450.3 308.25,450.3 308.25,470.3 288.25,470.3" fill="none" stroke="black" stroke-width="1"/><text xml:space="preserve" x="298.25" y="463.133" font-family="Calibri" font-size="7.5" fill="rgb(255,255,255)" text-anchor="middle">2.0</text>
</svg>
