<?xml version="1.0" standalone="no"?><!DOCTYPE svg PUBLIC "-//W3C//DTD SVG 1.1//EN" "http://www.w3.org/Graphics/SVG/1.1/DTD/svg11.dtd">
<svg width="401.3" height="418.3" version="1.1" xmlns="http://www.w3.org/2000/svg">
<text xml:space="preserve" x="157.3" y="217.633" font-family="Calibri" font-size="6" text-anchor="end">0610010D24Rik</text>
<text xml:space="preserve" x="157.3" y="223.633" font-family="Calibri" font-size="6" text-anchor="end">Rpp25</text>
<text xml:space="preserve" x="157.3" y="229.633" font-family="Calibri" font-size="6" text-anchor="end">Spint2</text>
<text xml:space="preserve" x="157.3" y="235.633" font-family="Calibri" font-size="6" text-anchor="end">Tacstd1</text>
<text xml:space="preserve" x="157.3" y="241.633" font-family="Calibri" font-size="6" text-anchor="end">Zdhhc15</text>
<text xml:space="preserve" x="157.3" y="247.633" font-family="Calibri" font-size="6" text-anchor="end">Epb4.1l4a</text>
<text xml:space="preserve" x="157.3" y="253.633" font-family="Calibri" font-size="6" text-anchor="end">BC052046</text>
<text xml:space="preserve" x="157.3" y="259.633" font-family="Calibri" font-size="6" text-anchor="end">D130058I21Rik</text>
<text xml:space="preserve" x="157.3" y="265.633" font-family="Calibri" font-size="6" text-anchor="end">Nup210</text>
<text xml:space="preserve" x="157.3" y="271.633" font-family="Calibri" font-size="6" text-anchor="end">Hap1</text>
<text xml:space="preserve" x="157.3" y="277.633" font-family="Calibri" font-size="6" text-anchor="end">1110061N23Rik</text>
<text xml:space="preserve" x="167.633" y="208.3" font-family="Calibri" font-size="6" transform="rotate(270 167.633 208.3)">ips</text>
<text xml:space="preserve" x="175.633" y="208.3" font-family="Calibri" font-size="6" transform="rotate(270 175.633 208.3)">pips</text>
<text xml:space="preserve" x="183.633" y="208.3" font-family="Calibri" font-size="6" transform="rotate(270 183.633 208.3)">mef</text>
<text xml:space="preserve" x="200.633" y="208.3" font-family="Calibri" font-size="6" transform="rotate(270 200.633 208.3)">ips_H3K4me3iPS</text>
<text xml:space="preserve" x="206.633" y="208.3" font-family="Calibri" font-size="6" transform="rotate(270 206.633 208.3)">ips_H3K9aciPS</text>
<text xml:space="preserve" x="212.633" y="208.3" font-family="Calibri" font-size="6" transform="rotate(270 212.633 208.3)">ips_H3K14aciPS</text>
<text xml:space="preserve" x="218.633" y="208.3" font-family="Calibri" font-size="6" transform="rotate(270 218.633 208.3)">ips_H3K18aciPS</text>
<text xml:space="preserve" x="224.633" y="208.3" font-family="Calibri" font-size="6" transform="rotate(270 224.633 208.3)">ips_H3K79me2iPS</text>
<text xml:space="preserve" x="230.633" y="208.3" font-family="Calibri" font-size="6" transform="rotate(270 230.633 208.3)">ips_H3K9me2iPS</text>
<text xml:space="preserve" x="236.633" y="208.3" font-family="Calibri" font-size="6" transform="rotate(270 236.633 208.3)">ips_H3K9me3iPS</text>
<text xml:space="preserve" x="242.633" y="208.3" font-family="Calibri" font-size="6" transform="rotate(270 242.633 208.3)">ips_H3K27me3iPS</text>
<text xml:space="preserve" x="258.633" y="208.3" font-family="Calibri" font-size="6" transform="rotate(270 258.633 208.3)">pips_H3K4me3pips</text>
<text xml:space="preserve" x="264.633" y="208.3" font-family="Calibri" font-size="6" transform="rotate(270 264.633 208.3)">pips_H3K9acpips</text>
<text xml:space="preserve" x="270.633" y="208.3" font-family="Calibri" font-size="6" transform="rotate(270 270.633 208.3)">pips_H3K14acpips</text>
<text xml:space="preserve" x="276.633" y="208.3" font-family="Calibri" font-size="6" transform="rotate(270 276.633 208.3)">pips_H3K18acpips</text>
<text xml:space="preserve" x="282.633" y="208.3" font-family="Calibri" font-size="6" transform="rotate(270 282.633 208.3)">pips_H3K79me2pips</text>
<text xml:space="preserve" x="288.633" y="208.3" font-family="Calibri" font-size="6" transform="rotate(270 288.633 208.3)">pips_H3K9me2pips</text>
<text xml:space="preserve" x="294.633" y="208.3" font-family="Calibri" font-size="6" transform="rotate(270 294.633 208.3)">pips_H3K9me3pips</text>
<text xml:space="preserve" x="300.633" y="208.3" font-family="Calibri" font-size="6" transform="rotate(270 300.633 208.3)">pips_H3K27me3pips</text>
<text xml:space="preserve" x="316.633" y="208.3" font-family="Calibri" font-size="6" transform="rotate(270 316.633 208.3)">mef_H3K4me3mef</text>
<text xml:space="preserve" x="322.633" y="208.3" font-family="Calibri" font-size="6" transform="rotate(270 322.633 208.3)">mef_H3K9acmef</text>
<text xml:space="preserve" x="328.633" y="208.3" font-family="Calibri" font-size="6" transform="rotate(270 328.633 208.3)">mef_H3K14acmef</text>
<text xml:space="preserve" x="334.633" y="208.3" font-family="Calibri" font-size="6" transform="rotate(270 334.633 208.3)">mef_H3K18acmef</text>
<text xml:space="preserve" x="340.633" y="208.3" font-family="Calibri" font-size="6" transform="rotate(270 340.633 208.3)">mef_H3K79me2mef</text>
<text xml:space="preserve" x="346.633" y="208.3" font-family="Calibri" font-size="6" transform="rotate(270 346.633 208.3)">mef_H3K9me2mef</text>
<text xml:space="preserve" x="352.633" y="208.3" font-family="Calibri" font-size="6" transform="rotate(270 352.633 208.3)">mef_H3K9me3mef</text>
<text xml:space="preserve" x="358.633" y="208.3" font-family="Calibri" font-size="6" transform="rotate(270 358.633 208.3)">mef_H3K27me3mef</text>
<polygon points="161.3,212.3 169.3,212.3 169.3,218.3 161.3,218.3" fill="rgb(245,245,245)"/><text xml:space="preserve" x="165.3" y="218.133" font-family="Calibri" font-size="7.5" fill="rgb(0,0,0)" text-anchor="middle">7</text>
<polygon points="169.3,212.3 177.3,212.3 177.3,218.3 169.3,218.3" fill="rgb(220,188,121)"/><text xml:space="preserve" x="173.3" y="218.133" font-family="Calibri" font-size="7.5" fill="rgb(0,0,0)" text-anchor="middle">13</text>
<polygon points="177.3,212.3 185.3,212.3 185.3,218.3 177.3,218.3" fill="rgb(228,207,162)"/><text xml:space="preserve" x="181.3" y="218.133" font-family="Calibri" font-size="7.5" fill="rgb(0,0,0)" text-anchor="middle">11</text>
<polygon points="195.3,212.3 201.3,212.3 201.3,218.3 195.3,218.3" fill="rgb(255,207,207)"/>
<polygon points="201.3,212.3 207.3,212.3 207.3,218.3 201.3,218.3" fill="rgb(255,200,200)"/>
<polygon points="207.3,212.3 213.3,212.3 213.3,218.3 207.3,218.3" fill="rgb(255,178,178)"/>
<polygon points="213.3,212.3 219.3,212.3 219.3,218.3 213.3,218.3" fill="rgb(255,158,158)"/>
<polygon points="219.3,212.3 225.3,212.3 225.3,218.3 219.3,218.3" fill="rgb(254,219,219)"/>
<polygon points="225.3,212.3 231.3,212.3 231.3,218.3 225.3,218.3" fill="rgb(186,186,255)"/>
<polygon points="231.3,212.3 237.3,212.3 237.3,218.3 231.3,218.3" fill="rgb(201,201,255)"/>
<polygon points="237.3,212.3 243.3,212.3 243.3,218.3 237.3,218.3" fill="rgb(234,234,255)"/>
<polygon points="253.3,212.3 259.3,212.3 259.3,218.3 253.3,218.3" fill="rgb(255,238,238)"/>
<polygon points="259.3,212.3 265.3,212.3 265.3,218.3 259.3,218.3" fill="rgb(255,128,128)"/>
<polygon points="265.3,212.3 271.3,212.3 271.3,218.3 265.3,218.3" fill="rgb(255,110,110)"/>
<polygon points="271.3,212.3 277.3,212.3 277.3,218.3 271.3,218.3" fill="rgb(255,88,88)"/>
<polygon points="277.3,212.3 283.3,212.3 283.3,218.3 277.3,218.3" fill="rgb(255,160,160)"/>
<polygon points="283.3,212.3 289.3,212.3 289.3,218.3 283.3,218.3" fill="rgb(232,232,255)"/>
<polygon points="289.3,212.3 295.3,212.3 295.3,218.3 289.3,218.3" fill="rgb(255,250,250)"/>
<polygon points="295.3,212.3 301.3,212.3 301.3,218.3 295.3,218.3" fill="rgb(250,250,255)"/>
<polygon points="311.3,212.3 317.3,212.3 317.3,218.3 311.3,218.3" fill="rgb(255,243,243)"/>
<polygon points="317.3,212.3 323.3,212.3 323.3,218.3 317.3,218.3" fill="rgb(207,207,255)"/>
<polygon points="323.3,212.3 329.3,212.3 329.3,218.3 323.3,218.3" fill="rgb(133,133,255)"/>
<polygon points="329.3,212.3 335.3,212.3 335.3,218.3 329.3,218.3" fill="rgb(214,214,255)"/>
<polygon points="335.3,212.3 341.3,212.3 341.3,218.3 335.3,218.3" fill="rgb(189,189,255)"/>
<polygon points="341.3,212.3 347.3,212.3 347.3,218.3 341.3,218.3" fill="rgb(149,149,255)"/>
<polygon points="347.3,212.3 353.3,212.3 353.3,218.3 347.3,218.3" fill="rgb(255,253,253)"/>
<polygon points="353.3,212.3 359.3,212.3 359.3,218.3 353.3,218.3" fill="rgb(255,125,125)"/>
<polygon points="161.3,218.3 169.3,218.3 169.3,224.3 161.3,224.3" fill="rgb(245,245,245)"/><text xml:space="preserve" x="165.3" y="224.133" font-family="Calibri" font-size="7.5" fill="rgb(0,0,0)" text-anchor="middle">7</text>
<polygon points="169.3,218.3 177.3,218.3 177.3,224.3 169.3,224.3" fill="rgb(216,179,101)"/><text xml:space="preserve" x="173.3" y="224.133" font-family="Calibri" font-size="7.5" fill="rgb(0,0,0)" text-anchor="middle">14</text>
<polygon points="177.3,218.3 185.3,218.3 185.3,224.3 177.3,224.3" fill="rgb(228,207,162)"/><text xml:space="preserve" x="181.3" y="224.133" font-family="Calibri" font-size="7.5" fill="rgb(0,0,0)" text-anchor="middle">11</text>
<polygon points="195.3,218.3 201.3,218.3 201.3,224.3 195.3,224.3" fill="rgb(255,209,209)"/>
<polygon points="201.3,218.3 207.3,218.3 207.3,224.3 201.3,224.3" fill="rgb(255,204,204)"/>
<polygon points="207.3,218.3 213.3,218.3 213.3,224.3 207.3,224.3" fill="rgb(255,158,158)"/>
<polygon points="213.3,218.3 219.3,218.3 219.3,224.3 213.3,224.3" fill="rgb(255,87,87)"/>
<polygon points="219.3,218.3 225.3,218.3 225.3,224.3 219.3,224.3" fill="rgb(254,230,230)"/>
<polygon points="225.3,218.3 231.3,218.3 231.3,224.3 225.3,224.3" fill="rgb(254,233,233)"/>
<polygon points="231.3,218.3 237.3,218.3 237.3,224.3 231.3,224.3" fill="rgb(204,204,255)"/>
<polygon points="237.3,218.3 243.3,218.3 243.3,224.3 237.3,224.3" fill="rgb(255,203,203)"/>
<polygon points="253.3,218.3 259.3,218.3 259.3,224.3 253.3,224.3" fill="rgb(237,237,255)"/>
<polygon points="259.3,218.3 265.3,218.3 265.3,224.3 259.3,224.3" fill="rgb(255,242,242)"/>
<polygon points="265.3,218.3 271.3,218.3 271.3,224.3 265.3,224.3" fill="rgb(255,223,223)"/>
<polygon points="271.3,218.3 277.3,218.3 277.3,224.3 271.3,224.3" fill="rgb(255,129,129)"/>
<polygon points="277.3,218.3 283.3,218.3 283.3,224.3 277.3,224.3" fill="rgb(255,254,254)"/>
<polygon points="283.3,218.3 289.3,218.3 289.3,224.3 283.3,224.3" fill="rgb(255,250,250)"/>
<polygon points="289.3,218.3 295.3,218.3 295.3,224.3 289.3,224.3" fill="rgb(255,208,208)"/>
<polygon points="295.3,218.3 301.3,218.3 301.3,224.3 295.3,224.3" fill="rgb(254,224,224)"/>
<polygon points="311.3,218.3 317.3,218.3 317.3,224.3 311.3,224.3" fill="rgb(213,213,255)"/>
<polygon points="317.3,218.3 323.3,218.3 323.3,224.3 317.3,224.3" fill="rgb(227,227,255)"/>
<polygon points="323.3,218.3 329.3,218.3 329.3,224.3 323.3,224.3" fill="rgb(197,197,255)"/>
<polygon points="329.3,218.3 335.3,218.3 335.3,224.3 329.3,224.3" fill="rgb(251,251,255)"/>
<polygon points="335.3,218.3 341.3,218.3 341.3,224.3 335.3,224.3" fill="rgb(201,201,255)"/>
<polygon points="341.3,218.3 347.3,218.3 347.3,224.3 341.3,224.3" fill="rgb(208,208,255)"/>
<polygon points="347.3,218.3 353.3,218.3 353.3,224.3 347.3,224.3" fill="rgb(255,212,212)"/>
<polygon points="353.3,218.3 359.3,218.3 359.3,224.3 353.3,224.3" fill="rgb(255,69,69)"/>
<polygon points="161.3,224.3 169.3,224.3 169.3,230.3 161.3,230.3" fill="rgb(245,245,245)"/><text xml:space="preserve" x="165.3" y="230.133" font-family="Calibri" font-size="7.5" fill="rgb(0,0,0)" text-anchor="middle">7</text>
<polygon points="169.3,224.3 177.3,224.3 177.3,230.3 169.3,230.3" fill="rgb(216,179,101)"/><text xml:space="preserve" x="173.3" y="230.133" font-family="Calibri" font-size="7.5" fill="rgb(0,0,0)" text-anchor="middle">14</text>
<polygon points="177.3,224.3 185.3,224.3 185.3,230.3 177.3,230.3" fill="rgb(228,207,162)"/><text xml:space="preserve" x="181.3" y="230.133" font-family="Calibri" font-size="7.5" fill="rgb(0,0,0)" text-anchor="middle">11</text>
<polygon points="195.3,224.3 201.3,224.3 201.3,230.3 195.3,230.3" fill="rgb(255,251,251)"/>
<polygon points="201.3,224.3 207.3,224.3 207.3,230.3 201.3,230.3" fill="rgb(255,221,221)"/>
<polygon points="207.3,224.3 213.3,224.3 213.3,230.3 207.3,230.3" fill="rgb(255,168,168)"/>
<polygon points="213.3,224.3 219.3,224.3 219.3,230.3 213.3,230.3" fill="rgb(255,156,156)"/>
<polygon points="219.3,224.3 225.3,224.3 225.3,230.3 219.3,230.3" fill="rgb(255,235,235)"/>
<polygon points="225.3,224.3 231.3,224.3 231.3,230.3 225.3,230.3" fill="rgb(255,227,227)"/>
<polygon points="231.3,224.3 237.3,224.3 237.3,230.3 231.3,230.3" fill="rgb(252,252,255)"/>
<polygon points="237.3,224.3 243.3,224.3 243.3,230.3 237.3,230.3" fill="rgb(255,250,250)"/>
<polygon points="253.3,224.3 259.3,224.3 259.3,230.3 253.3,230.3" fill="rgb(255,229,229)"/>
<polygon points="259.3,224.3 265.3,224.3 265.3,230.3 259.3,230.3" fill="rgb(255,244,244)"/>
<polygon points="265.3,224.3 271.3,224.3 271.3,230.3 265.3,230.3" fill="rgb(255,249,249)"/>
<polygon points="271.3,224.3 277.3,224.3 277.3,230.3 271.3,230.3" fill="rgb(254,193,193)"/>
<polygon points="277.3,224.3 283.3,224.3 283.3,230.3 277.3,230.3" fill="rgb(255,254,254)"/>
<polygon points="283.3,224.3 289.3,224.3 289.3,230.3 283.3,230.3" fill="rgb(255,252,252)"/>
<polygon points="289.3,224.3 295.3,224.3 295.3,230.3 289.3,230.3" fill="rgb(232,232,255)"/>
<polygon points="295.3,224.3 301.3,224.3 301.3,230.3 295.3,230.3" fill="rgb(197,197,255)"/>
<polygon points="311.3,224.3 317.3,224.3 317.3,230.3 311.3,230.3" fill="rgb(233,233,255)"/>
<polygon points="317.3,224.3 323.3,224.3 323.3,230.3 317.3,230.3" fill="rgb(211,211,255)"/>
<polygon points="323.3,224.3 329.3,224.3 329.3,230.3 323.3,230.3" fill="rgb(209,209,255)"/>
<polygon points="329.3,224.3 335.3,224.3 335.3,230.3 329.3,230.3" fill="rgb(228,228,255)"/>
<polygon points="335.3,224.3 341.3,224.3 341.3,230.3 335.3,230.3" fill="rgb(175,175,255)"/>
<polygon points="341.3,224.3 347.3,224.3 347.3,230.3 341.3,230.3" fill="rgb(219,219,255)"/>
<polygon points="347.3,224.3 353.3,224.3 353.3,230.3 347.3,230.3" fill="rgb(250,250,255)"/>
<polygon points="353.3,224.3 359.3,224.3 359.3,230.3 353.3,230.3" fill="rgb(255,183,183)"/>
<polygon points="161.3,230.3 169.3,230.3 169.3,236.3 161.3,236.3" fill="rgb(245,245,245)"/><text xml:space="preserve" x="165.3" y="236.133" font-family="Calibri" font-size="7.5" fill="rgb(0,0,0)" text-anchor="middle">7</text>
<polygon points="169.3,230.3 177.3,230.3 177.3,236.3 169.3,236.3" fill="rgb(216,179,101)"/><text xml:space="preserve" x="173.3" y="236.133" font-family="Calibri" font-size="7.5" fill="rgb(0,0,0)" text-anchor="middle">14</text>
<polygon points="177.3,230.3 185.3,230.3 185.3,236.3 177.3,236.3" fill="rgb(228,207,162)"/><text xml:space="preserve" x="181.3" y="236.133" font-family="Calibri" font-size="7.5" fill="rgb(0,0,0)" text-anchor="middle">11</text>
<polygon points="195.3,230.3 201.3,230.3 201.3,236.3 195.3,236.3" fill="rgb(255,244,244)"/>
<polygon points="201.3,230.3 207.3,230.3 207.3,236.3 201.3,236.3" fill="rgb(255,160,160)"/>
<polygon points="207.3,230.3 213.3,230.3 213.3,236.3 207.3,236.3" fill="rgb(255,172,172)"/>
<polygon points="213.3,230.3 219.3,230.3 219.3,236.3 213.3,236.3" fill="rgb(255,128,128)"/>
<polygon points="219.3,230.3 225.3,230.3 225.3,236.3 219.3,236.3" fill="rgb(255,191,191)"/>
<polygon points="225.3,230.3 231.3,230.3 231.3,236.3 225.3,236.3" fill="rgb(244,244,255)"/>
<polygon points="231.3,230.3 237.3,230.3 237.3,236.3 231.3,236.3" fill="rgb(255,208,208)"/>
<polygon points="237.3,230.3 243.3,230.3 243.3,236.3 237.3,236.3" fill="rgb(255,201,201)"/>
<polygon points="253.3,230.3 259.3,230.3 259.3,236.3 253.3,236.3" fill="rgb(255,236,236)"/>
<polygon points="259.3,230.3 265.3,230.3 265.3,236.3 259.3,236.3" fill="rgb(255,235,235)"/>
<polygon points="265.3,230.3 271.3,230.3 271.3,236.3 265.3,236.3" fill="rgb(214,214,255)"/>
<polygon points="271.3,230.3 277.3,230.3 277.3,236.3 271.3,236.3" fill="rgb(255,253,253)"/>
<polygon points="277.3,230.3 283.3,230.3 283.3,236.3 277.3,236.3" fill="rgb(210,210,255)"/>
<polygon points="283.3,230.3 289.3,230.3 289.3,236.3 283.3,236.3" fill="rgb(198,198,255)"/>
<polygon points="289.3,230.3 295.3,230.3 295.3,236.3 289.3,236.3" fill="rgb(255,239,239)"/>
<polygon points="295.3,230.3 301.3,230.3 301.3,236.3 295.3,236.3" fill="rgb(255,173,173)"/>
<polygon points="311.3,230.3 317.3,230.3 317.3,236.3 311.3,236.3" fill="rgb(206,206,255)"/>
<polygon points="317.3,230.3 323.3,230.3 323.3,236.3 317.3,236.3" fill="rgb(230,230,255)"/>
<polygon points="323.3,230.3 329.3,230.3 329.3,236.3 323.3,236.3" fill="rgb(233,233,255)"/>
<polygon points="329.3,230.3 335.3,230.3 335.3,236.3 329.3,236.3" fill="rgb(171,171,255)"/>
<polygon points="335.3,230.3 341.3,230.3 341.3,236.3 335.3,236.3" fill="rgb(220,220,255)"/>
<polygon points="341.3,230.3 347.3,230.3 347.3,236.3 341.3,236.3" fill="rgb(222,222,255)"/>
<polygon points="347.3,230.3 353.3,230.3 353.3,236.3 347.3,236.3" fill="rgb(255,168,168)"/>
<polygon points="353.3,230.3 359.3,230.3 359.3,236.3 353.3,236.3" fill="rgb(255,105,105)"/>
<polygon points="161.3,236.3 169.3,236.3 169.3,242.3 161.3,242.3" fill="rgb(245,245,245)"/><text xml:space="preserve" x="165.3" y="242.133" font-family="Calibri" font-size="7.5" fill="rgb(0,0,0)" text-anchor="middle">7</text>
<polygon points="169.3,236.3 177.3,236.3 177.3,242.3 169.3,242.3" fill="rgb(216,179,101)"/><text xml:space="preserve" x="173.3" y="242.133" font-family="Calibri" font-size="7.5" fill="rgb(0,0,0)" text-anchor="middle">14</text>
<polygon points="177.3,236.3 185.3,236.3 185.3,242.3 177.3,242.3" fill="rgb(228,207,162)"/><text xml:space="preserve" x="181.3" y="242.133" font-family="Calibri" font-size="7.5" fill="rgb(0,0,0)" text-anchor="middle">11</text>
<polygon points="195.3,236.3 201.3,236.3 201.3,242.3 195.3,242.3" fill="rgb(255,216,216)"/>
<polygon points="201.3,236.3 207.3,236.3 207.3,242.3 201.3,242.3" fill="rgb(254,207,207)"/>
<polygon points="207.3,236.3 213.3,236.3 213.3,242.3 207.3,242.3" fill="rgb(255,236,236)"/>
<polygon points="213.3,236.3 219.3,236.3 219.3,242.3 213.3,242.3" fill="rgb(255,199,199)"/>
<polygon points="219.3,236.3 225.3,236.3 225.3,242.3 219.3,242.3" fill="rgb(254,233,233)"/>
<polygon points="225.3,236.3 231.3,236.3 231.3,242.3 225.3,242.3" fill="rgb(217,217,255)"/>
<polygon points="231.3,236.3 237.3,236.3 237.3,242.3 231.3,242.3" fill="rgb(207,207,255)"/>
<polygon points="237.3,236.3 243.3,236.3 243.3,242.3 237.3,242.3" fill="rgb(176,176,255)"/>
<polygon points="253.3,236.3 259.3,236.3 259.3,242.3 253.3,242.3" fill="rgb(255,239,239)"/>
<polygon points="259.3,236.3 265.3,236.3 265.3,242.3 259.3,242.3" fill="rgb(255,245,245)"/>
<polygon points="265.3,236.3 271.3,236.3 271.3,242.3 265.3,242.3" fill="rgb(160,160,255)"/>
<polygon points="271.3,236.3 277.3,236.3 277.3,242.3 271.3,242.3" fill="rgb(245,245,255)"/>
<polygon points="277.3,236.3 283.3,236.3 283.3,242.3 277.3,242.3" fill="rgb(218,218,255)"/>
<polygon points="283.3,236.3 289.3,236.3 289.3,242.3 283.3,242.3" fill="rgb(255,227,227)"/>
<polygon points="289.3,236.3 295.3,236.3 295.3,242.3 289.3,242.3" fill="rgb(255,212,212)"/>
<polygon points="295.3,236.3 301.3,236.3 301.3,242.3 295.3,242.3" fill="rgb(255,166,166)"/>
<polygon points="311.3,236.3 317.3,236.3 317.3,242.3 311.3,242.3" fill="rgb(243,243,255)"/>
<polygon points="317.3,236.3 323.3,236.3 323.3,242.3 317.3,242.3" fill="rgb(205,205,255)"/>
<polygon points="323.3,236.3 329.3,236.3 329.3,242.3 323.3,242.3" fill="rgb(255,248,248)"/>
<polygon points="329.3,236.3 335.3,236.3 335.3,242.3 329.3,242.3" fill="rgb(192,192,255)"/>
<polygon points="335.3,236.3 341.3,236.3 341.3,242.3 335.3,242.3" fill="rgb(213,213,255)"/>
<polygon points="341.3,236.3 347.3,236.3 347.3,242.3 341.3,242.3" fill="rgb(254,191,191)"/>
<polygon points="347.3,236.3 353.3,236.3 353.3,242.3 347.3,242.3" fill="rgb(251,251,255)"/>
<polygon points="353.3,236.3 359.3,236.3 359.3,242.3 353.3,242.3" fill="rgb(255,176,176)"/>
<polygon points="161.3,242.3 169.3,242.3 169.3,248.3 161.3,248.3" fill="rgb(245,245,245)"/><text xml:space="preserve" x="165.3" y="248.133" font-family="Calibri" font-size="7.5" fill="rgb(0,0,0)" text-anchor="middle">7</text>
<polygon points="169.3,242.3 177.3,242.3 177.3,248.3 169.3,248.3" fill="rgb(216,179,101)"/><text xml:space="preserve" x="173.3" y="248.133" font-family="Calibri" font-size="7.5" fill="rgb(0,0,0)" text-anchor="middle">14</text>
<polygon points="177.3,242.3 185.3,242.3 185.3,248.3 177.3,248.3" fill="rgb(228,207,162)"/><text xml:space="preserve" x="181.3" y="248.133" font-family="Calibri" font-size="7.5" fill="rgb(0,0,0)" text-anchor="middle">11</text>
<polygon points="195.3,242.3 201.3,242.3 201.3,248.3 195.3,248.3" fill="rgb(255,190,190)"/>
<polygon points="201.3,242.3 207.3,242.3 207.3,248.3 201.3,248.3" fill="rgb(255,211,211)"/>
<polygon points="207.3,242.3 213.3,242.3 213.3,248.3 207.3,248.3" fill="rgb(255,192,192)"/>
<polygon points="213.3,242.3 219.3,242.3 219.3,248.3 213.3,248.3" fill="rgb(255,129,129)"/>
<polygon points="219.3,242.3 225.3,242.3 225.3,248.3 219.3,248.3" fill="rgb(255,219,219)"/>
<polygon points="225.3,242.3 231.3,242.3 231.3,248.3 225.3,248.3" fill="rgb(207,207,255)"/>
<polygon points="231.3,242.3 237.3,242.3 237.3,248.3 231.3,248.3" fill="rgb(251,251,255)"/>
<polygon points="237.3,242.3 243.3,242.3 243.3,248.3 237.3,248.3" fill="rgb(255,191,191)"/>
<polygon points="253.3,242.3 259.3,242.3 259.3,248.3 253.3,248.3" fill="rgb(238,238,255)"/>
<polygon points="259.3,242.3 265.3,242.3 265.3,248.3 259.3,248.3" fill="rgb(229,229,255)"/>
<polygon points="265.3,242.3 271.3,242.3 271.3,248.3 265.3,248.3" fill="rgb(255,250,250)"/>
<polygon points="271.3,242.3 277.3,242.3 277.3,248.3 271.3,248.3" fill="rgb(232,232,255)"/>
<polygon points="277.3,242.3 283.3,242.3 283.3,248.3 277.3,248.3" fill="rgb(239,239,255)"/>
<polygon points="283.3,242.3 289.3,242.3 289.3,248.3 283.3,248.3" fill="rgb(235,235,255)"/>
<polygon points="289.3,242.3 295.3,242.3 295.3,248.3 289.3,248.3" fill="rgb(255,228,228)"/>
<polygon points="295.3,242.3 301.3,242.3 301.3,248.3 295.3,248.3" fill="rgb(255,194,194)"/>
<polygon points="311.3,242.3 317.3,242.3 317.3,248.3 311.3,248.3" fill="rgb(254,232,232)"/>
<polygon points="317.3,242.3 323.3,242.3 323.3,248.3 317.3,248.3" fill="rgb(234,234,255)"/>
<polygon points="323.3,242.3 329.3,242.3 329.3,248.3 323.3,248.3" fill="rgb(215,215,255)"/>
<polygon points="329.3,242.3 335.3,242.3 335.3,248.3 329.3,248.3" fill="rgb(228,228,255)"/>
<polygon points="335.3,242.3 341.3,242.3 341.3,248.3 335.3,248.3" fill="rgb(215,215,255)"/>
<polygon points="341.3,242.3 347.3,242.3 347.3,248.3 341.3,248.3" fill="rgb(203,203,255)"/>
<polygon points="347.3,242.3 353.3,242.3 353.3,248.3 347.3,248.3" fill="rgb(255,210,210)"/>
<polygon points="353.3,242.3 359.3,242.3 359.3,248.3 353.3,248.3" fill="rgb(255,69,69)"/>
<polygon points="161.3,248.3 169.3,248.3 169.3,254.3 161.3,254.3" fill="rgb(245,245,245)"/><text xml:space="preserve" x="165.3" y="254.133" font-family="Calibri" font-size="7.5" fill="rgb(0,0,0)" text-anchor="middle">7</text>
<polygon points="169.3,248.3 177.3,248.3 177.3,254.3 169.3,254.3" fill="rgb(216,179,101)"/><text xml:space="preserve" x="173.3" y="254.133" font-family="Calibri" font-size="7.5" fill="rgb(0,0,0)" text-anchor="middle">14</text>
<polygon points="177.3,248.3 185.3,248.3 185.3,254.3 177.3,254.3" fill="rgb(228,207,162)"/><text xml:space="preserve" x="181.3" y="254.133" font-family="Calibri" font-size="7.5" fill="rgb(0,0,0)" text-anchor="middle">11</text>
<polygon points="195.3,248.3 201.3,248.3 201.3,254.3 195.3,254.3" fill="rgb(255,231,231)"/>
<polygon points="201.3,248.3 207.3,248.3 207.3,254.3 201.3,254.3" fill="rgb(255,207,207)"/>
<polygon points="207.3,248.3 213.3,248.3 213.3,254.3 207.3,254.3" fill="rgb(255,179,179)"/>
<polygon points="213.3,248.3 219.3,248.3 219.3,254.3 213.3,254.3" fill="rgb(255,221,221)"/>
<polygon points="219.3,248.3 225.3,248.3 225.3,254.3 219.3,254.3" fill="rgb(255,248,248)"/>
<polygon points="225.3,248.3 231.3,248.3 231.3,254.3 225.3,254.3" fill="rgb(214,214,255)"/>
<polygon points="231.3,248.3 237.3,248.3 237.3,254.3 231.3,254.3" fill="rgb(151,151,255)"/>
<polygon points="237.3,248.3 243.3,248.3 243.3,254.3 237.3,254.3" fill="rgb(191,191,255)"/>
<polygon points="253.3,248.3 259.3,248.3 259.3,254.3 253.3,254.3" fill="rgb(255,195,195)"/>
<polygon points="259.3,248.3 265.3,248.3 265.3,254.3 259.3,254.3" fill="rgb(255,239,239)"/>
<polygon points="265.3,248.3 271.3,248.3 271.3,254.3 265.3,254.3" fill="rgb(255,204,204)"/>
<polygon points="271.3,248.3 277.3,248.3 277.3,254.3 271.3,254.3" fill="rgb(255,239,239)"/>
<polygon points="277.3,248.3 283.3,248.3 283.3,254.3 277.3,254.3" fill="rgb(245,245,255)"/>
<polygon points="283.3,248.3 289.3,248.3 289.3,254.3 283.3,254.3" fill="rgb(251,251,255)"/>
<polygon points="289.3,248.3 295.3,248.3 295.3,254.3 289.3,254.3" fill="rgb(185,185,255)"/>
<polygon points="295.3,248.3 301.3,248.3 301.3,254.3 295.3,254.3" fill="rgb(255,235,235)"/>
<polygon points="311.3,248.3 317.3,248.3 317.3,254.3 311.3,254.3" fill="rgb(255,234,234)"/>
<polygon points="317.3,248.3 323.3,248.3 323.3,254.3 317.3,254.3" fill="rgb(212,212,255)"/>
<polygon points="323.3,248.3 329.3,248.3 329.3,254.3 323.3,254.3" fill="rgb(254,254,255)"/>
<polygon points="329.3,248.3 335.3,248.3 335.3,254.3 329.3,254.3" fill="rgb(220,220,255)"/>
<polygon points="335.3,248.3 341.3,248.3 341.3,254.3 335.3,254.3" fill="rgb(193,193,255)"/>
<polygon points="341.3,248.3 347.3,248.3 347.3,254.3 341.3,254.3" fill="rgb(255,197,197)"/>
<polygon points="347.3,248.3 353.3,248.3 353.3,254.3 347.3,254.3" fill="rgb(255,240,240)"/>
<polygon points="353.3,248.3 359.3,248.3 359.3,254.3 353.3,254.3" fill="rgb(255,146,146)"/>
<polygon points="161.3,254.3 169.3,254.3 169.3,260.3 161.3,260.3" fill="rgb(245,245,245)"/><text xml:space="preserve" x="165.3" y="260.133" font-family="Calibri" font-size="7.5" fill="rgb(0,0,0)" text-anchor="middle">7</text>
<polygon points="169.3,254.3 177.3,254.3 177.3,260.3 169.3,260.3" fill="rgb(216,179,101)"/><text xml:space="preserve" x="173.3" y="260.133" font-family="Calibri" font-size="7.5" fill="rgb(0,0,0)" text-anchor="middle">14</text>
<polygon points="177.3,254.3 185.3,254.3 185.3,260.3 177.3,260.3" fill="rgb(228,207,162)"/><text xml:space="preserve" x="181.3" y="260.133" font-family="Calibri" font-size="7.5" fill="rgb(0,0,0)" text-anchor="middle">11</text>
<polygon points="195.3,254.3 201.3,254.3 201.3,260.3 195.3,260.3" fill="rgb(255,245,245)"/>
<polygon points="201.3,254.3 207.3,254.3 207.3,260.3 201.3,260.3" fill="rgb(255,192,192)"/>
<polygon points="207.3,254.3 213.3,254.3 213.3,260.3 207.3,260.3" fill="rgb(255,123,123)"/>
<polygon points="213.3,254.3 219.3,254.3 219.3,260.3 213.3,260.3" fill="rgb(255,107,107)"/>
<polygon points="219.3,254.3 225.3,254.3 225.3,260.3 219.3,260.3" fill="rgb(255,233,233)"/>
<polygon points="225.3,254.3 231.3,254.3 231.3,260.3 225.3,260.3" fill="rgb(255,222,222)"/>
<polygon points="231.3,254.3 237.3,254.3 237.3,260.3 231.3,260.3" fill="rgb(244,244,255)"/>
<polygon points="237.3,254.3 243.3,254.3 243.3,260.3 237.3,260.3" fill="rgb(255,238,238)"/>
<polygon points="253.3,254.3 259.3,254.3 259.3,260.3 253.3,260.3" fill="rgb(235,235,255)"/>
<polygon points="259.3,254.3 265.3,254.3 265.3,260.3 259.3,260.3" fill="rgb(251,251,255)"/>
<polygon points="265.3,254.3 271.3,254.3 271.3,260.3 265.3,260.3" fill="rgb(255,201,201)"/>
<polygon points="271.3,254.3 277.3,254.3 277.3,260.3 271.3,260.3" fill="rgb(254,244,244)"/>
<polygon points="277.3,254.3 283.3,254.3 283.3,260.3 277.3,260.3" fill="rgb(195,195,255)"/>
<polygon points="283.3,254.3 289.3,254.3 289.3,260.3 283.3,260.3" fill="rgb(202,202,255)"/>
<polygon points="289.3,254.3 295.3,254.3 295.3,260.3 289.3,260.3" fill="rgb(255,236,236)"/>
<polygon points="295.3,254.3 301.3,254.3 301.3,260.3 295.3,260.3" fill="rgb(255,175,175)"/>
<polygon points="311.3,254.3 317.3,254.3 317.3,260.3 311.3,260.3" fill="rgb(188,188,255)"/>
<polygon points="317.3,254.3 323.3,254.3 323.3,260.3 317.3,260.3" fill="rgb(212,212,255)"/>
<polygon points="323.3,254.3 329.3,254.3 329.3,260.3 323.3,260.3" fill="rgb(230,230,255)"/>
<polygon points="329.3,254.3 335.3,254.3 335.3,260.3 329.3,260.3" fill="rgb(216,216,255)"/>
<polygon points="335.3,254.3 341.3,254.3 341.3,260.3 335.3,260.3" fill="rgb(192,192,255)"/>
<polygon points="341.3,254.3 347.3,254.3 347.3,260.3 341.3,260.3" fill="rgb(226,226,255)"/>
<polygon points="347.3,254.3 353.3,254.3 353.3,260.3 347.3,260.3" fill="rgb(248,248,255)"/>
<polygon points="353.3,254.3 359.3,254.3 359.3,260.3 353.3,260.3" fill="rgb(255,132,132)"/>
<polygon points="161.3,260.3 169.3,260.3 169.3,266.3 161.3,266.3" fill="rgb(245,245,245)"/><text xml:space="preserve" x="165.3" y="266.133" font-family="Calibri" font-size="7.5" fill="rgb(0,0,0)" text-anchor="middle">7</text>
<polygon points="169.3,260.3 177.3,260.3 177.3,266.3 169.3,266.3" fill="rgb(216,179,101)"/><text xml:space="preserve" x="173.3" y="266.133" font-family="Calibri" font-size="7.5" fill="rgb(0,0,0)" text-anchor="middle">14</text>
<polygon points="177.3,260.3 185.3,260.3 185.3,266.3 177.3,266.3" fill="rgb(228,207,162)"/><text xml:space="preserve" x="181.3" y="266.133" font-family="Calibri" font-size="7.5" fill="rgb(0,0,0)" text-anchor="middle">11</text>
<polygon points="195.3,260.3 201.3,260.3 201.3,266.3 195.3,266.3" fill="rgb(252,252,255)"/>
<polygon points="201.3,260.3 207.3,260.3 207.3,266.3 201.3,266.3" fill="rgb(255,233,233)"/>
<polygon points="207.3,260.3 213.3,260.3 213.3,266.3 207.3,266.3" fill="rgb(255,194,194)"/>
<polygon points="213.3,260.3 219.3,260.3 219.3,266.3 213.3,266.3" fill="rgb(255,170,170)"/>
<polygon points="219.3,260.3 225.3,260.3 225.3,266.3 219.3,266.3" fill="rgb(255,203,203)"/>
<polygon points="225.3,260.3 231.3,260.3 231.3,266.3 225.3,266.3" fill="rgb(255,248,248)"/>
<polygon points="231.3,260.3 237.3,260.3 237.3,266.3 231.3,266.3" fill="rgb(255,236,236)"/>
<polygon points="237.3,260.3 243.3,260.3 243.3,266.3 237.3,266.3" fill="rgb(255,214,214)"/>
<polygon points="253.3,260.3 259.3,260.3 259.3,266.3 253.3,266.3" fill="rgb(255,247,247)"/>
<polygon points="259.3,260.3 265.3,260.3 265.3,266.3 259.3,266.3" fill="rgb(254,225,225)"/>
<polygon points="265.3,260.3 271.3,260.3 271.3,266.3 265.3,266.3" fill="rgb(255,182,182)"/>
<polygon points="271.3,260.3 277.3,260.3 277.3,266.3 271.3,266.3" fill="rgb(255,207,207)"/>
<polygon points="277.3,260.3 283.3,260.3 283.3,266.3 277.3,266.3" fill="rgb(255,194,194)"/>
<polygon points="283.3,260.3 289.3,260.3 289.3,266.3 283.3,266.3" fill="rgb(255,239,239)"/>
<polygon points="289.3,260.3 295.3,260.3 295.3,266.3 289.3,266.3" fill="rgb(255,199,199)"/>
<polygon points="295.3,260.3 301.3,260.3 301.3,266.3 295.3,266.3" fill="rgb(255,215,215)"/>
<polygon points="311.3,260.3 317.3,260.3 317.3,266.3 311.3,266.3" fill="rgb(213,213,255)"/>
<polygon points="317.3,260.3 323.3,260.3 323.3,266.3 317.3,266.3" fill="rgb(196,196,255)"/>
<polygon points="323.3,260.3 329.3,260.3 329.3,266.3 323.3,266.3" fill="rgb(215,215,255)"/>
<polygon points="329.3,260.3 335.3,260.3 335.3,266.3 329.3,266.3" fill="rgb(187,187,255)"/>
<polygon points="335.3,260.3 341.3,260.3 341.3,266.3 335.3,266.3" fill="rgb(160,160,255)"/>
<polygon points="341.3,260.3 347.3,260.3 347.3,266.3 341.3,266.3" fill="rgb(255,249,249)"/>
<polygon points="347.3,260.3 353.3,260.3 353.3,266.3 347.3,266.3" fill="rgb(255,167,167)"/>
<polygon points="353.3,260.3 359.3,260.3 359.3,266.3 353.3,266.3" fill="rgb(255,75,75)"/>
<polygon points="161.3,266.3 169.3,266.3 169.3,272.3 161.3,272.3" fill="rgb(245,245,245)"/><text xml:space="preserve" x="165.3" y="272.133" font-family="Calibri" font-size="7.5" fill="rgb(0,0,0)" text-anchor="middle">7</text>
<polygon points="169.3,266.3 177.3,266.3 177.3,272.3 169.3,272.3" fill="rgb(216,179,101)"/><text xml:space="preserve" x="173.3" y="272.133" font-family="Calibri" font-size="7.5" fill="rgb(0,0,0)" text-anchor="middle">14</text>
<polygon points="177.3,266.3 185.3,266.3 185.3,272.3 177.3,272.3" fill="rgb(228,207,162)"/><text xml:space="preserve" x="181.3" y="272.133" font-family="Calibri" font-size="7.5" fill="rgb(0,0,0)" text-anchor="middle">11</text>
<polygon points="195.3,266.3 201.3,266.3 201.3,272.3 195.3,272.3" fill="rgb(255,212,212)"/>
<polygon points="201.3,266.3 207.3,266.3 207.3,272.3 201.3,272.3" fill="rgb(255,196,196)"/>
<polygon points="207.3,266.3 213.3,266.3 213.3,272.3 207.3,272.3" fill="rgb(255,194,194)"/>
<polygon points="213.3,266.3 219.3,266.3 219.3,272.3 213.3,272.3" fill="rgb(255,144,144)"/>
<polygon points="219.3,266.3 225.3,266.3 225.3,272.3 219.3,272.3" fill="rgb(255,235,235)"/>
<polygon points="225.3,266.3 231.3,266.3 231.3,272.3 225.3,272.3" fill="rgb(255,192,192)"/>
<polygon points="231.3,266.3 237.3,266.3 237.3,272.3 231.3,272.3" fill="rgb(203,203,255)"/>
<polygon points="237.3,266.3 243.3,266.3 243.3,272.3 237.3,272.3" fill="rgb(255,214,214)"/>
<polygon points="253.3,266.3 259.3,266.3 259.3,272.3 253.3,272.3" fill="rgb(255,223,223)"/>
<polygon points="259.3,266.3 265.3,266.3 265.3,272.3 259.3,272.3" fill="rgb(255,238,238)"/>
<polygon points="265.3,266.3 271.3,266.3 271.3,272.3 265.3,272.3" fill="rgb(255,215,215)"/>
<polygon points="271.3,266.3 277.3,266.3 277.3,272.3 271.3,272.3" fill="rgb(255,244,244)"/>
<polygon points="277.3,266.3 283.3,266.3 283.3,272.3 277.3,272.3" fill="rgb(221,221,255)"/>
<polygon points="283.3,266.3 289.3,266.3 289.3,272.3 283.3,272.3" fill="rgb(246,246,255)"/>
<polygon points="289.3,266.3 295.3,266.3 295.3,272.3 289.3,272.3" fill="rgb(254,254,255)"/>
<polygon points="295.3,266.3 301.3,266.3 301.3,272.3 295.3,272.3" fill="rgb(255,195,195)"/>
<polygon points="311.3,266.3 317.3,266.3 317.3,272.3 311.3,272.3" fill="rgb(255,241,241)"/>
<polygon points="317.3,266.3 323.3,266.3 323.3,272.3 317.3,272.3" fill="rgb(255,243,243)"/>
<polygon points="323.3,266.3 329.3,266.3 329.3,272.3 323.3,272.3" fill="rgb(231,231,255)"/>
<polygon points="329.3,266.3 335.3,266.3 335.3,272.3 329.3,272.3" fill="rgb(188,188,255)"/>
<polygon points="335.3,266.3 341.3,266.3 341.3,272.3 335.3,272.3" fill="rgb(216,216,255)"/>
<polygon points="341.3,266.3 347.3,266.3 347.3,272.3 341.3,272.3" fill="rgb(200,200,255)"/>
<polygon points="347.3,266.3 353.3,266.3 353.3,272.3 347.3,272.3" fill="rgb(255,229,229)"/>
<polygon points="353.3,266.3 359.3,266.3 359.3,272.3 353.3,272.3" fill="rgb(255,64,64)"/>
<polygon points="161.3,272.3 169.3,272.3 169.3,278.3 161.3,278.3" fill="rgb(245,245,245)"/><text xml:space="preserve" x="165.3" y="278.133" font-family="Calibri" font-size="7.5" fill="rgb(0,0,0)" text-anchor="middle">7</text>
<polygon points="169.3,272.3 177.3,272.3 177.3,278.3 169.3,278.3" fill="rgb(216,179,101)"/><text xml:space="preserve" x="173.3" y="278.133" font-family="Calibri" font-size="7.5" fill="rgb(0,0,0)" text-anchor="middle">14</text>
<polygon points="177.3,272.3 185.3,272.3 185.3,278.3 177.3,278.3" fill="rgb(228,207,162)"/><text xml:space="preserve" x="181.3" y="278.133" font-family="Calibri" font-size="7.5" fill="rgb(0,0,0)" text-anchor="middle">11</text>
<polygon points="195.3,272.3 201.3,272.3 201.3,278.3 195.3,278.3" fill="rgb(220,220,255)"/>
<polygon points="201.3,272.3 207.3,272.3 207.3,278.3 201.3,278.3" fill="rgb(254,213,213)"/>
<polygon points="207.3,272.3 213.3,272.3 213.3,278.3 207.3,278.3" fill="rgb(255,186,186)"/>
<polygon points="213.3,272.3 219.3,272.3 219.3,278.3 213.3,278.3" fill="rgb(255,177,177)"/>
<polygon points="219.3,272.3 225.3,272.3 225.3,278.3 219.3,278.3" fill="rgb(240,240,255)"/>
<polygon points="225.3,272.3 231.3,272.3 231.3,278.3 225.3,278.3" fill="rgb(255,171,171)"/>
<polygon points="231.3,272.3 237.3,272.3 237.3,278.3 231.3,278.3" fill="rgb(234,234,255)"/>
<polygon points="237.3,272.3 243.3,272.3 243.3,278.3 237.3,278.3" fill="rgb(231,231,255)"/>
<polygon points="253.3,272.3 259.3,272.3 259.3,278.3 253.3,278.3" fill="rgb(252,252,255)"/>
<polygon points="259.3,272.3 265.3,272.3 265.3,278.3 259.3,278.3" fill="rgb(255,242,242)"/>
<polygon points="265.3,272.3 271.3,272.3 271.3,278.3 265.3,278.3" fill="rgb(255,194,194)"/>
<polygon points="271.3,272.3 277.3,272.3 277.3,278.3 271.3,278.3" fill="rgb(255,176,176)"/>
<polygon points="277.3,272.3 283.3,272.3 283.3,278.3 277.3,278.3" fill="rgb(207,207,255)"/>
<polygon points="283.3,272.3 289.3,272.3 289.3,278.3 283.3,278.3" fill="rgb(255,232,232)"/>
<polygon points="289.3,272.3 295.3,272.3 295.3,278.3 289.3,278.3" fill="rgb(255,245,245)"/>
<polygon points="295.3,272.3 301.3,272.3 301.3,278.3 295.3,278.3" fill="rgb(236,236,255)"/>
<polygon points="311.3,272.3 317.3,272.3 317.3,278.3 311.3,278.3" fill="rgb(202,202,255)"/>
<polygon points="317.3,272.3 323.3,272.3 323.3,278.3 317.3,278.3" fill="rgb(203,203,255)"/>
<polygon points="323.3,272.3 329.3,272.3 329.3,278.3 323.3,278.3" fill="rgb(237,237,255)"/>
<polygon points="329.3,272.3 335.3,272.3 335.3,278.3 329.3,278.3" fill="rgb(202,202,255)"/>
<polygon points="335.3,272.3 341.3,272.3 341.3,278.3 335.3,278.3" fill="rgb(192,192,255)"/>
<polygon points="341.3,272.3 347.3,272.3 347.3,278.3 341.3,278.3" fill="rgb(229,229,255)"/>
<polygon points="347.3,272.3 353.3,272.3 353.3,278.3 347.3,278.3" fill="rgb(255,212,212)"/>
<polygon points="353.3,272.3 359.3,272.3 359.3,278.3 353.3,278.3" fill="rgb(255,185,185)"/>
<polygon points="161.3,212.3 185.3,212.3 185.3,278.3 161.3,278.3" fill="none" stroke="black" stroke-width="1"/>
<polygon points="195.3,212.3 243.3,212.3 243.3,278.3 195.3,278.3" fill="none" stroke="black" stroke-width="1"/>
<polygon points="253.3,212.3 301.3,212.3 301.3,278.3 253.3,278.3" fill="none" stroke="black" stroke-width="1"/>
<polygon points="311.3,212.3 359.3,212.3 359.3,278.3 311.3,278.3" fill="none" stroke="black" stroke-width="1"/>
<text xml:space="preserve" x="200.65" y="310.633" font-family="Calibri" font-size="6" text-anchor="middle">moduleID</text>
<polygon points="90.65,318.3 110.65,318.3 110.65,338.3 90.65,338.3" fill="rgb(250,250,250)"/><polygon points="90.65,318.3 110.65,318.3 110.65,338.3 90.65,338.3" fill="none" stroke="black" stroke-width="1"/><text xml:space="preserve" x="100.65" y="331.133" font-family="Calibri" font-size="7.5" fill="rgb(0,0,0)" text-anchor="middle">-2.0</text>
<polygon points="110.65,318.3 130.65,318.3 130.65,338.3 110.65,338.3" fill="rgb(156,210,205)"/><polygon points="110.65,318.3 130.65,318.3 130.65,338.3 110.65,338.3" fill="none" stroke="black" stroke-width="1"/><text xml:space="preserve" x="120.65" y="331.133" font-family="Calibri" font-size="7.5" fill="rgb(0,0,0)" text-anchor="middle">-0.4</text>
<polygon points="130.65,318.3 150.65,318.3 150.65,338.3 130.65,338.3" fill="rgb(116,191,184)"/><polygon points="130.65,318.3 150.65,318.3 150.65,338.3 130.65,338.3" fill="none" stroke="black" stroke-width="1"/><text xml:space="preserve" x="140.65" y="331.133" font-family="Calibri" font-size="7.5" fill="rgb(0,0,0)" text-anchor="middle">1.2</text>
<polygon points="150.65,318.3 170.65,318.3 170.65,338.3 150.65,338.3" fill="rgb(152,206,201)"/><polygon points="150.65,318.3 170.65,318.3 170.65,338.3 150.65,338.3" fill="none" stroke="black" stroke-width="1"/><text xml:space="preserve" x="160.65" y="331.133" font-family="Calibri" font-size="7.5" fill="rgb(0,0,0)" text-anchor="middle">2.8</text>
<polygon points="170.65,318.3 190.65,318.3 190.65,338.3 170.65,338.3" fill="rgb(187,220,217)"/><polygon points="170.65,318.3 190.65,318.3 190.65,338.3 170.65,338.3" fill="none" stroke="black" stroke-width="1"/><text xml:space="preserve" x="180.65" y="331.133" font-family="Calibri" font-size="7.5" fill="rgb(0,0,0)" text-anchor="middle">4.4</text>
<polygon points="190.65,318.3 210.65,318.3 210.65,338.3 190.65,338.3" fill="rgb(222,235,234)"/><polygon points="190.65,318.3 210.65,318.3 210.65,338.3 190.65,338.3" fill="none" stroke="black" stroke-width="1"/><text xml:space="preserve" x="200.65" y="331.133" font-family="Calibri" font-size="7.5" fill="rgb(0,0,0)" text-anchor="middle">6.0</text>
<polygon points="210.65,318.3 230.65,318.3 230.65,338.3 210.65,338.3" fill="rgb(242,239,232)"/><polygon points="210.65,318.3 230.65,318.3 230.65,338.3 210.65,338.3" fill="none" stroke="black" stroke-width="1"/><text xml:space="preserve" x="220.65" y="331.133" font-family="Calibri" font-size="7.5" fill="rgb(0,0,0)" text-anchor="middle">7.6</text>
<polygon points="230.65,318.3 250.65,318.3 250.65,338.3 230.65,338.3" fill="rgb(235,224,199)"/><polygon points="230.65,318.3 250.65,318.3 250.65,338.3 230.65,338.3" fill="none" stroke="black" stroke-width="1"/><text xml:space="preserve" x="240.65" y="331.133" font-family="Calibri" font-size="7.5" fill="rgb(0,0,0)" text-anchor="middle">9.2</text>
<polygon points="250.65,318.3 270.65,318.3 270.65,338.3 250.65,338.3" fill="rgb(229,209,166)"/><polygon points="250.65,318.3 270.65,318.3 270.65,338.3 250.65,338.3" fill="none" stroke="black" stroke-width="1"/><text xml:space="preserve" x="260.65" y="331.133" font-family="Calibri" font-size="7.5" fill="rgb(0,0,0)" text-anchor="middle">10.8</text>
<polygon points="270.65,318.3 290.65,318.3 290.65,338.3 270.65,338.3" fill="rgb(222,194,133)"/><polygon points="270.65,318.3 290.65,318.3 290.65,338.3 270.65,338.3" fill="none" stroke="black" stroke-width="1"/><text xml:space="preserve" x="280.65" y="331.133" font-family="Calibri" font-size="7.5" fill="rgb(0,0,0)" text-anchor="middle">12.4</text>
<polygon points="290.65,318.3 310.65,318.3 310.65,338.3 290.65,338.3" fill="rgb(216,179,101)"/><polygon points="290.65,318.3 310.65,318.3 310.65,338.3 290.65,338.3" fill="none" stroke="black" stroke-width="1"/><text xml:space="preserve" x="300.65" y="331.133" font-family="Calibri" font-size="7.5" fill="rgb(0,0,0)" text-anchor="middle">14.0</text>
<text xml:space="preserve" x="200.65" y="370.633" font-family="Calibri" font-size="6" text-anchor="middle">marklevel</text>
<polygon points="90.65,378.3 110.65,378.3 110.65,398.3 90.65,398.3" fill="rgb(0,0,255)"/><polygon points="90.65,378.3 110.65,378.3 110.65,398.3 90.65,398.3" fill="none" stroke="black" stroke-width="1"/><text xml:space="preserve" x="100.65" y="391.133" font-family="Calibri" font-size="7.5" fill="rgb(255,255,255)" text-anchor="middle">-2.0</text>
<polygon points="110.65,378.3 130.65,378.3 130.65,398.3 110.65,398.3" fill="rgb(50,50,255)"/><polygon points="110.65,378.3 130.65,378.3 130.65,398.3 110.65,398.3" fill="none" stroke="black" stroke-width="1"/><text xml:space="preserve" x="120.65" y="391.133" font-family="Calibri" font-size="7.5" fill="rgb(255,255,255)" text-anchor="middle">-1.6</text>
<polygon points="130.65,378.3 150.65,378.3 150.65,398.3 130.65,398.3" fill="rgb(102,102,255)"/><polygon points="130.65,378.3 150.65,378.3 150.65,398.3 130.65,398.3" fill="none" stroke="black" stroke-width="1"/><text xml:space="preserve" x="140.65" y="391.133" font-family="Calibri" font-size="7.5" fill="rgb(255,255,255)" text-anchor="middle">-1.2</text>
<polygon points="150.65,378.3 170.65,378.3 170.65,398.3 150.65,398.3" fill="rgb(153,153,255)"/><polygon points="150.65,378.3 170.65,378.3 170.65,398.3 150.65,398.3" fill="none" stroke="black" stroke-width="1"/><text xml:space="preserve" x="160.65" y="391.133" font-family="Calibri" font-size="7.5" fill="rgb(0,0,0)" text-anchor="middle">-0.8</text>
<polygon points="170.65,378.3 190.65,378.3 190.65,398.3 170.65,398.3" fill="rgb(204,204,255)"/><polygon points="170.65,378.3 190.65,378.3 190.65,398.3 170.65,398.3" fill="none" stroke="black" stroke-width="1"/><text xml:space="preserve" x="180.65" y="391.133" font-family="Calibri" font-size="7.5" fill="rgb(0,0,0)" text-anchor="middle">-0.4</text>
<polygon points="190.65,378.3 210.65,378.3 210.65,398.3 190.65,398.3" fill="rgb(255,255,255)"/><polygon points="190.65,378.3 210.65,378.3 210.65,398.3 190.65,398.3" fill="none" stroke="black" stroke-width="1"/><text xml:space="preserve" x="200.65" y="391.133" font-family="Calibri" font-size="7.5" fill="rgb(0,0,0)" text-anchor="middle">0.0</text>
<polygon points="210.65,378.3 230.65,378.3 230.65,398.3 210.65,398.3" fill="rgb(255,204,204)"/><polygon points="210.65,378.3 230.65,378.3 230.65,398.3 210.65,398.3" fill="none" stroke="black" stroke-width="1"/><text xml:space="preserve" x="220.65" y="391.133" font-family="Calibri" font-size="7.5" fill="rgb(0,0,0)" text-anchor="middle">0.4</text>
<polygon points="230.65,378.3 250.65,378.3 250.65,398.3 230.65,398.3" fill="rgb(255,153,153)"/><polygon points="230.65,378.3 250.65,378.3 250.65,398.3 230.65,398.3" fill="none" stroke="black" stroke-width="1"/><text xml:space="preserve" x="240.65" y="391.133" font-family="Calibri" font-size="7.5" fill="rgb(0,0,0)" text-anchor="middle">0.8</text>
<polygon points="250.65,378.3 270.65,378.3 270.65,398.3 250.65,398.3" fill="rgb(255,102,102)"/><polygon points="250.65,378.3 270.65,378.3 270.65,398.3 250.65,398.3" fill="none" stroke="black" stroke-width="1"/><text xml:space="preserve" x="260.65" y="391.133" font-family="Calibri" font-size="7.5" fill="rgb(0,0,0)" text-anchor="middle">1.2</text>
<polygon points="270.65,378.3 290.65,378.3 290.65,398.3 270.65,398.3" fill="rgb(255,50,50)"/><polygon points="270.65,378.3 290.65,378.3 290.65,398.3 270.65,398.3" fill="none" stroke="black" stroke-width="1"/><text xml:space="preserve" x="280.65" y="391.133" font-family="Calibri" font-size="7.5" fill="rgb(255,255,255)" text-anchor="middle">1.6</text>
<polygon points="290.65,378.3 310.65,378.3 310.65,398.3 290.65,398.3" fill="rgb(255,0,0)"/><polygon points="290.65,378.3 310.65,378.3 310.65,398.3 290.65,398.3" fill="none" stroke="black" stroke-width="1"/><text xml:space="preserve" x="300.65" y="391.133" font-family="Calibri" font-size="7.5" fill="rgb(255,255,255)" text-anchor="middle">2.0</text>
</svg>
