<?xml version="1.0" standalone="no"?><!DOCTYPE svg PUBLIC "-//W3C//DTD SVG 1.1//EN" "http://www.w3.org/Graphics/SVG/1.1/DTD/svg11.dtd">
<svg width="396.2" height="442.3" version="1.1" xmlns="http://www.w3.org/2000/svg">
<text xml:space="preserve" x="152.2" y="217.633" font-family="Calibri" font-size="6" text-anchor="end">5330421F07Rik</text>
<text xml:space="preserve" x="152.2" y="223.633" font-family="Calibri" font-size="6" text-anchor="end">Pknox1</text>
<text xml:space="preserve" x="152.2" y="229.633" font-family="Calibri" font-size="6" text-anchor="end">Spin</text>
<text xml:space="preserve" x="152.2" y="235.633" font-family="Calibri" font-size="6" text-anchor="end">Trak1</text>
<text xml:space="preserve" x="152.2" y="241.633" font-family="Calibri" font-size="6" text-anchor="end">Dennd2c</text>
<text xml:space="preserve" x="152.2" y="247.633" font-family="Calibri" font-size="6" text-anchor="end">Tuft1</text>
<text xml:space="preserve" x="152.2" y="253.633" font-family="Calibri" font-size="6" text-anchor="end">Zfp750</text>
<text xml:space="preserve" x="152.2" y="259.633" font-family="Calibri" font-size="6" text-anchor="end">mmu-mir-23b</text>
<text xml:space="preserve" x="152.2" y="265.633" font-family="Calibri" font-size="6" text-anchor="end">mmu-mir-24-1</text>
<text xml:space="preserve" x="152.2" y="271.633" font-family="Calibri" font-size="6" text-anchor="end">mmu-mir-27b</text>
<text xml:space="preserve" x="152.2" y="277.633" font-family="Calibri" font-size="6" text-anchor="end">Cfh</text>
<text xml:space="preserve" x="152.2" y="283.633" font-family="Calibri" font-size="6" text-anchor="end">Fryl</text>
<text xml:space="preserve" x="152.2" y="289.633" font-family="Calibri" font-size="6" text-anchor="end">Mill2</text>
<text xml:space="preserve" x="152.2" y="295.633" font-family="Calibri" font-size="6" text-anchor="end">Akt2</text>
<text xml:space="preserve" x="152.2" y="301.633" font-family="Calibri" font-size="6" text-anchor="end">Irak3</text>
<text xml:space="preserve" x="162.533" y="208.3" font-family="Calibri" font-size="6" transform="rotate(270 162.533 208.3)">ips</text>
<text xml:space="preserve" x="170.533" y="208.3" font-family="Calibri" font-size="6" transform="rotate(270 170.533 208.3)">pips</text>
<text xml:space="preserve" x="178.533" y="208.3" font-family="Calibri" font-size="6" transform="rotate(270 178.533 208.3)">mef</text>
<text xml:space="preserve" x="195.533" y="208.3" font-family="Calibri" font-size="6" transform="rotate(270 195.533 208.3)">ips_H3K4me3iPS</text>
<text xml:space="preserve" x="201.533" y="208.3" font-family="Calibri" font-size="6" transform="rotate(270 201.533 208.3)">ips_H3K9aciPS</text>
<text xml:space="preserve" x="207.533" y="208.3" font-family="Calibri" font-size="6" transform="rotate(270 207.533 208.3)">ips_H3K14aciPS</text>
<text xml:space="preserve" x="213.533" y="208.3" font-family="Calibri" font-size="6" transform="rotate(270 213.533 208.3)">ips_H3K18aciPS</text>
<text xml:space="preserve" x="219.533" y="208.3" font-family="Calibri" font-size="6" transform="rotate(270 219.533 208.3)">ips_H3K79me2iPS</text>
<text xml:space="preserve" x="225.533" y="208.3" font-family="Calibri" font-size="6" transform="rotate(270 225.533 208.3)">ips_H3K9me2iPS</text>
<text xml:space="preserve" x="231.533" y="208.3" font-family="Calibri" font-size="6" transform="rotate(270 231.533 208.3)">ips_H3K9me3iPS</text>
<text xml:space="preserve" x="237.533" y="208.3" font-family="Calibri" font-size="6" transform="rotate(270 237.533 208.3)">ips_H3K27me3iPS</text>
<text xml:space="preserve" x="253.533" y="208.3" font-family="Calibri" font-size="6" transform="rotate(270 253.533 208.3)">pips_H3K4me3pips</text>
<text xml:space="preserve" x="259.533" y="208.3" font-family="Calibri" font-size="6" transform="rotate(270 259.533 208.3)">pips_H3K9acpips</text>
<text xml:space="preserve" x="265.533" y="208.3" font-family="Calibri" font-size="6" transform="rotate(270 265.533 208.3)">pips_H3K14acpips</text>
<text xml:space="preserve" x="271.533" y="208.3" font-family="Calibri" font-size="6" transform="rotate(270 271.533 208.3)">pips_H3K18acpips</text>
<text xml:space="preserve" x="277.533" y="208.3" font-family="Calibri" font-size="6" transform="rotate(270 277.533 208.3)">pips_H3K79me2pips</text>
<text xml:space="preserve" x="283.533" y="208.3" font-family="Calibri" font-size="6" transform="rotate(270 283.533 208.3)">pips_H3K9me2pips</text>
<text xml:space="preserve" x="289.533" y="208.3" font-family="Calibri" font-size="6" transform="rotate(270 289.533 208.3)">pips_H3K9me3pips</text>
<text xml:space="preserve" x="295.533" y="208.3" font-family="Calibri" font-size="6" transform="rotate(270 295.533 208.3)">pips_H3K27me3pips</text>
<text xml:space="preserve" x="311.533" y="208.3" font-family="Calibri" font-size="6" transform="rotate(270 311.533 208.3)">mef_H3K4me3mef</text>
<text xml:space="preserve" x="317.533" y="208.3" font-family="Calibri" font-size="6" transform="rotate(270 317.533 208.3)">mef_H3K9acmef</text>
<text xml:space="preserve" x="323.533" y="208.3" font-family="Calibri" font-size="6" transform="rotate(270 323.533 208.3)">mef_H3K14acmef</text>
<text xml:space="preserve" x="329.533" y="208.3" font-family="Calibri" font-size="6" transform="rotate(270 329.533 208.3)">mef_H3K18acmef</text>
<text xml:space="preserve" x="335.533" y="208.3" font-family="Calibri" font-size="6" transform="rotate(270 335.533 208.3)">mef_H3K79me2mef</text>
<text xml:space="preserve" x="341.533" y="208.3" font-family="Calibri" font-size="6" transform="rotate(270 341.533 208.3)">mef_H3K9me2mef</text>
<text xml:space="preserve" x="347.533" y="208.3" font-family="Calibri" font-size="6" transform="rotate(270 347.533 208.3)">mef_H3K9me3mef</text>
<text xml:space="preserve" x="353.533" y="208.3" font-family="Calibri" font-size="6" transform="rotate(270 353.533 208.3)">mef_H3K27me3mef</text>
<polygon points="156.2,212.3 164.2,212.3 164.2,218.3 156.2,218.3" fill="rgb(220,188,121)"/><text xml:space="preserve" x="160.2" y="218.133" font-family="Calibri" font-size="7.5" fill="rgb(0,0,0)" text-anchor="middle">13</text>
<polygon points="164.2,212.3 172.2,212.3 172.2,218.3 164.2,218.3" fill="rgb(220,188,121)"/><text xml:space="preserve" x="168.2" y="218.133" font-family="Calibri" font-size="7.5" fill="rgb(0,0,0)" text-anchor="middle">13</text>
<polygon points="172.2,212.3 180.2,212.3 180.2,218.3 172.2,218.3" fill="rgb(134,198,192)"/><text xml:space="preserve" x="176.2" y="218.133" font-family="Calibri" font-size="7.5" fill="rgb(0,0,0)" text-anchor="middle">2</text>
<polygon points="190.2,212.3 196.2,212.3 196.2,218.3 190.2,218.3" fill="rgb(165,165,255)"/>
<polygon points="196.2,212.3 202.2,212.3 202.2,218.3 196.2,218.3" fill="rgb(255,239,239)"/>
<polygon points="202.2,212.3 208.2,212.3 208.2,218.3 202.2,218.3" fill="rgb(255,131,131)"/>
<polygon points="208.2,212.3 214.2,212.3 214.2,218.3 208.2,218.3" fill="rgb(255,100,100)"/>
<polygon points="214.2,212.3 220.2,212.3 220.2,218.3 214.2,218.3" fill="rgb(255,201,201)"/>
<polygon points="220.2,212.3 226.2,212.3 226.2,218.3 220.2,218.3" fill="rgb(255,197,197)"/>
<polygon points="226.2,212.3 232.2,212.3 232.2,218.3 226.2,218.3" fill="rgb(255,253,253)"/>
<polygon points="232.2,212.3 238.2,212.3 238.2,218.3 232.2,218.3" fill="rgb(212,212,255)"/>
<polygon points="248.2,212.3 254.2,212.3 254.2,218.3 248.2,218.3" fill="rgb(218,218,255)"/>
<polygon points="254.2,212.3 260.2,212.3 260.2,218.3 254.2,218.3" fill="rgb(255,199,199)"/>
<polygon points="260.2,212.3 266.2,212.3 266.2,218.3 260.2,218.3" fill="rgb(255,203,203)"/>
<polygon points="266.2,212.3 272.2,212.3 272.2,218.3 266.2,218.3" fill="rgb(255,77,77)"/>
<polygon points="272.2,212.3 278.2,212.3 278.2,218.3 272.2,218.3" fill="rgb(255,0,0)"/>
<polygon points="278.2,212.3 284.2,212.3 284.2,218.3 278.2,218.3" fill="rgb(222,222,255)"/>
<polygon points="284.2,212.3 290.2,212.3 290.2,218.3 284.2,218.3" fill="rgb(255,227,227)"/>
<polygon points="290.2,212.3 296.2,212.3 296.2,218.3 290.2,218.3" fill="rgb(240,240,255)"/>
<polygon points="306.2,212.3 312.2,212.3 312.2,218.3 306.2,218.3" fill="rgb(141,141,255)"/>
<polygon points="312.2,212.3 318.2,212.3 318.2,218.3 312.2,218.3" fill="rgb(218,218,255)"/>
<polygon points="318.2,212.3 324.2,212.3 324.2,218.3 318.2,218.3" fill="rgb(255,164,164)"/>
<polygon points="324.2,212.3 330.2,212.3 330.2,218.3 324.2,218.3" fill="rgb(255,209,209)"/>
<polygon points="330.2,212.3 336.2,212.3 336.2,218.3 330.2,218.3" fill="rgb(255,242,242)"/>
<polygon points="336.2,212.3 342.2,212.3 342.2,218.3 336.2,218.3" fill="rgb(255,209,209)"/>
<polygon points="342.2,212.3 348.2,212.3 348.2,218.3 342.2,218.3" fill="rgb(255,250,250)"/>
<polygon points="348.2,212.3 354.2,212.3 354.2,218.3 348.2,218.3" fill="rgb(199,199,255)"/>
<polygon points="156.2,218.3 164.2,218.3 164.2,224.3 156.2,224.3" fill="rgb(220,188,121)"/><text xml:space="preserve" x="160.2" y="224.133" font-family="Calibri" font-size="7.5" fill="rgb(0,0,0)" text-anchor="middle">13</text>
<polygon points="164.2,218.3 172.2,218.3 172.2,224.3 164.2,224.3" fill="rgb(220,188,121)"/><text xml:space="preserve" x="168.2" y="224.133" font-family="Calibri" font-size="7.5" fill="rgb(0,0,0)" text-anchor="middle">13</text>
<polygon points="172.2,218.3 180.2,218.3 180.2,224.3 172.2,224.3" fill="rgb(134,198,192)"/><text xml:space="preserve" x="176.2" y="224.133" font-family="Calibri" font-size="7.5" fill="rgb(0,0,0)" text-anchor="middle">2</text>
<polygon points="190.2,218.3 196.2,218.3 196.2,224.3 190.2,224.3" fill="rgb(212,212,255)"/>
<polygon points="196.2,218.3 202.2,218.3 202.2,224.3 196.2,224.3" fill="rgb(254,195,195)"/>
<polygon points="202.2,218.3 208.2,218.3 208.2,224.3 202.2,224.3" fill="rgb(255,100,100)"/>
<polygon points="208.2,218.3 214.2,218.3 214.2,224.3 208.2,224.3" fill="rgb(255,77,77)"/>
<polygon points="214.2,218.3 220.2,218.3 220.2,224.3 214.2,224.3" fill="rgb(255,185,185)"/>
<polygon points="220.2,218.3 226.2,218.3 226.2,224.3 220.2,224.3" fill="rgb(254,232,232)"/>
<polygon points="226.2,218.3 232.2,218.3 232.2,224.3 226.2,224.3" fill="rgb(255,191,191)"/>
<polygon points="232.2,218.3 238.2,218.3 238.2,224.3 232.2,224.3" fill="rgb(143,143,255)"/>
<polygon points="248.2,218.3 254.2,218.3 254.2,224.3 248.2,224.3" fill="rgb(255,210,210)"/>
<polygon points="254.2,218.3 260.2,218.3 260.2,224.3 254.2,224.3" fill="rgb(255,161,161)"/>
<polygon points="260.2,218.3 266.2,218.3 266.2,224.3 260.2,224.3" fill="rgb(255,120,120)"/>
<polygon points="266.2,218.3 272.2,218.3 272.2,224.3 266.2,224.3" fill="rgb(255,54,54)"/>
<polygon points="272.2,218.3 278.2,218.3 278.2,224.3 272.2,224.3" fill="rgb(255,199,199)"/>
<polygon points="278.2,218.3 284.2,218.3 284.2,224.3 278.2,224.3" fill="rgb(211,211,255)"/>
<polygon points="284.2,218.3 290.2,218.3 290.2,224.3 284.2,224.3" fill="rgb(213,213,255)"/>
<polygon points="290.2,218.3 296.2,218.3 296.2,224.3 290.2,224.3" fill="rgb(226,226,255)"/>
<polygon points="306.2,218.3 312.2,218.3 312.2,224.3 306.2,224.3" fill="rgb(150,150,255)"/>
<polygon points="312.2,218.3 318.2,218.3 318.2,224.3 312.2,224.3" fill="rgb(255,229,229)"/>
<polygon points="318.2,218.3 324.2,218.3 324.2,224.3 318.2,224.3" fill="rgb(255,239,239)"/>
<polygon points="324.2,218.3 330.2,218.3 330.2,224.3 324.2,224.3" fill="rgb(242,242,255)"/>
<polygon points="330.2,218.3 336.2,218.3 336.2,224.3 330.2,224.3" fill="rgb(255,244,244)"/>
<polygon points="336.2,218.3 342.2,218.3 342.2,224.3 336.2,224.3" fill="rgb(214,214,255)"/>
<polygon points="342.2,218.3 348.2,218.3 348.2,224.3 342.2,224.3" fill="rgb(162,162,255)"/>
<polygon points="348.2,218.3 354.2,218.3 354.2,224.3 348.2,224.3" fill="rgb(158,158,255)"/>
<polygon points="156.2,224.3 164.2,224.3 164.2,230.3 156.2,230.3" fill="rgb(220,188,121)"/><text xml:space="preserve" x="160.2" y="230.133" font-family="Calibri" font-size="7.5" fill="rgb(0,0,0)" text-anchor="middle">13</text>
<polygon points="164.2,224.3 172.2,224.3 172.2,230.3 164.2,230.3" fill="rgb(220,188,121)"/><text xml:space="preserve" x="168.2" y="230.133" font-family="Calibri" font-size="7.5" fill="rgb(0,0,0)" text-anchor="middle">13</text>
<polygon points="172.2,224.3 180.2,224.3 180.2,230.3 172.2,230.3" fill="rgb(134,198,192)"/><text xml:space="preserve" x="176.2" y="230.133" font-family="Calibri" font-size="7.5" fill="rgb(0,0,0)" text-anchor="middle">2</text>
<polygon points="190.2,224.3 196.2,224.3 196.2,230.3 190.2,230.3" fill="rgb(219,219,255)"/>
<polygon points="196.2,224.3 202.2,224.3 202.2,230.3 196.2,230.3" fill="rgb(225,225,255)"/>
<polygon points="202.2,224.3 208.2,224.3 208.2,230.3 202.2,230.3" fill="rgb(255,168,168)"/>
<polygon points="208.2,224.3 214.2,224.3 214.2,230.3 208.2,230.3" fill="rgb(255,62,62)"/>
<polygon points="214.2,224.3 220.2,224.3 220.2,230.3 214.2,230.3" fill="rgb(255,75,75)"/>
<polygon points="220.2,224.3 226.2,224.3 226.2,230.3 220.2,230.3" fill="rgb(185,185,255)"/>
<polygon points="226.2,224.3 232.2,224.3 232.2,230.3 226.2,230.3" fill="rgb(209,209,255)"/>
<polygon points="232.2,224.3 238.2,224.3 238.2,230.3 232.2,230.3" fill="rgb(131,131,255)"/>
<polygon points="248.2,224.3 254.2,224.3 254.2,230.3 248.2,230.3" fill="rgb(224,224,255)"/>
<polygon points="254.2,224.3 260.2,224.3 260.2,230.3 254.2,230.3" fill="rgb(255,195,195)"/>
<polygon points="260.2,224.3 266.2,224.3 266.2,230.3 260.2,230.3" fill="rgb(255,150,150)"/>
<polygon points="266.2,224.3 272.2,224.3 272.2,230.3 266.2,230.3" fill="rgb(255,47,47)"/>
<polygon points="272.2,224.3 278.2,224.3 278.2,230.3 272.2,230.3" fill="rgb(255,54,54)"/>
<polygon points="278.2,224.3 284.2,224.3 284.2,230.3 278.2,230.3" fill="rgb(203,203,255)"/>
<polygon points="284.2,224.3 290.2,224.3 290.2,230.3 284.2,230.3" fill="rgb(255,227,227)"/>
<polygon points="290.2,224.3 296.2,224.3 296.2,230.3 290.2,230.3" fill="rgb(145,145,255)"/>
<polygon points="306.2,224.3 312.2,224.3 312.2,230.3 306.2,230.3" fill="rgb(164,164,255)"/>
<polygon points="312.2,224.3 318.2,224.3 318.2,230.3 312.2,230.3" fill="rgb(179,179,255)"/>
<polygon points="318.2,224.3 324.2,224.3 324.2,230.3 318.2,230.3" fill="rgb(239,239,255)"/>
<polygon points="324.2,224.3 330.2,224.3 330.2,230.3 324.2,230.3" fill="rgb(255,218,218)"/>
<polygon points="330.2,224.3 336.2,224.3 336.2,230.3 330.2,230.3" fill="rgb(254,143,143)"/>
<polygon points="336.2,224.3 342.2,224.3 342.2,230.3 336.2,230.3" fill="rgb(239,239,255)"/>
<polygon points="342.2,224.3 348.2,224.3 348.2,230.3 342.2,230.3" fill="rgb(175,175,255)"/>
<polygon points="348.2,224.3 354.2,224.3 354.2,230.3 348.2,230.3" fill="rgb(83,83,255)"/>
<polygon points="156.2,230.3 164.2,230.3 164.2,236.3 156.2,236.3" fill="rgb(220,188,121)"/><text xml:space="preserve" x="160.2" y="236.133" font-family="Calibri" font-size="7.5" fill="rgb(0,0,0)" text-anchor="middle">13</text>
<polygon points="164.2,230.3 172.2,230.3 172.2,236.3 164.2,236.3" fill="rgb(220,188,121)"/><text xml:space="preserve" x="168.2" y="236.133" font-family="Calibri" font-size="7.5" fill="rgb(0,0,0)" text-anchor="middle">13</text>
<polygon points="172.2,230.3 180.2,230.3 180.2,236.3 172.2,236.3" fill="rgb(134,198,192)"/><text xml:space="preserve" x="176.2" y="236.133" font-family="Calibri" font-size="7.5" fill="rgb(0,0,0)" text-anchor="middle">2</text>
<polygon points="190.2,230.3 196.2,230.3 196.2,236.3 190.2,236.3" fill="rgb(187,187,255)"/>
<polygon points="196.2,230.3 202.2,230.3 202.2,236.3 196.2,236.3" fill="rgb(233,233,255)"/>
<polygon points="202.2,230.3 208.2,230.3 208.2,236.3 202.2,236.3" fill="rgb(255,170,170)"/>
<polygon points="208.2,230.3 214.2,230.3 214.2,236.3 208.2,236.3" fill="rgb(255,127,127)"/>
<polygon points="214.2,230.3 220.2,230.3 220.2,236.3 214.2,236.3" fill="rgb(255,217,217)"/>
<polygon points="220.2,230.3 226.2,230.3 226.2,236.3 220.2,236.3" fill="rgb(255,250,250)"/>
<polygon points="226.2,230.3 232.2,230.3 232.2,236.3 226.2,236.3" fill="rgb(255,214,214)"/>
<polygon points="232.2,230.3 238.2,230.3 238.2,236.3 232.2,236.3" fill="rgb(172,172,255)"/>
<polygon points="248.2,230.3 254.2,230.3 254.2,236.3 248.2,236.3" fill="rgb(243,243,255)"/>
<polygon points="254.2,230.3 260.2,230.3 260.2,236.3 254.2,236.3" fill="rgb(255,204,204)"/>
<polygon points="260.2,230.3 266.2,230.3 266.2,236.3 260.2,236.3" fill="rgb(255,150,150)"/>
<polygon points="266.2,230.3 272.2,230.3 272.2,236.3 266.2,236.3" fill="rgb(255,78,78)"/>
<polygon points="272.2,230.3 278.2,230.3 278.2,236.3 272.2,236.3" fill="rgb(255,151,151)"/>
<polygon points="278.2,230.3 284.2,230.3 284.2,236.3 278.2,236.3" fill="rgb(225,225,255)"/>
<polygon points="284.2,230.3 290.2,230.3 290.2,236.3 284.2,236.3" fill="rgb(255,248,248)"/>
<polygon points="290.2,230.3 296.2,230.3 296.2,236.3 290.2,236.3" fill="rgb(197,197,255)"/>
<polygon points="306.2,230.3 312.2,230.3 312.2,236.3 306.2,236.3" fill="rgb(159,159,255)"/>
<polygon points="312.2,230.3 318.2,230.3 318.2,236.3 312.2,236.3" fill="rgb(248,248,255)"/>
<polygon points="318.2,230.3 324.2,230.3 324.2,236.3 318.2,236.3" fill="rgb(255,223,223)"/>
<polygon points="324.2,230.3 330.2,230.3 330.2,236.3 324.2,236.3" fill="rgb(255,214,214)"/>
<polygon points="330.2,230.3 336.2,230.3 336.2,236.3 330.2,236.3" fill="rgb(255,233,233)"/>
<polygon points="336.2,230.3 342.2,230.3 342.2,236.3 336.2,236.3" fill="rgb(220,220,255)"/>
<polygon points="342.2,230.3 348.2,230.3 348.2,236.3 342.2,236.3" fill="rgb(185,185,255)"/>
<polygon points="348.2,230.3 354.2,230.3 354.2,236.3 348.2,236.3" fill="rgb(133,133,255)"/>
<polygon points="156.2,236.3 164.2,236.3 164.2,242.3 156.2,242.3" fill="rgb(220,188,121)"/><text xml:space="preserve" x="160.2" y="242.133" font-family="Calibri" font-size="7.5" fill="rgb(0,0,0)" text-anchor="middle">13</text>
<polygon points="164.2,236.3 172.2,236.3 172.2,242.3 164.2,242.3" fill="rgb(220,188,121)"/><text xml:space="preserve" x="168.2" y="242.133" font-family="Calibri" font-size="7.5" fill="rgb(0,0,0)" text-anchor="middle">13</text>
<polygon points="172.2,236.3 180.2,236.3 180.2,242.3 172.2,242.3" fill="rgb(134,198,192)"/><text xml:space="preserve" x="176.2" y="242.133" font-family="Calibri" font-size="7.5" fill="rgb(0,0,0)" text-anchor="middle">2</text>
<polygon points="190.2,236.3 196.2,236.3 196.2,242.3 190.2,242.3" fill="rgb(255,188,188)"/>
<polygon points="196.2,236.3 202.2,236.3 202.2,242.3 196.2,242.3" fill="rgb(254,142,142)"/>
<polygon points="202.2,236.3 208.2,236.3 208.2,242.3 202.2,242.3" fill="rgb(255,64,64)"/>
<polygon points="208.2,236.3 214.2,236.3 214.2,242.3 208.2,242.3" fill="rgb(255,0,0)"/>
<polygon points="214.2,236.3 220.2,236.3 220.2,242.3 214.2,242.3" fill="rgb(255,70,70)"/>
<polygon points="220.2,236.3 226.2,236.3 226.2,242.3 220.2,242.3" fill="rgb(144,144,255)"/>
<polygon points="226.2,236.3 232.2,236.3 232.2,242.3 226.2,242.3" fill="rgb(155,155,255)"/>
<polygon points="232.2,236.3 238.2,236.3 238.2,242.3 232.2,242.3" fill="rgb(151,151,255)"/>
<polygon points="248.2,236.3 254.2,236.3 254.2,242.3 248.2,242.3" fill="rgb(255,254,254)"/>
<polygon points="254.2,236.3 260.2,236.3 260.2,242.3 254.2,242.3" fill="rgb(255,178,178)"/>
<polygon points="260.2,236.3 266.2,236.3 266.2,242.3 260.2,242.3" fill="rgb(255,122,122)"/>
<polygon points="266.2,236.3 272.2,236.3 272.2,242.3 266.2,242.3" fill="rgb(255,49,49)"/>
<polygon points="272.2,236.3 278.2,236.3 278.2,242.3 272.2,242.3" fill="rgb(254,151,151)"/>
<polygon points="278.2,236.3 284.2,236.3 284.2,242.3 278.2,242.3" fill="rgb(210,210,255)"/>
<polygon points="284.2,236.3 290.2,236.3 290.2,242.3 284.2,242.3" fill="rgb(255,247,247)"/>
<polygon points="290.2,236.3 296.2,236.3 296.2,242.3 290.2,242.3" fill="rgb(174,174,255)"/>
<polygon points="306.2,236.3 312.2,236.3 312.2,242.3 306.2,242.3" fill="rgb(163,163,255)"/>
<polygon points="312.2,236.3 318.2,236.3 318.2,242.3 312.2,242.3" fill="rgb(255,232,232)"/>
<polygon points="318.2,236.3 324.2,236.3 324.2,242.3 318.2,242.3" fill="rgb(255,202,202)"/>
<polygon points="324.2,236.3 330.2,236.3 330.2,242.3 324.2,242.3" fill="rgb(255,214,214)"/>
<polygon points="330.2,236.3 336.2,236.3 336.2,242.3 330.2,242.3" fill="rgb(255,206,206)"/>
<polygon points="336.2,236.3 342.2,236.3 342.2,242.3 336.2,242.3" fill="rgb(255,220,220)"/>
<polygon points="342.2,236.3 348.2,236.3 348.2,242.3 342.2,242.3" fill="rgb(255,197,197)"/>
<polygon points="348.2,236.3 354.2,236.3 354.2,242.3 348.2,242.3" fill="rgb(183,183,255)"/>
<polygon points="156.2,242.3 164.2,242.3 164.2,248.3 156.2,248.3" fill="rgb(220,188,121)"/><text xml:space="preserve" x="160.2" y="248.133" font-family="Calibri" font-size="7.5" fill="rgb(0,0,0)" text-anchor="middle">13</text>
<polygon points="164.2,242.3 172.2,242.3 172.2,248.3 164.2,248.3" fill="rgb(220,188,121)"/><text xml:space="preserve" x="168.2" y="248.133" font-family="Calibri" font-size="7.5" fill="rgb(0,0,0)" text-anchor="middle">13</text>
<polygon points="172.2,242.3 180.2,242.3 180.2,248.3 172.2,248.3" fill="rgb(134,198,192)"/><text xml:space="preserve" x="176.2" y="248.133" font-family="Calibri" font-size="7.5" fill="rgb(0,0,0)" text-anchor="middle">2</text>
<polygon points="190.2,242.3 196.2,242.3 196.2,248.3 190.2,248.3" fill="rgb(255,63,63)"/>
<polygon points="196.2,242.3 202.2,242.3 202.2,248.3 196.2,248.3" fill="rgb(250,250,255)"/>
<polygon points="202.2,242.3 208.2,242.3 208.2,248.3 202.2,248.3" fill="rgb(255,168,168)"/>
<polygon points="208.2,242.3 214.2,242.3 214.2,248.3 208.2,248.3" fill="rgb(255,174,174)"/>
<polygon points="214.2,242.3 220.2,242.3 220.2,248.3 214.2,248.3" fill="rgb(216,216,255)"/>
<polygon points="220.2,242.3 226.2,242.3 226.2,248.3 220.2,248.3" fill="rgb(221,221,255)"/>
<polygon points="226.2,242.3 232.2,242.3 232.2,248.3 226.2,248.3" fill="rgb(255,219,219)"/>
<polygon points="232.2,242.3 238.2,242.3 238.2,248.3 232.2,248.3" fill="rgb(255,157,157)"/>
<polygon points="248.2,242.3 254.2,242.3 254.2,248.3 248.2,248.3" fill="rgb(255,38,38)"/>
<polygon points="254.2,242.3 260.2,242.3 260.2,248.3 254.2,248.3" fill="rgb(255,73,73)"/>
<polygon points="260.2,242.3 266.2,242.3 266.2,248.3 260.2,248.3" fill="rgb(255,182,182)"/>
<polygon points="266.2,242.3 272.2,242.3 272.2,248.3 266.2,248.3" fill="rgb(255,70,70)"/>
<polygon points="272.2,242.3 278.2,242.3 278.2,248.3 272.2,248.3" fill="rgb(255,183,183)"/>
<polygon points="278.2,242.3 284.2,242.3 284.2,248.3 278.2,248.3" fill="rgb(158,158,255)"/>
<polygon points="284.2,242.3 290.2,242.3 290.2,248.3 284.2,248.3" fill="rgb(212,212,255)"/>
<polygon points="290.2,242.3 296.2,242.3 296.2,248.3 290.2,248.3" fill="rgb(255,170,170)"/>
<polygon points="306.2,242.3 312.2,242.3 312.2,248.3 306.2,248.3" fill="rgb(255,36,36)"/>
<polygon points="312.2,242.3 318.2,242.3 318.2,248.3 312.2,248.3" fill="rgb(255,215,215)"/>
<polygon points="318.2,242.3 324.2,242.3 324.2,248.3 318.2,248.3" fill="rgb(204,204,255)"/>
<polygon points="324.2,242.3 330.2,242.3 330.2,248.3 324.2,248.3" fill="rgb(255,210,210)"/>
<polygon points="330.2,242.3 336.2,242.3 336.2,248.3 330.2,248.3" fill="rgb(229,229,255)"/>
<polygon points="336.2,242.3 342.2,242.3 342.2,248.3 336.2,248.3" fill="rgb(186,186,255)"/>
<polygon points="342.2,242.3 348.2,242.3 348.2,248.3 342.2,248.3" fill="rgb(225,225,255)"/>
<polygon points="348.2,242.3 354.2,242.3 354.2,248.3 348.2,248.3" fill="rgb(255,231,231)"/>
<polygon points="156.2,248.3 164.2,248.3 164.2,254.3 156.2,254.3" fill="rgb(220,188,121)"/><text xml:space="preserve" x="160.2" y="254.133" font-family="Calibri" font-size="7.5" fill="rgb(0,0,0)" text-anchor="middle">13</text>
<polygon points="164.2,248.3 172.2,248.3 172.2,254.3 164.2,254.3" fill="rgb(220,188,121)"/><text xml:space="preserve" x="168.2" y="254.133" font-family="Calibri" font-size="7.5" fill="rgb(0,0,0)" text-anchor="middle">13</text>
<polygon points="172.2,248.3 180.2,248.3 180.2,254.3 172.2,254.3" fill="rgb(134,198,192)"/><text xml:space="preserve" x="176.2" y="254.133" font-family="Calibri" font-size="7.5" fill="rgb(0,0,0)" text-anchor="middle">2</text>
<polygon points="190.2,248.3 196.2,248.3 196.2,254.3 190.2,254.3" fill="rgb(255,236,236)"/>
<polygon points="196.2,248.3 202.2,248.3 202.2,254.3 196.2,254.3" fill="rgb(255,196,196)"/>
<polygon points="202.2,248.3 208.2,248.3 208.2,254.3 202.2,254.3" fill="rgb(255,126,126)"/>
<polygon points="208.2,248.3 214.2,248.3 214.2,254.3 208.2,254.3" fill="rgb(255,65,65)"/>
<polygon points="214.2,248.3 220.2,248.3 220.2,254.3 214.2,254.3" fill="rgb(255,231,231)"/>
<polygon points="220.2,248.3 226.2,248.3 226.2,254.3 220.2,254.3" fill="rgb(237,237,255)"/>
<polygon points="226.2,248.3 232.2,248.3 232.2,254.3 226.2,254.3" fill="rgb(197,197,255)"/>
<polygon points="232.2,248.3 238.2,248.3 238.2,254.3 232.2,254.3" fill="rgb(176,176,255)"/>
<polygon points="248.2,248.3 254.2,248.3 254.2,254.3 248.2,254.3" fill="rgb(255,175,175)"/>
<polygon points="254.2,248.3 260.2,248.3 260.2,254.3 254.2,254.3" fill="rgb(255,181,181)"/>
<polygon points="260.2,248.3 266.2,248.3 266.2,254.3 260.2,254.3" fill="rgb(255,134,134)"/>
<polygon points="266.2,248.3 272.2,248.3 272.2,254.3 266.2,254.3" fill="rgb(255,68,68)"/>
<polygon points="272.2,248.3 278.2,248.3 278.2,254.3 272.2,254.3" fill="rgb(255,196,196)"/>
<polygon points="278.2,248.3 284.2,248.3 284.2,254.3 278.2,254.3" fill="rgb(201,201,255)"/>
<polygon points="284.2,248.3 290.2,248.3 290.2,254.3 284.2,254.3" fill="rgb(194,194,255)"/>
<polygon points="290.2,248.3 296.2,248.3 296.2,254.3 290.2,254.3" fill="rgb(188,188,255)"/>
<polygon points="306.2,248.3 312.2,248.3 312.2,254.3 306.2,254.3" fill="rgb(175,175,255)"/>
<polygon points="312.2,248.3 318.2,248.3 318.2,254.3 312.2,254.3" fill="rgb(246,246,255)"/>
<polygon points="318.2,248.3 324.2,248.3 324.2,254.3 318.2,254.3" fill="rgb(255,157,157)"/>
<polygon points="324.2,248.3 330.2,248.3 330.2,254.3 324.2,254.3" fill="rgb(255,134,134)"/>
<polygon points="330.2,248.3 336.2,248.3 336.2,254.3 330.2,254.3" fill="rgb(255,248,248)"/>
<polygon points="336.2,248.3 342.2,248.3 342.2,254.3 336.2,254.3" fill="rgb(209,209,255)"/>
<polygon points="342.2,248.3 348.2,248.3 348.2,254.3 342.2,254.3" fill="rgb(163,163,255)"/>
<polygon points="348.2,248.3 354.2,248.3 354.2,254.3 348.2,254.3" fill="rgb(132,132,255)"/>
<polygon points="156.2,254.3 164.2,254.3 164.2,260.3 156.2,260.3" fill="rgb(220,188,121)"/><text xml:space="preserve" x="160.2" y="260.133" font-family="Calibri" font-size="7.5" fill="rgb(0,0,0)" text-anchor="middle">13</text>
<polygon points="164.2,254.3 172.2,254.3 172.2,260.3 164.2,260.3" fill="rgb(220,188,121)"/><text xml:space="preserve" x="168.2" y="260.133" font-family="Calibri" font-size="7.5" fill="rgb(0,0,0)" text-anchor="middle">13</text>
<polygon points="172.2,254.3 180.2,254.3 180.2,260.3 172.2,260.3" fill="rgb(134,198,192)"/><text xml:space="preserve" x="176.2" y="260.133" font-family="Calibri" font-size="7.5" fill="rgb(0,0,0)" text-anchor="middle">2</text>
<polygon points="190.2,254.3 196.2,254.3 196.2,260.3 190.2,260.3" fill="rgb(201,201,255)"/>
<polygon points="196.2,254.3 202.2,254.3 202.2,260.3 196.2,260.3" fill="rgb(247,247,255)"/>
<polygon points="202.2,254.3 208.2,254.3 208.2,260.3 202.2,260.3" fill="rgb(255,95,95)"/>
<polygon points="208.2,254.3 214.2,254.3 214.2,260.3 208.2,260.3" fill="rgb(255,74,74)"/>
<polygon points="214.2,254.3 220.2,254.3 220.2,260.3 214.2,260.3" fill="rgb(255,237,237)"/>
<polygon points="220.2,254.3 226.2,254.3 226.2,260.3 220.2,260.3" fill="rgb(255,216,216)"/>
<polygon points="226.2,254.3 232.2,254.3 232.2,260.3 226.2,260.3" fill="rgb(222,222,255)"/>
<polygon points="232.2,254.3 238.2,254.3 238.2,260.3 232.2,260.3" fill="rgb(167,167,255)"/>
<polygon points="248.2,254.3 254.2,254.3 254.2,260.3 248.2,260.3" fill="rgb(220,220,255)"/>
<polygon points="254.2,254.3 260.2,254.3 260.2,260.3 254.2,260.3" fill="rgb(255,200,200)"/>
<polygon points="260.2,254.3 266.2,254.3 266.2,260.3 260.2,260.3" fill="rgb(255,202,202)"/>
<polygon points="266.2,254.3 272.2,254.3 272.2,260.3 266.2,260.3" fill="rgb(255,34,34)"/>
<polygon points="272.2,254.3 278.2,254.3 278.2,260.3 272.2,260.3" fill="rgb(255,170,170)"/>
<polygon points="278.2,254.3 284.2,254.3 284.2,260.3 278.2,260.3" fill="rgb(227,227,255)"/>
<polygon points="284.2,254.3 290.2,254.3 290.2,260.3 284.2,260.3" fill="rgb(204,204,255)"/>
<polygon points="290.2,254.3 296.2,254.3 296.2,260.3 290.2,260.3" fill="rgb(145,145,255)"/>
<polygon points="306.2,254.3 312.2,254.3 312.2,260.3 306.2,260.3" fill="rgb(187,187,255)"/>
<polygon points="312.2,254.3 318.2,254.3 318.2,260.3 312.2,260.3" fill="rgb(224,224,255)"/>
<polygon points="318.2,254.3 324.2,254.3 324.2,260.3 318.2,260.3" fill="rgb(255,200,200)"/>
<polygon points="324.2,254.3 330.2,254.3 330.2,260.3 324.2,260.3" fill="rgb(255,141,141)"/>
<polygon points="330.2,254.3 336.2,254.3 336.2,260.3 330.2,260.3" fill="rgb(255,209,209)"/>
<polygon points="336.2,254.3 342.2,254.3 342.2,260.3 336.2,260.3" fill="rgb(223,223,255)"/>
<polygon points="342.2,254.3 348.2,254.3 348.2,260.3 342.2,260.3" fill="rgb(183,183,255)"/>
<polygon points="348.2,254.3 354.2,254.3 354.2,260.3 348.2,260.3" fill="rgb(168,168,255)"/>
<polygon points="156.2,260.3 164.2,260.3 164.2,266.3 156.2,266.3" fill="rgb(220,188,121)"/><text xml:space="preserve" x="160.2" y="266.133" font-family="Calibri" font-size="7.5" fill="rgb(0,0,0)" text-anchor="middle">13</text>
<polygon points="164.2,260.3 172.2,260.3 172.2,266.3 164.2,266.3" fill="rgb(220,188,121)"/><text xml:space="preserve" x="168.2" y="266.133" font-family="Calibri" font-size="7.5" fill="rgb(0,0,0)" text-anchor="middle">13</text>
<polygon points="172.2,260.3 180.2,260.3 180.2,266.3 172.2,266.3" fill="rgb(134,198,192)"/><text xml:space="preserve" x="176.2" y="266.133" font-family="Calibri" font-size="7.5" fill="rgb(0,0,0)" text-anchor="middle">2</text>
<polygon points="190.2,260.3 196.2,260.3 196.2,266.3 190.2,266.3" fill="rgb(191,191,255)"/>
<polygon points="196.2,260.3 202.2,260.3 202.2,266.3 196.2,266.3" fill="rgb(241,241,255)"/>
<polygon points="202.2,260.3 208.2,260.3 208.2,266.3 202.2,266.3" fill="rgb(255,106,106)"/>
<polygon points="208.2,260.3 214.2,260.3 214.2,266.3 208.2,266.3" fill="rgb(255,93,93)"/>
<polygon points="214.2,260.3 220.2,260.3 220.2,266.3 214.2,266.3" fill="rgb(255,250,250)"/>
<polygon points="220.2,260.3 226.2,260.3 226.2,266.3 220.2,266.3" fill="rgb(255,212,212)"/>
<polygon points="226.2,260.3 232.2,260.3 232.2,266.3 226.2,266.3" fill="rgb(234,234,255)"/>
<polygon points="232.2,260.3 238.2,260.3 238.2,266.3 232.2,266.3" fill="rgb(175,175,255)"/>
<polygon points="248.2,260.3 254.2,260.3 254.2,266.3 248.2,266.3" fill="rgb(211,211,255)"/>
<polygon points="254.2,260.3 260.2,260.3 260.2,266.3 254.2,266.3" fill="rgb(255,207,207)"/>
<polygon points="260.2,260.3 266.2,260.3 266.2,266.3 260.2,266.3" fill="rgb(255,213,213)"/>
<polygon points="266.2,260.3 272.2,260.3 272.2,266.3 266.2,266.3" fill="rgb(255,48,48)"/>
<polygon points="272.2,260.3 278.2,260.3 278.2,266.3 272.2,266.3" fill="rgb(255,191,191)"/>
<polygon points="278.2,260.3 284.2,260.3 284.2,266.3 278.2,266.3" fill="rgb(232,232,255)"/>
<polygon points="284.2,260.3 290.2,260.3 290.2,266.3 284.2,266.3" fill="rgb(205,205,255)"/>
<polygon points="290.2,260.3 296.2,260.3 296.2,266.3 290.2,266.3" fill="rgb(156,156,255)"/>
<polygon points="306.2,260.3 312.2,260.3 312.2,266.3 306.2,266.3" fill="rgb(186,186,255)"/>
<polygon points="312.2,260.3 318.2,260.3 318.2,266.3 312.2,266.3" fill="rgb(216,216,255)"/>
<polygon points="318.2,260.3 324.2,260.3 324.2,266.3 318.2,266.3" fill="rgb(255,195,195)"/>
<polygon points="324.2,260.3 330.2,260.3 330.2,266.3 324.2,266.3" fill="rgb(255,143,143)"/>
<polygon points="330.2,260.3 336.2,260.3 336.2,266.3 330.2,266.3" fill="rgb(255,228,228)"/>
<polygon points="336.2,260.3 342.2,260.3 342.2,266.3 336.2,266.3" fill="rgb(238,238,255)"/>
<polygon points="342.2,260.3 348.2,260.3 348.2,266.3 342.2,266.3" fill="rgb(181,181,255)"/>
<polygon points="348.2,260.3 354.2,260.3 354.2,266.3 348.2,266.3" fill="rgb(180,180,255)"/>
<polygon points="156.2,266.3 164.2,266.3 164.2,272.3 156.2,272.3" fill="rgb(220,188,121)"/><text xml:space="preserve" x="160.2" y="272.133" font-family="Calibri" font-size="7.5" fill="rgb(0,0,0)" text-anchor="middle">13</text>
<polygon points="164.2,266.3 172.2,266.3 172.2,272.3 164.2,272.3" fill="rgb(220,188,121)"/><text xml:space="preserve" x="168.2" y="272.133" font-family="Calibri" font-size="7.5" fill="rgb(0,0,0)" text-anchor="middle">13</text>
<polygon points="172.2,266.3 180.2,266.3 180.2,272.3 172.2,272.3" fill="rgb(134,198,192)"/><text xml:space="preserve" x="176.2" y="272.133" font-family="Calibri" font-size="7.5" fill="rgb(0,0,0)" text-anchor="middle">2</text>
<polygon points="190.2,266.3 196.2,266.3 196.2,272.3 190.2,272.3" fill="rgb(191,191,255)"/>
<polygon points="196.2,266.3 202.2,266.3 202.2,272.3 196.2,272.3" fill="rgb(241,241,255)"/>
<polygon points="202.2,266.3 208.2,266.3 208.2,272.3 202.2,272.3" fill="rgb(255,100,100)"/>
<polygon points="208.2,266.3 214.2,266.3 214.2,272.3 208.2,272.3" fill="rgb(255,93,93)"/>
<polygon points="214.2,266.3 220.2,266.3 220.2,272.3 214.2,272.3" fill="rgb(255,246,246)"/>
<polygon points="220.2,266.3 226.2,266.3 226.2,272.3 220.2,272.3" fill="rgb(255,214,214)"/>
<polygon points="226.2,266.3 232.2,266.3 232.2,272.3 226.2,272.3" fill="rgb(225,225,255)"/>
<polygon points="232.2,266.3 238.2,266.3 238.2,272.3 232.2,272.3" fill="rgb(172,172,255)"/>
<polygon points="248.2,266.3 254.2,266.3 254.2,272.3 248.2,272.3" fill="rgb(217,217,255)"/>
<polygon points="254.2,266.3 260.2,266.3 260.2,272.3 254.2,272.3" fill="rgb(255,205,205)"/>
<polygon points="260.2,266.3 266.2,266.3 266.2,272.3 260.2,272.3" fill="rgb(255,215,215)"/>
<polygon points="266.2,266.3 272.2,266.3 272.2,272.3 266.2,272.3" fill="rgb(255,52,52)"/>
<polygon points="272.2,266.3 278.2,266.3 278.2,272.3 272.2,272.3" fill="rgb(254,190,190)"/>
<polygon points="278.2,266.3 284.2,266.3 284.2,272.3 278.2,272.3" fill="rgb(230,230,255)"/>
<polygon points="284.2,266.3 290.2,266.3 290.2,272.3 284.2,272.3" fill="rgb(207,207,255)"/>
<polygon points="290.2,266.3 296.2,266.3 296.2,272.3 290.2,272.3" fill="rgb(155,155,255)"/>
<polygon points="306.2,266.3 312.2,266.3 312.2,272.3 306.2,272.3" fill="rgb(183,183,255)"/>
<polygon points="312.2,266.3 318.2,266.3 318.2,272.3 312.2,272.3" fill="rgb(216,216,255)"/>
<polygon points="318.2,266.3 324.2,266.3 324.2,272.3 318.2,272.3" fill="rgb(255,200,200)"/>
<polygon points="324.2,266.3 330.2,266.3 330.2,272.3 324.2,272.3" fill="rgb(255,148,148)"/>
<polygon points="330.2,266.3 336.2,266.3 336.2,272.3 330.2,272.3" fill="rgb(255,222,222)"/>
<polygon points="336.2,266.3 342.2,266.3 342.2,272.3 336.2,272.3" fill="rgb(231,231,255)"/>
<polygon points="342.2,266.3 348.2,266.3 348.2,272.3 342.2,272.3" fill="rgb(190,190,255)"/>
<polygon points="348.2,266.3 354.2,266.3 354.2,272.3 348.2,272.3" fill="rgb(179,179,255)"/>
<polygon points="156.2,272.3 164.2,272.3 164.2,278.3 156.2,278.3" fill="rgb(220,188,121)"/><text xml:space="preserve" x="160.2" y="278.133" font-family="Calibri" font-size="7.5" fill="rgb(0,0,0)" text-anchor="middle">13</text>
<polygon points="164.2,272.3 172.2,272.3 172.2,278.3 164.2,278.3" fill="rgb(220,188,121)"/><text xml:space="preserve" x="168.2" y="278.133" font-family="Calibri" font-size="7.5" fill="rgb(0,0,0)" text-anchor="middle">13</text>
<polygon points="172.2,272.3 180.2,272.3 180.2,278.3 172.2,278.3" fill="rgb(134,198,192)"/><text xml:space="preserve" x="176.2" y="278.133" font-family="Calibri" font-size="7.5" fill="rgb(0,0,0)" text-anchor="middle">2</text>
<polygon points="190.2,272.3 196.2,272.3 196.2,278.3 190.2,278.3" fill="rgb(240,240,255)"/>
<polygon points="196.2,272.3 202.2,272.3 202.2,278.3 196.2,278.3" fill="rgb(255,217,217)"/>
<polygon points="202.2,272.3 208.2,272.3 208.2,278.3 202.2,278.3" fill="rgb(255,184,184)"/>
<polygon points="208.2,272.3 214.2,272.3 214.2,278.3 208.2,278.3" fill="rgb(255,30,30)"/>
<polygon points="214.2,272.3 220.2,272.3 220.2,278.3 214.2,278.3" fill="rgb(237,237,255)"/>
<polygon points="220.2,272.3 226.2,272.3 226.2,278.3 220.2,278.3" fill="rgb(255,182,182)"/>
<polygon points="226.2,272.3 232.2,272.3 232.2,278.3 226.2,278.3" fill="rgb(255,165,165)"/>
<polygon points="232.2,272.3 238.2,272.3 238.2,278.3 232.2,278.3" fill="rgb(176,176,255)"/>
<polygon points="248.2,272.3 254.2,272.3 254.2,278.3 248.2,278.3" fill="rgb(254,155,155)"/>
<polygon points="254.2,272.3 260.2,272.3 260.2,278.3 254.2,278.3" fill="rgb(255,80,80)"/>
<polygon points="260.2,272.3 266.2,272.3 266.2,278.3 260.2,278.3" fill="rgb(255,148,148)"/>
<polygon points="266.2,272.3 272.2,272.3 272.2,278.3 266.2,278.3" fill="rgb(255,0,0)"/>
<polygon points="272.2,272.3 278.2,272.3 278.2,278.3 272.2,278.3" fill="rgb(255,143,143)"/>
<polygon points="278.2,272.3 284.2,272.3 284.2,278.3 278.2,278.3" fill="rgb(255,215,215)"/>
<polygon points="284.2,272.3 290.2,272.3 290.2,278.3 284.2,278.3" fill="rgb(255,167,167)"/>
<polygon points="290.2,272.3 296.2,272.3 296.2,278.3 290.2,278.3" fill="rgb(207,207,255)"/>
<polygon points="306.2,272.3 312.2,272.3 312.2,278.3 306.2,278.3" fill="rgb(203,203,255)"/>
<polygon points="312.2,272.3 318.2,272.3 318.2,278.3 312.2,278.3" fill="rgb(207,207,255)"/>
<polygon points="318.2,272.3 324.2,272.3 324.2,278.3 318.2,278.3" fill="rgb(255,216,216)"/>
<polygon points="324.2,272.3 330.2,272.3 330.2,278.3 324.2,278.3" fill="rgb(255,109,109)"/>
<polygon points="330.2,272.3 336.2,272.3 336.2,278.3 330.2,278.3" fill="rgb(249,249,255)"/>
<polygon points="336.2,272.3 342.2,272.3 342.2,278.3 336.2,278.3" fill="rgb(255,188,188)"/>
<polygon points="342.2,272.3 348.2,272.3 348.2,278.3 342.2,278.3" fill="rgb(255,137,137)"/>
<polygon points="348.2,272.3 354.2,272.3 354.2,278.3 348.2,278.3" fill="rgb(234,234,255)"/>
<polygon points="156.2,278.3 164.2,278.3 164.2,284.3 156.2,284.3" fill="rgb(220,188,121)"/><text xml:space="preserve" x="160.2" y="284.133" font-family="Calibri" font-size="7.5" fill="rgb(0,0,0)" text-anchor="middle">13</text>
<polygon points="164.2,278.3 172.2,278.3 172.2,284.3 164.2,284.3" fill="rgb(220,188,121)"/><text xml:space="preserve" x="168.2" y="284.133" font-family="Calibri" font-size="7.5" fill="rgb(0,0,0)" text-anchor="middle">13</text>
<polygon points="172.2,278.3 180.2,278.3 180.2,284.3 172.2,284.3" fill="rgb(134,198,192)"/><text xml:space="preserve" x="176.2" y="284.133" font-family="Calibri" font-size="7.5" fill="rgb(0,0,0)" text-anchor="middle">2</text>
<polygon points="190.2,278.3 196.2,278.3 196.2,284.3 190.2,284.3" fill="rgb(255,248,248)"/>
<polygon points="196.2,278.3 202.2,278.3 202.2,284.3 196.2,284.3" fill="rgb(255,244,244)"/>
<polygon points="202.2,278.3 208.2,278.3 208.2,284.3 202.2,284.3" fill="rgb(255,189,189)"/>
<polygon points="208.2,278.3 214.2,278.3 214.2,284.3 208.2,284.3" fill="rgb(255,147,147)"/>
<polygon points="214.2,278.3 220.2,278.3 220.2,284.3 214.2,284.3" fill="rgb(255,108,108)"/>
<polygon points="220.2,278.3 226.2,278.3 226.2,284.3 220.2,284.3" fill="rgb(207,207,255)"/>
<polygon points="226.2,278.3 232.2,278.3 232.2,284.3 226.2,284.3" fill="rgb(231,231,255)"/>
<polygon points="232.2,278.3 238.2,278.3 238.2,284.3 232.2,284.3" fill="rgb(217,217,255)"/>
<polygon points="248.2,278.3 254.2,278.3 254.2,284.3 248.2,284.3" fill="rgb(255,199,199)"/>
<polygon points="254.2,278.3 260.2,278.3 260.2,284.3 254.2,284.3" fill="rgb(255,213,213)"/>
<polygon points="260.2,278.3 266.2,278.3 266.2,284.3 260.2,284.3" fill="rgb(255,213,213)"/>
<polygon points="266.2,278.3 272.2,278.3 272.2,284.3 266.2,284.3" fill="rgb(255,98,98)"/>
<polygon points="272.2,278.3 278.2,278.3 278.2,284.3 272.2,284.3" fill="rgb(255,124,124)"/>
<polygon points="278.2,278.3 284.2,278.3 284.2,284.3 278.2,284.3" fill="rgb(235,235,255)"/>
<polygon points="284.2,278.3 290.2,278.3 290.2,284.3 284.2,284.3" fill="rgb(241,241,255)"/>
<polygon points="290.2,278.3 296.2,278.3 296.2,284.3 290.2,284.3" fill="rgb(213,213,255)"/>
<polygon points="306.2,278.3 312.2,278.3 312.2,284.3 306.2,284.3" fill="rgb(223,223,255)"/>
<polygon points="312.2,278.3 318.2,278.3 318.2,284.3 312.2,284.3" fill="rgb(245,245,255)"/>
<polygon points="318.2,278.3 324.2,278.3 324.2,284.3 318.2,284.3" fill="rgb(255,169,169)"/>
<polygon points="324.2,278.3 330.2,278.3 330.2,284.3 324.2,284.3" fill="rgb(255,163,163)"/>
<polygon points="330.2,278.3 336.2,278.3 336.2,284.3 330.2,284.3" fill="rgb(255,100,100)"/>
<polygon points="336.2,278.3 342.2,278.3 342.2,284.3 336.2,284.3" fill="rgb(255,195,195)"/>
<polygon points="342.2,278.3 348.2,278.3 348.2,284.3 342.2,284.3" fill="rgb(255,251,251)"/>
<polygon points="348.2,278.3 354.2,278.3 354.2,284.3 348.2,284.3" fill="rgb(181,181,255)"/>
<polygon points="156.2,284.3 164.2,284.3 164.2,290.3 156.2,290.3" fill="rgb(220,188,121)"/><text xml:space="preserve" x="160.2" y="290.133" font-family="Calibri" font-size="7.5" fill="rgb(0,0,0)" text-anchor="middle">13</text>
<polygon points="164.2,284.3 172.2,284.3 172.2,290.3 164.2,290.3" fill="rgb(220,188,121)"/><text xml:space="preserve" x="168.2" y="290.133" font-family="Calibri" font-size="7.5" fill="rgb(0,0,0)" text-anchor="middle">13</text>
<polygon points="172.2,284.3 180.2,284.3 180.2,290.3 172.2,290.3" fill="rgb(134,198,192)"/><text xml:space="preserve" x="176.2" y="290.133" font-family="Calibri" font-size="7.5" fill="rgb(0,0,0)" text-anchor="middle">2</text>
<polygon points="190.2,284.3 196.2,284.3 196.2,290.3 190.2,290.3" fill="rgb(255,189,189)"/>
<polygon points="196.2,284.3 202.2,284.3 202.2,290.3 196.2,290.3" fill="rgb(255,149,149)"/>
<polygon points="202.2,284.3 208.2,284.3 208.2,290.3 202.2,290.3" fill="rgb(255,47,47)"/>
<polygon points="208.2,284.3 214.2,284.3 214.2,290.3 208.2,290.3" fill="rgb(255,0,0)"/>
<polygon points="214.2,284.3 220.2,284.3 220.2,290.3 214.2,290.3" fill="rgb(254,254,255)"/>
<polygon points="220.2,284.3 226.2,284.3 226.2,290.3 220.2,290.3" fill="rgb(255,105,105)"/>
<polygon points="226.2,284.3 232.2,284.3 232.2,290.3 226.2,290.3" fill="rgb(247,247,255)"/>
<polygon points="232.2,284.3 238.2,284.3 238.2,290.3 232.2,290.3" fill="rgb(182,182,255)"/>
<polygon points="248.2,284.3 254.2,284.3 254.2,290.3 248.2,290.3" fill="rgb(255,20,20)"/>
<polygon points="254.2,284.3 260.2,284.3 260.2,290.3 254.2,290.3" fill="rgb(255,78,78)"/>
<polygon points="260.2,284.3 266.2,284.3 266.2,290.3 260.2,290.3" fill="rgb(255,115,115)"/>
<polygon points="266.2,284.3 272.2,284.3 272.2,290.3 266.2,290.3" fill="rgb(255,0,0)"/>
<polygon points="272.2,284.3 278.2,284.3 278.2,290.3 272.2,290.3" fill="rgb(255,244,244)"/>
<polygon points="278.2,284.3 284.2,284.3 284.2,290.3 278.2,290.3" fill="rgb(255,212,212)"/>
<polygon points="284.2,284.3 290.2,284.3 290.2,290.3 284.2,290.3" fill="rgb(210,210,255)"/>
<polygon points="290.2,284.3 296.2,284.3 296.2,290.3 290.2,290.3" fill="rgb(250,250,255)"/>
<polygon points="306.2,284.3 312.2,284.3 312.2,290.3 306.2,290.3" fill="rgb(255,160,160)"/>
<polygon points="312.2,284.3 318.2,284.3 318.2,290.3 312.2,290.3" fill="rgb(212,212,255)"/>
<polygon points="318.2,284.3 324.2,284.3 324.2,290.3 318.2,290.3" fill="rgb(255,128,128)"/>
<polygon points="324.2,284.3 330.2,284.3 330.2,290.3 324.2,290.3" fill="rgb(255,96,96)"/>
<polygon points="330.2,284.3 336.2,284.3 336.2,290.3 330.2,290.3" fill="rgb(192,192,255)"/>
<polygon points="336.2,284.3 342.2,284.3 342.2,290.3 336.2,290.3" fill="rgb(254,235,235)"/>
<polygon points="342.2,284.3 348.2,284.3 348.2,290.3 342.2,290.3" fill="rgb(255,172,172)"/>
<polygon points="348.2,284.3 354.2,284.3 354.2,290.3 348.2,290.3" fill="rgb(255,216,216)"/>
<polygon points="156.2,290.3 164.2,290.3 164.2,296.3 156.2,296.3" fill="rgb(220,188,121)"/><text xml:space="preserve" x="160.2" y="296.133" font-family="Calibri" font-size="7.5" fill="rgb(0,0,0)" text-anchor="middle">13</text>
<polygon points="164.2,290.3 172.2,290.3 172.2,296.3 164.2,296.3" fill="rgb(220,188,121)"/><text xml:space="preserve" x="168.2" y="296.133" font-family="Calibri" font-size="7.5" fill="rgb(0,0,0)" text-anchor="middle">13</text>
<polygon points="172.2,290.3 180.2,290.3 180.2,296.3 172.2,296.3" fill="rgb(134,198,192)"/><text xml:space="preserve" x="176.2" y="296.133" font-family="Calibri" font-size="7.5" fill="rgb(0,0,0)" text-anchor="middle">2</text>
<polygon points="190.2,290.3 196.2,290.3 196.2,296.3 190.2,296.3" fill="rgb(171,171,255)"/>
<polygon points="196.2,290.3 202.2,290.3 202.2,296.3 196.2,296.3" fill="rgb(254,244,244)"/>
<polygon points="202.2,290.3 208.2,290.3 208.2,296.3 202.2,296.3" fill="rgb(255,156,156)"/>
<polygon points="208.2,290.3 214.2,290.3 214.2,296.3 208.2,296.3" fill="rgb(255,163,163)"/>
<polygon points="214.2,290.3 220.2,290.3 220.2,296.3 214.2,296.3" fill="rgb(255,150,150)"/>
<polygon points="220.2,290.3 226.2,290.3 226.2,296.3 220.2,296.3" fill="rgb(247,247,255)"/>
<polygon points="226.2,290.3 232.2,290.3 232.2,296.3 226.2,296.3" fill="rgb(172,172,255)"/>
<polygon points="232.2,290.3 238.2,290.3 238.2,296.3 232.2,296.3" fill="rgb(134,134,255)"/>
<polygon points="248.2,290.3 254.2,290.3 254.2,296.3 248.2,296.3" fill="rgb(203,203,255)"/>
<polygon points="254.2,290.3 260.2,290.3 260.2,296.3 254.2,296.3" fill="rgb(255,210,210)"/>
<polygon points="260.2,290.3 266.2,290.3 266.2,296.3 260.2,296.3" fill="rgb(255,199,199)"/>
<polygon points="266.2,290.3 272.2,290.3 272.2,296.3 266.2,296.3" fill="rgb(255,114,114)"/>
<polygon points="272.2,290.3 278.2,290.3 278.2,296.3 272.2,296.3" fill="rgb(255,115,115)"/>
<polygon points="278.2,290.3 284.2,290.3 284.2,296.3 278.2,296.3" fill="rgb(228,228,255)"/>
<polygon points="284.2,290.3 290.2,290.3 290.2,296.3 284.2,296.3" fill="rgb(209,209,255)"/>
<polygon points="290.2,290.3 296.2,290.3 296.2,296.3 290.2,296.3" fill="rgb(217,217,255)"/>
<polygon points="306.2,290.3 312.2,290.3 312.2,296.3 306.2,296.3" fill="rgb(172,172,255)"/>
<polygon points="312.2,290.3 318.2,290.3 318.2,296.3 312.2,296.3" fill="rgb(255,237,237)"/>
<polygon points="318.2,290.3 324.2,290.3 324.2,296.3 318.2,296.3" fill="rgb(255,162,162)"/>
<polygon points="324.2,290.3 330.2,290.3 330.2,296.3 324.2,296.3" fill="rgb(255,179,179)"/>
<polygon points="330.2,290.3 336.2,290.3 336.2,296.3 330.2,296.3" fill="rgb(255,131,131)"/>
<polygon points="336.2,290.3 342.2,290.3 342.2,296.3 336.2,296.3" fill="rgb(246,246,255)"/>
<polygon points="342.2,290.3 348.2,290.3 348.2,296.3 342.2,296.3" fill="rgb(174,174,255)"/>
<polygon points="348.2,290.3 354.2,290.3 354.2,296.3 348.2,296.3" fill="rgb(169,169,255)"/>
<polygon points="156.2,296.3 164.2,296.3 164.2,302.3 156.2,302.3" fill="rgb(216,179,101)"/><text xml:space="preserve" x="160.2" y="302.133" font-family="Calibri" font-size="7.5" fill="rgb(0,0,0)" text-anchor="middle">14</text>
<polygon points="164.2,296.3 172.2,296.3 172.2,302.3 164.2,302.3" fill="rgb(220,188,121)"/><text xml:space="preserve" x="168.2" y="302.133" font-family="Calibri" font-size="7.5" fill="rgb(0,0,0)" text-anchor="middle">13</text>
<polygon points="172.2,296.3 180.2,296.3 180.2,302.3 172.2,302.3" fill="rgb(134,198,192)"/><text xml:space="preserve" x="176.2" y="302.133" font-family="Calibri" font-size="7.5" fill="rgb(0,0,0)" text-anchor="middle">2</text>
<polygon points="190.2,296.3 196.2,296.3 196.2,302.3 190.2,302.3" fill="rgb(255,189,189)"/>
<polygon points="196.2,296.3 202.2,296.3 202.2,302.3 196.2,302.3" fill="rgb(219,219,255)"/>
<polygon points="202.2,296.3 208.2,296.3 208.2,302.3 202.2,302.3" fill="rgb(200,200,255)"/>
<polygon points="208.2,296.3 214.2,296.3 214.2,302.3 208.2,302.3" fill="rgb(255,202,202)"/>
<polygon points="214.2,296.3 220.2,296.3 220.2,302.3 214.2,302.3" fill="rgb(255,225,225)"/>
<polygon points="220.2,296.3 226.2,296.3 226.2,302.3 220.2,302.3" fill="rgb(207,207,255)"/>
<polygon points="226.2,296.3 232.2,296.3 232.2,302.3 226.2,302.3" fill="rgb(255,53,53)"/>
<polygon points="232.2,296.3 238.2,296.3 238.2,302.3 232.2,302.3" fill="rgb(254,188,188)"/>
<polygon points="248.2,296.3 254.2,296.3 254.2,302.3 248.2,302.3" fill="rgb(255,204,204)"/>
<polygon points="254.2,296.3 260.2,296.3 260.2,302.3 254.2,302.3" fill="rgb(255,210,210)"/>
<polygon points="260.2,296.3 266.2,296.3 266.2,302.3 260.2,302.3" fill="rgb(255,202,202)"/>
<polygon points="266.2,296.3 272.2,296.3 272.2,302.3 266.2,302.3" fill="rgb(255,42,42)"/>
<polygon points="272.2,296.3 278.2,296.3 278.2,302.3 272.2,302.3" fill="rgb(255,113,113)"/>
<polygon points="278.2,296.3 284.2,296.3 284.2,302.3 278.2,302.3" fill="rgb(246,246,255)"/>
<polygon points="284.2,296.3 290.2,296.3 290.2,302.3 284.2,302.3" fill="rgb(255,82,82)"/>
<polygon points="290.2,296.3 296.2,296.3 296.2,302.3 290.2,302.3" fill="rgb(205,205,255)"/>
<polygon points="306.2,296.3 312.2,296.3 312.2,302.3 306.2,302.3" fill="rgb(255,213,213)"/>
<polygon points="312.2,296.3 318.2,296.3 318.2,302.3 312.2,302.3" fill="rgb(213,213,255)"/>
<polygon points="318.2,296.3 324.2,296.3 324.2,302.3 318.2,302.3" fill="rgb(109,109,255)"/>
<polygon points="324.2,296.3 330.2,296.3 330.2,302.3 324.2,302.3" fill="rgb(255,207,207)"/>
<polygon points="330.2,296.3 336.2,296.3 336.2,302.3 330.2,302.3" fill="rgb(237,237,255)"/>
<polygon points="336.2,296.3 342.2,296.3 342.2,302.3 336.2,302.3" fill="rgb(255,204,204)"/>
<polygon points="342.2,296.3 348.2,296.3 348.2,302.3 342.2,302.3" fill="rgb(255,187,187)"/>
<polygon points="348.2,296.3 354.2,296.3 354.2,302.3 348.2,302.3" fill="rgb(255,148,148)"/>
<polygon points="156.2,212.3 180.2,212.3 180.2,302.3 156.2,302.3" fill="none" stroke="black" stroke-width="1"/>
<polygon points="190.2,212.3 238.2,212.3 238.2,302.3 190.2,302.3" fill="none" stroke="black" stroke-width="1"/>
<polygon points="248.2,212.3 296.2,212.3 296.2,302.3 248.2,302.3" fill="none" stroke="black" stroke-width="1"/>
<polygon points="306.2,212.3 354.2,212.3 354.2,302.3 306.2,302.3" fill="none" stroke="black" stroke-width="1"/>
<text xml:space="preserve" x="198.1" y="334.633" font-family="Calibri" font-size="6" text-anchor="middle">moduleID</text>
<polygon points="88.1,342.3 108.1,342.3 108.1,362.3 88.1,362.3" fill="rgb(250,250,250)"/><polygon points="88.1,342.3 108.1,342.3 108.1,362.3 88.1,362.3" fill="none" stroke="black" stroke-width="1"/><text xml:space="preserve" x="98.1" y="355.133" font-family="Calibri" font-size="7.5" fill="rgb(0,0,0)" text-anchor="middle">-2.0</text>
<polygon points="108.1,342.3 128.1,342.3 128.1,362.3 108.1,362.3" fill="rgb(156,210,205)"/><polygon points="108.1,342.3 128.1,342.3 128.1,362.3 108.1,362.3" fill="none" stroke="black" stroke-width="1"/><text xml:space="preserve" x="118.1" y="355.133" font-family="Calibri" font-size="7.5" fill="rgb(0,0,0)" text-anchor="middle">-0.4</text>
<polygon points="128.1,342.3 148.1,342.3 148.1,362.3 128.1,362.3" fill="rgb(116,191,184)"/><polygon points="128.1,342.3 148.1,342.3 148.1,362.3 128.1,362.3" fill="none" stroke="black" stroke-width="1"/><text xml:space="preserve" x="138.1" y="355.133" font-family="Calibri" font-size="7.5" fill="rgb(0,0,0)" text-anchor="middle">1.2</text>
<polygon points="148.1,342.3 168.1,342.3 168.1,362.3 148.1,362.3" fill="rgb(152,206,201)"/><polygon points="148.1,342.3 168.1,342.3 168.1,362.3 148.1,362.3" fill="none" stroke="black" stroke-width="1"/><text xml:space="preserve" x="158.1" y="355.133" font-family="Calibri" font-size="7.5" fill="rgb(0,0,0)" text-anchor="middle">2.8</text>
<polygon points="168.1,342.3 188.1,342.3 188.1,362.3 168.1,362.3" fill="rgb(187,220,217)"/><polygon points="168.1,342.3 188.1,342.3 188.1,362.3 168.1,362.3" fill="none" stroke="black" stroke-width="1"/><text xml:space="preserve" x="178.1" y="355.133" font-family="Calibri" font-size="7.5" fill="rgb(0,0,0)" text-anchor="middle">4.4</text>
<polygon points="188.1,342.3 208.1,342.3 208.1,362.3 188.1,362.3" fill="rgb(222,235,234)"/><polygon points="188.1,342.3 208.1,342.3 208.1,362.3 188.1,362.3" fill="none" stroke="black" stroke-width="1"/><text xml:space="preserve" x="198.1" y="355.133" font-family="Calibri" font-size="7.5" fill="rgb(0,0,0)" text-anchor="middle">6.0</text>
<polygon points="208.1,342.3 228.1,342.3 228.1,362.3 208.1,362.3" fill="rgb(242,239,232)"/><polygon points="208.1,342.3 228.1,342.3 228.1,362.3 208.1,362.3" fill="none" stroke="black" stroke-width="1"/><text xml:space="preserve" x="218.1" y="355.133" font-family="Calibri" font-size="7.5" fill="rgb(0,0,0)" text-anchor="middle">7.6</text>
<polygon points="228.1,342.3 248.1,342.3 248.1,362.3 228.1,362.3" fill="rgb(235,224,199)"/><polygon points="228.1,342.3 248.1,342.3 248.1,362.3 228.1,362.3" fill="none" stroke="black" stroke-width="1"/><text xml:space="preserve" x="238.1" y="355.133" font-family="Calibri" font-size="7.5" fill="rgb(0,0,0)" text-anchor="middle">9.2</text>
<polygon points="248.1,342.3 268.1,342.3 268.1,362.3 248.1,362.3" fill="rgb(229,209,166)"/><polygon points="248.1,342.3 268.1,342.3 268.1,362.3 248.1,362.3" fill="none" stroke="black" stroke-width="1"/><text xml:space="preserve" x="258.1" y="355.133" font-family="Calibri" font-size="7.5" fill="rgb(0,0,0)" text-anchor="middle">10.8</text>
<polygon points="268.1,342.3 288.1,342.3 288.1,362.3 268.1,362.3" fill="rgb(222,194,133)"/><polygon points="268.1,342.3 288.1,342.3 288.1,362.3 268.1,362.3" fill="none" stroke="black" stroke-width="1"/><text xml:space="preserve" x="278.1" y="355.133" font-family="Calibri" font-size="7.5" fill="rgb(0,0,0)" text-anchor="middle">12.4</text>
<polygon points="288.1,342.3 308.1,342.3 308.1,362.3 288.1,362.3" fill="rgb(216,179,101)"/><polygon points="288.1,342.3 308.1,342.3 308.1,362.3 288.1,362.3" fill="none" stroke="black" stroke-width="1"/><text xml:space="preserve" x="298.1" y="355.133" font-family="Calibri" font-size="7.5" fill="rgb(0,0,0)" text-anchor="middle">14.0</text>
<text xml:space="preserve" x="198.1" y="394.633" font-family="Calibri" font-size="6" text-anchor="middle">marklevel</text>
<polygon points="88.1,402.3 108.1,402.3 108.1,422.3 88.1,422.3" fill="rgb(0,0,255)"/><polygon points="88.1,402.3 108.1,402.3 108.1,422.3 88.1,422.3" fill="none" stroke="black" stroke-width="1"/><text xml:space="preserve" x="98.1" y="415.133" font-family="Calibri" font-size="7.5" fill="rgb(255,255,255)" text-anchor="middle">-2.0</text>
<polygon points="108.1,402.3 128.1,402.3 128.1,422.3 108.1,422.3" fill="rgb(50,50,255)"/><polygon points="108.1,402.3 128.1,402.3 128.1,422.3 108.1,422.3" fill="none" stroke="black" stroke-width="1"/><text xml:space="preserve" x="118.1" y="415.133" font-family="Calibri" font-size="7.5" fill="rgb(255,255,255)" text-anchor="middle">-1.6</text>
<polygon points="128.1,402.3 148.1,402.3 148.1,422.3 128.1,422.3" fill="rgb(102,102,255)"/><polygon points="128.1,402.3 148.1,402.3 148.1,422.3 128.1,422.3" fill="none" stroke="black" stroke-width="1"/><text xml:space="preserve" x="138.1" y="415.133" font-family="Calibri" font-size="7.5" fill="rgb(255,255,255)" text-anchor="middle">-1.2</text>
<polygon points="148.1,402.3 168.1,402.3 168.1,422.3 148.1,422.3" fill="rgb(153,153,255)"/><polygon points="148.1,402.3 168.1,402.3 168.1,422.3 148.1,422.3" fill="none" stroke="black" stroke-width="1"/><text xml:space="preserve" x="158.1" y="415.133" font-family="Calibri" font-size="7.5" fill="rgb(0,0,0)" text-anchor="middle">-0.8</text>
<polygon points="168.1,402.3 188.1,402.3 188.1,422.3 168.1,422.3" fill="rgb(204,204,255)"/><polygon points="168.1,402.3 188.1,402.3 188.1,422.3 168.1,422.3" fill="none" stroke="black" stroke-width="1"/><text xml:space="preserve" x="178.1" y="415.133" font-family="Calibri" font-size="7.5" fill="rgb(0,0,0)" text-anchor="middle">-0.4</text>
<polygon points="188.1,402.3 208.1,402.3 208.1,422.3 188.1,422.3" fill="rgb(255,255,255)"/><polygon points="188.1,402.3 208.1,402.3 208.1,422.3 188.1,422.3" fill="none" stroke="black" stroke-width="1"/><text xml:space="preserve" x="198.1" y="415.133" font-family="Calibri" font-size="7.5" fill="rgb(0,0,0)" text-anchor="middle">0.0</text>
<polygon points="208.1,402.3 228.1,402.3 228.1,422.3 208.1,422.3" fill="rgb(255,204,204)"/><polygon points="208.1,402.3 228.1,402.3 228.1,422.3 208.1,422.3" fill="none" stroke="black" stroke-width="1"/><text xml:space="preserve" x="218.1" y="415.133" font-family="Calibri" font-size="7.5" fill="rgb(0,0,0)" text-anchor="middle">0.4</text>
<polygon points="228.1,402.3 248.1,402.3 248.1,422.3 228.1,422.3" fill="rgb(255,153,153)"/><polygon points="228.1,402.3 248.1,402.3 248.1,422.3 228.1,422.3" fill="none" stroke="black" stroke-width="1"/><text xml:space="preserve" x="238.1" y="415.133" font-family="Calibri" font-size="7.5" fill="rgb(0,0,0)" text-anchor="middle">0.8</text>
<polygon points="248.1,402.3 268.1,402.3 268.1,422.3 248.1,422.3" fill="rgb(255,102,102)"/><polygon points="248.1,402.3 268.1,402.3 268.1,422.3 248.1,422.3" fill="none" stroke="black" stroke-width="1"/><text xml:space="preserve" x="258.1" y="415.133" font-family="Calibri" font-size="7.5" fill="rgb(0,0,0)" text-anchor="middle">1.2</text>
<polygon points="268.1,402.3 288.1,402.3 288.1,422.3 268.1,422.3" fill="rgb(255,50,50)"/><polygon points="268.1,402.3 288.1,402.3 288.1,422.3 268.1,422.3" fill="none" stroke="black" stroke-width="1"/><text xml:space="preserve" x="278.1" y="415.133" font-family="Calibri" font-size="7.5" fill="rgb(255,255,255)" text-anchor="middle">1.6</text>
<polygon points="288.1,402.3 308.1,402.3 308.1,422.3 288.1,422.3" fill="rgb(255,0,0)"/><polygon points="288.1,402.3 308.1,402.3 308.1,422.3 288.1,422.3" fill="none" stroke="black" stroke-width="1"/><text xml:space="preserve" x="298.1" y="415.133" font-family="Calibri" font-size="7.5" fill="rgb(255,255,255)" text-anchor="middle">2.0</text>
</svg>
