<?xml version="1.0" standalone="no"?><!DOCTYPE svg PUBLIC "-//W3C//DTD SVG 1.1//EN" "http://www.w3.org/Graphics/SVG/1.1/DTD/svg11.dtd">
<svg width="398.6" height="412.3" version="1.1" xmlns="http://www.w3.org/2000/svg">
<text xml:space="preserve" x="154.6" y="217.633" font-family="Calibri" font-size="6" text-anchor="end">4930555I21Rik</text>
<text xml:space="preserve" x="154.6" y="223.633" font-family="Calibri" font-size="6" text-anchor="end">Cabp1</text>
<text xml:space="preserve" x="154.6" y="229.633" font-family="Calibri" font-size="6" text-anchor="end">Erbb3</text>
<text xml:space="preserve" x="154.6" y="235.633" font-family="Calibri" font-size="6" text-anchor="end">Cyb561</text>
<text xml:space="preserve" x="154.6" y="241.633" font-family="Calibri" font-size="6" text-anchor="end">Ablim2</text>
<text xml:space="preserve" x="154.6" y="247.633" font-family="Calibri" font-size="6" text-anchor="end">B4galnt4</text>
<text xml:space="preserve" x="154.6" y="253.633" font-family="Calibri" font-size="6" text-anchor="end">Rnf32</text>
<text xml:space="preserve" x="154.6" y="259.633" font-family="Calibri" font-size="6" text-anchor="end">Slc37a1</text>
<text xml:space="preserve" x="154.6" y="265.633" font-family="Calibri" font-size="6" text-anchor="end">E130012A19Rik</text>
<text xml:space="preserve" x="154.6" y="271.633" font-family="Calibri" font-size="6" text-anchor="end">Ero1lb</text>
<text xml:space="preserve" x="164.933" y="208.3" font-family="Calibri" font-size="6" transform="rotate(270 164.933 208.3)">ips</text>
<text xml:space="preserve" x="172.933" y="208.3" font-family="Calibri" font-size="6" transform="rotate(270 172.933 208.3)">pips</text>
<text xml:space="preserve" x="180.933" y="208.3" font-family="Calibri" font-size="6" transform="rotate(270 180.933 208.3)">mef</text>
<text xml:space="preserve" x="197.933" y="208.3" font-family="Calibri" font-size="6" transform="rotate(270 197.933 208.3)">ips_H3K4me3iPS</text>
<text xml:space="preserve" x="203.933" y="208.3" font-family="Calibri" font-size="6" transform="rotate(270 203.933 208.3)">ips_H3K9aciPS</text>
<text xml:space="preserve" x="209.933" y="208.3" font-family="Calibri" font-size="6" transform="rotate(270 209.933 208.3)">ips_H3K14aciPS</text>
<text xml:space="preserve" x="215.933" y="208.3" font-family="Calibri" font-size="6" transform="rotate(270 215.933 208.3)">ips_H3K18aciPS</text>
<text xml:space="preserve" x="221.933" y="208.3" font-family="Calibri" font-size="6" transform="rotate(270 221.933 208.3)">ips_H3K79me2iPS</text>
<text xml:space="preserve" x="227.933" y="208.3" font-family="Calibri" font-size="6" transform="rotate(270 227.933 208.3)">ips_H3K9me2iPS</text>
<text xml:space="preserve" x="233.933" y="208.3" font-family="Calibri" font-size="6" transform="rotate(270 233.933 208.3)">ips_H3K9me3iPS</text>
<text xml:space="preserve" x="239.933" y="208.3" font-family="Calibri" font-size="6" transform="rotate(270 239.933 208.3)">ips_H3K27me3iPS</text>
<text xml:space="preserve" x="255.933" y="208.3" font-family="Calibri" font-size="6" transform="rotate(270 255.933 208.3)">pips_H3K4me3pips</text>
<text xml:space="preserve" x="261.933" y="208.3" font-family="Calibri" font-size="6" transform="rotate(270 261.933 208.3)">pips_H3K9acpips</text>
<text xml:space="preserve" x="267.933" y="208.3" font-family="Calibri" font-size="6" transform="rotate(270 267.933 208.3)">pips_H3K14acpips</text>
<text xml:space="preserve" x="273.933" y="208.3" font-family="Calibri" font-size="6" transform="rotate(270 273.933 208.3)">pips_H3K18acpips</text>
<text xml:space="preserve" x="279.933" y="208.3" font-family="Calibri" font-size="6" transform="rotate(270 279.933 208.3)">pips_H3K79me2pips</text>
<text xml:space="preserve" x="285.933" y="208.3" font-family="Calibri" font-size="6" transform="rotate(270 285.933 208.3)">pips_H3K9me2pips</text>
<text xml:space="preserve" x="291.933" y="208.3" font-family="Calibri" font-size="6" transform="rotate(270 291.933 208.3)">pips_H3K9me3pips</text>
<text xml:space="preserve" x="297.933" y="208.3" font-family="Calibri" font-size="6" transform="rotate(270 297.933 208.3)">pips_H3K27me3pips</text>
<text xml:space="preserve" x="313.933" y="208.3" font-family="Calibri" font-size="6" transform="rotate(270 313.933 208.3)">mef_H3K4me3mef</text>
<text xml:space="preserve" x="319.933" y="208.3" font-family="Calibri" font-size="6" transform="rotate(270 319.933 208.3)">mef_H3K9acmef</text>
<text xml:space="preserve" x="325.933" y="208.3" font-family="Calibri" font-size="6" transform="rotate(270 325.933 208.3)">mef_H3K14acmef</text>
<text xml:space="preserve" x="331.933" y="208.3" font-family="Calibri" font-size="6" transform="rotate(270 331.933 208.3)">mef_H3K18acmef</text>
<text xml:space="preserve" x="337.933" y="208.3" font-family="Calibri" font-size="6" transform="rotate(270 337.933 208.3)">mef_H3K79me2mef</text>
<text xml:space="preserve" x="343.933" y="208.3" font-family="Calibri" font-size="6" transform="rotate(270 343.933 208.3)">mef_H3K9me2mef</text>
<text xml:space="preserve" x="349.933" y="208.3" font-family="Calibri" font-size="6" transform="rotate(270 349.933 208.3)">mef_H3K9me3mef</text>
<text xml:space="preserve" x="355.933" y="208.3" font-family="Calibri" font-size="6" transform="rotate(270 355.933 208.3)">mef_H3K27me3mef</text>
<polygon points="158.6,212.3 166.6,212.3 166.6,218.3 158.6,218.3" fill="rgb(245,245,245)"/><text xml:space="preserve" x="162.6" y="218.133" font-family="Calibri" font-size="7.5" fill="rgb(0,0,0)" text-anchor="middle">7</text>
<polygon points="166.6,212.3 174.6,212.3 174.6,218.3 166.6,218.3" fill="rgb(245,245,245)"/><text xml:space="preserve" x="170.6" y="218.133" font-family="Calibri" font-size="7.5" fill="rgb(0,0,0)" text-anchor="middle">7</text>
<polygon points="174.6,212.3 182.6,212.3 182.6,218.3 174.6,218.3" fill="rgb(228,207,162)"/><text xml:space="preserve" x="178.6" y="218.133" font-family="Calibri" font-size="7.5" fill="rgb(0,0,0)" text-anchor="middle">11</text>
<polygon points="192.6,212.3 198.6,212.3 198.6,218.3 192.6,218.3" fill="rgb(255,211,211)"/>
<polygon points="198.6,212.3 204.6,212.3 204.6,218.3 198.6,218.3" fill="rgb(255,150,150)"/>
<polygon points="204.6,212.3 210.6,212.3 210.6,218.3 204.6,218.3" fill="rgb(254,148,148)"/>
<polygon points="210.6,212.3 216.6,212.3 216.6,218.3 210.6,218.3" fill="rgb(255,125,125)"/>
<polygon points="216.6,212.3 222.6,212.3 222.6,218.3 216.6,218.3" fill="rgb(255,239,239)"/>
<polygon points="222.6,212.3 228.6,212.3 228.6,218.3 222.6,218.3" fill="rgb(224,224,255)"/>
<polygon points="228.6,212.3 234.6,212.3 234.6,218.3 228.6,218.3" fill="rgb(179,179,255)"/>
<polygon points="234.6,212.3 240.6,212.3 240.6,218.3 234.6,218.3" fill="rgb(183,183,255)"/>
<polygon points="250.6,212.3 256.6,212.3 256.6,218.3 250.6,218.3" fill="rgb(255,170,170)"/>
<polygon points="256.6,212.3 262.6,212.3 262.6,218.3 256.6,218.3" fill="rgb(255,161,161)"/>
<polygon points="262.6,212.3 268.6,212.3 268.6,218.3 262.6,218.3" fill="rgb(255,180,180)"/>
<polygon points="268.6,212.3 274.6,212.3 274.6,218.3 268.6,218.3" fill="rgb(255,113,113)"/>
<polygon points="274.6,212.3 280.6,212.3 280.6,218.3 274.6,218.3" fill="rgb(255,228,228)"/>
<polygon points="280.6,212.3 286.6,212.3 286.6,218.3 280.6,218.3" fill="rgb(237,237,255)"/>
<polygon points="286.6,212.3 292.6,212.3 292.6,218.3 286.6,218.3" fill="rgb(246,246,255)"/>
<polygon points="292.6,212.3 298.6,212.3 298.6,218.3 292.6,218.3" fill="rgb(226,226,255)"/>
<polygon points="308.6,212.3 314.6,212.3 314.6,218.3 308.6,218.3" fill="rgb(255,233,233)"/>
<polygon points="314.6,212.3 320.6,212.3 320.6,218.3 314.6,218.3" fill="rgb(254,251,251)"/>
<polygon points="320.6,212.3 326.6,212.3 326.6,218.3 320.6,218.3" fill="rgb(225,225,255)"/>
<polygon points="326.6,212.3 332.6,212.3 332.6,218.3 326.6,218.3" fill="rgb(204,204,255)"/>
<polygon points="332.6,212.3 338.6,212.3 338.6,218.3 332.6,218.3" fill="rgb(181,181,255)"/>
<polygon points="338.6,212.3 344.6,212.3 344.6,218.3 338.6,218.3" fill="rgb(234,234,255)"/>
<polygon points="344.6,212.3 350.6,212.3 350.6,218.3 344.6,218.3" fill="rgb(255,222,222)"/>
<polygon points="350.6,212.3 356.6,212.3 356.6,218.3 350.6,218.3" fill="rgb(255,178,178)"/>
<polygon points="158.6,218.3 166.6,218.3 166.6,224.3 158.6,224.3" fill="rgb(245,245,245)"/><text xml:space="preserve" x="162.6" y="224.133" font-family="Calibri" font-size="7.5" fill="rgb(0,0,0)" text-anchor="middle">7</text>
<polygon points="166.6,218.3 174.6,218.3 174.6,224.3 166.6,224.3" fill="rgb(245,245,245)"/><text xml:space="preserve" x="170.6" y="224.133" font-family="Calibri" font-size="7.5" fill="rgb(0,0,0)" text-anchor="middle">7</text>
<polygon points="174.6,218.3 182.6,218.3 182.6,224.3 174.6,224.3" fill="rgb(228,207,162)"/><text xml:space="preserve" x="178.6" y="224.133" font-family="Calibri" font-size="7.5" fill="rgb(0,0,0)" text-anchor="middle">11</text>
<polygon points="192.6,218.3 198.6,218.3 198.6,224.3 192.6,224.3" fill="rgb(255,228,228)"/>
<polygon points="198.6,218.3 204.6,218.3 204.6,224.3 198.6,224.3" fill="rgb(254,200,200)"/>
<polygon points="204.6,218.3 210.6,218.3 210.6,224.3 204.6,224.3" fill="rgb(254,162,162)"/>
<polygon points="210.6,218.3 216.6,218.3 216.6,224.3 210.6,224.3" fill="rgb(255,139,139)"/>
<polygon points="216.6,218.3 222.6,218.3 222.6,224.3 216.6,224.3" fill="rgb(255,246,246)"/>
<polygon points="222.6,218.3 228.6,218.3 228.6,224.3 222.6,224.3" fill="rgb(213,213,255)"/>
<polygon points="228.6,218.3 234.6,218.3 234.6,224.3 228.6,224.3" fill="rgb(216,216,255)"/>
<polygon points="234.6,218.3 240.6,218.3 240.6,224.3 234.6,224.3" fill="rgb(254,191,191)"/>
<polygon points="250.6,218.3 256.6,218.3 256.6,224.3 250.6,224.3" fill="rgb(255,173,173)"/>
<polygon points="256.6,218.3 262.6,218.3 262.6,224.3 256.6,224.3" fill="rgb(255,169,169)"/>
<polygon points="262.6,218.3 268.6,218.3 268.6,224.3 262.6,224.3" fill="rgb(255,219,219)"/>
<polygon points="268.6,218.3 274.6,218.3 274.6,224.3 268.6,224.3" fill="rgb(255,141,141)"/>
<polygon points="274.6,218.3 280.6,218.3 280.6,224.3 274.6,224.3" fill="rgb(255,229,229)"/>
<polygon points="280.6,218.3 286.6,218.3 286.6,224.3 280.6,224.3" fill="rgb(186,186,255)"/>
<polygon points="286.6,218.3 292.6,218.3 292.6,224.3 286.6,224.3" fill="rgb(196,196,255)"/>
<polygon points="292.6,218.3 298.6,218.3 298.6,224.3 292.6,224.3" fill="rgb(255,246,246)"/>
<polygon points="308.6,218.3 314.6,218.3 314.6,224.3 308.6,224.3" fill="rgb(216,216,255)"/>
<polygon points="314.6,218.3 320.6,218.3 320.6,224.3 314.6,224.3" fill="rgb(235,235,255)"/>
<polygon points="320.6,218.3 326.6,218.3 326.6,224.3 320.6,224.3" fill="rgb(242,242,255)"/>
<polygon points="326.6,218.3 332.6,218.3 332.6,224.3 326.6,224.3" fill="rgb(237,237,255)"/>
<polygon points="332.6,218.3 338.6,218.3 338.6,224.3 332.6,224.3" fill="rgb(194,194,255)"/>
<polygon points="338.6,218.3 344.6,218.3 344.6,224.3 338.6,224.3" fill="rgb(200,200,255)"/>
<polygon points="344.6,218.3 350.6,218.3 350.6,224.3 344.6,224.3" fill="rgb(255,252,252)"/>
<polygon points="350.6,218.3 356.6,218.3 356.6,224.3 350.6,224.3" fill="rgb(255,163,163)"/>
<polygon points="158.6,224.3 166.6,224.3 166.6,230.3 158.6,230.3" fill="rgb(245,245,245)"/><text xml:space="preserve" x="162.6" y="230.133" font-family="Calibri" font-size="7.5" fill="rgb(0,0,0)" text-anchor="middle">7</text>
<polygon points="166.6,224.3 174.6,224.3 174.6,230.3 166.6,230.3" fill="rgb(245,245,245)"/><text xml:space="preserve" x="170.6" y="230.133" font-family="Calibri" font-size="7.5" fill="rgb(0,0,0)" text-anchor="middle">7</text>
<polygon points="174.6,224.3 182.6,224.3 182.6,230.3 174.6,230.3" fill="rgb(228,207,162)"/><text xml:space="preserve" x="178.6" y="230.133" font-family="Calibri" font-size="7.5" fill="rgb(0,0,0)" text-anchor="middle">11</text>
<polygon points="192.6,224.3 198.6,224.3 198.6,230.3 192.6,230.3" fill="rgb(255,203,203)"/>
<polygon points="198.6,224.3 204.6,224.3 204.6,230.3 198.6,230.3" fill="rgb(255,225,225)"/>
<polygon points="204.6,224.3 210.6,224.3 210.6,230.3 204.6,230.3" fill="rgb(255,180,180)"/>
<polygon points="210.6,224.3 216.6,224.3 216.6,230.3 210.6,230.3" fill="rgb(255,140,140)"/>
<polygon points="216.6,224.3 222.6,224.3 222.6,230.3 216.6,230.3" fill="rgb(215,215,255)"/>
<polygon points="222.6,224.3 228.6,224.3 228.6,230.3 222.6,230.3" fill="rgb(182,182,255)"/>
<polygon points="228.6,224.3 234.6,224.3 234.6,230.3 228.6,230.3" fill="rgb(164,164,255)"/>
<polygon points="234.6,224.3 240.6,224.3 240.6,230.3 234.6,230.3" fill="rgb(255,195,195)"/>
<polygon points="250.6,224.3 256.6,224.3 256.6,230.3 250.6,230.3" fill="rgb(255,213,213)"/>
<polygon points="256.6,224.3 262.6,224.3 262.6,230.3 256.6,230.3" fill="rgb(255,207,207)"/>
<polygon points="262.6,224.3 268.6,224.3 268.6,230.3 262.6,230.3" fill="rgb(255,197,197)"/>
<polygon points="268.6,224.3 274.6,224.3 274.6,230.3 268.6,230.3" fill="rgb(255,127,127)"/>
<polygon points="274.6,224.3 280.6,224.3 280.6,230.3 274.6,230.3" fill="rgb(255,250,250)"/>
<polygon points="280.6,224.3 286.6,224.3 286.6,230.3 280.6,230.3" fill="rgb(218,218,255)"/>
<polygon points="286.6,224.3 292.6,224.3 292.6,230.3 286.6,230.3" fill="rgb(220,220,255)"/>
<polygon points="292.6,224.3 298.6,224.3 298.6,230.3 292.6,230.3" fill="rgb(255,216,216)"/>
<polygon points="308.6,224.3 314.6,224.3 314.6,230.3 308.6,230.3" fill="rgb(245,245,255)"/>
<polygon points="314.6,224.3 320.6,224.3 320.6,230.3 314.6,230.3" fill="rgb(218,218,255)"/>
<polygon points="320.6,224.3 326.6,224.3 326.6,230.3 320.6,230.3" fill="rgb(192,192,255)"/>
<polygon points="326.6,224.3 332.6,224.3 332.6,230.3 326.6,230.3" fill="rgb(203,203,255)"/>
<polygon points="332.6,224.3 338.6,224.3 338.6,230.3 332.6,230.3" fill="rgb(165,165,255)"/>
<polygon points="338.6,224.3 344.6,224.3 344.6,230.3 338.6,230.3" fill="rgb(210,210,255)"/>
<polygon points="344.6,224.3 350.6,224.3 350.6,230.3 344.6,230.3" fill="rgb(255,253,253)"/>
<polygon points="350.6,224.3 356.6,224.3 356.6,230.3 350.6,230.3" fill="rgb(255,100,100)"/>
<polygon points="158.6,230.3 166.6,230.3 166.6,236.3 158.6,236.3" fill="rgb(245,245,245)"/><text xml:space="preserve" x="162.6" y="236.133" font-family="Calibri" font-size="7.5" fill="rgb(0,0,0)" text-anchor="middle">7</text>
<polygon points="166.6,230.3 174.6,230.3 174.6,236.3 166.6,236.3" fill="rgb(245,245,245)"/><text xml:space="preserve" x="170.6" y="236.133" font-family="Calibri" font-size="7.5" fill="rgb(0,0,0)" text-anchor="middle">7</text>
<polygon points="174.6,230.3 182.6,230.3 182.6,236.3 174.6,236.3" fill="rgb(228,207,162)"/><text xml:space="preserve" x="178.6" y="236.133" font-family="Calibri" font-size="7.5" fill="rgb(0,0,0)" text-anchor="middle">11</text>
<polygon points="192.6,230.3 198.6,230.3 198.6,236.3 192.6,236.3" fill="rgb(255,237,237)"/>
<polygon points="198.6,230.3 204.6,230.3 204.6,236.3 198.6,236.3" fill="rgb(255,173,173)"/>
<polygon points="204.6,230.3 210.6,230.3 210.6,236.3 204.6,236.3" fill="rgb(255,148,148)"/>
<polygon points="210.6,230.3 216.6,230.3 216.6,236.3 210.6,236.3" fill="rgb(255,129,129)"/>
<polygon points="216.6,230.3 222.6,230.3 222.6,236.3 216.6,236.3" fill="rgb(255,232,232)"/>
<polygon points="222.6,230.3 228.6,230.3 228.6,236.3 222.6,236.3" fill="rgb(255,230,230)"/>
<polygon points="228.6,230.3 234.6,230.3 234.6,236.3 228.6,236.3" fill="rgb(234,234,255)"/>
<polygon points="234.6,230.3 240.6,230.3 240.6,236.3 234.6,236.3" fill="rgb(235,235,255)"/>
<polygon points="250.6,230.3 256.6,230.3 256.6,236.3 250.6,236.3" fill="rgb(255,218,218)"/>
<polygon points="256.6,230.3 262.6,230.3 262.6,236.3 256.6,236.3" fill="rgb(255,183,183)"/>
<polygon points="262.6,230.3 268.6,230.3 268.6,236.3 262.6,236.3" fill="rgb(255,153,153)"/>
<polygon points="268.6,230.3 274.6,230.3 274.6,236.3 268.6,236.3" fill="rgb(255,100,100)"/>
<polygon points="274.6,230.3 280.6,230.3 280.6,236.3 274.6,236.3" fill="rgb(255,246,246)"/>
<polygon points="280.6,230.3 286.6,230.3 286.6,236.3 280.6,236.3" fill="rgb(255,234,234)"/>
<polygon points="286.6,230.3 292.6,230.3 292.6,236.3 286.6,236.3" fill="rgb(255,252,252)"/>
<polygon points="292.6,230.3 298.6,230.3 298.6,236.3 292.6,236.3" fill="rgb(255,185,185)"/>
<polygon points="308.6,230.3 314.6,230.3 314.6,236.3 308.6,236.3" fill="rgb(197,197,255)"/>
<polygon points="314.6,230.3 320.6,230.3 320.6,236.3 314.6,236.3" fill="rgb(231,231,255)"/>
<polygon points="320.6,230.3 326.6,230.3 326.6,236.3 320.6,236.3" fill="rgb(255,233,233)"/>
<polygon points="326.6,230.3 332.6,230.3 332.6,236.3 326.6,236.3" fill="rgb(255,218,218)"/>
<polygon points="332.6,230.3 338.6,230.3 338.6,236.3 332.6,236.3" fill="rgb(204,204,255)"/>
<polygon points="338.6,230.3 344.6,230.3 344.6,236.3 338.6,236.3" fill="rgb(224,224,255)"/>
<polygon points="344.6,230.3 350.6,230.3 350.6,236.3 344.6,236.3" fill="rgb(255,157,157)"/>
<polygon points="350.6,230.3 356.6,230.3 356.6,236.3 350.6,236.3" fill="rgb(255,172,172)"/>
<polygon points="158.6,236.3 166.6,236.3 166.6,242.3 158.6,242.3" fill="rgb(245,245,245)"/><text xml:space="preserve" x="162.6" y="242.133" font-family="Calibri" font-size="7.5" fill="rgb(0,0,0)" text-anchor="middle">7</text>
<polygon points="166.6,236.3 174.6,236.3 174.6,242.3 166.6,242.3" fill="rgb(245,245,245)"/><text xml:space="preserve" x="170.6" y="242.133" font-family="Calibri" font-size="7.5" fill="rgb(0,0,0)" text-anchor="middle">7</text>
<polygon points="174.6,236.3 182.6,236.3 182.6,242.3 174.6,242.3" fill="rgb(228,207,162)"/><text xml:space="preserve" x="178.6" y="242.133" font-family="Calibri" font-size="7.5" fill="rgb(0,0,0)" text-anchor="middle">11</text>
<polygon points="192.6,236.3 198.6,236.3 198.6,242.3 192.6,242.3" fill="rgb(242,242,255)"/>
<polygon points="198.6,236.3 204.6,236.3 204.6,242.3 198.6,242.3" fill="rgb(255,193,193)"/>
<polygon points="204.6,236.3 210.6,236.3 210.6,242.3 204.6,242.3" fill="rgb(255,170,170)"/>
<polygon points="210.6,236.3 216.6,236.3 216.6,242.3 210.6,242.3" fill="rgb(255,158,158)"/>
<polygon points="216.6,236.3 222.6,236.3 222.6,242.3 216.6,242.3" fill="rgb(239,239,255)"/>
<polygon points="222.6,236.3 228.6,236.3 228.6,242.3 222.6,242.3" fill="rgb(255,206,206)"/>
<polygon points="228.6,236.3 234.6,236.3 234.6,242.3 228.6,242.3" fill="rgb(196,196,255)"/>
<polygon points="234.6,236.3 240.6,236.3 240.6,242.3 234.6,242.3" fill="rgb(255,234,234)"/>
<polygon points="250.6,236.3 256.6,236.3 256.6,242.3 250.6,242.3" fill="rgb(252,252,255)"/>
<polygon points="256.6,236.3 262.6,236.3 262.6,242.3 256.6,242.3" fill="rgb(255,206,206)"/>
<polygon points="262.6,236.3 268.6,236.3 268.6,242.3 262.6,242.3" fill="rgb(255,232,232)"/>
<polygon points="268.6,236.3 274.6,236.3 274.6,242.3 268.6,242.3" fill="rgb(255,149,149)"/>
<polygon points="274.6,236.3 280.6,236.3 280.6,242.3 274.6,242.3" fill="rgb(246,246,255)"/>
<polygon points="280.6,236.3 286.6,236.3 286.6,242.3 280.6,242.3" fill="rgb(212,212,255)"/>
<polygon points="286.6,236.3 292.6,236.3 292.6,242.3 286.6,242.3" fill="rgb(232,232,255)"/>
<polygon points="292.6,236.3 298.6,236.3 298.6,242.3 292.6,242.3" fill="rgb(255,236,236)"/>
<polygon points="308.6,236.3 314.6,236.3 314.6,242.3 308.6,242.3" fill="rgb(198,198,255)"/>
<polygon points="314.6,236.3 320.6,236.3 320.6,242.3 314.6,242.3" fill="rgb(239,239,255)"/>
<polygon points="320.6,236.3 326.6,236.3 326.6,242.3 320.6,242.3" fill="rgb(197,197,255)"/>
<polygon points="326.6,236.3 332.6,236.3 332.6,242.3 326.6,242.3" fill="rgb(224,224,255)"/>
<polygon points="332.6,236.3 338.6,236.3 338.6,242.3 332.6,242.3" fill="rgb(193,193,255)"/>
<polygon points="338.6,236.3 344.6,236.3 344.6,242.3 338.6,242.3" fill="rgb(190,190,255)"/>
<polygon points="344.6,236.3 350.6,236.3 350.6,242.3 344.6,242.3" fill="rgb(234,234,255)"/>
<polygon points="350.6,236.3 356.6,236.3 356.6,242.3 350.6,242.3" fill="rgb(255,145,145)"/>
<polygon points="158.6,242.3 166.6,242.3 166.6,248.3 158.6,248.3" fill="rgb(245,245,245)"/><text xml:space="preserve" x="162.6" y="248.133" font-family="Calibri" font-size="7.5" fill="rgb(0,0,0)" text-anchor="middle">7</text>
<polygon points="166.6,242.3 174.6,242.3 174.6,248.3 166.6,248.3" fill="rgb(245,245,245)"/><text xml:space="preserve" x="170.6" y="248.133" font-family="Calibri" font-size="7.5" fill="rgb(0,0,0)" text-anchor="middle">7</text>
<polygon points="174.6,242.3 182.6,242.3 182.6,248.3 174.6,248.3" fill="rgb(228,207,162)"/><text xml:space="preserve" x="178.6" y="248.133" font-family="Calibri" font-size="7.5" fill="rgb(0,0,0)" text-anchor="middle">11</text>
<polygon points="192.6,242.3 198.6,242.3 198.6,248.3 192.6,248.3" fill="rgb(255,208,208)"/>
<polygon points="198.6,242.3 204.6,242.3 204.6,248.3 198.6,248.3" fill="rgb(255,183,183)"/>
<polygon points="204.6,242.3 210.6,242.3 210.6,248.3 204.6,248.3" fill="rgb(255,131,131)"/>
<polygon points="210.6,242.3 216.6,242.3 216.6,248.3 210.6,248.3" fill="rgb(255,66,66)"/>
<polygon points="216.6,242.3 222.6,242.3 222.6,248.3 216.6,248.3" fill="rgb(255,186,186)"/>
<polygon points="222.6,242.3 228.6,242.3 228.6,248.3 222.6,248.3" fill="rgb(255,234,234)"/>
<polygon points="228.6,242.3 234.6,242.3 234.6,248.3 228.6,248.3" fill="rgb(199,199,255)"/>
<polygon points="234.6,242.3 240.6,242.3 240.6,248.3 234.6,248.3" fill="rgb(248,248,255)"/>
<polygon points="250.6,242.3 256.6,242.3 256.6,248.3 250.6,248.3" fill="rgb(255,164,164)"/>
<polygon points="256.6,242.3 262.6,242.3 262.6,248.3 256.6,248.3" fill="rgb(254,199,199)"/>
<polygon points="262.6,242.3 268.6,242.3 268.6,248.3 262.6,248.3" fill="rgb(254,201,201)"/>
<polygon points="268.6,242.3 274.6,242.3 274.6,248.3 268.6,248.3" fill="rgb(254,145,145)"/>
<polygon points="274.6,242.3 280.6,242.3 280.6,248.3 274.6,248.3" fill="rgb(255,174,174)"/>
<polygon points="280.6,242.3 286.6,242.3 286.6,248.3 280.6,248.3" fill="rgb(255,248,248)"/>
<polygon points="286.6,242.3 292.6,242.3 292.6,248.3 286.6,248.3" fill="rgb(243,243,255)"/>
<polygon points="292.6,242.3 298.6,242.3 298.6,248.3 292.6,248.3" fill="rgb(255,235,235)"/>
<polygon points="308.6,242.3 314.6,242.3 314.6,248.3 308.6,248.3" fill="rgb(205,205,255)"/>
<polygon points="314.6,242.3 320.6,242.3 320.6,248.3 314.6,248.3" fill="rgb(190,190,255)"/>
<polygon points="320.6,242.3 326.6,242.3 326.6,248.3 320.6,248.3" fill="rgb(203,203,255)"/>
<polygon points="326.6,242.3 332.6,242.3 332.6,248.3 326.6,248.3" fill="rgb(205,205,255)"/>
<polygon points="332.6,242.3 338.6,242.3 338.6,248.3 332.6,248.3" fill="rgb(174,174,255)"/>
<polygon points="338.6,242.3 344.6,242.3 344.6,248.3 338.6,248.3" fill="rgb(254,254,255)"/>
<polygon points="344.6,242.3 350.6,242.3 350.6,248.3 344.6,248.3" fill="rgb(255,225,225)"/>
<polygon points="350.6,242.3 356.6,242.3 356.6,248.3 350.6,248.3" fill="rgb(255,135,135)"/>
<polygon points="158.6,248.3 166.6,248.3 166.6,254.3 158.6,254.3" fill="rgb(245,245,245)"/><text xml:space="preserve" x="162.6" y="254.133" font-family="Calibri" font-size="7.5" fill="rgb(0,0,0)" text-anchor="middle">7</text>
<polygon points="166.6,248.3 174.6,248.3 174.6,254.3 166.6,254.3" fill="rgb(245,245,245)"/><text xml:space="preserve" x="170.6" y="254.133" font-family="Calibri" font-size="7.5" fill="rgb(0,0,0)" text-anchor="middle">7</text>
<polygon points="174.6,248.3 182.6,248.3 182.6,254.3 174.6,254.3" fill="rgb(228,207,162)"/><text xml:space="preserve" x="178.6" y="254.133" font-family="Calibri" font-size="7.5" fill="rgb(0,0,0)" text-anchor="middle">11</text>
<polygon points="192.6,248.3 198.6,248.3 198.6,254.3 192.6,254.3" fill="rgb(255,212,212)"/>
<polygon points="198.6,248.3 204.6,248.3 204.6,254.3 198.6,254.3" fill="rgb(255,170,170)"/>
<polygon points="204.6,248.3 210.6,248.3 210.6,254.3 204.6,254.3" fill="rgb(255,149,149)"/>
<polygon points="210.6,248.3 216.6,248.3 216.6,254.3 210.6,254.3" fill="rgb(255,53,53)"/>
<polygon points="216.6,248.3 222.6,248.3 222.6,254.3 216.6,254.3" fill="rgb(255,248,248)"/>
<polygon points="222.6,248.3 228.6,248.3 228.6,254.3 222.6,254.3" fill="rgb(243,243,255)"/>
<polygon points="228.6,248.3 234.6,248.3 234.6,254.3 228.6,254.3" fill="rgb(197,197,255)"/>
<polygon points="234.6,248.3 240.6,248.3 240.6,254.3 234.6,254.3" fill="rgb(224,224,255)"/>
<polygon points="250.6,248.3 256.6,248.3 256.6,254.3 250.6,254.3" fill="rgb(255,200,200)"/>
<polygon points="256.6,248.3 262.6,248.3 262.6,254.3 256.6,254.3" fill="rgb(254,231,231)"/>
<polygon points="262.6,248.3 268.6,248.3 268.6,254.3 262.6,254.3" fill="rgb(255,215,215)"/>
<polygon points="268.6,248.3 274.6,248.3 274.6,254.3 268.6,254.3" fill="rgb(255,125,125)"/>
<polygon points="274.6,248.3 280.6,248.3 280.6,254.3 274.6,254.3" fill="rgb(245,245,255)"/>
<polygon points="280.6,248.3 286.6,248.3 286.6,254.3 280.6,254.3" fill="rgb(255,205,205)"/>
<polygon points="286.6,248.3 292.6,248.3 292.6,254.3 286.6,254.3" fill="rgb(242,242,255)"/>
<polygon points="292.6,248.3 298.6,248.3 298.6,254.3 292.6,254.3" fill="rgb(232,232,255)"/>
<polygon points="308.6,248.3 314.6,248.3 314.6,254.3 308.6,254.3" fill="rgb(255,234,234)"/>
<polygon points="314.6,248.3 320.6,248.3 320.6,254.3 314.6,254.3" fill="rgb(241,241,255)"/>
<polygon points="320.6,248.3 326.6,248.3 326.6,254.3 320.6,254.3" fill="rgb(233,233,255)"/>
<polygon points="326.6,248.3 332.6,248.3 332.6,254.3 326.6,254.3" fill="rgb(180,180,255)"/>
<polygon points="332.6,248.3 338.6,248.3 338.6,254.3 332.6,254.3" fill="rgb(170,170,255)"/>
<polygon points="338.6,248.3 344.6,248.3 344.6,254.3 338.6,254.3" fill="rgb(255,207,207)"/>
<polygon points="344.6,248.3 350.6,248.3 350.6,254.3 344.6,254.3" fill="rgb(212,212,255)"/>
<polygon points="350.6,248.3 356.6,248.3 356.6,254.3 350.6,254.3" fill="rgb(255,182,182)"/>
<polygon points="158.6,254.3 166.6,254.3 166.6,260.3 158.6,260.3" fill="rgb(245,245,245)"/><text xml:space="preserve" x="162.6" y="260.133" font-family="Calibri" font-size="7.5" fill="rgb(0,0,0)" text-anchor="middle">7</text>
<polygon points="166.6,254.3 174.6,254.3 174.6,260.3 166.6,260.3" fill="rgb(245,245,245)"/><text xml:space="preserve" x="170.6" y="260.133" font-family="Calibri" font-size="7.5" fill="rgb(0,0,0)" text-anchor="middle">7</text>
<polygon points="174.6,254.3 182.6,254.3 182.6,260.3 174.6,260.3" fill="rgb(228,207,162)"/><text xml:space="preserve" x="178.6" y="260.133" font-family="Calibri" font-size="7.5" fill="rgb(0,0,0)" text-anchor="middle">11</text>
<polygon points="192.6,254.3 198.6,254.3 198.6,260.3 192.6,260.3" fill="rgb(255,184,184)"/>
<polygon points="198.6,254.3 204.6,254.3 204.6,260.3 198.6,260.3" fill="rgb(255,207,207)"/>
<polygon points="204.6,254.3 210.6,254.3 210.6,260.3 204.6,260.3" fill="rgb(255,170,170)"/>
<polygon points="210.6,254.3 216.6,254.3 216.6,260.3 210.6,260.3" fill="rgb(255,99,99)"/>
<polygon points="216.6,254.3 222.6,254.3 222.6,260.3 216.6,260.3" fill="rgb(224,224,255)"/>
<polygon points="222.6,254.3 228.6,254.3 228.6,260.3 222.6,260.3" fill="rgb(255,253,253)"/>
<polygon points="228.6,254.3 234.6,254.3 234.6,260.3 228.6,260.3" fill="rgb(182,182,255)"/>
<polygon points="234.6,254.3 240.6,254.3 240.6,260.3 234.6,260.3" fill="rgb(255,231,231)"/>
<polygon points="250.6,254.3 256.6,254.3 256.6,260.3 250.6,260.3" fill="rgb(254,226,226)"/>
<polygon points="256.6,254.3 262.6,254.3 262.6,260.3 256.6,260.3" fill="rgb(255,213,213)"/>
<polygon points="262.6,254.3 268.6,254.3 268.6,260.3 262.6,260.3" fill="rgb(255,198,198)"/>
<polygon points="268.6,254.3 274.6,254.3 274.6,260.3 268.6,260.3" fill="rgb(255,160,160)"/>
<polygon points="274.6,254.3 280.6,254.3 280.6,260.3 274.6,260.3" fill="rgb(251,251,255)"/>
<polygon points="280.6,254.3 286.6,254.3 286.6,260.3 280.6,260.3" fill="rgb(232,232,255)"/>
<polygon points="286.6,254.3 292.6,254.3 292.6,260.3 286.6,260.3" fill="rgb(205,205,255)"/>
<polygon points="292.6,254.3 298.6,254.3 298.6,260.3 292.6,260.3" fill="rgb(255,240,240)"/>
<polygon points="308.6,254.3 314.6,254.3 314.6,260.3 308.6,260.3" fill="rgb(246,246,255)"/>
<polygon points="314.6,254.3 320.6,254.3 320.6,260.3 314.6,260.3" fill="rgb(230,230,255)"/>
<polygon points="320.6,254.3 326.6,254.3 326.6,260.3 320.6,260.3" fill="rgb(222,222,255)"/>
<polygon points="326.6,254.3 332.6,254.3 332.6,260.3 326.6,260.3" fill="rgb(208,208,255)"/>
<polygon points="332.6,254.3 338.6,254.3 338.6,260.3 332.6,260.3" fill="rgb(205,205,255)"/>
<polygon points="338.6,254.3 344.6,254.3 344.6,260.3 338.6,260.3" fill="rgb(213,213,255)"/>
<polygon points="344.6,254.3 350.6,254.3 350.6,260.3 344.6,260.3" fill="rgb(255,188,188)"/>
<polygon points="350.6,254.3 356.6,254.3 356.6,260.3 350.6,260.3" fill="rgb(255,80,80)"/>
<polygon points="158.6,260.3 166.6,260.3 166.6,266.3 158.6,266.3" fill="rgb(245,245,245)"/><text xml:space="preserve" x="162.6" y="266.133" font-family="Calibri" font-size="7.5" fill="rgb(0,0,0)" text-anchor="middle">7</text>
<polygon points="166.6,260.3 174.6,260.3 174.6,266.3 166.6,266.3" fill="rgb(245,245,245)"/><text xml:space="preserve" x="170.6" y="266.133" font-family="Calibri" font-size="7.5" fill="rgb(0,0,0)" text-anchor="middle">7</text>
<polygon points="174.6,260.3 182.6,260.3 182.6,266.3 174.6,266.3" fill="rgb(228,207,162)"/><text xml:space="preserve" x="178.6" y="266.133" font-family="Calibri" font-size="7.5" fill="rgb(0,0,0)" text-anchor="middle">11</text>
<polygon points="192.6,260.3 198.6,260.3 198.6,266.3 192.6,266.3" fill="rgb(255,178,178)"/>
<polygon points="198.6,260.3 204.6,260.3 204.6,266.3 198.6,266.3" fill="rgb(255,190,190)"/>
<polygon points="204.6,260.3 210.6,260.3 210.6,266.3 204.6,266.3" fill="rgb(254,145,145)"/>
<polygon points="210.6,260.3 216.6,260.3 216.6,266.3 210.6,266.3" fill="rgb(255,130,130)"/>
<polygon points="216.6,260.3 222.6,260.3 222.6,266.3 216.6,266.3" fill="rgb(255,171,171)"/>
<polygon points="222.6,260.3 228.6,260.3 228.6,266.3 222.6,266.3" fill="rgb(255,229,229)"/>
<polygon points="228.6,260.3 234.6,260.3 234.6,266.3 228.6,266.3" fill="rgb(255,245,245)"/>
<polygon points="234.6,260.3 240.6,260.3 240.6,266.3 234.6,266.3" fill="rgb(255,199,199)"/>
<polygon points="250.6,260.3 256.6,260.3 256.6,266.3 250.6,266.3" fill="rgb(255,249,249)"/>
<polygon points="256.6,260.3 262.6,260.3 262.6,266.3 256.6,266.3" fill="rgb(255,207,207)"/>
<polygon points="262.6,260.3 268.6,260.3 268.6,266.3 262.6,266.3" fill="rgb(255,203,203)"/>
<polygon points="268.6,260.3 274.6,260.3 274.6,266.3 268.6,266.3" fill="rgb(255,176,176)"/>
<polygon points="274.6,260.3 280.6,260.3 280.6,266.3 274.6,266.3" fill="rgb(241,241,255)"/>
<polygon points="280.6,260.3 286.6,260.3 286.6,266.3 280.6,266.3" fill="rgb(195,195,255)"/>
<polygon points="286.6,260.3 292.6,260.3 292.6,266.3 286.6,266.3" fill="rgb(255,241,241)"/>
<polygon points="292.6,260.3 298.6,260.3 298.6,266.3 292.6,266.3" fill="rgb(249,249,255)"/>
<polygon points="308.6,260.3 314.6,260.3 314.6,266.3 308.6,266.3" fill="rgb(254,254,255)"/>
<polygon points="314.6,260.3 320.6,260.3 320.6,266.3 314.6,266.3" fill="rgb(239,239,255)"/>
<polygon points="320.6,260.3 326.6,260.3 326.6,266.3 320.6,266.3" fill="rgb(211,211,255)"/>
<polygon points="326.6,260.3 332.6,260.3 332.6,266.3 326.6,266.3" fill="rgb(209,209,255)"/>
<polygon points="332.6,260.3 338.6,260.3 338.6,266.3 332.6,266.3" fill="rgb(212,212,255)"/>
<polygon points="338.6,260.3 344.6,260.3 344.6,266.3 338.6,266.3" fill="rgb(169,169,255)"/>
<polygon points="344.6,260.3 350.6,260.3 350.6,266.3 344.6,266.3" fill="rgb(255,181,181)"/>
<polygon points="350.6,260.3 356.6,260.3 356.6,266.3 350.6,266.3" fill="rgb(255,79,79)"/>
<polygon points="158.6,266.3 166.6,266.3 166.6,272.3 158.6,272.3" fill="rgb(240,235,224)"/><text xml:space="preserve" x="162.6" y="272.133" font-family="Calibri" font-size="7.5" fill="rgb(0,0,0)" text-anchor="middle">8</text>
<polygon points="166.6,266.3 174.6,266.3 174.6,272.3 166.6,272.3" fill="rgb(245,245,245)"/><text xml:space="preserve" x="170.6" y="272.133" font-family="Calibri" font-size="7.5" fill="rgb(0,0,0)" text-anchor="middle">7</text>
<polygon points="174.6,266.3 182.6,266.3 182.6,272.3 174.6,272.3" fill="rgb(228,207,162)"/><text xml:space="preserve" x="178.6" y="272.133" font-family="Calibri" font-size="7.5" fill="rgb(0,0,0)" text-anchor="middle">11</text>
<polygon points="192.6,266.3 198.6,266.3 198.6,272.3 192.6,272.3" fill="rgb(255,252,252)"/>
<polygon points="198.6,266.3 204.6,266.3 204.6,272.3 198.6,272.3" fill="rgb(254,254,255)"/>
<polygon points="204.6,266.3 210.6,266.3 210.6,272.3 204.6,272.3" fill="rgb(217,217,255)"/>
<polygon points="210.6,266.3 216.6,266.3 216.6,272.3 210.6,272.3" fill="rgb(194,194,255)"/>
<polygon points="216.6,266.3 222.6,266.3 222.6,272.3 216.6,272.3" fill="rgb(229,229,255)"/>
<polygon points="222.6,266.3 228.6,266.3 228.6,272.3 222.6,272.3" fill="rgb(202,202,255)"/>
<polygon points="228.6,266.3 234.6,266.3 234.6,272.3 228.6,272.3" fill="rgb(239,239,255)"/>
<polygon points="234.6,266.3 240.6,266.3 240.6,272.3 234.6,272.3" fill="rgb(254,212,212)"/>
<polygon points="250.6,266.3 256.6,266.3 256.6,272.3 250.6,272.3" fill="rgb(255,235,235)"/>
<polygon points="256.6,266.3 262.6,266.3 262.6,272.3 256.6,272.3" fill="rgb(255,170,170)"/>
<polygon points="262.6,266.3 268.6,266.3 268.6,272.3 262.6,272.3" fill="rgb(255,198,198)"/>
<polygon points="268.6,266.3 274.6,266.3 274.6,272.3 268.6,272.3" fill="rgb(255,128,128)"/>
<polygon points="274.6,266.3 280.6,266.3 280.6,272.3 274.6,272.3" fill="rgb(254,160,160)"/>
<polygon points="280.6,266.3 286.6,266.3 286.6,272.3 280.6,272.3" fill="rgb(220,220,255)"/>
<polygon points="286.6,266.3 292.6,266.3 292.6,272.3 286.6,272.3" fill="rgb(226,226,255)"/>
<polygon points="292.6,266.3 298.6,266.3 298.6,272.3 292.6,272.3" fill="rgb(221,221,255)"/>
<polygon points="308.6,266.3 314.6,266.3 314.6,272.3 308.6,272.3" fill="rgb(255,245,245)"/>
<polygon points="314.6,266.3 320.6,266.3 320.6,272.3 314.6,272.3" fill="rgb(251,251,255)"/>
<polygon points="320.6,266.3 326.6,266.3 326.6,272.3 320.6,272.3" fill="rgb(172,172,255)"/>
<polygon points="326.6,266.3 332.6,266.3 332.6,272.3 326.6,272.3" fill="rgb(163,163,255)"/>
<polygon points="332.6,266.3 338.6,266.3 338.6,272.3 332.6,272.3" fill="rgb(206,206,255)"/>
<polygon points="338.6,266.3 344.6,266.3 344.6,272.3 338.6,272.3" fill="rgb(248,248,255)"/>
<polygon points="344.6,266.3 350.6,266.3 350.6,272.3 344.6,272.3" fill="rgb(238,238,255)"/>
<polygon points="350.6,266.3 356.6,266.3 356.6,272.3 350.6,272.3" fill="rgb(255,174,174)"/>
<polygon points="158.6,212.3 182.6,212.3 182.6,272.3 158.6,272.3" fill="none" stroke="black" stroke-width="1"/>
<polygon points="192.6,212.3 240.6,212.3 240.6,272.3 192.6,272.3" fill="none" stroke="black" stroke-width="1"/>
<polygon points="250.6,212.3 298.6,212.3 298.6,272.3 250.6,272.3" fill="none" stroke="black" stroke-width="1"/>
<polygon points="308.6,212.3 356.6,212.3 356.6,272.3 308.6,272.3" fill="none" stroke="black" stroke-width="1"/>
<text xml:space="preserve" x="199.3" y="304.633" font-family="Calibri" font-size="6" text-anchor="middle">moduleID</text>
<polygon points="89.3,312.3 109.3,312.3 109.3,332.3 89.3,332.3" fill="rgb(250,250,250)"/><polygon points="89.3,312.3 109.3,312.3 109.3,332.3 89.3,332.3" fill="none" stroke="black" stroke-width="1"/><text xml:space="preserve" x="99.3" y="325.133" font-family="Calibri" font-size="7.5" fill="rgb(0,0,0)" text-anchor="middle">-2.0</text>
<polygon points="109.3,312.3 129.3,312.3 129.3,332.3 109.3,332.3" fill="rgb(156,210,205)"/><polygon points="109.3,312.3 129.3,312.3 129.3,332.3 109.3,332.3" fill="none" stroke="black" stroke-width="1"/><text xml:space="preserve" x="119.3" y="325.133" font-family="Calibri" font-size="7.5" fill="rgb(0,0,0)" text-anchor="middle">-0.4</text>
<polygon points="129.3,312.3 149.3,312.3 149.3,332.3 129.3,332.3" fill="rgb(116,191,184)"/><polygon points="129.3,312.3 149.3,312.3 149.3,332.3 129.3,332.3" fill="none" stroke="black" stroke-width="1"/><text xml:space="preserve" x="139.3" y="325.133" font-family="Calibri" font-size="7.5" fill="rgb(0,0,0)" text-anchor="middle">1.2</text>
<polygon points="149.3,312.3 169.3,312.3 169.3,332.3 149.3,332.3" fill="rgb(152,206,201)"/><polygon points="149.3,312.3 169.3,312.3 169.3,332.3 149.3,332.3" fill="none" stroke="black" stroke-width="1"/><text xml:space="preserve" x="159.3" y="325.133" font-family="Calibri" font-size="7.5" fill="rgb(0,0,0)" text-anchor="middle">2.8</text>
<polygon points="169.3,312.3 189.3,312.3 189.3,332.3 169.3,332.3" fill="rgb(187,220,217)"/><polygon points="169.3,312.3 189.3,312.3 189.3,332.3 169.3,332.3" fill="none" stroke="black" stroke-width="1"/><text xml:space="preserve" x="179.3" y="325.133" font-family="Calibri" font-size="7.5" fill="rgb(0,0,0)" text-anchor="middle">4.4</text>
<polygon points="189.3,312.3 209.3,312.3 209.3,332.3 189.3,332.3" fill="rgb(222,235,234)"/><polygon points="189.3,312.3 209.3,312.3 209.3,332.3 189.3,332.3" fill="none" stroke="black" stroke-width="1"/><text xml:space="preserve" x="199.3" y="325.133" font-family="Calibri" font-size="7.5" fill="rgb(0,0,0)" text-anchor="middle">6.0</text>
<polygon points="209.3,312.3 229.3,312.3 229.3,332.3 209.3,332.3" fill="rgb(242,239,232)"/><polygon points="209.3,312.3 229.3,312.3 229.3,332.3 209.3,332.3" fill="none" stroke="black" stroke-width="1"/><text xml:space="preserve" x="219.3" y="325.133" font-family="Calibri" font-size="7.5" fill="rgb(0,0,0)" text-anchor="middle">7.6</text>
<polygon points="229.3,312.3 249.3,312.3 249.3,332.3 229.3,332.3" fill="rgb(235,224,199)"/><polygon points="229.3,312.3 249.3,312.3 249.3,332.3 229.3,332.3" fill="none" stroke="black" stroke-width="1"/><text xml:space="preserve" x="239.3" y="325.133" font-family="Calibri" font-size="7.5" fill="rgb(0,0,0)" text-anchor="middle">9.2</text>
<polygon points="249.3,312.3 269.3,312.3 269.3,332.3 249.3,332.3" fill="rgb(229,209,166)"/><polygon points="249.3,312.3 269.3,312.3 269.3,332.3 249.3,332.3" fill="none" stroke="black" stroke-width="1"/><text xml:space="preserve" x="259.3" y="325.133" font-family="Calibri" font-size="7.5" fill="rgb(0,0,0)" text-anchor="middle">10.8</text>
<polygon points="269.3,312.3 289.3,312.3 289.3,332.3 269.3,332.3" fill="rgb(222,194,133)"/><polygon points="269.3,312.3 289.3,312.3 289.3,332.3 269.3,332.3" fill="none" stroke="black" stroke-width="1"/><text xml:space="preserve" x="279.3" y="325.133" font-family="Calibri" font-size="7.5" fill="rgb(0,0,0)" text-anchor="middle">12.4</text>
<polygon points="289.3,312.3 309.3,312.3 309.3,332.3 289.3,332.3" fill="rgb(216,179,101)"/><polygon points="289.3,312.3 309.3,312.3 309.3,332.3 289.3,332.3" fill="none" stroke="black" stroke-width="1"/><text xml:space="preserve" x="299.3" y="325.133" font-family="Calibri" font-size="7.5" fill="rgb(0,0,0)" text-anchor="middle">14.0</text>
<text xml:space="preserve" x="199.3" y="364.633" font-family="Calibri" font-size="6" text-anchor="middle">marklevel</text>
<polygon points="89.3,372.3 109.3,372.3 109.3,392.3 89.3,392.3" fill="rgb(0,0,255)"/><polygon points="89.3,372.3 109.3,372.3 109.3,392.3 89.3,392.3" fill="none" stroke="black" stroke-width="1"/><text xml:space="preserve" x="99.3" y="385.133" font-family="Calibri" font-size="7.5" fill="rgb(255,255,255)" text-anchor="middle">-2.0</text>
<polygon points="109.3,372.3 129.3,372.3 129.3,392.3 109.3,392.3" fill="rgb(50,50,255)"/><polygon points="109.3,372.3 129.3,372.3 129.3,392.3 109.3,392.3" fill="none" stroke="black" stroke-width="1"/><text xml:space="preserve" x="119.3" y="385.133" font-family="Calibri" font-size="7.5" fill="rgb(255,255,255)" text-anchor="middle">-1.6</text>
<polygon points="129.3,372.3 149.3,372.3 149.3,392.3 129.3,392.3" fill="rgb(102,102,255)"/><polygon points="129.3,372.3 149.3,372.3 149.3,392.3 129.3,392.3" fill="none" stroke="black" stroke-width="1"/><text xml:space="preserve" x="139.3" y="385.133" font-family="Calibri" font-size="7.5" fill="rgb(255,255,255)" text-anchor="middle">-1.2</text>
<polygon points="149.3,372.3 169.3,372.3 169.3,392.3 149.3,392.3" fill="rgb(153,153,255)"/><polygon points="149.3,372.3 169.3,372.3 169.3,392.3 149.3,392.3" fill="none" stroke="black" stroke-width="1"/><text xml:space="preserve" x="159.3" y="385.133" font-family="Calibri" font-size="7.5" fill="rgb(0,0,0)" text-anchor="middle">-0.8</text>
<polygon points="169.3,372.3 189.3,372.3 189.3,392.3 169.3,392.3" fill="rgb(204,204,255)"/><polygon points="169.3,372.3 189.3,372.3 189.3,392.3 169.3,392.3" fill="none" stroke="black" stroke-width="1"/><text xml:space="preserve" x="179.3" y="385.133" font-family="Calibri" font-size="7.5" fill="rgb(0,0,0)" text-anchor="middle">-0.4</text>
<polygon points="189.3,372.3 209.3,372.3 209.3,392.3 189.3,392.3" fill="rgb(255,255,255)"/><polygon points="189.3,372.3 209.3,372.3 209.3,392.3 189.3,392.3" fill="none" stroke="black" stroke-width="1"/><text xml:space="preserve" x="199.3" y="385.133" font-family="Calibri" font-size="7.5" fill="rgb(0,0,0)" text-anchor="middle">0.0</text>
<polygon points="209.3,372.3 229.3,372.3 229.3,392.3 209.3,392.3" fill="rgb(255,204,204)"/><polygon points="209.3,372.3 229.3,372.3 229.3,392.3 209.3,392.3" fill="none" stroke="black" stroke-width="1"/><text xml:space="preserve" x="219.3" y="385.133" font-family="Calibri" font-size="7.5" fill="rgb(0,0,0)" text-anchor="middle">0.4</text>
<polygon points="229.3,372.3 249.3,372.3 249.3,392.3 229.3,392.3" fill="rgb(255,153,153)"/><polygon points="229.3,372.3 249.3,372.3 249.3,392.3 229.3,392.3" fill="none" stroke="black" stroke-width="1"/><text xml:space="preserve" x="239.3" y="385.133" font-family="Calibri" font-size="7.5" fill="rgb(0,0,0)" text-anchor="middle">0.8</text>
<polygon points="249.3,372.3 269.3,372.3 269.3,392.3 249.3,392.3" fill="rgb(255,102,102)"/><polygon points="249.3,372.3 269.3,372.3 269.3,392.3 249.3,392.3" fill="none" stroke="black" stroke-width="1"/><text xml:space="preserve" x="259.3" y="385.133" font-family="Calibri" font-size="7.5" fill="rgb(0,0,0)" text-anchor="middle">1.2</text>
<polygon points="269.3,372.3 289.3,372.3 289.3,392.3 269.3,392.3" fill="rgb(255,50,50)"/><polygon points="269.3,372.3 289.3,372.3 289.3,392.3 269.3,392.3" fill="none" stroke="black" stroke-width="1"/><text xml:space="preserve" x="279.3" y="385.133" font-family="Calibri" font-size="7.5" fill="rgb(255,255,255)" text-anchor="middle">1.6</text>
<polygon points="289.3,372.3 309.3,372.3 309.3,392.3 289.3,392.3" fill="rgb(255,0,0)"/><polygon points="289.3,372.3 309.3,372.3 309.3,392.3 289.3,392.3" fill="none" stroke="black" stroke-width="1"/><text xml:space="preserve" x="299.3" y="385.133" font-family="Calibri" font-size="7.5" fill="rgb(255,255,255)" text-anchor="middle">2.0</text>
</svg>
