<?xml version="1.0" standalone="no"?><!DOCTYPE svg PUBLIC "-//W3C//DTD SVG 1.1//EN" "http://www.w3.org/Graphics/SVG/1.1/DTD/svg11.dtd">
<svg width="336.5" height="424.3" version="1.1" xmlns="http://www.w3.org/2000/svg">
<text xml:space="preserve" x="92.5" y="217.633" font-family="Calibri" font-size="6" text-anchor="end">Aass</text>
<text xml:space="preserve" x="92.5" y="223.633" font-family="Calibri" font-size="6" text-anchor="end">Lgr8</text>
<text xml:space="preserve" x="92.5" y="229.633" font-family="Calibri" font-size="6" text-anchor="end">Adam18</text>
<text xml:space="preserve" x="92.5" y="235.633" font-family="Calibri" font-size="6" text-anchor="end">Acsm3</text>
<text xml:space="preserve" x="92.5" y="241.633" font-family="Calibri" font-size="6" text-anchor="end">Btc</text>
<text xml:space="preserve" x="92.5" y="247.633" font-family="Calibri" font-size="6" text-anchor="end">Lcp1</text>
<text xml:space="preserve" x="92.5" y="253.633" font-family="Calibri" font-size="6" text-anchor="end">Tlr12</text>
<text xml:space="preserve" x="92.5" y="259.633" font-family="Calibri" font-size="6" text-anchor="end">Dsc3</text>
<text xml:space="preserve" x="92.5" y="265.633" font-family="Calibri" font-size="6" text-anchor="end">Tex12</text>
<text xml:space="preserve" x="92.5" y="271.633" font-family="Calibri" font-size="6" text-anchor="end">Slc34a2</text>
<text xml:space="preserve" x="92.5" y="277.633" font-family="Calibri" font-size="6" text-anchor="end">Slc25a31</text>
<text xml:space="preserve" x="92.5" y="283.633" font-family="Calibri" font-size="6" text-anchor="end">Nr5a1</text>
<text xml:space="preserve" x="102.833" y="208.3" font-family="Calibri" font-size="6" transform="rotate(270 102.833 208.3)">ips</text>
<text xml:space="preserve" x="110.833" y="208.3" font-family="Calibri" font-size="6" transform="rotate(270 110.833 208.3)">pips</text>
<text xml:space="preserve" x="118.833" y="208.3" font-family="Calibri" font-size="6" transform="rotate(270 118.833 208.3)">mef</text>
<text xml:space="preserve" x="135.833" y="208.3" font-family="Calibri" font-size="6" transform="rotate(270 135.833 208.3)">ips_H3K4me3iPS</text>
<text xml:space="preserve" x="141.833" y="208.3" font-family="Calibri" font-size="6" transform="rotate(270 141.833 208.3)">ips_H3K9aciPS</text>
<text xml:space="preserve" x="147.833" y="208.3" font-family="Calibri" font-size="6" transform="rotate(270 147.833 208.3)">ips_H3K14aciPS</text>
<text xml:space="preserve" x="153.833" y="208.3" font-family="Calibri" font-size="6" transform="rotate(270 153.833 208.3)">ips_H3K18aciPS</text>
<text xml:space="preserve" x="159.833" y="208.3" font-family="Calibri" font-size="6" transform="rotate(270 159.833 208.3)">ips_H3K79me2iPS</text>
<text xml:space="preserve" x="165.833" y="208.3" font-family="Calibri" font-size="6" transform="rotate(270 165.833 208.3)">ips_H3K9me2iPS</text>
<text xml:space="preserve" x="171.833" y="208.3" font-family="Calibri" font-size="6" transform="rotate(270 171.833 208.3)">ips_H3K9me3iPS</text>
<text xml:space="preserve" x="177.833" y="208.3" font-family="Calibri" font-size="6" transform="rotate(270 177.833 208.3)">ips_H3K27me3iPS</text>
<text xml:space="preserve" x="193.833" y="208.3" font-family="Calibri" font-size="6" transform="rotate(270 193.833 208.3)">pips_H3K4me3pips</text>
<text xml:space="preserve" x="199.833" y="208.3" font-family="Calibri" font-size="6" transform="rotate(270 199.833 208.3)">pips_H3K9acpips</text>
<text xml:space="preserve" x="205.833" y="208.3" font-family="Calibri" font-size="6" transform="rotate(270 205.833 208.3)">pips_H3K14acpips</text>
<text xml:space="preserve" x="211.833" y="208.3" font-family="Calibri" font-size="6" transform="rotate(270 211.833 208.3)">pips_H3K18acpips</text>
<text xml:space="preserve" x="217.833" y="208.3" font-family="Calibri" font-size="6" transform="rotate(270 217.833 208.3)">pips_H3K79me2pips</text>
<text xml:space="preserve" x="223.833" y="208.3" font-family="Calibri" font-size="6" transform="rotate(270 223.833 208.3)">pips_H3K9me2pips</text>
<text xml:space="preserve" x="229.833" y="208.3" font-family="Calibri" font-size="6" transform="rotate(270 229.833 208.3)">pips_H3K9me3pips</text>
<text xml:space="preserve" x="235.833" y="208.3" font-family="Calibri" font-size="6" transform="rotate(270 235.833 208.3)">pips_H3K27me3pips</text>
<text xml:space="preserve" x="251.833" y="208.3" font-family="Calibri" font-size="6" transform="rotate(270 251.833 208.3)">mef_H3K4me3mef</text>
<text xml:space="preserve" x="257.833" y="208.3" font-family="Calibri" font-size="6" transform="rotate(270 257.833 208.3)">mef_H3K9acmef</text>
<text xml:space="preserve" x="263.833" y="208.3" font-family="Calibri" font-size="6" transform="rotate(270 263.833 208.3)">mef_H3K14acmef</text>
<text xml:space="preserve" x="269.833" y="208.3" font-family="Calibri" font-size="6" transform="rotate(270 269.833 208.3)">mef_H3K18acmef</text>
<text xml:space="preserve" x="275.833" y="208.3" font-family="Calibri" font-size="6" transform="rotate(270 275.833 208.3)">mef_H3K79me2mef</text>
<text xml:space="preserve" x="281.833" y="208.3" font-family="Calibri" font-size="6" transform="rotate(270 281.833 208.3)">mef_H3K9me2mef</text>
<text xml:space="preserve" x="287.833" y="208.3" font-family="Calibri" font-size="6" transform="rotate(270 287.833 208.3)">mef_H3K9me3mef</text>
<text xml:space="preserve" x="293.833" y="208.3" font-family="Calibri" font-size="6" transform="rotate(270 293.833 208.3)">mef_H3K27me3mef</text>
<polygon points="96.5,212.3 104.5,212.3 104.5,218.3 96.5,218.3" fill="rgb(156,207,203)"/><text xml:space="preserve" x="100.5" y="218.133" font-family="Calibri" font-size="7.5" fill="rgb(0,0,0)" text-anchor="middle">3</text>
<polygon points="104.5,212.3 112.5,212.3 112.5,218.3 104.5,218.3" fill="rgb(178,217,213)"/><text xml:space="preserve" x="108.5" y="218.133" font-family="Calibri" font-size="7.5" fill="rgb(0,0,0)" text-anchor="middle">4</text>
<polygon points="112.5,212.3 120.5,212.3 120.5,218.3 112.5,218.3" fill="rgb(178,217,213)"/><text xml:space="preserve" x="116.5" y="218.133" font-family="Calibri" font-size="7.5" fill="rgb(0,0,0)" text-anchor="middle">4</text>
<polygon points="130.5,212.3 136.5,212.3 136.5,218.3 130.5,218.3" fill="rgb(232,232,255)"/>
<polygon points="136.5,212.3 142.5,212.3 142.5,218.3 136.5,218.3" fill="rgb(159,159,255)"/>
<polygon points="142.5,212.3 148.5,212.3 148.5,218.3 142.5,218.3" fill="rgb(210,210,255)"/>
<polygon points="148.5,212.3 154.5,212.3 154.5,218.3 148.5,218.3" fill="rgb(169,169,255)"/>
<polygon points="154.5,212.3 160.5,212.3 160.5,218.3 154.5,218.3" fill="rgb(181,181,255)"/>
<polygon points="160.5,212.3 166.5,212.3 166.5,218.3 160.5,218.3" fill="rgb(255,174,174)"/>
<polygon points="166.5,212.3 172.5,212.3 172.5,218.3 166.5,218.3" fill="rgb(255,151,151)"/>
<polygon points="172.5,212.3 178.5,212.3 178.5,218.3 172.5,218.3" fill="rgb(255,191,191)"/>
<polygon points="188.5,212.3 194.5,212.3 194.5,218.3 188.5,218.3" fill="rgb(204,204,255)"/>
<polygon points="194.5,212.3 200.5,212.3 200.5,218.3 194.5,218.3" fill="rgb(187,187,255)"/>
<polygon points="200.5,212.3 206.5,212.3 206.5,218.3 200.5,218.3" fill="rgb(255,250,250)"/>
<polygon points="206.5,212.3 212.5,212.3 212.5,218.3 206.5,218.3" fill="rgb(242,242,255)"/>
<polygon points="212.5,212.3 218.5,212.3 218.5,218.3 212.5,218.3" fill="rgb(179,179,255)"/>
<polygon points="218.5,212.3 224.5,212.3 224.5,218.3 218.5,218.3" fill="rgb(255,175,175)"/>
<polygon points="224.5,212.3 230.5,212.3 230.5,218.3 224.5,218.3" fill="rgb(251,251,255)"/>
<polygon points="230.5,212.3 236.5,212.3 236.5,218.3 230.5,218.3" fill="rgb(255,251,251)"/>
<polygon points="246.5,212.3 252.5,212.3 252.5,218.3 246.5,218.3" fill="rgb(207,207,255)"/>
<polygon points="252.5,212.3 258.5,212.3 258.5,218.3 252.5,218.3" fill="rgb(176,176,255)"/>
<polygon points="258.5,212.3 264.5,212.3 264.5,218.3 258.5,218.3" fill="rgb(223,223,255)"/>
<polygon points="264.5,212.3 270.5,212.3 270.5,218.3 264.5,218.3" fill="rgb(255,231,231)"/>
<polygon points="270.5,212.3 276.5,212.3 276.5,218.3 270.5,218.3" fill="rgb(167,167,255)"/>
<polygon points="276.5,212.3 282.5,212.3 282.5,218.3 276.5,218.3" fill="rgb(255,194,194)"/>
<polygon points="282.5,212.3 288.5,212.3 288.5,218.3 282.5,218.3" fill="rgb(255,197,197)"/>
<polygon points="288.5,212.3 294.5,212.3 294.5,218.3 288.5,218.3" fill="rgb(255,179,179)"/>
<polygon points="96.5,218.3 104.5,218.3 104.5,224.3 96.5,224.3" fill="rgb(156,207,203)"/><text xml:space="preserve" x="100.5" y="224.133" font-family="Calibri" font-size="7.5" fill="rgb(0,0,0)" text-anchor="middle">3</text>
<polygon points="104.5,218.3 112.5,218.3 112.5,224.3 104.5,224.3" fill="rgb(178,217,213)"/><text xml:space="preserve" x="108.5" y="224.133" font-family="Calibri" font-size="7.5" fill="rgb(0,0,0)" text-anchor="middle">4</text>
<polygon points="112.5,218.3 120.5,218.3 120.5,224.3 112.5,224.3" fill="rgb(178,217,213)"/><text xml:space="preserve" x="116.5" y="224.133" font-family="Calibri" font-size="7.5" fill="rgb(0,0,0)" text-anchor="middle">4</text>
<polygon points="130.5,218.3 136.5,218.3 136.5,224.3 130.5,224.3" fill="rgb(197,197,255)"/>
<polygon points="136.5,218.3 142.5,218.3 142.5,224.3 136.5,224.3" fill="rgb(176,176,255)"/>
<polygon points="142.5,218.3 148.5,218.3 148.5,224.3 142.5,224.3" fill="rgb(156,156,255)"/>
<polygon points="148.5,218.3 154.5,218.3 154.5,224.3 148.5,224.3" fill="rgb(144,144,255)"/>
<polygon points="154.5,218.3 160.5,218.3 160.5,224.3 154.5,224.3" fill="rgb(176,176,255)"/>
<polygon points="160.5,218.3 166.5,218.3 166.5,224.3 160.5,224.3" fill="rgb(87,87,255)"/>
<polygon points="166.5,218.3 172.5,218.3 172.5,224.3 166.5,224.3" fill="rgb(254,231,231)"/>
<polygon points="172.5,218.3 178.5,218.3 178.5,224.3 172.5,224.3" fill="rgb(255,179,179)"/>
<polygon points="188.5,218.3 194.5,218.3 194.5,224.3 188.5,224.3" fill="rgb(148,148,255)"/>
<polygon points="194.5,218.3 200.5,218.3 200.5,224.3 194.5,224.3" fill="rgb(215,215,255)"/>
<polygon points="200.5,218.3 206.5,218.3 206.5,224.3 200.5,224.3" fill="rgb(229,229,255)"/>
<polygon points="206.5,218.3 212.5,218.3 212.5,224.3 206.5,224.3" fill="rgb(212,212,255)"/>
<polygon points="212.5,218.3 218.5,218.3 218.5,224.3 212.5,224.3" fill="rgb(196,196,255)"/>
<polygon points="218.5,218.3 224.5,218.3 224.5,224.3 218.5,224.3" fill="rgb(125,125,255)"/>
<polygon points="224.5,218.3 230.5,218.3 230.5,224.3 224.5,224.3" fill="rgb(255,252,252)"/>
<polygon points="230.5,218.3 236.5,218.3 236.5,224.3 230.5,224.3" fill="rgb(255,214,214)"/>
<polygon points="246.5,218.3 252.5,218.3 252.5,224.3 246.5,224.3" fill="rgb(142,142,255)"/>
<polygon points="252.5,218.3 258.5,218.3 258.5,224.3 252.5,224.3" fill="rgb(212,212,255)"/>
<polygon points="258.5,218.3 264.5,218.3 264.5,224.3 258.5,224.3" fill="rgb(214,214,255)"/>
<polygon points="264.5,218.3 270.5,218.3 270.5,224.3 264.5,224.3" fill="rgb(159,159,255)"/>
<polygon points="270.5,218.3 276.5,218.3 276.5,224.3 270.5,224.3" fill="rgb(186,186,255)"/>
<polygon points="276.5,218.3 282.5,218.3 282.5,224.3 276.5,224.3" fill="rgb(66,66,255)"/>
<polygon points="282.5,218.3 288.5,218.3 288.5,224.3 282.5,224.3" fill="rgb(238,238,255)"/>
<polygon points="288.5,218.3 294.5,218.3 294.5,224.3 288.5,224.3" fill="rgb(255,89,89)"/>
<polygon points="96.5,224.3 104.5,224.3 104.5,230.3 96.5,230.3" fill="rgb(156,207,203)"/><text xml:space="preserve" x="100.5" y="230.133" font-family="Calibri" font-size="7.5" fill="rgb(0,0,0)" text-anchor="middle">3</text>
<polygon points="104.5,224.3 112.5,224.3 112.5,230.3 104.5,230.3" fill="rgb(178,217,213)"/><text xml:space="preserve" x="108.5" y="230.133" font-family="Calibri" font-size="7.5" fill="rgb(0,0,0)" text-anchor="middle">4</text>
<polygon points="112.5,224.3 120.5,224.3 120.5,230.3 112.5,230.3" fill="rgb(178,217,213)"/><text xml:space="preserve" x="116.5" y="230.133" font-family="Calibri" font-size="7.5" fill="rgb(0,0,0)" text-anchor="middle">4</text>
<polygon points="130.5,224.3 136.5,224.3 136.5,230.3 130.5,230.3" fill="rgb(255,238,238)"/>
<polygon points="136.5,224.3 142.5,224.3 142.5,230.3 136.5,230.3" fill="rgb(195,195,255)"/>
<polygon points="142.5,224.3 148.5,224.3 148.5,230.3 142.5,230.3" fill="rgb(238,238,255)"/>
<polygon points="148.5,224.3 154.5,224.3 154.5,230.3 148.5,230.3" fill="rgb(179,179,255)"/>
<polygon points="154.5,224.3 160.5,224.3 160.5,230.3 154.5,230.3" fill="rgb(188,188,255)"/>
<polygon points="160.5,224.3 166.5,224.3 166.5,230.3 160.5,230.3" fill="rgb(255,62,62)"/>
<polygon points="166.5,224.3 172.5,224.3 172.5,230.3 166.5,230.3" fill="rgb(255,209,209)"/>
<polygon points="172.5,224.3 178.5,224.3 178.5,230.3 172.5,230.3" fill="rgb(255,201,201)"/>
<polygon points="188.5,224.3 194.5,224.3 194.5,230.3 188.5,230.3" fill="rgb(191,191,255)"/>
<polygon points="194.5,224.3 200.5,224.3 200.5,230.3 194.5,230.3" fill="rgb(218,218,255)"/>
<polygon points="200.5,224.3 206.5,224.3 206.5,230.3 200.5,230.3" fill="rgb(255,219,219)"/>
<polygon points="206.5,224.3 212.5,224.3 212.5,230.3 206.5,230.3" fill="rgb(229,229,255)"/>
<polygon points="212.5,224.3 218.5,224.3 218.5,230.3 212.5,230.3" fill="rgb(191,191,255)"/>
<polygon points="218.5,224.3 224.5,224.3 224.5,230.3 218.5,230.3" fill="rgb(255,184,184)"/>
<polygon points="224.5,224.3 230.5,224.3 230.5,230.3 224.5,230.3" fill="rgb(255,169,169)"/>
<polygon points="230.5,224.3 236.5,224.3 236.5,230.3 230.5,230.3" fill="rgb(247,247,255)"/>
<polygon points="246.5,224.3 252.5,224.3 252.5,230.3 246.5,230.3" fill="rgb(151,151,255)"/>
<polygon points="252.5,224.3 258.5,224.3 258.5,230.3 252.5,230.3" fill="rgb(190,190,255)"/>
<polygon points="258.5,224.3 264.5,224.3 264.5,230.3 258.5,230.3" fill="rgb(255,166,166)"/>
<polygon points="264.5,224.3 270.5,224.3 270.5,230.3 264.5,230.3" fill="rgb(180,180,255)"/>
<polygon points="270.5,224.3 276.5,224.3 276.5,230.3 270.5,230.3" fill="rgb(182,182,255)"/>
<polygon points="276.5,224.3 282.5,224.3 282.5,230.3 276.5,230.3" fill="rgb(255,158,158)"/>
<polygon points="282.5,224.3 288.5,224.3 288.5,230.3 282.5,230.3" fill="rgb(255,181,181)"/>
<polygon points="288.5,224.3 294.5,224.3 294.5,230.3 288.5,230.3" fill="rgb(255,249,249)"/>
<polygon points="96.5,230.3 104.5,230.3 104.5,236.3 96.5,236.3" fill="rgb(156,207,203)"/><text xml:space="preserve" x="100.5" y="236.133" font-family="Calibri" font-size="7.5" fill="rgb(0,0,0)" text-anchor="middle">3</text>
<polygon points="104.5,230.3 112.5,230.3 112.5,236.3 104.5,236.3" fill="rgb(178,217,213)"/><text xml:space="preserve" x="108.5" y="236.133" font-family="Calibri" font-size="7.5" fill="rgb(0,0,0)" text-anchor="middle">4</text>
<polygon points="112.5,230.3 120.5,230.3 120.5,236.3 112.5,236.3" fill="rgb(178,217,213)"/><text xml:space="preserve" x="116.5" y="236.133" font-family="Calibri" font-size="7.5" fill="rgb(0,0,0)" text-anchor="middle">4</text>
<polygon points="130.5,230.3 136.5,230.3 136.5,236.3 130.5,236.3" fill="rgb(228,228,255)"/>
<polygon points="136.5,230.3 142.5,230.3 142.5,236.3 136.5,236.3" fill="rgb(198,198,255)"/>
<polygon points="142.5,230.3 148.5,230.3 148.5,236.3 142.5,236.3" fill="rgb(205,205,255)"/>
<polygon points="148.5,230.3 154.5,230.3 154.5,236.3 148.5,236.3" fill="rgb(150,150,255)"/>
<polygon points="154.5,230.3 160.5,230.3 160.5,236.3 154.5,236.3" fill="rgb(202,202,255)"/>
<polygon points="160.5,230.3 166.5,230.3 166.5,236.3 160.5,236.3" fill="rgb(255,182,182)"/>
<polygon points="166.5,230.3 172.5,230.3 172.5,236.3 166.5,236.3" fill="rgb(255,0,0)"/>
<polygon points="172.5,230.3 178.5,230.3 178.5,236.3 172.5,236.3" fill="rgb(254,151,151)"/>
<polygon points="188.5,230.3 194.5,230.3 194.5,236.3 188.5,236.3" fill="rgb(156,156,255)"/>
<polygon points="194.5,230.3 200.5,230.3 200.5,236.3 194.5,236.3" fill="rgb(245,245,255)"/>
<polygon points="200.5,230.3 206.5,230.3 206.5,236.3 200.5,236.3" fill="rgb(255,213,213)"/>
<polygon points="206.5,230.3 212.5,230.3 212.5,236.3 206.5,236.3" fill="rgb(177,177,255)"/>
<polygon points="212.5,230.3 218.5,230.3 218.5,236.3 212.5,236.3" fill="rgb(171,171,255)"/>
<polygon points="218.5,230.3 224.5,230.3 224.5,236.3 218.5,236.3" fill="rgb(255,169,169)"/>
<polygon points="224.5,230.3 230.5,230.3 230.5,236.3 224.5,236.3" fill="rgb(255,214,214)"/>
<polygon points="230.5,230.3 236.5,230.3 236.5,236.3 230.5,236.3" fill="rgb(254,254,255)"/>
<polygon points="246.5,230.3 252.5,230.3 252.5,236.3 246.5,236.3" fill="rgb(116,116,255)"/>
<polygon points="252.5,230.3 258.5,230.3 258.5,236.3 252.5,236.3" fill="rgb(192,192,255)"/>
<polygon points="258.5,230.3 264.5,230.3 264.5,236.3 258.5,236.3" fill="rgb(255,202,202)"/>
<polygon points="264.5,230.3 270.5,230.3 270.5,236.3 264.5,236.3" fill="rgb(119,119,255)"/>
<polygon points="270.5,230.3 276.5,230.3 276.5,236.3 270.5,236.3" fill="rgb(160,160,255)"/>
<polygon points="276.5,230.3 282.5,230.3 282.5,236.3 276.5,236.3" fill="rgb(255,170,170)"/>
<polygon points="282.5,230.3 288.5,230.3 288.5,236.3 282.5,236.3" fill="rgb(255,225,225)"/>
<polygon points="288.5,230.3 294.5,230.3 294.5,236.3 288.5,236.3" fill="rgb(255,215,215)"/>
<polygon points="96.5,236.3 104.5,236.3 104.5,242.3 96.5,242.3" fill="rgb(156,207,203)"/><text xml:space="preserve" x="100.5" y="242.133" font-family="Calibri" font-size="7.5" fill="rgb(0,0,0)" text-anchor="middle">3</text>
<polygon points="104.5,236.3 112.5,236.3 112.5,242.3 104.5,242.3" fill="rgb(178,217,213)"/><text xml:space="preserve" x="108.5" y="242.133" font-family="Calibri" font-size="7.5" fill="rgb(0,0,0)" text-anchor="middle">4</text>
<polygon points="112.5,236.3 120.5,236.3 120.5,242.3 112.5,242.3" fill="rgb(178,217,213)"/><text xml:space="preserve" x="116.5" y="242.133" font-family="Calibri" font-size="7.5" fill="rgb(0,0,0)" text-anchor="middle">4</text>
<polygon points="130.5,236.3 136.5,236.3 136.5,242.3 130.5,242.3" fill="rgb(180,180,255)"/>
<polygon points="136.5,236.3 142.5,236.3 142.5,242.3 136.5,242.3" fill="rgb(145,145,255)"/>
<polygon points="142.5,236.3 148.5,236.3 148.5,242.3 142.5,242.3" fill="rgb(173,173,255)"/>
<polygon points="148.5,236.3 154.5,236.3 154.5,242.3 148.5,242.3" fill="rgb(159,159,255)"/>
<polygon points="154.5,236.3 160.5,236.3 160.5,242.3 154.5,242.3" fill="rgb(159,159,255)"/>
<polygon points="160.5,236.3 166.5,236.3 166.5,242.3 160.5,242.3" fill="rgb(255,169,169)"/>
<polygon points="166.5,236.3 172.5,236.3 172.5,242.3 166.5,242.3" fill="rgb(255,209,209)"/>
<polygon points="172.5,236.3 178.5,236.3 178.5,242.3 172.5,242.3" fill="rgb(255,188,188)"/>
<polygon points="188.5,236.3 194.5,236.3 194.5,242.3 188.5,242.3" fill="rgb(239,239,255)"/>
<polygon points="194.5,236.3 200.5,236.3 200.5,242.3 194.5,242.3" fill="rgb(193,193,255)"/>
<polygon points="200.5,236.3 206.5,236.3 206.5,242.3 200.5,242.3" fill="rgb(245,245,255)"/>
<polygon points="206.5,236.3 212.5,236.3 212.5,242.3 206.5,242.3" fill="rgb(255,251,251)"/>
<polygon points="212.5,236.3 218.5,236.3 218.5,242.3 212.5,242.3" fill="rgb(171,171,255)"/>
<polygon points="218.5,236.3 224.5,236.3 224.5,242.3 218.5,242.3" fill="rgb(255,206,206)"/>
<polygon points="224.5,236.3 230.5,236.3 230.5,242.3 224.5,242.3" fill="rgb(255,211,211)"/>
<polygon points="230.5,236.3 236.5,236.3 236.5,242.3 230.5,242.3" fill="rgb(255,212,212)"/>
<polygon points="246.5,236.3 252.5,236.3 252.5,242.3 246.5,242.3" fill="rgb(214,214,255)"/>
<polygon points="252.5,236.3 258.5,236.3 258.5,242.3 252.5,242.3" fill="rgb(198,198,255)"/>
<polygon points="258.5,236.3 264.5,236.3 264.5,242.3 258.5,242.3" fill="rgb(255,223,223)"/>
<polygon points="264.5,236.3 270.5,236.3 270.5,242.3 264.5,242.3" fill="rgb(216,216,255)"/>
<polygon points="270.5,236.3 276.5,236.3 276.5,242.3 270.5,242.3" fill="rgb(170,170,255)"/>
<polygon points="276.5,236.3 282.5,236.3 282.5,242.3 276.5,242.3" fill="rgb(255,221,221)"/>
<polygon points="282.5,236.3 288.5,236.3 288.5,242.3 282.5,242.3" fill="rgb(255,238,238)"/>
<polygon points="288.5,236.3 294.5,236.3 294.5,242.3 288.5,242.3" fill="rgb(255,124,124)"/>
<polygon points="96.5,242.3 104.5,242.3 104.5,248.3 96.5,248.3" fill="rgb(156,207,203)"/><text xml:space="preserve" x="100.5" y="248.133" font-family="Calibri" font-size="7.5" fill="rgb(0,0,0)" text-anchor="middle">3</text>
<polygon points="104.5,242.3 112.5,242.3 112.5,248.3 104.5,248.3" fill="rgb(178,217,213)"/><text xml:space="preserve" x="108.5" y="248.133" font-family="Calibri" font-size="7.5" fill="rgb(0,0,0)" text-anchor="middle">4</text>
<polygon points="112.5,242.3 120.5,242.3 120.5,248.3 112.5,248.3" fill="rgb(178,217,213)"/><text xml:space="preserve" x="116.5" y="248.133" font-family="Calibri" font-size="7.5" fill="rgb(0,0,0)" text-anchor="middle">4</text>
<polygon points="130.5,242.3 136.5,242.3 136.5,248.3 130.5,248.3" fill="rgb(186,186,255)"/>
<polygon points="136.5,242.3 142.5,242.3 142.5,248.3 136.5,248.3" fill="rgb(168,168,255)"/>
<polygon points="142.5,242.3 148.5,242.3 148.5,248.3 142.5,248.3" fill="rgb(172,172,255)"/>
<polygon points="148.5,242.3 154.5,242.3 154.5,248.3 148.5,248.3" fill="rgb(152,152,255)"/>
<polygon points="154.5,242.3 160.5,242.3 160.5,248.3 154.5,248.3" fill="rgb(156,156,255)"/>
<polygon points="160.5,242.3 166.5,242.3 166.5,248.3 160.5,248.3" fill="rgb(255,234,234)"/>
<polygon points="166.5,242.3 172.5,242.3 172.5,248.3 166.5,248.3" fill="rgb(255,203,203)"/>
<polygon points="172.5,242.3 178.5,242.3 178.5,248.3 172.5,248.3" fill="rgb(255,142,142)"/>
<polygon points="188.5,242.3 194.5,242.3 194.5,248.3 188.5,248.3" fill="rgb(194,194,255)"/>
<polygon points="194.5,242.3 200.5,242.3 200.5,248.3 194.5,248.3" fill="rgb(196,196,255)"/>
<polygon points="200.5,242.3 206.5,242.3 206.5,248.3 200.5,248.3" fill="rgb(187,187,255)"/>
<polygon points="206.5,242.3 212.5,242.3 212.5,248.3 206.5,248.3" fill="rgb(219,219,255)"/>
<polygon points="212.5,242.3 218.5,242.3 218.5,248.3 212.5,248.3" fill="rgb(184,184,255)"/>
<polygon points="218.5,242.3 224.5,242.3 224.5,248.3 218.5,248.3" fill="rgb(255,192,192)"/>
<polygon points="224.5,242.3 230.5,242.3 230.5,248.3 224.5,248.3" fill="rgb(236,236,255)"/>
<polygon points="230.5,242.3 236.5,242.3 236.5,248.3 230.5,248.3" fill="rgb(246,246,255)"/>
<polygon points="246.5,242.3 252.5,242.3 252.5,248.3 246.5,248.3" fill="rgb(179,179,255)"/>
<polygon points="252.5,242.3 258.5,242.3 258.5,248.3 252.5,248.3" fill="rgb(173,173,255)"/>
<polygon points="258.5,242.3 264.5,242.3 264.5,248.3 258.5,248.3" fill="rgb(251,251,255)"/>
<polygon points="264.5,242.3 270.5,242.3 270.5,248.3 264.5,248.3" fill="rgb(167,167,255)"/>
<polygon points="270.5,242.3 276.5,242.3 276.5,248.3 270.5,248.3" fill="rgb(174,174,255)"/>
<polygon points="276.5,242.3 282.5,242.3 282.5,248.3 276.5,248.3" fill="rgb(255,157,157)"/>
<polygon points="282.5,242.3 288.5,242.3 288.5,248.3 282.5,248.3" fill="rgb(254,242,242)"/>
<polygon points="288.5,242.3 294.5,242.3 294.5,248.3 288.5,248.3" fill="rgb(255,97,97)"/>
<polygon points="96.5,248.3 104.5,248.3 104.5,254.3 96.5,254.3" fill="rgb(156,207,203)"/><text xml:space="preserve" x="100.5" y="254.133" font-family="Calibri" font-size="7.5" fill="rgb(0,0,0)" text-anchor="middle">3</text>
<polygon points="104.5,248.3 112.5,248.3 112.5,254.3 104.5,254.3" fill="rgb(178,217,213)"/><text xml:space="preserve" x="108.5" y="254.133" font-family="Calibri" font-size="7.5" fill="rgb(0,0,0)" text-anchor="middle">4</text>
<polygon points="112.5,248.3 120.5,248.3 120.5,254.3 112.5,254.3" fill="rgb(178,217,213)"/><text xml:space="preserve" x="116.5" y="254.133" font-family="Calibri" font-size="7.5" fill="rgb(0,0,0)" text-anchor="middle">4</text>
<polygon points="130.5,248.3 136.5,248.3 136.5,254.3 130.5,254.3" fill="rgb(179,179,255)"/>
<polygon points="136.5,248.3 142.5,248.3 142.5,254.3 136.5,254.3" fill="rgb(164,164,255)"/>
<polygon points="142.5,248.3 148.5,248.3 148.5,254.3 142.5,254.3" fill="rgb(215,215,255)"/>
<polygon points="148.5,248.3 154.5,248.3 154.5,254.3 148.5,254.3" fill="rgb(148,148,255)"/>
<polygon points="154.5,248.3 160.5,248.3 160.5,254.3 154.5,254.3" fill="rgb(179,179,255)"/>
<polygon points="160.5,248.3 166.5,248.3 166.5,254.3 160.5,254.3" fill="rgb(255,186,186)"/>
<polygon points="166.5,248.3 172.5,248.3 172.5,254.3 166.5,254.3" fill="rgb(255,92,92)"/>
<polygon points="172.5,248.3 178.5,248.3 178.5,254.3 172.5,254.3" fill="rgb(255,176,176)"/>
<polygon points="188.5,248.3 194.5,248.3 194.5,254.3 188.5,254.3" fill="rgb(211,211,255)"/>
<polygon points="194.5,248.3 200.5,248.3 200.5,254.3 194.5,254.3" fill="rgb(191,191,255)"/>
<polygon points="200.5,248.3 206.5,248.3 206.5,254.3 200.5,254.3" fill="rgb(228,228,255)"/>
<polygon points="206.5,248.3 212.5,248.3 212.5,254.3 206.5,254.3" fill="rgb(192,192,255)"/>
<polygon points="212.5,248.3 218.5,248.3 218.5,254.3 212.5,254.3" fill="rgb(165,165,255)"/>
<polygon points="218.5,248.3 224.5,248.3 224.5,254.3 218.5,254.3" fill="rgb(183,183,255)"/>
<polygon points="224.5,248.3 230.5,248.3 230.5,254.3 224.5,254.3" fill="rgb(255,216,216)"/>
<polygon points="230.5,248.3 236.5,248.3 236.5,254.3 230.5,254.3" fill="rgb(255,141,141)"/>
<polygon points="246.5,248.3 252.5,248.3 252.5,254.3 246.5,254.3" fill="rgb(158,158,255)"/>
<polygon points="252.5,248.3 258.5,248.3 258.5,254.3 252.5,254.3" fill="rgb(175,175,255)"/>
<polygon points="258.5,248.3 264.5,248.3 264.5,254.3 258.5,254.3" fill="rgb(255,251,251)"/>
<polygon points="264.5,248.3 270.5,248.3 270.5,254.3 264.5,254.3" fill="rgb(255,251,251)"/>
<polygon points="270.5,248.3 276.5,248.3 276.5,254.3 270.5,254.3" fill="rgb(178,178,255)"/>
<polygon points="276.5,248.3 282.5,248.3 282.5,254.3 276.5,254.3" fill="rgb(130,130,255)"/>
<polygon points="282.5,248.3 288.5,248.3 288.5,254.3 282.5,254.3" fill="rgb(238,238,255)"/>
<polygon points="288.5,248.3 294.5,248.3 294.5,254.3 288.5,254.3" fill="rgb(255,171,171)"/>
<polygon points="96.5,254.3 104.5,254.3 104.5,260.3 96.5,260.3" fill="rgb(156,207,203)"/><text xml:space="preserve" x="100.5" y="260.133" font-family="Calibri" font-size="7.5" fill="rgb(0,0,0)" text-anchor="middle">3</text>
<polygon points="104.5,254.3 112.5,254.3 112.5,260.3 104.5,260.3" fill="rgb(178,217,213)"/><text xml:space="preserve" x="108.5" y="260.133" font-family="Calibri" font-size="7.5" fill="rgb(0,0,0)" text-anchor="middle">4</text>
<polygon points="112.5,254.3 120.5,254.3 120.5,260.3 112.5,260.3" fill="rgb(178,217,213)"/><text xml:space="preserve" x="116.5" y="260.133" font-family="Calibri" font-size="7.5" fill="rgb(0,0,0)" text-anchor="middle">4</text>
<polygon points="130.5,254.3 136.5,254.3 136.5,260.3 130.5,260.3" fill="rgb(212,212,255)"/>
<polygon points="136.5,254.3 142.5,254.3 142.5,260.3 136.5,260.3" fill="rgb(171,171,255)"/>
<polygon points="142.5,254.3 148.5,254.3 148.5,260.3 142.5,260.3" fill="rgb(181,181,255)"/>
<polygon points="148.5,254.3 154.5,254.3 154.5,260.3 148.5,260.3" fill="rgb(198,198,255)"/>
<polygon points="154.5,254.3 160.5,254.3 160.5,260.3 154.5,260.3" fill="rgb(184,184,255)"/>
<polygon points="160.5,254.3 166.5,254.3 166.5,260.3 160.5,260.3" fill="rgb(255,120,120)"/>
<polygon points="166.5,254.3 172.5,254.3 172.5,260.3 166.5,260.3" fill="rgb(255,201,201)"/>
<polygon points="172.5,254.3 178.5,254.3 178.5,260.3 172.5,260.3" fill="rgb(254,134,134)"/>
<polygon points="188.5,254.3 194.5,254.3 194.5,260.3 188.5,260.3" fill="rgb(227,227,255)"/>
<polygon points="194.5,254.3 200.5,254.3 200.5,260.3 194.5,260.3" fill="rgb(179,179,255)"/>
<polygon points="200.5,254.3 206.5,254.3 206.5,260.3 200.5,260.3" fill="rgb(248,248,255)"/>
<polygon points="206.5,254.3 212.5,254.3 212.5,260.3 206.5,260.3" fill="rgb(205,205,255)"/>
<polygon points="212.5,254.3 218.5,254.3 218.5,260.3 212.5,260.3" fill="rgb(192,192,255)"/>
<polygon points="218.5,254.3 224.5,254.3 224.5,260.3 218.5,260.3" fill="rgb(255,129,129)"/>
<polygon points="224.5,254.3 230.5,254.3 230.5,260.3 224.5,260.3" fill="rgb(255,241,241)"/>
<polygon points="230.5,254.3 236.5,254.3 236.5,260.3 230.5,260.3" fill="rgb(255,247,247)"/>
<polygon points="246.5,254.3 252.5,254.3 252.5,260.3 246.5,260.3" fill="rgb(179,179,255)"/>
<polygon points="252.5,254.3 258.5,254.3 258.5,260.3 252.5,260.3" fill="rgb(215,215,255)"/>
<polygon points="258.5,254.3 264.5,254.3 264.5,260.3 258.5,260.3" fill="rgb(255,185,185)"/>
<polygon points="264.5,254.3 270.5,254.3 270.5,260.3 264.5,260.3" fill="rgb(166,166,255)"/>
<polygon points="270.5,254.3 276.5,254.3 276.5,260.3 270.5,260.3" fill="rgb(214,214,255)"/>
<polygon points="276.5,254.3 282.5,254.3 282.5,260.3 276.5,260.3" fill="rgb(255,161,161)"/>
<polygon points="282.5,254.3 288.5,254.3 288.5,260.3 282.5,260.3" fill="rgb(242,242,255)"/>
<polygon points="288.5,254.3 294.5,254.3 294.5,260.3 288.5,260.3" fill="rgb(255,167,167)"/>
<polygon points="96.5,260.3 104.5,260.3 104.5,266.3 96.5,266.3" fill="rgb(156,207,203)"/><text xml:space="preserve" x="100.5" y="266.133" font-family="Calibri" font-size="7.5" fill="rgb(0,0,0)" text-anchor="middle">3</text>
<polygon points="104.5,260.3 112.5,260.3 112.5,266.3 104.5,266.3" fill="rgb(178,217,213)"/><text xml:space="preserve" x="108.5" y="266.133" font-family="Calibri" font-size="7.5" fill="rgb(0,0,0)" text-anchor="middle">4</text>
<polygon points="112.5,260.3 120.5,260.3 120.5,266.3 112.5,266.3" fill="rgb(178,217,213)"/><text xml:space="preserve" x="116.5" y="266.133" font-family="Calibri" font-size="7.5" fill="rgb(0,0,0)" text-anchor="middle">4</text>
<polygon points="130.5,260.3 136.5,260.3 136.5,266.3 130.5,266.3" fill="rgb(187,187,255)"/>
<polygon points="136.5,260.3 142.5,260.3 142.5,266.3 136.5,266.3" fill="rgb(169,169,255)"/>
<polygon points="142.5,260.3 148.5,260.3 148.5,266.3 142.5,266.3" fill="rgb(121,121,255)"/>
<polygon points="148.5,260.3 154.5,260.3 154.5,266.3 148.5,266.3" fill="rgb(116,116,255)"/>
<polygon points="154.5,260.3 160.5,260.3 160.5,266.3 154.5,266.3" fill="rgb(172,172,255)"/>
<polygon points="160.5,260.3 166.5,260.3 166.5,266.3 160.5,266.3" fill="rgb(192,192,255)"/>
<polygon points="166.5,260.3 172.5,260.3 172.5,266.3 166.5,266.3" fill="rgb(255,101,101)"/>
<polygon points="172.5,260.3 178.5,260.3 178.5,266.3 172.5,266.3" fill="rgb(255,84,84)"/>
<polygon points="188.5,260.3 194.5,260.3 194.5,266.3 188.5,266.3" fill="rgb(191,191,255)"/>
<polygon points="194.5,260.3 200.5,260.3 200.5,266.3 194.5,266.3" fill="rgb(201,201,255)"/>
<polygon points="200.5,260.3 206.5,260.3 206.5,266.3 200.5,266.3" fill="rgb(225,225,255)"/>
<polygon points="206.5,260.3 212.5,260.3 212.5,266.3 206.5,266.3" fill="rgb(215,215,255)"/>
<polygon points="212.5,260.3 218.5,260.3 218.5,266.3 212.5,266.3" fill="rgb(196,196,255)"/>
<polygon points="218.5,260.3 224.5,260.3 224.5,266.3 218.5,266.3" fill="rgb(254,197,197)"/>
<polygon points="224.5,260.3 230.5,260.3 230.5,266.3 224.5,266.3" fill="rgb(212,212,255)"/>
<polygon points="230.5,260.3 236.5,260.3 236.5,266.3 230.5,266.3" fill="rgb(255,240,240)"/>
<polygon points="246.5,260.3 252.5,260.3 252.5,266.3 246.5,266.3" fill="rgb(170,170,255)"/>
<polygon points="252.5,260.3 258.5,260.3 258.5,266.3 252.5,266.3" fill="rgb(204,204,255)"/>
<polygon points="258.5,260.3 264.5,260.3 264.5,266.3 258.5,266.3" fill="rgb(222,222,255)"/>
<polygon points="264.5,260.3 270.5,260.3 270.5,266.3 264.5,266.3" fill="rgb(177,177,255)"/>
<polygon points="270.5,260.3 276.5,260.3 276.5,266.3 270.5,266.3" fill="rgb(196,196,255)"/>
<polygon points="276.5,260.3 282.5,260.3 282.5,266.3 276.5,266.3" fill="rgb(255,161,161)"/>
<polygon points="282.5,260.3 288.5,260.3 288.5,266.3 282.5,266.3" fill="rgb(255,194,194)"/>
<polygon points="288.5,260.3 294.5,260.3 294.5,266.3 288.5,266.3" fill="rgb(255,182,182)"/>
<polygon points="96.5,266.3 104.5,266.3 104.5,272.3 96.5,272.3" fill="rgb(156,207,203)"/><text xml:space="preserve" x="100.5" y="272.133" font-family="Calibri" font-size="7.5" fill="rgb(0,0,0)" text-anchor="middle">3</text>
<polygon points="104.5,266.3 112.5,266.3 112.5,272.3 104.5,272.3" fill="rgb(178,217,213)"/><text xml:space="preserve" x="108.5" y="272.133" font-family="Calibri" font-size="7.5" fill="rgb(0,0,0)" text-anchor="middle">4</text>
<polygon points="112.5,266.3 120.5,266.3 120.5,272.3 112.5,272.3" fill="rgb(178,217,213)"/><text xml:space="preserve" x="116.5" y="272.133" font-family="Calibri" font-size="7.5" fill="rgb(0,0,0)" text-anchor="middle">4</text>
<polygon points="130.5,266.3 136.5,266.3 136.5,272.3 130.5,272.3" fill="rgb(210,210,255)"/>
<polygon points="136.5,266.3 142.5,266.3 142.5,272.3 136.5,272.3" fill="rgb(177,177,255)"/>
<polygon points="142.5,266.3 148.5,266.3 148.5,272.3 142.5,272.3" fill="rgb(203,203,255)"/>
<polygon points="148.5,266.3 154.5,266.3 154.5,272.3 148.5,272.3" fill="rgb(198,198,255)"/>
<polygon points="154.5,266.3 160.5,266.3 160.5,272.3 154.5,272.3" fill="rgb(181,181,255)"/>
<polygon points="160.5,266.3 166.5,266.3 166.5,272.3 160.5,272.3" fill="rgb(255,177,177)"/>
<polygon points="166.5,266.3 172.5,266.3 172.5,272.3 166.5,272.3" fill="rgb(255,137,137)"/>
<polygon points="172.5,266.3 178.5,266.3 178.5,272.3 172.5,272.3" fill="rgb(255,119,119)"/>
<polygon points="188.5,266.3 194.5,266.3 194.5,272.3 188.5,272.3" fill="rgb(192,192,255)"/>
<polygon points="194.5,266.3 200.5,266.3 200.5,272.3 194.5,272.3" fill="rgb(205,205,255)"/>
<polygon points="200.5,266.3 206.5,266.3 206.5,272.3 200.5,272.3" fill="rgb(230,230,255)"/>
<polygon points="206.5,266.3 212.5,266.3 212.5,272.3 206.5,272.3" fill="rgb(172,172,255)"/>
<polygon points="212.5,266.3 218.5,266.3 218.5,272.3 212.5,272.3" fill="rgb(177,177,255)"/>
<polygon points="218.5,266.3 224.5,266.3 224.5,272.3 218.5,272.3" fill="rgb(248,248,255)"/>
<polygon points="224.5,266.3 230.5,266.3 230.5,272.3 224.5,272.3" fill="rgb(255,185,185)"/>
<polygon points="230.5,266.3 236.5,266.3 236.5,272.3 230.5,272.3" fill="rgb(255,191,191)"/>
<polygon points="246.5,266.3 252.5,266.3 252.5,272.3 246.5,272.3" fill="rgb(158,158,255)"/>
<polygon points="252.5,266.3 258.5,266.3 258.5,272.3 252.5,272.3" fill="rgb(188,188,255)"/>
<polygon points="258.5,266.3 264.5,266.3 264.5,272.3 258.5,272.3" fill="rgb(255,246,246)"/>
<polygon points="264.5,266.3 270.5,266.3 270.5,272.3 264.5,272.3" fill="rgb(207,207,255)"/>
<polygon points="270.5,266.3 276.5,266.3 276.5,272.3 270.5,272.3" fill="rgb(170,170,255)"/>
<polygon points="276.5,266.3 282.5,266.3 282.5,272.3 276.5,272.3" fill="rgb(254,247,247)"/>
<polygon points="282.5,266.3 288.5,266.3 288.5,272.3 282.5,272.3" fill="rgb(255,234,234)"/>
<polygon points="288.5,266.3 294.5,266.3 294.5,272.3 288.5,272.3" fill="rgb(255,102,102)"/>
<polygon points="96.5,272.3 104.5,272.3 104.5,278.3 96.5,278.3" fill="rgb(156,207,203)"/><text xml:space="preserve" x="100.5" y="278.133" font-family="Calibri" font-size="7.5" fill="rgb(0,0,0)" text-anchor="middle">3</text>
<polygon points="104.5,272.3 112.5,272.3 112.5,278.3 104.5,278.3" fill="rgb(178,217,213)"/><text xml:space="preserve" x="108.5" y="278.133" font-family="Calibri" font-size="7.5" fill="rgb(0,0,0)" text-anchor="middle">4</text>
<polygon points="112.5,272.3 120.5,272.3 120.5,278.3 112.5,278.3" fill="rgb(178,217,213)"/><text xml:space="preserve" x="116.5" y="278.133" font-family="Calibri" font-size="7.5" fill="rgb(0,0,0)" text-anchor="middle">4</text>
<polygon points="130.5,272.3 136.5,272.3 136.5,278.3 130.5,278.3" fill="rgb(209,209,255)"/>
<polygon points="136.5,272.3 142.5,272.3 142.5,278.3 136.5,278.3" fill="rgb(153,153,255)"/>
<polygon points="142.5,272.3 148.5,272.3 148.5,278.3 142.5,278.3" fill="rgb(179,179,255)"/>
<polygon points="148.5,272.3 154.5,272.3 154.5,278.3 148.5,278.3" fill="rgb(156,156,255)"/>
<polygon points="154.5,272.3 160.5,272.3 160.5,278.3 154.5,278.3" fill="rgb(186,186,255)"/>
<polygon points="160.5,272.3 166.5,272.3 166.5,278.3 160.5,278.3" fill="rgb(255,182,182)"/>
<polygon points="166.5,272.3 172.5,272.3 172.5,278.3 166.5,278.3" fill="rgb(255,133,133)"/>
<polygon points="172.5,272.3 178.5,272.3 178.5,278.3 172.5,278.3" fill="rgb(255,148,148)"/>
<polygon points="188.5,272.3 194.5,272.3 194.5,278.3 188.5,278.3" fill="rgb(163,163,255)"/>
<polygon points="194.5,272.3 200.5,272.3 200.5,278.3 194.5,278.3" fill="rgb(177,177,255)"/>
<polygon points="200.5,272.3 206.5,272.3 206.5,278.3 200.5,278.3" fill="rgb(255,229,229)"/>
<polygon points="206.5,272.3 212.5,272.3 212.5,278.3 206.5,278.3" fill="rgb(197,197,255)"/>
<polygon points="212.5,272.3 218.5,272.3 218.5,278.3 212.5,278.3" fill="rgb(195,195,255)"/>
<polygon points="218.5,272.3 224.5,272.3 224.5,278.3 218.5,278.3" fill="rgb(255,182,182)"/>
<polygon points="224.5,272.3 230.5,272.3 230.5,278.3 224.5,278.3" fill="rgb(255,250,250)"/>
<polygon points="230.5,272.3 236.5,272.3 236.5,278.3 230.5,278.3" fill="rgb(213,213,255)"/>
<polygon points="246.5,272.3 252.5,272.3 252.5,278.3 246.5,278.3" fill="rgb(150,150,255)"/>
<polygon points="252.5,272.3 258.5,272.3 258.5,278.3 252.5,278.3" fill="rgb(166,166,255)"/>
<polygon points="258.5,272.3 264.5,272.3 264.5,278.3 258.5,278.3" fill="rgb(255,196,196)"/>
<polygon points="264.5,272.3 270.5,272.3 270.5,278.3 264.5,278.3" fill="rgb(215,215,255)"/>
<polygon points="270.5,272.3 276.5,272.3 276.5,278.3 270.5,278.3" fill="rgb(175,175,255)"/>
<polygon points="276.5,272.3 282.5,272.3 282.5,278.3 276.5,278.3" fill="rgb(255,189,189)"/>
<polygon points="282.5,272.3 288.5,272.3 288.5,278.3 282.5,278.3" fill="rgb(255,254,254)"/>
<polygon points="288.5,272.3 294.5,272.3 294.5,278.3 288.5,278.3" fill="rgb(222,222,255)"/>
<polygon points="96.5,278.3 104.5,278.3 104.5,284.3 96.5,284.3" fill="rgb(156,207,203)"/><text xml:space="preserve" x="100.5" y="284.133" font-family="Calibri" font-size="7.5" fill="rgb(0,0,0)" text-anchor="middle">3</text>
<polygon points="104.5,278.3 112.5,278.3 112.5,284.3 104.5,284.3" fill="rgb(178,217,213)"/><text xml:space="preserve" x="108.5" y="284.133" font-family="Calibri" font-size="7.5" fill="rgb(0,0,0)" text-anchor="middle">4</text>
<polygon points="112.5,278.3 120.5,278.3 120.5,284.3 112.5,284.3" fill="rgb(178,217,213)"/><text xml:space="preserve" x="116.5" y="284.133" font-family="Calibri" font-size="7.5" fill="rgb(0,0,0)" text-anchor="middle">4</text>
<polygon points="130.5,278.3 136.5,278.3 136.5,284.3 130.5,284.3" fill="rgb(198,198,255)"/>
<polygon points="136.5,278.3 142.5,278.3 142.5,284.3 136.5,284.3" fill="rgb(183,183,255)"/>
<polygon points="142.5,278.3 148.5,278.3 148.5,284.3 142.5,284.3" fill="rgb(193,193,255)"/>
<polygon points="148.5,278.3 154.5,278.3 154.5,284.3 148.5,284.3" fill="rgb(228,228,255)"/>
<polygon points="154.5,278.3 160.5,278.3 160.5,284.3 154.5,284.3" fill="rgb(182,182,255)"/>
<polygon points="160.5,278.3 166.5,278.3 166.5,284.3 160.5,284.3" fill="rgb(253,253,255)"/>
<polygon points="166.5,278.3 172.5,278.3 172.5,284.3 166.5,284.3" fill="rgb(255,191,191)"/>
<polygon points="172.5,278.3 178.5,278.3 178.5,284.3 172.5,284.3" fill="rgb(255,39,39)"/>
<polygon points="188.5,278.3 194.5,278.3 194.5,284.3 188.5,284.3" fill="rgb(217,217,255)"/>
<polygon points="194.5,278.3 200.5,278.3 200.5,284.3 194.5,284.3" fill="rgb(199,199,255)"/>
<polygon points="200.5,278.3 206.5,278.3 206.5,284.3 200.5,284.3" fill="rgb(247,247,255)"/>
<polygon points="206.5,278.3 212.5,278.3 212.5,284.3 206.5,284.3" fill="rgb(235,235,255)"/>
<polygon points="212.5,278.3 218.5,278.3 218.5,284.3 212.5,284.3" fill="rgb(179,179,255)"/>
<polygon points="218.5,278.3 224.5,278.3 224.5,284.3 218.5,284.3" fill="rgb(192,192,255)"/>
<polygon points="224.5,278.3 230.5,278.3 230.5,284.3 224.5,284.3" fill="rgb(223,223,255)"/>
<polygon points="230.5,278.3 236.5,278.3 236.5,284.3 230.5,284.3" fill="rgb(255,208,208)"/>
<polygon points="246.5,278.3 252.5,278.3 252.5,284.3 246.5,284.3" fill="rgb(151,151,255)"/>
<polygon points="252.5,278.3 258.5,278.3 258.5,284.3 252.5,284.3" fill="rgb(198,198,255)"/>
<polygon points="258.5,278.3 264.5,278.3 264.5,284.3 258.5,284.3" fill="rgb(224,224,255)"/>
<polygon points="264.5,278.3 270.5,278.3 270.5,284.3 264.5,284.3" fill="rgb(172,172,255)"/>
<polygon points="270.5,278.3 276.5,278.3 276.5,284.3 270.5,284.3" fill="rgb(168,168,255)"/>
<polygon points="276.5,278.3 282.5,278.3 282.5,284.3 276.5,284.3" fill="rgb(255,229,229)"/>
<polygon points="282.5,278.3 288.5,278.3 288.5,284.3 282.5,284.3" fill="rgb(255,201,201)"/>
<polygon points="288.5,278.3 294.5,278.3 294.5,284.3 288.5,284.3" fill="rgb(255,107,107)"/>
<polygon points="96.5,212.3 120.5,212.3 120.5,284.3 96.5,284.3" fill="none" stroke="black" stroke-width="1"/>
<polygon points="130.5,212.3 178.5,212.3 178.5,284.3 130.5,284.3" fill="none" stroke="black" stroke-width="1"/>
<polygon points="188.5,212.3 236.5,212.3 236.5,284.3 188.5,284.3" fill="none" stroke="black" stroke-width="1"/>
<polygon points="246.5,212.3 294.5,212.3 294.5,284.3 246.5,284.3" fill="none" stroke="black" stroke-width="1"/>
<text xml:space="preserve" x="168.25" y="316.633" font-family="Calibri" font-size="6" text-anchor="middle">moduleID</text>
<polygon points="58.25,324.3 78.25,324.3 78.25,344.3 58.25,344.3" fill="rgb(250,250,250)"/><polygon points="58.25,324.3 78.25,324.3 78.25,344.3 58.25,344.3" fill="none" stroke="black" stroke-width="1"/><text xml:space="preserve" x="68.25" y="337.133" font-family="Calibri" font-size="7.5" fill="rgb(0,0,0)" text-anchor="middle">-2.0</text>
<polygon points="78.25,324.3 98.25,324.3 98.25,344.3 78.25,344.3" fill="rgb(156,210,205)"/><polygon points="78.25,324.3 98.25,324.3 98.25,344.3 78.25,344.3" fill="none" stroke="black" stroke-width="1"/><text xml:space="preserve" x="88.25" y="337.133" font-family="Calibri" font-size="7.5" fill="rgb(0,0,0)" text-anchor="middle">-0.4</text>
<polygon points="98.25,324.3 118.25,324.3 118.25,344.3 98.25,344.3" fill="rgb(116,191,184)"/><polygon points="98.25,324.3 118.25,324.3 118.25,344.3 98.25,344.3" fill="none" stroke="black" stroke-width="1"/><text xml:space="preserve" x="108.25" y="337.133" font-family="Calibri" font-size="7.5" fill="rgb(0,0,0)" text-anchor="middle">1.2</text>
<polygon points="118.25,324.3 138.25,324.3 138.25,344.3 118.25,344.3" fill="rgb(152,206,201)"/><polygon points="118.25,324.3 138.25,324.3 138.25,344.3 118.25,344.3" fill="none" stroke="black" stroke-width="1"/><text xml:space="preserve" x="128.25" y="337.133" font-family="Calibri" font-size="7.5" fill="rgb(0,0,0)" text-anchor="middle">2.8</text>
<polygon points="138.25,324.3 158.25,324.3 158.25,344.3 138.25,344.3" fill="rgb(187,220,217)"/><polygon points="138.25,324.3 158.25,324.3 158.25,344.3 138.25,344.3" fill="none" stroke="black" stroke-width="1"/><text xml:space="preserve" x="148.25" y="337.133" font-family="Calibri" font-size="7.5" fill="rgb(0,0,0)" text-anchor="middle">4.4</text>
<polygon points="158.25,324.3 178.25,324.3 178.25,344.3 158.25,344.3" fill="rgb(222,235,234)"/><polygon points="158.25,324.3 178.25,324.3 178.25,344.3 158.25,344.3" fill="none" stroke="black" stroke-width="1"/><text xml:space="preserve" x="168.25" y="337.133" font-family="Calibri" font-size="7.5" fill="rgb(0,0,0)" text-anchor="middle">6.0</text>
<polygon points="178.25,324.3 198.25,324.3 198.25,344.3 178.25,344.3" fill="rgb(242,239,232)"/><polygon points="178.25,324.3 198.25,324.3 198.25,344.3 178.25,344.3" fill="none" stroke="black" stroke-width="1"/><text xml:space="preserve" x="188.25" y="337.133" font-family="Calibri" font-size="7.5" fill="rgb(0,0,0)" text-anchor="middle">7.6</text>
<polygon points="198.25,324.3 218.25,324.3 218.25,344.3 198.25,344.3" fill="rgb(235,224,199)"/><polygon points="198.25,324.3 218.25,324.3 218.25,344.3 198.25,344.3" fill="none" stroke="black" stroke-width="1"/><text xml:space="preserve" x="208.25" y="337.133" font-family="Calibri" font-size="7.5" fill="rgb(0,0,0)" text-anchor="middle">9.2</text>
<polygon points="218.25,324.3 238.25,324.3 238.25,344.3 218.25,344.3" fill="rgb(229,209,166)"/><polygon points="218.25,324.3 238.25,324.3 238.25,344.3 218.25,344.3" fill="none" stroke="black" stroke-width="1"/><text xml:space="preserve" x="228.25" y="337.133" font-family="Calibri" font-size="7.5" fill="rgb(0,0,0)" text-anchor="middle">10.8</text>
<polygon points="238.25,324.3 258.25,324.3 258.25,344.3 238.25,344.3" fill="rgb(222,194,133)"/><polygon points="238.25,324.3 258.25,324.3 258.25,344.3 238.25,344.3" fill="none" stroke="black" stroke-width="1"/><text xml:space="preserve" x="248.25" y="337.133" font-family="Calibri" font-size="7.5" fill="rgb(0,0,0)" text-anchor="middle">12.4</text>
<polygon points="258.25,324.3 278.25,324.3 278.25,344.3 258.25,344.3" fill="rgb(216,179,101)"/><polygon points="258.25,324.3 278.25,324.3 278.25,344.3 258.25,344.3" fill="none" stroke="black" stroke-width="1"/><text xml:space="preserve" x="268.25" y="337.133" font-family="Calibri" font-size="7.5" fill="rgb(0,0,0)" text-anchor="middle">14.0</text>
<text xml:space="preserve" x="168.25" y="376.633" font-family="Calibri" font-size="6" text-anchor="middle">marklevel</text>
<polygon points="58.25,384.3 78.25,384.3 78.25,404.3 58.25,404.3" fill="rgb(0,0,255)"/><polygon points="58.25,384.3 78.25,384.3 78.25,404.3 58.25,404.3" fill="none" stroke="black" stroke-width="1"/><text xml:space="preserve" x="68.25" y="397.133" font-family="Calibri" font-size="7.5" fill="rgb(255,255,255)" text-anchor="middle">-2.0</text>
<polygon points="78.25,384.3 98.25,384.3 98.25,404.3 78.25,404.3" fill="rgb(50,50,255)"/><polygon points="78.25,384.3 98.25,384.3 98.25,404.3 78.25,404.3" fill="none" stroke="black" stroke-width="1"/><text xml:space="preserve" x="88.25" y="397.133" font-family="Calibri" font-size="7.5" fill="rgb(255,255,255)" text-anchor="middle">-1.6</text>
<polygon points="98.25,384.3 118.25,384.3 118.25,404.3 98.25,404.3" fill="rgb(102,102,255)"/><polygon points="98.25,384.3 118.25,384.3 118.25,404.3 98.25,404.3" fill="none" stroke="black" stroke-width="1"/><text xml:space="preserve" x="108.25" y="397.133" font-family="Calibri" font-size="7.5" fill="rgb(255,255,255)" text-anchor="middle">-1.2</text>
<polygon points="118.25,384.3 138.25,384.3 138.25,404.3 118.25,404.3" fill="rgb(153,153,255)"/><polygon points="118.25,384.3 138.25,384.3 138.25,404.3 118.25,404.3" fill="none" stroke="black" stroke-width="1"/><text xml:space="preserve" x="128.25" y="397.133" font-family="Calibri" font-size="7.5" fill="rgb(0,0,0)" text-anchor="middle">-0.8</text>
<polygon points="138.25,384.3 158.25,384.3 158.25,404.3 138.25,404.3" fill="rgb(204,204,255)"/><polygon points="138.25,384.3 158.25,384.3 158.25,404.3 138.25,404.3" fill="none" stroke="black" stroke-width="1"/><text xml:space="preserve" x="148.25" y="397.133" font-family="Calibri" font-size="7.5" fill="rgb(0,0,0)" text-anchor="middle">-0.4</text>
<polygon points="158.25,384.3 178.25,384.3 178.25,404.3 158.25,404.3" fill="rgb(255,255,255)"/><polygon points="158.25,384.3 178.25,384.3 178.25,404.3 158.25,404.3" fill="none" stroke="black" stroke-width="1"/><text xml:space="preserve" x="168.25" y="397.133" font-family="Calibri" font-size="7.5" fill="rgb(0,0,0)" text-anchor="middle">0.0</text>
<polygon points="178.25,384.3 198.25,384.3 198.25,404.3 178.25,404.3" fill="rgb(255,204,204)"/><polygon points="178.25,384.3 198.25,384.3 198.25,404.3 178.25,404.3" fill="none" stroke="black" stroke-width="1"/><text xml:space="preserve" x="188.25" y="397.133" font-family="Calibri" font-size="7.5" fill="rgb(0,0,0)" text-anchor="middle">0.4</text>
<polygon points="198.25,384.3 218.25,384.3 218.25,404.3 198.25,404.3" fill="rgb(255,153,153)"/><polygon points="198.25,384.3 218.25,384.3 218.25,404.3 198.25,404.3" fill="none" stroke="black" stroke-width="1"/><text xml:space="preserve" x="208.25" y="397.133" font-family="Calibri" font-size="7.5" fill="rgb(0,0,0)" text-anchor="middle">0.8</text>
<polygon points="218.25,384.3 238.25,384.3 238.25,404.3 218.25,404.3" fill="rgb(255,102,102)"/><polygon points="218.25,384.3 238.25,384.3 238.25,404.3 218.25,404.3" fill="none" stroke="black" stroke-width="1"/><text xml:space="preserve" x="228.25" y="397.133" font-family="Calibri" font-size="7.5" fill="rgb(0,0,0)" text-anchor="middle">1.2</text>
<polygon points="238.25,384.3 258.25,384.3 258.25,404.3 238.25,404.3" fill="rgb(255,50,50)"/><polygon points="238.25,384.3 258.25,384.3 258.25,404.3 238.25,404.3" fill="none" stroke="black" stroke-width="1"/><text xml:space="preserve" x="248.25" y="397.133" font-family="Calibri" font-size="7.5" fill="rgb(255,255,255)" text-anchor="middle">1.6</text>
<polygon points="258.25,384.3 278.25,384.3 278.25,404.3 258.25,404.3" fill="rgb(255,0,0)"/><polygon points="258.25,384.3 278.25,384.3 278.25,404.3 258.25,404.3" fill="none" stroke="black" stroke-width="1"/><text xml:space="preserve" x="268.25" y="397.133" font-family="Calibri" font-size="7.5" fill="rgb(255,255,255)" text-anchor="middle">2.0</text>
</svg>
