<?xml version="1.0" standalone="no"?><!DOCTYPE svg PUBLIC "-//W3C//DTD SVG 1.1//EN" "http://www.w3.org/Graphics/SVG/1.1/DTD/svg11.dtd">
<svg width="398.9" height="430.3" version="1.1" xmlns="http://www.w3.org/2000/svg">
<text xml:space="preserve" x="154.9" y="217.633" font-family="Calibri" font-size="6" text-anchor="end">2610529C04Rik</text>
<text xml:space="preserve" x="154.9" y="223.633" font-family="Calibri" font-size="6" text-anchor="end">Pgk1</text>
<text xml:space="preserve" x="154.9" y="229.633" font-family="Calibri" font-size="6" text-anchor="end">Dbr1</text>
<text xml:space="preserve" x="154.9" y="235.633" font-family="Calibri" font-size="6" text-anchor="end">Utp14a</text>
<text xml:space="preserve" x="154.9" y="241.633" font-family="Calibri" font-size="6" text-anchor="end">Wdr45</text>
<text xml:space="preserve" x="154.9" y="247.633" font-family="Calibri" font-size="6" text-anchor="end">Yipf4</text>
<text xml:space="preserve" x="154.9" y="253.633" font-family="Calibri" font-size="6" text-anchor="end">Idh3g</text>
<text xml:space="preserve" x="154.9" y="259.633" font-family="Calibri" font-size="6" text-anchor="end">Blm</text>
<text xml:space="preserve" x="154.9" y="265.633" font-family="Calibri" font-size="6" text-anchor="end">Mettl5</text>
<text xml:space="preserve" x="154.9" y="271.633" font-family="Calibri" font-size="6" text-anchor="end">Pola1</text>
<text xml:space="preserve" x="154.9" y="277.633" font-family="Calibri" font-size="6" text-anchor="end">Rest</text>
<text xml:space="preserve" x="154.9" y="283.633" font-family="Calibri" font-size="6" text-anchor="end">Rbm3</text>
<text xml:space="preserve" x="154.9" y="289.633" font-family="Calibri" font-size="6" text-anchor="end">BC068171</text>
<text xml:space="preserve" x="165.233" y="208.3" font-family="Calibri" font-size="6" transform="rotate(270 165.233 208.3)">ips</text>
<text xml:space="preserve" x="173.233" y="208.3" font-family="Calibri" font-size="6" transform="rotate(270 173.233 208.3)">pips</text>
<text xml:space="preserve" x="181.233" y="208.3" font-family="Calibri" font-size="6" transform="rotate(270 181.233 208.3)">mef</text>
<text xml:space="preserve" x="198.233" y="208.3" font-family="Calibri" font-size="6" transform="rotate(270 198.233 208.3)">ips_H3K4me3iPS</text>
<text xml:space="preserve" x="204.233" y="208.3" font-family="Calibri" font-size="6" transform="rotate(270 204.233 208.3)">ips_H3K9aciPS</text>
<text xml:space="preserve" x="210.233" y="208.3" font-family="Calibri" font-size="6" transform="rotate(270 210.233 208.3)">ips_H3K14aciPS</text>
<text xml:space="preserve" x="216.233" y="208.3" font-family="Calibri" font-size="6" transform="rotate(270 216.233 208.3)">ips_H3K18aciPS</text>
<text xml:space="preserve" x="222.233" y="208.3" font-family="Calibri" font-size="6" transform="rotate(270 222.233 208.3)">ips_H3K79me2iPS</text>
<text xml:space="preserve" x="228.233" y="208.3" font-family="Calibri" font-size="6" transform="rotate(270 228.233 208.3)">ips_H3K9me2iPS</text>
<text xml:space="preserve" x="234.233" y="208.3" font-family="Calibri" font-size="6" transform="rotate(270 234.233 208.3)">ips_H3K9me3iPS</text>
<text xml:space="preserve" x="240.233" y="208.3" font-family="Calibri" font-size="6" transform="rotate(270 240.233 208.3)">ips_H3K27me3iPS</text>
<text xml:space="preserve" x="256.233" y="208.3" font-family="Calibri" font-size="6" transform="rotate(270 256.233 208.3)">pips_H3K4me3pips</text>
<text xml:space="preserve" x="262.233" y="208.3" font-family="Calibri" font-size="6" transform="rotate(270 262.233 208.3)">pips_H3K9acpips</text>
<text xml:space="preserve" x="268.233" y="208.3" font-family="Calibri" font-size="6" transform="rotate(270 268.233 208.3)">pips_H3K14acpips</text>
<text xml:space="preserve" x="274.233" y="208.3" font-family="Calibri" font-size="6" transform="rotate(270 274.233 208.3)">pips_H3K18acpips</text>
<text xml:space="preserve" x="280.233" y="208.3" font-family="Calibri" font-size="6" transform="rotate(270 280.233 208.3)">pips_H3K79me2pips</text>
<text xml:space="preserve" x="286.233" y="208.3" font-family="Calibri" font-size="6" transform="rotate(270 286.233 208.3)">pips_H3K9me2pips</text>
<text xml:space="preserve" x="292.233" y="208.3" font-family="Calibri" font-size="6" transform="rotate(270 292.233 208.3)">pips_H3K9me3pips</text>
<text xml:space="preserve" x="298.233" y="208.3" font-family="Calibri" font-size="6" transform="rotate(270 298.233 208.3)">pips_H3K27me3pips</text>
<text xml:space="preserve" x="314.233" y="208.3" font-family="Calibri" font-size="6" transform="rotate(270 314.233 208.3)">mef_H3K4me3mef</text>
<text xml:space="preserve" x="320.233" y="208.3" font-family="Calibri" font-size="6" transform="rotate(270 320.233 208.3)">mef_H3K9acmef</text>
<text xml:space="preserve" x="326.233" y="208.3" font-family="Calibri" font-size="6" transform="rotate(270 326.233 208.3)">mef_H3K14acmef</text>
<text xml:space="preserve" x="332.233" y="208.3" font-family="Calibri" font-size="6" transform="rotate(270 332.233 208.3)">mef_H3K18acmef</text>
<text xml:space="preserve" x="338.233" y="208.3" font-family="Calibri" font-size="6" transform="rotate(270 338.233 208.3)">mef_H3K79me2mef</text>
<text xml:space="preserve" x="344.233" y="208.3" font-family="Calibri" font-size="6" transform="rotate(270 344.233 208.3)">mef_H3K9me2mef</text>
<text xml:space="preserve" x="350.233" y="208.3" font-family="Calibri" font-size="6" transform="rotate(270 350.233 208.3)">mef_H3K9me3mef</text>
<text xml:space="preserve" x="356.233" y="208.3" font-family="Calibri" font-size="6" transform="rotate(270 356.233 208.3)">mef_H3K27me3mef</text>
<polygon points="158.9,212.3 166.9,212.3 166.9,218.3 158.9,218.3" fill="rgb(222,235,234)"/><text xml:space="preserve" x="162.9" y="218.133" font-family="Calibri" font-size="7.5" fill="rgb(0,0,0)" text-anchor="middle">6</text>
<polygon points="166.9,212.3 174.9,212.3 174.9,218.3 166.9,218.3" fill="rgb(216,179,101)"/><text xml:space="preserve" x="170.9" y="218.133" font-family="Calibri" font-size="7.5" fill="rgb(0,0,0)" text-anchor="middle">15</text>
<polygon points="174.9,212.3 182.9,212.3 182.9,218.3 174.9,218.3" fill="rgb(220,188,121)"/><text xml:space="preserve" x="178.9" y="218.133" font-family="Calibri" font-size="7.5" fill="rgb(0,0,0)" text-anchor="middle">13</text>
<polygon points="192.9,212.3 198.9,212.3 198.9,218.3 192.9,218.3" fill="rgb(255,63,63)"/>
<polygon points="198.9,212.3 204.9,212.3 204.9,218.3 198.9,218.3" fill="rgb(255,119,119)"/>
<polygon points="204.9,212.3 210.9,212.3 210.9,218.3 204.9,218.3" fill="rgb(255,174,174)"/>
<polygon points="210.9,212.3 216.9,212.3 216.9,218.3 210.9,218.3" fill="rgb(255,134,134)"/>
<polygon points="216.9,212.3 222.9,212.3 222.9,218.3 216.9,218.3" fill="rgb(255,17,17)"/>
<polygon points="222.9,212.3 228.9,212.3 228.9,218.3 222.9,218.3" fill="rgb(222,222,255)"/>
<polygon points="228.9,212.3 234.9,212.3 234.9,218.3 228.9,218.3" fill="rgb(206,206,255)"/>
<polygon points="234.9,212.3 240.9,212.3 240.9,218.3 234.9,218.3" fill="rgb(191,191,255)"/>
<polygon points="250.9,212.3 256.9,212.3 256.9,218.3 250.9,218.3" fill="rgb(255,206,206)"/>
<polygon points="256.9,212.3 262.9,212.3 262.9,218.3 256.9,218.3" fill="rgb(255,227,227)"/>
<polygon points="262.9,212.3 268.9,212.3 268.9,218.3 262.9,218.3" fill="rgb(192,192,255)"/>
<polygon points="268.9,212.3 274.9,212.3 274.9,218.3 268.9,218.3" fill="rgb(229,229,255)"/>
<polygon points="274.9,212.3 280.9,212.3 280.9,218.3 274.9,218.3" fill="rgb(255,124,124)"/>
<polygon points="280.9,212.3 286.9,212.3 286.9,218.3 280.9,218.3" fill="rgb(234,234,255)"/>
<polygon points="286.9,212.3 292.9,212.3 292.9,218.3 286.9,218.3" fill="rgb(253,253,255)"/>
<polygon points="292.9,212.3 298.9,212.3 298.9,218.3 292.9,218.3" fill="rgb(255,219,219)"/>
<polygon points="308.9,212.3 314.9,212.3 314.9,218.3 308.9,218.3" fill="rgb(255,108,108)"/>
<polygon points="314.9,212.3 320.9,212.3 320.9,218.3 314.9,218.3" fill="rgb(255,212,212)"/>
<polygon points="320.9,212.3 326.9,212.3 326.9,218.3 320.9,218.3" fill="rgb(255,113,113)"/>
<polygon points="326.9,212.3 332.9,212.3 332.9,218.3 326.9,218.3" fill="rgb(255,148,148)"/>
<polygon points="332.9,212.3 338.9,212.3 338.9,218.3 332.9,218.3" fill="rgb(255,85,85)"/>
<polygon points="338.9,212.3 344.9,212.3 344.9,218.3 338.9,218.3" fill="rgb(218,218,255)"/>
<polygon points="344.9,212.3 350.9,212.3 350.9,218.3 344.9,218.3" fill="rgb(254,254,255)"/>
<polygon points="350.9,212.3 356.9,212.3 356.9,218.3 350.9,218.3" fill="rgb(254,251,251)"/>
<polygon points="158.9,218.3 166.9,218.3 166.9,224.3 158.9,224.3" fill="rgb(222,235,234)"/><text xml:space="preserve" x="162.9" y="224.133" font-family="Calibri" font-size="7.5" fill="rgb(0,0,0)" text-anchor="middle">6</text>
<polygon points="166.9,218.3 174.9,218.3 174.9,224.3 166.9,224.3" fill="rgb(216,179,101)"/><text xml:space="preserve" x="170.9" y="224.133" font-family="Calibri" font-size="7.5" fill="rgb(0,0,0)" text-anchor="middle">15</text>
<polygon points="174.9,218.3 182.9,218.3 182.9,224.3 174.9,224.3" fill="rgb(220,188,121)"/><text xml:space="preserve" x="178.9" y="224.133" font-family="Calibri" font-size="7.5" fill="rgb(0,0,0)" text-anchor="middle">13</text>
<polygon points="192.9,218.3 198.9,218.3 198.9,224.3 192.9,224.3" fill="rgb(255,93,93)"/>
<polygon points="198.9,218.3 204.9,218.3 204.9,224.3 198.9,224.3" fill="rgb(255,132,132)"/>
<polygon points="204.9,218.3 210.9,218.3 210.9,224.3 204.9,224.3" fill="rgb(255,147,147)"/>
<polygon points="210.9,218.3 216.9,218.3 216.9,224.3 210.9,224.3" fill="rgb(255,147,147)"/>
<polygon points="216.9,218.3 222.9,218.3 222.9,224.3 216.9,224.3" fill="rgb(255,93,93)"/>
<polygon points="222.9,218.3 228.9,218.3 228.9,224.3 222.9,224.3" fill="rgb(167,167,255)"/>
<polygon points="228.9,218.3 234.9,218.3 234.9,224.3 228.9,224.3" fill="rgb(201,201,255)"/>
<polygon points="234.9,218.3 240.9,218.3 240.9,224.3 234.9,224.3" fill="rgb(185,185,255)"/>
<polygon points="250.9,218.3 256.9,218.3 256.9,224.3 250.9,224.3" fill="rgb(255,217,217)"/>
<polygon points="256.9,218.3 262.9,218.3 262.9,224.3 256.9,224.3" fill="rgb(255,203,203)"/>
<polygon points="262.9,218.3 268.9,218.3 268.9,224.3 262.9,224.3" fill="rgb(184,184,255)"/>
<polygon points="268.9,218.3 274.9,218.3 274.9,224.3 268.9,224.3" fill="rgb(254,228,228)"/>
<polygon points="274.9,218.3 280.9,218.3 280.9,224.3 274.9,224.3" fill="rgb(255,156,156)"/>
<polygon points="280.9,218.3 286.9,218.3 286.9,224.3 280.9,224.3" fill="rgb(255,242,242)"/>
<polygon points="286.9,218.3 292.9,218.3 292.9,224.3 286.9,224.3" fill="rgb(254,236,236)"/>
<polygon points="292.9,218.3 298.9,218.3 298.9,224.3 292.9,224.3" fill="rgb(255,149,149)"/>
<polygon points="308.9,218.3 314.9,218.3 314.9,224.3 308.9,224.3" fill="rgb(255,155,155)"/>
<polygon points="314.9,218.3 320.9,218.3 320.9,224.3 314.9,224.3" fill="rgb(255,185,185)"/>
<polygon points="320.9,218.3 326.9,218.3 326.9,224.3 320.9,224.3" fill="rgb(255,174,174)"/>
<polygon points="326.9,218.3 332.9,218.3 332.9,224.3 326.9,224.3" fill="rgb(255,95,95)"/>
<polygon points="332.9,218.3 338.9,218.3 338.9,224.3 332.9,224.3" fill="rgb(255,126,126)"/>
<polygon points="338.9,218.3 344.9,218.3 344.9,224.3 338.9,224.3" fill="rgb(193,193,255)"/>
<polygon points="344.9,218.3 350.9,218.3 350.9,224.3 344.9,224.3" fill="rgb(186,186,255)"/>
<polygon points="350.9,218.3 356.9,218.3 356.9,224.3 350.9,224.3" fill="rgb(255,213,213)"/>
<polygon points="158.9,224.3 166.9,224.3 166.9,230.3 158.9,230.3" fill="rgb(222,235,234)"/><text xml:space="preserve" x="162.9" y="230.133" font-family="Calibri" font-size="7.5" fill="rgb(0,0,0)" text-anchor="middle">6</text>
<polygon points="166.9,224.3 174.9,224.3 174.9,230.3 166.9,230.3" fill="rgb(216,179,101)"/><text xml:space="preserve" x="170.9" y="230.133" font-family="Calibri" font-size="7.5" fill="rgb(0,0,0)" text-anchor="middle">15</text>
<polygon points="174.9,224.3 182.9,224.3 182.9,230.3 174.9,230.3" fill="rgb(216,179,101)"/><text xml:space="preserve" x="178.9" y="230.133" font-family="Calibri" font-size="7.5" fill="rgb(0,0,0)" text-anchor="middle">15</text>
<polygon points="192.9,224.3 198.9,224.3 198.9,230.3 192.9,230.3" fill="rgb(255,116,116)"/>
<polygon points="198.9,224.3 204.9,224.3 204.9,230.3 198.9,230.3" fill="rgb(255,103,103)"/>
<polygon points="204.9,224.3 210.9,224.3 210.9,230.3 204.9,230.3" fill="rgb(255,240,240)"/>
<polygon points="210.9,224.3 216.9,224.3 216.9,230.3 210.9,230.3" fill="rgb(243,243,255)"/>
<polygon points="216.9,224.3 222.9,224.3 222.9,230.3 216.9,230.3" fill="rgb(255,73,73)"/>
<polygon points="222.9,224.3 228.9,224.3 228.9,230.3 222.9,230.3" fill="rgb(182,182,255)"/>
<polygon points="228.9,224.3 234.9,224.3 234.9,230.3 228.9,230.3" fill="rgb(159,159,255)"/>
<polygon points="234.9,224.3 240.9,224.3 240.9,230.3 234.9,230.3" fill="rgb(194,194,255)"/>
<polygon points="250.9,224.3 256.9,224.3 256.9,230.3 250.9,230.3" fill="rgb(255,229,229)"/>
<polygon points="256.9,224.3 262.9,224.3 262.9,230.3 256.9,230.3" fill="rgb(254,206,206)"/>
<polygon points="262.9,224.3 268.9,224.3 268.9,230.3 262.9,230.3" fill="rgb(248,248,255)"/>
<polygon points="268.9,224.3 274.9,224.3 274.9,230.3 268.9,230.3" fill="rgb(219,219,255)"/>
<polygon points="274.9,224.3 280.9,224.3 280.9,230.3 274.9,230.3" fill="rgb(255,155,155)"/>
<polygon points="280.9,224.3 286.9,224.3 286.9,230.3 280.9,230.3" fill="rgb(254,254,255)"/>
<polygon points="286.9,224.3 292.9,224.3 292.9,230.3 286.9,230.3" fill="rgb(233,233,255)"/>
<polygon points="292.9,224.3 298.9,224.3 298.9,230.3 292.9,230.3" fill="rgb(188,188,255)"/>
<polygon points="308.9,224.3 314.9,224.3 314.9,230.3 308.9,230.3" fill="rgb(255,144,144)"/>
<polygon points="314.9,224.3 320.9,224.3 320.9,230.3 314.9,230.3" fill="rgb(255,179,179)"/>
<polygon points="320.9,224.3 326.9,224.3 326.9,230.3 320.9,230.3" fill="rgb(202,202,255)"/>
<polygon points="326.9,224.3 332.9,224.3 332.9,230.3 326.9,230.3" fill="rgb(209,209,255)"/>
<polygon points="332.9,224.3 338.9,224.3 338.9,230.3 332.9,230.3" fill="rgb(255,172,172)"/>
<polygon points="338.9,224.3 344.9,224.3 344.9,230.3 338.9,230.3" fill="rgb(247,247,255)"/>
<polygon points="344.9,224.3 350.9,224.3 350.9,230.3 344.9,230.3" fill="rgb(240,240,255)"/>
<polygon points="350.9,224.3 356.9,224.3 356.9,230.3 350.9,230.3" fill="rgb(255,238,238)"/>
<polygon points="158.9,230.3 166.9,230.3 166.9,236.3 158.9,236.3" fill="rgb(222,235,234)"/><text xml:space="preserve" x="162.9" y="236.133" font-family="Calibri" font-size="7.5" fill="rgb(0,0,0)" text-anchor="middle">6</text>
<polygon points="166.9,230.3 174.9,230.3 174.9,236.3 166.9,236.3" fill="rgb(216,179,101)"/><text xml:space="preserve" x="170.9" y="236.133" font-family="Calibri" font-size="7.5" fill="rgb(0,0,0)" text-anchor="middle">15</text>
<polygon points="174.9,230.3 182.9,230.3 182.9,236.3 174.9,236.3" fill="rgb(216,179,101)"/><text xml:space="preserve" x="178.9" y="236.133" font-family="Calibri" font-size="7.5" fill="rgb(0,0,0)" text-anchor="middle">15</text>
<polygon points="192.9,230.3 198.9,230.3 198.9,236.3 192.9,236.3" fill="rgb(255,36,36)"/>
<polygon points="198.9,230.3 204.9,230.3 204.9,236.3 198.9,236.3" fill="rgb(255,57,57)"/>
<polygon points="204.9,230.3 210.9,230.3 210.9,236.3 204.9,236.3" fill="rgb(255,137,137)"/>
<polygon points="210.9,230.3 216.9,230.3 216.9,236.3 210.9,236.3" fill="rgb(255,123,123)"/>
<polygon points="216.9,230.3 222.9,230.3 222.9,236.3 216.9,236.3" fill="rgb(255,18,18)"/>
<polygon points="222.9,230.3 228.9,230.3 228.9,236.3 222.9,236.3" fill="rgb(216,216,255)"/>
<polygon points="228.9,230.3 234.9,230.3 234.9,236.3 228.9,236.3" fill="rgb(255,253,253)"/>
<polygon points="234.9,230.3 240.9,230.3 240.9,236.3 234.9,236.3" fill="rgb(186,186,255)"/>
<polygon points="250.9,230.3 256.9,230.3 256.9,236.3 250.9,236.3" fill="rgb(255,197,197)"/>
<polygon points="256.9,230.3 262.9,230.3 262.9,236.3 256.9,236.3" fill="rgb(255,211,211)"/>
<polygon points="262.9,230.3 268.9,230.3 268.9,236.3 262.9,236.3" fill="rgb(136,136,255)"/>
<polygon points="268.9,230.3 274.9,230.3 274.9,236.3 268.9,236.3" fill="rgb(224,224,255)"/>
<polygon points="274.9,230.3 280.9,230.3 280.9,236.3 274.9,236.3" fill="rgb(255,198,198)"/>
<polygon points="280.9,230.3 286.9,230.3 286.9,236.3 280.9,236.3" fill="rgb(255,242,242)"/>
<polygon points="286.9,230.3 292.9,230.3 292.9,236.3 286.9,236.3" fill="rgb(255,170,170)"/>
<polygon points="292.9,230.3 298.9,230.3 298.9,236.3 292.9,236.3" fill="rgb(255,205,205)"/>
<polygon points="308.9,230.3 314.9,230.3 314.9,236.3 308.9,236.3" fill="rgb(255,121,121)"/>
<polygon points="314.9,230.3 320.9,230.3 320.9,236.3 314.9,236.3" fill="rgb(255,234,234)"/>
<polygon points="320.9,230.3 326.9,230.3 326.9,236.3 320.9,236.3" fill="rgb(231,231,255)"/>
<polygon points="326.9,230.3 332.9,230.3 332.9,236.3 326.9,236.3" fill="rgb(255,231,231)"/>
<polygon points="332.9,230.3 338.9,230.3 338.9,236.3 332.9,236.3" fill="rgb(255,214,214)"/>
<polygon points="338.9,230.3 344.9,230.3 344.9,236.3 338.9,236.3" fill="rgb(203,203,255)"/>
<polygon points="344.9,230.3 350.9,230.3 350.9,236.3 344.9,236.3" fill="rgb(245,245,255)"/>
<polygon points="350.9,230.3 356.9,230.3 356.9,236.3 350.9,236.3" fill="rgb(255,166,166)"/>
<polygon points="158.9,236.3 166.9,236.3 166.9,242.3 158.9,242.3" fill="rgb(222,235,234)"/><text xml:space="preserve" x="162.9" y="242.133" font-family="Calibri" font-size="7.5" fill="rgb(0,0,0)" text-anchor="middle">6</text>
<polygon points="166.9,236.3 174.9,236.3 174.9,242.3 166.9,242.3" fill="rgb(216,179,101)"/><text xml:space="preserve" x="170.9" y="242.133" font-family="Calibri" font-size="7.5" fill="rgb(0,0,0)" text-anchor="middle">15</text>
<polygon points="174.9,236.3 182.9,236.3 182.9,242.3 174.9,242.3" fill="rgb(216,179,101)"/><text xml:space="preserve" x="178.9" y="242.133" font-family="Calibri" font-size="7.5" fill="rgb(0,0,0)" text-anchor="middle">15</text>
<polygon points="192.9,236.3 198.9,236.3 198.9,242.3 192.9,242.3" fill="rgb(254,137,137)"/>
<polygon points="198.9,236.3 204.9,236.3 204.9,242.3 198.9,242.3" fill="rgb(255,95,95)"/>
<polygon points="204.9,236.3 210.9,236.3 210.9,242.3 204.9,242.3" fill="rgb(255,203,203)"/>
<polygon points="210.9,236.3 216.9,236.3 216.9,242.3 210.9,242.3" fill="rgb(255,184,184)"/>
<polygon points="216.9,236.3 222.9,236.3 222.9,242.3 216.9,242.3" fill="rgb(255,178,178)"/>
<polygon points="222.9,236.3 228.9,236.3 228.9,242.3 222.9,242.3" fill="rgb(143,143,255)"/>
<polygon points="228.9,236.3 234.9,236.3 234.9,242.3 228.9,242.3" fill="rgb(90,90,255)"/>
<polygon points="234.9,236.3 240.9,236.3 240.9,242.3 234.9,242.3" fill="rgb(131,131,255)"/>
<polygon points="250.9,236.3 256.9,236.3 256.9,242.3 250.9,242.3" fill="rgb(255,244,244)"/>
<polygon points="256.9,236.3 262.9,236.3 262.9,242.3 256.9,242.3" fill="rgb(255,199,199)"/>
<polygon points="262.9,236.3 268.9,236.3 268.9,242.3 262.9,242.3" fill="rgb(255,242,242)"/>
<polygon points="268.9,236.3 274.9,236.3 274.9,242.3 268.9,242.3" fill="rgb(255,220,220)"/>
<polygon points="274.9,236.3 280.9,236.3 280.9,242.3 274.9,242.3" fill="rgb(255,220,220)"/>
<polygon points="280.9,236.3 286.9,236.3 286.9,242.3 280.9,242.3" fill="rgb(244,244,255)"/>
<polygon points="286.9,236.3 292.9,236.3 292.9,242.3 286.9,242.3" fill="rgb(255,149,149)"/>
<polygon points="292.9,236.3 298.9,236.3 298.9,242.3 292.9,242.3" fill="rgb(178,178,255)"/>
<polygon points="308.9,236.3 314.9,236.3 314.9,242.3 308.9,242.3" fill="rgb(255,199,199)"/>
<polygon points="314.9,236.3 320.9,236.3 320.9,242.3 314.9,242.3" fill="rgb(254,254,254)"/>
<polygon points="320.9,236.3 326.9,236.3 326.9,242.3 320.9,242.3" fill="rgb(217,217,255)"/>
<polygon points="326.9,236.3 332.9,236.3 332.9,242.3 326.9,242.3" fill="rgb(255,250,250)"/>
<polygon points="332.9,236.3 338.9,236.3 338.9,242.3 332.9,242.3" fill="rgb(255,230,230)"/>
<polygon points="338.9,236.3 344.9,236.3 344.9,242.3 338.9,242.3" fill="rgb(254,254,255)"/>
<polygon points="344.9,236.3 350.9,236.3 350.9,242.3 344.9,242.3" fill="rgb(155,155,255)"/>
<polygon points="350.9,236.3 356.9,236.3 356.9,242.3 350.9,242.3" fill="rgb(241,241,255)"/>
<polygon points="158.9,242.3 166.9,242.3 166.9,248.3 158.9,248.3" fill="rgb(222,235,234)"/><text xml:space="preserve" x="162.9" y="248.133" font-family="Calibri" font-size="7.5" fill="rgb(0,0,0)" text-anchor="middle">6</text>
<polygon points="166.9,242.3 174.9,242.3 174.9,248.3 166.9,248.3" fill="rgb(216,179,101)"/><text xml:space="preserve" x="170.9" y="248.133" font-family="Calibri" font-size="7.5" fill="rgb(0,0,0)" text-anchor="middle">15</text>
<polygon points="174.9,242.3 182.9,242.3 182.9,248.3 174.9,248.3" fill="rgb(216,179,101)"/><text xml:space="preserve" x="178.9" y="248.133" font-family="Calibri" font-size="7.5" fill="rgb(0,0,0)" text-anchor="middle">15</text>
<polygon points="192.9,242.3 198.9,242.3 198.9,248.3 192.9,248.3" fill="rgb(255,113,113)"/>
<polygon points="198.9,242.3 204.9,242.3 204.9,248.3 198.9,248.3" fill="rgb(255,79,79)"/>
<polygon points="204.9,242.3 210.9,242.3 210.9,248.3 204.9,248.3" fill="rgb(255,154,154)"/>
<polygon points="210.9,242.3 216.9,242.3 216.9,248.3 210.9,248.3" fill="rgb(255,192,192)"/>
<polygon points="216.9,242.3 222.9,242.3 222.9,248.3 216.9,248.3" fill="rgb(255,99,99)"/>
<polygon points="222.9,242.3 228.9,242.3 228.9,248.3 222.9,248.3" fill="rgb(206,206,255)"/>
<polygon points="228.9,242.3 234.9,242.3 234.9,248.3 228.9,248.3" fill="rgb(183,183,255)"/>
<polygon points="234.9,242.3 240.9,242.3 240.9,248.3 234.9,248.3" fill="rgb(197,197,255)"/>
<polygon points="250.9,242.3 256.9,242.3 256.9,248.3 250.9,248.3" fill="rgb(255,250,250)"/>
<polygon points="256.9,242.3 262.9,242.3 262.9,248.3 256.9,248.3" fill="rgb(241,241,255)"/>
<polygon points="262.9,242.3 268.9,242.3 268.9,248.3 262.9,248.3" fill="rgb(255,201,201)"/>
<polygon points="268.9,242.3 274.9,242.3 274.9,248.3 268.9,248.3" fill="rgb(255,202,202)"/>
<polygon points="274.9,242.3 280.9,242.3 280.9,248.3 274.9,248.3" fill="rgb(255,167,167)"/>
<polygon points="280.9,242.3 286.9,242.3 286.9,248.3 280.9,248.3" fill="rgb(245,245,255)"/>
<polygon points="286.9,242.3 292.9,242.3 292.9,248.3 286.9,248.3" fill="rgb(255,232,232)"/>
<polygon points="292.9,242.3 298.9,242.3 298.9,248.3 292.9,248.3" fill="rgb(255,254,254)"/>
<polygon points="308.9,242.3 314.9,242.3 314.9,248.3 308.9,248.3" fill="rgb(255,192,192)"/>
<polygon points="314.9,242.3 320.9,242.3 320.9,248.3 314.9,248.3" fill="rgb(255,202,202)"/>
<polygon points="320.9,242.3 326.9,242.3 326.9,248.3 320.9,248.3" fill="rgb(180,180,255)"/>
<polygon points="326.9,242.3 332.9,242.3 332.9,248.3 326.9,248.3" fill="rgb(209,209,255)"/>
<polygon points="332.9,242.3 338.9,242.3 338.9,248.3 332.9,248.3" fill="rgb(255,242,242)"/>
<polygon points="338.9,242.3 344.9,242.3 344.9,248.3 338.9,248.3" fill="rgb(255,250,250)"/>
<polygon points="344.9,242.3 350.9,242.3 350.9,248.3 344.9,248.3" fill="rgb(255,141,141)"/>
<polygon points="350.9,242.3 356.9,242.3 356.9,248.3 350.9,248.3" fill="rgb(255,227,227)"/>
<polygon points="158.9,248.3 166.9,248.3 166.9,254.3 158.9,254.3" fill="rgb(222,235,234)"/><text xml:space="preserve" x="162.9" y="254.133" font-family="Calibri" font-size="7.5" fill="rgb(0,0,0)" text-anchor="middle">6</text>
<polygon points="166.9,248.3 174.9,248.3 174.9,254.3 166.9,254.3" fill="rgb(216,179,101)"/><text xml:space="preserve" x="170.9" y="254.133" font-family="Calibri" font-size="7.5" fill="rgb(0,0,0)" text-anchor="middle">15</text>
<polygon points="174.9,248.3 182.9,248.3 182.9,254.3 174.9,254.3" fill="rgb(216,179,101)"/><text xml:space="preserve" x="178.9" y="254.133" font-family="Calibri" font-size="7.5" fill="rgb(0,0,0)" text-anchor="middle">15</text>
<polygon points="192.9,248.3 198.9,248.3 198.9,254.3 192.9,254.3" fill="rgb(255,80,80)"/>
<polygon points="198.9,248.3 204.9,248.3 204.9,254.3 198.9,254.3" fill="rgb(255,88,88)"/>
<polygon points="204.9,248.3 210.9,248.3 210.9,254.3 204.9,254.3" fill="rgb(255,146,146)"/>
<polygon points="210.9,248.3 216.9,248.3 216.9,254.3 210.9,254.3" fill="rgb(255,128,128)"/>
<polygon points="216.9,248.3 222.9,248.3 222.9,254.3 216.9,254.3" fill="rgb(255,0,0)"/>
<polygon points="222.9,248.3 228.9,248.3 228.9,254.3 222.9,254.3" fill="rgb(255,200,200)"/>
<polygon points="228.9,248.3 234.9,248.3 234.9,254.3 228.9,254.3" fill="rgb(173,173,255)"/>
<polygon points="234.9,248.3 240.9,248.3 240.9,254.3 234.9,254.3" fill="rgb(173,173,255)"/>
<polygon points="250.9,248.3 256.9,248.3 256.9,254.3 250.9,254.3" fill="rgb(255,218,218)"/>
<polygon points="256.9,248.3 262.9,248.3 262.9,254.3 256.9,254.3" fill="rgb(255,216,216)"/>
<polygon points="262.9,248.3 268.9,248.3 268.9,254.3 262.9,254.3" fill="rgb(123,123,255)"/>
<polygon points="268.9,248.3 274.9,248.3 274.9,254.3 268.9,254.3" fill="rgb(235,235,255)"/>
<polygon points="274.9,248.3 280.9,248.3 280.9,254.3 274.9,254.3" fill="rgb(255,163,163)"/>
<polygon points="280.9,248.3 286.9,248.3 286.9,254.3 280.9,254.3" fill="rgb(204,204,255)"/>
<polygon points="286.9,248.3 292.9,248.3 292.9,254.3 286.9,254.3" fill="rgb(255,200,200)"/>
<polygon points="292.9,248.3 298.9,248.3 298.9,254.3 292.9,254.3" fill="rgb(255,116,116)"/>
<polygon points="308.9,248.3 314.9,248.3 314.9,254.3 308.9,254.3" fill="rgb(255,125,125)"/>
<polygon points="314.9,248.3 320.9,248.3 320.9,254.3 314.9,254.3" fill="rgb(254,227,227)"/>
<polygon points="320.9,248.3 326.9,248.3 326.9,254.3 320.9,254.3" fill="rgb(255,213,213)"/>
<polygon points="326.9,248.3 332.9,248.3 332.9,254.3 326.9,254.3" fill="rgb(255,197,197)"/>
<polygon points="332.9,248.3 338.9,248.3 338.9,254.3 332.9,254.3" fill="rgb(255,162,162)"/>
<polygon points="338.9,248.3 344.9,248.3 344.9,254.3 338.9,254.3" fill="rgb(255,169,169)"/>
<polygon points="344.9,248.3 350.9,248.3 350.9,254.3 344.9,254.3" fill="rgb(232,232,255)"/>
<polygon points="350.9,248.3 356.9,248.3 356.9,254.3 350.9,254.3" fill="rgb(255,207,207)"/>
<polygon points="158.9,254.3 166.9,254.3 166.9,260.3 158.9,260.3" fill="rgb(222,235,234)"/><text xml:space="preserve" x="162.9" y="260.133" font-family="Calibri" font-size="7.5" fill="rgb(0,0,0)" text-anchor="middle">6</text>
<polygon points="166.9,254.3 174.9,254.3 174.9,260.3 166.9,260.3" fill="rgb(216,179,101)"/><text xml:space="preserve" x="170.9" y="260.133" font-family="Calibri" font-size="7.5" fill="rgb(0,0,0)" text-anchor="middle">15</text>
<polygon points="174.9,254.3 182.9,254.3 182.9,260.3 174.9,260.3" fill="rgb(216,179,101)"/><text xml:space="preserve" x="178.9" y="260.133" font-family="Calibri" font-size="7.5" fill="rgb(0,0,0)" text-anchor="middle">15</text>
<polygon points="192.9,254.3 198.9,254.3 198.9,260.3 192.9,260.3" fill="rgb(255,119,119)"/>
<polygon points="198.9,254.3 204.9,254.3 204.9,260.3 198.9,260.3" fill="rgb(255,65,65)"/>
<polygon points="204.9,254.3 210.9,254.3 210.9,260.3 204.9,260.3" fill="rgb(255,64,64)"/>
<polygon points="210.9,254.3 216.9,254.3 216.9,260.3 210.9,260.3" fill="rgb(255,26,26)"/>
<polygon points="216.9,254.3 222.9,254.3 222.9,260.3 216.9,260.3" fill="rgb(255,65,65)"/>
<polygon points="222.9,254.3 228.9,254.3 228.9,260.3 222.9,260.3" fill="rgb(255,241,241)"/>
<polygon points="228.9,254.3 234.9,254.3 234.9,260.3 228.9,260.3" fill="rgb(175,175,255)"/>
<polygon points="234.9,254.3 240.9,254.3 240.9,260.3 234.9,260.3" fill="rgb(156,156,255)"/>
<polygon points="250.9,254.3 256.9,254.3 256.9,260.3 250.9,260.3" fill="rgb(255,186,186)"/>
<polygon points="256.9,254.3 262.9,254.3 262.9,260.3 256.9,260.3" fill="rgb(255,205,205)"/>
<polygon points="262.9,254.3 268.9,254.3 268.9,260.3 262.9,260.3" fill="rgb(255,243,243)"/>
<polygon points="268.9,254.3 274.9,254.3 274.9,260.3 268.9,260.3" fill="rgb(222,222,255)"/>
<polygon points="274.9,254.3 280.9,254.3 280.9,260.3 274.9,260.3" fill="rgb(255,184,184)"/>
<polygon points="280.9,254.3 286.9,254.3 286.9,260.3 280.9,260.3" fill="rgb(255,189,189)"/>
<polygon points="286.9,254.3 292.9,254.3 292.9,260.3 286.9,260.3" fill="rgb(208,208,255)"/>
<polygon points="292.9,254.3 298.9,254.3 298.9,260.3 292.9,260.3" fill="rgb(255,252,252)"/>
<polygon points="308.9,254.3 314.9,254.3 314.9,260.3 308.9,260.3" fill="rgb(255,144,144)"/>
<polygon points="314.9,254.3 320.9,254.3 320.9,260.3 314.9,260.3" fill="rgb(255,217,217)"/>
<polygon points="320.9,254.3 326.9,254.3 326.9,260.3 320.9,260.3" fill="rgb(176,176,255)"/>
<polygon points="326.9,254.3 332.9,254.3 332.9,260.3 326.9,260.3" fill="rgb(227,227,255)"/>
<polygon points="332.9,254.3 338.9,254.3 338.9,260.3 332.9,260.3" fill="rgb(255,212,212)"/>
<polygon points="338.9,254.3 344.9,254.3 344.9,260.3 338.9,260.3" fill="rgb(255,223,223)"/>
<polygon points="344.9,254.3 350.9,254.3 350.9,260.3 344.9,260.3" fill="rgb(244,244,255)"/>
<polygon points="350.9,254.3 356.9,254.3 356.9,260.3 350.9,260.3" fill="rgb(255,191,191)"/>
<polygon points="158.9,260.3 166.9,260.3 166.9,266.3 158.9,266.3" fill="rgb(222,235,234)"/><text xml:space="preserve" x="162.9" y="266.133" font-family="Calibri" font-size="7.5" fill="rgb(0,0,0)" text-anchor="middle">6</text>
<polygon points="166.9,260.3 174.9,260.3 174.9,266.3 166.9,266.3" fill="rgb(216,179,101)"/><text xml:space="preserve" x="170.9" y="266.133" font-family="Calibri" font-size="7.5" fill="rgb(0,0,0)" text-anchor="middle">15</text>
<polygon points="174.9,260.3 182.9,260.3 182.9,266.3 174.9,266.3" fill="rgb(216,179,101)"/><text xml:space="preserve" x="178.9" y="266.133" font-family="Calibri" font-size="7.5" fill="rgb(0,0,0)" text-anchor="middle">15</text>
<polygon points="192.9,260.3 198.9,260.3 198.9,266.3 192.9,266.3" fill="rgb(255,103,103)"/>
<polygon points="198.9,260.3 204.9,260.3 204.9,266.3 198.9,266.3" fill="rgb(255,76,76)"/>
<polygon points="204.9,260.3 210.9,260.3 210.9,266.3 204.9,266.3" fill="rgb(255,82,82)"/>
<polygon points="210.9,260.3 216.9,260.3 216.9,266.3 210.9,266.3" fill="rgb(255,136,136)"/>
<polygon points="216.9,260.3 222.9,260.3 222.9,266.3 216.9,266.3" fill="rgb(254,159,159)"/>
<polygon points="222.9,260.3 228.9,260.3 228.9,266.3 222.9,266.3" fill="rgb(122,122,255)"/>
<polygon points="228.9,260.3 234.9,260.3 234.9,266.3 228.9,266.3" fill="rgb(255,252,252)"/>
<polygon points="234.9,260.3 240.9,260.3 240.9,266.3 234.9,266.3" fill="rgb(222,222,255)"/>
<polygon points="250.9,260.3 256.9,260.3 256.9,266.3 250.9,266.3" fill="rgb(255,189,189)"/>
<polygon points="256.9,260.3 262.9,260.3 262.9,266.3 256.9,266.3" fill="rgb(255,178,178)"/>
<polygon points="262.9,260.3 268.9,260.3 268.9,266.3 262.9,266.3" fill="rgb(255,186,186)"/>
<polygon points="268.9,260.3 274.9,260.3 274.9,266.3 268.9,266.3" fill="rgb(255,214,214)"/>
<polygon points="274.9,260.3 280.9,260.3 280.9,266.3 274.9,266.3" fill="rgb(255,113,113)"/>
<polygon points="280.9,260.3 286.9,260.3 286.9,266.3 280.9,266.3" fill="rgb(255,173,173)"/>
<polygon points="286.9,260.3 292.9,260.3 292.9,266.3 286.9,266.3" fill="rgb(255,224,224)"/>
<polygon points="292.9,260.3 298.9,260.3 298.9,266.3 292.9,266.3" fill="rgb(255,233,233)"/>
<polygon points="308.9,260.3 314.9,260.3 314.9,266.3 308.9,266.3" fill="rgb(255,126,126)"/>
<polygon points="314.9,260.3 320.9,260.3 320.9,266.3 314.9,266.3" fill="rgb(254,199,199)"/>
<polygon points="320.9,260.3 326.9,260.3 326.9,266.3 320.9,266.3" fill="rgb(193,193,255)"/>
<polygon points="326.9,260.3 332.9,260.3 332.9,266.3 326.9,266.3" fill="rgb(255,252,252)"/>
<polygon points="332.9,260.3 338.9,260.3 338.9,266.3 332.9,266.3" fill="rgb(255,162,162)"/>
<polygon points="338.9,260.3 344.9,260.3 344.9,266.3 338.9,266.3" fill="rgb(255,240,240)"/>
<polygon points="344.9,260.3 350.9,260.3 350.9,266.3 344.9,266.3" fill="rgb(255,232,232)"/>
<polygon points="350.9,260.3 356.9,260.3 356.9,266.3 350.9,266.3" fill="rgb(255,222,222)"/>
<polygon points="158.9,266.3 166.9,266.3 166.9,272.3 158.9,272.3" fill="rgb(222,235,234)"/><text xml:space="preserve" x="162.9" y="272.133" font-family="Calibri" font-size="7.5" fill="rgb(0,0,0)" text-anchor="middle">6</text>
<polygon points="166.9,266.3 174.9,266.3 174.9,272.3 166.9,272.3" fill="rgb(216,179,101)"/><text xml:space="preserve" x="170.9" y="272.133" font-family="Calibri" font-size="7.5" fill="rgb(0,0,0)" text-anchor="middle">15</text>
<polygon points="174.9,266.3 182.9,266.3 182.9,272.3 174.9,272.3" fill="rgb(216,179,101)"/><text xml:space="preserve" x="178.9" y="272.133" font-family="Calibri" font-size="7.5" fill="rgb(0,0,0)" text-anchor="middle">15</text>
<polygon points="192.9,266.3 198.9,266.3 198.9,272.3 192.9,272.3" fill="rgb(255,74,74)"/>
<polygon points="198.9,266.3 204.9,266.3 204.9,272.3 198.9,272.3" fill="rgb(255,34,34)"/>
<polygon points="204.9,266.3 210.9,266.3 210.9,272.3 204.9,272.3" fill="rgb(255,116,116)"/>
<polygon points="210.9,266.3 216.9,266.3 216.9,272.3 210.9,272.3" fill="rgb(255,94,94)"/>
<polygon points="216.9,266.3 222.9,266.3 222.9,272.3 216.9,272.3" fill="rgb(255,0,0)"/>
<polygon points="222.9,266.3 228.9,266.3 228.9,272.3 222.9,272.3" fill="rgb(170,170,255)"/>
<polygon points="228.9,266.3 234.9,266.3 234.9,272.3 228.9,272.3" fill="rgb(154,154,255)"/>
<polygon points="234.9,266.3 240.9,266.3 240.9,272.3 234.9,272.3" fill="rgb(177,177,255)"/>
<polygon points="250.9,266.3 256.9,266.3 256.9,272.3 250.9,272.3" fill="rgb(255,196,196)"/>
<polygon points="256.9,266.3 262.9,266.3 262.9,272.3 256.9,272.3" fill="rgb(255,243,243)"/>
<polygon points="262.9,266.3 268.9,266.3 268.9,272.3 262.9,272.3" fill="rgb(192,192,255)"/>
<polygon points="268.9,266.3 274.9,266.3 274.9,272.3 268.9,272.3" fill="rgb(255,252,252)"/>
<polygon points="274.9,266.3 280.9,266.3 280.9,272.3 274.9,272.3" fill="rgb(255,196,196)"/>
<polygon points="280.9,266.3 286.9,266.3 286.9,272.3 280.9,272.3" fill="rgb(255,124,124)"/>
<polygon points="286.9,266.3 292.9,266.3 292.9,272.3 286.9,272.3" fill="rgb(255,204,204)"/>
<polygon points="292.9,266.3 298.9,266.3 298.9,272.3 292.9,272.3" fill="rgb(255,182,182)"/>
<polygon points="308.9,266.3 314.9,266.3 314.9,272.3 308.9,272.3" fill="rgb(255,153,153)"/>
<polygon points="314.9,266.3 320.9,266.3 320.9,272.3 314.9,272.3" fill="rgb(220,220,255)"/>
<polygon points="320.9,266.3 326.9,266.3 326.9,272.3 320.9,272.3" fill="rgb(212,212,255)"/>
<polygon points="326.9,266.3 332.9,266.3 332.9,272.3 326.9,272.3" fill="rgb(254,254,255)"/>
<polygon points="332.9,266.3 338.9,266.3 338.9,272.3 332.9,272.3" fill="rgb(255,170,170)"/>
<polygon points="338.9,266.3 344.9,266.3 344.9,272.3 338.9,272.3" fill="rgb(255,221,221)"/>
<polygon points="344.9,266.3 350.9,266.3 350.9,272.3 344.9,272.3" fill="rgb(255,248,248)"/>
<polygon points="350.9,266.3 356.9,266.3 356.9,272.3 350.9,272.3" fill="rgb(255,182,182)"/>
<polygon points="158.9,272.3 166.9,272.3 166.9,278.3 158.9,278.3" fill="rgb(222,235,234)"/><text xml:space="preserve" x="162.9" y="278.133" font-family="Calibri" font-size="7.5" fill="rgb(0,0,0)" text-anchor="middle">6</text>
<polygon points="166.9,272.3 174.9,272.3 174.9,278.3 166.9,278.3" fill="rgb(216,179,101)"/><text xml:space="preserve" x="170.9" y="278.133" font-family="Calibri" font-size="7.5" fill="rgb(0,0,0)" text-anchor="middle">15</text>
<polygon points="174.9,272.3 182.9,272.3 182.9,278.3 174.9,278.3" fill="rgb(216,179,101)"/><text xml:space="preserve" x="178.9" y="278.133" font-family="Calibri" font-size="7.5" fill="rgb(0,0,0)" text-anchor="middle">15</text>
<polygon points="192.9,272.3 198.9,272.3 198.9,278.3 192.9,278.3" fill="rgb(255,102,102)"/>
<polygon points="198.9,272.3 204.9,272.3 204.9,278.3 198.9,278.3" fill="rgb(255,75,75)"/>
<polygon points="204.9,272.3 210.9,272.3 210.9,278.3 204.9,278.3" fill="rgb(255,55,55)"/>
<polygon points="210.9,272.3 216.9,272.3 216.9,278.3 210.9,278.3" fill="rgb(255,62,62)"/>
<polygon points="216.9,272.3 222.9,272.3 222.9,278.3 216.9,278.3" fill="rgb(255,1,1)"/>
<polygon points="222.9,272.3 228.9,272.3 228.9,278.3 222.9,278.3" fill="rgb(218,218,255)"/>
<polygon points="228.9,272.3 234.9,272.3 234.9,278.3 228.9,278.3" fill="rgb(245,245,255)"/>
<polygon points="234.9,272.3 240.9,272.3 240.9,278.3 234.9,278.3" fill="rgb(217,217,255)"/>
<polygon points="250.9,272.3 256.9,272.3 256.9,278.3 250.9,278.3" fill="rgb(255,202,202)"/>
<polygon points="256.9,272.3 262.9,272.3 262.9,278.3 256.9,278.3" fill="rgb(254,224,224)"/>
<polygon points="262.9,272.3 268.9,272.3 268.9,278.3 262.9,278.3" fill="rgb(255,218,218)"/>
<polygon points="268.9,272.3 274.9,272.3 274.9,278.3 268.9,278.3" fill="rgb(255,164,164)"/>
<polygon points="274.9,272.3 280.9,272.3 280.9,278.3 274.9,278.3" fill="rgb(255,112,112)"/>
<polygon points="280.9,272.3 286.9,272.3 286.9,278.3 280.9,278.3" fill="rgb(205,205,255)"/>
<polygon points="286.9,272.3 292.9,272.3 292.9,278.3 286.9,278.3" fill="rgb(255,210,210)"/>
<polygon points="292.9,272.3 298.9,272.3 298.9,278.3 292.9,278.3" fill="rgb(226,226,255)"/>
<polygon points="308.9,272.3 314.9,272.3 314.9,278.3 308.9,278.3" fill="rgb(255,193,193)"/>
<polygon points="314.9,272.3 320.9,272.3 320.9,278.3 314.9,278.3" fill="rgb(255,226,226)"/>
<polygon points="320.9,272.3 326.9,272.3 326.9,278.3 320.9,278.3" fill="rgb(255,229,229)"/>
<polygon points="326.9,272.3 332.9,272.3 332.9,278.3 326.9,278.3" fill="rgb(237,237,255)"/>
<polygon points="332.9,272.3 338.9,272.3 338.9,278.3 332.9,278.3" fill="rgb(255,108,108)"/>
<polygon points="338.9,272.3 344.9,272.3 344.9,278.3 338.9,278.3" fill="rgb(233,233,255)"/>
<polygon points="344.9,272.3 350.9,272.3 350.9,278.3 344.9,278.3" fill="rgb(233,233,255)"/>
<polygon points="350.9,272.3 356.9,272.3 356.9,278.3 350.9,278.3" fill="rgb(226,226,255)"/>
<polygon points="158.9,278.3 166.9,278.3 166.9,284.3 158.9,284.3" fill="rgb(222,235,234)"/><text xml:space="preserve" x="162.9" y="284.133" font-family="Calibri" font-size="7.5" fill="rgb(0,0,0)" text-anchor="middle">6</text>
<polygon points="166.9,278.3 174.9,278.3 174.9,284.3 166.9,284.3" fill="rgb(216,179,101)"/><text xml:space="preserve" x="170.9" y="284.133" font-family="Calibri" font-size="7.5" fill="rgb(0,0,0)" text-anchor="middle">15</text>
<polygon points="174.9,278.3 182.9,278.3 182.9,284.3 174.9,284.3" fill="rgb(216,179,101)"/><text xml:space="preserve" x="178.9" y="284.133" font-family="Calibri" font-size="7.5" fill="rgb(0,0,0)" text-anchor="middle">15</text>
<polygon points="192.9,278.3 198.9,278.3 198.9,284.3 192.9,284.3" fill="rgb(255,125,125)"/>
<polygon points="198.9,278.3 204.9,278.3 204.9,284.3 198.9,284.3" fill="rgb(255,80,80)"/>
<polygon points="204.9,278.3 210.9,278.3 210.9,284.3 204.9,284.3" fill="rgb(254,211,211)"/>
<polygon points="210.9,278.3 216.9,278.3 216.9,284.3 210.9,284.3" fill="rgb(254,231,231)"/>
<polygon points="216.9,278.3 222.9,278.3 222.9,284.3 216.9,284.3" fill="rgb(255,88,88)"/>
<polygon points="222.9,278.3 228.9,278.3 228.9,284.3 222.9,284.3" fill="rgb(163,163,255)"/>
<polygon points="228.9,278.3 234.9,278.3 234.9,284.3 228.9,284.3" fill="rgb(241,241,255)"/>
<polygon points="234.9,278.3 240.9,278.3 240.9,284.3 234.9,284.3" fill="rgb(156,156,255)"/>
<polygon points="250.9,278.3 256.9,278.3 256.9,284.3 250.9,284.3" fill="rgb(255,210,210)"/>
<polygon points="256.9,278.3 262.9,278.3 262.9,284.3 256.9,284.3" fill="rgb(255,206,206)"/>
<polygon points="262.9,278.3 268.9,278.3 268.9,284.3 262.9,284.3" fill="rgb(255,238,238)"/>
<polygon points="268.9,278.3 274.9,278.3 274.9,284.3 268.9,284.3" fill="rgb(240,240,255)"/>
<polygon points="274.9,278.3 280.9,278.3 280.9,284.3 274.9,284.3" fill="rgb(255,175,175)"/>
<polygon points="280.9,278.3 286.9,278.3 286.9,284.3 280.9,284.3" fill="rgb(232,232,255)"/>
<polygon points="286.9,278.3 292.9,278.3 292.9,284.3 286.9,284.3" fill="rgb(255,237,237)"/>
<polygon points="292.9,278.3 298.9,278.3 298.9,284.3 292.9,284.3" fill="rgb(183,183,255)"/>
<polygon points="308.9,278.3 314.9,278.3 314.9,284.3 308.9,284.3" fill="rgb(255,168,168)"/>
<polygon points="314.9,278.3 320.9,278.3 320.9,284.3 314.9,284.3" fill="rgb(255,221,221)"/>
<polygon points="320.9,278.3 326.9,278.3 326.9,284.3 320.9,284.3" fill="rgb(255,225,225)"/>
<polygon points="326.9,278.3 332.9,278.3 332.9,284.3 326.9,284.3" fill="rgb(255,199,199)"/>
<polygon points="332.9,278.3 338.9,278.3 338.9,284.3 332.9,284.3" fill="rgb(255,173,173)"/>
<polygon points="338.9,278.3 344.9,278.3 344.9,284.3 338.9,284.3" fill="rgb(225,225,255)"/>
<polygon points="344.9,278.3 350.9,278.3 350.9,284.3 344.9,284.3" fill="rgb(239,239,255)"/>
<polygon points="350.9,278.3 356.9,278.3 356.9,284.3 350.9,284.3" fill="rgb(195,195,255)"/>
<polygon points="158.9,284.3 166.9,284.3 166.9,290.3 158.9,290.3" fill="rgb(222,235,234)"/><text xml:space="preserve" x="162.9" y="290.133" font-family="Calibri" font-size="7.5" fill="rgb(0,0,0)" text-anchor="middle">6</text>
<polygon points="166.9,284.3 174.9,284.3 174.9,290.3 166.9,290.3" fill="rgb(216,179,101)"/><text xml:space="preserve" x="170.9" y="290.133" font-family="Calibri" font-size="7.5" fill="rgb(0,0,0)" text-anchor="middle">15</text>
<polygon points="174.9,284.3 182.9,284.3 182.9,290.3 174.9,290.3" fill="rgb(216,179,101)"/><text xml:space="preserve" x="178.9" y="290.133" font-family="Calibri" font-size="7.5" fill="rgb(0,0,0)" text-anchor="middle">15</text>
<polygon points="192.9,284.3 198.9,284.3 198.9,290.3 192.9,290.3" fill="rgb(255,103,103)"/>
<polygon points="198.9,284.3 204.9,284.3 204.9,290.3 198.9,290.3" fill="rgb(255,80,80)"/>
<polygon points="204.9,284.3 210.9,284.3 210.9,290.3 204.9,290.3" fill="rgb(255,161,161)"/>
<polygon points="210.9,284.3 216.9,284.3 216.9,290.3 210.9,290.3" fill="rgb(255,134,134)"/>
<polygon points="216.9,284.3 222.9,284.3 222.9,290.3 216.9,290.3" fill="rgb(255,79,79)"/>
<polygon points="222.9,284.3 228.9,284.3 228.9,290.3 222.9,290.3" fill="rgb(215,215,255)"/>
<polygon points="228.9,284.3 234.9,284.3 234.9,290.3 228.9,290.3" fill="rgb(255,246,246)"/>
<polygon points="234.9,284.3 240.9,284.3 240.9,290.3 234.9,290.3" fill="rgb(179,179,255)"/>
<polygon points="250.9,284.3 256.9,284.3 256.9,290.3 250.9,290.3" fill="rgb(255,189,189)"/>
<polygon points="256.9,284.3 262.9,284.3 262.9,290.3 256.9,290.3" fill="rgb(254,226,226)"/>
<polygon points="262.9,284.3 268.9,284.3 268.9,290.3 262.9,290.3" fill="rgb(160,160,255)"/>
<polygon points="268.9,284.3 274.9,284.3 274.9,290.3 268.9,290.3" fill="rgb(255,234,234)"/>
<polygon points="274.9,284.3 280.9,284.3 280.9,290.3 274.9,290.3" fill="rgb(255,153,153)"/>
<polygon points="280.9,284.3 286.9,284.3 286.9,290.3 280.9,290.3" fill="rgb(255,221,221)"/>
<polygon points="286.9,284.3 292.9,284.3 292.9,290.3 286.9,290.3" fill="rgb(255,158,158)"/>
<polygon points="292.9,284.3 298.9,284.3 298.9,290.3 292.9,290.3" fill="rgb(255,171,171)"/>
<polygon points="308.9,284.3 314.9,284.3 314.9,290.3 308.9,290.3" fill="rgb(254,128,128)"/>
<polygon points="314.9,284.3 320.9,284.3 320.9,290.3 314.9,290.3" fill="rgb(240,240,255)"/>
<polygon points="320.9,284.3 326.9,284.3 326.9,290.3 320.9,290.3" fill="rgb(247,247,255)"/>
<polygon points="326.9,284.3 332.9,284.3 332.9,290.3 326.9,290.3" fill="rgb(255,215,215)"/>
<polygon points="332.9,284.3 338.9,284.3 338.9,290.3 332.9,290.3" fill="rgb(255,165,165)"/>
<polygon points="338.9,284.3 344.9,284.3 344.9,290.3 338.9,290.3" fill="rgb(224,224,255)"/>
<polygon points="344.9,284.3 350.9,284.3 350.9,290.3 344.9,290.3" fill="rgb(255,243,243)"/>
<polygon points="350.9,284.3 356.9,284.3 356.9,290.3 350.9,290.3" fill="rgb(255,231,231)"/>
<polygon points="158.9,212.3 182.9,212.3 182.9,290.3 158.9,290.3" fill="none" stroke="black" stroke-width="1"/>
<polygon points="192.9,212.3 240.9,212.3 240.9,290.3 192.9,290.3" fill="none" stroke="black" stroke-width="1"/>
<polygon points="250.9,212.3 298.9,212.3 298.9,290.3 250.9,290.3" fill="none" stroke="black" stroke-width="1"/>
<polygon points="308.9,212.3 356.9,212.3 356.9,290.3 308.9,290.3" fill="none" stroke="black" stroke-width="1"/>
<text xml:space="preserve" x="199.45" y="322.633" font-family="Calibri" font-size="6" text-anchor="middle">moduleID</text>
<polygon points="89.45,330.3 109.45,330.3 109.45,350.3 89.45,350.3" fill="rgb(250,250,250)"/><polygon points="89.45,330.3 109.45,330.3 109.45,350.3 89.45,350.3" fill="none" stroke="black" stroke-width="1"/><text xml:space="preserve" x="99.45" y="343.133" font-family="Calibri" font-size="7.5" fill="rgb(0,0,0)" text-anchor="middle">-2.0</text>
<polygon points="109.45,330.3 129.45,330.3 129.45,350.3 109.45,350.3" fill="rgb(156,210,205)"/><polygon points="109.45,330.3 129.45,330.3 129.45,350.3 109.45,350.3" fill="none" stroke="black" stroke-width="1"/><text xml:space="preserve" x="119.45" y="343.133" font-family="Calibri" font-size="7.5" fill="rgb(0,0,0)" text-anchor="middle">-0.4</text>
<polygon points="129.45,330.3 149.45,330.3 149.45,350.3 129.45,350.3" fill="rgb(116,191,184)"/><polygon points="129.45,330.3 149.45,330.3 149.45,350.3 129.45,350.3" fill="none" stroke="black" stroke-width="1"/><text xml:space="preserve" x="139.45" y="343.133" font-family="Calibri" font-size="7.5" fill="rgb(0,0,0)" text-anchor="middle">1.2</text>
<polygon points="149.45,330.3 169.45,330.3 169.45,350.3 149.45,350.3" fill="rgb(152,206,201)"/><polygon points="149.45,330.3 169.45,330.3 169.45,350.3 149.45,350.3" fill="none" stroke="black" stroke-width="1"/><text xml:space="preserve" x="159.45" y="343.133" font-family="Calibri" font-size="7.5" fill="rgb(0,0,0)" text-anchor="middle">2.8</text>
<polygon points="169.45,330.3 189.45,330.3 189.45,350.3 169.45,350.3" fill="rgb(187,220,217)"/><polygon points="169.45,330.3 189.45,330.3 189.45,350.3 169.45,350.3" fill="none" stroke="black" stroke-width="1"/><text xml:space="preserve" x="179.45" y="343.133" font-family="Calibri" font-size="7.5" fill="rgb(0,0,0)" text-anchor="middle">4.4</text>
<polygon points="189.45,330.3 209.45,330.3 209.45,350.3 189.45,350.3" fill="rgb(222,235,234)"/><polygon points="189.45,330.3 209.45,330.3 209.45,350.3 189.45,350.3" fill="none" stroke="black" stroke-width="1"/><text xml:space="preserve" x="199.45" y="343.133" font-family="Calibri" font-size="7.5" fill="rgb(0,0,0)" text-anchor="middle">6.0</text>
<polygon points="209.45,330.3 229.45,330.3 229.45,350.3 209.45,350.3" fill="rgb(242,239,232)"/><polygon points="209.45,330.3 229.45,330.3 229.45,350.3 209.45,350.3" fill="none" stroke="black" stroke-width="1"/><text xml:space="preserve" x="219.45" y="343.133" font-family="Calibri" font-size="7.5" fill="rgb(0,0,0)" text-anchor="middle">7.6</text>
<polygon points="229.45,330.3 249.45,330.3 249.45,350.3 229.45,350.3" fill="rgb(235,224,199)"/><polygon points="229.45,330.3 249.45,330.3 249.45,350.3 229.45,350.3" fill="none" stroke="black" stroke-width="1"/><text xml:space="preserve" x="239.45" y="343.133" font-family="Calibri" font-size="7.5" fill="rgb(0,0,0)" text-anchor="middle">9.2</text>
<polygon points="249.45,330.3 269.45,330.3 269.45,350.3 249.45,350.3" fill="rgb(229,209,166)"/><polygon points="249.45,330.3 269.45,330.3 269.45,350.3 249.45,350.3" fill="none" stroke="black" stroke-width="1"/><text xml:space="preserve" x="259.45" y="343.133" font-family="Calibri" font-size="7.5" fill="rgb(0,0,0)" text-anchor="middle">10.8</text>
<polygon points="269.45,330.3 289.45,330.3 289.45,350.3 269.45,350.3" fill="rgb(222,194,133)"/><polygon points="269.45,330.3 289.45,330.3 289.45,350.3 269.45,350.3" fill="none" stroke="black" stroke-width="1"/><text xml:space="preserve" x="279.45" y="343.133" font-family="Calibri" font-size="7.5" fill="rgb(0,0,0)" text-anchor="middle">12.4</text>
<polygon points="289.45,330.3 309.45,330.3 309.45,350.3 289.45,350.3" fill="rgb(216,179,101)"/><polygon points="289.45,330.3 309.45,330.3 309.45,350.3 289.45,350.3" fill="none" stroke="black" stroke-width="1"/><text xml:space="preserve" x="299.45" y="343.133" font-family="Calibri" font-size="7.5" fill="rgb(0,0,0)" text-anchor="middle">14.0</text>
<text xml:space="preserve" x="199.45" y="382.633" font-family="Calibri" font-size="6" text-anchor="middle">marklevel</text>
<polygon points="89.45,390.3 109.45,390.3 109.45,410.3 89.45,410.3" fill="rgb(0,0,255)"/><polygon points="89.45,390.3 109.45,390.3 109.45,410.3 89.45,410.3" fill="none" stroke="black" stroke-width="1"/><text xml:space="preserve" x="99.45" y="403.133" font-family="Calibri" font-size="7.5" fill="rgb(255,255,255)" text-anchor="middle">-2.0</text>
<polygon points="109.45,390.3 129.45,390.3 129.45,410.3 109.45,410.3" fill="rgb(50,50,255)"/><polygon points="109.45,390.3 129.45,390.3 129.45,410.3 109.45,410.3" fill="none" stroke="black" stroke-width="1"/><text xml:space="preserve" x="119.45" y="403.133" font-family="Calibri" font-size="7.5" fill="rgb(255,255,255)" text-anchor="middle">-1.6</text>
<polygon points="129.45,390.3 149.45,390.3 149.45,410.3 129.45,410.3" fill="rgb(102,102,255)"/><polygon points="129.45,390.3 149.45,390.3 149.45,410.3 129.45,410.3" fill="none" stroke="black" stroke-width="1"/><text xml:space="preserve" x="139.45" y="403.133" font-family="Calibri" font-size="7.5" fill="rgb(255,255,255)" text-anchor="middle">-1.2</text>
<polygon points="149.45,390.3 169.45,390.3 169.45,410.3 149.45,410.3" fill="rgb(153,153,255)"/><polygon points="149.45,390.3 169.45,390.3 169.45,410.3 149.45,410.3" fill="none" stroke="black" stroke-width="1"/><text xml:space="preserve" x="159.45" y="403.133" font-family="Calibri" font-size="7.5" fill="rgb(0,0,0)" text-anchor="middle">-0.8</text>
<polygon points="169.45,390.3 189.45,390.3 189.45,410.3 169.45,410.3" fill="rgb(204,204,255)"/><polygon points="169.45,390.3 189.45,390.3 189.45,410.3 169.45,410.3" fill="none" stroke="black" stroke-width="1"/><text xml:space="preserve" x="179.45" y="403.133" font-family="Calibri" font-size="7.5" fill="rgb(0,0,0)" text-anchor="middle">-0.4</text>
<polygon points="189.45,390.3 209.45,390.3 209.45,410.3 189.45,410.3" fill="rgb(255,255,255)"/><polygon points="189.45,390.3 209.45,390.3 209.45,410.3 189.45,410.3" fill="none" stroke="black" stroke-width="1"/><text xml:space="preserve" x="199.45" y="403.133" font-family="Calibri" font-size="7.5" fill="rgb(0,0,0)" text-anchor="middle">0.0</text>
<polygon points="209.45,390.3 229.45,390.3 229.45,410.3 209.45,410.3" fill="rgb(255,204,204)"/><polygon points="209.45,390.3 229.45,390.3 229.45,410.3 209.45,410.3" fill="none" stroke="black" stroke-width="1"/><text xml:space="preserve" x="219.45" y="403.133" font-family="Calibri" font-size="7.5" fill="rgb(0,0,0)" text-anchor="middle">0.4</text>
<polygon points="229.45,390.3 249.45,390.3 249.45,410.3 229.45,410.3" fill="rgb(255,153,153)"/><polygon points="229.45,390.3 249.45,390.3 249.45,410.3 229.45,410.3" fill="none" stroke="black" stroke-width="1"/><text xml:space="preserve" x="239.45" y="403.133" font-family="Calibri" font-size="7.5" fill="rgb(0,0,0)" text-anchor="middle">0.8</text>
<polygon points="249.45,390.3 269.45,390.3 269.45,410.3 249.45,410.3" fill="rgb(255,102,102)"/><polygon points="249.45,390.3 269.45,390.3 269.45,410.3 249.45,410.3" fill="none" stroke="black" stroke-width="1"/><text xml:space="preserve" x="259.45" y="403.133" font-family="Calibri" font-size="7.5" fill="rgb(0,0,0)" text-anchor="middle">1.2</text>
<polygon points="269.45,390.3 289.45,390.3 289.45,410.3 269.45,410.3" fill="rgb(255,50,50)"/><polygon points="269.45,390.3 289.45,390.3 289.45,410.3 269.45,410.3" fill="none" stroke="black" stroke-width="1"/><text xml:space="preserve" x="279.45" y="403.133" font-family="Calibri" font-size="7.5" fill="rgb(255,255,255)" text-anchor="middle">1.6</text>
<polygon points="289.45,390.3 309.45,390.3 309.45,410.3 289.45,410.3" fill="rgb(255,0,0)"/><polygon points="289.45,390.3 309.45,390.3 309.45,410.3 289.45,410.3" fill="none" stroke="black" stroke-width="1"/><text xml:space="preserve" x="299.45" y="403.133" font-family="Calibri" font-size="7.5" fill="rgb(255,255,255)" text-anchor="middle">2.0</text>
</svg>
