<?xml version="1.0" standalone="no"?><!DOCTYPE svg PUBLIC "-//W3C//DTD SVG 1.1//EN" "http://www.w3.org/Graphics/SVG/1.1/DTD/svg11.dtd">
<svg width="400.1" height="472.3" version="1.1" xmlns="http://www.w3.org/2000/svg">
<text xml:space="preserve" x="156.1" y="217.633" font-family="Calibri" font-size="6" text-anchor="end">Gda</text>
<text xml:space="preserve" x="156.1" y="223.633" font-family="Calibri" font-size="6" text-anchor="end">2810432L12Rik</text>
<text xml:space="preserve" x="156.1" y="229.633" font-family="Calibri" font-size="6" text-anchor="end">Mgst1</text>
<text xml:space="preserve" x="156.1" y="235.633" font-family="Calibri" font-size="6" text-anchor="end">Cd200</text>
<text xml:space="preserve" x="156.1" y="241.633" font-family="Calibri" font-size="6" text-anchor="end">Bmper</text>
<text xml:space="preserve" x="156.1" y="247.633" font-family="Calibri" font-size="6" text-anchor="end">Enpp1</text>
<text xml:space="preserve" x="156.1" y="253.633" font-family="Calibri" font-size="6" text-anchor="end">Stx17</text>
<text xml:space="preserve" x="156.1" y="259.633" font-family="Calibri" font-size="6" text-anchor="end">Arsb</text>
<text xml:space="preserve" x="156.1" y="265.633" font-family="Calibri" font-size="6" text-anchor="end">Samd4</text>
<text xml:space="preserve" x="156.1" y="271.633" font-family="Calibri" font-size="6" text-anchor="end">Dkk2</text>
<text xml:space="preserve" x="156.1" y="277.633" font-family="Calibri" font-size="6" text-anchor="end">Ptprm</text>
<text xml:space="preserve" x="156.1" y="283.633" font-family="Calibri" font-size="6" text-anchor="end">Aph1b</text>
<text xml:space="preserve" x="156.1" y="289.633" font-family="Calibri" font-size="6" text-anchor="end">Rab32</text>
<text xml:space="preserve" x="156.1" y="295.633" font-family="Calibri" font-size="6" text-anchor="end">5031414D18Rik</text>
<text xml:space="preserve" x="156.1" y="301.633" font-family="Calibri" font-size="6" text-anchor="end">Palmd</text>
<text xml:space="preserve" x="156.1" y="307.633" font-family="Calibri" font-size="6" text-anchor="end">Cyp4v3</text>
<text xml:space="preserve" x="156.1" y="313.633" font-family="Calibri" font-size="6" text-anchor="end">Thbs2</text>
<text xml:space="preserve" x="156.1" y="319.633" font-family="Calibri" font-size="6" text-anchor="end">Vcam1</text>
<text xml:space="preserve" x="156.1" y="325.633" font-family="Calibri" font-size="6" text-anchor="end">Pappa</text>
<text xml:space="preserve" x="156.1" y="331.633" font-family="Calibri" font-size="6" text-anchor="end">Me3</text>
<text xml:space="preserve" x="166.433" y="208.3" font-family="Calibri" font-size="6" transform="rotate(270 166.433 208.3)">ips</text>
<text xml:space="preserve" x="174.433" y="208.3" font-family="Calibri" font-size="6" transform="rotate(270 174.433 208.3)">pips</text>
<text xml:space="preserve" x="182.433" y="208.3" font-family="Calibri" font-size="6" transform="rotate(270 182.433 208.3)">mef</text>
<text xml:space="preserve" x="199.433" y="208.3" font-family="Calibri" font-size="6" transform="rotate(270 199.433 208.3)">ips_H3K4me3iPS</text>
<text xml:space="preserve" x="205.433" y="208.3" font-family="Calibri" font-size="6" transform="rotate(270 205.433 208.3)">ips_H3K9aciPS</text>
<text xml:space="preserve" x="211.433" y="208.3" font-family="Calibri" font-size="6" transform="rotate(270 211.433 208.3)">ips_H3K14aciPS</text>
<text xml:space="preserve" x="217.433" y="208.3" font-family="Calibri" font-size="6" transform="rotate(270 217.433 208.3)">ips_H3K18aciPS</text>
<text xml:space="preserve" x="223.433" y="208.3" font-family="Calibri" font-size="6" transform="rotate(270 223.433 208.3)">ips_H3K79me2iPS</text>
<text xml:space="preserve" x="229.433" y="208.3" font-family="Calibri" font-size="6" transform="rotate(270 229.433 208.3)">ips_H3K9me2iPS</text>
<text xml:space="preserve" x="235.433" y="208.3" font-family="Calibri" font-size="6" transform="rotate(270 235.433 208.3)">ips_H3K9me3iPS</text>
<text xml:space="preserve" x="241.433" y="208.3" font-family="Calibri" font-size="6" transform="rotate(270 241.433 208.3)">ips_H3K27me3iPS</text>
<text xml:space="preserve" x="257.433" y="208.3" font-family="Calibri" font-size="6" transform="rotate(270 257.433 208.3)">pips_H3K4me3pips</text>
<text xml:space="preserve" x="263.433" y="208.3" font-family="Calibri" font-size="6" transform="rotate(270 263.433 208.3)">pips_H3K9acpips</text>
<text xml:space="preserve" x="269.433" y="208.3" font-family="Calibri" font-size="6" transform="rotate(270 269.433 208.3)">pips_H3K14acpips</text>
<text xml:space="preserve" x="275.433" y="208.3" font-family="Calibri" font-size="6" transform="rotate(270 275.433 208.3)">pips_H3K18acpips</text>
<text xml:space="preserve" x="281.433" y="208.3" font-family="Calibri" font-size="6" transform="rotate(270 281.433 208.3)">pips_H3K79me2pips</text>
<text xml:space="preserve" x="287.433" y="208.3" font-family="Calibri" font-size="6" transform="rotate(270 287.433 208.3)">pips_H3K9me2pips</text>
<text xml:space="preserve" x="293.433" y="208.3" font-family="Calibri" font-size="6" transform="rotate(270 293.433 208.3)">pips_H3K9me3pips</text>
<text xml:space="preserve" x="299.433" y="208.3" font-family="Calibri" font-size="6" transform="rotate(270 299.433 208.3)">pips_H3K27me3pips</text>
<text xml:space="preserve" x="315.433" y="208.3" font-family="Calibri" font-size="6" transform="rotate(270 315.433 208.3)">mef_H3K4me3mef</text>
<text xml:space="preserve" x="321.433" y="208.3" font-family="Calibri" font-size="6" transform="rotate(270 321.433 208.3)">mef_H3K9acmef</text>
<text xml:space="preserve" x="327.433" y="208.3" font-family="Calibri" font-size="6" transform="rotate(270 327.433 208.3)">mef_H3K14acmef</text>
<text xml:space="preserve" x="333.433" y="208.3" font-family="Calibri" font-size="6" transform="rotate(270 333.433 208.3)">mef_H3K18acmef</text>
<text xml:space="preserve" x="339.433" y="208.3" font-family="Calibri" font-size="6" transform="rotate(270 339.433 208.3)">mef_H3K79me2mef</text>
<text xml:space="preserve" x="345.433" y="208.3" font-family="Calibri" font-size="6" transform="rotate(270 345.433 208.3)">mef_H3K9me2mef</text>
<text xml:space="preserve" x="351.433" y="208.3" font-family="Calibri" font-size="6" transform="rotate(270 351.433 208.3)">mef_H3K9me3mef</text>
<text xml:space="preserve" x="357.433" y="208.3" font-family="Calibri" font-size="6" transform="rotate(270 357.433 208.3)">mef_H3K27me3mef</text>
<polygon points="160.1,212.3 168.1,212.3 168.1,218.3 160.1,218.3" fill="rgb(156,207,203)"/><text xml:space="preserve" x="164.1" y="218.133" font-family="Calibri" font-size="7.5" fill="rgb(0,0,0)" text-anchor="middle">3</text>
<polygon points="168.1,212.3 176.1,212.3 176.1,218.3 168.1,218.3" fill="rgb(220,188,121)"/><text xml:space="preserve" x="172.1" y="218.133" font-family="Calibri" font-size="7.5" fill="rgb(0,0,0)" text-anchor="middle">13</text>
<polygon points="176.1,212.3 184.1,212.3 184.1,218.3 176.1,218.3" fill="rgb(216,179,101)"/><text xml:space="preserve" x="180.1" y="218.133" font-family="Calibri" font-size="7.5" fill="rgb(0,0,0)" text-anchor="middle">14</text>
<polygon points="194.1,212.3 200.1,212.3 200.1,218.3 194.1,218.3" fill="rgb(247,247,255)"/>
<polygon points="200.1,212.3 206.1,212.3 206.1,218.3 200.1,218.3" fill="rgb(162,162,255)"/>
<polygon points="206.1,212.3 212.1,212.3 212.1,218.3 206.1,218.3" fill="rgb(165,165,255)"/>
<polygon points="212.1,212.3 218.1,212.3 218.1,218.3 212.1,218.3" fill="rgb(162,162,255)"/>
<polygon points="218.1,212.3 224.1,212.3 224.1,218.3 218.1,218.3" fill="rgb(180,180,255)"/>
<polygon points="224.1,212.3 230.1,212.3 230.1,218.3 224.1,218.3" fill="rgb(255,180,180)"/>
<polygon points="230.1,212.3 236.1,212.3 236.1,218.3 230.1,218.3" fill="rgb(255,158,158)"/>
<polygon points="236.1,212.3 242.1,212.3 242.1,218.3 236.1,218.3" fill="rgb(255,123,123)"/>
<polygon points="252.1,212.3 258.1,212.3 258.1,218.3 252.1,218.3" fill="rgb(255,206,206)"/>
<polygon points="258.1,212.3 264.1,212.3 264.1,218.3 258.1,218.3" fill="rgb(255,144,144)"/>
<polygon points="264.1,212.3 270.1,212.3 270.1,218.3 264.1,218.3" fill="rgb(255,143,143)"/>
<polygon points="270.1,212.3 276.1,212.3 276.1,218.3 270.1,218.3" fill="rgb(255,32,32)"/>
<polygon points="276.1,212.3 282.1,212.3 282.1,218.3 276.1,218.3" fill="rgb(255,116,116)"/>
<polygon points="282.1,212.3 288.1,212.3 288.1,218.3 282.1,218.3" fill="rgb(248,248,255)"/>
<polygon points="288.1,212.3 294.1,212.3 294.1,218.3 288.1,218.3" fill="rgb(255,236,236)"/>
<polygon points="294.1,212.3 300.1,212.3 300.1,218.3 294.1,218.3" fill="rgb(227,227,255)"/>
<polygon points="310.1,212.3 316.1,212.3 316.1,218.3 310.1,218.3" fill="rgb(234,234,255)"/>
<polygon points="316.1,212.3 322.1,212.3 322.1,218.3 316.1,218.3" fill="rgb(206,206,255)"/>
<polygon points="322.1,212.3 328.1,212.3 328.1,218.3 322.1,218.3" fill="rgb(255,222,222)"/>
<polygon points="328.1,212.3 334.1,212.3 334.1,218.3 328.1,218.3" fill="rgb(255,204,204)"/>
<polygon points="334.1,212.3 340.1,212.3 340.1,218.3 334.1,218.3" fill="rgb(218,218,255)"/>
<polygon points="340.1,212.3 346.1,212.3 346.1,218.3 340.1,218.3" fill="rgb(255,210,210)"/>
<polygon points="346.1,212.3 352.1,212.3 352.1,218.3 346.1,218.3" fill="rgb(255,209,209)"/>
<polygon points="352.1,212.3 358.1,212.3 358.1,218.3 352.1,218.3" fill="rgb(255,192,192)"/>
<polygon points="160.1,218.3 168.1,218.3 168.1,224.3 160.1,224.3" fill="rgb(156,207,203)"/><text xml:space="preserve" x="164.1" y="224.133" font-family="Calibri" font-size="7.5" fill="rgb(0,0,0)" text-anchor="middle">3</text>
<polygon points="168.1,218.3 176.1,218.3 176.1,224.3 168.1,224.3" fill="rgb(216,179,101)"/><text xml:space="preserve" x="172.1" y="224.133" font-family="Calibri" font-size="7.5" fill="rgb(0,0,0)" text-anchor="middle">14</text>
<polygon points="176.1,218.3 184.1,218.3 184.1,224.3 176.1,224.3" fill="rgb(216,179,101)"/><text xml:space="preserve" x="180.1" y="224.133" font-family="Calibri" font-size="7.5" fill="rgb(0,0,0)" text-anchor="middle">14</text>
<polygon points="194.1,218.3 200.1,218.3 200.1,224.3 194.1,224.3" fill="rgb(255,229,229)"/>
<polygon points="200.1,218.3 206.1,218.3 206.1,224.3 200.1,224.3" fill="rgb(182,182,255)"/>
<polygon points="206.1,218.3 212.1,218.3 212.1,224.3 206.1,224.3" fill="rgb(141,141,255)"/>
<polygon points="212.1,218.3 218.1,218.3 218.1,224.3 212.1,224.3" fill="rgb(160,160,255)"/>
<polygon points="218.1,218.3 224.1,218.3 224.1,224.3 218.1,224.3" fill="rgb(172,172,255)"/>
<polygon points="224.1,218.3 230.1,218.3 230.1,224.3 224.1,224.3" fill="rgb(225,225,255)"/>
<polygon points="230.1,218.3 236.1,218.3 236.1,224.3 230.1,224.3" fill="rgb(255,184,184)"/>
<polygon points="236.1,218.3 242.1,218.3 242.1,224.3 236.1,224.3" fill="rgb(255,67,67)"/>
<polygon points="252.1,218.3 258.1,218.3 258.1,224.3 252.1,224.3" fill="rgb(254,222,222)"/>
<polygon points="258.1,218.3 264.1,218.3 264.1,224.3 258.1,224.3" fill="rgb(255,248,248)"/>
<polygon points="264.1,218.3 270.1,218.3 270.1,224.3 264.1,224.3" fill="rgb(228,228,255)"/>
<polygon points="270.1,218.3 276.1,218.3 276.1,224.3 270.1,224.3" fill="rgb(255,244,244)"/>
<polygon points="276.1,218.3 282.1,218.3 282.1,224.3 276.1,224.3" fill="rgb(206,206,255)"/>
<polygon points="282.1,218.3 288.1,218.3 288.1,224.3 282.1,224.3" fill="rgb(243,243,255)"/>
<polygon points="288.1,218.3 294.1,218.3 294.1,224.3 288.1,224.3" fill="rgb(255,168,168)"/>
<polygon points="294.1,218.3 300.1,218.3 300.1,224.3 294.1,224.3" fill="rgb(255,165,165)"/>
<polygon points="310.1,218.3 316.1,218.3 316.1,224.3 310.1,224.3" fill="rgb(255,200,200)"/>
<polygon points="316.1,218.3 322.1,218.3 322.1,224.3 316.1,224.3" fill="rgb(255,239,239)"/>
<polygon points="322.1,218.3 328.1,218.3 328.1,224.3 322.1,224.3" fill="rgb(244,244,255)"/>
<polygon points="328.1,218.3 334.1,218.3 334.1,224.3 328.1,224.3" fill="rgb(217,217,255)"/>
<polygon points="334.1,218.3 340.1,218.3 340.1,224.3 334.1,224.3" fill="rgb(238,238,255)"/>
<polygon points="340.1,218.3 346.1,218.3 346.1,224.3 340.1,224.3" fill="rgb(242,242,255)"/>
<polygon points="346.1,218.3 352.1,218.3 352.1,224.3 346.1,224.3" fill="rgb(255,245,245)"/>
<polygon points="352.1,218.3 358.1,218.3 358.1,224.3 352.1,224.3" fill="rgb(255,175,175)"/>
<polygon points="160.1,224.3 168.1,224.3 168.1,230.3 160.1,230.3" fill="rgb(156,207,203)"/><text xml:space="preserve" x="164.1" y="230.133" font-family="Calibri" font-size="7.5" fill="rgb(0,0,0)" text-anchor="middle">3</text>
<polygon points="168.1,224.3 176.1,224.3 176.1,230.3 168.1,230.3" fill="rgb(216,179,101)"/><text xml:space="preserve" x="172.1" y="230.133" font-family="Calibri" font-size="7.5" fill="rgb(0,0,0)" text-anchor="middle">14</text>
<polygon points="176.1,224.3 184.1,224.3 184.1,230.3 176.1,230.3" fill="rgb(216,179,101)"/><text xml:space="preserve" x="180.1" y="230.133" font-family="Calibri" font-size="7.5" fill="rgb(0,0,0)" text-anchor="middle">14</text>
<polygon points="194.1,224.3 200.1,224.3 200.1,230.3 194.1,230.3" fill="rgb(233,233,255)"/>
<polygon points="200.1,224.3 206.1,224.3 206.1,230.3 200.1,230.3" fill="rgb(155,155,255)"/>
<polygon points="206.1,224.3 212.1,224.3 212.1,230.3 206.1,230.3" fill="rgb(201,201,255)"/>
<polygon points="212.1,224.3 218.1,224.3 218.1,230.3 212.1,230.3" fill="rgb(209,209,255)"/>
<polygon points="218.1,224.3 224.1,224.3 224.1,230.3 218.1,230.3" fill="rgb(202,202,255)"/>
<polygon points="224.1,224.3 230.1,224.3 230.1,230.3 224.1,230.3" fill="rgb(255,157,157)"/>
<polygon points="230.1,224.3 236.1,224.3 236.1,230.3 230.1,230.3" fill="rgb(240,240,255)"/>
<polygon points="236.1,224.3 242.1,224.3 242.1,230.3 236.1,230.3" fill="rgb(255,209,209)"/>
<polygon points="252.1,224.3 258.1,224.3 258.1,230.3 252.1,230.3" fill="rgb(243,243,255)"/>
<polygon points="258.1,224.3 264.1,224.3 264.1,230.3 258.1,230.3" fill="rgb(255,251,251)"/>
<polygon points="264.1,224.3 270.1,224.3 270.1,230.3 264.1,230.3" fill="rgb(255,230,230)"/>
<polygon points="270.1,224.3 276.1,224.3 276.1,230.3 270.1,230.3" fill="rgb(255,147,147)"/>
<polygon points="276.1,224.3 282.1,224.3 282.1,230.3 276.1,230.3" fill="rgb(255,251,251)"/>
<polygon points="282.1,224.3 288.1,224.3 288.1,230.3 282.1,230.3" fill="rgb(255,236,236)"/>
<polygon points="288.1,224.3 294.1,224.3 294.1,230.3 288.1,230.3" fill="rgb(220,220,255)"/>
<polygon points="294.1,224.3 300.1,224.3 300.1,230.3 294.1,230.3" fill="rgb(231,231,255)"/>
<polygon points="310.1,224.3 316.1,224.3 316.1,230.3 310.1,230.3" fill="rgb(255,231,231)"/>
<polygon points="316.1,224.3 322.1,224.3 322.1,230.3 316.1,230.3" fill="rgb(252,252,255)"/>
<polygon points="322.1,224.3 328.1,224.3 328.1,230.3 322.1,230.3" fill="rgb(255,196,196)"/>
<polygon points="328.1,224.3 334.1,224.3 334.1,230.3 328.1,230.3" fill="rgb(255,154,154)"/>
<polygon points="334.1,224.3 340.1,224.3 340.1,230.3 334.1,230.3" fill="rgb(222,222,255)"/>
<polygon points="340.1,224.3 346.1,224.3 346.1,230.3 340.1,230.3" fill="rgb(255,201,201)"/>
<polygon points="346.1,224.3 352.1,224.3 352.1,230.3 346.1,230.3" fill="rgb(236,236,255)"/>
<polygon points="352.1,224.3 358.1,224.3 358.1,230.3 352.1,230.3" fill="rgb(255,233,233)"/>
<polygon points="160.1,230.3 168.1,230.3 168.1,236.3 160.1,236.3" fill="rgb(156,207,203)"/><text xml:space="preserve" x="164.1" y="236.133" font-family="Calibri" font-size="7.5" fill="rgb(0,0,0)" text-anchor="middle">3</text>
<polygon points="168.1,230.3 176.1,230.3 176.1,236.3 168.1,236.3" fill="rgb(216,179,101)"/><text xml:space="preserve" x="172.1" y="236.133" font-family="Calibri" font-size="7.5" fill="rgb(0,0,0)" text-anchor="middle">14</text>
<polygon points="176.1,230.3 184.1,230.3 184.1,236.3 176.1,236.3" fill="rgb(216,179,101)"/><text xml:space="preserve" x="180.1" y="236.133" font-family="Calibri" font-size="7.5" fill="rgb(0,0,0)" text-anchor="middle">14</text>
<polygon points="194.1,230.3 200.1,230.3 200.1,236.3 194.1,236.3" fill="rgb(255,249,249)"/>
<polygon points="200.1,230.3 206.1,230.3 206.1,236.3 200.1,236.3" fill="rgb(140,140,255)"/>
<polygon points="206.1,230.3 212.1,230.3 212.1,236.3 206.1,236.3" fill="rgb(251,251,255)"/>
<polygon points="212.1,230.3 218.1,230.3 218.1,236.3 212.1,236.3" fill="rgb(144,144,255)"/>
<polygon points="218.1,230.3 224.1,230.3 224.1,236.3 218.1,236.3" fill="rgb(208,208,255)"/>
<polygon points="224.1,230.3 230.1,230.3 230.1,236.3 224.1,236.3" fill="rgb(255,172,172)"/>
<polygon points="230.1,230.3 236.1,230.3 236.1,236.3 230.1,236.3" fill="rgb(255,164,164)"/>
<polygon points="236.1,230.3 242.1,230.3 242.1,236.3 236.1,236.3" fill="rgb(255,156,156)"/>
<polygon points="252.1,230.3 258.1,230.3 258.1,236.3 252.1,236.3" fill="rgb(255,207,207)"/>
<polygon points="258.1,230.3 264.1,230.3 264.1,236.3 258.1,236.3" fill="rgb(255,226,226)"/>
<polygon points="264.1,230.3 270.1,230.3 270.1,236.3 264.1,236.3" fill="rgb(254,198,198)"/>
<polygon points="270.1,230.3 276.1,230.3 276.1,236.3 270.1,236.3" fill="rgb(254,153,153)"/>
<polygon points="276.1,230.3 282.1,230.3 282.1,236.3 276.1,236.3" fill="rgb(255,244,244)"/>
<polygon points="282.1,230.3 288.1,230.3 288.1,236.3 282.1,236.3" fill="rgb(255,215,215)"/>
<polygon points="288.1,230.3 294.1,230.3 294.1,236.3 288.1,236.3" fill="rgb(255,141,141)"/>
<polygon points="294.1,230.3 300.1,230.3 300.1,236.3 294.1,236.3" fill="rgb(253,253,255)"/>
<polygon points="310.1,230.3 316.1,230.3 316.1,236.3 310.1,236.3" fill="rgb(255,138,138)"/>
<polygon points="316.1,230.3 322.1,230.3 322.1,236.3 316.1,236.3" fill="rgb(203,203,255)"/>
<polygon points="322.1,230.3 328.1,230.3 328.1,236.3 322.1,236.3" fill="rgb(255,157,157)"/>
<polygon points="328.1,230.3 334.1,230.3 334.1,236.3 328.1,236.3" fill="rgb(255,212,212)"/>
<polygon points="334.1,230.3 340.1,230.3 340.1,236.3 334.1,236.3" fill="rgb(247,247,255)"/>
<polygon points="340.1,230.3 346.1,230.3 346.1,236.3 340.1,236.3" fill="rgb(255,235,235)"/>
<polygon points="346.1,230.3 352.1,230.3 352.1,236.3 346.1,236.3" fill="rgb(255,198,198)"/>
<polygon points="352.1,230.3 358.1,230.3 358.1,236.3 352.1,236.3" fill="rgb(255,143,143)"/>
<polygon points="160.1,236.3 168.1,236.3 168.1,242.3 160.1,242.3" fill="rgb(156,207,203)"/><text xml:space="preserve" x="164.1" y="242.133" font-family="Calibri" font-size="7.5" fill="rgb(0,0,0)" text-anchor="middle">3</text>
<polygon points="168.1,236.3 176.1,236.3 176.1,242.3 168.1,242.3" fill="rgb(216,179,101)"/><text xml:space="preserve" x="172.1" y="242.133" font-family="Calibri" font-size="7.5" fill="rgb(0,0,0)" text-anchor="middle">14</text>
<polygon points="176.1,236.3 184.1,236.3 184.1,242.3 176.1,242.3" fill="rgb(216,179,101)"/><text xml:space="preserve" x="180.1" y="242.133" font-family="Calibri" font-size="7.5" fill="rgb(0,0,0)" text-anchor="middle">14</text>
<polygon points="194.1,236.3 200.1,236.3 200.1,242.3 194.1,242.3" fill="rgb(255,243,243)"/>
<polygon points="200.1,236.3 206.1,236.3 206.1,242.3 200.1,242.3" fill="rgb(202,202,255)"/>
<polygon points="206.1,236.3 212.1,236.3 212.1,242.3 206.1,242.3" fill="rgb(166,166,255)"/>
<polygon points="212.1,236.3 218.1,236.3 218.1,242.3 212.1,242.3" fill="rgb(183,183,255)"/>
<polygon points="218.1,236.3 224.1,236.3 224.1,242.3 218.1,242.3" fill="rgb(203,203,255)"/>
<polygon points="224.1,236.3 230.1,236.3 230.1,242.3 224.1,242.3" fill="rgb(196,196,255)"/>
<polygon points="230.1,236.3 236.1,236.3 236.1,242.3 230.1,242.3" fill="rgb(255,164,164)"/>
<polygon points="236.1,236.3 242.1,236.3 242.1,242.3 236.1,242.3" fill="rgb(255,62,62)"/>
<polygon points="252.1,236.3 258.1,236.3 258.1,242.3 252.1,242.3" fill="rgb(227,227,255)"/>
<polygon points="258.1,236.3 264.1,236.3 264.1,242.3 258.1,242.3" fill="rgb(255,254,254)"/>
<polygon points="264.1,236.3 270.1,236.3 270.1,242.3 264.1,242.3" fill="rgb(255,202,202)"/>
<polygon points="270.1,236.3 276.1,236.3 276.1,242.3 270.1,242.3" fill="rgb(255,152,152)"/>
<polygon points="276.1,236.3 282.1,236.3 282.1,242.3 276.1,242.3" fill="rgb(246,246,255)"/>
<polygon points="282.1,236.3 288.1,236.3 288.1,242.3 282.1,242.3" fill="rgb(255,252,252)"/>
<polygon points="288.1,236.3 294.1,236.3 294.1,242.3 288.1,242.3" fill="rgb(254,213,213)"/>
<polygon points="294.1,236.3 300.1,236.3 300.1,242.3 294.1,242.3" fill="rgb(255,192,192)"/>
<polygon points="310.1,236.3 316.1,236.3 316.1,242.3 310.1,242.3" fill="rgb(255,204,204)"/>
<polygon points="316.1,236.3 322.1,236.3 322.1,242.3 316.1,242.3" fill="rgb(238,238,255)"/>
<polygon points="322.1,236.3 328.1,236.3 328.1,242.3 322.1,242.3" fill="rgb(255,241,241)"/>
<polygon points="328.1,236.3 334.1,236.3 334.1,242.3 328.1,242.3" fill="rgb(255,154,154)"/>
<polygon points="334.1,236.3 340.1,236.3 340.1,242.3 334.1,242.3" fill="rgb(239,239,255)"/>
<polygon points="340.1,236.3 346.1,236.3 346.1,242.3 340.1,242.3" fill="rgb(255,246,246)"/>
<polygon points="346.1,236.3 352.1,236.3 352.1,242.3 346.1,242.3" fill="rgb(244,244,255)"/>
<polygon points="352.1,236.3 358.1,236.3 358.1,242.3 352.1,242.3" fill="rgb(255,237,237)"/>
<polygon points="160.1,242.3 168.1,242.3 168.1,248.3 160.1,248.3" fill="rgb(156,207,203)"/><text xml:space="preserve" x="164.1" y="248.133" font-family="Calibri" font-size="7.5" fill="rgb(0,0,0)" text-anchor="middle">3</text>
<polygon points="168.1,242.3 176.1,242.3 176.1,248.3 168.1,248.3" fill="rgb(216,179,101)"/><text xml:space="preserve" x="172.1" y="248.133" font-family="Calibri" font-size="7.5" fill="rgb(0,0,0)" text-anchor="middle">14</text>
<polygon points="176.1,242.3 184.1,242.3 184.1,248.3 176.1,248.3" fill="rgb(216,179,101)"/><text xml:space="preserve" x="180.1" y="248.133" font-family="Calibri" font-size="7.5" fill="rgb(0,0,0)" text-anchor="middle">14</text>
<polygon points="194.1,242.3 200.1,242.3 200.1,248.3 194.1,248.3" fill="rgb(255,252,252)"/>
<polygon points="200.1,242.3 206.1,242.3 206.1,248.3 200.1,248.3" fill="rgb(188,188,255)"/>
<polygon points="206.1,242.3 212.1,242.3 212.1,248.3 206.1,248.3" fill="rgb(189,189,255)"/>
<polygon points="212.1,242.3 218.1,242.3 218.1,248.3 212.1,248.3" fill="rgb(176,176,255)"/>
<polygon points="218.1,242.3 224.1,242.3 224.1,248.3 218.1,248.3" fill="rgb(177,177,255)"/>
<polygon points="224.1,242.3 230.1,242.3 230.1,248.3 224.1,248.3" fill="rgb(208,208,255)"/>
<polygon points="230.1,242.3 236.1,242.3 236.1,248.3 230.1,248.3" fill="rgb(255,168,168)"/>
<polygon points="236.1,242.3 242.1,242.3 242.1,248.3 236.1,248.3" fill="rgb(255,102,102)"/>
<polygon points="252.1,242.3 258.1,242.3 258.1,248.3 252.1,248.3" fill="rgb(255,188,188)"/>
<polygon points="258.1,242.3 264.1,242.3 264.1,248.3 258.1,248.3" fill="rgb(255,230,230)"/>
<polygon points="264.1,242.3 270.1,242.3 270.1,248.3 264.1,248.3" fill="rgb(254,197,197)"/>
<polygon points="270.1,242.3 276.1,242.3 276.1,248.3 270.1,248.3" fill="rgb(255,174,174)"/>
<polygon points="276.1,242.3 282.1,242.3 282.1,248.3 276.1,248.3" fill="rgb(233,233,255)"/>
<polygon points="282.1,242.3 288.1,242.3 288.1,248.3 282.1,248.3" fill="rgb(227,227,255)"/>
<polygon points="288.1,242.3 294.1,242.3 294.1,248.3 288.1,248.3" fill="rgb(254,254,255)"/>
<polygon points="294.1,242.3 300.1,242.3 300.1,248.3 294.1,248.3" fill="rgb(255,206,206)"/>
<polygon points="310.1,242.3 316.1,242.3 316.1,248.3 310.1,248.3" fill="rgb(255,230,230)"/>
<polygon points="316.1,242.3 322.1,242.3 322.1,248.3 316.1,248.3" fill="rgb(253,253,255)"/>
<polygon points="322.1,242.3 328.1,242.3 328.1,248.3 322.1,248.3" fill="rgb(255,250,250)"/>
<polygon points="328.1,242.3 334.1,242.3 334.1,248.3 328.1,248.3" fill="rgb(254,236,236)"/>
<polygon points="334.1,242.3 340.1,242.3 340.1,248.3 334.1,248.3" fill="rgb(221,221,255)"/>
<polygon points="340.1,242.3 346.1,242.3 346.1,248.3 340.1,248.3" fill="rgb(224,224,255)"/>
<polygon points="346.1,242.3 352.1,242.3 352.1,248.3 346.1,248.3" fill="rgb(233,233,255)"/>
<polygon points="352.1,242.3 358.1,242.3 358.1,248.3 352.1,248.3" fill="rgb(203,203,255)"/>
<polygon points="160.1,248.3 168.1,248.3 168.1,254.3 160.1,254.3" fill="rgb(156,207,203)"/><text xml:space="preserve" x="164.1" y="254.133" font-family="Calibri" font-size="7.5" fill="rgb(0,0,0)" text-anchor="middle">3</text>
<polygon points="168.1,248.3 176.1,248.3 176.1,254.3 168.1,254.3" fill="rgb(216,179,101)"/><text xml:space="preserve" x="172.1" y="254.133" font-family="Calibri" font-size="7.5" fill="rgb(0,0,0)" text-anchor="middle">14</text>
<polygon points="176.1,248.3 184.1,248.3 184.1,254.3 176.1,254.3" fill="rgb(216,179,101)"/><text xml:space="preserve" x="180.1" y="254.133" font-family="Calibri" font-size="7.5" fill="rgb(0,0,0)" text-anchor="middle">14</text>
<polygon points="194.1,248.3 200.1,248.3 200.1,254.3 194.1,254.3" fill="rgb(254,238,238)"/>
<polygon points="200.1,248.3 206.1,248.3 206.1,254.3 200.1,254.3" fill="rgb(194,194,255)"/>
<polygon points="206.1,248.3 212.1,248.3 212.1,254.3 206.1,254.3" fill="rgb(181,181,255)"/>
<polygon points="212.1,248.3 218.1,248.3 218.1,254.3 212.1,254.3" fill="rgb(135,135,255)"/>
<polygon points="218.1,248.3 224.1,248.3 224.1,254.3 218.1,254.3" fill="rgb(214,214,255)"/>
<polygon points="224.1,248.3 230.1,248.3 230.1,254.3 224.1,254.3" fill="rgb(245,245,255)"/>
<polygon points="230.1,248.3 236.1,248.3 236.1,254.3 230.1,254.3" fill="rgb(255,162,162)"/>
<polygon points="236.1,248.3 242.1,248.3 242.1,254.3 236.1,254.3" fill="rgb(255,116,116)"/>
<polygon points="252.1,248.3 258.1,248.3 258.1,254.3 252.1,254.3" fill="rgb(255,201,201)"/>
<polygon points="258.1,248.3 264.1,248.3 264.1,254.3 258.1,254.3" fill="rgb(255,252,252)"/>
<polygon points="264.1,248.3 270.1,248.3 270.1,254.3 264.1,254.3" fill="rgb(223,223,255)"/>
<polygon points="270.1,248.3 276.1,248.3 276.1,254.3 270.1,254.3" fill="rgb(232,232,255)"/>
<polygon points="276.1,248.3 282.1,248.3 282.1,254.3 276.1,254.3" fill="rgb(255,229,229)"/>
<polygon points="282.1,248.3 288.1,248.3 288.1,254.3 282.1,254.3" fill="rgb(255,196,196)"/>
<polygon points="288.1,248.3 294.1,248.3 294.1,254.3 288.1,254.3" fill="rgb(255,148,148)"/>
<polygon points="294.1,248.3 300.1,248.3 300.1,254.3 294.1,254.3" fill="rgb(255,240,240)"/>
<polygon points="310.1,248.3 316.1,248.3 316.1,254.3 310.1,254.3" fill="rgb(255,184,184)"/>
<polygon points="316.1,248.3 322.1,248.3 322.1,254.3 316.1,254.3" fill="rgb(255,234,234)"/>
<polygon points="322.1,248.3 328.1,248.3 328.1,254.3 322.1,254.3" fill="rgb(236,236,255)"/>
<polygon points="328.1,248.3 334.1,248.3 334.1,254.3 328.1,254.3" fill="rgb(217,217,255)"/>
<polygon points="334.1,248.3 340.1,248.3 340.1,254.3 334.1,254.3" fill="rgb(255,235,235)"/>
<polygon points="340.1,248.3 346.1,248.3 346.1,254.3 340.1,254.3" fill="rgb(255,187,187)"/>
<polygon points="346.1,248.3 352.1,248.3 352.1,254.3 346.1,254.3" fill="rgb(255,120,120)"/>
<polygon points="352.1,248.3 358.1,248.3 358.1,254.3 352.1,254.3" fill="rgb(255,203,203)"/>
<polygon points="160.1,254.3 168.1,254.3 168.1,260.3 160.1,260.3" fill="rgb(156,207,203)"/><text xml:space="preserve" x="164.1" y="260.133" font-family="Calibri" font-size="7.5" fill="rgb(0,0,0)" text-anchor="middle">3</text>
<polygon points="168.1,254.3 176.1,254.3 176.1,260.3 168.1,260.3" fill="rgb(216,179,101)"/><text xml:space="preserve" x="172.1" y="260.133" font-family="Calibri" font-size="7.5" fill="rgb(0,0,0)" text-anchor="middle">14</text>
<polygon points="176.1,254.3 184.1,254.3 184.1,260.3 176.1,260.3" fill="rgb(216,179,101)"/><text xml:space="preserve" x="180.1" y="260.133" font-family="Calibri" font-size="7.5" fill="rgb(0,0,0)" text-anchor="middle">14</text>
<polygon points="194.1,254.3 200.1,254.3 200.1,260.3 194.1,260.3" fill="rgb(245,245,255)"/>
<polygon points="200.1,254.3 206.1,254.3 206.1,260.3 200.1,260.3" fill="rgb(178,178,255)"/>
<polygon points="206.1,254.3 212.1,254.3 212.1,260.3 206.1,260.3" fill="rgb(199,199,255)"/>
<polygon points="212.1,254.3 218.1,254.3 218.1,260.3 212.1,260.3" fill="rgb(165,165,255)"/>
<polygon points="218.1,254.3 224.1,254.3 224.1,260.3 218.1,260.3" fill="rgb(176,176,255)"/>
<polygon points="224.1,254.3 230.1,254.3 230.1,260.3 224.1,260.3" fill="rgb(255,235,235)"/>
<polygon points="230.1,254.3 236.1,254.3 236.1,260.3 230.1,260.3" fill="rgb(255,158,158)"/>
<polygon points="236.1,254.3 242.1,254.3 242.1,260.3 236.1,260.3" fill="rgb(255,81,81)"/>
<polygon points="252.1,254.3 258.1,254.3 258.1,260.3 252.1,260.3" fill="rgb(255,234,234)"/>
<polygon points="258.1,254.3 264.1,254.3 264.1,260.3 258.1,260.3" fill="rgb(243,243,255)"/>
<polygon points="264.1,254.3 270.1,254.3 270.1,260.3 264.1,260.3" fill="rgb(255,244,244)"/>
<polygon points="270.1,254.3 276.1,254.3 276.1,260.3 270.1,260.3" fill="rgb(255,253,253)"/>
<polygon points="276.1,254.3 282.1,254.3 282.1,260.3 276.1,260.3" fill="rgb(211,211,255)"/>
<polygon points="282.1,254.3 288.1,254.3 288.1,260.3 282.1,260.3" fill="rgb(175,175,255)"/>
<polygon points="288.1,254.3 294.1,254.3 294.1,260.3 288.1,260.3" fill="rgb(237,237,255)"/>
<polygon points="294.1,254.3 300.1,254.3 300.1,260.3 294.1,260.3" fill="rgb(249,249,255)"/>
<polygon points="310.1,254.3 316.1,254.3 316.1,260.3 310.1,260.3" fill="rgb(255,218,218)"/>
<polygon points="316.1,254.3 322.1,254.3 322.1,260.3 316.1,260.3" fill="rgb(255,249,249)"/>
<polygon points="322.1,254.3 328.1,254.3 328.1,260.3 322.1,260.3" fill="rgb(255,221,221)"/>
<polygon points="328.1,254.3 334.1,254.3 334.1,260.3 328.1,260.3" fill="rgb(255,206,206)"/>
<polygon points="334.1,254.3 340.1,254.3 340.1,260.3 334.1,260.3" fill="rgb(210,210,255)"/>
<polygon points="340.1,254.3 346.1,254.3 346.1,260.3 340.1,260.3" fill="rgb(235,235,255)"/>
<polygon points="346.1,254.3 352.1,254.3 352.1,260.3 346.1,260.3" fill="rgb(206,206,255)"/>
<polygon points="352.1,254.3 358.1,254.3 358.1,260.3 352.1,260.3" fill="rgb(255,240,240)"/>
<polygon points="160.1,260.3 168.1,260.3 168.1,266.3 160.1,266.3" fill="rgb(156,207,203)"/><text xml:space="preserve" x="164.1" y="266.133" font-family="Calibri" font-size="7.5" fill="rgb(0,0,0)" text-anchor="middle">3</text>
<polygon points="168.1,260.3 176.1,260.3 176.1,266.3 168.1,266.3" fill="rgb(216,179,101)"/><text xml:space="preserve" x="172.1" y="266.133" font-family="Calibri" font-size="7.5" fill="rgb(0,0,0)" text-anchor="middle">14</text>
<polygon points="176.1,260.3 184.1,260.3 184.1,266.3 176.1,266.3" fill="rgb(216,179,101)"/><text xml:space="preserve" x="180.1" y="266.133" font-family="Calibri" font-size="7.5" fill="rgb(0,0,0)" text-anchor="middle">14</text>
<polygon points="194.1,260.3 200.1,260.3 200.1,266.3 194.1,266.3" fill="rgb(247,247,255)"/>
<polygon points="200.1,260.3 206.1,260.3 206.1,266.3 200.1,266.3" fill="rgb(180,180,255)"/>
<polygon points="206.1,260.3 212.1,260.3 212.1,266.3 206.1,266.3" fill="rgb(178,178,255)"/>
<polygon points="212.1,260.3 218.1,260.3 218.1,266.3 212.1,266.3" fill="rgb(179,179,255)"/>
<polygon points="218.1,260.3 224.1,260.3 224.1,266.3 218.1,266.3" fill="rgb(194,194,255)"/>
<polygon points="224.1,260.3 230.1,260.3 230.1,266.3 224.1,266.3" fill="rgb(231,231,255)"/>
<polygon points="230.1,260.3 236.1,260.3 236.1,266.3 230.1,266.3" fill="rgb(255,242,242)"/>
<polygon points="236.1,260.3 242.1,260.3 242.1,266.3 236.1,266.3" fill="rgb(255,181,181)"/>
<polygon points="252.1,260.3 258.1,260.3 258.1,266.3 252.1,266.3" fill="rgb(219,219,255)"/>
<polygon points="258.1,260.3 264.1,260.3 264.1,266.3 258.1,266.3" fill="rgb(255,246,246)"/>
<polygon points="264.1,260.3 270.1,260.3 270.1,266.3 264.1,266.3" fill="rgb(255,239,239)"/>
<polygon points="270.1,260.3 276.1,260.3 276.1,266.3 270.1,266.3" fill="rgb(255,238,238)"/>
<polygon points="276.1,260.3 282.1,260.3 282.1,266.3 276.1,266.3" fill="rgb(228,228,255)"/>
<polygon points="282.1,260.3 288.1,260.3 288.1,266.3 282.1,266.3" fill="rgb(199,199,255)"/>
<polygon points="288.1,260.3 294.1,260.3 294.1,266.3 288.1,266.3" fill="rgb(215,215,255)"/>
<polygon points="294.1,260.3 300.1,260.3 300.1,266.3 294.1,266.3" fill="rgb(224,224,255)"/>
<polygon points="310.1,260.3 316.1,260.3 316.1,266.3 310.1,266.3" fill="rgb(255,243,243)"/>
<polygon points="316.1,260.3 322.1,260.3 322.1,266.3 316.1,266.3" fill="rgb(252,252,255)"/>
<polygon points="322.1,260.3 328.1,260.3 328.1,266.3 322.1,266.3" fill="rgb(255,223,223)"/>
<polygon points="328.1,260.3 334.1,260.3 334.1,266.3 328.1,266.3" fill="rgb(255,200,200)"/>
<polygon points="334.1,260.3 340.1,260.3 340.1,266.3 334.1,266.3" fill="rgb(250,250,255)"/>
<polygon points="340.1,260.3 346.1,260.3 346.1,266.3 340.1,266.3" fill="rgb(184,184,255)"/>
<polygon points="346.1,260.3 352.1,260.3 352.1,266.3 346.1,266.3" fill="rgb(202,202,255)"/>
<polygon points="352.1,260.3 358.1,260.3 358.1,266.3 352.1,266.3" fill="rgb(204,204,255)"/>
<polygon points="160.1,266.3 168.1,266.3 168.1,272.3 160.1,272.3" fill="rgb(156,207,203)"/><text xml:space="preserve" x="164.1" y="272.133" font-family="Calibri" font-size="7.5" fill="rgb(0,0,0)" text-anchor="middle">3</text>
<polygon points="168.1,266.3 176.1,266.3 176.1,272.3 168.1,272.3" fill="rgb(216,179,101)"/><text xml:space="preserve" x="172.1" y="272.133" font-family="Calibri" font-size="7.5" fill="rgb(0,0,0)" text-anchor="middle">14</text>
<polygon points="176.1,266.3 184.1,266.3 184.1,272.3 176.1,272.3" fill="rgb(216,179,101)"/><text xml:space="preserve" x="180.1" y="272.133" font-family="Calibri" font-size="7.5" fill="rgb(0,0,0)" text-anchor="middle">14</text>
<polygon points="194.1,266.3 200.1,266.3 200.1,272.3 194.1,272.3" fill="rgb(255,249,249)"/>
<polygon points="200.1,266.3 206.1,266.3 206.1,272.3 200.1,272.3" fill="rgb(155,155,255)"/>
<polygon points="206.1,266.3 212.1,266.3 212.1,272.3 206.1,272.3" fill="rgb(156,156,255)"/>
<polygon points="212.1,266.3 218.1,266.3 218.1,272.3 212.1,272.3" fill="rgb(162,162,255)"/>
<polygon points="218.1,266.3 224.1,266.3 224.1,272.3 218.1,272.3" fill="rgb(185,185,255)"/>
<polygon points="224.1,266.3 230.1,266.3 230.1,272.3 224.1,272.3" fill="rgb(255,252,252)"/>
<polygon points="230.1,266.3 236.1,266.3 236.1,272.3 230.1,272.3" fill="rgb(255,214,214)"/>
<polygon points="236.1,266.3 242.1,266.3 242.1,272.3 236.1,272.3" fill="rgb(255,114,114)"/>
<polygon points="252.1,266.3 258.1,266.3 258.1,272.3 252.1,272.3" fill="rgb(255,212,212)"/>
<polygon points="258.1,266.3 264.1,266.3 264.1,272.3 258.1,272.3" fill="rgb(225,225,255)"/>
<polygon points="264.1,266.3 270.1,266.3 270.1,272.3 264.1,272.3" fill="rgb(255,247,247)"/>
<polygon points="270.1,266.3 276.1,266.3 276.1,272.3 270.1,272.3" fill="rgb(244,244,255)"/>
<polygon points="276.1,266.3 282.1,266.3 282.1,272.3 276.1,272.3" fill="rgb(221,221,255)"/>
<polygon points="282.1,266.3 288.1,266.3 288.1,272.3 282.1,272.3" fill="rgb(254,219,219)"/>
<polygon points="288.1,266.3 294.1,266.3 294.1,272.3 288.1,272.3" fill="rgb(255,243,243)"/>
<polygon points="294.1,266.3 300.1,266.3 300.1,272.3 294.1,272.3" fill="rgb(255,243,243)"/>
<polygon points="310.1,266.3 316.1,266.3 316.1,272.3 310.1,272.3" fill="rgb(255,218,218)"/>
<polygon points="316.1,266.3 322.1,266.3 322.1,272.3 316.1,272.3" fill="rgb(246,246,255)"/>
<polygon points="322.1,266.3 328.1,266.3 328.1,272.3 322.1,272.3" fill="rgb(255,242,242)"/>
<polygon points="328.1,266.3 334.1,266.3 334.1,272.3 328.1,272.3" fill="rgb(255,194,194)"/>
<polygon points="334.1,266.3 340.1,266.3 340.1,272.3 334.1,272.3" fill="rgb(231,231,255)"/>
<polygon points="340.1,266.3 346.1,266.3 346.1,272.3 340.1,272.3" fill="rgb(206,206,255)"/>
<polygon points="346.1,266.3 352.1,266.3 352.1,272.3 346.1,272.3" fill="rgb(214,214,255)"/>
<polygon points="352.1,266.3 358.1,266.3 358.1,272.3 352.1,272.3" fill="rgb(255,235,235)"/>
<polygon points="160.1,272.3 168.1,272.3 168.1,278.3 160.1,278.3" fill="rgb(156,207,203)"/><text xml:space="preserve" x="164.1" y="278.133" font-family="Calibri" font-size="7.5" fill="rgb(0,0,0)" text-anchor="middle">3</text>
<polygon points="168.1,272.3 176.1,272.3 176.1,278.3 168.1,278.3" fill="rgb(216,179,101)"/><text xml:space="preserve" x="172.1" y="278.133" font-family="Calibri" font-size="7.5" fill="rgb(0,0,0)" text-anchor="middle">14</text>
<polygon points="176.1,272.3 184.1,272.3 184.1,278.3 176.1,278.3" fill="rgb(216,179,101)"/><text xml:space="preserve" x="180.1" y="278.133" font-family="Calibri" font-size="7.5" fill="rgb(0,0,0)" text-anchor="middle">14</text>
<polygon points="194.1,272.3 200.1,272.3 200.1,278.3 194.1,278.3" fill="rgb(244,244,255)"/>
<polygon points="200.1,272.3 206.1,272.3 206.1,278.3 200.1,278.3" fill="rgb(176,176,255)"/>
<polygon points="206.1,272.3 212.1,272.3 212.1,278.3 206.1,278.3" fill="rgb(200,200,255)"/>
<polygon points="212.1,272.3 218.1,272.3 218.1,278.3 212.1,278.3" fill="rgb(207,207,255)"/>
<polygon points="218.1,272.3 224.1,272.3 224.1,278.3 218.1,278.3" fill="rgb(185,185,255)"/>
<polygon points="224.1,272.3 230.1,272.3 230.1,278.3 224.1,278.3" fill="rgb(255,216,216)"/>
<polygon points="230.1,272.3 236.1,272.3 236.1,278.3 230.1,278.3" fill="rgb(255,170,170)"/>
<polygon points="236.1,272.3 242.1,272.3 242.1,278.3 236.1,278.3" fill="rgb(255,143,143)"/>
<polygon points="252.1,272.3 258.1,272.3 258.1,278.3 252.1,278.3" fill="rgb(235,235,255)"/>
<polygon points="258.1,272.3 264.1,272.3 264.1,278.3 258.1,278.3" fill="rgb(232,232,255)"/>
<polygon points="264.1,272.3 270.1,272.3 270.1,278.3 264.1,278.3" fill="rgb(255,232,232)"/>
<polygon points="270.1,272.3 276.1,272.3 276.1,278.3 270.1,278.3" fill="rgb(250,250,255)"/>
<polygon points="276.1,272.3 282.1,272.3 282.1,278.3 276.1,278.3" fill="rgb(231,231,255)"/>
<polygon points="282.1,272.3 288.1,272.3 288.1,278.3 282.1,278.3" fill="rgb(229,229,255)"/>
<polygon points="288.1,272.3 294.1,272.3 294.1,278.3 288.1,278.3" fill="rgb(255,240,240)"/>
<polygon points="294.1,272.3 300.1,272.3 300.1,278.3 294.1,278.3" fill="rgb(255,163,163)"/>
<polygon points="310.1,272.3 316.1,272.3 316.1,278.3 310.1,278.3" fill="rgb(255,234,234)"/>
<polygon points="316.1,272.3 322.1,272.3 322.1,278.3 316.1,278.3" fill="rgb(252,252,255)"/>
<polygon points="322.1,272.3 328.1,272.3 328.1,278.3 322.1,278.3" fill="rgb(255,228,228)"/>
<polygon points="328.1,272.3 334.1,272.3 334.1,278.3 328.1,278.3" fill="rgb(255,182,182)"/>
<polygon points="334.1,272.3 340.1,272.3 340.1,278.3 334.1,278.3" fill="rgb(255,242,242)"/>
<polygon points="340.1,272.3 346.1,272.3 346.1,278.3 340.1,278.3" fill="rgb(192,192,255)"/>
<polygon points="346.1,272.3 352.1,272.3 352.1,278.3 346.1,278.3" fill="rgb(251,251,255)"/>
<polygon points="352.1,272.3 358.1,272.3 358.1,278.3 352.1,278.3" fill="rgb(255,243,243)"/>
<polygon points="160.1,278.3 168.1,278.3 168.1,284.3 160.1,284.3" fill="rgb(156,207,203)"/><text xml:space="preserve" x="164.1" y="284.133" font-family="Calibri" font-size="7.5" fill="rgb(0,0,0)" text-anchor="middle">3</text>
<polygon points="168.1,278.3 176.1,278.3 176.1,284.3 168.1,284.3" fill="rgb(216,179,101)"/><text xml:space="preserve" x="172.1" y="284.133" font-family="Calibri" font-size="7.5" fill="rgb(0,0,0)" text-anchor="middle">14</text>
<polygon points="176.1,278.3 184.1,278.3 184.1,284.3 176.1,284.3" fill="rgb(216,179,101)"/><text xml:space="preserve" x="180.1" y="284.133" font-family="Calibri" font-size="7.5" fill="rgb(0,0,0)" text-anchor="middle">14</text>
<polygon points="194.1,278.3 200.1,278.3 200.1,284.3 194.1,284.3" fill="rgb(255,237,237)"/>
<polygon points="200.1,278.3 206.1,278.3 206.1,284.3 200.1,284.3" fill="rgb(229,229,255)"/>
<polygon points="206.1,278.3 212.1,278.3 212.1,284.3 206.1,284.3" fill="rgb(162,162,255)"/>
<polygon points="212.1,278.3 218.1,278.3 218.1,284.3 212.1,284.3" fill="rgb(184,184,255)"/>
<polygon points="218.1,278.3 224.1,278.3 224.1,284.3 218.1,284.3" fill="rgb(191,191,255)"/>
<polygon points="224.1,278.3 230.1,278.3 230.1,284.3 224.1,284.3" fill="rgb(124,124,255)"/>
<polygon points="230.1,278.3 236.1,278.3 236.1,284.3 230.1,284.3" fill="rgb(255,242,242)"/>
<polygon points="236.1,278.3 242.1,278.3 242.1,284.3 236.1,284.3" fill="rgb(255,146,146)"/>
<polygon points="252.1,278.3 258.1,278.3 258.1,284.3 252.1,284.3" fill="rgb(238,238,255)"/>
<polygon points="258.1,278.3 264.1,278.3 264.1,284.3 258.1,284.3" fill="rgb(255,248,248)"/>
<polygon points="264.1,278.3 270.1,278.3 270.1,284.3 264.1,284.3" fill="rgb(128,128,255)"/>
<polygon points="270.1,278.3 276.1,278.3 276.1,284.3 270.1,284.3" fill="rgb(213,213,255)"/>
<polygon points="276.1,278.3 282.1,278.3 282.1,284.3 276.1,284.3" fill="rgb(218,218,255)"/>
<polygon points="282.1,278.3 288.1,278.3 288.1,284.3 282.1,284.3" fill="rgb(255,234,234)"/>
<polygon points="288.1,278.3 294.1,278.3 294.1,284.3 288.1,284.3" fill="rgb(255,252,252)"/>
<polygon points="294.1,278.3 300.1,278.3 300.1,284.3 294.1,284.3" fill="rgb(255,196,196)"/>
<polygon points="310.1,278.3 316.1,278.3 316.1,284.3 310.1,284.3" fill="rgb(255,188,188)"/>
<polygon points="316.1,278.3 322.1,278.3 322.1,284.3 316.1,284.3" fill="rgb(255,225,225)"/>
<polygon points="322.1,278.3 328.1,278.3 328.1,284.3 322.1,284.3" fill="rgb(245,245,255)"/>
<polygon points="328.1,278.3 334.1,278.3 334.1,284.3 328.1,284.3" fill="rgb(255,253,253)"/>
<polygon points="334.1,278.3 340.1,278.3 340.1,284.3 334.1,284.3" fill="rgb(238,238,255)"/>
<polygon points="340.1,278.3 346.1,278.3 346.1,284.3 340.1,284.3" fill="rgb(236,236,255)"/>
<polygon points="346.1,278.3 352.1,278.3 352.1,284.3 346.1,284.3" fill="rgb(254,251,251)"/>
<polygon points="352.1,278.3 358.1,278.3 358.1,284.3 352.1,284.3" fill="rgb(255,180,180)"/>
<polygon points="160.1,284.3 168.1,284.3 168.1,290.3 160.1,290.3" fill="rgb(156,207,203)"/><text xml:space="preserve" x="164.1" y="290.133" font-family="Calibri" font-size="7.5" fill="rgb(0,0,0)" text-anchor="middle">3</text>
<polygon points="168.1,284.3 176.1,284.3 176.1,290.3 168.1,290.3" fill="rgb(216,179,101)"/><text xml:space="preserve" x="172.1" y="290.133" font-family="Calibri" font-size="7.5" fill="rgb(0,0,0)" text-anchor="middle">14</text>
<polygon points="176.1,284.3 184.1,284.3 184.1,290.3 176.1,290.3" fill="rgb(216,179,101)"/><text xml:space="preserve" x="180.1" y="290.133" font-family="Calibri" font-size="7.5" fill="rgb(0,0,0)" text-anchor="middle">14</text>
<polygon points="194.1,284.3 200.1,284.3 200.1,290.3 194.1,290.3" fill="rgb(241,241,255)"/>
<polygon points="200.1,284.3 206.1,284.3 206.1,290.3 200.1,290.3" fill="rgb(159,159,255)"/>
<polygon points="206.1,284.3 212.1,284.3 212.1,290.3 206.1,290.3" fill="rgb(146,146,255)"/>
<polygon points="212.1,284.3 218.1,284.3 218.1,290.3 212.1,290.3" fill="rgb(154,154,255)"/>
<polygon points="218.1,284.3 224.1,284.3 224.1,290.3 218.1,290.3" fill="rgb(160,160,255)"/>
<polygon points="224.1,284.3 230.1,284.3 230.1,290.3 224.1,290.3" fill="rgb(255,241,241)"/>
<polygon points="230.1,284.3 236.1,284.3 236.1,290.3 230.1,290.3" fill="rgb(253,253,255)"/>
<polygon points="236.1,284.3 242.1,284.3 242.1,290.3 236.1,290.3" fill="rgb(255,158,158)"/>
<polygon points="252.1,284.3 258.1,284.3 258.1,290.3 252.1,290.3" fill="rgb(255,219,219)"/>
<polygon points="258.1,284.3 264.1,284.3 264.1,290.3 258.1,290.3" fill="rgb(251,251,255)"/>
<polygon points="264.1,284.3 270.1,284.3 270.1,290.3 264.1,290.3" fill="rgb(255,253,253)"/>
<polygon points="270.1,284.3 276.1,284.3 276.1,290.3 270.1,290.3" fill="rgb(255,180,180)"/>
<polygon points="276.1,284.3 282.1,284.3 282.1,290.3 276.1,290.3" fill="rgb(196,196,255)"/>
<polygon points="282.1,284.3 288.1,284.3 288.1,290.3 282.1,290.3" fill="rgb(255,209,209)"/>
<polygon points="288.1,284.3 294.1,284.3 294.1,290.3 288.1,290.3" fill="rgb(255,228,228)"/>
<polygon points="294.1,284.3 300.1,284.3 300.1,290.3 294.1,290.3" fill="rgb(243,243,255)"/>
<polygon points="310.1,284.3 316.1,284.3 316.1,290.3 310.1,290.3" fill="rgb(254,233,233)"/>
<polygon points="316.1,284.3 322.1,284.3 322.1,290.3 316.1,290.3" fill="rgb(214,214,255)"/>
<polygon points="322.1,284.3 328.1,284.3 328.1,290.3 322.1,290.3" fill="rgb(255,187,187)"/>
<polygon points="328.1,284.3 334.1,284.3 334.1,290.3 328.1,290.3" fill="rgb(255,183,183)"/>
<polygon points="334.1,284.3 340.1,284.3 340.1,290.3 334.1,290.3" fill="rgb(204,204,255)"/>
<polygon points="340.1,284.3 346.1,284.3 346.1,290.3 340.1,290.3" fill="rgb(254,242,242)"/>
<polygon points="346.1,284.3 352.1,284.3 352.1,290.3 346.1,290.3" fill="rgb(255,253,253)"/>
<polygon points="352.1,284.3 358.1,284.3 358.1,290.3 352.1,290.3" fill="rgb(254,254,255)"/>
<polygon points="160.1,290.3 168.1,290.3 168.1,296.3 160.1,296.3" fill="rgb(156,207,203)"/><text xml:space="preserve" x="164.1" y="296.133" font-family="Calibri" font-size="7.5" fill="rgb(0,0,0)" text-anchor="middle">3</text>
<polygon points="168.1,290.3 176.1,290.3 176.1,296.3 168.1,296.3" fill="rgb(216,179,101)"/><text xml:space="preserve" x="172.1" y="296.133" font-family="Calibri" font-size="7.5" fill="rgb(0,0,0)" text-anchor="middle">14</text>
<polygon points="176.1,290.3 184.1,290.3 184.1,296.3 176.1,296.3" fill="rgb(216,179,101)"/><text xml:space="preserve" x="180.1" y="296.133" font-family="Calibri" font-size="7.5" fill="rgb(0,0,0)" text-anchor="middle">14</text>
<polygon points="194.1,290.3 200.1,290.3 200.1,296.3 194.1,296.3" fill="rgb(248,248,255)"/>
<polygon points="200.1,290.3 206.1,290.3 206.1,296.3 200.1,296.3" fill="rgb(195,195,255)"/>
<polygon points="206.1,290.3 212.1,290.3 212.1,296.3 206.1,296.3" fill="rgb(236,236,255)"/>
<polygon points="212.1,290.3 218.1,290.3 218.1,296.3 212.1,296.3" fill="rgb(135,135,255)"/>
<polygon points="218.1,290.3 224.1,290.3 224.1,296.3 218.1,296.3" fill="rgb(180,180,255)"/>
<polygon points="224.1,290.3 230.1,290.3 230.1,296.3 224.1,296.3" fill="rgb(255,242,242)"/>
<polygon points="230.1,290.3 236.1,290.3 236.1,296.3 230.1,296.3" fill="rgb(254,193,193)"/>
<polygon points="236.1,290.3 242.1,290.3 242.1,296.3 236.1,296.3" fill="rgb(255,92,92)"/>
<polygon points="252.1,290.3 258.1,290.3 258.1,296.3 252.1,296.3" fill="rgb(211,211,255)"/>
<polygon points="258.1,290.3 264.1,290.3 264.1,296.3 258.1,296.3" fill="rgb(255,238,238)"/>
<polygon points="264.1,290.3 270.1,290.3 270.1,296.3 264.1,296.3" fill="rgb(254,200,200)"/>
<polygon points="270.1,290.3 276.1,290.3 276.1,296.3 270.1,296.3" fill="rgb(255,216,216)"/>
<polygon points="276.1,290.3 282.1,290.3 282.1,296.3 276.1,296.3" fill="rgb(211,211,255)"/>
<polygon points="282.1,290.3 288.1,290.3 288.1,296.3 282.1,296.3" fill="rgb(169,169,255)"/>
<polygon points="288.1,290.3 294.1,290.3 294.1,296.3 288.1,296.3" fill="rgb(254,234,234)"/>
<polygon points="294.1,290.3 300.1,290.3 300.1,296.3 294.1,296.3" fill="rgb(255,169,169)"/>
<polygon points="310.1,290.3 316.1,290.3 316.1,296.3 310.1,296.3" fill="rgb(255,215,215)"/>
<polygon points="316.1,290.3 322.1,290.3 322.1,296.3 316.1,296.3" fill="rgb(255,239,239)"/>
<polygon points="322.1,290.3 328.1,290.3 328.1,296.3 322.1,296.3" fill="rgb(255,225,225)"/>
<polygon points="328.1,290.3 334.1,290.3 334.1,296.3 328.1,296.3" fill="rgb(255,176,176)"/>
<polygon points="334.1,290.3 340.1,290.3 340.1,296.3 334.1,296.3" fill="rgb(202,202,255)"/>
<polygon points="340.1,290.3 346.1,290.3 346.1,296.3 340.1,296.3" fill="rgb(251,251,255)"/>
<polygon points="346.1,290.3 352.1,290.3 352.1,296.3 346.1,296.3" fill="rgb(255,243,243)"/>
<polygon points="352.1,290.3 358.1,290.3 358.1,296.3 352.1,296.3" fill="rgb(255,162,162)"/>
<polygon points="160.1,296.3 168.1,296.3 168.1,302.3 160.1,302.3" fill="rgb(156,207,203)"/><text xml:space="preserve" x="164.1" y="302.133" font-family="Calibri" font-size="7.5" fill="rgb(0,0,0)" text-anchor="middle">3</text>
<polygon points="168.1,296.3 176.1,296.3 176.1,302.3 168.1,302.3" fill="rgb(216,179,101)"/><text xml:space="preserve" x="172.1" y="302.133" font-family="Calibri" font-size="7.5" fill="rgb(0,0,0)" text-anchor="middle">14</text>
<polygon points="176.1,296.3 184.1,296.3 184.1,302.3 176.1,302.3" fill="rgb(216,179,101)"/><text xml:space="preserve" x="180.1" y="302.133" font-family="Calibri" font-size="7.5" fill="rgb(0,0,0)" text-anchor="middle">14</text>
<polygon points="194.1,296.3 200.1,296.3 200.1,302.3 194.1,302.3" fill="rgb(223,223,255)"/>
<polygon points="200.1,296.3 206.1,296.3 206.1,302.3 200.1,302.3" fill="rgb(191,191,255)"/>
<polygon points="206.1,296.3 212.1,296.3 212.1,302.3 206.1,302.3" fill="rgb(166,166,255)"/>
<polygon points="212.1,296.3 218.1,296.3 218.1,302.3 212.1,302.3" fill="rgb(182,182,255)"/>
<polygon points="218.1,296.3 224.1,296.3 224.1,302.3 218.1,302.3" fill="rgb(192,192,255)"/>
<polygon points="224.1,296.3 230.1,296.3 230.1,302.3 224.1,302.3" fill="rgb(233,233,255)"/>
<polygon points="230.1,296.3 236.1,296.3 236.1,302.3 230.1,302.3" fill="rgb(255,188,188)"/>
<polygon points="236.1,296.3 242.1,296.3 242.1,302.3 236.1,302.3" fill="rgb(255,148,148)"/>
<polygon points="252.1,296.3 258.1,296.3 258.1,302.3 252.1,302.3" fill="rgb(255,254,254)"/>
<polygon points="258.1,296.3 264.1,296.3 264.1,302.3 258.1,302.3" fill="rgb(255,233,233)"/>
<polygon points="264.1,296.3 270.1,296.3 270.1,302.3 264.1,302.3" fill="rgb(255,173,173)"/>
<polygon points="270.1,296.3 276.1,296.3 276.1,302.3 270.1,302.3" fill="rgb(255,106,106)"/>
<polygon points="276.1,296.3 282.1,296.3 282.1,302.3 276.1,302.3" fill="rgb(223,223,255)"/>
<polygon points="282.1,296.3 288.1,296.3 288.1,302.3 282.1,302.3" fill="rgb(255,207,207)"/>
<polygon points="288.1,296.3 294.1,296.3 294.1,302.3 288.1,302.3" fill="rgb(255,140,140)"/>
<polygon points="294.1,296.3 300.1,296.3 300.1,302.3 294.1,302.3" fill="rgb(230,230,255)"/>
<polygon points="310.1,296.3 316.1,296.3 316.1,302.3 310.1,302.3" fill="rgb(255,194,194)"/>
<polygon points="316.1,296.3 322.1,296.3 322.1,302.3 316.1,302.3" fill="rgb(255,201,201)"/>
<polygon points="322.1,296.3 328.1,296.3 328.1,302.3 322.1,302.3" fill="rgb(255,167,167)"/>
<polygon points="328.1,296.3 334.1,296.3 334.1,302.3 328.1,302.3" fill="rgb(255,112,112)"/>
<polygon points="334.1,296.3 340.1,296.3 340.1,302.3 334.1,302.3" fill="rgb(247,247,255)"/>
<polygon points="340.1,296.3 346.1,296.3 346.1,302.3 340.1,302.3" fill="rgb(251,251,255)"/>
<polygon points="346.1,296.3 352.1,296.3 352.1,302.3 346.1,302.3" fill="rgb(255,179,179)"/>
<polygon points="352.1,296.3 358.1,296.3 358.1,302.3 352.1,302.3" fill="rgb(255,165,165)"/>
<polygon points="160.1,302.3 168.1,302.3 168.1,308.3 160.1,308.3" fill="rgb(156,207,203)"/><text xml:space="preserve" x="164.1" y="308.133" font-family="Calibri" font-size="7.5" fill="rgb(0,0,0)" text-anchor="middle">3</text>
<polygon points="168.1,302.3 176.1,302.3 176.1,308.3 168.1,308.3" fill="rgb(216,179,101)"/><text xml:space="preserve" x="172.1" y="308.133" font-family="Calibri" font-size="7.5" fill="rgb(0,0,0)" text-anchor="middle">14</text>
<polygon points="176.1,302.3 184.1,302.3 184.1,308.3 176.1,308.3" fill="rgb(216,179,101)"/><text xml:space="preserve" x="180.1" y="308.133" font-family="Calibri" font-size="7.5" fill="rgb(0,0,0)" text-anchor="middle">14</text>
<polygon points="194.1,302.3 200.1,302.3 200.1,308.3 194.1,308.3" fill="rgb(255,218,218)"/>
<polygon points="200.1,302.3 206.1,302.3 206.1,308.3 200.1,308.3" fill="rgb(154,154,255)"/>
<polygon points="206.1,302.3 212.1,302.3 212.1,308.3 206.1,308.3" fill="rgb(185,185,255)"/>
<polygon points="212.1,302.3 218.1,302.3 218.1,308.3 212.1,308.3" fill="rgb(198,198,255)"/>
<polygon points="218.1,302.3 224.1,302.3 224.1,308.3 218.1,308.3" fill="rgb(198,198,255)"/>
<polygon points="224.1,302.3 230.1,302.3 230.1,308.3 224.1,308.3" fill="rgb(255,186,186)"/>
<polygon points="230.1,302.3 236.1,302.3 236.1,308.3 230.1,308.3" fill="rgb(255,114,114)"/>
<polygon points="236.1,302.3 242.1,302.3 242.1,308.3 236.1,308.3" fill="rgb(255,143,143)"/>
<polygon points="252.1,302.3 258.1,302.3 258.1,308.3 252.1,308.3" fill="rgb(255,246,246)"/>
<polygon points="258.1,302.3 264.1,302.3 264.1,308.3 258.1,308.3" fill="rgb(237,237,255)"/>
<polygon points="264.1,302.3 270.1,302.3 270.1,308.3 264.1,308.3" fill="rgb(255,203,203)"/>
<polygon points="270.1,302.3 276.1,302.3 276.1,308.3 270.1,308.3" fill="rgb(255,229,229)"/>
<polygon points="276.1,302.3 282.1,302.3 282.1,308.3 276.1,308.3" fill="rgb(222,222,255)"/>
<polygon points="282.1,302.3 288.1,302.3 288.1,308.3 282.1,308.3" fill="rgb(255,176,176)"/>
<polygon points="288.1,302.3 294.1,302.3 294.1,308.3 288.1,308.3" fill="rgb(215,215,255)"/>
<polygon points="294.1,302.3 300.1,302.3 300.1,308.3 294.1,308.3" fill="rgb(254,254,255)"/>
<polygon points="310.1,302.3 316.1,302.3 316.1,308.3 310.1,308.3" fill="rgb(255,163,163)"/>
<polygon points="316.1,302.3 322.1,302.3 322.1,308.3 316.1,308.3" fill="rgb(255,236,236)"/>
<polygon points="322.1,302.3 328.1,302.3 328.1,308.3 322.1,308.3" fill="rgb(255,234,234)"/>
<polygon points="328.1,302.3 334.1,302.3 334.1,308.3 328.1,308.3" fill="rgb(255,193,193)"/>
<polygon points="334.1,302.3 340.1,302.3 340.1,308.3 334.1,308.3" fill="rgb(227,227,255)"/>
<polygon points="340.1,302.3 346.1,302.3 346.1,308.3 340.1,308.3" fill="rgb(255,198,198)"/>
<polygon points="346.1,302.3 352.1,302.3 352.1,308.3 346.1,308.3" fill="rgb(255,219,219)"/>
<polygon points="352.1,302.3 358.1,302.3 358.1,308.3 352.1,308.3" fill="rgb(199,199,255)"/>
<polygon points="160.1,308.3 168.1,308.3 168.1,314.3 160.1,314.3" fill="rgb(156,207,203)"/><text xml:space="preserve" x="164.1" y="314.133" font-family="Calibri" font-size="7.5" fill="rgb(0,0,0)" text-anchor="middle">3</text>
<polygon points="168.1,308.3 176.1,308.3 176.1,314.3 168.1,314.3" fill="rgb(216,179,101)"/><text xml:space="preserve" x="172.1" y="314.133" font-family="Calibri" font-size="7.5" fill="rgb(0,0,0)" text-anchor="middle">14</text>
<polygon points="176.1,308.3 184.1,308.3 184.1,314.3 176.1,314.3" fill="rgb(220,188,121)"/><text xml:space="preserve" x="180.1" y="314.133" font-family="Calibri" font-size="7.5" fill="rgb(0,0,0)" text-anchor="middle">13</text>
<polygon points="194.1,308.3 200.1,308.3 200.1,314.3 194.1,314.3" fill="rgb(237,237,255)"/>
<polygon points="200.1,308.3 206.1,308.3 206.1,314.3 200.1,314.3" fill="rgb(145,145,255)"/>
<polygon points="206.1,308.3 212.1,308.3 212.1,314.3 206.1,314.3" fill="rgb(232,232,255)"/>
<polygon points="212.1,308.3 218.1,308.3 218.1,314.3 212.1,314.3" fill="rgb(168,168,255)"/>
<polygon points="218.1,308.3 224.1,308.3 224.1,314.3 218.1,314.3" fill="rgb(188,188,255)"/>
<polygon points="224.1,308.3 230.1,308.3 230.1,314.3 224.1,314.3" fill="rgb(255,61,61)"/>
<polygon points="230.1,308.3 236.1,308.3 236.1,314.3 230.1,314.3" fill="rgb(255,32,32)"/>
<polygon points="236.1,308.3 242.1,308.3 242.1,314.3 236.1,314.3" fill="rgb(255,196,196)"/>
<polygon points="252.1,308.3 258.1,308.3 258.1,314.3 252.1,314.3" fill="rgb(247,247,255)"/>
<polygon points="258.1,308.3 264.1,308.3 264.1,314.3 258.1,314.3" fill="rgb(217,217,255)"/>
<polygon points="264.1,308.3 270.1,308.3 270.1,314.3 264.1,314.3" fill="rgb(255,200,200)"/>
<polygon points="270.1,308.3 276.1,308.3 276.1,314.3 270.1,314.3" fill="rgb(255,173,173)"/>
<polygon points="276.1,308.3 282.1,308.3 282.1,314.3 276.1,314.3" fill="rgb(197,197,255)"/>
<polygon points="282.1,308.3 288.1,308.3 288.1,314.3 282.1,314.3" fill="rgb(255,218,218)"/>
<polygon points="288.1,308.3 294.1,308.3 294.1,314.3 288.1,314.3" fill="rgb(253,253,255)"/>
<polygon points="294.1,308.3 300.1,308.3 300.1,314.3 294.1,314.3" fill="rgb(255,156,156)"/>
<polygon points="310.1,308.3 316.1,308.3 316.1,314.3 310.1,314.3" fill="rgb(255,178,178)"/>
<polygon points="316.1,308.3 322.1,308.3 322.1,314.3 316.1,314.3" fill="rgb(255,180,180)"/>
<polygon points="322.1,308.3 328.1,308.3 328.1,314.3 322.1,314.3" fill="rgb(255,61,61)"/>
<polygon points="328.1,308.3 334.1,308.3 334.1,314.3 328.1,314.3" fill="rgb(255,9,9)"/>
<polygon points="334.1,308.3 340.1,308.3 340.1,314.3 334.1,314.3" fill="rgb(255,217,217)"/>
<polygon points="340.1,308.3 346.1,308.3 346.1,314.3 340.1,314.3" fill="rgb(234,234,255)"/>
<polygon points="346.1,308.3 352.1,308.3 352.1,314.3 346.1,314.3" fill="rgb(233,233,255)"/>
<polygon points="352.1,308.3 358.1,308.3 358.1,314.3 352.1,314.3" fill="rgb(246,246,255)"/>
<polygon points="160.1,314.3 168.1,314.3 168.1,320.3 160.1,320.3" fill="rgb(156,207,203)"/><text xml:space="preserve" x="164.1" y="320.133" font-family="Calibri" font-size="7.5" fill="rgb(0,0,0)" text-anchor="middle">3</text>
<polygon points="168.1,314.3 176.1,314.3 176.1,320.3 168.1,320.3" fill="rgb(216,179,101)"/><text xml:space="preserve" x="172.1" y="320.133" font-family="Calibri" font-size="7.5" fill="rgb(0,0,0)" text-anchor="middle">14</text>
<polygon points="176.1,314.3 184.1,314.3 184.1,320.3 176.1,320.3" fill="rgb(220,188,121)"/><text xml:space="preserve" x="180.1" y="320.133" font-family="Calibri" font-size="7.5" fill="rgb(0,0,0)" text-anchor="middle">13</text>
<polygon points="194.1,314.3 200.1,314.3 200.1,320.3 194.1,320.3" fill="rgb(230,230,255)"/>
<polygon points="200.1,314.3 206.1,314.3 206.1,320.3 200.1,320.3" fill="rgb(181,181,255)"/>
<polygon points="206.1,314.3 212.1,314.3 212.1,320.3 206.1,320.3" fill="rgb(238,238,255)"/>
<polygon points="212.1,314.3 218.1,314.3 218.1,320.3 212.1,320.3" fill="rgb(155,155,255)"/>
<polygon points="218.1,314.3 224.1,314.3 224.1,320.3 218.1,320.3" fill="rgb(214,214,255)"/>
<polygon points="224.1,314.3 230.1,314.3 230.1,320.3 224.1,320.3" fill="rgb(255,154,154)"/>
<polygon points="230.1,314.3 236.1,314.3 236.1,320.3 230.1,320.3" fill="rgb(255,251,251)"/>
<polygon points="236.1,314.3 242.1,314.3 242.1,320.3 236.1,320.3" fill="rgb(255,254,254)"/>
<polygon points="252.1,314.3 258.1,314.3 258.1,320.3 252.1,320.3" fill="rgb(255,248,248)"/>
<polygon points="258.1,314.3 264.1,314.3 264.1,320.3 258.1,320.3" fill="rgb(245,245,255)"/>
<polygon points="264.1,314.3 270.1,314.3 270.1,320.3 264.1,320.3" fill="rgb(247,247,255)"/>
<polygon points="270.1,314.3 276.1,314.3 276.1,320.3 270.1,320.3" fill="rgb(255,244,244)"/>
<polygon points="276.1,314.3 282.1,314.3 282.1,320.3 276.1,320.3" fill="rgb(218,218,255)"/>
<polygon points="282.1,314.3 288.1,314.3 288.1,320.3 282.1,320.3" fill="rgb(255,206,206)"/>
<polygon points="288.1,314.3 294.1,314.3 294.1,320.3 288.1,320.3" fill="rgb(255,180,180)"/>
<polygon points="294.1,314.3 300.1,314.3 300.1,320.3 294.1,320.3" fill="rgb(255,234,234)"/>
<polygon points="310.1,314.3 316.1,314.3 316.1,320.3 310.1,320.3" fill="rgb(255,138,138)"/>
<polygon points="316.1,314.3 322.1,314.3 322.1,320.3 316.1,320.3" fill="rgb(255,172,172)"/>
<polygon points="322.1,314.3 328.1,314.3 328.1,320.3 322.1,320.3" fill="rgb(255,151,151)"/>
<polygon points="328.1,314.3 334.1,314.3 334.1,320.3 328.1,320.3" fill="rgb(255,59,59)"/>
<polygon points="334.1,314.3 340.1,314.3 340.1,320.3 334.1,320.3" fill="rgb(254,224,224)"/>
<polygon points="340.1,314.3 346.1,314.3 346.1,320.3 340.1,320.3" fill="rgb(212,212,255)"/>
<polygon points="346.1,314.3 352.1,314.3 352.1,320.3 346.1,320.3" fill="rgb(255,246,246)"/>
<polygon points="352.1,314.3 358.1,314.3 358.1,320.3 352.1,320.3" fill="rgb(205,205,255)"/>
<polygon points="160.1,320.3 168.1,320.3 168.1,326.3 160.1,326.3" fill="rgb(156,207,203)"/><text xml:space="preserve" x="164.1" y="326.133" font-family="Calibri" font-size="7.5" fill="rgb(0,0,0)" text-anchor="middle">3</text>
<polygon points="168.1,320.3 176.1,320.3 176.1,326.3 168.1,326.3" fill="rgb(216,179,101)"/><text xml:space="preserve" x="172.1" y="326.133" font-family="Calibri" font-size="7.5" fill="rgb(0,0,0)" text-anchor="middle">14</text>
<polygon points="176.1,320.3 184.1,320.3 184.1,326.3 176.1,326.3" fill="rgb(220,188,121)"/><text xml:space="preserve" x="180.1" y="326.133" font-family="Calibri" font-size="7.5" fill="rgb(0,0,0)" text-anchor="middle">13</text>
<polygon points="194.1,320.3 200.1,320.3 200.1,326.3 194.1,326.3" fill="rgb(255,237,237)"/>
<polygon points="200.1,320.3 206.1,320.3 206.1,326.3 200.1,326.3" fill="rgb(146,146,255)"/>
<polygon points="206.1,320.3 212.1,320.3 212.1,326.3 206.1,326.3" fill="rgb(190,190,255)"/>
<polygon points="212.1,320.3 218.1,320.3 218.1,326.3 212.1,326.3" fill="rgb(171,171,255)"/>
<polygon points="218.1,320.3 224.1,320.3 224.1,326.3 218.1,326.3" fill="rgb(197,197,255)"/>
<polygon points="224.1,320.3 230.1,320.3 230.1,326.3 224.1,326.3" fill="rgb(255,155,155)"/>
<polygon points="230.1,320.3 236.1,320.3 236.1,326.3 230.1,326.3" fill="rgb(255,139,139)"/>
<polygon points="236.1,320.3 242.1,320.3 242.1,326.3 236.1,326.3" fill="rgb(255,0,0)"/>
<polygon points="252.1,320.3 258.1,320.3 258.1,326.3 252.1,326.3" fill="rgb(255,163,163)"/>
<polygon points="258.1,320.3 264.1,320.3 264.1,326.3 258.1,326.3" fill="rgb(252,252,255)"/>
<polygon points="264.1,320.3 270.1,320.3 270.1,326.3 264.1,326.3" fill="rgb(255,250,250)"/>
<polygon points="270.1,320.3 276.1,320.3 276.1,326.3 270.1,326.3" fill="rgb(255,209,209)"/>
<polygon points="276.1,320.3 282.1,320.3 282.1,326.3 276.1,326.3" fill="rgb(202,202,255)"/>
<polygon points="282.1,320.3 288.1,320.3 288.1,326.3 282.1,326.3" fill="rgb(255,253,253)"/>
<polygon points="288.1,320.3 294.1,320.3 294.1,326.3 288.1,326.3" fill="rgb(255,239,239)"/>
<polygon points="294.1,320.3 300.1,320.3 300.1,326.3 294.1,326.3" fill="rgb(255,150,150)"/>
<polygon points="310.1,320.3 316.1,320.3 316.1,326.3 310.1,326.3" fill="rgb(254,152,152)"/>
<polygon points="316.1,320.3 322.1,320.3 322.1,326.3 316.1,326.3" fill="rgb(255,208,208)"/>
<polygon points="322.1,320.3 328.1,320.3 328.1,326.3 322.1,326.3" fill="rgb(255,131,131)"/>
<polygon points="328.1,320.3 334.1,320.3 334.1,326.3 328.1,326.3" fill="rgb(255,13,13)"/>
<polygon points="334.1,320.3 340.1,320.3 340.1,326.3 334.1,326.3" fill="rgb(255,251,251)"/>
<polygon points="340.1,320.3 346.1,320.3 346.1,326.3 340.1,326.3" fill="rgb(250,250,255)"/>
<polygon points="346.1,320.3 352.1,320.3 352.1,326.3 346.1,326.3" fill="rgb(229,229,255)"/>
<polygon points="352.1,320.3 358.1,320.3 358.1,326.3 352.1,326.3" fill="rgb(255,244,244)"/>
<polygon points="160.1,326.3 168.1,326.3 168.1,332.3 160.1,332.3" fill="rgb(156,207,203)"/><text xml:space="preserve" x="164.1" y="332.133" font-family="Calibri" font-size="7.5" fill="rgb(0,0,0)" text-anchor="middle">3</text>
<polygon points="168.1,326.3 176.1,326.3 176.1,332.3 168.1,332.3" fill="rgb(216,179,101)"/><text xml:space="preserve" x="172.1" y="332.133" font-family="Calibri" font-size="7.5" fill="rgb(0,0,0)" text-anchor="middle">14</text>
<polygon points="176.1,326.3 184.1,326.3 184.1,332.3 176.1,332.3" fill="rgb(220,188,121)"/><text xml:space="preserve" x="180.1" y="332.133" font-family="Calibri" font-size="7.5" fill="rgb(0,0,0)" text-anchor="middle">13</text>
<polygon points="194.1,326.3 200.1,326.3 200.1,332.3 194.1,332.3" fill="rgb(243,243,255)"/>
<polygon points="200.1,326.3 206.1,326.3 206.1,332.3 200.1,332.3" fill="rgb(160,160,255)"/>
<polygon points="206.1,326.3 212.1,326.3 212.1,332.3 206.1,332.3" fill="rgb(192,192,255)"/>
<polygon points="212.1,326.3 218.1,326.3 218.1,332.3 212.1,332.3" fill="rgb(185,185,255)"/>
<polygon points="218.1,326.3 224.1,326.3 224.1,332.3 218.1,332.3" fill="rgb(193,193,255)"/>
<polygon points="224.1,326.3 230.1,326.3 230.1,332.3 224.1,332.3" fill="rgb(255,149,149)"/>
<polygon points="230.1,326.3 236.1,326.3 236.1,332.3 230.1,332.3" fill="rgb(255,202,202)"/>
<polygon points="236.1,326.3 242.1,326.3 242.1,332.3 236.1,332.3" fill="rgb(255,126,126)"/>
<polygon points="252.1,326.3 258.1,326.3 258.1,332.3 252.1,332.3" fill="rgb(211,211,255)"/>
<polygon points="258.1,326.3 264.1,326.3 264.1,332.3 258.1,332.3" fill="rgb(236,236,255)"/>
<polygon points="264.1,326.3 270.1,326.3 270.1,332.3 264.1,332.3" fill="rgb(255,213,213)"/>
<polygon points="270.1,326.3 276.1,326.3 276.1,332.3 270.1,332.3" fill="rgb(255,190,190)"/>
<polygon points="276.1,326.3 282.1,326.3 282.1,332.3 276.1,332.3" fill="rgb(203,203,255)"/>
<polygon points="282.1,326.3 288.1,326.3 288.1,332.3 282.1,332.3" fill="rgb(255,142,142)"/>
<polygon points="288.1,326.3 294.1,326.3 294.1,332.3 288.1,332.3" fill="rgb(255,211,211)"/>
<polygon points="294.1,326.3 300.1,326.3 300.1,332.3 294.1,332.3" fill="rgb(255,252,252)"/>
<polygon points="310.1,326.3 316.1,326.3 316.1,332.3 310.1,332.3" fill="rgb(255,193,193)"/>
<polygon points="316.1,326.3 322.1,326.3 322.1,332.3 316.1,332.3" fill="rgb(255,245,245)"/>
<polygon points="322.1,326.3 328.1,326.3 328.1,332.3 322.1,332.3" fill="rgb(255,128,128)"/>
<polygon points="328.1,326.3 334.1,326.3 334.1,332.3 328.1,332.3" fill="rgb(255,43,43)"/>
<polygon points="334.1,326.3 340.1,326.3 340.1,332.3 334.1,332.3" fill="rgb(255,244,244)"/>
<polygon points="340.1,326.3 346.1,326.3 346.1,332.3 340.1,332.3" fill="rgb(254,196,196)"/>
<polygon points="346.1,326.3 352.1,326.3 352.1,332.3 346.1,332.3" fill="rgb(255,254,254)"/>
<polygon points="352.1,326.3 358.1,326.3 358.1,332.3 352.1,332.3" fill="rgb(245,245,255)"/>
<polygon points="160.1,212.3 184.1,212.3 184.1,332.3 160.1,332.3" fill="none" stroke="black" stroke-width="1"/>
<polygon points="194.1,212.3 242.1,212.3 242.1,332.3 194.1,332.3" fill="none" stroke="black" stroke-width="1"/>
<polygon points="252.1,212.3 300.1,212.3 300.1,332.3 252.1,332.3" fill="none" stroke="black" stroke-width="1"/>
<polygon points="310.1,212.3 358.1,212.3 358.1,332.3 310.1,332.3" fill="none" stroke="black" stroke-width="1"/>
<text xml:space="preserve" x="200.05" y="364.633" font-family="Calibri" font-size="6" text-anchor="middle">moduleID</text>
<polygon points="90.05,372.3 110.05,372.3 110.05,392.3 90.05,392.3" fill="rgb(250,250,250)"/><polygon points="90.05,372.3 110.05,372.3 110.05,392.3 90.05,392.3" fill="none" stroke="black" stroke-width="1"/><text xml:space="preserve" x="100.05" y="385.133" font-family="Calibri" font-size="7.5" fill="rgb(0,0,0)" text-anchor="middle">-2.0</text>
<polygon points="110.05,372.3 130.05,372.3 130.05,392.3 110.05,392.3" fill="rgb(156,210,205)"/><polygon points="110.05,372.3 130.05,372.3 130.05,392.3 110.05,392.3" fill="none" stroke="black" stroke-width="1"/><text xml:space="preserve" x="120.05" y="385.133" font-family="Calibri" font-size="7.5" fill="rgb(0,0,0)" text-anchor="middle">-0.4</text>
<polygon points="130.05,372.3 150.05,372.3 150.05,392.3 130.05,392.3" fill="rgb(116,191,184)"/><polygon points="130.05,372.3 150.05,372.3 150.05,392.3 130.05,392.3" fill="none" stroke="black" stroke-width="1"/><text xml:space="preserve" x="140.05" y="385.133" font-family="Calibri" font-size="7.5" fill="rgb(0,0,0)" text-anchor="middle">1.2</text>
<polygon points="150.05,372.3 170.05,372.3 170.05,392.3 150.05,392.3" fill="rgb(152,206,201)"/><polygon points="150.05,372.3 170.05,372.3 170.05,392.3 150.05,392.3" fill="none" stroke="black" stroke-width="1"/><text xml:space="preserve" x="160.05" y="385.133" font-family="Calibri" font-size="7.5" fill="rgb(0,0,0)" text-anchor="middle">2.8</text>
<polygon points="170.05,372.3 190.05,372.3 190.05,392.3 170.05,392.3" fill="rgb(187,220,217)"/><polygon points="170.05,372.3 190.05,372.3 190.05,392.3 170.05,392.3" fill="none" stroke="black" stroke-width="1"/><text xml:space="preserve" x="180.05" y="385.133" font-family="Calibri" font-size="7.5" fill="rgb(0,0,0)" text-anchor="middle">4.4</text>
<polygon points="190.05,372.3 210.05,372.3 210.05,392.3 190.05,392.3" fill="rgb(222,235,234)"/><polygon points="190.05,372.3 210.05,372.3 210.05,392.3 190.05,392.3" fill="none" stroke="black" stroke-width="1"/><text xml:space="preserve" x="200.05" y="385.133" font-family="Calibri" font-size="7.5" fill="rgb(0,0,0)" text-anchor="middle">6.0</text>
<polygon points="210.05,372.3 230.05,372.3 230.05,392.3 210.05,392.3" fill="rgb(242,239,232)"/><polygon points="210.05,372.3 230.05,372.3 230.05,392.3 210.05,392.3" fill="none" stroke="black" stroke-width="1"/><text xml:space="preserve" x="220.05" y="385.133" font-family="Calibri" font-size="7.5" fill="rgb(0,0,0)" text-anchor="middle">7.6</text>
<polygon points="230.05,372.3 250.05,372.3 250.05,392.3 230.05,392.3" fill="rgb(235,224,199)"/><polygon points="230.05,372.3 250.05,372.3 250.05,392.3 230.05,392.3" fill="none" stroke="black" stroke-width="1"/><text xml:space="preserve" x="240.05" y="385.133" font-family="Calibri" font-size="7.5" fill="rgb(0,0,0)" text-anchor="middle">9.2</text>
<polygon points="250.05,372.3 270.05,372.3 270.05,392.3 250.05,392.3" fill="rgb(229,209,166)"/><polygon points="250.05,372.3 270.05,372.3 270.05,392.3 250.05,392.3" fill="none" stroke="black" stroke-width="1"/><text xml:space="preserve" x="260.05" y="385.133" font-family="Calibri" font-size="7.5" fill="rgb(0,0,0)" text-anchor="middle">10.8</text>
<polygon points="270.05,372.3 290.05,372.3 290.05,392.3 270.05,392.3" fill="rgb(222,194,133)"/><polygon points="270.05,372.3 290.05,372.3 290.05,392.3 270.05,392.3" fill="none" stroke="black" stroke-width="1"/><text xml:space="preserve" x="280.05" y="385.133" font-family="Calibri" font-size="7.5" fill="rgb(0,0,0)" text-anchor="middle">12.4</text>
<polygon points="290.05,372.3 310.05,372.3 310.05,392.3 290.05,392.3" fill="rgb(216,179,101)"/><polygon points="290.05,372.3 310.05,372.3 310.05,392.3 290.05,392.3" fill="none" stroke="black" stroke-width="1"/><text xml:space="preserve" x="300.05" y="385.133" font-family="Calibri" font-size="7.5" fill="rgb(0,0,0)" text-anchor="middle">14.0</text>
<text xml:space="preserve" x="200.05" y="424.633" font-family="Calibri" font-size="6" text-anchor="middle">marklevel</text>
<polygon points="90.05,432.3 110.05,432.3 110.05,452.3 90.05,452.3" fill="rgb(0,0,255)"/><polygon points="90.05,432.3 110.05,432.3 110.05,452.3 90.05,452.3" fill="none" stroke="black" stroke-width="1"/><text xml:space="preserve" x="100.05" y="445.133" font-family="Calibri" font-size="7.5" fill="rgb(255,255,255)" text-anchor="middle">-2.0</text>
<polygon points="110.05,432.3 130.05,432.3 130.05,452.3 110.05,452.3" fill="rgb(50,50,255)"/><polygon points="110.05,432.3 130.05,432.3 130.05,452.3 110.05,452.3" fill="none" stroke="black" stroke-width="1"/><text xml:space="preserve" x="120.05" y="445.133" font-family="Calibri" font-size="7.5" fill="rgb(255,255,255)" text-anchor="middle">-1.6</text>
<polygon points="130.05,432.3 150.05,432.3 150.05,452.3 130.05,452.3" fill="rgb(102,102,255)"/><polygon points="130.05,432.3 150.05,432.3 150.05,452.3 130.05,452.3" fill="none" stroke="black" stroke-width="1"/><text xml:space="preserve" x="140.05" y="445.133" font-family="Calibri" font-size="7.5" fill="rgb(255,255,255)" text-anchor="middle">-1.2</text>
<polygon points="150.05,432.3 170.05,432.3 170.05,452.3 150.05,452.3" fill="rgb(153,153,255)"/><polygon points="150.05,432.3 170.05,432.3 170.05,452.3 150.05,452.3" fill="none" stroke="black" stroke-width="1"/><text xml:space="preserve" x="160.05" y="445.133" font-family="Calibri" font-size="7.5" fill="rgb(0,0,0)" text-anchor="middle">-0.8</text>
<polygon points="170.05,432.3 190.05,432.3 190.05,452.3 170.05,452.3" fill="rgb(204,204,255)"/><polygon points="170.05,432.3 190.05,432.3 190.05,452.3 170.05,452.3" fill="none" stroke="black" stroke-width="1"/><text xml:space="preserve" x="180.05" y="445.133" font-family="Calibri" font-size="7.5" fill="rgb(0,0,0)" text-anchor="middle">-0.4</text>
<polygon points="190.05,432.3 210.05,432.3 210.05,452.3 190.05,452.3" fill="rgb(255,255,255)"/><polygon points="190.05,432.3 210.05,432.3 210.05,452.3 190.05,452.3" fill="none" stroke="black" stroke-width="1"/><text xml:space="preserve" x="200.05" y="445.133" font-family="Calibri" font-size="7.5" fill="rgb(0,0,0)" text-anchor="middle">0.0</text>
<polygon points="210.05,432.3 230.05,432.3 230.05,452.3 210.05,452.3" fill="rgb(255,204,204)"/><polygon points="210.05,432.3 230.05,432.3 230.05,452.3 210.05,452.3" fill="none" stroke="black" stroke-width="1"/><text xml:space="preserve" x="220.05" y="445.133" font-family="Calibri" font-size="7.5" fill="rgb(0,0,0)" text-anchor="middle">0.4</text>
<polygon points="230.05,432.3 250.05,432.3 250.05,452.3 230.05,452.3" fill="rgb(255,153,153)"/><polygon points="230.05,432.3 250.05,432.3 250.05,452.3 230.05,452.3" fill="none" stroke="black" stroke-width="1"/><text xml:space="preserve" x="240.05" y="445.133" font-family="Calibri" font-size="7.5" fill="rgb(0,0,0)" text-anchor="middle">0.8</text>
<polygon points="250.05,432.3 270.05,432.3 270.05,452.3 250.05,452.3" fill="rgb(255,102,102)"/><polygon points="250.05,432.3 270.05,432.3 270.05,452.3 250.05,452.3" fill="none" stroke="black" stroke-width="1"/><text xml:space="preserve" x="260.05" y="445.133" font-family="Calibri" font-size="7.5" fill="rgb(0,0,0)" text-anchor="middle">1.2</text>
<polygon points="270.05,432.3 290.05,432.3 290.05,452.3 270.05,452.3" fill="rgb(255,50,50)"/><polygon points="270.05,432.3 290.05,432.3 290.05,452.3 270.05,452.3" fill="none" stroke="black" stroke-width="1"/><text xml:space="preserve" x="280.05" y="445.133" font-family="Calibri" font-size="7.5" fill="rgb(255,255,255)" text-anchor="middle">1.6</text>
<polygon points="290.05,432.3 310.05,432.3 310.05,452.3 290.05,452.3" fill="rgb(255,0,0)"/><polygon points="290.05,432.3 310.05,432.3 310.05,452.3 290.05,452.3" fill="none" stroke="black" stroke-width="1"/><text xml:space="preserve" x="300.05" y="445.133" font-family="Calibri" font-size="7.5" fill="rgb(255,255,255)" text-anchor="middle">2.0</text>
</svg>
