<?xml version="1.0" standalone="no"?><!DOCTYPE svg PUBLIC "-//W3C//DTD SVG 1.1//EN" "http://www.w3.org/Graphics/SVG/1.1/DTD/svg11.dtd">
<svg width="399.8" height="478.3" version="1.1" xmlns="http://www.w3.org/2000/svg">
<text xml:space="preserve" x="155.8" y="217.633" font-family="Calibri" font-size="6" text-anchor="end">1500041J02Rik</text>
<text xml:space="preserve" x="155.8" y="223.633" font-family="Calibri" font-size="6" text-anchor="end">Mapk6</text>
<text xml:space="preserve" x="155.8" y="229.633" font-family="Calibri" font-size="6" text-anchor="end">Mfsd8</text>
<text xml:space="preserve" x="155.8" y="235.633" font-family="Calibri" font-size="6" text-anchor="end">Pdlim5</text>
<text xml:space="preserve" x="155.8" y="241.633" font-family="Calibri" font-size="6" text-anchor="end">Cyb5</text>
<text xml:space="preserve" x="155.8" y="247.633" font-family="Calibri" font-size="6" text-anchor="end">2900073G15Rik</text>
<text xml:space="preserve" x="155.8" y="253.633" font-family="Calibri" font-size="6" text-anchor="end">Lims1</text>
<text xml:space="preserve" x="155.8" y="259.633" font-family="Calibri" font-size="6" text-anchor="end">Lnpep</text>
<text xml:space="preserve" x="155.8" y="265.633" font-family="Calibri" font-size="6" text-anchor="end">Ugcg</text>
<text xml:space="preserve" x="155.8" y="271.633" font-family="Calibri" font-size="6" text-anchor="end">Srebf1</text>
<text xml:space="preserve" x="155.8" y="277.633" font-family="Calibri" font-size="6" text-anchor="end">Sqstm1</text>
<text xml:space="preserve" x="155.8" y="283.633" font-family="Calibri" font-size="6" text-anchor="end">Rock2</text>
<text xml:space="preserve" x="155.8" y="289.633" font-family="Calibri" font-size="6" text-anchor="end">Crsp2</text>
<text xml:space="preserve" x="155.8" y="295.633" font-family="Calibri" font-size="6" text-anchor="end">Tbl1x</text>
<text xml:space="preserve" x="155.8" y="301.633" font-family="Calibri" font-size="6" text-anchor="end">Maoa</text>
<text xml:space="preserve" x="155.8" y="307.633" font-family="Calibri" font-size="6" text-anchor="end">Ipo7</text>
<text xml:space="preserve" x="155.8" y="313.633" font-family="Calibri" font-size="6" text-anchor="end">Emd</text>
<text xml:space="preserve" x="155.8" y="319.633" font-family="Calibri" font-size="6" text-anchor="end">Msn</text>
<text xml:space="preserve" x="155.8" y="325.633" font-family="Calibri" font-size="6" text-anchor="end">Obfc2a</text>
<text xml:space="preserve" x="155.8" y="331.633" font-family="Calibri" font-size="6" text-anchor="end">Morf4l2</text>
<text xml:space="preserve" x="155.8" y="337.633" font-family="Calibri" font-size="6" text-anchor="end">Aff1</text>
<text xml:space="preserve" x="166.133" y="208.3" font-family="Calibri" font-size="6" transform="rotate(270 166.133 208.3)">ips</text>
<text xml:space="preserve" x="174.133" y="208.3" font-family="Calibri" font-size="6" transform="rotate(270 174.133 208.3)">pips</text>
<text xml:space="preserve" x="182.133" y="208.3" font-family="Calibri" font-size="6" transform="rotate(270 182.133 208.3)">mef</text>
<text xml:space="preserve" x="199.133" y="208.3" font-family="Calibri" font-size="6" transform="rotate(270 199.133 208.3)">ips_H3K4me3iPS</text>
<text xml:space="preserve" x="205.133" y="208.3" font-family="Calibri" font-size="6" transform="rotate(270 205.133 208.3)">ips_H3K9aciPS</text>
<text xml:space="preserve" x="211.133" y="208.3" font-family="Calibri" font-size="6" transform="rotate(270 211.133 208.3)">ips_H3K14aciPS</text>
<text xml:space="preserve" x="217.133" y="208.3" font-family="Calibri" font-size="6" transform="rotate(270 217.133 208.3)">ips_H3K18aciPS</text>
<text xml:space="preserve" x="223.133" y="208.3" font-family="Calibri" font-size="6" transform="rotate(270 223.133 208.3)">ips_H3K79me2iPS</text>
<text xml:space="preserve" x="229.133" y="208.3" font-family="Calibri" font-size="6" transform="rotate(270 229.133 208.3)">ips_H3K9me2iPS</text>
<text xml:space="preserve" x="235.133" y="208.3" font-family="Calibri" font-size="6" transform="rotate(270 235.133 208.3)">ips_H3K9me3iPS</text>
<text xml:space="preserve" x="241.133" y="208.3" font-family="Calibri" font-size="6" transform="rotate(270 241.133 208.3)">ips_H3K27me3iPS</text>
<text xml:space="preserve" x="257.133" y="208.3" font-family="Calibri" font-size="6" transform="rotate(270 257.133 208.3)">pips_H3K4me3pips</text>
<text xml:space="preserve" x="263.133" y="208.3" font-family="Calibri" font-size="6" transform="rotate(270 263.133 208.3)">pips_H3K9acpips</text>
<text xml:space="preserve" x="269.133" y="208.3" font-family="Calibri" font-size="6" transform="rotate(270 269.133 208.3)">pips_H3K14acpips</text>
<text xml:space="preserve" x="275.133" y="208.3" font-family="Calibri" font-size="6" transform="rotate(270 275.133 208.3)">pips_H3K18acpips</text>
<text xml:space="preserve" x="281.133" y="208.3" font-family="Calibri" font-size="6" transform="rotate(270 281.133 208.3)">pips_H3K79me2pips</text>
<text xml:space="preserve" x="287.133" y="208.3" font-family="Calibri" font-size="6" transform="rotate(270 287.133 208.3)">pips_H3K9me2pips</text>
<text xml:space="preserve" x="293.133" y="208.3" font-family="Calibri" font-size="6" transform="rotate(270 293.133 208.3)">pips_H3K9me3pips</text>
<text xml:space="preserve" x="299.133" y="208.3" font-family="Calibri" font-size="6" transform="rotate(270 299.133 208.3)">pips_H3K27me3pips</text>
<text xml:space="preserve" x="315.133" y="208.3" font-family="Calibri" font-size="6" transform="rotate(270 315.133 208.3)">mef_H3K4me3mef</text>
<text xml:space="preserve" x="321.133" y="208.3" font-family="Calibri" font-size="6" transform="rotate(270 321.133 208.3)">mef_H3K9acmef</text>
<text xml:space="preserve" x="327.133" y="208.3" font-family="Calibri" font-size="6" transform="rotate(270 327.133 208.3)">mef_H3K14acmef</text>
<text xml:space="preserve" x="333.133" y="208.3" font-family="Calibri" font-size="6" transform="rotate(270 333.133 208.3)">mef_H3K18acmef</text>
<text xml:space="preserve" x="339.133" y="208.3" font-family="Calibri" font-size="6" transform="rotate(270 339.133 208.3)">mef_H3K79me2mef</text>
<text xml:space="preserve" x="345.133" y="208.3" font-family="Calibri" font-size="6" transform="rotate(270 345.133 208.3)">mef_H3K9me2mef</text>
<text xml:space="preserve" x="351.133" y="208.3" font-family="Calibri" font-size="6" transform="rotate(270 351.133 208.3)">mef_H3K9me3mef</text>
<text xml:space="preserve" x="357.133" y="208.3" font-family="Calibri" font-size="6" transform="rotate(270 357.133 208.3)">mef_H3K27me3mef</text>
<polygon points="159.8,212.3 167.8,212.3 167.8,218.3 159.8,218.3" fill="rgb(232,216,183)"/><text xml:space="preserve" x="163.8" y="218.133" font-family="Calibri" font-size="7.5" fill="rgb(0,0,0)" text-anchor="middle">10</text>
<polygon points="167.8,212.3 175.8,212.3 175.8,218.3 167.8,218.3" fill="rgb(220,188,121)"/><text xml:space="preserve" x="171.8" y="218.133" font-family="Calibri" font-size="7.5" fill="rgb(0,0,0)" text-anchor="middle">13</text>
<polygon points="175.8,212.3 183.8,212.3 183.8,218.3 175.8,218.3" fill="rgb(220,188,121)"/><text xml:space="preserve" x="179.8" y="218.133" font-family="Calibri" font-size="7.5" fill="rgb(0,0,0)" text-anchor="middle">13</text>
<polygon points="193.8,212.3 199.8,212.3 199.8,218.3 193.8,218.3" fill="rgb(255,179,179)"/>
<polygon points="199.8,212.3 205.8,212.3 205.8,218.3 199.8,218.3" fill="rgb(255,148,148)"/>
<polygon points="205.8,212.3 211.8,212.3 211.8,218.3 205.8,218.3" fill="rgb(254,192,192)"/>
<polygon points="211.8,212.3 217.8,212.3 217.8,218.3 211.8,218.3" fill="rgb(255,231,231)"/>
<polygon points="217.8,212.3 223.8,212.3 223.8,218.3 217.8,218.3" fill="rgb(255,155,155)"/>
<polygon points="223.8,212.3 229.8,212.3 229.8,218.3 223.8,218.3" fill="rgb(223,223,255)"/>
<polygon points="229.8,212.3 235.8,212.3 235.8,218.3 229.8,218.3" fill="rgb(255,244,244)"/>
<polygon points="235.8,212.3 241.8,212.3 241.8,218.3 235.8,218.3" fill="rgb(255,254,254)"/>
<polygon points="251.8,212.3 257.8,212.3 257.8,218.3 251.8,218.3" fill="rgb(255,218,218)"/>
<polygon points="257.8,212.3 263.8,212.3 263.8,218.3 257.8,218.3" fill="rgb(255,99,99)"/>
<polygon points="263.8,212.3 269.8,212.3 269.8,218.3 263.8,218.3" fill="rgb(255,88,88)"/>
<polygon points="269.8,212.3 275.8,212.3 275.8,218.3 269.8,218.3" fill="rgb(255,148,148)"/>
<polygon points="275.8,212.3 281.8,212.3 281.8,218.3 275.8,218.3" fill="rgb(255,111,111)"/>
<polygon points="281.8,212.3 287.8,212.3 287.8,218.3 281.8,218.3" fill="rgb(255,176,176)"/>
<polygon points="287.8,212.3 293.8,212.3 293.8,218.3 287.8,218.3" fill="rgb(255,205,205)"/>
<polygon points="293.8,212.3 299.8,212.3 299.8,218.3 293.8,218.3" fill="rgb(191,191,255)"/>
<polygon points="309.8,212.3 315.8,212.3 315.8,218.3 309.8,218.3" fill="rgb(255,164,164)"/>
<polygon points="315.8,212.3 321.8,212.3 321.8,218.3 315.8,218.3" fill="rgb(255,97,97)"/>
<polygon points="321.8,212.3 327.8,212.3 327.8,218.3 321.8,218.3" fill="rgb(255,54,54)"/>
<polygon points="327.8,212.3 333.8,212.3 333.8,218.3 327.8,218.3" fill="rgb(255,124,124)"/>
<polygon points="333.8,212.3 339.8,212.3 339.8,218.3 333.8,218.3" fill="rgb(255,73,73)"/>
<polygon points="339.8,212.3 345.8,212.3 345.8,218.3 339.8,218.3" fill="rgb(255,197,197)"/>
<polygon points="345.8,212.3 351.8,212.3 351.8,218.3 345.8,218.3" fill="rgb(255,144,144)"/>
<polygon points="351.8,212.3 357.8,212.3 357.8,218.3 351.8,218.3" fill="rgb(203,203,255)"/>
<polygon points="159.8,218.3 167.8,218.3 167.8,224.3 159.8,224.3" fill="rgb(232,216,183)"/><text xml:space="preserve" x="163.8" y="224.133" font-family="Calibri" font-size="7.5" fill="rgb(0,0,0)" text-anchor="middle">10</text>
<polygon points="167.8,218.3 175.8,218.3 175.8,224.3 167.8,224.3" fill="rgb(220,188,121)"/><text xml:space="preserve" x="171.8" y="224.133" font-family="Calibri" font-size="7.5" fill="rgb(0,0,0)" text-anchor="middle">13</text>
<polygon points="175.8,218.3 183.8,218.3 183.8,224.3 175.8,224.3" fill="rgb(220,188,121)"/><text xml:space="preserve" x="179.8" y="224.133" font-family="Calibri" font-size="7.5" fill="rgb(0,0,0)" text-anchor="middle">13</text>
<polygon points="193.8,218.3 199.8,218.3 199.8,224.3 193.8,224.3" fill="rgb(255,177,177)"/>
<polygon points="199.8,218.3 205.8,218.3 205.8,224.3 199.8,224.3" fill="rgb(255,133,133)"/>
<polygon points="205.8,218.3 211.8,218.3 211.8,224.3 205.8,224.3" fill="rgb(255,138,138)"/>
<polygon points="211.8,218.3 217.8,218.3 217.8,224.3 211.8,224.3" fill="rgb(255,138,138)"/>
<polygon points="217.8,218.3 223.8,218.3 223.8,224.3 217.8,224.3" fill="rgb(255,90,90)"/>
<polygon points="223.8,218.3 229.8,218.3 229.8,224.3 223.8,224.3" fill="rgb(227,227,255)"/>
<polygon points="229.8,218.3 235.8,218.3 235.8,224.3 229.8,224.3" fill="rgb(221,221,255)"/>
<polygon points="235.8,218.3 241.8,218.3 241.8,224.3 235.8,224.3" fill="rgb(186,186,255)"/>
<polygon points="251.8,218.3 257.8,218.3 257.8,224.3 251.8,224.3" fill="rgb(255,162,162)"/>
<polygon points="257.8,218.3 263.8,218.3 263.8,224.3 257.8,224.3" fill="rgb(255,98,98)"/>
<polygon points="263.8,218.3 269.8,218.3 269.8,224.3 263.8,224.3" fill="rgb(255,161,161)"/>
<polygon points="269.8,218.3 275.8,218.3 275.8,224.3 269.8,224.3" fill="rgb(255,47,47)"/>
<polygon points="275.8,218.3 281.8,218.3 281.8,224.3 275.8,224.3" fill="rgb(255,120,120)"/>
<polygon points="281.8,218.3 287.8,218.3 287.8,224.3 281.8,224.3" fill="rgb(168,168,255)"/>
<polygon points="287.8,218.3 293.8,218.3 293.8,224.3 287.8,224.3" fill="rgb(220,220,255)"/>
<polygon points="293.8,218.3 299.8,218.3 299.8,224.3 293.8,224.3" fill="rgb(245,245,255)"/>
<polygon points="309.8,218.3 315.8,218.3 315.8,224.3 309.8,224.3" fill="rgb(255,177,177)"/>
<polygon points="315.8,218.3 321.8,218.3 321.8,224.3 315.8,224.3" fill="rgb(255,148,148)"/>
<polygon points="321.8,218.3 327.8,218.3 327.8,224.3 321.8,224.3" fill="rgb(255,155,155)"/>
<polygon points="327.8,218.3 333.8,218.3 333.8,224.3 327.8,224.3" fill="rgb(255,109,109)"/>
<polygon points="333.8,218.3 339.8,218.3 339.8,224.3 333.8,224.3" fill="rgb(255,164,164)"/>
<polygon points="339.8,218.3 345.8,218.3 345.8,224.3 339.8,224.3" fill="rgb(209,209,255)"/>
<polygon points="345.8,218.3 351.8,218.3 351.8,224.3 345.8,224.3" fill="rgb(228,228,255)"/>
<polygon points="351.8,218.3 357.8,218.3 357.8,224.3 351.8,224.3" fill="rgb(212,212,255)"/>
<polygon points="159.8,224.3 167.8,224.3 167.8,230.3 159.8,230.3" fill="rgb(232,216,183)"/><text xml:space="preserve" x="163.8" y="230.133" font-family="Calibri" font-size="7.5" fill="rgb(0,0,0)" text-anchor="middle">10</text>
<polygon points="167.8,224.3 175.8,224.3 175.8,230.3 167.8,230.3" fill="rgb(220,188,121)"/><text xml:space="preserve" x="171.8" y="230.133" font-family="Calibri" font-size="7.5" fill="rgb(0,0,0)" text-anchor="middle">13</text>
<polygon points="175.8,224.3 183.8,224.3 183.8,230.3 175.8,230.3" fill="rgb(220,188,121)"/><text xml:space="preserve" x="179.8" y="230.133" font-family="Calibri" font-size="7.5" fill="rgb(0,0,0)" text-anchor="middle">13</text>
<polygon points="193.8,224.3 199.8,224.3 199.8,230.3 193.8,230.3" fill="rgb(255,107,107)"/>
<polygon points="199.8,224.3 205.8,224.3 205.8,230.3 199.8,230.3" fill="rgb(255,86,86)"/>
<polygon points="205.8,224.3 211.8,224.3 211.8,230.3 205.8,230.3" fill="rgb(250,250,255)"/>
<polygon points="211.8,224.3 217.8,224.3 217.8,230.3 211.8,230.3" fill="rgb(226,226,255)"/>
<polygon points="217.8,224.3 223.8,224.3 223.8,230.3 217.8,230.3" fill="rgb(255,237,237)"/>
<polygon points="223.8,224.3 229.8,224.3 229.8,230.3 223.8,230.3" fill="rgb(197,197,255)"/>
<polygon points="229.8,224.3 235.8,224.3 235.8,230.3 229.8,230.3" fill="rgb(200,200,255)"/>
<polygon points="235.8,224.3 241.8,224.3 241.8,230.3 235.8,230.3" fill="rgb(212,212,255)"/>
<polygon points="251.8,224.3 257.8,224.3 257.8,230.3 251.8,230.3" fill="rgb(255,223,223)"/>
<polygon points="257.8,224.3 263.8,224.3 263.8,230.3 257.8,230.3" fill="rgb(255,80,80)"/>
<polygon points="263.8,224.3 269.8,224.3 269.8,230.3 263.8,230.3" fill="rgb(255,86,86)"/>
<polygon points="269.8,224.3 275.8,224.3 275.8,230.3 269.8,230.3" fill="rgb(255,81,81)"/>
<polygon points="275.8,224.3 281.8,224.3 281.8,230.3 275.8,230.3" fill="rgb(255,55,55)"/>
<polygon points="281.8,224.3 287.8,224.3 287.8,230.3 281.8,230.3" fill="rgb(255,180,180)"/>
<polygon points="287.8,224.3 293.8,224.3 293.8,230.3 287.8,230.3" fill="rgb(245,245,255)"/>
<polygon points="293.8,224.3 299.8,224.3 299.8,230.3 293.8,230.3" fill="rgb(255,237,237)"/>
<polygon points="309.8,224.3 315.8,224.3 315.8,230.3 309.8,230.3" fill="rgb(255,23,23)"/>
<polygon points="315.8,224.3 321.8,224.3 321.8,230.3 315.8,230.3" fill="rgb(255,88,88)"/>
<polygon points="321.8,224.3 327.8,224.3 327.8,230.3 321.8,230.3" fill="rgb(255,92,92)"/>
<polygon points="327.8,224.3 333.8,224.3 333.8,230.3 327.8,230.3" fill="rgb(255,156,156)"/>
<polygon points="333.8,224.3 339.8,224.3 339.8,230.3 333.8,230.3" fill="rgb(255,122,122)"/>
<polygon points="339.8,224.3 345.8,224.3 345.8,230.3 339.8,230.3" fill="rgb(254,136,136)"/>
<polygon points="345.8,224.3 351.8,224.3 351.8,230.3 345.8,230.3" fill="rgb(212,212,255)"/>
<polygon points="351.8,224.3 357.8,224.3 357.8,230.3 351.8,230.3" fill="rgb(101,101,255)"/>
<polygon points="159.8,230.3 167.8,230.3 167.8,236.3 159.8,236.3" fill="rgb(232,216,183)"/><text xml:space="preserve" x="163.8" y="236.133" font-family="Calibri" font-size="7.5" fill="rgb(0,0,0)" text-anchor="middle">10</text>
<polygon points="167.8,230.3 175.8,230.3 175.8,236.3 167.8,236.3" fill="rgb(220,188,121)"/><text xml:space="preserve" x="171.8" y="236.133" font-family="Calibri" font-size="7.5" fill="rgb(0,0,0)" text-anchor="middle">13</text>
<polygon points="175.8,230.3 183.8,230.3 183.8,236.3 175.8,236.3" fill="rgb(220,188,121)"/><text xml:space="preserve" x="179.8" y="236.133" font-family="Calibri" font-size="7.5" fill="rgb(0,0,0)" text-anchor="middle">13</text>
<polygon points="193.8,230.3 199.8,230.3 199.8,236.3 193.8,236.3" fill="rgb(255,123,123)"/>
<polygon points="199.8,230.3 205.8,230.3 205.8,236.3 199.8,236.3" fill="rgb(255,152,152)"/>
<polygon points="205.8,230.3 211.8,230.3 211.8,236.3 205.8,236.3" fill="rgb(255,247,247)"/>
<polygon points="211.8,230.3 217.8,230.3 217.8,236.3 211.8,236.3" fill="rgb(255,134,134)"/>
<polygon points="217.8,230.3 223.8,230.3 223.8,236.3 217.8,236.3" fill="rgb(255,213,213)"/>
<polygon points="223.8,230.3 229.8,230.3 229.8,236.3 223.8,236.3" fill="rgb(255,209,209)"/>
<polygon points="229.8,230.3 235.8,230.3 235.8,236.3 229.8,236.3" fill="rgb(230,230,255)"/>
<polygon points="235.8,230.3 241.8,230.3 241.8,236.3 235.8,236.3" fill="rgb(187,187,255)"/>
<polygon points="251.8,230.3 257.8,230.3 257.8,236.3 251.8,236.3" fill="rgb(255,74,74)"/>
<polygon points="257.8,230.3 263.8,230.3 263.8,236.3 257.8,236.3" fill="rgb(255,148,148)"/>
<polygon points="263.8,230.3 269.8,230.3 269.8,236.3 263.8,236.3" fill="rgb(254,239,239)"/>
<polygon points="269.8,230.3 275.8,230.3 275.8,236.3 269.8,236.3" fill="rgb(255,95,95)"/>
<polygon points="275.8,230.3 281.8,230.3 281.8,236.3 275.8,236.3" fill="rgb(255,148,148)"/>
<polygon points="281.8,230.3 287.8,230.3 287.8,236.3 281.8,236.3" fill="rgb(255,244,244)"/>
<polygon points="287.8,230.3 293.8,230.3 293.8,236.3 287.8,236.3" fill="rgb(182,182,255)"/>
<polygon points="293.8,230.3 299.8,230.3 299.8,236.3 293.8,236.3" fill="rgb(255,222,222)"/>
<polygon points="309.8,230.3 315.8,230.3 315.8,236.3 309.8,236.3" fill="rgb(255,77,77)"/>
<polygon points="315.8,230.3 321.8,230.3 321.8,236.3 315.8,236.3" fill="rgb(255,107,107)"/>
<polygon points="321.8,230.3 327.8,230.3 327.8,236.3 321.8,236.3" fill="rgb(255,149,149)"/>
<polygon points="327.8,230.3 333.8,230.3 333.8,236.3 327.8,236.3" fill="rgb(255,14,14)"/>
<polygon points="333.8,230.3 339.8,230.3 339.8,236.3 333.8,236.3" fill="rgb(255,112,112)"/>
<polygon points="339.8,230.3 345.8,230.3 345.8,236.3 339.8,236.3" fill="rgb(208,208,255)"/>
<polygon points="345.8,230.3 351.8,230.3 351.8,236.3 345.8,236.3" fill="rgb(255,242,242)"/>
<polygon points="351.8,230.3 357.8,230.3 357.8,236.3 351.8,236.3" fill="rgb(224,224,255)"/>
<polygon points="159.8,236.3 167.8,236.3 167.8,242.3 159.8,242.3" fill="rgb(232,216,183)"/><text xml:space="preserve" x="163.8" y="242.133" font-family="Calibri" font-size="7.5" fill="rgb(0,0,0)" text-anchor="middle">10</text>
<polygon points="167.8,236.3 175.8,236.3 175.8,242.3 167.8,242.3" fill="rgb(220,188,121)"/><text xml:space="preserve" x="171.8" y="242.133" font-family="Calibri" font-size="7.5" fill="rgb(0,0,0)" text-anchor="middle">13</text>
<polygon points="175.8,236.3 183.8,236.3 183.8,242.3 175.8,242.3" fill="rgb(220,188,121)"/><text xml:space="preserve" x="179.8" y="242.133" font-family="Calibri" font-size="7.5" fill="rgb(0,0,0)" text-anchor="middle">13</text>
<polygon points="193.8,236.3 199.8,236.3 199.8,242.3 193.8,242.3" fill="rgb(255,129,129)"/>
<polygon points="199.8,236.3 205.8,236.3 205.8,242.3 199.8,242.3" fill="rgb(255,148,148)"/>
<polygon points="205.8,236.3 211.8,236.3 211.8,242.3 205.8,242.3" fill="rgb(255,135,135)"/>
<polygon points="211.8,236.3 217.8,236.3 217.8,242.3 211.8,242.3" fill="rgb(255,137,137)"/>
<polygon points="217.8,236.3 223.8,236.3 223.8,242.3 217.8,242.3" fill="rgb(254,154,154)"/>
<polygon points="223.8,236.3 229.8,236.3 229.8,242.3 223.8,242.3" fill="rgb(224,224,255)"/>
<polygon points="229.8,236.3 235.8,236.3 235.8,242.3 229.8,242.3" fill="rgb(186,186,255)"/>
<polygon points="235.8,236.3 241.8,236.3 241.8,242.3 235.8,242.3" fill="rgb(183,183,255)"/>
<polygon points="251.8,236.3 257.8,236.3 257.8,242.3 251.8,242.3" fill="rgb(255,133,133)"/>
<polygon points="257.8,236.3 263.8,236.3 263.8,242.3 257.8,242.3" fill="rgb(255,157,157)"/>
<polygon points="263.8,236.3 269.8,236.3 269.8,242.3 263.8,242.3" fill="rgb(255,136,136)"/>
<polygon points="269.8,236.3 275.8,236.3 275.8,242.3 269.8,242.3" fill="rgb(255,110,110)"/>
<polygon points="275.8,236.3 281.8,236.3 281.8,242.3 275.8,242.3" fill="rgb(255,168,168)"/>
<polygon points="281.8,236.3 287.8,236.3 287.8,242.3 281.8,242.3" fill="rgb(228,228,255)"/>
<polygon points="287.8,236.3 293.8,236.3 293.8,242.3 287.8,242.3" fill="rgb(196,196,255)"/>
<polygon points="293.8,236.3 299.8,236.3 299.8,242.3 293.8,242.3" fill="rgb(223,223,255)"/>
<polygon points="309.8,236.3 315.8,236.3 315.8,242.3 309.8,242.3" fill="rgb(255,168,168)"/>
<polygon points="315.8,236.3 321.8,236.3 321.8,242.3 315.8,242.3" fill="rgb(255,136,136)"/>
<polygon points="321.8,236.3 327.8,236.3 327.8,242.3 321.8,242.3" fill="rgb(255,127,127)"/>
<polygon points="327.8,236.3 333.8,236.3 333.8,242.3 327.8,242.3" fill="rgb(255,79,79)"/>
<polygon points="333.8,236.3 339.8,236.3 339.8,242.3 333.8,242.3" fill="rgb(254,174,174)"/>
<polygon points="339.8,236.3 345.8,236.3 345.8,242.3 339.8,242.3" fill="rgb(251,251,255)"/>
<polygon points="345.8,236.3 351.8,236.3 351.8,242.3 345.8,242.3" fill="rgb(156,156,255)"/>
<polygon points="351.8,236.3 357.8,236.3 357.8,242.3 351.8,242.3" fill="rgb(207,207,255)"/>
<polygon points="159.8,242.3 167.8,242.3 167.8,248.3 159.8,248.3" fill="rgb(232,216,183)"/><text xml:space="preserve" x="163.8" y="248.133" font-family="Calibri" font-size="7.5" fill="rgb(0,0,0)" text-anchor="middle">10</text>
<polygon points="167.8,242.3 175.8,242.3 175.8,248.3 167.8,248.3" fill="rgb(220,188,121)"/><text xml:space="preserve" x="171.8" y="248.133" font-family="Calibri" font-size="7.5" fill="rgb(0,0,0)" text-anchor="middle">13</text>
<polygon points="175.8,242.3 183.8,242.3 183.8,248.3 175.8,248.3" fill="rgb(220,188,121)"/><text xml:space="preserve" x="179.8" y="248.133" font-family="Calibri" font-size="7.5" fill="rgb(0,0,0)" text-anchor="middle">13</text>
<polygon points="193.8,242.3 199.8,242.3 199.8,248.3 193.8,248.3" fill="rgb(255,153,153)"/>
<polygon points="199.8,242.3 205.8,242.3 205.8,248.3 199.8,248.3" fill="rgb(255,132,132)"/>
<polygon points="205.8,242.3 211.8,242.3 211.8,248.3 205.8,248.3" fill="rgb(255,186,186)"/>
<polygon points="211.8,242.3 217.8,242.3 217.8,248.3 211.8,248.3" fill="rgb(255,171,171)"/>
<polygon points="217.8,242.3 223.8,242.3 223.8,248.3 217.8,248.3" fill="rgb(255,128,128)"/>
<polygon points="223.8,242.3 229.8,242.3 229.8,248.3 223.8,248.3" fill="rgb(255,250,250)"/>
<polygon points="229.8,242.3 235.8,242.3 235.8,248.3 229.8,248.3" fill="rgb(210,210,255)"/>
<polygon points="235.8,242.3 241.8,242.3 241.8,248.3 235.8,248.3" fill="rgb(194,194,255)"/>
<polygon points="251.8,242.3 257.8,242.3 257.8,248.3 251.8,248.3" fill="rgb(255,151,151)"/>
<polygon points="257.8,242.3 263.8,242.3 263.8,248.3 257.8,248.3" fill="rgb(255,115,115)"/>
<polygon points="263.8,242.3 269.8,242.3 269.8,248.3 263.8,248.3" fill="rgb(255,161,161)"/>
<polygon points="269.8,242.3 275.8,242.3 275.8,248.3 269.8,248.3" fill="rgb(255,101,101)"/>
<polygon points="275.8,242.3 281.8,242.3 281.8,248.3 275.8,248.3" fill="rgb(255,140,140)"/>
<polygon points="281.8,242.3 287.8,242.3 287.8,248.3 281.8,248.3" fill="rgb(179,179,255)"/>
<polygon points="287.8,242.3 293.8,242.3 293.8,248.3 287.8,248.3" fill="rgb(220,220,255)"/>
<polygon points="293.8,242.3 299.8,242.3 299.8,248.3 293.8,248.3" fill="rgb(204,204,255)"/>
<polygon points="309.8,242.3 315.8,242.3 315.8,248.3 309.8,248.3" fill="rgb(255,147,147)"/>
<polygon points="315.8,242.3 321.8,242.3 321.8,248.3 315.8,248.3" fill="rgb(255,89,89)"/>
<polygon points="321.8,242.3 327.8,242.3 327.8,248.3 321.8,248.3" fill="rgb(255,60,60)"/>
<polygon points="327.8,242.3 333.8,242.3 333.8,248.3 327.8,248.3" fill="rgb(255,33,33)"/>
<polygon points="333.8,242.3 339.8,242.3 339.8,248.3 333.8,248.3" fill="rgb(255,121,121)"/>
<polygon points="339.8,242.3 345.8,242.3 345.8,248.3 339.8,248.3" fill="rgb(164,164,255)"/>
<polygon points="345.8,242.3 351.8,242.3 351.8,248.3 345.8,248.3" fill="rgb(248,248,255)"/>
<polygon points="351.8,242.3 357.8,242.3 357.8,248.3 351.8,248.3" fill="rgb(145,145,255)"/>
<polygon points="159.8,248.3 167.8,248.3 167.8,254.3 159.8,254.3" fill="rgb(232,216,183)"/><text xml:space="preserve" x="163.8" y="254.133" font-family="Calibri" font-size="7.5" fill="rgb(0,0,0)" text-anchor="middle">10</text>
<polygon points="167.8,248.3 175.8,248.3 175.8,254.3 167.8,254.3" fill="rgb(220,188,121)"/><text xml:space="preserve" x="171.8" y="254.133" font-family="Calibri" font-size="7.5" fill="rgb(0,0,0)" text-anchor="middle">13</text>
<polygon points="175.8,248.3 183.8,248.3 183.8,254.3 175.8,254.3" fill="rgb(220,188,121)"/><text xml:space="preserve" x="179.8" y="254.133" font-family="Calibri" font-size="7.5" fill="rgb(0,0,0)" text-anchor="middle">13</text>
<polygon points="193.8,248.3 199.8,248.3 199.8,254.3 193.8,254.3" fill="rgb(255,168,168)"/>
<polygon points="199.8,248.3 205.8,248.3 205.8,254.3 199.8,254.3" fill="rgb(255,174,174)"/>
<polygon points="205.8,248.3 211.8,248.3 211.8,254.3 205.8,254.3" fill="rgb(255,226,226)"/>
<polygon points="211.8,248.3 217.8,248.3 217.8,254.3 211.8,254.3" fill="rgb(255,162,162)"/>
<polygon points="217.8,248.3 223.8,248.3 223.8,254.3 217.8,254.3" fill="rgb(255,172,172)"/>
<polygon points="223.8,248.3 229.8,248.3 229.8,254.3 223.8,254.3" fill="rgb(146,146,255)"/>
<polygon points="229.8,248.3 235.8,248.3 235.8,254.3 229.8,254.3" fill="rgb(203,203,255)"/>
<polygon points="235.8,248.3 241.8,248.3 241.8,254.3 235.8,254.3" fill="rgb(171,171,255)"/>
<polygon points="251.8,248.3 257.8,248.3 257.8,254.3 251.8,254.3" fill="rgb(255,104,104)"/>
<polygon points="257.8,248.3 263.8,248.3 263.8,254.3 257.8,254.3" fill="rgb(255,138,138)"/>
<polygon points="263.8,248.3 269.8,248.3 269.8,254.3 263.8,254.3" fill="rgb(255,157,157)"/>
<polygon points="269.8,248.3 275.8,248.3 275.8,254.3 269.8,254.3" fill="rgb(255,93,93)"/>
<polygon points="275.8,248.3 281.8,248.3 281.8,254.3 275.8,254.3" fill="rgb(255,117,117)"/>
<polygon points="281.8,248.3 287.8,248.3 287.8,254.3 281.8,254.3" fill="rgb(255,250,250)"/>
<polygon points="287.8,248.3 293.8,248.3 293.8,254.3 287.8,254.3" fill="rgb(210,210,255)"/>
<polygon points="293.8,248.3 299.8,248.3 299.8,254.3 293.8,254.3" fill="rgb(67,67,255)"/>
<polygon points="309.8,248.3 315.8,248.3 315.8,254.3 309.8,254.3" fill="rgb(255,117,117)"/>
<polygon points="315.8,248.3 321.8,248.3 321.8,254.3 315.8,254.3" fill="rgb(255,127,127)"/>
<polygon points="321.8,248.3 327.8,248.3 327.8,254.3 321.8,254.3" fill="rgb(255,138,138)"/>
<polygon points="327.8,248.3 333.8,248.3 333.8,254.3 327.8,254.3" fill="rgb(255,47,47)"/>
<polygon points="333.8,248.3 339.8,248.3 339.8,254.3 333.8,254.3" fill="rgb(255,102,102)"/>
<polygon points="339.8,248.3 345.8,248.3 345.8,254.3 339.8,254.3" fill="rgb(187,187,255)"/>
<polygon points="345.8,248.3 351.8,248.3 351.8,254.3 345.8,254.3" fill="rgb(255,177,177)"/>
<polygon points="351.8,248.3 357.8,248.3 357.8,254.3 351.8,254.3" fill="rgb(175,175,255)"/>
<polygon points="159.8,254.3 167.8,254.3 167.8,260.3 159.8,260.3" fill="rgb(232,216,183)"/><text xml:space="preserve" x="163.8" y="260.133" font-family="Calibri" font-size="7.5" fill="rgb(0,0,0)" text-anchor="middle">10</text>
<polygon points="167.8,254.3 175.8,254.3 175.8,260.3 167.8,260.3" fill="rgb(220,188,121)"/><text xml:space="preserve" x="171.8" y="260.133" font-family="Calibri" font-size="7.5" fill="rgb(0,0,0)" text-anchor="middle">13</text>
<polygon points="175.8,254.3 183.8,254.3 183.8,260.3 175.8,260.3" fill="rgb(220,188,121)"/><text xml:space="preserve" x="179.8" y="260.133" font-family="Calibri" font-size="7.5" fill="rgb(0,0,0)" text-anchor="middle">13</text>
<polygon points="193.8,254.3 199.8,254.3 199.8,260.3 193.8,260.3" fill="rgb(255,132,132)"/>
<polygon points="199.8,254.3 205.8,254.3 205.8,260.3 199.8,260.3" fill="rgb(255,166,166)"/>
<polygon points="205.8,254.3 211.8,254.3 211.8,260.3 205.8,260.3" fill="rgb(255,237,237)"/>
<polygon points="211.8,254.3 217.8,254.3 217.8,260.3 211.8,260.3" fill="rgb(254,166,166)"/>
<polygon points="217.8,254.3 223.8,254.3 223.8,260.3 217.8,260.3" fill="rgb(254,154,154)"/>
<polygon points="223.8,254.3 229.8,254.3 229.8,260.3 223.8,260.3" fill="rgb(248,248,255)"/>
<polygon points="229.8,254.3 235.8,254.3 235.8,260.3 229.8,260.3" fill="rgb(255,201,201)"/>
<polygon points="235.8,254.3 241.8,254.3 241.8,260.3 235.8,260.3" fill="rgb(187,187,255)"/>
<polygon points="251.8,254.3 257.8,254.3 257.8,260.3 251.8,260.3" fill="rgb(255,160,160)"/>
<polygon points="257.8,254.3 263.8,254.3 263.8,260.3 257.8,260.3" fill="rgb(255,88,88)"/>
<polygon points="263.8,254.3 269.8,254.3 269.8,260.3 263.8,260.3" fill="rgb(255,156,156)"/>
<polygon points="269.8,254.3 275.8,254.3 275.8,260.3 269.8,260.3" fill="rgb(255,59,59)"/>
<polygon points="275.8,254.3 281.8,254.3 281.8,260.3 275.8,260.3" fill="rgb(255,110,110)"/>
<polygon points="281.8,254.3 287.8,254.3 287.8,260.3 281.8,260.3" fill="rgb(244,244,255)"/>
<polygon points="287.8,254.3 293.8,254.3 293.8,260.3 287.8,260.3" fill="rgb(255,237,237)"/>
<polygon points="293.8,254.3 299.8,254.3 299.8,260.3 293.8,260.3" fill="rgb(192,192,255)"/>
<polygon points="309.8,254.3 315.8,254.3 315.8,260.3 309.8,260.3" fill="rgb(255,135,135)"/>
<polygon points="315.8,254.3 321.8,254.3 321.8,260.3 315.8,260.3" fill="rgb(255,191,191)"/>
<polygon points="321.8,254.3 327.8,254.3 327.8,260.3 321.8,260.3" fill="rgb(255,185,185)"/>
<polygon points="327.8,254.3 333.8,254.3 333.8,260.3 327.8,260.3" fill="rgb(255,103,103)"/>
<polygon points="333.8,254.3 339.8,254.3 339.8,260.3 333.8,260.3" fill="rgb(254,150,150)"/>
<polygon points="339.8,254.3 345.8,254.3 345.8,260.3 339.8,260.3" fill="rgb(175,175,255)"/>
<polygon points="345.8,254.3 351.8,254.3 351.8,260.3 345.8,260.3" fill="rgb(212,212,255)"/>
<polygon points="351.8,254.3 357.8,254.3 357.8,260.3 351.8,260.3" fill="rgb(244,244,255)"/>
<polygon points="159.8,260.3 167.8,260.3 167.8,266.3 159.8,266.3" fill="rgb(232,216,183)"/><text xml:space="preserve" x="163.8" y="266.133" font-family="Calibri" font-size="7.5" fill="rgb(0,0,0)" text-anchor="middle">10</text>
<polygon points="167.8,260.3 175.8,260.3 175.8,266.3 167.8,266.3" fill="rgb(220,188,121)"/><text xml:space="preserve" x="171.8" y="266.133" font-family="Calibri" font-size="7.5" fill="rgb(0,0,0)" text-anchor="middle">13</text>
<polygon points="175.8,260.3 183.8,260.3 183.8,266.3 175.8,266.3" fill="rgb(220,188,121)"/><text xml:space="preserve" x="179.8" y="266.133" font-family="Calibri" font-size="7.5" fill="rgb(0,0,0)" text-anchor="middle">13</text>
<polygon points="193.8,260.3 199.8,260.3 199.8,266.3 193.8,266.3" fill="rgb(255,160,160)"/>
<polygon points="199.8,260.3 205.8,260.3 205.8,266.3 199.8,266.3" fill="rgb(255,156,156)"/>
<polygon points="205.8,260.3 211.8,260.3 211.8,266.3 205.8,266.3" fill="rgb(255,202,202)"/>
<polygon points="211.8,260.3 217.8,260.3 217.8,266.3 211.8,266.3" fill="rgb(255,172,172)"/>
<polygon points="217.8,260.3 223.8,260.3 223.8,266.3 217.8,266.3" fill="rgb(254,164,164)"/>
<polygon points="223.8,260.3 229.8,260.3 229.8,266.3 223.8,266.3" fill="rgb(219,219,255)"/>
<polygon points="229.8,260.3 235.8,260.3 235.8,266.3 229.8,266.3" fill="rgb(223,223,255)"/>
<polygon points="235.8,260.3 241.8,260.3 241.8,266.3 235.8,266.3" fill="rgb(254,254,255)"/>
<polygon points="251.8,260.3 257.8,260.3 257.8,266.3 251.8,266.3" fill="rgb(255,169,169)"/>
<polygon points="257.8,260.3 263.8,260.3 263.8,266.3 257.8,266.3" fill="rgb(255,119,119)"/>
<polygon points="263.8,260.3 269.8,260.3 269.8,266.3 263.8,266.3" fill="rgb(255,128,128)"/>
<polygon points="269.8,260.3 275.8,260.3 275.8,266.3 269.8,266.3" fill="rgb(255,123,123)"/>
<polygon points="275.8,260.3 281.8,260.3 281.8,266.3 275.8,266.3" fill="rgb(255,107,107)"/>
<polygon points="281.8,260.3 287.8,260.3 287.8,266.3 281.8,266.3" fill="rgb(239,239,255)"/>
<polygon points="287.8,260.3 293.8,260.3 293.8,266.3 287.8,266.3" fill="rgb(255,226,226)"/>
<polygon points="293.8,260.3 299.8,260.3 299.8,266.3 293.8,266.3" fill="rgb(232,232,255)"/>
<polygon points="309.8,260.3 315.8,260.3 315.8,266.3 309.8,266.3" fill="rgb(255,155,155)"/>
<polygon points="315.8,260.3 321.8,260.3 321.8,266.3 315.8,266.3" fill="rgb(255,115,115)"/>
<polygon points="321.8,260.3 327.8,260.3 327.8,266.3 321.8,266.3" fill="rgb(255,119,119)"/>
<polygon points="327.8,260.3 333.8,260.3 333.8,266.3 327.8,266.3" fill="rgb(255,87,87)"/>
<polygon points="333.8,260.3 339.8,260.3 339.8,266.3 333.8,266.3" fill="rgb(255,130,130)"/>
<polygon points="339.8,260.3 345.8,260.3 345.8,266.3 339.8,266.3" fill="rgb(218,218,255)"/>
<polygon points="345.8,260.3 351.8,260.3 351.8,266.3 345.8,266.3" fill="rgb(252,252,255)"/>
<polygon points="351.8,260.3 357.8,260.3 357.8,266.3 351.8,266.3" fill="rgb(239,239,255)"/>
<polygon points="159.8,266.3 167.8,266.3 167.8,272.3 159.8,272.3" fill="rgb(232,216,183)"/><text xml:space="preserve" x="163.8" y="272.133" font-family="Calibri" font-size="7.5" fill="rgb(0,0,0)" text-anchor="middle">10</text>
<polygon points="167.8,266.3 175.8,266.3 175.8,272.3 167.8,272.3" fill="rgb(220,188,121)"/><text xml:space="preserve" x="171.8" y="272.133" font-family="Calibri" font-size="7.5" fill="rgb(0,0,0)" text-anchor="middle">13</text>
<polygon points="175.8,266.3 183.8,266.3 183.8,272.3 175.8,272.3" fill="rgb(220,188,121)"/><text xml:space="preserve" x="179.8" y="272.133" font-family="Calibri" font-size="7.5" fill="rgb(0,0,0)" text-anchor="middle">13</text>
<polygon points="193.8,266.3 199.8,266.3 199.8,272.3 193.8,272.3" fill="rgb(255,193,193)"/>
<polygon points="199.8,266.3 205.8,266.3 205.8,272.3 199.8,272.3" fill="rgb(255,132,132)"/>
<polygon points="205.8,266.3 211.8,266.3 211.8,272.3 205.8,272.3" fill="rgb(255,129,129)"/>
<polygon points="211.8,266.3 217.8,266.3 217.8,272.3 211.8,272.3" fill="rgb(255,150,150)"/>
<polygon points="217.8,266.3 223.8,266.3 223.8,272.3 217.8,272.3" fill="rgb(255,181,181)"/>
<polygon points="223.8,266.3 229.8,266.3 229.8,272.3 223.8,272.3" fill="rgb(255,230,230)"/>
<polygon points="229.8,266.3 235.8,266.3 235.8,272.3 229.8,272.3" fill="rgb(216,216,255)"/>
<polygon points="235.8,266.3 241.8,266.3 241.8,272.3 235.8,272.3" fill="rgb(182,182,255)"/>
<polygon points="251.8,266.3 257.8,266.3 257.8,272.3 251.8,272.3" fill="rgb(255,193,193)"/>
<polygon points="257.8,266.3 263.8,266.3 263.8,272.3 257.8,272.3" fill="rgb(255,151,151)"/>
<polygon points="263.8,266.3 269.8,266.3 269.8,272.3 263.8,272.3" fill="rgb(255,154,154)"/>
<polygon points="269.8,266.3 275.8,266.3 275.8,272.3 269.8,272.3" fill="rgb(255,101,101)"/>
<polygon points="275.8,266.3 281.8,266.3 281.8,272.3 275.8,272.3" fill="rgb(255,186,186)"/>
<polygon points="281.8,266.3 287.8,266.3 287.8,272.3 281.8,272.3" fill="rgb(206,206,255)"/>
<polygon points="287.8,266.3 293.8,266.3 293.8,272.3 287.8,272.3" fill="rgb(160,160,255)"/>
<polygon points="293.8,266.3 299.8,266.3 299.8,272.3 293.8,272.3" fill="rgb(223,223,255)"/>
<polygon points="309.8,266.3 315.8,266.3 315.8,272.3 309.8,272.3" fill="rgb(255,224,224)"/>
<polygon points="315.8,266.3 321.8,266.3 321.8,272.3 315.8,272.3" fill="rgb(255,148,148)"/>
<polygon points="321.8,266.3 327.8,266.3 327.8,272.3 321.8,272.3" fill="rgb(255,132,132)"/>
<polygon points="327.8,266.3 333.8,266.3 333.8,272.3 327.8,272.3" fill="rgb(255,108,108)"/>
<polygon points="333.8,266.3 339.8,266.3 339.8,272.3 333.8,272.3" fill="rgb(255,215,215)"/>
<polygon points="339.8,266.3 345.8,266.3 345.8,272.3 339.8,272.3" fill="rgb(239,239,255)"/>
<polygon points="345.8,266.3 351.8,266.3 351.8,272.3 345.8,272.3" fill="rgb(189,189,255)"/>
<polygon points="351.8,266.3 357.8,266.3 357.8,272.3 351.8,272.3" fill="rgb(169,169,255)"/>
<polygon points="159.8,272.3 167.8,272.3 167.8,278.3 159.8,278.3" fill="rgb(232,216,183)"/><text xml:space="preserve" x="163.8" y="278.133" font-family="Calibri" font-size="7.5" fill="rgb(0,0,0)" text-anchor="middle">10</text>
<polygon points="167.8,272.3 175.8,272.3 175.8,278.3 167.8,278.3" fill="rgb(220,188,121)"/><text xml:space="preserve" x="171.8" y="278.133" font-family="Calibri" font-size="7.5" fill="rgb(0,0,0)" text-anchor="middle">13</text>
<polygon points="175.8,272.3 183.8,272.3 183.8,278.3 175.8,278.3" fill="rgb(220,188,121)"/><text xml:space="preserve" x="179.8" y="278.133" font-family="Calibri" font-size="7.5" fill="rgb(0,0,0)" text-anchor="middle">13</text>
<polygon points="193.8,272.3 199.8,272.3 199.8,278.3 193.8,278.3" fill="rgb(255,155,155)"/>
<polygon points="199.8,272.3 205.8,272.3 205.8,278.3 199.8,278.3" fill="rgb(255,179,179)"/>
<polygon points="205.8,272.3 211.8,272.3 211.8,278.3 205.8,278.3" fill="rgb(255,208,208)"/>
<polygon points="211.8,272.3 217.8,272.3 217.8,278.3 211.8,278.3" fill="rgb(255,156,156)"/>
<polygon points="217.8,272.3 223.8,272.3 223.8,278.3 217.8,278.3" fill="rgb(255,106,106)"/>
<polygon points="223.8,272.3 229.8,272.3 229.8,278.3 223.8,278.3" fill="rgb(255,185,185)"/>
<polygon points="229.8,272.3 235.8,272.3 235.8,278.3 229.8,278.3" fill="rgb(195,195,255)"/>
<polygon points="235.8,272.3 241.8,272.3 241.8,278.3 235.8,278.3" fill="rgb(189,189,255)"/>
<polygon points="251.8,272.3 257.8,272.3 257.8,278.3 251.8,278.3" fill="rgb(255,173,173)"/>
<polygon points="257.8,272.3 263.8,272.3 263.8,278.3 257.8,278.3" fill="rgb(255,138,138)"/>
<polygon points="263.8,272.3 269.8,272.3 269.8,278.3 263.8,278.3" fill="rgb(255,170,170)"/>
<polygon points="269.8,272.3 275.8,272.3 275.8,278.3 269.8,278.3" fill="rgb(255,55,55)"/>
<polygon points="275.8,272.3 281.8,272.3 281.8,278.3 275.8,278.3" fill="rgb(255,116,116)"/>
<polygon points="281.8,272.3 287.8,272.3 287.8,278.3 281.8,278.3" fill="rgb(203,203,255)"/>
<polygon points="287.8,272.3 293.8,272.3 293.8,278.3 287.8,278.3" fill="rgb(208,208,255)"/>
<polygon points="293.8,272.3 299.8,272.3 299.8,278.3 293.8,278.3" fill="rgb(255,233,233)"/>
<polygon points="309.8,272.3 315.8,272.3 315.8,278.3 309.8,278.3" fill="rgb(255,148,148)"/>
<polygon points="315.8,272.3 321.8,272.3 321.8,278.3 315.8,278.3" fill="rgb(255,144,144)"/>
<polygon points="321.8,272.3 327.8,272.3 327.8,278.3 321.8,278.3" fill="rgb(255,80,80)"/>
<polygon points="327.8,272.3 333.8,272.3 333.8,278.3 327.8,278.3" fill="rgb(255,95,95)"/>
<polygon points="333.8,272.3 339.8,272.3 339.8,278.3 333.8,278.3" fill="rgb(255,167,167)"/>
<polygon points="339.8,272.3 345.8,272.3 345.8,278.3 339.8,278.3" fill="rgb(255,238,238)"/>
<polygon points="345.8,272.3 351.8,272.3 351.8,278.3 345.8,278.3" fill="rgb(166,166,255)"/>
<polygon points="351.8,272.3 357.8,272.3 357.8,278.3 351.8,278.3" fill="rgb(219,219,255)"/>
<polygon points="159.8,278.3 167.8,278.3 167.8,284.3 159.8,284.3" fill="rgb(232,216,183)"/><text xml:space="preserve" x="163.8" y="284.133" font-family="Calibri" font-size="7.5" fill="rgb(0,0,0)" text-anchor="middle">10</text>
<polygon points="167.8,278.3 175.8,278.3 175.8,284.3 167.8,284.3" fill="rgb(220,188,121)"/><text xml:space="preserve" x="171.8" y="284.133" font-family="Calibri" font-size="7.5" fill="rgb(0,0,0)" text-anchor="middle">13</text>
<polygon points="175.8,278.3 183.8,278.3 183.8,284.3 175.8,284.3" fill="rgb(220,188,121)"/><text xml:space="preserve" x="179.8" y="284.133" font-family="Calibri" font-size="7.5" fill="rgb(0,0,0)" text-anchor="middle">13</text>
<polygon points="193.8,278.3 199.8,278.3 199.8,284.3 193.8,284.3" fill="rgb(255,182,182)"/>
<polygon points="199.8,278.3 205.8,278.3 205.8,284.3 199.8,284.3" fill="rgb(255,159,159)"/>
<polygon points="205.8,278.3 211.8,278.3 211.8,284.3 205.8,284.3" fill="rgb(255,175,175)"/>
<polygon points="211.8,278.3 217.8,278.3 217.8,284.3 211.8,284.3" fill="rgb(255,190,190)"/>
<polygon points="217.8,278.3 223.8,278.3 223.8,284.3 217.8,284.3" fill="rgb(255,148,148)"/>
<polygon points="223.8,278.3 229.8,278.3 229.8,284.3 223.8,284.3" fill="rgb(239,239,255)"/>
<polygon points="229.8,278.3 235.8,278.3 235.8,284.3 229.8,284.3" fill="rgb(228,228,255)"/>
<polygon points="235.8,278.3 241.8,278.3 241.8,284.3 235.8,284.3" fill="rgb(225,225,255)"/>
<polygon points="251.8,278.3 257.8,278.3 257.8,284.3 251.8,284.3" fill="rgb(255,166,166)"/>
<polygon points="257.8,278.3 263.8,278.3 263.8,284.3 257.8,284.3" fill="rgb(254,146,146)"/>
<polygon points="263.8,278.3 269.8,278.3 269.8,284.3 263.8,284.3" fill="rgb(254,204,204)"/>
<polygon points="269.8,278.3 275.8,278.3 275.8,284.3 269.8,284.3" fill="rgb(255,42,42)"/>
<polygon points="275.8,278.3 281.8,278.3 281.8,284.3 275.8,284.3" fill="rgb(255,151,151)"/>
<polygon points="281.8,278.3 287.8,278.3 287.8,284.3 281.8,284.3" fill="rgb(216,216,255)"/>
<polygon points="287.8,278.3 293.8,278.3 293.8,284.3 287.8,284.3" fill="rgb(175,175,255)"/>
<polygon points="293.8,278.3 299.8,278.3 299.8,284.3 293.8,284.3" fill="rgb(182,182,255)"/>
<polygon points="309.8,278.3 315.8,278.3 315.8,284.3 309.8,284.3" fill="rgb(255,182,182)"/>
<polygon points="315.8,278.3 321.8,278.3 321.8,284.3 315.8,284.3" fill="rgb(255,174,174)"/>
<polygon points="321.8,278.3 327.8,278.3 327.8,284.3 321.8,284.3" fill="rgb(255,155,155)"/>
<polygon points="327.8,278.3 333.8,278.3 333.8,284.3 327.8,284.3" fill="rgb(255,56,56)"/>
<polygon points="333.8,278.3 339.8,278.3 339.8,284.3 333.8,284.3" fill="rgb(255,206,206)"/>
<polygon points="339.8,278.3 345.8,278.3 345.8,284.3 339.8,284.3" fill="rgb(232,232,255)"/>
<polygon points="345.8,278.3 351.8,278.3 351.8,284.3 345.8,284.3" fill="rgb(219,219,255)"/>
<polygon points="351.8,278.3 357.8,278.3 357.8,284.3 351.8,284.3" fill="rgb(182,182,255)"/>
<polygon points="159.8,284.3 167.8,284.3 167.8,290.3 159.8,290.3" fill="rgb(232,216,183)"/><text xml:space="preserve" x="163.8" y="290.133" font-family="Calibri" font-size="7.5" fill="rgb(0,0,0)" text-anchor="middle">10</text>
<polygon points="167.8,284.3 175.8,284.3 175.8,290.3 167.8,290.3" fill="rgb(216,179,101)"/><text xml:space="preserve" x="171.8" y="290.133" font-family="Calibri" font-size="7.5" fill="rgb(0,0,0)" text-anchor="middle">15</text>
<polygon points="175.8,284.3 183.8,284.3 183.8,290.3 175.8,290.3" fill="rgb(220,188,121)"/><text xml:space="preserve" x="179.8" y="290.133" font-family="Calibri" font-size="7.5" fill="rgb(0,0,0)" text-anchor="middle">13</text>
<polygon points="193.8,284.3 199.8,284.3 199.8,290.3 193.8,290.3" fill="rgb(255,142,142)"/>
<polygon points="199.8,284.3 205.8,284.3 205.8,290.3 199.8,290.3" fill="rgb(255,148,148)"/>
<polygon points="205.8,284.3 211.8,284.3 211.8,290.3 205.8,290.3" fill="rgb(255,193,193)"/>
<polygon points="211.8,284.3 217.8,284.3 217.8,290.3 211.8,290.3" fill="rgb(255,133,133)"/>
<polygon points="217.8,284.3 223.8,284.3 223.8,290.3 217.8,290.3" fill="rgb(255,149,149)"/>
<polygon points="223.8,284.3 229.8,284.3 229.8,290.3 223.8,290.3" fill="rgb(217,217,255)"/>
<polygon points="229.8,284.3 235.8,284.3 235.8,290.3 229.8,290.3" fill="rgb(228,228,255)"/>
<polygon points="235.8,284.3 241.8,284.3 241.8,290.3 235.8,290.3" fill="rgb(255,242,242)"/>
<polygon points="251.8,284.3 257.8,284.3 257.8,290.3 251.8,290.3" fill="rgb(255,202,202)"/>
<polygon points="257.8,284.3 263.8,284.3 263.8,290.3 257.8,290.3" fill="rgb(255,223,223)"/>
<polygon points="263.8,284.3 269.8,284.3 269.8,290.3 263.8,290.3" fill="rgb(255,251,251)"/>
<polygon points="269.8,284.3 275.8,284.3 275.8,290.3 269.8,290.3" fill="rgb(255,254,254)"/>
<polygon points="275.8,284.3 281.8,284.3 281.8,290.3 275.8,290.3" fill="rgb(255,211,211)"/>
<polygon points="281.8,284.3 287.8,284.3 287.8,290.3 281.8,290.3" fill="rgb(255,193,193)"/>
<polygon points="287.8,284.3 293.8,284.3 293.8,290.3 287.8,290.3" fill="rgb(255,57,57)"/>
<polygon points="293.8,284.3 299.8,284.3 299.8,290.3 293.8,290.3" fill="rgb(192,192,255)"/>
<polygon points="309.8,284.3 315.8,284.3 315.8,290.3 309.8,290.3" fill="rgb(255,128,128)"/>
<polygon points="315.8,284.3 321.8,284.3 321.8,290.3 315.8,290.3" fill="rgb(255,229,229)"/>
<polygon points="321.8,284.3 327.8,284.3 327.8,290.3 321.8,290.3" fill="rgb(255,150,150)"/>
<polygon points="327.8,284.3 333.8,284.3 333.8,290.3 327.8,290.3" fill="rgb(255,145,145)"/>
<polygon points="333.8,284.3 339.8,284.3 339.8,290.3 333.8,290.3" fill="rgb(255,145,145)"/>
<polygon points="339.8,284.3 345.8,284.3 345.8,290.3 339.8,290.3" fill="rgb(245,245,255)"/>
<polygon points="345.8,284.3 351.8,284.3 351.8,290.3 345.8,290.3" fill="rgb(237,237,255)"/>
<polygon points="351.8,284.3 357.8,284.3 357.8,290.3 351.8,290.3" fill="rgb(255,180,180)"/>
<polygon points="159.8,290.3 167.8,290.3 167.8,296.3 159.8,296.3" fill="rgb(232,216,183)"/><text xml:space="preserve" x="163.8" y="296.133" font-family="Calibri" font-size="7.5" fill="rgb(0,0,0)" text-anchor="middle">10</text>
<polygon points="167.8,290.3 175.8,290.3 175.8,296.3 167.8,296.3" fill="rgb(216,179,101)"/><text xml:space="preserve" x="171.8" y="296.133" font-family="Calibri" font-size="7.5" fill="rgb(0,0,0)" text-anchor="middle">15</text>
<polygon points="175.8,290.3 183.8,290.3 183.8,296.3 175.8,296.3" fill="rgb(220,188,121)"/><text xml:space="preserve" x="179.8" y="296.133" font-family="Calibri" font-size="7.5" fill="rgb(0,0,0)" text-anchor="middle">13</text>
<polygon points="193.8,290.3 199.8,290.3 199.8,296.3 193.8,296.3" fill="rgb(255,186,186)"/>
<polygon points="199.8,290.3 205.8,290.3 205.8,296.3 199.8,296.3" fill="rgb(255,202,202)"/>
<polygon points="205.8,290.3 211.8,290.3 211.8,296.3 205.8,296.3" fill="rgb(255,188,188)"/>
<polygon points="211.8,290.3 217.8,290.3 217.8,296.3 211.8,296.3" fill="rgb(255,129,129)"/>
<polygon points="217.8,290.3 223.8,290.3 223.8,296.3 217.8,296.3" fill="rgb(255,124,124)"/>
<polygon points="223.8,290.3 229.8,290.3 229.8,296.3 223.8,296.3" fill="rgb(182,182,255)"/>
<polygon points="229.8,290.3 235.8,290.3 235.8,296.3 229.8,296.3" fill="rgb(154,154,255)"/>
<polygon points="235.8,290.3 241.8,290.3 241.8,296.3 235.8,296.3" fill="rgb(167,167,255)"/>
<polygon points="251.8,290.3 257.8,290.3 257.8,296.3 251.8,296.3" fill="rgb(253,253,255)"/>
<polygon points="257.8,290.3 263.8,290.3 263.8,296.3 257.8,296.3" fill="rgb(255,248,248)"/>
<polygon points="263.8,290.3 269.8,290.3 269.8,296.3 263.8,296.3" fill="rgb(219,219,255)"/>
<polygon points="269.8,290.3 275.8,290.3 275.8,296.3 269.8,296.3" fill="rgb(255,188,188)"/>
<polygon points="275.8,290.3 281.8,290.3 281.8,296.3 275.8,296.3" fill="rgb(255,192,192)"/>
<polygon points="281.8,290.3 287.8,290.3 287.8,296.3 281.8,296.3" fill="rgb(255,245,245)"/>
<polygon points="287.8,290.3 293.8,290.3 293.8,296.3 287.8,296.3" fill="rgb(255,107,107)"/>
<polygon points="293.8,290.3 299.8,290.3 299.8,296.3 293.8,296.3" fill="rgb(246,246,255)"/>
<polygon points="309.8,290.3 315.8,290.3 315.8,296.3 309.8,296.3" fill="rgb(254,210,210)"/>
<polygon points="315.8,290.3 321.8,290.3 321.8,296.3 315.8,296.3" fill="rgb(254,250,250)"/>
<polygon points="321.8,290.3 327.8,290.3 327.8,296.3 321.8,296.3" fill="rgb(255,157,157)"/>
<polygon points="327.8,290.3 333.8,290.3 333.8,296.3 327.8,296.3" fill="rgb(255,84,84)"/>
<polygon points="333.8,290.3 339.8,290.3 339.8,296.3 333.8,296.3" fill="rgb(255,173,173)"/>
<polygon points="339.8,290.3 345.8,290.3 345.8,296.3 339.8,296.3" fill="rgb(231,231,255)"/>
<polygon points="345.8,290.3 351.8,290.3 351.8,296.3 345.8,296.3" fill="rgb(196,196,255)"/>
<polygon points="351.8,290.3 357.8,290.3 357.8,296.3 351.8,296.3" fill="rgb(255,247,247)"/>
<polygon points="159.8,296.3 167.8,296.3 167.8,302.3 159.8,302.3" fill="rgb(232,216,183)"/><text xml:space="preserve" x="163.8" y="302.133" font-family="Calibri" font-size="7.5" fill="rgb(0,0,0)" text-anchor="middle">10</text>
<polygon points="167.8,296.3 175.8,296.3 175.8,302.3 167.8,302.3" fill="rgb(216,179,101)"/><text xml:space="preserve" x="171.8" y="302.133" font-family="Calibri" font-size="7.5" fill="rgb(0,0,0)" text-anchor="middle">15</text>
<polygon points="175.8,296.3 183.8,296.3 183.8,302.3 175.8,302.3" fill="rgb(220,188,121)"/><text xml:space="preserve" x="179.8" y="302.133" font-family="Calibri" font-size="7.5" fill="rgb(0,0,0)" text-anchor="middle">13</text>
<polygon points="193.8,296.3 199.8,296.3 199.8,302.3 193.8,302.3" fill="rgb(255,157,157)"/>
<polygon points="199.8,296.3 205.8,296.3 205.8,302.3 199.8,302.3" fill="rgb(255,165,165)"/>
<polygon points="205.8,296.3 211.8,296.3 211.8,302.3 205.8,302.3" fill="rgb(254,214,214)"/>
<polygon points="211.8,296.3 217.8,296.3 217.8,302.3 211.8,302.3" fill="rgb(255,215,215)"/>
<polygon points="217.8,296.3 223.8,296.3 223.8,302.3 217.8,302.3" fill="rgb(255,129,129)"/>
<polygon points="223.8,296.3 229.8,296.3 229.8,302.3 223.8,302.3" fill="rgb(248,248,255)"/>
<polygon points="229.8,296.3 235.8,296.3 235.8,302.3 229.8,302.3" fill="rgb(205,205,255)"/>
<polygon points="235.8,296.3 241.8,296.3 241.8,302.3 235.8,302.3" fill="rgb(206,206,255)"/>
<polygon points="251.8,296.3 257.8,296.3 257.8,302.3 251.8,302.3" fill="rgb(254,247,247)"/>
<polygon points="257.8,296.3 263.8,296.3 263.8,302.3 257.8,302.3" fill="rgb(255,208,208)"/>
<polygon points="263.8,296.3 269.8,296.3 269.8,302.3 263.8,302.3" fill="rgb(217,217,255)"/>
<polygon points="269.8,296.3 275.8,296.3 275.8,302.3 269.8,302.3" fill="rgb(240,240,255)"/>
<polygon points="275.8,296.3 281.8,296.3 281.8,302.3 275.8,302.3" fill="rgb(255,166,166)"/>
<polygon points="281.8,296.3 287.8,296.3 287.8,302.3 281.8,302.3" fill="rgb(255,205,205)"/>
<polygon points="287.8,296.3 293.8,296.3 293.8,302.3 287.8,302.3" fill="rgb(255,231,231)"/>
<polygon points="293.8,296.3 299.8,296.3 299.8,302.3 293.8,302.3" fill="rgb(255,230,230)"/>
<polygon points="309.8,296.3 315.8,296.3 315.8,302.3 309.8,302.3" fill="rgb(255,125,125)"/>
<polygon points="315.8,296.3 321.8,296.3 321.8,302.3 315.8,302.3" fill="rgb(208,208,255)"/>
<polygon points="321.8,296.3 327.8,296.3 327.8,302.3 321.8,302.3" fill="rgb(255,170,170)"/>
<polygon points="327.8,296.3 333.8,296.3 333.8,302.3 327.8,302.3" fill="rgb(255,147,147)"/>
<polygon points="333.8,296.3 339.8,296.3 339.8,302.3 333.8,302.3" fill="rgb(255,190,190)"/>
<polygon points="339.8,296.3 345.8,296.3 345.8,302.3 339.8,302.3" fill="rgb(232,232,255)"/>
<polygon points="345.8,296.3 351.8,296.3 351.8,302.3 345.8,302.3" fill="rgb(255,239,239)"/>
<polygon points="351.8,296.3 357.8,296.3 357.8,302.3 351.8,302.3" fill="rgb(255,213,213)"/>
<polygon points="159.8,302.3 167.8,302.3 167.8,308.3 159.8,308.3" fill="rgb(232,216,183)"/><text xml:space="preserve" x="163.8" y="308.133" font-family="Calibri" font-size="7.5" fill="rgb(0,0,0)" text-anchor="middle">10</text>
<polygon points="167.8,302.3 175.8,302.3 175.8,308.3 167.8,308.3" fill="rgb(216,179,101)"/><text xml:space="preserve" x="171.8" y="308.133" font-family="Calibri" font-size="7.5" fill="rgb(0,0,0)" text-anchor="middle">15</text>
<polygon points="175.8,302.3 183.8,302.3 183.8,308.3 175.8,308.3" fill="rgb(220,188,121)"/><text xml:space="preserve" x="179.8" y="308.133" font-family="Calibri" font-size="7.5" fill="rgb(0,0,0)" text-anchor="middle">13</text>
<polygon points="193.8,302.3 199.8,302.3 199.8,308.3 193.8,308.3" fill="rgb(255,194,194)"/>
<polygon points="199.8,302.3 205.8,302.3 205.8,308.3 199.8,308.3" fill="rgb(255,153,153)"/>
<polygon points="205.8,302.3 211.8,302.3 211.8,308.3 205.8,308.3" fill="rgb(255,143,143)"/>
<polygon points="211.8,302.3 217.8,302.3 217.8,308.3 211.8,308.3" fill="rgb(255,159,159)"/>
<polygon points="217.8,302.3 223.8,302.3 223.8,308.3 217.8,308.3" fill="rgb(255,100,100)"/>
<polygon points="223.8,302.3 229.8,302.3 229.8,308.3 223.8,308.3" fill="rgb(219,219,255)"/>
<polygon points="229.8,302.3 235.8,302.3 235.8,308.3 229.8,308.3" fill="rgb(237,237,255)"/>
<polygon points="235.8,302.3 241.8,302.3 241.8,308.3 235.8,308.3" fill="rgb(189,189,255)"/>
<polygon points="251.8,302.3 257.8,302.3 257.8,308.3 251.8,308.3" fill="rgb(255,250,250)"/>
<polygon points="257.8,302.3 263.8,302.3 263.8,308.3 257.8,308.3" fill="rgb(254,202,202)"/>
<polygon points="263.8,302.3 269.8,302.3 269.8,308.3 263.8,308.3" fill="rgb(255,242,242)"/>
<polygon points="269.8,302.3 275.8,302.3 275.8,308.3 269.8,308.3" fill="rgb(255,151,151)"/>
<polygon points="275.8,302.3 281.8,302.3 281.8,308.3 275.8,308.3" fill="rgb(255,136,136)"/>
<polygon points="281.8,302.3 287.8,302.3 287.8,308.3 281.8,308.3" fill="rgb(255,142,142)"/>
<polygon points="287.8,302.3 293.8,302.3 293.8,308.3 287.8,308.3" fill="rgb(255,170,170)"/>
<polygon points="293.8,302.3 299.8,302.3 299.8,308.3 293.8,308.3" fill="rgb(246,246,255)"/>
<polygon points="309.8,302.3 315.8,302.3 315.8,308.3 309.8,308.3" fill="rgb(255,165,165)"/>
<polygon points="315.8,302.3 321.8,302.3 321.8,308.3 315.8,308.3" fill="rgb(255,197,197)"/>
<polygon points="321.8,302.3 327.8,302.3 327.8,308.3 321.8,308.3" fill="rgb(255,107,107)"/>
<polygon points="327.8,302.3 333.8,302.3 333.8,308.3 327.8,308.3" fill="rgb(255,115,115)"/>
<polygon points="333.8,302.3 339.8,302.3 339.8,308.3 333.8,308.3" fill="rgb(255,135,135)"/>
<polygon points="339.8,302.3 345.8,302.3 345.8,308.3 339.8,308.3" fill="rgb(255,200,200)"/>
<polygon points="345.8,302.3 351.8,302.3 351.8,308.3 345.8,308.3" fill="rgb(254,167,167)"/>
<polygon points="351.8,302.3 357.8,302.3 357.8,308.3 351.8,308.3" fill="rgb(246,246,255)"/>
<polygon points="159.8,308.3 167.8,308.3 167.8,314.3 159.8,314.3" fill="rgb(232,216,183)"/><text xml:space="preserve" x="163.8" y="314.133" font-family="Calibri" font-size="7.5" fill="rgb(0,0,0)" text-anchor="middle">10</text>
<polygon points="167.8,308.3 175.8,308.3 175.8,314.3 167.8,314.3" fill="rgb(216,179,101)"/><text xml:space="preserve" x="171.8" y="314.133" font-family="Calibri" font-size="7.5" fill="rgb(0,0,0)" text-anchor="middle">15</text>
<polygon points="175.8,308.3 183.8,308.3 183.8,314.3 175.8,314.3" fill="rgb(220,188,121)"/><text xml:space="preserve" x="179.8" y="314.133" font-family="Calibri" font-size="7.5" fill="rgb(0,0,0)" text-anchor="middle">13</text>
<polygon points="193.8,308.3 199.8,308.3 199.8,314.3 193.8,314.3" fill="rgb(255,158,158)"/>
<polygon points="199.8,308.3 205.8,308.3 205.8,314.3 199.8,314.3" fill="rgb(255,111,111)"/>
<polygon points="205.8,308.3 211.8,308.3 211.8,314.3 205.8,314.3" fill="rgb(255,180,180)"/>
<polygon points="211.8,308.3 217.8,308.3 217.8,314.3 211.8,314.3" fill="rgb(255,177,177)"/>
<polygon points="217.8,308.3 223.8,308.3 223.8,314.3 217.8,314.3" fill="rgb(255,145,145)"/>
<polygon points="223.8,308.3 229.8,308.3 229.8,314.3 223.8,314.3" fill="rgb(252,252,255)"/>
<polygon points="229.8,308.3 235.8,308.3 235.8,314.3 229.8,314.3" fill="rgb(178,178,255)"/>
<polygon points="235.8,308.3 241.8,308.3 241.8,314.3 235.8,314.3" fill="rgb(209,209,255)"/>
<polygon points="251.8,308.3 257.8,308.3 257.8,314.3 251.8,314.3" fill="rgb(250,250,255)"/>
<polygon points="257.8,308.3 263.8,308.3 263.8,314.3 257.8,314.3" fill="rgb(255,240,240)"/>
<polygon points="263.8,308.3 269.8,308.3 269.8,314.3 263.8,314.3" fill="rgb(198,198,255)"/>
<polygon points="269.8,308.3 275.8,308.3 275.8,314.3 269.8,314.3" fill="rgb(201,201,255)"/>
<polygon points="275.8,308.3 281.8,308.3 281.8,314.3 275.8,314.3" fill="rgb(255,234,234)"/>
<polygon points="281.8,308.3 287.8,308.3 287.8,314.3 281.8,314.3" fill="rgb(255,220,220)"/>
<polygon points="287.8,308.3 293.8,308.3 293.8,314.3 287.8,314.3" fill="rgb(255,228,228)"/>
<polygon points="293.8,308.3 299.8,308.3 299.8,314.3 293.8,314.3" fill="rgb(255,220,220)"/>
<polygon points="309.8,308.3 315.8,308.3 315.8,314.3 309.8,314.3" fill="rgb(255,173,173)"/>
<polygon points="315.8,308.3 321.8,308.3 321.8,314.3 315.8,314.3" fill="rgb(255,229,229)"/>
<polygon points="321.8,308.3 327.8,308.3 327.8,314.3 321.8,314.3" fill="rgb(254,160,160)"/>
<polygon points="327.8,308.3 333.8,308.3 333.8,314.3 327.8,314.3" fill="rgb(255,121,121)"/>
<polygon points="333.8,308.3 339.8,308.3 339.8,314.3 333.8,314.3" fill="rgb(255,177,177)"/>
<polygon points="339.8,308.3 345.8,308.3 345.8,314.3 339.8,314.3" fill="rgb(255,246,246)"/>
<polygon points="345.8,308.3 351.8,308.3 351.8,314.3 345.8,314.3" fill="rgb(182,182,255)"/>
<polygon points="351.8,308.3 357.8,308.3 357.8,314.3 351.8,314.3" fill="rgb(255,242,242)"/>
<polygon points="159.8,314.3 167.8,314.3 167.8,320.3 159.8,320.3" fill="rgb(232,216,183)"/><text xml:space="preserve" x="163.8" y="320.133" font-family="Calibri" font-size="7.5" fill="rgb(0,0,0)" text-anchor="middle">10</text>
<polygon points="167.8,314.3 175.8,314.3 175.8,320.3 167.8,320.3" fill="rgb(216,179,101)"/><text xml:space="preserve" x="171.8" y="320.133" font-family="Calibri" font-size="7.5" fill="rgb(0,0,0)" text-anchor="middle">15</text>
<polygon points="175.8,314.3 183.8,314.3 183.8,320.3 175.8,320.3" fill="rgb(220,188,121)"/><text xml:space="preserve" x="179.8" y="320.133" font-family="Calibri" font-size="7.5" fill="rgb(0,0,0)" text-anchor="middle">13</text>
<polygon points="193.8,314.3 199.8,314.3 199.8,320.3 193.8,320.3" fill="rgb(255,171,171)"/>
<polygon points="199.8,314.3 205.8,314.3 205.8,320.3 199.8,320.3" fill="rgb(255,176,176)"/>
<polygon points="205.8,314.3 211.8,314.3 211.8,320.3 205.8,320.3" fill="rgb(255,178,178)"/>
<polygon points="211.8,314.3 217.8,314.3 217.8,320.3 211.8,320.3" fill="rgb(255,94,94)"/>
<polygon points="217.8,314.3 223.8,314.3 223.8,320.3 217.8,320.3" fill="rgb(255,174,174)"/>
<polygon points="223.8,314.3 229.8,314.3 229.8,320.3 223.8,320.3" fill="rgb(255,187,187)"/>
<polygon points="229.8,314.3 235.8,314.3 235.8,320.3 229.8,320.3" fill="rgb(234,234,255)"/>
<polygon points="235.8,314.3 241.8,314.3 241.8,320.3 235.8,320.3" fill="rgb(240,240,255)"/>
<polygon points="251.8,314.3 257.8,314.3 257.8,320.3 251.8,320.3" fill="rgb(255,222,222)"/>
<polygon points="257.8,314.3 263.8,314.3 263.8,320.3 257.8,320.3" fill="rgb(255,198,198)"/>
<polygon points="263.8,314.3 269.8,314.3 269.8,320.3 263.8,320.3" fill="rgb(203,203,255)"/>
<polygon points="269.8,314.3 275.8,314.3 275.8,320.3 269.8,320.3" fill="rgb(255,138,138)"/>
<polygon points="275.8,314.3 281.8,314.3 281.8,320.3 275.8,320.3" fill="rgb(255,192,192)"/>
<polygon points="281.8,314.3 287.8,314.3 287.8,320.3 281.8,320.3" fill="rgb(254,238,238)"/>
<polygon points="287.8,314.3 293.8,314.3 293.8,320.3 287.8,320.3" fill="rgb(255,168,168)"/>
<polygon points="293.8,314.3 299.8,314.3 299.8,320.3 293.8,320.3" fill="rgb(255,192,192)"/>
<polygon points="309.8,314.3 315.8,314.3 315.8,320.3 309.8,320.3" fill="rgb(254,187,187)"/>
<polygon points="315.8,314.3 321.8,314.3 321.8,320.3 315.8,320.3" fill="rgb(255,215,215)"/>
<polygon points="321.8,314.3 327.8,314.3 327.8,320.3 321.8,320.3" fill="rgb(255,108,108)"/>
<polygon points="327.8,314.3 333.8,314.3 333.8,320.3 327.8,320.3" fill="rgb(255,75,75)"/>
<polygon points="333.8,314.3 339.8,314.3 339.8,320.3 333.8,320.3" fill="rgb(255,160,160)"/>
<polygon points="339.8,314.3 345.8,314.3 345.8,320.3 339.8,320.3" fill="rgb(255,180,180)"/>
<polygon points="345.8,314.3 351.8,314.3 351.8,320.3 345.8,320.3" fill="rgb(223,223,255)"/>
<polygon points="351.8,314.3 357.8,314.3 357.8,320.3 351.8,320.3" fill="rgb(255,198,198)"/>
<polygon points="159.8,320.3 167.8,320.3 167.8,326.3 159.8,326.3" fill="rgb(232,216,183)"/><text xml:space="preserve" x="163.8" y="326.133" font-family="Calibri" font-size="7.5" fill="rgb(0,0,0)" text-anchor="middle">10</text>
<polygon points="167.8,320.3 175.8,320.3 175.8,326.3 167.8,326.3" fill="rgb(216,179,101)"/><text xml:space="preserve" x="171.8" y="326.133" font-family="Calibri" font-size="7.5" fill="rgb(0,0,0)" text-anchor="middle">15</text>
<polygon points="175.8,320.3 183.8,320.3 183.8,326.3 175.8,326.3" fill="rgb(220,188,121)"/><text xml:space="preserve" x="179.8" y="326.133" font-family="Calibri" font-size="7.5" fill="rgb(0,0,0)" text-anchor="middle">13</text>
<polygon points="193.8,320.3 199.8,320.3 199.8,326.3 193.8,326.3" fill="rgb(255,146,146)"/>
<polygon points="199.8,320.3 205.8,320.3 205.8,326.3 199.8,326.3" fill="rgb(255,143,143)"/>
<polygon points="205.8,320.3 211.8,320.3 211.8,326.3 205.8,326.3" fill="rgb(255,189,189)"/>
<polygon points="211.8,320.3 217.8,320.3 217.8,326.3 211.8,326.3" fill="rgb(255,109,109)"/>
<polygon points="217.8,320.3 223.8,320.3 223.8,326.3 217.8,326.3" fill="rgb(255,202,202)"/>
<polygon points="223.8,320.3 229.8,320.3 229.8,326.3 223.8,326.3" fill="rgb(255,244,244)"/>
<polygon points="229.8,320.3 235.8,320.3 235.8,326.3 229.8,326.3" fill="rgb(255,254,254)"/>
<polygon points="235.8,320.3 241.8,320.3 241.8,326.3 235.8,326.3" fill="rgb(182,182,255)"/>
<polygon points="251.8,320.3 257.8,320.3 257.8,326.3 251.8,326.3" fill="rgb(255,195,195)"/>
<polygon points="257.8,320.3 263.8,320.3 263.8,326.3 257.8,326.3" fill="rgb(255,224,224)"/>
<polygon points="263.8,320.3 269.8,320.3 269.8,326.3 263.8,326.3" fill="rgb(255,226,226)"/>
<polygon points="269.8,320.3 275.8,320.3 275.8,326.3 269.8,326.3" fill="rgb(255,172,172)"/>
<polygon points="275.8,320.3 281.8,320.3 281.8,326.3 275.8,326.3" fill="rgb(255,250,250)"/>
<polygon points="281.8,320.3 287.8,320.3 287.8,326.3 281.8,326.3" fill="rgb(255,203,203)"/>
<polygon points="287.8,320.3 293.8,320.3 293.8,326.3 287.8,326.3" fill="rgb(255,232,232)"/>
<polygon points="293.8,320.3 299.8,320.3 299.8,326.3 293.8,326.3" fill="rgb(232,232,255)"/>
<polygon points="309.8,320.3 315.8,320.3 315.8,326.3 309.8,326.3" fill="rgb(255,153,153)"/>
<polygon points="315.8,320.3 321.8,320.3 321.8,326.3 315.8,326.3" fill="rgb(255,162,162)"/>
<polygon points="321.8,320.3 327.8,320.3 327.8,326.3 321.8,326.3" fill="rgb(255,170,170)"/>
<polygon points="327.8,320.3 333.8,320.3 333.8,326.3 327.8,326.3" fill="rgb(255,109,109)"/>
<polygon points="333.8,320.3 339.8,320.3 339.8,326.3 333.8,326.3" fill="rgb(255,172,172)"/>
<polygon points="339.8,320.3 345.8,320.3 345.8,326.3 339.8,326.3" fill="rgb(255,224,224)"/>
<polygon points="345.8,320.3 351.8,320.3 351.8,326.3 345.8,326.3" fill="rgb(255,202,202)"/>
<polygon points="351.8,320.3 357.8,320.3 357.8,326.3 351.8,326.3" fill="rgb(195,195,255)"/>
<polygon points="159.8,326.3 167.8,326.3 167.8,332.3 159.8,332.3" fill="rgb(232,216,183)"/><text xml:space="preserve" x="163.8" y="332.133" font-family="Calibri" font-size="7.5" fill="rgb(0,0,0)" text-anchor="middle">10</text>
<polygon points="167.8,326.3 175.8,326.3 175.8,332.3 167.8,332.3" fill="rgb(216,179,101)"/><text xml:space="preserve" x="171.8" y="332.133" font-family="Calibri" font-size="7.5" fill="rgb(0,0,0)" text-anchor="middle">15</text>
<polygon points="175.8,326.3 183.8,326.3 183.8,332.3 175.8,332.3" fill="rgb(220,188,121)"/><text xml:space="preserve" x="179.8" y="332.133" font-family="Calibri" font-size="7.5" fill="rgb(0,0,0)" text-anchor="middle">13</text>
<polygon points="193.8,326.3 199.8,326.3 199.8,332.3 193.8,332.3" fill="rgb(255,113,113)"/>
<polygon points="199.8,326.3 205.8,326.3 205.8,332.3 199.8,332.3" fill="rgb(255,176,176)"/>
<polygon points="205.8,326.3 211.8,326.3 211.8,332.3 205.8,332.3" fill="rgb(255,209,209)"/>
<polygon points="211.8,326.3 217.8,326.3 217.8,332.3 211.8,332.3" fill="rgb(255,173,173)"/>
<polygon points="217.8,326.3 223.8,326.3 223.8,332.3 217.8,332.3" fill="rgb(255,56,56)"/>
<polygon points="223.8,326.3 229.8,326.3 229.8,332.3 223.8,332.3" fill="rgb(221,221,255)"/>
<polygon points="229.8,326.3 235.8,326.3 235.8,332.3 229.8,332.3" fill="rgb(255,232,232)"/>
<polygon points="235.8,326.3 241.8,326.3 241.8,332.3 235.8,332.3" fill="rgb(188,188,255)"/>
<polygon points="251.8,326.3 257.8,326.3 257.8,332.3 251.8,332.3" fill="rgb(255,191,191)"/>
<polygon points="257.8,326.3 263.8,326.3 263.8,332.3 257.8,332.3" fill="rgb(255,220,220)"/>
<polygon points="263.8,326.3 269.8,326.3 269.8,332.3 263.8,332.3" fill="rgb(159,159,255)"/>
<polygon points="269.8,326.3 275.8,326.3 275.8,332.3 269.8,332.3" fill="rgb(254,254,255)"/>
<polygon points="275.8,326.3 281.8,326.3 281.8,332.3 275.8,332.3" fill="rgb(255,155,155)"/>
<polygon points="281.8,326.3 287.8,326.3 287.8,332.3 281.8,332.3" fill="rgb(255,246,246)"/>
<polygon points="287.8,326.3 293.8,326.3 293.8,332.3 287.8,332.3" fill="rgb(255,208,208)"/>
<polygon points="293.8,326.3 299.8,326.3 299.8,332.3 293.8,332.3" fill="rgb(255,230,230)"/>
<polygon points="309.8,326.3 315.8,326.3 315.8,332.3 309.8,332.3" fill="rgb(255,160,160)"/>
<polygon points="315.8,326.3 321.8,326.3 321.8,332.3 315.8,332.3" fill="rgb(254,214,214)"/>
<polygon points="321.8,326.3 327.8,326.3 327.8,332.3 321.8,332.3" fill="rgb(255,178,178)"/>
<polygon points="327.8,326.3 333.8,326.3 333.8,332.3 327.8,332.3" fill="rgb(255,101,101)"/>
<polygon points="333.8,326.3 339.8,326.3 339.8,332.3 333.8,332.3" fill="rgb(255,165,165)"/>
<polygon points="339.8,326.3 345.8,326.3 345.8,332.3 339.8,332.3" fill="rgb(230,230,255)"/>
<polygon points="345.8,326.3 351.8,326.3 351.8,332.3 345.8,332.3" fill="rgb(196,196,255)"/>
<polygon points="351.8,326.3 357.8,326.3 357.8,332.3 351.8,332.3" fill="rgb(255,203,203)"/>
<polygon points="159.8,332.3 167.8,332.3 167.8,338.3 159.8,338.3" fill="rgb(232,216,183)"/><text xml:space="preserve" x="163.8" y="338.133" font-family="Calibri" font-size="7.5" fill="rgb(0,0,0)" text-anchor="middle">10</text>
<polygon points="167.8,332.3 175.8,332.3 175.8,338.3 167.8,338.3" fill="rgb(216,179,101)"/><text xml:space="preserve" x="171.8" y="338.133" font-family="Calibri" font-size="7.5" fill="rgb(0,0,0)" text-anchor="middle">15</text>
<polygon points="175.8,332.3 183.8,332.3 183.8,338.3 175.8,338.3" fill="rgb(220,188,121)"/><text xml:space="preserve" x="179.8" y="338.133" font-family="Calibri" font-size="7.5" fill="rgb(0,0,0)" text-anchor="middle">13</text>
<polygon points="193.8,332.3 199.8,332.3 199.8,338.3 193.8,338.3" fill="rgb(255,193,193)"/>
<polygon points="199.8,332.3 205.8,332.3 205.8,338.3 199.8,338.3" fill="rgb(255,186,186)"/>
<polygon points="205.8,332.3 211.8,332.3 211.8,338.3 205.8,338.3" fill="rgb(255,152,152)"/>
<polygon points="211.8,332.3 217.8,332.3 217.8,338.3 211.8,338.3" fill="rgb(255,140,140)"/>
<polygon points="217.8,332.3 223.8,332.3 223.8,338.3 217.8,338.3" fill="rgb(255,95,95)"/>
<polygon points="223.8,332.3 229.8,332.3 229.8,338.3 223.8,338.3" fill="rgb(197,197,255)"/>
<polygon points="229.8,332.3 235.8,332.3 235.8,338.3 229.8,338.3" fill="rgb(232,232,255)"/>
<polygon points="235.8,332.3 241.8,332.3 241.8,338.3 235.8,338.3" fill="rgb(254,238,238)"/>
<polygon points="251.8,332.3 257.8,332.3 257.8,338.3 251.8,338.3" fill="rgb(255,209,209)"/>
<polygon points="257.8,332.3 263.8,332.3 263.8,338.3 257.8,338.3" fill="rgb(255,206,206)"/>
<polygon points="263.8,332.3 269.8,332.3 269.8,338.3 263.8,338.3" fill="rgb(255,218,218)"/>
<polygon points="269.8,332.3 275.8,332.3 275.8,338.3 269.8,338.3" fill="rgb(255,165,165)"/>
<polygon points="275.8,332.3 281.8,332.3 281.8,338.3 275.8,338.3" fill="rgb(255,178,178)"/>
<polygon points="281.8,332.3 287.8,332.3 287.8,338.3 281.8,338.3" fill="rgb(192,192,255)"/>
<polygon points="287.8,332.3 293.8,332.3 293.8,338.3 287.8,338.3" fill="rgb(255,127,127)"/>
<polygon points="293.8,332.3 299.8,332.3 299.8,338.3 293.8,338.3" fill="rgb(255,236,236)"/>
<polygon points="309.8,332.3 315.8,332.3 315.8,338.3 309.8,338.3" fill="rgb(255,149,149)"/>
<polygon points="315.8,332.3 321.8,332.3 321.8,338.3 315.8,338.3" fill="rgb(255,156,156)"/>
<polygon points="321.8,332.3 327.8,332.3 327.8,338.3 321.8,338.3" fill="rgb(255,100,100)"/>
<polygon points="327.8,332.3 333.8,332.3 333.8,338.3 327.8,338.3" fill="rgb(255,35,35)"/>
<polygon points="333.8,332.3 339.8,332.3 339.8,338.3 333.8,338.3" fill="rgb(255,34,34)"/>
<polygon points="339.8,332.3 345.8,332.3 345.8,338.3 339.8,338.3" fill="rgb(199,199,255)"/>
<polygon points="345.8,332.3 351.8,332.3 351.8,338.3 345.8,338.3" fill="rgb(255,210,210)"/>
<polygon points="351.8,332.3 357.8,332.3 357.8,338.3 351.8,338.3" fill="rgb(186,186,255)"/>
<polygon points="159.8,212.3 183.8,212.3 183.8,338.3 159.8,338.3" fill="none" stroke="black" stroke-width="1"/>
<polygon points="193.8,212.3 241.8,212.3 241.8,338.3 193.8,338.3" fill="none" stroke="black" stroke-width="1"/>
<polygon points="251.8,212.3 299.8,212.3 299.8,338.3 251.8,338.3" fill="none" stroke="black" stroke-width="1"/>
<polygon points="309.8,212.3 357.8,212.3 357.8,338.3 309.8,338.3" fill="none" stroke="black" stroke-width="1"/>
<text xml:space="preserve" x="199.9" y="370.633" font-family="Calibri" font-size="6" text-anchor="middle">moduleID</text>
<polygon points="89.9,378.3 109.9,378.3 109.9,398.3 89.9,398.3" fill="rgb(250,250,250)"/><polygon points="89.9,378.3 109.9,378.3 109.9,398.3 89.9,398.3" fill="none" stroke="black" stroke-width="1"/><text xml:space="preserve" x="99.9" y="391.133" font-family="Calibri" font-size="7.5" fill="rgb(0,0,0)" text-anchor="middle">-2.0</text>
<polygon points="109.9,378.3 129.9,378.3 129.9,398.3 109.9,398.3" fill="rgb(156,210,205)"/><polygon points="109.9,378.3 129.9,378.3 129.9,398.3 109.9,398.3" fill="none" stroke="black" stroke-width="1"/><text xml:space="preserve" x="119.9" y="391.133" font-family="Calibri" font-size="7.5" fill="rgb(0,0,0)" text-anchor="middle">-0.4</text>
<polygon points="129.9,378.3 149.9,378.3 149.9,398.3 129.9,398.3" fill="rgb(116,191,184)"/><polygon points="129.9,378.3 149.9,378.3 149.9,398.3 129.9,398.3" fill="none" stroke="black" stroke-width="1"/><text xml:space="preserve" x="139.9" y="391.133" font-family="Calibri" font-size="7.5" fill="rgb(0,0,0)" text-anchor="middle">1.2</text>
<polygon points="149.9,378.3 169.9,378.3 169.9,398.3 149.9,398.3" fill="rgb(152,206,201)"/><polygon points="149.9,378.3 169.9,378.3 169.9,398.3 149.9,398.3" fill="none" stroke="black" stroke-width="1"/><text xml:space="preserve" x="159.9" y="391.133" font-family="Calibri" font-size="7.5" fill="rgb(0,0,0)" text-anchor="middle">2.8</text>
<polygon points="169.9,378.3 189.9,378.3 189.9,398.3 169.9,398.3" fill="rgb(187,220,217)"/><polygon points="169.9,378.3 189.9,378.3 189.9,398.3 169.9,398.3" fill="none" stroke="black" stroke-width="1"/><text xml:space="preserve" x="179.9" y="391.133" font-family="Calibri" font-size="7.5" fill="rgb(0,0,0)" text-anchor="middle">4.4</text>
<polygon points="189.9,378.3 209.9,378.3 209.9,398.3 189.9,398.3" fill="rgb(222,235,234)"/><polygon points="189.9,378.3 209.9,378.3 209.9,398.3 189.9,398.3" fill="none" stroke="black" stroke-width="1"/><text xml:space="preserve" x="199.9" y="391.133" font-family="Calibri" font-size="7.5" fill="rgb(0,0,0)" text-anchor="middle">6.0</text>
<polygon points="209.9,378.3 229.9,378.3 229.9,398.3 209.9,398.3" fill="rgb(242,239,232)"/><polygon points="209.9,378.3 229.9,378.3 229.9,398.3 209.9,398.3" fill="none" stroke="black" stroke-width="1"/><text xml:space="preserve" x="219.9" y="391.133" font-family="Calibri" font-size="7.5" fill="rgb(0,0,0)" text-anchor="middle">7.6</text>
<polygon points="229.9,378.3 249.9,378.3 249.9,398.3 229.9,398.3" fill="rgb(235,224,199)"/><polygon points="229.9,378.3 249.9,378.3 249.9,398.3 229.9,398.3" fill="none" stroke="black" stroke-width="1"/><text xml:space="preserve" x="239.9" y="391.133" font-family="Calibri" font-size="7.5" fill="rgb(0,0,0)" text-anchor="middle">9.2</text>
<polygon points="249.9,378.3 269.9,378.3 269.9,398.3 249.9,398.3" fill="rgb(229,209,166)"/><polygon points="249.9,378.3 269.9,378.3 269.9,398.3 249.9,398.3" fill="none" stroke="black" stroke-width="1"/><text xml:space="preserve" x="259.9" y="391.133" font-family="Calibri" font-size="7.5" fill="rgb(0,0,0)" text-anchor="middle">10.8</text>
<polygon points="269.9,378.3 289.9,378.3 289.9,398.3 269.9,398.3" fill="rgb(222,194,133)"/><polygon points="269.9,378.3 289.9,378.3 289.9,398.3 269.9,398.3" fill="none" stroke="black" stroke-width="1"/><text xml:space="preserve" x="279.9" y="391.133" font-family="Calibri" font-size="7.5" fill="rgb(0,0,0)" text-anchor="middle">12.4</text>
<polygon points="289.9,378.3 309.9,378.3 309.9,398.3 289.9,398.3" fill="rgb(216,179,101)"/><polygon points="289.9,378.3 309.9,378.3 309.9,398.3 289.9,398.3" fill="none" stroke="black" stroke-width="1"/><text xml:space="preserve" x="299.9" y="391.133" font-family="Calibri" font-size="7.5" fill="rgb(0,0,0)" text-anchor="middle">14.0</text>
<text xml:space="preserve" x="199.9" y="430.633" font-family="Calibri" font-size="6" text-anchor="middle">marklevel</text>
<polygon points="89.9,438.3 109.9,438.3 109.9,458.3 89.9,458.3" fill="rgb(0,0,255)"/><polygon points="89.9,438.3 109.9,438.3 109.9,458.3 89.9,458.3" fill="none" stroke="black" stroke-width="1"/><text xml:space="preserve" x="99.9" y="451.133" font-family="Calibri" font-size="7.5" fill="rgb(255,255,255)" text-anchor="middle">-2.0</text>
<polygon points="109.9,438.3 129.9,438.3 129.9,458.3 109.9,458.3" fill="rgb(50,50,255)"/><polygon points="109.9,438.3 129.9,438.3 129.9,458.3 109.9,458.3" fill="none" stroke="black" stroke-width="1"/><text xml:space="preserve" x="119.9" y="451.133" font-family="Calibri" font-size="7.5" fill="rgb(255,255,255)" text-anchor="middle">-1.6</text>
<polygon points="129.9,438.3 149.9,438.3 149.9,458.3 129.9,458.3" fill="rgb(102,102,255)"/><polygon points="129.9,438.3 149.9,438.3 149.9,458.3 129.9,458.3" fill="none" stroke="black" stroke-width="1"/><text xml:space="preserve" x="139.9" y="451.133" font-family="Calibri" font-size="7.5" fill="rgb(255,255,255)" text-anchor="middle">-1.2</text>
<polygon points="149.9,438.3 169.9,438.3 169.9,458.3 149.9,458.3" fill="rgb(153,153,255)"/><polygon points="149.9,438.3 169.9,438.3 169.9,458.3 149.9,458.3" fill="none" stroke="black" stroke-width="1"/><text xml:space="preserve" x="159.9" y="451.133" font-family="Calibri" font-size="7.5" fill="rgb(0,0,0)" text-anchor="middle">-0.8</text>
<polygon points="169.9,438.3 189.9,438.3 189.9,458.3 169.9,458.3" fill="rgb(204,204,255)"/><polygon points="169.9,438.3 189.9,438.3 189.9,458.3 169.9,458.3" fill="none" stroke="black" stroke-width="1"/><text xml:space="preserve" x="179.9" y="451.133" font-family="Calibri" font-size="7.5" fill="rgb(0,0,0)" text-anchor="middle">-0.4</text>
<polygon points="189.9,438.3 209.9,438.3 209.9,458.3 189.9,458.3" fill="rgb(255,255,255)"/><polygon points="189.9,438.3 209.9,438.3 209.9,458.3 189.9,458.3" fill="none" stroke="black" stroke-width="1"/><text xml:space="preserve" x="199.9" y="451.133" font-family="Calibri" font-size="7.5" fill="rgb(0,0,0)" text-anchor="middle">0.0</text>
<polygon points="209.9,438.3 229.9,438.3 229.9,458.3 209.9,458.3" fill="rgb(255,204,204)"/><polygon points="209.9,438.3 229.9,438.3 229.9,458.3 209.9,458.3" fill="none" stroke="black" stroke-width="1"/><text xml:space="preserve" x="219.9" y="451.133" font-family="Calibri" font-size="7.5" fill="rgb(0,0,0)" text-anchor="middle">0.4</text>
<polygon points="229.9,438.3 249.9,438.3 249.9,458.3 229.9,458.3" fill="rgb(255,153,153)"/><polygon points="229.9,438.3 249.9,438.3 249.9,458.3 229.9,458.3" fill="none" stroke="black" stroke-width="1"/><text xml:space="preserve" x="239.9" y="451.133" font-family="Calibri" font-size="7.5" fill="rgb(0,0,0)" text-anchor="middle">0.8</text>
<polygon points="249.9,438.3 269.9,438.3 269.9,458.3 249.9,458.3" fill="rgb(255,102,102)"/><polygon points="249.9,438.3 269.9,438.3 269.9,458.3 249.9,458.3" fill="none" stroke="black" stroke-width="1"/><text xml:space="preserve" x="259.9" y="451.133" font-family="Calibri" font-size="7.5" fill="rgb(0,0,0)" text-anchor="middle">1.2</text>
<polygon points="269.9,438.3 289.9,438.3 289.9,458.3 269.9,458.3" fill="rgb(255,50,50)"/><polygon points="269.9,438.3 289.9,438.3 289.9,458.3 269.9,458.3" fill="none" stroke="black" stroke-width="1"/><text xml:space="preserve" x="279.9" y="451.133" font-family="Calibri" font-size="7.5" fill="rgb(255,255,255)" text-anchor="middle">1.6</text>
<polygon points="289.9,438.3 309.9,438.3 309.9,458.3 289.9,458.3" fill="rgb(255,0,0)"/><polygon points="289.9,438.3 309.9,438.3 309.9,458.3 289.9,458.3" fill="none" stroke="black" stroke-width="1"/><text xml:space="preserve" x="299.9" y="451.133" font-family="Calibri" font-size="7.5" fill="rgb(255,255,255)" text-anchor="middle">2.0</text>
</svg>
