<?xml version="1.0" standalone="no"?><!DOCTYPE svg PUBLIC "-//W3C//DTD SVG 1.1//EN" "http://www.w3.org/Graphics/SVG/1.1/DTD/svg11.dtd">
<svg width="401.9" height="490.3" version="1.1" xmlns="http://www.w3.org/2000/svg">
<text xml:space="preserve" x="157.9" y="217.633" font-family="Calibri" font-size="6" text-anchor="end">2310044H10Rik</text>
<text xml:space="preserve" x="157.9" y="223.633" font-family="Calibri" font-size="6" text-anchor="end">Samm50</text>
<text xml:space="preserve" x="157.9" y="229.633" font-family="Calibri" font-size="6" text-anchor="end">Slc29a1</text>
<text xml:space="preserve" x="157.9" y="235.633" font-family="Calibri" font-size="6" text-anchor="end">Wdr21</text>
<text xml:space="preserve" x="157.9" y="241.633" font-family="Calibri" font-size="6" text-anchor="end">Zfp499</text>
<text xml:space="preserve" x="157.9" y="247.633" font-family="Calibri" font-size="6" text-anchor="end">Zscan10</text>
<text xml:space="preserve" x="157.9" y="253.633" font-family="Calibri" font-size="6" text-anchor="end">Msh2</text>
<text xml:space="preserve" x="157.9" y="259.633" font-family="Calibri" font-size="6" text-anchor="end">Msh6</text>
<text xml:space="preserve" x="157.9" y="265.633" font-family="Calibri" font-size="6" text-anchor="end">Mybl2</text>
<text xml:space="preserve" x="157.9" y="271.633" font-family="Calibri" font-size="6" text-anchor="end">Pdk1</text>
<text xml:space="preserve" x="157.9" y="277.633" font-family="Calibri" font-size="6" text-anchor="end">Pcnt</text>
<text xml:space="preserve" x="157.9" y="283.633" font-family="Calibri" font-size="6" text-anchor="end">Hist1h3e</text>
<text xml:space="preserve" x="157.9" y="289.633" font-family="Calibri" font-size="6" text-anchor="end">Trp53bp1</text>
<text xml:space="preserve" x="157.9" y="295.633" font-family="Calibri" font-size="6" text-anchor="end">Wdr54</text>
<text xml:space="preserve" x="157.9" y="301.633" font-family="Calibri" font-size="6" text-anchor="end">Mapk11</text>
<text xml:space="preserve" x="157.9" y="307.633" font-family="Calibri" font-size="6" text-anchor="end">Gbe1</text>
<text xml:space="preserve" x="157.9" y="313.633" font-family="Calibri" font-size="6" text-anchor="end">Carhsp1</text>
<text xml:space="preserve" x="157.9" y="319.633" font-family="Calibri" font-size="6" text-anchor="end">BC019561</text>
<text xml:space="preserve" x="157.9" y="325.633" font-family="Calibri" font-size="6" text-anchor="end">Adam15</text>
<text xml:space="preserve" x="157.9" y="331.633" font-family="Calibri" font-size="6" text-anchor="end">Naprt1</text>
<text xml:space="preserve" x="157.9" y="337.633" font-family="Calibri" font-size="6" text-anchor="end">Pitpnm1</text>
<text xml:space="preserve" x="157.9" y="343.633" font-family="Calibri" font-size="6" text-anchor="end">Map3k6</text>
<text xml:space="preserve" x="157.9" y="349.633" font-family="Calibri" font-size="6" text-anchor="end">4930500O05Rik</text>
<text xml:space="preserve" x="168.233" y="208.3" font-family="Calibri" font-size="6" transform="rotate(270 168.233 208.3)">ips</text>
<text xml:space="preserve" x="176.233" y="208.3" font-family="Calibri" font-size="6" transform="rotate(270 176.233 208.3)">pips</text>
<text xml:space="preserve" x="184.233" y="208.3" font-family="Calibri" font-size="6" transform="rotate(270 184.233 208.3)">mef</text>
<text xml:space="preserve" x="201.233" y="208.3" font-family="Calibri" font-size="6" transform="rotate(270 201.233 208.3)">ips_H3K4me3iPS</text>
<text xml:space="preserve" x="207.233" y="208.3" font-family="Calibri" font-size="6" transform="rotate(270 207.233 208.3)">ips_H3K9aciPS</text>
<text xml:space="preserve" x="213.233" y="208.3" font-family="Calibri" font-size="6" transform="rotate(270 213.233 208.3)">ips_H3K14aciPS</text>
<text xml:space="preserve" x="219.233" y="208.3" font-family="Calibri" font-size="6" transform="rotate(270 219.233 208.3)">ips_H3K18aciPS</text>
<text xml:space="preserve" x="225.233" y="208.3" font-family="Calibri" font-size="6" transform="rotate(270 225.233 208.3)">ips_H3K79me2iPS</text>
<text xml:space="preserve" x="231.233" y="208.3" font-family="Calibri" font-size="6" transform="rotate(270 231.233 208.3)">ips_H3K9me2iPS</text>
<text xml:space="preserve" x="237.233" y="208.3" font-family="Calibri" font-size="6" transform="rotate(270 237.233 208.3)">ips_H3K9me3iPS</text>
<text xml:space="preserve" x="243.233" y="208.3" font-family="Calibri" font-size="6" transform="rotate(270 243.233 208.3)">ips_H3K27me3iPS</text>
<text xml:space="preserve" x="259.233" y="208.3" font-family="Calibri" font-size="6" transform="rotate(270 259.233 208.3)">pips_H3K4me3pips</text>
<text xml:space="preserve" x="265.233" y="208.3" font-family="Calibri" font-size="6" transform="rotate(270 265.233 208.3)">pips_H3K9acpips</text>
<text xml:space="preserve" x="271.233" y="208.3" font-family="Calibri" font-size="6" transform="rotate(270 271.233 208.3)">pips_H3K14acpips</text>
<text xml:space="preserve" x="277.233" y="208.3" font-family="Calibri" font-size="6" transform="rotate(270 277.233 208.3)">pips_H3K18acpips</text>
<text xml:space="preserve" x="283.233" y="208.3" font-family="Calibri" font-size="6" transform="rotate(270 283.233 208.3)">pips_H3K79me2pips</text>
<text xml:space="preserve" x="289.233" y="208.3" font-family="Calibri" font-size="6" transform="rotate(270 289.233 208.3)">pips_H3K9me2pips</text>
<text xml:space="preserve" x="295.233" y="208.3" font-family="Calibri" font-size="6" transform="rotate(270 295.233 208.3)">pips_H3K9me3pips</text>
<text xml:space="preserve" x="301.233" y="208.3" font-family="Calibri" font-size="6" transform="rotate(270 301.233 208.3)">pips_H3K27me3pips</text>
<text xml:space="preserve" x="317.233" y="208.3" font-family="Calibri" font-size="6" transform="rotate(270 317.233 208.3)">mef_H3K4me3mef</text>
<text xml:space="preserve" x="323.233" y="208.3" font-family="Calibri" font-size="6" transform="rotate(270 323.233 208.3)">mef_H3K9acmef</text>
<text xml:space="preserve" x="329.233" y="208.3" font-family="Calibri" font-size="6" transform="rotate(270 329.233 208.3)">mef_H3K14acmef</text>
<text xml:space="preserve" x="335.233" y="208.3" font-family="Calibri" font-size="6" transform="rotate(270 335.233 208.3)">mef_H3K18acmef</text>
<text xml:space="preserve" x="341.233" y="208.3" font-family="Calibri" font-size="6" transform="rotate(270 341.233 208.3)">mef_H3K79me2mef</text>
<text xml:space="preserve" x="347.233" y="208.3" font-family="Calibri" font-size="6" transform="rotate(270 347.233 208.3)">mef_H3K9me2mef</text>
<text xml:space="preserve" x="353.233" y="208.3" font-family="Calibri" font-size="6" transform="rotate(270 353.233 208.3)">mef_H3K9me3mef</text>
<text xml:space="preserve" x="359.233" y="208.3" font-family="Calibri" font-size="6" transform="rotate(270 359.233 208.3)">mef_H3K27me3mef</text>
<polygon points="161.9,212.3 169.9,212.3 169.9,218.3 161.9,218.3" fill="rgb(220,188,121)"/><text xml:space="preserve" x="165.9" y="218.133" font-family="Calibri" font-size="7.5" fill="rgb(0,0,0)" text-anchor="middle">13</text>
<polygon points="169.9,212.3 177.9,212.3 177.9,218.3 169.9,218.3" fill="rgb(245,245,245)"/><text xml:space="preserve" x="173.9" y="218.133" font-family="Calibri" font-size="7.5" fill="rgb(0,0,0)" text-anchor="middle">7</text>
<polygon points="177.9,212.3 185.9,212.3 185.9,218.3 177.9,218.3" fill="rgb(240,235,224)"/><text xml:space="preserve" x="181.9" y="218.133" font-family="Calibri" font-size="7.5" fill="rgb(0,0,0)" text-anchor="middle">8</text>
<polygon points="195.9,212.3 201.9,212.3 201.9,218.3 195.9,218.3" fill="rgb(255,186,186)"/>
<polygon points="201.9,212.3 207.9,212.3 207.9,218.3 201.9,218.3" fill="rgb(255,148,148)"/>
<polygon points="207.9,212.3 213.9,212.3 213.9,218.3 207.9,218.3" fill="rgb(255,127,127)"/>
<polygon points="213.9,212.3 219.9,212.3 219.9,218.3 213.9,218.3" fill="rgb(255,76,76)"/>
<polygon points="219.9,212.3 225.9,212.3 225.9,218.3 219.9,218.3" fill="rgb(255,192,192)"/>
<polygon points="225.9,212.3 231.9,212.3 231.9,218.3 225.9,218.3" fill="rgb(255,243,243)"/>
<polygon points="231.9,212.3 237.9,212.3 237.9,218.3 231.9,218.3" fill="rgb(202,202,255)"/>
<polygon points="237.9,212.3 243.9,212.3 243.9,218.3 237.9,218.3" fill="rgb(187,187,255)"/>
<polygon points="253.9,212.3 259.9,212.3 259.9,218.3 253.9,218.3" fill="rgb(255,188,188)"/>
<polygon points="259.9,212.3 265.9,212.3 265.9,218.3 259.9,218.3" fill="rgb(255,188,188)"/>
<polygon points="265.9,212.3 271.9,212.3 271.9,218.3 265.9,218.3" fill="rgb(255,192,192)"/>
<polygon points="271.9,212.3 277.9,212.3 277.9,218.3 271.9,218.3" fill="rgb(255,203,203)"/>
<polygon points="277.9,212.3 283.9,212.3 283.9,218.3 277.9,218.3" fill="rgb(254,231,231)"/>
<polygon points="283.9,212.3 289.9,212.3 289.9,218.3 283.9,218.3" fill="rgb(225,225,255)"/>
<polygon points="289.9,212.3 295.9,212.3 295.9,218.3 289.9,218.3" fill="rgb(218,218,255)"/>
<polygon points="295.9,212.3 301.9,212.3 301.9,218.3 295.9,218.3" fill="rgb(175,175,255)"/>
<polygon points="311.9,212.3 317.9,212.3 317.9,218.3 311.9,218.3" fill="rgb(255,215,215)"/>
<polygon points="317.9,212.3 323.9,212.3 323.9,218.3 317.9,218.3" fill="rgb(255,201,201)"/>
<polygon points="323.9,212.3 329.9,212.3 329.9,218.3 323.9,218.3" fill="rgb(249,249,255)"/>
<polygon points="329.9,212.3 335.9,212.3 335.9,218.3 329.9,218.3" fill="rgb(255,245,245)"/>
<polygon points="335.9,212.3 341.9,212.3 341.9,218.3 335.9,218.3" fill="rgb(255,223,223)"/>
<polygon points="341.9,212.3 347.9,212.3 347.9,218.3 341.9,218.3" fill="rgb(255,253,253)"/>
<polygon points="347.9,212.3 353.9,212.3 353.9,218.3 347.9,218.3" fill="rgb(219,219,255)"/>
<polygon points="353.9,212.3 359.9,212.3 359.9,218.3 353.9,218.3" fill="rgb(250,250,255)"/>
<polygon points="161.9,218.3 169.9,218.3 169.9,224.3 161.9,224.3" fill="rgb(220,188,121)"/><text xml:space="preserve" x="165.9" y="224.133" font-family="Calibri" font-size="7.5" fill="rgb(0,0,0)" text-anchor="middle">13</text>
<polygon points="169.9,218.3 177.9,218.3 177.9,224.3 169.9,224.3" fill="rgb(245,245,245)"/><text xml:space="preserve" x="173.9" y="224.133" font-family="Calibri" font-size="7.5" fill="rgb(0,0,0)" text-anchor="middle">7</text>
<polygon points="177.9,218.3 185.9,218.3 185.9,224.3 177.9,224.3" fill="rgb(240,235,224)"/><text xml:space="preserve" x="181.9" y="224.133" font-family="Calibri" font-size="7.5" fill="rgb(0,0,0)" text-anchor="middle">8</text>
<polygon points="195.9,218.3 201.9,218.3 201.9,224.3 195.9,224.3" fill="rgb(254,186,186)"/>
<polygon points="201.9,218.3 207.9,218.3 207.9,224.3 201.9,224.3" fill="rgb(255,122,122)"/>
<polygon points="207.9,218.3 213.9,218.3 213.9,224.3 207.9,224.3" fill="rgb(255,60,60)"/>
<polygon points="213.9,218.3 219.9,218.3 219.9,224.3 213.9,224.3" fill="rgb(255,51,51)"/>
<polygon points="219.9,218.3 225.9,218.3 225.9,224.3 219.9,224.3" fill="rgb(255,108,108)"/>
<polygon points="225.9,218.3 231.9,218.3 231.9,224.3 225.9,224.3" fill="rgb(255,223,223)"/>
<polygon points="231.9,218.3 237.9,218.3 237.9,224.3 231.9,224.3" fill="rgb(173,173,255)"/>
<polygon points="237.9,218.3 243.9,218.3 243.9,224.3 237.9,224.3" fill="rgb(161,161,255)"/>
<polygon points="253.9,218.3 259.9,218.3 259.9,224.3 253.9,224.3" fill="rgb(255,219,219)"/>
<polygon points="259.9,218.3 265.9,218.3 265.9,224.3 259.9,224.3" fill="rgb(255,192,192)"/>
<polygon points="265.9,218.3 271.9,218.3 271.9,224.3 265.9,224.3" fill="rgb(255,188,188)"/>
<polygon points="271.9,218.3 277.9,218.3 277.9,224.3 271.9,224.3" fill="rgb(255,138,138)"/>
<polygon points="277.9,218.3 283.9,218.3 283.9,224.3 277.9,224.3" fill="rgb(255,167,167)"/>
<polygon points="283.9,218.3 289.9,218.3 289.9,224.3 283.9,224.3" fill="rgb(223,223,255)"/>
<polygon points="289.9,218.3 295.9,218.3 295.9,224.3 289.9,224.3" fill="rgb(167,167,255)"/>
<polygon points="295.9,218.3 301.9,218.3 301.9,224.3 295.9,224.3" fill="rgb(217,217,255)"/>
<polygon points="311.9,218.3 317.9,218.3 317.9,224.3 311.9,224.3" fill="rgb(254,223,223)"/>
<polygon points="317.9,218.3 323.9,218.3 323.9,224.3 317.9,224.3" fill="rgb(253,253,255)"/>
<polygon points="323.9,218.3 329.9,218.3 329.9,224.3 323.9,224.3" fill="rgb(205,205,255)"/>
<polygon points="329.9,218.3 335.9,218.3 335.9,224.3 329.9,224.3" fill="rgb(205,205,255)"/>
<polygon points="335.9,218.3 341.9,218.3 341.9,224.3 335.9,224.3" fill="rgb(254,218,218)"/>
<polygon points="341.9,218.3 347.9,218.3 347.9,224.3 341.9,224.3" fill="rgb(254,205,205)"/>
<polygon points="347.9,218.3 353.9,218.3 353.9,224.3 347.9,224.3" fill="rgb(162,162,255)"/>
<polygon points="353.9,218.3 359.9,218.3 359.9,224.3 353.9,224.3" fill="rgb(178,178,255)"/>
<polygon points="161.9,224.3 169.9,224.3 169.9,230.3 161.9,230.3" fill="rgb(220,188,121)"/><text xml:space="preserve" x="165.9" y="230.133" font-family="Calibri" font-size="7.5" fill="rgb(0,0,0)" text-anchor="middle">13</text>
<polygon points="169.9,224.3 177.9,224.3 177.9,230.3 169.9,230.3" fill="rgb(245,245,245)"/><text xml:space="preserve" x="173.9" y="230.133" font-family="Calibri" font-size="7.5" fill="rgb(0,0,0)" text-anchor="middle">7</text>
<polygon points="177.9,224.3 185.9,224.3 185.9,230.3 177.9,230.3" fill="rgb(240,235,224)"/><text xml:space="preserve" x="181.9" y="230.133" font-family="Calibri" font-size="7.5" fill="rgb(0,0,0)" text-anchor="middle">8</text>
<polygon points="195.9,224.3 201.9,224.3 201.9,230.3 195.9,230.3" fill="rgb(255,224,224)"/>
<polygon points="201.9,224.3 207.9,224.3 207.9,230.3 201.9,230.3" fill="rgb(255,172,172)"/>
<polygon points="207.9,224.3 213.9,224.3 213.9,230.3 207.9,230.3" fill="rgb(255,143,143)"/>
<polygon points="213.9,224.3 219.9,224.3 219.9,230.3 213.9,230.3" fill="rgb(255,107,107)"/>
<polygon points="219.9,224.3 225.9,224.3 225.9,230.3 219.9,230.3" fill="rgb(255,107,107)"/>
<polygon points="225.9,224.3 231.9,224.3 231.9,230.3 225.9,230.3" fill="rgb(255,236,236)"/>
<polygon points="231.9,224.3 237.9,224.3 237.9,230.3 231.9,230.3" fill="rgb(186,186,255)"/>
<polygon points="237.9,224.3 243.9,224.3 243.9,230.3 237.9,230.3" fill="rgb(170,170,255)"/>
<polygon points="253.9,224.3 259.9,224.3 259.9,230.3 253.9,230.3" fill="rgb(255,243,243)"/>
<polygon points="259.9,224.3 265.9,224.3 265.9,230.3 259.9,230.3" fill="rgb(255,236,236)"/>
<polygon points="265.9,224.3 271.9,224.3 271.9,230.3 265.9,230.3" fill="rgb(254,211,211)"/>
<polygon points="271.9,224.3 277.9,224.3 277.9,230.3 271.9,230.3" fill="rgb(255,138,138)"/>
<polygon points="277.9,224.3 283.9,224.3 283.9,230.3 277.9,230.3" fill="rgb(255,250,250)"/>
<polygon points="283.9,224.3 289.9,224.3 289.9,230.3 283.9,230.3" fill="rgb(220,220,255)"/>
<polygon points="289.9,224.3 295.9,224.3 295.9,230.3 289.9,230.3" fill="rgb(179,179,255)"/>
<polygon points="295.9,224.3 301.9,224.3 301.9,230.3 295.9,230.3" fill="rgb(223,223,255)"/>
<polygon points="311.9,224.3 317.9,224.3 317.9,230.3 311.9,230.3" fill="rgb(233,233,255)"/>
<polygon points="317.9,224.3 323.9,224.3 323.9,230.3 317.9,230.3" fill="rgb(254,254,255)"/>
<polygon points="323.9,224.3 329.9,224.3 329.9,230.3 323.9,230.3" fill="rgb(255,207,207)"/>
<polygon points="329.9,224.3 335.9,224.3 335.9,230.3 329.9,230.3" fill="rgb(255,217,217)"/>
<polygon points="335.9,224.3 341.9,224.3 341.9,230.3 335.9,230.3" fill="rgb(236,236,255)"/>
<polygon points="341.9,224.3 347.9,224.3 347.9,230.3 341.9,230.3" fill="rgb(226,226,255)"/>
<polygon points="347.9,224.3 353.9,224.3 353.9,230.3 347.9,230.3" fill="rgb(180,180,255)"/>
<polygon points="353.9,224.3 359.9,224.3 359.9,230.3 353.9,230.3" fill="rgb(207,207,255)"/>
<polygon points="161.9,230.3 169.9,230.3 169.9,236.3 161.9,236.3" fill="rgb(220,188,121)"/><text xml:space="preserve" x="165.9" y="236.133" font-family="Calibri" font-size="7.5" fill="rgb(0,0,0)" text-anchor="middle">13</text>
<polygon points="169.9,230.3 177.9,230.3 177.9,236.3 169.9,236.3" fill="rgb(245,245,245)"/><text xml:space="preserve" x="173.9" y="236.133" font-family="Calibri" font-size="7.5" fill="rgb(0,0,0)" text-anchor="middle">7</text>
<polygon points="177.9,230.3 185.9,230.3 185.9,236.3 177.9,236.3" fill="rgb(240,235,224)"/><text xml:space="preserve" x="181.9" y="236.133" font-family="Calibri" font-size="7.5" fill="rgb(0,0,0)" text-anchor="middle">8</text>
<polygon points="195.9,230.3 201.9,230.3 201.9,236.3 195.9,236.3" fill="rgb(255,226,226)"/>
<polygon points="201.9,230.3 207.9,230.3 207.9,236.3 201.9,236.3" fill="rgb(255,191,191)"/>
<polygon points="207.9,230.3 213.9,230.3 213.9,236.3 207.9,236.3" fill="rgb(255,102,102)"/>
<polygon points="213.9,230.3 219.9,230.3 219.9,236.3 213.9,236.3" fill="rgb(255,68,68)"/>
<polygon points="219.9,230.3 225.9,230.3 225.9,236.3 219.9,236.3" fill="rgb(255,148,148)"/>
<polygon points="225.9,230.3 231.9,230.3 231.9,236.3 225.9,236.3" fill="rgb(250,250,255)"/>
<polygon points="231.9,230.3 237.9,230.3 237.9,236.3 231.9,236.3" fill="rgb(139,139,255)"/>
<polygon points="237.9,230.3 243.9,230.3 243.9,236.3 237.9,236.3" fill="rgb(171,171,255)"/>
<polygon points="253.9,230.3 259.9,230.3 259.9,236.3 253.9,236.3" fill="rgb(208,208,255)"/>
<polygon points="259.9,230.3 265.9,230.3 265.9,236.3 259.9,236.3" fill="rgb(255,219,219)"/>
<polygon points="265.9,230.3 271.9,230.3 271.9,236.3 265.9,236.3" fill="rgb(255,188,188)"/>
<polygon points="271.9,230.3 277.9,230.3 277.9,236.3 271.9,236.3" fill="rgb(255,113,113)"/>
<polygon points="277.9,230.3 283.9,230.3 283.9,236.3 277.9,236.3" fill="rgb(255,188,188)"/>
<polygon points="283.9,230.3 289.9,230.3 289.9,236.3 283.9,236.3" fill="rgb(236,236,255)"/>
<polygon points="289.9,230.3 295.9,230.3 295.9,236.3 289.9,236.3" fill="rgb(191,191,255)"/>
<polygon points="295.9,230.3 301.9,230.3 301.9,236.3 295.9,236.3" fill="rgb(168,168,255)"/>
<polygon points="311.9,230.3 317.9,230.3 317.9,236.3 311.9,236.3" fill="rgb(210,210,255)"/>
<polygon points="317.9,230.3 323.9,230.3 323.9,236.3 317.9,236.3" fill="rgb(245,245,255)"/>
<polygon points="323.9,230.3 329.9,230.3 329.9,236.3 323.9,236.3" fill="rgb(255,212,212)"/>
<polygon points="329.9,230.3 335.9,230.3 335.9,236.3 329.9,236.3" fill="rgb(255,233,233)"/>
<polygon points="335.9,230.3 341.9,230.3 341.9,236.3 335.9,236.3" fill="rgb(255,226,226)"/>
<polygon points="341.9,230.3 347.9,230.3 347.9,236.3 341.9,236.3" fill="rgb(254,241,241)"/>
<polygon points="347.9,230.3 353.9,230.3 353.9,236.3 347.9,236.3" fill="rgb(165,165,255)"/>
<polygon points="353.9,230.3 359.9,230.3 359.9,236.3 353.9,236.3" fill="rgb(178,178,255)"/>
<polygon points="161.9,236.3 169.9,236.3 169.9,242.3 161.9,242.3" fill="rgb(220,188,121)"/><text xml:space="preserve" x="165.9" y="242.133" font-family="Calibri" font-size="7.5" fill="rgb(0,0,0)" text-anchor="middle">13</text>
<polygon points="169.9,236.3 177.9,236.3 177.9,242.3 169.9,242.3" fill="rgb(245,245,245)"/><text xml:space="preserve" x="173.9" y="242.133" font-family="Calibri" font-size="7.5" fill="rgb(0,0,0)" text-anchor="middle">7</text>
<polygon points="177.9,236.3 185.9,236.3 185.9,242.3 177.9,242.3" fill="rgb(240,235,224)"/><text xml:space="preserve" x="181.9" y="242.133" font-family="Calibri" font-size="7.5" fill="rgb(0,0,0)" text-anchor="middle">8</text>
<polygon points="195.9,236.3 201.9,236.3 201.9,242.3 195.9,242.3" fill="rgb(255,147,147)"/>
<polygon points="201.9,236.3 207.9,236.3 207.9,242.3 201.9,242.3" fill="rgb(255,101,101)"/>
<polygon points="207.9,236.3 213.9,236.3 213.9,242.3 207.9,242.3" fill="rgb(255,90,90)"/>
<polygon points="213.9,236.3 219.9,236.3 219.9,242.3 213.9,242.3" fill="rgb(255,12,12)"/>
<polygon points="219.9,236.3 225.9,236.3 225.9,242.3 219.9,242.3" fill="rgb(255,227,227)"/>
<polygon points="225.9,236.3 231.9,236.3 231.9,242.3 225.9,242.3" fill="rgb(200,200,255)"/>
<polygon points="231.9,236.3 237.9,236.3 237.9,242.3 231.9,242.3" fill="rgb(165,165,255)"/>
<polygon points="237.9,236.3 243.9,236.3 243.9,242.3 237.9,242.3" fill="rgb(197,197,255)"/>
<polygon points="253.9,236.3 259.9,236.3 259.9,242.3 253.9,242.3" fill="rgb(255,179,179)"/>
<polygon points="259.9,236.3 265.9,236.3 265.9,242.3 259.9,242.3" fill="rgb(255,188,188)"/>
<polygon points="265.9,236.3 271.9,236.3 271.9,242.3 265.9,242.3" fill="rgb(255,231,231)"/>
<polygon points="271.9,236.3 277.9,236.3 277.9,242.3 271.9,242.3" fill="rgb(254,200,200)"/>
<polygon points="277.9,236.3 283.9,236.3 283.9,242.3 277.9,242.3" fill="rgb(255,209,209)"/>
<polygon points="283.9,236.3 289.9,236.3 289.9,242.3 283.9,242.3" fill="rgb(211,211,255)"/>
<polygon points="289.9,236.3 295.9,236.3 295.9,242.3 289.9,242.3" fill="rgb(233,233,255)"/>
<polygon points="295.9,236.3 301.9,236.3 301.9,242.3 295.9,242.3" fill="rgb(182,182,255)"/>
<polygon points="311.9,236.3 317.9,236.3 317.9,242.3 311.9,242.3" fill="rgb(255,222,222)"/>
<polygon points="317.9,236.3 323.9,236.3 323.9,242.3 317.9,242.3" fill="rgb(255,146,146)"/>
<polygon points="323.9,236.3 329.9,236.3 329.9,242.3 323.9,242.3" fill="rgb(249,249,255)"/>
<polygon points="329.9,236.3 335.9,236.3 335.9,242.3 329.9,242.3" fill="rgb(254,254,255)"/>
<polygon points="335.9,236.3 341.9,236.3 341.9,242.3 335.9,242.3" fill="rgb(255,228,228)"/>
<polygon points="341.9,236.3 347.9,236.3 347.9,242.3 341.9,242.3" fill="rgb(176,176,255)"/>
<polygon points="347.9,236.3 353.9,236.3 353.9,242.3 347.9,242.3" fill="rgb(194,194,255)"/>
<polygon points="353.9,236.3 359.9,236.3 359.9,242.3 353.9,242.3" fill="rgb(234,234,255)"/>
<polygon points="161.9,242.3 169.9,242.3 169.9,248.3 161.9,248.3" fill="rgb(220,188,121)"/><text xml:space="preserve" x="165.9" y="248.133" font-family="Calibri" font-size="7.5" fill="rgb(0,0,0)" text-anchor="middle">13</text>
<polygon points="169.9,242.3 177.9,242.3 177.9,248.3 169.9,248.3" fill="rgb(245,245,245)"/><text xml:space="preserve" x="173.9" y="248.133" font-family="Calibri" font-size="7.5" fill="rgb(0,0,0)" text-anchor="middle">7</text>
<polygon points="177.9,242.3 185.9,242.3 185.9,248.3 177.9,248.3" fill="rgb(240,235,224)"/><text xml:space="preserve" x="181.9" y="248.133" font-family="Calibri" font-size="7.5" fill="rgb(0,0,0)" text-anchor="middle">8</text>
<polygon points="195.9,242.3 201.9,242.3 201.9,248.3 195.9,248.3" fill="rgb(255,111,111)"/>
<polygon points="201.9,242.3 207.9,242.3 207.9,248.3 201.9,248.3" fill="rgb(255,113,113)"/>
<polygon points="207.9,242.3 213.9,242.3 213.9,248.3 207.9,248.3" fill="rgb(255,88,88)"/>
<polygon points="213.9,242.3 219.9,242.3 219.9,248.3 213.9,248.3" fill="rgb(255,8,8)"/>
<polygon points="219.9,242.3 225.9,242.3 225.9,248.3 219.9,248.3" fill="rgb(255,188,188)"/>
<polygon points="225.9,242.3 231.9,242.3 231.9,248.3 225.9,248.3" fill="rgb(208,208,255)"/>
<polygon points="231.9,242.3 237.9,242.3 237.9,248.3 231.9,248.3" fill="rgb(147,147,255)"/>
<polygon points="237.9,242.3 243.9,242.3 243.9,248.3 237.9,248.3" fill="rgb(157,157,255)"/>
<polygon points="253.9,242.3 259.9,242.3 259.9,248.3 253.9,248.3" fill="rgb(255,218,218)"/>
<polygon points="259.9,242.3 265.9,242.3 265.9,248.3 259.9,248.3" fill="rgb(255,171,171)"/>
<polygon points="265.9,242.3 271.9,242.3 271.9,248.3 265.9,248.3" fill="rgb(255,164,164)"/>
<polygon points="271.9,242.3 277.9,242.3 277.9,248.3 271.9,248.3" fill="rgb(255,117,117)"/>
<polygon points="277.9,242.3 283.9,242.3 283.9,248.3 277.9,248.3" fill="rgb(243,243,255)"/>
<polygon points="283.9,242.3 289.9,242.3 289.9,248.3 283.9,248.3" fill="rgb(224,224,255)"/>
<polygon points="289.9,242.3 295.9,242.3 295.9,248.3 289.9,248.3" fill="rgb(220,220,255)"/>
<polygon points="295.9,242.3 301.9,242.3 301.9,248.3 295.9,248.3" fill="rgb(212,212,255)"/>
<polygon points="311.9,242.3 317.9,242.3 317.9,248.3 311.9,248.3" fill="rgb(237,237,255)"/>
<polygon points="317.9,242.3 323.9,242.3 323.9,248.3 317.9,248.3" fill="rgb(255,225,225)"/>
<polygon points="323.9,242.3 329.9,242.3 329.9,248.3 323.9,248.3" fill="rgb(255,244,244)"/>
<polygon points="329.9,242.3 335.9,242.3 335.9,248.3 329.9,248.3" fill="rgb(255,214,214)"/>
<polygon points="335.9,242.3 341.9,242.3 341.9,248.3 335.9,248.3" fill="rgb(218,218,255)"/>
<polygon points="341.9,242.3 347.9,242.3 347.9,248.3 341.9,248.3" fill="rgb(255,225,225)"/>
<polygon points="347.9,242.3 353.9,242.3 353.9,248.3 347.9,248.3" fill="rgb(225,225,255)"/>
<polygon points="353.9,242.3 359.9,242.3 359.9,248.3 353.9,248.3" fill="rgb(184,184,255)"/>
<polygon points="161.9,248.3 169.9,248.3 169.9,254.3 161.9,254.3" fill="rgb(220,188,121)"/><text xml:space="preserve" x="165.9" y="254.133" font-family="Calibri" font-size="7.5" fill="rgb(0,0,0)" text-anchor="middle">13</text>
<polygon points="169.9,248.3 177.9,248.3 177.9,254.3 169.9,254.3" fill="rgb(245,245,245)"/><text xml:space="preserve" x="173.9" y="254.133" font-family="Calibri" font-size="7.5" fill="rgb(0,0,0)" text-anchor="middle">7</text>
<polygon points="177.9,248.3 185.9,248.3 185.9,254.3 177.9,254.3" fill="rgb(240,235,224)"/><text xml:space="preserve" x="181.9" y="254.133" font-family="Calibri" font-size="7.5" fill="rgb(0,0,0)" text-anchor="middle">8</text>
<polygon points="195.9,248.3 201.9,248.3 201.9,254.3 195.9,254.3" fill="rgb(255,159,159)"/>
<polygon points="201.9,248.3 207.9,248.3 207.9,254.3 201.9,254.3" fill="rgb(255,172,172)"/>
<polygon points="207.9,248.3 213.9,248.3 213.9,254.3 207.9,254.3" fill="rgb(255,196,196)"/>
<polygon points="213.9,248.3 219.9,248.3 219.9,254.3 213.9,254.3" fill="rgb(255,159,159)"/>
<polygon points="219.9,248.3 225.9,248.3 225.9,254.3 219.9,254.3" fill="rgb(255,101,101)"/>
<polygon points="225.9,248.3 231.9,248.3 231.9,254.3 225.9,254.3" fill="rgb(253,253,255)"/>
<polygon points="231.9,248.3 237.9,248.3 237.9,254.3 231.9,254.3" fill="rgb(255,57,57)"/>
<polygon points="237.9,248.3 243.9,248.3 243.9,254.3 237.9,254.3" fill="rgb(181,181,255)"/>
<polygon points="253.9,248.3 259.9,248.3 259.9,254.3 253.9,254.3" fill="rgb(255,242,242)"/>
<polygon points="259.9,248.3 265.9,248.3 265.9,254.3 259.9,254.3" fill="rgb(255,176,176)"/>
<polygon points="265.9,248.3 271.9,248.3 271.9,254.3 265.9,254.3" fill="rgb(254,254,255)"/>
<polygon points="271.9,248.3 277.9,248.3 277.9,254.3 271.9,254.3" fill="rgb(255,142,142)"/>
<polygon points="277.9,248.3 283.9,248.3 283.9,254.3 277.9,254.3" fill="rgb(255,175,175)"/>
<polygon points="283.9,248.3 289.9,248.3 289.9,254.3 283.9,254.3" fill="rgb(210,210,255)"/>
<polygon points="289.9,248.3 295.9,248.3 295.9,254.3 289.9,254.3" fill="rgb(202,202,255)"/>
<polygon points="295.9,248.3 301.9,248.3 301.9,254.3 295.9,254.3" fill="rgb(187,187,255)"/>
<polygon points="311.9,248.3 317.9,248.3 317.9,254.3 311.9,254.3" fill="rgb(254,225,225)"/>
<polygon points="317.9,248.3 323.9,248.3 323.9,254.3 317.9,254.3" fill="rgb(255,192,192)"/>
<polygon points="323.9,248.3 329.9,248.3 329.9,254.3 323.9,254.3" fill="rgb(191,191,255)"/>
<polygon points="329.9,248.3 335.9,248.3 335.9,254.3 329.9,254.3" fill="rgb(190,190,255)"/>
<polygon points="335.9,248.3 341.9,248.3 341.9,254.3 335.9,254.3" fill="rgb(255,250,250)"/>
<polygon points="341.9,248.3 347.9,248.3 347.9,254.3 341.9,254.3" fill="rgb(214,214,255)"/>
<polygon points="347.9,248.3 353.9,248.3 353.9,254.3 347.9,254.3" fill="rgb(202,202,255)"/>
<polygon points="353.9,248.3 359.9,248.3 359.9,254.3 353.9,254.3" fill="rgb(230,230,255)"/>
<polygon points="161.9,254.3 169.9,254.3 169.9,260.3 161.9,260.3" fill="rgb(220,188,121)"/><text xml:space="preserve" x="165.9" y="260.133" font-family="Calibri" font-size="7.5" fill="rgb(0,0,0)" text-anchor="middle">13</text>
<polygon points="169.9,254.3 177.9,254.3 177.9,260.3 169.9,260.3" fill="rgb(245,245,245)"/><text xml:space="preserve" x="173.9" y="260.133" font-family="Calibri" font-size="7.5" fill="rgb(0,0,0)" text-anchor="middle">7</text>
<polygon points="177.9,254.3 185.9,254.3 185.9,260.3 177.9,260.3" fill="rgb(240,235,224)"/><text xml:space="preserve" x="181.9" y="260.133" font-family="Calibri" font-size="7.5" fill="rgb(0,0,0)" text-anchor="middle">8</text>
<polygon points="195.9,254.3 201.9,254.3 201.9,260.3 195.9,260.3" fill="rgb(255,117,117)"/>
<polygon points="201.9,254.3 207.9,254.3 207.9,260.3 201.9,260.3" fill="rgb(255,158,158)"/>
<polygon points="207.9,254.3 213.9,254.3 213.9,260.3 207.9,260.3" fill="rgb(255,124,124)"/>
<polygon points="213.9,254.3 219.9,254.3 219.9,260.3 213.9,260.3" fill="rgb(255,42,42)"/>
<polygon points="219.9,254.3 225.9,254.3 225.9,260.3 219.9,260.3" fill="rgb(255,167,167)"/>
<polygon points="225.9,254.3 231.9,254.3 231.9,260.3 225.9,260.3" fill="rgb(222,222,255)"/>
<polygon points="231.9,254.3 237.9,254.3 237.9,260.3 231.9,260.3" fill="rgb(162,162,255)"/>
<polygon points="237.9,254.3 243.9,254.3 243.9,260.3 237.9,260.3" fill="rgb(187,187,255)"/>
<polygon points="253.9,254.3 259.9,254.3 259.9,260.3 253.9,260.3" fill="rgb(255,228,228)"/>
<polygon points="259.9,254.3 265.9,254.3 265.9,260.3 259.9,260.3" fill="rgb(255,191,191)"/>
<polygon points="265.9,254.3 271.9,254.3 271.9,260.3 265.9,260.3" fill="rgb(255,220,220)"/>
<polygon points="271.9,254.3 277.9,254.3 277.9,260.3 271.9,260.3" fill="rgb(255,107,107)"/>
<polygon points="277.9,254.3 283.9,254.3 283.9,260.3 277.9,260.3" fill="rgb(255,202,202)"/>
<polygon points="283.9,254.3 289.9,254.3 289.9,260.3 283.9,260.3" fill="rgb(206,206,255)"/>
<polygon points="289.9,254.3 295.9,254.3 295.9,260.3 289.9,260.3" fill="rgb(240,240,255)"/>
<polygon points="295.9,254.3 301.9,254.3 301.9,260.3 295.9,260.3" fill="rgb(206,206,255)"/>
<polygon points="311.9,254.3 317.9,254.3 317.9,260.3 311.9,260.3" fill="rgb(254,203,203)"/>
<polygon points="317.9,254.3 323.9,254.3 323.9,260.3 317.9,260.3" fill="rgb(255,239,239)"/>
<polygon points="323.9,254.3 329.9,254.3 329.9,260.3 323.9,260.3" fill="rgb(211,211,255)"/>
<polygon points="329.9,254.3 335.9,254.3 335.9,260.3 329.9,260.3" fill="rgb(255,238,238)"/>
<polygon points="335.9,254.3 341.9,254.3 341.9,260.3 335.9,260.3" fill="rgb(255,231,231)"/>
<polygon points="341.9,254.3 347.9,254.3 347.9,260.3 341.9,260.3" fill="rgb(231,231,255)"/>
<polygon points="347.9,254.3 353.9,254.3 353.9,260.3 347.9,260.3" fill="rgb(255,245,245)"/>
<polygon points="353.9,254.3 359.9,254.3 359.9,260.3 353.9,260.3" fill="rgb(205,205,255)"/>
<polygon points="161.9,260.3 169.9,260.3 169.9,266.3 161.9,266.3" fill="rgb(220,188,121)"/><text xml:space="preserve" x="165.9" y="266.133" font-family="Calibri" font-size="7.5" fill="rgb(0,0,0)" text-anchor="middle">13</text>
<polygon points="169.9,260.3 177.9,260.3 177.9,266.3 169.9,266.3" fill="rgb(245,245,245)"/><text xml:space="preserve" x="173.9" y="266.133" font-family="Calibri" font-size="7.5" fill="rgb(0,0,0)" text-anchor="middle">7</text>
<polygon points="177.9,260.3 185.9,260.3 185.9,266.3 177.9,266.3" fill="rgb(240,235,224)"/><text xml:space="preserve" x="181.9" y="266.133" font-family="Calibri" font-size="7.5" fill="rgb(0,0,0)" text-anchor="middle">8</text>
<polygon points="195.9,260.3 201.9,260.3 201.9,266.3 195.9,266.3" fill="rgb(255,106,106)"/>
<polygon points="201.9,260.3 207.9,260.3 207.9,266.3 201.9,266.3" fill="rgb(255,148,148)"/>
<polygon points="207.9,260.3 213.9,260.3 213.9,266.3 207.9,266.3" fill="rgb(255,131,131)"/>
<polygon points="213.9,260.3 219.9,260.3 219.9,266.3 213.9,266.3" fill="rgb(255,57,57)"/>
<polygon points="219.9,260.3 225.9,260.3 225.9,266.3 219.9,266.3" fill="rgb(255,176,176)"/>
<polygon points="225.9,260.3 231.9,260.3 231.9,266.3 225.9,266.3" fill="rgb(255,223,223)"/>
<polygon points="231.9,260.3 237.9,260.3 237.9,266.3 231.9,266.3" fill="rgb(255,0,0)"/>
<polygon points="237.9,260.3 243.9,260.3 243.9,266.3 237.9,266.3" fill="rgb(208,208,255)"/>
<polygon points="253.9,260.3 259.9,260.3 259.9,266.3 253.9,266.3" fill="rgb(255,174,174)"/>
<polygon points="259.9,260.3 265.9,260.3 265.9,266.3 259.9,266.3" fill="rgb(255,239,239)"/>
<polygon points="265.9,260.3 271.9,260.3 271.9,266.3 265.9,266.3" fill="rgb(255,235,235)"/>
<polygon points="271.9,260.3 277.9,260.3 277.9,266.3 271.9,266.3" fill="rgb(255,176,176)"/>
<polygon points="277.9,260.3 283.9,260.3 283.9,266.3 277.9,266.3" fill="rgb(255,234,234)"/>
<polygon points="283.9,260.3 289.9,260.3 289.9,266.3 283.9,266.3" fill="rgb(183,183,255)"/>
<polygon points="289.9,260.3 295.9,260.3 295.9,266.3 289.9,266.3" fill="rgb(202,202,255)"/>
<polygon points="295.9,260.3 301.9,260.3 301.9,266.3 295.9,266.3" fill="rgb(247,247,255)"/>
<polygon points="311.9,260.3 317.9,260.3 317.9,266.3 311.9,266.3" fill="rgb(255,239,239)"/>
<polygon points="317.9,260.3 323.9,260.3 323.9,266.3 317.9,266.3" fill="rgb(252,252,255)"/>
<polygon points="323.9,260.3 329.9,260.3 329.9,266.3 323.9,266.3" fill="rgb(200,200,255)"/>
<polygon points="329.9,260.3 335.9,260.3 335.9,266.3 329.9,266.3" fill="rgb(214,214,255)"/>
<polygon points="335.9,260.3 341.9,260.3 341.9,266.3 335.9,266.3" fill="rgb(248,248,255)"/>
<polygon points="341.9,260.3 347.9,260.3 347.9,266.3 341.9,266.3" fill="rgb(177,177,255)"/>
<polygon points="347.9,260.3 353.9,260.3 353.9,266.3 347.9,266.3" fill="rgb(151,151,255)"/>
<polygon points="353.9,260.3 359.9,260.3 359.9,266.3 353.9,266.3" fill="rgb(197,197,255)"/>
<polygon points="161.9,266.3 169.9,266.3 169.9,272.3 161.9,272.3" fill="rgb(220,188,121)"/><text xml:space="preserve" x="165.9" y="272.133" font-family="Calibri" font-size="7.5" fill="rgb(0,0,0)" text-anchor="middle">13</text>
<polygon points="169.9,266.3 177.9,266.3 177.9,272.3 169.9,272.3" fill="rgb(245,245,245)"/><text xml:space="preserve" x="173.9" y="272.133" font-family="Calibri" font-size="7.5" fill="rgb(0,0,0)" text-anchor="middle">7</text>
<polygon points="177.9,266.3 185.9,266.3 185.9,272.3 177.9,272.3" fill="rgb(240,235,224)"/><text xml:space="preserve" x="181.9" y="272.133" font-family="Calibri" font-size="7.5" fill="rgb(0,0,0)" text-anchor="middle">8</text>
<polygon points="195.9,266.3 201.9,266.3 201.9,272.3 195.9,272.3" fill="rgb(255,161,161)"/>
<polygon points="201.9,266.3 207.9,266.3 207.9,272.3 201.9,272.3" fill="rgb(255,107,107)"/>
<polygon points="207.9,266.3 213.9,266.3 213.9,272.3 207.9,272.3" fill="rgb(255,94,94)"/>
<polygon points="213.9,266.3 219.9,266.3 219.9,272.3 213.9,272.3" fill="rgb(255,35,35)"/>
<polygon points="219.9,266.3 225.9,266.3 225.9,272.3 219.9,272.3" fill="rgb(254,173,173)"/>
<polygon points="225.9,266.3 231.9,266.3 231.9,272.3 225.9,272.3" fill="rgb(198,198,255)"/>
<polygon points="231.9,266.3 237.9,266.3 237.9,272.3 231.9,272.3" fill="rgb(237,237,255)"/>
<polygon points="237.9,266.3 243.9,266.3 243.9,272.3 237.9,272.3" fill="rgb(187,187,255)"/>
<polygon points="253.9,266.3 259.9,266.3 259.9,272.3 253.9,272.3" fill="rgb(255,171,171)"/>
<polygon points="259.9,266.3 265.9,266.3 265.9,272.3 259.9,272.3" fill="rgb(255,165,165)"/>
<polygon points="265.9,266.3 271.9,266.3 271.9,272.3 265.9,272.3" fill="rgb(254,207,207)"/>
<polygon points="271.9,266.3 277.9,266.3 277.9,272.3 271.9,272.3" fill="rgb(255,157,157)"/>
<polygon points="277.9,266.3 283.9,266.3 283.9,272.3 277.9,272.3" fill="rgb(254,180,180)"/>
<polygon points="283.9,266.3 289.9,266.3 289.9,272.3 283.9,272.3" fill="rgb(206,206,255)"/>
<polygon points="289.9,266.3 295.9,266.3 295.9,272.3 289.9,272.3" fill="rgb(255,231,231)"/>
<polygon points="295.9,266.3 301.9,266.3 301.9,272.3 295.9,272.3" fill="rgb(217,217,255)"/>
<polygon points="311.9,266.3 317.9,266.3 317.9,272.3 311.9,272.3" fill="rgb(255,223,223)"/>
<polygon points="317.9,266.3 323.9,266.3 323.9,272.3 317.9,272.3" fill="rgb(255,240,240)"/>
<polygon points="323.9,266.3 329.9,266.3 329.9,272.3 323.9,272.3" fill="rgb(236,236,255)"/>
<polygon points="329.9,266.3 335.9,266.3 335.9,272.3 329.9,272.3" fill="rgb(247,247,255)"/>
<polygon points="335.9,266.3 341.9,266.3 341.9,272.3 335.9,272.3" fill="rgb(243,243,255)"/>
<polygon points="341.9,266.3 347.9,266.3 347.9,272.3 341.9,272.3" fill="rgb(255,238,238)"/>
<polygon points="347.9,266.3 353.9,266.3 353.9,272.3 347.9,272.3" fill="rgb(252,252,255)"/>
<polygon points="353.9,266.3 359.9,266.3 359.9,272.3 353.9,272.3" fill="rgb(239,239,255)"/>
<polygon points="161.9,272.3 169.9,272.3 169.9,278.3 161.9,278.3" fill="rgb(220,188,121)"/><text xml:space="preserve" x="165.9" y="278.133" font-family="Calibri" font-size="7.5" fill="rgb(0,0,0)" text-anchor="middle">13</text>
<polygon points="169.9,272.3 177.9,272.3 177.9,278.3 169.9,278.3" fill="rgb(245,245,245)"/><text xml:space="preserve" x="173.9" y="278.133" font-family="Calibri" font-size="7.5" fill="rgb(0,0,0)" text-anchor="middle">7</text>
<polygon points="177.9,272.3 185.9,272.3 185.9,278.3 177.9,278.3" fill="rgb(240,235,224)"/><text xml:space="preserve" x="181.9" y="278.133" font-family="Calibri" font-size="7.5" fill="rgb(0,0,0)" text-anchor="middle">8</text>
<polygon points="195.9,272.3 201.9,272.3 201.9,278.3 195.9,278.3" fill="rgb(255,168,168)"/>
<polygon points="201.9,272.3 207.9,272.3 207.9,278.3 201.9,278.3" fill="rgb(255,100,100)"/>
<polygon points="207.9,272.3 213.9,272.3 213.9,278.3 207.9,278.3" fill="rgb(255,84,84)"/>
<polygon points="213.9,272.3 219.9,272.3 219.9,278.3 213.9,278.3" fill="rgb(255,55,55)"/>
<polygon points="219.9,272.3 225.9,272.3 225.9,278.3 219.9,278.3" fill="rgb(255,140,140)"/>
<polygon points="225.9,272.3 231.9,272.3 231.9,278.3 225.9,278.3" fill="rgb(255,192,192)"/>
<polygon points="231.9,272.3 237.9,272.3 237.9,278.3 231.9,278.3" fill="rgb(180,180,255)"/>
<polygon points="237.9,272.3 243.9,272.3 243.9,278.3 237.9,278.3" fill="rgb(174,174,255)"/>
<polygon points="253.9,272.3 259.9,272.3 259.9,278.3 253.9,278.3" fill="rgb(255,202,202)"/>
<polygon points="259.9,272.3 265.9,272.3 265.9,278.3 259.9,278.3" fill="rgb(255,197,197)"/>
<polygon points="265.9,272.3 271.9,272.3 271.9,278.3 265.9,278.3" fill="rgb(255,183,183)"/>
<polygon points="271.9,272.3 277.9,272.3 277.9,278.3 271.9,278.3" fill="rgb(255,207,207)"/>
<polygon points="277.9,272.3 283.9,272.3 283.9,278.3 277.9,278.3" fill="rgb(255,176,176)"/>
<polygon points="283.9,272.3 289.9,272.3 289.9,278.3 283.9,278.3" fill="rgb(226,226,255)"/>
<polygon points="289.9,272.3 295.9,272.3 295.9,278.3 289.9,278.3" fill="rgb(191,191,255)"/>
<polygon points="295.9,272.3 301.9,272.3 301.9,278.3 295.9,278.3" fill="rgb(171,171,255)"/>
<polygon points="311.9,272.3 317.9,272.3 317.9,278.3 311.9,278.3" fill="rgb(255,218,218)"/>
<polygon points="317.9,272.3 323.9,272.3 323.9,278.3 317.9,278.3" fill="rgb(255,218,218)"/>
<polygon points="323.9,272.3 329.9,272.3 329.9,278.3 323.9,278.3" fill="rgb(255,252,252)"/>
<polygon points="329.9,272.3 335.9,272.3 335.9,278.3 329.9,278.3" fill="rgb(255,241,241)"/>
<polygon points="335.9,272.3 341.9,272.3 341.9,278.3 335.9,278.3" fill="rgb(255,219,219)"/>
<polygon points="341.9,272.3 347.9,272.3 347.9,278.3 341.9,278.3" fill="rgb(255,236,236)"/>
<polygon points="347.9,272.3 353.9,272.3 353.9,278.3 347.9,278.3" fill="rgb(188,188,255)"/>
<polygon points="353.9,272.3 359.9,272.3 359.9,278.3 353.9,278.3" fill="rgb(183,183,255)"/>
<polygon points="161.9,278.3 169.9,278.3 169.9,284.3 161.9,284.3" fill="rgb(220,188,121)"/><text xml:space="preserve" x="165.9" y="284.133" font-family="Calibri" font-size="7.5" fill="rgb(0,0,0)" text-anchor="middle">13</text>
<polygon points="169.9,278.3 177.9,278.3 177.9,284.3 169.9,284.3" fill="rgb(245,245,245)"/><text xml:space="preserve" x="173.9" y="284.133" font-family="Calibri" font-size="7.5" fill="rgb(0,0,0)" text-anchor="middle">7</text>
<polygon points="177.9,278.3 185.9,278.3 185.9,284.3 177.9,284.3" fill="rgb(240,235,224)"/><text xml:space="preserve" x="181.9" y="284.133" font-family="Calibri" font-size="7.5" fill="rgb(0,0,0)" text-anchor="middle">8</text>
<polygon points="195.9,278.3 201.9,278.3 201.9,284.3 195.9,284.3" fill="rgb(255,212,212)"/>
<polygon points="201.9,278.3 207.9,278.3 207.9,284.3 201.9,284.3" fill="rgb(255,113,113)"/>
<polygon points="207.9,278.3 213.9,278.3 213.9,284.3 207.9,284.3" fill="rgb(255,164,164)"/>
<polygon points="213.9,278.3 219.9,278.3 219.9,284.3 213.9,284.3" fill="rgb(255,71,71)"/>
<polygon points="219.9,278.3 225.9,278.3 225.9,284.3 219.9,284.3" fill="rgb(255,248,248)"/>
<polygon points="225.9,278.3 231.9,278.3 231.9,284.3 225.9,284.3" fill="rgb(159,159,255)"/>
<polygon points="231.9,278.3 237.9,278.3 237.9,284.3 231.9,284.3" fill="rgb(115,115,255)"/>
<polygon points="237.9,278.3 243.9,278.3 243.9,284.3 237.9,284.3" fill="rgb(167,167,255)"/>
<polygon points="253.9,278.3 259.9,278.3 259.9,284.3 253.9,284.3" fill="rgb(255,237,237)"/>
<polygon points="259.9,278.3 265.9,278.3 265.9,284.3 259.9,284.3" fill="rgb(255,173,173)"/>
<polygon points="265.9,278.3 271.9,278.3 271.9,284.3 265.9,284.3" fill="rgb(255,176,176)"/>
<polygon points="271.9,278.3 277.9,278.3 277.9,284.3 271.9,284.3" fill="rgb(255,203,203)"/>
<polygon points="277.9,278.3 283.9,278.3 283.9,284.3 277.9,284.3" fill="rgb(255,237,237)"/>
<polygon points="283.9,278.3 289.9,278.3 289.9,284.3 283.9,284.3" fill="rgb(255,254,254)"/>
<polygon points="289.9,278.3 295.9,278.3 295.9,284.3 289.9,284.3" fill="rgb(147,147,255)"/>
<polygon points="295.9,278.3 301.9,278.3 301.9,284.3 295.9,284.3" fill="rgb(200,200,255)"/>
<polygon points="311.9,278.3 317.9,278.3 317.9,284.3 311.9,284.3" fill="rgb(255,169,169)"/>
<polygon points="317.9,278.3 323.9,278.3 323.9,284.3 317.9,284.3" fill="rgb(255,185,185)"/>
<polygon points="323.9,278.3 329.9,278.3 329.9,284.3 323.9,284.3" fill="rgb(226,226,255)"/>
<polygon points="329.9,278.3 335.9,278.3 335.9,284.3 329.9,284.3" fill="rgb(255,190,190)"/>
<polygon points="335.9,278.3 341.9,278.3 341.9,284.3 335.9,284.3" fill="rgb(255,254,254)"/>
<polygon points="341.9,278.3 347.9,278.3 347.9,284.3 341.9,284.3" fill="rgb(255,180,180)"/>
<polygon points="347.9,278.3 353.9,278.3 353.9,284.3 347.9,284.3" fill="rgb(183,183,255)"/>
<polygon points="353.9,278.3 359.9,278.3 359.9,284.3 353.9,284.3" fill="rgb(160,160,255)"/>
<polygon points="161.9,284.3 169.9,284.3 169.9,290.3 161.9,290.3" fill="rgb(216,179,101)"/><text xml:space="preserve" x="165.9" y="290.133" font-family="Calibri" font-size="7.5" fill="rgb(0,0,0)" text-anchor="middle">14</text>
<polygon points="169.9,284.3 177.9,284.3 177.9,290.3 169.9,290.3" fill="rgb(245,245,245)"/><text xml:space="preserve" x="173.9" y="290.133" font-family="Calibri" font-size="7.5" fill="rgb(0,0,0)" text-anchor="middle">7</text>
<polygon points="177.9,284.3 185.9,284.3 185.9,290.3 177.9,290.3" fill="rgb(240,235,224)"/><text xml:space="preserve" x="181.9" y="290.133" font-family="Calibri" font-size="7.5" fill="rgb(0,0,0)" text-anchor="middle">8</text>
<polygon points="195.9,284.3 201.9,284.3 201.9,290.3 195.9,290.3" fill="rgb(255,201,201)"/>
<polygon points="201.9,284.3 207.9,284.3 207.9,290.3 201.9,290.3" fill="rgb(247,247,255)"/>
<polygon points="207.9,284.3 213.9,284.3 213.9,290.3 207.9,290.3" fill="rgb(194,194,255)"/>
<polygon points="213.9,284.3 219.9,284.3 219.9,290.3 213.9,290.3" fill="rgb(221,221,255)"/>
<polygon points="219.9,284.3 225.9,284.3 225.9,290.3 219.9,290.3" fill="rgb(253,253,255)"/>
<polygon points="225.9,284.3 231.9,284.3 231.9,290.3 225.9,290.3" fill="rgb(115,115,255)"/>
<polygon points="231.9,284.3 237.9,284.3 237.9,290.3 231.9,290.3" fill="rgb(255,111,111)"/>
<polygon points="237.9,284.3 243.9,284.3 243.9,290.3 237.9,290.3" fill="rgb(255,92,92)"/>
<polygon points="253.9,284.3 259.9,284.3 259.9,290.3 253.9,290.3" fill="rgb(255,206,206)"/>
<polygon points="259.9,284.3 265.9,284.3 265.9,290.3 259.9,290.3" fill="rgb(255,177,177)"/>
<polygon points="265.9,284.3 271.9,284.3 271.9,290.3 265.9,290.3" fill="rgb(255,189,189)"/>
<polygon points="271.9,284.3 277.9,284.3 277.9,290.3 271.9,290.3" fill="rgb(255,162,162)"/>
<polygon points="277.9,284.3 283.9,284.3 283.9,290.3 277.9,290.3" fill="rgb(255,182,182)"/>
<polygon points="283.9,284.3 289.9,284.3 289.9,290.3 283.9,290.3" fill="rgb(210,210,255)"/>
<polygon points="289.9,284.3 295.9,284.3 295.9,290.3 289.9,290.3" fill="rgb(255,251,251)"/>
<polygon points="295.9,284.3 301.9,284.3 301.9,290.3 295.9,290.3" fill="rgb(237,237,255)"/>
<polygon points="311.9,284.3 317.9,284.3 317.9,290.3 311.9,290.3" fill="rgb(255,190,190)"/>
<polygon points="317.9,284.3 323.9,284.3 323.9,290.3 317.9,290.3" fill="rgb(255,163,163)"/>
<polygon points="323.9,284.3 329.9,284.3 329.9,290.3 323.9,290.3" fill="rgb(244,244,255)"/>
<polygon points="329.9,284.3 335.9,284.3 335.9,290.3 329.9,290.3" fill="rgb(199,199,255)"/>
<polygon points="335.9,284.3 341.9,284.3 341.9,290.3 335.9,290.3" fill="rgb(255,201,201)"/>
<polygon points="341.9,284.3 347.9,284.3 347.9,290.3 341.9,290.3" fill="rgb(214,214,255)"/>
<polygon points="347.9,284.3 353.9,284.3 353.9,290.3 347.9,290.3" fill="rgb(249,249,255)"/>
<polygon points="353.9,284.3 359.9,284.3 359.9,290.3 353.9,290.3" fill="rgb(212,212,255)"/>
<polygon points="161.9,290.3 169.9,290.3 169.9,296.3 161.9,296.3" fill="rgb(216,179,101)"/><text xml:space="preserve" x="165.9" y="296.133" font-family="Calibri" font-size="7.5" fill="rgb(0,0,0)" text-anchor="middle">14</text>
<polygon points="169.9,290.3 177.9,290.3 177.9,296.3 169.9,296.3" fill="rgb(245,245,245)"/><text xml:space="preserve" x="173.9" y="296.133" font-family="Calibri" font-size="7.5" fill="rgb(0,0,0)" text-anchor="middle">7</text>
<polygon points="177.9,290.3 185.9,290.3 185.9,296.3 177.9,296.3" fill="rgb(240,235,224)"/><text xml:space="preserve" x="181.9" y="296.133" font-family="Calibri" font-size="7.5" fill="rgb(0,0,0)" text-anchor="middle">8</text>
<polygon points="195.9,290.3 201.9,290.3 201.9,296.3 195.9,296.3" fill="rgb(255,233,233)"/>
<polygon points="201.9,290.3 207.9,290.3 207.9,296.3 201.9,296.3" fill="rgb(255,243,243)"/>
<polygon points="207.9,290.3 213.9,290.3 213.9,296.3 207.9,296.3" fill="rgb(255,240,240)"/>
<polygon points="213.9,290.3 219.9,290.3 219.9,296.3 213.9,296.3" fill="rgb(242,242,255)"/>
<polygon points="219.9,290.3 225.9,290.3 225.9,296.3 219.9,296.3" fill="rgb(216,216,255)"/>
<polygon points="225.9,290.3 231.9,290.3 231.9,296.3 225.9,296.3" fill="rgb(136,136,255)"/>
<polygon points="231.9,290.3 237.9,290.3 237.9,296.3 231.9,296.3" fill="rgb(255,117,117)"/>
<polygon points="237.9,290.3 243.9,290.3 243.9,296.3 237.9,296.3" fill="rgb(255,98,98)"/>
<polygon points="253.9,290.3 259.9,290.3 259.9,296.3 253.9,296.3" fill="rgb(254,248,248)"/>
<polygon points="259.9,290.3 265.9,290.3 265.9,296.3 259.9,296.3" fill="rgb(255,203,203)"/>
<polygon points="265.9,290.3 271.9,290.3 271.9,296.3 265.9,296.3" fill="rgb(255,213,213)"/>
<polygon points="271.9,290.3 277.9,290.3 277.9,296.3 271.9,296.3" fill="rgb(255,218,218)"/>
<polygon points="277.9,290.3 283.9,290.3 283.9,296.3 277.9,296.3" fill="rgb(215,215,255)"/>
<polygon points="283.9,290.3 289.9,290.3 289.9,296.3 283.9,296.3" fill="rgb(110,110,255)"/>
<polygon points="289.9,290.3 295.9,290.3 295.9,296.3 289.9,296.3" fill="rgb(168,168,255)"/>
<polygon points="295.9,290.3 301.9,290.3 301.9,296.3 295.9,296.3" fill="rgb(255,224,224)"/>
<polygon points="311.9,290.3 317.9,290.3 317.9,296.3 311.9,296.3" fill="rgb(255,218,218)"/>
<polygon points="317.9,290.3 323.9,290.3 323.9,296.3 317.9,296.3" fill="rgb(255,208,208)"/>
<polygon points="323.9,290.3 329.9,290.3 329.9,296.3 323.9,296.3" fill="rgb(189,189,255)"/>
<polygon points="329.9,290.3 335.9,290.3 335.9,296.3 329.9,296.3" fill="rgb(242,242,255)"/>
<polygon points="335.9,290.3 341.9,290.3 341.9,296.3 335.9,296.3" fill="rgb(191,191,255)"/>
<polygon points="341.9,290.3 347.9,290.3 347.9,296.3 341.9,296.3" fill="rgb(83,83,255)"/>
<polygon points="347.9,290.3 353.9,290.3 353.9,296.3 347.9,296.3" fill="rgb(153,153,255)"/>
<polygon points="353.9,290.3 359.9,290.3 359.9,296.3 353.9,296.3" fill="rgb(255,218,218)"/>
<polygon points="161.9,296.3 169.9,296.3 169.9,302.3 161.9,302.3" fill="rgb(216,179,101)"/><text xml:space="preserve" x="165.9" y="302.133" font-family="Calibri" font-size="7.5" fill="rgb(0,0,0)" text-anchor="middle">14</text>
<polygon points="169.9,296.3 177.9,296.3 177.9,302.3 169.9,302.3" fill="rgb(245,245,245)"/><text xml:space="preserve" x="173.9" y="302.133" font-family="Calibri" font-size="7.5" fill="rgb(0,0,0)" text-anchor="middle">7</text>
<polygon points="177.9,296.3 185.9,296.3 185.9,302.3 177.9,302.3" fill="rgb(240,235,224)"/><text xml:space="preserve" x="181.9" y="302.133" font-family="Calibri" font-size="7.5" fill="rgb(0,0,0)" text-anchor="middle">8</text>
<polygon points="195.9,296.3 201.9,296.3 201.9,302.3 195.9,302.3" fill="rgb(255,210,210)"/>
<polygon points="201.9,296.3 207.9,296.3 207.9,302.3 201.9,302.3" fill="rgb(252,252,255)"/>
<polygon points="207.9,296.3 213.9,296.3 213.9,302.3 207.9,302.3" fill="rgb(254,142,142)"/>
<polygon points="213.9,296.3 219.9,296.3 219.9,302.3 213.9,302.3" fill="rgb(255,175,175)"/>
<polygon points="219.9,296.3 225.9,296.3 225.9,302.3 219.9,302.3" fill="rgb(227,227,255)"/>
<polygon points="225.9,296.3 231.9,296.3 231.9,302.3 225.9,302.3" fill="rgb(255,180,180)"/>
<polygon points="231.9,296.3 237.9,296.3 237.9,302.3 231.9,302.3" fill="rgb(255,187,187)"/>
<polygon points="237.9,296.3 243.9,296.3 243.9,302.3 237.9,302.3" fill="rgb(255,194,194)"/>
<polygon points="253.9,296.3 259.9,296.3 259.9,302.3 253.9,302.3" fill="rgb(245,245,255)"/>
<polygon points="259.9,296.3 265.9,296.3 265.9,302.3 259.9,302.3" fill="rgb(255,193,193)"/>
<polygon points="265.9,296.3 271.9,296.3 271.9,302.3 265.9,302.3" fill="rgb(255,184,184)"/>
<polygon points="271.9,296.3 277.9,296.3 277.9,302.3 271.9,302.3" fill="rgb(255,153,153)"/>
<polygon points="277.9,296.3 283.9,296.3 283.9,302.3 277.9,302.3" fill="rgb(252,252,255)"/>
<polygon points="283.9,296.3 289.9,296.3 289.9,302.3 283.9,302.3" fill="rgb(206,206,255)"/>
<polygon points="289.9,296.3 295.9,296.3 295.9,302.3 289.9,302.3" fill="rgb(240,240,255)"/>
<polygon points="295.9,296.3 301.9,296.3 301.9,302.3 295.9,302.3" fill="rgb(255,231,231)"/>
<polygon points="311.9,296.3 317.9,296.3 317.9,302.3 311.9,302.3" fill="rgb(254,207,207)"/>
<polygon points="317.9,296.3 323.9,296.3 323.9,302.3 317.9,302.3" fill="rgb(255,222,222)"/>
<polygon points="323.9,296.3 329.9,296.3 329.9,302.3 323.9,302.3" fill="rgb(187,187,255)"/>
<polygon points="329.9,296.3 335.9,296.3 335.9,302.3 329.9,302.3" fill="rgb(254,248,248)"/>
<polygon points="335.9,296.3 341.9,296.3 341.9,302.3 335.9,302.3" fill="rgb(229,229,255)"/>
<polygon points="341.9,296.3 347.9,296.3 347.9,302.3 341.9,302.3" fill="rgb(180,180,255)"/>
<polygon points="347.9,296.3 353.9,296.3 353.9,302.3 347.9,302.3" fill="rgb(211,211,255)"/>
<polygon points="353.9,296.3 359.9,296.3 359.9,302.3 353.9,302.3" fill="rgb(255,230,230)"/>
<polygon points="161.9,302.3 169.9,302.3 169.9,308.3 161.9,308.3" fill="rgb(216,179,101)"/><text xml:space="preserve" x="165.9" y="308.133" font-family="Calibri" font-size="7.5" fill="rgb(0,0,0)" text-anchor="middle">14</text>
<polygon points="169.9,302.3 177.9,302.3 177.9,308.3 169.9,308.3" fill="rgb(245,245,245)"/><text xml:space="preserve" x="173.9" y="308.133" font-family="Calibri" font-size="7.5" fill="rgb(0,0,0)" text-anchor="middle">7</text>
<polygon points="177.9,302.3 185.9,302.3 185.9,308.3 177.9,308.3" fill="rgb(240,235,224)"/><text xml:space="preserve" x="181.9" y="308.133" font-family="Calibri" font-size="7.5" fill="rgb(0,0,0)" text-anchor="middle">8</text>
<polygon points="195.9,302.3 201.9,302.3 201.9,308.3 195.9,308.3" fill="rgb(254,236,236)"/>
<polygon points="201.9,302.3 207.9,302.3 207.9,308.3 201.9,308.3" fill="rgb(255,236,236)"/>
<polygon points="207.9,302.3 213.9,302.3 213.9,308.3 207.9,308.3" fill="rgb(239,239,255)"/>
<polygon points="213.9,302.3 219.9,302.3 219.9,308.3 213.9,308.3" fill="rgb(239,239,255)"/>
<polygon points="219.9,302.3 225.9,302.3 225.9,308.3 219.9,308.3" fill="rgb(224,224,255)"/>
<polygon points="225.9,302.3 231.9,302.3 231.9,308.3 225.9,308.3" fill="rgb(255,214,214)"/>
<polygon points="231.9,302.3 237.9,302.3 237.9,308.3 231.9,308.3" fill="rgb(255,191,191)"/>
<polygon points="237.9,302.3 243.9,302.3 243.9,308.3 237.9,308.3" fill="rgb(255,241,241)"/>
<polygon points="253.9,302.3 259.9,302.3 259.9,308.3 253.9,308.3" fill="rgb(255,205,205)"/>
<polygon points="259.9,302.3 265.9,302.3 265.9,308.3 259.9,308.3" fill="rgb(255,203,203)"/>
<polygon points="265.9,302.3 271.9,302.3 271.9,308.3 265.9,308.3" fill="rgb(254,236,236)"/>
<polygon points="271.9,302.3 277.9,302.3 277.9,308.3 271.9,308.3" fill="rgb(254,195,195)"/>
<polygon points="277.9,302.3 283.9,302.3 283.9,308.3 277.9,308.3" fill="rgb(236,236,255)"/>
<polygon points="283.9,302.3 289.9,302.3 289.9,308.3 283.9,308.3" fill="rgb(226,226,255)"/>
<polygon points="289.9,302.3 295.9,302.3 295.9,308.3 289.9,308.3" fill="rgb(194,194,255)"/>
<polygon points="295.9,302.3 301.9,302.3 301.9,308.3 295.9,308.3" fill="rgb(247,247,255)"/>
<polygon points="311.9,302.3 317.9,302.3 317.9,308.3 311.9,308.3" fill="rgb(255,196,196)"/>
<polygon points="317.9,302.3 323.9,302.3 323.9,308.3 317.9,308.3" fill="rgb(255,247,247)"/>
<polygon points="323.9,302.3 329.9,302.3 329.9,308.3 323.9,308.3" fill="rgb(255,239,239)"/>
<polygon points="329.9,302.3 335.9,302.3 335.9,308.3 329.9,308.3" fill="rgb(255,213,213)"/>
<polygon points="335.9,302.3 341.9,302.3 341.9,308.3 335.9,308.3" fill="rgb(229,229,255)"/>
<polygon points="341.9,302.3 347.9,302.3 347.9,308.3 341.9,308.3" fill="rgb(255,240,240)"/>
<polygon points="347.9,302.3 353.9,302.3 353.9,308.3 347.9,308.3" fill="rgb(203,203,255)"/>
<polygon points="353.9,302.3 359.9,302.3 359.9,308.3 353.9,308.3" fill="rgb(184,184,255)"/>
<polygon points="161.9,308.3 169.9,308.3 169.9,314.3 161.9,314.3" fill="rgb(216,179,101)"/><text xml:space="preserve" x="165.9" y="314.133" font-family="Calibri" font-size="7.5" fill="rgb(0,0,0)" text-anchor="middle">14</text>
<polygon points="169.9,308.3 177.9,308.3 177.9,314.3 169.9,314.3" fill="rgb(245,245,245)"/><text xml:space="preserve" x="173.9" y="314.133" font-family="Calibri" font-size="7.5" fill="rgb(0,0,0)" text-anchor="middle">7</text>
<polygon points="177.9,308.3 185.9,308.3 185.9,314.3 177.9,314.3" fill="rgb(240,235,224)"/><text xml:space="preserve" x="181.9" y="314.133" font-family="Calibri" font-size="7.5" fill="rgb(0,0,0)" text-anchor="middle">8</text>
<polygon points="195.9,308.3 201.9,308.3 201.9,314.3 195.9,314.3" fill="rgb(255,245,245)"/>
<polygon points="201.9,308.3 207.9,308.3 207.9,314.3 201.9,314.3" fill="rgb(205,205,255)"/>
<polygon points="207.9,308.3 213.9,308.3 213.9,314.3 207.9,314.3" fill="rgb(255,243,243)"/>
<polygon points="213.9,308.3 219.9,308.3 219.9,314.3 213.9,314.3" fill="rgb(255,222,222)"/>
<polygon points="219.9,308.3 225.9,308.3 225.9,314.3 219.9,314.3" fill="rgb(239,239,255)"/>
<polygon points="225.9,308.3 231.9,308.3 231.9,314.3 225.9,314.3" fill="rgb(252,252,255)"/>
<polygon points="231.9,308.3 237.9,308.3 237.9,314.3 231.9,314.3" fill="rgb(231,231,255)"/>
<polygon points="237.9,308.3 243.9,308.3 243.9,314.3 237.9,314.3" fill="rgb(255,244,244)"/>
<polygon points="253.9,308.3 259.9,308.3 259.9,314.3 253.9,314.3" fill="rgb(255,221,221)"/>
<polygon points="259.9,308.3 265.9,308.3 265.9,314.3 259.9,314.3" fill="rgb(255,236,236)"/>
<polygon points="265.9,308.3 271.9,308.3 271.9,314.3 265.9,314.3" fill="rgb(255,239,239)"/>
<polygon points="271.9,308.3 277.9,308.3 277.9,314.3 271.9,314.3" fill="rgb(255,142,142)"/>
<polygon points="277.9,308.3 283.9,308.3 283.9,314.3 277.9,314.3" fill="rgb(255,197,197)"/>
<polygon points="283.9,308.3 289.9,308.3 289.9,314.3 283.9,314.3" fill="rgb(211,211,255)"/>
<polygon points="289.9,308.3 295.9,308.3 295.9,314.3 289.9,314.3" fill="rgb(191,191,255)"/>
<polygon points="295.9,308.3 301.9,308.3 301.9,314.3 295.9,314.3" fill="rgb(250,250,255)"/>
<polygon points="311.9,308.3 317.9,308.3 317.9,314.3 311.9,314.3" fill="rgb(255,243,243)"/>
<polygon points="317.9,308.3 323.9,308.3 323.9,314.3 317.9,314.3" fill="rgb(254,244,244)"/>
<polygon points="323.9,308.3 329.9,308.3 329.9,314.3 323.9,314.3" fill="rgb(254,254,255)"/>
<polygon points="329.9,308.3 335.9,308.3 335.9,314.3 329.9,314.3" fill="rgb(254,227,227)"/>
<polygon points="335.9,308.3 341.9,308.3 341.9,314.3 335.9,314.3" fill="rgb(255,251,251)"/>
<polygon points="341.9,308.3 347.9,308.3 347.9,314.3 341.9,314.3" fill="rgb(175,175,255)"/>
<polygon points="347.9,308.3 353.9,308.3 353.9,314.3 347.9,314.3" fill="rgb(195,195,255)"/>
<polygon points="353.9,308.3 359.9,308.3 359.9,314.3 353.9,314.3" fill="rgb(221,221,255)"/>
<polygon points="161.9,314.3 169.9,314.3 169.9,320.3 161.9,320.3" fill="rgb(216,179,101)"/><text xml:space="preserve" x="165.9" y="320.133" font-family="Calibri" font-size="7.5" fill="rgb(0,0,0)" text-anchor="middle">14</text>
<polygon points="169.9,314.3 177.9,314.3 177.9,320.3 169.9,320.3" fill="rgb(245,245,245)"/><text xml:space="preserve" x="173.9" y="320.133" font-family="Calibri" font-size="7.5" fill="rgb(0,0,0)" text-anchor="middle">7</text>
<polygon points="177.9,314.3 185.9,314.3 185.9,320.3 177.9,320.3" fill="rgb(240,235,224)"/><text xml:space="preserve" x="181.9" y="320.133" font-family="Calibri" font-size="7.5" fill="rgb(0,0,0)" text-anchor="middle">8</text>
<polygon points="195.9,314.3 201.9,314.3 201.9,320.3 195.9,320.3" fill="rgb(255,197,197)"/>
<polygon points="201.9,314.3 207.9,314.3 207.9,320.3 201.9,320.3" fill="rgb(245,245,255)"/>
<polygon points="207.9,314.3 213.9,314.3 213.9,320.3 207.9,320.3" fill="rgb(254,254,254)"/>
<polygon points="213.9,314.3 219.9,314.3 219.9,320.3 213.9,320.3" fill="rgb(255,241,241)"/>
<polygon points="219.9,314.3 225.9,314.3 225.9,320.3 219.9,320.3" fill="rgb(199,199,255)"/>
<polygon points="225.9,314.3 231.9,314.3 231.9,320.3 225.9,320.3" fill="rgb(196,196,255)"/>
<polygon points="231.9,314.3 237.9,314.3 237.9,320.3 231.9,320.3" fill="rgb(255,174,174)"/>
<polygon points="237.9,314.3 243.9,314.3 243.9,320.3 237.9,320.3" fill="rgb(255,155,155)"/>
<polygon points="253.9,314.3 259.9,314.3 259.9,320.3 253.9,320.3" fill="rgb(254,243,243)"/>
<polygon points="259.9,314.3 265.9,314.3 265.9,320.3 259.9,320.3" fill="rgb(255,243,243)"/>
<polygon points="265.9,314.3 271.9,314.3 271.9,320.3 265.9,320.3" fill="rgb(255,189,189)"/>
<polygon points="271.9,314.3 277.9,314.3 277.9,320.3 271.9,320.3" fill="rgb(254,178,178)"/>
<polygon points="277.9,314.3 283.9,314.3 283.9,320.3 277.9,320.3" fill="rgb(255,219,219)"/>
<polygon points="283.9,314.3 289.9,314.3 289.9,320.3 283.9,320.3" fill="rgb(225,225,255)"/>
<polygon points="289.9,314.3 295.9,314.3 295.9,320.3 289.9,320.3" fill="rgb(206,206,255)"/>
<polygon points="295.9,314.3 301.9,314.3 301.9,320.3 295.9,320.3" fill="rgb(210,210,255)"/>
<polygon points="311.9,314.3 317.9,314.3 317.9,320.3 311.9,320.3" fill="rgb(255,209,209)"/>
<polygon points="317.9,314.3 323.9,314.3 323.9,320.3 317.9,320.3" fill="rgb(254,229,229)"/>
<polygon points="323.9,314.3 329.9,314.3 329.9,320.3 323.9,320.3" fill="rgb(239,239,255)"/>
<polygon points="329.9,314.3 335.9,314.3 335.9,320.3 329.9,320.3" fill="rgb(247,247,255)"/>
<polygon points="335.9,314.3 341.9,314.3 341.9,320.3 335.9,320.3" fill="rgb(209,209,255)"/>
<polygon points="341.9,314.3 347.9,314.3 347.9,320.3 341.9,320.3" fill="rgb(150,150,255)"/>
<polygon points="347.9,314.3 353.9,314.3 353.9,320.3 347.9,320.3" fill="rgb(202,202,255)"/>
<polygon points="353.9,314.3 359.9,314.3 359.9,320.3 353.9,320.3" fill="rgb(255,205,205)"/>
<polygon points="161.9,320.3 169.9,320.3 169.9,326.3 161.9,326.3" fill="rgb(216,179,101)"/><text xml:space="preserve" x="165.9" y="326.133" font-family="Calibri" font-size="7.5" fill="rgb(0,0,0)" text-anchor="middle">14</text>
<polygon points="169.9,320.3 177.9,320.3 177.9,326.3 169.9,326.3" fill="rgb(245,245,245)"/><text xml:space="preserve" x="173.9" y="326.133" font-family="Calibri" font-size="7.5" fill="rgb(0,0,0)" text-anchor="middle">7</text>
<polygon points="177.9,320.3 185.9,320.3 185.9,326.3 177.9,326.3" fill="rgb(240,235,224)"/><text xml:space="preserve" x="181.9" y="326.133" font-family="Calibri" font-size="7.5" fill="rgb(0,0,0)" text-anchor="middle">8</text>
<polygon points="195.9,320.3 201.9,320.3 201.9,326.3 195.9,326.3" fill="rgb(255,230,230)"/>
<polygon points="201.9,320.3 207.9,320.3 207.9,326.3 201.9,326.3" fill="rgb(255,240,240)"/>
<polygon points="207.9,320.3 213.9,320.3 213.9,326.3 207.9,326.3" fill="rgb(255,214,214)"/>
<polygon points="213.9,320.3 219.9,320.3 219.9,326.3 213.9,326.3" fill="rgb(255,235,235)"/>
<polygon points="219.9,320.3 225.9,320.3 225.9,326.3 219.9,326.3" fill="rgb(228,228,255)"/>
<polygon points="225.9,320.3 231.9,320.3 231.9,326.3 225.9,326.3" fill="rgb(186,186,255)"/>
<polygon points="231.9,320.3 237.9,320.3 237.9,326.3 231.9,326.3" fill="rgb(239,239,255)"/>
<polygon points="237.9,320.3 243.9,320.3 243.9,326.3 237.9,326.3" fill="rgb(255,208,208)"/>
<polygon points="253.9,320.3 259.9,320.3 259.9,326.3 253.9,326.3" fill="rgb(255,218,218)"/>
<polygon points="259.9,320.3 265.9,320.3 265.9,326.3 259.9,326.3" fill="rgb(255,205,205)"/>
<polygon points="265.9,320.3 271.9,320.3 271.9,326.3 265.9,326.3" fill="rgb(255,201,201)"/>
<polygon points="271.9,320.3 277.9,320.3 277.9,326.3 271.9,326.3" fill="rgb(255,175,175)"/>
<polygon points="277.9,320.3 283.9,320.3 283.9,326.3 277.9,326.3" fill="rgb(255,239,239)"/>
<polygon points="283.9,320.3 289.9,320.3 289.9,326.3 283.9,326.3" fill="rgb(201,201,255)"/>
<polygon points="289.9,320.3 295.9,320.3 295.9,326.3 289.9,326.3" fill="rgb(190,190,255)"/>
<polygon points="295.9,320.3 301.9,320.3 301.9,326.3 295.9,326.3" fill="rgb(230,230,255)"/>
<polygon points="311.9,320.3 317.9,320.3 317.9,326.3 311.9,326.3" fill="rgb(255,234,234)"/>
<polygon points="317.9,320.3 323.9,320.3 323.9,326.3 317.9,326.3" fill="rgb(255,200,200)"/>
<polygon points="323.9,320.3 329.9,320.3 329.9,326.3 323.9,326.3" fill="rgb(255,248,248)"/>
<polygon points="329.9,320.3 335.9,320.3 335.9,326.3 329.9,326.3" fill="rgb(255,218,218)"/>
<polygon points="335.9,320.3 341.9,320.3 341.9,326.3 335.9,326.3" fill="rgb(245,245,255)"/>
<polygon points="341.9,320.3 347.9,320.3 347.9,326.3 341.9,326.3" fill="rgb(143,143,255)"/>
<polygon points="347.9,320.3 353.9,320.3 353.9,326.3 347.9,326.3" fill="rgb(197,197,255)"/>
<polygon points="353.9,320.3 359.9,320.3 359.9,326.3 353.9,326.3" fill="rgb(216,216,255)"/>
<polygon points="161.9,326.3 169.9,326.3 169.9,332.3 161.9,332.3" fill="rgb(216,179,101)"/><text xml:space="preserve" x="165.9" y="332.133" font-family="Calibri" font-size="7.5" fill="rgb(0,0,0)" text-anchor="middle">14</text>
<polygon points="169.9,326.3 177.9,326.3 177.9,332.3 169.9,332.3" fill="rgb(245,245,245)"/><text xml:space="preserve" x="173.9" y="332.133" font-family="Calibri" font-size="7.5" fill="rgb(0,0,0)" text-anchor="middle">7</text>
<polygon points="177.9,326.3 185.9,326.3 185.9,332.3 177.9,332.3" fill="rgb(240,235,224)"/><text xml:space="preserve" x="181.9" y="332.133" font-family="Calibri" font-size="7.5" fill="rgb(0,0,0)" text-anchor="middle">8</text>
<polygon points="195.9,326.3 201.9,326.3 201.9,332.3 195.9,332.3" fill="rgb(227,227,255)"/>
<polygon points="201.9,326.3 207.9,326.3 207.9,332.3 201.9,332.3" fill="rgb(230,230,255)"/>
<polygon points="207.9,326.3 213.9,326.3 213.9,332.3 207.9,332.3" fill="rgb(255,244,244)"/>
<polygon points="213.9,326.3 219.9,326.3 219.9,332.3 213.9,332.3" fill="rgb(254,225,225)"/>
<polygon points="219.9,326.3 225.9,326.3 225.9,332.3 219.9,332.3" fill="rgb(255,233,233)"/>
<polygon points="225.9,326.3 231.9,326.3 231.9,332.3 225.9,332.3" fill="rgb(255,224,224)"/>
<polygon points="231.9,326.3 237.9,326.3 237.9,332.3 231.9,332.3" fill="rgb(255,231,231)"/>
<polygon points="237.9,326.3 243.9,326.3 243.9,332.3 237.9,332.3" fill="rgb(255,230,230)"/>
<polygon points="253.9,326.3 259.9,326.3 259.9,332.3 253.9,332.3" fill="rgb(254,208,208)"/>
<polygon points="259.9,326.3 265.9,326.3 265.9,332.3 259.9,332.3" fill="rgb(255,167,167)"/>
<polygon points="265.9,326.3 271.9,326.3 271.9,332.3 265.9,332.3" fill="rgb(255,243,243)"/>
<polygon points="271.9,326.3 277.9,326.3 277.9,332.3 271.9,332.3" fill="rgb(255,159,159)"/>
<polygon points="277.9,326.3 283.9,326.3 283.9,332.3 277.9,332.3" fill="rgb(255,207,207)"/>
<polygon points="283.9,326.3 289.9,326.3 289.9,332.3 283.9,332.3" fill="rgb(219,219,255)"/>
<polygon points="289.9,326.3 295.9,326.3 295.9,332.3 289.9,332.3" fill="rgb(192,192,255)"/>
<polygon points="295.9,326.3 301.9,326.3 301.9,332.3 295.9,332.3" fill="rgb(209,209,255)"/>
<polygon points="311.9,326.3 317.9,326.3 317.9,332.3 311.9,332.3" fill="rgb(225,225,255)"/>
<polygon points="317.9,326.3 323.9,326.3 323.9,332.3 317.9,332.3" fill="rgb(255,241,241)"/>
<polygon points="323.9,326.3 329.9,326.3 329.9,332.3 323.9,332.3" fill="rgb(187,187,255)"/>
<polygon points="329.9,326.3 335.9,326.3 335.9,332.3 329.9,332.3" fill="rgb(255,252,252)"/>
<polygon points="335.9,326.3 341.9,326.3 341.9,332.3 335.9,332.3" fill="rgb(240,240,255)"/>
<polygon points="341.9,326.3 347.9,326.3 347.9,332.3 341.9,332.3" fill="rgb(147,147,255)"/>
<polygon points="347.9,326.3 353.9,326.3 353.9,332.3 347.9,332.3" fill="rgb(179,179,255)"/>
<polygon points="353.9,326.3 359.9,326.3 359.9,332.3 353.9,332.3" fill="rgb(189,189,255)"/>
<polygon points="161.9,332.3 169.9,332.3 169.9,338.3 161.9,338.3" fill="rgb(216,179,101)"/><text xml:space="preserve" x="165.9" y="338.133" font-family="Calibri" font-size="7.5" fill="rgb(0,0,0)" text-anchor="middle">14</text>
<polygon points="169.9,332.3 177.9,332.3 177.9,338.3 169.9,338.3" fill="rgb(245,245,245)"/><text xml:space="preserve" x="173.9" y="338.133" font-family="Calibri" font-size="7.5" fill="rgb(0,0,0)" text-anchor="middle">7</text>
<polygon points="177.9,332.3 185.9,332.3 185.9,338.3 177.9,338.3" fill="rgb(240,235,224)"/><text xml:space="preserve" x="181.9" y="338.133" font-family="Calibri" font-size="7.5" fill="rgb(0,0,0)" text-anchor="middle">8</text>
<polygon points="195.9,332.3 201.9,332.3 201.9,338.3 195.9,338.3" fill="rgb(255,186,186)"/>
<polygon points="201.9,332.3 207.9,332.3 207.9,338.3 201.9,338.3" fill="rgb(255,254,254)"/>
<polygon points="207.9,332.3 213.9,332.3 213.9,338.3 207.9,338.3" fill="rgb(255,217,217)"/>
<polygon points="213.9,332.3 219.9,332.3 219.9,338.3 213.9,338.3" fill="rgb(255,239,239)"/>
<polygon points="219.9,332.3 225.9,332.3 225.9,338.3 219.9,338.3" fill="rgb(220,220,255)"/>
<polygon points="225.9,332.3 231.9,332.3 231.9,338.3 225.9,338.3" fill="rgb(255,226,226)"/>
<polygon points="231.9,332.3 237.9,332.3 237.9,338.3 231.9,338.3" fill="rgb(255,193,193)"/>
<polygon points="237.9,332.3 243.9,332.3 243.9,338.3 237.9,338.3" fill="rgb(255,185,185)"/>
<polygon points="253.9,332.3 259.9,332.3 259.9,338.3 253.9,338.3" fill="rgb(255,208,208)"/>
<polygon points="259.9,332.3 265.9,332.3 265.9,338.3 259.9,338.3" fill="rgb(254,235,235)"/>
<polygon points="265.9,332.3 271.9,332.3 271.9,338.3 265.9,338.3" fill="rgb(255,195,195)"/>
<polygon points="271.9,332.3 277.9,332.3 277.9,338.3 271.9,338.3" fill="rgb(255,177,177)"/>
<polygon points="277.9,332.3 283.9,332.3 283.9,338.3 277.9,338.3" fill="rgb(248,248,255)"/>
<polygon points="283.9,332.3 289.9,332.3 289.9,338.3 283.9,338.3" fill="rgb(246,246,255)"/>
<polygon points="289.9,332.3 295.9,332.3 295.9,338.3 289.9,338.3" fill="rgb(172,172,255)"/>
<polygon points="295.9,332.3 301.9,332.3 301.9,338.3 295.9,338.3" fill="rgb(237,237,255)"/>
<polygon points="311.9,332.3 317.9,332.3 317.9,338.3 311.9,338.3" fill="rgb(255,207,207)"/>
<polygon points="317.9,332.3 323.9,332.3 323.9,338.3 317.9,338.3" fill="rgb(254,238,238)"/>
<polygon points="323.9,332.3 329.9,332.3 329.9,338.3 323.9,338.3" fill="rgb(191,191,255)"/>
<polygon points="329.9,332.3 335.9,332.3 335.9,338.3 329.9,338.3" fill="rgb(255,207,207)"/>
<polygon points="335.9,332.3 341.9,332.3 341.9,338.3 335.9,338.3" fill="rgb(227,227,255)"/>
<polygon points="341.9,332.3 347.9,332.3 347.9,338.3 341.9,338.3" fill="rgb(164,164,255)"/>
<polygon points="347.9,332.3 353.9,332.3 353.9,338.3 347.9,338.3" fill="rgb(190,190,255)"/>
<polygon points="353.9,332.3 359.9,332.3 359.9,338.3 353.9,338.3" fill="rgb(207,207,255)"/>
<polygon points="161.9,338.3 169.9,338.3 169.9,344.3 161.9,344.3" fill="rgb(216,179,101)"/><text xml:space="preserve" x="165.9" y="344.133" font-family="Calibri" font-size="7.5" fill="rgb(0,0,0)" text-anchor="middle">14</text>
<polygon points="169.9,338.3 177.9,338.3 177.9,344.3 169.9,344.3" fill="rgb(245,245,245)"/><text xml:space="preserve" x="173.9" y="344.133" font-family="Calibri" font-size="7.5" fill="rgb(0,0,0)" text-anchor="middle">7</text>
<polygon points="177.9,338.3 185.9,338.3 185.9,344.3 177.9,344.3" fill="rgb(240,235,224)"/><text xml:space="preserve" x="181.9" y="344.133" font-family="Calibri" font-size="7.5" fill="rgb(0,0,0)" text-anchor="middle">8</text>
<polygon points="195.9,338.3 201.9,338.3 201.9,344.3 195.9,344.3" fill="rgb(255,231,231)"/>
<polygon points="201.9,338.3 207.9,338.3 207.9,344.3 201.9,344.3" fill="rgb(235,235,255)"/>
<polygon points="207.9,338.3 213.9,338.3 213.9,344.3 207.9,344.3" fill="rgb(255,246,246)"/>
<polygon points="213.9,338.3 219.9,338.3 219.9,344.3 213.9,344.3" fill="rgb(255,205,205)"/>
<polygon points="219.9,338.3 225.9,338.3 225.9,344.3 219.9,344.3" fill="rgb(213,213,255)"/>
<polygon points="225.9,338.3 231.9,338.3 231.9,344.3 225.9,344.3" fill="rgb(206,206,255)"/>
<polygon points="231.9,338.3 237.9,338.3 237.9,344.3 231.9,344.3" fill="rgb(235,235,255)"/>
<polygon points="237.9,338.3 243.9,338.3 243.9,344.3 237.9,344.3" fill="rgb(255,176,176)"/>
<polygon points="253.9,338.3 259.9,338.3 259.9,344.3 253.9,344.3" fill="rgb(255,205,205)"/>
<polygon points="259.9,338.3 265.9,338.3 265.9,344.3 259.9,344.3" fill="rgb(255,202,202)"/>
<polygon points="265.9,338.3 271.9,338.3 271.9,344.3 265.9,344.3" fill="rgb(255,180,180)"/>
<polygon points="271.9,338.3 277.9,338.3 277.9,344.3 271.9,344.3" fill="rgb(255,130,130)"/>
<polygon points="277.9,338.3 283.9,338.3 283.9,344.3 277.9,344.3" fill="rgb(249,249,255)"/>
<polygon points="283.9,338.3 289.9,338.3 289.9,344.3 283.9,344.3" fill="rgb(216,216,255)"/>
<polygon points="289.9,338.3 295.9,338.3 295.9,344.3 289.9,344.3" fill="rgb(121,121,255)"/>
<polygon points="295.9,338.3 301.9,338.3 301.9,344.3 295.9,344.3" fill="rgb(255,227,227)"/>
<polygon points="311.9,338.3 317.9,338.3 317.9,344.3 311.9,344.3" fill="rgb(244,244,255)"/>
<polygon points="317.9,338.3 323.9,338.3 323.9,344.3 317.9,344.3" fill="rgb(255,235,235)"/>
<polygon points="323.9,338.3 329.9,338.3 329.9,344.3 323.9,344.3" fill="rgb(255,232,232)"/>
<polygon points="329.9,338.3 335.9,338.3 335.9,344.3 329.9,344.3" fill="rgb(255,212,212)"/>
<polygon points="335.9,338.3 341.9,338.3 341.9,344.3 335.9,344.3" fill="rgb(199,199,255)"/>
<polygon points="341.9,338.3 347.9,338.3 347.9,344.3 341.9,344.3" fill="rgb(216,216,255)"/>
<polygon points="347.9,338.3 353.9,338.3 353.9,344.3 347.9,344.3" fill="rgb(154,154,255)"/>
<polygon points="353.9,338.3 359.9,338.3 359.9,344.3 353.9,344.3" fill="rgb(255,251,251)"/>
<polygon points="161.9,344.3 169.9,344.3 169.9,350.3 161.9,350.3" fill="rgb(216,179,101)"/><text xml:space="preserve" x="165.9" y="350.133" font-family="Calibri" font-size="7.5" fill="rgb(0,0,0)" text-anchor="middle">14</text>
<polygon points="169.9,344.3 177.9,344.3 177.9,350.3 169.9,350.3" fill="rgb(245,245,245)"/><text xml:space="preserve" x="173.9" y="350.133" font-family="Calibri" font-size="7.5" fill="rgb(0,0,0)" text-anchor="middle">7</text>
<polygon points="177.9,344.3 185.9,344.3 185.9,350.3 177.9,350.3" fill="rgb(240,235,224)"/><text xml:space="preserve" x="181.9" y="350.133" font-family="Calibri" font-size="7.5" fill="rgb(0,0,0)" text-anchor="middle">8</text>
<polygon points="195.9,344.3 201.9,344.3 201.9,350.3 195.9,350.3" fill="rgb(255,226,226)"/>
<polygon points="201.9,344.3 207.9,344.3 207.9,350.3 201.9,350.3" fill="rgb(255,190,190)"/>
<polygon points="207.9,344.3 213.9,344.3 213.9,350.3 207.9,350.3" fill="rgb(255,197,197)"/>
<polygon points="213.9,344.3 219.9,344.3 219.9,350.3 213.9,350.3" fill="rgb(254,228,228)"/>
<polygon points="219.9,344.3 225.9,344.3 225.9,350.3 219.9,350.3" fill="rgb(236,236,255)"/>
<polygon points="225.9,344.3 231.9,344.3 231.9,350.3 225.9,350.3" fill="rgb(181,181,255)"/>
<polygon points="231.9,344.3 237.9,344.3 237.9,350.3 231.9,350.3" fill="rgb(250,250,255)"/>
<polygon points="237.9,344.3 243.9,344.3 243.9,350.3 237.9,350.3" fill="rgb(255,170,170)"/>
<polygon points="253.9,344.3 259.9,344.3 259.9,350.3 253.9,350.3" fill="rgb(255,248,248)"/>
<polygon points="259.9,344.3 265.9,344.3 265.9,350.3 259.9,350.3" fill="rgb(255,186,186)"/>
<polygon points="265.9,344.3 271.9,344.3 271.9,350.3 265.9,350.3" fill="rgb(255,208,208)"/>
<polygon points="271.9,344.3 277.9,344.3 277.9,350.3 271.9,350.3" fill="rgb(255,214,214)"/>
<polygon points="277.9,344.3 283.9,344.3 283.9,350.3 277.9,350.3" fill="rgb(253,253,255)"/>
<polygon points="283.9,344.3 289.9,344.3 289.9,350.3 283.9,350.3" fill="rgb(154,154,255)"/>
<polygon points="289.9,344.3 295.9,344.3 295.9,350.3 289.9,350.3" fill="rgb(198,198,255)"/>
<polygon points="295.9,344.3 301.9,344.3 301.9,350.3 295.9,350.3" fill="rgb(255,233,233)"/>
<polygon points="311.9,344.3 317.9,344.3 317.9,350.3 311.9,350.3" fill="rgb(255,209,209)"/>
<polygon points="317.9,344.3 323.9,344.3 323.9,350.3 317.9,350.3" fill="rgb(255,195,195)"/>
<polygon points="323.9,344.3 329.9,344.3 329.9,350.3 323.9,350.3" fill="rgb(255,253,253)"/>
<polygon points="329.9,344.3 335.9,344.3 335.9,350.3 329.9,350.3" fill="rgb(225,225,255)"/>
<polygon points="335.9,344.3 341.9,344.3 341.9,350.3 335.9,350.3" fill="rgb(211,211,255)"/>
<polygon points="341.9,344.3 347.9,344.3 347.9,350.3 341.9,350.3" fill="rgb(153,153,255)"/>
<polygon points="347.9,344.3 353.9,344.3 353.9,350.3 347.9,350.3" fill="rgb(168,168,255)"/>
<polygon points="353.9,344.3 359.9,344.3 359.9,350.3 353.9,350.3" fill="rgb(255,189,189)"/>
<polygon points="161.9,212.3 185.9,212.3 185.9,350.3 161.9,350.3" fill="none" stroke="black" stroke-width="1"/>
<polygon points="195.9,212.3 243.9,212.3 243.9,350.3 195.9,350.3" fill="none" stroke="black" stroke-width="1"/>
<polygon points="253.9,212.3 301.9,212.3 301.9,350.3 253.9,350.3" fill="none" stroke="black" stroke-width="1"/>
<polygon points="311.9,212.3 359.9,212.3 359.9,350.3 311.9,350.3" fill="none" stroke="black" stroke-width="1"/>
<text xml:space="preserve" x="200.95" y="382.633" font-family="Calibri" font-size="6" text-anchor="middle">moduleID</text>
<polygon points="90.95,390.3 110.95,390.3 110.95,410.3 90.95,410.3" fill="rgb(250,250,250)"/><polygon points="90.95,390.3 110.95,390.3 110.95,410.3 90.95,410.3" fill="none" stroke="black" stroke-width="1"/><text xml:space="preserve" x="100.95" y="403.133" font-family="Calibri" font-size="7.5" fill="rgb(0,0,0)" text-anchor="middle">-2.0</text>
<polygon points="110.95,390.3 130.95,390.3 130.95,410.3 110.95,410.3" fill="rgb(156,210,205)"/><polygon points="110.95,390.3 130.95,390.3 130.95,410.3 110.95,410.3" fill="none" stroke="black" stroke-width="1"/><text xml:space="preserve" x="120.95" y="403.133" font-family="Calibri" font-size="7.5" fill="rgb(0,0,0)" text-anchor="middle">-0.4</text>
<polygon points="130.95,390.3 150.95,390.3 150.95,410.3 130.95,410.3" fill="rgb(116,191,184)"/><polygon points="130.95,390.3 150.95,390.3 150.95,410.3 130.95,410.3" fill="none" stroke="black" stroke-width="1"/><text xml:space="preserve" x="140.95" y="403.133" font-family="Calibri" font-size="7.5" fill="rgb(0,0,0)" text-anchor="middle">1.2</text>
<polygon points="150.95,390.3 170.95,390.3 170.95,410.3 150.95,410.3" fill="rgb(152,206,201)"/><polygon points="150.95,390.3 170.95,390.3 170.95,410.3 150.95,410.3" fill="none" stroke="black" stroke-width="1"/><text xml:space="preserve" x="160.95" y="403.133" font-family="Calibri" font-size="7.5" fill="rgb(0,0,0)" text-anchor="middle">2.8</text>
<polygon points="170.95,390.3 190.95,390.3 190.95,410.3 170.95,410.3" fill="rgb(187,220,217)"/><polygon points="170.95,390.3 190.95,390.3 190.95,410.3 170.95,410.3" fill="none" stroke="black" stroke-width="1"/><text xml:space="preserve" x="180.95" y="403.133" font-family="Calibri" font-size="7.5" fill="rgb(0,0,0)" text-anchor="middle">4.4</text>
<polygon points="190.95,390.3 210.95,390.3 210.95,410.3 190.95,410.3" fill="rgb(222,235,234)"/><polygon points="190.95,390.3 210.95,390.3 210.95,410.3 190.95,410.3" fill="none" stroke="black" stroke-width="1"/><text xml:space="preserve" x="200.95" y="403.133" font-family="Calibri" font-size="7.5" fill="rgb(0,0,0)" text-anchor="middle">6.0</text>
<polygon points="210.95,390.3 230.95,390.3 230.95,410.3 210.95,410.3" fill="rgb(242,239,232)"/><polygon points="210.95,390.3 230.95,390.3 230.95,410.3 210.95,410.3" fill="none" stroke="black" stroke-width="1"/><text xml:space="preserve" x="220.95" y="403.133" font-family="Calibri" font-size="7.5" fill="rgb(0,0,0)" text-anchor="middle">7.6</text>
<polygon points="230.95,390.3 250.95,390.3 250.95,410.3 230.95,410.3" fill="rgb(235,224,199)"/><polygon points="230.95,390.3 250.95,390.3 250.95,410.3 230.95,410.3" fill="none" stroke="black" stroke-width="1"/><text xml:space="preserve" x="240.95" y="403.133" font-family="Calibri" font-size="7.5" fill="rgb(0,0,0)" text-anchor="middle">9.2</text>
<polygon points="250.95,390.3 270.95,390.3 270.95,410.3 250.95,410.3" fill="rgb(229,209,166)"/><polygon points="250.95,390.3 270.95,390.3 270.95,410.3 250.95,410.3" fill="none" stroke="black" stroke-width="1"/><text xml:space="preserve" x="260.95" y="403.133" font-family="Calibri" font-size="7.5" fill="rgb(0,0,0)" text-anchor="middle">10.8</text>
<polygon points="270.95,390.3 290.95,390.3 290.95,410.3 270.95,410.3" fill="rgb(222,194,133)"/><polygon points="270.95,390.3 290.95,390.3 290.95,410.3 270.95,410.3" fill="none" stroke="black" stroke-width="1"/><text xml:space="preserve" x="280.95" y="403.133" font-family="Calibri" font-size="7.5" fill="rgb(0,0,0)" text-anchor="middle">12.4</text>
<polygon points="290.95,390.3 310.95,390.3 310.95,410.3 290.95,410.3" fill="rgb(216,179,101)"/><polygon points="290.95,390.3 310.95,390.3 310.95,410.3 290.95,410.3" fill="none" stroke="black" stroke-width="1"/><text xml:space="preserve" x="300.95" y="403.133" font-family="Calibri" font-size="7.5" fill="rgb(0,0,0)" text-anchor="middle">14.0</text>
<text xml:space="preserve" x="200.95" y="442.633" font-family="Calibri" font-size="6" text-anchor="middle">marklevel</text>
<polygon points="90.95,450.3 110.95,450.3 110.95,470.3 90.95,470.3" fill="rgb(0,0,255)"/><polygon points="90.95,450.3 110.95,450.3 110.95,470.3 90.95,470.3" fill="none" stroke="black" stroke-width="1"/><text xml:space="preserve" x="100.95" y="463.133" font-family="Calibri" font-size="7.5" fill="rgb(255,255,255)" text-anchor="middle">-2.0</text>
<polygon points="110.95,450.3 130.95,450.3 130.95,470.3 110.95,470.3" fill="rgb(50,50,255)"/><polygon points="110.95,450.3 130.95,450.3 130.95,470.3 110.95,470.3" fill="none" stroke="black" stroke-width="1"/><text xml:space="preserve" x="120.95" y="463.133" font-family="Calibri" font-size="7.5" fill="rgb(255,255,255)" text-anchor="middle">-1.6</text>
<polygon points="130.95,450.3 150.95,450.3 150.95,470.3 130.95,470.3" fill="rgb(102,102,255)"/><polygon points="130.95,450.3 150.95,450.3 150.95,470.3 130.95,470.3" fill="none" stroke="black" stroke-width="1"/><text xml:space="preserve" x="140.95" y="463.133" font-family="Calibri" font-size="7.5" fill="rgb(255,255,255)" text-anchor="middle">-1.2</text>
<polygon points="150.95,450.3 170.95,450.3 170.95,470.3 150.95,470.3" fill="rgb(153,153,255)"/><polygon points="150.95,450.3 170.95,450.3 170.95,470.3 150.95,470.3" fill="none" stroke="black" stroke-width="1"/><text xml:space="preserve" x="160.95" y="463.133" font-family="Calibri" font-size="7.5" fill="rgb(0,0,0)" text-anchor="middle">-0.8</text>
<polygon points="170.95,450.3 190.95,450.3 190.95,470.3 170.95,470.3" fill="rgb(204,204,255)"/><polygon points="170.95,450.3 190.95,450.3 190.95,470.3 170.95,470.3" fill="none" stroke="black" stroke-width="1"/><text xml:space="preserve" x="180.95" y="463.133" font-family="Calibri" font-size="7.5" fill="rgb(0,0,0)" text-anchor="middle">-0.4</text>
<polygon points="190.95,450.3 210.95,450.3 210.95,470.3 190.95,470.3" fill="rgb(255,255,255)"/><polygon points="190.95,450.3 210.95,450.3 210.95,470.3 190.95,470.3" fill="none" stroke="black" stroke-width="1"/><text xml:space="preserve" x="200.95" y="463.133" font-family="Calibri" font-size="7.5" fill="rgb(0,0,0)" text-anchor="middle">0.0</text>
<polygon points="210.95,450.3 230.95,450.3 230.95,470.3 210.95,470.3" fill="rgb(255,204,204)"/><polygon points="210.95,450.3 230.95,450.3 230.95,470.3 210.95,470.3" fill="none" stroke="black" stroke-width="1"/><text xml:space="preserve" x="220.95" y="463.133" font-family="Calibri" font-size="7.5" fill="rgb(0,0,0)" text-anchor="middle">0.4</text>
<polygon points="230.95,450.3 250.95,450.3 250.95,470.3 230.95,470.3" fill="rgb(255,153,153)"/><polygon points="230.95,450.3 250.95,450.3 250.95,470.3 230.95,470.3" fill="none" stroke="black" stroke-width="1"/><text xml:space="preserve" x="240.95" y="463.133" font-family="Calibri" font-size="7.5" fill="rgb(0,0,0)" text-anchor="middle">0.8</text>
<polygon points="250.95,450.3 270.95,450.3 270.95,470.3 250.95,470.3" fill="rgb(255,102,102)"/><polygon points="250.95,450.3 270.95,450.3 270.95,470.3 250.95,470.3" fill="none" stroke="black" stroke-width="1"/><text xml:space="preserve" x="260.95" y="463.133" font-family="Calibri" font-size="7.5" fill="rgb(0,0,0)" text-anchor="middle">1.2</text>
<polygon points="270.95,450.3 290.95,450.3 290.95,470.3 270.95,470.3" fill="rgb(255,50,50)"/><polygon points="270.95,450.3 290.95,450.3 290.95,470.3 270.95,470.3" fill="none" stroke="black" stroke-width="1"/><text xml:space="preserve" x="280.95" y="463.133" font-family="Calibri" font-size="7.5" fill="rgb(255,255,255)" text-anchor="middle">1.6</text>
<polygon points="290.95,450.3 310.95,450.3 310.95,470.3 290.95,470.3" fill="rgb(255,0,0)"/><polygon points="290.95,450.3 310.95,450.3 310.95,470.3 290.95,470.3" fill="none" stroke="black" stroke-width="1"/><text xml:space="preserve" x="300.95" y="463.133" font-family="Calibri" font-size="7.5" fill="rgb(255,255,255)" text-anchor="middle">2.0</text>
</svg>
