<?xml version="1.0" standalone="no"?><!DOCTYPE svg PUBLIC "-//W3C//DTD SVG 1.1//EN" "http://www.w3.org/Graphics/SVG/1.1/DTD/svg11.dtd">
<svg width="360.8" height="514.3" version="1.1" xmlns="http://www.w3.org/2000/svg">
<text xml:space="preserve" x="116.8" y="217.633" font-family="Calibri" font-size="6" text-anchor="end">AW548124</text>
<text xml:space="preserve" x="116.8" y="223.633" font-family="Calibri" font-size="6" text-anchor="end">Nexn</text>
<text xml:space="preserve" x="116.8" y="229.633" font-family="Calibri" font-size="6" text-anchor="end">Ltbp2</text>
<text xml:space="preserve" x="116.8" y="235.633" font-family="Calibri" font-size="6" text-anchor="end">Tpm1</text>
<text xml:space="preserve" x="116.8" y="241.633" font-family="Calibri" font-size="6" text-anchor="end">Zfp521</text>
<text xml:space="preserve" x="116.8" y="247.633" font-family="Calibri" font-size="6" text-anchor="end">Ebf1</text>
<text xml:space="preserve" x="116.8" y="253.633" font-family="Calibri" font-size="6" text-anchor="end">Bmp1</text>
<text xml:space="preserve" x="116.8" y="259.633" font-family="Calibri" font-size="6" text-anchor="end">Lrrc4c</text>
<text xml:space="preserve" x="116.8" y="265.633" font-family="Calibri" font-size="6" text-anchor="end">Rassf5</text>
<text xml:space="preserve" x="116.8" y="271.633" font-family="Calibri" font-size="6" text-anchor="end">Cuedc1</text>
<text xml:space="preserve" x="116.8" y="277.633" font-family="Calibri" font-size="6" text-anchor="end">Atxn1</text>
<text xml:space="preserve" x="116.8" y="283.633" font-family="Calibri" font-size="6" text-anchor="end">Ednra</text>
<text xml:space="preserve" x="116.8" y="289.633" font-family="Calibri" font-size="6" text-anchor="end">Irs1</text>
<text xml:space="preserve" x="116.8" y="295.633" font-family="Calibri" font-size="6" text-anchor="end">Ets1</text>
<text xml:space="preserve" x="116.8" y="301.633" font-family="Calibri" font-size="6" text-anchor="end">Fabp5</text>
<text xml:space="preserve" x="116.8" y="307.633" font-family="Calibri" font-size="6" text-anchor="end">Fmnl3</text>
<text xml:space="preserve" x="116.8" y="313.633" font-family="Calibri" font-size="6" text-anchor="end">Gas1</text>
<text xml:space="preserve" x="116.8" y="319.633" font-family="Calibri" font-size="6" text-anchor="end">St3gal1</text>
<text xml:space="preserve" x="116.8" y="325.633" font-family="Calibri" font-size="6" text-anchor="end">Arhgap29</text>
<text xml:space="preserve" x="116.8" y="331.633" font-family="Calibri" font-size="6" text-anchor="end">Sphk1</text>
<text xml:space="preserve" x="116.8" y="337.633" font-family="Calibri" font-size="6" text-anchor="end">Slit2</text>
<text xml:space="preserve" x="116.8" y="343.633" font-family="Calibri" font-size="6" text-anchor="end">Plekhh2</text>
<text xml:space="preserve" x="116.8" y="349.633" font-family="Calibri" font-size="6" text-anchor="end">Plau</text>
<text xml:space="preserve" x="116.8" y="355.633" font-family="Calibri" font-size="6" text-anchor="end">Plat</text>
<text xml:space="preserve" x="116.8" y="361.633" font-family="Calibri" font-size="6" text-anchor="end">Crim1</text>
<text xml:space="preserve" x="116.8" y="367.633" font-family="Calibri" font-size="6" text-anchor="end">Parp8</text>
<text xml:space="preserve" x="116.8" y="373.633" font-family="Calibri" font-size="6" text-anchor="end">Pag1</text>
<text xml:space="preserve" x="127.133" y="208.3" font-family="Calibri" font-size="6" transform="rotate(270 127.133 208.3)">ips</text>
<text xml:space="preserve" x="135.133" y="208.3" font-family="Calibri" font-size="6" transform="rotate(270 135.133 208.3)">pips</text>
<text xml:space="preserve" x="143.133" y="208.3" font-family="Calibri" font-size="6" transform="rotate(270 143.133 208.3)">mef</text>
<text xml:space="preserve" x="160.133" y="208.3" font-family="Calibri" font-size="6" transform="rotate(270 160.133 208.3)">ips_H3K4me3iPS</text>
<text xml:space="preserve" x="166.133" y="208.3" font-family="Calibri" font-size="6" transform="rotate(270 166.133 208.3)">ips_H3K9aciPS</text>
<text xml:space="preserve" x="172.133" y="208.3" font-family="Calibri" font-size="6" transform="rotate(270 172.133 208.3)">ips_H3K14aciPS</text>
<text xml:space="preserve" x="178.133" y="208.3" font-family="Calibri" font-size="6" transform="rotate(270 178.133 208.3)">ips_H3K18aciPS</text>
<text xml:space="preserve" x="184.133" y="208.3" font-family="Calibri" font-size="6" transform="rotate(270 184.133 208.3)">ips_H3K79me2iPS</text>
<text xml:space="preserve" x="190.133" y="208.3" font-family="Calibri" font-size="6" transform="rotate(270 190.133 208.3)">ips_H3K9me2iPS</text>
<text xml:space="preserve" x="196.133" y="208.3" font-family="Calibri" font-size="6" transform="rotate(270 196.133 208.3)">ips_H3K9me3iPS</text>
<text xml:space="preserve" x="202.133" y="208.3" font-family="Calibri" font-size="6" transform="rotate(270 202.133 208.3)">ips_H3K27me3iPS</text>
<text xml:space="preserve" x="218.133" y="208.3" font-family="Calibri" font-size="6" transform="rotate(270 218.133 208.3)">pips_H3K4me3pips</text>
<text xml:space="preserve" x="224.133" y="208.3" font-family="Calibri" font-size="6" transform="rotate(270 224.133 208.3)">pips_H3K9acpips</text>
<text xml:space="preserve" x="230.133" y="208.3" font-family="Calibri" font-size="6" transform="rotate(270 230.133 208.3)">pips_H3K14acpips</text>
<text xml:space="preserve" x="236.133" y="208.3" font-family="Calibri" font-size="6" transform="rotate(270 236.133 208.3)">pips_H3K18acpips</text>
<text xml:space="preserve" x="242.133" y="208.3" font-family="Calibri" font-size="6" transform="rotate(270 242.133 208.3)">pips_H3K79me2pips</text>
<text xml:space="preserve" x="248.133" y="208.3" font-family="Calibri" font-size="6" transform="rotate(270 248.133 208.3)">pips_H3K9me2pips</text>
<text xml:space="preserve" x="254.133" y="208.3" font-family="Calibri" font-size="6" transform="rotate(270 254.133 208.3)">pips_H3K9me3pips</text>
<text xml:space="preserve" x="260.133" y="208.3" font-family="Calibri" font-size="6" transform="rotate(270 260.133 208.3)">pips_H3K27me3pips</text>
<text xml:space="preserve" x="276.133" y="208.3" font-family="Calibri" font-size="6" transform="rotate(270 276.133 208.3)">mef_H3K4me3mef</text>
<text xml:space="preserve" x="282.133" y="208.3" font-family="Calibri" font-size="6" transform="rotate(270 282.133 208.3)">mef_H3K9acmef</text>
<text xml:space="preserve" x="288.133" y="208.3" font-family="Calibri" font-size="6" transform="rotate(270 288.133 208.3)">mef_H3K14acmef</text>
<text xml:space="preserve" x="294.133" y="208.3" font-family="Calibri" font-size="6" transform="rotate(270 294.133 208.3)">mef_H3K18acmef</text>
<text xml:space="preserve" x="300.133" y="208.3" font-family="Calibri" font-size="6" transform="rotate(270 300.133 208.3)">mef_H3K79me2mef</text>
<text xml:space="preserve" x="306.133" y="208.3" font-family="Calibri" font-size="6" transform="rotate(270 306.133 208.3)">mef_H3K9me2mef</text>
<text xml:space="preserve" x="312.133" y="208.3" font-family="Calibri" font-size="6" transform="rotate(270 312.133 208.3)">mef_H3K9me3mef</text>
<text xml:space="preserve" x="318.133" y="208.3" font-family="Calibri" font-size="6" transform="rotate(270 318.133 208.3)">mef_H3K27me3mef</text>
<polygon points="120.8,212.3 128.8,212.3 128.8,218.3 120.8,218.3" fill="rgb(228,207,162)"/><text xml:space="preserve" x="124.8" y="218.133" font-family="Calibri" font-size="7.5" fill="rgb(0,0,0)" text-anchor="middle">11</text>
<polygon points="128.8,212.3 136.8,212.3 136.8,218.3 128.8,218.3" fill="rgb(228,207,162)"/><text xml:space="preserve" x="132.8" y="218.133" font-family="Calibri" font-size="7.5" fill="rgb(0,0,0)" text-anchor="middle">11</text>
<polygon points="136.8,212.3 144.8,212.3 144.8,218.3 136.8,218.3" fill="rgb(245,245,245)"/><text xml:space="preserve" x="140.8" y="218.133" font-family="Calibri" font-size="7.5" fill="rgb(0,0,0)" text-anchor="middle">7</text>
<polygon points="154.8,212.3 160.8,212.3 160.8,218.3 154.8,218.3" fill="rgb(255,232,232)"/>
<polygon points="160.8,212.3 166.8,212.3 166.8,218.3 160.8,218.3" fill="rgb(209,209,255)"/>
<polygon points="166.8,212.3 172.8,212.3 172.8,218.3 166.8,218.3" fill="rgb(255,230,230)"/>
<polygon points="172.8,212.3 178.8,212.3 178.8,218.3 172.8,218.3" fill="rgb(255,226,226)"/>
<polygon points="178.8,212.3 184.8,212.3 184.8,218.3 178.8,218.3" fill="rgb(215,215,255)"/>
<polygon points="184.8,212.3 190.8,212.3 190.8,218.3 184.8,218.3" fill="rgb(255,218,218)"/>
<polygon points="190.8,212.3 196.8,212.3 196.8,218.3 190.8,218.3" fill="rgb(255,157,157)"/>
<polygon points="196.8,212.3 202.8,212.3 202.8,218.3 196.8,218.3" fill="rgb(255,48,48)"/>
<polygon points="212.8,212.3 218.8,212.3 218.8,218.3 212.8,218.3" fill="rgb(227,227,255)"/>
<polygon points="218.8,212.3 224.8,212.3 224.8,218.3 218.8,218.3" fill="rgb(248,248,255)"/>
<polygon points="224.8,212.3 230.8,212.3 230.8,218.3 224.8,218.3" fill="rgb(255,201,201)"/>
<polygon points="230.8,212.3 236.8,212.3 236.8,218.3 230.8,218.3" fill="rgb(233,233,255)"/>
<polygon points="236.8,212.3 242.8,212.3 242.8,218.3 236.8,218.3" fill="rgb(190,190,255)"/>
<polygon points="242.8,212.3 248.8,212.3 248.8,218.3 242.8,218.3" fill="rgb(222,222,255)"/>
<polygon points="248.8,212.3 254.8,212.3 254.8,218.3 248.8,218.3" fill="rgb(255,210,210)"/>
<polygon points="254.8,212.3 260.8,212.3 260.8,218.3 254.8,218.3" fill="rgb(255,112,112)"/>
<polygon points="270.8,212.3 276.8,212.3 276.8,218.3 270.8,218.3" fill="rgb(255,206,206)"/>
<polygon points="276.8,212.3 282.8,212.3 282.8,218.3 276.8,218.3" fill="rgb(255,195,195)"/>
<polygon points="282.8,212.3 288.8,212.3 288.8,218.3 282.8,218.3" fill="rgb(255,161,161)"/>
<polygon points="288.8,212.3 294.8,212.3 294.8,218.3 288.8,218.3" fill="rgb(255,111,111)"/>
<polygon points="294.8,212.3 300.8,212.3 300.8,218.3 294.8,218.3" fill="rgb(255,213,213)"/>
<polygon points="300.8,212.3 306.8,212.3 306.8,218.3 300.8,218.3" fill="rgb(185,185,255)"/>
<polygon points="306.8,212.3 312.8,212.3 312.8,218.3 306.8,218.3" fill="rgb(255,254,254)"/>
<polygon points="312.8,212.3 318.8,212.3 318.8,218.3 312.8,218.3" fill="rgb(255,216,216)"/>
<polygon points="120.8,218.3 128.8,218.3 128.8,224.3 120.8,224.3" fill="rgb(228,207,162)"/><text xml:space="preserve" x="124.8" y="224.133" font-family="Calibri" font-size="7.5" fill="rgb(0,0,0)" text-anchor="middle">11</text>
<polygon points="128.8,218.3 136.8,218.3 136.8,224.3 128.8,224.3" fill="rgb(228,207,162)"/><text xml:space="preserve" x="132.8" y="224.133" font-family="Calibri" font-size="7.5" fill="rgb(0,0,0)" text-anchor="middle">11</text>
<polygon points="136.8,218.3 144.8,218.3 144.8,224.3 136.8,224.3" fill="rgb(245,245,245)"/><text xml:space="preserve" x="140.8" y="224.133" font-family="Calibri" font-size="7.5" fill="rgb(0,0,0)" text-anchor="middle">7</text>
<polygon points="154.8,218.3 160.8,218.3 160.8,224.3 154.8,224.3" fill="rgb(255,224,224)"/>
<polygon points="160.8,218.3 166.8,218.3 166.8,224.3 160.8,224.3" fill="rgb(187,187,255)"/>
<polygon points="166.8,218.3 172.8,218.3 172.8,224.3 166.8,224.3" fill="rgb(201,201,255)"/>
<polygon points="172.8,218.3 178.8,218.3 178.8,224.3 172.8,224.3" fill="rgb(202,202,255)"/>
<polygon points="178.8,218.3 184.8,218.3 184.8,224.3 178.8,224.3" fill="rgb(208,208,255)"/>
<polygon points="184.8,218.3 190.8,218.3 190.8,224.3 184.8,224.3" fill="rgb(254,224,224)"/>
<polygon points="190.8,218.3 196.8,218.3 196.8,224.3 190.8,224.3" fill="rgb(255,0,0)"/>
<polygon points="196.8,218.3 202.8,218.3 202.8,224.3 196.8,224.3" fill="rgb(255,127,127)"/>
<polygon points="212.8,218.3 218.8,218.3 218.8,224.3 212.8,224.3" fill="rgb(191,191,255)"/>
<polygon points="218.8,218.3 224.8,218.3 224.8,224.3 218.8,224.3" fill="rgb(201,201,255)"/>
<polygon points="224.8,218.3 230.8,218.3 230.8,224.3 224.8,224.3" fill="rgb(218,218,255)"/>
<polygon points="230.8,218.3 236.8,218.3 236.8,224.3 230.8,224.3" fill="rgb(208,208,255)"/>
<polygon points="236.8,218.3 242.8,218.3 242.8,224.3 236.8,224.3" fill="rgb(181,181,255)"/>
<polygon points="242.8,218.3 248.8,218.3 248.8,224.3 242.8,224.3" fill="rgb(194,194,255)"/>
<polygon points="248.8,218.3 254.8,218.3 254.8,224.3 248.8,224.3" fill="rgb(255,126,126)"/>
<polygon points="254.8,218.3 260.8,218.3 260.8,224.3 254.8,224.3" fill="rgb(255,172,172)"/>
<polygon points="270.8,218.3 276.8,218.3 276.8,224.3 270.8,224.3" fill="rgb(255,189,189)"/>
<polygon points="276.8,218.3 282.8,218.3 282.8,224.3 276.8,224.3" fill="rgb(255,232,232)"/>
<polygon points="282.8,218.3 288.8,218.3 288.8,224.3 282.8,224.3" fill="rgb(255,206,206)"/>
<polygon points="288.8,218.3 294.8,218.3 294.8,224.3 288.8,224.3" fill="rgb(255,159,159)"/>
<polygon points="294.8,218.3 300.8,218.3 300.8,224.3 294.8,224.3" fill="rgb(255,243,243)"/>
<polygon points="300.8,218.3 306.8,218.3 306.8,224.3 300.8,224.3" fill="rgb(229,229,255)"/>
<polygon points="306.8,218.3 312.8,218.3 312.8,224.3 306.8,224.3" fill="rgb(255,245,245)"/>
<polygon points="312.8,218.3 318.8,218.3 318.8,224.3 312.8,224.3" fill="rgb(251,251,255)"/>
<polygon points="120.8,224.3 128.8,224.3 128.8,230.3 120.8,230.3" fill="rgb(228,207,162)"/><text xml:space="preserve" x="124.8" y="230.133" font-family="Calibri" font-size="7.5" fill="rgb(0,0,0)" text-anchor="middle">11</text>
<polygon points="128.8,224.3 136.8,224.3 136.8,230.3 128.8,230.3" fill="rgb(228,207,162)"/><text xml:space="preserve" x="132.8" y="230.133" font-family="Calibri" font-size="7.5" fill="rgb(0,0,0)" text-anchor="middle">11</text>
<polygon points="136.8,224.3 144.8,224.3 144.8,230.3 136.8,230.3" fill="rgb(245,245,245)"/><text xml:space="preserve" x="140.8" y="230.133" font-family="Calibri" font-size="7.5" fill="rgb(0,0,0)" text-anchor="middle">7</text>
<polygon points="154.8,224.3 160.8,224.3 160.8,230.3 154.8,230.3" fill="rgb(255,244,244)"/>
<polygon points="160.8,224.3 166.8,224.3 166.8,230.3 160.8,230.3" fill="rgb(210,210,255)"/>
<polygon points="166.8,224.3 172.8,224.3 172.8,230.3 166.8,230.3" fill="rgb(243,243,255)"/>
<polygon points="172.8,224.3 178.8,224.3 178.8,230.3 172.8,230.3" fill="rgb(239,239,255)"/>
<polygon points="178.8,224.3 184.8,224.3 184.8,230.3 178.8,230.3" fill="rgb(203,203,255)"/>
<polygon points="184.8,224.3 190.8,224.3 190.8,230.3 184.8,230.3" fill="rgb(254,207,207)"/>
<polygon points="190.8,224.3 196.8,224.3 196.8,230.3 190.8,230.3" fill="rgb(255,179,179)"/>
<polygon points="196.8,224.3 202.8,224.3 202.8,230.3 196.8,230.3" fill="rgb(255,119,119)"/>
<polygon points="212.8,224.3 218.8,224.3 218.8,230.3 212.8,230.3" fill="rgb(223,223,255)"/>
<polygon points="218.8,224.3 224.8,224.3 224.8,230.3 218.8,230.3" fill="rgb(223,223,255)"/>
<polygon points="224.8,224.3 230.8,224.3 230.8,230.3 224.8,230.3" fill="rgb(231,231,255)"/>
<polygon points="230.8,224.3 236.8,224.3 236.8,230.3 230.8,230.3" fill="rgb(211,211,255)"/>
<polygon points="236.8,224.3 242.8,224.3 242.8,230.3 236.8,230.3" fill="rgb(202,202,255)"/>
<polygon points="242.8,224.3 248.8,224.3 248.8,230.3 242.8,230.3" fill="rgb(239,239,255)"/>
<polygon points="248.8,224.3 254.8,224.3 254.8,230.3 248.8,230.3" fill="rgb(255,191,191)"/>
<polygon points="254.8,224.3 260.8,224.3 260.8,230.3 254.8,230.3" fill="rgb(255,84,84)"/>
<polygon points="270.8,224.3 276.8,224.3 276.8,230.3 270.8,230.3" fill="rgb(255,171,171)"/>
<polygon points="276.8,224.3 282.8,224.3 282.8,230.3 276.8,230.3" fill="rgb(255,236,236)"/>
<polygon points="282.8,224.3 288.8,224.3 288.8,230.3 282.8,230.3" fill="rgb(255,177,177)"/>
<polygon points="288.8,224.3 294.8,224.3 294.8,230.3 288.8,230.3" fill="rgb(255,129,129)"/>
<polygon points="294.8,224.3 300.8,224.3 300.8,230.3 294.8,230.3" fill="rgb(248,248,255)"/>
<polygon points="300.8,224.3 306.8,224.3 306.8,230.3 300.8,230.3" fill="rgb(255,252,252)"/>
<polygon points="306.8,224.3 312.8,224.3 312.8,230.3 306.8,230.3" fill="rgb(231,231,255)"/>
<polygon points="312.8,224.3 318.8,224.3 318.8,230.3 312.8,230.3" fill="rgb(255,253,253)"/>
<polygon points="120.8,230.3 128.8,230.3 128.8,236.3 120.8,236.3" fill="rgb(228,207,162)"/><text xml:space="preserve" x="124.8" y="236.133" font-family="Calibri" font-size="7.5" fill="rgb(0,0,0)" text-anchor="middle">11</text>
<polygon points="128.8,230.3 136.8,230.3 136.8,236.3 128.8,236.3" fill="rgb(228,207,162)"/><text xml:space="preserve" x="132.8" y="236.133" font-family="Calibri" font-size="7.5" fill="rgb(0,0,0)" text-anchor="middle">11</text>
<polygon points="136.8,230.3 144.8,230.3 144.8,236.3 136.8,236.3" fill="rgb(245,245,245)"/><text xml:space="preserve" x="140.8" y="236.133" font-family="Calibri" font-size="7.5" fill="rgb(0,0,0)" text-anchor="middle">7</text>
<polygon points="154.8,230.3 160.8,230.3 160.8,236.3 154.8,236.3" fill="rgb(254,248,248)"/>
<polygon points="160.8,230.3 166.8,230.3 166.8,236.3 160.8,236.3" fill="rgb(229,229,255)"/>
<polygon points="166.8,230.3 172.8,230.3 172.8,236.3 166.8,236.3" fill="rgb(255,232,232)"/>
<polygon points="172.8,230.3 178.8,230.3 178.8,236.3 172.8,236.3" fill="rgb(255,224,224)"/>
<polygon points="178.8,230.3 184.8,230.3 184.8,236.3 178.8,236.3" fill="rgb(176,176,255)"/>
<polygon points="184.8,230.3 190.8,230.3 190.8,236.3 184.8,236.3" fill="rgb(221,221,255)"/>
<polygon points="190.8,230.3 196.8,230.3 196.8,236.3 190.8,236.3" fill="rgb(255,155,155)"/>
<polygon points="196.8,230.3 202.8,230.3 202.8,236.3 196.8,236.3" fill="rgb(255,115,115)"/>
<polygon points="212.8,230.3 218.8,230.3 218.8,236.3 212.8,236.3" fill="rgb(235,235,255)"/>
<polygon points="218.8,230.3 224.8,230.3 224.8,236.3 218.8,236.3" fill="rgb(205,205,255)"/>
<polygon points="224.8,230.3 230.8,230.3 230.8,236.3 224.8,236.3" fill="rgb(255,246,246)"/>
<polygon points="230.8,230.3 236.8,230.3 236.8,236.3 230.8,236.3" fill="rgb(208,208,255)"/>
<polygon points="236.8,230.3 242.8,230.3 242.8,236.3 236.8,236.3" fill="rgb(174,174,255)"/>
<polygon points="242.8,230.3 248.8,230.3 248.8,236.3 242.8,236.3" fill="rgb(218,218,255)"/>
<polygon points="248.8,230.3 254.8,230.3 254.8,236.3 248.8,236.3" fill="rgb(255,192,192)"/>
<polygon points="254.8,230.3 260.8,230.3 260.8,236.3 254.8,236.3" fill="rgb(255,107,107)"/>
<polygon points="270.8,230.3 276.8,230.3 276.8,236.3 270.8,236.3" fill="rgb(255,190,190)"/>
<polygon points="276.8,230.3 282.8,230.3 282.8,236.3 276.8,236.3" fill="rgb(255,180,180)"/>
<polygon points="282.8,230.3 288.8,230.3 288.8,236.3 282.8,236.3" fill="rgb(255,178,178)"/>
<polygon points="288.8,230.3 294.8,230.3 294.8,236.3 288.8,236.3" fill="rgb(255,101,101)"/>
<polygon points="294.8,230.3 300.8,230.3 300.8,236.3 294.8,236.3" fill="rgb(255,216,216)"/>
<polygon points="300.8,230.3 306.8,230.3 306.8,236.3 300.8,236.3" fill="rgb(216,216,255)"/>
<polygon points="306.8,230.3 312.8,230.3 312.8,236.3 306.8,236.3" fill="rgb(251,251,255)"/>
<polygon points="312.8,230.3 318.8,230.3 318.8,236.3 312.8,236.3" fill="rgb(232,232,255)"/>
<polygon points="120.8,236.3 128.8,236.3 128.8,242.3 120.8,242.3" fill="rgb(228,207,162)"/><text xml:space="preserve" x="124.8" y="242.133" font-family="Calibri" font-size="7.5" fill="rgb(0,0,0)" text-anchor="middle">11</text>
<polygon points="128.8,236.3 136.8,236.3 136.8,242.3 128.8,242.3" fill="rgb(228,207,162)"/><text xml:space="preserve" x="132.8" y="242.133" font-family="Calibri" font-size="7.5" fill="rgb(0,0,0)" text-anchor="middle">11</text>
<polygon points="136.8,236.3 144.8,236.3 144.8,242.3 136.8,242.3" fill="rgb(245,245,245)"/><text xml:space="preserve" x="140.8" y="242.133" font-family="Calibri" font-size="7.5" fill="rgb(0,0,0)" text-anchor="middle">7</text>
<polygon points="154.8,236.3 160.8,236.3 160.8,242.3 154.8,242.3" fill="rgb(255,214,214)"/>
<polygon points="160.8,236.3 166.8,236.3 166.8,242.3 160.8,242.3" fill="rgb(214,214,255)"/>
<polygon points="166.8,236.3 172.8,236.3 172.8,242.3 166.8,242.3" fill="rgb(192,192,255)"/>
<polygon points="172.8,236.3 178.8,236.3 178.8,242.3 172.8,242.3" fill="rgb(246,246,255)"/>
<polygon points="178.8,236.3 184.8,236.3 184.8,242.3 178.8,242.3" fill="rgb(197,197,255)"/>
<polygon points="184.8,236.3 190.8,236.3 190.8,242.3 184.8,242.3" fill="rgb(253,253,255)"/>
<polygon points="190.8,236.3 196.8,236.3 196.8,242.3 190.8,242.3" fill="rgb(255,210,210)"/>
<polygon points="196.8,236.3 202.8,236.3 202.8,242.3 196.8,242.3" fill="rgb(255,102,102)"/>
<polygon points="212.8,236.3 218.8,236.3 218.8,242.3 212.8,242.3" fill="rgb(250,250,255)"/>
<polygon points="218.8,236.3 224.8,236.3 224.8,242.3 218.8,242.3" fill="rgb(214,214,255)"/>
<polygon points="224.8,236.3 230.8,236.3 230.8,242.3 224.8,242.3" fill="rgb(202,202,255)"/>
<polygon points="230.8,236.3 236.8,236.3 236.8,242.3 230.8,242.3" fill="rgb(204,204,255)"/>
<polygon points="236.8,236.3 242.8,236.3 242.8,242.3 236.8,242.3" fill="rgb(196,196,255)"/>
<polygon points="242.8,236.3 248.8,236.3 248.8,242.3 242.8,242.3" fill="rgb(245,245,255)"/>
<polygon points="248.8,236.3 254.8,236.3 254.8,242.3 248.8,242.3" fill="rgb(255,197,197)"/>
<polygon points="254.8,236.3 260.8,236.3 260.8,242.3 254.8,242.3" fill="rgb(255,106,106)"/>
<polygon points="270.8,236.3 276.8,236.3 276.8,242.3 270.8,242.3" fill="rgb(254,203,203)"/>
<polygon points="276.8,236.3 282.8,236.3 282.8,242.3 276.8,242.3" fill="rgb(255,201,201)"/>
<polygon points="282.8,236.3 288.8,236.3 288.8,242.3 282.8,242.3" fill="rgb(255,190,190)"/>
<polygon points="288.8,236.3 294.8,236.3 294.8,242.3 288.8,242.3" fill="rgb(255,111,111)"/>
<polygon points="294.8,236.3 300.8,236.3 300.8,242.3 294.8,242.3" fill="rgb(255,249,249)"/>
<polygon points="300.8,236.3 306.8,236.3 306.8,242.3 300.8,242.3" fill="rgb(230,230,255)"/>
<polygon points="306.8,236.3 312.8,236.3 312.8,242.3 306.8,242.3" fill="rgb(215,215,255)"/>
<polygon points="312.8,236.3 318.8,236.3 318.8,242.3 312.8,242.3" fill="rgb(255,201,201)"/>
<polygon points="120.8,242.3 128.8,242.3 128.8,248.3 120.8,248.3" fill="rgb(228,207,162)"/><text xml:space="preserve" x="124.8" y="248.133" font-family="Calibri" font-size="7.5" fill="rgb(0,0,0)" text-anchor="middle">11</text>
<polygon points="128.8,242.3 136.8,242.3 136.8,248.3 128.8,248.3" fill="rgb(228,207,162)"/><text xml:space="preserve" x="132.8" y="248.133" font-family="Calibri" font-size="7.5" fill="rgb(0,0,0)" text-anchor="middle">11</text>
<polygon points="136.8,242.3 144.8,242.3 144.8,248.3 136.8,248.3" fill="rgb(245,245,245)"/><text xml:space="preserve" x="140.8" y="248.133" font-family="Calibri" font-size="7.5" fill="rgb(0,0,0)" text-anchor="middle">7</text>
<polygon points="154.8,242.3 160.8,242.3 160.8,248.3 154.8,248.3" fill="rgb(255,176,176)"/>
<polygon points="160.8,242.3 166.8,242.3 166.8,248.3 160.8,248.3" fill="rgb(225,225,255)"/>
<polygon points="166.8,242.3 172.8,242.3 172.8,248.3 166.8,248.3" fill="rgb(255,225,225)"/>
<polygon points="172.8,242.3 178.8,242.3 178.8,248.3 172.8,248.3" fill="rgb(255,192,192)"/>
<polygon points="178.8,242.3 184.8,242.3 184.8,248.3 178.8,248.3" fill="rgb(215,215,255)"/>
<polygon points="184.8,242.3 190.8,242.3 190.8,248.3 184.8,248.3" fill="rgb(255,228,228)"/>
<polygon points="190.8,242.3 196.8,242.3 196.8,248.3 190.8,248.3" fill="rgb(255,153,153)"/>
<polygon points="196.8,242.3 202.8,242.3 202.8,248.3 196.8,248.3" fill="rgb(255,55,55)"/>
<polygon points="212.8,242.3 218.8,242.3 218.8,248.3 212.8,248.3" fill="rgb(254,251,251)"/>
<polygon points="218.8,242.3 224.8,242.3 224.8,248.3 218.8,248.3" fill="rgb(185,185,255)"/>
<polygon points="224.8,242.3 230.8,242.3 230.8,248.3 224.8,248.3" fill="rgb(224,224,255)"/>
<polygon points="230.8,242.3 236.8,242.3 236.8,248.3 230.8,248.3" fill="rgb(190,190,255)"/>
<polygon points="236.8,242.3 242.8,242.3 242.8,248.3 236.8,248.3" fill="rgb(176,176,255)"/>
<polygon points="242.8,242.3 248.8,242.3 248.8,248.3 242.8,248.3" fill="rgb(165,165,255)"/>
<polygon points="248.8,242.3 254.8,242.3 254.8,248.3 248.8,248.3" fill="rgb(245,245,255)"/>
<polygon points="254.8,242.3 260.8,242.3 260.8,248.3 254.8,248.3" fill="rgb(255,71,71)"/>
<polygon points="270.8,242.3 276.8,242.3 276.8,248.3 270.8,248.3" fill="rgb(255,158,158)"/>
<polygon points="276.8,242.3 282.8,242.3 282.8,248.3 276.8,248.3" fill="rgb(255,180,180)"/>
<polygon points="282.8,242.3 288.8,242.3 288.8,248.3 282.8,248.3" fill="rgb(255,239,239)"/>
<polygon points="288.8,242.3 294.8,242.3 294.8,248.3 288.8,248.3" fill="rgb(255,115,115)"/>
<polygon points="294.8,242.3 300.8,242.3 300.8,248.3 294.8,248.3" fill="rgb(254,249,249)"/>
<polygon points="300.8,242.3 306.8,242.3 306.8,248.3 300.8,248.3" fill="rgb(162,162,255)"/>
<polygon points="306.8,242.3 312.8,242.3 312.8,248.3 306.8,248.3" fill="rgb(235,235,255)"/>
<polygon points="312.8,242.3 318.8,242.3 318.8,248.3 312.8,248.3" fill="rgb(255,227,227)"/>
<polygon points="120.8,248.3 128.8,248.3 128.8,254.3 120.8,254.3" fill="rgb(228,207,162)"/><text xml:space="preserve" x="124.8" y="254.133" font-family="Calibri" font-size="7.5" fill="rgb(0,0,0)" text-anchor="middle">11</text>
<polygon points="128.8,248.3 136.8,248.3 136.8,254.3 128.8,254.3" fill="rgb(228,207,162)"/><text xml:space="preserve" x="132.8" y="254.133" font-family="Calibri" font-size="7.5" fill="rgb(0,0,0)" text-anchor="middle">11</text>
<polygon points="136.8,248.3 144.8,248.3 144.8,254.3 136.8,254.3" fill="rgb(245,245,245)"/><text xml:space="preserve" x="140.8" y="254.133" font-family="Calibri" font-size="7.5" fill="rgb(0,0,0)" text-anchor="middle">7</text>
<polygon points="154.8,248.3 160.8,248.3 160.8,254.3 154.8,254.3" fill="rgb(246,246,255)"/>
<polygon points="160.8,248.3 166.8,248.3 166.8,254.3 160.8,254.3" fill="rgb(211,211,255)"/>
<polygon points="166.8,248.3 172.8,248.3 172.8,254.3 166.8,254.3" fill="rgb(255,250,250)"/>
<polygon points="172.8,248.3 178.8,248.3 178.8,254.3 172.8,254.3" fill="rgb(222,222,255)"/>
<polygon points="178.8,248.3 184.8,248.3 184.8,254.3 178.8,254.3" fill="rgb(167,167,255)"/>
<polygon points="184.8,248.3 190.8,248.3 190.8,254.3 184.8,254.3" fill="rgb(236,236,255)"/>
<polygon points="190.8,248.3 196.8,248.3 196.8,254.3 190.8,254.3" fill="rgb(255,129,129)"/>
<polygon points="196.8,248.3 202.8,248.3 202.8,254.3 196.8,254.3" fill="rgb(255,43,43)"/>
<polygon points="212.8,248.3 218.8,248.3 218.8,254.3 212.8,254.3" fill="rgb(185,185,255)"/>
<polygon points="218.8,248.3 224.8,248.3 224.8,254.3 218.8,254.3" fill="rgb(216,216,255)"/>
<polygon points="224.8,248.3 230.8,248.3 230.8,254.3 224.8,254.3" fill="rgb(255,204,204)"/>
<polygon points="230.8,248.3 236.8,248.3 236.8,254.3 230.8,254.3" fill="rgb(240,240,255)"/>
<polygon points="236.8,248.3 242.8,248.3 242.8,254.3 236.8,254.3" fill="rgb(188,188,255)"/>
<polygon points="242.8,248.3 248.8,248.3 248.8,254.3 242.8,254.3" fill="rgb(200,200,255)"/>
<polygon points="248.8,248.3 254.8,248.3 254.8,254.3 248.8,254.3" fill="rgb(255,226,226)"/>
<polygon points="254.8,248.3 260.8,248.3 260.8,254.3 254.8,254.3" fill="rgb(255,205,205)"/>
<polygon points="270.8,248.3 276.8,248.3 276.8,254.3 270.8,254.3" fill="rgb(255,221,221)"/>
<polygon points="276.8,248.3 282.8,248.3 282.8,254.3 276.8,254.3" fill="rgb(255,199,199)"/>
<polygon points="282.8,248.3 288.8,248.3 288.8,254.3 282.8,254.3" fill="rgb(255,154,154)"/>
<polygon points="288.8,248.3 294.8,248.3 294.8,254.3 288.8,254.3" fill="rgb(255,193,193)"/>
<polygon points="294.8,248.3 300.8,248.3 300.8,254.3 294.8,254.3" fill="rgb(255,243,243)"/>
<polygon points="300.8,248.3 306.8,248.3 306.8,254.3 300.8,254.3" fill="rgb(216,216,255)"/>
<polygon points="306.8,248.3 312.8,248.3 312.8,254.3 306.8,254.3" fill="rgb(232,232,255)"/>
<polygon points="312.8,248.3 318.8,248.3 318.8,254.3 312.8,254.3" fill="rgb(255,221,221)"/>
<polygon points="120.8,254.3 128.8,254.3 128.8,260.3 120.8,260.3" fill="rgb(228,207,162)"/><text xml:space="preserve" x="124.8" y="260.133" font-family="Calibri" font-size="7.5" fill="rgb(0,0,0)" text-anchor="middle">11</text>
<polygon points="128.8,254.3 136.8,254.3 136.8,260.3 128.8,260.3" fill="rgb(228,207,162)"/><text xml:space="preserve" x="132.8" y="260.133" font-family="Calibri" font-size="7.5" fill="rgb(0,0,0)" text-anchor="middle">11</text>
<polygon points="136.8,254.3 144.8,254.3 144.8,260.3 136.8,260.3" fill="rgb(245,245,245)"/><text xml:space="preserve" x="140.8" y="260.133" font-family="Calibri" font-size="7.5" fill="rgb(0,0,0)" text-anchor="middle">7</text>
<polygon points="154.8,254.3 160.8,254.3 160.8,260.3 154.8,260.3" fill="rgb(251,251,255)"/>
<polygon points="160.8,254.3 166.8,254.3 166.8,260.3 160.8,260.3" fill="rgb(194,194,255)"/>
<polygon points="166.8,254.3 172.8,254.3 172.8,260.3 166.8,260.3" fill="rgb(171,171,255)"/>
<polygon points="172.8,254.3 178.8,254.3 178.8,260.3 172.8,260.3" fill="rgb(177,177,255)"/>
<polygon points="178.8,254.3 184.8,254.3 184.8,260.3 178.8,260.3" fill="rgb(239,239,255)"/>
<polygon points="184.8,254.3 190.8,254.3 190.8,260.3 184.8,260.3" fill="rgb(255,254,254)"/>
<polygon points="190.8,254.3 196.8,254.3 196.8,260.3 190.8,260.3" fill="rgb(255,190,190)"/>
<polygon points="196.8,254.3 202.8,254.3 202.8,260.3 196.8,260.3" fill="rgb(255,74,74)"/>
<polygon points="212.8,254.3 218.8,254.3 218.8,260.3 212.8,260.3" fill="rgb(255,247,247)"/>
<polygon points="218.8,254.3 224.8,254.3 224.8,260.3 218.8,260.3" fill="rgb(230,230,255)"/>
<polygon points="224.8,254.3 230.8,254.3 230.8,260.3 224.8,260.3" fill="rgb(194,194,255)"/>
<polygon points="230.8,254.3 236.8,254.3 236.8,260.3 230.8,260.3" fill="rgb(176,176,255)"/>
<polygon points="236.8,254.3 242.8,254.3 242.8,260.3 236.8,260.3" fill="rgb(214,214,255)"/>
<polygon points="242.8,254.3 248.8,254.3 248.8,260.3 242.8,260.3" fill="rgb(255,161,161)"/>
<polygon points="248.8,254.3 254.8,254.3 254.8,260.3 248.8,260.3" fill="rgb(255,249,249)"/>
<polygon points="254.8,254.3 260.8,254.3 260.8,260.3 254.8,260.3" fill="rgb(255,198,198)"/>
<polygon points="270.8,254.3 276.8,254.3 276.8,260.3 270.8,260.3" fill="rgb(255,207,207)"/>
<polygon points="276.8,254.3 282.8,254.3 282.8,260.3 276.8,260.3" fill="rgb(255,239,239)"/>
<polygon points="282.8,254.3 288.8,254.3 288.8,260.3 282.8,260.3" fill="rgb(255,168,168)"/>
<polygon points="288.8,254.3 294.8,254.3 294.8,260.3 288.8,260.3" fill="rgb(255,158,158)"/>
<polygon points="294.8,254.3 300.8,254.3 300.8,260.3 294.8,260.3" fill="rgb(255,217,217)"/>
<polygon points="300.8,254.3 306.8,254.3 306.8,260.3 300.8,260.3" fill="rgb(254,206,206)"/>
<polygon points="306.8,254.3 312.8,254.3 312.8,260.3 306.8,260.3" fill="rgb(255,242,242)"/>
<polygon points="312.8,254.3 318.8,254.3 318.8,260.3 312.8,260.3" fill="rgb(255,235,235)"/>
<polygon points="120.8,260.3 128.8,260.3 128.8,266.3 120.8,266.3" fill="rgb(228,207,162)"/><text xml:space="preserve" x="124.8" y="266.133" font-family="Calibri" font-size="7.5" fill="rgb(0,0,0)" text-anchor="middle">11</text>
<polygon points="128.8,260.3 136.8,260.3 136.8,266.3 128.8,266.3" fill="rgb(228,207,162)"/><text xml:space="preserve" x="132.8" y="266.133" font-family="Calibri" font-size="7.5" fill="rgb(0,0,0)" text-anchor="middle">11</text>
<polygon points="136.8,260.3 144.8,260.3 144.8,266.3 136.8,266.3" fill="rgb(245,245,245)"/><text xml:space="preserve" x="140.8" y="266.133" font-family="Calibri" font-size="7.5" fill="rgb(0,0,0)" text-anchor="middle">7</text>
<polygon points="154.8,260.3 160.8,260.3 160.8,266.3 154.8,266.3" fill="rgb(255,247,247)"/>
<polygon points="160.8,260.3 166.8,260.3 166.8,266.3 160.8,266.3" fill="rgb(174,174,255)"/>
<polygon points="166.8,260.3 172.8,260.3 172.8,266.3 166.8,266.3" fill="rgb(254,254,255)"/>
<polygon points="172.8,260.3 178.8,260.3 178.8,266.3 172.8,266.3" fill="rgb(232,232,255)"/>
<polygon points="178.8,260.3 184.8,260.3 184.8,266.3 178.8,266.3" fill="rgb(192,192,255)"/>
<polygon points="184.8,260.3 190.8,260.3 190.8,266.3 184.8,266.3" fill="rgb(184,184,255)"/>
<polygon points="190.8,260.3 196.8,260.3 196.8,266.3 190.8,266.3" fill="rgb(255,138,138)"/>
<polygon points="196.8,260.3 202.8,260.3 202.8,266.3 196.8,266.3" fill="rgb(255,48,48)"/>
<polygon points="212.8,260.3 218.8,260.3 218.8,266.3 212.8,266.3" fill="rgb(240,240,255)"/>
<polygon points="218.8,260.3 224.8,260.3 224.8,266.3 218.8,266.3" fill="rgb(247,247,255)"/>
<polygon points="224.8,260.3 230.8,260.3 230.8,266.3 224.8,266.3" fill="rgb(255,230,230)"/>
<polygon points="230.8,260.3 236.8,260.3 236.8,266.3 230.8,266.3" fill="rgb(255,227,227)"/>
<polygon points="236.8,260.3 242.8,260.3 242.8,266.3 236.8,266.3" fill="rgb(196,196,255)"/>
<polygon points="242.8,260.3 248.8,260.3 248.8,266.3 242.8,266.3" fill="rgb(153,153,255)"/>
<polygon points="248.8,260.3 254.8,260.3 254.8,266.3 248.8,266.3" fill="rgb(254,250,250)"/>
<polygon points="254.8,260.3 260.8,260.3 260.8,266.3 254.8,266.3" fill="rgb(255,124,124)"/>
<polygon points="270.8,260.3 276.8,260.3 276.8,266.3 270.8,266.3" fill="rgb(255,219,219)"/>
<polygon points="276.8,260.3 282.8,260.3 282.8,266.3 276.8,266.3" fill="rgb(254,204,204)"/>
<polygon points="282.8,260.3 288.8,260.3 288.8,266.3 282.8,266.3" fill="rgb(255,147,147)"/>
<polygon points="288.8,260.3 294.8,260.3 294.8,266.3 288.8,266.3" fill="rgb(254,168,168)"/>
<polygon points="294.8,260.3 300.8,260.3 300.8,266.3 294.8,266.3" fill="rgb(238,238,255)"/>
<polygon points="300.8,260.3 306.8,260.3 306.8,266.3 300.8,266.3" fill="rgb(168,168,255)"/>
<polygon points="306.8,260.3 312.8,260.3 312.8,266.3 306.8,266.3" fill="rgb(206,206,255)"/>
<polygon points="312.8,260.3 318.8,260.3 318.8,266.3 312.8,266.3" fill="rgb(250,250,255)"/>
<polygon points="120.8,266.3 128.8,266.3 128.8,272.3 120.8,272.3" fill="rgb(228,207,162)"/><text xml:space="preserve" x="124.8" y="272.133" font-family="Calibri" font-size="7.5" fill="rgb(0,0,0)" text-anchor="middle">11</text>
<polygon points="128.8,266.3 136.8,266.3 136.8,272.3 128.8,272.3" fill="rgb(228,207,162)"/><text xml:space="preserve" x="132.8" y="272.133" font-family="Calibri" font-size="7.5" fill="rgb(0,0,0)" text-anchor="middle">11</text>
<polygon points="136.8,266.3 144.8,266.3 144.8,272.3 136.8,272.3" fill="rgb(245,245,245)"/><text xml:space="preserve" x="140.8" y="272.133" font-family="Calibri" font-size="7.5" fill="rgb(0,0,0)" text-anchor="middle">7</text>
<polygon points="154.8,266.3 160.8,266.3 160.8,272.3 154.8,272.3" fill="rgb(255,239,239)"/>
<polygon points="160.8,266.3 166.8,266.3 166.8,272.3 160.8,272.3" fill="rgb(232,232,255)"/>
<polygon points="166.8,266.3 172.8,266.3 172.8,272.3 166.8,272.3" fill="rgb(254,222,222)"/>
<polygon points="172.8,266.3 178.8,266.3 178.8,272.3 172.8,272.3" fill="rgb(255,220,220)"/>
<polygon points="178.8,266.3 184.8,266.3 184.8,272.3 178.8,272.3" fill="rgb(196,196,255)"/>
<polygon points="184.8,266.3 190.8,266.3 190.8,272.3 184.8,272.3" fill="rgb(249,249,255)"/>
<polygon points="190.8,266.3 196.8,266.3 196.8,272.3 190.8,272.3" fill="rgb(255,144,144)"/>
<polygon points="196.8,266.3 202.8,266.3 202.8,272.3 196.8,272.3" fill="rgb(255,102,102)"/>
<polygon points="212.8,266.3 218.8,266.3 218.8,272.3 212.8,272.3" fill="rgb(238,238,255)"/>
<polygon points="218.8,266.3 224.8,266.3 224.8,272.3 218.8,272.3" fill="rgb(212,212,255)"/>
<polygon points="224.8,266.3 230.8,266.3 230.8,272.3 224.8,272.3" fill="rgb(255,254,254)"/>
<polygon points="230.8,266.3 236.8,266.3 236.8,272.3 230.8,272.3" fill="rgb(255,223,223)"/>
<polygon points="236.8,266.3 242.8,266.3 242.8,272.3 236.8,272.3" fill="rgb(214,214,255)"/>
<polygon points="242.8,266.3 248.8,266.3 248.8,272.3 242.8,272.3" fill="rgb(182,182,255)"/>
<polygon points="248.8,266.3 254.8,266.3 254.8,272.3 248.8,272.3" fill="rgb(215,215,255)"/>
<polygon points="254.8,266.3 260.8,266.3 260.8,272.3 254.8,272.3" fill="rgb(255,177,177)"/>
<polygon points="270.8,266.3 276.8,266.3 276.8,272.3 270.8,272.3" fill="rgb(255,231,231)"/>
<polygon points="276.8,266.3 282.8,266.3 282.8,272.3 276.8,272.3" fill="rgb(255,215,215)"/>
<polygon points="282.8,266.3 288.8,266.3 288.8,272.3 282.8,272.3" fill="rgb(255,193,193)"/>
<polygon points="288.8,266.3 294.8,266.3 294.8,272.3 288.8,272.3" fill="rgb(255,156,156)"/>
<polygon points="294.8,266.3 300.8,266.3 300.8,272.3 294.8,272.3" fill="rgb(255,233,233)"/>
<polygon points="300.8,266.3 306.8,266.3 306.8,272.3 300.8,272.3" fill="rgb(223,223,255)"/>
<polygon points="306.8,266.3 312.8,266.3 312.8,272.3 306.8,272.3" fill="rgb(203,203,255)"/>
<polygon points="312.8,266.3 318.8,266.3 318.8,272.3 312.8,272.3" fill="rgb(245,245,255)"/>
<polygon points="120.8,272.3 128.8,272.3 128.8,278.3 120.8,278.3" fill="rgb(228,207,162)"/><text xml:space="preserve" x="124.8" y="278.133" font-family="Calibri" font-size="7.5" fill="rgb(0,0,0)" text-anchor="middle">11</text>
<polygon points="128.8,272.3 136.8,272.3 136.8,278.3 128.8,278.3" fill="rgb(228,207,162)"/><text xml:space="preserve" x="132.8" y="278.133" font-family="Calibri" font-size="7.5" fill="rgb(0,0,0)" text-anchor="middle">11</text>
<polygon points="136.8,272.3 144.8,272.3 144.8,278.3 136.8,278.3" fill="rgb(245,245,245)"/><text xml:space="preserve" x="140.8" y="278.133" font-family="Calibri" font-size="7.5" fill="rgb(0,0,0)" text-anchor="middle">7</text>
<polygon points="154.8,272.3 160.8,272.3 160.8,278.3 154.8,278.3" fill="rgb(255,237,237)"/>
<polygon points="160.8,272.3 166.8,272.3 166.8,278.3 160.8,278.3" fill="rgb(208,208,255)"/>
<polygon points="166.8,272.3 172.8,272.3 172.8,278.3 166.8,278.3" fill="rgb(219,219,255)"/>
<polygon points="172.8,272.3 178.8,272.3 178.8,278.3 172.8,278.3" fill="rgb(255,253,253)"/>
<polygon points="178.8,272.3 184.8,272.3 184.8,278.3 178.8,278.3" fill="rgb(188,188,255)"/>
<polygon points="184.8,272.3 190.8,272.3 190.8,278.3 184.8,278.3" fill="rgb(227,227,255)"/>
<polygon points="190.8,272.3 196.8,272.3 196.8,278.3 190.8,278.3" fill="rgb(255,222,222)"/>
<polygon points="196.8,272.3 202.8,272.3 202.8,278.3 196.8,278.3" fill="rgb(255,144,144)"/>
<polygon points="212.8,272.3 218.8,272.3 218.8,278.3 212.8,278.3" fill="rgb(255,252,252)"/>
<polygon points="218.8,272.3 224.8,272.3 224.8,278.3 218.8,278.3" fill="rgb(219,219,255)"/>
<polygon points="224.8,272.3 230.8,272.3 230.8,278.3 224.8,278.3" fill="rgb(225,225,255)"/>
<polygon points="230.8,272.3 236.8,272.3 236.8,278.3 230.8,278.3" fill="rgb(200,200,255)"/>
<polygon points="236.8,272.3 242.8,272.3 242.8,278.3 236.8,278.3" fill="rgb(190,190,255)"/>
<polygon points="242.8,272.3 248.8,272.3 248.8,278.3 242.8,278.3" fill="rgb(227,227,255)"/>
<polygon points="248.8,272.3 254.8,272.3 254.8,278.3 248.8,278.3" fill="rgb(255,241,241)"/>
<polygon points="254.8,272.3 260.8,272.3 260.8,278.3 254.8,278.3" fill="rgb(255,181,181)"/>
<polygon points="270.8,272.3 276.8,272.3 276.8,278.3 270.8,278.3" fill="rgb(255,214,214)"/>
<polygon points="276.8,272.3 282.8,272.3 282.8,278.3 276.8,278.3" fill="rgb(255,207,207)"/>
<polygon points="282.8,272.3 288.8,272.3 288.8,278.3 282.8,278.3" fill="rgb(246,246,255)"/>
<polygon points="288.8,272.3 294.8,272.3 294.8,278.3 288.8,278.3" fill="rgb(255,189,189)"/>
<polygon points="294.8,272.3 300.8,272.3 300.8,278.3 294.8,278.3" fill="rgb(255,245,245)"/>
<polygon points="300.8,272.3 306.8,272.3 306.8,278.3 300.8,278.3" fill="rgb(113,113,255)"/>
<polygon points="306.8,272.3 312.8,272.3 312.8,278.3 306.8,278.3" fill="rgb(228,228,255)"/>
<polygon points="312.8,272.3 318.8,272.3 318.8,278.3 312.8,278.3" fill="rgb(196,196,255)"/>
<polygon points="120.8,278.3 128.8,278.3 128.8,284.3 120.8,284.3" fill="rgb(228,207,162)"/><text xml:space="preserve" x="124.8" y="284.133" font-family="Calibri" font-size="7.5" fill="rgb(0,0,0)" text-anchor="middle">11</text>
<polygon points="128.8,278.3 136.8,278.3 136.8,284.3 128.8,284.3" fill="rgb(228,207,162)"/><text xml:space="preserve" x="132.8" y="284.133" font-family="Calibri" font-size="7.5" fill="rgb(0,0,0)" text-anchor="middle">11</text>
<polygon points="136.8,278.3 144.8,278.3 144.8,284.3 136.8,284.3" fill="rgb(245,245,245)"/><text xml:space="preserve" x="140.8" y="284.133" font-family="Calibri" font-size="7.5" fill="rgb(0,0,0)" text-anchor="middle">7</text>
<polygon points="154.8,278.3 160.8,278.3 160.8,284.3 154.8,284.3" fill="rgb(231,231,255)"/>
<polygon points="160.8,278.3 166.8,278.3 166.8,284.3 160.8,284.3" fill="rgb(201,201,255)"/>
<polygon points="166.8,278.3 172.8,278.3 172.8,284.3 166.8,284.3" fill="rgb(255,247,247)"/>
<polygon points="172.8,278.3 178.8,278.3 178.8,284.3 172.8,284.3" fill="rgb(222,222,255)"/>
<polygon points="178.8,278.3 184.8,278.3 184.8,284.3 178.8,284.3" fill="rgb(210,210,255)"/>
<polygon points="184.8,278.3 190.8,278.3 190.8,284.3 184.8,284.3" fill="rgb(255,132,132)"/>
<polygon points="190.8,278.3 196.8,278.3 196.8,284.3 190.8,284.3" fill="rgb(255,222,222)"/>
<polygon points="196.8,278.3 202.8,278.3 202.8,284.3 196.8,284.3" fill="rgb(255,198,198)"/>
<polygon points="212.8,278.3 218.8,278.3 218.8,284.3 212.8,284.3" fill="rgb(207,207,255)"/>
<polygon points="218.8,278.3 224.8,278.3 224.8,284.3 218.8,284.3" fill="rgb(214,214,255)"/>
<polygon points="224.8,278.3 230.8,278.3 230.8,284.3 224.8,284.3" fill="rgb(246,246,255)"/>
<polygon points="230.8,278.3 236.8,278.3 236.8,284.3 230.8,284.3" fill="rgb(196,196,255)"/>
<polygon points="236.8,278.3 242.8,278.3 242.8,284.3 236.8,284.3" fill="rgb(191,191,255)"/>
<polygon points="242.8,278.3 248.8,278.3 248.8,284.3 242.8,284.3" fill="rgb(255,215,215)"/>
<polygon points="248.8,278.3 254.8,278.3 254.8,284.3 248.8,284.3" fill="rgb(255,194,194)"/>
<polygon points="254.8,278.3 260.8,278.3 260.8,284.3 254.8,284.3" fill="rgb(255,171,171)"/>
<polygon points="270.8,278.3 276.8,278.3 276.8,284.3 270.8,284.3" fill="rgb(255,244,244)"/>
<polygon points="276.8,278.3 282.8,278.3 282.8,284.3 276.8,284.3" fill="rgb(254,204,204)"/>
<polygon points="282.8,278.3 288.8,278.3 288.8,284.3 282.8,284.3" fill="rgb(255,131,131)"/>
<polygon points="288.8,278.3 294.8,278.3 294.8,284.3 288.8,284.3" fill="rgb(255,83,83)"/>
<polygon points="294.8,278.3 300.8,278.3 300.8,284.3 294.8,284.3" fill="rgb(250,250,255)"/>
<polygon points="300.8,278.3 306.8,278.3 306.8,284.3 300.8,284.3" fill="rgb(255,245,245)"/>
<polygon points="306.8,278.3 312.8,278.3 312.8,284.3 306.8,284.3" fill="rgb(241,241,255)"/>
<polygon points="312.8,278.3 318.8,278.3 318.8,284.3 312.8,284.3" fill="rgb(241,241,255)"/>
<polygon points="120.8,284.3 128.8,284.3 128.8,290.3 120.8,290.3" fill="rgb(228,207,162)"/><text xml:space="preserve" x="124.8" y="290.133" font-family="Calibri" font-size="7.5" fill="rgb(0,0,0)" text-anchor="middle">11</text>
<polygon points="128.8,284.3 136.8,284.3 136.8,290.3 128.8,290.3" fill="rgb(228,207,162)"/><text xml:space="preserve" x="132.8" y="290.133" font-family="Calibri" font-size="7.5" fill="rgb(0,0,0)" text-anchor="middle">11</text>
<polygon points="136.8,284.3 144.8,284.3 144.8,290.3 136.8,290.3" fill="rgb(245,245,245)"/><text xml:space="preserve" x="140.8" y="290.133" font-family="Calibri" font-size="7.5" fill="rgb(0,0,0)" text-anchor="middle">7</text>
<polygon points="154.8,284.3 160.8,284.3 160.8,290.3 154.8,290.3" fill="rgb(255,208,208)"/>
<polygon points="160.8,284.3 166.8,284.3 166.8,290.3 160.8,290.3" fill="rgb(232,232,255)"/>
<polygon points="166.8,284.3 172.8,284.3 172.8,290.3 166.8,290.3" fill="rgb(201,201,255)"/>
<polygon points="172.8,284.3 178.8,284.3 178.8,290.3 172.8,290.3" fill="rgb(246,246,255)"/>
<polygon points="178.8,284.3 184.8,284.3 184.8,290.3 178.8,290.3" fill="rgb(219,219,255)"/>
<polygon points="184.8,284.3 190.8,284.3 190.8,290.3 184.8,290.3" fill="rgb(182,182,255)"/>
<polygon points="190.8,284.3 196.8,284.3 196.8,290.3 190.8,290.3" fill="rgb(255,230,230)"/>
<polygon points="196.8,284.3 202.8,284.3 202.8,290.3 196.8,290.3" fill="rgb(255,90,90)"/>
<polygon points="212.8,284.3 218.8,284.3 218.8,290.3 212.8,290.3" fill="rgb(233,233,255)"/>
<polygon points="218.8,284.3 224.8,284.3 224.8,290.3 218.8,290.3" fill="rgb(233,233,255)"/>
<polygon points="224.8,284.3 230.8,284.3 230.8,290.3 224.8,290.3" fill="rgb(239,239,255)"/>
<polygon points="230.8,284.3 236.8,284.3 236.8,290.3 230.8,290.3" fill="rgb(236,236,255)"/>
<polygon points="236.8,284.3 242.8,284.3 242.8,290.3 236.8,290.3" fill="rgb(216,216,255)"/>
<polygon points="242.8,284.3 248.8,284.3 248.8,290.3 242.8,290.3" fill="rgb(183,183,255)"/>
<polygon points="248.8,284.3 254.8,284.3 254.8,290.3 248.8,290.3" fill="rgb(255,205,205)"/>
<polygon points="254.8,284.3 260.8,284.3 260.8,290.3 254.8,290.3" fill="rgb(255,191,191)"/>
<polygon points="270.8,284.3 276.8,284.3 276.8,290.3 270.8,290.3" fill="rgb(255,223,223)"/>
<polygon points="276.8,284.3 282.8,284.3 282.8,290.3 276.8,290.3" fill="rgb(254,197,197)"/>
<polygon points="282.8,284.3 288.8,284.3 288.8,290.3 282.8,290.3" fill="rgb(255,217,217)"/>
<polygon points="288.8,284.3 294.8,284.3 294.8,290.3 288.8,290.3" fill="rgb(255,100,100)"/>
<polygon points="294.8,284.3 300.8,284.3 300.8,290.3 294.8,290.3" fill="rgb(255,240,240)"/>
<polygon points="300.8,284.3 306.8,284.3 306.8,290.3 300.8,290.3" fill="rgb(161,161,255)"/>
<polygon points="306.8,284.3 312.8,284.3 312.8,290.3 306.8,290.3" fill="rgb(255,241,241)"/>
<polygon points="312.8,284.3 318.8,284.3 318.8,290.3 312.8,290.3" fill="rgb(255,207,207)"/>
<polygon points="120.8,290.3 128.8,290.3 128.8,296.3 120.8,296.3" fill="rgb(228,207,162)"/><text xml:space="preserve" x="124.8" y="296.133" font-family="Calibri" font-size="7.5" fill="rgb(0,0,0)" text-anchor="middle">11</text>
<polygon points="128.8,290.3 136.8,290.3 136.8,296.3 128.8,296.3" fill="rgb(228,207,162)"/><text xml:space="preserve" x="132.8" y="296.133" font-family="Calibri" font-size="7.5" fill="rgb(0,0,0)" text-anchor="middle">11</text>
<polygon points="136.8,290.3 144.8,290.3 144.8,296.3 136.8,296.3" fill="rgb(245,245,245)"/><text xml:space="preserve" x="140.8" y="296.133" font-family="Calibri" font-size="7.5" fill="rgb(0,0,0)" text-anchor="middle">7</text>
<polygon points="154.8,290.3 160.8,290.3 160.8,296.3 154.8,296.3" fill="rgb(255,227,227)"/>
<polygon points="160.8,290.3 166.8,290.3 166.8,296.3 160.8,296.3" fill="rgb(213,213,255)"/>
<polygon points="166.8,290.3 172.8,290.3 172.8,296.3 166.8,296.3" fill="rgb(211,211,255)"/>
<polygon points="172.8,290.3 178.8,290.3 178.8,296.3 172.8,296.3" fill="rgb(242,242,255)"/>
<polygon points="178.8,290.3 184.8,290.3 184.8,296.3 178.8,296.3" fill="rgb(202,202,255)"/>
<polygon points="184.8,290.3 190.8,290.3 190.8,296.3 184.8,296.3" fill="rgb(253,253,255)"/>
<polygon points="190.8,290.3 196.8,290.3 196.8,296.3 190.8,296.3" fill="rgb(255,121,121)"/>
<polygon points="196.8,290.3 202.8,290.3 202.8,296.3 196.8,296.3" fill="rgb(255,65,65)"/>
<polygon points="212.8,290.3 218.8,290.3 218.8,296.3 212.8,296.3" fill="rgb(255,238,238)"/>
<polygon points="218.8,290.3 224.8,290.3 224.8,296.3 218.8,296.3" fill="rgb(217,217,255)"/>
<polygon points="224.8,290.3 230.8,290.3 230.8,296.3 224.8,296.3" fill="rgb(225,225,255)"/>
<polygon points="230.8,290.3 236.8,290.3 236.8,296.3 230.8,296.3" fill="rgb(206,206,255)"/>
<polygon points="236.8,290.3 242.8,290.3 242.8,296.3 236.8,296.3" fill="rgb(196,196,255)"/>
<polygon points="242.8,290.3 248.8,290.3 248.8,296.3 242.8,296.3" fill="rgb(255,251,251)"/>
<polygon points="248.8,290.3 254.8,290.3 254.8,296.3 248.8,296.3" fill="rgb(255,229,229)"/>
<polygon points="254.8,290.3 260.8,290.3 260.8,296.3 254.8,296.3" fill="rgb(255,95,95)"/>
<polygon points="270.8,290.3 276.8,290.3 276.8,296.3 270.8,296.3" fill="rgb(255,191,191)"/>
<polygon points="276.8,290.3 282.8,290.3 282.8,296.3 276.8,296.3" fill="rgb(255,162,162)"/>
<polygon points="282.8,290.3 288.8,290.3 288.8,296.3 282.8,296.3" fill="rgb(255,160,160)"/>
<polygon points="288.8,290.3 294.8,290.3 294.8,296.3 288.8,296.3" fill="rgb(255,118,118)"/>
<polygon points="294.8,290.3 300.8,290.3 300.8,296.3 294.8,296.3" fill="rgb(255,217,217)"/>
<polygon points="300.8,290.3 306.8,290.3 306.8,296.3 300.8,296.3" fill="rgb(218,218,255)"/>
<polygon points="306.8,290.3 312.8,290.3 312.8,296.3 306.8,296.3" fill="rgb(209,209,255)"/>
<polygon points="312.8,290.3 318.8,290.3 318.8,296.3 312.8,296.3" fill="rgb(207,207,255)"/>
<polygon points="120.8,296.3 128.8,296.3 128.8,302.3 120.8,302.3" fill="rgb(228,207,162)"/><text xml:space="preserve" x="124.8" y="302.133" font-family="Calibri" font-size="7.5" fill="rgb(0,0,0)" text-anchor="middle">11</text>
<polygon points="128.8,296.3 136.8,296.3 136.8,302.3 128.8,302.3" fill="rgb(228,207,162)"/><text xml:space="preserve" x="132.8" y="302.133" font-family="Calibri" font-size="7.5" fill="rgb(0,0,0)" text-anchor="middle">11</text>
<polygon points="136.8,296.3 144.8,296.3 144.8,302.3 136.8,302.3" fill="rgb(245,245,245)"/><text xml:space="preserve" x="140.8" y="302.133" font-family="Calibri" font-size="7.5" fill="rgb(0,0,0)" text-anchor="middle">7</text>
<polygon points="154.8,296.3 160.8,296.3 160.8,302.3 154.8,302.3" fill="rgb(249,249,255)"/>
<polygon points="160.8,296.3 166.8,296.3 166.8,302.3 160.8,302.3" fill="rgb(223,223,255)"/>
<polygon points="166.8,296.3 172.8,296.3 172.8,302.3 166.8,302.3" fill="rgb(245,245,255)"/>
<polygon points="172.8,296.3 178.8,296.3 178.8,302.3 172.8,302.3" fill="rgb(239,239,255)"/>
<polygon points="178.8,296.3 184.8,296.3 184.8,302.3 178.8,302.3" fill="rgb(221,221,255)"/>
<polygon points="184.8,296.3 190.8,296.3 190.8,302.3 184.8,302.3" fill="rgb(215,215,255)"/>
<polygon points="190.8,296.3 196.8,296.3 196.8,302.3 190.8,302.3" fill="rgb(255,173,173)"/>
<polygon points="196.8,296.3 202.8,296.3 202.8,302.3 196.8,302.3" fill="rgb(255,153,153)"/>
<polygon points="212.8,296.3 218.8,296.3 218.8,302.3 212.8,302.3" fill="rgb(219,219,255)"/>
<polygon points="218.8,296.3 224.8,296.3 224.8,302.3 218.8,302.3" fill="rgb(230,230,255)"/>
<polygon points="224.8,296.3 230.8,296.3 230.8,302.3 224.8,302.3" fill="rgb(243,243,255)"/>
<polygon points="230.8,296.3 236.8,296.3 236.8,302.3 230.8,302.3" fill="rgb(215,215,255)"/>
<polygon points="236.8,296.3 242.8,296.3 242.8,302.3 236.8,302.3" fill="rgb(206,206,255)"/>
<polygon points="242.8,296.3 248.8,296.3 248.8,302.3 242.8,302.3" fill="rgb(182,182,255)"/>
<polygon points="248.8,296.3 254.8,296.3 254.8,302.3 248.8,302.3" fill="rgb(251,251,255)"/>
<polygon points="254.8,296.3 260.8,296.3 260.8,302.3 254.8,302.3" fill="rgb(255,214,214)"/>
<polygon points="270.8,296.3 276.8,296.3 276.8,302.3 270.8,302.3" fill="rgb(255,195,195)"/>
<polygon points="276.8,296.3 282.8,296.3 282.8,302.3 276.8,302.3" fill="rgb(255,220,220)"/>
<polygon points="282.8,296.3 288.8,296.3 288.8,302.3 282.8,302.3" fill="rgb(255,235,235)"/>
<polygon points="288.8,296.3 294.8,296.3 294.8,302.3 288.8,302.3" fill="rgb(255,202,202)"/>
<polygon points="294.8,296.3 300.8,296.3 300.8,302.3 294.8,302.3" fill="rgb(255,227,227)"/>
<polygon points="300.8,296.3 306.8,296.3 306.8,302.3 300.8,302.3" fill="rgb(195,195,255)"/>
<polygon points="306.8,296.3 312.8,296.3 312.8,302.3 306.8,302.3" fill="rgb(247,247,255)"/>
<polygon points="312.8,296.3 318.8,296.3 318.8,302.3 312.8,302.3" fill="rgb(245,245,255)"/>
<polygon points="120.8,302.3 128.8,302.3 128.8,308.3 120.8,308.3" fill="rgb(228,207,162)"/><text xml:space="preserve" x="124.8" y="308.133" font-family="Calibri" font-size="7.5" fill="rgb(0,0,0)" text-anchor="middle">11</text>
<polygon points="128.8,302.3 136.8,302.3 136.8,308.3 128.8,308.3" fill="rgb(228,207,162)"/><text xml:space="preserve" x="132.8" y="308.133" font-family="Calibri" font-size="7.5" fill="rgb(0,0,0)" text-anchor="middle">11</text>
<polygon points="136.8,302.3 144.8,302.3 144.8,308.3 136.8,308.3" fill="rgb(245,245,245)"/><text xml:space="preserve" x="140.8" y="308.133" font-family="Calibri" font-size="7.5" fill="rgb(0,0,0)" text-anchor="middle">7</text>
<polygon points="154.8,302.3 160.8,302.3 160.8,308.3 154.8,308.3" fill="rgb(243,243,255)"/>
<polygon points="160.8,302.3 166.8,302.3 166.8,308.3 160.8,308.3" fill="rgb(241,241,255)"/>
<polygon points="166.8,302.3 172.8,302.3 172.8,308.3 166.8,308.3" fill="rgb(255,248,248)"/>
<polygon points="172.8,302.3 178.8,302.3 178.8,308.3 172.8,308.3" fill="rgb(255,254,254)"/>
<polygon points="178.8,302.3 184.8,302.3 184.8,308.3 178.8,308.3" fill="rgb(222,222,255)"/>
<polygon points="184.8,302.3 190.8,302.3 190.8,308.3 184.8,308.3" fill="rgb(216,216,255)"/>
<polygon points="190.8,302.3 196.8,302.3 196.8,308.3 190.8,308.3" fill="rgb(255,240,240)"/>
<polygon points="196.8,302.3 202.8,302.3 202.8,308.3 196.8,308.3" fill="rgb(255,204,204)"/>
<polygon points="212.8,302.3 218.8,302.3 218.8,308.3 212.8,308.3" fill="rgb(220,220,255)"/>
<polygon points="218.8,302.3 224.8,302.3 224.8,308.3 218.8,308.3" fill="rgb(243,243,255)"/>
<polygon points="224.8,302.3 230.8,302.3 230.8,308.3 224.8,308.3" fill="rgb(255,235,235)"/>
<polygon points="230.8,302.3 236.8,302.3 236.8,308.3 230.8,308.3" fill="rgb(226,226,255)"/>
<polygon points="236.8,302.3 242.8,302.3 242.8,308.3 236.8,308.3" fill="rgb(197,197,255)"/>
<polygon points="242.8,302.3 248.8,302.3 248.8,308.3 242.8,308.3" fill="rgb(216,216,255)"/>
<polygon points="248.8,302.3 254.8,302.3 254.8,308.3 248.8,308.3" fill="rgb(255,225,225)"/>
<polygon points="254.8,302.3 260.8,302.3 260.8,308.3 254.8,308.3" fill="rgb(254,172,172)"/>
<polygon points="270.8,302.3 276.8,302.3 276.8,308.3 270.8,308.3" fill="rgb(255,245,245)"/>
<polygon points="276.8,302.3 282.8,302.3 282.8,308.3 276.8,308.3" fill="rgb(255,226,226)"/>
<polygon points="282.8,302.3 288.8,302.3 288.8,308.3 282.8,308.3" fill="rgb(255,205,205)"/>
<polygon points="288.8,302.3 294.8,302.3 294.8,308.3 288.8,308.3" fill="rgb(255,198,198)"/>
<polygon points="294.8,302.3 300.8,302.3 300.8,308.3 294.8,308.3" fill="rgb(255,226,226)"/>
<polygon points="300.8,302.3 306.8,302.3 306.8,308.3 300.8,308.3" fill="rgb(179,179,255)"/>
<polygon points="306.8,302.3 312.8,302.3 312.8,308.3 306.8,308.3" fill="rgb(210,210,255)"/>
<polygon points="312.8,302.3 318.8,302.3 318.8,308.3 312.8,308.3" fill="rgb(255,253,253)"/>
<polygon points="120.8,308.3 128.8,308.3 128.8,314.3 120.8,314.3" fill="rgb(228,207,162)"/><text xml:space="preserve" x="124.8" y="314.133" font-family="Calibri" font-size="7.5" fill="rgb(0,0,0)" text-anchor="middle">11</text>
<polygon points="128.8,308.3 136.8,308.3 136.8,314.3 128.8,314.3" fill="rgb(228,207,162)"/><text xml:space="preserve" x="132.8" y="314.133" font-family="Calibri" font-size="7.5" fill="rgb(0,0,0)" text-anchor="middle">11</text>
<polygon points="136.8,308.3 144.8,308.3 144.8,314.3 136.8,314.3" fill="rgb(245,245,245)"/><text xml:space="preserve" x="140.8" y="314.133" font-family="Calibri" font-size="7.5" fill="rgb(0,0,0)" text-anchor="middle">7</text>
<polygon points="154.8,308.3 160.8,308.3 160.8,314.3 154.8,314.3" fill="rgb(255,228,228)"/>
<polygon points="160.8,308.3 166.8,308.3 166.8,314.3 160.8,314.3" fill="rgb(235,235,255)"/>
<polygon points="166.8,308.3 172.8,308.3 172.8,314.3 166.8,314.3" fill="rgb(255,254,254)"/>
<polygon points="172.8,308.3 178.8,308.3 178.8,314.3 172.8,314.3" fill="rgb(255,244,244)"/>
<polygon points="178.8,308.3 184.8,308.3 184.8,314.3 178.8,314.3" fill="rgb(218,218,255)"/>
<polygon points="184.8,308.3 190.8,308.3 190.8,314.3 184.8,314.3" fill="rgb(255,174,174)"/>
<polygon points="190.8,308.3 196.8,308.3 196.8,314.3 190.8,314.3" fill="rgb(255,199,199)"/>
<polygon points="196.8,308.3 202.8,308.3 202.8,314.3 196.8,314.3" fill="rgb(255,221,221)"/>
<polygon points="212.8,308.3 218.8,308.3 218.8,314.3 212.8,314.3" fill="rgb(210,210,255)"/>
<polygon points="218.8,308.3 224.8,308.3 224.8,314.3 218.8,314.3" fill="rgb(211,211,255)"/>
<polygon points="224.8,308.3 230.8,308.3 230.8,314.3 224.8,314.3" fill="rgb(255,234,234)"/>
<polygon points="230.8,308.3 236.8,308.3 236.8,314.3 230.8,314.3" fill="rgb(194,194,255)"/>
<polygon points="236.8,308.3 242.8,308.3 242.8,314.3 236.8,314.3" fill="rgb(221,221,255)"/>
<polygon points="242.8,308.3 248.8,308.3 248.8,314.3 242.8,314.3" fill="rgb(255,214,214)"/>
<polygon points="248.8,308.3 254.8,308.3 254.8,314.3 248.8,314.3" fill="rgb(255,228,228)"/>
<polygon points="254.8,308.3 260.8,308.3 260.8,314.3 254.8,314.3" fill="rgb(255,232,232)"/>
<polygon points="270.8,308.3 276.8,308.3 276.8,314.3 270.8,314.3" fill="rgb(255,220,220)"/>
<polygon points="276.8,308.3 282.8,308.3 282.8,314.3 276.8,314.3" fill="rgb(255,200,200)"/>
<polygon points="282.8,308.3 288.8,308.3 288.8,314.3 282.8,314.3" fill="rgb(255,181,181)"/>
<polygon points="288.8,308.3 294.8,308.3 294.8,314.3 288.8,314.3" fill="rgb(255,127,127)"/>
<polygon points="294.8,308.3 300.8,308.3 300.8,314.3 294.8,314.3" fill="rgb(255,231,231)"/>
<polygon points="300.8,308.3 306.8,308.3 306.8,314.3 300.8,314.3" fill="rgb(223,223,255)"/>
<polygon points="306.8,308.3 312.8,308.3 312.8,314.3 306.8,314.3" fill="rgb(255,227,227)"/>
<polygon points="312.8,308.3 318.8,308.3 318.8,314.3 312.8,314.3" fill="rgb(255,236,236)"/>
<polygon points="120.8,314.3 128.8,314.3 128.8,320.3 120.8,320.3" fill="rgb(228,207,162)"/><text xml:space="preserve" x="124.8" y="320.133" font-family="Calibri" font-size="7.5" fill="rgb(0,0,0)" text-anchor="middle">11</text>
<polygon points="128.8,314.3 136.8,314.3 136.8,320.3 128.8,320.3" fill="rgb(228,207,162)"/><text xml:space="preserve" x="132.8" y="320.133" font-family="Calibri" font-size="7.5" fill="rgb(0,0,0)" text-anchor="middle">11</text>
<polygon points="136.8,314.3 144.8,314.3 144.8,320.3 136.8,320.3" fill="rgb(245,245,245)"/><text xml:space="preserve" x="140.8" y="320.133" font-family="Calibri" font-size="7.5" fill="rgb(0,0,0)" text-anchor="middle">7</text>
<polygon points="154.8,314.3 160.8,314.3 160.8,320.3 154.8,320.3" fill="rgb(255,207,207)"/>
<polygon points="160.8,314.3 166.8,314.3 166.8,320.3 160.8,320.3" fill="rgb(194,194,255)"/>
<polygon points="166.8,314.3 172.8,314.3 172.8,320.3 166.8,320.3" fill="rgb(189,189,255)"/>
<polygon points="172.8,314.3 178.8,314.3 178.8,320.3 172.8,320.3" fill="rgb(201,201,255)"/>
<polygon points="178.8,314.3 184.8,314.3 184.8,320.3 178.8,320.3" fill="rgb(195,195,255)"/>
<polygon points="184.8,314.3 190.8,314.3 190.8,320.3 184.8,320.3" fill="rgb(255,193,193)"/>
<polygon points="190.8,314.3 196.8,314.3 196.8,320.3 190.8,320.3" fill="rgb(255,135,135)"/>
<polygon points="196.8,314.3 202.8,314.3 202.8,320.3 196.8,320.3" fill="rgb(255,99,99)"/>
<polygon points="212.8,314.3 218.8,314.3 218.8,320.3 212.8,320.3" fill="rgb(255,226,226)"/>
<polygon points="218.8,314.3 224.8,314.3 224.8,320.3 218.8,320.3" fill="rgb(243,243,255)"/>
<polygon points="224.8,314.3 230.8,314.3 230.8,320.3 224.8,320.3" fill="rgb(182,182,255)"/>
<polygon points="230.8,314.3 236.8,314.3 236.8,320.3 230.8,320.3" fill="rgb(246,246,255)"/>
<polygon points="236.8,314.3 242.8,314.3 242.8,320.3 236.8,320.3" fill="rgb(191,191,255)"/>
<polygon points="242.8,314.3 248.8,314.3 248.8,320.3 242.8,320.3" fill="rgb(255,246,246)"/>
<polygon points="248.8,314.3 254.8,314.3 254.8,320.3 248.8,320.3" fill="rgb(255,213,213)"/>
<polygon points="254.8,314.3 260.8,314.3 260.8,320.3 254.8,320.3" fill="rgb(255,141,141)"/>
<polygon points="270.8,314.3 276.8,314.3 276.8,320.3 270.8,320.3" fill="rgb(255,181,181)"/>
<polygon points="276.8,314.3 282.8,314.3 282.8,320.3 276.8,320.3" fill="rgb(255,208,208)"/>
<polygon points="282.8,314.3 288.8,314.3 288.8,320.3 282.8,320.3" fill="rgb(255,227,227)"/>
<polygon points="288.8,314.3 294.8,314.3 294.8,320.3 288.8,320.3" fill="rgb(255,149,149)"/>
<polygon points="294.8,314.3 300.8,314.3 300.8,320.3 294.8,320.3" fill="rgb(255,231,231)"/>
<polygon points="300.8,314.3 306.8,314.3 306.8,320.3 300.8,320.3" fill="rgb(207,207,255)"/>
<polygon points="306.8,314.3 312.8,314.3 312.8,320.3 306.8,320.3" fill="rgb(184,184,255)"/>
<polygon points="312.8,314.3 318.8,314.3 318.8,320.3 312.8,320.3" fill="rgb(209,209,255)"/>
<polygon points="120.8,320.3 128.8,320.3 128.8,326.3 120.8,326.3" fill="rgb(228,207,162)"/><text xml:space="preserve" x="124.8" y="326.133" font-family="Calibri" font-size="7.5" fill="rgb(0,0,0)" text-anchor="middle">11</text>
<polygon points="128.8,320.3 136.8,320.3 136.8,326.3 128.8,326.3" fill="rgb(228,207,162)"/><text xml:space="preserve" x="132.8" y="326.133" font-family="Calibri" font-size="7.5" fill="rgb(0,0,0)" text-anchor="middle">11</text>
<polygon points="136.8,320.3 144.8,320.3 144.8,326.3 136.8,326.3" fill="rgb(245,245,245)"/><text xml:space="preserve" x="140.8" y="326.133" font-family="Calibri" font-size="7.5" fill="rgb(0,0,0)" text-anchor="middle">7</text>
<polygon points="154.8,320.3 160.8,320.3 160.8,326.3 154.8,326.3" fill="rgb(255,241,241)"/>
<polygon points="160.8,320.3 166.8,320.3 166.8,326.3 160.8,326.3" fill="rgb(233,233,255)"/>
<polygon points="166.8,320.3 172.8,320.3 172.8,326.3 166.8,326.3" fill="rgb(217,217,255)"/>
<polygon points="172.8,320.3 178.8,320.3 178.8,326.3 172.8,326.3" fill="rgb(181,181,255)"/>
<polygon points="178.8,320.3 184.8,320.3 184.8,326.3 178.8,326.3" fill="rgb(192,192,255)"/>
<polygon points="184.8,320.3 190.8,320.3 190.8,326.3 184.8,326.3" fill="rgb(167,167,255)"/>
<polygon points="190.8,320.3 196.8,320.3 196.8,326.3 190.8,326.3" fill="rgb(255,143,143)"/>
<polygon points="196.8,320.3 202.8,320.3 202.8,326.3 196.8,326.3" fill="rgb(255,80,80)"/>
<polygon points="212.8,320.3 218.8,320.3 218.8,326.3 212.8,326.3" fill="rgb(242,242,255)"/>
<polygon points="218.8,320.3 224.8,320.3 224.8,326.3 218.8,326.3" fill="rgb(229,229,255)"/>
<polygon points="224.8,320.3 230.8,320.3 230.8,326.3 224.8,326.3" fill="rgb(220,220,255)"/>
<polygon points="230.8,320.3 236.8,320.3 236.8,326.3 230.8,326.3" fill="rgb(221,221,255)"/>
<polygon points="236.8,320.3 242.8,320.3 242.8,326.3 236.8,326.3" fill="rgb(205,205,255)"/>
<polygon points="242.8,320.3 248.8,320.3 248.8,326.3 242.8,326.3" fill="rgb(230,230,255)"/>
<polygon points="248.8,320.3 254.8,320.3 254.8,326.3 248.8,326.3" fill="rgb(255,166,166)"/>
<polygon points="254.8,320.3 260.8,320.3 260.8,326.3 254.8,326.3" fill="rgb(255,172,172)"/>
<polygon points="270.8,320.3 276.8,320.3 276.8,326.3 270.8,326.3" fill="rgb(254,180,180)"/>
<polygon points="276.8,320.3 282.8,320.3 282.8,326.3 276.8,326.3" fill="rgb(254,219,219)"/>
<polygon points="282.8,320.3 288.8,320.3 288.8,326.3 282.8,326.3" fill="rgb(255,181,181)"/>
<polygon points="288.8,320.3 294.8,320.3 294.8,326.3 288.8,326.3" fill="rgb(255,151,151)"/>
<polygon points="294.8,320.3 300.8,320.3 300.8,326.3 294.8,326.3" fill="rgb(255,219,219)"/>
<polygon points="300.8,320.3 306.8,320.3 306.8,326.3 300.8,326.3" fill="rgb(255,213,213)"/>
<polygon points="306.8,320.3 312.8,320.3 312.8,326.3 306.8,326.3" fill="rgb(248,248,255)"/>
<polygon points="312.8,320.3 318.8,320.3 318.8,326.3 312.8,326.3" fill="rgb(249,249,255)"/>
<polygon points="120.8,326.3 128.8,326.3 128.8,332.3 120.8,332.3" fill="rgb(228,207,162)"/><text xml:space="preserve" x="124.8" y="332.133" font-family="Calibri" font-size="7.5" fill="rgb(0,0,0)" text-anchor="middle">11</text>
<polygon points="128.8,326.3 136.8,326.3 136.8,332.3 128.8,332.3" fill="rgb(228,207,162)"/><text xml:space="preserve" x="132.8" y="332.133" font-family="Calibri" font-size="7.5" fill="rgb(0,0,0)" text-anchor="middle">11</text>
<polygon points="136.8,326.3 144.8,326.3 144.8,332.3 136.8,332.3" fill="rgb(245,245,245)"/><text xml:space="preserve" x="140.8" y="332.133" font-family="Calibri" font-size="7.5" fill="rgb(0,0,0)" text-anchor="middle">7</text>
<polygon points="154.8,326.3 160.8,326.3 160.8,332.3 154.8,332.3" fill="rgb(233,233,255)"/>
<polygon points="160.8,326.3 166.8,326.3 166.8,332.3 160.8,332.3" fill="rgb(219,219,255)"/>
<polygon points="166.8,326.3 172.8,326.3 172.8,332.3 166.8,332.3" fill="rgb(255,215,215)"/>
<polygon points="172.8,326.3 178.8,326.3 178.8,332.3 172.8,332.3" fill="rgb(255,221,221)"/>
<polygon points="178.8,326.3 184.8,326.3 184.8,332.3 178.8,332.3" fill="rgb(211,211,255)"/>
<polygon points="184.8,326.3 190.8,326.3 190.8,332.3 184.8,332.3" fill="rgb(255,236,236)"/>
<polygon points="190.8,326.3 196.8,326.3 196.8,332.3 190.8,332.3" fill="rgb(255,180,180)"/>
<polygon points="196.8,326.3 202.8,326.3 202.8,332.3 196.8,332.3" fill="rgb(255,150,150)"/>
<polygon points="212.8,326.3 218.8,326.3 218.8,332.3 212.8,332.3" fill="rgb(224,224,255)"/>
<polygon points="218.8,326.3 224.8,326.3 224.8,332.3 218.8,332.3" fill="rgb(230,230,255)"/>
<polygon points="224.8,326.3 230.8,326.3 230.8,332.3 224.8,332.3" fill="rgb(255,240,240)"/>
<polygon points="230.8,326.3 236.8,326.3 236.8,332.3 230.8,332.3" fill="rgb(254,254,254)"/>
<polygon points="236.8,326.3 242.8,326.3 242.8,332.3 236.8,332.3" fill="rgb(202,202,255)"/>
<polygon points="242.8,326.3 248.8,326.3 248.8,332.3 242.8,332.3" fill="rgb(208,208,255)"/>
<polygon points="248.8,326.3 254.8,326.3 254.8,332.3 248.8,332.3" fill="rgb(242,242,255)"/>
<polygon points="254.8,326.3 260.8,326.3 260.8,332.3 254.8,332.3" fill="rgb(255,186,186)"/>
<polygon points="270.8,326.3 276.8,326.3 276.8,332.3 270.8,332.3" fill="rgb(248,248,255)"/>
<polygon points="276.8,326.3 282.8,326.3 282.8,332.3 276.8,332.3" fill="rgb(255,209,209)"/>
<polygon points="282.8,326.3 288.8,326.3 288.8,332.3 282.8,332.3" fill="rgb(255,220,220)"/>
<polygon points="288.8,326.3 294.8,326.3 294.8,332.3 288.8,332.3" fill="rgb(255,197,197)"/>
<polygon points="294.8,326.3 300.8,326.3 300.8,332.3 294.8,332.3" fill="rgb(255,242,242)"/>
<polygon points="300.8,326.3 306.8,326.3 306.8,332.3 300.8,332.3" fill="rgb(200,200,255)"/>
<polygon points="306.8,326.3 312.8,326.3 312.8,332.3 306.8,332.3" fill="rgb(212,212,255)"/>
<polygon points="312.8,326.3 318.8,326.3 318.8,332.3 312.8,332.3" fill="rgb(194,194,255)"/>
<polygon points="120.8,332.3 128.8,332.3 128.8,338.3 120.8,338.3" fill="rgb(228,207,162)"/><text xml:space="preserve" x="124.8" y="338.133" font-family="Calibri" font-size="7.5" fill="rgb(0,0,0)" text-anchor="middle">11</text>
<polygon points="128.8,332.3 136.8,332.3 136.8,338.3 128.8,338.3" fill="rgb(228,207,162)"/><text xml:space="preserve" x="132.8" y="338.133" font-family="Calibri" font-size="7.5" fill="rgb(0,0,0)" text-anchor="middle">11</text>
<polygon points="136.8,332.3 144.8,332.3 144.8,338.3 136.8,338.3" fill="rgb(245,245,245)"/><text xml:space="preserve" x="140.8" y="338.133" font-family="Calibri" font-size="7.5" fill="rgb(0,0,0)" text-anchor="middle">7</text>
<polygon points="154.8,332.3 160.8,332.3 160.8,338.3 154.8,338.3" fill="rgb(255,195,195)"/>
<polygon points="160.8,332.3 166.8,332.3 166.8,338.3 160.8,338.3" fill="rgb(198,198,255)"/>
<polygon points="166.8,332.3 172.8,332.3 172.8,338.3 166.8,338.3" fill="rgb(225,225,255)"/>
<polygon points="172.8,332.3 178.8,332.3 178.8,338.3 172.8,338.3" fill="rgb(255,234,234)"/>
<polygon points="178.8,332.3 184.8,332.3 184.8,338.3 178.8,338.3" fill="rgb(228,228,255)"/>
<polygon points="184.8,332.3 190.8,332.3 190.8,338.3 184.8,338.3" fill="rgb(237,237,255)"/>
<polygon points="190.8,332.3 196.8,332.3 196.8,338.3 190.8,338.3" fill="rgb(255,179,179)"/>
<polygon points="196.8,332.3 202.8,332.3 202.8,338.3 196.8,338.3" fill="rgb(255,159,159)"/>
<polygon points="212.8,332.3 218.8,332.3 218.8,338.3 212.8,338.3" fill="rgb(255,236,236)"/>
<polygon points="218.8,332.3 224.8,332.3 224.8,338.3 218.8,338.3" fill="rgb(239,239,255)"/>
<polygon points="224.8,332.3 230.8,332.3 230.8,338.3 224.8,338.3" fill="rgb(230,230,255)"/>
<polygon points="230.8,332.3 236.8,332.3 236.8,338.3 230.8,338.3" fill="rgb(238,238,255)"/>
<polygon points="236.8,332.3 242.8,332.3 242.8,338.3 236.8,338.3" fill="rgb(209,209,255)"/>
<polygon points="242.8,332.3 248.8,332.3 248.8,338.3 242.8,338.3" fill="rgb(199,199,255)"/>
<polygon points="248.8,332.3 254.8,332.3 254.8,338.3 248.8,338.3" fill="rgb(255,193,193)"/>
<polygon points="254.8,332.3 260.8,332.3 260.8,338.3 254.8,338.3" fill="rgb(255,175,175)"/>
<polygon points="270.8,332.3 276.8,332.3 276.8,338.3 270.8,338.3" fill="rgb(255,141,141)"/>
<polygon points="276.8,332.3 282.8,332.3 282.8,338.3 276.8,338.3" fill="rgb(255,225,225)"/>
<polygon points="282.8,332.3 288.8,332.3 288.8,338.3 282.8,338.3" fill="rgb(255,188,188)"/>
<polygon points="288.8,332.3 294.8,332.3 294.8,338.3 288.8,338.3" fill="rgb(255,113,113)"/>
<polygon points="294.8,332.3 300.8,332.3 300.8,338.3 294.8,338.3" fill="rgb(255,194,194)"/>
<polygon points="300.8,332.3 306.8,332.3 306.8,338.3 300.8,338.3" fill="rgb(175,175,255)"/>
<polygon points="306.8,332.3 312.8,332.3 312.8,338.3 306.8,338.3" fill="rgb(220,220,255)"/>
<polygon points="312.8,332.3 318.8,332.3 318.8,338.3 312.8,338.3" fill="rgb(219,219,255)"/>
<polygon points="120.8,338.3 128.8,338.3 128.8,344.3 120.8,344.3" fill="rgb(228,207,162)"/><text xml:space="preserve" x="124.8" y="344.133" font-family="Calibri" font-size="7.5" fill="rgb(0,0,0)" text-anchor="middle">11</text>
<polygon points="128.8,338.3 136.8,338.3 136.8,344.3 128.8,344.3" fill="rgb(228,207,162)"/><text xml:space="preserve" x="132.8" y="344.133" font-family="Calibri" font-size="7.5" fill="rgb(0,0,0)" text-anchor="middle">11</text>
<polygon points="136.8,338.3 144.8,338.3 144.8,344.3 136.8,344.3" fill="rgb(245,245,245)"/><text xml:space="preserve" x="140.8" y="344.133" font-family="Calibri" font-size="7.5" fill="rgb(0,0,0)" text-anchor="middle">7</text>
<polygon points="154.8,338.3 160.8,338.3 160.8,344.3 154.8,344.3" fill="rgb(255,230,230)"/>
<polygon points="160.8,338.3 166.8,338.3 166.8,344.3 160.8,344.3" fill="rgb(220,220,255)"/>
<polygon points="166.8,338.3 172.8,338.3 172.8,344.3 166.8,344.3" fill="rgb(255,241,241)"/>
<polygon points="172.8,338.3 178.8,338.3 178.8,344.3 172.8,344.3" fill="rgb(255,229,229)"/>
<polygon points="178.8,338.3 184.8,338.3 184.8,344.3 178.8,344.3" fill="rgb(214,214,255)"/>
<polygon points="184.8,338.3 190.8,338.3 190.8,344.3 184.8,344.3" fill="rgb(248,248,255)"/>
<polygon points="190.8,338.3 196.8,338.3 196.8,344.3 190.8,344.3" fill="rgb(255,183,183)"/>
<polygon points="196.8,338.3 202.8,338.3 202.8,344.3 196.8,344.3" fill="rgb(255,199,199)"/>
<polygon points="212.8,338.3 218.8,338.3 218.8,344.3 212.8,344.3" fill="rgb(233,233,255)"/>
<polygon points="218.8,338.3 224.8,338.3 224.8,344.3 218.8,344.3" fill="rgb(201,201,255)"/>
<polygon points="224.8,338.3 230.8,338.3 230.8,344.3 224.8,344.3" fill="rgb(254,229,229)"/>
<polygon points="230.8,338.3 236.8,338.3 236.8,344.3 230.8,344.3" fill="rgb(255,240,240)"/>
<polygon points="236.8,338.3 242.8,338.3 242.8,344.3 236.8,344.3" fill="rgb(195,195,255)"/>
<polygon points="242.8,338.3 248.8,338.3 248.8,344.3 242.8,344.3" fill="rgb(255,228,228)"/>
<polygon points="248.8,338.3 254.8,338.3 254.8,344.3 248.8,344.3" fill="rgb(255,210,210)"/>
<polygon points="254.8,338.3 260.8,338.3 260.8,344.3 254.8,344.3" fill="rgb(255,112,112)"/>
<polygon points="270.8,338.3 276.8,338.3 276.8,344.3 270.8,344.3" fill="rgb(255,233,233)"/>
<polygon points="276.8,338.3 282.8,338.3 282.8,344.3 276.8,344.3" fill="rgb(255,203,203)"/>
<polygon points="282.8,338.3 288.8,338.3 288.8,344.3 282.8,344.3" fill="rgb(255,121,121)"/>
<polygon points="288.8,338.3 294.8,338.3 294.8,344.3 288.8,344.3" fill="rgb(255,75,75)"/>
<polygon points="294.8,338.3 300.8,338.3 300.8,344.3 294.8,344.3" fill="rgb(249,249,255)"/>
<polygon points="300.8,338.3 306.8,338.3 306.8,344.3 300.8,344.3" fill="rgb(255,227,227)"/>
<polygon points="306.8,338.3 312.8,338.3 312.8,344.3 306.8,344.3" fill="rgb(230,230,255)"/>
<polygon points="312.8,338.3 318.8,338.3 318.8,344.3 312.8,344.3" fill="rgb(255,239,239)"/>
<polygon points="120.8,344.3 128.8,344.3 128.8,350.3 120.8,350.3" fill="rgb(228,207,162)"/><text xml:space="preserve" x="124.8" y="350.133" font-family="Calibri" font-size="7.5" fill="rgb(0,0,0)" text-anchor="middle">11</text>
<polygon points="128.8,344.3 136.8,344.3 136.8,350.3 128.8,350.3" fill="rgb(228,207,162)"/><text xml:space="preserve" x="132.8" y="350.133" font-family="Calibri" font-size="7.5" fill="rgb(0,0,0)" text-anchor="middle">11</text>
<polygon points="136.8,344.3 144.8,344.3 144.8,350.3 136.8,350.3" fill="rgb(245,245,245)"/><text xml:space="preserve" x="140.8" y="350.133" font-family="Calibri" font-size="7.5" fill="rgb(0,0,0)" text-anchor="middle">7</text>
<polygon points="154.8,344.3 160.8,344.3 160.8,350.3 154.8,350.3" fill="rgb(238,238,255)"/>
<polygon points="160.8,344.3 166.8,344.3 166.8,350.3 160.8,350.3" fill="rgb(210,210,255)"/>
<polygon points="166.8,344.3 172.8,344.3 172.8,350.3 166.8,350.3" fill="rgb(241,241,255)"/>
<polygon points="172.8,344.3 178.8,344.3 178.8,350.3 172.8,350.3" fill="rgb(211,211,255)"/>
<polygon points="178.8,344.3 184.8,344.3 184.8,350.3 178.8,350.3" fill="rgb(190,190,255)"/>
<polygon points="184.8,344.3 190.8,344.3 190.8,350.3 184.8,350.3" fill="rgb(246,246,255)"/>
<polygon points="190.8,344.3 196.8,344.3 196.8,350.3 190.8,350.3" fill="rgb(255,210,210)"/>
<polygon points="196.8,344.3 202.8,344.3 202.8,350.3 196.8,350.3" fill="rgb(255,124,124)"/>
<polygon points="212.8,344.3 218.8,344.3 218.8,350.3 212.8,350.3" fill="rgb(250,250,255)"/>
<polygon points="218.8,344.3 224.8,344.3 224.8,350.3 218.8,350.3" fill="rgb(219,219,255)"/>
<polygon points="224.8,344.3 230.8,344.3 230.8,350.3 224.8,350.3" fill="rgb(255,223,223)"/>
<polygon points="230.8,344.3 236.8,344.3 236.8,350.3 230.8,350.3" fill="rgb(255,223,223)"/>
<polygon points="236.8,344.3 242.8,344.3 242.8,350.3 236.8,350.3" fill="rgb(203,203,255)"/>
<polygon points="242.8,344.3 248.8,344.3 248.8,350.3 242.8,350.3" fill="rgb(254,254,255)"/>
<polygon points="248.8,344.3 254.8,344.3 254.8,350.3 248.8,350.3" fill="rgb(255,222,222)"/>
<polygon points="254.8,344.3 260.8,344.3 260.8,350.3 254.8,350.3" fill="rgb(254,179,179)"/>
<polygon points="270.8,344.3 276.8,344.3 276.8,350.3 270.8,350.3" fill="rgb(255,186,186)"/>
<polygon points="276.8,344.3 282.8,344.3 282.8,350.3 276.8,350.3" fill="rgb(255,200,200)"/>
<polygon points="282.8,344.3 288.8,344.3 288.8,350.3 282.8,350.3" fill="rgb(255,143,143)"/>
<polygon points="288.8,344.3 294.8,344.3 294.8,350.3 288.8,350.3" fill="rgb(255,122,122)"/>
<polygon points="294.8,344.3 300.8,344.3 300.8,350.3 294.8,350.3" fill="rgb(255,231,231)"/>
<polygon points="300.8,344.3 306.8,344.3 306.8,350.3 300.8,350.3" fill="rgb(245,245,255)"/>
<polygon points="306.8,344.3 312.8,344.3 312.8,350.3 306.8,350.3" fill="rgb(203,203,255)"/>
<polygon points="312.8,344.3 318.8,344.3 318.8,350.3 312.8,350.3" fill="rgb(183,183,255)"/>
<polygon points="120.8,350.3 128.8,350.3 128.8,356.3 120.8,356.3" fill="rgb(228,207,162)"/><text xml:space="preserve" x="124.8" y="356.133" font-family="Calibri" font-size="7.5" fill="rgb(0,0,0)" text-anchor="middle">11</text>
<polygon points="128.8,350.3 136.8,350.3 136.8,356.3 128.8,356.3" fill="rgb(228,207,162)"/><text xml:space="preserve" x="132.8" y="356.133" font-family="Calibri" font-size="7.5" fill="rgb(0,0,0)" text-anchor="middle">11</text>
<polygon points="136.8,350.3 144.8,350.3 144.8,356.3 136.8,356.3" fill="rgb(245,245,245)"/><text xml:space="preserve" x="140.8" y="356.133" font-family="Calibri" font-size="7.5" fill="rgb(0,0,0)" text-anchor="middle">7</text>
<polygon points="154.8,350.3 160.8,350.3 160.8,356.3 154.8,356.3" fill="rgb(218,218,255)"/>
<polygon points="160.8,350.3 166.8,350.3 166.8,356.3 160.8,356.3" fill="rgb(191,191,255)"/>
<polygon points="166.8,350.3 172.8,350.3 172.8,356.3 166.8,356.3" fill="rgb(255,234,234)"/>
<polygon points="172.8,350.3 178.8,350.3 178.8,356.3 172.8,356.3" fill="rgb(254,234,234)"/>
<polygon points="178.8,350.3 184.8,350.3 184.8,356.3 178.8,356.3" fill="rgb(188,188,255)"/>
<polygon points="184.8,350.3 190.8,350.3 190.8,356.3 184.8,356.3" fill="rgb(220,220,255)"/>
<polygon points="190.8,350.3 196.8,350.3 196.8,356.3 190.8,356.3" fill="rgb(255,236,236)"/>
<polygon points="196.8,350.3 202.8,350.3 202.8,356.3 196.8,356.3" fill="rgb(255,203,203)"/>
<polygon points="212.8,350.3 218.8,350.3 218.8,356.3 212.8,356.3" fill="rgb(216,216,255)"/>
<polygon points="218.8,350.3 224.8,350.3 224.8,356.3 218.8,356.3" fill="rgb(193,193,255)"/>
<polygon points="224.8,350.3 230.8,350.3 230.8,356.3 224.8,356.3" fill="rgb(255,237,237)"/>
<polygon points="230.8,350.3 236.8,350.3 236.8,356.3 230.8,356.3" fill="rgb(210,210,255)"/>
<polygon points="236.8,350.3 242.8,350.3 242.8,356.3 236.8,356.3" fill="rgb(192,192,255)"/>
<polygon points="242.8,350.3 248.8,350.3 248.8,356.3 242.8,356.3" fill="rgb(199,199,255)"/>
<polygon points="248.8,350.3 254.8,350.3 254.8,356.3 248.8,356.3" fill="rgb(255,162,162)"/>
<polygon points="254.8,350.3 260.8,350.3 260.8,356.3 254.8,356.3" fill="rgb(255,234,234)"/>
<polygon points="270.8,350.3 276.8,350.3 276.8,356.3 270.8,356.3" fill="rgb(255,187,187)"/>
<polygon points="276.8,350.3 282.8,350.3 282.8,356.3 276.8,356.3" fill="rgb(255,239,239)"/>
<polygon points="282.8,350.3 288.8,350.3 288.8,356.3 282.8,356.3" fill="rgb(255,150,150)"/>
<polygon points="288.8,350.3 294.8,350.3 294.8,356.3 288.8,356.3" fill="rgb(255,93,93)"/>
<polygon points="294.8,350.3 300.8,350.3 300.8,356.3 294.8,356.3" fill="rgb(241,241,255)"/>
<polygon points="300.8,350.3 306.8,350.3 306.8,356.3 300.8,356.3" fill="rgb(192,192,255)"/>
<polygon points="306.8,350.3 312.8,350.3 312.8,356.3 306.8,356.3" fill="rgb(238,238,255)"/>
<polygon points="312.8,350.3 318.8,350.3 318.8,356.3 312.8,356.3" fill="rgb(206,206,255)"/>
<polygon points="120.8,356.3 128.8,356.3 128.8,362.3 120.8,362.3" fill="rgb(228,207,162)"/><text xml:space="preserve" x="124.8" y="362.133" font-family="Calibri" font-size="7.5" fill="rgb(0,0,0)" text-anchor="middle">11</text>
<polygon points="128.8,356.3 136.8,356.3 136.8,362.3 128.8,362.3" fill="rgb(228,207,162)"/><text xml:space="preserve" x="132.8" y="362.133" font-family="Calibri" font-size="7.5" fill="rgb(0,0,0)" text-anchor="middle">11</text>
<polygon points="136.8,356.3 144.8,356.3 144.8,362.3 136.8,362.3" fill="rgb(245,245,245)"/><text xml:space="preserve" x="140.8" y="362.133" font-family="Calibri" font-size="7.5" fill="rgb(0,0,0)" text-anchor="middle">7</text>
<polygon points="154.8,356.3 160.8,356.3 160.8,362.3 154.8,362.3" fill="rgb(254,235,235)"/>
<polygon points="160.8,356.3 166.8,356.3 166.8,362.3 160.8,362.3" fill="rgb(235,235,255)"/>
<polygon points="166.8,356.3 172.8,356.3 172.8,362.3 166.8,362.3" fill="rgb(225,225,255)"/>
<polygon points="172.8,356.3 178.8,356.3 178.8,362.3 172.8,362.3" fill="rgb(232,232,255)"/>
<polygon points="178.8,356.3 184.8,356.3 184.8,362.3 178.8,362.3" fill="rgb(194,194,255)"/>
<polygon points="184.8,356.3 190.8,356.3 190.8,362.3 184.8,362.3" fill="rgb(255,249,249)"/>
<polygon points="190.8,356.3 196.8,356.3 196.8,362.3 190.8,362.3" fill="rgb(255,188,188)"/>
<polygon points="196.8,356.3 202.8,356.3 202.8,362.3 196.8,362.3" fill="rgb(255,138,138)"/>
<polygon points="212.8,356.3 218.8,356.3 218.8,362.3 212.8,362.3" fill="rgb(248,248,255)"/>
<polygon points="218.8,356.3 224.8,356.3 224.8,362.3 218.8,362.3" fill="rgb(229,229,255)"/>
<polygon points="224.8,356.3 230.8,356.3 230.8,362.3 224.8,362.3" fill="rgb(206,206,255)"/>
<polygon points="230.8,356.3 236.8,356.3 236.8,362.3 230.8,362.3" fill="rgb(242,242,255)"/>
<polygon points="236.8,356.3 242.8,356.3 242.8,362.3 236.8,362.3" fill="rgb(208,208,255)"/>
<polygon points="242.8,356.3 248.8,356.3 248.8,362.3 242.8,362.3" fill="rgb(190,190,255)"/>
<polygon points="248.8,356.3 254.8,356.3 254.8,362.3 248.8,362.3" fill="rgb(255,193,193)"/>
<polygon points="254.8,356.3 260.8,356.3 260.8,362.3 254.8,362.3" fill="rgb(255,177,177)"/>
<polygon points="270.8,356.3 276.8,356.3 276.8,362.3 270.8,362.3" fill="rgb(255,192,192)"/>
<polygon points="276.8,356.3 282.8,356.3 282.8,362.3 276.8,362.3" fill="rgb(254,238,238)"/>
<polygon points="282.8,356.3 288.8,356.3 288.8,362.3 282.8,362.3" fill="rgb(255,206,206)"/>
<polygon points="288.8,356.3 294.8,356.3 294.8,362.3 288.8,362.3" fill="rgb(255,164,164)"/>
<polygon points="294.8,356.3 300.8,356.3 300.8,362.3 294.8,362.3" fill="rgb(253,253,255)"/>
<polygon points="300.8,356.3 306.8,356.3 306.8,362.3 300.8,362.3" fill="rgb(219,219,255)"/>
<polygon points="306.8,356.3 312.8,356.3 312.8,362.3 306.8,362.3" fill="rgb(226,226,255)"/>
<polygon points="312.8,356.3 318.8,356.3 318.8,362.3 312.8,362.3" fill="rgb(203,203,255)"/>
<polygon points="120.8,362.3 128.8,362.3 128.8,368.3 120.8,368.3" fill="rgb(228,207,162)"/><text xml:space="preserve" x="124.8" y="368.133" font-family="Calibri" font-size="7.5" fill="rgb(0,0,0)" text-anchor="middle">11</text>
<polygon points="128.8,362.3 136.8,362.3 136.8,368.3 128.8,368.3" fill="rgb(228,207,162)"/><text xml:space="preserve" x="132.8" y="368.133" font-family="Calibri" font-size="7.5" fill="rgb(0,0,0)" text-anchor="middle">11</text>
<polygon points="136.8,362.3 144.8,362.3 144.8,368.3 136.8,368.3" fill="rgb(245,245,245)"/><text xml:space="preserve" x="140.8" y="368.133" font-family="Calibri" font-size="7.5" fill="rgb(0,0,0)" text-anchor="middle">7</text>
<polygon points="154.8,362.3 160.8,362.3 160.8,368.3 154.8,368.3" fill="rgb(255,231,231)"/>
<polygon points="160.8,362.3 166.8,362.3 166.8,368.3 160.8,368.3" fill="rgb(201,201,255)"/>
<polygon points="166.8,362.3 172.8,362.3 172.8,368.3 166.8,368.3" fill="rgb(182,182,255)"/>
<polygon points="172.8,362.3 178.8,362.3 178.8,368.3 172.8,368.3" fill="rgb(175,175,255)"/>
<polygon points="178.8,362.3 184.8,362.3 184.8,368.3 178.8,368.3" fill="rgb(208,208,255)"/>
<polygon points="184.8,362.3 190.8,362.3 190.8,368.3 184.8,368.3" fill="rgb(255,228,228)"/>
<polygon points="190.8,362.3 196.8,362.3 196.8,368.3 190.8,368.3" fill="rgb(255,133,133)"/>
<polygon points="196.8,362.3 202.8,362.3 202.8,368.3 196.8,368.3" fill="rgb(255,97,97)"/>
<polygon points="212.8,362.3 218.8,362.3 218.8,368.3 212.8,368.3" fill="rgb(230,230,255)"/>
<polygon points="218.8,362.3 224.8,362.3 224.8,368.3 218.8,368.3" fill="rgb(186,186,255)"/>
<polygon points="224.8,362.3 230.8,362.3 230.8,368.3 224.8,368.3" fill="rgb(197,197,255)"/>
<polygon points="230.8,362.3 236.8,362.3 236.8,368.3 230.8,368.3" fill="rgb(181,181,255)"/>
<polygon points="236.8,362.3 242.8,362.3 242.8,368.3 236.8,368.3" fill="rgb(193,193,255)"/>
<polygon points="242.8,362.3 248.8,362.3 248.8,368.3 242.8,368.3" fill="rgb(233,233,255)"/>
<polygon points="248.8,362.3 254.8,362.3 254.8,368.3 248.8,368.3" fill="rgb(255,219,219)"/>
<polygon points="254.8,362.3 260.8,362.3 260.8,368.3 254.8,368.3" fill="rgb(255,171,171)"/>
<polygon points="270.8,362.3 276.8,362.3 276.8,368.3 270.8,368.3" fill="rgb(255,202,202)"/>
<polygon points="276.8,362.3 282.8,362.3 282.8,368.3 276.8,368.3" fill="rgb(255,215,215)"/>
<polygon points="282.8,362.3 288.8,362.3 288.8,368.3 282.8,368.3" fill="rgb(255,189,189)"/>
<polygon points="288.8,362.3 294.8,362.3 294.8,368.3 288.8,368.3" fill="rgb(255,113,113)"/>
<polygon points="294.8,362.3 300.8,362.3 300.8,368.3 294.8,368.3" fill="rgb(255,225,225)"/>
<polygon points="300.8,362.3 306.8,362.3 306.8,368.3 300.8,368.3" fill="rgb(225,225,255)"/>
<polygon points="306.8,362.3 312.8,362.3 312.8,368.3 306.8,368.3" fill="rgb(221,221,255)"/>
<polygon points="312.8,362.3 318.8,362.3 318.8,368.3 312.8,368.3" fill="rgb(230,230,255)"/>
<polygon points="120.8,368.3 128.8,368.3 128.8,374.3 120.8,374.3" fill="rgb(228,207,162)"/><text xml:space="preserve" x="124.8" y="374.133" font-family="Calibri" font-size="7.5" fill="rgb(0,0,0)" text-anchor="middle">11</text>
<polygon points="128.8,368.3 136.8,368.3 136.8,374.3 128.8,374.3" fill="rgb(228,207,162)"/><text xml:space="preserve" x="132.8" y="374.133" font-family="Calibri" font-size="7.5" fill="rgb(0,0,0)" text-anchor="middle">11</text>
<polygon points="136.8,368.3 144.8,368.3 144.8,374.3 136.8,374.3" fill="rgb(245,245,245)"/><text xml:space="preserve" x="140.8" y="374.133" font-family="Calibri" font-size="7.5" fill="rgb(0,0,0)" text-anchor="middle">7</text>
<polygon points="154.8,368.3 160.8,368.3 160.8,374.3 154.8,374.3" fill="rgb(255,229,229)"/>
<polygon points="160.8,368.3 166.8,368.3 166.8,374.3 160.8,374.3" fill="rgb(217,217,255)"/>
<polygon points="166.8,368.3 172.8,368.3 172.8,374.3 166.8,374.3" fill="rgb(212,212,255)"/>
<polygon points="172.8,368.3 178.8,368.3 178.8,374.3 172.8,374.3" fill="rgb(198,198,255)"/>
<polygon points="178.8,368.3 184.8,368.3 184.8,374.3 178.8,374.3" fill="rgb(182,182,255)"/>
<polygon points="184.8,368.3 190.8,368.3 190.8,374.3 184.8,374.3" fill="rgb(255,246,246)"/>
<polygon points="190.8,368.3 196.8,368.3 196.8,374.3 190.8,374.3" fill="rgb(255,121,121)"/>
<polygon points="196.8,368.3 202.8,368.3 202.8,374.3 196.8,374.3" fill="rgb(255,60,60)"/>
<polygon points="212.8,368.3 218.8,368.3 218.8,374.3 212.8,374.3" fill="rgb(255,254,254)"/>
<polygon points="218.8,368.3 224.8,368.3 224.8,374.3 218.8,374.3" fill="rgb(210,210,255)"/>
<polygon points="224.8,368.3 230.8,368.3 230.8,374.3 224.8,374.3" fill="rgb(229,229,255)"/>
<polygon points="230.8,368.3 236.8,368.3 236.8,374.3 230.8,374.3" fill="rgb(239,239,255)"/>
<polygon points="236.8,368.3 242.8,368.3 242.8,374.3 236.8,374.3" fill="rgb(215,215,255)"/>
<polygon points="242.8,368.3 248.8,368.3 248.8,374.3 242.8,374.3" fill="rgb(255,215,215)"/>
<polygon points="248.8,368.3 254.8,368.3 254.8,374.3 248.8,374.3" fill="rgb(255,102,102)"/>
<polygon points="254.8,368.3 260.8,368.3 260.8,374.3 254.8,374.3" fill="rgb(255,180,180)"/>
<polygon points="270.8,368.3 276.8,368.3 276.8,374.3 270.8,374.3" fill="rgb(255,150,150)"/>
<polygon points="276.8,368.3 282.8,368.3 282.8,374.3 276.8,374.3" fill="rgb(254,216,216)"/>
<polygon points="282.8,368.3 288.8,368.3 288.8,374.3 282.8,374.3" fill="rgb(255,156,156)"/>
<polygon points="288.8,368.3 294.8,368.3 294.8,374.3 288.8,374.3" fill="rgb(255,157,157)"/>
<polygon points="294.8,368.3 300.8,368.3 300.8,374.3 294.8,374.3" fill="rgb(255,218,218)"/>
<polygon points="300.8,368.3 306.8,368.3 306.8,374.3 300.8,374.3" fill="rgb(255,202,202)"/>
<polygon points="306.8,368.3 312.8,368.3 312.8,374.3 306.8,374.3" fill="rgb(218,218,255)"/>
<polygon points="312.8,368.3 318.8,368.3 318.8,374.3 312.8,374.3" fill="rgb(255,205,205)"/>
<polygon points="120.8,212.3 144.8,212.3 144.8,374.3 120.8,374.3" fill="none" stroke="black" stroke-width="1"/>
<polygon points="154.8,212.3 202.8,212.3 202.8,374.3 154.8,374.3" fill="none" stroke="black" stroke-width="1"/>
<polygon points="212.8,212.3 260.8,212.3 260.8,374.3 212.8,374.3" fill="none" stroke="black" stroke-width="1"/>
<polygon points="270.8,212.3 318.8,212.3 318.8,374.3 270.8,374.3" fill="none" stroke="black" stroke-width="1"/>
<text xml:space="preserve" x="180.4" y="406.633" font-family="Calibri" font-size="6" text-anchor="middle">moduleID</text>
<polygon points="70.4,414.3 90.4,414.3 90.4,434.3 70.4,434.3" fill="rgb(250,250,250)"/><polygon points="70.4,414.3 90.4,414.3 90.4,434.3 70.4,434.3" fill="none" stroke="black" stroke-width="1"/><text xml:space="preserve" x="80.4" y="427.133" font-family="Calibri" font-size="7.5" fill="rgb(0,0,0)" text-anchor="middle">-2.0</text>
<polygon points="90.4,414.3 110.4,414.3 110.4,434.3 90.4,434.3" fill="rgb(156,210,205)"/><polygon points="90.4,414.3 110.4,414.3 110.4,434.3 90.4,434.3" fill="none" stroke="black" stroke-width="1"/><text xml:space="preserve" x="100.4" y="427.133" font-family="Calibri" font-size="7.5" fill="rgb(0,0,0)" text-anchor="middle">-0.4</text>
<polygon points="110.4,414.3 130.4,414.3 130.4,434.3 110.4,434.3" fill="rgb(116,191,184)"/><polygon points="110.4,414.3 130.4,414.3 130.4,434.3 110.4,434.3" fill="none" stroke="black" stroke-width="1"/><text xml:space="preserve" x="120.4" y="427.133" font-family="Calibri" font-size="7.5" fill="rgb(0,0,0)" text-anchor="middle">1.2</text>
<polygon points="130.4,414.3 150.4,414.3 150.4,434.3 130.4,434.3" fill="rgb(152,206,201)"/><polygon points="130.4,414.3 150.4,414.3 150.4,434.3 130.4,434.3" fill="none" stroke="black" stroke-width="1"/><text xml:space="preserve" x="140.4" y="427.133" font-family="Calibri" font-size="7.5" fill="rgb(0,0,0)" text-anchor="middle">2.8</text>
<polygon points="150.4,414.3 170.4,414.3 170.4,434.3 150.4,434.3" fill="rgb(187,220,217)"/><polygon points="150.4,414.3 170.4,414.3 170.4,434.3 150.4,434.3" fill="none" stroke="black" stroke-width="1"/><text xml:space="preserve" x="160.4" y="427.133" font-family="Calibri" font-size="7.5" fill="rgb(0,0,0)" text-anchor="middle">4.4</text>
<polygon points="170.4,414.3 190.4,414.3 190.4,434.3 170.4,434.3" fill="rgb(222,235,234)"/><polygon points="170.4,414.3 190.4,414.3 190.4,434.3 170.4,434.3" fill="none" stroke="black" stroke-width="1"/><text xml:space="preserve" x="180.4" y="427.133" font-family="Calibri" font-size="7.5" fill="rgb(0,0,0)" text-anchor="middle">6.0</text>
<polygon points="190.4,414.3 210.4,414.3 210.4,434.3 190.4,434.3" fill="rgb(242,239,232)"/><polygon points="190.4,414.3 210.4,414.3 210.4,434.3 190.4,434.3" fill="none" stroke="black" stroke-width="1"/><text xml:space="preserve" x="200.4" y="427.133" font-family="Calibri" font-size="7.5" fill="rgb(0,0,0)" text-anchor="middle">7.6</text>
<polygon points="210.4,414.3 230.4,414.3 230.4,434.3 210.4,434.3" fill="rgb(235,224,199)"/><polygon points="210.4,414.3 230.4,414.3 230.4,434.3 210.4,434.3" fill="none" stroke="black" stroke-width="1"/><text xml:space="preserve" x="220.4" y="427.133" font-family="Calibri" font-size="7.5" fill="rgb(0,0,0)" text-anchor="middle">9.2</text>
<polygon points="230.4,414.3 250.4,414.3 250.4,434.3 230.4,434.3" fill="rgb(229,209,166)"/><polygon points="230.4,414.3 250.4,414.3 250.4,434.3 230.4,434.3" fill="none" stroke="black" stroke-width="1"/><text xml:space="preserve" x="240.4" y="427.133" font-family="Calibri" font-size="7.5" fill="rgb(0,0,0)" text-anchor="middle">10.8</text>
<polygon points="250.4,414.3 270.4,414.3 270.4,434.3 250.4,434.3" fill="rgb(222,194,133)"/><polygon points="250.4,414.3 270.4,414.3 270.4,434.3 250.4,434.3" fill="none" stroke="black" stroke-width="1"/><text xml:space="preserve" x="260.4" y="427.133" font-family="Calibri" font-size="7.5" fill="rgb(0,0,0)" text-anchor="middle">12.4</text>
<polygon points="270.4,414.3 290.4,414.3 290.4,434.3 270.4,434.3" fill="rgb(216,179,101)"/><polygon points="270.4,414.3 290.4,414.3 290.4,434.3 270.4,434.3" fill="none" stroke="black" stroke-width="1"/><text xml:space="preserve" x="280.4" y="427.133" font-family="Calibri" font-size="7.5" fill="rgb(0,0,0)" text-anchor="middle">14.0</text>
<text xml:space="preserve" x="180.4" y="466.633" font-family="Calibri" font-size="6" text-anchor="middle">marklevel</text>
<polygon points="70.4,474.3 90.4,474.3 90.4,494.3 70.4,494.3" fill="rgb(0,0,255)"/><polygon points="70.4,474.3 90.4,474.3 90.4,494.3 70.4,494.3" fill="none" stroke="black" stroke-width="1"/><text xml:space="preserve" x="80.4" y="487.133" font-family="Calibri" font-size="7.5" fill="rgb(255,255,255)" text-anchor="middle">-2.0</text>
<polygon points="90.4,474.3 110.4,474.3 110.4,494.3 90.4,494.3" fill="rgb(50,50,255)"/><polygon points="90.4,474.3 110.4,474.3 110.4,494.3 90.4,494.3" fill="none" stroke="black" stroke-width="1"/><text xml:space="preserve" x="100.4" y="487.133" font-family="Calibri" font-size="7.5" fill="rgb(255,255,255)" text-anchor="middle">-1.6</text>
<polygon points="110.4,474.3 130.4,474.3 130.4,494.3 110.4,494.3" fill="rgb(102,102,255)"/><polygon points="110.4,474.3 130.4,474.3 130.4,494.3 110.4,494.3" fill="none" stroke="black" stroke-width="1"/><text xml:space="preserve" x="120.4" y="487.133" font-family="Calibri" font-size="7.5" fill="rgb(255,255,255)" text-anchor="middle">-1.2</text>
<polygon points="130.4,474.3 150.4,474.3 150.4,494.3 130.4,494.3" fill="rgb(153,153,255)"/><polygon points="130.4,474.3 150.4,474.3 150.4,494.3 130.4,494.3" fill="none" stroke="black" stroke-width="1"/><text xml:space="preserve" x="140.4" y="487.133" font-family="Calibri" font-size="7.5" fill="rgb(0,0,0)" text-anchor="middle">-0.8</text>
<polygon points="150.4,474.3 170.4,474.3 170.4,494.3 150.4,494.3" fill="rgb(204,204,255)"/><polygon points="150.4,474.3 170.4,474.3 170.4,494.3 150.4,494.3" fill="none" stroke="black" stroke-width="1"/><text xml:space="preserve" x="160.4" y="487.133" font-family="Calibri" font-size="7.5" fill="rgb(0,0,0)" text-anchor="middle">-0.4</text>
<polygon points="170.4,474.3 190.4,474.3 190.4,494.3 170.4,494.3" fill="rgb(255,255,255)"/><polygon points="170.4,474.3 190.4,474.3 190.4,494.3 170.4,494.3" fill="none" stroke="black" stroke-width="1"/><text xml:space="preserve" x="180.4" y="487.133" font-family="Calibri" font-size="7.5" fill="rgb(0,0,0)" text-anchor="middle">0.0</text>
<polygon points="190.4,474.3 210.4,474.3 210.4,494.3 190.4,494.3" fill="rgb(255,204,204)"/><polygon points="190.4,474.3 210.4,474.3 210.4,494.3 190.4,494.3" fill="none" stroke="black" stroke-width="1"/><text xml:space="preserve" x="200.4" y="487.133" font-family="Calibri" font-size="7.5" fill="rgb(0,0,0)" text-anchor="middle">0.4</text>
<polygon points="210.4,474.3 230.4,474.3 230.4,494.3 210.4,494.3" fill="rgb(255,153,153)"/><polygon points="210.4,474.3 230.4,474.3 230.4,494.3 210.4,494.3" fill="none" stroke="black" stroke-width="1"/><text xml:space="preserve" x="220.4" y="487.133" font-family="Calibri" font-size="7.5" fill="rgb(0,0,0)" text-anchor="middle">0.8</text>
<polygon points="230.4,474.3 250.4,474.3 250.4,494.3 230.4,494.3" fill="rgb(255,102,102)"/><polygon points="230.4,474.3 250.4,474.3 250.4,494.3 230.4,494.3" fill="none" stroke="black" stroke-width="1"/><text xml:space="preserve" x="240.4" y="487.133" font-family="Calibri" font-size="7.5" fill="rgb(0,0,0)" text-anchor="middle">1.2</text>
<polygon points="250.4,474.3 270.4,474.3 270.4,494.3 250.4,494.3" fill="rgb(255,50,50)"/><polygon points="250.4,474.3 270.4,474.3 270.4,494.3 250.4,494.3" fill="none" stroke="black" stroke-width="1"/><text xml:space="preserve" x="260.4" y="487.133" font-family="Calibri" font-size="7.5" fill="rgb(255,255,255)" text-anchor="middle">1.6</text>
<polygon points="270.4,474.3 290.4,474.3 290.4,494.3 270.4,494.3" fill="rgb(255,0,0)"/><polygon points="270.4,474.3 290.4,474.3 290.4,494.3 270.4,494.3" fill="none" stroke="black" stroke-width="1"/><text xml:space="preserve" x="280.4" y="487.133" font-family="Calibri" font-size="7.5" fill="rgb(255,255,255)" text-anchor="middle">2.0</text>
</svg>
