<?xml version="1.0" standalone="no"?><!DOCTYPE svg PUBLIC "-//W3C//DTD SVG 1.1//EN" "http://www.w3.org/Graphics/SVG/1.1/DTD/svg11.dtd">
<svg width="348.8" height="418.3" version="1.1" xmlns="http://www.w3.org/2000/svg">
<text xml:space="preserve" x="104.8" y="217.633" font-family="Calibri" font-size="6" text-anchor="end">Adam2</text>
<text xml:space="preserve" x="104.8" y="223.633" font-family="Calibri" font-size="6" text-anchor="end">Prss28</text>
<text xml:space="preserve" x="104.8" y="229.633" font-family="Calibri" font-size="6" text-anchor="end">Avpr2</text>
<text xml:space="preserve" x="104.8" y="235.633" font-family="Calibri" font-size="6" text-anchor="end">Cd300e</text>
<text xml:space="preserve" x="104.8" y="241.633" font-family="Calibri" font-size="6" text-anchor="end">Epx</text>
<text xml:space="preserve" x="104.8" y="247.633" font-family="Calibri" font-size="6" text-anchor="end">Gdap1l1</text>
<text xml:space="preserve" x="104.8" y="253.633" font-family="Calibri" font-size="6" text-anchor="end">Kcnh6</text>
<text xml:space="preserve" x="104.8" y="259.633" font-family="Calibri" font-size="6" text-anchor="end">Tmem63c</text>
<text xml:space="preserve" x="104.8" y="265.633" font-family="Calibri" font-size="6" text-anchor="end">Arr3</text>
<text xml:space="preserve" x="104.8" y="271.633" font-family="Calibri" font-size="6" text-anchor="end">Tmprss13</text>
<text xml:space="preserve" x="104.8" y="277.633" font-family="Calibri" font-size="6" text-anchor="end">Rhox11</text>
<text xml:space="preserve" x="115.133" y="208.3" font-family="Calibri" font-size="6" transform="rotate(270 115.133 208.3)">ips</text>
<text xml:space="preserve" x="123.133" y="208.3" font-family="Calibri" font-size="6" transform="rotate(270 123.133 208.3)">pips</text>
<text xml:space="preserve" x="131.133" y="208.3" font-family="Calibri" font-size="6" transform="rotate(270 131.133 208.3)">mef</text>
<text xml:space="preserve" x="148.133" y="208.3" font-family="Calibri" font-size="6" transform="rotate(270 148.133 208.3)">ips_H3K4me3iPS</text>
<text xml:space="preserve" x="154.133" y="208.3" font-family="Calibri" font-size="6" transform="rotate(270 154.133 208.3)">ips_H3K9aciPS</text>
<text xml:space="preserve" x="160.133" y="208.3" font-family="Calibri" font-size="6" transform="rotate(270 160.133 208.3)">ips_H3K14aciPS</text>
<text xml:space="preserve" x="166.133" y="208.3" font-family="Calibri" font-size="6" transform="rotate(270 166.133 208.3)">ips_H3K18aciPS</text>
<text xml:space="preserve" x="172.133" y="208.3" font-family="Calibri" font-size="6" transform="rotate(270 172.133 208.3)">ips_H3K79me2iPS</text>
<text xml:space="preserve" x="178.133" y="208.3" font-family="Calibri" font-size="6" transform="rotate(270 178.133 208.3)">ips_H3K9me2iPS</text>
<text xml:space="preserve" x="184.133" y="208.3" font-family="Calibri" font-size="6" transform="rotate(270 184.133 208.3)">ips_H3K9me3iPS</text>
<text xml:space="preserve" x="190.133" y="208.3" font-family="Calibri" font-size="6" transform="rotate(270 190.133 208.3)">ips_H3K27me3iPS</text>
<text xml:space="preserve" x="206.133" y="208.3" font-family="Calibri" font-size="6" transform="rotate(270 206.133 208.3)">pips_H3K4me3pips</text>
<text xml:space="preserve" x="212.133" y="208.3" font-family="Calibri" font-size="6" transform="rotate(270 212.133 208.3)">pips_H3K9acpips</text>
<text xml:space="preserve" x="218.133" y="208.3" font-family="Calibri" font-size="6" transform="rotate(270 218.133 208.3)">pips_H3K14acpips</text>
<text xml:space="preserve" x="224.133" y="208.3" font-family="Calibri" font-size="6" transform="rotate(270 224.133 208.3)">pips_H3K18acpips</text>
<text xml:space="preserve" x="230.133" y="208.3" font-family="Calibri" font-size="6" transform="rotate(270 230.133 208.3)">pips_H3K79me2pips</text>
<text xml:space="preserve" x="236.133" y="208.3" font-family="Calibri" font-size="6" transform="rotate(270 236.133 208.3)">pips_H3K9me2pips</text>
<text xml:space="preserve" x="242.133" y="208.3" font-family="Calibri" font-size="6" transform="rotate(270 242.133 208.3)">pips_H3K9me3pips</text>
<text xml:space="preserve" x="248.133" y="208.3" font-family="Calibri" font-size="6" transform="rotate(270 248.133 208.3)">pips_H3K27me3pips</text>
<text xml:space="preserve" x="264.133" y="208.3" font-family="Calibri" font-size="6" transform="rotate(270 264.133 208.3)">mef_H3K4me3mef</text>
<text xml:space="preserve" x="270.133" y="208.3" font-family="Calibri" font-size="6" transform="rotate(270 270.133 208.3)">mef_H3K9acmef</text>
<text xml:space="preserve" x="276.133" y="208.3" font-family="Calibri" font-size="6" transform="rotate(270 276.133 208.3)">mef_H3K14acmef</text>
<text xml:space="preserve" x="282.133" y="208.3" font-family="Calibri" font-size="6" transform="rotate(270 282.133 208.3)">mef_H3K18acmef</text>
<text xml:space="preserve" x="288.133" y="208.3" font-family="Calibri" font-size="6" transform="rotate(270 288.133 208.3)">mef_H3K79me2mef</text>
<text xml:space="preserve" x="294.133" y="208.3" font-family="Calibri" font-size="6" transform="rotate(270 294.133 208.3)">mef_H3K9me2mef</text>
<text xml:space="preserve" x="300.133" y="208.3" font-family="Calibri" font-size="6" transform="rotate(270 300.133 208.3)">mef_H3K9me3mef</text>
<text xml:space="preserve" x="306.133" y="208.3" font-family="Calibri" font-size="6" transform="rotate(270 306.133 208.3)">mef_H3K27me3mef</text>
<polygon points="108.8,212.3 116.8,212.3 116.8,218.3 108.8,218.3" fill="rgb(178,217,213)"/><text xml:space="preserve" x="112.8" y="218.133" font-family="Calibri" font-size="7.5" fill="rgb(0,0,0)" text-anchor="middle">4</text>
<polygon points="116.8,212.3 124.8,212.3 124.8,218.3 116.8,218.3" fill="rgb(156,207,203)"/><text xml:space="preserve" x="120.8" y="218.133" font-family="Calibri" font-size="7.5" fill="rgb(0,0,0)" text-anchor="middle">3</text>
<polygon points="124.8,212.3 132.8,212.3 132.8,218.3 124.8,218.3" fill="rgb(156,207,203)"/><text xml:space="preserve" x="128.8" y="218.133" font-family="Calibri" font-size="7.5" fill="rgb(0,0,0)" text-anchor="middle">3</text>
<polygon points="142.8,212.3 148.8,212.3 148.8,218.3 142.8,218.3" fill="rgb(180,180,255)"/>
<polygon points="148.8,212.3 154.8,212.3 154.8,218.3 148.8,218.3" fill="rgb(181,181,255)"/>
<polygon points="154.8,212.3 160.8,212.3 160.8,218.3 154.8,218.3" fill="rgb(196,196,255)"/>
<polygon points="160.8,212.3 166.8,212.3 166.8,218.3 160.8,218.3" fill="rgb(181,181,255)"/>
<polygon points="166.8,212.3 172.8,212.3 172.8,218.3 166.8,218.3" fill="rgb(177,177,255)"/>
<polygon points="172.8,212.3 178.8,212.3 178.8,218.3 172.8,218.3" fill="rgb(206,206,255)"/>
<polygon points="178.8,212.3 184.8,212.3 184.8,218.3 178.8,218.3" fill="rgb(245,245,255)"/>
<polygon points="184.8,212.3 190.8,212.3 190.8,218.3 184.8,218.3" fill="rgb(255,210,210)"/>
<polygon points="200.8,212.3 206.8,212.3 206.8,218.3 200.8,218.3" fill="rgb(182,182,255)"/>
<polygon points="206.8,212.3 212.8,212.3 212.8,218.3 206.8,218.3" fill="rgb(140,140,255)"/>
<polygon points="212.8,212.3 218.8,212.3 218.8,218.3 212.8,218.3" fill="rgb(234,234,255)"/>
<polygon points="218.8,212.3 224.8,212.3 224.8,218.3 218.8,218.3" fill="rgb(137,137,255)"/>
<polygon points="224.8,212.3 230.8,212.3 230.8,218.3 224.8,218.3" fill="rgb(180,180,255)"/>
<polygon points="230.8,212.3 236.8,212.3 236.8,218.3 230.8,218.3" fill="rgb(255,188,188)"/>
<polygon points="236.8,212.3 242.8,212.3 242.8,218.3 236.8,218.3" fill="rgb(255,217,217)"/>
<polygon points="242.8,212.3 248.8,212.3 248.8,218.3 242.8,218.3" fill="rgb(255,166,166)"/>
<polygon points="258.8,212.3 264.8,212.3 264.8,218.3 258.8,218.3" fill="rgb(175,175,255)"/>
<polygon points="264.8,212.3 270.8,212.3 270.8,218.3 264.8,218.3" fill="rgb(162,162,255)"/>
<polygon points="270.8,212.3 276.8,212.3 276.8,218.3 270.8,218.3" fill="rgb(241,241,255)"/>
<polygon points="276.8,212.3 282.8,212.3 282.8,218.3 276.8,218.3" fill="rgb(131,131,255)"/>
<polygon points="282.8,212.3 288.8,212.3 288.8,218.3 282.8,218.3" fill="rgb(165,165,255)"/>
<polygon points="288.8,212.3 294.8,212.3 294.8,218.3 288.8,218.3" fill="rgb(255,208,208)"/>
<polygon points="294.8,212.3 300.8,212.3 300.8,218.3 294.8,218.3" fill="rgb(255,196,196)"/>
<polygon points="300.8,212.3 306.8,212.3 306.8,218.3 300.8,218.3" fill="rgb(255,112,112)"/>
<polygon points="108.8,218.3 116.8,218.3 116.8,224.3 108.8,224.3" fill="rgb(178,217,213)"/><text xml:space="preserve" x="112.8" y="224.133" font-family="Calibri" font-size="7.5" fill="rgb(0,0,0)" text-anchor="middle">4</text>
<polygon points="116.8,218.3 124.8,218.3 124.8,224.3 116.8,224.3" fill="rgb(156,207,203)"/><text xml:space="preserve" x="120.8" y="224.133" font-family="Calibri" font-size="7.5" fill="rgb(0,0,0)" text-anchor="middle">3</text>
<polygon points="124.8,218.3 132.8,218.3 132.8,224.3 124.8,224.3" fill="rgb(156,207,203)"/><text xml:space="preserve" x="128.8" y="224.133" font-family="Calibri" font-size="7.5" fill="rgb(0,0,0)" text-anchor="middle">3</text>
<polygon points="142.8,218.3 148.8,218.3 148.8,224.3 142.8,224.3" fill="rgb(129,129,255)"/>
<polygon points="148.8,218.3 154.8,218.3 154.8,224.3 148.8,224.3" fill="rgb(176,176,255)"/>
<polygon points="154.8,218.3 160.8,218.3 160.8,224.3 154.8,224.3" fill="rgb(223,223,255)"/>
<polygon points="160.8,218.3 166.8,218.3 166.8,224.3 160.8,224.3" fill="rgb(179,179,255)"/>
<polygon points="166.8,218.3 172.8,218.3 172.8,224.3 166.8,224.3" fill="rgb(150,150,255)"/>
<polygon points="172.8,218.3 178.8,218.3 178.8,224.3 172.8,224.3" fill="rgb(255,209,209)"/>
<polygon points="178.8,218.3 184.8,218.3 184.8,224.3 178.8,224.3" fill="rgb(202,202,255)"/>
<polygon points="184.8,218.3 190.8,218.3 190.8,224.3 184.8,224.3" fill="rgb(255,232,232)"/>
<polygon points="200.8,218.3 206.8,218.3 206.8,224.3 200.8,224.3" fill="rgb(204,204,255)"/>
<polygon points="206.8,218.3 212.8,218.3 212.8,224.3 206.8,224.3" fill="rgb(155,155,255)"/>
<polygon points="212.8,218.3 218.8,218.3 218.8,224.3 212.8,224.3" fill="rgb(237,237,255)"/>
<polygon points="218.8,218.3 224.8,218.3 224.8,224.3 218.8,224.3" fill="rgb(124,124,255)"/>
<polygon points="224.8,218.3 230.8,218.3 230.8,224.3 224.8,224.3" fill="rgb(154,154,255)"/>
<polygon points="230.8,218.3 236.8,218.3 236.8,224.3 230.8,224.3" fill="rgb(244,244,255)"/>
<polygon points="236.8,218.3 242.8,218.3 242.8,224.3 236.8,224.3" fill="rgb(255,187,187)"/>
<polygon points="242.8,218.3 248.8,218.3 248.8,224.3 242.8,224.3" fill="rgb(255,91,91)"/>
<polygon points="258.8,218.3 264.8,218.3 264.8,224.3 258.8,224.3" fill="rgb(126,126,255)"/>
<polygon points="264.8,218.3 270.8,218.3 270.8,224.3 264.8,224.3" fill="rgb(198,198,255)"/>
<polygon points="270.8,218.3 276.8,218.3 276.8,224.3 270.8,224.3" fill="rgb(213,213,255)"/>
<polygon points="276.8,218.3 282.8,218.3 282.8,224.3 276.8,224.3" fill="rgb(123,123,255)"/>
<polygon points="282.8,218.3 288.8,218.3 288.8,224.3 282.8,224.3" fill="rgb(175,175,255)"/>
<polygon points="288.8,218.3 294.8,218.3 294.8,224.3 288.8,224.3" fill="rgb(255,232,232)"/>
<polygon points="294.8,218.3 300.8,218.3 300.8,224.3 294.8,224.3" fill="rgb(255,209,209)"/>
<polygon points="300.8,218.3 306.8,218.3 306.8,224.3 300.8,224.3" fill="rgb(255,130,130)"/>
<polygon points="108.8,224.3 116.8,224.3 116.8,230.3 108.8,230.3" fill="rgb(178,217,213)"/><text xml:space="preserve" x="112.8" y="230.133" font-family="Calibri" font-size="7.5" fill="rgb(0,0,0)" text-anchor="middle">4</text>
<polygon points="116.8,224.3 124.8,224.3 124.8,230.3 116.8,230.3" fill="rgb(156,207,203)"/><text xml:space="preserve" x="120.8" y="230.133" font-family="Calibri" font-size="7.5" fill="rgb(0,0,0)" text-anchor="middle">3</text>
<polygon points="124.8,224.3 132.8,224.3 132.8,230.3 124.8,230.3" fill="rgb(156,207,203)"/><text xml:space="preserve" x="128.8" y="230.133" font-family="Calibri" font-size="7.5" fill="rgb(0,0,0)" text-anchor="middle">3</text>
<polygon points="142.8,224.3 148.8,224.3 148.8,230.3 142.8,230.3" fill="rgb(170,170,255)"/>
<polygon points="148.8,224.3 154.8,224.3 154.8,230.3 148.8,230.3" fill="rgb(209,209,255)"/>
<polygon points="154.8,224.3 160.8,224.3 160.8,230.3 154.8,230.3" fill="rgb(244,244,255)"/>
<polygon points="160.8,224.3 166.8,224.3 166.8,230.3 160.8,230.3" fill="rgb(243,243,255)"/>
<polygon points="166.8,224.3 172.8,224.3 172.8,230.3 166.8,230.3" fill="rgb(185,185,255)"/>
<polygon points="172.8,224.3 178.8,224.3 178.8,230.3 172.8,230.3" fill="rgb(255,252,252)"/>
<polygon points="178.8,224.3 184.8,224.3 184.8,230.3 178.8,230.3" fill="rgb(196,196,255)"/>
<polygon points="184.8,224.3 190.8,224.3 190.8,230.3 184.8,230.3" fill="rgb(255,238,238)"/>
<polygon points="200.8,224.3 206.8,224.3 206.8,230.3 200.8,230.3" fill="rgb(235,235,255)"/>
<polygon points="206.8,224.3 212.8,224.3 212.8,230.3 206.8,230.3" fill="rgb(187,187,255)"/>
<polygon points="212.8,224.3 218.8,224.3 218.8,230.3 212.8,230.3" fill="rgb(175,175,255)"/>
<polygon points="218.8,224.3 224.8,224.3 224.8,230.3 218.8,230.3" fill="rgb(132,132,255)"/>
<polygon points="224.8,224.3 230.8,224.3 230.8,230.3 224.8,230.3" fill="rgb(175,175,255)"/>
<polygon points="230.8,224.3 236.8,224.3 236.8,230.3 230.8,230.3" fill="rgb(254,254,255)"/>
<polygon points="236.8,224.3 242.8,224.3 242.8,230.3 236.8,230.3" fill="rgb(255,242,242)"/>
<polygon points="242.8,224.3 248.8,224.3 248.8,230.3 242.8,230.3" fill="rgb(255,114,114)"/>
<polygon points="258.8,224.3 264.8,224.3 264.8,230.3 258.8,230.3" fill="rgb(154,154,255)"/>
<polygon points="264.8,224.3 270.8,224.3 270.8,230.3 264.8,230.3" fill="rgb(179,179,255)"/>
<polygon points="270.8,224.3 276.8,224.3 276.8,230.3 270.8,230.3" fill="rgb(189,189,255)"/>
<polygon points="276.8,224.3 282.8,224.3 282.8,230.3 276.8,230.3" fill="rgb(174,174,255)"/>
<polygon points="282.8,224.3 288.8,224.3 288.8,230.3 282.8,230.3" fill="rgb(212,212,255)"/>
<polygon points="288.8,224.3 294.8,224.3 294.8,230.3 288.8,230.3" fill="rgb(255,236,236)"/>
<polygon points="294.8,224.3 300.8,224.3 300.8,230.3 294.8,230.3" fill="rgb(255,188,188)"/>
<polygon points="300.8,224.3 306.8,224.3 306.8,230.3 300.8,230.3" fill="rgb(255,157,157)"/>
<polygon points="108.8,230.3 116.8,230.3 116.8,236.3 108.8,236.3" fill="rgb(178,217,213)"/><text xml:space="preserve" x="112.8" y="236.133" font-family="Calibri" font-size="7.5" fill="rgb(0,0,0)" text-anchor="middle">4</text>
<polygon points="116.8,230.3 124.8,230.3 124.8,236.3 116.8,236.3" fill="rgb(156,207,203)"/><text xml:space="preserve" x="120.8" y="236.133" font-family="Calibri" font-size="7.5" fill="rgb(0,0,0)" text-anchor="middle">3</text>
<polygon points="124.8,230.3 132.8,230.3 132.8,236.3 124.8,236.3" fill="rgb(156,207,203)"/><text xml:space="preserve" x="128.8" y="236.133" font-family="Calibri" font-size="7.5" fill="rgb(0,0,0)" text-anchor="middle">3</text>
<polygon points="142.8,230.3 148.8,230.3 148.8,236.3 142.8,236.3" fill="rgb(148,148,255)"/>
<polygon points="148.8,230.3 154.8,230.3 154.8,236.3 148.8,236.3" fill="rgb(199,199,255)"/>
<polygon points="154.8,230.3 160.8,230.3 160.8,236.3 154.8,236.3" fill="rgb(255,239,239)"/>
<polygon points="160.8,230.3 166.8,230.3 166.8,236.3 160.8,236.3" fill="rgb(255,198,198)"/>
<polygon points="166.8,230.3 172.8,230.3 172.8,236.3 166.8,236.3" fill="rgb(170,170,255)"/>
<polygon points="172.8,230.3 178.8,230.3 178.8,236.3 172.8,236.3" fill="rgb(255,232,232)"/>
<polygon points="178.8,230.3 184.8,230.3 184.8,236.3 178.8,236.3" fill="rgb(255,253,253)"/>
<polygon points="184.8,230.3 190.8,230.3 190.8,236.3 184.8,236.3" fill="rgb(255,186,186)"/>
<polygon points="200.8,230.3 206.8,230.3 206.8,236.3 200.8,236.3" fill="rgb(203,203,255)"/>
<polygon points="206.8,230.3 212.8,230.3 212.8,236.3 206.8,236.3" fill="rgb(126,126,255)"/>
<polygon points="212.8,230.3 218.8,230.3 218.8,236.3 212.8,236.3" fill="rgb(200,200,255)"/>
<polygon points="218.8,230.3 224.8,230.3 224.8,236.3 218.8,236.3" fill="rgb(85,85,255)"/>
<polygon points="224.8,230.3 230.8,230.3 230.8,236.3 224.8,236.3" fill="rgb(163,163,255)"/>
<polygon points="230.8,230.3 236.8,230.3 236.8,236.3 230.8,236.3" fill="rgb(255,216,216)"/>
<polygon points="236.8,230.3 242.8,230.3 242.8,236.3 236.8,236.3" fill="rgb(255,165,165)"/>
<polygon points="242.8,230.3 248.8,230.3 248.8,236.3 242.8,236.3" fill="rgb(255,115,115)"/>
<polygon points="258.8,230.3 264.8,230.3 264.8,236.3 258.8,236.3" fill="rgb(155,155,255)"/>
<polygon points="264.8,230.3 270.8,230.3 270.8,236.3 264.8,236.3" fill="rgb(183,183,255)"/>
<polygon points="270.8,230.3 276.8,230.3 276.8,236.3 270.8,236.3" fill="rgb(219,219,255)"/>
<polygon points="276.8,230.3 282.8,230.3 282.8,236.3 276.8,236.3" fill="rgb(172,172,255)"/>
<polygon points="282.8,230.3 288.8,230.3 288.8,236.3 282.8,236.3" fill="rgb(160,160,255)"/>
<polygon points="288.8,230.3 294.8,230.3 294.8,236.3 288.8,236.3" fill="rgb(254,240,240)"/>
<polygon points="294.8,230.3 300.8,230.3 300.8,236.3 294.8,236.3" fill="rgb(255,253,253)"/>
<polygon points="300.8,230.3 306.8,230.3 306.8,236.3 300.8,236.3" fill="rgb(255,83,83)"/>
<polygon points="108.8,236.3 116.8,236.3 116.8,242.3 108.8,242.3" fill="rgb(178,217,213)"/><text xml:space="preserve" x="112.8" y="242.133" font-family="Calibri" font-size="7.5" fill="rgb(0,0,0)" text-anchor="middle">4</text>
<polygon points="116.8,236.3 124.8,236.3 124.8,242.3 116.8,242.3" fill="rgb(156,207,203)"/><text xml:space="preserve" x="120.8" y="242.133" font-family="Calibri" font-size="7.5" fill="rgb(0,0,0)" text-anchor="middle">3</text>
<polygon points="124.8,236.3 132.8,236.3 132.8,242.3 124.8,242.3" fill="rgb(156,207,203)"/><text xml:space="preserve" x="128.8" y="242.133" font-family="Calibri" font-size="7.5" fill="rgb(0,0,0)" text-anchor="middle">3</text>
<polygon points="142.8,236.3 148.8,236.3 148.8,242.3 142.8,242.3" fill="rgb(157,157,255)"/>
<polygon points="148.8,236.3 154.8,236.3 154.8,242.3 148.8,242.3" fill="rgb(181,181,255)"/>
<polygon points="154.8,236.3 160.8,236.3 160.8,242.3 154.8,242.3" fill="rgb(246,246,255)"/>
<polygon points="160.8,236.3 166.8,236.3 166.8,242.3 160.8,242.3" fill="rgb(203,203,255)"/>
<polygon points="166.8,236.3 172.8,236.3 172.8,242.3 166.8,242.3" fill="rgb(156,156,255)"/>
<polygon points="172.8,236.3 178.8,236.3 178.8,242.3 172.8,242.3" fill="rgb(255,253,253)"/>
<polygon points="178.8,236.3 184.8,236.3 184.8,242.3 178.8,242.3" fill="rgb(255,236,236)"/>
<polygon points="184.8,236.3 190.8,236.3 190.8,242.3 184.8,242.3" fill="rgb(255,132,132)"/>
<polygon points="200.8,236.3 206.8,236.3 206.8,242.3 200.8,242.3" fill="rgb(207,207,255)"/>
<polygon points="206.8,236.3 212.8,236.3 212.8,242.3 206.8,242.3" fill="rgb(151,151,255)"/>
<polygon points="212.8,236.3 218.8,236.3 218.8,242.3 212.8,242.3" fill="rgb(232,232,255)"/>
<polygon points="218.8,236.3 224.8,236.3 224.8,242.3 218.8,242.3" fill="rgb(132,132,255)"/>
<polygon points="224.8,236.3 230.8,236.3 230.8,242.3 224.8,242.3" fill="rgb(155,155,255)"/>
<polygon points="230.8,236.3 236.8,236.3 236.8,242.3 230.8,242.3" fill="rgb(223,223,255)"/>
<polygon points="236.8,236.3 242.8,236.3 242.8,242.3 236.8,242.3" fill="rgb(255,227,227)"/>
<polygon points="242.8,236.3 248.8,236.3 248.8,242.3 242.8,242.3" fill="rgb(255,101,101)"/>
<polygon points="258.8,236.3 264.8,236.3 264.8,242.3 258.8,242.3" fill="rgb(149,149,255)"/>
<polygon points="264.8,236.3 270.8,236.3 270.8,242.3 264.8,242.3" fill="rgb(176,176,255)"/>
<polygon points="270.8,236.3 276.8,236.3 276.8,242.3 270.8,242.3" fill="rgb(218,218,255)"/>
<polygon points="276.8,236.3 282.8,236.3 282.8,242.3 276.8,242.3" fill="rgb(134,134,255)"/>
<polygon points="282.8,236.3 288.8,236.3 288.8,242.3 282.8,242.3" fill="rgb(153,153,255)"/>
<polygon points="288.8,236.3 294.8,236.3 294.8,242.3 288.8,242.3" fill="rgb(254,249,249)"/>
<polygon points="294.8,236.3 300.8,236.3 300.8,242.3 294.8,242.3" fill="rgb(255,251,251)"/>
<polygon points="300.8,236.3 306.8,236.3 306.8,242.3 300.8,242.3" fill="rgb(255,114,114)"/>
<polygon points="108.8,242.3 116.8,242.3 116.8,248.3 108.8,248.3" fill="rgb(178,217,213)"/><text xml:space="preserve" x="112.8" y="248.133" font-family="Calibri" font-size="7.5" fill="rgb(0,0,0)" text-anchor="middle">4</text>
<polygon points="116.8,242.3 124.8,242.3 124.8,248.3 116.8,248.3" fill="rgb(156,207,203)"/><text xml:space="preserve" x="120.8" y="248.133" font-family="Calibri" font-size="7.5" fill="rgb(0,0,0)" text-anchor="middle">3</text>
<polygon points="124.8,242.3 132.8,242.3 132.8,248.3 124.8,248.3" fill="rgb(156,207,203)"/><text xml:space="preserve" x="128.8" y="248.133" font-family="Calibri" font-size="7.5" fill="rgb(0,0,0)" text-anchor="middle">3</text>
<polygon points="142.8,242.3 148.8,242.3 148.8,248.3 142.8,248.3" fill="rgb(201,201,255)"/>
<polygon points="148.8,242.3 154.8,242.3 154.8,248.3 148.8,248.3" fill="rgb(187,187,255)"/>
<polygon points="154.8,242.3 160.8,242.3 160.8,248.3 154.8,248.3" fill="rgb(227,227,255)"/>
<polygon points="160.8,242.3 166.8,242.3 166.8,248.3 160.8,248.3" fill="rgb(255,251,251)"/>
<polygon points="166.8,242.3 172.8,242.3 172.8,248.3 166.8,248.3" fill="rgb(194,194,255)"/>
<polygon points="172.8,242.3 178.8,242.3 178.8,248.3 172.8,248.3" fill="rgb(233,233,255)"/>
<polygon points="178.8,242.3 184.8,242.3 184.8,248.3 178.8,248.3" fill="rgb(198,198,255)"/>
<polygon points="184.8,242.3 190.8,242.3 190.8,248.3 184.8,248.3" fill="rgb(255,196,196)"/>
<polygon points="200.8,242.3 206.8,242.3 206.8,248.3 200.8,248.3" fill="rgb(230,230,255)"/>
<polygon points="206.8,242.3 212.8,242.3 212.8,248.3 206.8,248.3" fill="rgb(143,143,255)"/>
<polygon points="212.8,242.3 218.8,242.3 218.8,248.3 212.8,248.3" fill="rgb(225,225,255)"/>
<polygon points="218.8,242.3 224.8,242.3 224.8,248.3 218.8,248.3" fill="rgb(121,121,255)"/>
<polygon points="224.8,242.3 230.8,242.3 230.8,248.3 224.8,248.3" fill="rgb(162,162,255)"/>
<polygon points="230.8,242.3 236.8,242.3 236.8,248.3 230.8,248.3" fill="rgb(255,173,173)"/>
<polygon points="236.8,242.3 242.8,242.3 242.8,248.3 236.8,248.3" fill="rgb(255,198,198)"/>
<polygon points="242.8,242.3 248.8,242.3 248.8,248.3 242.8,248.3" fill="rgb(255,121,121)"/>
<polygon points="258.8,242.3 264.8,242.3 264.8,248.3 258.8,248.3" fill="rgb(187,187,255)"/>
<polygon points="264.8,242.3 270.8,242.3 270.8,248.3 264.8,248.3" fill="rgb(158,158,255)"/>
<polygon points="270.8,242.3 276.8,242.3 276.8,248.3 270.8,248.3" fill="rgb(134,134,255)"/>
<polygon points="276.8,242.3 282.8,242.3 282.8,248.3 276.8,248.3" fill="rgb(129,129,255)"/>
<polygon points="282.8,242.3 288.8,242.3 288.8,248.3 282.8,248.3" fill="rgb(178,178,255)"/>
<polygon points="288.8,242.3 294.8,242.3 294.8,248.3 288.8,248.3" fill="rgb(255,177,177)"/>
<polygon points="294.8,242.3 300.8,242.3 300.8,248.3 294.8,248.3" fill="rgb(255,251,251)"/>
<polygon points="300.8,242.3 306.8,242.3 306.8,248.3 300.8,248.3" fill="rgb(255,97,97)"/>
<polygon points="108.8,248.3 116.8,248.3 116.8,254.3 108.8,254.3" fill="rgb(178,217,213)"/><text xml:space="preserve" x="112.8" y="254.133" font-family="Calibri" font-size="7.5" fill="rgb(0,0,0)" text-anchor="middle">4</text>
<polygon points="116.8,248.3 124.8,248.3 124.8,254.3 116.8,254.3" fill="rgb(156,207,203)"/><text xml:space="preserve" x="120.8" y="254.133" font-family="Calibri" font-size="7.5" fill="rgb(0,0,0)" text-anchor="middle">3</text>
<polygon points="124.8,248.3 132.8,248.3 132.8,254.3 124.8,254.3" fill="rgb(156,207,203)"/><text xml:space="preserve" x="128.8" y="254.133" font-family="Calibri" font-size="7.5" fill="rgb(0,0,0)" text-anchor="middle">3</text>
<polygon points="142.8,248.3 148.8,248.3 148.8,254.3 142.8,254.3" fill="rgb(164,164,255)"/>
<polygon points="148.8,248.3 154.8,248.3 154.8,254.3 148.8,254.3" fill="rgb(200,200,255)"/>
<polygon points="154.8,248.3 160.8,248.3 160.8,254.3 154.8,254.3" fill="rgb(251,251,255)"/>
<polygon points="160.8,248.3 166.8,248.3 166.8,254.3 160.8,254.3" fill="rgb(243,243,255)"/>
<polygon points="166.8,248.3 172.8,248.3 172.8,254.3 166.8,254.3" fill="rgb(167,167,255)"/>
<polygon points="172.8,248.3 178.8,248.3 178.8,254.3 172.8,254.3" fill="rgb(228,228,255)"/>
<polygon points="178.8,248.3 184.8,248.3 184.8,254.3 178.8,254.3" fill="rgb(235,235,255)"/>
<polygon points="184.8,248.3 190.8,248.3 190.8,254.3 184.8,254.3" fill="rgb(255,117,117)"/>
<polygon points="200.8,248.3 206.8,248.3 206.8,254.3 200.8,254.3" fill="rgb(204,204,255)"/>
<polygon points="206.8,248.3 212.8,248.3 212.8,254.3 206.8,254.3" fill="rgb(158,158,255)"/>
<polygon points="212.8,248.3 218.8,248.3 218.8,254.3 212.8,254.3" fill="rgb(189,189,255)"/>
<polygon points="218.8,248.3 224.8,248.3 224.8,254.3 218.8,254.3" fill="rgb(141,141,255)"/>
<polygon points="224.8,248.3 230.8,248.3 230.8,254.3 224.8,254.3" fill="rgb(162,162,255)"/>
<polygon points="230.8,248.3 236.8,248.3 236.8,254.3 230.8,254.3" fill="rgb(255,216,216)"/>
<polygon points="236.8,248.3 242.8,248.3 242.8,254.3 236.8,254.3" fill="rgb(255,231,231)"/>
<polygon points="242.8,248.3 248.8,248.3 248.8,254.3 242.8,254.3" fill="rgb(255,115,115)"/>
<polygon points="258.8,248.3 264.8,248.3 264.8,254.3 258.8,254.3" fill="rgb(149,149,255)"/>
<polygon points="264.8,248.3 270.8,248.3 270.8,254.3 264.8,254.3" fill="rgb(158,158,255)"/>
<polygon points="270.8,248.3 276.8,248.3 276.8,254.3 270.8,254.3" fill="rgb(108,108,255)"/>
<polygon points="276.8,248.3 282.8,248.3 282.8,254.3 276.8,254.3" fill="rgb(121,121,255)"/>
<polygon points="282.8,248.3 288.8,248.3 288.8,254.3 282.8,254.3" fill="rgb(164,164,255)"/>
<polygon points="288.8,248.3 294.8,248.3 294.8,254.3 288.8,254.3" fill="rgb(255,180,180)"/>
<polygon points="294.8,248.3 300.8,248.3 300.8,254.3 294.8,254.3" fill="rgb(243,243,255)"/>
<polygon points="300.8,248.3 306.8,248.3 306.8,254.3 300.8,254.3" fill="rgb(255,133,133)"/>
<polygon points="108.8,254.3 116.8,254.3 116.8,260.3 108.8,260.3" fill="rgb(178,217,213)"/><text xml:space="preserve" x="112.8" y="260.133" font-family="Calibri" font-size="7.5" fill="rgb(0,0,0)" text-anchor="middle">4</text>
<polygon points="116.8,254.3 124.8,254.3 124.8,260.3 116.8,260.3" fill="rgb(156,207,203)"/><text xml:space="preserve" x="120.8" y="260.133" font-family="Calibri" font-size="7.5" fill="rgb(0,0,0)" text-anchor="middle">3</text>
<polygon points="124.8,254.3 132.8,254.3 132.8,260.3 124.8,260.3" fill="rgb(156,207,203)"/><text xml:space="preserve" x="128.8" y="260.133" font-family="Calibri" font-size="7.5" fill="rgb(0,0,0)" text-anchor="middle">3</text>
<polygon points="142.8,254.3 148.8,254.3 148.8,260.3 142.8,260.3" fill="rgb(205,205,255)"/>
<polygon points="148.8,254.3 154.8,254.3 154.8,260.3 148.8,260.3" fill="rgb(204,204,255)"/>
<polygon points="154.8,254.3 160.8,254.3 160.8,260.3 154.8,260.3" fill="rgb(251,251,255)"/>
<polygon points="160.8,254.3 166.8,254.3 166.8,260.3 160.8,260.3" fill="rgb(255,226,226)"/>
<polygon points="166.8,254.3 172.8,254.3 172.8,260.3 166.8,260.3" fill="rgb(156,156,255)"/>
<polygon points="172.8,254.3 178.8,254.3 178.8,260.3 172.8,260.3" fill="rgb(251,251,255)"/>
<polygon points="178.8,254.3 184.8,254.3 184.8,260.3 178.8,260.3" fill="rgb(230,230,255)"/>
<polygon points="184.8,254.3 190.8,254.3 190.8,260.3 184.8,260.3" fill="rgb(255,139,139)"/>
<polygon points="200.8,254.3 206.8,254.3 206.8,260.3 200.8,260.3" fill="rgb(210,210,255)"/>
<polygon points="206.8,254.3 212.8,254.3 212.8,260.3 206.8,260.3" fill="rgb(170,170,255)"/>
<polygon points="212.8,254.3 218.8,254.3 218.8,260.3 212.8,260.3" fill="rgb(255,226,226)"/>
<polygon points="218.8,254.3 224.8,254.3 224.8,260.3 218.8,260.3" fill="rgb(182,182,255)"/>
<polygon points="224.8,254.3 230.8,254.3 230.8,260.3 224.8,260.3" fill="rgb(160,160,255)"/>
<polygon points="230.8,254.3 236.8,254.3 236.8,260.3 230.8,260.3" fill="rgb(255,250,250)"/>
<polygon points="236.8,254.3 242.8,254.3 242.8,260.3 236.8,260.3" fill="rgb(255,186,186)"/>
<polygon points="242.8,254.3 248.8,254.3 248.8,260.3 242.8,260.3" fill="rgb(254,130,130)"/>
<polygon points="258.8,254.3 264.8,254.3 264.8,260.3 258.8,260.3" fill="rgb(166,166,255)"/>
<polygon points="264.8,254.3 270.8,254.3 270.8,260.3 264.8,260.3" fill="rgb(144,144,255)"/>
<polygon points="270.8,254.3 276.8,254.3 276.8,260.3 270.8,260.3" fill="rgb(168,168,255)"/>
<polygon points="276.8,254.3 282.8,254.3 282.8,260.3 276.8,260.3" fill="rgb(101,101,255)"/>
<polygon points="282.8,254.3 288.8,254.3 288.8,260.3 282.8,260.3" fill="rgb(145,145,255)"/>
<polygon points="288.8,254.3 294.8,254.3 294.8,260.3 288.8,260.3" fill="rgb(255,230,230)"/>
<polygon points="294.8,254.3 300.8,254.3 300.8,260.3 294.8,260.3" fill="rgb(255,193,193)"/>
<polygon points="300.8,254.3 306.8,254.3 306.8,260.3 300.8,260.3" fill="rgb(255,60,60)"/>
<polygon points="108.8,260.3 116.8,260.3 116.8,266.3 108.8,266.3" fill="rgb(178,217,213)"/><text xml:space="preserve" x="112.8" y="266.133" font-family="Calibri" font-size="7.5" fill="rgb(0,0,0)" text-anchor="middle">4</text>
<polygon points="116.8,260.3 124.8,260.3 124.8,266.3 116.8,266.3" fill="rgb(156,207,203)"/><text xml:space="preserve" x="120.8" y="266.133" font-family="Calibri" font-size="7.5" fill="rgb(0,0,0)" text-anchor="middle">3</text>
<polygon points="124.8,260.3 132.8,260.3 132.8,266.3 124.8,266.3" fill="rgb(156,207,203)"/><text xml:space="preserve" x="128.8" y="266.133" font-family="Calibri" font-size="7.5" fill="rgb(0,0,0)" text-anchor="middle">3</text>
<polygon points="142.8,260.3 148.8,260.3 148.8,266.3 142.8,266.3" fill="rgb(155,155,255)"/>
<polygon points="148.8,260.3 154.8,260.3 154.8,266.3 148.8,266.3" fill="rgb(170,170,255)"/>
<polygon points="154.8,260.3 160.8,260.3 160.8,266.3 154.8,266.3" fill="rgb(168,168,255)"/>
<polygon points="160.8,260.3 166.8,260.3 166.8,266.3 160.8,266.3" fill="rgb(205,205,255)"/>
<polygon points="166.8,260.3 172.8,260.3 172.8,266.3 166.8,266.3" fill="rgb(181,181,255)"/>
<polygon points="172.8,260.3 178.8,260.3 178.8,266.3 172.8,266.3" fill="rgb(226,226,255)"/>
<polygon points="178.8,260.3 184.8,260.3 184.8,266.3 178.8,266.3" fill="rgb(179,179,255)"/>
<polygon points="184.8,260.3 190.8,260.3 190.8,266.3 184.8,266.3" fill="rgb(255,191,191)"/>
<polygon points="200.8,260.3 206.8,260.3 206.8,266.3 200.8,266.3" fill="rgb(212,212,255)"/>
<polygon points="206.8,260.3 212.8,260.3 212.8,266.3 206.8,266.3" fill="rgb(173,173,255)"/>
<polygon points="212.8,260.3 218.8,260.3 218.8,266.3 212.8,266.3" fill="rgb(149,149,255)"/>
<polygon points="218.8,260.3 224.8,260.3 224.8,266.3 218.8,266.3" fill="rgb(106,106,255)"/>
<polygon points="224.8,260.3 230.8,260.3 230.8,266.3 224.8,266.3" fill="rgb(165,165,255)"/>
<polygon points="230.8,260.3 236.8,260.3 236.8,266.3 230.8,266.3" fill="rgb(255,205,205)"/>
<polygon points="236.8,260.3 242.8,260.3 242.8,266.3 236.8,266.3" fill="rgb(255,230,230)"/>
<polygon points="242.8,260.3 248.8,260.3 248.8,266.3 242.8,266.3" fill="rgb(255,127,127)"/>
<polygon points="258.8,260.3 264.8,260.3 264.8,266.3 258.8,266.3" fill="rgb(170,170,255)"/>
<polygon points="264.8,260.3 270.8,260.3 270.8,266.3 264.8,266.3" fill="rgb(161,161,255)"/>
<polygon points="270.8,260.3 276.8,260.3 276.8,266.3 270.8,266.3" fill="rgb(254,254,255)"/>
<polygon points="276.8,260.3 282.8,260.3 282.8,266.3 276.8,266.3" fill="rgb(158,158,255)"/>
<polygon points="282.8,260.3 288.8,260.3 288.8,266.3 282.8,266.3" fill="rgb(195,195,255)"/>
<polygon points="288.8,260.3 294.8,260.3 294.8,266.3 288.8,266.3" fill="rgb(255,172,172)"/>
<polygon points="294.8,260.3 300.8,260.3 300.8,266.3 294.8,266.3" fill="rgb(254,248,248)"/>
<polygon points="300.8,260.3 306.8,260.3 306.8,266.3 300.8,266.3" fill="rgb(255,104,104)"/>
<polygon points="108.8,266.3 116.8,266.3 116.8,272.3 108.8,272.3" fill="rgb(178,217,213)"/><text xml:space="preserve" x="112.8" y="272.133" font-family="Calibri" font-size="7.5" fill="rgb(0,0,0)" text-anchor="middle">4</text>
<polygon points="116.8,266.3 124.8,266.3 124.8,272.3 116.8,272.3" fill="rgb(156,207,203)"/><text xml:space="preserve" x="120.8" y="272.133" font-family="Calibri" font-size="7.5" fill="rgb(0,0,0)" text-anchor="middle">3</text>
<polygon points="124.8,266.3 132.8,266.3 132.8,272.3 124.8,272.3" fill="rgb(156,207,203)"/><text xml:space="preserve" x="128.8" y="272.133" font-family="Calibri" font-size="7.5" fill="rgb(0,0,0)" text-anchor="middle">3</text>
<polygon points="142.8,266.3 148.8,266.3 148.8,272.3 142.8,272.3" fill="rgb(167,167,255)"/>
<polygon points="148.8,266.3 154.8,266.3 154.8,272.3 148.8,272.3" fill="rgb(200,200,255)"/>
<polygon points="154.8,266.3 160.8,266.3 160.8,272.3 154.8,272.3" fill="rgb(255,229,229)"/>
<polygon points="160.8,266.3 166.8,266.3 166.8,272.3 160.8,272.3" fill="rgb(255,234,234)"/>
<polygon points="166.8,266.3 172.8,266.3 172.8,272.3 166.8,272.3" fill="rgb(176,176,255)"/>
<polygon points="172.8,266.3 178.8,266.3 178.8,272.3 172.8,272.3" fill="rgb(255,178,178)"/>
<polygon points="178.8,266.3 184.8,266.3 184.8,272.3 178.8,272.3" fill="rgb(255,223,223)"/>
<polygon points="184.8,266.3 190.8,266.3 190.8,272.3 184.8,272.3" fill="rgb(255,132,132)"/>
<polygon points="200.8,266.3 206.8,266.3 206.8,272.3 200.8,272.3" fill="rgb(216,216,255)"/>
<polygon points="206.8,266.3 212.8,266.3 212.8,272.3 206.8,272.3" fill="rgb(160,160,255)"/>
<polygon points="212.8,266.3 218.8,266.3 218.8,272.3 212.8,272.3" fill="rgb(252,252,255)"/>
<polygon points="218.8,266.3 224.8,266.3 224.8,272.3 218.8,272.3" fill="rgb(151,151,255)"/>
<polygon points="224.8,266.3 230.8,266.3 230.8,272.3 224.8,272.3" fill="rgb(164,164,255)"/>
<polygon points="230.8,266.3 236.8,266.3 236.8,272.3 230.8,272.3" fill="rgb(252,252,255)"/>
<polygon points="236.8,266.3 242.8,266.3 242.8,272.3 236.8,272.3" fill="rgb(255,193,193)"/>
<polygon points="242.8,266.3 248.8,266.3 248.8,272.3 242.8,272.3" fill="rgb(255,73,73)"/>
<polygon points="258.8,266.3 264.8,266.3 264.8,272.3 258.8,272.3" fill="rgb(152,152,255)"/>
<polygon points="264.8,266.3 270.8,266.3 270.8,272.3 264.8,272.3" fill="rgb(161,161,255)"/>
<polygon points="270.8,266.3 276.8,266.3 276.8,272.3 270.8,272.3" fill="rgb(215,215,255)"/>
<polygon points="276.8,266.3 282.8,266.3 282.8,272.3 276.8,272.3" fill="rgb(170,170,255)"/>
<polygon points="282.8,266.3 288.8,266.3 288.8,272.3 282.8,272.3" fill="rgb(168,168,255)"/>
<polygon points="288.8,266.3 294.8,266.3 294.8,272.3 288.8,272.3" fill="rgb(255,238,238)"/>
<polygon points="294.8,266.3 300.8,266.3 300.8,272.3 294.8,272.3" fill="rgb(251,251,255)"/>
<polygon points="300.8,266.3 306.8,266.3 306.8,272.3 300.8,272.3" fill="rgb(255,110,110)"/>
<polygon points="108.8,272.3 116.8,272.3 116.8,278.3 108.8,278.3" fill="rgb(178,217,213)"/><text xml:space="preserve" x="112.8" y="278.133" font-family="Calibri" font-size="7.5" fill="rgb(0,0,0)" text-anchor="middle">4</text>
<polygon points="116.8,272.3 124.8,272.3 124.8,278.3 116.8,278.3" fill="rgb(156,207,203)"/><text xml:space="preserve" x="120.8" y="278.133" font-family="Calibri" font-size="7.5" fill="rgb(0,0,0)" text-anchor="middle">3</text>
<polygon points="124.8,272.3 132.8,272.3 132.8,278.3 124.8,278.3" fill="rgb(156,207,203)"/><text xml:space="preserve" x="128.8" y="278.133" font-family="Calibri" font-size="7.5" fill="rgb(0,0,0)" text-anchor="middle">3</text>
<polygon points="142.8,272.3 148.8,272.3 148.8,278.3 142.8,278.3" fill="rgb(196,196,255)"/>
<polygon points="148.8,272.3 154.8,272.3 154.8,278.3 148.8,278.3" fill="rgb(212,212,255)"/>
<polygon points="154.8,272.3 160.8,272.3 160.8,278.3 154.8,278.3" fill="rgb(203,203,255)"/>
<polygon points="160.8,272.3 166.8,272.3 166.8,278.3 160.8,278.3" fill="rgb(229,229,255)"/>
<polygon points="166.8,272.3 172.8,272.3 172.8,278.3 166.8,278.3" fill="rgb(210,210,255)"/>
<polygon points="172.8,272.3 178.8,272.3 178.8,278.3 172.8,278.3" fill="rgb(255,248,248)"/>
<polygon points="178.8,272.3 184.8,272.3 184.8,278.3 178.8,278.3" fill="rgb(197,197,255)"/>
<polygon points="184.8,272.3 190.8,272.3 190.8,278.3 184.8,278.3" fill="rgb(255,222,222)"/>
<polygon points="200.8,272.3 206.8,272.3 206.8,278.3 200.8,278.3" fill="rgb(187,187,255)"/>
<polygon points="206.8,272.3 212.8,272.3 212.8,278.3 206.8,278.3" fill="rgb(166,166,255)"/>
<polygon points="212.8,272.3 218.8,272.3 218.8,278.3 212.8,278.3" fill="rgb(203,203,255)"/>
<polygon points="218.8,272.3 224.8,272.3 224.8,278.3 218.8,278.3" fill="rgb(129,129,255)"/>
<polygon points="224.8,272.3 230.8,272.3 230.8,278.3 224.8,278.3" fill="rgb(208,208,255)"/>
<polygon points="230.8,272.3 236.8,272.3 236.8,278.3 230.8,278.3" fill="rgb(255,192,192)"/>
<polygon points="236.8,272.3 242.8,272.3 242.8,278.3 236.8,278.3" fill="rgb(255,107,107)"/>
<polygon points="242.8,272.3 248.8,272.3 248.8,278.3 242.8,278.3" fill="rgb(255,130,130)"/>
<polygon points="258.8,272.3 264.8,272.3 264.8,278.3 258.8,278.3" fill="rgb(190,190,255)"/>
<polygon points="264.8,272.3 270.8,272.3 270.8,278.3 264.8,278.3" fill="rgb(182,182,255)"/>
<polygon points="270.8,272.3 276.8,272.3 276.8,278.3 270.8,278.3" fill="rgb(216,216,255)"/>
<polygon points="276.8,272.3 282.8,272.3 282.8,278.3 276.8,278.3" fill="rgb(171,171,255)"/>
<polygon points="282.8,272.3 288.8,272.3 288.8,278.3 282.8,278.3" fill="rgb(225,225,255)"/>
<polygon points="288.8,272.3 294.8,272.3 294.8,278.3 288.8,278.3" fill="rgb(255,218,218)"/>
<polygon points="294.8,272.3 300.8,272.3 300.8,278.3 294.8,278.3" fill="rgb(255,198,198)"/>
<polygon points="300.8,272.3 306.8,272.3 306.8,278.3 300.8,278.3" fill="rgb(254,145,145)"/>
<polygon points="108.8,212.3 132.8,212.3 132.8,278.3 108.8,278.3" fill="none" stroke="black" stroke-width="1"/>
<polygon points="142.8,212.3 190.8,212.3 190.8,278.3 142.8,278.3" fill="none" stroke="black" stroke-width="1"/>
<polygon points="200.8,212.3 248.8,212.3 248.8,278.3 200.8,278.3" fill="none" stroke="black" stroke-width="1"/>
<polygon points="258.8,212.3 306.8,212.3 306.8,278.3 258.8,278.3" fill="none" stroke="black" stroke-width="1"/>
<text xml:space="preserve" x="174.4" y="310.633" font-family="Calibri" font-size="6" text-anchor="middle">moduleID</text>
<polygon points="64.4,318.3 84.4,318.3 84.4,338.3 64.4,338.3" fill="rgb(250,250,250)"/><polygon points="64.4,318.3 84.4,318.3 84.4,338.3 64.4,338.3" fill="none" stroke="black" stroke-width="1"/><text xml:space="preserve" x="74.4" y="331.133" font-family="Calibri" font-size="7.5" fill="rgb(0,0,0)" text-anchor="middle">-2.0</text>
<polygon points="84.4,318.3 104.4,318.3 104.4,338.3 84.4,338.3" fill="rgb(156,210,205)"/><polygon points="84.4,318.3 104.4,318.3 104.4,338.3 84.4,338.3" fill="none" stroke="black" stroke-width="1"/><text xml:space="preserve" x="94.4" y="331.133" font-family="Calibri" font-size="7.5" fill="rgb(0,0,0)" text-anchor="middle">-0.4</text>
<polygon points="104.4,318.3 124.4,318.3 124.4,338.3 104.4,338.3" fill="rgb(116,191,184)"/><polygon points="104.4,318.3 124.4,318.3 124.4,338.3 104.4,338.3" fill="none" stroke="black" stroke-width="1"/><text xml:space="preserve" x="114.4" y="331.133" font-family="Calibri" font-size="7.5" fill="rgb(0,0,0)" text-anchor="middle">1.2</text>
<polygon points="124.4,318.3 144.4,318.3 144.4,338.3 124.4,338.3" fill="rgb(152,206,201)"/><polygon points="124.4,318.3 144.4,318.3 144.4,338.3 124.4,338.3" fill="none" stroke="black" stroke-width="1"/><text xml:space="preserve" x="134.4" y="331.133" font-family="Calibri" font-size="7.5" fill="rgb(0,0,0)" text-anchor="middle">2.8</text>
<polygon points="144.4,318.3 164.4,318.3 164.4,338.3 144.4,338.3" fill="rgb(187,220,217)"/><polygon points="144.4,318.3 164.4,318.3 164.4,338.3 144.4,338.3" fill="none" stroke="black" stroke-width="1"/><text xml:space="preserve" x="154.4" y="331.133" font-family="Calibri" font-size="7.5" fill="rgb(0,0,0)" text-anchor="middle">4.4</text>
<polygon points="164.4,318.3 184.4,318.3 184.4,338.3 164.4,338.3" fill="rgb(222,235,234)"/><polygon points="164.4,318.3 184.4,318.3 184.4,338.3 164.4,338.3" fill="none" stroke="black" stroke-width="1"/><text xml:space="preserve" x="174.4" y="331.133" font-family="Calibri" font-size="7.5" fill="rgb(0,0,0)" text-anchor="middle">6.0</text>
<polygon points="184.4,318.3 204.4,318.3 204.4,338.3 184.4,338.3" fill="rgb(242,239,232)"/><polygon points="184.4,318.3 204.4,318.3 204.4,338.3 184.4,338.3" fill="none" stroke="black" stroke-width="1"/><text xml:space="preserve" x="194.4" y="331.133" font-family="Calibri" font-size="7.5" fill="rgb(0,0,0)" text-anchor="middle">7.6</text>
<polygon points="204.4,318.3 224.4,318.3 224.4,338.3 204.4,338.3" fill="rgb(235,224,199)"/><polygon points="204.4,318.3 224.4,318.3 224.4,338.3 204.4,338.3" fill="none" stroke="black" stroke-width="1"/><text xml:space="preserve" x="214.4" y="331.133" font-family="Calibri" font-size="7.5" fill="rgb(0,0,0)" text-anchor="middle">9.2</text>
<polygon points="224.4,318.3 244.4,318.3 244.4,338.3 224.4,338.3" fill="rgb(229,209,166)"/><polygon points="224.4,318.3 244.4,318.3 244.4,338.3 224.4,338.3" fill="none" stroke="black" stroke-width="1"/><text xml:space="preserve" x="234.4" y="331.133" font-family="Calibri" font-size="7.5" fill="rgb(0,0,0)" text-anchor="middle">10.8</text>
<polygon points="244.4,318.3 264.4,318.3 264.4,338.3 244.4,338.3" fill="rgb(222,194,133)"/><polygon points="244.4,318.3 264.4,318.3 264.4,338.3 244.4,338.3" fill="none" stroke="black" stroke-width="1"/><text xml:space="preserve" x="254.4" y="331.133" font-family="Calibri" font-size="7.5" fill="rgb(0,0,0)" text-anchor="middle">12.4</text>
<polygon points="264.4,318.3 284.4,318.3 284.4,338.3 264.4,338.3" fill="rgb(216,179,101)"/><polygon points="264.4,318.3 284.4,318.3 284.4,338.3 264.4,338.3" fill="none" stroke="black" stroke-width="1"/><text xml:space="preserve" x="274.4" y="331.133" font-family="Calibri" font-size="7.5" fill="rgb(0,0,0)" text-anchor="middle">14.0</text>
<text xml:space="preserve" x="174.4" y="370.633" font-family="Calibri" font-size="6" text-anchor="middle">marklevel</text>
<polygon points="64.4,378.3 84.4,378.3 84.4,398.3 64.4,398.3" fill="rgb(0,0,255)"/><polygon points="64.4,378.3 84.4,378.3 84.4,398.3 64.4,398.3" fill="none" stroke="black" stroke-width="1"/><text xml:space="preserve" x="74.4" y="391.133" font-family="Calibri" font-size="7.5" fill="rgb(255,255,255)" text-anchor="middle">-2.0</text>
<polygon points="84.4,378.3 104.4,378.3 104.4,398.3 84.4,398.3" fill="rgb(50,50,255)"/><polygon points="84.4,378.3 104.4,378.3 104.4,398.3 84.4,398.3" fill="none" stroke="black" stroke-width="1"/><text xml:space="preserve" x="94.4" y="391.133" font-family="Calibri" font-size="7.5" fill="rgb(255,255,255)" text-anchor="middle">-1.6</text>
<polygon points="104.4,378.3 124.4,378.3 124.4,398.3 104.4,398.3" fill="rgb(102,102,255)"/><polygon points="104.4,378.3 124.4,378.3 124.4,398.3 104.4,398.3" fill="none" stroke="black" stroke-width="1"/><text xml:space="preserve" x="114.4" y="391.133" font-family="Calibri" font-size="7.5" fill="rgb(255,255,255)" text-anchor="middle">-1.2</text>
<polygon points="124.4,378.3 144.4,378.3 144.4,398.3 124.4,398.3" fill="rgb(153,153,255)"/><polygon points="124.4,378.3 144.4,378.3 144.4,398.3 124.4,398.3" fill="none" stroke="black" stroke-width="1"/><text xml:space="preserve" x="134.4" y="391.133" font-family="Calibri" font-size="7.5" fill="rgb(0,0,0)" text-anchor="middle">-0.8</text>
<polygon points="144.4,378.3 164.4,378.3 164.4,398.3 144.4,398.3" fill="rgb(204,204,255)"/><polygon points="144.4,378.3 164.4,378.3 164.4,398.3 144.4,398.3" fill="none" stroke="black" stroke-width="1"/><text xml:space="preserve" x="154.4" y="391.133" font-family="Calibri" font-size="7.5" fill="rgb(0,0,0)" text-anchor="middle">-0.4</text>
<polygon points="164.4,378.3 184.4,378.3 184.4,398.3 164.4,398.3" fill="rgb(255,255,255)"/><polygon points="164.4,378.3 184.4,378.3 184.4,398.3 164.4,398.3" fill="none" stroke="black" stroke-width="1"/><text xml:space="preserve" x="174.4" y="391.133" font-family="Calibri" font-size="7.5" fill="rgb(0,0,0)" text-anchor="middle">0.0</text>
<polygon points="184.4,378.3 204.4,378.3 204.4,398.3 184.4,398.3" fill="rgb(255,204,204)"/><polygon points="184.4,378.3 204.4,378.3 204.4,398.3 184.4,398.3" fill="none" stroke="black" stroke-width="1"/><text xml:space="preserve" x="194.4" y="391.133" font-family="Calibri" font-size="7.5" fill="rgb(0,0,0)" text-anchor="middle">0.4</text>
<polygon points="204.4,378.3 224.4,378.3 224.4,398.3 204.4,398.3" fill="rgb(255,153,153)"/><polygon points="204.4,378.3 224.4,378.3 224.4,398.3 204.4,398.3" fill="none" stroke="black" stroke-width="1"/><text xml:space="preserve" x="214.4" y="391.133" font-family="Calibri" font-size="7.5" fill="rgb(0,0,0)" text-anchor="middle">0.8</text>
<polygon points="224.4,378.3 244.4,378.3 244.4,398.3 224.4,398.3" fill="rgb(255,102,102)"/><polygon points="224.4,378.3 244.4,378.3 244.4,398.3 224.4,398.3" fill="none" stroke="black" stroke-width="1"/><text xml:space="preserve" x="234.4" y="391.133" font-family="Calibri" font-size="7.5" fill="rgb(0,0,0)" text-anchor="middle">1.2</text>
<polygon points="244.4,378.3 264.4,378.3 264.4,398.3 244.4,398.3" fill="rgb(255,50,50)"/><polygon points="244.4,378.3 264.4,378.3 264.4,398.3 244.4,398.3" fill="none" stroke="black" stroke-width="1"/><text xml:space="preserve" x="254.4" y="391.133" font-family="Calibri" font-size="7.5" fill="rgb(255,255,255)" text-anchor="middle">1.6</text>
<polygon points="264.4,378.3 284.4,378.3 284.4,398.3 264.4,398.3" fill="rgb(255,0,0)"/><polygon points="264.4,378.3 284.4,378.3 284.4,398.3 264.4,398.3" fill="none" stroke="black" stroke-width="1"/><text xml:space="preserve" x="274.4" y="391.133" font-family="Calibri" font-size="7.5" fill="rgb(255,255,255)" text-anchor="middle">2.0</text>
</svg>
